<?xml version="1.0" standalone="no"?>
<!DOCTYPE svg PUBLIC "-//W3C//DTD SVG 1.1//EN" "http://www.w3.org/Graphics/SVG/1.1/DTD/svg11.dtd" >
<svg xmlns="http://www.w3.org/2000/svg">
<metadata></metadata>
<defs>
<font id="bluu_nextbold" horiz-adv-x="727" >
<font-face units-per-em="2048" ascent="1516" descent="-532" />
<missing-glyph horiz-adv-x="440" />
<glyph unicode="fl" horiz-adv-x="1261" d="M1069 176l152 -176h-541l143 176v717h-395v-721l131 -172h-528l151 176v698l-143 130h154q0 23 10 60t30.5 85t56.5 95.5t81.5 88t113 65.5t144.5 25h375l65 31v-1278zM823 999v205q-123 148 -274 148q-158 0 -158 -166q0 -84 37 -182h393z" />
<glyph unicode="&#xd;" horiz-adv-x="0" />
<glyph unicode=" "  horiz-adv-x="440" />
<glyph unicode="&#x09;" horiz-adv-x="440" />
<glyph unicode="&#xa0;" horiz-adv-x="440" />
<glyph unicode="!" horiz-adv-x="444" d="M340 1346l-98 -895h-74l-100 895l137 94zM39 135l176 191l174 -191l-174 -188z" />
<glyph unicode="&#x22;" horiz-adv-x="503" d="M164 973h-82l-33 450h152zM403 973h-81l-33 450h151z" />
<glyph unicode="#" horiz-adv-x="1196" d="M520 879h242l96 366h152l-97 -366h222v-103h-248l-76 -311h266v-105h-293l-96 -360h-151l96 360h-242l-98 -360h-152l99 360h-179v105h205l76 311h-223v103h250l94 366h151zM418 465h241l76 311h-241z" />
<glyph unicode="$" horiz-adv-x="952" d="M61 477h21q39 -147 123.5 -257.5t191.5 -149.5v428q-42 19 -69.5 32t-66 35t-63 42t-51.5 49t-42.5 60t-26 72.5t-10.5 88.5q0 137 84.5 232.5t246.5 109.5v110h127l-4 -108h187l86 26v-385l-15 2q-38 106 -105.5 179t-154.5 102l-14 -387q154 -65 209 -98 q153 -92 173 -229q3 -23 3 -48q0 -194 -110 -290.5t-302 -106.5l-4 -105h-78v105q-197 11 -313 63zM399 805v358q-70 -3 -113.5 -46.5t-43.5 -115.5q0 -65 40.5 -111t116.5 -85zM481 53h15q79 0 139.5 41.5t60.5 118.5q0 85 -52 139.5t-148 100.5z" />
<glyph unicode="%" horiz-adv-x="1599" d="M1315 1473l-926 -1541h-96l924 1541h98zM741 1040q0 -78 -24 -154.5t-69.5 -141t-119 -104.5t-163.5 -40q-92 0 -161.5 54.5t-102.5 137.5t-33 179q0 78 24 154.5t68.5 141t118 104.5t163.5 40q93 0 163 -54.5t103 -137.5t33 -179zM371 1352q-127 0 -127 -238 q0 -122 24.5 -225.5t70.5 -166.5t103 -63q34 0 60 25.5t40 64t20.5 77t6.5 71.5q0 121 -25 225t-71 167t-102 63zM1532 420q0 -78 -24.5 -154.5t-69.5 -141t-119 -104.5t-164 -40q-92 0 -161.5 54.5t-102.5 137t-33 178.5q0 62 14.5 124t45.5 119t74.5 101t106 70.5 t134.5 26.5q93 0 163 -54.5t103 -137.5t33 -179zM1161 731q-127 0 -127 -237q0 -122 25 -225.5t71 -166.5t103 -63q34 0 60 25t40 64t20.5 77t6.5 71q0 121 -25.5 225t-71.5 167t-102 63z" />
<glyph unicode="&#x26;" horiz-adv-x="1619" d="M1266 754l-197 139h504l-242 -143l-201 -375l164 -221l191 -154h-393l-131 188q-108 -101 -221 -160t-255 -59q-197 0 -296 80t-99 219q0 77 41.5 147t112 123.5t161 92.5t191.5 61v92h-4q-173 0 -268 85t-95 206q0 62 27.5 122t81 111.5t144 83t204.5 31.5 q175 0 271 -81t96 -201q0 -52 -20 -104t-58.5 -99.5t-102 -84.5t-143.5 -54l10 -82h142l217 -295zM598 1370q-35 0 -60 -12.5t-38 -30t-20.5 -44.5t-9 -47.5t-1.5 -47.5q0 -144 61 -248t148 -104q37 0 64.5 21t41.5 53.5t20.5 63t6.5 56.5q0 142 -62.5 241t-150.5 99z M930 233l-295 426q-111 -28 -186.5 -112.5t-75.5 -186.5q0 -256 297 -256q69 0 142.5 36t117.5 93z" />
<glyph unicode="'" horiz-adv-x="274" d="M168 973h-82l-33 450h152z" />
<glyph unicode="(" horiz-adv-x="595" d="M545 1487l30 -31q-177 -180 -244 -386.5t-67 -504.5t67 -505t244 -386l-30 -30q-146 126 -212 200q-219 242 -260 558q-10 79 -10 163q0 75 8.5 145.5t21 127.5t36.5 115t44.5 100t55.5 91.5t58 79.5t65 74t64.5 66t66.5 64t62 59z" />
<glyph unicode=")" horiz-adv-x="593" d="M20 1456l31 31q18 -18 61.5 -59.5t66 -63.5t63.5 -65.5t65 -74t58.5 -79.5t54.5 -91.5t44 -100.5t36.5 -115t21 -127.5t8.5 -145.5q0 -121 -19.5 -228.5t-58 -193.5t-80 -154.5t-101 -133t-103.5 -106.5t-105 -95q-8 -7 -12 -10l-31 30q177 179 244.5 386.5t67.5 504.5 t-67 504t-245 387z" />
<glyph unicode="*" horiz-adv-x="686" d="M365 1100h-37l-58 239l74 86l76 -82zM283 1055l18 32l-180 168l-111 -20l33 -107zM406 1055l-19 32l178 168l113 -20l-35 -107zM283 1022l18 -33l-180 -170l-111 23l33 106zM406 1022l-19 -33l178 -170l113 23l-35 106zM328 981h37l57 -240l-74 -86l-76 82z" />
<glyph unicode="+" horiz-adv-x="1075" d="M592 635h366v-148h-366v-374l-162 -62v436h-348v148h348v354l162 62v-416z" />
<glyph unicode="," horiz-adv-x="464" d="M96 -252l-28 21q133 108 133 213q0 15 -3 27.5t-11 25t-12.5 18t-17.5 19t-16 16.5l-80 64l170 174q61 -37 113.5 -94t52.5 -105q0 -190 -292 -373z" />
<glyph unicode="-" horiz-adv-x="602" d="M563 496h-502v163h502v-163z" />
<glyph unicode="." horiz-adv-x="370" d="M10 135l176 191l174 -191l-174 -188z" />
<glyph unicode="/" horiz-adv-x="911" d="M215 0h-158l639 1423h158z" />
<glyph unicode="0" horiz-adv-x="1148" d="M1067 655q0 -97 -21.5 -193t-66.5 -184.5t-108.5 -157t-155 -109t-197.5 -40.5q-102 0 -186 48.5t-138 130t-83 184.5t-29 215q0 97 21.5 193t66.5 184.5t108.5 157t155 109t197.5 40.5q103 0 187 -48.5t137.5 -130t82.5 -184.5t29 -215zM524 1141q-57 0 -96 -35.5 t-57.5 -95.5t-25.5 -116.5t-7 -121.5q0 -191 36.5 -352.5t103 -259t149.5 -97.5q50 0 88.5 39t59 99t30.5 119t10 112q0 191 -37 352.5t-104 259t-150 97.5z" />
<glyph unicode="1" horiz-adv-x="782" d="M74 786l-2 5l446 452v-1108l193 -135h-621l182 135v725z" />
<glyph unicode="2" horiz-adv-x="1081" d="M88 0l-16 68q41 33 85.5 71.5t101 95t107 115.5t100.5 132t86 145t58.5 153t22.5 158q0 100 -60.5 162.5t-164.5 62.5q-103 0 -172 -75t-127 -224h-11v355h279q143 0 260.5 -33t195.5 -107t78 -178q0 -69 -31.5 -135.5t-80.5 -119t-115 -108.5t-127.5 -101t-126.5 -99 t-104 -100l4 -11l127 11l415 6l119 248h8l-43 -492h-868z" />
<glyph unicode="3" horiz-adv-x="1028" d="M88 -33l-16 51q84 0 172.5 16t174 48.5t139.5 92t54 136.5q0 65 -26.5 114.5t-76.5 82t-107.5 53t-135.5 35.5q-8 -2 -29 -7t-34 -7l-4 34l67 25q38 14 48.5 17.5t51 19t57.5 24t52.5 27t52.5 32.5t42.5 36t37.5 43.5t21.5 48t9.5 55.5q0 98 -68 157.5t-182 59.5 q-44 0 -82 -17t-64.5 -42t-52.5 -67t-42 -77t-37 -88h-11v349h316q106 0 193 -13t158.5 -40.5t111 -76.5t39.5 -116q0 -102 -114.5 -177.5t-361.5 -142.5q494 -41 494 -272q0 -84 -67.5 -156t-168 -118t-219.5 -79t-220.5 -47t-172.5 -14z" />
<glyph unicode="4" horiz-adv-x="1163" d="M819 395h262v-92h-262v-168l193 -135h-621l180 135v170h-499l493 914h299l-581 -822h286v164l250 365v-531z" />
<glyph unicode="5" horiz-adv-x="985" d="M203 725l80 43q105 45 204 45q101 0 192.5 -44.5t152.5 -132.5t61 -200q0 -213 -150 -323.5t-415 -110.5h-246q6 215 8 352h14q5 -12 14.5 -32t43 -70.5t70 -89.5t93.5 -71t117 -32q68 0 109.5 23.5t66.5 89.5t25 182q0 46 -2.5 83t-10 83.5t-23.5 81t-40.5 65.5 t-63.5 47.5t-89 16.5q-79 0 -221 -76h-9l-10 -55h-72l86 600l2 21h582l121 104l-23 -104l-53 -246h-573z" />
<glyph unicode="6" horiz-adv-x="1040" d="M883 1235l12 -39q-213 -96 -346.5 -225t-186.5 -318q130 86 224 86q154 0 258 -96t104 -266q0 -70 -32 -140.5t-88.5 -129t-145.5 -95.5t-193 -37q-174 0 -290.5 106t-116.5 273q0 122 41.5 235.5t114 206.5t175 175.5t219 146.5t251.5 117zM350 602q-20 -90 -20 -209 q0 -171 50.5 -263.5t149.5 -92.5q48 0 84.5 32.5t55.5 81.5t28 96t9 87q0 147 -70 234t-152 87q-44 0 -72.5 -11t-62.5 -42z" />
<glyph unicode="7" horiz-adv-x="989" d="M78 823h-6v396h876l-704 -1301l-70 33l528 1022h-522z" />
<glyph unicode="8" horiz-adv-x="1013" d="M537 1249q55 0 110 -14.5t103 -43t78 -77t30 -110.5q0 -90 -51 -154t-141 -119q54 -36 81.5 -56t70 -58t64 -72t38 -84t16.5 -107q0 -83 -33.5 -150.5t-85 -110t-117 -71.5t-125.5 -41t-114 -12q-167 0 -277 83.5t-110 215.5q0 52 15.5 97t38 76.5t56 61.5t62 49t63.5 40 q12 7 17 10q-7 6 -30.5 26t-31 27t-27.5 25.5t-27.5 27.5t-23.5 28t-22 32t-16 33t-14 38.5t-7.5 41.5t-3.5 47q0 81 37.5 145t99 101t132.5 56t145 19zM618 754q132 85 132 225q0 113 -63.5 166t-168.5 53q-87 0 -150 -52t-63 -149q0 -30 14 -57t32 -45.5t54.5 -39.5 t62.5 -33t75.5 -34t74.5 -34zM383 575q-82 -46 -141.5 -124.5t-59.5 -174.5q0 -50 16 -94t48.5 -81t88.5 -59t128 -22q122 0 198 61t76 175q0 37 -9 69t-21.5 56t-37 46.5t-44 37t-55.5 32t-58 26.5t-65 26t-64 26z" />
<glyph unicode="9" horiz-adv-x="1030" d="M135 20q212 94 346 223t187 320q-116 -86 -224 -86q-154 0 -258 96.5t-104 266.5q0 70 32 140.5t88.5 129t145.5 95t193 36.5q176 0 291.5 -97.5t115.5 -262.5q0 -152 -63 -292t-175 -252t-253 -201t-310 -156q-8 24 -12 40zM680 612q20 105 20 209q0 172 -50.5 265.5 t-149.5 93.5q-47 0 -83.5 -32.5t-55.5 -82.5t-28 -97t-9 -87q0 -146 69.5 -233t151.5 -87q45 0 73.5 10.5t61.5 40.5z" />
<glyph unicode=":" horiz-adv-x="370" d="M10 686l176 191l174 -191l-174 -188zM10 135l176 191l174 -191l-174 -188z" />
<glyph unicode=";" horiz-adv-x="497" d="M84 719l176 190l174 -190l-174 -189zM123 -252l-29 21q133 108 133 213q0 15 -2.5 27.5t-11 25.5t-12 17.5t-18 19t-15.5 16.5l-80 64l170 174q61 -37 113.5 -94t52.5 -105q0 -190 -292 -373z" />
<glyph unicode="&#x3c;" horiz-adv-x="1144" d="M94 598l959 352v-147l-621 -240l621 -334v-147l-959 352v164z" />
<glyph unicode="=" horiz-adv-x="997" d="M872 829v-147h-780v147h780zM872 412v-148h-780v148h780z" />
<glyph unicode="&#x3e;" horiz-adv-x="1144" d="M1053 434l-959 -352v147l621 240l-621 334v147l959 -352v-164z" />
<glyph unicode="?" horiz-adv-x="1032" d="M135 1423h176q83 0 150 -4t143.5 -15.5t133.5 -34t105 -56t73.5 -86.5t25.5 -121q0 -63 -29 -119.5t-71.5 -95.5t-104 -76t-111 -58.5t-109 -46.5t-83.5 -38l-24 -221h-50l-36 249q138 48 222.5 150.5t84.5 210.5q0 156 -45 221.5t-115 65.5q-57 0 -101.5 -20.5t-76 -60 t-53 -85t-39.5 -107.5l-17 -2zM213 135l176 191l174 -191l-174 -188z" />
<glyph unicode="@" horiz-adv-x="1681" d="M1440 463l121 84q28 -129 28 -254q0 -143 -66 -267t-174 -206.5t-245 -130t-279 -47.5q-153 0 -286.5 47.5t-233 135t-156.5 219t-57 290.5q0 108 23.5 205.5t76 186t130.5 152.5t194.5 102t259.5 38h557l-57 -166v-688l59 -164h-344v162q-111 -87 -162 -117 q-117 -69 -219 -68q-99 2 -166 64.5t-67 157.5q0 57 16.5 103.5t60.5 87t85 69.5t126 65t146 58.5t180 64.5q0 38 -1 60.5t-6 57.5t-15 55.5t-29.5 46t-47 39t-70 23t-97.5 9.5q-115 0 -209 -33.5t-157 -90.5t-106 -134.5t-62 -162.5t-19 -177q0 -198 86.5 -342.5 t233 -216.5t333.5 -72q140 0 267.5 44t218.5 117.5t144.5 172t53.5 203.5q0 120 -69 217zM991 217v377q-185 -81 -270.5 -163.5t-85.5 -160.5q0 -67 51 -102t129 -35q50 0 88.5 20t87.5 64z" />
<glyph unicode="A" horiz-adv-x="1488" d="M848 0l188 141l-125 297h-532l-111 -278l195 -160h-453l146 162l520 1261h96l553 -1286l154 -137h-631zM641 1092l-225 -562h458z" />
<glyph unicode="B" horiz-adv-x="1290" d="M82 1403h469q136 0 236.5 -14.5t180 -48.5t120 -95.5t40.5 -150.5q0 -53 -19.5 -99.5t-49.5 -80t-75 -64t-86.5 -50t-92.5 -38.5q414 -92 414 -387q0 -85 -44 -152t-113.5 -108t-162.5 -67.5t-183 -37t-184 -10.5h-450l123 217v973zM471 1337v-563q190 0 291.5 77 t101.5 202q0 284 -323 284h-70zM471 80h64q164 0 273.5 79.5t109.5 221.5q0 99 -32 167t-94 105.5t-139.5 53.5t-181.5 16v-643z" />
<glyph unicode="C" horiz-adv-x="1333" d="M1157 987h-27q-27 68 -65 125t-89.5 105t-119.5 75t-145 27q-116 0 -194.5 -67t-113 -174t-34.5 -247q0 -177 45.5 -313.5t143.5 -219.5t237 -83q285 0 436 238l31 -21q-29 -68 -66 -129.5t-91.5 -123t-117 -105.5t-145 -71.5t-172.5 -27.5q-274 0 -436 187t-162 491 q0 110 31.5 218t96.5 204t154.5 169t214.5 116t269 43h319v-416z" />
<glyph unicode="D" horiz-adv-x="1505" d="M82 1403h545q129 0 239 -20.5t191.5 -55.5t146.5 -84.5t107.5 -105.5t70.5 -120.5t40 -127t12 -127.5q0 -233 -105.5 -406.5t-295.5 -264.5t-441 -91h-510l151 217v969zM500 78h129q124 0 220 42t151.5 106t91 151t47.5 166t12 162q0 306 -132 469t-376 163h-143v-1259z " />
<glyph unicode="E" horiz-adv-x="1212" d="M1130 444l-22 -444h-1026l123 217v973l-123 213h987v-430h-25l-225 356h-348v-567h559v-92h-559v-596h367l270 375z" />
<glyph unicode="F" horiz-adv-x="1150" d="M82 12l123 205v973l-123 213h987v-418h-20l-230 344h-348v-573h543v-94h-543v-445l219 -217h-608v12z" />
<glyph unicode="G" horiz-adv-x="1406" d="M1358 633v-21l-109 -75v-549h-30l-195 108q-177 -123 -354 -123q-274 0 -436 187t-162 491q0 110 31.5 218t96.5 204t154.5 169t214.5 116t269 43h319v-416h-27q-34 60 -59.5 99t-67 87.5t-82.5 77t-99.5 48.5t-125.5 20q-156 0 -237.5 -123.5t-81.5 -364.5 q0 -72 5 -138.5t18.5 -139t34.5 -133t55.5 -116.5t79.5 -94.5t108 -61.5t139 -23q91 0 170 39v340l-215 108v23h586z" />
<glyph unicode="H" horiz-adv-x="1597" d="M1362 217l151 -217h-569l152 217v465h-617v-465l152 -217h-570l152 217v971l-150 215h570l-154 -217v-412h617v414l-150 215h570l-154 -217v-969z" />
<glyph unicode="I" horiz-adv-x="733" d="M651 0h-569l151 217v969l-151 217h569l-151 -217v-969z" />
<glyph unicode="J" horiz-adv-x="692" d="M631 1403l-152 -217v-1178q0 -56 -29 -113t-77.5 -105t-94.5 -84t-96 -66l-14 8q45 92 45 202v1336l-152 217h570z" />
<glyph unicode="K" horiz-adv-x="1574" d="M877 0l94 129l-385 535l-86 -86v-361l151 -217h-569l151 217v971l-151 217h569l-151 -217v-481l303 307l225 237l-65 154h475l-297 -184l-359 -359l527 -706l241 -156h-673z" />
<glyph unicode="L" horiz-adv-x="1249" d="M1188 442l-23 -442h-1083l123 217v973l-123 213h545l-156 -215v-1096h426l270 350h21z" />
<glyph unicode="M" horiz-adv-x="1875" d="M313 197l166 -197h-420l158 197v993l-176 213h405l488 -1024l440 1024h428l-151 -168v-1020l153 -215h-592l172 213v989l-530 -1227h-14l-527 1065v-843z" />
<glyph unicode="N" horiz-adv-x="1548" d="M1325 119l88 -119h-317l-752 1001v-825l174 -176h-422l152 190v953l-199 260h338l840 -1170v994l-176 176h426l-152 -191v-1093z" />
<glyph unicode="O" horiz-adv-x="1511" d="M1440 764q0 -157 -49.5 -297.5t-143 -251t-240.5 -175.5t-329 -65q-137 0 -253 57t-192 151t-118.5 213t-42.5 245q0 157 49.5 297.5t143 251t240.5 175.5t329 65q137 0 253 -57t192 -151t118.5 -213t42.5 -245zM688 1341q-66 0 -119.5 -22t-88 -60t-59 -83t-36.5 -98.5 t-17.5 -98.5t-5.5 -90q0 -159 31.5 -307.5t89 -264.5t146 -186t194.5 -70q70 0 128 32t94.5 81.5t61.5 111.5t35.5 120t10.5 110q0 215 -54.5 401t-162.5 305t-248 119z" />
<glyph unicode="P" horiz-adv-x="1204" d="M82 0l151 217v969l-151 217h491q49 0 94.5 -3t105 -12.5t109 -25t99.5 -44.5t84.5 -67t56 -95.5t21.5 -127.5q0 -91 -40.5 -167.5t-107 -127.5t-145 -83t-162.5 -42q-92 -14 -188 -14v-377l184 -217h-602zM500 1341v-677q170 0 261 85.5t91 254.5q0 168 -92 252.5 t-260 84.5z" />
<glyph unicode="Q" horiz-adv-x="1511" d="M1200 -244l-8 -12q-193 69 -432 246q-54 -4 -82 -4q-137 0 -253 55.5t-192 147t-118.5 209t-42.5 243.5q0 156 49.5 295.5t143 247.5t240.5 171.5t329 63.5q137 0 253 -55.5t192 -147t118.5 -209t42.5 -243.5q0 -202 -82 -375t-236 -278zM688 1331q-79 0 -139.5 -31 t-95 -77.5t-56 -109t-28.5 -116t-7 -108.5q0 -159 31.5 -305.5t89 -261t146 -182.5t194.5 -68q70 0 128 31t94.5 78.5t61.5 108.5t35.5 117.5t10.5 108.5q0 214 -54.5 398t-162.5 300.5t-248 116.5z" />
<glyph unicode="R" horiz-adv-x="1425" d="M1405 0h-414q-9 15 -51 87t-54 92.5t-48.5 82.5t-52.5 88t-46.5 76.5t-50 80t-44.5 66t-46 66.5l-98 -8v-414l151 -217h-569l151 217v969l-151 217h518q48 0 91 -2t105.5 -10.5t113 -23t104.5 -42t90.5 -64.5t60 -94t23.5 -127q0 -118 -90 -206.5t-228 -139.5l318 -493z M500 1341v-643q75 2 143.5 22.5t123.5 59t87.5 99.5t32.5 137q0 325 -387 325z" />
<glyph unicode="S" horiz-adv-x="1091" d="M72 549h24q53 -207 184.5 -347.5t290.5 -140.5q37 0 72.5 11.5t68 34.5t52.5 64t20 95q0 62 -24 112.5t-65 85.5t-94 65.5t-111.5 57t-117 54t-111.5 63t-94 78t-65 104.5t-24 138q0 75 27.5 142t80.5 120.5t139.5 85t196.5 31.5h293l98 31v-443l-24 2 q-50 161 -162.5 252.5t-253.5 91.5q-87 0 -140.5 -49.5t-53.5 -136.5q0 -69 40.5 -125t105 -95t142 -75t155.5 -75.5t142.5 -86.5t105 -117.5t40.5 -158.5q0 -111 -40.5 -196t-111.5 -136t-160.5 -76.5t-193.5 -25.5q-103 0 -219 20t-189 53z" />
<glyph unicode="T" horiz-adv-x="1351" d="M39 954v449h1235v-449l-17 -2l-264 379h-205v-1114l152 -217h-569l151 217v1112h-205l-262 -377z" />
<glyph unicode="U" horiz-adv-x="1599" d="M1341 1219l-2 -7v-645q0 -132 -19 -208t-65 -162q-57 -104 -172.5 -166t-269.5 -62q-42 0 -72.5 1t-96 10.5t-114 26.5t-108.5 53t-98.5 85.5t-65.5 129t-27 178.5v735l-149 215h569l-151 -217v-703q0 -79 11.5 -142t30.5 -106t49 -74t61 -49t73.5 -28t79 -13t84.5 -3 q352 0 352 548v603l-174 184h461z" />
<glyph unicode="V" horiz-adv-x="1394" d="M784 283l346 944l-174 176h428l-143 -182l-489 -1262h-99l-540 1323l-107 121h559l-164 -125l357 -899z" />
<glyph unicode="W" horiz-adv-x="2058" d="M1497 289l307 936l-176 178h428l-139 -176l-438 -1252h-125l-297 797l-291 -797h-125l-508 1307l-106 121h559l-164 -125l336 -899l20 -76l234 590l-148 393l-102 117h559l-166 -125l318 -899z" />
<glyph unicode="X" horiz-adv-x="1478" d="M965 203l-295 399l-295 -409l164 -193h-531l215 213l375 485l-358 488l-211 217h647l-164 -199l274 -358l254 350l-149 207h532l-241 -211l-326 -432l404 -543l219 -217h-697z" />
<glyph unicode="Y" horiz-adv-x="1411" d="M838 217l151 -217h-569l151 217v358l-364 611l-187 217h658l-174 -217h-2l241 -387l33 -68l268 459l-174 213h521l-211 -193l-342 -559v-434z" />
<glyph unicode="Z" horiz-adv-x="1368" d="M1276 442l-23 -444h-1177l-15 25l857 1284h-488l-270 -355h-8l12 469l217 -20h879l14 -29l-868 -1282h579l283 352h8z" />
<glyph unicode="[" horiz-adv-x="438" d="M10 1456h391v-115h-251v-1554h251v-115h-391v1784z" />
<glyph unicode="\" horiz-adv-x="884" d="M215 1423l639 -1423h-158l-639 1423h158z" />
<glyph unicode="]" horiz-adv-x="438" d="M16 -213h252v1554h-252v115h392v-1784h-392v115z" />
<glyph unicode="^" horiz-adv-x="954" d="M559 1421l385 -843h-147l-381 520l-258 -520h-148l385 843l-2 2h168z" />
<glyph unicode="_" horiz-adv-x="1138" d="M1139 -123h-1139v123h1139v-123z" />
<glyph unicode="`" horiz-adv-x="376" d="M336 1130h-31l-264 265h258z" />
<glyph unicode="a" horiz-adv-x="1093" d="M653 0v172q-78 -76 -172 -134t-184 -58q-112 0 -179 58t-67 177q0 44 15.5 84t41 72.5t69.5 65t89.5 58.5t113 55t128 52t145.5 53q0 38 -0.5 60t-2.5 54t-7 50.5t-13 42t-21 36.5t-30.5 25t-42 17.5t-55.5 5.5q-59 0 -110.5 -19t-96.5 -58.5t-80 -83t-79 -109.5h-15v328 h844l-45 -177v-694h2l152 -133h-400zM653 227v371q-67 -27 -119.5 -53.5t-87 -48t-58.5 -46t-37 -42.5t-19.5 -42.5t-8 -40.5t-1.5 -42q0 -70 42.5 -106t110.5 -36q95 0 178 86z" />
<glyph unicode="b" horiz-adv-x="1224" d="M426 1454v-584q63 73 136 113.5t177 40.5q96 0 175.5 -40.5t130 -108t77.5 -153.5t27 -179q0 -72 -17.5 -146t-58 -149.5t-100 -133.5t-152.5 -95t-205 -37q-48 0 -131.5 13t-156.5 34l-148 -52v1203l-139 157zM426 815v-604q51 -58 121.5 -98.5t148.5 -40.5 q52 0 91 16.5t61.5 42t36 64t18 76.5t4.5 85q0 237 -85 376.5t-226 139.5q-81 0 -170 -57z" />
<glyph unicode="c" horiz-adv-x="958" d="M848 676h-14q-61 122 -136.5 189t-185.5 67q-57 0 -100 -24.5t-67 -66.5t-36 -90.5t-12 -103.5q0 -115 24.5 -200.5t68 -134t96 -71t116.5 -22.5q96 0 173 60t99 124l23 -8q-14 -54 -37 -108t-62 -111.5t-86 -101t-112.5 -71.5t-138.5 -28q-97 0 -175 41t-126 110 t-73.5 155t-25.5 180q0 76 18 150.5t60 146t103 126t154 87.5t206 33h246v-328z" />
<glyph unicode="d" horiz-adv-x="1222" d="M784 -18v200q-116 -202 -313 -202q-78 0 -144 26.5t-112.5 72t-79 107t-48 131t-15.5 144.5q0 81 20 158t63 147t105 123t153 84t199 31h172v176l-139 157l385 117v-1311l152 -143zM784 256v551q-116 125 -252 125q-52 0 -91.5 -18t-63 -46.5t-38 -67.5t-19.5 -75.5 t-5 -77.5q0 -226 87.5 -334t228.5 -108q89 0 153 51z" />
<glyph unicode="e" horiz-adv-x="1007" d="M944 580v-2h-657q8 -96 37 -169.5t73 -117.5t97.5 -66t115.5 -22q103 0 186 45t107 110l31 -12q-30 -75 -70.5 -138t-96.5 -118.5t-132 -87t-164 -31.5q-129 0 -226.5 71t-145.5 180t-48 235q0 81 19.5 160.5t60 153t98.5 130t140.5 90t179.5 33.5q183 0 288.5 -116.5 t106.5 -323.5l2 -4h-2zM680 639v18q0 153 -51.5 229.5t-126.5 76.5q-55 0 -99.5 -30.5t-69 -78.5t-37.5 -100t-13 -101v-14h397z" />
<glyph unicode="f" horiz-adv-x="792" d="M874 1421v-307h-14q-24 37 -41 60.5t-49.5 61t-62.5 60t-72.5 39.5t-85.5 17q-158 0 -158 -166q0 -84 37 -182h393l-45 -111h-348v-719l186 -176h-583l151 176v700l-143 127l10 -4l-10 7h145q7 62 26.5 119.5t55.5 112.5t85 95.5t121 65t157 24.5h245z" />
<glyph unicode="g" horiz-adv-x="1036" d="M915 1206l9 -2q-7 -91 -24 -154.5t-52 -136.5q72 -84 72 -198q0 -54 -17.5 -108.5t-55 -106.5t-90.5 -92t-130.5 -64.5t-169.5 -24.5q-60 0 -123 17q-4 -4 -18.5 -16.5t-21.5 -19.5t-17 -18t-14.5 -20.5t-4.5 -17.5q0 -86 113 -99h551q47 -76 47 -168q0 -90 -34.5 -171 t-98 -144t-163.5 -100t-222 -37q-203 0 -306.5 60.5t-103.5 170.5q0 113 174 187q-49 21 -86 67t-37 99q0 36 13 69t30 56t47 48t49 37.5t52 32.5q-92 39 -141.5 117t-49.5 172q0 69 28 135.5t82 123.5t144.5 92.5t204.5 35.5q52 0 104 -10zM463 969q-109 0 -109 -203 q0 -164 52 -276.5t137 -112.5q112 0 112 215q0 162 -53 269.5t-139 107.5zM786 -86h-522q-67 -52 -67 -139q0 -203 282 -203q82 0 148.5 21t106 55t60.5 72.5t21 76.5q0 78 -29 117z" />
<glyph unicode="h" horiz-adv-x="1277" d="M438 1454v-612q59 92 150.5 141t187.5 49q152 0 229.5 -88.5t77.5 -238.5v-529h2l152 -176h-549l150 174v461q0 52 -3.5 88t-14.5 70.5t-31 55t-53 32.5t-79 12q-128 0 -219 -121v-596l152 -176h-549l152 176v983l-140 158z" />
<glyph unicode="i" horiz-adv-x="651" d="M143 1309l176 188l175 -188l-175 -191zM63 887l386 137v-848l151 -176h-549l152 176v553z" />
<glyph unicode="j" horiz-adv-x="532" d="M121 1309l176 188l174 -188l-174 -191zM426 1024v-874h2v-283q0 -55 -33.5 -108.5t-73 -86.5t-91.5 -73.5t-70 -59.5l-15 6q14 22 22.5 60.5t10.5 66.5l2 27v1030l-139 158z" />
<glyph unicode="k" horiz-adv-x="1185" d="M438 1454v-958l340 346l-88 162h440v-15l-212 -125l-295 -266l397 -451l166 -129v-18h-363l-57 90l-328 387v-301l152 -176h-549l152 176v1004l-140 157z" />
<glyph unicode="l" horiz-adv-x="630" d="M193 176v725l-140 158l140 43v78l-140 157l385 117v-1278l152 -176h-549z" />
<glyph unicode="m" horiz-adv-x="1871" d="M438 1024v-150q134 154 312 154q110 0 181 -47t101 -133q57 77 149 128.5t189 51.5q152 0 229.5 -89t77.5 -239v-524h2l152 -176h-549l150 174v457q0 52 -3.5 88t-14.5 70.5t-31 55t-53 32.5t-79 12q-108 0 -200 -105q6 -40 6 -84v-524h2l151 -176h-548l149 174v457 q0 66 -6 108t-24.5 79t-55 54t-94.5 17q-106 0 -193 -94v-619l152 -176h-549l152 176v553l-140 158z" />
<glyph unicode="n" horiz-adv-x="1284" d="M1243 0h-549l148 176v455q0 66 -6 108t-24.5 79t-55 54t-94.5 17q-129 0 -220 -121v-592l148 -176h-549l156 176v553l-140 158l385 137v-186q59 92 150.5 141t187.5 49q152 0 229.5 -89t77.5 -239v-524z" />
<glyph unicode="o" horiz-adv-x="1140" d="M1065 547q0 -81 -21 -161t-66.5 -154.5t-109.5 -131.5t-158 -91t-204 -34q-105 0 -191.5 40.5t-141 108.5t-83.5 153.5t-29 179.5q0 81 21 161t66.5 154t110 131t158.5 91t204 34q106 0 192 -40.5t140 -108t83 -153t29 -179.5zM510 950q-188 0 -188 -307q0 -160 36 -294 t104.5 -215t155.5 -81q54 0 93.5 32t59.5 82.5t29 99t9 93.5q0 160 -36.5 294t-105.5 215t-157 81z" />
<glyph unicode="p" horiz-adv-x="1236" d="M438 1047v-177q63 73 136.5 113.5t177.5 40.5q128 0 223 -70t140.5 -177.5t45.5 -233.5q0 -72 -17 -146t-58 -149.5t-100.5 -133.5t-152 -95t-204.5 -37q-77 0 -191 24v-270l191 -176h-588l152 176v1036l-140 158zM438 815v-604q51 -58 122 -98.5t149 -40.5q52 0 91 16.5 t61.5 42t36 64t18 76.5t4.5 85q0 234 -88.5 375t-223.5 141q-81 0 -170 -57z" />
<glyph unicode="q" horiz-adv-x="1140" d="M584 -440l190 176v450q-60 -93 -140.5 -149.5t-172.5 -56.5q-97 0 -175 40.5t-126 108.5t-73.5 153t-25.5 179q0 81 20 158t63.5 147t105.5 123t153 84t199 31q116 0 232 -25l186 45v-1288l151 -176h-587zM774 254v553q-116 125 -252 125q-52 0 -91.5 -18t-63 -46.5 t-38 -67.5t-19.5 -75.5t-5 -77.5q0 -226 87.5 -334t228.5 -108q52 0 85.5 12t67.5 37z" />
<glyph unicode="r" horiz-adv-x="942" d="M911 641h-16q-63 150 -144.5 218.5t-160.5 68.5q-21 0 -38 -2.5t-30.5 -10.5t-24 -14.5t-18 -22.5t-13 -27t-8.5 -35.5t-5 -39.5t-3 -48t-1 -52v-60v-440l190 -176h-588l152 176v670l-140 158h848v-363z" />
<glyph unicode="s" horiz-adv-x="841" d="M51 387h17q41 -135 150.5 -232.5t232.5 -97.5q67 0 110 33.5t43 99.5q0 49 -30 84t-78 56.5t-106 41t-115.5 45.5t-105.5 61.5t-78 97t-30 143.5q0 118 95 201.5t247 83.5h226l76 43v-340l-13 2q-58 104 -145 167t-182 62q-64 -1 -100 -37.5t-36 -97.5q0 -37 24 -66.5 t63.5 -47t90 -36.5t103.5 -35.5t103.5 -43.5t90 -59.5t63.5 -85.5t24 -120q0 -85 -39.5 -151t-101.5 -103.5t-129 -56t-132 -18.5q-85 0 -174.5 12t-144.5 35z" />
<glyph unicode="t" horiz-adv-x="860" d="M401 1294v-290h394l-45 -111h-349v-504q0 -145 36.5 -197.5t129.5 -52.5q54 0 112 29.5t89 89.5l25 -33q-75 -128 -164 -189t-211 -61q-116 0 -189 76t-73 240v583l-136 130z" />
<glyph unicode="u" horiz-adv-x="1210" d="M410 1006v-629q0 -66 6 -108t24.5 -79t55 -54t94.5 -17q111 0 194 96v612l-151 179h397v-838l139 -168l-385 -12v164q-125 -172 -313 -172q-152 0 -229.5 88.5t-77.5 238.5v520l-154 179h400z" />
<glyph unicode="v" horiz-adv-x="1112" d="M739 1004h363l-115 -130l-403 -903l-9 -16h-40l-410 919l-115 130h541l-150 -132l215 -528l25 -70l248 598z" />
<glyph unicode="w" horiz-adv-x="1685" d="M135 838l-135 166h543l-150 -132l215 -528l25 -70l182 441l-53 123l-135 166h540l-147 -132l213 -528l24 -45l222 573l-148 132h365l-121 -127l-379 -922h-45l-291 659l-291 -659h-45z" />
<glyph unicode="x" horiz-adv-x="1196" d="M1196 0h-584l131 135l-200 264l-217 -268l112 -131h-428l183 129l288 352l-299 393l-149 130h559l-131 -132l178 -233l182 233l-112 132h430l-183 -130l-260 -311l328 -430z" />
<glyph unicode="y" horiz-adv-x="1095" d="M0 1004h543l-150 -132l215 -528l25 -70l248 598l-150 132h365l-121 -127l-477 -1141l147 -176h-440l180 184l121 276l-371 818z" />
<glyph unicode="z" horiz-adv-x="1036" d="M961 31v-31h-920l616 930h-317l-203 -307h-12v417l176 -36h688l-616 -930h370l240 354l12 -4z" />
<glyph unicode="{" horiz-adv-x="606" d="M104 582v-9q6 -4 33 -17t53.5 -27.5t60 -42t58.5 -59.5t42.5 -82.5t17.5 -108.5q0 -48 -9.5 -122t-9.5 -147q0 -126 33.5 -180.5t118.5 -54.5l-4 -64q-161 0 -244.5 75.5t-83.5 248.5q0 42 12.5 143t12.5 152q0 82 -25.5 137.5t-60.5 83.5q-32 24 -86 39v61q54 15 86 39 q35 28 60.5 83.5t25.5 137.5q0 51 -12.5 152.5t-12.5 142.5q0 173 83.5 248.5t244.5 75.5l4 -64q-85 0 -118.5 -54.5t-33.5 -180.5q0 -73 9.5 -146.5t9.5 -121.5q0 -58 -17.5 -108.5t-42.5 -82.5t-58.5 -60t-60 -42t-53.5 -27.5t-33 -17.5z" />
<glyph unicode="|" horiz-adv-x="661" d="M385 -307h-182v1741h182v-1741z" />
<glyph unicode="}" horiz-adv-x="606" d="M436 573v9q-6 4 -33 17.5t-53.5 27.5t-60 42t-58.5 60t-42 82.5t-17 108.5q0 48 9 121.5t9 146.5q0 126 -33.5 180.5t-117.5 54.5l4 64q161 0 244.5 -75.5t83.5 -248.5q0 -41 -12.5 -142.5t-12.5 -152.5q0 -82 25.5 -137.5t60.5 -83.5q32 -24 86 -39v-61q-54 -15 -86 -39 q-35 -28 -60.5 -83.5t-25.5 -137.5q0 -51 12.5 -152t12.5 -143q0 -173 -83.5 -248.5t-244.5 -75.5l-4 64q84 0 117.5 54.5t33.5 180.5q0 73 -9 147t-9 122q0 69 22.5 125.5t60 92.5t70.5 58.5t69.5 40t41.5 20.5z" />
<glyph unicode="~" horiz-adv-x="817" d="M655 1130l90 70l31 -12l-121 -211l-448 27l-82 -89l-29 19l129 223z" />
<glyph unicode="&#xa1;" horiz-adv-x="444" d="M397 842l-176 -191l-174 191l174 188zM96 -369l99 895h73l101 -895l-138 -94z" />
<glyph unicode="&#xa2;" horiz-adv-x="917" d="M838 848h-11q-93 145 -217 188l-88 -686q31 -8 70 -8q96 0 173 60t99 124l23 -8q-13 -51 -35 -102t-57.5 -106t-78.5 -98t-102 -74t-125 -38l-28 -219h-74l21 219q-115 12 -198 85t-121 176.5t-38 222.5q0 65 15.5 132t50.5 134.5t86 122.5t128.5 95t170.5 52l20 209h127 l-26 -203h215v-278zM434 387l62 668q-58 -3 -100 -28t-65 -66t-33.5 -88.5t-10.5 -102.5q0 -286 147 -383z" />
<glyph unicode="&#xa3;" horiz-adv-x="1140" d="M1012 0h-996l84 90h6q21 2 37.5 7.5t42.5 33.5t43 75.5t30 142.5t13 224v62l-170 -4v98h170q3 56 20 118.5t52.5 129.5t85 120t125 87.5t164.5 34.5h246v-279h-9q-136 207 -317 207q-158 0 -158 -166q0 -24 2.5 -47t8 -45l9.5 -38t13 -37t13 -30t13.5 -28.5t10.5 -22.5 h307v-88l-291 -6q-1 -68 -10 -125.5t-21 -100.5t-36 -83.5t-44.5 -67t-56.5 -58.5t-61 -51t-70 -51v-4l590 31l174 174h12z" />
<glyph unicode="&#xa4;" horiz-adv-x="954" d="M164 1004l133 -127q81 59 180 59q96 0 176 -57l131 125l62 -66l-127 -121q61 -80 61 -184q0 -107 -63 -189l129 -122l-62 -66l-133 127q-74 -53 -174 -53q-98 0 -178 55l-135 -129l-62 66l134 127q-62 81 -62 184q0 102 59 180l-131 125zM260 633q0 -91 63 -154t154 -63 t155 63t64 154t-64 154t-155 63t-154 -63t-63 -154z" />
<glyph unicode="&#xa5;" horiz-adv-x="1492" d="M897 580h240v-103h-258v-102h258v-103h-258v-65l172 -207h-611l172 207v65h-268v101h268v104h-268v101h205l-301 423l-187 218h658l-174 -218h-2l241 -313l33 -47l268 365l-174 213h521l-211 -193z" />
<glyph unicode="&#xa6;" horiz-adv-x="587" d="M203 1434h182v-676h-182v676zM385 -307h-182v676h182v-676z" />
<glyph unicode="&#xa7;" horiz-adv-x="1228" d="M541 555l8 88q-52 -22 -113 -22q-159 0 -275 107.5t-116 275.5q0 107 36 185t103.5 124t156 68t200.5 22l2 -2h80v2h282v-4h178l-139 -158h-2v-1241h-135v1313h-131v-1313h-135v555z" />
<glyph unicode="&#xa8;" horiz-adv-x="839" d="M72 1280l139 156l137 -156l-137 -158zM492 1280l139 156l137 -156l-137 -158z" />
<glyph unicode="&#xa9;" horiz-adv-x="1495" d="M748 47q-177 0 -327.5 87.5t-238.5 238t-88 327.5t88 327.5t238.5 238.5t327.5 88t327.5 -88t238 -238.5t87.5 -327.5q0 -133 -52 -253.5t-139.5 -208t-208 -139.5t-253.5 -52zM748 135q153 0 283 76t206 206t76 283t-76 283.5t-206 206.5t-283 76q-115 0 -219.5 -45 t-180.5 -121t-121 -180.5t-45 -219.5q0 -153 76 -283t206.5 -206t283.5 -76zM1020 864h-16q-34 88 -107 143.5t-172 55.5q-94 0 -142 -75.5t-48 -188.5q0 -102 29.5 -185t92.5 -135.5t152 -52.5q106 0 172.5 41t87.5 84l21 -12q-16 -45 -45 -89.5t-73 -86t-107.5 -67.5 t-135.5 -26q-175 0 -280 116.5t-105 297.5q0 86 30.5 165.5t87.5 143t148.5 102t204.5 38.5h205v-269z" />
<glyph unicode="&#xab;" horiz-adv-x="1048" d="M139 504h226l229 -447l-21 -20l-548 467l548 467l21 -35zM592 504h225l230 -447l-21 -20l-549 467l549 467l21 -35z" />
<glyph unicode="&#xac;" horiz-adv-x="1142" d="M1075 547v-434h-133v381h-874v143h1005v-90h2z" />
<glyph unicode="&#xad;" horiz-adv-x="913" d="M901 494h-889v143h889v-143z" />
<glyph unicode="&#xae;" horiz-adv-x="911" d="M455 848q-171 0 -292.5 121.5t-121.5 292.5t121.5 292t292.5 121q173 0 294 -120.5t121 -292.5t-121 -293t-294 -121zM455 903q149 0 253.5 105.5t104.5 253.5q0 149 -104.5 253.5t-253.5 104.5q-148 0 -253.5 -104.5t-105.5 -253.5q0 -148 105.5 -253.5t253.5 -105.5z M543 1028l-117 217l-33 -4v-139l53 -74h-196l51 74v330l-51 75h168q27 0 55.5 -4t67.5 -15t63.5 -38.5t24.5 -67.5t-31.5 -71t-79.5 -47l92 -168l74 -68h-141zM393 1485v-219q55 2 93 30t38 76q0 113 -131 113z" />
<glyph unicode="&#xaf;" horiz-adv-x="671" d="M573 1094h-475v125h475v-125z" />
<glyph unicode="&#xb0;" horiz-adv-x="524" d="M51 1440q0 88 61.5 149.5t149.5 61.5t149.5 -61.5t61.5 -149.5t-61.5 -149.5t-149.5 -61.5t-149.5 61.5t-61.5 149.5zM143 1440q0 -47 36 -83t83 -36t83 36t36 83t-36 83t-83 36t-83 -36t-36 -83z" />
<glyph unicode="&#xb1;" horiz-adv-x="1060" d="M979 195v-144h-897v144h358v292h-348v148h348v354l162 62v-416h367v-148h-367v-292h377z" />
<glyph unicode="&#xb2;" d="M63 885l-12 43q43 31 88 68t102.5 96t101 118t73.5 132t30 141q0 62 -42 98.5t-115 36.5q-75 0 -123.5 -45.5t-87.5 -138.5h-6v225h194q100 0 183.5 -21t138.5 -67.5t55 -112.5q0 -52 -28 -101t-76 -90.5t-97.5 -77.5t-105.5 -78t-88 -75l4 -6l70 6l292 4l84 158h7 l-31 -313h-611z" />
<glyph unicode="&#xb3;" d="M98 852l-10 39q60 0 121.5 9.5t121.5 29t98 56t38 85.5q0 42 -18.5 73t-53.5 51.5t-75.5 33.5t-94.5 22q-6 -1 -21 -4t-24 -4l-4 23l49 14q127 43 176 73q86 52 86 120q0 63 -48 99t-128 36q-38 0 -68.5 -14t-54 -43.5t-38.5 -55.5t-35 -68h-9v222h226q74 0 135 -8 t111 -26t78 -49.5t28 -74.5q0 -63 -78.5 -111t-245.5 -92q61 -4 114 -14t106.5 -28.5t84.5 -52t31 -77.5q0 -53 -47.5 -99t-118.5 -75.5t-155 -50.5t-155.5 -30t-121.5 -9z" />
<glyph unicode="&#xb4;" horiz-adv-x="436" d="M111 1130h-31l37 265h258z" />
<glyph unicode="&#xb6;" horiz-adv-x="1193" d="M541 559l8 88q-52 -22 -113 -22q-159 0 -275 107.5t-116 275.5q0 107 36 184.5t103.5 123t155.5 67t201 20.5h542l-139 -158h-2v-1245h-135v1317h-131v-1264q0 -100 -58 -174t-106 -84l-6 4q35 72 35 187v573z" />
<glyph unicode="&#xb7;" horiz-adv-x="370" d="M10 539l176 190l174 -190l-174 -189z" />
<glyph unicode="&#xb8;" horiz-adv-x="376" d="M217 37l-37 -70q3 -1 27.5 -10t34 -13.5t31.5 -14.5t33 -18t24.5 -19.5t19.5 -24.5t6 -27q0 -72 -55.5 -112.5t-136.5 -40.5q-52 0 -90 14.5t-78 48.5l22 43q67 -57 150 -57q42 0 69 13t27 34q0 62 -209 106l103 148h59z" />
<glyph unicode="&#xb9;" horiz-adv-x="673" d="M129 1378l-2 2l313 291v-713l138 -86h-437l127 86v467z" />
<glyph unicode="&#xbb;" horiz-adv-x="1048" d="M469 504h-225l-230 446l21 21l549 -467l-549 -467l-21 35zM922 504h-226l-229 446l20 21l549 -467l-549 -467l-20 35z" />
<glyph unicode="&#xbc;" horiz-adv-x="1525" d="M1335 1473l-925 -1541h-97l924 1541h98zM129 1114l-2 2l313 291v-713l138 -86h-437l127 86v467zM1313 252h186v-59h-186v-107l137 -86h-436l127 86v109h-353l349 581h209l-410 -522h203v104l174 232v-338z" />
<glyph unicode="&#xbd;" horiz-adv-x="1728" d="M1251 1473l-925 -1541h-97l924 1541h98zM129 1114l-2 2l313 291v-713l138 -86h-437l127 86v467zM961 0l-13 43q43 31 88 68t102.5 96t101 118t73.5 132t30 141q0 62 -42 98.5t-115 36.5q-75 0 -123.5 -45.5t-87.5 -138.5h-6v225h194q100 0 183.5 -21t138.5 -67.5 t55 -112.5q0 -52 -28 -101t-76 -90t-97.5 -77t-105.5 -78t-88 -75l4 -7l70 7l292 4l84 157h7l-31 -313h-610z" />
<glyph unicode="&#xbe;" horiz-adv-x="1652" d="M1407 1473l-926 -1541h-96l924 1541h98zM98 606l-10 39q60 0 121.5 9.5t121.5 29t98 56t38 85.5q0 55 -34.5 93t-84 56.5t-123.5 31.5q-6 -1 -21 -4.5t-24 -4.5l-4 23l49 14q127 43 176 73q86 52 86 120q0 63 -48 99t-128 36q-38 0 -68.5 -14t-54 -43t-38.5 -55t-35 -68 h-9v221h226q74 0 135 -8t111 -26t78 -49.5t28 -74.5q0 -63 -78.5 -111t-245.5 -92q61 -4 114 -14t106.5 -28.5t84.5 -52t31 -77.5q0 -53 -47.5 -99t-118.5 -75.5t-155 -50.5t-155.5 -30t-121.5 -9zM1384 252h187v-59h-187v-107l138 -86h-437l127 86v109h-352l348 581h209 l-409 -522h202v104l174 232v-338z" />
<glyph unicode="&#xbf;" horiz-adv-x="1032" d="M688 1026l176 -188l-176 -191l-174 191zM942 -451h-176q-70 0 -128.5 3t-125 11t-119 22.5t-102.5 38.5t-83 57t-53 80t-20 106q0 63 29 119.5t71.5 95.5t104 76t111 58.5t109 46.5t83.5 38l25 221h49l37 -250q-138 -49 -223 -150.5t-85 -209.5q0 -156 45 -221.5 t115 -65.5q108 0 170.5 72t100.5 201l16 2z" />
<glyph unicode="&#xc0;" horiz-adv-x="1495" d="M723 1516l-264 264h268l27 -264h-31zM393 438l-110 -278l194 -160h-452l145 162l520 1261h96l553 -1286l154 -137h-631l189 141l-125 297h-533zM893 520l-238 572l-229 -572h467z" />
<glyph unicode="&#xc1;" horiz-adv-x="1495" d="M739 1516h-30l26 264h269zM393 438l-110 -278l194 -160h-452l145 162l520 1261h96l553 -1286l154 -137h-631l189 141l-125 297h-533zM893 520l-238 572l-229 -572h467z" />
<glyph unicode="&#xc2;" horiz-adv-x="1495" d="M528 1516l127 264h170l129 -264h-30l-183 143l-182 -143h-31zM393 438l-110 -278l194 -160h-452l145 162l520 1261h96l553 -1286l154 -137h-631l189 141l-125 297h-533zM893 520l-238 572l-229 -572h467z" />
<glyph unicode="&#xc3;" horiz-adv-x="1488" d="M1004 1778l-121 -207q-22 2 -96 8.5t-124.5 10t-95.5 3.5q-18 0 -37.5 -23t-44.5 -65l-28 19l129 219q26 -2 91.5 -9t114.5 -10.5t91 -3.5q21 0 41.5 17.5t48.5 52.5zM848 0l188 141l-125 297h-532l-111 -278l195 -160h-453l146 162l520 1261h96l553 -1286l154 -137h-631 zM641 1092l-225 -562h458z" />
<glyph unicode="&#xc4;" horiz-adv-x="1495" d="M326 1700l157 178l158 -178l-158 -180zM803 1700l160 178l155 -178l-155 -180zM393 438l-110 -278l194 -160h-452l145 162l520 1261h96l553 -1286l154 -137h-631l189 141l-125 297h-533zM893 520l-238 572l-229 -572h467z" />
<glyph unicode="&#xc5;" horiz-adv-x="1495" d="M537 1698q0 83 58.5 141.5t141.5 58.5t142 -58.5t59 -141.5t-59 -142t-142 -59t-141.5 59t-58.5 142zM606 1698q0 -54 38.5 -92.5t92.5 -38.5t92.5 38.5t38.5 92.5t-38.5 92.5t-92.5 38.5t-92.5 -38.5t-38.5 -92.5zM393 438l-110 -278l194 -160h-452l145 162l520 1261h96 l553 -1286l154 -137h-631l189 141l-125 297h-533zM893 520l-238 572l-229 -572h467z" />
<glyph unicode="&#xc6;" horiz-adv-x="1863" d="M1790 0h-1026l123 217v221h-463l-166 -282l170 -156h-428l154 174l659 1106l-158 125h406l-2 -2h692v-430h-12l-250 356h-336v-567h559v-82h-559v-606h354l295 375l10 -5zM887 1225l-8 6l-27 -53l-381 -658h416v705z" />
<glyph unicode="&#xc7;" horiz-adv-x="1333" d="M1157 987h-27q-27 68 -65 125t-89.5 105t-119.5 75t-145 27q-116 0 -194.5 -67t-113 -174t-34.5 -247q0 -177 45.5 -313.5t143.5 -219.5t237 -83q285 0 436 238l31 -21q-29 -68 -66 -129.5t-91.5 -123t-117 -105.5t-145 -71.5t-172.5 -27.5q-274 0 -436 187t-162 491 q0 110 31.5 218t96.5 204t154.5 169t214.5 116t269 43h319v-416zM698 -25l-24 -45q7 -3 28 -10.5t34.5 -13t34 -14.5t34 -18t27 -20t20 -24t6.5 -27q0 -71 -59.5 -112t-141.5 -41q-51 0 -89 16t-79 53l23 37q60 -57 150 -57q43 0 73.5 13t30.5 34q0 19 -14.5 33t-41.5 22.5 t-52 14t-61 12t-54 10.5v6l92 131h63z" />
<glyph unicode="&#xc8;" horiz-adv-x="1212" d="M670 1516l-264 264h268l26 -264h-30zM1108 0h-1026l123 217v973l-123 213h987v-430h-25l-225 356h-348v-567h559v-92h-559v-596h367l270 375l22 -5z" />
<glyph unicode="&#xc9;" horiz-adv-x="1212" d="M528 1516l27 264h268l-264 -264h-31zM1108 0h-1026l123 217v973l-123 213h987v-430h-25l-225 356h-348v-567h559v-92h-559v-596h367l270 375l22 -5z" />
<glyph unicode="&#xca;" horiz-adv-x="1212" d="M408 1516l127 264h170l129 -264h-31l-182 143l-183 -143h-30zM1108 0h-1026l123 217v973l-123 213h987v-430h-25l-225 356h-348v-567h559v-92h-559v-596h367l270 375l22 -5z" />
<glyph unicode="&#xcb;" horiz-adv-x="1212" d="M225 1698l160 178l156 -178l-156 -180zM705 1698l159 178l156 -178l-156 -180zM1108 0h-1026l123 217v973l-123 213h987v-430h-25l-225 356h-348v-567h559v-92h-559v-596h367l270 375l22 -5z" />
<glyph unicode="&#xcc;" horiz-adv-x="733" d="M416 1516l-264 264h268l26 -264h-30zM651 0h-569l151 217v969l-151 217h569l-151 -217v-969z" />
<glyph unicode="&#xcd;" horiz-adv-x="733" d="M319 1516h-30l26 264h269zM651 0h-569l151 217v969l-151 217h569l-151 -217v-969z" />
<glyph unicode="&#xce;" horiz-adv-x="733" d="M160 1516l127 264h170l129 -264h-31l-182 143l-183 -143h-30zM651 0h-569l151 217v969l-151 217h569l-151 -217v-969z" />
<glyph unicode="&#xcf;" horiz-adv-x="913" d="M61 1700l156 178l160 -178l-160 -180zM537 1700l159 178l156 -178l-156 -180zM741 0h-569l152 217v969l-152 217h569l-151 -217v-969z" />
<glyph unicode="&#xd0;" horiz-adv-x="1449" d="M51 1403h545q179 0 318 -37t225 -97t141 -143t76.5 -167t21.5 -177q0 -370 -218 -576t-599 -206h-510l152 217v455h-152v102h152v412zM469 78h129q90 0 164 22t124 58t88.5 88.5t60 106.5t35 119t18 119t4.5 114q0 311 -119.5 471.5t-360.5 160.5h-143v-563h299v-102 h-299v-594z" />
<glyph unicode="&#xd1;" horiz-adv-x="1548" d="M1047 1712l-121 -207q-27 2 -97 9t-122 10.5t-97 3.5q-18 0 -37.5 -23t-44.5 -65l-28 18l129 219q21 -2 90 -8.5t117 -10t90 -3.5q35 0 90 69zM1325 119l88 -119h-317l-752 1001v-825l174 -176h-422l152 190v953l-199 260h338l840 -1170v994l-176 176h426l-152 -191 v-1093z" />
<glyph unicode="&#xd2;" horiz-adv-x="1511" d="M690 1516l-264 264h268l27 -264h-31zM1440 764q0 -157 -49.5 -297.5t-143 -251t-240.5 -175.5t-329 -65q-137 0 -253 57t-192 151t-118.5 213t-42.5 245q0 157 49.5 297.5t143 251t240.5 175.5t329 65q137 0 253 -57t192 -151t118.5 -213t42.5 -245zM688 1341 q-66 0 -119.5 -22t-88 -60t-59 -83t-36.5 -98.5t-17.5 -98.5t-5.5 -90q0 -159 31.5 -307.5t89 -264.5t146 -186t194.5 -70q70 0 128 32t94.5 81.5t61.5 111.5t35.5 120t10.5 110q0 215 -54.5 401t-162.5 305t-248 119z" />
<glyph unicode="&#xd3;" horiz-adv-x="1511" d="M709 1516h-31l27 264h268zM1440 764q0 -157 -49.5 -297.5t-143 -251t-240.5 -175.5t-329 -65q-137 0 -253 57t-192 151t-118.5 213t-42.5 245q0 157 49.5 297.5t143 251t240.5 175.5t329 65q137 0 253 -57t192 -151t118.5 -213t42.5 -245zM688 1341q-66 0 -119.5 -22 t-88 -60t-59 -83t-36.5 -98.5t-17.5 -98.5t-5.5 -90q0 -159 31.5 -307.5t89 -264.5t146 -186t194.5 -70q70 0 128 32t94.5 81.5t61.5 111.5t35.5 120t10.5 110q0 215 -54.5 401t-162.5 305t-248 119z" />
<glyph unicode="&#xd4;" horiz-adv-x="1511" d="M539 1516l127 264h170l129 -264h-31l-182 143l-183 -143h-30zM1440 764q0 -157 -49.5 -297.5t-143 -251t-240.5 -175.5t-329 -65q-137 0 -253 57t-192 151t-118.5 213t-42.5 245q0 157 49.5 297.5t143 251t240.5 175.5t329 65q137 0 253 -57t192 -151t118.5 -213 t42.5 -245zM688 1341q-66 0 -119.5 -22t-88 -60t-59 -83t-36.5 -98.5t-17.5 -98.5t-5.5 -90q0 -159 31.5 -307.5t89 -264.5t146 -186t194.5 -70q70 0 128 32t94.5 81.5t61.5 111.5t35.5 120t10.5 110q0 215 -54.5 401t-162.5 305t-248 119z" />
<glyph unicode="&#xd5;" horiz-adv-x="1511" d="M455 1513l129 220q26 -2 91.5 -9t114.5 -10.5t91 -3.5q21 0 41.5 17.5t48.5 52.5l30 -13l-120 -206q-22 2 -96 8.5t-124.5 10t-95.5 3.5q-18 0 -37.5 -23t-44.5 -65zM1440 764q0 -157 -49.5 -297.5t-143 -251t-240.5 -175.5t-329 -65q-137 0 -253 57t-192 151t-118.5 213 t-42.5 245q0 157 49.5 297.5t143 251t240.5 175.5t329 65q137 0 253 -57t192 -151t118.5 -213t42.5 -245zM688 1341q-66 0 -119.5 -22t-88 -60t-59 -83t-36.5 -98.5t-17.5 -98.5t-5.5 -90q0 -159 31.5 -307.5t89 -264.5t146 -186t194.5 -70q70 0 128 32t94.5 81.5 t61.5 111.5t35.5 120t10.5 110q0 215 -54.5 401t-162.5 305t-248 119z" />
<glyph unicode="&#xd6;" horiz-adv-x="1511" d="M350 1696l160 178l156 -178l-156 -180zM829 1696l160 178l156 -178l-156 -180zM1440 764q0 -157 -49.5 -297.5t-143 -251t-240.5 -175.5t-329 -65q-137 0 -253 57t-192 151t-118.5 213t-42.5 245q0 157 49.5 297.5t143 251t240.5 175.5t329 65q137 0 253 -57t192 -151 t118.5 -213t42.5 -245zM688 1341q-66 0 -119.5 -22t-88 -60t-59 -83t-36.5 -98.5t-17.5 -98.5t-5.5 -90q0 -159 31.5 -307.5t89 -264.5t146 -186t194.5 -70q70 0 128 32t94.5 81.5t61.5 111.5t35.5 120t10.5 110q0 215 -54.5 401t-162.5 305t-248 119z" />
<glyph unicode="&#xd7;" horiz-adv-x="804" d="M506 520l254 -266l-105 -104l-252 264l-253 -267l-105 117l250 262l-232 244l105 104l229 -241l240 252l104 -117z" />
<glyph unicode="&#xd8;" horiz-adv-x="1540" d="M1479 1413l-176 -196q76 -91 116.5 -210t40.5 -243q0 -157 -49.5 -297.5t-143 -251t-240.5 -175.5t-329 -65q-223 0 -383 144l-116 -129h-138l185 205q-74 92 -114 208t-40 238q0 157 49.5 297.5t143 251t240.5 175.5t329 65q217 0 377 -140l110 123h138zM457 428 l592 659q-62 120 -148.5 187t-191.5 67q-66 0 -119.5 -22t-88 -60t-59 -83t-36.5 -98.5t-17.5 -98.5t-5.5 -90q0 -254 74 -461zM1094 985l-594 -659q62 -125 149.5 -195t194.5 -70q70 0 128 32t94.5 81.5t61.5 111.5t35.5 120t10.5 110q0 262 -80 469z" />
<glyph unicode="&#xd9;" horiz-adv-x="1562" d="M897 1516l-264 264h268l27 -264h-31zM500 1186v-703q0 -79 11.5 -142t30.5 -106t49 -74t61 -49t73.5 -28t79 -13t84.5 -3q352 0 352 548v603l-158 184h408l-152 -184v-652q0 -132 -19 -208t-65 -162q-57 -104 -172.5 -166t-269.5 -62q-42 0 -72.5 1t-96 10.5t-114 26.5 t-108.5 53t-98.5 85.5t-65.5 129t-27 178.5v735l-149 215h569z" />
<glyph unicode="&#xda;" horiz-adv-x="1562" d="M815 1516h-31l27 264h268zM500 1186v-703q0 -79 11.5 -142t30.5 -106t49 -74t61 -49t73.5 -28t79 -13t84.5 -3q352 0 352 548v603l-158 184h408l-152 -184v-652q0 -132 -19 -208t-65 -162q-57 -104 -172.5 -166t-269.5 -62q-42 0 -72.5 1t-96 10.5t-114 26.5t-108.5 53 t-98.5 85.5t-65.5 129t-27 178.5v735l-149 215h569z" />
<glyph unicode="&#xdb;" horiz-adv-x="1562" d="M633 1516l127 264h170l129 -264h-31l-182 143l-182 -143h-31zM500 1186v-703q0 -79 11.5 -142t30.5 -106t49 -74t61 -49t73.5 -28t79 -13t84.5 -3q352 0 352 548v603l-158 184h408l-152 -184v-652q0 -132 -19 -208t-65 -162q-57 -104 -172.5 -166t-269.5 -62 q-42 0 -72.5 1t-96 10.5t-114 26.5t-108.5 53t-98.5 85.5t-65.5 129t-27 178.5v735l-149 215h569z" />
<glyph unicode="&#xdc;" horiz-adv-x="1562" d="M455 1696l166 186l165 -186l-165 -189zM956 1696l168 186l164 -186l-164 -189zM500 1186v-703q0 -79 11.5 -142t30.5 -106t49 -74t61 -49t73.5 -28t79 -13t84.5 -3q352 0 352 548v603l-158 184h408l-152 -184v-652q0 -132 -19 -208t-65 -162q-57 -104 -172.5 -166 t-269.5 -62q-42 0 -72.5 1t-96 10.5t-114 26.5t-108.5 53t-98.5 85.5t-65.5 129t-27 178.5v735l-149 215h569z" />
<glyph unicode="&#xdd;" horiz-adv-x="1411" d="M717 1516l26 264h269l-264 -264h-31zM1010 0h-611l172 207v368l-364 611l-187 217h658l-174 -217h-2l241 -387l33 -68l268 459l-174 213h521l-211 -193l-342 -559v-444z" />
<glyph unicode="&#xde;" horiz-adv-x="1239" d="M500 1143h73q37 0 77.5 -2.5t98.5 -12.5t109.5 -25.5t105 -44.5t92 -67t63 -95.5t24.5 -127.5q0 -91 -40.5 -167.5t-107 -127.5t-145 -83t-162.5 -42q-92 -14 -188 -14v-117l184 -217h-602l151 217v969l-151 217h569l-151 -217v-43zM500 1081v-678q170 0 261 85.5 t91 254.5q0 168 -92 253t-260 85z" />
<glyph unicode="&#xdf;" horiz-adv-x="1196" d="M49 1004h144q0 28 14.5 75t49.5 107.5t84 112.5t127.5 88t170.5 36q342 0 342 -270q0 -48 -25.5 -104.5t-64.5 -106t-71.5 -84t-59.5 -57.5q17 -11 72 -45t87 -55.5t80.5 -63.5t76 -80.5t48.5 -95t21 -117.5q0 -166 -91 -259t-274 -93q-130 0 -239 8l14 338h23 q30 -84 68 -143t74.5 -86t65.5 -37.5t56 -10.5q139 0 139 166q0 63 -56 136t-132.5 130.5t-144.5 98t-105 53.5q122 148 170.5 251t48.5 228q0 112 -57.5 171t-137.5 59q-63 0 -112.5 -35t-66.5 -98.5t22 -153.5l28 -63v-1004h-397l152 176v698z" />
<glyph unicode="&#xe0;" horiz-adv-x="1093" d="M627 1130l-265 265h259l36 -265h-30zM653 0v172q-78 -76 -172 -134t-184 -58q-112 0 -179 58t-67 177q0 61 29.5 114t79 94t129.5 79.5t164 68.5t200 64q0 42 -0.5 66t-3 57.5t-7.5 52t-14 41.5t-23 35t-33.5 24t-47 16.5t-61.5 4.5q-122 0 -204 -66t-144 -190h-15v328 h897l-98 -134v-737h2l152 -133h-400zM653 227v353q-174 -54 -252.5 -134t-78.5 -163q0 -70 42.5 -106t110.5 -36q95 0 178 86z" />
<glyph unicode="&#xe1;" horiz-adv-x="1093" d="M465 1130h-31l37 265h258zM653 0v172q-78 -76 -172 -134t-184 -58q-112 0 -179 58t-67 177q0 61 29.5 114t79 94t129.5 79.5t164 68.5t200 64q0 42 -0.5 66t-3 57.5t-7.5 52t-14 41.5t-23 35t-33.5 24t-47 16.5t-61.5 4.5q-122 0 -204 -66t-144 -190h-15v328h897 l-98 -134v-737h2l152 -133h-400zM653 227v353q-174 -54 -252.5 -134t-78.5 -163q0 -70 42.5 -106t110.5 -36q95 0 178 86z" />
<glyph unicode="&#xe2;" horiz-adv-x="1093" d="M319 1130l117 265h170l119 -265h-33l-170 150l-174 -150h-29zM653 0v172q-78 -76 -172 -134t-184 -58q-112 0 -179 58t-67 177q0 61 29.5 114t79 94t129.5 79.5t164 68.5t200 64q0 42 -0.5 66t-3 57.5t-7.5 52t-14 41.5t-23 35t-33.5 24t-47 16.5t-61.5 4.5 q-122 0 -204 -66t-144 -190h-15v328h897l-98 -134v-737h2l152 -133h-400zM653 227v353q-174 -54 -252.5 -134t-78.5 -163q0 -70 42.5 -106t110.5 -36q95 0 178 86z" />
<glyph unicode="&#xe3;" horiz-adv-x="1093" d="M272 1169l129 224q19 -2 124.5 -14.5t160.5 -12.5q21 0 41.5 17.5t48.5 52.5l31 -13l-121 -211q-20 2 -132 14.5t-171 12.5q-18 0 -37.5 -23t-44.5 -65zM653 0v172q-78 -76 -172 -134t-184 -58q-112 0 -179 58t-67 177q0 61 29.5 114t79 94t129.5 79.5t164 68.5t200 64 q0 42 -0.5 66t-3 57.5t-7.5 52t-14 41.5t-23 35t-33.5 24t-47 16.5t-61.5 4.5q-122 0 -204 -66t-144 -190h-15v328h897l-98 -134v-737h2l152 -133h-400zM653 227v353q-174 -54 -252.5 -134t-78.5 -163q0 -70 42.5 -106t110.5 -36q95 0 178 86z" />
<glyph unicode="&#xe4;" horiz-adv-x="1093" d="M188 1274l140 156l137 -156l-137 -158zM608 1274l140 156l137 -156l-137 -158zM653 0v172q-78 -76 -172 -134t-184 -58q-112 0 -179 58t-67 177q0 61 29.5 114t79 94t129.5 79.5t164 68.5t200 64q0 42 -0.5 66t-3 57.5t-7.5 52t-14 41.5t-23 35t-33.5 24t-47 16.5 t-61.5 4.5q-122 0 -204 -66t-144 -190h-15v328h897l-98 -134v-737h2l152 -133h-400zM653 227v353q-174 -54 -252.5 -134t-78.5 -163q0 -70 42.5 -106t110.5 -36q95 0 178 86z" />
<glyph unicode="&#xe5;" horiz-adv-x="1093" d="M356 1300q0 75 54 129t129 54t128.5 -54t53.5 -129t-53.5 -128.5t-128.5 -53.5t-129 53.5t-54 128.5zM414 1300q0 -52 36 -88t89 -36t89 36t36 88t-36 88.5t-89 36.5t-89 -36.5t-36 -88.5zM653 0v172q-78 -76 -172 -134t-184 -58q-112 0 -179 58t-67 177q0 61 29.5 114 t79 94t129.5 79.5t164 68.5t200 64q0 42 -0.5 66t-3 57.5t-7.5 52t-14 41.5t-23 35t-33.5 24t-47 16.5t-61.5 4.5q-122 0 -204 -66t-144 -190h-15v328h897l-98 -134v-737h2l152 -133h-400zM653 227v353q-174 -54 -252.5 -134t-78.5 -163q0 -70 42.5 -106t110.5 -36 q95 0 178 86z" />
<glyph unicode="&#xe6;" horiz-adv-x="1587" d="M1526 582h-658q8 -96 37.5 -169.5t73.5 -117.5t97.5 -66t115.5 -22q103 0 186 45t107 110l31 -12q-30 -75 -70.5 -138t-96.5 -118.5t-132 -87t-164 -31.5q-121 0 -212 61t-147 163q-95 -105 -199 -162t-198 -57q-112 0 -179 58t-67 177q0 61 29.5 114t79 94t129.5 79.5 t164 68.5t200 64q9 93 0.5 160.5t-55 105t-135.5 37.5q-113 0 -204.5 -63t-145.5 -170h-13v299h875q71 24 155 24q185 0 290.5 -118t105.5 -328zM864 635h396q2 8 2 27q0 153 -52 229t-127 76q-55 0 -99.5 -30.5t-69 -78.5t-37.5 -100t-13 -101v-22zM475 141 q50 0 103.5 26.5t93.5 80.5q-39 103 -39 213q0 52 10 114q-168 -54 -244.5 -132.5t-76.5 -159.5q0 -70 42.5 -106t110.5 -36z" />
<glyph unicode="&#xe7;" horiz-adv-x="958" d="M848 725h-10q-136 207 -316 207q-62 0 -107.5 -24t-70 -65.5t-36 -90t-11.5 -105.5q0 -115 24.5 -200.5t68 -134t96 -71t116.5 -22.5q96 0 173 60t99 124l23 -8q-13 -51 -35 -103.5t-58.5 -108t-81 -99t-106 -74t-129.5 -35.5l-24 -45q3 -1 27.5 -10t34 -13.5t31.5 -14.5 t33 -18t24.5 -19.5t19.5 -24.5t6 -27q0 -55 -58 -95t-135 -40q-84 0 -153 60l14 28q62 -53 144 -53q41 0 68.5 10t27.5 25q0 27 -32.5 47t-72 29t-72 19t-32.5 20l86 124q-88 7 -159 51t-114.5 111.5t-66.5 150t-23 171.5q0 76 18 150.5t60 146t103 126t154 87.5t206 33h246 v-279z" />
<glyph unicode="&#xe8;" horiz-adv-x="1017" d="M547 1126l-264 265h258l37 -265h-31zM954 580v-2h-657q8 -96 37.5 -169.5t73.5 -117.5t97.5 -66t115.5 -22q103 0 185.5 45t106.5 110l31 -12q-30 -75 -70.5 -138t-96.5 -118.5t-132 -87t-164 -31.5q-129 0 -226.5 71t-145.5 180t-48 235q0 81 19.5 160.5t60 153 t98.5 130t140.5 90t179.5 33.5q183 0 288.5 -116.5t106.5 -323.5l2 -4h-2zM690 639v18q0 153 -51.5 229.5t-126.5 76.5q-55 0 -99.5 -30.5t-69 -78.5t-37.5 -100t-13 -101v-14h397z" />
<glyph unicode="&#xe9;" horiz-adv-x="1017" d="M494 1126h-31l37 265h258zM954 580v-2h-657q8 -96 37.5 -169.5t73.5 -117.5t97.5 -66t115.5 -22q103 0 185.5 45t106.5 110l31 -12q-30 -75 -70.5 -138t-96.5 -118.5t-132 -87t-164 -31.5q-129 0 -226.5 71t-145.5 180t-48 235q0 81 19.5 160.5t60 153t98.5 130t140.5 90 t179.5 33.5q183 0 288.5 -116.5t106.5 -323.5l2 -4h-2zM690 639v18q0 153 -51.5 229.5t-126.5 76.5q-55 0 -99.5 -30.5t-69 -78.5t-37.5 -100t-13 -101v-14h397z" />
<glyph unicode="&#xea;" horiz-adv-x="1017" d="M358 1126h-28l116 265h170l119 -265h-33l-170 150zM954 580v-2h-657q8 -96 37.5 -169.5t73.5 -117.5t97.5 -66t115.5 -22q103 0 185.5 45t106.5 110l31 -12q-30 -75 -70.5 -138t-96.5 -118.5t-132 -87t-164 -31.5q-129 0 -226.5 71t-145.5 180t-48 235q0 81 19.5 160.5 t60 153t98.5 130t140.5 90t179.5 33.5q183 0 288.5 -116.5t106.5 -323.5l2 -4h-2zM690 639v18q0 153 -51.5 229.5t-126.5 76.5q-55 0 -99.5 -30.5t-69 -78.5t-37.5 -100t-13 -101v-14h397z" />
<glyph unicode="&#xeb;" horiz-adv-x="1017" d="M328 1112l-140 158l140 155l137 -155zM748 1112l-140 158l140 155l137 -155zM954 580v-2h-657q8 -96 37.5 -169.5t73.5 -117.5t97.5 -66t115.5 -22q103 0 185.5 45t106.5 110l31 -12q-30 -75 -70.5 -138t-96.5 -118.5t-132 -87t-164 -31.5q-129 0 -226.5 71t-145.5 180 t-48 235q0 81 19.5 160.5t60 153t98.5 130t140.5 90t179.5 33.5q183 0 288.5 -116.5t106.5 -323.5l2 -4h-2zM690 639v18q0 153 -51.5 229.5t-126.5 76.5q-55 0 -99.5 -30.5t-69 -78.5t-37.5 -100t-13 -101v-14h397z" />
<glyph unicode="&#xec;" horiz-adv-x="651" d="M369 1130h-31l-264 265h258zM63 887l386 137v-848l151 -176h-549l152 176v553z" />
<glyph unicode="&#xed;" horiz-adv-x="651" d="M231 1130h-30l37 265h258zM63 887l386 137v-848l151 -176h-549l152 176v553z" />
<glyph unicode="&#xee;" horiz-adv-x="651" d="M104 1130l117 265h170l119 -265h-33l-170 150l-174 -150h-29zM63 887l386 137v-848l151 -176h-549l152 176v553z" />
<glyph unicode="&#xef;" horiz-adv-x="798" d="M51 1274l139 156l138 -156l-138 -158zM471 1274l139 156l138 -156l-138 -158zM158 887l385 137v-848l151 -176h-549l152 176v553z" />
<glyph unicode="&#xf0;" horiz-adv-x="1105" d="M872 1370l-180 -88q352 -403 352 -735q0 -81 -20 -161t-63.5 -154.5t-106.5 -131.5t-155.5 -91t-202.5 -34q-105 0 -190 40.5t-137.5 108.5t-80 153.5t-27.5 179.5q0 81 20 160.5t64 154.5t106.5 131.5t155.5 90.5t203 34h4q-40 71 -106 164l-240 -117v70l191 110 q-73 93 -183 213h238q95 -94 115 -116l239 137zM500 950q-41 0 -72 -13.5t-50 -39.5t-31 -53.5t-17 -67t-6.5 -67.5t-1.5 -66q0 -161 33.5 -294t99.5 -214.5t153 -81.5q54 0 92 32t55.5 83t25 98t7.5 94q0 161 -34 294t-100.5 214.5t-153.5 81.5z" />
<glyph unicode="&#xf1;" horiz-adv-x="1277" d="M373 1169l129 224q19 -2 124 -14.5t160 -12.5q35 0 91 70l30 -13l-121 -211q-20 2 -132 14.5t-171 12.5q-18 0 -37.5 -23t-44.5 -65zM438 1024v-186q59 92 150.5 141t187.5 49q152 0 229.5 -89t77.5 -239v-524h2l152 -176h-549l150 174v457q0 52 -3.5 88t-14.5 70.5 t-31 55t-53 32.5t-79 12q-128 0 -219 -121v-592l152 -176h-549l152 176v553l-140 158z" />
<glyph unicode="&#xf2;" horiz-adv-x="1140" d="M596 1130l-264 265h258l37 -265h-31zM1065 547q0 -81 -21 -161t-66.5 -154.5t-109.5 -131.5t-158 -91t-204 -34q-105 0 -191.5 40.5t-141 108.5t-83.5 153.5t-29 179.5q0 81 21 161t66.5 154t110 131t158.5 91t204 34q106 0 192 -40.5t140 -108t83 -153t29 -179.5z M510 950q-188 0 -188 -307q0 -160 36 -294t104.5 -215t155.5 -81q54 0 93.5 32t59.5 82.5t29 99t9 93.5q0 160 -36.5 294t-105.5 215t-157 81z" />
<glyph unicode="&#xf3;" horiz-adv-x="1140" d="M496 1130h-31l37 265h258zM1065 547q0 -81 -21 -161t-66.5 -154.5t-109.5 -131.5t-158 -91t-204 -34q-105 0 -191.5 40.5t-141 108.5t-83.5 153.5t-29 179.5q0 81 21 161t66.5 154t110 131t158.5 91t204 34q106 0 192 -40.5t140 -108t83 -153t29 -179.5zM510 950 q-188 0 -188 -307q0 -160 36 -294t104.5 -215t155.5 -81q54 0 93.5 32t59.5 82.5t29 99t9 93.5q0 160 -36.5 294t-105.5 215t-157 81z" />
<glyph unicode="&#xf4;" horiz-adv-x="1140" d="M360 1130l117 265h170l119 -265h-33l-170 150l-174 -150h-29zM1065 547q0 -81 -21 -161t-66.5 -154.5t-109.5 -131.5t-158 -91t-204 -34q-105 0 -191.5 40.5t-141 108.5t-83.5 153.5t-29 179.5q0 81 21 161t66.5 154t110 131t158.5 91t204 34q106 0 192 -40.5t140 -108 t83 -153t29 -179.5zM510 950q-188 0 -188 -307q0 -160 36 -294t104.5 -215t155.5 -81q54 0 93.5 32t59.5 82.5t29 99t9 93.5q0 160 -36.5 294t-105.5 215t-157 81z" />
<glyph unicode="&#xf5;" horiz-adv-x="1140" d="M690 1300l90 70l31 -12l-121 -211l-303 27l-82 -89l-29 19l130 223zM1065 547q0 -81 -21 -161t-66.5 -154.5t-109.5 -131.5t-158 -91t-204 -34q-105 0 -191.5 40.5t-141 108.5t-83.5 153.5t-29 179.5q0 81 21 161t66.5 154t110 131t158.5 91t204 34q106 0 192 -40.5 t140 -108t83 -153t29 -179.5zM510 950q-188 0 -188 -307q0 -160 36 -294t104.5 -215t155.5 -81q54 0 93.5 32t59.5 82.5t29 99t9 93.5q0 160 -36.5 294t-105.5 215t-157 81z" />
<glyph unicode="&#xf6;" horiz-adv-x="1140" d="M207 1280l139 156l137 -156l-137 -158zM627 1280l139 156l137 -156l-137 -158zM1065 547q0 -81 -21 -161t-66.5 -154.5t-109.5 -131.5t-158 -91t-204 -34q-105 0 -191.5 40.5t-141 108.5t-83.5 153.5t-29 179.5q0 81 21 161t66.5 154t110 131t158.5 91t204 34 q106 0 192 -40.5t140 -108t83 -153t29 -179.5zM510 950q-188 0 -188 -307q0 -160 36 -294t104.5 -215t155.5 -81q54 0 93.5 32t59.5 82.5t29 99t9 93.5q0 160 -36.5 294t-105.5 215t-157 81z" />
<glyph unicode="&#xf7;" horiz-adv-x="913" d="M287 895l172 184l170 -184l-170 -186zM866 494h-819v143h819v-143zM287 238l172 184l170 -184l-170 -187z" />
<glyph unicode="&#xf8;" horiz-adv-x="1153" d="M1092 1155l-162 -233q75 -67 114 -166t39 -209q0 -81 -21 -161t-66.5 -154.5t-109.5 -131.5t-158 -91t-204 -34q-116 0 -211 50l-104 -152h-137l151 219q-69 68 -106 164t-37 201q0 81 21 161t66.5 154t109.5 131t158 91t204 34q108 0 199 -43l116 170h138zM383 326 l340 491q-81 133 -195 133q-188 0 -188 -307q0 -181 43 -317zM776 698l-342 -497q84 -148 203 -148q54 0 93.5 32t59 82.5t28.5 99t9 93.5q0 190 -51 338z" />
<glyph unicode="&#xf9;" horiz-adv-x="1210" d="M573 1130l-264 265h258l37 -265h-31zM410 1006v-629q0 -66 6 -108t24.5 -79t55 -54t94.5 -17q111 0 194 96v612l-151 179h397v-838l139 -168l-385 -12v164q-125 -172 -313 -172q-152 0 -229.5 88.5t-77.5 238.5v520l-154 179h400z" />
<glyph unicode="&#xfa;" horiz-adv-x="1210" d="M553 1130h-31l37 265h258zM410 1006v-629q0 -66 6 -108t24.5 -79t55 -54t94.5 -17q111 0 194 96v612l-151 179h397v-838l139 -168l-385 -12v164q-125 -172 -313 -172q-152 0 -229.5 88.5t-77.5 238.5v520l-154 179h400z" />
<glyph unicode="&#xfb;" horiz-adv-x="1210" d="M346 1130l117 265h170l119 -265h-33l-170 150l-174 -150h-29zM410 1006v-629q0 -66 6 -108t24.5 -79t55 -54t94.5 -17q111 0 194 96v612l-151 179h397v-838l139 -168l-385 -12v164q-125 -172 -313 -172q-152 0 -229.5 88.5t-77.5 238.5v520l-154 179h400z" />
<glyph unicode="&#xfc;" horiz-adv-x="1210" d="M217 1280l139 156l138 -156l-138 -158zM637 1280l139 156l137 -156l-137 -158zM410 1006v-629q0 -66 6 -108t24.5 -79t55 -54t94.5 -17q111 0 194 96v612l-151 179h397v-838l139 -168l-385 -12v164q-125 -172 -313 -172q-152 0 -229.5 88.5t-77.5 238.5v520l-154 179h400 z" />
<glyph unicode="&#xfd;" horiz-adv-x="1095" d="M602 1130h-31l37 265h258zM0 1004h543l-150 -132l215 -528l25 -70l248 598l-150 132h365l-121 -127l-475 -1141l147 -176h-442l180 184l121 276l-371 818z" />
<glyph unicode="&#xfe;" horiz-adv-x="1236" d="M438 1454v-584q63 73 136.5 113.5t177.5 40.5q128 0 223 -70t140.5 -177.5t45.5 -233.5q0 -72 -17 -146t-58 -149.5t-100.5 -133.5t-152 -95t-204.5 -37q-77 0 -191 24v-270l191 -176h-588l152 176v1444l-140 157zM438 815v-604q51 -58 122 -98.5t149 -40.5q52 0 91 16.5 t61.5 42t36 64t18 76.5t4.5 85q0 234 -88.5 375t-223.5 141q-81 0 -170 -57z" />
<glyph unicode="&#xff;" horiz-adv-x="1095" d="M250 1274l139 156l137 -156l-137 -158zM670 1274l139 156l137 -156l-137 -158zM0 1004h543l-150 -132l215 -528l25 -70l248 598l-150 132h365l-121 -127l-475 -1141l147 -176h-442l180 184l121 276l-371 818z" />
<glyph unicode="&#x106;" horiz-adv-x="1333" d="M698 1516h-30l26 264h269zM1157 987h-27q-27 68 -65 125t-89.5 105t-119.5 75t-145 27q-116 0 -194.5 -67t-113 -174t-34.5 -247q0 -177 45.5 -313.5t143.5 -219.5t237 -83q285 0 436 238l31 -21q-29 -68 -66 -129.5t-91.5 -123t-117 -105.5t-145 -71.5t-172.5 -27.5 q-274 0 -436 187t-162 491q0 110 31.5 218t96.5 204t154.5 169t214.5 116t269 43h319v-416z" />
<glyph unicode="&#x107;" horiz-adv-x="958" d="M524 1130h-30l36 265h258zM848 725h-10q-136 207 -316 207q-62 0 -107.5 -24t-70 -65.5t-36 -90t-11.5 -105.5q0 -115 24.5 -200.5t68 -134t96 -71t116.5 -22.5q96 0 173 60t99 124l23 -8q-14 -54 -37 -108t-62 -111.5t-86 -101t-112.5 -71.5t-138.5 -28q-97 0 -175 41 t-126 110t-73.5 155t-25.5 180q0 76 18 150.5t60 146t103 126t154 87.5t206 33h246v-279z" />
<glyph unicode="&#x108;" horiz-adv-x="1333" d="M541 1516l127 264h170l129 -264h-31l-182 143l-183 -143h-30zM1157 987h-27q-27 68 -65 125t-89.5 105t-119.5 75t-145 27q-116 0 -194.5 -67t-113 -174t-34.5 -247q0 -177 45.5 -313.5t143.5 -219.5t237 -83q285 0 436 238l31 -21q-29 -68 -66 -129.5t-91.5 -123 t-117 -105.5t-145 -71.5t-172.5 -27.5q-274 0 -436 187t-162 491q0 110 31.5 218t96.5 204t154.5 169t214.5 116t269 43h319v-416z" />
<glyph unicode="&#x109;" horiz-adv-x="958" d="M319 1130l117 265h170l119 -265h-33l-170 150l-174 -150h-29zM848 725h-10q-136 207 -316 207q-62 0 -107.5 -24t-70 -65.5t-36 -90t-11.5 -105.5q0 -115 24.5 -200.5t68 -134t96 -71t116.5 -22.5q96 0 173 60t99 124l23 -8q-14 -54 -37 -108t-62 -111.5t-86 -101 t-112.5 -71.5t-138.5 -28q-97 0 -175 41t-126 110t-73.5 155t-25.5 180q0 76 18 150.5t60 146t103 126t154 87.5t206 33h246v-279z" />
<glyph unicode="&#x10b;" horiz-adv-x="958" d="M377 1284l145 164l144 -164l-144 -166zM848 725h-10q-136 207 -316 207q-62 0 -107.5 -24t-70 -65.5t-36 -90t-11.5 -105.5q0 -115 24.5 -200.5t68 -134t96 -71t116.5 -22.5q96 0 173 60t99 124l23 -8q-14 -54 -37 -108t-62 -111.5t-86 -101t-112.5 -71.5t-138.5 -28 q-97 0 -175 41t-126 110t-73.5 155t-25.5 180q0 76 18 150.5t60 146t103 126t154 87.5t206 33h246v-279z" />
<glyph unicode="&#x10c;" horiz-adv-x="1333" d="M739 1636l183 144h30l-129 -264h-170l-127 264h31zM1157 987h-27q-27 68 -65 125t-89.5 105t-119.5 75t-145 27q-116 0 -194.5 -67t-113 -174t-34.5 -247q0 -177 45.5 -313.5t143.5 -219.5t237 -83q285 0 436 238l31 -21q-29 -68 -66 -129.5t-91.5 -123t-117 -105.5 t-145 -71.5t-172.5 -27.5q-274 0 -436 187t-162 491q0 110 31.5 218t96.5 204t154.5 169t214.5 116t269 43h319v-416z" />
<glyph unicode="&#x10d;" horiz-adv-x="958" d="M530 1245l170 150h33l-119 -265h-170l-116 265h28zM848 725h-10q-136 207 -316 207q-62 0 -107.5 -24t-70 -65.5t-36 -90t-11.5 -105.5q0 -115 24.5 -200.5t68 -134t96 -71t116.5 -22.5q96 0 173 60t99 124l23 -8q-14 -54 -37 -108t-62 -111.5t-86 -101t-112.5 -71.5 t-138.5 -28q-97 0 -175 41t-126 110t-73.5 155t-25.5 180q0 76 18 150.5t60 146t103 126t154 87.5t206 33h246v-279z" />
<glyph unicode="&#x10e;" horiz-adv-x="1505" d="M713 1636l182 144h31l-129 -264h-170l-127 264h30zM82 1403h545q129 0 239 -20.5t191.5 -55.5t146.5 -84.5t107.5 -105.5t70.5 -120.5t40 -127t12 -127.5q0 -233 -105.5 -406.5t-295.5 -264.5t-441 -91h-510l151 217v969zM500 78h129q124 0 220 42t151.5 106t91 151 t47.5 166t12 162q0 306 -132 469t-376 163h-143v-1259z" />
<glyph unicode="&#x10f;" horiz-adv-x="1552" d="M1200 940l-29 21q79 44 102 66q38 37 38 85q0 19 -7.5 36t-14.5 25.5t-23.5 25l-20.5 20.5l-80 63l170 174q61 -37 113.5 -94t52.5 -105q0 -57 -27 -109t-65.5 -87t-83.5 -63t-76.5 -41t-48.5 -17zM784 -18v200q-116 -202 -313 -202q-78 0 -144 26.5t-112.5 72t-79 107 t-48 131t-15.5 144.5q0 81 20 158t63 147t105 123t153 84t199 31h172v176l-139 157l385 117v-1311l152 -143zM784 256v551q-116 125 -252 125q-52 0 -91.5 -18t-63 -46.5t-38 -67.5t-19.5 -75.5t-5 -77.5q0 -226 87.5 -334t228.5 -108q89 0 153 51z" />
<glyph unicode="&#x116;" horiz-adv-x="1212" d="M473 1679l145 164l144 -164l-144 -166zM1108 0h-1026l123 217v973l-123 213h987v-430h-25l-225 356h-348v-567h559v-92h-559v-596h367l270 375l22 -5z" />
<glyph unicode="&#x117;" horiz-adv-x="1015" d="M397 1284l146 164l143 -164l-143 -166zM954 582h-657q8 -96 37.5 -169.5t73.5 -117.5t97.5 -66t115.5 -22q103 0 185.5 45t106.5 110l31 -12q-30 -75 -70.5 -138t-96.5 -118.5t-132 -87t-164 -31.5q-129 0 -226.5 71t-145.5 180t-48 235q0 81 19.5 160.5t60 153t98.5 130 t140.5 90t179.5 33.5q185 0 290 -118t105 -328zM293 635h395q2 8 2 27q0 153 -51.5 229t-126.5 76q-55 0 -99.5 -30.5t-69 -78.5t-37.5 -100t-13 -101v-22z" />
<glyph unicode="&#x11a;" horiz-adv-x="1212" d="M631 1636l182 144h31l-129 -264h-170l-127 264h31zM1108 0h-1026l123 217v973l-123 213h987v-430h-25l-225 356h-348v-567h559v-92h-559v-596h367l270 375l22 -5z" />
<glyph unicode="&#x11b;" horiz-adv-x="1015" d="M530 1245l170 150h33l-119 -265h-170l-116 265h28zM954 582h-657q8 -96 37.5 -169.5t73.5 -117.5t97.5 -66t115.5 -22q103 0 185.5 45t106.5 110l31 -12q-30 -75 -70.5 -138t-96.5 -118.5t-132 -87t-164 -31.5q-129 0 -226.5 71t-145.5 180t-48 235q0 81 19.5 160.5 t60 153t98.5 130t140.5 90t179.5 33.5q185 0 290 -118t105 -328zM293 635h395q2 8 2 27q0 153 -51.5 229t-126.5 76q-55 0 -99.5 -30.5t-69 -78.5t-37.5 -100t-13 -101v-22z" />
<glyph unicode="&#x131;" horiz-adv-x="651" d="M63 887l386 137v-848l151 -176h-549l152 176v553z" />
<glyph unicode="&#x132;" horiz-adv-x="1415" d="M651 0h-569l151 217v969l-151 217h569l-151 -217v-969zM1333 1403l-151 -217v-1178q0 -56 -29 -113t-77.5 -105t-94.5 -84t-96 -66l-15 8q45 92 45 202v1336l-151 217h569z" />
<glyph unicode="&#x133;" horiz-adv-x="1177" d="M143 1309l176 188l175 -188l-175 -191zM766 1309l176 188l174 -188l-174 -191zM63 887l386 137v-848l151 -176h-549l152 176v553zM1071 1024v-874h2v-283q0 -55 -33.5 -108.5t-73 -86.5t-91.5 -73.5t-70 -59.5l-14 6q14 22 22.5 60.5t10.5 66.5l1 27v1030l-139 158z" />
<glyph unicode="&#x139;" horiz-adv-x="1249" d="M334 1516h-31l27 264h268zM1188 442l-23 -442h-1083l123 217v973l-123 213h545l-156 -215v-1096h426l270 350h21z" />
<glyph unicode="&#x13a;" horiz-adv-x="630" d="M250 1516h-31l37 264h258zM193 176v725l-140 158l140 43v78l-140 157l385 117v-1278l152 -176h-549z" />
<glyph unicode="&#x13d;" horiz-adv-x="1257" d="M846 879l-29 20q133 108 133 213q0 13 -3 25t-6 19.5t-11 18t-11.5 15t-14 15.5t-13.5 14l-80 63l170 174q61 -37 113.5 -94t52.5 -105q0 -189 -291 -372q-7 -4 -10 -6zM1188 442l-23 -442h-1083l123 217v973l-123 213h545l-156 -215v-1096h426l270 350h21z" />
<glyph unicode="&#x13e;" horiz-adv-x="950" d="M598 940l-29 21q79 44 102 66q38 37 38 85q0 19 -7.5 36t-14.5 25.5t-23.5 25l-20.5 20.5l-80 63l170 174q61 -37 113.5 -94t52.5 -105q0 -57 -27 -109t-65.5 -87t-83.5 -63t-76.5 -41t-48.5 -17zM193 176v725l-140 158l140 43v78l-140 157l385 117v-1278l152 -176h-549z " />
<glyph unicode="&#x13f;" horiz-adv-x="1257" d="M1188 442l-23 -442h-1083l123 217v973l-123 213h545l-156 -215v-1096h426l270 350h21zM936 588l-176 188l176 191l174 -191z" />
<glyph unicode="&#x140;" horiz-adv-x="894" d="M193 176v725l-140 158l140 43v78l-140 157l385 117v-1278l152 -176h-549zM584 623l176 190l174 -190l-174 -189z" />
<glyph unicode="&#x141;" horiz-adv-x="1277" d="M1184 0h-1084l123 217v375l-203 -60v127l203 60v471l-123 213h545l-156 -215v-391l269 80v-132l-269 -77v-594h412l285 366h20z" />
<glyph unicode="&#x142;" horiz-adv-x="636" d="M426 176l152 -176h-549l151 176v453l-190 -80v127l190 80v145l-139 158l139 43v78l-139 157l385 117v-594l221 92v-131l-221 -92v-553z" />
<glyph unicode="&#x143;" horiz-adv-x="1548" d="M739 1516h-30l26 264h269zM336 997v-821l176 -176h-438l151 190v953l-198 260h338l849 -1137v961l-176 176h439l-152 -191v-1093l88 -119h-317z" />
<glyph unicode="&#x144;" horiz-adv-x="1277" d="M625 1130h-31l37 265h258zM438 1024v-186q59 92 150.5 141t187.5 49q152 0 229.5 -89t77.5 -239v-524l154 -176h-549l150 174v457q0 52 -3.5 88t-14.5 70.5t-31 55t-53 32.5t-79 12q-128 0 -219 -121v-592l152 -176h-549l152 176v553l-140 158z" />
<glyph unicode="&#x147;" horiz-adv-x="1548" d="M778 1636l183 144h30l-129 -264h-170l-127 264h31zM336 997v-821l176 -176h-438l151 190v953l-198 260h338l849 -1137v961l-176 176h439l-152 -191v-1093l88 -119h-317z" />
<glyph unicode="&#x148;" horiz-adv-x="1277" d="M645 1245l170 150h33l-119 -265h-170l-117 265h29zM438 1024v-186q59 92 150.5 141t187.5 49q152 0 229.5 -89t77.5 -239v-524h2l152 -176h-549l150 174v457q0 52 -3.5 88t-14.5 70.5t-31 55t-53 32.5t-79 12q-128 0 -219 -121v-592l152 -176h-549l152 176v553l-140 158z " />
<glyph unicode="&#x152;" horiz-adv-x="2035" d="M1853 762v-82h-559v-606h367l270 362l23 -4l-23 -432h-1253q-137 0 -253 53t-192 142t-118.5 204.5t-42.5 241.5q0 156 49.5 293t143 242t240.5 166t329 61h1058v-418h-24l-226 344h-348v-567h559zM1026 1327h-252q-83 0 -151 -27t-111 -73t-74 -99.5t-47 -114.5 t-22.5 -109.5t-6.5 -92.5q0 -203 53.5 -368.5t160 -267t247.5 -101.5h203v1253z" />
<glyph unicode="&#x153;" horiz-adv-x="1714" d="M1616 362l29 -12q-28 -74 -68.5 -138t-96 -118.5t-129.5 -86.5t-157 -32q-96 0 -174 44.5t-131 121.5q-149 -166 -385 -166q-104 0 -188 40.5t-136.5 108.5t-80 153.5t-27.5 179.5q0 81 20.5 161t64 154t105.5 131t152.5 91t197.5 34q204 0 322 -158q131 158 336 158 q176 0 280.5 -118.5t104.5 -327.5h-621q0 -6 1 -17.5t1 -17.5q0 -5 -1 -15.5t-1 -15.5q24 -158 102 -233.5t191 -75.5q99 0 183 45t106 110zM1028 635h365q4 166 -45.5 249t-122.5 83q-51 0 -91.5 -31t-62.5 -79.5t-33 -100t-12 -101.5zM508 950q-39 0 -69.5 -13.5t-49 -39 t-31 -54.5t-18.5 -66.5t-8 -67.5t-2 -66q0 -160 34 -294t98.5 -215t147.5 -81q51 0 89 32t57.5 82.5t28 99t8.5 93.5q0 160 -35 294t-100.5 215t-149.5 81z" />
<glyph unicode="&#x154;" horiz-adv-x="1425" d="M616 1516h-30l26 264h269zM1405 0h-414q-9 15 -51 87t-54 92.5t-48.5 82.5t-52.5 88t-46.5 76.5t-50 80t-44.5 66t-46 66.5l-98 -8v-414l151 -217h-569l151 217v969l-151 217h518q48 0 91 -2t105.5 -10.5t113 -23t104.5 -42t90.5 -64.5t60 -94t23.5 -127 q0 -118 -90 -206.5t-228 -139.5l318 -493zM500 1341v-643q75 2 143.5 22.5t123.5 59t87.5 99.5t32.5 137q0 325 -387 325z" />
<glyph unicode="&#x155;" horiz-adv-x="942" d="M440 1130l37 265h258l-264 -265h-31zM911 641h-16q-63 150 -144.5 218.5t-160.5 68.5q-21 0 -38 -2.5t-30.5 -10.5t-24 -14.5t-18 -22.5t-13 -27t-8.5 -35.5t-5 -39.5t-3 -48t-1 -52v-60v-440l190 -176h-588l152 176v670l-140 158h848v-363z" />
<glyph unicode="&#x158;" horiz-adv-x="1425" d="M635 1636l182 144h31l-129 -264h-170l-127 264h31zM1405 0h-414q-9 15 -51 87t-54 92.5t-48.5 82.5t-52.5 88t-46.5 76.5t-50 80t-44.5 66t-46 66.5l-98 -8v-414l151 -217h-569l151 217v969l-151 217h518q48 0 91 -2t105.5 -10.5t113 -23t104.5 -42t90.5 -64.5t60 -94 t23.5 -127q0 -118 -90 -206.5t-228 -139.5l318 -493zM500 1341v-643q75 2 143.5 22.5t123.5 59t87.5 99.5t32.5 137q0 325 -387 325z" />
<glyph unicode="&#x159;" horiz-adv-x="942" d="M326 1395h28l174 -150l170 150h33l-119 -265h-170zM911 641h-16q-63 150 -144.5 218.5t-160.5 68.5q-21 0 -38 -2.5t-30.5 -10.5t-24 -14.5t-18 -22.5t-13 -27t-8.5 -35.5t-5 -39.5t-3 -48t-1 -52v-60v-440l190 -176h-588l152 176v670l-140 158h848v-363z" />
<glyph unicode="&#x15a;" horiz-adv-x="1091" d="M518 1516h-31l27 264h268zM72 549h24q53 -207 184.5 -347.5t290.5 -140.5q90 0 151.5 57.5t61.5 147.5q0 62 -24 112.5t-65 85.5t-94 65.5t-111.5 57t-117 54t-111.5 63t-94 78t-65 104.5t-24 138q0 75 27.5 142t80.5 120.5t139.5 85t196.5 31.5h293l98 31v-443l-24 2 q-50 161 -162.5 252.5t-253.5 91.5q-87 0 -140.5 -49.5t-53.5 -136.5q0 -69 40.5 -125t105 -95t142 -75t155.5 -75.5t142.5 -86.5t105 -117.5t40.5 -158.5q0 -111 -40.5 -196t-111.5 -136t-160.5 -76.5t-193.5 -25.5q-103 0 -219 20t-189 53z" />
<glyph unicode="&#x15b;" horiz-adv-x="841" d="M412 1130h-31l37 265h258zM51 387h17q41 -135 150.5 -232.5t232.5 -97.5q67 0 110 33.5t43 99.5q0 49 -30 84t-78 56.5t-106 41t-115.5 45.5t-105.5 61.5t-78 97t-30 143.5q0 118 95 201.5t247 83.5h226l76 43v-340l-13 2q-55 99 -149 164t-178 65q-64 0 -100 -37 t-36 -98q0 -37 24 -66.5t63.5 -47t90 -36.5t103.5 -35.5t103.5 -43.5t90 -59.5t63.5 -85.5t24 -120q0 -85 -39.5 -151t-101.5 -103.5t-129 -56t-132 -18.5q-85 0 -174.5 12t-144.5 35z" />
<glyph unicode="&#x160;" horiz-adv-x="1091" d="M571 1636l183 144h30l-129 -264h-170l-127 264h31zM72 549h24q53 -207 184.5 -347.5t290.5 -140.5q90 0 151.5 57.5t61.5 147.5q0 62 -24 112.5t-65 85.5t-94 65.5t-111.5 57t-117 54t-111.5 63t-94 78t-65 104.5t-24 138q0 75 27.5 142t80.5 120.5t139.5 85t196.5 31.5 h293l98 31v-443l-24 2q-50 161 -162.5 252.5t-253.5 91.5q-87 0 -140.5 -49.5t-53.5 -136.5q0 -69 40.5 -125t105 -95t142 -75t155.5 -75.5t142.5 -86.5t105 -117.5t40.5 -158.5q0 -111 -40.5 -196t-111.5 -136t-160.5 -76.5t-193.5 -25.5q-103 0 -219 20t-189 53z" />
<glyph unicode="&#x161;" horiz-adv-x="841" d="M440 1245l170 150h33l-119 -265h-170l-116 265h28zM51 387h17q41 -135 150.5 -232.5t232.5 -97.5q67 0 110 33.5t43 99.5q0 49 -30 84t-78 56.5t-106 41t-115.5 45.5t-105.5 61.5t-78 97t-30 143.5q0 118 95 201.5t247 83.5h226l76 43v-340l-13 2q-55 99 -149 164 t-178 65q-64 0 -100 -37t-36 -98q0 -37 24 -66.5t63.5 -47t90 -36.5t103.5 -35.5t103.5 -43.5t90 -59.5t63.5 -85.5t24 -120q0 -85 -39.5 -151t-101.5 -103.5t-129 -56t-132 -18.5q-85 0 -174.5 12t-144.5 35z" />
<glyph unicode="&#x164;" horiz-adv-x="1351" d="M643 1636l182 144h31l-129 -264h-170l-127 264h31zM39 954v449h1235v-449l-17 -2l-264 379h-205v-1114l152 -217h-569l151 217v1112h-205l-262 -377z" />
<glyph unicode="&#x165;" horiz-adv-x="1105" d="M743 1145l-28 20q39 22 53.5 31t40 29t35.5 42t10 50q0 19 -7.5 36t-14.5 25.5t-23.5 24t-20.5 20.5l-79 64l170 174q60 -36 112.5 -93.5t52.5 -105.5q0 -57 -27 -109t-65.5 -87t-83.5 -63t-76.5 -41t-48.5 -17zM156 874v-583q0 -164 73 -240t189 -76q122 0 211 61 t164 189l-25 33q-31 -60 -89 -89.5t-112 -29.5q-93 0 -129.5 52.5t-36.5 197.5v504h349l45 111h-394v290l-381 -290z" />
<glyph unicode="&#x16e;" horiz-adv-x="1562" d="M645 1655q0 83 59 141.5t142 58.5t142 -58.5t59 -141.5t-59 -142t-142 -59t-142 59t-59 142zM715 1655q0 -54 38.5 -92.5t92.5 -38.5t92.5 38.5t38.5 92.5t-38.5 92.5t-92.5 38.5t-92.5 -38.5t-38.5 -92.5zM500 1186v-703q0 -79 11.5 -142t30.5 -106t49 -74t61 -49 t73.5 -28t79 -13t84.5 -3q352 0 352 548v603l-158 184h408l-152 -184v-652q0 -132 -19 -208t-65 -162q-57 -104 -172.5 -166t-269.5 -62q-42 0 -72.5 1t-96 10.5t-114 26.5t-108.5 53t-98.5 85.5t-65.5 129t-27 178.5v735l-149 215h569z" />
<glyph unicode="&#x16f;" horiz-adv-x="1210" d="M391 1300q0 75 53.5 129t128.5 54t129 -54t54 -129t-54 -128.5t-129 -53.5t-128.5 53.5t-53.5 128.5zM449 1300q0 -52 35.5 -88t88.5 -36t89 36t36 88t-36 88.5t-89 36.5q-52 0 -88 -36t-36 -89zM410 1006v-629q0 -66 6 -108t24.5 -79t55 -54t94.5 -17q111 0 194 96v612 l-151 179h397v-838l139 -168l-385 -12v164q-125 -172 -313 -172q-152 0 -229.5 88.5t-77.5 238.5v520l-154 179h400z" />
<glyph unicode="&#x174;" horiz-adv-x="2058" d="M836 1516l127 264h170l129 -264h-31l-182 143l-183 -143h-30zM1497 289l307 936l-176 178h428l-139 -176l-438 -1252h-125l-297 797l-291 -797h-125l-508 1307l-106 121h559l-164 -125l336 -899l20 -76l234 590l-148 393l-102 117h559l-166 -125l318 -899z" />
<glyph unicode="&#x175;" horiz-adv-x="1685" d="M674 1130l106 265h170l109 -265h-33l-160 150l-164 -150h-28zM135 838l-135 166h543l-150 -132l215 -528l25 -70l182 441l-53 123l-135 166h540l-147 -132l213 -528l24 -45l222 573l-148 132h365l-121 -127l-379 -922h-45l-291 659l-291 -659h-45z" />
<glyph unicode="&#x176;" horiz-adv-x="1411" d="M557 1516l127 264h170l129 -264h-31l-182 143l-182 -143h-31zM838 207l172 -207h-611l172 207v368l-364 611l-187 217h658l-174 -217h-2l241 -387l33 -68l268 459l-174 213h521l-211 -193l-342 -559v-444z" />
<glyph unicode="&#x177;" horiz-adv-x="1095" d="M422 1130l117 265h170l118 -265h-32l-170 150l-174 -150h-29zM0 1004h543l-150 -132l215 -528l25 -70l248 598l-150 132h365l-121 -127l-477 -1141l147 -176h-440l180 184l121 276l-371 818z" />
<glyph unicode="&#x178;" horiz-adv-x="1411" d="M354 1700l158 178l158 -178l-158 -180zM831 1700l160 178l156 -178l-156 -180zM838 207l172 -207h-611l172 207v368l-364 611l-187 217h658l-174 -217h-2l241 -387l33 -68l268 459l-174 213h521l-211 -193l-342 -559v-444z" />
<glyph unicode="&#x179;" horiz-adv-x="1368" d="M618 1516h-30l37 264h258zM393 74h582l285 366h16l-23 -440h-1177l-15 25l871 1304h-490l-274 -371h-16l12 465l217 -20h879l14 -29z" />
<glyph unicode="&#x17a;" horiz-adv-x="1038" d="M520 1130h-31l37 265h258zM373 74h370l254 368l-36 -411v-31h-920l616 930h-317l-215 -324v434l176 -36h688z" />
<glyph unicode="&#x17b;" horiz-adv-x="1368" d="M535 1679l145 164l143 -164l-143 -166zM393 74h582l285 366h16l-23 -440h-1177l-15 25l871 1304h-490l-274 -371h-16l12 465l217 -20h879l14 -29z" />
<glyph unicode="&#x17c;" horiz-adv-x="1038" d="M408 1280l145 164l143 -164l-143 -166zM373 74h370l254 368l-36 -411v-31h-920l616 930h-317l-215 -324v434l176 -36h688z" />
<glyph unicode="&#x17d;" horiz-adv-x="1368" d="M700 1636l183 144h30l-129 -264h-170l-127 264h31zM393 74h582l285 366h16l-23 -440h-1177l-15 25l871 1304h-490l-274 -371h-16l12 465l217 -20h879l14 -29z" />
<glyph unicode="&#x17e;" horiz-adv-x="1038" d="M555 1245l170 150h33l-119 -265h-170l-117 265h29zM373 74h370l254 368l-36 -411v-31h-920l616 930h-317l-215 -324v434l176 -36h688z" />
<glyph unicode="&#x192;" horiz-adv-x="1228" d="M1047 1604v-328h-15q-57 116 -123 186t-129 70q-24 0 -41.5 -8.5t-29.5 -28t-19.5 -40.5t-12.5 -58.5t-7.5 -67.5t-5.5 -82l-17 -243h334v-84l-338 -9l-49 -759q-4 -64 -15.5 -125.5t-30.5 -124t-49 -114.5t-69 -92.5t-92.5 -63.5t-116.5 -23h-246v328h15 q57 -116 123 -186t129 -70q24 0 41.5 8t29.5 27.5t19.5 40t12.5 57.5t7.5 68t5.5 83l60 942l-182 -4v101h188l4 57q4 64 15.5 125.5t30.5 124t49 114.5t69 92.5t92.5 63.5t116.5 23h246z" />
<glyph unicode="&#x2c6;" horiz-adv-x="436" d="M18 1130l117 265h170l119 -265h-33l-170 150l-174 -150h-29z" />
<glyph unicode="&#x2c7;" horiz-adv-x="442" d="M221 1245l170 150h33l-119 -265h-170l-117 265h29z" />
<glyph unicode="&#x2d9;" horiz-adv-x="358" d="M35 1280l145 164l144 -164l-144 -166z" />
<glyph unicode="&#x2da;" horiz-adv-x="421" d="M10 1300q0 83 59 142t142 59t142 -59t59 -142t-59 -141.5t-142 -58.5t-142 58.5t-59 141.5zM80 1300q0 -54 38.5 -92.5t92.5 -38.5t92.5 38.5t38.5 92.5t-38.5 93t-92.5 39t-92.5 -39t-38.5 -93z" />
<glyph unicode="&#x2dc;" horiz-adv-x="739" d="M102 1133l129 223q19 -2 124.5 -14.5t160.5 -12.5q21 0 41.5 17.5t48.5 52.5l31 -13l-121 -210q-15 1 -129.5 13.5t-173.5 12.5q-18 0 -37.5 -23t-44.5 -65z" />
<glyph unicode="&#x39b;" horiz-adv-x="1398" d="M610 1120l-346 -944l174 -176h-428l144 182l489 1262h98l541 -1323l107 -121h-560l164 125l-356 899z" />
<glyph unicode="&#x3bc;" horiz-adv-x="1210" d="M784 -12v164q-125 -172 -313 -172q-38 0 -74 14l13 -57v-375h-398l152 176v1089l-154 179h400v-629q0 -66 6 -108t24.5 -79t55 -54t94.5 -17q111 0 194 96v612l-151 179h397v-838l139 -168z" />
<glyph unicode="&#x3c0;" horiz-adv-x="1308" d="M1204 172l21 -25q-45 -60 -80.5 -94t-86 -55t-114.5 -21q-213 0 -213 256v541h-264v-774h-361l173 109l18 665h-18q-77 0 -123.5 -30t-89.5 -113h-15l12 61q22 104 41.5 161t52 93t74.5 47t115 11h823v-230h-192v-500q0 -163 94 -163q79 0 133 61z" />
<glyph unicode="&#x1e80;" horiz-adv-x="2058" d="M1049 1516l-265 264h269l26 -264h-30zM1497 289l307 936l-176 178h428l-139 -176l-438 -1252h-125l-297 797l-291 -797h-125l-508 1307l-106 121h559l-164 -125l336 -899l20 -76l234 590l-148 393l-102 117h559l-166 -125l318 -899z" />
<glyph unicode="&#x1e81;" horiz-adv-x="1685" d="M944 1130l-264 265h258l37 -265h-31zM135 838l-135 166h543l-150 -132l215 -528l25 -70l182 441l-53 123l-135 166h540l-147 -132l213 -528l24 -45l222 573l-148 132h365l-121 -127l-379 -922h-45l-291 659l-291 -659h-45z" />
<glyph unicode="&#x1e82;" horiz-adv-x="2058" d="M1042 1516h-30l26 264h269zM1497 289l307 936l-176 178h428l-139 -176l-438 -1252h-125l-297 797l-291 -797h-125l-508 1307l-106 121h559l-164 -125l336 -899l20 -76l234 590l-148 393l-102 117h559l-166 -125l318 -899z" />
<glyph unicode="&#x1e83;" horiz-adv-x="1685" d="M850 1130h-31l37 265h258zM135 838l-135 166h543l-150 -132l215 -528l25 -70l182 441l-53 123l-135 166h540l-147 -132l213 -528l24 -45l222 573l-148 132h365l-121 -127l-379 -922h-45l-291 659l-291 -659h-45z" />
<glyph unicode="&#x1e84;" horiz-adv-x="2058" d="M641 1698l160 178l155 -178l-155 -180zM1120 1698l160 178l156 -178l-156 -180zM1497 289l307 936l-176 178h428l-139 -176l-438 -1252h-125l-297 797l-291 -797h-125l-508 1307l-106 121h559l-164 -125l336 -899l20 -76l234 590l-148 393l-102 117h559l-166 -125 l318 -899z" />
<glyph unicode="&#x1e85;" horiz-adv-x="1685" d="M555 1274l139 156l137 -156l-137 -158zM975 1274l139 156l137 -156l-137 -158zM135 838l-135 166h543l-150 -132l215 -528l25 -70l182 441l-53 123l-135 166h540l-147 -132l213 -528l24 -45l222 573l-148 132h365l-121 -127l-379 -922h-45l-291 659l-291 -659h-45z" />
<glyph unicode="&#x1ef2;" horiz-adv-x="1411" d="M768 1516l-264 264h268l27 -264h-31zM838 207l172 -207h-611l172 207v368l-364 611l-187 217h658l-174 -217h-2l241 -387l33 -68l268 459l-174 213h521l-211 -193l-342 -559v-444z" />
<glyph unicode="&#x1ef3;" horiz-adv-x="1095" d="M655 1130h-30l-265 265h258zM0 1004h543l-150 -132l215 -528l25 -70l248 598l-150 132h365l-121 -127l-477 -1141l147 -176h-440l180 184l121 276l-371 818z" />
<glyph unicode="&#x2000;" horiz-adv-x="949" />
<glyph unicode="&#x2001;" horiz-adv-x="1898" />
<glyph unicode="&#x2002;" horiz-adv-x="949" />
<glyph unicode="&#x2003;" horiz-adv-x="1898" />
<glyph unicode="&#x2004;" horiz-adv-x="632" />
<glyph unicode="&#x2005;" horiz-adv-x="474" />
<glyph unicode="&#x2006;" horiz-adv-x="316" />
<glyph unicode="&#x2007;" horiz-adv-x="316" />
<glyph unicode="&#x2008;" horiz-adv-x="237" />
<glyph unicode="&#x2009;" horiz-adv-x="409" />
<glyph unicode="&#x200a;" horiz-adv-x="105" />
<glyph unicode="&#x2010;" horiz-adv-x="602" d="M563 496h-502v163h502v-163z" />
<glyph unicode="&#x2011;" horiz-adv-x="602" d="M563 496h-502v163h502v-163z" />
<glyph unicode="&#x2012;" horiz-adv-x="602" d="M563 496h-502v163h502v-163z" />
<glyph unicode="&#x2013;" horiz-adv-x="1024" d="M1024 494h-1024v143h1024v-143z" />
<glyph unicode="&#x2014;" horiz-adv-x="1843" d="M1843 494h-1843v143h1843v-143z" />
<glyph unicode="&#x2018;" horiz-adv-x="507" d="M362 1456l29 -20q-133 -108 -133 -213q0 -13 3 -25t6 -19.5t11 -18t11.5 -15t14 -15.5t13.5 -14l80 -63l-170 -174q-61 37 -113.5 93.5t-52.5 104.5q0 190 292 373z" />
<glyph unicode="&#x2019;" horiz-adv-x="507" d="M96 879l-28 20q133 108 133 213q0 15 -3 27.5t-11.5 25.5t-12 18t-17.5 19.5t-16 16.5l-80 63l170 174q61 -37 113.5 -94t52.5 -105q0 -189 -291 -372q-7 -4 -10 -6z" />
<glyph unicode="&#x201a;" horiz-adv-x="464" d="M96 -252l-28 21q133 108 133 213q0 15 -3 27.5t-11 25t-12.5 18t-17.5 19t-16 16.5l-80 64l170 174q61 -37 113.5 -94t52.5 -105q0 -190 -292 -373z" />
<glyph unicode="&#x201c;" horiz-adv-x="870" d="M362 1456l29 -20q-133 -108 -133 -213q0 -13 3 -25t6 -19.5t11 -18t11.5 -15t14 -15.5t13.5 -14l80 -63l-170 -174q-61 37 -113.5 93.5t-52.5 104.5q0 190 292 373zM772 1456l29 -20q-133 -108 -133 -213q0 -13 3 -25t6 -19.5t11 -18t11.5 -15t14 -15.5t13.5 -14l80 -63 l-170 -174q-61 37 -113.5 93.5t-52.5 104.5q0 190 292 373z" />
<glyph unicode="&#x201d;" horiz-adv-x="870" d="M96 879l-28 20q133 108 133 213q0 15 -3 27.5t-11.5 25.5t-12 18t-17.5 19.5t-16 16.5l-80 63l170 174q61 -37 113.5 -94t52.5 -105q0 -189 -291 -372q-7 -4 -10 -6zM506 879l-29 20q133 108 133 213q0 13 -3 25t-6 19.5t-11 18t-11.5 15t-14 15.5t-13.5 14l-80 63 l170 174q61 -37 113.5 -94t52.5 -105q0 -189 -291 -372q-7 -4 -10 -6z" />
<glyph unicode="&#x201e;" horiz-adv-x="874" d="M96 -250l-28 21q133 108 133 213q0 15 -3 27.5t-11 25t-12.5 18t-17.5 19t-16 16.5l-80 64l170 174q61 -37 113.5 -94t52.5 -105q0 -190 -292 -373zM506 -250l-29 21q133 108 133 213q0 15 -2.5 27.5t-11 25.5t-12 17.5t-18 19t-15.5 16.5l-80 64l170 174 q61 -37 113.5 -94t52.5 -105q0 -190 -292 -373z" />
<glyph unicode="&#x2020;" horiz-adv-x="798" d="M20 770v234h312l-56 430h246l-55 -430h135l176 151v-233h-256v-181l-108 -905h-29l-109 905v181h-79z" />
<glyph unicode="&#x2021;" horiz-adv-x="798" d="M602 369l176 151v-233h-311l55 -430h-246l56 430h-135l-177 -152v234h312v553h-135l-177 -152v234h312l-56 430h246l-55 -430h135l176 151v-233h-311v-553h135z" />
<glyph unicode="&#x2022;" horiz-adv-x="710" d="M92 539l264 284l262 -284l-262 -283z" />
<glyph unicode="&#x2026;" horiz-adv-x="1562" d="M51 135l176 189l174 -189l-174 -188zM606 135l176 189l174 -189l-174 -188zM1161 135l176 189l174 -189l-174 -188z" />
<glyph unicode="&#x202f;" horiz-adv-x="379" />
<glyph unicode="&#x2030;" horiz-adv-x="2316" d="M1315 1473l-967 -1541h-102l964 1541h105zM729 1057q0 -61 -14.5 -121t-45.5 -115.5t-74 -98t-104.5 -68t-132.5 -25.5q-90 0 -157.5 52.5t-100 132.5t-32.5 173q0 61 14.5 121t44.5 115.5t72.5 98t104 68t132.5 25.5q69 0 125.5 -30.5t92.5 -81t55.5 -114.5t19.5 -132z M365 1358q-123 0 -123 -232q0 -181 55 -310.5t139 -129.5q33 0 58.5 24.5t38.5 62.5t19.5 75t6.5 70q0 181 -55.5 310.5t-138.5 129.5zM1487 408q0 -61 -14.5 -121t-45.5 -115.5t-74 -98t-104.5 -68t-132.5 -25.5q-90 0 -158 52.5t-100.5 133t-32.5 172.5q0 61 14.5 121 t45 115.5t73 98t103 68t131.5 25.5q92 0 161 -52.5t101.5 -132.5t32.5 -173zM2249 408q0 -77 -23.5 -151.5t-68 -137t-117 -101t-160.5 -38.5q-90 0 -158 52.5t-100.5 133t-32.5 172.5q0 61 14.5 121t45 115.5t73 98t103 68t131.5 25.5q69 0 125.5 -30.5t92.5 -81 t55.5 -114.5t19.5 -132zM1122 709q-125 0 -125 -232q0 -180 56 -310t139 -130q33 0 59 24.5t39.5 62t20 75t6.5 69.5q0 180 -56 310.5t-139 130.5zM1886 709q-125 0 -125 -232q0 -181 55.5 -310.5t139.5 -129.5q33 0 59 24.5t39.5 62t20 75t6.5 69.5q0 180 -56 310.5 t-139 130.5z" />
<glyph unicode="&#x2039;" horiz-adv-x="606" d="M139 504h226l229 -447l-21 -20l-548 467l548 467l21 -21z" />
<glyph unicode="&#x203a;" horiz-adv-x="606" d="M467 504h-225l-230 446l21 21l549 -467l-549 -467l-21 20z" />
<glyph unicode="&#x2044;" horiz-adv-x="962" d="M1030 1473l-926 -1541h-96l924 1541h98z" />
<glyph unicode="&#x205f;" horiz-adv-x="474" />
<glyph unicode="&#x2070;" horiz-adv-x="837" d="M756 1235q0 -78 -24.5 -154.5t-69.5 -141t-119 -104.5t-164 -40q-92 0 -161.5 54.5t-102.5 137t-33 178.5q0 62 14.5 124t45.5 119t74.5 101t106 70.5t134.5 26.5q93 0 163 -54.5t103 -137.5t33 -179zM385 1546q-127 0 -127 -237q0 -122 25 -225.5t71 -166.5t103 -63 q34 0 60 25.5t40 64t20.5 77t6.5 71.5q0 121 -25.5 225t-71.5 166.5t-102 62.5z" />
<glyph unicode="&#x2074;" horiz-adv-x="792" d="M565 1124h187v-59h-187v-107l137 -86h-436l127 86v109h-352l348 582h209l-410 -523h203v105l174 231v-338z" />
<glyph unicode="&#x2075;" horiz-adv-x="696" d="M164 1335l57 23q71 28 144 28q111 0 197.5 -66t86.5 -173q0 -135 -105 -205t-290 -70h-174q4 136 4 224h10q4 -7 11 -19.5t30.5 -44t49.5 -55.5t66.5 -44t82.5 -20q72 0 106.5 38t34.5 145q0 29 -2 52.5t-7 53t-16.5 51.5t-29 41.5t-45.5 30t-64 10.5q-83 0 -164 -61 l-4 -23h-49l58 369l4 27h409l84 65l-14 -65l-39 -156h-401z" />
<glyph unicode="&#x2076;" horiz-adv-x="669" d="M555 1673l8 -33q-304 -111 -373 -342q98 50 156 50q108 0 181 -61t73 -169q0 -97 -89 -176.5t-232 -79.5q-126 0 -206.5 70.5t-80.5 189.5q0 90 44 174t122 153.5t178 125.5t219 98zM178 1253q-12 -49 -12 -125q0 -105 39 -164t102 -59q34 0 59.5 20t38.5 51t19 60t6 54 q0 94 -48.5 149t-105.5 55q-7 0 -13.5 -0.5t-13.5 -3t-12 -3.5t-12 -5t-10.5 -5.5t-10.5 -6t-9 -5.5t-9 -7z" />
<glyph unicode="&#x2077;" horiz-adv-x="741" d="M76 1393h-4v249h598l-465 -794l-58 20l345 619h-347z" />
<glyph unicode="&#x2078;" horiz-adv-x="745" d="M387 1677q53 0 105 -16.5t90.5 -53t38.5 -85.5q0 -57 -36 -97t-100 -77q38 -23 57 -35.5t49.5 -37t45.5 -46t27 -53.5t12 -68q0 -53 -23.5 -96t-60 -70t-82 -46t-87 -26.5t-77.5 -7.5q-122 0 -200 53.5t-78 137.5q0 40 14.5 73.5t41.5 57.5t51 40t56 34q10 5 15 8 q-74 57 -95 81q-49 54 -49 126q0 67 44.5 115t107.5 68.5t133 20.5zM453 1362q71 48 71 143q0 68 -44.5 101.5t-104.5 33.5t-102 -32t-42 -90q0 -19 10 -36.5t23 -29.5t39.5 -25.5t44 -21.5t53 -22t52.5 -21zM287 1249q-51 -30 -87 -79.5t-36 -110.5q0 -67 46.5 -113.5 t137.5 -46.5q82 0 134.5 37.5t52.5 107.5q0 24 -6.5 44.5t-15 35.5t-26 29.5t-31 23.5t-38.5 20.5t-40.5 17.5t-45.5 17t-45 17z" />
<glyph unicode="&#x2079;" d="M174 858l-8 33q313 110 385 342q-100 -49 -162 -49q-111 0 -185.5 60.5t-74.5 168.5q0 97 91 176.5t239 79.5q130 0 213.5 -70.5t83.5 -189.5q0 -90 -45.5 -174t-126.5 -153.5t-184 -125.5t-226 -98zM563 1278q12 49 12 125q0 105 -40 164t-105 59q-34 0 -60.5 -20 t-40 -50.5t-20 -59.5t-6.5 -54q0 -94 49.5 -149.5t108.5 -55.5q11 0 22 2.5t18.5 4.5t18.5 8t15 8t15.5 9.5t12.5 8.5z" />
<glyph unicode="&#x20ac;" horiz-adv-x="1280" d="M1194 395l25 -18q-25 -59 -57 -112.5t-78.5 -106.5t-100.5 -91.5t-125 -62.5t-149 -24q-211 0 -335.5 131.5t-146.5 359.5l-211 -6v98h207v2q0 64 13 137l-191 -6v101h215q29 88 80.5 163t124 133.5t172 92t215.5 33.5h256v-363h-12q-29 62 -59.5 109.5t-73 90.5 t-98.5 66t-122 23q-131 0 -198 -93.5t-80 -252.5h328v-80l-330 -10q0 -70 10 -142h291v-80l-272 -8q35 -136 116 -213.5t207 -77.5q248 0 379 207z" />
<glyph unicode="&#x2122;" horiz-adv-x="1933" d="M92 1395v252h688v-252h-8l-147 211h-113v-613l84 -121h-317l81 121v611h-110l-148 -209h-10zM1012 983l90 -111h-232l86 111v545l-96 119h225l271 -564l246 564h237l-84 -93v-561l86 -121h-328l95 121v541l-295 -674h-10l-291 582v-459z" />
<glyph unicode="&#x215b;" horiz-adv-x="1568" d="M1356 1473l-926 -1541h-96l923 1541h99zM129 1114l-2 2l313 291v-713l138 -86h-437l127 86v467zM1288 795q-70 0 -133 -21t-107 -69t-44 -115q0 -35 9 -63t31.5 -53.5t38.5 -39.5t51 -41q8 -7 13 -10q-82 -47 -109 -71q-69 -59 -69 -142q0 -84 78 -137t200 -53 q36 0 77.5 7.5t87 26t82 45.5t60 70t23.5 96q0 36 -12 68t-27 53.5t-45.5 46t-49.5 37t-57 35.5q64 37 100 77t36 97q0 49 -38.5 86t-90.5 53.5t-105 16.5zM1354 479q-16 7 -52 21.5t-53.5 21.5t-44 21.5t-39 26t-22.5 29t-10 36.5q0 58 41.5 90.5t101.5 32.5t104.5 -33.5 t44.5 -101.5q0 -96 -71 -144zM1188 367q15 -6 45 -17t45.5 -17t40.5 -17.5t38.5 -20.5t31 -23.5t26 -29.5t15 -35.5t6.5 -44.5q0 -71 -52.5 -108.5t-134.5 -37.5q-91 0 -137.5 46.5t-46.5 113.5q0 61 36 111t87 80z" />
<glyph unicode="&#x215c;" horiz-adv-x="1613" d="M1346 1473l-926 -1541h-96l923 1541h99zM98 606l-10 39q60 0 121.5 9.5t121.5 29t98 56t38 85.5q0 55 -34.5 93t-84 56.5t-123.5 31.5q-6 -1 -21 -4.5t-24 -4.5l-4 23l49 14q127 43 176 73q86 52 86 120q0 63 -48 99t-128 36q-38 0 -68.5 -14t-54 -43t-38.5 -55t-35 -68 h-9v221h226q74 0 135 -8t111 -26t78 -49.5t28 -74.5q0 -63 -78.5 -111t-245.5 -92q61 -4 114 -14t106.5 -28.5t84.5 -52t31 -77.5q0 -53 -47.5 -99t-118.5 -75.5t-155 -50.5t-155.5 -30t-121.5 -9zM1276 795q-70 0 -133 -21t-107.5 -69t-44.5 -115q0 -46 20 -83.5t43.5 -59 t65.5 -53.5q10 -7 15 -11q-82 -47 -109 -70q-70 -60 -70 -143q0 -84 78.5 -137t200.5 -53q36 0 77.5 7.5t87 26t82 45.5t60 70t23.5 96q0 36 -12 68t-27 53.5t-45.5 46t-49.5 37t-57 35.5q64 36 99.5 76t35.5 98q0 72 -74 114t-159 42zM1341 479q-16 7 -52 21.5t-53.5 21.5 t-44 21.5t-39 26t-22.5 29t-10 36.5q0 58 42 90.5t102 32.5t104.5 -33.5t44.5 -101.5q0 -96 -72 -144zM1176 367q14 -6 44.5 -17t45.5 -17t40.5 -17.5t39 -20.5t31 -23.5t26 -29.5t14.5 -35.5t6 -44.5q0 -71 -52 -108.5t-134 -37.5q-91 0 -137.5 46.5t-46.5 113.5 q0 61 36 111t87 80z" />
<glyph unicode="&#x215d;" horiz-adv-x="1570" d="M1321 1473l-926 -1541h-96l924 1541h98zM164 1092l57 22q74 29 144 29q111 0 197.5 -66.5t86.5 -173.5q0 -135 -105 -204.5t-290 -69.5h-174q4 135 4 223h10q4 -7 11 -19.5t30.5 -44t49.5 -55.5t66.5 -43.5t82.5 -19.5q72 0 106.5 37.5t34.5 144.5q0 35 -2.5 63t-12.5 63 t-26.5 58.5t-48 39.5t-74.5 16q-82 0 -164 -62l-4 -22h-49l58 368l4 27h409l84 65l-14 -65l-39 -156h-401zM1309 465q38 -23 57 -35.5t49 -37t45 -46t27 -53.5t12 -68q0 -53 -23.5 -96t-60 -70t-82 -45.5t-87 -26t-77.5 -7.5q-122 0 -200 53t-78 137q0 40 14.5 73.5 t41.5 57.5t51 40t56 34q10 5 15 8q-5 3 -13 10q-45 35 -67 54.5t-42.5 58t-20.5 84.5q0 67 44 115t107 69t133 21q53 0 105 -16.5t90.5 -53.5t38.5 -86q0 -58 -35.5 -98t-99.5 -76zM1055 635q0 -19 10 -36.5t22.5 -29t39 -26t44 -21.5t53.5 -21.5t52 -21.5q72 48 72 144 q0 68 -45 101.5t-105 33.5t-101.5 -32.5t-41.5 -90.5zM1171 16q82 0 134.5 37.5t52.5 108.5q0 24 -6.5 44.5t-15 35.5t-26 29.5t-31 23.5t-38.5 20.5t-40.5 17.5t-45.5 17t-45 17q-51 -30 -87 -80t-36 -111q0 -67 46.5 -113.5t137.5 -46.5z" />
<glyph unicode="&#x215e;" horiz-adv-x="1576" d="M1257 1473l-925 -1541h-96l923 1541h98zM76 1153h-4v250h598l-465 -795l-58 21l345 618h-347zM1196 795q-70 0 -133 -21t-107.5 -69t-44.5 -115q0 -46 20 -83.5t43.5 -59t65.5 -53.5q10 -7 15 -11q-82 -47 -109 -71q-69 -59 -69 -142q0 -84 78 -137t200 -53 q36 0 77.5 7.5t87 26t82 45.5t60 70t23.5 96q0 36 -12 68t-27 53.5t-45.5 46t-49.5 37t-57 35.5q64 37 100 77t36 97q0 49 -38.5 86t-90.5 53.5t-105 16.5zM1262 479q-17 7 -52.5 21t-53 22t-44 21.5t-39.5 25.5t-23 29.5t-10 36.5q0 58 42 90.5t102 32.5t104.5 -33.5 t44.5 -101.5q0 -96 -71 -144zM1096 367q14 -6 44.5 -17t45.5 -17t40.5 -17.5t39 -20.5t31 -23.5t26 -29.5t14.5 -35.5t6 -44.5q0 -71 -52 -108.5t-134 -37.5q-91 0 -137.5 46.5t-46.5 113.5q0 61 36 111t87 80z" />
<glyph unicode="&#x2202;" horiz-adv-x="1060" d="M156 1440h264q110 0 204.5 -47t159.5 -123.5t111.5 -176t68 -203.5t21.5 -206q0 -172 -40.5 -308.5t-112.5 -224.5t-168.5 -134t-210.5 -46q-181 0 -286.5 125t-105.5 359q0 93 27 178t79.5 154.5t138 111t192.5 41.5q134 0 256 -135q-16 288 -101.5 426.5t-210.5 138.5 q-149 0 -272 -162h-14v232zM496 39q82 0 144 97t91 235t29 286q0 57 -2 84q-23 46 -68 79.5t-87.5 47t-76.5 13.5q-100 0 -151 -124.5t-51 -338.5q0 -71 10 -136.5t29.5 -121t54 -88.5t78.5 -33z" />
<glyph unicode="&#x2205;" horiz-adv-x="1249" d="M1167 981l-145 -139q125 -147 125 -340q0 -106 -41 -203t-111 -167t-167 -111t-203 -41q-206 0 -355 139l-147 -142l-41 46l145 139q-125 147 -125 340q0 142 70 262.5t190.5 190t262.5 69.5q205 0 354 -139l147 141zM283 215l643 619q-127 114 -301 114 q-186 0 -316.5 -130t-130.5 -316q0 -163 105 -287zM967 788l-643 -618q128 -115 301 -115q186 0 316 130.5t130 316.5q0 163 -104 286z" />
<glyph unicode="&#x220f;" horiz-adv-x="1503" d="M1270 -129l151 -217h-559l152 217v1472h-525v-1472l152 -217h-559l151 217v1341l-151 218h1339l-151 -218v-1341z" />
<glyph unicode="&#x2211;" horiz-adv-x="1318" d="M1217 -334h-1129l528 776l-534 988h1132v-431h-24l-225 357h-494l395 -731l-504 -754h695l160 326h30z" />
<glyph unicode="&#x2212;" horiz-adv-x="913" d="M846 494h-778v143h778v-143z" />
<glyph unicode="&#x221a;" horiz-adv-x="1079" d="M207 733l-207 141l348 195l332 -854l276 1514h123l-446 -1932h-29z" />
<glyph unicode="&#x221e;" horiz-adv-x="1138" d="M1057 608q0 -55 -15 -107t-44 -96t-77.5 -71t-109.5 -27q-20 0 -38.5 2t-36 9t-29 10.5t-28.5 17t-24 17.5t-24.5 22.5t-21 22t-23 26.5t-21.5 25q-24 -36 -42 -59t-49 -50.5t-72 -41t-93 -13.5q-98 0 -162.5 79t-64.5 191q0 38 9 79.5t31.5 86t55 79t84.5 57t115 22.5 q101 0 163.5 -43.5t121.5 -130.5q43 67 91 104t117 37q59 0 103 -40t64 -95t20 -113zM680 680q7 -15 25 -56t26 -57.5t25.5 -46t31 -42t34.5 -23.5t44 -11q68 0 107 44.5t39 107.5q0 64 -40 112t-122 48q-115 0 -170 -76zM545 504q-47 109 -66 139q-55 86 -150 95 q-13 1 -28 1q-174 0 -174 -172q0 -82 55.5 -127t134.5 -45q76 0 136 30t92 79z" />
<glyph unicode="&#x222b;" horiz-adv-x="901" d="M932 1276h-14q-57 116 -123 186t-129 70q-47 0 -74.5 -36.5t-36.5 -97.5t-6 -151l45 -1095q4 -95 -18 -189t-66.5 -174t-120 -130t-168.5 -50h-246v328h15q57 -116 123 -186t129 -70q69 0 95.5 72.5t20.5 211.5l-45 1096q-4 95 18 189t66.5 174t120 130t168.5 50h246 v-328z" />
<glyph unicode="&#x2248;" horiz-adv-x="923" d="M711 784l90 70l30 -12l-120 -205l-508 27l-82 -89l-29 19l129 217zM711 432l90 70l30 -13l-120 -204l-508 26l-82 -88l-29 19l129 217z" />
<glyph unicode="&#x2260;" horiz-adv-x="929" d="M725 829h147v-147h-249l-189 -270h438v-148h-540l-150 -213h-90l150 213h-150v148h252l188 270h-440v147h543l147 211h90z" />
<glyph unicode="&#x2264;" horiz-adv-x="1081" d="M104 776l883 332v-147l-579 -236l579 -297v-147l-883 348v147zM989 195v-144h-897v144h897z" />
<glyph unicode="&#x2265;" horiz-adv-x="1081" d="M94 281v147l580 297l-580 236v147l883 -332v-147zM989 51h-897v144h897v-144z" />
<glyph unicode="&#x25ca;" horiz-adv-x="1286" d="M1204 614l-561 -591l-561 591l561 592zM227 614l416 -448l418 448l-418 447z" />
<glyph unicode="&#x25fc;" horiz-adv-x="1003" d="M0 1004h1004v-1004h-1004v1004z" />
<glyph unicode="&#x2607;" horiz-adv-x="868" d="M188 -74h-8l211 514h-309l608 695h8l-211 -514h310z" />
<glyph unicode="&#x261d;" horiz-adv-x="1228" d="M264 315h55q4 42 7 56q0 1 3 17t5 25t5.5 22t6.5 18.5t6 3.5l54 -6q-3 10 -9.5 34.5t-9.5 35.5t-9.5 32t-12 35t-14 33.5t-17.5 37.5q-26 50 -46.5 128.5t-27.5 123.5q-35 241 -35 285q0 35 8 75t28.5 74.5t47.5 34.5q33 0 50.5 -29.5t16.5 -66t-3 -67.5q9 13 29.5 23.5 t37.5 10.5q33 0 62 -23.5t37 -66.5q16 23 41 23q11 0 23.5 -5t18.5 -11l7 -5q6 3 6 41q1 17 2 60.5t2 60.5q4 50 24.5 99t49.5 49q52 0 89.5 -80.5t43.5 -190.5t5 -145t-7 -88l-17 -127q27 -20 67 -76.5t40 -93.5q0 -41 -14 -92.5t-33 -79.5q-18 -26 -20.5 -34.5t-0.5 -31.5 v-61q0 -1 3.5 -2t9.5 -3.5t10 -5.5q15 -12 12 -36l-2 -25l35 -6q3 0 8 -1t9 -1.5l8 -1t6.5 -2.5t3.5 -4q3 -8 3.5 -18.5t-0.5 -26t-1 -21.5q0 -80 -35 -72q-27 6 -297 15t-299 6q-94 -9 -100 47q-3 32 1.5 66t22.5 34zM721 1421q-25 0 -39 -115q-1 -8 -2 -12q-8 -70 -8 -108 q0 -21 -1 -55.5t-1 -45.5q0 -8 1 -27t1 -35.5t-2 -29.5l-8 -82q5 0 38 2.5t53.5 -3.5t32.5 -25q10 40 14.5 68t5.5 50t1 48.5v64.5q3 26 0 61t-2.5 37t-5.5 29t-8 37q-10 53 -30 97t-40 44zM733 868l-65 -8q8 -29 1.5 -67.5t-16.5 -61.5q10 -7 30 -17t35 -18t17 -10 q3 -5 -3.5 -19.5t-12.5 -15.5q-6 -2 -43 13.5t-41 21.5q-3 -6 -9 -11t-11 -7.5t-5 -3.5t-0.5 -11.5t0 -19.5t1 -23t3.5 -25.5t8 -23.5t13.5 -21t19.5 -14l-24 -34q-32 12 -56 66.5t-14 98.5q-17 8 -34 35t-17 49q-5 -9 -9 -12.5t-5.5 -4t-8.5 1t-10 1.5q-14 2 -36 13.5 t-31 21.5q-8 9 -18.5 43t-12.5 49l-4 68q-12 3 -28.5 31.5t-20.5 56.5q-3 17 -3.5 42t0.5 55t1 34q0 9 0.5 45t0 54t-1.5 44t-4.5 37.5t-9.5 11.5q-15 0 -30 -37t-13 -67q4 -77 15 -146q30 -188 36 -211q2 -8 7 -43t13.5 -68t22.5 -56q27 -44 63 -135t36 -128l356 -63 q-2 58 21 125q2 5 17.5 35.5t27.5 62t12 55.5q0 13 -1 23t-2 15.5t-4.5 11.5t-5 8t-7 8t-7.5 8l-104 113q-2 2 -7.5 9.5t-10.5 11.5t-11 3zM442 1204q-32 0 -54.5 -18.5t-22.5 -46.5q0 -87 4 -111l12 -41q3 6 12.5 8t18.5 -5t10 -23q1 -9 3.5 -44t3 -48.5t-0.5 -32.5 q-3 -14 11 -41t26 -27q9 0 17 12.5t13.5 40t2.5 62.5q-3 44 2.5 104.5t5.5 77.5q0 26 -2 45.5t-8 42t-19.5 34.5t-34.5 11zM553 1110l-6 -16q-4 -25 -4 -168v-72q1 -3 3.5 -42t11.5 -73t28 -34q12 0 20 10t11.5 28t4.5 34t1.5 37.5t1.5 29.5q8 82 8 147v51q0 14 -8 43 q0 2 -1.5 8.5t-2.5 9t-2.5 8t-3 8t-3.5 7t-5 6.5t-6 4.5t-7.5 3.5t-9.5 1q-6 0 -9.5 -2t-5.5 -4.5t-7 -10.5t-9 -14zM379 401q-1 -10 -3 -27.5t-3 -32t0 -26.5q41 -4 229.5 -17t202.5 -13q9 0 37 14q9 5 15 22q1 7 -3 7q-5 -1 -233 36t-242 37z" />
<glyph unicode="&#x2620;" horiz-adv-x="1239" d="M334 20v213q0 23 -16.5 31t-38.5 7.5t-49.5 13.5t-43.5 47q-23 31 -40 72.5t-24.5 73t-17.5 83.5q-15 185 41 334.5t174 235.5t277 86q541 0 541 -656q0 -59 -12.5 -103t-33 -68t-45 -42t-49 -31t-45 -28.5t-33 -41.5t-12.5 -63v-131l-82 -16v164q0 65 10 85.5t56 49.5 t75 58t56 69l-16 16q-54 37 -93 74q-45 -25 -88 -25q-60 0 -89.5 46.5t-41.5 134.5q0 25 37 30q-115 139 -266 379l-10 17q-12 0 -56 -33q-49 -35 -91.5 -96t-71.5 -133.5t-40 -153.5t-1.5 -153.5t49 -135.5t106.5 -98q18 -9 23.5 -12t16 -10t12.5 -8.5t7.5 -9t5 -10 t1.5 -13t1 -17t-1 -23v-28.5v-99h49v-147l-49 -49l-33 49l8 78zM629 1151h-66q160 -261 283 -406q62 5 90 5q53 0 53 -58q0 -36 -18 -76q22 -20 67 -55q17 61 11 128t-24.5 132.5t-57 125t-86.5 105t-114 72.5t-138 27zM563 692q-29 -76 -74.5 -111.5t-121.5 -35.5 q-56 0 -85.5 45t-29.5 119q0 32 33 32q41 0 122.5 -8t122.5 -8q15 0 23 -5.5t9 -11t1 -16.5zM625 604q33 -25 37 -43q0 -56 16 -126.5t16 -86.5q-45 -39 -92 -39q-26 0 -43.5 13.5t-17.5 35.5q0 16 6.5 38l19.5 66t23 99q10 18 35 43zM793 86v-131l-33 -33l-49 33v131h82z M678 70v-131l-33 -33l-33 33v131h66zM580 53l-17 -164l-33 -49l-32 49v164h82z" />
<glyph unicode="&#x2661;" horiz-adv-x="1714" d="M856 -156l-29 35q-49 66 -117.5 132.5t-134.5 119.5t-136.5 108.5t-129 108.5t-106 108.5t-74.5 120.5t-27 134q0 94 27.5 165.5t68 112t94.5 66t98.5 33.5t88.5 8q175 0 352 -205q11 -12 25 -12t25 12q177 205 352 205q44 0 88.5 -8t98.5 -33.5t94.5 -66t68 -112 t27.5 -165.5q0 -69 -27 -134t-74.5 -120.5t-106 -108.5t-129 -108.5t-136.5 -108.5t-134.5 -119.5t-117.5 -132.5zM856 772l-25 33q-179 235 -358 235q-34 0 -70.5 -7t-81 -28.5t-78 -55t-56.5 -93t-23 -135.5q0 -75 33 -145.5t85 -125.5t125 -117t144 -115t152 -126 t139 -143q14 -14 28 0q58 70 139 143t152 126t144 115t125 117t85 125.5t33 145.5q0 76 -23 135.5t-56.5 93t-77.5 55t-80 28.5t-70 7q-101 0 -188.5 -62.5t-171.5 -172.5zM856 465q-23 0 -38 22.5t-15 59.5q0 23 11.5 56t26 62.5t15.5 34.5q2 -5 16.5 -34.5t26.5 -62.5 t12 -56q0 -36 -15.5 -59t-39.5 -23z" />
<glyph unicode="&#x2665;" horiz-adv-x="1712" d="M1233 1096q43 0 88.5 -9.5t98.5 -36.5t94 -68t68.5 -111.5t27.5 -159.5q0 -83 -40 -161.5t-102.5 -140t-146.5 -131.5t-164 -131t-163.5 -144t-137.5 -165q-54 82 -137.5 165t-163.5 144t-164 131t-146.5 131.5t-102.5 140t-40 161.5q0 89 27.5 159.5t68.5 111.5t94 68 t98.5 36.5t88.5 9.5q203 0 377 -256q174 256 377 256zM856 467q30 0 52 28t22 78q0 33 -37 114.5t-37 82.5q-2 -6 -21 -47t-35 -83.5t-16 -66.5q0 -50 21 -78t51 -28z" />
<glyph unicode="&#xfb00;" horiz-adv-x="1388" d="M1077 893v-719l193 -174h-590l151 176v717h-403v-735l156 -158h-553l151 176v698l-143 130h154q0 23 10 60t30.5 85t56.5 95.5t81.5 88t113 65.5t144.5 25h170v-278h-15q-96 207 -235 207q-158 0 -158 -166q0 -84 37 -182h414q0 23 10 60t30.5 85t56.5 95.5t81.5 88 t113 65.5t144.5 25h170v-278h-14q-96 207 -236 207q-158 0 -158 -166q0 -84 37 -182h393l-45 -111h-348z" />
<glyph unicode="&#xfb04;" horiz-adv-x="1910" d="M1473 176v717h-396v-721l131 -172h-508l131 176v717h-403v-719l147 -174h-544l151 174v700l-143 130h154q0 23 10 60t30.5 85t56.5 95.5t81.5 88t113 65.5t144.5 25h170v-278h-15q-96 207 -235 207q-158 0 -158 -166q0 -84 37 -182h414q0 23 10 60t30.5 85t56.5 95.5 t81.5 88t113 65.5t144.5 25h375l65 31v-1278l152 -176h-541zM1473 999v205q-123 148 -275 148q-158 0 -158 -166q0 -84 37 -182h393z" />
<glyph horiz-adv-x="849" d="M438 1024v-176q79 68 166.5 114t214.5 64v-354h-14q-40 80 -102 124t-125 44q-43 0 -80 -22t-60 -60v-594l176 -164h-573l152 164v565l-140 158z" />
<glyph horiz-adv-x="862" d="M410 1130l36 265h259l-265 -265h-30zM438 1024v-193q73 76 160 126.5t217 68.5v-354h-14q-39 75 -94 121.5t-109 46.5q-53 0 -97 -28t-63 -71v-577l176 -164h-573l152 164v565l-140 158z" />
<glyph horiz-adv-x="862" d="M270 1395h29l174 -150l170 150h33l-119 -265h-170zM438 1024v-193q73 76 160 126.5t217 68.5v-354h-14q-39 75 -94 121.5t-109 46.5q-53 0 -97 -28t-63 -71v-577l176 -164h-573l152 164v565l-140 158z" />
<glyph horiz-adv-x="1222" d="M1143 590q0 -109 -38 -216t-109 -197t-187 -146t-258 -56q-110 0 -201 44.5t-149 118t-89.5 166.5t-31.5 192q0 86 23 172.5t72 166t117.5 141t167 98t212.5 36.5q110 0 201.5 -44t149 -118t89 -166t31.5 -192zM553 1028q-53 0 -93.5 -22.5t-63.5 -56.5t-37 -81.5 t-18.5 -88t-4.5 -85.5q0 -170 42 -315t119.5 -233.5t174.5 -88.5q59 0 104 35.5t69 90t36 108t12 100.5q0 170 -43 315t-121.5 233.5t-175.5 88.5z" />
<glyph horiz-adv-x="782" d="M74 662l-2 4l446 456v-987l193 -135h-621l182 135v543z" />
<glyph horiz-adv-x="1071" d="M88 0l-16 68q19 15 72.5 55t89 67.5t91 75.5t93.5 88.5t82 97.5t70.5 111t44.5 120.5t18 133.5q0 100 -60.5 162.5t-164.5 62.5q-103 0 -172 -75t-127 -224h-11v355h279q143 0 260.5 -33t195.5 -107t78 -178q0 -38 -18 -78.5t-42.5 -75t-70.5 -77t-81.5 -71t-96.5 -70.5 t-94 -63t-97 -60.5t-83 -51.5l2 -6l127 11l553 6l-25 -244h-897z" />
<glyph horiz-adv-x="1038" d="M88 -154l-16 52q66 0 136 9t143.5 31.5t130.5 54.5t93.5 83.5t36.5 113.5q0 65 -26.5 114.5t-76.5 82t-107.5 53t-135.5 35.5q-8 -2 -29 -7t-34 -7l-4 35l67 24q38 14 48.5 17.5t51 19t57.5 24t52.5 27t52.5 32.5t42.5 36t37.5 43.5t21.5 48t9.5 55.5q0 98 -68 157.5 t-182 59.5q-44 0 -82 -17t-64.5 -41.5t-52.5 -67t-42 -77t-37 -87.5h-11v348h316q106 0 193 -13t158.5 -40.5t111 -76.5t39.5 -116q0 -100 -108.5 -177t-330.5 -143q51 -5 97.5 -13t101 -21.5t98.5 -34.5t81.5 -48.5t58 -67.5t20.5 -87q0 -84 -67.5 -156t-168 -118 t-219.5 -79t-220.5 -47t-172.5 -14z" />
<glyph horiz-adv-x="1163" d="M819 92h262v-94h-262v-152h-246v152h-501l493 1100h299l-592 -1006h303v230l244 299v-529z" />
<glyph horiz-adv-x="985" d="M233 852l-36 -246l73 39q100 43 207 43q100 0 191.5 -44.5t153 -132.5t61.5 -198q0 -213 -151 -323.5t-415 -110.5h-245q4 215 8 352h14q3 -6 8 -16.5t22 -41t36 -58.5t49.5 -62t62.5 -58.5t74.5 -41t85.5 -16.5q51 0 85.5 12.5t62 44t40.5 89.5t13 146q0 55 -4 100 t-18 99t-38 91t-68 62t-104 25q-80 0 -215 -69l-6 -45l-74 8l74 598h680l-53 -246h-574z" />
<glyph horiz-adv-x="1030" d="M883 1235l12 -39q-213 -96 -346.5 -225t-186.5 -318q111 86 224 86q154 0 258 -96t104 -266q0 -70 -32 -140.5t-88.5 -129t-145.5 -95.5t-193 -37q-174 0 -290.5 106t-116.5 273q0 122 41.5 235.5t114 206.5t175 175.5t219 146.5t251.5 117zM350 602q-20 -90 -20 -209 q0 -171 50.5 -263.5t149.5 -92.5q48 0 84.5 32.5t55.5 81.5t28 96t9 87q0 147 -70 234t-152 87q-44 0 -72.5 -11t-62.5 -42z" />
<glyph horiz-adv-x="989" d="M72 702v396h876l-704 -1301l-70 33l528 1022h-522z" />
<glyph horiz-adv-x="1013" d="M537 1249q55 0 110 -14.5t103 -43t78 -77t30 -110.5q0 -90 -51 -154t-141 -119q54 -36 81.5 -56t70 -58t64 -72t38 -84t16.5 -107q0 -83 -33.5 -150.5t-85 -110t-117 -71.5t-125.5 -41t-114 -12q-167 0 -277 83.5t-110 215.5q0 52 15.5 97t38 76.5t56 61.5t62 49t63.5 40 q12 7 17 10q-7 6 -30.5 26t-31 27t-27.5 25.5t-27.5 27.5t-23.5 28t-22 32t-16 33t-14 38.5t-7.5 41.5t-3.5 47q0 81 37.5 145t99 101t132.5 56t145 19zM618 754q132 85 132 225q0 113 -63.5 166t-168.5 53q-87 0 -150 -52t-63 -149q0 -30 14 -57t32 -45.5t54.5 -39.5 t62.5 -33t75.5 -34t74.5 -34zM383 575q-82 -46 -141.5 -124.5t-59.5 -174.5q0 -50 16 -94t48.5 -81t88.5 -59t128 -22q122 0 198 61t76 175q0 37 -9 69t-21.5 56t-37 46.5t-44 37t-55.5 32t-58 26.5t-65 26t-64 26z" />
<glyph horiz-adv-x="1017" d="M147 -154l-12 39q213 96 346.5 225t186.5 318q-118 -84 -224 -84q-154 0 -258 96t-104 267q0 70 32 140.5t88.5 129t145.5 95t193 36.5q176 0 291.5 -97.5t115.5 -262.5q0 -152 -63 -292t-175 -252.5t-253 -202t-310 -155.5zM680 479q20 105 20 209q0 171 -51 265 t-149 94q-47 0 -83.5 -32.5t-55.5 -82.5t-28 -97t-9 -87q0 -146 69.5 -234t151.5 -88q44 0 72.5 11t62.5 42z" />
<glyph horiz-adv-x="1222" d="M672 1110q110 0 201.5 -44t149 -118t89 -166t31.5 -192q0 -109 -38 -216t-109 -197t-187 -146t-258 -56q-110 0 -201 44.5t-149 118t-89.5 166.5t-31.5 192q0 86 23 172.5t72 166t117.5 141t167 98t212.5 36.5zM406 295l380 561q-96 172 -235 172q-53 0 -93.5 -22.5 t-63.5 -56.5t-37 -81.5t-18.5 -88t-4.5 -85.5q0 -221 72 -399zM817 793l-381 -562q97 -174 234 -174q59 0 104 35.5t69 90t36 108t12 100.5q0 224 -74 402z" />
<glyph horiz-adv-x="1136" d="M623 1233q103 0 187 -48.5t137.5 -130t82.5 -184.5t29 -215q0 -97 -21.5 -193t-66.5 -184.5t-108.5 -157t-155 -109t-197.5 -40.5q-102 0 -186 48.5t-138 130t-83 184.5t-29 215q0 97 21.5 193t66.5 184.5t108.5 157t155 109t197.5 40.5zM397 301l305 676 q-79 164 -188 164q-57 0 -96 -35.5t-57.5 -95.5t-25.5 -116.5t-7 -121.5q0 -267 69 -471zM733 903l-305 -676q79 -164 188 -164q50 0 88.5 39t59.5 98.5t31 119t10 112.5q0 268 -72 471z" />
<glyph horiz-adv-x="759" d="M702 424q0 -78 -24 -154.5t-69.5 -141t-119 -104.5t-163.5 -40q-92 0 -161.5 54.5t-102.5 137t-33 178.5q0 62 14.5 124t45.5 119t74 101t105.5 70.5t134.5 26.5q93 0 163 -54.5t103 -137.5t33 -179zM332 735q-127 0 -127 -237q0 -122 24.5 -225.5t70.5 -166.5t103 -63 q34 0 60 25.5t40 64t20.5 77t6.5 71.5q0 121 -25 225t-71 166.5t-102 62.5z" />
<glyph horiz-adv-x="673" d="M129 506l-2 2l313 291v-713l138 -86h-437l127 86v467z" />
<glyph d="M80 0l-12 43q43 31 88 68t102.5 96t101 118t73.5 132t30 141q0 62 -42.5 98.5t-115.5 36.5q-75 0 -123.5 -45.5t-87.5 -138.5h-6v225h195q100 0 183 -21t138 -67.5t55 -112.5q0 -52 -28 -101t-76 -90t-97.5 -77t-105.5 -78t-88 -75l4 -7l70 7l293 4l84 157h6l-31 -313 h-610z" />
<glyph d="M98 -23l-10 39q59 0 121 9.5t122 29t98 56.5t38 86q0 42 -18.5 73t-53.5 51.5t-75.5 33.5t-94.5 22q-6 -1 -21 -4t-24 -4l-4 22l49 15q124 42 172 70q90 52 90 122q0 63 -48 99t-128 36q-38 0 -68.5 -14t-54 -43t-38.5 -55t-35 -68h-9v221h226q74 0 135 -8t111 -26 t78 -49.5t28 -74.5q0 -63 -78.5 -110.5t-245.5 -91.5q61 -4 114 -14t106.5 -28.5t84.5 -52t31 -77.5q0 -53 -47.5 -99t-118.5 -75.5t-155 -51t-155.5 -30.5t-121.5 -9z" />
<glyph horiz-adv-x="792" d="M565 252h187v-59h-187v-107l137 -86h-436l127 86v109h-352l348 581h209l-410 -522h203v104l174 232v-338z" />
<glyph horiz-adv-x="696" d="M164 463l57 22q74 29 144 29q111 0 197.5 -66.5t86.5 -173.5q0 -135 -105 -204.5t-290 -69.5h-174q4 135 4 223h10q4 -7 11 -19.5t30.5 -44t49.5 -55.5t66.5 -43.5t82.5 -19.5q72 0 106.5 37.5t34.5 144.5q0 35 -2.5 63t-12.5 63t-26.5 58.5t-48 39.5t-74.5 16 q-82 0 -164 -62l-4 -22h-49l58 369l4 26h409l84 66l-14 -66l-39 -156h-401z" />
<glyph horiz-adv-x="669" d="M594 795l8 -33q-304 -111 -373 -342q96 49 156 49q108 0 181 -60.5t73 -168.5q0 -97 -89 -176.5t-233 -79.5q-126 0 -206 70.5t-80 189.5q0 90 44 174t122 153.5t178 125.5t219 98zM217 375q-12 -49 -12 -125q0 -105 39 -164t102 -59q34 0 59.5 20t38.5 50.5t19 59.5 t6 54q0 94 -48.5 149.5t-105.5 55.5q-7 0 -13.5 -0.5t-13.5 -3t-12 -3.5t-12 -5t-10.5 -5.5t-10.5 -6t-9 -5.5t-10 -7z" />
<glyph horiz-adv-x="741" d="M76 524h-4v250h598l-465 -794l-58 20l345 618h-347z" />
<glyph horiz-adv-x="745" d="M387 795q85 0 159.5 -42t74.5 -114q0 -57 -36 -97t-100 -77q38 -23 57 -35.5t49.5 -37t45.5 -46t27 -53.5t12 -68q0 -53 -23.5 -96t-60 -70t-82 -45.5t-87 -26t-77.5 -7.5q-122 0 -200 53t-78 137q0 40 14.5 73.5t41.5 57.5t51 40t56 34q10 5 15 8q-74 57 -95 81 q-49 54 -49 126q0 67 44.5 115t107.5 69t133 21zM453 479q71 48 71 144q0 68 -44.5 101.5t-104.5 33.5t-102 -32.5t-42 -90.5q0 -19 10 -36.5t23 -29.5t39.5 -25.5t44 -21.5t53 -22t52.5 -21zM287 367q-51 -30 -87 -80t-36 -111q0 -67 46.5 -113.5t137.5 -46.5 q82 0 134.5 37.5t52.5 108.5q0 24 -6.5 44.5t-15 35.5t-26 29.5t-31 23.5t-38.5 20.5t-40.5 17.5t-45.5 17t-45 17z" />
<glyph d="M127 -18l-8 32q313 110 385 342q-100 -49 -162 -49q-111 0 -185.5 61t-74.5 169q0 97 91 176.5t239 79.5q130 0 213.5 -71t83.5 -190q0 -90 -45.5 -174t-126.5 -153t-184 -125t-226 -98zM516 401q12 49 12 125q0 105 -40 164.5t-105 59.5q-34 0 -60.5 -20t-40 -51 t-20 -60t-6.5 -54q0 -94 49.5 -149.5t108.5 -55.5q11 0 22 2.5t18.5 4.5t18.5 8t15 8t15.5 9.5t12.5 8.5z" />
<glyph horiz-adv-x="759" d="M702 1040q0 -78 -24 -154.5t-69.5 -141t-119 -104.5t-163.5 -40q-92 0 -161.5 54.5t-102.5 137.5t-33 179q0 78 24 154.5t68.5 141t118 104.5t163.5 40q93 0 163 -54.5t103 -137.5t33 -179zM332 1352q-127 0 -127 -238q0 -122 24.5 -225.5t70.5 -166.5t103 -63 q34 0 60 25.5t40 64t20.5 77t6.5 71.5q0 121 -25 225t-71 167t-102 63z" />
<glyph horiz-adv-x="673" d="M129 1114l-2 2l313 291v-713l138 -86h-437l127 86v467z" />
<glyph d="M63 629l-12 43q43 31 88 68t102.5 96t101 118t73.5 132t30 141q0 62 -42 98.5t-115 36.5q-75 0 -123.5 -45.5t-87.5 -138.5h-6v225h194q100 0 183.5 -21t138.5 -67.5t55 -112.5q0 -52 -28 -101t-76 -90.5t-97.5 -77.5t-105.5 -78t-88 -75l4 -6l70 6l292 4l84 158h7 l-31 -313h-611z" />
<glyph d="M98 606l-10 39q60 0 121.5 9.5t121.5 29t98 56t38 85.5q0 55 -34.5 93t-84 56.5t-123.5 31.5q-6 -1 -21 -4.5t-24 -4.5l-4 23l49 14q127 43 176 73q86 52 86 120q0 63 -48 99t-128 36q-38 0 -68.5 -14t-54 -43t-38.5 -55t-35 -68h-9v221h226q74 0 135 -8t111 -26 t78 -49.5t28 -74.5q0 -63 -78.5 -111t-245.5 -92q61 -4 114 -14t106.5 -28.5t84.5 -52t31 -77.5q0 -53 -47.5 -99t-118.5 -75.5t-155 -50.5t-155.5 -30t-121.5 -9z" />
<glyph horiz-adv-x="792" d="M565 879h187v-60h-187v-106l137 -86h-436l127 86v108h-352l348 582h209l-410 -522h203v104l174 232v-338z" />
<glyph horiz-adv-x="696" d="M164 1092l57 22q74 29 144 29q111 0 197.5 -66.5t86.5 -173.5q0 -135 -105 -204.5t-290 -69.5h-174q4 135 4 223h10q4 -7 11 -19.5t30.5 -44t49.5 -55.5t66.5 -43.5t82.5 -19.5q72 0 106.5 37.5t34.5 144.5q0 35 -2.5 63t-12.5 63t-26.5 58.5t-48 39.5t-74.5 16 q-82 0 -164 -62l-4 -22h-49l58 368l4 27h409l84 65l-14 -65l-39 -156h-401z" />
<glyph horiz-adv-x="669" d="M555 1436l8 -33q-304 -111 -373 -342q96 49 156 49q108 0 181 -60.5t73 -168.5q0 -97 -89 -176.5t-232 -79.5q-126 0 -206.5 70.5t-80.5 189.5q0 90 44 174t122 153.5t178 125.5t219 98zM178 1016q-12 -49 -12 -125q0 -105 39 -164t102 -59q34 0 59.5 20t38.5 50.5 t19 59.5t6 54q0 94 -48.5 149.5t-105.5 55.5q-7 0 -13.5 -0.5t-13.5 -3t-12 -3.5t-12 -5t-10.5 -5.5t-10.5 -6t-9 -5.5t-9 -6z" />
<glyph horiz-adv-x="741" d="M76 1153h-4v250h598l-465 -795l-58 21l345 618h-347z" />
<glyph horiz-adv-x="745" d="M387 1423q53 0 105 -16.5t90.5 -53t38.5 -85.5q0 -57 -36 -97t-100 -77q38 -23 57 -35.5t49.5 -37t45.5 -46t27 -53.5t12 -68q0 -53 -23.5 -96t-60 -70t-82 -46t-87 -26.5t-77.5 -7.5q-122 0 -200 53.5t-78 137.5q0 40 14.5 73.5t41.5 57.5t51 40t56 34q10 5 15 8 q-74 57 -95 81q-49 54 -49 126q0 67 44.5 115t107.5 68.5t133 20.5zM453 1108q71 48 71 143q0 68 -44.5 101.5t-104.5 33.5t-102 -32t-42 -90q0 -19 10 -36.5t23 -29.5t39.5 -25.5t44 -21.5t53 -22t52.5 -21zM287 995q-51 -30 -87 -79.5t-36 -110.5q0 -67 46.5 -113.5 t137.5 -46.5q82 0 134.5 37.5t52.5 108.5q0 24 -6 44t-15 35.5t-26 29.5t-31 23.5t-39 20.5t-40.5 17t-45.5 17t-45 17z" />
<glyph d="M174 608l-8 33q313 110 385 342q-100 -49 -162 -49q-111 0 -185.5 60.5t-74.5 168.5q0 97 91 176.5t239 79.5q130 0 213.5 -70.5t83.5 -189.5q0 -90 -45.5 -174t-126.5 -153.5t-184 -125.5t-226 -98zM563 1028q12 49 12 125q0 105 -40 164t-105 59q-34 0 -60.5 -20 t-40 -50.5t-20 -59.5t-6.5 -54q0 -94 49.5 -149.5t108.5 -55.5q11 0 22 2.5t18.5 4.5t18.5 8t15 8t15.5 9.5t12.5 8.5z" />
<glyph horiz-adv-x="444" d="M397 1243l-176 -190l-174 190l174 189zM96 33l99 895h73l101 -895l-138 -94z" />
<glyph horiz-adv-x="1032" d="M688 1190l176 -189l-176 -190l-174 190zM942 -287h-176q-70 0 -128.5 3t-125 11t-119 22.5t-102.5 38.5t-83 57t-53 80t-20 106q0 63 29 119.5t71.5 95.5t104 76t111 58.5t109 46.5t83.5 38l25 221h49l37 -250q-138 -49 -223 -150.5t-85 -209.5q0 -156 45 -221.5 t115 -65.5q108 0 170.5 71.5t100.5 200.5l16 2z" />
<glyph horiz-adv-x="643" d="M123 707v-9q6 -4 33 -17.5t53.5 -27.5t60 -42t58.5 -60t42 -82.5t17 -108.5q0 -48 -9 -121.5t-9 -146.5q0 -126 33.5 -180.5t117.5 -54.5l-4 -64q-161 0 -244.5 75.5t-83.5 248.5q0 41 12.5 142.5t12.5 152.5q0 82 -25.5 137.5t-60.5 83.5q-32 24 -86 39v61q54 15 86 39 q35 28 60.5 83.5t25.5 137.5q0 51 -12.5 152t-12.5 143q0 173 83.5 248.5t244.5 75.5l4 -64q-84 0 -117.5 -54.5t-33.5 -180.5q0 -73 9 -147t9 -122q0 -69 -22.5 -125.5t-60 -92.5t-70.5 -58.5t-69.5 -40t-41.5 -20.5z" />
<glyph horiz-adv-x="643" d="M520 698v9q-5 3 -41.5 20.5t-69.5 40t-70.5 58.5t-60 92.5t-22.5 125.5q0 48 9 122t9 147q0 126 -33.5 180.5t-117.5 54.5l4 64q161 0 244.5 -75.5t83.5 -248.5q0 -42 -12.5 -143t-12.5 -152q0 -82 25.5 -137.5t60.5 -83.5q32 -24 86 -39v-61q-54 -15 -86 -39 q-35 -28 -60.5 -83.5t-25.5 -137.5q0 -51 12.5 -152.5t12.5 -142.5q0 -173 -83.5 -248.5t-244.5 -75.5l-4 64q84 0 117.5 54.5t33.5 180.5q0 73 -9 146.5t-9 121.5q0 58 17 108.5t42 82.5t58.5 60t60 42t53.5 27.5t33 17.5z" />
<glyph horiz-adv-x="485" d="M23 1593h391v-114h-252v-1555h252v-114h-391v1783z" />
<glyph horiz-adv-x="485" d="M72 -190v114h252v1555h-252v114h391v-1783h-391z" />
<glyph horiz-adv-x="614" d="M563 1624l31 -31q-177 -180 -244 -386.5t-67 -504.5t67 -504.5t244 -385.5l-31 -31q-146 127 -214 202q-218 243 -258 563q-9 75 -9 156q0 75 8.5 145.5t21 127.5t36.5 115.5t44 100t55 91t58 79.5t65 74.5t64 65.5t67 63.5t62 59.5z" />
<glyph horiz-adv-x="614" d="M20 1593l31 31q17 -17 62 -59.5t67 -63.5t64 -65.5t65 -74.5t58 -79.5t55 -91t44 -100t36.5 -115.5t21 -127.5t8.5 -145.5q0 -145 -32.5 -274t-72.5 -213t-116.5 -176.5t-120.5 -134t-130 -115.5q-6 -5 -9 -8l-31 31q178 179 245 386t67 504t-67 504t-245 387z" />
<glyph horiz-adv-x="1843" d="M1843 631h-1843v143h1843v-143z" />
<glyph horiz-adv-x="1024" d="M1024 631h-1024v143h1024v-143z" />
<glyph horiz-adv-x="602" d="M563 621h-502v163h502v-163z" />
<glyph horiz-adv-x="913" d="M901 631h-889v143h889v-143z" />
<glyph horiz-adv-x="1048" d="M139 692h226l229 -446l-21 -21l-548 467l548 467l21 -35zM592 692h225l230 -446l-21 -21l-549 467l549 467l21 -35z" />
<glyph horiz-adv-x="1048" d="M479 692h-225l-229 447l20 20l549 -467l-549 -467l-20 35zM932 692h-225l-230 447l21 20l549 -467l-549 -467l-21 35z" />
<glyph horiz-adv-x="606" d="M133 692h225l230 -446l-21 -21l-549 467l549 467l21 -35z" />
<glyph horiz-adv-x="606" d="M479 692h-225l-229 447l20 20l549 -467l-549 -467l-20 35z" />
<glyph horiz-adv-x="1681" d="M1440 801l121 84q28 -129 28 -254q0 -143 -66 -267t-174 -206.5t-245 -130t-279 -47.5q-153 0 -286.5 47.5t-233 135t-156.5 219t-57 290.5q0 108 23.5 205.5t76 186t130.5 152.5t194.5 102t259.5 38h557l-57 -166v-688l59 -164h-344v162q-111 -87 -162 -117 q-117 -69 -219 -68q-99 2 -166 64.5t-67 157.5q0 57 16.5 103.5t60.5 87t85 69.5t126 65t146 58.5t180 64.5q0 38 -1 60.5t-6 57.5t-15 55.5t-29.5 46t-47 39t-70 23t-97.5 9.5q-115 0 -209 -33.5t-157 -90.5t-106 -134.5t-62 -162.5t-19 -177q0 -198 86.5 -342.5 t233 -216.5t333.5 -72q140 0 267.5 44t218.5 117.5t144.5 172t53.5 203.5q0 120 -69 217zM991 555v377q-185 -81 -270.5 -163.5t-85.5 -160.5q0 -67 51 -102t129 -35q50 0 88.5 20t87.5 64z" />
<glyph horiz-adv-x="837" d="M168 -12h-8l211 610h-310l609 819h8l-211 -610h309z" />
<glyph horiz-adv-x="397" d="M82 1516h-31l27 264h268z" />
<glyph horiz-adv-x="442" d="M231 1636l183 144h30l-129 -264h-170l-127 264h31z" />
<glyph horiz-adv-x="376" d="M217 37l-37 -70q3 -1 27.5 -10t34 -13.5t31.5 -14.5t33 -18t24.5 -19.5t19.5 -24.5t6 -27q0 -72 -55.5 -112.5t-136.5 -40.5q-52 0 -90 14.5t-78 48.5l22 43q67 -57 150 -57q42 0 69 13t27 34q0 24 -32.5 42t-72 26.5t-72 18t-32.5 19.5l103 148h59z" />
<glyph horiz-adv-x="436" d="M8 1516l127 264h170l129 -264h-31l-182 143l-182 -143h-31z" />
<glyph horiz-adv-x="935" d="M72 1700l157 178l158 -178l-158 -180zM549 1700l160 178l155 -178l-155 -180z" />
<glyph horiz-adv-x="421" d="M33 1698q0 83 58.5 141.5t141.5 58.5t142 -58.5t59 -141.5t-59 -142t-142 -59t-141.5 59t-58.5 142zM102 1698q0 -54 38.5 -92.5t92.5 -38.5t93 38.5t39 92.5t-39 92.5t-93 38.5t-92.5 -38.5t-38.5 -92.5z" />
<glyph horiz-adv-x="739" d="M119 1571l129 219q26 -2 91.5 -9t114.5 -10.5t91 -3.5q21 0 41.5 17.5t48.5 52.5l31 -12l-121 -207q-22 2 -96 8.5t-124.5 10t-95.5 3.5q-18 0 -37.5 -23t-44.5 -65z" />
</font>
</defs>
</svg>
