<svg xmlns="http://www.w3.org/2000/svg">
<defs>
<font horiz-adv-x="0" id="font"><font-face ascent="730" bbox="-249 -150 950 908" cap-height="730" descent="-130" font-family="Le Murmure" font-stretch="extra-condensed" font-weight="600" units-per-em="900" x-height="600" /><missing-glyph d="M40 600H50V700H40ZM80 600H90V700H80ZM130 645V655H85V645ZM150 690V700H85V690ZM215 600H225V650H215ZM260 645V655H180V645ZM180 650H190V700H180ZM250 650H260V700H250ZM290 600V700H300V600ZM360 690H295V700H360ZM360 600H295V610H360ZM355 600V700H365V600ZM395 600V700H405V600ZM470 600H400V610H470ZM465 600V700H475V600ZM40 450H50V550H40ZM85 450V460H45V450ZM80 450H90V515H80ZM125 450V460H85V450ZM120 450H130V550H120ZM275 450H285V550H275ZM345 450H355V550H345ZM295 550V510H305V550ZM300 550H280V540H300ZM310 520V480H320V520ZM315 520H295V510H315ZM325 490V450H335V490ZM330 490H310V480H330ZM350 460H330V450H350ZM410 450H420V550H410ZM455 540V550H375V540ZM495 450H505V550H495ZM515 550V510H525V550ZM520 550H500V540H520ZM530 520V480H540V520ZM535 520H515V510H535ZM550 490H530V480H550ZM605 450V550H595V450ZM585 550H575V510H585ZM580 550V540H600V550ZM570 520H560V480H570ZM565 520V510H585V520ZM550 490V480H570V490ZM545 490V450H555V490ZM635 450H645V550H635ZM705 540V550H640V540ZM705 450V460H640V450ZM700 450H710V550H700ZM735 500V450H745V500ZM785 550H740V540H785ZM810 500V450H820V500ZM815 500H740V490H815ZM735 550V500H745V550ZM780 550V500H790V550ZM840 450H850V550H840ZM890 495V505H845V495ZM910 540V550H845V540ZM910 450V460H845V450ZM40 150H50V250H40ZM105 240V250H45V240ZM105 150V160H45V150ZM130 150H140V250H130ZM200 240V250H135V240ZM200 150V160H135V150ZM195 150H205V250H195ZM235 150H245V250H235ZM305 150H315V250H305ZM255 250V210H265V250ZM260 250H240V240H260ZM270 220V180H280V220ZM275 220H255V210H275ZM285 190V150H295V190ZM290 190H270V180H290ZM310 160H290V150H310ZM365 150H375V250H365ZM410 240V250H330V240ZM525 150H535V250H525ZM590 240V250H530V240ZM590 150V160H530V150ZM645 150H655V250H645ZM690 240V250H610V240ZM50 100V60H60V100ZM55 100H35V90H55ZM65 70V30H75V70ZM70 70H50V60H70ZM85 40H65V30H
<glyph glyph-name=".null" horiz-adv-x="146" /><glyph d="M204 0 157 370 138 570H127L111 628L67 730H166L288 0ZM90 0H0L128 730H156L127 570ZM86 205V225H180V205ZM137 760ZM288 0Z" glyph-name="A" horiz-adv-x="288" unicode="A" /><glyph d="M204 0 157 370 138 570H127L111 628L67 730H166L288 0ZM90 0H0L128 730H156L127 570ZM137 760Z" glyph-name="A.2" horiz-adv-x="288" /><glyph d="M204 0 157 370 138 570H127L111 628L67 730H166L278 0ZM90 0H0L128 730H156L127 570ZM86 205V225H180V205ZM143 730H327V665H143ZM205 374V396H300V374ZM215 65H337V0H215ZM501 0Z" glyph-name="AE" horiz-adv-x="352" unicode="&#198;" /><glyph d="M204 0 157 370 138 570H127L111 628L67 730H166L278 0ZM90 0H0L128 730H156L127 570ZM143 730H327V665H143ZM205 374V396H300V374ZM215 65H337V0H215ZM501 0Z" glyph-name="AE.2" horiz-adv-x="352" /><glyph d="M204 0 157 370 138 570H127L111 628L67 730H166L288 0ZM90 0H0L128 730H156L127 570ZM86 205V225H180V205ZM137 760ZM288 0ZM215 840V850H150L152 840C159 805 129 772 65 762V756C174 757 215 784 215 840ZM137 760Z" glyph-name="Aacute" horiz-adv-x="288" unicode="&#193;" /><glyph d="M215 840V850H150L152 840C159 805 129 772 65 762V756C174 757 215 784 215 840ZM137 760ZM204 0 157 370 138 570H127L111 628L67 730H166L288 0ZM90 0H0L128 730H156L127 570ZM137 760Z" glyph-name="Aacute.2" horiz-adv-x="288" /><glyph d="M204 0 157 370 138 570H127L111 628L67 730H166L288 0ZM90 0H0L128 730H156L127 570ZM86 205V225H180V205ZM137 760ZM288 0ZM137 804C92.4103 804 68.9919 814.0486 63 850H57C58 777.0006 83.6667 756 137 756C190.3333 756 216 777.0006 217 850H211C205.0081 814.0486 181.5897 804 137 804ZM137 760Z" glyph-name="Abreve" horiz-adv-x="288" unicode="&#258;" /><glyph d="M204 0 157 370 138 570H127L111 628L67 730H166L288 0ZM90 0H0L128 730H156L127 570ZM137 760ZM137 804C92.4103 804 68.9919 814.0486 63 850H57C58 777.0006 83.6667 756 137 756C190.3333 756 216 777.0006 217 850H211C205.0081 814.0486 181.5897 804 137 804ZM137 760Z" glyph-name="Abreve.2" horiz-adv-x="288" /><glyph d="M204 0 157 370 138 570H127L111 628L67 730H166L288 0ZM90 0H0L128 730H156L127 570ZM86 205V225H180V205ZM137 760ZM288 0ZM141 795C141 771.9184 167.7907 756 237 756V762C194.4083 766.7324 173 789 173 830V850H129L131 795ZM134 795H144L146 850H102V830C102 789 80.5917 766.7324 38 762V756C107.2093 756 134 771.9184 134 795ZM137 760Z" glyph-name="Acircumflex" horiz-adv-x="288" unicode="&#194;" /><glyph d="M141 795C141 771.9184 167.7907 756 237 756V762C194.4083 766.7324 173 789 173 830V850H129L131 795ZM134 795H144L146 850H102V830C102 789 80.5917 766.7324 38 762V756C107.2093 756 134 771.9184 134 795ZM137 760ZM204 0 157 370 138 570H127L111 628L67 730H166L288 0ZM90 0H0L128 730H156L127 570ZM137 760Z" glyph-name="Acircumflex.2" horiz-adv-x="288" /><glyph d="M204 0 157 370 138 570H127L111 628L67 730H166L288 0ZM90 0H0L128 730H156L127 570ZM86 205V225H180V205ZM137 760ZM288 0ZM39 784H125V830H39ZM149 784H235V830H149ZM137 760Z" glyph-name="Adieresis" horiz-adv-x="288" unicode="&#196;" /><glyph d="M39 784H125V830H39ZM149 784H235V830H149ZM137 760ZM204 0 157 370 138 570H127L111 628L67 730H166L288 0ZM90 0H0L128 730H156L127 570ZM137 760Z" glyph-name="Adieresis.2" horiz-adv-x="288" /><glyph d="M204 0 157 370 138 570H127L111 628L67 730H166L288 0ZM90 0H0L128 730H156L127 570ZM86 205V225H180V205ZM137 760ZM288 0ZM57 840C57 784 98 757 207 756V762C143 772 113 805 120 840L122 850H57ZM137 760Z" glyph-name="Agrave" horiz-adv-x="288" unicode="&#192;" /><glyph d="M57 840C57 784 98 757 207 756V762C143 772 113 805 120 840L122 850H57ZM137 760ZM204 0 157 370 138 570H127L111 628L67 730H166L288 0ZM90 0H0L128 730H156L127 570ZM137 760Z" glyph-name="Agrave.2" horiz-adv-x="288" /><glyph d="M204 0 157 370 138 570H127L111 628L67 730H166L288 0ZM90 0H0L128 730H156L127 570ZM86 205V225H180V205ZM137 760ZM288 0ZM39 784H235V830H39ZM137 760Z" glyph-name="Amacron" horiz-adv-x="288" unicode="&#256;" /><glyph d="M204 0 157 370 138 570H127L111 628L67 730H166L288 0ZM90 0H0L128 730H156L127 570ZM137 760ZM39 784H235V830H39ZM137 760Z" glyph-name="Amacron.2" horiz-adv-x="288" /><glyph d="M204 0 157 370 138 570H127L111 628L67 730H166L288 0ZM90 0H0L128 730H156L127 570ZM86 205V225H180V205ZM137 760ZM288 0ZM253 -130C232 -130 210 -116 210 -88C210 -59 227.0933 -37.68 264 -10L258 0H287C265.6053 -23.5341 256 -40 256 -54C256 -70 264 -75 277 -75C289 -75 302 -71 309 -67L314 -72C301 -99 276.8281 -130 253 -130ZM287 0ZM280 0Z" glyph-name="Aogonek" horiz-adv-x="288" unicode="&#260;" /><glyph d="M253 -130C232 -130 210 -116 210 -88C210 -59 227.0933 -37.68 264 -10L258 0H287C265.6053 -23.5341 256 -40 256 -54C256 -70 264 -75 277 -75C289 -75 302 -71 309 -67L314 -72C301 -99 276.8281 -130 253 -130ZM287 0ZM280 0ZM204 0 157 370 138 570H127L111 628L67 730H166L288 0ZM90 0H0L128 730H156L127 570ZM137 760Z" glyph-name="Aogonek.2" horiz-adv-x="288" /><glyph d="M204 0 157 370 138 570H127L111 628L67 730H166L288 0ZM90 0H0L128 730H156L127 570ZM86 205V225H180V205ZM137 760ZM288 0ZM137 783C120 783 111 793.8 111 810C111 826.2 120 837 137 837C154 837 163 826.2 163 810C163 793.8 154 783 137 783ZM137 756C183.4762 756 201 774 201 810C201 846 183.4762 864 137 864C90.5238 864 73 846 73 810C73 774 90.5238 756 137 756ZM137 760Z" glyph-name="Aring" horiz-adv-x="288" unicode="&#197;" /><glyph d="M204 0 157 370 138 570H127L111 628L67 730H166L288 0ZM90 0H0L128 730H156L127 570ZM137 760ZM137 783C120 783 111 793.8 111 810C111 826.2 120 837 137 837C154 837 163 826.2 163 810C163 793.8 154 783 137 783ZM137 756C183.4762 756 201 774 201 810C201 846 183.4762 864 137 864C90.5238 864 73 846 73 810C73 774 90.5238 756 137 756ZM137 760Z" glyph-name="Aring.2" horiz-adv-x="288" /><glyph d="M204 0 157 370 138 570H127L111 628L67 730H166L288 0ZM90 0H0L128 730H156L127 570ZM86 205V225H180V205ZM137 760ZM288 0ZM189 757C223 757 239 783 239 853H232C223 824 211 809 193 809C164 809 114 852 86 852C52 852 36 826 36 756H43C52 785 64 800 82 800C111 800 161 757 189 757ZM137 760Z" glyph-name="Atilde" horiz-adv-x="288" unicode="&#195;" /><glyph d="M189 757C223 757 239 783 239 853H232C223 824 211 809 193 809C164 809 114 852 86 852C52 852 36 826 36 756H43C52 785 64 800 82 800C111 800 161 757 189 757ZM137 760ZM204 0 157 370 138 570H127L111 628L67 730H166L288 0ZM90 0H0L128 730H156L127 570ZM137 760Z" glyph-name="Atilde.2" horiz-adv-x="288" /><glyph d="M105 730V0H30V730ZM124 399C162.2413 415.5953 171 440 171 475V579C171 644 155.6471 662 113 662C113 662 71 662 71 662V730H120C199.6765 730 246 695 246 604V535C246 445.5844 192.8316 409.2293 128 382L78 361L71 376ZM103 358 102 384 153 395V383L220 389C250 367 261 309.7887 261 241V126C261 35 209 0 120 0H71V68H113C167 68 186 86 186 151V303C186 348 168 369 133 369C121 369 112 364 103 358Z" glyph-name="B" horiz-adv-x="289" unicode="B" /><glyph d="M195 642C195 664 178.5849 672 137 672C111 672 105 650 105 615V141C105 69 126 58 146 58C172 58 182 96 184 160L187 278H201L204 157C206 62 177 -10 117 -10C60 -10 30 21 30 107V605C30 703 79 740 137 740C189 740 214 709 214 647C214 596 212 526 194 425H118C187.8796 574.8868 195 614 195 642ZM118 0Z" glyph-name="C" horiz-adv-x="236" unicode="C" /><glyph d="M133 730H229L63 365H10V368ZM133 0 10 362V365H63L230 0Z" glyph-name="C.2" horiz-adv-x="230" /><glyph d="M195 642C195 664 178.5849 672 137 672C111 672 105 650 105 615V141C105 69 126 58 146 58C172 58 182 96 184 160L187 278H201L204 157C206 62 177 -10 117 -10C60 -10 30 21 30 107V605C30 703 79 740 137 740C189 740 214 709 214 647C214 596 212 526 194 425H118C187.8796 574.8868 195 614 195 642ZM118 0ZM207 840V850H142L144 840C151 805 121 772 57 762V756C166 757 207 784 207 840ZM129 760Z" glyph-name="Cacute" horiz-adv-x="236" unicode="&#262;" /><glyph d="M133 730H229L63 365H10V368ZM133 0 10 362V365H63L230 0ZM274 840V850H209L211 840C218 805 188 772 124 762V756C233 757 274 784 274 840ZM196 760Z" glyph-name="Cacute.2" horiz-adv-x="230" /><glyph d="M195 642C195 664 178.5849 672 137 672C111 672 105 650 105 615V141C105 69 126 58 146 58C172 58 182 96 184 160L187 278H201L204 157C206 62 177 -10 117 -10C60 -10 30 21 30 107V605C30 703 79 740 137 740C189 740 214 709 214 647C214 596 212 526 194 425H118C187.8796 574.8868 195 614 195 642ZM118 0ZM147 815H137L135 760H179V780C179 821 200 843 243 848V854C174 854 147 838 147 815ZM140 815C140 838 113 854 44 854V848C87 843 108 821 108 780V760H152L150 815ZM143 764Z" glyph-name="Ccaron" horiz-adv-x="236" unicode="&#268;" /><glyph d="M195 642C195 664 178.5849 672 137 672C111 672 105 650 105 615V141C105 69 126 58 146 58C172 58 182 96 184 160L187 278H201L204 157C206 62 177 -10 117 -10C60 -10 30 21 30 107V605C30 703 79 740 137 740C189 740 214 709 214 647C214 596 212 526 194 425H118C187.8796 574.8868 195 614 195 642ZM118 0ZM126 -130C95 -130 79 -109 70 -92L74 -87C82 -93 87.9286 -97 104 -97C120 -97 128 -85 128 -74C128 -61 122 -53 112 -53C104.4 -53 100 -56 93 -62L87 -57L110 -12L90 4H133L113 -35L117 -38C123 -36 130 -35 136 -35C159 -35 178 -47 178 -75C178 -107 154 -130 126 -130ZM118 0Z" glyph-name="Ccedilla" horiz-adv-x="236" unicode="&#199;" /><glyph d="M181 -132C150 -132 134 -111 125 -94L129 -89C137 -95 143 -99 159 -99C175 -99 183 -87 183 -76C183 -63 177 -55 167 -55C159 -55 155 -58 148 -64L142 -59L170 -4L150 12L188 2L168 -37L172 -40C178 -38 185 -37 191 -37C214 -37 233 -49 233 -77C233 -109 209 -132 181 -132ZM133 730H229L63 365H10V368ZM133 0 10 362V365H63L230 0Z" glyph-name="Ccedilla.2" horiz-adv-x="230" /><glyph d="M195 642C195 664 178.5849 672 137 672C111 672 105 650 105 615V141C105 69 126 58 146 58C172 58 182 96 184 160L187 278H201L204 157C206 62 177 -10 117 -10C60 -10 30 21 30 107V605C30 703 79 740 137 740C189 740 214 709 214 647C214 596 212 526 194 425H118C187.8796 574.8868 195 614 195 642ZM118 0ZM147 795C147 771.9184 173.7907 756 243 756V762C200.4083 766.7324 179 789 179 830V850H135L137 795ZM140 795H150L152 850H108V830C108 789 86.5917 766.7324 44 762V756C113.2093 756 140 771.9184 140 795ZM143 760Z" glyph-name="Ccircumflex" horiz-adv-x="236" unicode="&#264;" /><glyph d="M133 730H229L63 365H10V368ZM133 0 10 362V365H63L230 0ZM187 795C187 771.9184 213.7907 756 283 756V762C240.4083 766.7324 219 789 219 830V850H175L177 795ZM180 795H190L192 850H148V830C148 789 126.5917 766.7324 84 762V756C153.2093 756 180 771.9184 180 795ZM183 760Z" glyph-name="Ccircumflex.2" horiz-adv-x="230" /><glyph d="M195 642C195 664 178.5849 672 137 672C111 672 105 650 105 615V141C105 69 126 58 146 58C172 58 182 96 184 160L187 278H201L204 157C206 62 177 -10 117 -10C60 -10 30 21 30 107V605C30 703 79 740 137 740C189 740 214 709 214 647C214 596 212 526 194 425H118C187.8796 574.8868 195 614 195 642ZM118 0ZM81 780H187V831H81ZM134 741Z" glyph-name="Cdotaccent" horiz-adv-x="236" unicode="&#266;" /><glyph d="M133 730H229L63 365H10V368ZM133 0 10 362V365H63L230 0ZM131 780H237V831H131ZM184 741Z" glyph-name="Cdotaccent.2" horiz-adv-x="230" /><glyph d="M105 730V0H30V730ZM120 68C169 68 181 90 181 125V579C181 644 163 662 113 662C113 662 71 662 71 662V730H120C206 730 256 695 256 604V135C256 37 188 0 107 0C107 0 62 0 62 0V68ZM127 760Z" glyph-name="D" horiz-adv-x="286" unicode="D" /><glyph d="M105 730V0H30V730ZM120 68C169 68 181 90 181 125V579C181 644 163 662 113 662C113 662 71 662 71 662V730H120C206 730 256 695 256 604V135C256 37 188 0 107 0C107 0 62 0 62 0V68ZM127 760ZM145 815H135L133 760H177V780C177 821 198 843 241 848V854C172 854 145 838 145 815ZM138 815C138 838 111 854 42 854V848C85 843 106 821 106 780V760H150L148 815ZM141 764Z" glyph-name="Dcaron" horiz-adv-x="286" unicode="&#270;" /><glyph d="M105 730V0H30V730ZM41 730H203V665H41ZM82 374V396H176V374ZM41 65H213V0H41ZM123 760ZM213 0Z" glyph-name="E" horiz-adv-x="228" unicode="E" /><glyph d="M98 730H204L74 517H5V519ZM123 365 5 516V517H74L154 365ZM123 365H153L74 212H5V214ZM98 0 5 211V212H74L205 0Z" glyph-name="E.2" horiz-adv-x="198" /><glyph d="M105 730V0H30V730ZM41 730H203V665H41ZM82 374V396H176V374ZM41 65H213V0H41ZM123 760ZM213 0ZM205 840V850H140L142 840C149 805 119 772 55 762V756C164 757 205 784 205 840ZM127 760Z" glyph-name="Eacute" horiz-adv-x="228" unicode="&#201;" /><glyph d="M105 730V0H30V730ZM41 730H203V665H41ZM82 374V396H176V374ZM41 65H213V0H41ZM123 760ZM213 0ZM117 804C72.4103 804 48.9919 814.0486 43 850H37C38 777.0006 63.6667 756 117 756C170.3333 756 196 777.0006 197 850H191C185.0081 814.0486 161.5897 804 117 804ZM117 760Z" glyph-name="Ebreve" horiz-adv-x="228" unicode="&#276;" /><glyph d="M105 730V0H30V730ZM41 730H203V665H41ZM82 374V396H176V374ZM41 65H213V0H41ZM123 760ZM213 0ZM131 815H121L119 760H163V780C163 821 184 843 227 848V854C158 854 131 838 131 815ZM124 815C124 838 97 854 28 854V848C71 843 92 821 92 780V760H136L134 815ZM127 764Z" glyph-name="Ecaron" horiz-adv-x="228" unicode="&#282;" /><glyph d="M105 730V0H30V730ZM41 730H203V665H41ZM82 374V396H176V374ZM41 65H213V0H41ZM123 760ZM213 0ZM116 795C116 771.9184 142.7907 756 212 756V762C169.4083 766.7324 148 789 148 830V850H104L106 795ZM109 795H119L121 850H77V830C77 789 55.5917 766.7324 13 762V756C82.2093 756 109 771.9184 109 795ZM112 760Z" glyph-name="Ecircumflex" horiz-adv-x="228" unicode="&#202;" /><glyph d="M105 730V0H30V730ZM41 730H203V665H41ZM82 374V396H176V374ZM41 65H213V0H41ZM123 760ZM213 0ZM19 784H105V830H19ZM129 784H215V830H129ZM117 760Z" glyph-name="Edieresis" horiz-adv-x="228" unicode="&#203;" /><glyph d="M105 730V0H30V730ZM41 730H203V665H41ZM82 374V396H176V374ZM41 65H213V0H41ZM123 760ZM213 0ZM64 784H170V835H64ZM117 745Z" glyph-name="Edotaccent" horiz-adv-x="228" unicode="&#278;" /><glyph d="M105 730V0H30V730ZM41 730H203V665H41ZM82 374V396H176V374ZM41 65H213V0H41ZM123 760ZM213 0ZM47 840C47 784 88 757 197 756V762C133 772 103 805 110 840L112 850H47ZM127 760Z" glyph-name="Egrave" horiz-adv-x="228" unicode="&#200;" /><glyph d="M105 730V0H30V730ZM41 730H203V665H41ZM82 374V396H176V374ZM41 65H213V0H41ZM123 760ZM213 0ZM17 784H213V830H17ZM115 760Z" glyph-name="Emacron" horiz-adv-x="228" unicode="&#274;" /><glyph d="M105 730V0H30V730ZM41 730H203V665H41ZM82 374V396H176V374ZM41 65H213V0H41ZM179 -130C158 -130 136 -116 136 -88C136 -59 153.0933 -37.68 190 -10L184 0H213C191.6053 -23.5341 182 -40 182 -54C182 -70 190 -75 203 -75C215 -75 228 -71 235 -67L240 -72C227 -99 202.8281 -130 179 -130ZM213 0ZM206 0Z" glyph-name="Eogonek" horiz-adv-x="228" unicode="&#280;" /><glyph d="M0 371V391H144V371ZM105 730V0H30V730ZM120 68C169 68 181 90 181 125V579C181 644 163 662 113 662C113 662 71 662 71 662V730H120C206 730 256 695 256 604V135C256 37 188 0 107 0C107 0 62 0 62 0V68ZM127 760Z" glyph-name="Eth" horiz-adv-x="286" unicode="&#208;" /><glyph d="M17 369 21 389H195L191 369ZM6 309 10 329H184L180 309ZM214 642C214 664 197.5849 672 156 672C130 672 124 650 124 615V141C124 69 145 58 165 58C191 58 201 96 203 160L206 278H220L223 157C225 62 196 -10 136 -10C79 -10 49 21 49 107V605C49 703 98 740 156 740C208 740 233 709 233 647C233 596 231 526 213 425H137C206.8796 574.8868 214 614 214 642ZM137 0Z" glyph-name="Euro" horiz-adv-x="255" unicode="&#8364;" /><glyph d="M105 0H30V730H105ZM82 358H176V336H82ZM41 665V730H203V665Z" glyph-name="F" horiz-adv-x="213" unicode="F" /><glyph d="M200 642C200 664 184 672 142 672C111.9375 672 105 650 105 615V141C105 69 119 58 134 58C156.3929 58 167 90 167 160V318L252 298C231 298 227 294 227 274V-10H216L190 107H180C167.9819 27.8806 142.7273 -10 98 -10C55 -10 30 21 30 107V605C30 703 81.2897 740 142 740C194 740 219 709 219 647C219 596 217 526 199 425H123C193 575 200 614 200 642ZM129 298V318H253V298Z" glyph-name="G" horiz-adv-x="263" unicode="G" /><glyph d="M200 642C200 664 184 672 142 672C111.9375 672 105 650 105 615V141C105 69 119 58 134 58C156.3929 58 167 90 167 160V318L252 298C231 298 227 294 227 274V-10H216L190 107H180C167.9819 27.8806 142.7273 -10 98 -10C55 -10 30 21 30 107V605C30 703 81.2897 740 142 740C194 740 219 709 219 647C219 596 217 526 199 425H123C193 575 200 614 200 642ZM129 298V318H253V298ZM142 795C142 771.9184 168.7907 756 238 756V762C195.4083 766.7324 174 789 174 830V850H130L132 795ZM135 795H145L147 850H103V830C103 789 81.5917 766.7324 39 762V756C108.2093 756 135 771.9184 135 795ZM138 760Z" glyph-name="Gcircumflex" horiz-adv-x="263" unicode="&#284;" /><glyph d="M200 642C200 664 184 672 142 672C111.9375 672 105 650 105 615V141C105 69 119 58 134 58C156.3929 58 167 90 167 160V318L252 298C231 298 227 294 227 274V-10H216L190 107H180C167.9819 27.8806 142.7273 -10 98 -10C55 -10 30 21 30 107V605C30 703 81.2897 740 142 740C194 740 219 709 219 647C219 596 217 526 199 425H123C193 575 200 614 200 642ZM129 298V318H253V298ZM78 784H184V835H78ZM131 745Z" glyph-name="Gdotaccent" horiz-adv-x="263" unicode="&#288;" /><glyph d="M105 730V0H30V730ZM265 730V0H190V730ZM82 374V394H206V374Z" glyph-name="H" horiz-adv-x="295" unicode="H" /><glyph d="M105 730V0H30V730ZM265 730V0H190V730ZM82 374V394H206V374ZM152 795C152 771.9184 178.7907 756 248 756V762C205.4083 766.7324 184 789 184 830V850H140L142 795ZM145 795H155L157 850H113V830C113 789 91.5917 766.7324 49 762V756C118.2093 756 145 771.9184 145 795ZM148 760Z" glyph-name="Hcircumflex" horiz-adv-x="295" unicode="&#292;" /><glyph d="M105 730V0H30V730ZM67 760ZM105 0Z" glyph-name="I" horiz-adv-x="135" unicode="I" /><glyph d="M105 730V0H30V730ZM67 760ZM105 0ZM170 -19V730H245V139C245 -17 145 -130 68 -130H46V-43C64 -51 90 -57 122 -57C151 -57 170 -49 170 -19Z" glyph-name="IJ" horiz-adv-x="280" unicode="&#306;" /><glyph d="M105 730V0H30V730ZM67 760ZM105 0ZM145 840V850H80L82 840C89 805 59 772 -5 762V756C104 757 145 784 145 840ZM67 760Z" glyph-name="Iacute" horiz-adv-x="135" unicode="&#205;" /><glyph d="M105 730V0H30V730ZM67 760ZM105 0ZM67 804C22.4103 804 -1.0081 814.0486 -7 850H-13C-12 777.0006 13.6667 756 67 756C120.3333 756 146 777.0006 147 850H141C135.0081 814.0486 111.5897 804 67 804ZM67 760Z" glyph-name="Ibreve" horiz-adv-x="135" unicode="&#300;" /><glyph d="M105 730V0H30V730ZM67 760ZM105 0ZM71 795C71 771.9184 97.7907 756 167 756V762C124.4083 766.7324 103 789 103 830V850H59L61 795ZM64 795H74L76 850H32V830C32 789 10.5917 766.7324 -32 762V756C37.2093 756 64 771.9184 64 795ZM67 760Z" glyph-name="Icircumflex" horiz-adv-x="135" unicode="&#206;" /><glyph d="M105 730V0H30V730ZM67 760ZM105 0ZM-31 784H55V830H-31ZM79 784H165V830H79ZM67 760Z" glyph-name="Idieresis" horiz-adv-x="135" unicode="&#207;" /><glyph d="M105 730V0H30V730ZM67 760ZM105 0ZM14 799H120V850H14ZM67 760Z" glyph-name="Idotaccent" horiz-adv-x="135" unicode="&#304;" /><glyph d="M105 730V0H30V730ZM67 760ZM105 0ZM-13 840C-13 784 28 757 137 756V762C73 772 43 805 50 840L52 850H-13ZM67 760Z" glyph-name="Igrave" horiz-adv-x="135" unicode="&#204;" /><glyph d="M105 730V0H30V730ZM67 760ZM105 0ZM-31 784H165V830H-31ZM67 760Z" glyph-name="Imacron" horiz-adv-x="135" unicode="&#298;" /><glyph d="M105 730V0H30V730ZM67 760ZM105 0ZM56 -130C35 -130 13 -116 13 -88C13 -59 30.0933 -37.68 67 -10L61 0H90C68.6053 -23.5341 59 -40 59 -54C59 -70 67 -75 80 -75C92 -75 105 -71 112 -67L117 -72C104 -99 79.8281 -130 56 -130ZM90 0ZM83 0Z" glyph-name="Iogonek" horiz-adv-x="135" unicode="&#302;" /><glyph d="M105 730V0H30V730ZM67 760ZM105 0ZM119 757C153 757 169 783 169 853H162C153 824 141 809 123 809C94 809 44 852 16 852C-18 852 -34 826 -34 756H-27C-18 785 -6 800 12 800C41 800 91 757 119 757ZM67 760Z" glyph-name="Itilde" horiz-adv-x="135" unicode="&#296;" /><glyph d="M35 -19V730H110V139C110 -17 10 -130 -67 -130H-89V-43C-71 -51 -45 -57 -13 -57C16 -57 35 -49 35 -19Z" glyph-name="J" horiz-adv-x="145" unicode="J" /><glyph d="M35 -19V730H110V139C110 -17 10 -130 -67 -130H-89V-43C-71 -51 -45 -57 -13 -57C16 -57 35 -49 35 -19ZM76 795C76 771.9184 102.7907 756 172 756V762C129.4083 766.7324 108 789 108 830V850H64L66 795ZM69 795H79L81 850H37V830C37 789 15.5917 766.7324 -27 762V756C42.2093 756 69 771.9184 69 795ZM72 760Z" glyph-name="Jcircumflex" horiz-adv-x="145" unicode="&#308;" /><glyph d="M105 730V649L81 413L91 411L183 730H273V663L251 657C195.7031 641.919 177.499 580.135 139 481C114.8536 418.0093 105 379.7564 105 332V0H30V730ZM105 372 108 404 120 393 207 401 273 0H192L155 283C145 361 135 377 105 372Z" glyph-name="K" horiz-adv-x="278" unicode="K" /><glyph d="M103 258 106 290 118 279 226 292 273 0H192L172 174C163.4957 247.9872 145.0338 264.5386 103 258ZM105 730V649L81 297L91 295L185 730H275V663L253 657C197 642 178 563 141 412C120 325 105 277 105 214V0H30V730Z" glyph-name="K.2" horiz-adv-x="280" /><glyph d="M103 258 106 290 118 279 231 292 278 0H197L177 174C168 248 148 265 103 258ZM105 730V649L81 297L91 295L175 730H275V663L243 657C191 647 177 564 141 415C120 327 105 277.9545 105 214V0H30V730ZM104 293 122 287 193 506H275V454L253 448C206.9599 435.4436 194.0911 417.2187 169 357C155.321 323.3285 148 304 144 287L158 279L100 276Z" glyph-name="K.3" horiz-adv-x="288" /><glyph d="M105 730V0H30V730ZM41 65H213V0H41Z" glyph-name="L" horiz-adv-x="223" unicode="L" /><glyph d="M105 730V0H30V730ZM41 65H213V0H41ZM163 840V850H98L100 840C107 805 77 772 13 762V756C122 757 163 784 163 840ZM85 760Z" glyph-name="Lacute" horiz-adv-x="223" unicode="&#313;" /><glyph d="M105 730V0H30V730ZM41 65H213V0H41ZM204 720V730H141L143 720C164 615 157 579 136 546L141 541C185.317 578.2665 204 625.5278 204 720ZM128 640Z" glyph-name="Lcaron" horiz-adv-x="223" unicode="&#317;" /><glyph d="M105 730V0H30V730ZM41 65H213V0H41ZM128 369H224V440H128Z" glyph-name="Ldot" horiz-adv-x="223" unicode="&#319;" /><glyph d="M0 296V322L184 436V410ZM105 730V0H30V730ZM41 65H213V0H41Z" glyph-name="Lslash" horiz-adv-x="223" unicode="&#321;" /><glyph d="M105 730 100 522H77L104 0H25L35 730ZM110 730 190 257H201L193 50H170L51 730ZM259 730H285L193 50H170L201 257ZM261 730H322L332 0H255L268 522H242Z" glyph-name="M" horiz-adv-x="357" unicode="M" /><glyph d="M105 730 100 522H77L104 0H25L35 730ZM411 730H472L482 0H405L418 522H392ZM110 730 190 257H201L191 50H170L51 730ZM239 730H280L246 545L201 50H170L201 257ZM280 730 340 257H351L343 50H312L250 497H237ZM411 730H435L343 50H312L351 257Z" glyph-name="M.2" horiz-adv-x="507" /><glyph d="M110 730 190 257H201L191 50H170L51 730ZM239 730H280L246 545L201 50H170L201 257ZM280 730 340 257H351L343 50H312L250 497H237ZM389 730H430L396 545L351 50H320L351 257ZM430 730 490 257H501L493 50H462L400 497H387ZM561 730H585L493 50H462L501 257ZM105 730 100 522H77L104 0H25L35 730ZM561 730H622L632 0H555L568 522H542Z" glyph-name="M.3" horiz-adv-x="657" /><glyph d="M110 730 190 257H201L191 50H170L51 730ZM239 730H280L246 545L201 50H170L201 257ZM280 730 340 257H351L343 50H312L250 497H237ZM389 730H430L396 545L351 50H320L351 257ZM430 730 490 257H501L493 50H462L400 497H387ZM539 730H580L546 545L501 50H470L501 257ZM580 730 640 257H651L643 50H612L550 497H537ZM689 730H730L696 545L651 50H620L651 257ZM730 730 790 257H801L793 50H762L700 497H687ZM861 730H885L793 50H762L801 257ZM105 730 100 522H77L104 0H25L35 730ZM861 730H922L932 0H855L868 522H842Z" glyph-name="M.4" horiz-adv-x="957" /><glyph d="M287 0H375L251 730H123L140 660H229L243 411ZM90 0 143 660 251 730H123L0 0ZM144 0H229L201 661H173Z" glyph-name="M.5" horiz-adv-x="375" /><glyph d="M96 730 212 0H184L69 730ZM85 730 93 607H76L90 376L96 0H25V730ZM195 0 187 123H204L190 354L183 730H255V0ZM141 760Z" glyph-name="N" horiz-adv-x="280" unicode="N" /><glyph d="M96 730 212 0H184L69 730ZM85 730 93 607H76L90 376L96 0H25V730ZM161 730H204L212 607H195L237 0H195L187 123H204ZM215 730 331 0H303L188 730ZM314 0 306 123H323L319 354L302 730H374V0ZM141 760Z" glyph-name="N.2" horiz-adv-x="399" /><glyph d="M96 730 212 0H184L69 730ZM85 730 93 607H76L90 376L96 0H25V730ZM161 730H204L212 607H195L237 0H195L187 123H204ZM215 730 331 0H303L188 730ZM280 730H323L331 607H314L356 0H314L306 123H323ZM334 730 450 0H422L307 730ZM433 0 425 123H442L438 354L421 730H493V0ZM141 760Z" glyph-name="N.3" horiz-adv-x="518" /><glyph d="M96 730 212 0H184L69 730ZM85 730 93 607H76L90 376L96 0H25V730ZM195 0 187 123H204L190 354L183 730H255V0ZM141 760ZM229 840V850H164L166 840C173 805 143 772 79 762V756C188 757 229 784 229 840ZM151 760Z" glyph-name="Nacute" horiz-adv-x="280" unicode="&#323;" /><glyph d="M96 730 212 0H184L69 730ZM85 730 93 607H76L90 376L96 0H25V730ZM195 0 187 123H204L190 354L183 730H255V0ZM141 760ZM145 815H135L133 760H177V780C177 821 198 843 241 848V854C172 854 145 838 145 815ZM138 815C138 838 111 854 42 854V848C85 843 106 821 106 780V760H150L148 815ZM141 764Z" glyph-name="Ncaron" horiz-adv-x="280" unicode="&#327;" /><glyph d="M96 730 212 0H184L69 730ZM85 730 93 607H76L90 376L96 0H25V730ZM195 0 187 123H204L190 354L183 730H255V0ZM141 760ZM192 760C226 760 242 786 242 856H235C226 827 214 812 196 812C167 812 117 855 89 855C55 855 39 829 39 759H46C55 788 67 803 85 803C114 803 164 760 192 760ZM140 763Z" glyph-name="Ntilde" horiz-adv-x="280" unicode="&#209;" /><glyph d="M142 672C112 672 105 650 105 615V141C105 69 125 58 149 58C175 58 181 80 181 115V589C181 661 162 672 142 672ZM137 -10C68 -10 30 21 30 107V605C30 703 84 740 149 740C219 740 256 709 256 623V125C256 27 202 -10 137 -10ZM147 760Z" glyph-name="O" horiz-adv-x="286" unicode="O" /><glyph d="M192 730H354V665H192ZM233 374V394H327V374ZM192 65H364V0H192ZM181 0V730H256V0ZM166 662C117 662 105 640 105 605V151C105 86 123 68 173 68C173 68 215 68 215 68V0H166C80 0 30 35 30 126V595C30 693 98 730 179 730C179 730 224 730 224 730V662ZM159 -30Z" glyph-name="OE" horiz-adv-x="379" unicode="&#338;" /><glyph d="M142 672C112 672 105 650 105 615V141C105 69 125 58 149 58C175 58 181 80 181 115V589C181 661 162 672 142 672ZM137 -10C68 -10 30 21 30 107V605C30 703 84 740 149 740C219 740 256 709 256 623V125C256 27 202 -10 137 -10ZM147 760ZM225 840V850H160L162 840C169 805 139 772 75 762V756C184 757 225 784 225 840ZM147 760Z" glyph-name="Oacute" horiz-adv-x="286" unicode="&#211;" /><glyph d="M142 672C112 672 105 650 105 615V141C105 69 125 58 149 58C175 58 181 80 181 115V589C181 661 162 672 142 672ZM137 -10C68 -10 30 21 30 107V605C30 703 84 740 149 740C219 740 256 709 256 623V125C256 27 202 -10 137 -10ZM147 760ZM147 804C102.4103 804 78.9919 814.0486 73 850H67C68 777.0006 93.6667 756 147 756C200.3333 756 226 777.0006 227 850H221C215.0081 814.0486 191.5897 804 147 804ZM147 760Z" glyph-name="Obreve" horiz-adv-x="286" unicode="&#334;" /><glyph d="M142 672C112 672 105 650 105 615V141C105 69 125 58 149 58C175 58 181 80 181 115V589C181 661 162 672 142 672ZM137 -10C68 -10 30 21 30 107V605C30 703 84 740 149 740C219 740 256 709 256 623V125C256 27 202 -10 137 -10ZM147 760ZM151 795C151 771.9184 177.7907 756 247 756V762C204.4083 766.7324 183 789 183 830V850H139L141 795ZM144 795H154L156 850H112V830C112 789 90.5917 766.7324 48 762V756C117.2093 756 144 771.9184 144 795ZM147 760Z" glyph-name="Ocircumflex" horiz-adv-x="286" unicode="&#212;" /><glyph d="M142 672C112 672 105 650 105 615V141C105 69 125 58 149 58C175 58 181 80 181 115V589C181 661 162 672 142 672ZM137 -10C68 -10 30 21 30 107V605C30 703 84 740 149 740C219 740 256 709 256 623V125C256 27 202 -10 137 -10ZM147 760ZM49 784H135V830H49ZM159 784H245V830H159ZM147 760Z" glyph-name="Odieresis" horiz-adv-x="286" unicode="&#214;" /><glyph d="M142 672C112 672 105 650 105 615V141C105 69 125 58 149 58C175 58 181 80 181 115V589C181 661 162 672 142 672ZM137 -10C68 -10 30 21 30 107V605C30 703 84 740 149 740C219 740 256 709 256 623V125C256 27 202 -10 137 -10ZM147 760ZM67 840C67 784 108 757 217 756V762C153 772 123 805 130 840L132 850H67ZM147 760Z" glyph-name="Ograve" horiz-adv-x="286" unicode="&#210;" /><glyph d="M142 672C112 672 105 650 105 615V141C105 69 125 58 149 58C175 58 181 80 181 115V589C181 661 162 672 142 672ZM137 -10C68 -10 30 21 30 107V605C30 703 84 740 149 740C219 740 256 709 256 623V125C256 27 202 -10 137 -10ZM147 760ZM150 840V850H90L92 840C99 806 84 766 55 762V756C124 757 150 784 150 840ZM250 840V850H190L192 840C199 806 184 766 155 762V756C224 757 250 784 250 840ZM147 760Z" glyph-name="Ohungarumlaut" horiz-adv-x="286" unicode="&#336;" /><glyph d="M142 672C112 672 105 650 105 615V141C105 69 125 58 149 58C175 58 181 80 181 115V589C181 661 162 672 142 672ZM137 -10C68 -10 30 21 30 107V605C30 703 84 740 149 740C219 740 256 709 256 623V125C256 27 202 -10 137 -10ZM147 760ZM49 784H245V830H49ZM147 760Z" glyph-name="Omacron" horiz-adv-x="286" unicode="&#332;" /><glyph d="M22 0H0L264 730H286ZM142 672C112 672 105 650 105 615V141C105 69 125 58 149 58C175 58 181 80 181 115V589C181 661 162 672 142 672ZM137 -10C68 -10 30 21 30 107V605C30 703 84 740 149 740C219 740 256 709 256 623V125C256 27 202 -10 137 -10ZM147 760Z" glyph-name="Oslash" horiz-adv-x="286" unicode="&#216;" /><glyph d="M142 672C112 672 105 650 105 615V141C105 69 125 58 149 58C175 58 181 80 181 115V589C181 661 162 672 142 672ZM137 -10C68 -10 30 21 30 107V605C30 703 84 740 149 740C219 740 256 709 256 623V125C256 27 202 -10 137 -10ZM147 760ZM199 757C233 757 249 783 249 853H242C233 824 221 809 203 809C174 809 124 852 96 852C62 852 46 826 46 756H53C62 785 74 800 92 800C121 800 171 757 199 757ZM147 760Z" glyph-name="Otilde" horiz-adv-x="286" unicode="&#213;" /><glyph d="M105 730V0H30V730ZM120 278C169 278 181 300 181 335V579C181 644 163 662 113 662C113 662 71 662 71 662V730H120C206 730 256 695 256 604V345C256 247 188 210 107 210C107 210 62 210 62 210V278Z" glyph-name="P" horiz-adv-x="286" unicode="P" /><glyph d="M142 672C112 672 105 650 105 615V151C105 79 125 68 149 68C175 68 181 98.8772 181 148V589C181 661 162 672 142 672ZM137 0C68 0 30 31 30 117V605C30 703 84 740 149 740C219 740 256 709 256 623V163C256 85.6207 218.1492 34.019 163 27V17C206.6468 17.9287 249 36 293 126V0ZM147 760Z" glyph-name="Q" horiz-adv-x="298" unicode="Q" /><glyph d="M142 672C112 672 105 650 105 615V151C105 79 125 68 149 68C175 68 181 98.8772 181 148V589C181 661 162 672 142 672ZM135 0C67 0 30 32 30 117V605C30 703 84 740 149 740C219 740 256 709 256 623V163C256 86 218 34 163 27V17L220 18C280 -44 316.6025 -67 371 -67C413.9577 -67 430.5832 -56.9756 432 -31L435 24H449L452 -27C455.4096 -84.9638 435.6514 -130 353 -130C293.3871 -130 242 -100 184 -33C164 -9 154 0 135 0ZM147 760Z" glyph-name="Q.2" horiz-adv-x="298" /><glyph d="M105 730V0H30V730ZM124 299C169 318 181 340 181 375V579C181 644 163 662 113 662C113 662 71 662 71 662V730H120C206 730 256 695 256 604V435C256 344.6449 197 311 128 281L78 259L71 276ZM153 298 154 281 215 289 271 0H195L157 240C153 265 136 278 105 264L102 284Z" glyph-name="R" horiz-adv-x="286" unicode="R" /><glyph d="M105 730V0H30V730ZM124 119C169 138 181 160 181 195V579C181 644 163 662 113 662C113 662 71 662 71 662V730H120C206 730 256 695 256 604V255C256 165 197 131 128 101L78 79L71 96ZM441 -67C491 -67 510.5829 -56.9806 512 -31L515 24H529L532 -27C535.4104 -84.9773 514 -130 423 -130C341 -130 263 -80 181 66C165 94 147 103 105 84L102 104L165 124L169 107L220 118C299 -21 361 -67 441 -67Z" glyph-name="R.2" horiz-adv-x="286" /><glyph d="M105 730V0H30V730ZM124 299C169 318 181 340 181 375V579C181 644 163 662 113 662C113 662 71 662 71 662V730H120C206 730 256 695 256 604V435C256 344.6449 197 311 128 281L78 259L71 276ZM153 298 154 281 215 289 271 0H195L157 240C153 265 136 278 105 264L102 284ZM232 840V850H167L169 840C176 805 146 772 82 762V756C191 757 232 784 232 840ZM154 760Z" glyph-name="Racute" horiz-adv-x="286" unicode="&#340;" /><glyph d="M226 113C226 27 173 -10 110 -10C51 -10 23 21 23 83C23 147 25 220 34 275H106C61 189 42 127 42 95C42 66 61 58 110 58C143 58 151 78 151 104C151 235.7417 18 470.2818 18 614C18 703 71 740 134 740C186 740 211 709 211 647C211 609 211 533 200 465H134C179 574 192 610 192 637C192 664 176 672 134 672C101 672 93 652 93 626C93 513.2198 226 228.7743 226 113ZM127 750ZM118 0Z" glyph-name="S" horiz-adv-x="243" unicode="S" /><glyph d="M6 617C6 703 64 740 132 740C198 740 229 709 229 647C229 579.6667 221.4572 503.845 212 445H136C183.6237 537.2075 205 602.232 205 636C205 664 184 672 132 672C91 672 81 652 81 626C81 494 224 259 224 115C224 26 171 -11 108 -11C56 -11 31 20 31 82C31 120 31 196 42 264H108C64 157 55 119 55 92C55 65 70 57 108 57C141 57 149 77 149 103C149 216 6 501 6 617ZM127 750Z" glyph-name="S.2" horiz-adv-x="243" /><glyph d="M75 730H181L71 467H2V469ZM133 262 2 466V467H71L202 262ZM129 0H22L133 262H202V261Z" glyph-name="S.3" horiz-adv-x="198" /><glyph d="M226 113C226 27 173 -10 110 -10C51 -10 23 21 23 83C23 147 25 220 34 275H106C61 189 42 127 42 95C42 66 61 58 110 58C143 58 151 78 151 104C151 235.7417 18 470.2818 18 614C18 703 71 740 134 740C186 740 211 709 211 647C211 609 211 533 200 465H134C179 574 192 610 192 637C192 664 176 672 134 672C101 672 93 652 93 626C93 513.2198 226 228.7743 226 113ZM127 750ZM118 0ZM205 840V850H140L142 840C149 805 119 772 55 762V756C164 757 205 784 205 840ZM127 760Z" glyph-name="Sacute" horiz-adv-x="243" unicode="&#346;" /><glyph d="M205 840V850H140L142 840C149 805 119 772 55 762V756C164 757 205 784 205 840ZM127 760ZM6 617C6 703 64 740 132 740C198 740 229 709 229 647C229 579.6667 221.4572 503.845 212 445H136C183.6237 537.2075 205 602.232 205 636C205 664 184 672 132 672C91 672 81 652 81 626C81 494 224 259 224 115C224 26 171 -11 108 -11C56 -11 31 20 31 82C31 120 31 196 42 264H108C64 157 55 119 55 92C55 65 70 57 108 57C141 57 149 77 149 103C149 216 6 501 6 617ZM127 750Z" glyph-name="Sacute.2" horiz-adv-x="243" /><glyph d="M226 113C226 27 173 -10 110 -10C51 -10 23 21 23 83C23 147 25 220 34 275H106C61 189 42 127 42 95C42 66 61 58 110 58C143 58 151 78 151 104C151 235.7417 18 470.2818 18 614C18 703 71 740 134 740C186 740 211 709 211 647C211 609 211 533 200 465H134C179 574 192 610 192 637C192 664 176 672 134 672C101 672 93 652 93 626C93 513.2198 226 228.7743 226 113ZM127 750ZM118 0ZM131 815H121L119 760H163V780C163 821 184 843 227 848V854C158 854 131 838 131 815ZM124 815C124 838 97 854 28 854V848C71 843 92 821 92 780V760H136L134 815ZM127 764Z" glyph-name="Scaron" horiz-adv-x="243" unicode="&#352;" /><glyph d="M131 815H121L119 760H163V780C163 821 184 843 227 848V854C158 854 131 838 131 815ZM124 815C124 838 97 854 28 854V848C71 843 92 821 92 780V760H136L134 815ZM127 764ZM6 617C6 703 64 740 132 740C198 740 229 709 229 647C229 579.6667 221.4572 503.845 212 445H136C183.6237 537.2075 205 602.232 205 636C205 664 184 672 132 672C91 672 81 652 81 626C81 494 224 259 224 115C224 26 171 -11 108 -11C56 -11 31 20 31 82C31 120 31 196 42 264H108C64 157 55 119 55 92C55 65 70 57 108 57C141 57 149 77 149 103C149 216 6 501 6 617ZM127 750Z" glyph-name="Scaron.2" horiz-adv-x="243" /><glyph d="M226 113C226 27 173 -10 110 -10C51 -10 23 21 23 83C23 147 25 220 34 275H106C61 189 42 127 42 95C42 66 61 58 110 58C143 58 151 78 151 104C151 235.7417 18 470.2818 18 614C18 703 71 740 134 740C186 740 211 709 211 647C211 609 211 533 200 465H134C179 574 192 610 192 637C192 664 176 672 134 672C101 672 93 652 93 626C93 513.2198 226 228.7743 226 113ZM127 750ZM118 0ZM133 -130C102 -130 86 -109 77 -92L81 -87C89 -93 94.9286 -97 111 -97C127 -97 135 -85 135 -74C135 -61 129 -53 119 -53C111.4 -53 107 -56 100 -62L94 -57L117 -12L97 4H140L120 -35L124 -38C130 -36 137 -35 143 -35C166 -35 185 -47 185 -75C185 -107 161 -130 133 -130ZM125 0Z" glyph-name="Scedilla" horiz-adv-x="243" unicode="&#350;" /><glyph d="M133 -130C102 -130 86 -109 77 -92L81 -87C89 -93 94.9286 -97 111 -97C127 -97 135 -85 135 -74C135 -61 129 -53 119 -53C111.4 -53 107 -56 100 -62L94 -57L117 -12L97 4H140L120 -35L124 -38C130 -36 137 -35 143 -35C166 -35 185 -47 185 -75C185 -107 161 -130 133 -130ZM125 0ZM6 617C6 703 64 740 132 740C198 740 229 709 229 647C229 579.6667 221.4572 503.845 212 445H136C183.6237 537.2075 205 602.232 205 636C205 664 184 672 132 672C91 672 81 652 81 626C81 494 224 259 224 115C224 26 171 -11 108 -11C56 -11 31 20 31 82C31 120 31 196 42 264H108C64 157 55 119 55 92C55 65 70 57 108 57C141 57 149 77 149 103C149 216 6 501 6 617ZM127 750Z" glyph-name="Scedilla.2" horiz-adv-x="243" /><glyph d="M226 113C226 27 173 -10 110 -10C51 -10 23 21 23 83C23 147 25 220 34 275H106C61 189 42 127 42 95C42 66 61 58 110 58C143 58 151 78 151 104C151 235.7417 18 470.2818 18 614C18 703 71 740 134 740C186 740 211 709 211 647C211 609 211 533 200 465H134C179 574 192 610 192 637C192 664 176 672 134 672C101 672 93 652 93 626C93 513.2198 226 228.7743 226 113ZM127 750ZM118 0ZM131 795C131 771.9184 157.7907 756 227 756V762C184.4083 766.7324 163 789 163 830V850H119L121 795ZM124 795H134L136 850H92V830C92 789 70.5917 766.7324 28 762V756C97.2093 756 124 771.9184 124 795ZM127 760Z" glyph-name="Scircumflex" horiz-adv-x="243" unicode="&#348;" /><glyph d="M131 795C131 771.9184 157.7907 756 227 756V762C184.4083 766.7324 163 789 163 830V850H119L121 795ZM124 795H134L136 850H92V830C92 789 70.5917 766.7324 28 762V756C97.2093 756 124 771.9184 124 795ZM127 760ZM6 617C6 703 64 740 132 740C198 740 229 709 229 647C229 579.6667 221.4572 503.845 212 445H136C183.6237 537.2075 205 602.232 205 636C205 664 184 672 132 672C91 672 81 652 81 626C81 494 224 259 224 115C224 26 171 -11 108 -11C56 -11 31 20 31 82C31 120 31 196 42 264H108C64 157 55 119 55 92C55 65 70 57 108 57C141 57 149 77 149 103C149 216 6 501 6 617ZM127 750Z" glyph-name="Scircumflex.2" horiz-adv-x="243" /><glyph d="M163 730V0H88V730ZM5 730H246V665H5Z" glyph-name="T" horiz-adv-x="251" unicode="T" /><glyph d="M105 730V0H30V730ZM120 178C169 178 181 200 181 235V479C181 544 163 562 113 562C113 562 71 562 71 562V630H120C206 630 256 595 256 504V245C256 147 188 110 107 110C107 110 62 110 62 110V178Z" glyph-name="Thorn" horiz-adv-x="286" unicode="&#222;" /><glyph d="M181 730H256V125C256 27 202 -10 137 -10C68 -10 30 21 30 107V730H105V141C105 69 125 58 149 58C175 58 181 80 181 115ZM144 760ZM125 0Z" glyph-name="U" horiz-adv-x="286" unicode="U" /><glyph d="M181 730H256V125C256 27 202 -10 137 -10C68 -10 30 21 30 107V730H105V141C105 69 125 58 149 58C175 58 181 80 181 115ZM144 760ZM125 0ZM222 840V850H157L159 840C166 805 136 772 72 762V756C181 757 222 784 222 840ZM144 760Z" glyph-name="Uacute" horiz-adv-x="286" unicode="&#218;" /><glyph d="M181 730H256V125C256 27 202 -10 137 -10C68 -10 30 21 30 107V730H105V141C105 69 125 58 149 58C175 58 181 80 181 115ZM144 760ZM125 0ZM144 804C99.4103 804 75.9919 814.0486 70 850H64C65 777.0006 90.6667 756 144 756C197.3333 756 223 777.0006 224 850H218C212.0081 814.0486 188.5897 804 144 804ZM144 760Z" glyph-name="Ubreve" horiz-adv-x="286" unicode="&#364;" /><glyph d="M181 730H256V125C256 27 202 -10 137 -10C68 -10 30 21 30 107V730H105V141C105 69 125 58 149 58C175 58 181 80 181 115ZM144 760ZM125 0ZM148 795C148 771.9184 174.7907 756 244 756V762C201.4083 766.7324 180 789 180 830V850H136L138 795ZM141 795H151L153 850H109V830C109 789 87.5917 766.7324 45 762V756C114.2093 756 141 771.9184 141 795ZM144 760Z" glyph-name="Ucircumflex" horiz-adv-x="286" unicode="&#219;" /><glyph d="M181 730H256V125C256 27 202 -10 137 -10C68 -10 30 21 30 107V730H105V141C105 69 125 58 149 58C175 58 181 80 181 115ZM144 760ZM125 0ZM46 784H132V830H46ZM156 784H242V830H156ZM144 760Z" glyph-name="Udieresis" horiz-adv-x="286" unicode="&#220;" /><glyph d="M181 730H256V125C256 27 202 -10 137 -10C68 -10 30 21 30 107V730H105V141C105 69 125 58 149 58C175 58 181 80 181 115ZM144 760ZM125 0ZM64 840C64 784 105 757 214 756V762C150 772 120 805 127 840L129 850H64ZM144 760Z" glyph-name="Ugrave" horiz-adv-x="286" unicode="&#217;" /><glyph d="M181 730H256V125C256 27 202 -10 137 -10C68 -10 30 21 30 107V730H105V141C105 69 125 58 149 58C175 58 181 80 181 115ZM144 760ZM125 0ZM147 840V850H87L89 840C96 806 81 766 52 762V756C121 757 147 784 147 840ZM247 840V850H187L189 840C196 806 181 766 152 762V756C221 757 247 784 247 840ZM144 760Z" glyph-name="Uhungarumlaut" horiz-adv-x="286" unicode="&#368;" /><glyph d="M181 730H256V125C256 27 202 -10 137 -10C68 -10 30 21 30 107V730H105V141C105 69 125 58 149 58C175 58 181 80 181 115ZM144 760ZM125 0ZM46 784H242V830H46ZM144 760Z" glyph-name="Umacron" horiz-adv-x="286" unicode="&#362;" /><glyph d="M134 -21 128 -7 150 -2ZM181 730H256V125C256 27 202 -10 137 -10C68 -10 30 21 30 107V730H105V141C105 69 125 58 149 58C175 58 181 80 181 115ZM144 760ZM125 0ZM130 -130C109 -130 87 -116 87 -88C87 -59 104.0933 -37.68 141 -10L135 0H164C142.6053 -23.5341 133 -40 133 -54C133 -70 141 -75 154 -75C166 -75 179 -71 186 -67L191 -72C178 -99 153.8281 -130 130 -130ZM164 0ZM157 0Z" glyph-name="Uogonek" horiz-adv-x="286" unicode="&#370;" /><glyph d="M181 730H256V125C256 27 202 -10 137 -10C68 -10 30 21 30 107V730H105V141C105 69 125 58 149 58C175 58 181 80 181 115ZM144 760ZM125 0ZM144 783C127 783 118 793.8 118 810C118 826.2 127 837 144 837C161 837 170 826.2 170 810C170 793.8 161 783 144 783ZM144 756C190.4762 756 208 774 208 810C208 846 190.4762 864 144 864C97.5238 864 80 846 80 810C80 774 97.5238 756 144 756ZM144 760Z" glyph-name="Uring" horiz-adv-x="286" unicode="&#366;" /><glyph d="M181 730H256V125C256 27 202 -10 137 -10C68 -10 30 21 30 107V730H105V141C105 69 125 58 149 58C175 58 181 80 181 115ZM144 760ZM125 0ZM196 757C230 757 246 783 246 853H239C230 824 218 809 200 809C171 809 121 852 93 852C59 852 43 826 43 756H50C59 785 71 800 89 800C118 800 168 757 196 757ZM144 760Z" glyph-name="Utilde" horiz-adv-x="286" unicode="&#360;" /><glyph d="M84 730 124 419 143 219H154L150 0H122L0 730ZM188 730H278L150 0H122L154 219Z" glyph-name="V" horiz-adv-x="278" unicode="V" /><glyph d="M71 470 104 259 126 59H137L131 -130H110L-5 470ZM164 470H246L131 -130H110L137 59ZM375 600V0H300V600ZM217 600H453V535H217ZM567 105H492V730H567ZM544 413H638V391H544ZM503 665V730H665V665ZM0 730H453V705H0ZM186 -105H664V-130H186ZM414 25H664V0H414ZM0 600H451V575H0Z" glyph-name="VTF" horiz-adv-x="675" /><glyph d="M84 730 124 419 134 219H145L150 0H122L0 730ZM185 730H214L150 0H122L145 219ZM234 730 264 419 283 219H294L290 0H262L200 489H181L197 730ZM328 730H418L290 0H262L294 219Z" glyph-name="W" horiz-adv-x="418" unicode="W" /><glyph d="M287 730H375L251 0H123L140 70H229L243 319ZM90 730 143 70 251 0H123L0 730ZM144 730H229L201 69H173Z" glyph-name="W.2" horiz-adv-x="375" /><glyph d="M84 730 124 419 134 219H145L150 0H122L0 730ZM185 730H214L150 0H122L145 219ZM234 730 264 419 283 219H294L290 0H262L200 489H181L197 730ZM328 730H418L290 0H262L294 219ZM298 840V850H233L235 840C242 805 212 772 148 762V756C257 757 298 784 298 840ZM220 760Z" glyph-name="Wacute" horiz-adv-x="418" unicode="&#7810;" /><glyph d="M287 730H375L251 0H123L140 70H229L243 319ZM90 730 143 70 251 0H123L0 730ZM144 730H229L201 69H173ZM270 840V850H205L207 840C214 805 184 772 120 762V756C229 757 270 784 270 840ZM192 760Z" glyph-name="Wacute.2" horiz-adv-x="375" /><glyph d="M84 730 124 419 134 219H145L150 0H122L0 730ZM185 730H214L150 0H122L145 219ZM234 730 264 419 283 219H294L290 0H262L200 489H181L197 730ZM328 730H418L290 0H262L294 219ZM213 795C213 771.9184 239.7907 756 309 756V762C266.4083 766.7324 245 789 245 830V850H201L203 795ZM206 795H216L218 850H174V830C174 789 152.5917 766.7324 110 762V756C179.2093 756 206 771.9184 206 795ZM209 760Z" glyph-name="Wcircumflex" horiz-adv-x="418" unicode="&#372;" /><glyph d="M287 730H375L251 0H123L140 70H229L243 319ZM90 730 143 70 251 0H123L0 730ZM144 730H229L201 69H173ZM189 795C189 771.9184 215.7907 756 285 756V762C242.4083 766.7324 221 789 221 830V850H177L179 795ZM182 795H192L194 850H150V830C150 789 128.5917 766.7324 86 762V756C155.2093 756 182 771.9184 182 795ZM185 760Z" glyph-name="Wcircumflex.2" horiz-adv-x="375" /><glyph d="M84 730 124 419 134 219H145L150 0H122L0 730ZM185 730H214L150 0H122L145 219ZM234 730 264 419 283 219H294L290 0H262L200 489H181L197 730ZM328 730H418L290 0H262L294 219ZM111 784H197V830H111ZM221 784H307V830H221ZM209 760Z" glyph-name="Wdieresis" horiz-adv-x="418" unicode="&#7812;" /><glyph d="M287 730H375L251 0H123L140 70H229L243 319ZM90 730 143 70 251 0H123L0 730ZM144 730H229L201 69H173ZM87 784H173V830H87ZM197 784H283V830H197ZM185 760Z" glyph-name="Wdieresis.2" horiz-adv-x="375" /><glyph d="M84 730 124 419 134 219H145L150 0H122L0 730ZM185 730H214L150 0H122L145 219ZM234 730 264 419 283 219H294L290 0H262L200 489H181L197 730ZM328 730H418L290 0H262L294 219ZM140 840C140 784 181 757 290 756V762C226 772 196 805 203 840L205 850H140ZM220 760Z" glyph-name="Wgrave" horiz-adv-x="418" unicode="&#7808;" /><glyph d="M287 730H375L251 0H123L140 70H229L243 319ZM90 730 143 70 251 0H123L0 730ZM144 730H229L201 69H173ZM110 840C110 784 151 757 260 756V762C196 772 166 805 173 840L175 850H110ZM190 760Z" glyph-name="Wgrave.2" horiz-adv-x="375" /><glyph d="M84 0H0L116 441L115 328ZM124 328H115L4 730H88L121 580L145 451H156L265 0H181L148 169ZM179 730H263L152 336L156 451Z" glyph-name="X" horiz-adv-x="265" unicode="X" /><glyph d="M84 730 124 453 143 276H154L150 80H122L0 730ZM188 730H278L150 80H122L154 276ZM174 234V0H99V234ZM137 760Z" glyph-name="Y" horiz-adv-x="278" unicode="Y" /><glyph d="M84 730 124 453 143 276H154L150 80H122L0 730ZM188 730H278L150 80H122L154 276ZM174 234V0H99V234ZM137 760ZM215 840V850H150L152 840C159 805 129 772 65 762V756C174 757 215 784 215 840ZM137 760Z" glyph-name="Yacute" horiz-adv-x="278" unicode="&#221;" /><glyph d="M84 730 124 453 143 276H154L150 80H122L0 730ZM188 730H278L150 80H122L154 276ZM174 234V0H99V234ZM137 760ZM141 795C141 771.9184 167.7907 756 237 756V762C194.4083 766.7324 173 789 173 830V850H129L131 795ZM134 795H144L146 850H102V830C102 789 80.5917 766.7324 38 762V756C107.2093 756 134 771.9184 134 795ZM137 760Z" glyph-name="Ycircumflex" horiz-adv-x="278" unicode="&#374;" /><glyph d="M84 730 124 453 143 276H154L150 80H122L0 730ZM188 730H278L150 80H122L154 276ZM174 234V0H99V234ZM137 760ZM39 784H125V830H39ZM149 784H235V830H149ZM137 760Z" glyph-name="Ydieresis" horiz-adv-x="278" unicode="&#376;" /><glyph d="M84 730 124 453 143 276H154L150 80H122L0 730ZM188 730H278L150 80H122L154 276ZM174 234V0H99V234ZM137 760ZM57 840C57 784 98 757 207 756V762C143 772 113 805 120 840L122 850H57ZM137 760Z" glyph-name="Ygrave" horiz-adv-x="278" unicode="&#7922;" /><glyph d="M209 730 84 73 92 62 5 0 130 657 122 668ZM28 730H209L179 665H28ZM36 65H217V0H6ZM115 760Z" glyph-name="Z" horiz-adv-x="226" unicode="Z" /><glyph d="M25 346 158 657 150 668 226 730 121 414 133 399 72 346ZM45 730H226L186 665H45ZM80 65H228V0H30ZM12 0 127 338 119 349 223 405 80 74 92 59 59 0ZM62 405H223L183 346H62Z" glyph-name="Z.2" horiz-adv-x="243" /><glyph d="M209 730 84 73 92 62 5 0 130 657 122 668ZM28 730H209L179 665H28ZM36 65H217V0H6ZM115 760ZM193 840V850H128L130 840C137 805 107 772 43 762V756C152 757 193 784 193 840ZM115 760Z" glyph-name="Zacute" horiz-adv-x="226" unicode="&#377;" /><glyph d="M25 346 158 657 150 668 226 730 121 414 133 399 72 346ZM45 730H226L186 665H45ZM80 65H228V0H30ZM12 0 127 338 119 349 223 405 80 74 92 59 59 0ZM62 405H223L183 346H62ZM221 840V850H156L158 840C165 805 135 772 71 762V756C180 757 221 784 221 840ZM143 760Z" glyph-name="Zacute.2" horiz-adv-x="243" /><glyph d="M209 730 84 73 92 62 5 0 130 657 122 668ZM28 730H209L179 665H28ZM36 65H217V0H6ZM115 760ZM119 815H109L107 760H151V780C151 821 172 843 215 848V854C146 854 119 838 119 815ZM112 815C112 838 85 854 16 854V848C59 843 80 821 80 780V760H124L122 815ZM115 764Z" glyph-name="Zcaron" horiz-adv-x="226" unicode="&#381;" /><glyph d="M25 346 158 657 150 668 226 730 121 414 133 399 72 346ZM45 730H226L186 665H45ZM80 65H228V0H30ZM12 0 127 338 119 349 223 405 80 74 92 59 59 0ZM62 405H223L183 346H62ZM139 815H129L127 760H171V780C171 821 192 843 235 848V854C166 854 139 838 139 815ZM132 815C132 838 105 854 36 854V848C79 843 100 821 100 780V760H144L142 815ZM135 764Z" glyph-name="Zcaron.2" horiz-adv-x="243" /><glyph d="M209 730 84 73 92 62 5 0 130 657 122 668ZM28 730H209L179 665H28ZM36 65H217V0H6ZM115 760ZM62 784H168V835H62ZM115 745Z" glyph-name="Zdotaccent" horiz-adv-x="226" unicode="&#379;" /><glyph d="M25 346 158 657 150 668 226 730 121 414 133 399 72 346ZM45 730H226L186 665H45ZM80 65H228V0H30ZM12 0 127 338 119 349 223 405 80 74 92 59 59 0ZM62 405H223L183 346H62ZM81 780H187V831H81ZM134 741Z" glyph-name="Zdotaccent.2" horiz-adv-x="243" /><glyph d="M137 610C195 610 224 578.6173 224 528V118C224 64 234 58 245 58C254 58 261 64 262 97L265 272H279L282 101C283 38 273 -10 226 -10C185 -10 167 18.9995 179 161L169 163C154 14 129 -10 91 -10C53 -10 33 13 33 61V130C33 210.5538 75 243 154 317V502C154 533.7949 146 542 113 542C61.4483 542 48 520 48 485C48 443.1935 65.1608 405.8622 147 323H51C31.2096 370.9136 25 427.8611 25 474C25 537.4667 74 610 137 610ZM120 63C142 63 154 124 154 216V314L161 303C110.5998 255.5646 103 230.8655 103 187V87C103 69 110 63 120 63ZM136 640ZM238 0Z" glyph-name="a" horiz-adv-x="297" unicode="a" /><glyph d="M137 610C195 610 224 578.6173 224 528V118C224 64 234 58 245 58C254 58 261 64 262 97L265 272H279L282 101C283 38 273 -10 226 -10C185 -10 167 18.9995 179 161L169 163C154 14 129 -10 91 -10C53 -10 33 13 33 61V130C33 210.5538 75 243 154 317V502C154 533.7949 146 542 113 542C61.4483 542 48 520 48 485C48 443.1935 65.1608 405.8622 147 323H51C31.2096 370.9136 25 427.8611 25 474C25 537.4667 74 610 137 610ZM120 63C142 63 154 124 154 216V314L161 303C110.5998 255.5646 103 230.8655 103 187V87C103 69 110 63 120 63ZM136 640ZM238 0ZM214 720V730H149L151 720C158 685 128 652 64 642V636C173 637 214 664 214 720ZM136 640Z" glyph-name="aacute" horiz-adv-x="297" unicode="&#225;" /><glyph d="M137 610C195 610 224 578.6173 224 528V118C224 64 234 58 245 58C254 58 261 64 262 97L265 272H279L282 101C283 38 273 -10 226 -10C185 -10 167 18.9995 179 161L169 163C154 14 129 -10 91 -10C53 -10 33 13 33 61V130C33 210.5538 75 243 154 317V502C154 533.7949 146 542 113 542C61.4483 542 48 520 48 485C48 443.1935 65.1608 405.8622 147 323H51C31.2096 370.9136 25 427.8611 25 474C25 537.4667 74 610 137 610ZM120 63C142 63 154 124 154 216V314L161 303C110.5998 255.5646 103 230.8655 103 187V87C103 69 110 63 120 63ZM136 640ZM238 0ZM136 684C91.4103 684 67.9919 694.0486 62 730H56C57 657.0006 82.6667 636 136 636C189.3333 636 215 657.0006 216 730H210C204.0081 694.0486 180.5897 684 136 684ZM136 640Z" glyph-name="abreve" horiz-adv-x="297" unicode="&#259;" /><glyph d="M137 610C195 610 224 578.6173 224 528V118C224 64 234 58 245 58C254 58 261 64 262 97L265 272H279L282 101C283 38 273 -10 226 -10C185 -10 167 18.9995 179 161L169 163C154 14 129 -10 91 -10C53 -10 33 13 33 61V130C33 210.5538 75 243 154 317V502C154 533.7949 146 542 113 542C61.4483 542 48 520 48 485C48 443.1935 65.1608 405.8622 147 323H51C31.2096 370.9136 25 427.8611 25 474C25 537.4667 74 610 137 610ZM120 63C142 63 154 124 154 216V314L161 303C110.5998 255.5646 103 230.8655 103 187V87C103 69 110 63 120 63ZM136 640ZM238 0ZM140 675C140 651.9184 166.7907 636 236 636V642C193.4083 646.7324 172 669 172 710V730H128L130 675ZM133 675H143L145 730H101V710C101 669 79.5917 646.7324 37 642V636C106.2093 636 133 651.9184 133 675ZM136 640Z" glyph-name="acircumflex" horiz-adv-x="297" unicode="&#226;" /><glyph d="M214 720V730H149L151 720C158 685 128 652 64 642V636C173 637 214 664 214 720ZM136 640Z" glyph-name="acute" horiz-adv-x="250" unicode="&#180;" /><glyph d="M137 610C195 610 224 578.6173 224 528V118C224 64 234 58 245 58C254 58 261 64 262 97L265 272H279L282 101C283 38 273 -10 226 -10C185 -10 167 18.9995 179 161L169 163C154 14 129 -10 91 -10C53 -10 33 13 33 61V130C33 210.5538 75 243 154 317V502C154 533.7949 146 542 113 542C61.4483 542 48 520 48 485C48 443.1935 65.1608 405.8622 147 323H51C31.2096 370.9136 25 427.8611 25 474C25 537.4667 74 610 137 610ZM120 63C142 63 154 124 154 216V314L161 303C110.5998 255.5646 103 230.8655 103 187V87C103 69 110 63 120 63ZM136 640ZM238 0ZM38 664H124V710H38ZM148 664H234V710H148ZM136 640Z" glyph-name="adieresis" horiz-adv-x="297" unicode="&#228;" /><glyph d="M202 332V346H326V332ZM120 63C142 63 154 124 154 216V314L161 303C111 256 103 231 103 187V87C103 69 110 63 120 63ZM273 610C315 610 344 579 344 493V332H284V460C284 532 273 542 253 542C229 542 224 520 224 485V141C224 69 250 58 278 58C308 58 321 96 323 160L326 277H340L343 157C345 62 313 -10 246 -10C192 -10 170 19 179 161H169C154.0863 13.8517 129 -10 91 -10C53 -10 33 13 33 61V130C33 211 75 243 154 317V502C154 534 146 542 113 542C67 542 55 520 55 485C55 443.4516 68.4763 403.5435 147 324H51C31.3217 371.6421 25 428.1667 25 474C25 537 74 610 137 610C179.3281 610 200 579 200 528V475H209C209 573 231 610 273 610ZM136 640ZM238 0Z" glyph-name="ae" horiz-adv-x="379" unicode="&#230;" /><glyph d="M137 610C195 610 224 578.6173 224 528V118C224 64 234 58 245 58C254 58 261 64 262 97L265 272H279L282 101C283 38 273 -10 226 -10C185 -10 167 18.9995 179 161L169 163C154 14 129 -10 91 -10C53 -10 33 13 33 61V130C33 210.5538 75 243 154 317V502C154 533.7949 146 542 113 542C61.4483 542 48 520 48 485C48 443.1935 65.1608 405.8622 147 323H51C31.2096 370.9136 25 427.8611 25 474C25 537.4667 74 610 137 610ZM120 63C142 63 154 124 154 216V314L161 303C110.5998 255.5646 103 230.8655 103 187V87C103 69 110 63 120 63ZM136 640ZM238 0ZM56 720C56 664 97 637 206 636V642C142 652 112 685 119 720L121 730H56ZM136 640Z" glyph-name="agrave" horiz-adv-x="297" unicode="&#224;" /><glyph d="M137 610C195 610 224 578.6173 224 528V118C224 64 234 58 245 58C254 58 261 64 262 97L265 272H279L282 101C283 38 273 -10 226 -10C185 -10 167 18.9995 179 161L169 163C154 14 129 -10 91 -10C53 -10 33 13 33 61V130C33 210.5538 75 243 154 317V502C154 533.7949 146 542 113 542C61.4483 542 48 520 48 485C48 443.1935 65.1608 405.8622 147 323H51C31.2096 370.9136 25 427.8611 25 474C25 537.4667 74 610 137 610ZM120 63C142 63 154 124 154 216V314L161 303C110.5998 255.5646 103 230.8655 103 187V87C103 69 110 63 120 63ZM136 640ZM238 0ZM38 664H234V710H38ZM136 640Z" glyph-name="amacron" horiz-adv-x="297" unicode="&#257;" /><glyph d="M210 271H203L188 374L122 615C112 650 130 672 164 672C210 672 234 664 234 642C234 623 220 596 160 490H195C234 490 249 473 236 406ZM246 490C252 561 253 611.2278 253 647C253 709 224 740 164 740C101 740 23 702 48 605L94 430L127 398L122 392C106 407 96 410 81 410C46 410 20 366 20 261V71C20 21 51 -10 94 -10C136 -10 176 14 197 165L183 218C183 126 155 58 128 58C104 58 92 74 92 110V267C92 335 98 346 110 346C122 346 131 338 143 326L110 368L179 107H196C190 21 219 -10 262 -10C317 -10 336.3551 62.0111 334 157L331 278H317L314 160C312.3729 95.9991 306.5517 58 290 58C271.4634 58 270.4763 72.227 252 141L234 208C224 246 232 278 245 330C259.9339 388.7402 277 413 310 422L332 428V490Z" glyph-name="ampersand" horiz-adv-x="349" unicode="&amp;" /><glyph d="M226 -19 220 -5 242 0ZM137 610C195 610 224 578.6173 224 528V118C224 64 234 58 245 58C254 58 261 64 262 97L265 272H279L282 101C283 38 273 -10 226 -10C185 -10 167 18.9995 179 161L169 163C154 14 129 -10 91 -10C53 -10 33 13 33 61V130C33 210.5538 75 243 154 317V502C154 533.7949 146 542 113 542C61.4483 542 48 520 48 485C48 443.1935 65.1608 405.8622 147 323H51C31.2096 370.9136 25 427.8611 25 474C25 537.4667 74 610 137 610ZM120 63C142 63 154 124 154 216V314L161 303C110.5998 255.5646 103 230.8655 103 187V87C103 69 110 63 120 63ZM136 640ZM238 0ZM222 -130C201 -130 179 -116 179 -88C179 -59 196.0933 -37.68 233 -10L227 0H256C234.6053 -23.5341 225 -40 225 -54C225 -70 233 -75 246 -75C258 -75 271 -71 278 -67L283 -72C270 -99 245.8281 -130 222 -130ZM256 0ZM249 0Z" glyph-name="aogonek" horiz-adv-x="297" unicode="&#261;" /><glyph d="M137 610C195 610 224 578.6173 224 528V118C224 64 234 58 245 58C254 58 261 64 262 97L265 272H279L282 101C283 38 273 -10 226 -10C185 -10 167 18.9995 179 161L169 163C154 14 129 -10 91 -10C53 -10 33 13 33 61V130C33 210.5538 75 243 154 317V502C154 533.7949 146 542 113 542C61.4483 542 48 520 48 485C48 443.1935 65.1608 405.8622 147 323H51C31.2096 370.9136 25 427.8611 25 474C25 537.4667 74 610 137 610ZM120 63C142 63 154 124 154 216V314L161 303C110.5998 255.5646 103 230.8655 103 187V87C103 69 110 63 120 63ZM136 640ZM238 0ZM136 663C119 663 110 673.8 110 690C110 706.2 119 717 136 717C153 717 162 706.2 162 690C162 673.8 153 663 136 663ZM136 636C182.4762 636 200 654 200 690C200 726 182.4762 744 136 744C89.5238 744 72 726 72 690C72 654 89.5238 636 136 636ZM136 640Z" glyph-name="aring" horiz-adv-x="297" unicode="&#229;" /><glyph d="M129 335C129 246.8163 153 186 215 186V192C174.9774 196.1049 158 256.2353 158 360V480H117L119 335ZM122 335H132L134 480H93V360C93 263.6471 76.0226 196.1049 36 192V186C98 186 122 246.8163 122 335Z" glyph-name="asciicircum" horiz-adv-x="250" unicode="^" /><glyph d="M237 392H231C228 372 207 357 187 357C154 357 99 391 67 391C31 391 14 365 13 296H20C23 315 44 330 64 330C97 330 151 296 184 296C220 296 237 322 237 392Z" glyph-name="asciitilde" horiz-adv-x="250" unicode="~" /><glyph d="M120 642 154 728 146 735 114 715 82 735 74 728 108 642ZM106 640 34 699 25 694 34 657 5 633 10 623 102 629ZM103 626 24 576 26 566 64 563 78 528 88 529 112 618ZM122 640 126 629 218 623 223 633 194 657 203 694 194 699ZM125 626 116 618 140 529 150 528 164 563 202 566 204 576ZM114 653V614H125L132 638ZM114 653 96 638 103 614H114Z" glyph-name="asterisk" horiz-adv-x="228" unicode="*" /><glyph d="M241 446V110C241 74 250 58 267 58C289 58 312 126 312 218V526C299 539 285 546 269 546C250 546 241 532 241 446ZM414 -10C355 -10 315 12 327 98L336 163L326 165C305 15 271 -10 233 -10C196 -10 169 21 169 71V440C169 560 198 610 262 610C304 610 343 586 373 551L382 553L388 600H402L382 436V121C382 72 393 50 422 50C440 50 457 74 457 133V540C457 660 385 681 278 681C148 681 99 649 99 551V48C99 -47 165 -71 237 -71C315 -71 378 -67 462 -46L464 -58C355 -81 303 -130 210 -130C115 -130 35 -96 35 48V530C35 693 114 740 282 740C456 740 522 695 522 545V166C522 41 476 -10 414 -10Z" glyph-name="at" horiz-adv-x="557" unicode="@" /><glyph d="M137 610C195 610 224 578.6173 224 528V118C224 64 234 58 245 58C254 58 261 64 262 97L265 272H279L282 101C283 38 273 -10 226 -10C185 -10 167 18.9995 179 161L169 163C154 14 129 -10 91 -10C53 -10 33 13 33 61V130C33 210.5538 75 243 154 317V502C154 533.7949 146 542 113 542C61.4483 542 48 520 48 485C48 443.1935 65.1608 405.8622 147 323H51C31.2096 370.9136 25 427.8611 25 474C25 537.4667 74 610 137 610ZM120 63C142 63 154 124 154 216V314L161 303C110.5998 255.5646 103 230.8655 103 187V87C103 69 110 63 120 63ZM136 640ZM238 0ZM188 637C222 637 238 663 238 733H231C222 704 210 689 192 689C163 689 113 732 85 732C51 732 35 706 35 636H42C51 665 63 680 81 680C110 680 160 637 188 637ZM136 640Z" glyph-name="atilde" horiz-adv-x="297" unicode="&#227;" /><glyph d="M186 154V490C186 526 177 542 160 542C138 542 115 474.2699 115 382V74C127.6943 61.3057 142 54 158 54C177 54 186 68 186 154ZM258 160C258 40 229 -10 165 -10C124.5135 -10 86 13 58 49L49 47L43 0H25L45 164V730H114V589L91 437L101 435C121.6527 585.4694 156 610 194 610C231 610 258 579 258 529Z" glyph-name="b" horiz-adv-x="293" unicode="b" /><glyph d="M0 730 175 0H231L81 730Z" glyph-name="backslash" horiz-adv-x="231" unicode="\" /><glyph d="M135 21C135 -51 147 -62 179 -62V-130C105 -130 65 -99 65 -13V215C65 264 51 290 18 290H0V310H18C51 310 65 336 65 385V613C65 699 105 730 179 730V662C147 662 135 651 135 579V445C135 352 110 315 60 306V294C110 285 135 248 135 155Z" glyph-name="braceleft" horiz-adv-x="184" unicode="{" /><glyph d="M135 86C135 14 147 3 179 3V-65C105 -65 65 -34 65 52V280C65 329 51 355 18 355H0V375H18C51 375 65 401 65 450V678C65 764 105 795 179 795V727C147 727 135 716 135 644V510C135 417 110 380 60 371V359C110 350 135 313 135 220Z" glyph-name="braceleft.cap" horiz-adv-x="184" /><glyph d="M49 21C49 -51 37 -62 5 -62V-130C79 -130 119 -99 119 -13V215C119 264 133 290 166 290H184V310H166C133 310 119 336 119 385V613C119 699 79 730 5 730V662C37 662 49 651 49 579V445C49 352 74 315 124 306V294C74 285 49 248 49 155Z" glyph-name="braceright" horiz-adv-x="184" unicode="}" /><glyph d="M49 86C49 14 37 3 5 3V-65C79 -65 119 -34 119 52V280C119 329 133 355 166 355H184V375H166C133 375 119 401 119 450V678C119 764 79 795 5 795V727C37 727 49 716 49 644V510C49 417 74 380 124 371V359C74 350 49 313 49 220Z" glyph-name="braceright.cap" horiz-adv-x="184" /><glyph d="M30 730V-130H144V-62H100V662H144V730Z" glyph-name="bracketleft" horiz-adv-x="149" unicode="[" /><glyph d="M30 795V-65H144V3H100V727H144V795Z" glyph-name="bracketleft.cap" horiz-adv-x="149" /><glyph d="M119 730V-130H5V-62H49V662H5V730Z" glyph-name="bracketright" horiz-adv-x="149" unicode="]" /><glyph d="M119 795V-65H5V3H49V727H5V795Z" glyph-name="bracketright.cap" horiz-adv-x="149" /><glyph d="M125 684C80.4103 684 56.9919 694.0486 51 730H45C46 657.0006 71.6667 636 125 636C178.3333 636 204 657.0006 205 730H199C193.0081 694.0486 169.5897 684 125 684ZM125 640Z" glyph-name="breve" horiz-adv-x="250" unicode="&#728;" /><glyph d="M20 275H156V386H20Z" glyph-name="bullet" horiz-adv-x="176" unicode="&#8226;" /><glyph d="M20 318H156V429H20Z" glyph-name="bullet.cap" horiz-adv-x="176" /><glyph d="M195 515C195 534 179 542 141 542C111 542 105 520 105 484V141C105 69 126 58 149 58C172 58 182 96 184 160L187 278H201L204 157C206 62 177 -10 117 -10C63 -10 35 21 35 107V474C35 573 82 610 137 610C189 610 214 579 214 516C214 490 211 423 194 334H118C178 451 195 489 195 515ZM136 640ZM125 0Z" glyph-name="c" horiz-adv-x="244" unicode="c" /><glyph d="M195 515C195 534 179 542 141 542C111 542 105 520 105 484V141C105 69 126 58 149 58C172 58 182 96 184 160L187 278H201L204 157C206 62 177 -10 117 -10C63 -10 35 21 35 107V474C35 573 82 610 137 610C189 610 214 579 214 516C214 490 211 423 194 334H118C178 451 195 489 195 515ZM136 640ZM125 0ZM207 720V730H142L144 720C151 685 121 652 57 642V636C166 637 207 664 207 720ZM129 640Z" glyph-name="cacute" horiz-adv-x="244" unicode="&#263;" /><glyph d="M129 691H119L117 636H161V656C161 697 182 719 225 724V730C156 730 129 714 129 691ZM122 691C122 714 95 730 26 730V724C69 719 90 697 90 656V636H134L132 691ZM125 640Z" glyph-name="caron" horiz-adv-x="250" unicode="&#711;" /><glyph d="M212 720V730H149L151 720C172 615 165 579 144 546L149 541C193.317 578.2665 212 625.5278 212 720ZM136 640Z" glyph-name="caron_vert" horiz-adv-x="250" /><glyph d="M195 515C195 534 179 542 141 542C111 542 105 520 105 484V141C105 69 126 58 149 58C172 58 182 96 184 160L187 278H201L204 157C206 62 177 -10 117 -10C63 -10 35 21 35 107V474C35 573 82 610 137 610C189 610 214 579 214 516C214 490 211 423 194 334H118C178 451 195 489 195 515ZM136 640ZM125 0ZM133 691H123L121 636H165V656C165 697 186 719 229 724V730C160 730 133 714 133 691ZM126 691C126 714 99 730 30 730V724C73 719 94 697 94 656V636H138L136 691ZM129 640Z" glyph-name="ccaron" horiz-adv-x="244" unicode="&#269;" /><glyph d="M195 515C195 534 179 542 141 542C111 542 105 520 105 484V141C105 69 126 58 149 58C172 58 182 96 184 160L187 278H201L204 157C206 62 177 -10 117 -10C63 -10 35 21 35 107V474C35 573 82 610 137 610C189 610 214 579 214 516C214 490 211 423 194 334H118C178 451 195 489 195 515ZM136 640ZM125 0ZM126 -130C95 -130 79 -109 70 -92L74 -87C82 -93 87.9286 -97 104 -97C120 -97 128 -85 128 -74C128 -61 122 -53 112 -53C104.4 -53 100 -56 93 -62L87 -57L110 -12L90 4H133L113 -35L117 -38C123 -36 130 -35 136 -35C159 -35 178 -47 178 -75C178 -107 154 -130 126 -130ZM118 0Z" glyph-name="ccedilla" horiz-adv-x="244" unicode="&#231;" /><glyph d="M195 515C195 534 179 542 141 542C111 542 105 520 105 484V141C105 69 126 58 149 58C172 58 182 96 184 160L187 278H201L204 157C206 62 177 -10 117 -10C63 -10 35 21 35 107V474C35 573 82 610 137 610C189 610 214 579 214 516C214 490 211 423 194 334H118C178 451 195 489 195 515ZM136 640ZM125 0ZM133 675C133 651.9184 159.7907 636 229 636V642C186.4083 646.7324 165 669 165 710V730H121L123 675ZM126 675H136L138 730H94V710C94 669 72.5917 646.7324 30 642V636C99.2093 636 126 651.9184 126 675ZM129 640Z" glyph-name="ccircumflex" horiz-adv-x="244" unicode="&#265;" /><glyph d="M195 515C195 534 179 542 141 542C111 542 105 520 105 484V141C105 69 126 58 149 58C172 58 182 96 184 160L187 278H201L204 157C206 62 177 -10 117 -10C63 -10 35 21 35 107V474C35 573 82 610 137 610C189 610 214 579 214 516C214 490 211 423 194 334H118C178 451 195 489 195 515ZM136 640ZM125 0ZM76 679H182V730H76ZM129 640Z" glyph-name="cdotaccent" horiz-adv-x="244" unicode="&#267;" /><glyph d="M133 -130C102 -130 86 -109 77 -92L81 -87C89 -93 94.9286 -97 111 -97C127 -97 135 -85 135 -74C135 -61 129 -53 119 -53C111.4 -53 107 -56 100 -62L94 -57L117 -12L97 4H140L120 -35L124 -38C130 -36 137 -35 143 -35C166 -35 185 -47 185 -75C185 -107 161 -130 133 -130ZM125 0Z" glyph-name="cedilla" horiz-adv-x="250" unicode="&#184;" /><glyph d="M129 675C129 651.9184 155.7907 636 225 636V642C182.4083 646.7324 161 669 161 710V730H117L119 675ZM122 675H132L134 730H90V710C90 669 68.5917 646.7324 26 642V636C95.2093 636 122 651.9184 122 675ZM125 640Z" glyph-name="circumflex" horiz-adv-x="250" unicode="&#710;" /><glyph d="M25 120H121V191H25ZM25 409H121V480H25Z" glyph-name="colon" horiz-adv-x="146" unicode=":" /><glyph d="M22 0H111V71H22ZM111 0 92 1C95 -27 81 -60 20 -61L24 -119C98 -125 112 -97 111 0Z" glyph-name="comma" horiz-adv-x="136" unicode="," /><glyph d="M107 446V110C107 74 116 58 133 58C155 58 178 126 178 218V526C165 539 151 546 135 546C116 546 107 532 107 446ZM35 440C35 560 64 610 128 610C153 610 175 597 197 577L203 583L178 609V730H248V0H179V11L202 163L192 165C171 15 137 -10 99 -10C62 -10 35 21 35 71Z" glyph-name="d" horiz-adv-x="283" unicode="d" /><glyph d="M159 542 196 728 188 735 151 715 114 735 106 728 143 542ZM143 516 106 2 114 -5 151 15 188 -5 196 2 159 516ZM138 537 22 572 15 564 35 529 15 494 22 486 138 521ZM164 537V521L280 486L287 494L267 529L287 564L280 572ZM143 542 138 537V521L143 516H159L164 521V537L159 542Z" glyph-name="dagger" horiz-adv-x="302" unicode="&#8224;" /><glyph d="M159 492 196 728 188 735 151 715 114 735 106 728 143 492ZM138 487 22 522 15 514 35 479 15 444 22 436 138 471ZM164 487V471L280 436L287 444L267 479L287 514L280 522ZM143 492 138 487V471L143 466H159L164 471V487L159 492ZM159 238H143L106 2L114 -5L151 15L188 -5L196 2ZM138 243V259L22 294L15 286L35 251L15 216L22 208ZM164 243 280 208 287 216 267 251 287 286 280 294 164 259ZM143 238H159L164 243V259L159 264H143L138 259V243ZM143 264H159V466H143Z" glyph-name="daggerdbl" horiz-adv-x="302" unicode="&#8225;" /><glyph d="M107 446V110C107 74 116 58 133 58C155 58 178 126 178 218V526C165 539 151 546 135 546C116 546 107 532 107 446ZM35 440C35 560 64 610 128 610C153 610 175 597 197 577L203 583L178 609V730H248V0H179V11L202 163L192 165C171 15 137 -10 99 -10C62 -10 35 21 35 71ZM347 720V730H284L286 720C307 615 300 579 279 546L284 541C328.317 578.2665 347 625.5278 347 720ZM271 640Z" glyph-name="dcaron" horiz-adv-x="357" unicode="&#271;" /><glyph d="M110 539C165 539 211 584 211 639C211 694 165 740 110 740C55 740 10 694 10 639C10 584 55 539 110 539ZM110 571C73.4627 571 42 602 42 639C42 677.5507 73 709 110 709C147.5441 709 179 678 179 639C179 602 147.5441 571 110 571Z" glyph-name="degree" horiz-adv-x="221" unicode="&#176;" /><glyph d="M27 664H113V710H27ZM137 664H223V710H137ZM125 640Z" glyph-name="dieresis" horiz-adv-x="250" unicode="&#168;" /><glyph d="M150 367H130V760H150ZM109 -34H89V359H109ZM226 113C226 27 173 -10 110 -10C51 -10 23 21 23 83C23 147 25 220 34 275H106L92 226H82C55 165 42 121.2 42 95C42 66 61 58 110 58C143 58 151 78 151 104C151 161 121 246 116 314H105L96 321C60 425 18 533 18 614C18 703 71 740 134 740C186 740 211 709 211 647C211 609 211 533 200 465H134L147 518H157C175 559 192 615 192 637C192 664 176 672 134 672C101 672 93 652 93 626C93 578 119 494 122 420H132L148 406C185 295 226 178 226 113Z" glyph-name="dollar" horiz-adv-x="243" unicode="$" /><glyph d="M72 679H178V730H72ZM125 640Z" glyph-name="dotaccent" horiz-adv-x="250" unicode="&#729;" /><glyph d="M105 600V0H35V600ZM75 637Z" glyph-name="dotlessi" horiz-adv-x="140" unicode="&#305;" /><glyph d="M35 -29V600H105V137C105 -22 13 -130 -76 -130H-89V-43C-71 -51 -45 -57 -13 -57C16 -57 35 -51 35 -29Z" glyph-name="dotlessj" horiz-adv-x="140" unicode="&#567;" /><glyph d="M165 459C165 532 154 542 134 542C110 542 105 520 105 484V141C105 69 131 58 159 58C189 58 202 96 204 160L207 277H221L224 157C226 62 194 -10 127 -10C66 -10 35 21 35 107V474C35 573 81 610 141 610C196 610 225 579 225 492V332H165ZM81 332V346H205V332ZM143 640ZM165 0Z" glyph-name="e" horiz-adv-x="260" unicode="e" /><glyph d="M165 459C165 532 154 542 134 542C110 542 105 520 105 484V141C105 69 131 58 159 58C189 58 202 96 204 160L207 277H221L224 157C226 62 194 -10 127 -10C66 -10 35 21 35 107V474C35 573 81 610 141 610C196 610 225 579 225 492V332H165ZM81 332V346H205V332ZM143 640ZM165 0ZM214 720V730H149L151 720C158 685 128 652 64 642V636C173 637 214 664 214 720ZM136 640Z" glyph-name="eacute" horiz-adv-x="260" unicode="&#233;" /><glyph d="M165 459C165 532 154 542 134 542C110 542 105 520 105 484V141C105 69 131 58 159 58C189 58 202 96 204 160L207 277H221L224 157C226 62 194 -10 127 -10C66 -10 35 21 35 107V474C35 573 81 610 141 610C196 610 225 579 225 492V332H165ZM81 332V346H205V332ZM143 640ZM165 0ZM136 684C91.4103 684 67.9919 694.0486 62 730H56C57 657.0006 82.6667 636 136 636C189.3333 636 215 657.0006 216 730H210C204.0081 694.0486 180.5897 684 136 684ZM136 640Z" glyph-name="ebreve" horiz-adv-x="260" unicode="&#277;" /><glyph d="M165 459C165 532 154 542 134 542C110 542 105 520 105 484V141C105 69 131 58 159 58C189 58 202 96 204 160L207 277H221L224 157C226 62 194 -10 127 -10C66 -10 35 21 35 107V474C35 573 81 610 141 610C196 610 225 579 225 492V332H165ZM81 332V346H205V332ZM143 640ZM165 0ZM140 691H130L128 636H172V656C172 697 193 719 236 724V730C167 730 140 714 140 691ZM133 691C133 714 106 730 37 730V724C80 719 101 697 101 656V636H145L143 691ZM136 640Z" glyph-name="ecaron" horiz-adv-x="260" unicode="&#283;" /><glyph d="M165 459C165 532 154 542 134 542C110 542 105 520 105 484V141C105 69 131 58 159 58C189 58 202 96 204 160L207 277H221L224 157C226 62 194 -10 127 -10C66 -10 35 21 35 107V474C35 573 81 610 141 610C196 610 225 579 225 492V332H165ZM81 332V346H205V332ZM143 640ZM165 0ZM140 675C140 651.9184 166.7907 636 236 636V642C193.4083 646.7324 172 669 172 710V730H128L130 675ZM133 675H143L145 730H101V710C101 669 79.5917 646.7324 37 642V636C106.2093 636 133 651.9184 133 675ZM136 640Z" glyph-name="ecircumflex" horiz-adv-x="260" unicode="&#234;" /><glyph d="M165 459C165 532 154 542 134 542C110 542 105 520 105 484V141C105 69 131 58 159 58C189 58 202 96 204 160L207 277H221L224 157C226 62 194 -10 127 -10C66 -10 35 21 35 107V474C35 573 81 610 141 610C196 610 225 579 225 492V332H165ZM81 332V346H205V332ZM143 640ZM165 0ZM38 664H124V710H38ZM148 664H234V710H148ZM136 640Z" glyph-name="edieresis" horiz-adv-x="260" unicode="&#235;" /><glyph d="M165 459C165 532 154 542 134 542C110 542 105 520 105 484V141C105 69 131 58 159 58C189 58 202 96 204 160L207 277H221L224 157C226 62 194 -10 127 -10C66 -10 35 21 35 107V474C35 573 81 610 141 610C196 610 225 579 225 492V332H165ZM81 332V346H205V332ZM143 640ZM165 0ZM83 679H189V730H83ZM136 640Z" glyph-name="edotaccent" horiz-adv-x="260" unicode="&#279;" /><glyph d="M165 459C165 532 154 542 134 542C110 542 105 520 105 484V141C105 69 131 58 159 58C189 58 202 96 204 160L207 277H221L224 157C226 62 194 -10 127 -10C66 -10 35 21 35 107V474C35 573 81 610 141 610C196 610 225 579 225 492V332H165ZM81 332V346H205V332ZM143 640ZM165 0ZM56 720C56 664 97 637 206 636V642C142 652 112 685 119 720L121 730H56ZM136 640Z" glyph-name="egrave" horiz-adv-x="260" unicode="&#232;" /><glyph d="M250 623V525C250 436 221 397 163 386V362L142 361L135 398H145C171.8333 398 180 421 180 465V592C180 664 163 675 145 675C117 675 110 653 110 617V465C110 421 118.1667 398 145 398H155L148 361L127 362V386C69 397 40 436 40 525V604C37 702 89 740 152 740C216 740 250 709 250 623ZM25 107V235C25 302.8592 33.7311 360.8079 62 381L127 376V397L145 398L155 361H142C108.4286 361 95 340 95 295V138C95 66 121 55 152 55C187 55 195 77 195 113V295C195 340 181.5714 361 148 361H135L145 398L163 397V376L228 381C256.2689 360.8079 265 302.8592 265 235V126C269 28 210 -10 140 -10C66 -10 25 21 25 107Z" glyph-name="eight" horiz-adv-x="290" unicode="8" /><glyph d="M250 623V525C250 431 221 391 163 384V362L142 361L135 398H145C168 398 175 421 175 465V589C175 661 160 672 145 672C121 672 115 650 115 614V465C115 421 122 398 145 398H155L148 361L127 362V384C69 391 40 431 40 525V604C37 702 89 740 152 740C216 740 250 709 250 623ZM25 107V235C25 301 34 357 62 377C83 373 103 372 127 376V397L145 398L155 361H142C112 361 100 340 100 295V141C100 69 124 58 152 58C183 58 190 80 190 116V295C190 340 178 361 148 361H135L145 398L163 397V376C187 372 207 373 228 377C256 357 265 301 265 235V126C269 28 210 -10 140 -10C66 -10 25 21 25 107Z" glyph-name="eight.LP" horiz-adv-x="290" /><glyph d="M20 0H116V71H20ZM166 0H262V71H166ZM312 0H408V71H312Z" glyph-name="ellipsis" horiz-adv-x="428" unicode="&#8230;" /><glyph d="M165 459C165 532 154 542 134 542C110 542 105 520 105 484V141C105 69 131 58 159 58C189 58 202 96 204 160L207 277H221L224 157C226 62 194 -10 127 -10C66 -10 35 21 35 107V474C35 573 81 610 141 610C196 610 225 579 225 492V332H165ZM81 332V346H205V332ZM143 640ZM165 0ZM38 664H234V710H38ZM136 640Z" glyph-name="emacron" horiz-adv-x="260" unicode="&#275;" /><glyph d="M20 314V347H930V314Z" glyph-name="emdash" horiz-adv-x="950" unicode="&#8212;" /><glyph d="M20 357V390H930V357Z" glyph-name="emdash.cap" horiz-adv-x="950" /><glyph d="M20 314V347H455V314Z" glyph-name="endash" horiz-adv-x="475" unicode="&#8211;" /><glyph d="M20 357V390H455V357Z" glyph-name="endash.cap" horiz-adv-x="475" /><glyph d="M134 -21 128 -7 150 -2ZM132 -130C111 -130 89 -116 89 -88C89 -59 106.0933 -37.68 143 -10L137 0H166C144.6053 -23.5341 135 -40 135 -54C135 -70 143 -75 156 -75C168 -75 181 -71 188 -67L193 -72C180 -99 155.8281 -130 132 -130ZM166 0ZM159 0ZM165 459C165 532 154 542 134 542C110 542 105 520 105 484V141C105 69 131 58 159 58C189 58 202 96 204 160L207 277H221L224 157C226 62 194 -10 127 -10C66 -10 35 21 35 107V474C35 573 81 610 141 610C196 610 225 579 225 492V332H165ZM81 332V346H205V332ZM143 640ZM165 0Z" glyph-name="eogonek" horiz-adv-x="260" unicode="&#281;" /><glyph d="M30 224V289L268 257V244ZM30 404V417L268 437V372Z" glyph-name="equal" horiz-adv-x="298" unicode="=" /><glyph d="M107 446V141C107 69 126 58 148 58C172 58 178 80 178 115V526C165 539 151 546 135 546C116 546 107 532 107 446ZM35 440C35 560 64 610 128 610C153 610 175 597 197 577L203 583L178 609C178 671 132 721 68 743V750H156C212 730 248 661 248 561V125C248 27 197 -10 136 -10C71 -10 35 21 35 107ZM72 647V666L260 745V726ZM125 0Z" glyph-name="eth" horiz-adv-x="283" unicode="&#240;" /><glyph d="M25 730 60 70H76L111 730ZM20 0H116V71H20Z" glyph-name="exclam" horiz-adv-x="136" unicode="!" /><glyph d="M111 -130 76 530H60L25 -130ZM116 600H20V529H116Z" glyph-name="exclamdown" horiz-adv-x="136" unicode="&#161;" /><glyph d="M111 0 76 660H60L25 0ZM116 730H20V659H116Z" glyph-name="exclamdown.cap" horiz-adv-x="136" /><glyph d="M121 629V0H51V509C51 621.8918 143 730 232 730H245V643C227 651 201 657 169 657C140 657 121 651.1053 121 629ZM51 549H8V600H121H209V549H121Z" glyph-name="f" horiz-adv-x="199" unicode="f" /><glyph d="M51 549H8V600H121H209V549H121L51 452ZM121 618V0H51V510C51 657 173 740 323 740C357 740 382 737 405 732V653C373 667 326 672 243 672C146 672 121 658 121 618Z" glyph-name="f.2" horiz-adv-x="199" /><glyph d="M121 629V0H51V509C51 621.8918 143 730 232 730H245V643C227 651 201 657 169 657C140 657 121 651.1053 121 629ZM51 549H8V600H121H209V549H121ZM281 629V0H211V509C211 621.8918 303 730 392 730H405V643C387 651 361 657 329 657C300 657 281 651.1053 281 629ZM211 549H168V600H281H369V549H281Z" glyph-name="f_f" horiz-adv-x="359" unicode="&#64256;" /><glyph d="M280 609V0H210V489C210 638.7849 309 730 419 730H434V639C411 650 385 657 352 657C307 657 280 642.931 280 609ZM433 600V0H363V600ZM210 549H167V600H280H338V549H280ZM121 629V0H51V509C51 621.8918 143 730 232 730H245V643C227 651 201 657 169 657C140 657 121 651.1053 121 629ZM51 549H8V600H121H209V549H121Z" glyph-name="f_f_i" horiz-adv-x="469" unicode="&#64259;" /><glyph d="M290 629V0H220V509C220 622 297.2597 730 372 730H385V660C374 665 358 667 338 667C309 667 290 658.8571 290 629ZM220 549H177V600H290H348V549H290ZM443 730V0H373V730ZM121 629V0H51V509C51 621.8918 143 730 232 730H245V643C227 651 201 657 169 657C140 657 121 651.1053 121 629ZM51 549H8V600H121H209V549H121Z" glyph-name="f_f_l" horiz-adv-x="478" unicode="&#64260;" /><glyph d="M121 609V0H51V489C51 638.7849 150 730 260 730H275V639C252 650 226 657 193 657C148 657 121 642.931 121 609ZM274 600V0H204V600ZM51 549H8V600H121H179V549H121Z" glyph-name="fi" horiz-adv-x="319" unicode="&#64257;" /><glyph d="M41 600H216V535H41ZM214 307V6C214 -92 176 -130 117 -130C52 -130 26 -58 28 37L31 158H45L48 40C50 -24 58 -62 101 -62C127 -62 144 -44 144 31V268C144 304 139 320 120 320C88 320 63 265 45 188H30V600H100V387L65 309L73 304C106 369 129 388 162 388C189.3684 388 214 357 214 307Z" glyph-name="five" horiz-adv-x="246" unicode="5" /><glyph d="M41 730H221V665H41ZM144 151V388C144 424 139 440 120 440C88 440 63 385 45 308H30V730H105V665V507L65 429L73 424C106 489 129 508 162 508C192 508 219 477 219 427V126ZM219 126C219 28 179 -10 121 -10C52 -10 26 62 28 157L31 278H45L48 160C50 96 58 58 101 58C127 58 144 76 144 151Z" glyph-name="five.LP" horiz-adv-x="251" /><glyph d="M121 629V0H51V509C51 622 128.2597 730 203 730H216V660C205 665 189 667 169 667C140 667 121 658.8571 121 629ZM51 549H8V600H121H179V549H121ZM274 730V0H204V730Z" glyph-name="fl" horiz-adv-x="309" unicode="&#64258;" /><glyph d="M187 195H5L35 215H187ZM191 730 76 223 84 212 5 195ZM5 195 121 730H191ZM115 202 91 215C125 215 146 244 164 297L184 356H195L185 215H237V205L204 197C189 193 185 184 185 170C185 170 185 0 185 0H115ZM108 760Z" glyph-name="four" horiz-adv-x="237" unicode="4" /><glyph d="M187 195H5L35 215H187ZM191 730 76 223 84 212 5 195ZM5 195 121 730H191ZM115 202 91 215C125 215 146 244 164 297L184 356H195L185 215H237V205L204 197C189 193 185 184 185 170C185 170 185 0 185 0H115ZM108 760Z" glyph-name="four.LP" horiz-adv-x="237" /><glyph d="M125 532C103 532 98 510 98 475V260C98 188 116 177 137 177C159 177 164 199 164 234V449C164 521 145 532 125 532ZM234 463V247C234 153 184 117 125 117C62 117 28 150.5656 28 234V465C28 563 78 600 137 600H281V485C223 568 188 582 141 583V571C195.9841 564.002 234 526.8182 234 463ZM67 136 82 126C65 110 50 92 50 82C50 72.6667 56 68 75 68C100 68 147 68 181 68C243 68 272 46.6875 272 6C272 -46.6761 176 -130 93 -130C33 -130 9 -99.0448 9 -69C9 -33 31 -10 58 2L92 3C72 -5 65 -17 65 -29C65 -49 80 -66 158 -66C204 -66 223 -58 223 -38C223 -14 215 0 181 0C154 0 119 0 86 0L58 2V8C35 14 19 27 19 53C19 88 51 114 67 136Z" glyph-name="g" horiz-adv-x="281" unicode="g" /><glyph d="M125 532C103 532 98 510 98 475V260C98 188 116 177 137 177C159 177 164 199 164 234V449C164 521 145 532 125 532ZM234 463V247C234 153 184 117 125 117C62 117 28 150.5656 28 234V465C28 563 78 600 137 600H281V485C223 568 188 582 141 583V571C195.9841 564.002 234 526.8182 234 463ZM67 136 82 126C65 110 50 92 50 82C50 72.6667 56 68 75 68C100 68 147 68 181 68C243 68 272 46.6875 272 6C272 -46.6761 176 -130 93 -130C33 -130 9 -99.0448 9 -69C9 -33 31 -10 58 2L92 3C72 -5 65 -17 65 -29C65 -49 80 -66 158 -66C204 -66 223 -58 223 -38C223 -14 215 0 181 0C154 0 119 0 86 0L58 2V8C35 14 19 27 19 53C19 88 51 114 67 136ZM144.5 675C144.5 651.9184 171.2907 636 240.5 636V642C197.9083 646.7324 176.5 669 176.5 710V730H132.5L134.5 675ZM137.5 675H147.5L149.5 730H105.5V710C105.5 669 84.0917 646.7324 41.5 642V636C110.7093 636 137.5 651.9184 137.5 675ZM140.5 640Z" glyph-name="gcircumflex" horiz-adv-x="281" unicode="&#285;" /><glyph d="M125 532C103 532 98 510 98 475V260C98 188 116 177 137 177C159 177 164 199 164 234V449C164 521 145 532 125 532ZM234 463V247C234 153 184 117 125 117C62 117 28 150.5656 28 234V465C28 563 78 600 137 600H281V485C223 568 188 582 141 583V571C195.9841 564.002 234 526.8182 234 463ZM67 136 82 126C65 110 50 92 50 82C50 72.6667 56 68 75 68C100 68 147 68 181 68C243 68 272 46.6875 272 6C272 -46.6761 176 -130 93 -130C33 -130 9 -99.0448 9 -69C9 -33 31 -10 58 2L92 3C72 -5 65 -17 65 -29C65 -49 80 -66 158 -66C204 -66 223 -58 223 -38C223 -14 215 0 181 0C154 0 119 0 86 0L58 2V8C35 14 19 27 19 53C19 88 51 114 67 136ZM87.5 679H193.5V730H87.5ZM140.5 640Z" glyph-name="gdotaccent" horiz-adv-x="281" unicode="&#289;" /><glyph d="M345 668C345 559 216 552 216 478C216 397 349 195 349 113C349 27 298 -10 238 -10C179 -10 151 21 151 83C151 134 155 191 162 235H234C183 137 170 105 170 84C170 66 189 58 238 58C271 58 279 78 279 104C279 198 146 364 146 466C146 594 305 572 305 624C305 659 261.4602 677 182 677C119 677 100 667 100 629V0H30V509C30 627 122 740 236 740C307.5657 740 345 716 345 668Z" glyph-name="germandbls" horiz-adv-x="354" unicode="&#223;" /><glyph d="M56 720C56 664 97 637 206 636V642C142 652 112 685 119 720L121 730H56ZM136 640Z" glyph-name="grave" horiz-adv-x="250" unicode="`" /><glyph d="M110 600 293 314V308L248 291L0 600ZM120 0H0L248 291L293 308V302Z" glyph-name="greater" horiz-adv-x="303" unicode="&gt;" /><glyph d="M55 299C55 273 72 235 132 118H56C39 207 36 274 36 300C36 328 39 395 56 482H132C72 367 55 329 55 299ZM164 299C164 273 181 235 241 118H165C148 207 145 274 145 300C145 328 148 395 165 482H241C181 367 164 329 164 299Z" glyph-name="guillemotleft" horiz-adv-x="264" /><glyph d="M55 372C55 346 72 308 132 191H56C39 280 36 347 36 373C36 401 39 468 56 555H132C72 440 55 402 55 372ZM164 372C164 346 181 308 241 191H165C148 280 145 347 145 373C145 401 148 468 165 555H241C181 440 164 402 164 372Z" glyph-name="guillemotleft.cap" horiz-adv-x="264" /><glyph d="M209 299C209 273 192 235 132 118H208C225 207 228 274 228 300C228 328 225 395 208 482H132C192 367 209 329 209 299ZM100 299C100 273 83 235 23 118H99C116 207 119 274 119 300C119 328 116 395 99 482H23C83 367 100 329 100 299Z" glyph-name="guillemotright" horiz-adv-x="264" /><glyph d="M209 372C209 346 192 308 132 191H208C225 280 228 347 228 373C228 401 225 468 208 555H132C192 440 209 402 209 372ZM100 372C100 346 83 308 23 191H99C116 280 119 347 119 373C119 401 116 468 99 555H23C83 440 100 402 100 372Z" glyph-name="guillemotright.cap" horiz-adv-x="264" /><glyph d="M55 299C55 273 72 235 132 118H56C39 207 36 274 36 300C36 328 39 395 56 482H132C72 367 55 329 55 299Z" glyph-name="guilsinglleft" horiz-adv-x="155" unicode="&#8249;" /><glyph d="M55 372C55 346 72 308 132 191H56C39 280 36 347 36 373C36 401 39 468 56 555H132C72 440 55 402 55 372Z" glyph-name="guilsinglleft.cap" horiz-adv-x="155" /><glyph d="M100 299C100 273 83 235 23 118H99C116 207 119 274 119 300C119 328 116 395 99 482H23C83 367 100 329 100 299Z" glyph-name="guilsinglright" horiz-adv-x="155" unicode="&#8250;" /><glyph d="M100 372C100 346 83 308 23 191H99C116 280 119 347 119 373C119 401 116 468 99 555H23C83 440 100 402 100 372Z" glyph-name="guilsinglright.cap" horiz-adv-x="155" /><glyph d="M105 730V589L81 437L91 435C112 585 146 610 184 610C221 610 248 579 248 529V0H178V490C178 526 173 542 154 542C126 542 105 473 105 379V0H35V730Z" glyph-name="h" horiz-adv-x="283" unicode="h" /><glyph d="M105 730V589L81 437L91 435C112 585 146 610 184 610C221 610 248 579 248 529V0H178V490C178 526 173 542 154 542C126 542 105 473 105 379V0H35V730ZM69 798C69 774.9184 95.7907 759 165 759V765C122.4083 769.7324 101 792 101 833V853H57L59 798ZM62 798H72L74 853H30V833C30 792 8.5917 769.7324 -34 765V759C35.2093 759 62 774.9184 62 798ZM65 763Z" glyph-name="hcircumflex" horiz-adv-x="283" unicode="&#293;" /><glyph d="M313 883 158 498 168 492 53 321 34 331 250 908ZM346 722 366 711 251 564 53 321 34 331 168 492ZM366 711 190 264 200 258 84 87 66 98 227 522 207 535ZM377 489 397 478 282 331 83 88 65 98 199 259ZM397 478 114 -146 97 -135 257 289 238 302Z" glyph-name="highvoltage" horiz-adv-x="440" unicode="&#9889;" /><glyph d="M129 720V730H69L71 720C78 686 63 646 34 642V636C103 637 129 664 129 720ZM229 720V730H169L171 720C178 686 163 646 134 642V636C203 637 229 664 229 720ZM126 640Z" glyph-name="hungarumlaut" horiz-adv-x="250" unicode="&#733;" /><glyph d="M20 314V347H188V314Z" glyph-name="hyphen" horiz-adv-x="208" unicode="-" /><glyph d="M20 357V390H188V357Z" glyph-name="hyphen.cap" horiz-adv-x="208" /><glyph d="M17 679H123V730H17ZM105 600V0H35V600ZM75 637ZM70 0Z" glyph-name="i" horiz-adv-x="140" unicode="i" /><glyph d="M105 600V0H35V600ZM75 637Z" glyph-name="i.TRK" horiz-adv-x="140" /><glyph d="M17 679H123V730H17ZM105 600V0H35V600ZM75 637ZM70 0Z" glyph-name="i.dot" horiz-adv-x="140" /><glyph d="M105 600V0H35V600ZM75 637ZM153 717V727H88L90 717C97 682 67 649 3 639V633C112 634 153 661 153 717ZM75 637Z" glyph-name="iacute" horiz-adv-x="140" unicode="&#237;" /><glyph d="M105 600V0H35V600ZM75 637ZM75 681C30.4103 681 6.9919 691.0486 1 727H-5C-4 654.0006 21.6667 633 75 633C128.3333 633 154 654.0006 155 727H149C143.0081 691.0486 119.5897 681 75 681ZM75 637Z" glyph-name="ibreve" horiz-adv-x="140" unicode="&#301;" /><glyph d="M105 600V0H35V600ZM75 637ZM79 672C79 648.9184 105.7907 633 175 633V639C132.4083 643.7324 111 666 111 707V727H67L69 672ZM72 672H82L84 727H40V707C40 666 18.5917 643.7324 -24 639V633C45.2093 633 72 648.9184 72 672ZM75 637Z" glyph-name="icircumflex" horiz-adv-x="140" unicode="&#238;" /><glyph d="M105 600V0H35V600ZM75 637ZM-23 661H63V707H-23ZM87 661H173V707H87ZM75 637Z" glyph-name="idieresis" horiz-adv-x="140" unicode="&#239;" /><glyph d="M105 600V0H35V600ZM75 637ZM-5 717C-5 661 36 634 145 633V639C81 649 51 682 58 717L60 727H-5ZM75 637Z" glyph-name="igrave" horiz-adv-x="140" unicode="&#236;" /><glyph d="M17 679H123V730H17ZM105 600V0H35V600ZM75 637ZM70 0ZM157 679H263V730H157ZM175 -29V600H245V137C245 -22 153 -130 64 -130H51V-43C69 -51 95 -57 127 -57C156 -57 175 -51 175 -29Z" glyph-name="ij" horiz-adv-x="280" unicode="&#307;" /><glyph d="M17 679H123V730H17ZM105 600V0H35V600ZM79 -130C47 -130 22 -109 22 -71C22 -46 33.6432 -27.0145 56 0H70C54 -23 46 -39 46 -52C46 -67 53 -72 65 -72C81 -72 104.0043 -60.2468 119 -49L122 -124C110 -128 95 -130 79 -130Z" glyph-name="iogonek" horiz-adv-x="140" unicode="&#303;" /><glyph d="M105 600V0H35V600ZM75 637ZM127 634C161 634 177 660 177 730H170C161 701 149 686 131 686C102 686 52 729 24 729C-10 729 -26 703 -26 633H-19C-10 662 2 677 20 677C49 677 99 634 127 634ZM75 637Z" glyph-name="itilde" horiz-adv-x="140" unicode="&#297;" /><glyph d="M17 679H123V730H17ZM35 -29V600H105V137C105 -22 13 -130 -76 -130H-89V-43C-71 -51 -45 -57 -13 -57C16 -57 35 -51 35 -29Z" glyph-name="j" horiz-adv-x="140" unicode="j" /><glyph d="M17 679H123V730H17ZM35 -18V600H105V90C105 -57 -17 -140 -167 -140C-201 -140 -226 -137 -249 -132V-53C-217 -67 -170 -72 -87 -72C10 -72 35 -58 35 -18Z" glyph-name="j.2" horiz-adv-x="140" /><glyph d="M35 -29V600H105V137C105 -22 13 -130 -76 -130H-89V-43C-71 -51 -45 -57 -13 -57C16 -57 35 -51 35 -29ZM74 675C74 651.9184 100.7907 636 170 636V642C127.4083 646.7324 106 669 106 710V730H62L64 675ZM67 675H77L79 730H35V710C35 669 13.5917 646.7324 -29 642V636C40.2093 636 67 651.9184 67 675ZM70 640Z" glyph-name="jcircumflex" horiz-adv-x="140" unicode="&#309;" /><glyph d="M104 315 107 349 119 338 218 351 264 0H188L168 231C161.5989 304.9324 143.0419 321.507 104 315ZM106 730V649L82 354L92 352L165 600H255V538L233 532C190 520 168 491 136 412C112 352 106 317.3924 106 264V0H36V730Z" glyph-name="k" horiz-adv-x="274" unicode="k" /><glyph d="M105 730V0H35V730Z" glyph-name="l" horiz-adv-x="140" unicode="l" /><glyph d="M105 730V0H35V730ZM168 840V850H103L105 840C112 805 82 772 18 762V756C127 757 168 784 168 840ZM90 760Z" glyph-name="lacute" horiz-adv-x="140" unicode="&#314;" /><glyph d="M105 730V0H35V730ZM204 720V730H141L143 720C164 615 157 579 136 546L141 541C185.317 578.2665 204 625.5278 204 720ZM128 640Z" glyph-name="lcaron" horiz-adv-x="214" unicode="&#318;" /><glyph d="M105 730V0H35V730ZM129 294H225V365H129Z" glyph-name="ldot" horiz-adv-x="236" unicode="&#320;" /><glyph d="M193 0 10 286V292L55 309L303 0ZM183 600H303L55 309L10 292V298Z" glyph-name="less" horiz-adv-x="303" unicode="&lt;" /><glyph d="M0 306V332L140 419V393ZM105 730V0H35V730Z" glyph-name="lslash" horiz-adv-x="140" unicode="&#322;" /><glyph d="M214 435 224 433C245 585 276 610 312 610C346 610 371 579 371 529V0H301V490C301 526 297 542 282 542C259 542 238 471 238 380V0H168V490C168 526 164 542 149 542C126 542 105 471 105 380V0H35V600H105V589L81 437L91 435C111.7516 585.2024 143 610 179 610C211 610 235 583 228 533Z" glyph-name="m" horiz-adv-x="406" unicode="m" /><glyph d="M105 600 100 392H77L104 0H25L35 600ZM110 600 190 207H201L193 0H170L51 600ZM259 600H284L192 0H170L201 207ZM260 600H321L331 0H254L267 392H241Z" glyph-name="m.2" horiz-adv-x="356" /><glyph d="M105 600 100 392H77L104 0H25L35 600ZM411 600H472L482 0H405L418 392H392ZM110 600 190 207H201L191 0H170L51 600ZM239 600H280L246 415L201 0H170L201 207ZM280 600 340 207H351L343 0H312L250 367H237ZM411 600H435L343 0H312L351 207Z" glyph-name="m.3" horiz-adv-x="507" /><glyph d="M105 600 100 392H77L104 0H25L35 600ZM110 600 190 207H201L191 0H170L51 600ZM239 600H280L246 415L201 0H170L201 207ZM280 600 340 207H351L343 0H312L250 367H237ZM561 600H622L632 0H555L568 392H542ZM389 600H430L396 415L351 0H320L351 207ZM430 600 490 207H501L493 0H462L400 367H387ZM561 600H585L493 0H462L501 207Z" glyph-name="m.4" horiz-adv-x="657" /><glyph d="M27 664H223V710H27ZM125 640Z" glyph-name="macron" horiz-adv-x="250" unicode="&#175;" /><glyph d="M268 301 30 324V337L268 364Z" glyph-name="minus" horiz-adv-x="298" unicode="&#8722;" /><glyph d="M105 600V589L81 437L91 435C111.6526 585.4691 146 610 184 610C221 610 248 579 248 529V0H178V490C178 526 173 542 154 542C126 542 105 473 105 380V0H35V600ZM146 640Z" glyph-name="n" horiz-adv-x="283" unicode="n" /><glyph d="M96 600 212 0H184L69 600ZM85 600 93 477H76L90 246L96 0H25V600ZM195 0 187 123H204L190 354L183 600H255V0Z" glyph-name="n.2" horiz-adv-x="280" /><glyph d="M96 600 212 0H184L69 600ZM85 600 93 477H76L90 246L96 0H25V600ZM224 600 340 0H312L197 600ZM323 0 315 123H332L318 354L311 600H383V0ZM170 600H213L221 477H204L237 0H195L187 123H204Z" glyph-name="n.3" horiz-adv-x="408" /><glyph d="M96 600 212 0H184L69 600ZM85 600 93 477H76L90 246L96 0H25V600ZM224 600 340 0H312L197 600ZM170 600H213L221 477H204L237 0H195L187 123H204ZM352 600 468 0H440L325 600ZM451 0 443 123H460L446 354L439 600H511V0ZM298 600H341L349 477H332L365 0H323L315 123H332Z" glyph-name="n.4" horiz-adv-x="536" /><glyph d="M105 600V589L81 437L91 435C111.6526 585.4691 146 610 184 610C221 610 248 579 248 529V0H178V490C178 526 173 542 154 542C126 542 105 473 105 380V0H35V600ZM146 640ZM224 720V730H159L161 720C168 685 138 652 74 642V636C183 637 224 664 224 720ZM146 640Z" glyph-name="nacute" horiz-adv-x="283" unicode="&#324;" /><glyph d="M105 600V589L81 437L91 435C111.6526 585.4691 146 610 184 610C221 610 248 579 248 529V0H178V490C178 526 173 542 154 542C126 542 105 473 105 380V0H35V600ZM146 640ZM150 691H140L138 636H182V656C182 697 203 719 246 724V730C177 730 150 714 150 691ZM143 691C143 714 116 730 47 730V724C90 719 111 697 111 656V636H155L153 691ZM146 640Z" glyph-name="ncaron" horiz-adv-x="283" unicode="&#328;" /><glyph d="M161 459C161 533.6024 143 545 122 545C100 545 95 523 95 488V287C95 251 102 235 118 235C139 235 161 304.275 161 398ZM161 31V191L184 343L174 345C153 195 122 170 86 170C50.8788 170 25 201 25 251V475C25 573 74.7193 610 134 610C196.7647 610 231 579 231 493V6C231 -92 190.7647 -130 117 -130C62 -130 27 -70 30 37L33 148H47L50 40C52.2302 -40.2881 71 -65 113 -65C142 -65 161 -46.4194 161 31ZM98 0Z" glyph-name="nine" horiz-adv-x="266" unicode="9" /><glyph d="M161 589C161 661 143 672 122 672C100 672 95 650 95 615V420C95 384 102 368 118 368C139 368 161 436 161 528ZM161 151V321L184 473L174 475C153 325 122 300 86 300C48 300 20 331 20 381V605C20 703 72 740 134 740C200 740 236 709 236 623V126C236 28 194 -10 117 -10C62 -10 27 50 30 157L33 268H47L50 160C52 82 71 58 113 58C142 58 161 76 161 151ZM98 0Z" glyph-name="nine.LP" horiz-adv-x="266" /><glyph d="M105 600V589L81 437L91 435C111.6526 585.4691 146 610 184 610C221 610 248 579 248 529V0H178V490C178 526 173 542 154 542C126 542 105 473 105 380V0H35V600ZM146 640ZM198 637C232 637 248 663 248 733H241C232 704 220 689 202 689C173 689 123 732 95 732C61 732 45 706 45 636H52C61 665 73 680 91 680C120 680 170 637 198 637ZM146 640Z" glyph-name="ntilde" horiz-adv-x="283" unicode="&#241;" /><glyph d="M22 482V564L172 483V463L144 465ZM347 485 350 462H184L188 485ZM443 483V401L344 467V485L367 483ZM441 264V182L291 263V283L319 281ZM136 261 133 284H299L295 261ZM24 263V345L119 279V261L101 263ZM208 467 107 0H31L99 256L95 263L103 277L150 480L185 640L205 730H283L214 493L218 485ZM357 467 256 0H180L248 256L244 263L252 277L299 480L334 640L354 730H432L363 491L367 483Z" glyph-name="numbersign" horiz-adv-x="465" unicode="#" /><glyph d="M132 542C110 542 105 520 105 485V141C105 69 123 58 144 58C166 58 171 80 171 115V459C171 531 152 542 132 542ZM132 -10C69 -10 35 21 35 107V475C35 573 85 610 144 610C208 610 241 579 241 493V125C241 27 191 -10 132 -10ZM143 640Z" glyph-name="o" horiz-adv-x="276" unicode="o" /><glyph d="M132 542C110 542 105 520 105 485V141C105 69 123 58 144 58C166 58 171 80 171 115V459C171 531 152 542 132 542ZM132 -10C69 -10 35 21 35 107V475C35 573 85 610 144 610C208 610 241 579 241 493V125C241 27 191 -10 132 -10ZM143 640ZM214 720V730H149L151 720C158 685 128 652 64 642V636C173 637 214 664 214 720ZM136 640Z" glyph-name="oacute" horiz-adv-x="276" unicode="&#243;" /><glyph d="M132 542C110 542 105 520 105 485V141C105 69 123 58 144 58C166 58 171 80 171 115V459C171 531 152 542 132 542ZM132 -10C69 -10 35 21 35 107V475C35 573 85 610 144 610C208 610 241 579 241 493V125C241 27 191 -10 132 -10ZM143 640ZM143 684C98.4103 684 74.9919 694.0486 69 730H63C64 657.0006 89.6667 636 143 636C196.3333 636 222 657.0006 223 730H217C211.0081 694.0486 187.5897 684 143 684ZM143 640Z" glyph-name="obreve" horiz-adv-x="276" unicode="&#335;" /><glyph d="M132 542C110 542 105 520 105 485V141C105 69 123 58 144 58C166 58 171 80 171 115V459C171 531 152 542 132 542ZM132 -10C69 -10 35 21 35 107V475C35 573 85 610 144 610C208 610 241 579 241 493V125C241 27 191 -10 132 -10ZM143 640ZM140 675C140 651.9184 166.7907 636 236 636V642C193.4083 646.7324 172 669 172 710V730H128L130 675ZM133 675H143L145 730H101V710C101 669 79.5917 646.7324 37 642V636C106.2093 636 133 651.9184 133 675ZM136 640Z" glyph-name="ocircumflex" horiz-adv-x="276" unicode="&#244;" /><glyph d="M132 542C110 542 105 520 105 485V141C105 69 123 58 144 58C166 58 171 80 171 115V459C171 531 152 542 132 542ZM132 -10C69 -10 35 21 35 107V475C35 573 85 610 144 610C208 610 241 579 241 493V125C241 27 191 -10 132 -10ZM143 640ZM38 664H124V710H38ZM148 664H234V710H148ZM136 640Z" glyph-name="odieresis" horiz-adv-x="276" unicode="&#246;" /><glyph d="M132 542C110 542 105 520 105 485V141C105 69 123 58 144 58C166 58 171 80 171 115V459C171 531 152 542 132 542ZM119 -10C69 -10 35 21 35 107V475C35 573 85 610 144 610C192 610 217 580 217 493V475H226L186 125C186 27 161 -10 119 -10ZM301 460C301 532 290 542 270 542C246 542 241 520 241 485V141C241 69 267 58 295 58C325 58 338 96 340 160L343 277H357L360 157C362 62 330 -10 263 -10C217.6667 -10 195 19 195 107V125H186L226 475C226 573 248 610 290 610C332 610 361 579 361 493V332H301ZM216 332V346H340V332Z" glyph-name="oe" horiz-adv-x="396" unicode="&#339;" /><glyph d="M91 -130C70 -130 48 -116 48 -88C48 -59 65.0933 -37.68 102 -10L96 0H125C103.6053 -23.5341 94 -40 94 -54C94 -70 102 -75 115 -75C127 -75 140 -71 147 -67L152 -72C139 -99 114.8281 -130 91 -130ZM125 0ZM118 0Z" glyph-name="ogonek" horiz-adv-x="250" unicode="&#731;" /><glyph d="M132 542C110 542 105 520 105 485V141C105 69 123 58 144 58C166 58 171 80 171 115V459C171 531 152 542 132 542ZM132 -10C69 -10 35 21 35 107V475C35 573 85 610 144 610C208 610 241 579 241 493V125C241 27 191 -10 132 -10ZM143 640ZM56 720C56 664 97 637 206 636V642C142 652 112 685 119 720L121 730H56ZM136 640Z" glyph-name="ograve" horiz-adv-x="276" unicode="&#242;" /><glyph d="M132 542C110 542 105 520 105 485V141C105 69 123 58 144 58C166 58 171 80 171 115V459C171 531 152 542 132 542ZM132 -10C69 -10 35 21 35 107V475C35 573 85 610 144 610C208 610 241 579 241 493V125C241 27 191 -10 132 -10ZM143 640ZM146 720V730H86L88 720C95 686 80 646 51 642V636C120 637 146 664 146 720ZM246 720V730H186L188 720C195 686 180 646 151 642V636C220 637 246 664 246 720ZM143 640Z" glyph-name="ohungarumlaut" horiz-adv-x="276" unicode="&#337;" /><glyph d="M132 542C110 542 105 520 105 485V141C105 69 123 58 144 58C166 58 171 80 171 115V459C171 531 152 542 132 542ZM132 -10C69 -10 35 21 35 107V475C35 573 85 610 144 610C208 610 241 579 241 493V125C241 27 191 -10 132 -10ZM143 640ZM45 664H241V710H45ZM143 640Z" glyph-name="omacron" horiz-adv-x="276" unicode="&#333;" /><glyph d="M116 0H46V460H0V480H17C49 480 63 497 85 562L105 621H116Z" glyph-name="one" horiz-adv-x="146" unicode="1" /><glyph d="M116 506V0H46V580H0V600H17C49 600 63 617 85 682L105 741H116Z" glyph-name="one.LP" horiz-adv-x="146" /><glyph d="M20 294V314H225V294ZM109 741C156 741 179 716 179 675V456C179 413.8958 187 409 196 409C203 409 208.2229 413.8362 209 440L212 541H223L225 443C226 392 218 354 181 354C148 354 133 377 143 491L135 492C123 373 103 354 73 354C42 354 26 372 26 411V417C26 482 60 507 123 567V655C123 680 117 687 90 687C60.0385 687 52 673 52 651V555H42L34 642C29.7725 687.9736 66.8652 741 109 741ZM97 412C114 412 124 461 124 535V564L130 555C90 518 83 498 83 463V432C83 417 89 412 97 412ZM129 640ZM136 640ZM238 0Z" glyph-name="ordfeminine" horiz-adv-x="248" unicode="&#170;" /><glyph d="M97 686C80 686 76 668 76 640V475C76 417 90 408 107 408C124 408 128 426 128 454V619C128 677 113 686 97 686ZM97 354C47 354 20 379 20 448V632C20 710 60 740 107 740C158 740 184 715 184 646V462C184 384 144 354 97 354ZM20 294V314H184V294ZM129 640Z" glyph-name="ordmasculine" horiz-adv-x="204" unicode="&#186;" /><glyph d="M22 0H0L254 600H276ZM132 542C110 542 105 520 105 485V141C105 69 123 58 144 58C166 58 171 80 171 115V459C171 531 152 542 132 542ZM132 -10C69 -10 35 21 35 107V475C35 573 85 610 144 610C208 610 241 579 241 493V125C241 27 191 -10 132 -10ZM143 640Z" glyph-name="oslash" horiz-adv-x="276" unicode="&#248;" /><glyph d="M132 542C110 542 105 520 105 485V141C105 69 123 58 144 58C166 58 171 80 171 115V459C171 531 152 542 132 542ZM132 -10C69 -10 35 21 35 107V475C35 573 85 610 144 610C208 610 241 579 241 493V125C241 27 191 -10 132 -10ZM143 640ZM195 637C229 637 245 663 245 733H238C229 704 217 689 199 689C170 689 120 732 92 732C58 732 42 706 42 636H49C58 665 70 680 88 680C117 680 167 637 195 637ZM143 640Z" glyph-name="otilde" horiz-adv-x="276" unicode="&#245;" /><glyph d="M176 154 176 490C176 526 167 542 150 542C128 542 105 474 105 382L105 74C118 61 132 54 148 54C167 54 176 68 176 154ZM248 160C248 40 219 -10 155 -10C130 -10 108 3 86 23L80 17L105 -9L105 -130H35L35 600H104V589L81 437L91 435C112 585 146 610 184 610C221 610 248 579 248 529Z" glyph-name="p" horiz-adv-x="283" unicode="p" /><glyph d="M181 730H208V0H181ZM187 662 194 337C194 337 208 337 208 337V293H166C80 293 30 328 30 419V595C30 693 98 730 179 730C179 730 199 730 199 730V662ZM233 730H260V0H233Z" glyph-name="paragraph" horiz-adv-x="290" unicode="&#182;" /><glyph d="M30 613V-13C30 -99 70 -130 144 -130V-62C112 -62 100 -51 100 21V579C100 651 112 662 144 662V730C70 730 30 699 30 613Z" glyph-name="parenleft" horiz-adv-x="149" unicode="(" /><glyph d="M30 678V52C30 -34 70 -65 144 -65V3C112 3 100 14 100 86V644C100 716 112 727 144 727V795C70 795 30 764 30 678Z" glyph-name="parenleft.cap" horiz-adv-x="149" /><glyph d="M119 -13 119 613C119 699 79 730 5 730L5 662C37 662 49 651 49 579L49 21C49 -51 37 -62 5 -62V-130C79 -130 119 -99 119 -13Z" glyph-name="parenright" horiz-adv-x="149" unicode=")" /><glyph d="M119 52 119 678C119 764 79 795 5 795L5 727C37 727 49 716 49 644L49 86C49 14 37 3 5 3V-65C79 -65 119 -34 119 52Z" glyph-name="parenright.cap" horiz-adv-x="149" /><glyph d="M491 730 303 399 288 408 394 730ZM132 672C110 672 105 650 105 615V471C105 399 123 388 144 388C166 388 171 410 171 445V589C171 661 152 672 132 672ZM132 320C69 320 35 351 35 437V605C35 703 85 740 144 740C208 740 241 709 241 623V455C241 357 191 320 132 320ZM410 342C388 342 383 320 383 285V141C383 69 401 58 422 58C444 58 449 80 449 115V259C449 331 430 342 410 342ZM410 -10C347 -10 313 21 313 107V275C313 373 363 410 422 410C486 410 519 379 519 293V125C519 27 469 -10 410 -10ZM63 0 251 331 266 322 160 0ZM143 770Z" glyph-name="percent" horiz-adv-x="554" unicode="%" /><glyph d="M20 0H116V71H20Z" glyph-name="period" horiz-adv-x="136" unicode="." /><glyph d="M20 294H116V365H20Z" glyph-name="periodcentered" horiz-adv-x="136" unicode="&#183;" /><glyph d="M20 339H116V410H20Z" glyph-name="periodcentered.cap" horiz-adv-x="136" /><glyph d="M670 342C648 342 643 320 643 285V141C643 69 661 58 682 58C704 58 709 80 709 115V259C709 331 690 342 670 342ZM670 -10C607 -10 573 21 573 107V275C573 373 623 410 682 410C746 410 779 379 779 293V125C779 27 729 -10 670 -10ZM491 730 303 399 288 408 394 730ZM132 672C110 672 105 650 105 615V471C105 399 123 388 144 388C166 388 171 410 171 445V589C171 661 152 672 132 672ZM132 320C69 320 35 351 35 437V605C35 703 85 740 144 740C208 740 241 709 241 623V455C241 357 191 320 132 320ZM410 342C388 342 383 320 383 285V141C383 69 401 58 422 58C444 58 449 80 449 115V259C449 331 430 342 410 342ZM410 -10C347 -10 313 21 313 107V275C313 373 363 410 422 410C486 410 519 379 519 293V125C519 27 469 -10 410 -10ZM63 0 251 331 266 322 160 0ZM143 770Z" glyph-name="perthousand" horiz-adv-x="814" unicode="&#8240;" /><glyph d="M268 297 149 326V336L268 365ZM30 297V365L149 336V326ZM183 450 154 331H144L115 450ZM183 212H115L144 331H154ZM148 306 124 330 149 355 173 331Z" glyph-name="plus" horiz-adv-x="298" unicode="+" /><glyph d="M49 33 125 9 205 345 212 347 270 193 277 195 316 718 305 722 33 273 38 268 174 359 179 354Z" glyph-name="pointer" horiz-adv-x="354" /><glyph d="M107 446 107 110C107 74 116 58 133 58C155 58 178 125.7301 178 218V526C165.3057 538.6943 151 546 135 546C116 546 107 532 107 446ZM35 440C35 560 64 610 128 610C168.4865 610 207 587 235 551L244 553L250 600H268L248 436L248 -130H179V11L202 163L192 165C171.3473 14.5306 137 -10 99 -10C62 -10 35 21 35 71Z" glyph-name="q" horiz-adv-x="293" unicode="q" /><glyph d="M104 70H120C103.6176 222.2602 204 431.7034 204 576V659C204 709 175 740 117 740C54 740 5 668 5 605C5 561 12 506 31 460H127C47.9069 540.1203 30 576 30 616C30 650 43.0345 672 93 672C126 672 134 664 134 633V561C134 431.2838 89.5144 184.919 104 70ZM64 0H160V71H64Z" glyph-name="question" horiz-adv-x="209" unicode="?" /><glyph d="M104 530H88C104.3824 377.7398 4 168.2966 4 24V-59C4 -109 33 -140 91 -140C154 -140 203 -68 203 -5C203 39 196 94 177 140H81C160.0931 59.8797 178 24 178 -16C178 -50 164.9655 -72 115 -72C82 -72 74 -64 74 -33V39C74 168.7162 118.4856 415.081 104 530ZM144 600H48V529H144Z" glyph-name="questiondown" horiz-adv-x="209" unicode="&#191;" /><glyph d="M110 660H94C110.3824 507.7398 10 298.2966 10 154V71C10 21 39 -10 97 -10C160 -10 209 62 209 125C209 169 202 224 183 270H87C166.0931 189.8797 184 154 184 114C184 80 170.9655 58 121 58C88 58 80 66 80 97V169C80 298.7162 124.4856 545.081 110 660ZM150 730H54V659H150Z" glyph-name="questiondown.cap" horiz-adv-x="215" /><glyph d="M25 659H114V730H25ZM63 662 35 540H104L76 662ZM134 659H223V730H134ZM172 662 144 540H213L185 662Z" glyph-name="quotedbl" horiz-adv-x="248" unicode="&quot;" /><glyph d="M22 0H111V71H22ZM111 0 92 1C95 -27 81 -60 20 -61L24 -119C98 -125 112 -97 111 0ZM137 0H226V71H137ZM226 0 207 1C210 -27 196 -60 135 -61L139 -119C213 -125 227 -97 226 0Z" glyph-name="quotedblbase" horiz-adv-x="251" unicode="&#8222;" /><glyph d="M242 630H153V559H242ZM153 630 172 629C169 657 183 690 244 691L240 749C166 755 152 727 153 630ZM129 630H40L40 559H129ZM40 630 59 629C56 657 70 690 131 691L127 749C53 755 39 727 40 630Z" glyph-name="quotedblleft" horiz-adv-x="264" unicode="&#8220;" /><glyph d="M12 659H101V730H12ZM101 659 82 660C85 632 71 599 10 598L14 540C88 534 102 562 101 659ZM125 659H214V730H125ZM214 659 195 660C198 632 184 599 123 598L127 540C201 534 215 562 214 659Z" glyph-name="quotedblright" horiz-adv-x="239" unicode="&#8221;" /><glyph d="M114 640H25L25 569H114ZM25 640 44 639C41 667 55 700 116 701L112 759C38 765 24 737 25 640Z" glyph-name="quoteleft" horiz-adv-x="136" unicode="&#8216;" /><glyph d="M17 659H106V730H17ZM106 659 87 660C90 632 76 599 15 598L19 540C93 534 107 562 106 659Z" glyph-name="quoteright" horiz-adv-x="131" unicode="&#8217;" /><glyph d="M22 0H111V71H22ZM111 0 92 1C95 -27 81 -60 20 -61L24 -119C98 -125 112 -97 111 0Z" glyph-name="quotesinglbase" horiz-adv-x="136" unicode="&#8218;" /><glyph d="M25 659H114V730H25ZM63 662 35 540H104L76 662Z" glyph-name="quotesingle" horiz-adv-x="139" unicode="'" /><glyph d="M172 536C140 536 105 483 105 382V0H35V600H104V589L82 437L92 435C113.0051 585.0367 138.4198 610 172 610C202 610 217 577 217 511C217 485 214 418 197 329H121C177.5519 449.1729 199 492 199 510C199 528 189.6087 536 172 536Z" glyph-name="r" horiz-adv-x="227" unicode="r" /><glyph d="M185 526C144.4366 526 105 476.4416 105 382V0H35V600H104V589L83 437L93 435C112.9966 576.9759 142.5048 600 206 600H216V518C207 523 197 526 185 526Z" glyph-name="r.2" horiz-adv-x="222" /><glyph d="M172 536C140 536 105 483 105 382V0H35V600H104V589L82 437L92 435C113.0051 585.0367 138.4198 610 172 610C202 610 217 577 217 511C217 485 214 418 197 329H121C177.5519 449.1729 199 492 199 510C199 528 189.6087 536 172 536ZM198.5 720V730H133.5L135.5 720C142.5 685 112.5 652 48.5 642V636C157.5 637 198.5 664 198.5 720ZM120.5 640Z" glyph-name="racute" horiz-adv-x="227" unicode="&#341;" /><glyph d="M185 526C144.4366 526 105 476.4416 105 382V0H35V600H104V589L83 437L93 435C112.9966 576.9759 142.5048 600 206 600H216V518C207 523 197 526 185 526ZM198 720V730H133L135 720C142 685 112 652 48 642V636C157 637 198 664 198 720ZM120 640Z" glyph-name="racute.2" horiz-adv-x="222" /><glyph d="M125 663C108 663 99 673.8 99 690C99 706.2 108 717 125 717C142 717 151 706.2 151 690C151 673.8 142 663 125 663ZM125 636C171.4762 636 189 654 189 690C189 726 171.4762 744 125 744C78.5238 744 61 726 61 690C61 654 78.5238 636 125 636ZM125 640Z" glyph-name="ring" horiz-adv-x="250" unicode="&#730;" /><glyph d="M221 113C221 27 170 -10 110 -10C51 -10 23 21 23 83C23 134 27 191 34 235H106C55.0662 137.2072 42 105 42 84C42 66 61.4286 58 110 58C143 58 151 78 151 104C151 203 18 378 18 486C18 575 69 610 129 610C181 610 206 580 206 518C206 478 204 432 195 379H129C173.8766 467.7333 187 497 187 517C187 535 171 542 129 542C96 542 88 524 88 498C88 413 221 200.0238 221 113ZM126 640ZM112 0Z" glyph-name="s" horiz-adv-x="238" unicode="s" /><glyph d="M9 487C9 573 62.2973 610 125 610C187.3908 610 217 579 217 517C217 464.3224 213.2247 405.4122 206 360H134C186.3334 460.5623 198 494.3046 198 516C198 534 177.6029 542 125 542C87.9756 542 79 522 79 496C79 397 214 222 214 114C214 25 165 -10 108 -10C59 -10 36 20 36 82C36 117 38 155 46 201H110C70 123 55 100 55 83C55 65 70 58 108 58C139 58 146 76 146 102C146 187 9 400 9 487ZM126 640ZM112 0Z" glyph-name="s.2" horiz-adv-x="238" /><glyph d="M221 113C221 27 170 -10 110 -10C51 -10 23 21 23 83C23 134 27 191 34 235H106C55.0662 137.2072 42 105 42 84C42 66 61.4286 58 110 58C143 58 151 78 151 104C151 203 18 378 18 486C18 575 69 610 129 610C181 610 206 580 206 518C206 478 204 432 195 379H129C173.8766 467.7333 187 497 187 517C187 535 171 542 129 542C96 542 88 524 88 498C88 413 221 200.0238 221 113ZM126 640ZM112 0ZM204 720V730H139L141 720C148 685 118 652 54 642V636C163 637 204 664 204 720ZM126 640Z" glyph-name="sacute" horiz-adv-x="238" unicode="&#347;" /><glyph d="M204 720V730H139L141 720C148 685 118 652 54 642V636C163 637 204 664 204 720ZM126 640ZM9 487C9 573 62.2973 610 125 610C187.3908 610 217 579 217 517C217 464.3224 213.2247 405.4122 206 360H134C186.3334 460.5623 198 494.3046 198 516C198 534 177.6029 542 125 542C87.9756 542 79 522 79 496C79 397 214 222 214 114C214 25 165 -10 108 -10C59 -10 36 20 36 82C36 117 38 155 46 201H110C70 123 55 100 55 83C55 65 70 58 108 58C139 58 146 76 146 102C146 187 9 400 9 487ZM126 640ZM112 0Z" glyph-name="sacute.2" horiz-adv-x="238" /><glyph d="M221 113C221 27 170 -10 110 -10C51 -10 23 21 23 83C23 134 27 191 34 235H106C55.0662 137.2072 42 105 42 84C42 66 61.4286 58 110 58C143 58 151 78 151 104C151 203 18 378 18 486C18 575 69 610 129 610C181 610 206 580 206 518C206 478 204 432 195 379H129C173.8766 467.7333 187 497 187 517C187 535 171 542 129 542C96 542 88 524 88 498C88 413 221 200.0238 221 113ZM126 640ZM112 0ZM130 691H120L118 636H162V656C162 697 183 719 226 724V730C157 730 130 714 130 691ZM123 691C123 714 96 730 27 730V724C70 719 91 697 91 656V636H135L133 691ZM126 640Z" glyph-name="scaron" horiz-adv-x="238" unicode="&#353;" /><glyph d="M130 691H120L118 636H162V656C162 697 183 719 226 724V730C157 730 130 714 130 691ZM123 691C123 714 96 730 27 730V724C70 719 91 697 91 656V636H135L133 691ZM126 640ZM9 487C9 573 62.2973 610 125 610C187.3908 610 217 579 217 517C217 464.3224 213.2247 405.4122 206 360H134C186.3334 460.5623 198 494.3046 198 516C198 534 177.6029 542 125 542C87.9756 542 79 522 79 496C79 397 214 222 214 114C214 25 165 -10 108 -10C59 -10 36 20 36 82C36 117 38 155 46 201H110C70 123 55 100 55 83C55 65 70 58 108 58C139 58 146 76 146 102C146 187 9 400 9 487ZM126 640ZM112 0Z" glyph-name="scaron.2" horiz-adv-x="238" /><glyph d="M125 -130C94 -130 78 -109 69 -92L73 -87C81 -93 86.9286 -97 103 -97C119 -97 127 -85 127 -74C127 -61 121 -53 111 -53C103.4 -53 99 -56 92 -62L86 -57L109 -12L89 4H132L112 -35L116 -38C122 -36 129 -35 135 -35C158 -35 177 -47 177 -75C177 -107 153 -130 125 -130ZM117 0ZM221 113C221 27 170 -10 110 -10C51 -10 23 21 23 83C23 134 27 191 34 235H106C55.0662 137.2072 42 105 42 84C42 66 61.4286 58 110 58C143 58 151 78 151 104C151 203 18 378 18 486C18 575 69 610 129 610C181 610 206 580 206 518C206 478 204 432 195 379H129C173.8766 467.7333 187 497 187 517C187 535 171 542 129 542C96 542 88 524 88 498C88 413 221 200.0238 221 113ZM126 640ZM112 0Z" glyph-name="scedilla" horiz-adv-x="238" unicode="&#351;" /><glyph d="M88 -130C72 -130 57 -128 45 -124L48 -49C64.3696 -60.555 97 -72 108 -72C116 -72 121 -69 121 -61C121 -46 111 -23 96 3H110C131 -27 145 -52 145 -76C145 -110 116.5 -130 88 -130ZM9 487C9 573 62.2973 610 125 610C187.3908 610 217 579 217 517C217 464.3224 213.2247 405.4122 206 360H134C186.3334 460.5623 198 494.3046 198 516C198 534 177.6029 542 125 542C87.9756 542 79 522 79 496C79 397 214 222 214 114C214 25 165 -10 108 -10C59 -10 36 20 36 82C36 117 38 155 46 201H110C70 123 55 100 55 83C55 65 70 58 108 58C139 58 146 76 146 102C146 187 9 400 9 487ZM126 640ZM112 0Z" glyph-name="scedilla.2" horiz-adv-x="238" /><glyph d="M221 113C221 27 170 -10 110 -10C51 -10 23 21 23 83C23 134 27 191 34 235H106C55.0662 137.2072 42 105 42 84C42 66 61.4286 58 110 58C143 58 151 78 151 104C151 203 18 378 18 486C18 575 69 610 129 610C181 610 206 580 206 518C206 478 204 432 195 379H129C173.8766 467.7333 187 497 187 517C187 535 171 542 129 542C96 542 88 524 88 498C88 413 221 200.0238 221 113ZM126 640ZM112 0ZM130 675C130 651.9184 156.7907 636 226 636V642C183.4083 646.7324 162 669 162 710V730H118L120 675ZM123 675H133L135 730H91V710C91 669 69.5917 646.7324 27 642V636C96.2093 636 123 651.9184 123 675ZM126 640Z" glyph-name="scircumflex" horiz-adv-x="238" unicode="&#349;" /><glyph d="M130 675C130 651.9184 156.7907 636 226 636V642C183.4083 646.7324 162 669 162 710V730H118L120 675ZM123 675H133L135 730H91V710C91 669 69.5917 646.7324 27 642V636C96.2093 636 123 651.9184 123 675ZM126 640ZM9 487C9 573 62.2973 610 125 610C187.3908 610 217 579 217 517C217 464.3224 213.2247 405.4122 206 360H134C186.3334 460.5623 198 494.3046 198 516C198 534 177.6029 542 125 542C87.9756 542 79 522 79 496C79 397 214 222 214 114C214 25 165 -10 108 -10C59 -10 36 20 36 82C36 117 38 155 46 201H110C70 123 55 100 55 83C55 65 70 58 108 58C139 58 146 76 146 102C146 187 9 400 9 487ZM126 640ZM112 0Z" glyph-name="scircumflex.2" horiz-adv-x="238" /><glyph d="M294 243C294 177.4848 246 149 217 149C188.8837 149 172.7037 160.5556 139 201L132 196C159.7436 151.4121 212.8322 113.3435 234 70C248 42 257 16 257 -7C256 -95 205 -130 145 -130C93 -130 68 -100 68 -38C68 -4 72 36 79 81H140C102 3 87 -20 87 -37C87 -55 103 -62 145 -62C178 -62 186 -44 186 -18C186 67 9 260 9 367C9 432.5152 57 461 86 461C114.1163 461 130.2963 449.4444 164 409L171 414C143.2564 458.5879 90.1678 496.6565 69 540C55 568 46 594 46 617C46 706 97 741 157 741C209 741 234 711 234 649C234 615 230 575 223 530H162C200 608 215 631 215 648C215 666 199 673 157 673C124 673 116 655 116 629C116 544 294 350 294 243ZM79 376C79 339.2 99.0469 289.2551 116 261C145.5338 215.5634 163 198 193 198C218 198 224 214 224 234C224 271 203.9531 320.7449 187 349C157.4662 394.4366 140 412 110 412C85 412 79 396 79 376ZM159 750ZM150 0ZM158 640ZM144 0ZM158 771ZM144 131Z" glyph-name="section" horiz-adv-x="308" unicode="&#167;" /><glyph d="M30 283H116V354H30ZM27 0H116V71H27ZM116 0 97 1C100 -27 86 -60 25 -61L29 -119C103 -125 117 -97 116 0Z" glyph-name="semicolon" horiz-adv-x="141" unicode=";" /><glyph d="M207 600 91 -130H23L138 556L130 567L207 600ZM20 600H207L130 567L20 520ZM113 760Z" glyph-name="seven" horiz-adv-x="217" unicode="7" /><glyph d="M10 730H207L177 665H10ZM23 0 130 657 122 668 207 730ZM207 730 91 0H23ZM113 760Z" glyph-name="seven.LP" horiz-adv-x="222" /><glyph d="M100 141C100 69 120 58 144 58C170 58 176 80 176 115V293C176 329 166 345 146 345C124 345 100 276 100 182ZM100 389 77 237 87 235C108 385 142 410 180 410C218 410 246 379 246 329V125C246 27 194 -10 132 -10C66 -10 30 21 30 107V605C30 703 77 740 132 740C184 740 209 709 209 647C209 596 207 526 189 425H113C183 575 190 614 190 642C190 666 174 675 132 675C106 675 100 652 100 615ZM113 0Z" glyph-name="six" horiz-adv-x="271" unicode="6" /><glyph d="M105 141C105 69 125 58 149 58C175 58 181 80 181 115V290C181 326 170.6154 342 151 342C128.5111 342 105 274 105 182ZM105 389 82 237 92 235C113 385 147 410 185 410C226 410 256 379 256 329V125C256 27 202 -10 137 -10C68 -10 30 21 30 107V605C30 703 79 740 137 740C189 740 214 709 214 647C214 596 212 526 194 425H118C187 573 190 614 190 642C190 664 175 672 137 672C111 672 105 650 105 615ZM118 0Z" glyph-name="six.LP" horiz-adv-x="276" /><glyph d="M231 730 56 0H0L150 730Z" glyph-name="slash" horiz-adv-x="231" unicode="/" /><glyph glyph-name="space" horiz-adv-x="146" unicode=" " /><glyph d="M27 730 143 0H115L0 730ZM92 730H135L143 607H126L168 0H126L118 123H135ZM146 730 262 0H234L119 730ZM211 730H254L262 607H245L287 0H245L237 123H254ZM265 730 381 0H353L238 730ZM330 730H373L381 607H364L406 0H364L356 123H373ZM384 730 500 0H472L357 730ZM449 730H492L500 607H483L525 0H483L475 123H492ZM503 730 619 0H591L476 730ZM122 760Z" glyph-name="squareuplefttolowrightfill" horiz-adv-x="619" /><glyph d="M592 730 476 0H504L619 730ZM527 730H484L476 607H493L451 0H493L501 123H484ZM473 730 357 0H385L500 730ZM408 730H365L357 607H374L332 0H374L382 123H365ZM354 730 238 0H266L381 730ZM289 730H246L238 607H255L213 0H255L263 123H246ZM235 730 119 0H147L262 730ZM170 730H127L119 607H136L94 0H136L144 123H127ZM116 730 0 0H28L143 730ZM497 760Z" glyph-name="squareuprighttolowleftfill" horiz-adv-x="619" /><glyph d="M121 549V141C121 69 139 58 156 58C180 58 188 83 190 150L193 278H207L210 147C212 58 185 -10 128 -10C77 -10 51 21 51 107V549H5V600H51V699C74 704 104 716 120 740L131 737L110 608L115 600H208V549Z" glyph-name="t" horiz-adv-x="230" unicode="t" /><glyph d="M176 154 176 490C176 526 167 542 150 542C128 542 105 474 105 382L105 74C118 61 132 54 148 54C167 54 176 68 176 154ZM248 160C248 40 219 -10 155 -10C130 -10 108 3 86 23L80 17L105 -9L105 -130H35L35 750H104L104 589L81 437L91 435C112 585 146 610 184 610C221 610 248 579 248 529Z" glyph-name="thorn" horiz-adv-x="283" unicode="&#254;" /><glyph d="M110 -62C67 -62 59 -24 57 40L54 158H40L37 37C35 -58 61 -130 114 -130C184.7544 -130 223 -92 223 6V95C223 162 214 224 186 244L142 238L141 246C190.805 255.3972 216 292 216 385V474C216 581 188.6292 610 132 610C66 610 15 538 15 475C15 431 22 376 41 330H137C57.9069 410.1203 40 446 40 486C40 520 54.0317 542 108 542C139 542 146 525 146 449V325C146 276 132 250 99 250H51V230H99C137 230 153 206 153 155V31C153 -44 136 -62 110 -62Z" glyph-name="three" horiz-adv-x="253" unicode="3" /><glyph d="M110 58C67 58 59 96 57 160L54 278H40L37 157C35 62 61 -10 114 -10C188 -10 228 28 228 126V225C228 292 219 354 191 374L142 368L141 376C194 386 221 422 221 515V604C221 711 192 740 132 740C66 740 15 668 15 605C15 561 22 506 41 460H137C58 540 40 576 40 616C40 650 54 672 108 672C139 672 146 655 146 579V455C146 406 132 380 99 380H51V360H99C137 360 153 336 153 285V151C153 76 136 58 110 58Z" glyph-name="three.LP" horiz-adv-x="258" /><glyph d="M177 636C211 636 227 662 227 732H220C211 703 199 688 181 688C152 688 102 731 74 731C40 731 24 705 24 635H31C40 664 52 679 70 679C99 679 149 636 177 636ZM125 639Z" glyph-name="tilde" horiz-adv-x="250" unicode="&#732;" /><glyph d="M16 0C127.2109 211.4108 156 315 156 424C156 444 156 466 156 490C156 534 147 542 110 542C68 542 57 520 57 486C57 441 75 391 134 310H48C37 361 32 425 32 475C32 538 76 610 134 610C195.3333 610 226 579 226 495C226 475 226 457 226 440C226 369 196.381 225.7942 101 40L115 20ZM55 65 86 25 241 80V0H16Z" glyph-name="two" horiz-adv-x="261" unicode="2" /><glyph d="M16 0C94 261 159 375 159 504C159 540 159 577 159 620C159 664 150 672 113 672C59 672 45 650 45 616C45 576 60 538 137 460H41C22 506 15 561 15 605C15 668 68 740 137 740C199 740 230 709 230 625C230 586 230 552 230 520C230 371 173 286 107 72L121 48ZM40 65H241V0H16Z" glyph-name="two.LP" horiz-adv-x="261" /><glyph d="M178 0V11L202 163L192 165C171.3474 14.5309 137 -10 99 -10C62 -10 35 21 35 71V600H105V110C105 74 110 58 129 58C157 58 178 127 178 220V600H248V0ZM137 -40ZM146 640ZM248 0Z" glyph-name="u" horiz-adv-x="283" unicode="u" /><glyph d="M178 0V11L202 163L192 165C171.3474 14.5309 137 -10 99 -10C62 -10 35 21 35 71V600H105V110C105 74 110 58 129 58C157 58 178 127 178 220V600H248V0ZM137 -40ZM146 640ZM248 0ZM224 720V730H159L161 720C168 685 138 652 74 642V636C183 637 224 664 224 720ZM146 640Z" glyph-name="uacute" horiz-adv-x="283" unicode="&#250;" /><glyph d="M178 0V11L202 163L192 165C171.3474 14.5309 137 -10 99 -10C62 -10 35 21 35 71V600H105V110C105 74 110 58 129 58C157 58 178 127 178 220V600H248V0ZM137 -40ZM146 640ZM248 0ZM146 684C101.4103 684 77.9919 694.0486 72 730H66C67 657.0006 92.6667 636 146 636C199.3333 636 225 657.0006 226 730H220C214.0081 694.0486 190.5897 684 146 684ZM146 640Z" glyph-name="ubreve" horiz-adv-x="283" unicode="&#365;" /><glyph d="M178 0V11L202 163L192 165C171.3474 14.5309 137 -10 99 -10C62 -10 35 21 35 71V600H105V110C105 74 110 58 129 58C157 58 178 127 178 220V600H248V0ZM137 -40ZM146 640ZM248 0ZM150 675C150 651.9184 176.7907 636 246 636V642C203.4083 646.7324 182 669 182 710V730H138L140 675ZM143 675H153L155 730H111V710C111 669 89.5917 646.7324 47 642V636C116.2093 636 143 651.9184 143 675ZM146 640Z" glyph-name="ucircumflex" horiz-adv-x="283" unicode="&#251;" /><glyph d="M178 0V11L202 163L192 165C171.3474 14.5309 137 -10 99 -10C62 -10 35 21 35 71V600H105V110C105 74 110 58 129 58C157 58 178 127 178 220V600H248V0ZM137 -40ZM146 640ZM248 0ZM48 664H134V710H48ZM158 664H244V710H158ZM146 640Z" glyph-name="udieresis" horiz-adv-x="283" unicode="&#252;" /><glyph d="M178 0V11L202 163L192 165C171.3474 14.5309 137 -10 99 -10C62 -10 35 21 35 71V600H105V110C105 74 110 58 129 58C157 58 178 127 178 220V600H248V0ZM137 -40ZM146 640ZM248 0ZM66 720C66 664 107 637 216 636V642C152 652 122 685 129 720L131 730H66ZM146 640Z" glyph-name="ugrave" horiz-adv-x="283" unicode="&#249;" /><glyph d="M178 0V11L202 163L192 165C171.3474 14.5309 137 -10 99 -10C62 -10 35 21 35 71V600H105V110C105 74 110 58 129 58C157 58 178 127 178 220V600H248V0ZM137 -40ZM146 640ZM248 0ZM149 720V730H89L91 720C98 686 83 646 54 642V636C123 637 149 664 149 720ZM249 720V730H189L191 720C198 686 183 646 154 642V636C223 637 249 664 249 720ZM146 640Z" glyph-name="uhungarumlaut" horiz-adv-x="283" unicode="&#369;" /><glyph d="M178 0V11L202 163L192 165C171.3474 14.5309 137 -10 99 -10C62 -10 35 21 35 71V600H105V110C105 74 110 58 129 58C157 58 178 127 178 220V600H248V0ZM137 -40ZM146 640ZM248 0ZM48 664H244V710H48ZM146 640Z" glyph-name="umacron" horiz-adv-x="283" unicode="&#363;" /><glyph d="M20 -43V-10H455V-43Z" glyph-name="underscore" horiz-adv-x="475" unicode="_" /><glyph d="M214 -130C193 -130 171 -116 171 -88C171 -59 188.0933 -37.68 225 -10L219 0H248C226.6053 -23.5341 217 -40 217 -54C217 -70 225 -75 238 -75C250 -75 263 -71 270 -67L275 -72C262 -99 237.8281 -130 214 -130ZM248 0ZM241 0ZM178 0V11L202 163L192 165C171.3474 14.5309 137 -10 99 -10C62 -10 35 21 35 71V600H105V110C105 74 110 58 129 58C157 58 178 127 178 220V600H248V0ZM137 -40ZM146 640ZM248 0Z" glyph-name="uogonek" horiz-adv-x="283" unicode="&#371;" /><glyph d="M20 261 750 377V349L20 234ZM20 326V369L143 377V360L750 402V360L627 352V369ZM20 380 750 496V468L20 353ZM20 445V488L143 496V479L750 521V479L627 471V488ZM20 499 750 615V587L20 472ZM20 564V607L143 615V598L750 640V598L627 590V607ZM20 618 750 734V706L20 591ZM20 23 750 139V111L20 -4ZM20 88V131L143 139V122L750 164V122L627 114V131ZM20 142 750 258V230L20 115ZM20 207V250L143 258V241L750 283V241L627 233V250ZM257 760Z" glyph-name="upperlefttolowrightfill" horiz-adv-x="770" /><glyph d="M750 261 20 377V349L750 234ZM750 326V369L627 377V360L20 402V360L143 352V369ZM750 380 20 496V468L750 353ZM750 445V488L627 496V479L20 521V479L143 471V488ZM750 499 20 615V587L750 472ZM750 564V607L627 615V598L20 640V598L143 590V607ZM750 618 20 734V706L750 591ZM750 23 20 139V111L750 -4ZM750 88V131L627 139V122L20 164V122L143 114V131ZM750 142 20 258V230L750 115ZM750 207V250L627 258V241L20 283V241L143 233V250ZM513 760Z" glyph-name="uprighttolowerleftfill" horiz-adv-x="770" /><glyph d="M178 0V11L202 163L192 165C171.3474 14.5309 137 -10 99 -10C62 -10 35 21 35 71V600H105V110C105 74 110 58 129 58C157 58 178 127 178 220V600H248V0ZM137 -40ZM146 640ZM248 0ZM146 663C129 663 120 673.8 120 690C120 706.2 129 717 146 717C163 717 172 706.2 172 690C172 673.8 163 663 146 663ZM146 636C192.4762 636 210 654 210 690C210 726 192.4762 744 146 744C99.5238 744 82 726 82 690C82 654 99.5238 636 146 636ZM146 640Z" glyph-name="uring" horiz-adv-x="283" unicode="&#367;" /><glyph d="M178 0V11L202 163L192 165C171.3474 14.5309 137 -10 99 -10C62 -10 35 21 35 71V600H105V110C105 74 110 58 129 58C157 58 178 127 178 220V600H248V0ZM137 -40ZM146 640ZM248 0ZM198 637C232 637 248 663 248 733H241C232 704 220 689 202 689C173 689 123 732 95 732C61 732 45 706 45 636H52C61 665 73 680 91 680C120 680 170 637 198 637ZM146 640Z" glyph-name="utilde" horiz-adv-x="283" unicode="&#361;" /><glyph d="M71 600 104 389 126 189H137L131 0H110L-5 600ZM164 600H246L131 0H110L137 189Z" glyph-name="v" horiz-adv-x="241" unicode="v" /><glyph d="M71 600 101 389 111 189H122L123 0H95L-5 600ZM168 600H191L123 0H95L122 189ZM211 600 243 389 266 189H277L273 0H245L178 385H153L180 600ZM294 600H376L273 0H245L277 189Z" glyph-name="w" horiz-adv-x="371" unicode="w" /><glyph d="M71 600 101 389 111 189H122L123 0H95L-5 600ZM168 600H191L123 0H95L122 189ZM211 600 243 389 266 189H277L273 0H245L178 385H153L180 600ZM294 600H376L273 0H245L277 189ZM274.5 720V730H209.5L211.5 720C218.5 685 188.5 652 124.5 642V636C233.5 637 274.5 664 274.5 720ZM196.5 640Z" glyph-name="wacute" horiz-adv-x="371" unicode="&#7811;" /><glyph d="M71 600 101 389 111 189H122L123 0H95L-5 600ZM168 600H191L123 0H95L122 189ZM211 600 243 389 266 189H277L273 0H245L178 385H153L180 600ZM294 600H376L273 0H245L277 189ZM189.5 675C189.5 651.9184 216.2907 636 285.5 636V642C242.9083 646.7324 221.5 669 221.5 710V730H177.5L179.5 675ZM182.5 675H192.5L194.5 730H150.5V710C150.5 669 129.0917 646.7324 86.5 642V636C155.7093 636 182.5 651.9184 182.5 675ZM185.5 640Z" glyph-name="wcircumflex" horiz-adv-x="371" unicode="&#373;" /><glyph d="M71 600 101 389 111 189H122L123 0H95L-5 600ZM168 600H191L123 0H95L122 189ZM211 600 243 389 266 189H277L273 0H245L178 385H153L180 600ZM294 600H376L273 0H245L277 189ZM87.5 664H173.5V710H87.5ZM197.5 664H283.5V710H197.5ZM185.5 640Z" glyph-name="wdieresis" horiz-adv-x="371" unicode="&#7813;" /><glyph d="M71 600 101 389 111 189H122L123 0H95L-5 600ZM168 600H191L123 0H95L122 189ZM211 600 243 389 266 189H277L273 0H245L178 385H153L180 600ZM294 600H376L273 0H245L277 189ZM116.5 720C116.5 664 157.5 637 266.5 636V642C202.5 652 172.5 685 179.5 720L181.5 730H116.5ZM196.5 640Z" glyph-name="wgrave" horiz-adv-x="371" unicode="&#7809;" /><glyph d="M84 0H0L116 363L115 270ZM124 270H115L4 600H83L116 477L140 371H151L260 0H181L148 139ZM174 600H258L147 277L151 371Z" glyph-name="x" horiz-adv-x="260" unicode="x" /><glyph d="M71 600 104 379 126 179H137L123 82H94L-5 600ZM164 600H246L106 -130H20L123 82L137 179ZM118 640Z" glyph-name="y" horiz-adv-x="241" unicode="y" /><glyph d="M71 600 104 379 126 179H137L123 82H94L-5 600ZM164 600H246L106 -130H20L123 82L137 179ZM118 640ZM196 720V730H131L133 720C140 685 110 652 46 642V636C155 637 196 664 196 720ZM118 640Z" glyph-name="yacute" horiz-adv-x="241" unicode="&#253;" /><glyph d="M71 600 104 379 126 179H137L123 82H94L-5 600ZM164 600H246L106 -130H20L123 82L137 179ZM118 640ZM122 675C122 651.9184 148.7907 636 218 636V642C175.4083 646.7324 154 669 154 710V730H110L112 675ZM115 675H125L127 730H83V710C83 669 61.5917 646.7324 19 642V636C88.2093 636 115 651.9184 115 675ZM118 640Z" glyph-name="ycircumflex" horiz-adv-x="241" unicode="&#375;" /><glyph d="M71 600 104 379 126 179H137L123 82H94L-5 600ZM164 600H246L106 -130H20L123 82L137 179ZM118 640ZM20 664H106V710H20ZM130 664H216V710H130ZM118 640Z" glyph-name="ydieresis" horiz-adv-x="241" unicode="&#255;" /><glyph d="M71 600 104 379 126 179H137L123 82H94L-5 600ZM164 600H246L106 -130H20L123 82L137 179ZM118 640ZM38 720C38 664 79 637 188 636V642C124 652 94 685 101 720L103 730H38ZM118 640Z" glyph-name="ygrave" horiz-adv-x="241" unicode="&#7923;" /><glyph d="M28 600H211L127 565L28 520ZM89 34 217 80V0H5ZM5 0 134 557 127 565 211 600 84 41 89 34 5 0ZM110 640Z" glyph-name="z" horiz-adv-x="232" unicode="z" /><glyph d="M31 600H216L132 565L31 520ZM89 34 217 80V0H5ZM15 295 139 557 130 568 216 600 106 335 118 320 62 295ZM90 326H213L183 295H56ZM2 0 122 287 114 298 213 326 84 41 96 26 49 0ZM110 640Z" glyph-name="z.2" horiz-adv-x="227" /><glyph d="M28 600H211L127 565L28 520ZM89 34 217 80V0H5ZM5 0 134 557 127 565 211 600 84 41 89 34 5 0ZM110 640ZM188 720V730H123L125 720C132 685 102 652 38 642V636C147 637 188 664 188 720ZM110 640Z" glyph-name="zacute" horiz-adv-x="232" unicode="&#378;" /><glyph d="M31 600H216L132 565L31 520ZM89 34 217 80V0H5ZM15 295 139 557 130 568 216 600 106 335 118 320 62 295ZM90 326H213L183 295H56ZM2 0 122 287 114 298 213 326 84 41 96 26 49 0ZM110 640ZM198 720V730H133L135 720C142 685 112 652 48 642V636C157 637 198 664 198 720ZM120 640Z" glyph-name="zacute.2" horiz-adv-x="227" /><glyph d="M28 600H211L127 565L28 520ZM89 34 217 80V0H5ZM5 0 134 557 127 565 211 600 84 41 89 34 5 0ZM110 640ZM114 691H104L102 636H146V656C146 697 167 719 210 724V730C141 730 114 714 114 691ZM107 691C107 714 80 730 11 730V724C54 719 75 697 75 656V636H119L117 691ZM110 640Z" glyph-name="zcaron" horiz-adv-x="232" unicode="&#382;" /><glyph d="M31 600H216L132 565L31 520ZM89 34 217 80V0H5ZM15 295 139 557 130 568 216 600 106 335 118 320 62 295ZM90 326H213L183 295H56ZM2 0 122 287 114 298 213 326 84 41 96 26 49 0ZM110 640ZM126 691H116L114 636H158V656C158 697 179 719 222 724V730C153 730 126 714 126 691ZM119 691C119 714 92 730 23 730V724C66 719 87 697 87 656V636H131L129 691ZM122 640Z" glyph-name="zcaron.2" horiz-adv-x="227" /><glyph d="M28 600H211L127 565L28 520ZM89 34 217 80V0H5ZM5 0 134 557 127 565 211 600 84 41 89 34 5 0ZM110 640ZM57 679H163V730H57ZM110 640Z" glyph-name="zdotaccent" horiz-adv-x="232" unicode="&#380;" /><glyph d="M31 600H216L132 565L31 520ZM89 34 217 80V0H5ZM15 295 139 557 130 568 216 600 106 335 118 320 62 295ZM90 326H213L183 295H56ZM2 0 122 287 114 298 213 326 84 41 96 26 49 0ZM110 640ZM67 679H173V730H67ZM120 640Z" glyph-name="zdotaccent.2" horiz-adv-x="227" /><glyph d="M132 542C110 542 105 520 105 485V141C105 69 123 58 144 58C166 58 171 80 171 115V459C171 531 152 542 132 542ZM132 -10C69 -10 35 21 35 107V475C35 573 85 610 144 610C208 610 241 579 241 493V125C241 27 191 -10 132 -10ZM143 640Z" glyph-name="zero" horiz-adv-x="276" unicode="0" /><glyph d="M142 672C112 672 105 650 105 615V141C105 69 125 58 149 58C175 58 181 80 181 115V589C181 661 162 672 142 672ZM137 -10C68 -10 30 21 30 107V605C30 703 84 740 149 740C219 740 256 709 256 623V125C256 27 202 -10 137 -10ZM147 760Z" glyph-name="zero.LP" horiz-adv-x="286" /><glyph d="M96 70H76L182 535H202ZM132 542C110 542 105 520 105 485V141C105 69 123 58 144 58C166 58 171 80 171 115V459C171 531 152 542 132 542ZM132 -10C69 -10 35 21 35 107V475C35 573 85 610 144 610C208 610 241 579 241 493V125C241 27 191 -10 132 -10ZM143 640Z" glyph-name="zero.slash" horiz-adv-x="276" /><glyph d="M102 137H82L188 602H208ZM142 672C112 672 105 650 105 615V141C105 69 125 58 149 58C175 58 181 80 181 115V589C181 661 162 672 142 672ZM137 -10C68 -10 30 21 30 107V605C30 703 84 740 149 740C219 740 256 709 256 623V125C256 27 202 -10 137 -10ZM147 760Z" glyph-name="zero.slash.LP" horiz-adv-x="286" /></font>
</defs>
</svg>
