<?xml version="1.0" standalone="no"?><!DOCTYPE svg PUBLIC "-//W3C//DTD SVG 1.1//EN" "http://www.w3.org/Graphics/SVG/1.1/DTD/svg11.dtd" ><svg version="1.1" xmlns="http://www.w3.org/2000/svg"><defs><font horiz-adv-x="0" id="font"><font-face ascent="710" bbox="-35 -250 1001 914" cap-height="690" descent="-250" font-family="Faune" font-stretch="normal" font-style="normal" font-weight="250" units-per-em="1000" x-height="470" /><missing-glyph d="M406 690 80 0H94L420 690ZM414 0V14H82V0ZM406 690V0H420V690ZM414 676V690H82V676ZM80 690V0H94V690ZM406 0H420L94 690H80Z" horiz-adv-x="500" /><glyph d="M46 0 297 681H288L539 0H555L300 692H286L30 0ZM454 246V260H132V246Z" glyph-name="A" horiz-adv-x="585" unicode="A" /><glyph d="M39 0 251 514H241L453 0H467L251 520H241L25 0ZM382 184 377 196H115L110 184Z" glyph-name="A.small" horiz-adv-x="492" /><glyph d="M416 685 0 0H19L430 680V685ZM420 685V5H434V685ZM422 19V5H758V19ZM758 671V685H422V671ZM425 326V340H215L205 326ZM698 326V340H422V326Z" glyph-name="AE" horiz-adv-x="798" unicode="&#198;" /><glyph d="M39 0 341 509V515H331L25 0ZM337 244V256H180L175 244ZM331 515V5H645V17H337L343 11V509L337 503H646V515ZM334 256V244H580V256Z" glyph-name="AE.small" horiz-adv-x="676" /><glyph d="M416 685 0 0H19L430 680V685ZM420 685V5H434V685ZM422 19V5H758V19ZM758 671V685H422V671ZM425 326V340H215L205 326ZM698 326V340H422V326ZM504 742 510 730 679 813 673 825Z" glyph-name="AEacute" horiz-adv-x="798" unicode="&#508;" /><glyph d="M39 0 341 509V515H331L25 0ZM337 244V256H180L175 244ZM331 515V5H645V17H337L343 11V509L337 503H646V515ZM334 256V244H580V256ZM427 621 436 611 573 772 564 782Z" glyph-name="AEacute.small" horiz-adv-x="676" /><glyph d="M46 0 297 681H288L539 0H555L300 692H286L30 0ZM454 246V260H132V246ZM249 742 255 730 424 813 418 825Z" glyph-name="Aacute" horiz-adv-x="585" unicode="&#193;" /><glyph d="M39 0 251 514H241L453 0H467L251 520H241L25 0ZM382 184 377 196H115L110 184ZM185 621 194 611 331 772 322 782Z" glyph-name="Aacute.small" horiz-adv-x="492" /><glyph d="M46 0 297 681H288L539 0H555L300 692H286L30 0ZM454 246V260H132V246ZM160 832C160 802 188 730 293 730C398 730 426 802 426 832H411C411 805 382 744 293 744C204 744 175 805 175 832Z" glyph-name="Abreve" horiz-adv-x="585" unicode="&#258;" /><glyph d="M39 0 251 514H241L453 0H467L251 520H241L25 0ZM382 184 377 196H115L110 184ZM246 644C356 644 375 744 375 776H363C363 746 346 656 246 656C146 656 129 746 129 776H117C117 744 136 644 246 644Z" glyph-name="Abreve.small" horiz-adv-x="492" /><glyph d="M46 0 297 681H288L539 0H555L300 692H286L30 0ZM454 246V260H132V246ZM152 742 158 730 293 811 428 730 434 742 295 825H291Z" glyph-name="Acircumflex" horiz-adv-x="585" unicode="&#194;" /><glyph d="M39 0 251 514H241L453 0H467L251 520H241L25 0ZM382 184 377 196H115L110 184ZM104.5 621 113.5 611 246.5 767 378.5 611 387.5 621 250.5 782H241.5Z" glyph-name="Acircumflex.small" horiz-adv-x="492" /><glyph d="M46 0 297 681H288L539 0H555L300 692H286L30 0ZM454 246V260H132V246ZM194 778C194 768 201 759 213 759C224 759 231 768 231 778C231 787 224 796 213 796C201 796 194 787 194 778ZM354 778C354 768 361 759 373 759C384 759 391 768 391 778C391 787 384 796 373 796C361 796 354 787 354 778Z" glyph-name="Adieresis" horiz-adv-x="585" unicode="&#196;" /><glyph d="M39 0 251 514H241L453 0H467L251 520H241L25 0ZM382 184 377 196H115L110 184ZM147.5 712C147.5 702 154.5 693 166.5 693C177.5 693 184.5 702 184.5 712C184.5 721 177.5 730 166.5 730C154.5 730 147.5 721 147.5 712ZM307.5 712C307.5 702 314.5 693 326.5 693C337.5 693 344.5 702 344.5 712C344.5 721 337.5 730 326.5 730C314.5 730 307.5 721 307.5 712Z" glyph-name="Adieresis.small" horiz-adv-x="492" /><glyph d="M46 0 297 681H288L539 0H555L300 692H286L30 0ZM454 246V260H132V246ZM162 813 331 730 337 742 168 825Z" glyph-name="Agrave" horiz-adv-x="585" unicode="&#192;" /><glyph d="M39 0 251 514H241L453 0H467L251 520H241L25 0ZM382 184 377 196H115L110 184ZM141 772 278 611 287 621 150 782Z" glyph-name="Agrave.small" horiz-adv-x="492" /><glyph d="M46 0 297 681H288L539 0H555L300 692H286L30 0ZM454 246V260H132V246ZM175 791V779H411V791Z" glyph-name="Amacron" horiz-adv-x="585" unicode="&#256;" /><glyph d="M39 0 251 514H241L453 0H467L251 520H241L25 0ZM382 184 377 196H115L110 184ZM128 735V723H364V735Z" glyph-name="Amacron.small" horiz-adv-x="492" /><glyph d="M444 -129C444 -160 458 -185 498 -185C538 -185 555 -156 555 -115H543C543 -148 530 -173 498 -173C464 -173 456 -150 456 -129C456 -69 520 -27 555 0L546 7C480 -40 444 -79 444 -129ZM46 0 297 681H288L539 0H555L300 692H286L30 0ZM454 246V260H132V246Z" glyph-name="Aogonek" horiz-adv-x="585" unicode="&#260;" /><glyph d="M356 -129C356 -160 370 -185 410 -185C450 -185 467 -156 467 -115H455C455 -148 442 -173 410 -173C376 -173 368 -150 368 -129C368 -69 432 -27 467 0L460 7C394 -40 356 -79 356 -129ZM39 0 251 514H241L453 0H467L251 520H241L25 0ZM382 184 377 196H115L110 184Z" glyph-name="Aogonek.small" horiz-adv-x="492" /><glyph d="M46 0 297 681H288L539 0H555L300 692H286L30 0ZM454 246V260H132V246ZM222 789C222 750 251 719 292 719C334 719 363 750 363 789C363 829 334 860 292 860C251 860 222 829 222 789ZM349 789C349 758 326 733 292 733C259 733 236 758 236 789C236 821 259 846 292 846C326 846 349 821 349 789Z" glyph-name="Aring" horiz-adv-x="585" unicode="&#197;" /><glyph d="M39 0 251 514H241L453 0H467L251 520H241L25 0ZM382 184 377 196H115L110 184ZM168.5 721C168.5 678 199.5 644 245.5 644C292.5 644 323.5 678 323.5 721C323.5 765 292.5 799 245.5 799C200.5 799 168.5 765 168.5 721ZM311.5 721C311.5 684 284.5 656 245.5 656C207.5 656 180.5 684 180.5 721C180.5 759 207.5 787 245.5 787C284.5 787 311.5 759 311.5 721Z" glyph-name="Aring.small" horiz-adv-x="492" /><glyph d="M46 0 297 681H288L539 0H555L300 692H286L30 0ZM454 246V260H132V246ZM222 749C222 710 251 679 292 679C334 679 363 710 363 749C363 789 334 820 292 820C251 820 222 789 222 749ZM349 749C349 718 326 693 292 693C259 693 236 718 236 749C236 781 259 806 292 806C326 806 349 781 349 749ZM219 831 225 819 394 902 388 914Z" glyph-name="Aringacute" horiz-adv-x="585" unicode="&#506;" /><glyph d="M39 0 251 514H241L453 0H467L251 520H241L25 0ZM382 184 377 196H115L110 184ZM172 649C172 606 203 572 249 572C296 572 327 606 327 649C327 693 296 727 249 727C204 727 172 693 172 649ZM315 649C315 612 288 584 249 584C211 584 184 612 184 649C184 687 211 715 249 715C288 715 315 687 315 649ZM181 772 187 760 356 843 350 855Z" glyph-name="Aringacute.small" horiz-adv-x="492" /><glyph d="M46 0 297 681H288L539 0H555L300 692H286L30 0ZM454 246V260H132V246ZM356 750C301 750 307 822 233 822C172 822 157 777 171 736L185 741C175 775 184 809 231 809C299 809 289 737 355 737C417 737 431 782 416 823L402 818C413 784 405 750 356 750Z" glyph-name="Atilde" horiz-adv-x="585" unicode="&#195;" /><glyph d="M39 0 251 514H241L453 0H467L251 520H241L25 0ZM382 184 377 196H115L110 184ZM128.5 640 140.5 644C124.3968 692.3096 132.5 740 183.5 740C257.5 740 237.5 642 308.5 642C367.5 642 382.8003 696.0991 363.5 754L351.5 750C367.6032 701.6904 359.5 654 308.5 654C248.5 654 266.5 752 183.5 752C124.5 752 109.1997 697.9009 128.5 640Z" glyph-name="Atilde.small" horiz-adv-x="492" /><glyph d="M100 690V0H114V683L107 676H247C362 676 455 640 455 518C455 385 320 361 231 361H104V347H270C385 347 490 303 490 181C490 48 390 14 301 14H110V0H301C398 0 504 38 504 181C504 308 399 357 274 357H190V351H235C326 351 469 375 469 518C469 648 372 690 247 690Z" glyph-name="B" horiz-adv-x="549" unicode="B" /><glyph d="M102 6V514L94 508H211C315 508 408 487 408 390C408 302 314 272 204 272H101V260H226C341 260 440 231 440 134C440 40 362 12 237 12H96ZM90 0H237C374 0 452 34 452 134C452 237 354 268 229 268H151V265H209C331 265 420 296 420 390C420 493 325 520 211 520H90Z" glyph-name="B.small" horiz-adv-x="492" /><glyph d="M55 339C55 100 185 -4 338 -4C520 -4 571.7253 129.0385 574 137L561 142C558 136 508 10 338 10C191 10 69 112 69 339C69 563 196 681 347 681C499 681 549 575 552 569L564 575C561 581 509 695 347 695C190 695 55 575 55 339Z" glyph-name="C" horiz-adv-x="614" unicode="C" /><glyph d="M50 254C50 82 142 -4 280 -4C445 -4 471 101 472 109L461 112C459 104 433 8 280 8C148 8 62 90 62 254C62 422 150 513 285 513C421 513 450 430 452 423L464 427C462 434 433 525 285 525C144 525 50 430 50 254Z" glyph-name="C.small" horiz-adv-x="502" /><glyph d="M55 339C55 100 185 -4 338 -4C520 -4 571.7253 129.0385 574 137L561 142C558 136 508 10 338 10C191 10 69 112 69 339C69 563 196 681 347 681C499 681 549 575 552 569L564 575C561 581 509 695 347 695C190 695 55 575 55 339ZM302 742 308 730 477 813 471 825Z" glyph-name="Cacute" horiz-adv-x="614" unicode="&#262;" /><glyph d="M50 254C50 82 142 -4 280 -4C445 -4 471 101 472 109L461 112C459 104 433 8 280 8C148 8 62 90 62 254C62 422 150 513 285 513C421 513 450 430 452 423L464 427C462 434 433 525 285 525C144 525 50 430 50 254ZM229 621 238 611 375 772 366 782Z" glyph-name="Cacute.small" horiz-adv-x="502" /><glyph d="M55 339C55 100 185 -4 338 -4C520 -4 571.7253 129.0385 574 137L561 142C558 136 508 10 338 10C191 10 69 112 69 339C69 563 196 681 347 681C499 681 549 575 552 569L564 575C561 581 509 695 347 695C190 695 55 575 55 339ZM213 813 352 730H356L495 813L489 825L354 744L219 825Z" glyph-name="Ccaron" horiz-adv-x="614" unicode="&#268;" /><glyph d="M50 254C50 82 142 -4 280 -4C445 -4 471 101 472 109L461 112C459 104 433 8 280 8C148 8 62 90 62 254C62 422 150 513 285 513C421 513 450 430 452 423L464 427C462 434 433 525 285 525C144 525 50 430 50 254ZM149 772 286 611H295L432 772L423 782L290 626L158 782Z" glyph-name="Ccaron.small" horiz-adv-x="502" /><glyph d="M55 339C55 100 185 -4 338 -4C520 -4 571.7253 129.0385 574 137L561 142C558 136 508 10 338 10C191 10 69 112 69 339C69 563 196 681 347 681C499 681 549 575 552 569L564 575C561 581 509 695 347 695C190 695 55 575 55 339ZM298 -120C296 -161 317 -185 358 -185C393 -185 423 -165 423 -120C423 -63 377 -48 323 -62L329 -68L348 0L337 3L316 -69L324 -72C372 -61 411 -71 411 -120C411 -157 387 -173 358 -173C325 -173 308 -155 310 -120Z" glyph-name="Ccedilla" horiz-adv-x="614" unicode="&#199;" /><glyph d="M50 254C50 82 142 -4 280 -4C445 -4 471 101 472 109L461 112C459 104 433 8 280 8C148 8 62 90 62 254C62 422 150 513 285 513C421 513 450 430 452 423L464 427C462 434 433 525 285 525C144 525 50 430 50 254ZM228 -120C226 -161 247 -185 288 -185C323 -185 353 -165 353 -120C353 -63 307 -48 253 -62L259 -68L278 0L267 3L246 -69L254 -72C302 -61 341 -71 341 -120C341 -157 317 -173 288 -173C255 -173 238 -155 240 -120Z" glyph-name="Ccedilla.small" horiz-adv-x="502" /><glyph d="M55 339C55 100 185 -4 338 -4C520 -4 571.7253 129.0385 574 137L561 142C558 136 508 10 338 10C191 10 69 112 69 339C69 563 196 681 347 681C499 681 549 575 552 569L564 575C561 581 509 695 347 695C190 695 55 575 55 339ZM199 742 205 730 340 811 475 730 481 742 342 825H338Z" glyph-name="Ccircumflex" horiz-adv-x="614" unicode="&#264;" /><glyph d="M50 254C50 82 142 -4 280 -4C445 -4 471 101 472 109L461 112C459 104 433 8 280 8C148 8 62 90 62 254C62 422 150 513 285 513C421 513 450 430 452 423L464 427C462 434 433 525 285 525C144 525 50 430 50 254ZM144 621 153 611 286 767 418 611 427 621 290 782H281Z" glyph-name="Ccircumflex.small" horiz-adv-x="502" /><glyph d="M55 339C55 100 185 -4 338 -4C520 -4 571.7253 129.0385 574 137L561 142C558 136 508 10 338 10C191 10 69 112 69 339C69 563 196 681 347 681C499 681 549 575 552 569L564 575C561 581 509 695 347 695C190 695 55 575 55 339ZM331 778C331 768 338 759 350 759C361 759 368 768 368 778C368 787 361 796 350 796C338 796 331 787 331 778Z" glyph-name="Cdotaccent" horiz-adv-x="614" unicode="&#266;" /><glyph d="M50 254C50 82 142 -4 280 -4C445 -4 471 101 472 109L461 112C459 104 433 8 280 8C148 8 62 90 62 254C62 422 150 513 285 513C421 513 450 430 452 423L464 427C462 434 433 525 285 525C144 525 50 430 50 254ZM290 693C301 693 308 702 308 712C308 721 301 730 290 730C278 730 271 721 271 712C271 702 278 693 290 693Z" glyph-name="Cdotaccent.small" horiz-adv-x="502" /><glyph d="M114 684 106 676H247C492 676 588 520 588 349C588 88 418 14 247 14H106L114 6ZM100 690V0H247C424 0 602 76 602 349C602 528 500 690 247 690Z" glyph-name="D" horiz-adv-x="657" unicode="D" /><glyph d="M102 515 96 508H212C435 508 509 393 509 265C509 69 379 12 221 12H96L102 7ZM90 520V0H221C387 0 521 61 521 265C521 397 445 520 212 520Z" glyph-name="D.small" horiz-adv-x="571" /><glyph d="M114 684 106 676H247C492 676 588 520 588 349C588 88 418 14 247 14H106L114 6ZM100 690V0H247C424 0 602 76 602 349C602 528 500 690 247 690ZM159 813 298 730H302L441 813L435 825L300 744L165 825Z" glyph-name="Dcaron" horiz-adv-x="657" unicode="&#270;" /><glyph d="M102 515 96 508H212C435 508 509 393 509 265C509 69 379 12 221 12H96L102 7ZM90 520V0H221C387 0 521 61 521 265C521 397 445 520 212 520ZM127 772 264 611H273L410 772L401 782L268 626L136 782Z" glyph-name="Dcaron.small" horiz-adv-x="571" /><glyph d="M20 359V347H346V359ZM114 684 106 676H247C492 676 588 520 588 349C588 88 418 14 247 14H106L114 6ZM100 690V0H247C424 0 602 76 602 349C602 528 500 690 247 690Z" glyph-name="Dcroat" horiz-adv-x="657" unicode="&#272;" /><glyph d="M20 264V252H256V264ZM102 515 96 508H212C435 508 509 393 509 265C509 69 379 12 221 12H96L102 7ZM90 520V0H221C387 0 521 61 521 265C521 397 445 520 212 520Z" glyph-name="Dcroat.small" horiz-adv-x="571" /><glyph d="M555 14H57L306 672ZM40 0H572V9L313 695H299L40 9Z" glyph-name="Delta" horiz-adv-x="612" unicode="&#8710;" /><glyph d="M100 685V5H114V685ZM418 356V370H102V356ZM102 19V5H478V19ZM478 671V685H102V671Z" glyph-name="E" horiz-adv-x="518" unicode="E" /><glyph d="M102 509 96 503H435V515H90V5H434V17H96L102 11ZM369 266V278H93V266Z" glyph-name="E.small" horiz-adv-x="465" /><glyph d="M100 685V5H114V685ZM418 356V370H102V356ZM102 19V5H478V19ZM478 671V685H102V671ZM212 742 218 730 387 813 381 825Z" glyph-name="Eacute" horiz-adv-x="518" unicode="&#201;" /><glyph d="M102 509 96 503H435V515H90V5H434V17H96L102 11ZM369 266V278H93V266ZM217 621 226 611 363 772 354 782Z" glyph-name="Eacute.small" horiz-adv-x="465" /><glyph d="M100 685V5H114V685ZM418 356V370H102V356ZM102 19V5H478V19ZM478 671V685H102V671ZM157 832C157 802 185 730 290 730C395 730 423 802 423 832H408C408 805 379 744 290 744C201 744 172 805 172 832Z" glyph-name="Ebreve" horiz-adv-x="518" unicode="&#276;" /><glyph d="M102 509 96 503H435V515H90V5H434V17H96L102 11ZM369 266V278H93V266ZM269 644C379 644 398 744 398 776H386C386 746 369 656 269 656C169 656 152 746 152 776H140C140 744 159 644 269 644Z" glyph-name="Ebreve.small" horiz-adv-x="465" /><glyph d="M100 685V5H114V685ZM418 356V370H102V356ZM102 19V5H478V19ZM478 671V685H102V671ZM158 813 297 730H301L440 813L434 825L299 744L164 825Z" glyph-name="Ecaron" horiz-adv-x="518" unicode="&#282;" /><glyph d="M102 509 96 503H435V515H90V5H434V17H96L102 11ZM369 266V278H93V266ZM128 772 265 611H274L411 772L402 782L269 626L137 782Z" glyph-name="Ecaron.small" horiz-adv-x="465" /><glyph d="M100 685V5H114V685ZM418 356V370H102V356ZM102 19V5H478V19ZM478 671V685H102V671ZM149 742 155 730 290 811 425 730 431 742 292 825H288Z" glyph-name="Ecircumflex" horiz-adv-x="518" unicode="&#202;" /><glyph d="M102 509 96 503H435V515H90V5H434V17H96L102 11ZM369 266V278H93V266ZM122 621 131 611 264 767 396 611 405 621 268 782H259Z" glyph-name="Ecircumflex.small" horiz-adv-x="465" /><glyph d="M100 685V5H114V685ZM418 356V370H102V356ZM102 19V5H478V19ZM478 671V685H102V671ZM195 778C195 768 202 759 214 759C225 759 232 768 232 778C232 787 225 796 214 796C202 796 195 787 195 778ZM355 778C355 768 362 759 374 759C385 759 392 768 392 778C392 787 385 796 374 796C362 796 355 787 355 778Z" glyph-name="Edieresis" horiz-adv-x="518" unicode="&#203;" /><glyph d="M102 509 96 503H435V515H90V5H434V17H96L102 11ZM369 266V278H93V266ZM169 712C169 702 176 693 188 693C199 693 206 702 206 712C206 721 199 730 188 730C176 730 169 721 169 712ZM329 712C329 702 336 693 348 693C359 693 366 702 366 712C366 721 359 730 348 730C336 730 329 721 329 712Z" glyph-name="Edieresis.small" horiz-adv-x="465" /><glyph d="M100 685V5H114V685ZM418 356V370H102V356ZM102 19V5H478V19ZM478 671V685H102V671ZM272 778C272 768 279 759 291 759C302 759 309 768 309 778C309 787 302 796 291 796C279 796 272 787 272 778Z" glyph-name="Edotaccent" horiz-adv-x="518" unicode="&#278;" /><glyph d="M102 509 96 503H435V515H90V5H434V17H96L102 11ZM369 266V278H93V266ZM268 693C279 693 286 702 286 712C286 721 279 730 268 730C256 730 249 721 249 712C249 702 256 693 268 693Z" glyph-name="Edotaccent.small" horiz-adv-x="465" /><glyph d="M100 685V5H114V685ZM418 356V370H102V356ZM102 19V5H478V19ZM478 671V685H102V671ZM172 813 341 730 347 742 178 825Z" glyph-name="Egrave" horiz-adv-x="518" unicode="&#200;" /><glyph d="M102 509 96 503H435V515H90V5H434V17H96L102 11ZM369 266V278H93V266ZM157 772 294 611 303 621 166 782Z" glyph-name="Egrave.small" horiz-adv-x="465" /><glyph d="M100 685V5H114V685ZM418 356V370H102V356ZM102 19V5H478V19ZM478 671V685H102V671ZM175 791V779H411V791Z" glyph-name="Emacron" horiz-adv-x="518" unicode="&#274;" /><glyph d="M102 509 96 503H435V515H90V5H434V17H96L102 11ZM369 266V278H93V266ZM145 735V723H381V735Z" glyph-name="Emacron.small" horiz-adv-x="465" /><glyph d="M408 -243C522 -243 564 -157 564 -5V690H550V19L114 690H100V0H114V664L550 -5C550 -133 519 -229 408 -229C312 -229 274 -158 274 -102H260C260 -168 300 -243 408 -243Z" glyph-name="Eng" horiz-adv-x="664" unicode="&#330;" /><glyph d="M367 -250C477 -250 507 -172 507 -64V520H495V20L101 520H90V0H102V498L495 0V-64C495 -162 469 -238 367 -238C281 -238 246 -180 246 -133H234C234 -186 269 -250 367 -250Z" glyph-name="Eng.small" horiz-adv-x="597" /><glyph d="M357 -112C357 -166 379 -185 419 -185C459 -185 478 -156 478 -115H466C466 -148 451 -173 419 -173C385 -173 369 -153 369 -112C369 -72 397 -21 443 8L431 14C374 -29 357 -75 357 -112ZM100 685V5H114V685ZM418 356V370H102V356ZM102 19V5H478V19ZM478 671V685H102V671Z" glyph-name="Eogonek" horiz-adv-x="518" unicode="&#280;" /><glyph d="M313 -112C313 -166 335 -185 375 -185C415 -185 434 -156 434 -115H422C422 -148 407 -173 375 -173C341 -173 325 -153 325 -112C325 -72 353 -21 399 8L387 14C330 -29 313 -75 313 -112ZM102 509 96 503H435V515H90V5H434V17H96L102 11ZM369 266V278H93V266Z" glyph-name="Eogonek.small" horiz-adv-x="465" /><glyph d="M20 359V347H346V359ZM114 684 106 676H247C492 676 588 520 588 349C588 88 418 14 247 14H106L114 6ZM100 690V0H247C424 0 602 76 602 349C602 528 500 690 247 690Z" glyph-name="Eth" horiz-adv-x="657" unicode="&#208;" /><glyph d="M20 264V252H256V264ZM102 515 96 508H212C435 508 509 393 509 265C509 69 379 12 221 12H96L102 7ZM90 520V0H221C387 0 521 61 521 265C521 397 445 520 212 520Z" glyph-name="Eth.small" horiz-adv-x="571" /><glyph d="M380 661C436 661 480 637 504 616L514 628C490 649 444 675 380 675C237 675 120 557 120 336C120 324.5893 120.2497 313.4806 120.7416 302.6716C130.3378 91.819 232.1195 -5 371 -5C455 -5 501 31 523 52L513 62C491 41 447 9 371 9C240.3285 9 145.891 101.7943 135.0432 297.3526C134.3518 309.8167 134 322.6984 134 336C134 545 243 661 380 661ZM435 408H44L41 394H432ZM412 270H24L21 256H409Z" glyph-name="Euro" horiz-adv-x="550" unicode="&#8364;" /><glyph d="M100 685V0H114V685ZM388 356V370H102V356ZM468 671V685H102V671Z" glyph-name="F" horiz-adv-x="468" unicode="F" /><glyph d="M90 515V0H102V509L96 503H426V515ZM93 278V266H342V278Z" glyph-name="F.small" horiz-adv-x="426" /><glyph d="M90 515V0H102V509L96 503H426V515ZM93 278V266H342V278ZM524 520V0H536V520Z" glyph-name="FI.small" horiz-adv-x="636" /><glyph d="M90 515V0H102V509L96 503H426V515ZM93 278V266H342V278ZM514 520V5H848V17H520L526 11V520Z" glyph-name="FL.small" horiz-adv-x="858" /><glyph d="M55 342C55 103 193 -4 358 -4C510 -4 572 85 576 92V326H384V312H569L562 319V96C562 96 502 10 358 10C199 10 69 115 69 342C69 567 206 681 357 681C510 681 559 575 562 569L574 575C571 581 522 695 357 695C200 695 55 577 55 342Z" glyph-name="G" horiz-adv-x="641" unicode="G" /><glyph d="M50 251C50 79 149 -5 299 -5C435 -5 494 63 495 68V245H323V233H489L483 239V72C483 72 429 7 299 7C157 7 62 87 62 251C62 421 163 513 298 513C435 513 470 431 473 425L484 430C482 435 445 525 298 525C157 525 50 429 50 251Z" glyph-name="G.small" horiz-adv-x="577" /><glyph d="M55 342C55 103 193 -4 358 -4C510 -4 572 85 576 92V326H384V312H569L562 319V96C562 96 502 10 358 10C199 10 69 115 69 342C69 567 206 681 357 681C510 681 559 575 562 569L574 575C571 581 522 695 357 695C200 695 55 577 55 342ZM233 832C233 802 261 730 366 730C471 730 499 802 499 832H484C484 805 455 744 366 744C277 744 248 805 248 832Z" glyph-name="Gbreve" horiz-adv-x="641" unicode="&#286;" /><glyph d="M50 251C50 79 149 -5 299 -5C435 -5 494 63 495 68V245H323V233H489L483 239V72C483 72 429 7 299 7C157 7 62 87 62 251C62 421 163 513 298 513C435 513 470 431 473 425L484 430C482 435 445 525 298 525C157 525 50 429 50 251ZM300 644C410 644 429 744 429 776H417C417 746 400 656 300 656C200 656 183 746 183 776H171C171 744 190 644 300 644Z" glyph-name="Gbreve.small" horiz-adv-x="577" /><glyph d="M55 342C55 103 193 -4 358 -4C510 -4 572 85 576 92V326H384V312H569L562 319V96C562 96 502 10 358 10C199 10 69 115 69 342C69 567 206 681 357 681C510 681 559 575 562 569L574 575C571 581 522 695 357 695C200 695 55 577 55 342ZM219 742 225 730 360 811 495 730 501 742 362 825H358Z" glyph-name="Gcircumflex" horiz-adv-x="641" unicode="&#284;" /><glyph d="M50 251C50 79 149 -5 299 -5C435 -5 494 63 495 68V245H323V233H489L483 239V72C483 72 429 7 299 7C157 7 62 87 62 251C62 421 163 513 298 513C435 513 470 431 473 425L484 430C482 435 445 525 298 525C157 525 50 429 50 251ZM155 621 164 611 297 767 429 611 438 621 301 782H292Z" glyph-name="Gcircumflex.small" horiz-adv-x="577" /><glyph d="M55 342C55 103 193 -4 358 -4C510 -4 572 85 576 92V326H384V312H569L562 319V96C562 96 502 10 358 10C199 10 69 115 69 342C69 567 206 681 357 681C510 681 559 575 562 569L574 575C571 581 522 695 357 695C200 695 55 577 55 342ZM310 -201 321 -206 383 -58 372 -53Z" glyph-name="Gcommaaccent" horiz-adv-x="641" unicode="&#290;" /><glyph d="M50 251C50 79 149 -5 299 -5C435 -5 494 63 495 68V245H323V233H489L483 239V72C483 72 429 7 299 7C157 7 62 87 62 251C62 421 163 513 298 513C435 513 470 431 473 425L484 430C482 435 445 525 298 525C157 525 50 429 50 251ZM232 -201 243 -206 305 -58 294 -53Z" glyph-name="Gcommaaccent.small" horiz-adv-x="577" /><glyph d="M55 342C55 103 193 -4 358 -4C510 -4 572 85 576 92V326H384V312H569L562 319V96C562 96 502 10 358 10C199 10 69 115 69 342C69 567 206 681 357 681C510 681 559 575 562 569L574 575C571 581 522 695 357 695C200 695 55 577 55 342ZM341 778C341 768 348 759 360 759C371 759 378 768 378 778C378 787 371 796 360 796C348 796 341 787 341 778Z" glyph-name="Gdotaccent" horiz-adv-x="641" unicode="&#288;" /><glyph d="M50 251C50 79 149 -5 299 -5C435 -5 494 63 495 68V245H323V233H489L483 239V72C483 72 429 7 299 7C157 7 62 87 62 251C62 421 163 513 298 513C435 513 470 431 473 425L484 430C482 435 445 525 298 525C157 525 50 429 50 251ZM302 693C313 693 320 702 320 712C320 721 313 730 302 730C290 730 283 721 283 712C283 702 290 693 302 693Z" glyph-name="Gdotaccent.small" horiz-adv-x="577" /><glyph d="M100 690V0H114V690ZM558 364V378H102V364ZM550 690V0H564V690Z" glyph-name="H" horiz-adv-x="664" unicode="H" /><glyph d="M90 520V0H102V520ZM490 272V284H94V272ZM479 520V0H491V520Z" glyph-name="H.small" horiz-adv-x="581" /><glyph d="M644 554V568H20V554ZM100 690V0H114V690ZM558 364V378H102V364ZM550 690V0H564V690Z" glyph-name="Hbar" horiz-adv-x="664" unicode="&#294;" /><glyph d="M40 427V415H541V427ZM90 520V0H102V520ZM490 272V284H94V272ZM479 520V0H491V520Z" glyph-name="Hbar.small" horiz-adv-x="581" /><glyph d="M100 690V0H114V690ZM558 364V378H102V364ZM550 690V0H564V690ZM191 742 197 730 332 811 467 730 473 742 334 825H330Z" glyph-name="Hcircumflex" horiz-adv-x="664" unicode="&#292;" /><glyph d="M90 520V0H102V520ZM490 272V284H94V272ZM479 520V0H491V520ZM148.5 621 157.5 611 290.5 767 422.5 611 431.5 621 294.5 782H285.5Z" glyph-name="Hcircumflex.small" horiz-adv-x="581" /><glyph d="M110 690V0H124V690Z" glyph-name="I" horiz-adv-x="234" unicode="I" /><glyph d="M100 520V0H112V520Z" glyph-name="I.small" horiz-adv-x="212" /><glyph d="M110 690V0H124V690ZM257 136C257 70 297 -5 405 -5C521 -5 561 85 561 240V690H547V242C547 111 519 9 405 9C309 9 271 80 271 136Z" glyph-name="IJ" horiz-adv-x="641" unicode="&#306;" /><glyph d="M100 520V0H112V520ZM241 112C241 59 276 -5 374 -5C484 -5 514 73 514 181V520H502V181C502 83 476 7 374 7C288 7 253 65 253 112Z" glyph-name="IJ.small" horiz-adv-x="589" /><glyph d="M110 690V0H124V690ZM55 742 61 730 230 813 224 825Z" glyph-name="Iacute" horiz-adv-x="234" unicode="&#205;" /><glyph d="M100 520V0H112V520ZM57 621 66 611 203 772 194 782Z" glyph-name="Iacute.small" horiz-adv-x="212" /><glyph d="M110 690V0H124V690ZM-15 832C-15 802 13 730 118 730C223 730 251 802 251 832H236C236 805 207 744 118 744C29 744 0 805 0 832Z" glyph-name="Ibreve" horiz-adv-x="234" unicode="&#300;" /><glyph d="M100 520V0H112V520ZM106 644C216 644 235 744 235 776H223C223 746 206 656 106 656C6 656 -11 746 -11 776H-23C-23 744 -4 644 106 644Z" glyph-name="Ibreve.small" horiz-adv-x="212" /><glyph d="M117 810 209 732 218 742 119 825H115L16 742L25 732ZM110 690V0H124V690Z" glyph-name="Icircumflex" horiz-adv-x="234" unicode="&#206;" /><glyph d="M100 520V0H112V520ZM-35 621 -26 611 107 767 239 611 248 621 111 782H102Z" glyph-name="Icircumflex.small" horiz-adv-x="212" /><glyph d="M110 690V0H124V690ZM18 778C18 768 25 759 37 759C48 759 55 768 55 778C55 787 48 796 37 796C25 796 18 787 18 778ZM178 778C178 768 185 759 197 759C208 759 215 768 215 778C215 787 208 796 197 796C185 796 178 787 178 778Z" glyph-name="Idieresis" horiz-adv-x="234" unicode="&#207;" /><glyph d="M100 520V0H112V520ZM7 712C7 702 14 693 26 693C37 693 44 702 44 712C44 721 37 730 26 730C14 730 7 721 7 712ZM167 712C167 702 174 693 186 693C197 693 204 702 204 712C204 721 197 730 186 730C174 730 167 721 167 712Z" glyph-name="Idieresis.small" horiz-adv-x="212" /><glyph d="M110 690V0H124V690ZM98 778C98 768 105 759 117 759C128 759 135 768 135 778C135 787 128 796 117 796C105 796 98 787 98 778Z" glyph-name="Idotaccent" horiz-adv-x="234" unicode="&#304;" /><glyph d="M100 520V0H112V520ZM106 693C117 693 124 702 124 712C124 721 117 730 106 730C94 730 87 721 87 712C87 702 94 693 106 693Z" glyph-name="Idotaccent.small" horiz-adv-x="212" /><glyph d="M110 690V0H124V690ZM5 813 174 730 180 742 11 825Z" glyph-name="Igrave" horiz-adv-x="234" unicode="&#204;" /><glyph d="M100 520V0H112V520ZM18 772 155 611 164 621 27 782Z" glyph-name="Igrave.small" horiz-adv-x="212" /><glyph d="M30 791V779H204V791ZM110 690V0H124V690Z" glyph-name="Imacron" horiz-adv-x="234" unicode="&#298;" /><glyph d="M100 520V0H112V520ZM-12 735V723H224V735Z" glyph-name="Imacron.small" horiz-adv-x="212" /><glyph d="M72 -111C72 -165 97 -185 137 -185C177 -185 195 -156 195 -115H183C183 -148 169 -173 137 -173C103 -173 84 -155 84 -111C84 -75 103 -35 124 0L114 7C90 -32 72 -76 72 -111ZM110 690V0H124V690Z" glyph-name="Iogonek" horiz-adv-x="234" unicode="&#302;" /><glyph d="M60 -111C60 -165 85 -185 125 -185C165 -185 183 -156 183 -115H171C171 -148 157 -173 125 -173C91 -173 72 -155 72 -111C72 -75 91 -35 112 0L104 7C80 -32 60 -76 60 -111ZM100 520V0H112V520Z" glyph-name="Iogonek.small" horiz-adv-x="212" /><glyph d="M110 690V0H124V690ZM187 750C132 750 138 822 64 822C3 822 -12 777 2 736L16 741C6 775 15 809 62 809C130 809 120 737 186 737C248 737 262 782 247 823L233 818C244 784 236 750 187 750Z" glyph-name="Itilde" horiz-adv-x="234" unicode="&#296;" /><glyph d="M100 520V0H112V520ZM-11 640 1 644C-15.1032 692.3096 -7 740 44 740C118 740 98 642 169 642C228 642 243.3003 696.0991 224 754L212 750C228.1032 701.6904 220 654 169 654C109 654 127 752 44 752C-15 752 -30.3003 697.9009 -11 640Z" glyph-name="Itilde.small" horiz-adv-x="212" /><glyph d="M20 136C20 70 60 -5 168 -5C284 -5 324 85 324 240V690H310V242C310 111 282 9 168 9C72 9 34 80 34 136Z" glyph-name="J" horiz-adv-x="404" unicode="J" /><glyph d="M18 112C18 59 53 -5 151 -5C261 -5 291 73 291 181V520H279V181C279 83 253 7 151 7C65 7 30 65 30 112Z" glyph-name="J.small" horiz-adv-x="366" /><glyph d="M315 810 407 732 416 742 317 825H313L214 742L223 732ZM20 136C20 70 60 -5 168 -5C284 -5 324 85 324 240V690H310V242C310 111 282 9 168 9C72 9 34 80 34 136Z" glyph-name="Jcircumflex" horiz-adv-x="404" unicode="&#308;" /><glyph d="M18 112C18 59 53 -5 151 -5C261 -5 291 73 291 181V520H279V181C279 83 253 7 151 7C65 7 30 65 30 112ZM129 621 138 611 271 767 403 611 412 621 275 782H266Z" glyph-name="Jcircumflex.small" horiz-adv-x="366" /><glyph d="M101 0H115V690H101ZM110 279 479 690H462L100 289ZM200 385 501 0H519L210 396Z" glyph-name="K" horiz-adv-x="549" unicode="K" /><glyph d="M90 520V0H102V520ZM94 221 98 209 432 520H416ZM175 292 452 0H469L184 300Z" glyph-name="K.small" horiz-adv-x="494" /><glyph d="M101 0H115V690H101ZM110 279 479 690H462L100 289ZM200 385 501 0H519L210 396ZM242 -201 253 -206 315 -58 304 -53Z" glyph-name="Kcommaaccent" horiz-adv-x="549" unicode="&#310;" /><glyph d="M90 520V0H102V520ZM94 221 98 209 432 520H416ZM175 292 452 0H469L184 300ZM202 -201 213 -206 275 -58 264 -53Z" glyph-name="Kcommaaccent.small" horiz-adv-x="494" /><glyph d="M100 690V5H114V690ZM102 19V5H478V19Z" glyph-name="L" horiz-adv-x="488" unicode="L" /><glyph d="M90 520V5H424V17H96L102 11V520Z" glyph-name="L.small" horiz-adv-x="434" /><glyph d="M100 690V5H114V690ZM102 19V5H478V19ZM102 742 108 730 277 813 271 825Z" glyph-name="Lacute" horiz-adv-x="488" unicode="&#313;" /><glyph d="M90 520V5H424V17H96L102 11V520ZM99 621 108 611 245 772 236 782Z" glyph-name="Lacute.small" horiz-adv-x="434" /><glyph d="M100 690V5H114V690ZM102 19V5H478V19ZM281 532 292 527 367 705 356 710Z" glyph-name="Lcaron" horiz-adv-x="488" unicode="&#317;" /><glyph d="M87 520V5H421V17H93L99 11V520ZM234 343 245 338 320 516 309 521Z" glyph-name="Lcaron.small" horiz-adv-x="431" /><glyph d="M100 690V5H114V690ZM102 19V5H478V19ZM232 -201 243 -206 305 -58 294 -53Z" glyph-name="Lcommaaccent" horiz-adv-x="488" unicode="&#315;" /><glyph d="M90 520V5H424V17H96L102 11V520ZM204 -201 215 -206 277 -58 266 -53Z" glyph-name="Lcommaaccent.small" horiz-adv-x="434" /><glyph d="M100 690V5H114V690ZM102 19V5H478V19ZM337 341C348 341 355 350 355 360C355 369 348 378 337 378C325 378 318 369 318 360C318 350 325 341 337 341Z" glyph-name="Ldot" horiz-adv-x="488" unicode="&#319;" /><glyph d="M261 249C272 249 279 258 279 268C279 277 272 286 261 286C249 286 242 277 242 268C242 258 249 249 261 249ZM90 520V5H424V17H96L102 11V520Z" glyph-name="Ldot.small" horiz-adv-x="434" /><glyph d="M30 244 327 415 320 427 23 256ZM100 690V5H114V690ZM102 19V5H478V19Z" glyph-name="Lslash" horiz-adv-x="488" unicode="&#321;" /><glyph d="M30 194 244 318 237 330 23 206ZM90 520V5H424V17H96L102 11V520Z" glyph-name="Lslash.small" horiz-adv-x="434" /><glyph d="M93 0 142 688 132 687 391 23H403L662 687L652 688L701 0H714L663 695H652L390 30H404L142 695H131L80 0Z" glyph-name="M" horiz-adv-x="794" unicode="M" /><glyph d="M116 520 70 0H82L128 516L117 514L352 17H362L597 514L586 516L632 0H644L598 520H587L352 23H362L127 520Z" glyph-name="M.small" horiz-adv-x="714" /><glyph d="M101 684 549 -5H564V690H550V-2L563 -1L114 690H100V0H114V689Z" glyph-name="N" horiz-adv-x="664" unicode="N" /><glyph d="M90 520V0H102V516L91 512L495 0H507V520H495V2L506 6L101 520Z" glyph-name="N.small" horiz-adv-x="597" /><glyph d="M101 684 549 -5H564V690H550V-2L563 -1L114 690H100V0H114V689ZM273 742 279 730 448 813 442 825Z" glyph-name="Nacute" horiz-adv-x="664" unicode="&#323;" /><glyph d="M90 520V0H102V516L91 512L495 0H507V520H495V2L506 6L101 520ZM267 621 276 611 413 772 404 782Z" glyph-name="Nacute.small" horiz-adv-x="597" /><glyph d="M101 684 549 -5H564V690H550V-2L563 -1L114 690H100V0H114V689ZM204 813 343 730H347L486 813L480 825L345 744L210 825Z" glyph-name="Ncaron" horiz-adv-x="664" unicode="&#327;" /><glyph d="M90 520V0H102V516L91 512L495 0H507V520H495V2L506 6L101 520ZM167 772 304 611H313L450 772L441 782L308 626L176 782Z" glyph-name="Ncaron.small" horiz-adv-x="597" /><glyph d="M101 684 549 -5H564V690H550V-2L563 -1L114 690H100V0H114V689ZM270 -201 281 -206 343 -58 332 -53Z" glyph-name="Ncommaaccent" horiz-adv-x="664" unicode="&#325;" /><glyph d="M90 520V0H102V516L91 512L495 0H507V520H495V2L506 6L101 520ZM229 -201 240 -206 302 -58 291 -53Z" glyph-name="Ncommaaccent.small" horiz-adv-x="597" /><glyph d="M101 684 549 -5H564V690H550V-2L563 -1L114 690H100V0H114V689ZM418 750C363 750 369 822 295 822C234 822 219 777 233 736L247 741C237 775 246 809 293 809C361 809 351 737 417 737C479 737 493 782 478 823L464 818C475 784 467 750 418 750Z" glyph-name="Ntilde" horiz-adv-x="664" unicode="&#209;" /><glyph d="M90 520V0H102V516L91 512L495 0H507V520H495V2L506 6L101 520ZM181 640 193 644C176.8968 692.3096 185 740 236 740C310 740 290 642 361 642C420 642 435.3003 696.0991 416 754L404 750C420.1032 701.6904 412 654 361 654C301 654 319 752 236 752C177 752 161.6997 697.9009 181 640Z" glyph-name="Ntilde.small" horiz-adv-x="597" /><glyph d="M55 344C55 99 210 -4 352 -4C515 -4 645 127 645 353C645 594 492 695 352 695C187 695 55 567 55 344ZM631 353C631 139 509 10 352 10C216 10 69 111 69 344C69 555 193 681 352 681C486 681 631 582 631 353Z" glyph-name="O" horiz-adv-x="700" unicode="O" /><glyph d="M50 257C50 63 189 -5 298 -5C426 -5 543 85 543 265C543 456 406 525 298 525C168 525 50 434 50 257ZM531 265C531 93 420 7 298 7C193 7 62 73 62 257C62 426 174 513 298 513C402 513 531 446 531 265Z" glyph-name="O.small" horiz-adv-x="593" /><glyph d="M55 344C55 99 200 -4 332 -4C489 -4 602 127 602 353C602 594 467 695 332 695C177 695 55 567 55 344ZM591 353C591 139 478 10 332 10C206 10 69 111 69 344C69 555 183 681 332 681C455 681 591 582 591 353ZM591 685V5H605V685ZM889 356V370H593V356ZM593 19V5H949V19ZM949 671V685H593V671Z" glyph-name="OE" horiz-adv-x="989" unicode="&#338;" /><glyph d="M50 257C50 73 169 -5 278 -5C406 -5 500 95 500 265C500 446 386 525 278 525C148 525 50 424 50 257ZM491 265C491 103 400 7 278 7C173 7 62 83 62 257C62 416 154 513 278 513C382 513 491 436 491 265ZM491 515V5H815V17H497L503 11V509L497 503H816V515ZM494 278V266H750V278Z" glyph-name="OE.small" horiz-adv-x="846" /><glyph d="M55 344C55 99 210 -4 352 -4C515 -4 645 127 645 353C645 594 492 695 352 695C187 695 55 567 55 344ZM631 353C631 139 509 10 352 10C216 10 69 111 69 344C69 555 193 681 352 681C486 681 631 582 631 353ZM282 742 288 730 457 813 451 825Z" glyph-name="Oacute" horiz-adv-x="700" unicode="&#211;" /><glyph d="M50 257C50 63 189 -5 298 -5C426 -5 543 85 543 265C543 456 406 525 298 525C168 525 50 434 50 257ZM531 265C531 93 420 7 298 7C193 7 62 73 62 257C62 426 174 513 298 513C402 513 531 446 531 265ZM247 621 256 611 393 772 384 782Z" glyph-name="Oacute.small" horiz-adv-x="593" /><glyph d="M55 344C55 99 210 -4 352 -4C515 -4 645 127 645 353C645 594 492 695 352 695C187 695 55 567 55 344ZM631 353C631 139 509 10 352 10C216 10 69 111 69 344C69 555 193 681 352 681C486 681 631 582 631 353ZM217 832C217 802 245 730 350 730C455 730 483 802 483 832H468C468 805 439 744 350 744C261 744 232 805 232 832Z" glyph-name="Obreve" horiz-adv-x="700" unicode="&#334;" /><glyph d="M50 258C50 64 189 -4 298 -4C426 -4 543 86 543 266C543 457 406 526 298 526C168 526 50 435 50 258ZM531 266C531 94 420 8 298 8C193 8 62 74 62 258C62 427 174 514 298 514C402 514 531 447 531 266ZM296 644C406 644 425 744 425 776H413C413 746 396 656 296 656C196 656 179 746 179 776H167C167 744 186 644 296 644Z" glyph-name="Obreve.small" horiz-adv-x="593" /><glyph d="M55 344C55 99 210 -4 352 -4C515 -4 645 127 645 353C645 594 492 695 352 695C187 695 55 567 55 344ZM631 353C631 139 509 10 352 10C216 10 69 111 69 344C69 555 193 681 352 681C486 681 631 582 631 353ZM210 742 216 730 351 811 486 730 492 742 353 825H349Z" glyph-name="Ocircumflex" horiz-adv-x="700" unicode="&#212;" /><glyph d="M50 257C50 63 189 -5 298 -5C426 -5 543 85 543 265C543 456 406 525 298 525C168 525 50 434 50 257ZM531 265C531 93 420 7 298 7C193 7 62 73 62 257C62 426 174 513 298 513C402 513 531 446 531 265ZM155 621 164 611 297 767 429 611 438 621 301 782H292Z" glyph-name="Ocircumflex.small" horiz-adv-x="593" /><glyph d="M55 344C55 99 210 -4 352 -4C515 -4 645 127 645 353C645 594 492 695 352 695C187 695 55 567 55 344ZM631 353C631 139 509 10 352 10C216 10 69 111 69 344C69 555 193 681 352 681C486 681 631 582 631 353ZM252 778C252 768 259 759 271 759C282 759 289 768 289 778C289 787 282 796 271 796C259 796 252 787 252 778ZM412 778C412 768 419 759 431 759C442 759 449 768 449 778C449 787 442 796 431 796C419 796 412 787 412 778Z" glyph-name="Odieresis" horiz-adv-x="700" unicode="&#214;" /><glyph d="M50 257C50 63 189 -5 298 -5C426 -5 543 85 543 265C543 456 406 525 298 525C168 525 50 434 50 257ZM531 265C531 93 420 7 298 7C193 7 62 73 62 257C62 426 174 513 298 513C402 513 531 446 531 265ZM198 712C198 702 205 693 217 693C228 693 235 702 235 712C235 721 228 730 217 730C205 730 198 721 198 712ZM358 712C358 702 365 693 377 693C388 693 395 702 395 712C395 721 388 730 377 730C365 730 358 721 358 712Z" glyph-name="Odieresis.small" horiz-adv-x="593" /><glyph d="M55 344C55 99 210 -4 352 -4C515 -4 645 127 645 353C645 594 492 695 352 695C187 695 55 567 55 344ZM631 353C631 139 509 10 352 10C216 10 69 111 69 344C69 555 193 681 352 681C486 681 631 582 631 353ZM252 813 421 730 427 742 258 825Z" glyph-name="Ograve" horiz-adv-x="700" unicode="&#210;" /><glyph d="M50 257C50 63 189 -5 298 -5C426 -5 543 85 543 265C543 456 406 525 298 525C168 525 50 434 50 257ZM531 265C531 93 420 7 298 7C193 7 62 73 62 257C62 426 174 513 298 513C402 513 531 446 531 265ZM197 772 334 611 343 621 206 782Z" glyph-name="Ograve.small" horiz-adv-x="593" /><glyph d="M55 344C55 99 210 -4 352 -4C515 -4 645 127 645 353C645 594 492 695 352 695C187 695 55 567 55 344ZM631 353C631 139 509 10 352 10C216 10 69 111 69 344C69 555 193 681 352 681C486 681 631 582 631 353ZM285 727 293 715 392 782 384 794ZM395 727 403 715 502 782 494 794Z" glyph-name="Ohungarumlaut" horiz-adv-x="700" unicode="&#336;" /><glyph d="M50 257C50 63 189 -5 298 -5C426 -5 543 85 543 265C543 456 406 525 298 525C168 525 50 434 50 257ZM531 265C531 93 420 7 298 7C193 7 62 73 62 257C62 426 174 513 298 513C402 513 531 446 531 265ZM214 622 225 617 296 779 285 784ZM354 622 365 617 436 779 425 784Z" glyph-name="Ohungarumlaut.small" horiz-adv-x="593" /><glyph d="M55 344C55 99 210 -4 352 -4C515 -4 645 127 645 353C645 594 492 695 352 695C187 695 55 567 55 344ZM631 353C631 139 509 10 352 10C216 10 69 111 69 344C69 555 193 681 352 681C486 681 631 582 631 353ZM232 791V779H468V791Z" glyph-name="Omacron" horiz-adv-x="700" unicode="&#332;" /><glyph d="M50 257C50 63 189 -5 298 -5C426 -5 543 85 543 265C543 456 406 525 298 525C168 525 50 434 50 257ZM531 265C531 93 420 7 298 7C193 7 62 73 62 257C62 426 174 513 298 513C402 513 531 446 531 265ZM178 735V723H414V735Z" glyph-name="Omacron.small" horiz-adv-x="593" /><glyph d="M283 64C278 66 74 113 74 361C74 534 170 681 367 681C564 681 660 534 660 361C660 113 456 66 451 64V0H659V14H465V53C497 63 674 125 674 361C674 542 572 695 367 695C162 695 60 542 60 361C60 125 237 63 269 53V14H75V0H283Z" glyph-name="Omega" horiz-adv-x="734" unicode="&#8486;" /><glyph d="M628 690 55 0H73L646 690ZM55 344C55 99 210 -4 352 -4C515 -4 645 127 645 353C645 594 492 695 352 695C187 695 55 567 55 344ZM631 353C631 139 509 10 352 10C216 10 69 111 69 344C69 555 193 681 352 681C486 681 631 582 631 353Z" glyph-name="Oslash" horiz-adv-x="700" unicode="&#216;" /><glyph d="M527 520 50 0H66L543 520ZM50 257C50 63 189 -5 298 -5C426 -5 543 85 543 265C543 456 406 525 298 525C168 525 50 434 50 257ZM531 265C531 93 420 7 298 7C193 7 62 73 62 257C62 426 174 513 298 513C402 513 531 446 531 265Z" glyph-name="Oslash.small" horiz-adv-x="593" /><glyph d="M628 690 55 0H73L646 690ZM55 344C55 99 210 -4 352 -4C515 -4 645 127 645 353C645 594 492 695 352 695C187 695 55 567 55 344ZM631 353C631 139 509 10 352 10C216 10 69 111 69 344C69 555 193 681 352 681C486 681 631 582 631 353ZM271 742 277 730 446 813 440 825Z" glyph-name="Oslashacute" horiz-adv-x="700" unicode="&#510;" /><glyph d="M527 520 50 0H66L543 520ZM50 257C50 63 189 -5 298 -5C426 -5 543 85 543 265C543 456 406 525 298 525C168 525 50 434 50 257ZM531 265C531 93 420 7 298 7C193 7 62 73 62 257C62 426 174 513 298 513C402 513 531 446 531 265ZM247 621 256 611 393 772 384 782Z" glyph-name="Oslashacute.small" horiz-adv-x="593" /><glyph d="M55 344C55 99 210 -4 352 -4C515 -4 645 127 645 353C645 594 492 695 352 695C187 695 55 567 55 344ZM631 353C631 139 509 10 352 10C216 10 69 111 69 344C69 555 193 681 352 681C486 681 631 582 631 353ZM418 750C363 750 369 822 295 822C234 822 219 777 233 736L247 741C237 775 246 809 293 809C361 809 351 737 417 737C479 737 493 782 478 823L464 818C475 784 467 750 418 750Z" glyph-name="Otilde" horiz-adv-x="700" unicode="&#213;" /><glyph d="M50 257C50 63 189 -5 298 -5C426 -5 543 85 543 265C543 456 406 525 298 525C168 525 50 434 50 257ZM531 265C531 93 420 7 298 7C193 7 62 73 62 257C62 426 174 513 298 513C402 513 531 446 531 265ZM178 640 190 644C173.8968 692.3096 182 740 233 740C307 740 287 642 358 642C417 642 432.3003 696.0991 413 754L401 750C417.1032 701.6904 409 654 358 654C298 654 316 752 233 752C174 752 158.6997 697.9009 178 640Z" glyph-name="Otilde.small" horiz-adv-x="593" /><glyph d="M100 690V0H114V683L107 676H267C382 676 475 635 475 513C475 380 370 347 281 347H110V333H281C378 333 489 370 489 513C489 643 392 690 267 690Z" glyph-name="P" horiz-adv-x="504" unicode="P" /><glyph d="M90 520V0H102V514L96 508H238C341 508 416 468 416 376C416 276 331 243 251 243H93V231H251C339 231 428 270 428 376C428 474 351 520 238 520Z" glyph-name="P.small" horiz-adv-x="443" /><glyph d="M351 2C378 -75 426 -122 525 -122C604 -122 636 -85 636 -33H622C622 -78 588 -108 525 -108C434 -108 396 -65 364 7ZM55 344C55 99 210 -4 352 -4C515 -4 645 127 645 353C645 594 492 695 352 695C187 695 55 567 55 344ZM631 353C631 139 509 10 352 10C216 10 69 111 69 344C69 555 193 681 352 681C486 681 631 582 631 353Z" glyph-name="Q" horiz-adv-x="700" unicode="Q" /><glyph d="M452 -97C513 -97 543 -66 543 -27H531C531 -62 501 -85 452 -85C376 -85 345 -44 327 8L314 6C335 -54 370 -97 452 -97ZM50 257C50 63 189 -5 298 -5C426 -5 543 85 543 265C543 456 406 525 298 525C168 525 50 434 50 257ZM531 265C531 93 420 7 298 7C193 7 62 73 62 257C62 426 174 513 298 513C402 513 531 446 531 265Z" glyph-name="Q.small" horiz-adv-x="593" /><glyph d="M556 47H542C542 22 525 9 501 9C448 9 452 59 448 176C444 302 364 352 252 352H107V342H252C356 342 430 289 433 176C437 37 439 -5 502 -5C534 -5 556 14 556 47ZM100 690V0H114V683L107 676H267C382 676 475 628 475 514C475 390 370 356 281 356H110V344H281C378 344 489 382 489 514C489 636 392 690 267 690Z" glyph-name="R" horiz-adv-x="576" unicode="R" /><glyph d="M488 41C488 16 472 7 451 7C403 7 402 51 402 134C402 225 341 265 237 265H100V256H237C329 256 390 219 390 134C390 31 399 -5 451 -5C480 -5 500 10 500 41ZM90 520V0H102V514L96 508H250C363 508 428 472 428 391C428 292 348 268 263 268H93V259H265C358 259 440 287 440 391C440 478 373 520 250 520Z" glyph-name="R.small" horiz-adv-x="515" /><glyph d="M556 47H542C542 22 525 9 501 9C448 9 452 59 448 176C444 302 364 352 252 352H107V342H252C356 342 430 289 433 176C437 37 439 -5 502 -5C534 -5 556 14 556 47ZM100 690V0H114V683L107 676H267C382 676 475 628 475 514C475 390 370 356 281 356H110V344H281C378 344 489 382 489 514C489 636 392 690 267 690ZM212 742 218 730 387 813 381 825Z" glyph-name="Racute" horiz-adv-x="576" unicode="&#340;" /><glyph d="M488 41C488 16 472 7 451 7C403 7 402 51 402 134C402 225 341 265 237 265H100V256H237C329 256 390 219 390 134C390 31 399 -5 451 -5C480 -5 500 10 500 41ZM90 520V0H102V514L96 508H250C363 508 428 472 428 391C428 292 348 268 263 268H93V259H265C358 259 440 287 440 391C440 478 373 520 250 520ZM177 621 186 611 323 772 314 782Z" glyph-name="Racute.small" horiz-adv-x="515" /><glyph d="M556 47H542C542 22 525 9 501 9C448 9 452 59 448 176C444 302 364 352 252 352H107V342H252C356 342 430 289 433 176C437 37 439 -5 502 -5C534 -5 556 14 556 47ZM100 690V0H114V683L107 676H267C382 676 475 628 475 514C475 390 370 356 281 356H110V344H281C378 344 489 382 489 514C489 636 392 690 267 690ZM146 813 285 730H289L428 813L422 825L287 744L152 825Z" glyph-name="Rcaron" horiz-adv-x="576" unicode="&#344;" /><glyph d="M488 41C488 16 472 7 451 7C403 7 402 51 402 134C402 225 341 265 237 265H100V256H237C329 256 390 219 390 134C390 31 399 -5 451 -5C480 -5 500 10 500 41ZM90 520V0H102V514L96 508H250C363 508 428 472 428 391C428 292 348 268 263 268H93V259H265C358 259 440 287 440 391C440 478 373 520 250 520ZM117 772 254 611H263L400 772L391 782L258 626L126 782Z" glyph-name="Rcaron.small" horiz-adv-x="515" /><glyph d="M556 47H542C542 22 525 9 501 9C448 9 452 59 448 176C444 302 364 352 252 352H107V342H252C356 342 430 289 433 176C437 37 439 -5 502 -5C534 -5 556 14 556 47ZM100 690V0H114V683L107 676H267C382 676 475 628 475 514C475 390 370 356 281 356H110V344H281C378 344 489 382 489 514C489 636 392 690 267 690ZM228 -201 239 -206 301 -58 290 -53Z" glyph-name="Rcommaaccent" horiz-adv-x="576" unicode="&#342;" /><glyph d="M488 41C488 16 472 7 451 7C403 7 402 51 402 134C402 225 341 265 237 265H100V256H237C329 256 390 219 390 134C390 31 399 -5 451 -5C480 -5 500 10 500 41ZM90 520V0H102V514L96 508H250C363 508 428 472 428 391C428 292 348 268 263 268H93V259H265C358 259 440 287 440 391C440 478 373 520 250 520ZM192 -201 203 -206 265 -58 254 -53Z" glyph-name="Rcommaaccent.small" horiz-adv-x="515" /><glyph d="M50 185C50 47 140 -5 261 -5C371 -5 473 49 473 176C473 271 424 333 281 368C153 398 92 440 92 531C92 638 166 681 262 681C357 681 436 634 436 549H450C450 640 367 695 262 695C156 695 78 646 78 531C78 434 139 386 277 354C410 321 459 265 459 176C459 57 363 9 261 9C150 9 64 59 64 185Z" glyph-name="S" horiz-adv-x="528" unicode="S" /><glyph d="M224 7C119 7 52 55 52 141H40C40 49 109 -5 224 -5C324 -5 407 37 407 132C407 211 361 244 234 273C119 299 65 326 65 399C65 479 132 513 218 513C303 513 375 476 375 406H387C387 480 313 525 218 525C122 525 53 485 53 399C53 322 105 289 232 261C349 235 395 207 395 132C395 43 316 7 224 7Z" glyph-name="S.small" horiz-adv-x="452" /><glyph d="M50 185C50 47 140 -5 261 -5C371 -5 473 49 473 176C473 271 424 333 281 368C153 398 92 440 92 531C92 638 166 681 262 681C357 681 436 634 436 549H450C450 640 367 695 262 695C156 695 78 646 78 531C78 434 139 386 277 354C410 321 459 265 459 176C459 57 363 9 261 9C150 9 64 59 64 185ZM217 742 223 730 392 813 386 825Z" glyph-name="Sacute" horiz-adv-x="528" unicode="&#346;" /><glyph d="M224 7C119 7 52 55 52 141H40C40 49 109 -5 224 -5C324 -5 407 37 407 132C407 211 361 244 234 273C119 299 65 326 65 399C65 479 132 513 218 513C303 513 375 476 375 406H387C387 480 313 525 218 525C122 525 53 485 53 399C53 322 105 289 232 261C349 235 395 207 395 132C395 43 316 7 224 7ZM177 621 186 611 323 772 314 782Z" glyph-name="Sacute.small" horiz-adv-x="452" /><glyph d="M50 185C50 47 140 -5 261 -5C371 -5 473 49 473 176C473 271 424 333 281 368C153 398 92 440 92 531C92 638 166 681 262 681C357 681 436 634 436 549H450C450 640 367 695 262 695C156 695 78 646 78 531C78 434 139 386 277 354C410 321 459 265 459 176C459 57 363 9 261 9C150 9 64 59 64 185ZM124 813 263 730H267L406 813L400 825L265 744L130 825Z" glyph-name="Scaron" horiz-adv-x="528" unicode="&#352;" /><glyph d="M224 7C119 7 52 55 52 141H40C40 49 109 -5 224 -5C324 -5 407 37 407 132C407 211 361 244 234 273C119 299 65 326 65 399C65 479 132 513 218 513C303 513 375 476 375 406H387C387 480 313 525 218 525C122 525 53 485 53 399C53 322 105 289 232 261C349 235 395 207 395 132C395 43 316 7 224 7ZM79 772 216 611H225L362 772L353 782L220 626L88 782Z" glyph-name="Scaron.small" horiz-adv-x="452" /><glyph d="M50 185C50 47 140 -5 261 -5C371 -5 473 49 473 176C473 271 424 333 281 368C153 398 92 440 92 531C92 638 166 681 262 681C357 681 436 634 436 549H450C450 640 367 695 262 695C156 695 78 646 78 531C78 434 139 386 277 354C410 321 459 265 459 176C459 57 363 9 261 9C150 9 64 59 64 185ZM228 -120C226 -161 247 -185 288 -185C323 -185 353 -165 353 -120C353 -63 307 -48 253 -62L259 -68L278 0L267 3L246 -69L254 -72C302 -61 341 -71 341 -120C341 -157 317 -173 288 -173C255 -173 238 -155 240 -120Z" glyph-name="Scedilla" horiz-adv-x="528" unicode="&#350;" /><glyph d="M224 7C119 7 52 55 52 141H40C40 49 109 -5 224 -5C324 -5 407 37 407 132C407 211 361 244 234 273C119 299 65 326 65 399C65 479 132 513 218 513C303 513 375 476 375 406H387C387 480 313 525 218 525C122 525 53 485 53 399C53 322 105 289 232 261C349 235 395 207 395 132C395 43 316 7 224 7ZM186 -120C184 -161 205 -185 246 -185C281 -185 311 -165 311 -120C311 -63 265 -48 211 -62L217 -68L236 0L225 3L204 -69L212 -72C260 -61 299 -71 299 -120C299 -157 275 -173 246 -173C213 -173 196 -155 198 -120Z" glyph-name="Scedilla.small" horiz-adv-x="452" /><glyph d="M118 240 125 246C125 246 92 8 331 8C482 8 608 125 608 349C608 353 608 356 608 360C604 579 484 681 339 681C205 681 139 604 116 549L102 555C130 622 207 695 339 695C492 695 622 588 622 349C622 113 488 -6 331 -6C131 -6 109 151 109 218C109 236 111 248 112 254H608V240Z" glyph-name="Schwa" horiz-adv-x="700" unicode="&#399;" /><glyph d="M544 270C544 441 434 525 304 525C174 525 95 456 95 350H109C109 444 180 513 304 513C425 513 532 429 532 272C532 269 532 265 532 261C532 110 435 7 301 7C158 7 137 102 137 153C137 170 138 177 138 180H527L532 192H127C126 186 124 171 124 150C124 92 149 -5 301 -5C446 -5 544 102 544 270Z" glyph-name="Schwa.small" horiz-adv-x="593" /><glyph d="M50 185C50 47 140 -5 261 -5C371 -5 473 49 473 176C473 271 424 333 281 368C153 398 92 440 92 531C92 638 166 681 262 681C357 681 436 634 436 549H450C450 640 367 695 262 695C156 695 78 646 78 531C78 434 139 386 277 354C410 321 459 265 459 176C459 57 363 9 261 9C150 9 64 59 64 185ZM129 742 135 730 270 811 405 730 411 742 272 825H268Z" glyph-name="Scircumflex" horiz-adv-x="528" unicode="&#348;" /><glyph d="M224 7C119 7 52 55 52 141H40C40 49 109 -5 224 -5C324 -5 407 37 407 132C407 211 361 244 234 273C119 299 65 326 65 399C65 479 132 513 218 513C303 513 375 476 375 406H387C387 480 313 525 218 525C122 525 53 485 53 399C53 322 105 289 232 261C349 235 395 207 395 132C395 43 316 7 224 7ZM79 621 88 611 221 767 353 611 362 621 225 782H216Z" glyph-name="Scircumflex.small" horiz-adv-x="452" /><glyph d="M50 185C50 47 140 -5 261 -5C371 -5 473 49 473 176C473 271 424 333 281 368C153 398 92 440 92 531C92 638 166 681 262 681C357 681 436 634 436 549H450C450 640 367 695 262 695C156 695 78 646 78 531C78 434 139 386 277 354C410 321 459 265 459 176C459 57 363 9 261 9C150 9 64 59 64 185ZM216 -201 227 -206 289 -58 278 -53Z" glyph-name="Scommaaccent" horiz-adv-x="528" unicode="&#536;" /><glyph d="M224 7C119 7 52 55 52 141H40C40 49 109 -5 224 -5C324 -5 407 37 407 132C407 211 361 244 234 273C119 299 65 326 65 399C65 479 132 513 218 513C303 513 375 476 375 406H387C387 480 313 525 218 525C122 525 53 485 53 399C53 322 105 289 232 261C349 235 395 207 395 132C395 43 316 7 224 7ZM164 -201 175 -206 237 -58 226 -53Z" glyph-name="Scommaaccent.small" horiz-adv-x="452" /><glyph d="M274 0V685H260V0ZM0 685V671H534V685Z" glyph-name="T" horiz-adv-x="534" unicode="T" /><glyph d="M245 514V0H257V514ZM10 515V503H493V515Z" glyph-name="T.small" horiz-adv-x="503" /><glyph d="M104 359V347H430V359ZM274 0V685H260V0ZM0 685V671H534V685Z" glyph-name="Tbar" horiz-adv-x="534" unicode="&#358;" /><glyph d="M133 288V276H369V288ZM245 514V0H257V514ZM10 515V503H493V515Z" glyph-name="Tbar.small" horiz-adv-x="503" /><glyph d="M274 0V685H260V0ZM0 685V671H534V685ZM126 813 265 730H269L408 813L402 825L267 744L132 825Z" glyph-name="Tcaron" horiz-adv-x="534" unicode="&#356;" /><glyph d="M245 514V0H257V514ZM10 515V503H493V515ZM110 772 247 611H256L393 772L384 782L251 626L119 782Z" glyph-name="Tcaron.small" horiz-adv-x="503" /><glyph d="M274 0V685H260V0ZM0 685V671H534V685ZM223 -120C221 -161 242 -185 283 -185C318 -185 348 -165 348 -120C348 -63 302 -48 248 -62L254 -68L273 0L262 3L241 -69L249 -72C297 -61 336 -71 336 -120C336 -157 312 -173 283 -173C250 -173 233 -155 235 -120Z" glyph-name="Tcedilla" horiz-adv-x="534" unicode="&#354;" /><glyph d="M245 514V0H257V514ZM10 515V503H493V515ZM207 -120C205 -161 226 -185 267 -185C302 -185 332 -165 332 -120C332 -63 286 -48 232 -62L238 -68L257 0L246 3L225 -69L233 -72C281 -61 320 -71 320 -120C320 -157 296 -173 267 -173C234 -173 217 -155 219 -120Z" glyph-name="Tcedilla.small" horiz-adv-x="503" /><glyph d="M274 0V685H260V0ZM0 685V671H534V685ZM202 -201 213 -206 275 -58 264 -53Z" glyph-name="Tcommaaccent" horiz-adv-x="534" unicode="&#538;" /><glyph d="M245 514V0H257V514ZM10 515V503H493V515ZM183 -201 194 -206 256 -58 245 -53Z" glyph-name="Tcommaaccent.small" horiz-adv-x="503" /><glyph d="M100 524V0H114V517L107 510H267C382 510 475 469 475 347C475 214 370 181 281 181H110V167H281C378 167 489 204 489 347C489 477 392 524 267 524ZM100 690V0H114V690Z" glyph-name="Thorn" horiz-adv-x="504" unicode="&#222;" /><glyph d="M238 399C341 399 416 359 416 267C416 167 331 134 251 134H102V399ZM102 0V122H251C339 122 428 161 428 267C428 365 351 411 238 411H102V520H90V0Z" glyph-name="Thorn.small" horiz-adv-x="443" /><glyph d="M80 313C80 142 130 -5 323 -5C511 -5 560 142 560 313V690H546V313C546 158 507 9 323 9C135 9 94 158 94 313V690H80Z" glyph-name="U" horiz-adv-x="640" unicode="U" /><glyph d="M85 227C85 101 128 -4 282 -4C436 -4 477 100 477 227V520H465V227C465 108 428 8 282 8C136 8 97 107 97 227V520H85Z" glyph-name="U.small" horiz-adv-x="562" /><glyph d="M80 313C80 142 130 -5 323 -5C511 -5 560 142 560 313V690H546V313C546 158 507 9 323 9C135 9 94 158 94 313V690H80ZM264 742 270 730 439 813 433 825Z" glyph-name="Uacute" horiz-adv-x="640" unicode="&#218;" /><glyph d="M85 227C85 101 128 -4 282 -4C436 -4 477 100 477 227V520H465V227C465 108 428 8 282 8C136 8 97 107 97 227V520H85ZM247 621 256 611 393 772 384 782Z" glyph-name="Uacute.small" horiz-adv-x="562" /><glyph d="M80 313C80 142 130 -5 323 -5C511 -5 560 142 560 313V690H546V313C546 158 507 9 323 9C135 9 94 158 94 313V690H80ZM187 832C187 802 215 730 320 730C425 730 453 802 453 832H438C438 805 409 744 320 744C231 744 202 805 202 832Z" glyph-name="Ubreve" horiz-adv-x="640" unicode="&#364;" /><glyph d="M85 227C85 101 128 -4 282 -4C436 -4 477 100 477 227V520H465V227C465 108 428 8 282 8C136 8 97 107 97 227V520H85ZM281 644C391 644 410 744 410 776H398C398 746 381 656 281 656C181 656 164 746 164 776H152C152 744 171 644 281 644Z" glyph-name="Ubreve.small" horiz-adv-x="562" /><glyph d="M80 313C80 142 130 -5 323 -5C511 -5 560 142 560 313V690H546V313C546 158 507 9 323 9C135 9 94 158 94 313V690H80ZM179 742 185 730 320 811 455 730 461 742 322 825H318Z" glyph-name="Ucircumflex" horiz-adv-x="640" unicode="&#219;" /><glyph d="M85 227C85 101 128 -4 282 -4C436 -4 477 100 477 227V520H465V227C465 108 428 8 282 8C136 8 97 107 97 227V520H85ZM139.5 621 148.5 611 281.5 767 413.5 611 422.5 621 285.5 782H276.5Z" glyph-name="Ucircumflex.small" horiz-adv-x="562" /><glyph d="M80 313C80 142 130 -5 323 -5C511 -5 560 142 560 313V690H546V313C546 158 507 9 323 9C135 9 94 158 94 313V690H80ZM222 778C222 768 229 759 241 759C252 759 259 768 259 778C259 787 252 796 241 796C229 796 222 787 222 778ZM382 778C382 768 389 759 401 759C412 759 419 768 419 778C419 787 412 796 401 796C389 796 382 787 382 778Z" glyph-name="Udieresis" horiz-adv-x="640" unicode="&#220;" /><glyph d="M85 227C85 101 128 -4 282 -4C436 -4 477 100 477 227V520H465V227C465 108 428 8 282 8C136 8 97 107 97 227V520H85ZM182.5 712C182.5 702 189.5 693 201.5 693C212.5 693 219.5 702 219.5 712C219.5 721 212.5 730 201.5 730C189.5 730 182.5 721 182.5 712ZM342.5 712C342.5 702 349.5 693 361.5 693C372.5 693 379.5 702 379.5 712C379.5 721 372.5 730 361.5 730C349.5 730 342.5 721 342.5 712Z" glyph-name="Udieresis.small" horiz-adv-x="562" /><glyph d="M80 313C80 142 130 -5 323 -5C511 -5 560 142 560 313V690H546V313C546 158 507 9 323 9C135 9 94 158 94 313V690H80ZM230 813 399 730 405 742 236 825Z" glyph-name="Ugrave" horiz-adv-x="640" unicode="&#217;" /><glyph d="M85 227C85 101 128 -4 282 -4C436 -4 477 100 477 227V520H465V227C465 108 428 8 282 8C136 8 97 107 97 227V520H85ZM195 772 332 611 341 621 204 782Z" glyph-name="Ugrave.small" horiz-adv-x="562" /><glyph d="M80 313C80 142 130 -5 323 -5C511 -5 560 142 560 313V690H546V313C546 158 507 9 323 9C135 9 94 158 94 313V690H80ZM260 727 268 715 367 782 359 794ZM370 727 378 715 477 782 469 794Z" glyph-name="Uhungarumlaut" horiz-adv-x="640" unicode="&#368;" /><glyph d="M85 227C85 101 128 -4 282 -4C436 -4 477 100 477 227V520H465V227C465 108 428 8 282 8C136 8 97 107 97 227V520H85ZM208 622 219 617 290 779 279 784ZM348 622 359 617 430 779 419 784Z" glyph-name="Uhungarumlaut.small" horiz-adv-x="562" /><glyph d="M80 313C80 142 130 -5 323 -5C511 -5 560 142 560 313V690H546V313C546 158 507 9 323 9C135 9 94 158 94 313V690H80ZM202 791V779H438V791Z" glyph-name="Umacron" horiz-adv-x="640" unicode="&#362;" /><glyph d="M85 227C85 101 128 -4 282 -4C436 -4 477 100 477 227V520H465V227C465 108 428 8 282 8C136 8 97 107 97 227V520H85ZM163 735V723H399V735Z" glyph-name="Umacron.small" horiz-adv-x="562" /><glyph d="M80 313C80 142 130 -5 323 -5C511 -5 560 142 560 313V690H546V313C546 158 507 9 323 9C135 9 94 158 94 313V690H80ZM394 -109C394 -163 417 -185 457 -185C497 -185 515 -156 515 -115H503C503 -148 489 -173 457 -173C423 -173 406 -153 406 -109C406 -50 451 17 489 60L480 67C434 15 394 -54 394 -109Z" glyph-name="Uogonek" horiz-adv-x="640" unicode="&#370;" /><glyph d="M85 227C85 101 128 -4 282 -4C436 -4 477 100 477 227V520H465V227C465 108 428 8 282 8C136 8 97 107 97 227V520H85ZM339 -109C339 -163 362 -185 402 -185C442 -185 460 -156 460 -115H448C448 -148 434 -173 402 -173C368 -173 351 -153 351 -109C351 -50 396 17 434 60L425 67C379 15 339 -54 339 -109Z" glyph-name="Uogonek.small" horiz-adv-x="562" /><glyph d="M80 313C80 142 130 -5 323 -5C511 -5 560 142 560 313V690H546V313C546 158 507 9 323 9C135 9 94 158 94 313V690H80ZM250 789C250 750 279 719 320 719C362 719 391 750 391 789C391 829 362 860 320 860C279 860 250 829 250 789ZM377 789C377 758 354 733 320 733C287 733 264 758 264 789C264 821 287 846 320 846C354 846 377 821 377 789Z" glyph-name="Uring" horiz-adv-x="640" unicode="&#366;" /><glyph d="M85 227C85 101 128 -4 282 -4C436 -4 477 100 477 227V520H465V227C465 108 428 8 282 8C136 8 97 107 97 227V520H85ZM203.5 721C203.5 678 234.5 644 280.5 644C327.5 644 358.5 678 358.5 721C358.5 765 327.5 799 280.5 799C235.5 799 203.5 765 203.5 721ZM346.5 721C346.5 684 319.5 656 280.5 656C242.5 656 215.5 684 215.5 721C215.5 759 242.5 787 280.5 787C319.5 787 346.5 759 346.5 721Z" glyph-name="Uring.small" horiz-adv-x="562" /><glyph d="M80 313C80 142 130 -5 323 -5C511 -5 560 142 560 313V690H546V313C546 158 507 9 323 9C135 9 94 158 94 313V690H80ZM387.0867 750C332.0867 750 338.0867 822 264.0867 822C203.0867 822 188.0867 777 202.0867 736L216.0867 741C206.0867 775 215.0867 809 262.0867 809C330.0867 809 320.0867 737 386.0867 737C448.0867 737 462.0867 782 447.0867 823L433.0867 818C444.0867 784 436.0867 750 387.0867 750Z" glyph-name="Utilde" horiz-adv-x="640" unicode="&#360;" /><glyph d="M85 227C85 101 128 -4 282 -4C436 -4 477 100 477 227V520H465V227C465 108 428 8 282 8C136 8 97 107 97 227V520H85ZM163.5 640 175.5 644C159.3968 692.3096 167.5 740 218.5 740C292.5 740 272.5 642 343.5 642C402.5 642 417.8003 696.0991 398.5 754L386.5 750C402.6032 701.6904 394.5 654 343.5 654C283.5 654 301.5 752 218.5 752C159.5 752 144.1997 697.9009 163.5 640Z" glyph-name="Utilde.small" horiz-adv-x="562" /><glyph d="M0 690 274 -5H286L560 690H545L274 1H286L15 690Z" glyph-name="V" horiz-adv-x="560" unicode="V" /><glyph d="M0 520 229 -2H239L468 520H454L229 4H239L14 520Z" glyph-name="V.small" horiz-adv-x="468" /><glyph d="M15 690 198 -5H212L433 678H421L642 -5H656L839 690H824L643 0H655L433 684H421L199 0H212L30 690Z" glyph-name="W" horiz-adv-x="854" unicode="W" /><glyph d="M10 520 177 -2H189L389 507H377L576 -2H588L756 520H742L576 2H588L389 511H377L177 2H189L24 520Z" glyph-name="W.small" horiz-adv-x="766" /><glyph d="M15 690 198 -5H212L433 678H421L642 -5H656L839 690H824L643 0H655L433 684H421L199 0H212L30 690ZM369 742 375 730 544 813 538 825Z" glyph-name="Wacute" horiz-adv-x="854" unicode="&#7810;" /><glyph d="M10 520 177 -2H189L389 507H377L576 -2H588L756 520H742L576 2H588L389 511H377L177 2H189L24 520ZM357 621 366 611 503 772 494 782Z" glyph-name="Wacute.small" horiz-adv-x="766" /><glyph d="M15 690 198 -5H212L433 678H421L642 -5H656L839 690H824L643 0H655L433 684H421L199 0H212L30 690ZM286 742 292 730 427 811 562 730 568 742 429 825H425Z" glyph-name="Wcircumflex" horiz-adv-x="854" unicode="&#372;" /><glyph d="M10 520 177 -2H189L389 507H377L576 -2H588L756 520H742L576 2H588L389 511H377L177 2H189L24 520ZM242 621 251 611 384 767 516 611 525 621 388 782H379Z" glyph-name="Wcircumflex.small" horiz-adv-x="766" /><glyph d="M15 690 198 -5H212L433 678H421L642 -5H656L839 690H824L643 0H655L433 684H421L199 0H212L30 690ZM329 778C329 768 336 759 348 759C359 759 366 768 366 778C366 787 359 796 348 796C336 796 329 787 329 778ZM489 778C489 768 496 759 508 759C519 759 526 768 526 778C526 787 519 796 508 796C496 796 489 787 489 778Z" glyph-name="Wdieresis" horiz-adv-x="854" unicode="&#7812;" /><glyph d="M10 520 177 -2H189L389 507H377L576 -2H588L756 520H742L576 2H588L389 511H377L177 2H189L24 520ZM284.5 712C284.5 702 291.5 693 303.5 693C314.5 693 321.5 702 321.5 712C321.5 721 314.5 730 303.5 730C291.5 730 284.5 721 284.5 712ZM444.5 712C444.5 702 451.5 693 463.5 693C474.5 693 481.5 702 481.5 712C481.5 721 474.5 730 463.5 730C451.5 730 444.5 721 444.5 712Z" glyph-name="Wdieresis.small" horiz-adv-x="766" /><glyph d="M15 690 198 -5H212L433 678H421L642 -5H656L839 690H824L643 0H655L433 684H421L199 0H212L30 690ZM304 813 473 730 479 742 310 825Z" glyph-name="Wgrave" horiz-adv-x="854" unicode="&#7808;" /><glyph d="M10 520 177 -2H189L389 507H377L576 -2H588L756 520H742L576 2H588L389 511H377L177 2H189L24 520ZM257 772 394 611 403 621 266 782Z" glyph-name="Wgrave.small" horiz-adv-x="766" /><glyph d="M33 690 270 350 273 345 514 0H532L282 357L279 362L51 690ZM501 690 273 363 270 358 20 0H38L279 346L282 351L519 690Z" glyph-name="X" horiz-adv-x="552" unicode="X" /><glyph d="M49 520 244 263 246 260 443 0H458L253 270L250 274L64 520ZM434 520 245 272 243 269 39 0H54L251 259L253 262L448 520Z" glyph-name="X.small" horiz-adv-x="497" /><glyph d="M259 302H247L5 690H22L259 310H247L484 690H501ZM246 316H260V0H246Z" glyph-name="Y" horiz-adv-x="506" unicode="Y" /><glyph d="M224 226H214L5 520H18L224 234H214L418 520H432ZM213 234H225V0H213Z" glyph-name="Y.small" horiz-adv-x="437" /><glyph d="M259 302H247L5 690H22L259 310H247L484 690H501ZM246 316H260V0H246ZM199 742 205 730 374 813 368 825Z" glyph-name="Yacute" horiz-adv-x="506" unicode="&#221;" /><glyph d="M224 226H214L5 520H18L224 234H214L418 520H432ZM213 234H225V0H213ZM197 621 206 611 343 772 334 782Z" glyph-name="Yacute.small" horiz-adv-x="437" /><glyph d="M259 302H247L5 690H22L259 310H247L484 690H501ZM246 316H260V0H246ZM112 742 118 730 253 811 388 730 394 742 255 825H251Z" glyph-name="Ycircumflex" horiz-adv-x="506" unicode="&#374;" /><glyph d="M224 226H214L5 520H18L224 234H214L418 520H432ZM213 234H225V0H213ZM77 621 86 611 219 767 351 611 360 621 223 782H214Z" glyph-name="Ycircumflex.small" horiz-adv-x="437" /><glyph d="M259 302H247L5 690H22L259 310H247L484 690H501ZM246 316H260V0H246ZM155 778C155 768 162 759 174 759C185 759 192 768 192 778C192 787 185 796 174 796C162 796 155 787 155 778ZM315 778C315 768 322 759 334 759C345 759 352 768 352 778C352 787 345 796 334 796C322 796 315 787 315 778Z" glyph-name="Ydieresis" horiz-adv-x="506" unicode="&#376;" /><glyph d="M224 226H214L5 520H18L224 234H214L418 520H432ZM213 234H225V0H213ZM119.5 712C119.5 702 126.5 693 138.5 693C149.5 693 156.5 702 156.5 712C156.5 721 149.5 730 138.5 730C126.5 730 119.5 721 119.5 712ZM279.5 712C279.5 702 286.5 693 298.5 693C309.5 693 316.5 702 316.5 712C316.5 721 309.5 730 298.5 730C286.5 730 279.5 721 279.5 712Z" glyph-name="Ydieresis.small" horiz-adv-x="437" /><glyph d="M259 302H247L5 690H22L259 310H247L484 690H501ZM246 316H260V0H246ZM162 813 331 730 337 742 168 825Z" glyph-name="Ygrave" horiz-adv-x="506" unicode="&#7922;" /><glyph d="M224 226H214L5 520H18L224 234H214L418 520H432ZM213 234H225V0H213ZM125 772 262 611 271 621 134 782Z" glyph-name="Ygrave.small" horiz-adv-x="437" /><glyph d="M45 17V6H483V20H51L57 9L470 674V685H56V671H464L458 682Z" glyph-name="Z" horiz-adv-x="528" unicode="Z" /><glyph d="M40 15V5H435V17H45L50 7L421 505V515H47V503H416L411 513Z" glyph-name="Z.small" horiz-adv-x="475" /><glyph d="M45 17V6H483V20H51L57 9L470 674V685H56V671H464L458 682ZM200 739 206 727 375 810 369 822Z" glyph-name="Zacute" horiz-adv-x="528" unicode="&#377;" /><glyph d="M40 15V5H435V17H45L50 7L421 505V515H47V503H416L411 513ZM202 621 211 611 348 772 339 782Z" glyph-name="Zacute.small" horiz-adv-x="475" /><glyph d="M45 17V6H483V20H51L57 9L470 674V685H56V671H464L458 682ZM123 813 262 730H266L405 813L399 825L264 744L129 825Z" glyph-name="Zcaron" horiz-adv-x="528" unicode="&#381;" /><glyph d="M40 15V5H435V17H45L50 7L421 505V515H47V503H416L411 513ZM112 772 249 611H258L395 772L386 782L253 626L121 782Z" glyph-name="Zcaron.small" horiz-adv-x="475" /><glyph d="M45 17V6H483V20H51L57 9L470 674V685H56V671H464L458 682ZM246 778C246 768 253 759 265 759C276 759 283 768 283 778C283 787 276 796 265 796C253 796 246 787 246 778Z" glyph-name="Zdotaccent" horiz-adv-x="528" unicode="&#379;" /><glyph d="M40 15V5H435V17H45L50 7L421 505V515H47V503H416L411 513ZM238 693C249 693 256 702 256 712C256 721 249 730 238 730C226 730 219 721 219 712C219 702 226 693 238 693Z" glyph-name="Zdotaccent.small" horiz-adv-x="475" /><glyph d="M340 90C340 18 357 -5 400 -5C441 -5 453 27 453 49H441C441 25 426 6 401 6C363 6 352 32 352 90C352 128 352 294 352 337C352 420 313 480 208 480C108 480 66 418 66 339H78C78 412 114 468 208 468C303 468 340 412 340 337C340 294 340 128 340 90ZM55 103C55 32 104 -5 177 -5C295 -5 350 111 350 200H340C340 117 287 7 177 7C114 7 67 40 67 103C67 174 120 222 224 222C266 222 321 212 348 202L351 213C323 224 271 234 224 234C108 234 55 180 55 103Z" glyph-name="a" horiz-adv-x="463" unicode="a" /><glyph d="M216 463C216 419 230 405 256 405C282 405 290 421 290 440H278C278 424 271 417 257 417C235 417 228 429 228 464C228 487 228 581 228 607C228 656 198 695 134 695C69 695 42 658 42 610H55C56 650 74 683 135 683C190 683 216 649 216 607C216 581 216 486 216 463ZM34 470C34 427 65 405 113 405C189 405 225 474 225 527H216C216 480 181 417 112 417C74 417 46 435 46 470C46 511 78 537 142 537C170 537 204 531 221 525L223 536C205 543 173 549 142 549C69 549 34 518 34 470Z" glyph-name="a.superior" horiz-adv-x="297" /><glyph d="M340 90C340 18 357 -5 400 -5C441 -5 453 27 453 49H441C441 25 426 6 401 6C363 6 352 32 352 90C352 128 352 294 352 337C352 420 313 480 208 480C108 480 66 418 66 339H78C78 412 114 468 208 468C303 468 340 412 340 337C340 294 340 128 340 90ZM55 103C55 32 104 -5 177 -5C295 -5 350 111 350 200H340C340 117 287 7 177 7C114 7 67 40 67 103C67 174 120 222 224 222C266 222 321 212 348 202L351 213C323 224 271 234 224 234C108 234 55 180 55 103ZM177 571 186 561 323 722 314 732Z" glyph-name="aacute" horiz-adv-x="463" unicode="&#225;" /><glyph d="M340 90C340 18 357 -5 400 -5C441 -5 453 27 453 49H441C441 25 426 6 401 6C363 6 352 32 352 90C352 128 352 294 352 337C352 420 313 480 208 480C108 480 66 418 66 339H78C78 412 114 468 208 468C303 468 340 412 340 337C340 294 340 128 340 90ZM55 103C55 32 104 -5 177 -5C295 -5 350 111 350 200H340C340 117 287 7 177 7C114 7 67 40 67 103C67 174 120 222 224 222C266 222 321 212 348 202L351 213C323 224 271 234 224 234C108 234 55 180 55 103ZM220 594C330 594 349 694 349 726H337C337 696 320 606 220 606C120 606 103 696 103 726H91C91 694 110 594 220 594Z" glyph-name="abreve" horiz-adv-x="463" unicode="&#259;" /><glyph d="M340 90C340 18 357 -5 400 -5C441 -5 453 27 453 49H441C441 25 426 6 401 6C363 6 352 32 352 90C352 128 352 294 352 337C352 420 313 480 208 480C108 480 66 418 66 339H78C78 412 114 468 208 468C303 468 340 412 340 337C340 294 340 128 340 90ZM55 103C55 32 104 -5 177 -5C295 -5 350 111 350 200H340C340 117 287 7 177 7C114 7 67 40 67 103C67 174 120 222 224 222C266 222 321 212 348 202L351 213C323 224 271 234 224 234C108 234 55 180 55 103ZM73 571 82 561 215 717 347 561 356 571 219 732H210Z" glyph-name="acircumflex" horiz-adv-x="463" unicode="&#226;" /><glyph d="M177 571 186 561 323 722 314 732Z" glyph-name="acute" horiz-adv-x="500" unicode="&#180;" /><glyph d="M162 742 168 730 337 813 331 825Z" glyph-name="acute.cap" horiz-adv-x="500" /><glyph d="M340 90C340 18 357 -5 400 -5C441 -5 453 27 453 49H441C441 25 426 6 401 6C363 6 352 32 352 90C352 128 352 294 352 337C352 420 313 480 208 480C108 480 66 418 66 339H78C78 412 114 468 208 468C303 468 340 412 340 337C340 294 340 128 340 90ZM55 103C55 32 104 -5 177 -5C295 -5 350 111 350 200H340C340 117 287 7 177 7C114 7 67 40 67 103C67 174 120 222 224 222C266 222 321 212 348 202L351 213C323 224 271 234 224 234C108 234 55 180 55 103ZM116 662C116 652 123 643 135 643C146 643 153 652 153 662C153 671 146 680 135 680C123 680 116 671 116 662ZM276 662C276 652 283 643 295 643C306 643 313 652 313 662C313 671 306 680 295 680C283 680 276 671 276 662Z" glyph-name="adieresis" horiz-adv-x="463" unicode="&#228;" /><glyph d="M343 227C343 67 424 -5 530 -5C636 -5 700 59 700 156H688C688 70 631 7 530 7C431 7 352 77 352 227C352 230 352 233 352 237C355 370 423 468 532 468C649 468 665 380 665 336C665 321 664 314 664 312H356L352 300H673C674 305 677 320 677 339C677 392 656 480 532 480C414 480 343 375 343 227ZM350 196V337C350 420 313 480 208 480C108 480 66 418 66 339H78C78 412 114 468 208 468C303 468 340 412 340 337V217C311 226 265 234 224 234C108 234 55 180 55 103C55 32 104 -5 177 -5C290 -5 350 103 350 196ZM177 7C114 7 67 40 67 103C67 174 120 222 224 222C262 222 311 214 340 205V200C340 112 287 7 177 7Z" glyph-name="ae" horiz-adv-x="755" unicode="&#230;" /><glyph d="M343 227C343 67 424 -5 530 -5C636 -5 700 59 700 156H688C688 70 631 7 530 7C431 7 352 77 352 227C352 230 352 233 352 237C355 370 423 468 532 468C649 468 665 380 665 336C665 321 664 314 664 312H356L352 300H673C674 305 677 320 677 339C677 392 656 480 532 480C414 480 343 375 343 227ZM350 196V337C350 420 313 480 208 480C108 480 66 418 66 339H78C78 412 114 468 208 468C303 468 340 412 340 337V217C311 226 265 234 224 234C108 234 55 180 55 103C55 32 104 -5 177 -5C290 -5 350 103 350 196ZM177 7C114 7 67 40 67 103C67 174 120 222 224 222C262 222 311 214 340 205V200C340 112 287 7 177 7ZM423 571 432 561 569 722 560 732Z" glyph-name="aeacute" horiz-adv-x="755" unicode="&#509;" /><glyph d="M340 90C340 18 357 -5 400 -5C441 -5 453 27 453 49H441C441 25 426 6 401 6C363 6 352 32 352 90C352 128 352 294 352 337C352 420 313 480 208 480C108 480 66 418 66 339H78C78 412 114 468 208 468C303 468 340 412 340 337C340 294 340 128 340 90ZM55 103C55 32 104 -5 177 -5C295 -5 350 111 350 200H340C340 117 287 7 177 7C114 7 67 40 67 103C67 174 120 222 224 222C266 222 321 212 348 202L351 213C323 224 271 234 224 234C108 234 55 180 55 103ZM118 722 255 561 264 571 127 732Z" glyph-name="agrave" horiz-adv-x="463" unicode="&#224;" /><glyph d="M340 90C340 18 357 -5 400 -5C441 -5 453 27 453 49H441C441 25 426 6 401 6C363 6 352 32 352 90C352 128 352 294 352 337C352 420 313 480 208 480C108 480 66 418 66 339H78C78 412 114 468 208 468C303 468 340 412 340 337C340 294 340 128 340 90ZM55 103C55 32 104 -5 177 -5C295 -5 350 111 350 200H340C340 117 287 7 177 7C114 7 67 40 67 103C67 174 120 222 224 222C266 222 321 212 348 202L351 213C323 224 271 234 224 234C108 234 55 180 55 103ZM100 685V673H336V685Z" glyph-name="amacron" horiz-adv-x="463" unicode="&#257;" /><glyph d="M315 254C256 364 215 476 215 556C215 653 268 696 352 696C437 696 476 644 476 580C476 473 375 456 267 428C162 400 54 363 54 214C54 73 159 10 255 10C425 10 512 146 512 319H526C526 136 433 -4 255 -4C153 -4 40 63 40 214C40 371 152 411 263 441C361 467 462 483 462 580C462 636 427 682 352 682C276 682 229 643 229 556C229 478 269 367 327 260C432 67 479 9 542 9C583 9 604 26 604 78H618C618 22 599 -5 544 -5C472 -5 424 51 315 254Z" glyph-name="ampersand" horiz-adv-x="638" unicode="&amp;" /><glyph d="M272 191C221 275 187 367 187 420C187 493 232 526 303 526C375 526 407 486 407 438C407 355 322 344 231 323C144 302 52 274 52 162C52 56 141 9 221 9C364 9 438 110 438 242H450C450 104 372 -3 221 -3C135 -3 40 48 40 162C40 280 134 312 229 335C310 354 395 364 395 438C395 480 365 514 303 514C240 514 199 485 199 420C199 369 233 279 282 197C366 60 405 9 465 9C503 9 515 26 515 65H527C527 18 513 -3 465 -3C403 -3 360 46 272 191Z" glyph-name="ampersand.small" horiz-adv-x="547" /><glyph d="M332 -121C332 -162 355 -185 395 -185C435 -185 453 -156 453 -115H441C441 -148 427 -173 395 -173C361 -173 344 -152 344 -119C344 -60 401 -19 434 6L426 13C359 -35 332 -71 332 -121ZM340 90C340 18 357 -5 400 -5C441 -5 453 27 453 49H441C441 25 426 6 401 6C363 6 352 32 352 90C352 128 352 294 352 337C352 420 313 480 208 480C108 480 66 418 66 339H78C78 412 114 468 208 468C303 468 340 412 340 337C340 294 340 128 340 90ZM55 103C55 32 104 -5 177 -5C295 -5 350 111 350 200H340C340 117 287 7 177 7C114 7 67 40 67 103C67 174 120 222 224 222C266 222 321 212 348 202L351 213C323 224 271 234 224 234C108 234 55 180 55 103Z" glyph-name="aogonek" horiz-adv-x="463" unicode="&#261;" /><glyph d="M95 348H80C86 399 116 444 178 444C220 444 248 424 279 401C308 381 338 360 376 360C429 360 451 395 457 444H470C465 387 437 347 376 347C334 347 303 367 271 389C243 410 216 430 178 430C124 430 100 389 95 348ZM95 148H80C86 199 116 244 178 244C220 244 248 224 279 201C308 181 338 160 376 160C429 160 451 195 457 244H470C465 187 437 147 376 147C334 147 303 167 271 189C243 210 216 230 178 230C124 230 100 189 95 148Z" glyph-name="approxequal" horiz-adv-x="550" unicode="&#8776;" /><glyph d="M340 90C340 18 357 -5 400 -5C441 -5 453 27 453 49H441C441 25 426 6 401 6C363 6 352 32 352 90C352 128 352 294 352 337C352 420 313 480 208 480C108 480 66 418 66 339H78C78 412 114 468 208 468C303 468 340 412 340 337C340 294 340 128 340 90ZM55 103C55 32 104 -5 177 -5C295 -5 350 111 350 200H340C340 117 287 7 177 7C114 7 67 40 67 103C67 174 120 222 224 222C266 222 321 212 348 202L351 213C323 224 271 234 224 234C108 234 55 180 55 103ZM145 671C145 628 176 594 222 594C269 594 300 628 300 671C300 715 269 749 222 749C177 749 145 715 145 671ZM288 671C288 634 261 606 222 606C184 606 157 634 157 671C157 709 184 737 222 737C261 737 288 709 288 671Z" glyph-name="aring" horiz-adv-x="463" unicode="&#229;" /><glyph d="M340 90C340 18 357 -5 400 -5C441 -5 453 27 453 49H441C441 25 426 6 401 6C363 6 352 32 352 90C352 128 352 294 352 337C352 420 313 480 208 480C108 480 66 418 66 339H78C78 412 114 468 208 468C303 468 340 412 340 337C340 294 340 128 340 90ZM55 103C55 32 104 -5 177 -5C295 -5 350 111 350 200H340C340 117 287 7 177 7C114 7 67 40 67 103C67 174 120 222 224 222C266 222 321 212 348 202L351 213C323 224 271 234 224 234C108 234 55 180 55 103ZM137 606C137 563 168 529 214 529C261 529 292 563 292 606C292 650 261 684 214 684C169 684 137 650 137 606ZM280 606C280 569 253 541 214 541C176 541 149 569 149 606C149 644 176 672 214 672C253 672 280 644 280 606ZM157 742 163 730 332 813 326 825Z" glyph-name="aringacute" horiz-adv-x="463" unicode="&#507;" /><glyph d="M281 690H295V15H281ZM283 10 496 223 506 213 289 -5 70 213 80 223 294 10Z" glyph-name="arrowdown" horiz-adv-x="576" unicode="&#8595;" /><glyph d="M571 460 561 470 110 19 120 9ZM100 0H409V14H107L115 7V308H100Z" glyph-name="arrowdownleft" horiz-adv-x="621" unicode="&#8601;" /><glyph d="M50 460 60 470 511 19 501 9ZM521 0H212V14H514L506 7V308H521Z" glyph-name="arrowdownright" horiz-adv-x="621" unicode="&#8600;" /><glyph d="M652 270V256H71V270ZM269 480 279 471 65 257 66 268 279 55 268 44 50 262Z" glyph-name="arrowleft" horiz-adv-x="702" unicode="&#8592;" /><glyph d="M50 270V256H631V270ZM433 480 423 471 637 257 636 268 423 55 434 44 652 262Z" glyph-name="arrowright" horiz-adv-x="702" unicode="&#8594;" /><glyph d="M295 0H281V675H295ZM293 680 80 467 70 477 287 695 506 477 496 467 282 680Z" glyph-name="arrowup" horiz-adv-x="576" unicode="&#8593;" /><glyph d="M571 10 561 0 110 451 120 461ZM100 470H409V456H107L115 463V162H100Z" glyph-name="arrowupleft" horiz-adv-x="621" unicode="&#8598;" /><glyph d="M50 10 60 0 511 451 501 461ZM521 470H212V456H514L506 463V162H521Z" glyph-name="arrowupright" horiz-adv-x="621" unicode="&#8599;" /><glyph d="M268 675 94 395 104 389 278 669H268L442 389L452 395L278 675Z" glyph-name="asciicircum" horiz-adv-x="503" unicode="^" /><glyph d="M178 354C220 354 248 334 279 311C308 291 338 270 376 270C429 270 451 305 457 354H470C465 297 437 257 376 257C334 257 303 277 271 299C243 320 216 340 178 340C124 340 100 299 95 258H80C86 309 116 354 178 354Z" glyph-name="asciitilde" horiz-adv-x="550" unicode="~" /><glyph d="M374 347 260 499 420 549 416 561 256 511V690H244V510L84 561L80 549L240 498L134 342L144 336L250 492L365 340Z" glyph-name="asterisk" horiz-adv-x="500" unicode="*" /><glyph d="M493 301C493 206 434 96 337 96C267 96 232 147 232 220C232 318 293 424 389 424C459 424 493 372 493 301ZM483 301C483 364 453 412 389 412C299 412 244 310 244 220C244 155 273 108 337 108C428 108 483 214 483 301ZM635 -10 643 -18C639 -22 572 -99 407 -99C161 -99 50 53 50 255C50 450 170 633 399 633C585 633 716 514 716 323C716 132 591 89 536 89C487 89 468 112 468 156C468 172 470 192 473 217L496.2825 361.2015L504 409H516L485 215C481 192 480 172 480 156C480 122 495 101 536 101C589 101 704 144 704 323C704 506 577 621 399 621C178 621 62 444 62 255C62 60 169 -87 407 -87C566 -87 631 -14 635 -10Z" glyph-name="at" horiz-adv-x="766" unicode="@" /><glyph d="M493 381C493 286 434 176 337 176C267 176 232 227 232 300C232 398 293 504 389 504C459 504 493 452 493 381ZM483 381C483 444 453 492 389 492C299 492 244 390 244 300C244 235 273 188 337 188C428 188 483 294 483 381ZM635 70 643 62C639 58 572 -19 407 -19C161 -19 50 133 50 335C50 530 170 713 399 713C585 713 716 594 716 403C716 212 591 169 536 169C487 169 468 192 468 236C468 252 470 272 473 297L496.2825 441.2015L504 489H516L485 295C481 272 480 252 480 236C480 202 495 181 536 181C589 181 704 224 704 403C704 586 577 701 399 701C178 701 62 524 62 335C62 140 169 -7 407 -7C566 -7 631 66 635 70Z" glyph-name="at.cap" horiz-adv-x="766" /><glyph d="M499 292C499 208 439 110 346 110C278 110 247 155 247 220C247 306 304 403 396 403C464 403 499 356 499 292ZM487 292C487 348 456 391 396 391C310 391 259 300 259 220C259 163 286 122 346 122C433 122 487 214 487 292ZM491 216C488 195 486 178 486 164C486 133 500 113 535 113C587 113 700 143 700 311C700 475 579 577 408 577C195 577 83 422 83 251C83 67 188 -52 410 -52C551 -52 623 21 627 25L636 16C632 11 556 -64 410 -64C178 -64 71 61 71 251C71 428 187 589 408 589C587 589 712 481 712 311C712 133 587 101 532 101C491 101 474 125 474 164C474 178 476 195 479 218L502.6365 363.079L508 396L520 394Z" glyph-name="at.small" horiz-adv-x="766" /><glyph d="M340 90C340 18 357 -5 400 -5C441 -5 453 27 453 49H441C441 25 426 6 401 6C363 6 352 32 352 90C352 128 352 294 352 337C352 420 313 480 208 480C108 480 66 418 66 339H78C78 412 114 468 208 468C303 468 340 412 340 337C340 294 340 128 340 90ZM55 103C55 32 104 -5 177 -5C295 -5 350 111 350 200H340C340 117 287 7 177 7C114 7 67 40 67 103C67 174 120 222 224 222C266 222 321 212 348 202L351 213C323 224 271 234 224 234C108 234 55 180 55 103ZM82 590 94 594C77.8968 642.3096 86 690 137 690C211 690 191 592 262 592C321 592 336.3003 646.0991 317 704L305 700C321.1032 651.6904 313 604 262 604C202 604 220 702 137 702C78 702 62.6997 647.9009 82 590Z" glyph-name="atilde" horiz-adv-x="463" unicode="&#227;" /><glyph d="M98 233C98 60 205 -5 282 -5C392 -5 471 80 471 239C471 415 365 480 282 480C171 480 98 395 98 233ZM459 239C459 90 386 7 282 7C209 7 107 72 107 233C107 385 178 468 282 468C361 468 459 403 459 239ZM95 710V0H107V179V218V710Z" glyph-name="b" horiz-adv-x="526" unicode="b" /><glyph d="M63 548C63 444 127 405 182 405C252 405 303 456 303 551C303 656 236 695 181 695C107 695 63 644 63 548ZM291 551C291 464 248 417 181 417C134 417 71 454 71 547C71 639 118 683 181 683C232 683 291 647 291 551ZM59 832V408H71V514V537V832Z" glyph-name="b.superior" horiz-adv-x="338" /><glyph d="M45 710H30L388 -88H403Z" glyph-name="backslash" horiz-adv-x="433" unicode="\" /><glyph d="M124 -153H110V740H124Z" glyph-name="bar" horiz-adv-x="234" unicode="|" /><glyph d="M177 179C177 259 106 281 106 281V269C106 269 177 291 177 371C177 497 167 550 167 638C167 695 198 710 239 710H255V724H239C190 724 153 705 153 638C153 550 163 497 163 371C163 299 100 281 100 281V269C100 269 163 251 163 179C163 53 153 0 153 -88C153 -155 190 -174 239 -174H255V-160H239C198 -160 167 -145 167 -88C167 0 177 53 177 179Z" glyph-name="braceleft" horiz-adv-x="335" unicode="{" /><glyph d="M177 229C177 309 106 331 106 331V319C106 319 177 341 177 421C177 547 167 600 167 688C167 745 198 760 239 760H255V774H239C190 774 153 755 153 688C153 600 163 547 163 421C163 349 100 331 100 331V319C100 319 163 301 163 229C163 103 153 50 153 -38C153 -105 190 -124 239 -124H255V-110H239C198 -110 167 -95 167 -38C167 50 177 103 177 229Z" glyph-name="braceleft.cap" horiz-adv-x="335" /><glyph d="M177 163C177 243 106 265 106 265V253C106 253 177 275 177 355C177 440 172 469 172 537C172 594 203 609 244 609H260V623H244C195 623 158 604 158 537C158 469 163 440 163 355C163 283 100 265 100 265V253C100 253 163 235 163 163C163 87 158 49 158 -19C158 -86 195 -105 244 -105H260V-91H244C203 -91 172 -76 172 -19C172 49 177 87 177 163Z" glyph-name="braceleft.small" horiz-adv-x="335" /><glyph d="M158 371C158 291 229 269 229 269V281C229 281 158 259 158 179C158 53 168 0 168 -88C168 -145 137 -160 96 -160H80V-174H96C145 -174 182 -155 182 -88C182 0 172 53 172 179C172 251 235 269 235 269V281C235 281 172 299 172 371C172 497 182 550 182 638C182 705 145 724 96 724H80V710H96C137 710 168 695 168 638C168 550 158 497 158 371Z" glyph-name="braceright" horiz-adv-x="335" unicode="}" /><glyph d="M158 421C158 341 229 319 229 319V331C229 331 158 309 158 229C158 103 168 50 168 -38C168 -95 137 -110 96 -110H80V-124H96C145 -124 182 -105 182 -38C182 50 172 103 172 229C172 301 235 319 235 319V331C235 331 172 349 172 421C172 547 182 600 182 688C182 755 145 774 96 774H80V760H96C137 760 168 745 168 688C168 600 158 547 158 421Z" glyph-name="braceright.cap" horiz-adv-x="335" /><glyph d="M158 163C158 243 229 265 229 265V253C229 253 158 275 158 355C158 440 163 469 163 537C163 594 132 609 91 609H75V623H91C140 623 177 604 177 537C177 469 172 440 172 355C172 283 235 265 235 265V253C235 253 172 235 172 163C172 87 177 49 177 -19C177 -86 140 -105 91 -105H75V-91H91C132 -91 163 -76 163 -19C163 49 158 87 158 163Z" glyph-name="braceright.small" horiz-adv-x="335" /><glyph d="M106 710H233V722H100V-174H233V-162H106L112 -168V716Z" glyph-name="bracketleft" horiz-adv-x="283" unicode="[" /><glyph d="M106 760H233V772H100V-124H233V-112H106L112 -118V766Z" glyph-name="bracketleft.cap" horiz-adv-x="283" /><glyph d="M106 610H233V622H100V-104H233V-92H106L112 -98V616Z" glyph-name="bracketleft.small" horiz-adv-x="283" /><glyph d="M177 -162H50V-174H183V722H50V710H177L171 716V-168Z" glyph-name="bracketright" horiz-adv-x="283" unicode="]" /><glyph d="M177 -112H50V-124H183V772H50V760H177L171 766V-118Z" glyph-name="bracketright.cap" horiz-adv-x="283" /><glyph d="M177 -92H50V-104H183V622H50V610H177L171 616V-98Z" glyph-name="bracketright.small" horiz-adv-x="283" /><glyph d="M250 594C360 594 379 694 379 726H367C367 696 350 606 250 606C150 606 133 696 133 726H121C121 694 140 594 250 594Z" glyph-name="breve" horiz-adv-x="500" unicode="&#728;" /><glyph d="M117 832C117 802 145 730 250 730C355 730 383 802 383 832H368C368 805 339 744 250 744C161 744 132 805 132 832Z" glyph-name="breve.cap" horiz-adv-x="500" /><glyph d="M124 417H110V740H124ZM124 -153H110V170H124Z" glyph-name="brokenbar" horiz-adv-x="234" unicode="&#166;" /><glyph d="M185 260C243 260 290 302 290 365C290 428 243 470 185 470C127 470 80 428 80 365C80 302 127 260 185 260Z" glyph-name="bullet" horiz-adv-x="370" unicode="&#8226;" /><glyph d="M55 228C55 68 139 -5 245 -5C351 -5 405 59 405 156H393C393 70 346 7 245 7C146 7 67 78 67 228C67 365 125 468 237 468C354 468 380 385 380 336H392C392 350 390 366 386 382C372 432 332 480 237 480C119 480 55 376 55 228Z" glyph-name="c" horiz-adv-x="465" unicode="c" /><glyph d="M36 544C36 446 91 405 159 405C228 405 262 442 262 502H250C250 451 221 417 158 417C97 417 48 456 48 544C48 622 81 683 152 683C228 683 241 637 241 608H254C254 617 253 626 251 635C243 665 216 695 152 695C77 695 36 632 36 544Z" glyph-name="c.superior" horiz-adv-x="302" /><glyph d="M55 228C55 68 139 -5 245 -5C351 -5 405 59 405 156H393C393 70 346 7 245 7C146 7 67 78 67 228C67 365 125 468 237 468C354 468 380 385 380 336H392C392 350 390 366 386 382C372 432 332 480 237 480C119 480 55 376 55 228ZM202 571 211 561 348 722 339 732Z" glyph-name="cacute" horiz-adv-x="465" unicode="&#263;" /><glyph d="M127 722 264 561H273L410 722L401 732L268 576L136 732Z" glyph-name="caron" horiz-adv-x="500" unicode="&#711;" /><glyph d="M109 813 248 730H252L391 813L385 825L250 744L115 825Z" glyph-name="caron.cap" horiz-adv-x="500" /><glyph d="M207 532 218 527 293 705 282 710Z" glyph-name="caronSlovak" horiz-adv-x="500" /><glyph d="M55 228C55 68 139 -5 245 -5C351 -5 405 59 405 156H393C393 70 346 7 245 7C146 7 67 78 67 228C67 365 125 468 237 468C354 468 380 385 380 336H392C392 350 390 366 386 382C372 432 332 480 237 480C119 480 55 376 55 228ZM103 722 240 561H249L386 722L377 732L244 576L112 732Z" glyph-name="ccaron" horiz-adv-x="465" unicode="&#269;" /><glyph d="M55 228C55 68 139 -5 245 -5C351 -5 405 59 405 156H393C393 70 346 7 245 7C146 7 67 78 67 228C67 365 125 468 237 468C354 468 380 385 380 336H392C392 350 390 366 386 382C372 432 332 480 237 480C119 480 55 376 55 228ZM198 -120C196 -161 217 -185 258 -185C293 -185 323 -165 323 -120C323 -63 277 -48 223 -62L229 -68L248 0L237 3L216 -69L224 -72C272 -61 311 -71 311 -120C311 -157 287 -173 258 -173C225 -173 208 -155 210 -120Z" glyph-name="ccedilla" horiz-adv-x="465" unicode="&#231;" /><glyph d="M55 228C55 68 139 -5 245 -5C351 -5 405 59 405 156H393C393 70 346 7 245 7C146 7 67 78 67 228C67 365 125 468 237 468C354 468 380 385 380 336H392C392 350 390 366 386 382C372 432 332 480 237 480C119 480 55 376 55 228ZM109 571 118 561 251 717 383 561 392 571 255 732H246Z" glyph-name="ccircumflex" horiz-adv-x="465" unicode="&#265;" /><glyph d="M55 228C55 68 139 -5 245 -5C351 -5 405 59 405 156H393C393 70 346 7 245 7C146 7 67 78 67 228C67 365 125 468 237 468C354 468 380 385 380 336H392C392 350 390 366 386 382C372 432 332 480 237 480C119 480 55 376 55 228ZM246 643C257 643 264 652 264 662C264 671 257 680 246 680C234 680 227 671 227 662C227 652 234 643 246 643Z" glyph-name="cdotaccent" horiz-adv-x="465" unicode="&#267;" /><glyph d="M198 -120C196 -161 217 -185 258 -185C293 -185 323 -165 323 -120C323 -63 277 -48 223 -62L229 -68L248 0L237 3L216 -69L224 -72C272 -61 311 -71 311 -120C311 -157 287 -173 258 -173C225 -173 208 -155 210 -120Z" glyph-name="cedilla" horiz-adv-x="500" unicode="&#184;" /><glyph d="M71 337C71 177 166 104 272 104C378 104 452 168 452 265H439C439 179 371 117 272 117C174 117 84 187 84 337C84 474 146 576 264 576C397 576 426 494 426 445H439C439 455.5174 437.8162 466.9554 435.0492 478.6345C422.5571 531.3616 377.7946 589 264 589C138 589 71 485 71 337ZM272 584V690H259V584ZM272 0V110H259V0Z" glyph-name="cent" horiz-adv-x="520" unicode="&#162;" /><glyph d="M392 169 50 619V598L387 154L720 595V615L382 169Z" glyph-name="chevrondown" horiz-adv-x="770" /><glyph d="M65 338 455 690H434L50 343L431 0H451L65 348Z" glyph-name="chevronleft" horiz-adv-x="550" /><glyph d="M485 338 95 690H116L500 343L119 0H99L485 348Z" glyph-name="chevronright" horiz-adv-x="550" /><glyph d="M378 604 720 154V175L383 619L50 178V158L388 604Z" glyph-name="chevronup" horiz-adv-x="770" /><glyph d="M109 571 118 561 251 717 383 561 392 571 255 732H246Z" glyph-name="circumflex" horiz-adv-x="500" unicode="&#710;" /><glyph d="M109 742 115 730 250 811 385 730 391 742 252 825H248Z" glyph-name="circumflex.cap" horiz-adv-x="500" /><glyph d="M80 14C80 4 87 -5 99 -5C110 -5 117 4 117 14C117 23 110 32 99 32C87 32 80 23 80 14ZM80 424C80 414 87 405 99 405C110 405 117 414 117 424C117 433 110 442 99 442C87 442 80 433 80 424Z" glyph-name="colon" horiz-adv-x="197" unicode=":" /><glyph d="M45 -135 54 -143C69 -126 116 -53 116 11C116 23 109 32 97 32C87 32 80 25 80 14C80 2 90 -4 101 -4C95 -64 55 -123 45 -135Z" glyph-name="comma" horiz-adv-x="197" unicode="," /><glyph d="M182 -201 193 -206 255 -58 244 -53Z" glyph-name="commaaccent" horiz-adv-x="500" /><glyph d="M213 569 224 564 286 712 275 717Z" glyph-name="commaaccent.alt" horiz-adv-x="500" /><glyph d="M388 -8C578 -8 716 138 716 341C716 546 578 689 388 689C198 689 60 546 60 341C60 138 198 -8 388 -8ZM388 4C204 4 72 146 72 341C72 538 204 677 388 677C572 677 704 538 704 341C704 146 572 4 388 4ZM504 412H516C516 417.0661 515.7237 422.2506 515.13 427.48C509.7465 474.8946 478.2652 526 390 526C294 526 239 460 239 337C239 214 306 160 393 160C483 160 527 210 527 284H515C515 219 473 172 393 172C312 172 251 224 251 337C251 450 300 514 390 514C478 514 504 456 504 412Z" glyph-name="copyright" horiz-adv-x="776" unicode="&#169;" /><glyph d="M275 153C184 153 119 223 119 309C119 395 184 465 275 465C366 465 431 395 431 309C431 223 366 153 275 153ZM275 167C358 167 417 231 417 309C417 387 358 451 275 451C192 451 133 387 133 309C133 231 192 167 275 167ZM178 417 168 407 93 483 103 493ZM93 137 166 211 176 201 103 127ZM372 417 447 493 457 483 382 407ZM457 137 447 127 374 201 384 211Z" glyph-name="currency" horiz-adv-x="550" unicode="&#164;" /><glyph d="M55 236C55 60 161 -5 244 -5C355 -5 428 80 428 242C428 415 321 480 244 480C134 480 55 395 55 236ZM419 242C419 90 348 7 244 7C165 7 67 72 67 236C67 385 140 468 244 468C317 468 419 403 419 242ZM419 134V0H431V710H419V173Z" glyph-name="d" horiz-adv-x="526" unicode="d" /><glyph d="M34 549C34 444 101 405 156 405C230 405 274 456 274 552C274 656 210 695 155 695C85 695 34 644 34 549ZM266 553C266 461 219 417 156 417C105 417 46 453 46 549C46 636 89 683 156 683C203 683 266 646 266 553ZM266 489V408H278V832H266V512Z" glyph-name="d.superior" horiz-adv-x="338" /><glyph d="M220 -4V304V470V691H234V470V304V-4ZM404 477V463H227H50V477H227Z" glyph-name="dagger" horiz-adv-x="454" unicode="&#8224;" /><glyph d="M220 -4V213V337V474V691H234V474V337V213V-4ZM404 481V467H227H50V481H227ZM404 220V206H227H50V220H227Z" glyph-name="daggerdbl" horiz-adv-x="454" unicode="&#8225;" /><glyph d="M55 236C55 60 161 -5 244 -5C355 -5 428 80 428 242C428 415 321 480 244 480C134 480 55 395 55 236ZM419 242C419 90 348 7 244 7C165 7 67 72 67 236C67 385 140 468 244 468C317 468 419 403 419 242ZM419 134V0H431V710H419V173ZM527 532 538 527 613 705 602 710Z" glyph-name="dcaron" horiz-adv-x="563" unicode="&#271;" /><glyph d="M265 603V591H501V603ZM55 236C55 60 161 -5 244 -5C355 -5 428 80 428 242C428 415 321 480 244 480C134 480 55 395 55 236ZM419 242C419 90 348 7 244 7C165 7 67 72 67 236C67 385 140 468 244 468C317 468 419 403 419 242ZM419 134V0H431V710H419V173Z" glyph-name="dcroat" horiz-adv-x="526" unicode="&#273;" /><glyph d="M191 404C113 404 50 463 50 547C50 630 113 690 191 690C269 690 332 630 332 547C332 463 269 404 191 404ZM191 418C261 418 318 471 318 547C318 622 261 676 191 676C121 676 64 622 64 547C64 471 121 418 191 418Z" glyph-name="degree" horiz-adv-x="382" unicode="&#176;" /><glyph d="M153 662C153 652 160 643 172 643C183 643 190 652 190 662C190 671 183 680 172 680C160 680 153 671 153 662ZM313 662C313 652 320 643 332 643C343 643 350 652 350 662C350 671 343 680 332 680C320 680 313 671 313 662Z" glyph-name="dieresis" horiz-adv-x="500" unicode="&#168;" /><glyph d="M153 778C153 768 160 759 172 759C183 759 190 768 190 778C190 787 183 796 172 796C160 796 153 787 153 778ZM313 778C313 768 320 759 332 759C343 759 350 768 350 778C350 787 343 796 332 796C320 796 313 787 313 778Z" glyph-name="dieresis.cap" horiz-adv-x="500" /><glyph d="M470 316H80V302H470ZM256 134C256 124 263 115 275 115C286 115 293 124 293 134C293 143 286 152 275 152C263 152 256 143 256 134ZM256 485C256 475 263 466 275 466C286 466 293 475 293 485C293 494 286 503 275 503C263 503 256 494 256 485Z" glyph-name="divide" horiz-adv-x="550" unicode="&#247;" /><glyph d="M439 529H453C453 624 372 677 271 677C170 677 93 630 93 518C93 424 152 375 285 345C413 313 461 259 461 173C461 58 363 10 265 10C158 10 70 51 70 162H56C56 41 148 -4 265 -4C371 -4 475 50 475 173C475 265 427 325 289 359C166 387 107 430 107 518C107 622 178 663 271 663C362 663 439 618 439 529ZM275 360V740H261V360ZM275 -80V352H261V-80Z" glyph-name="dollar" horiz-adv-x="550" unicode="$" /><glyph d="M250 643C261 643 268 652 268 662C268 671 261 680 250 680C238 680 231 671 231 662C231 652 238 643 250 643Z" glyph-name="dotaccent" horiz-adv-x="500" unicode="&#729;" /><glyph d="M231 778C231 768 238 759 250 759C261 759 268 768 268 778C268 787 261 796 250 796C238 796 231 787 231 778Z" glyph-name="dotaccent.cap" horiz-adv-x="500" /><glyph d="M102 470V0H114V470Z" glyph-name="dotlessi" horiz-adv-x="217" unicode="&#305;" /><glyph d="M-10 -174C-10 -226 12 -250 60 -250C116 -250 139 -205 139 -98C139 -46 139 6 139 68V470H127V68C127 -5 127 -31 127 -95C127 -191 110 -238 61 -238C19 -238 2 -216 2 -174Z" glyph-name="dotlessj" horiz-adv-x="242" unicode="&#567;" /><glyph d="M55 227C55 67 139 -5 245 -5C351 -5 415 59 415 156H403C403 70 346 7 245 7C146 7 67 77 67 227C67 230 67 233 67 237C70 370 138 468 247 468C364 468 380 380 380 336C380 321 379 314 379 312H71L67 300H388C389 305 392 320 392 339C392 392 371 480 247 480C129 480 55 375 55 227Z" glyph-name="e" horiz-adv-x="470" unicode="e" /><glyph d="M34 544C34 448 89 405 157 405C227 405 268 443 268 502H256C256 451 221 417 157 417C96 417 46 456 46 544C46 546 46 548 46 550C48 628 92 683 158 683C231 683 240 634 240 608C240 599 239 595 239 594H47L44 583H250C250 586 252 598 252 610C252 643 238 695 158 695C82 695 34 632 34 544Z" glyph-name="e.superior" horiz-adv-x="302" /><glyph d="M55 227C55 67 139 -5 245 -5C351 -5 415 59 415 156H403C403 70 346 7 245 7C146 7 67 77 67 227C67 230 67 233 67 237C70 370 138 468 247 468C364 468 380 380 380 336C380 321 379 314 379 312H71L67 300H388C389 305 392 320 392 339C392 392 371 480 247 480C129 480 55 375 55 227ZM217 571 226 561 363 722 354 732Z" glyph-name="eacute" horiz-adv-x="470" unicode="&#233;" /><glyph d="M55 227C55 67 139 -5 245 -5C351 -5 415 59 415 156H403C403 70 346 7 245 7C146 7 67 77 67 227C67 230 67 233 67 237C70 370 138 468 247 468C364 468 380 380 380 336C380 321 379 314 379 312H71L67 300H388C389 305 392 320 392 339C392 392 371 480 247 480C129 480 55 375 55 227ZM258 594C368 594 387 694 387 726H375C375 696 358 606 258 606C158 606 141 696 141 726H129C129 694 148 594 258 594Z" glyph-name="ebreve" horiz-adv-x="470" unicode="&#277;" /><glyph d="M55 227C55 67 139 -5 245 -5C351 -5 415 59 415 156H403C403 70 346 7 245 7C146 7 67 77 67 227C67 230 67 233 67 237C70 370 138 468 247 468C364 468 380 380 380 336C380 321 379 314 379 312H71L67 300H388C389 305 392 320 392 339C392 392 371 480 247 480C129 480 55 375 55 227ZM107 722 244 561H253L390 722L381 732L248 576L116 732Z" glyph-name="ecaron" horiz-adv-x="470" unicode="&#283;" /><glyph d="M55 227C55 67 139 -5 245 -5C351 -5 415 59 415 156H403C403 70 346 7 245 7C146 7 67 77 67 227C67 230 67 233 67 237C70 370 138 468 247 468C364 468 380 380 380 336C380 321 379 314 379 312H71L67 300H388C389 305 392 320 392 339C392 392 371 480 247 480C129 480 55 375 55 227ZM109 571 118 561 251 717 383 561 392 571 255 732H246Z" glyph-name="ecircumflex" horiz-adv-x="470" unicode="&#234;" /><glyph d="M55 227C55 67 139 -5 245 -5C351 -5 415 59 415 156H403C403 70 346 7 245 7C146 7 67 77 67 227C67 230 67 233 67 237C70 370 138 468 247 468C364 468 380 380 380 336C380 321 379 314 379 312H71L67 300H388C389 305 392 320 392 339C392 392 371 480 247 480C129 480 55 375 55 227ZM153 662C153 652 160 643 172 643C183 643 190 652 190 662C190 671 183 680 172 680C160 680 153 671 153 662ZM313 662C313 652 320 643 332 643C343 643 350 652 350 662C350 671 343 680 332 680C320 680 313 671 313 662Z" glyph-name="edieresis" horiz-adv-x="470" unicode="&#235;" /><glyph d="M55 227C55 67 139 -5 245 -5C351 -5 415 59 415 156H403C403 70 346 7 245 7C146 7 67 77 67 227C67 230 67 233 67 237C70 370 138 468 247 468C364 468 380 380 380 336C380 321 379 314 379 312H71L67 300H388C389 305 392 320 392 339C392 392 371 480 247 480C129 480 55 375 55 227ZM250 643C261 643 268 652 268 662C268 671 261 680 250 680C238 680 231 671 231 662C231 652 238 643 250 643Z" glyph-name="edotaccent" horiz-adv-x="470" unicode="&#279;" /><glyph d="M55 227C55 67 139 -5 245 -5C351 -5 415 59 415 156H403C403 70 346 7 245 7C146 7 67 77 67 227C67 230 67 233 67 237C70 370 138 468 247 468C364 468 380 380 380 336C380 321 379 314 379 312H71L67 300H388C389 305 392 320 392 339C392 392 371 480 247 480C129 480 55 375 55 227ZM156 722 293 561 302 571 165 732Z" glyph-name="egrave" horiz-adv-x="470" unicode="&#232;" /><glyph d="M275 -5C394 -5 484 54 484 182C484 304 384 356 289 356V351C396 351 465 413 465 513C465 616 392 675 275 675C157 675 86 616 86 513C86 413 153 351 261 351V356C165 356 66 304 66 182C66 54 154 -5 275 -5ZM275 9C168 9 80 59 80 182C80 295 177 347 275 347C372 347 470 297 470 182C470 59 381 9 275 9ZM275 361C180 361 100 406 100 513C100 608 167 661 275 661C382 661 451 608 451 513C451 406 370 361 275 361Z" glyph-name="eight" horiz-adv-x="550" unicode="8" /><glyph d="M242 278V270C338 275 384 323 384 397C384 472 329 525 227 525C125 525 69 472 69 397C69 323 115 276 210 270V278C105 272 54 217 54 140C54 60 106 -5 228 -5C348 -5 401 60 401 140C401 218 348 273 242 278ZM227 280C135 280 81 325 81 397C81 466 135 513 227 513C319 513 372 466 372 397C372 325 319 280 227 280ZM228 7C116 7 66 66 66 140C66 215 125 269 228 269C328 269 389 215 389 140C389 66 338 7 228 7Z" glyph-name="eight.small" horiz-adv-x="455" /><glyph d="M242 278V270C338 275 384 323 384 397C384 472 329 525 227 525C125 525 69 472 69 397C69 323 115 276 210 270V278C105 272 54 217 54 140C54 60 106 -5 228 -5C348 -5 401 60 401 140C401 218 348 273 242 278ZM227 280C135 280 81 325 81 397C81 466 135 513 227 513C319 513 372 466 372 397C372 325 319 280 227 280ZM228 7C116 7 66 66 66 140C66 215 125 269 228 269C328 269 389 215 389 140C389 66 338 7 228 7Z" glyph-name="eight.small_tab" horiz-adv-x="455" /><glyph d="M275 -5C394 -5 484 54 484 182C484 304 384 356 289 356V351C396 351 465 413 465 513C465 616 392 675 275 675C157 675 86 616 86 513C86 413 153 351 261 351V356C165 356 66 304 66 182C66 54 154 -5 275 -5ZM275 9C168 9 80 59 80 182C80 295 177 347 275 347C372 347 470 297 470 182C470 59 381 9 275 9ZM275 361C180 361 100 406 100 513C100 608 167 661 275 661C382 661 451 608 451 513C451 406 370 361 275 361Z" glyph-name="eight.tab" horiz-adv-x="550" /><glyph d="M172 -103C248 -103 304 -67 304 9C304 82 241 114 181 114V110C249 110 292 148 292 208C292 269 246 305 172 305C97 305 53 269 53 208C53 148 95 110 163 110V114C102 114 41 82 41 9C41 -67 95 -103 172 -103ZM172 -91C106 -91 53 -62 53 10C53 75 112 106 172 106C232 106 292 77 292 10C292 -62 237 -91 172 -91ZM172 118C114 118 65 145 65 207C65 262 106 293 172 293C238 293 280 262 280 207C280 145 231 118 172 118Z" glyph-name="eightinferior" horiz-adv-x="344" unicode="&#8328;" /><glyph d="M172 405C248 405 304 441 304 517C304 590 241 622 181 622V618C249 618 292 656 292 716C292 777 246 813 172 813C97 813 53 777 53 716C53 656 95 618 163 618V622C102 622 41 590 41 517C41 441 95 405 172 405ZM172 417C106 417 53 446 53 518C53 583 112 614 172 614C232 614 292 585 292 518C292 446 237 417 172 417ZM172 626C114 626 65 653 65 715C65 770 106 801 172 801C238 801 280 770 280 715C280 653 231 626 172 626Z" glyph-name="eightsuperior" horiz-adv-x="344" unicode="&#8312;" /><glyph d="M80 14C80 4 87 -5 99 -5C110 -5 117 4 117 14C117 23 110 32 99 32C87 32 80 23 80 14ZM230 14C230 4 237 -5 249 -5C260 -5 267 4 267 14C267 23 260 32 249 32C237 32 230 23 230 14ZM380 14C380 4 387 -5 399 -5C410 -5 417 4 417 14C417 23 410 32 399 32C387 32 380 23 380 14Z" glyph-name="ellipsis" horiz-adv-x="497" unicode="&#8230;" /><glyph d="M55 227C55 67 139 -5 245 -5C351 -5 415 59 415 156H403C403 70 346 7 245 7C146 7 67 77 67 227C67 230 67 233 67 237C70 370 138 468 247 468C364 468 380 380 380 336C380 321 379 314 379 312H71L67 300H388C389 305 392 320 392 339C392 392 371 480 247 480C129 480 55 375 55 227ZM132 685V673H368V685Z" glyph-name="emacron" horiz-adv-x="470" unicode="&#275;" /><glyph d="M30 308V296H970V308Z" glyph-name="emdash" horiz-adv-x="1000" unicode="&#8212;" /><glyph d="M30 408V396H970V408Z" glyph-name="emdash.cap" horiz-adv-x="1000" /><glyph d="M30 308V296H470V308Z" glyph-name="endash" horiz-adv-x="501" unicode="&#8211;" /><glyph d="M30 408V396H470V408Z" glyph-name="endash.cap" horiz-adv-x="500" /><glyph d="M339 -190C395 -190 418 -145 418 -38V290C418 405 385 480 268 480C176 480 121 421 102 336V470H90V0H102V259C102 370 157 468 266 468C378 468 406 395 406 288V126.5V-35C406 -131 389 -178 340 -178C298 -178 281 -156 281 -114H269C269 -166 291 -190 339 -190Z" glyph-name="eng" horiz-adv-x="503" unicode="&#331;" /><glyph d="M55 227C55 67 139 -5 245 -5C351 -5 415 59 415 156H403C403 70 346 7 245 7C146 7 67 77 67 227C67 230 67 233 67 237C70 370 138 468 247 468C364 468 380 380 380 336C380 321 379 314 379 312H71L67 300H388C389 305 392 320 392 339C392 392 371 480 247 480C129 480 55 375 55 227ZM292 -109C292 -163 315 -185 355 -185C395 -185 413 -156 413 -115H401C401 -148 387 -173 355 -173C321 -173 304 -153 304 -109C304 -50 349 17 387 60L378 67C332 15 292 -54 292 -109Z" glyph-name="eogonek" horiz-adv-x="470" unicode="&#281;" /><glyph d="M470 212H80V198H470ZM470 420H80V406H470Z" glyph-name="equal" horiz-adv-x="550" unicode="=" /><glyph d="M709 281V301C709 469 578 607 380 607C180 607 50 469 50 301C50 135 172 -5 380 -5C533 -5 621 52 673 125L648 146C587 64 509 26 380 26C288 26 226 52 181 94V281ZM380 576C465 576 532 550 579 506V309H181V506C228 551 293 576 380 576Z" glyph-name="estimated" horiz-adv-x="762" unicode="&#8494;" /><glyph d="M250 6C114 6 67 124 67 231C67 355 116 458 242 458C365 458 425 358 425 230C425 98 353 6 250 6ZM250 -6C357 -6 440 79 440 259C440 500 288 647 131 710L126 699C259 645 401 524 427 313C425 320 423 327 421 334C398 408 344 470 242 470C110 470 55 363 55 231C55 118 106 -6 250 -6ZM315 706 167 546H184L331 706Z" glyph-name="eth" horiz-adv-x="495" unicode="&#240;" /><glyph d="M145 177V690H131V177ZM120 14C120 4 127 -5 139 -5C150 -5 157 4 157 14C157 23 150 32 139 32C127 32 120 23 120 14Z" glyph-name="exclam" horiz-adv-x="277" unicode="!" /><glyph d="M125 157V520H113V157ZM100 14C100 4 107 -5 119 -5C130 -5 137 4 137 14C137 23 130 32 119 32C107 32 100 23 100 14Z" glyph-name="exclam.small" horiz-adv-x="237" /><glyph d="M132 298V-215H146V298ZM157 461C157 471 150 480 138 480C127 480 120 471 120 461C120 452 127 443 138 443C150 443 157 452 157 461Z" glyph-name="exclamdown" horiz-adv-x="277" unicode="&#161;" /><glyph d="M132 513V0H146V513ZM157 676C157 686 150 695 138 695C127 695 120 686 120 676C120 667 127 658 138 658C150 658 157 667 157 676Z" glyph-name="exclamdown.cap" horiz-adv-x="277" /><glyph d="M112 363V0H124V363ZM137 506C137 516 130 525 118 525C107 525 100 516 100 506C100 497 107 488 118 488C130 488 137 497 137 506Z" glyph-name="exclamdown.small" horiz-adv-x="237" /><glyph d="M116 0H128V392C128 508 99 538 98 605C98 649 126 698 195 698C245 698 271 675 273 634H285C285 652 280 665 273 677C259 698 234 710 195 710C118 710 86 660 86 605C86 530 116 508 116 392ZM20 470V458H263V470H102Z" glyph-name="f" horiz-adv-x="270" unicode="f" /><glyph d="M79 408H91V639C91 709 72 727 72 767C72 793 89 820 132 820C164 820 178 807 179 784H191C191 795 188 803 184 810C175 824 159 832 132 832C82 832 60 801 60 767C60 722 79 709 79 639ZM18 689V678H176V689H80Z" glyph-name="f.superior" horiz-adv-x="180" /><glyph d="M126 0H138V392C138 508 109 538 108 605C108 649 136 698 205 698C255 698 281 675 283 634H295C295 652 290 665 283 677C269 698 244 710 205 710C128 710 96 660 96 605C96 530 126 508 126 392ZM30 470V458H273V470H112ZM382 470V0H394V470ZM389 643C400 643 407 652 407 662C407 671 400 680 389 680C377 680 370 671 370 662C370 652 377 643 389 643Z" glyph-name="fi" horiz-adv-x="497" unicode="&#64257;" /><glyph d="M100 685V0H114V685ZM388 356V370H102V356ZM468 671V685H102V671ZM570 690V0H584V690Z" glyph-name="fi.cap" horiz-adv-x="694" /><glyph d="M109 651H440V665H102V339H114C114 339 168 417 284 417C404 417 470 338 470 224C470 101 399 9 279 9C152 9 90 80 103 176H89C73 64 150 -5 279 -5C407 -5 484 91 484 224C484 348 413 431 284 431C160 431 107 351 107 351L116 344V658Z" glyph-name="five" horiz-adv-x="550" unicode="5" /><glyph d="M375 503V515H84V262H94C94 262 147 321 233 321C332 321 390 261 390 172C390 78 332 7 233 7C135 7 78 54 89 139H76C65 46 125 -5 233 -5C340 -5 402 70 402 172C402 267 340 333 233 333C141 333 86 270 86 270L96 266V509L90 503Z" glyph-name="five.small" horiz-adv-x="455" /><glyph d="M375 503V515H84V262H94C94 262 147 321 233 321C332 321 390 261 390 172C390 78 332 7 233 7C135 7 78 54 89 139H76C65 46 125 -5 233 -5C340 -5 402 70 402 172C402 267 340 333 233 333C141 333 86 270 86 270L96 266V509L90 503Z" glyph-name="five.small_tab" horiz-adv-x="455" /><glyph d="M109 651H440V665H102V339H114C114 339 168 417 284 417C404 417 470 338 470 224C470 101 399 9 279 9C152 9 90 80 103 176H89C73 64 150 -5 279 -5C407 -5 484 91 484 224C484 348 413 431 284 431C160 431 107 351 107 351L116 344V658Z" glyph-name="five.tab" horiz-adv-x="550" /><glyph d="M69 287H276V299H63V101H72C72 101 106 147 179 147C250 147 291 102 291 35C291 -38 249 -91 174 -91C96 -91 59 -52 67 6H55C45 -62 94 -103 174 -103C255 -103 303 -46 303 35C303 109 259 159 178 159C100 159 70 110 70 110L75 108V295Z" glyph-name="fiveinferior" horiz-adv-x="344" unicode="&#8325;" /><glyph d="M69 795H276V807H63V609H72C72 609 106 655 179 655C250 655 291 610 291 543C291 470 249 417 174 417C96 417 59 456 67 514H55C45 446 94 405 174 405C255 405 303 462 303 543C303 617 259 667 178 667C100 667 70 618 70 618L75 616V803Z" glyph-name="fivesuperior" horiz-adv-x="344" unicode="&#8309;" /><glyph d="M126 0H138V392C138 508 109 538 108 605C108 649 136 698 205 698C255 698 281 675 283 634H295C295 652 290 665 283 677C269 698 244 710 205 710C128 710 96 660 96 605C96 530 126 508 126 392ZM30 470V458H273V470H112ZM392 710V0H404V710Z" glyph-name="fl" horiz-adv-x="504" unicode="&#64258;" /><glyph d="M100 685V0H114V685ZM388 356V370H102V356ZM468 671V685H102V671ZM570 690V5H584V690ZM572 19V5H948V19Z" glyph-name="fl.cap" horiz-adv-x="958" /><glyph d="M419 408H174V394H419ZM293 481 226 76C211 -15 193 -106 106 -106C68 -106 42 -89 34 -83L26 -95C33 -102 62 -120 106 -120C199 -120 223 -28 240 74L307 479C322 571 340 661 427 661C464 661 487 645 495 638L504 649C497 656 469 675 427 675C334 675 310 583 293 481Z" glyph-name="florin" horiz-adv-x="550" unicode="&#402;" /><glyph d="M365 665V0H379V672H368L49 235V224H521V238H55L61 227L378 663Z" glyph-name="four" horiz-adv-x="550" unicode="4" /><glyph d="M303 0H315V520H304L21 182V172H428V184H26L31 174L314 512H303Z" glyph-name="four.small" horiz-adv-x="455" /><glyph d="M303 0H315V520H304L21 182V172H428V184H26L31 174L314 512H303Z" glyph-name="four.small_tab" horiz-adv-x="455" /><glyph d="M365 665V0H379V672H368L49 235V224H521V238H55L61 227L378 663Z" glyph-name="four.tab" horiz-adv-x="550" /><glyph d="M227 297V-100H239V303H229L30 42V33H327V45H39V35L237 294Z" glyph-name="fourinferior" horiz-adv-x="344" unicode="&#8324;" /><glyph d="M227 805V408H239V811H229L30 550V541H327V553H39V543L237 802Z" glyph-name="foursuperior" horiz-adv-x="344" unicode="&#8308;" /><glyph d="M364 665H379L44 0H28Z" glyph-name="fraction" horiz-adv-x="413" unicode="&#8260;" /><glyph d="M444 -99C444 -182 382 -250 240 -250C124 -250 35 -212 35 -116C35 -102 36 -93 38 -80H50C48 -91 47 -103 47 -114C47 -206 134 -238 240 -238C372 -238 432 -178 432 -99C432 -23 381 4 262 4H244C112 4 86 37 86 86C86 151 174 177 174 177L181 166C181 166 98 146 98 86C98 41 135 16 243 16H262C395 16 444 -19 444 -99ZM384 309V391C384 465 404 480 429 480C455 480 464 466 468 449C469 444 469 438 469 432H457C457 448 455 468 429 468C408 468 396 445 396 391V309ZM75 318C75 417 141 480 237 480C316 480 396 429 396 321C396 222 328 157 237 157C152 157 75 208 75 318ZM384 321C384 421 310 468 237 468C149 468 87 409 87 318C87 216 158 169 237 169C322 169 384 230 384 321Z" glyph-name="g" horiz-adv-x="484" unicode="g" /><glyph d="M285 348C285 296 246 259 155 259C77 259 22 284 22 341C22 349 23 355 25 363H37C35 356 34 348 34 342C34 292 87 271 155 271C237 271 273 302 273 348C273 390 242 407 168 407H160C73 407 57 428 57 458C57 501 115 515 115 515L122 507C122 507 69 494 69 459C69 432 89 419 160 419C160 419 169 419 169 419C252 419 285 397 285 348ZM244 600V638C244 680 258 695 276 695C292 695 299 686 301 677C302 673 302 668 302 664H291C291 674 288 684 276 684C264 684 255 670 255 637V600ZM47 598C47 657 89 695 152 695C203 695 255 664 255 600C255 541 211 501 152 501C96 501 47 532 47 598ZM243 599C243 657 197 683 152 683C97 683 59 650 59 598C59 537 102 513 152 513C204 513 243 545 243 599Z" glyph-name="g.superior" horiz-adv-x="310" /><glyph d="M444 -99C444 -182 382 -250 240 -250C124 -250 35 -212 35 -116C35 -102 36 -93 38 -80H50C48 -91 47 -103 47 -114C47 -206 134 -238 240 -238C372 -238 432 -178 432 -99C432 -23 381 4 262 4H244C112 4 86 37 86 86C86 151 174 177 174 177L181 166C181 166 98 146 98 86C98 41 135 16 243 16H262C395 16 444 -19 444 -99ZM384 309V391C384 465 404 480 429 480C455 480 464 466 468 449C469 444 469 438 469 432H457C457 448 455 468 429 468C408 468 396 445 396 391V309ZM75 318C75 417 141 480 237 480C316 480 396 429 396 321C396 222 328 157 237 157C152 157 75 208 75 318ZM384 321C384 421 310 468 237 468C149 468 87 409 87 318C87 216 158 169 237 169C322 169 384 230 384 321ZM240 594C350 594 369 694 369 726H357C357 696 340 606 240 606C140 606 123 696 123 726H111C111 694 130 594 240 594Z" glyph-name="gbreve" horiz-adv-x="484" unicode="&#287;" /><glyph d="M444 -99C444 -182 382 -250 240 -250C124 -250 35 -212 35 -116C35 -102 36 -93 38 -80H50C48 -91 47 -103 47 -114C47 -206 134 -238 240 -238C372 -238 432 -178 432 -99C432 -23 381 4 262 4H244C112 4 86 37 86 86C86 151 174 177 174 177L181 166C181 166 98 146 98 86C98 41 135 16 243 16H262C395 16 444 -19 444 -99ZM384 309V391C384 465 404 480 429 480C455 480 464 466 468 449C469 444 469 438 469 432H457C457 448 455 468 429 468C408 468 396 445 396 391V309ZM75 318C75 417 141 480 237 480C316 480 396 429 396 321C396 222 328 157 237 157C152 157 75 208 75 318ZM384 321C384 421 310 468 237 468C149 468 87 409 87 318C87 216 158 169 237 169C322 169 384 230 384 321ZM106 571 115 561 248 717 380 561 389 571 252 732H243Z" glyph-name="gcircumflex" horiz-adv-x="484" unicode="&#285;" /><glyph d="M444 -99C444 -182 382 -250 240 -250C124 -250 35 -212 35 -116C35 -102 36 -93 38 -80H50C48 -91 47 -103 47 -114C47 -206 134 -238 240 -238C372 -238 432 -178 432 -99C432 -23 381 4 262 4H244C112 4 86 37 86 86C86 151 174 177 174 177L181 166C181 166 98 146 98 86C98 41 135 16 243 16H262C395 16 444 -19 444 -99ZM384 309V391C384 465 404 480 429 480C455 480 464 466 468 449C469 444 469 438 469 432H457C457 448 455 468 429 468C408 468 396 445 396 391V309ZM75 318C75 417 141 480 237 480C316 480 396 429 396 321C396 222 328 157 237 157C152 157 75 208 75 318ZM384 321C384 421 310 468 237 468C149 468 87 409 87 318C87 216 158 169 237 169C322 169 384 230 384 321ZM233 569 244 564 306 712 295 717Z" glyph-name="gcommaaccent" horiz-adv-x="484" unicode="&#291;" /><glyph d="M444 -99C444 -182 382 -250 240 -250C124 -250 35 -212 35 -116C35 -102 36 -93 38 -80H50C48 -91 47 -103 47 -114C47 -206 134 -238 240 -238C372 -238 432 -178 432 -99C432 -23 381 4 262 4H244C112 4 86 37 86 86C86 151 174 177 174 177L181 166C181 166 98 146 98 86C98 41 135 16 243 16H262C395 16 444 -19 444 -99ZM384 309V391C384 465 404 480 429 480C455 480 464 466 468 449C469 444 469 438 469 432H457C457 448 455 468 429 468C408 468 396 445 396 391V309ZM75 318C75 417 141 480 237 480C316 480 396 429 396 321C396 222 328 157 237 157C152 157 75 208 75 318ZM384 321C384 421 310 468 237 468C149 468 87 409 87 318C87 216 158 169 237 169C322 169 384 230 384 321ZM240 643C251 643 258 652 258 662C258 671 251 680 240 680C228 680 221 671 221 662C221 652 228 643 240 643Z" glyph-name="gdotaccent" horiz-adv-x="484" unicode="&#289;" /><glyph d="M100 468V0H112V468C112 621 168 698 282 698C376 698 432 648 432 586C432 522 393 496 359 476C318 452 276 435 276 382C276 326 323 309 372 286C422 264 479 235 479 144C479 62 421 6 343 6C262 6 209 48 209 151H197C197 37 254 -6 343 -6C427 -6 491 54 491 144C491 241 430 274 378 296C333 317 288 330 288 382C288 431 328 444 365 466C403 488 444 516 444 586C444 654 387 710 282 710C162 710 100 633 100 468Z" glyph-name="germandbls" horiz-adv-x="541" unicode="&#223;" /><glyph d="M50 185C50 47 140 -5 261 -5C371 -5 473 49 473 176C473 271 424 333 281 368C153 398 92 440 92 531C92 638 166 681 262 681C357 681 436 634 436 549H450C450 640 367 695 262 695C156 695 78 646 78 531C78 434 139 386 277 354C410 321 459 265 459 176C459 57 363 9 261 9C150 9 64 59 64 185ZM578 185C578 47 668 -5 789 -5C899 -5 1001 49 1001 176C1001 271 952 333 809 368C681 398 620 440 620 531C620 638 694 681 790 681C885 681 964 634 964 549H978C978 640 895 695 790 695C684 695 606 646 606 531C606 434 667 386 805 354C938 321 987 265 987 176C987 57 891 9 789 9C678 9 592 59 592 185Z" glyph-name="germandbls.cap" horiz-adv-x="1056" /><glyph d="M224 7C119 7 52 55 52 141H40C40 49 109 -5 224 -5C324 -5 407 37 407 132C407 211 361 244 234 273C119 299 65 326 65 399C65 479 132 513 218 513C303 513 375 476 375 406H387C387 480 313 525 218 525C122 525 53 485 53 399C53 322 105 289 232 261C349 235 395 207 395 132C395 43 316 7 224 7ZM684 7C579 7 512 55 512 141H500C500 49 569 -5 684 -5C784 -5 867 37 867 132C867 211 821 244 694 273C579 299 525 326 525 399C525 479 592 513 678 513C763 513 835 476 835 406H847C847 480 773 525 678 525C582 525 513 485 513 399C513 322 565 289 692 261C809 235 855 207 855 132C855 43 776 7 684 7Z" glyph-name="germandbls.small" horiz-adv-x="912" /><glyph d="M177 722 314 561 323 571 186 732Z" glyph-name="grave" horiz-adv-x="500" unicode="`" /><glyph d="M162 813 331 730 337 742 168 825Z" glyph-name="grave.cap" horiz-adv-x="500" /><glyph d="M444 303 100 477 106 489 450 315V303L106 129L100 141L444 315Z" glyph-name="greater" horiz-adv-x="550" unicode="&gt;" /><glyph d="M444 333 100 507 106 519 450 345V333L106 159L100 171L444 345ZM80 14H470V0H80Z" glyph-name="greaterequal" horiz-adv-x="520" unicode="&#8805;" /><glyph d="M70 246 184 407 175 414 60 252V246L175 84L184 91L70 252ZM210 246 324 407 315 414 200 252V246L315 84L324 91L210 252Z" glyph-name="guillemotleft" horiz-adv-x="384" unicode="&#171;" /><glyph d="M70 346 184 507 175 514 60 352V346L175 184L184 191L70 352ZM210 346 324 507 315 514 200 352V346L315 184L324 191L210 352Z" glyph-name="guillemotleft.cap" horiz-adv-x="384" /><glyph d="M314 252 200 91 209 84 324 246V252L209 414L200 407L314 246ZM174 252 60 91 69 84 184 246V252L69 414L60 407L174 246Z" glyph-name="guillemotright" horiz-adv-x="384" unicode="&#187;" /><glyph d="M314 352 200 191 209 184 324 346V352L209 514L200 507L314 346ZM174 352 60 191 69 184 184 346V352L69 514L60 507L174 346Z" glyph-name="guillemotright.cap" horiz-adv-x="384" /><glyph d="M70 246 184 407 175 414 60 252V246L175 84L184 91L70 252Z" glyph-name="guilsinglleft" horiz-adv-x="244" unicode="&#8249;" /><glyph d="M70 346 184 507 175 514 60 352V346L175 184L184 191L70 352Z" glyph-name="guilsinglleft.cap" horiz-adv-x="244" /><glyph d="M174 252 60 91 69 84 184 246V252L69 414L60 407L174 246Z" glyph-name="guilsinglright" horiz-adv-x="244" unicode="&#8250;" /><glyph d="M174 352 60 191 69 184 184 346V352L69 514L60 507L174 346Z" glyph-name="guilsinglright.cap" horiz-adv-x="244" /><glyph d="M423 0V290C423 405 388 480 273 480C157 480 99 380 99 259H107C112 369 162 468 271 468C383 468 411 395 411 288V0ZM95 710V0H107V354V421V710Z" glyph-name="h" horiz-adv-x="508" unicode="h" /><glyph d="M273 408V581C273 651 249 695 176 695C100 695 65 636 65 559H72C72 628 107 683 175 683C242 683 261 643 261 580V408ZM60 832V408H72V617V657V832Z" glyph-name="h.superior" horiz-adv-x="326" /><glyph d="M25 603V591H261V603ZM423 0V290C423 405 388 480 273 480C157 480 99 380 99 259H107C112 369 162 468 271 468C383 468 411 395 411 288V0ZM95 710V0H107V354V421V710Z" glyph-name="hbar" horiz-adv-x="508" unicode="&#295;" /><glyph d="M98 810 190 732 199 742 100 825H96L-3 742L6 732ZM423 0V290C423 405 388 480 273 480C157 480 99 380 99 259H107C112 369 162 468 271 468C383 468 411 395 411 288V0ZM95 710V0H107V354V421V710Z" glyph-name="hcircumflex" horiz-adv-x="508" unicode="&#293;" /><glyph d="M139 572 150 567 221 729 210 734ZM279 572 290 567 361 729 350 734Z" glyph-name="hungarumlaut" horiz-adv-x="500" unicode="&#733;" /><glyph d="M141 727 149 715 248 782 240 794ZM251 727 259 715 358 782 350 794Z" glyph-name="hungarumlaut.cap" horiz-adv-x="500" /><glyph d="M60 308V296H277V308Z" glyph-name="hyphen" horiz-adv-x="337" unicode="-" /><glyph d="M60 408V396H277V408Z" glyph-name="hyphen.cap" horiz-adv-x="337" /><glyph d="M102 470V0H114V470ZM109 643C120 643 127 652 127 662C127 671 120 680 109 680C97 680 90 671 90 662C90 652 97 643 109 643Z" glyph-name="i" horiz-adv-x="217" unicode="i" /><glyph d="M102 470V0H114V470ZM109 643C120 643 127 652 127 662C127 671 120 680 109 680C97 680 90 671 90 662C90 652 97 643 109 643Z" glyph-name="i.TRK" horiz-adv-x="217" /><glyph d="M64 689V408H76V689ZM71 791C78 791 84 796 84 803C84 810 78 816 71 816C64 816 58 810 58 803C58 796 64 791 71 791Z" glyph-name="i.superior" horiz-adv-x="141" unicode="&#8305;" /><glyph d="M102 470V0H114V470ZM45 571 54 561 191 722 182 732Z" glyph-name="iacute" horiz-adv-x="217" unicode="&#237;" /><glyph d="M102 470V0H114V470ZM109 594C219 594 238 694 238 726H226C226 696 209 606 109 606C9 606 -8 696 -8 726H-20C-20 694 -1 594 109 594Z" glyph-name="ibreve" horiz-adv-x="217" unicode="&#301;" /><glyph d="M102 470V0H114V470ZM-33 571 -24 561 109 717 241 561 250 571 113 732H104Z" glyph-name="icircumflex" horiz-adv-x="217" unicode="&#238;" /><glyph d="M102 470V0H114V470ZM10 662C10 652 17 643 29 643C40 643 47 652 47 662C47 671 40 680 29 680C17 680 10 671 10 662ZM170 662C170 652 177 643 189 643C200 643 207 652 207 662C207 671 200 680 189 680C177 680 170 671 170 662Z" glyph-name="idieresis" horiz-adv-x="217" unicode="&#239;" /><glyph d="M102 470V0H114V470ZM19 722 156 561 165 571 28 732Z" glyph-name="igrave" horiz-adv-x="217" unicode="&#236;" /><glyph d="M102 470V0H114V470ZM109 643C120 643 127 652 127 662C127 671 120 680 109 680C97 680 90 671 90 662C90 652 97 643 109 643ZM211 -174C211 -226 233 -250 281 -250C337 -250 360 -205 360 -98C360 -46 360 6 360 68V470H348V68C348 -5 348 -31 348 -95C348 -191 331 -238 282 -238C240 -238 223 -216 223 -174ZM355 643C366 643 373 652 373 662C373 671 366 680 355 680C343 680 336 671 336 662C336 652 343 643 355 643Z" glyph-name="ij" horiz-adv-x="463" unicode="&#307;" /><glyph d="M102 470V0H114V470ZM-9 685V673H227V685Z" glyph-name="imacron" horiz-adv-x="217" unicode="&#299;" /><glyph d="M136 207C61 207 42 267 42 309C42 351 61 410 136 410C194 410 231 361 266 309C231 258 194 207 136 207ZM412 195C499 195 522 261 522 309C522 357 499 423 412 423C352 423 312 375 275 322C237 375 196 424 136 424C51 424 28 357 28 309C28 261 51 193 136 193C196 193 237 243 275 297C312 244 352 195 412 195ZM412 209C355 209 318 258 284 309C316 358 353 409 412 409C489 409 508 351 508 309C508 267 489 209 412 209Z" glyph-name="infinity" horiz-adv-x="550" unicode="&#8734;" /><glyph d="M223 732C246 732 262 723 274 712L284 724C270 737 249 746 223 746C156 746 116 711 116 591C116 581 116 563 116 552L131 47C131 36 131 23 131 13C131 -101 109 -140 41 -140C20 -140 2 -131 -11 -120L-20 -131C-6 -145 16 -154 41 -154C114 -154 146 -120 146 17C146 25 146 36 146 45L133 545C133 556 133 569 133 579C133 689 155 732 223 732Z" glyph-name="integral" horiz-adv-x="264" unicode="&#8747;" /><glyph d="M64 -109C64 -163 87 -185 127 -185C167 -185 185 -156 185 -115H173C173 -148 159 -173 127 -173C93 -173 76 -153 76 -109C76 -73 93 -35 114 0L105 5C81 -33 64 -74 64 -109ZM102 470V0H114V470ZM109 643C120 643 127 652 127 662C127 671 120 680 109 680C97 680 90 671 90 662C90 652 97 643 109 643Z" glyph-name="iogonek" horiz-adv-x="217" unicode="&#303;" /><glyph d="M102 470V0H114V470ZM-9 590 3 594C-13.1032 642.3096 -5 690 46 690C120 690 100 592 171 592C230 592 245.3003 646.0991 226 704L214 700C230.1032 651.6904 222 604 171 604C111 604 129 702 46 702C-13 702 -28.3003 647.9009 -9 590Z" glyph-name="itilde" horiz-adv-x="217" unicode="&#297;" /><glyph d="M-10 -174C-10 -226 12 -250 60 -250C116 -250 139 -205 139 -98C139 -46 139 6 139 68V470H127V68C127 -5 127 -31 127 -95C127 -191 110 -238 61 -238C19 -238 2 -216 2 -174ZM134 643C145 643 152 652 152 662C152 671 145 680 134 680C122 680 115 671 115 662C115 652 122 643 134 643Z" glyph-name="j" horiz-adv-x="242" unicode="j" /><glyph d="M-11 311C-11 275 5 259 38 259C77 259 92 287 92 353V453V689H80V453V353C80 296 71 271 39 271C12 271 2 283 2 311ZM86 791C93 791 99 796 99 803C99 810 93 816 86 816C79 816 73 810 73 803C73 796 79 791 86 791Z" glyph-name="j.superior" horiz-adv-x="156" /><glyph d="M-10 -174C-10 -226 12 -250 60 -250C116 -250 139 -205 139 -98C139 -46 139 6 139 68V470H127V68C127 -5 127 -31 127 -95C127 -191 110 -238 61 -238C19 -238 2 -216 2 -174ZM-10 571 -1 561 132 717 264 561 273 571 136 732H127Z" glyph-name="jcircumflex" horiz-adv-x="242" unicode="&#309;" /><glyph d="M95 710V0H107V710ZM101 237 104 223 384 470H367ZM177 296 403 0H419L187 304Z" glyph-name="k" horiz-adv-x="439" unicode="k" /><glyph d="M59 832V408H71V832ZM67 552V538L251 689H233ZM115 584 256 408H272L124 592Z" glyph-name="k.superior" horiz-adv-x="284" /><glyph d="M95 710V0H107V710ZM101 237 104 223 384 470H367ZM177 296 403 0H419L187 304ZM182 -201 193 -206 255 -58 244 -53Z" glyph-name="kcommaaccent" horiz-adv-x="439" unicode="&#311;" /><glyph d="M100 710V0H112V710Z" glyph-name="l" horiz-adv-x="212" unicode="l" /><glyph d="M62 832V408H74V832Z" glyph-name="l.superior" horiz-adv-x="136" /><glyph d="M100 710V0H112V710ZM24 742 30 730 199 813 193 825Z" glyph-name="lacute" horiz-adv-x="212" unicode="&#314;" /><glyph d="M100 710V0H112V710ZM186 532 197 527 272 705 261 710Z" glyph-name="lcaron" horiz-adv-x="232" unicode="&#318;" /><glyph d="M100 710V0H112V710ZM39 -201 50 -206 112 -58 101 -53Z" glyph-name="lcommaaccent" horiz-adv-x="212" unicode="&#316;" /><glyph d="M212 351C223 351 230 360 230 370C230 379 223 388 212 388C200 388 193 379 193 370C193 360 200 351 212 351ZM100 710V0H112V710Z" glyph-name="ldot" horiz-adv-x="212" unicode="&#320;" /><glyph d="M106 303 450 477 444 489 100 315V303L444 129L450 141L106 315Z" glyph-name="less" horiz-adv-x="550" unicode="&lt;" /><glyph d="M106 333 450 507 444 519 100 345V333L444 159L450 171L106 345ZM470 14H80V0H470Z" glyph-name="lessequal" horiz-adv-x="550" unicode="&#8804;" /><glyph d="M157 514V184C157 71 171 9 252 9C298 9 330 34 355 59L365 49C338 22 302 -5 252 -5C165 -5 143 55 143 184V514C143 663 206 695 260 695C316 695 364 653 364 558C364 409 290 311 36 184L30 196C281 320 350 422 350 559C350 642 310 681 260 681C210 681 157 645 157 514Z" glyph-name="litre" horiz-adv-x="415" unicode="&#8467;" /><glyph d="M470 188V418H456V188ZM470 420H80V406H470Z" glyph-name="logicalnot" horiz-adv-x="550" unicode="&#172;" /><glyph d="M488 342 281 675H269L62 342V334L269 -1H281L488 334ZM275 17 76 338 275 657 474 338Z" glyph-name="lozenge" horiz-adv-x="550" unicode="&#9674;" /><glyph d="M42 273 179 434 170 444 33 283ZM100 710V0H112V710Z" glyph-name="lslash" horiz-adv-x="212" unicode="&#322;" /><glyph d="M408 0V290C408 405 378 480 261 480C144 480 94 380 94 259H102C102 368 150 468 259 468C371 468 396 395 396 288V0ZM714 0V290C714 405 684 480 567 480C453 480 400 376 400 249H408C408 345 453 468 565 468C677 468 702 395 702 288V0ZM90 470V0H102V332V354V470Z" glyph-name="m" horiz-adv-x="799" unicode="m" /><glyph d="M264 408V581C264 650 242 695 170 695C97 695 62 636 62 559H69C69 628 104 683 168 683C234 683 252 643 252 579V408ZM459 408V581C459 651 436 695 364 695C291 695 257 636 257 559H264C264 628 298 683 363 683C429 683 447 643 447 578V408ZM57 689V408H69V601V618V689Z" glyph-name="m.superior" horiz-adv-x="512" /><glyph d="M132 685V673H368V685Z" glyph-name="macron" horiz-adv-x="500" unicode="&#175;" /><glyph d="M132 791V779H368V791Z" glyph-name="macron.cap" horiz-adv-x="500" /><glyph d="M470 316H80V302H470Z" glyph-name="minus" horiz-adv-x="550" unicode="&#8722;" /><glyph d="M414 216H406C406 105 357 7 248 7C136 7 102 80 102 187V470H93V185C93 70 129 -5 246 -5C364 -5 414 91 414 216ZM102 -249V470H90V-249ZM467 -5C506 -5 519 24 519 49H507C507 26 494 6 468 6C423 6 418 43 418 90V470H406V170.4803V85C406 28 417 -5 467 -5Z" glyph-name="mu" horiz-adv-x="529" unicode="&#181;" /><glyph d="M418 177 142 453 132 443 408 167ZM132 177 142 167 418 443 408 453Z" glyph-name="multiply" horiz-adv-x="550" unicode="&#215;" /><glyph d="M418 0V290C418 405 385 480 268 480C150 480 94 384 94 259H102C102 370 157 468 266 468C378 468 406 395 406 288V0ZM90 470V0H102V332V354V470Z" glyph-name="n" horiz-adv-x="503" unicode="n" /><glyph d="M270 408V581C270 651 246 695 172 695C96 695 61 636 61 559H68C68 628 103 683 171 683C239 683 258 643 258 580V408ZM56 689V408H68V593V621V689Z" glyph-name="n.superior" horiz-adv-x="323" unicode="&#8319;" /><glyph d="M418 0V290C418 405 385 480 268 480C150 480 94 384 94 259H102C102 370 157 468 266 468C378 468 406 395 406 288V0ZM90 470V0H102V332V354V470ZM208 571 217 561 354 722 345 732Z" glyph-name="nacute" horiz-adv-x="503" unicode="&#324;" /><glyph d="M418 0V290C418 405 385 480 268 480C150 480 94 384 94 259H102C102 370 157 468 266 468C378 468 406 395 406 288V0ZM90 470V0H102V332V354V470ZM127 722 264 561H273L410 722L401 732L268 576L136 732Z" glyph-name="ncaron" horiz-adv-x="503" unicode="&#328;" /><glyph d="M418 0V290C418 405 385 480 268 480C150 480 94 384 94 259H102C102 370 157 468 266 468C378 468 406 395 406 288V0ZM90 470V0H102V332V354V470ZM202 -201 213 -206 275 -58 264 -53Z" glyph-name="ncommaaccent" horiz-adv-x="503" unicode="&#326;" /><glyph d="M265 274C177 274 89 327 89 465C89 590 172 661 274 661C395 661 460 577 460 472C460 368 399 274 265 274ZM267 -5C433 -5 496 141 496 348C496 568 425 675 274 675C164 675 75 600 75 465C75 317 167 260 264 260C388 260 488 337 471 504L466 501C476 439 481 409 481 348C481 153 424 9 267 9C119 9 102 111 102 155H87C87 105 105 -5 267 -5Z" glyph-name="nine" horiz-adv-x="550" unicode="9" /><glyph d="M213 212C134 212 66 251 66 360C66 456 137 513 222 513C318 513 373 455 373 373C373 293 328 212 213 212ZM214 -5C350 -5 405 109 405 269C405 442 344 525 222 525C131 525 54 464 54 360C54 245 124 200 213 200C311 200 392 260 384 391L379 389C391 348 393 300 393 269C393 119 344 7 214 7C92 7 77 88 77 116H65C65 86 78 -5 214 -5Z" glyph-name="nine.small" horiz-adv-x="455" /><glyph d="M213 212C134 212 66 251 66 360C66 456 137 513 222 513C318 513 373 455 373 373C373 293 328 212 213 212ZM214 -5C350 -5 405 109 405 269C405 442 344 525 222 525C131 525 54 464 54 360C54 245 124 200 213 200C311 200 392 260 384 391L379 389C391 348 393 300 393 269C393 119 344 7 214 7C92 7 77 88 77 116H65C65 86 78 -5 214 -5Z" glyph-name="nine.small_tab" horiz-adv-x="455" /><glyph d="M265 274C177 274 89 327 89 465C89 590 172 661 274 661C395 661 460 577 460 472C460 368 399 274 265 274ZM267 -5C433 -5 496 141 496 348C496 568 425 675 274 675C164 675 75 600 75 465C75 317 167 260 264 260C388 260 488 337 471 504L466 501C476 439 481 409 481 348C481 153 424 9 267 9C119 9 102 111 102 155H87C87 105 105 -5 267 -5Z" glyph-name="nine.tab" horiz-adv-x="550" /><glyph d="M165 68C110 68 57 98 57 179C57 252 108 293 171 293C245 293 285 245 285 183C285 121 249 68 165 68ZM167 -103C271 -103 311 -15 311 109C311 240 266 305 171 305C102 305 45 260 45 179C45 90 103 56 164 56C243 56 305 102 294 201L290 199C296 163 299 144 299 108C299 -8 262 -91 166 -91C75 -91 66 -33 66 -6H54C54 -38 65 -103 167 -103Z" glyph-name="nineinferior" horiz-adv-x="344" unicode="&#8329;" /><glyph d="M165 576C110 576 57 606 57 687C57 760 108 801 171 801C245 801 285 753 285 691C285 629 249 576 165 576ZM167 405C271 405 311 493 311 617C311 748 266 813 171 813C102 813 45 768 45 687C45 598 103 564 164 564C243 564 305 610 294 709L290 707C296 671 299 652 299 616C299 500 262 417 166 417C75 417 66 475 66 502H54C54 470 65 405 167 405Z" glyph-name="ninesuperior" horiz-adv-x="344" unicode="&#8313;" /><glyph d="M360 516 168 107 180 101 372 510ZM470 212H80V198H470ZM470 420H80V406H470Z" glyph-name="notequal" horiz-adv-x="550" unicode="&#8800;" /><glyph d="M418 0V290C418 405 385 480 268 480C150 480 94 384 94 259H102C102 370 157 468 266 468C378 468 406 395 406 288V0ZM90 470V0H102V332V354V470ZM119 590 131 594C114.8968 642.3096 123 690 174 690C248 690 228 592 299 592C358 592 373.3003 646.0991 354 704L342 700C358.1032 651.6904 350 604 299 604C239 604 257 702 174 702C115 702 99.6997 647.9009 119 590Z" glyph-name="ntilde" horiz-adv-x="503" unicode="&#241;" /><glyph d="M127 0H112L210 665H225ZM530 463V449H55V463ZM337 0H322L421 665H436ZM495 231V217H20V231Z" glyph-name="numbersign" horiz-adv-x="550" unicode="#" /><glyph d="M101 684 549 -5H564V690H550V-2L563 -1L114 690H100V0H114V689ZM700.874 271V259H960.8183V271ZM831 404C753 404 690 463 690 547C690 630 753 690 831 690C909 690 972 630 972 547C972 463 909 404 831 404ZM831 418C901 418 958 471 958 547C958 622 901 676 831 676C761 676 704 622 704 547C704 471 761 418 831 418Z" glyph-name="numero" horiz-adv-x="1022" unicode="&#8470;" /><glyph d="M55 238C55 79 134 -5 244 -5C354 -5 433 79 433 238C433 397 354 480 244 480C134 480 55 397 55 238ZM421 238C421 89 348 7 244 7C140 7 67 89 67 238C67 387 140 468 244 468C348 468 421 387 421 238Z" glyph-name="o" horiz-adv-x="488" unicode="o" /><glyph d="M34 550C34 455 84 405 157 405C228 405 279 455 279 550C279 645 228 695 157 695C83 695 34 645 34 550ZM267 550C267 464 222 417 156 417C91 417 46 464 46 550C46 637 92 683 156 683C221 683 267 637 267 550Z" glyph-name="o.superior" horiz-adv-x="313" /><glyph d="M55 238C55 79 134 -5 244 -5C354 -5 433 79 433 238C433 397 354 480 244 480C134 480 55 397 55 238ZM421 238C421 89 348 7 244 7C140 7 67 89 67 238C67 387 140 468 244 468C348 468 421 387 421 238ZM197 571 206 561 343 722 334 732Z" glyph-name="oacute" horiz-adv-x="488" unicode="&#243;" /><glyph d="M55 238C55 79 134 -5 244 -5C354 -5 433 79 433 238C433 397 354 480 244 480C134 480 55 397 55 238ZM421 238C421 89 348 7 244 7C140 7 67 89 67 238C67 387 140 468 244 468C348 468 421 387 421 238ZM244 594C354 594 373 694 373 726H361C361 696 344 606 244 606C144 606 127 696 127 726H115C115 694 134 594 244 594Z" glyph-name="obreve" horiz-adv-x="488" unicode="&#335;" /><glyph d="M55 238C55 79 134 -5 244 -5C354 -5 433 79 433 238C433 397 354 480 244 480C134 480 55 397 55 238ZM421 238C421 89 348 7 244 7C140 7 67 89 67 238C67 387 140 468 244 468C348 468 421 387 421 238ZM102 571 111 561 244 717 376 561 385 571 248 732H239Z" glyph-name="ocircumflex" horiz-adv-x="488" unicode="&#244;" /><glyph d="M55 238C55 79 134 -5 244 -5C354 -5 433 79 433 238C433 397 354 480 244 480C134 480 55 397 55 238ZM421 238C421 89 348 7 244 7C140 7 67 89 67 238C67 387 140 468 244 468C348 468 421 387 421 238ZM146 662C146 652 153 643 165 643C176 643 183 652 183 662C183 671 176 680 165 680C153 680 146 671 146 662ZM306 662C306 652 313 643 325 643C336 643 343 652 343 662C343 671 336 680 325 680C313 680 306 671 306 662Z" glyph-name="odieresis" horiz-adv-x="488" unicode="&#246;" /><glyph d="M421 238C421 89 348 7 244 7C140 7 67 89 67 238C67 387 140 468 244 468C348 468 421 387 421 238ZM55 238C55 79 134 -5 244 -5C354 -5 433 79 433 238C433 397 354 480 244 480C134 480 55 397 55 238ZM421 227C421 67 505 -5 611 -5C717 -5 781 59 781 156H769C769 70 712 7 611 7C512 7 433 77 433 227C433 230 433 233 433 237C436 370 504 468 613 468C730 468 746 380 746 336C746 321 745 314 745 312H437L433 300H754C755 305 758 320 758 339C758 392 737 480 613 480C495 480 421 375 421 227Z" glyph-name="oe" horiz-adv-x="836" unicode="&#339;" /><glyph d="M294 -109C294 -163 317 -185 357 -185C397 -185 415 -156 415 -115H403C403 -148 389 -173 357 -173C323 -173 306 -153 306 -109C306 -50 351 17 389 60L380 67C334 15 294 -54 294 -109Z" glyph-name="ogonek" horiz-adv-x="500" unicode="&#731;" /><glyph d="M55 238C55 79 134 -5 244 -5C354 -5 433 79 433 238C433 397 354 480 244 480C134 480 55 397 55 238ZM421 238C421 89 348 7 244 7C140 7 67 89 67 238C67 387 140 468 244 468C348 468 421 387 421 238ZM148 722 285 561 294 571 157 732Z" glyph-name="ograve" horiz-adv-x="488" unicode="&#242;" /><glyph d="M55 238C55 79 134 -5 244 -5C354 -5 433 79 433 238C433 397 354 480 244 480C134 480 55 397 55 238ZM421 238C421 89 348 7 244 7C140 7 67 89 67 238C67 387 140 468 244 468C348 468 421 387 421 238ZM162 572 173 567 244 729 233 734ZM302 572 313 567 384 729 373 734Z" glyph-name="ohungarumlaut" horiz-adv-x="488" unicode="&#337;" /><glyph d="M55 238C55 79 134 -5 244 -5C354 -5 433 79 433 238C433 397 354 480 244 480C134 480 55 397 55 238ZM421 238C421 89 348 7 244 7C140 7 67 89 67 238C67 387 140 468 244 468C348 468 421 387 421 238ZM126 685V673H362V685Z" glyph-name="omacron" horiz-adv-x="488" unicode="&#333;" /><glyph d="M260 672 45 511 54 500 268 660 257 667V0H271V672Z" glyph-name="one" horiz-adv-x="371" unicode="1" /><glyph d="M42 397 49 386 222 508 213 515V0H225V520H216Z" glyph-name="one.small" horiz-adv-x="310" /><glyph d="M64 480 67 468 263 509 253 515V6H265V520H256ZM93 5H394V17H93Z" glyph-name="one.small_tab" horiz-adv-x="455" /><glyph d="M342 672 117 632 120 619 346 659 339 667V5H353V672ZM139 5H511V19H139Z" glyph-name="one.tab" horiz-adv-x="550" /><glyph d="M28 594 122 665H130V365H118V660L129 656L35 585ZM444 188C422 244 456 300 523 300C579 300 607 266 607 216C607 146 548 99 442 2L438 12H614V0H434V10C534 99 595 152 595 216C595 258 571 288 523 288C461 288 437 235 457 188ZM469 665H484L149 0H133Z" glyph-name="onehalf" horiz-adv-x="651" unicode="&#189;" /><glyph d="M162 303 28 207 35 197 169 293 159 298V-100H171V303Z" glyph-name="oneinferior" horiz-adv-x="233" unicode="&#8321;" /><glyph d="M28 594 122 665H130V365H118V660L129 656L35 585ZM521 0V292L533 291L396 104V110H593V98H385V108L525 300H533V0ZM469 665H484L149 0H133Z" glyph-name="onequarter" horiz-adv-x="610" unicode="&#188;" /><glyph d="M162 811 28 715 35 705 169 801 159 806V408H171V811Z" glyph-name="onesuperior" horiz-adv-x="233" unicode="&#185;" /><glyph d="M260 405C283 405 296 420 296 446H284C284 426 275 417 260 417C236 417 230 436 230 473V603C230 652 214 695 138 695C55 695 44 645 44 602H56C56 642 67 683 138 683C204 683 218 646 218 603V543C205 548 182 553 150 553C62 553 35 513 35 473C35 430 67 405 117 405C177 405 205 442 218 477C218 422 230 405 260 405ZM117 417C75 417 47 436 47 473C47 511 76 542 150 542C181 542 205 535 218 531V526C218 497 199 417 117 417Z" glyph-name="ordfeminine" horiz-adv-x="311" unicode="&#170;" /><glyph d="M149 417C214 417 261 463 261 553C261 648 198 683 150 683C83 683 37 637 37 549C37 451 101 417 149 417ZM149 405C97 405 25 441 25 549C25 647 77 695 150 695C202 695 273 658 273 553C273 453 220 405 149 405Z" glyph-name="ordmasculine" horiz-adv-x="298" unicode="&#186;" /><glyph d="M417 470 55 0H71L433 470ZM55 238C55 79 134 -5 244 -5C354 -5 433 79 433 238C433 397 354 480 244 480C134 480 55 397 55 238ZM421 238C421 89 348 7 244 7C140 7 67 89 67 238C67 387 140 468 244 468C348 468 421 387 421 238Z" glyph-name="oslash" horiz-adv-x="488" unicode="&#248;" /><glyph d="M417 470 55 0H71L433 470ZM55 238C55 79 134 -5 244 -5C354 -5 433 79 433 238C433 397 354 480 244 480C134 480 55 397 55 238ZM421 238C421 89 348 7 244 7C140 7 67 89 67 238C67 387 140 468 244 468C348 468 421 387 421 238ZM187 571 196 561 333 722 324 732Z" glyph-name="oslashacute" horiz-adv-x="488" unicode="&#511;" /><glyph d="M55 238C55 79 134 -5 244 -5C354 -5 433 79 433 238C433 397 354 480 244 480C134 480 55 397 55 238ZM421 238C421 89 348 7 244 7C140 7 67 89 67 238C67 387 140 468 244 468C348 468 421 387 421 238ZM115 590 127 594C110.8968 642.3096 119 690 170 690C244 690 224 592 295 592C354 592 369.3003 646.0991 350 704L338 700C354.1032 651.6904 346 604 295 604C235 604 253 702 170 702C111 702 95.6997 647.9009 115 590Z" glyph-name="otilde" horiz-adv-x="488" unicode="&#245;" /><glyph d="M93 233C93 60 200 -5 277 -5C387 -5 466 80 466 239C466 415 360 480 277 480C166 480 93 395 93 233ZM454 239C454 90 381 7 277 7C204 7 102 72 102 233C102 385 173 468 277 468C356 468 454 403 454 239ZM90 470V-240H102V302V341V470Z" glyph-name="p" horiz-adv-x="521" unicode="p" /><glyph d="M60 548C60 444 124 405 179 405C249 405 300 456 300 551C300 656 233 695 178 695C104 695 60 644 60 548ZM288 551C288 464 245 417 178 417C131 417 68 454 68 547C68 639 115 683 178 683C229 683 288 647 288 551ZM56 689V265H68V588V611V689Z" glyph-name="p.superior" horiz-adv-x="334" /><glyph d="M429 -113V690H415V-113ZM290 -113V690H276C165 690 72 628 72 516C72 399 154 342 276 342V-113ZM284 677H494V690H284Z" glyph-name="paragraph" horiz-adv-x="500" unicode="&#182;" /><glyph d="M62 270C62 540 195 701 198 706L189 713C184 708 49 544 49 270C49 -5 185 -169 189 -173L198 -166C195 -161 62 -1 62 270Z" glyph-name="parenleft" horiz-adv-x="248" unicode="(" /><glyph d="M62 320C62 590 195 751 198 756L189 763C184 758 49 594 49 320C49 45 185 -119 189 -123L198 -116C195 -111 62 49 62 320Z" glyph-name="parenleft.cap" horiz-adv-x="248" /><glyph d="M63 256C63 476 157 606 165 618L156 625C145 611 50 480 50 256C50 32 141 -94 156 -113L165 -106C151 -85 63 41 63 256Z" glyph-name="parenleft.small" horiz-adv-x="215" /><glyph d="M186 270C186 0 53 -161 50 -166L59 -173C64 -168 199 -4 199 270C199 545 63 709 59 713L50 706C53 701 186 541 186 270Z" glyph-name="parenright" horiz-adv-x="248" unicode=")" /><glyph d="M186 320C186 50 53 -111 50 -116L59 -123C64 -118 199 46 199 320C199 595 63 759 59 763L50 756C53 751 186 591 186 320Z" glyph-name="parenright.cap" horiz-adv-x="248" /><glyph d="M152 256C152 36 58 -94 50 -106L59 -113C70 -99 165 32 165 256C165 480 74 606 59 625L50 618C64 597 152 471 152 256Z" glyph-name="parenright.small" horiz-adv-x="215" /><glyph d="M262 695C201 695 159 678 130 658L138 646C166 665 208 681 262 681C348 681 458 609 458 395C458 147 361 9 227 9C114 9 67 109 67 214C67 321 124 448 264 448C397 448 446 333 455 306L462 317C458 336 410 462 264 462C116 462 53 329 53 214C53 101 106 -5 227 -5C365 -5 472 135 472 395C472 625 352 695 262 695Z" glyph-name="partialdiff" horiz-adv-x="525" unicode="&#8706;" /><glyph d="M116 470C63 470 20 513 20 565C20 618 63 660 116 660C168 660 211 618 211 565C211 513 168 470 116 470ZM116 484C160 484 197 521 197 565C197 610 160 646 116 646C71 646 34 610 34 565C34 521 71 484 116 484ZM435 -5C382 -5 339 38 339 90C339 143 382 185 435 185C487 185 530 143 530 90C530 38 487 -5 435 -5ZM435 9C479 9 516 46 516 90C516 135 479 171 435 171C390 171 353 135 353 90C353 46 390 9 435 9ZM435 665H450L115 0H99Z" glyph-name="percent" horiz-adv-x="550" unicode="%" /><glyph d="M80 14C80 4 87 -5 99 -5C110 -5 117 4 117 14C117 23 110 32 99 32C87 32 80 23 80 14Z" glyph-name="period" horiz-adv-x="197" unicode="." /><glyph d="M80 358C80 348 87 339 99 339C110 339 117 348 117 358C117 367 110 376 99 376C87 376 80 367 80 358Z" glyph-name="periodcentered" horiz-adv-x="197" unicode="&#183;" /><glyph d="M80 408C80 398 87 389 99 389C110 389 117 398 117 408C117 417 110 426 99 426C87 426 80 417 80 408Z" glyph-name="periodcentered.cap" horiz-adv-x="197" /><glyph d="M116 470C63 470 20 513 20 565C20 618 63 660 116 660C168 660 211 618 211 565C211 513 168 470 116 470ZM116 484C160 484 197 521 197 565C197 610 160 646 116 646C71 646 34 610 34 565C34 521 71 484 116 484ZM435 -5C382 -5 339 38 339 90C339 143 382 185 435 185C487 185 530 143 530 90C530 38 487 -5 435 -5ZM435 9C479 9 516 46 516 90C516 135 479 171 435 171C390 171 353 135 353 90C353 46 390 9 435 9ZM685 -5C632 -5 589 38 589 90C589 143 632 185 685 185C737 185 780 143 780 90C780 38 737 -5 685 -5ZM685 9C729 9 766 46 766 90C766 135 729 171 685 171C640 171 603 135 603 90C603 46 640 9 685 9ZM435 665H450L115 0H99Z" glyph-name="perthousand" horiz-adv-x="800" unicode="&#8240;" /><glyph d="M404 100C404 45 413 -5 480 -5C519 -5 547 14 547 66H535C535 24 515 7 480 7C421 7 416 56 416 100V465H404ZM150 465V176.6492V0H162V179.3889V465ZM10 470V458H553V470Z" glyph-name="pi" horiz-adv-x="593" unicode="&#960;" /><glyph d="M282 104V514H268V104ZM470 316H80V302H470Z" glyph-name="plus" horiz-adv-x="550" unicode="+" /><glyph d="M470 326H80V312H470ZM282 124V514H268V124ZM470 14H80V0H470Z" glyph-name="plusminus" horiz-adv-x="550" unicode="&#177;" /><glyph d="M100 690V-130H114V683L107 676H558L551 683V-130H565V690Z" glyph-name="product" horiz-adv-x="665" unicode="&#8719;" /><glyph d="M55 236C55 60 161 -5 244 -5C355 -5 428 80 428 242C428 415 321 480 244 480C134 480 55 395 55 236ZM419 242C419 90 348 7 244 7C165 7 67 72 67 236C67 385 140 468 244 468C317 468 419 403 419 242ZM419 303V-240H431V470H419V342Z" glyph-name="q" horiz-adv-x="521" unicode="q" /><glyph d="M34 549C34 444 101 405 156 405C230 405 274 456 274 552C274 656 210 695 155 695C85 695 34 644 34 549ZM266 553C266 461 219 417 156 417C105 417 46 453 46 549C46 636 89 683 156 683C203 683 266 646 266 553ZM266 590V265H278V689H266V613Z" glyph-name="q.superior" horiz-adv-x="334" /><glyph d="M179 290C257 291 406 316 406 497C406 615 342 695 214 695C114 695 50 637 50 546H64C64 629 124 681 214 681C334 681 392 605 392 497C392 322 244 304 165 304V177H179ZM152 14C152 4 159 -5 171 -5C182 -5 189 4 189 14C189 23 182 32 171 32C159 32 152 23 152 14Z" glyph-name="question" horiz-adv-x="456" unicode="?" /><glyph d="M144 157V249C204 250 309 273 309 390C309 475 266 525 176 525C94 525 50 483 50 418H63C65 477 103 513 175 513C260 513 297 464 297 390C297 277 191 261 132 261V157ZM121 14C121 4 128 -5 140 -5C151 -5 158 4 158 14C158 23 151 32 140 32C128 32 121 23 121 14Z" glyph-name="question.small" horiz-adv-x="359" /><glyph d="M277 185C199 184 50 159 50 -22C50 -140 114 -220 242 -220C342 -220 406 -162 406 -71H392C392 -154 332 -206 242 -206C122 -206 64 -130 64 -22C64 153 212 171 291 171V298H277ZM304 461C304 471 297 480 285 480C274 480 267 471 267 461C267 452 274 443 285 443C297 443 304 452 304 461Z" glyph-name="questiondown" horiz-adv-x="456" unicode="&#191;" /><glyph d="M277 400C199 399 50 374 50 193C50 75 114 -5 242 -5C342 -5 406 53 406 144H392C392 61 332 9 242 9C122 9 64 85 64 193C64 368 212 386 291 386V513H277ZM304 676C304 686 297 695 285 695C274 695 267 686 267 676C267 667 274 658 285 658C297 658 304 667 304 676Z" glyph-name="questiondown.cap" horiz-adv-x="456" /><glyph d="M215 363V271C155 270 50 247 50 130C50 45 93 -5 183 -5C265 -5 309 37 309 102H296C294 43 256 7 184 7C99 7 62 56 62 130C62 243 168 259 227 259V363ZM238 506C238 516 231 525 219 525C208 525 201 516 201 506C201 497 208 488 219 488C231 488 238 497 238 506Z" glyph-name="questiondown.small" horiz-adv-x="359" /><glyph d="M64 547H50V710H64ZM194 547H180V710H194Z" glyph-name="quotedbl" horiz-adv-x="244" unicode="&quot;" /><glyph d="M42 -135 51 -143C66 -126 113 -53 113 11C113 23 106 32 94 32C84 32 77 25 77 14C77 2 87 -4 98 -4C92 -64 52 -123 42 -135ZM172 -135 181 -143C196 -126 243 -53 243 11C243 23 236 32 224 32C214 32 207 25 207 14C207 2 217 -4 228 -4C222 -64 182 -123 172 -135Z" glyph-name="quotedblbase" horiz-adv-x="261" unicode="&#8222;" /><glyph d="M101 702 92 710C77 693 30 620 30 556C30 544 37 535 49 535C59 535 66 542 66 553C66 565 56 571 45 571C51 631 91 690 101 702ZM231 702 222 710C207 693 160 620 160 556C160 544 167 535 179 535C189 535 196 542 196 553C196 565 186 571 175 571C181 631 221 690 231 702Z" glyph-name="quotedblleft" horiz-adv-x="261" unicode="&#8220;" /><glyph d="M30 543 39 535C54 552 101 625 101 689C101 701 94 710 82 710C72 710 65 703 65 692C65 680 75 674 86 674C80 614 40 555 30 543ZM160 543 169 535C184 552 231 625 231 689C231 701 224 710 212 710C202 710 195 703 195 692C195 680 205 674 216 674C210 614 170 555 160 543Z" glyph-name="quotedblright" horiz-adv-x="261" unicode="&#8221;" /><glyph d="M101 702 92 710C77 693 30 620 30 556C30 544 37 535 49 535C59 535 66 542 66 553C66 565 56 571 45 571C51 631 91 690 101 702Z" glyph-name="quoteleft" horiz-adv-x="131" unicode="&#8216;" /><glyph d="M30 543 39 535C54 552 101 625 101 689C101 701 94 710 82 710C72 710 65 703 65 692C65 680 75 674 86 674C80 614 40 555 30 543Z" glyph-name="quoteright" horiz-adv-x="131" unicode="&#8217;" /><glyph d="M42 -135 51 -143C66 -126 113 -53 113 11C113 23 106 32 94 32C84 32 77 25 77 14C77 2 87 -4 98 -4C92 -64 52 -123 42 -135Z" glyph-name="quotesinglbase" horiz-adv-x="131" unicode="&#8218;" /><glyph d="M64 547H50V710H64Z" glyph-name="quotesingle" horiz-adv-x="114" unicode="'" /><glyph d="M248 480C113 480 90 324 90 207H102C102 316 119 468 248 468C329 468 340 395 340 357C340 353 340 346 339 339H351C352 346 352 355 352 359C352 400 340 480 248 480ZM90 470V0H102V267V287V470Z" glyph-name="r" horiz-adv-x="380" unicode="r" /><glyph d="M160 695C78 695 61 603 61 530H69C69 597 87 683 159 683C205 683 215 648 215 621C215 618 215 616 214 610H226C227 616 227 620 227 623C227 652 215 695 160 695ZM57 689V408H69V568V580V689Z" glyph-name="r.superior" horiz-adv-x="245" /><glyph d="M248 480C113 480 90 324 90 207H102C102 316 119 468 248 468C329 468 340 395 340 357C340 353 340 346 339 339H351C352 346 352 355 352 359C352 400 340 480 248 480ZM90 470V0H102V267V287V470ZM177 571 186 561 323 722 314 732Z" glyph-name="racute" horiz-adv-x="380" unicode="&#341;" /><glyph d="M104 248H10V234H100L94 238L254 -139H267L529 710H514L254 -134H267Z" glyph-name="radical" horiz-adv-x="529" unicode="&#8730;" /><glyph d="M248 480C113 480 90 324 90 207H102C102 316 119 468 248 468C329 468 340 395 340 357C340 353 340 346 339 339H351C352 346 352 355 352 359C352 400 340 480 248 480ZM90 470V0H102V267V287V470ZM96 722 233 561H242L379 722L370 732L237 576L105 732Z" glyph-name="rcaron" horiz-adv-x="380" unicode="&#345;" /><glyph d="M248 480C113 480 90 324 90 207H102C102 316 119 468 248 468C329 468 340 395 340 357C340 353 340 346 339 339H351C352 346 352 355 352 359C352 400 340 480 248 480ZM90 470V0H102V267V287V470ZM40 -201 51 -206 113 -58 102 -53Z" glyph-name="rcommaaccent" horiz-adv-x="380" unicode="&#343;" /><glyph d="M285 221C430 221 530 331 530 466C530 600 430 710 285 710C140 710 40 600 40 466C40 331 140 221 285 221ZM285 233C148 233 52 337 52 466C52 594 148 698 285 698C422 698 518 594 518 466C518 337 422 233 285 233ZM382 337C399 337 409 346 409 366H398C398 353 391 348 382 348C360 348 361 373 361 410C361 447 344 465 316 472C352 478 379 496 379 536C379 583 342 605 278 605H202V339H214V468H272C319 468 349 456 349 405C349 357 352 337 382 337ZM278 593C332 593 367 577 367 536C367 491 328 480 284 480H214V593Z" glyph-name="registered" horiz-adv-x="570" unicode="&#174;" /><glyph d="M172 671C172 628 203 594 249 594C296 594 327 628 327 671C327 715 296 749 249 749C204 749 172 715 172 671ZM315 671C315 634 288 606 249 606C211 606 184 634 184 671C184 709 211 737 249 737C288 737 315 709 315 671Z" glyph-name="ring" horiz-adv-x="500" unicode="&#730;" /><glyph d="M179 789C179 750 208 719 249 719C291 719 320 750 320 789C320 829 291 860 249 860C208 860 179 829 179 789ZM306 789C306 758 283 733 249 733C216 733 193 758 193 789C193 821 216 846 249 846C283 846 306 821 306 789Z" glyph-name="ring.cap" horiz-adv-x="500" /><glyph d="M55 156C55 54 111 -5 223 -5C296 -5 372 32 372 122C372 192 337 230 227 254C132 275 87 296 87 366C87 440 141 468 213 468C288 468 345 427 345 366H357C357 439 294 480 213 480C133 480 75 446 75 366C75 292 120 265 225 242C325 220 360 186 360 122C360 40 290 7 223 7C119 7 67 63 67 156Z" glyph-name="s" horiz-adv-x="432" unicode="s" /><glyph d="M35 501C36 440 72 405 144 405C192 405 239 428 239 482C239 524 217 546 146 561C85 574 60 586 60 626C60 667 93 683 139 683C185 683 218 661 218 626H230C230 670 192 695 139 695C86 695 48 675 48 626C48 580 76 563 145 549C207 536 227 519 227 482C227 434 186 417 144 417C78 417 48 449 47 501Z" glyph-name="s.superior" horiz-adv-x="277" /><glyph d="M55 156C55 54 111 -5 223 -5C296 -5 372 32 372 122C372 192 337 230 227 254C132 275 87 296 87 366C87 440 141 468 213 468C288 468 345 427 345 366H357C357 439 294 480 213 480C133 480 75 446 75 366C75 292 120 265 225 242C325 220 360 186 360 122C360 40 290 7 223 7C119 7 67 63 67 156ZM177 571 186 561 323 722 314 732Z" glyph-name="sacute" horiz-adv-x="432" unicode="&#347;" /><glyph d="M55 156C55 54 111 -5 223 -5C296 -5 372 32 372 122C372 192 337 230 227 254C132 275 87 296 87 366C87 440 141 468 213 468C288 468 345 427 345 366H357C357 439 294 480 213 480C133 480 75 446 75 366C75 292 120 265 225 242C325 220 360 186 360 122C360 40 290 7 223 7C119 7 67 63 67 156ZM74 722 211 561H220L357 722L348 732L215 576L83 732Z" glyph-name="scaron" horiz-adv-x="432" unicode="&#353;" /><glyph d="M55 156C55 54 111 -5 223 -5C296 -5 372 32 372 122C372 192 337 230 227 254C132 275 87 296 87 366C87 440 141 468 213 468C288 468 345 427 345 366H357C357 439 294 480 213 480C133 480 75 446 75 366C75 292 120 265 225 242C325 220 360 186 360 122C360 40 290 7 223 7C119 7 67 63 67 156ZM178 -120C176 -161 197 -185 238 -185C273 -185 303 -165 303 -120C303 -63 257 -48 203 -62L209 -68L228 0L217 3L196 -69L204 -72C252 -61 291 -71 291 -120C291 -157 267 -173 238 -173C205 -173 188 -155 190 -120Z" glyph-name="scedilla" horiz-adv-x="432" unicode="&#351;" /><glyph d="M415 248C415 408 331 480 225 480C119 480 55 416 55 319H67C67 405 124 468 225 468C324 468 403 398 403 248C403 245 403 242 403 238C400 105 332 7 223 7C106 7 90 95 90 139C90 154 91 161 91 163H399L403 175H82C81 170 78 155 78 136C78 83 99 -5 223 -5C341 -5 415 100 415 248Z" glyph-name="schwa" horiz-adv-x="470" unicode="&#601;" /><glyph d="M55 156C55 54 111 -5 223 -5C296 -5 372 32 372 122C372 192 337 230 227 254C132 275 87 296 87 366C87 440 141 468 213 468C288 468 345 427 345 366H357C357 439 294 480 213 480C133 480 75 446 75 366C75 292 120 265 225 242C325 220 360 186 360 122C360 40 290 7 223 7C119 7 67 63 67 156ZM79 571 88 561 221 717 353 561 362 571 225 732H216Z" glyph-name="scircumflex" horiz-adv-x="432" unicode="&#349;" /><glyph d="M55 156C55 54 111 -5 223 -5C296 -5 372 32 372 122C372 192 337 230 227 254C132 275 87 296 87 366C87 440 141 468 213 468C288 468 345 427 345 366H357C357 439 294 480 213 480C133 480 75 446 75 366C75 292 120 265 225 242C325 220 360 186 360 122C360 40 290 7 223 7C119 7 67 63 67 156ZM162 -201 173 -206 235 -58 224 -53Z" glyph-name="scommaaccent" horiz-adv-x="432" unicode="&#537;" /><glyph d="M397 562H409C409 646 337 692 249 692C157 692 90 652 90 552C90 472 146 438 257 399C369 360 418 329 418 241C418 183 388 136 339 113L345 103C398 128 430 179 430 241C430 333 381 368 261 411C158 446 102 476 102 552C102 644 165 680 249 680C329 680 397 640 397 562ZM123 -20H111C111 -104 183 -150 271 -150C364 -150 430 -112 430 -12C430 72 374 104 264 144C151 182 102 213 102 301C102 361 137 407 186 431L174 437C124 411 90 363 90 301C90 209 139 174 260 132C362 96 418 65 418 -12C418 -104 356 -138 271 -138C191 -138 123 -98 123 -20Z" glyph-name="section" horiz-adv-x="520" unicode="&#167;" /><glyph d="M46 -135 55 -143C70 -126 117 -53 117 11C117 23 110 32 98 32C88 32 81 25 81 14C81 2 91 -4 102 -4C96 -64 56 -123 46 -135ZM80 424C80 414 87 405 99 405C110 405 117 414 117 424C117 433 110 442 99 442C87 442 80 433 80 424Z" glyph-name="semicolon" horiz-adv-x="197" unicode=";" /><glyph d="M452 665H60V651H446L440 662C242 399 145 157 145 0H160C160 150 256 395 452 654Z" glyph-name="seven" horiz-adv-x="492" unicode="7" /><glyph d="M64 515V503H387L382 513C244 335 129 158 129 2H141C141 148 256 331 392 505V515Z" glyph-name="seven.small" horiz-adv-x="420" /><glyph d="M196 2C196 148 281 331 417 505V515H79V404H91V503H399C266 328 184 155 184 2Z" glyph-name="seven.small_tab" horiz-adv-x="455" /><glyph d="M200 0C200 150 320 396 511 654V665H60V514H74V651H491C300 394 185 155 185 0Z" glyph-name="seven.tab" horiz-adv-x="550" /><glyph d="M289 299H43V287H284L278 296C154 139 96 1 96 -100H108C110 -2 164 133 289 291Z" glyph-name="seveninferior" horiz-adv-x="319" unicode="&#8327;" /><glyph d="M289 807H43V795H284L278 804C154 647 96 509 96 408H108C110 506 164 641 289 799Z" glyph-name="sevensuperior" horiz-adv-x="319" unicode="&#8311;" /><glyph d="M295 396C383 396 471 343 471 205C471 80 388 9 286 9C165 9 100 93 100 198C100 302 161 396 295 396ZM293 675C127 675 64 529 64 322C64 102 135 -5 286 -5C396 -5 485 70 485 205C485 353 393 410 296 410C172 410 72 333 89 166L94 169C84 231 79 261 79 322C79 517 136 661 293 661C441 661 458 559 458 515H473C473 565 455 675 293 675Z" glyph-name="six" horiz-adv-x="550" unicode="6" /><glyph d="M242 308C321 308 389 269 389 160C389 64 318 7 233 7C137 7 82 65 82 147C82 227 127 308 242 308ZM241 525C105 525 50 411 50 251C50 78 111 -5 233 -5C324 -5 401 56 401 160C401 275 331 320 242 320C144 320 63 260 71 129L76 131C64 172 62 220 62 251C62 401 111 513 241 513C363 513 378 432 378 404H390C390 434 377 525 241 525Z" glyph-name="six.small" horiz-adv-x="455" /><glyph d="M242 308C321 308 389 269 389 160C389 64 318 7 233 7C137 7 82 65 82 147C82 227 127 308 242 308ZM241 525C105 525 50 411 50 251C50 78 111 -5 233 -5C324 -5 401 56 401 160C401 275 331 320 242 320C144 320 63 260 71 129L76 131C64 172 62 220 62 251C62 401 111 513 241 513C363 513 378 432 378 404H390C390 434 377 525 241 525Z" glyph-name="six.small_tab" horiz-adv-x="455" /><glyph d="M295 396C383 396 471 343 471 205C471 80 388 9 286 9C165 9 100 93 100 198C100 302 161 396 295 396ZM293 675C127 675 64 529 64 322C64 102 135 -5 286 -5C396 -5 485 70 485 205C485 353 393 410 296 410C172 410 72 333 89 166L94 169C84 231 79 261 79 322C79 517 136 661 293 661C441 661 458 559 458 515H473C473 565 455 675 293 675Z" glyph-name="six.tab" horiz-adv-x="550" /><glyph d="M185 134C240 134 293 104 293 23C293 -50 242 -91 179 -91C105 -91 65 -43 65 19C65 81 101 134 185 134ZM183 305C79 305 39 217 39 93C39 -38 84 -103 179 -103C248 -103 305 -58 305 23C305 112 247 146 186 146C107 146 45 100 56 1L60 3C54 39 51 58 51 94C51 210 88 293 184 293C275 293 284 235 284 208H296C296 240 285 305 183 305Z" glyph-name="sixinferior" horiz-adv-x="344" unicode="&#8326;" /><glyph d="M185 642C240 642 293 612 293 531C293 458 242 417 179 417C105 417 65 465 65 527C65 589 101 642 185 642ZM183 813C79 813 39 725 39 601C39 470 84 405 179 405C248 405 305 450 305 531C305 620 247 654 186 654C107 654 45 608 56 509L60 511C54 547 51 566 51 602C51 718 88 801 184 801C275 801 284 743 284 716H296C296 748 285 813 183 813Z" glyph-name="sixsuperior" horiz-adv-x="344" unicode="&#8310;" /><glyph d="M45 -88 403 710H388L30 -88Z" glyph-name="slash" horiz-adv-x="433" unicode="/" /><glyph glyph-name="space" horiz-adv-x="250" unicode=" " /><glyph d="M314 661C405 661 452 616 476 555L490 561C466 624 413 675 314 675C196 675 134 595 133 501C132 371 187 297 187 207C187 81 49 7 49 7L56 -5C85 13 142 39 202 39C294 39 308 -3 397 -3C460 -3 493 30 516 80L503 86C480 36 450 11 397 11C316 11 294 53 202 53C144 53 95 30 64 10L66 7C66 7 201 72 201 207C201 297 146 371 147 501C148 589 206 661 314 661ZM403 338V352H67V338Z" glyph-name="sterling" horiz-adv-x="550" unicode="&#163;" /><glyph d="M100 -103H562V-89H120L374 283V291L131 676H562V690H112V679L358 287L100 -92Z" glyph-name="summation" horiz-adv-x="662" unicode="&#8721;" /><glyph d="M106 100C106 45 118 -5 195 -5C255 -5 285 19 285 71H273C273 29 245 7 195 7C126 7 118 56 118 100V600H106ZM10 470V458H273V470H98Z" glyph-name="t" horiz-adv-x="325" unicode="t" /><glyph d="M66 474C66 437 79 405 127 405C167 405 184 423 184 457H172C172 430 160 417 127 417C92 417 78 438 78 474V766H66ZM6 689V677H176V689H72Z" glyph-name="t.superior" horiz-adv-x="209" /><glyph d="M20 260V248H256V260ZM106 100C106 45 118 -5 195 -5C255 -5 285 19 285 71H273C273 29 245 7 195 7C126 7 118 56 118 100V600H106ZM10 470V458H273V470H98Z" glyph-name="tbar" horiz-adv-x="325" unicode="&#359;" /><glyph d="M257 532 268 527 343 705 332 710ZM106 100C106 45 118 -5 195 -5C255 -5 285 19 285 71H273C273 29 245 7 195 7C126 7 118 56 118 100V600H106ZM10 470V458H273V470H98Z" glyph-name="tcaron" horiz-adv-x="325" unicode="&#357;" /><glyph d="M106 100C106 45 118 -5 195 -5C255 -5 285 19 285 71H273C273 29 245 7 195 7C126 7 118 56 118 100V600H106ZM10 470V458H273V470H98ZM145 -120C143 -161 164 -185 205 -185C240 -185 270 -165 270 -120C270 -63 224 -48 170 -62L176 -68L195 0L184 3L163 -69L171 -72C219 -61 258 -71 258 -120C258 -157 234 -173 205 -173C172 -173 155 -155 157 -120Z" glyph-name="tcedilla" horiz-adv-x="325" unicode="&#355;" /><glyph d="M106 100C106 45 118 -5 195 -5C255 -5 285 19 285 71H273C273 29 245 7 195 7C126 7 118 56 118 100V600H106ZM10 470V458H273V470H98ZM130 -201 141 -206 203 -58 192 -53Z" glyph-name="tcommaaccent" horiz-adv-x="325" unicode="&#539;" /><glyph d="M93 233C93 60 200 -5 277 -5C387 -5 466 80 466 239C466 415 360 480 277 480C166 480 93 395 93 233ZM454 239C454 90 381 7 277 7C204 7 102 72 102 233C102 385 173 468 277 468C356 468 454 403 454 239ZM90 470V-240H102V302V341V470ZM90 710V0H102V710Z" glyph-name="thorn" horiz-adv-x="521" unicode="&#254;" /><glyph d="M204 341H247C351 341 445 393 445 503C445 610 382 675 268 675C124 675 71 592 86 485H101C86 592 139 661 268 661C372 661 431 602 431 503C431 401 345 352 249 352H174V338H251C370 338 453 293 453 183C453 73 380 9 266 9C129 9 74 80 86 184H72C60 70 117 -5 266 -5C388 -5 467 65 467 183C467 301 378 349 249 349H204Z" glyph-name="three" horiz-adv-x="550" unicode="3" /><glyph d="M72 374H85C68 456 121 513 222 513C308 513 357 467 357 390C357 312 285 271 206 271H144V259H208C305 259 375 223 375 138C375 53 314 7 220 7C104 7 60 67 73 141H60C47 63 90 -5 220 -5C322 -5 387 47 387 138C387 229 315 268 208 268H144V262H206C293 262 369 302 369 390C369 473 316 525 222 525C109 525 54 458 72 374Z" glyph-name="three.small" horiz-adv-x="455" /><glyph d="M72 374H85C68 456 121 513 222 513C308 513 357 467 357 390C357 312 285 271 206 271H144V259H208C305 259 375 223 375 138C375 53 314 7 220 7C104 7 60 67 73 141H60C47 63 90 -5 220 -5C322 -5 387 47 387 138C387 229 315 268 208 268H144V262H206C293 262 369 302 369 390C369 473 316 525 222 525C109 525 54 458 72 374Z" glyph-name="three.small_tab" horiz-adv-x="455" /><glyph d="M204 341H247C351 341 445 393 445 503C445 610 382 675 268 675C124 675 71 592 86 485H101C86 592 139 661 268 661C372 661 431 602 431 503C431 401 345 352 249 352H174V338H251C370 338 453 293 453 183C453 73 380 9 266 9C129 9 74 80 86 184H72C60 70 117 -5 266 -5C388 -5 467 65 467 183C467 301 378 349 249 349H204Z" glyph-name="three.tab" horiz-adv-x="550" /><glyph d="M127 104H154C220 104 280 135 280 202C280 266 239 305 168 305C78 305 43 256 53 190H65C55 254 88 293 168 293C231 293 268 261 268 202C268 142 214 113 155 113H109V101H157C230 101 281 75 281 10C281 -56 236 -91 166 -91C81 -91 49 -50 56 11H44C37 -58 74 -103 166 -103C243 -103 293 -61 293 10C293 81 237 110 155 110H127Z" glyph-name="threeinferior" horiz-adv-x="344" unicode="&#8323;" /><glyph d="M556 0V292L568 291L431 104V110H628V98H420V108L560 300H568V0ZM50 581C42 630 69 668 133 668C184 668 214 638 214 589C214 539 170 516 124 516H105V524H125C182 524 223 502 223 449C223 395 187 362 132 362C63 362 37 400 44 448H56C51 404 73 374 132 374C180 374 211 402 211 449C211 494 178 514 126 514H92V526H125C167 526 202 545 202 589C202 630 176 656 133 656C79 656 56 629 62 581ZM503 665H518L183 0H167Z" glyph-name="threequarters" horiz-adv-x="645" unicode="&#190;" /><glyph d="M127 612H154C220 612 280 643 280 710C280 774 239 813 168 813C78 813 43 764 53 698H65C55 762 88 801 168 801C231 801 268 769 268 710C268 650 214 621 155 621H109V609H157C230 609 281 583 281 518C281 452 236 417 166 417C81 417 49 458 56 519H44C37 450 74 405 166 405C243 405 293 447 293 518C293 589 237 618 155 618H127Z" glyph-name="threesuperior" horiz-adv-x="344" unicode="&#179;" /><glyph d="M133 590 145 594C128.8968 642.3096 137 690 188 690C262 690 242 592 313 592C372 592 387.3003 646.0991 368 704L356 700C372.1032 651.6904 364 604 313 604C253 604 271 702 188 702C129 702 113.6997 647.9009 133 590Z" glyph-name="tilde" horiz-adv-x="500" unicode="&#732;" /><glyph d="M317 750C262 750 268 822 194 822C133 822 118 777 132 736L146 741C136 775 145 809 192 809C260 809 250 737 316 737C378 737 392 782 377 823L363 818C374 784 366 750 317 750Z" glyph-name="tilde.cap" horiz-adv-x="500" /><glyph d="M392 320 420 687 409 685 564 333H574L730 685L719 687L746 320H758L730 690H719L564 338H574L420 690H409L380 320ZM183 320V684H171V320ZM20 685V673H319V685Z" glyph-name="trademark" horiz-adv-x="818" unicode="&#8482;" /><glyph d="M490 5V19H93L98 7C319 221 469 329 469 488C469 595 407 673 285 673C133 673 66 546 111 426H125C80 538 141 659 285 659C397 659 455 587 455 488C455 331 305 228 88 17V5Z" glyph-name="two" horiz-adv-x="550" unicode="2" /><glyph d="M91 320H104C64 416 128 513 237 513C330 513 377 451 377 375C377 257 258 180 72 15V5H403V17H76L83 8C278 177 389 252 389 375C389 457 338 525 237 525C116 525 49 417 91 320Z" glyph-name="two.small" horiz-adv-x="455" /><glyph d="M91 320H104C64 416 128 513 237 513C330 513 377 451 377 375C377 257 258 180 72 15V5H403V17H76L83 8C278 177 389 252 389 375C389 457 338 525 237 525C116 525 49 417 91 320Z" glyph-name="two.small_tab" horiz-adv-x="455" /><glyph d="M490 5V19H93L98 7C319 221 469 329 469 488C469 595 407 673 285 673C133 673 66 546 111 426H125C80 538 141 659 285 659C397 659 455 587 455 488C455 331 305 228 88 17V5Z" glyph-name="two.tab" horiz-adv-x="550" /><glyph d="M307 -97V-85H64L65 -95C202 31 294 96 294 193C294 258 255 304 178 304C83 304 38 228 69 155H81C52 224 91 292 177 292C246 292 282 251 282 193C282 100 190 36 54 -89V-97Z" glyph-name="twoinferior" horiz-adv-x="344" unicode="&#8322;" /><glyph d="M307 411V423H64L65 413C202 539 294 604 294 701C294 766 255 812 178 812C83 812 38 736 69 663H81C52 732 91 800 177 800C246 800 282 759 282 701C282 608 190 544 54 419V411Z" glyph-name="twosuperior" horiz-adv-x="344" unicode="&#178;" /><glyph d="M409 216H401C401 105 346 7 237 7C125 7 97 80 97 187V470H85V185C85 70 118 -5 235 -5C353 -5 409 91 409 216ZM401 121V0H413V470H401V143Z" glyph-name="u" horiz-adv-x="503" unicode="u" /><glyph d="M262 541H255C255 473 220 417 152 417C84 417 65 457 65 520V689H53V518C53 449 77 405 151 405C227 405 262 464 262 541ZM255 481V408H267V689H255V496Z" glyph-name="u.superior" horiz-adv-x="323" /><glyph d="M409 216H401C401 105 346 7 237 7C125 7 97 80 97 187V470H85V185C85 70 118 -5 235 -5C353 -5 409 91 409 216ZM401 121V0H413V470H401V143ZM199 571 208 561 345 722 336 732Z" glyph-name="uacute" horiz-adv-x="503" unicode="&#250;" /><glyph d="M409 216H401C401 105 346 7 237 7C125 7 97 80 97 187V470H85V185C85 70 118 -5 235 -5C353 -5 409 91 409 216ZM401 121V0H413V470H401V143ZM259 594C369 594 388 694 388 726H376C376 696 359 606 259 606C159 606 142 696 142 726H130C130 694 149 594 259 594Z" glyph-name="ubreve" horiz-adv-x="503" unicode="&#365;" /><glyph d="M409 216H401C401 105 346 7 237 7C125 7 97 80 97 187V470H85V185C85 70 118 -5 235 -5C353 -5 409 91 409 216ZM401 121V0H413V470H401V143ZM113 571 122 561 255 717 387 561 396 571 259 732H250Z" glyph-name="ucircumflex" horiz-adv-x="503" unicode="&#251;" /><glyph d="M409 216H401C401 105 346 7 237 7C125 7 97 80 97 187V470H85V185C85 70 118 -5 235 -5C353 -5 409 91 409 216ZM401 121V0H413V470H401V143ZM153 662C153 652 160 643 172 643C183 643 190 652 190 662C190 671 183 680 172 680C160 680 153 671 153 662ZM313 662C313 652 320 643 332 643C343 643 350 652 350 662C350 671 343 680 332 680C320 680 313 671 313 662Z" glyph-name="udieresis" horiz-adv-x="503" unicode="&#252;" /><glyph d="M409 216H401C401 105 346 7 237 7C125 7 97 80 97 187V470H85V185C85 70 118 -5 235 -5C353 -5 409 91 409 216ZM401 121V0H413V470H401V143ZM177 722 314 561 323 571 186 732Z" glyph-name="ugrave" horiz-adv-x="503" unicode="&#249;" /><glyph d="M409 216H401C401 105 346 7 237 7C125 7 97 80 97 187V470H85V185C85 70 118 -5 235 -5C353 -5 409 91 409 216ZM401 121V0H413V470H401V143ZM178 572 189 567 260 729 249 734ZM318 572 329 567 400 729 389 734Z" glyph-name="uhungarumlaut" horiz-adv-x="503" unicode="&#369;" /><glyph d="M409 216H401C401 105 346 7 237 7C125 7 97 80 97 187V470H85V185C85 70 118 -5 235 -5C353 -5 409 91 409 216ZM401 121V0H413V470H401V143ZM132 685V673H368V685Z" glyph-name="umacron" horiz-adv-x="503" unicode="&#363;" /><glyph d="M0 -238V-250H500V-238Z" glyph-name="underscore" horiz-adv-x="501" unicode="_" /><glyph d="M388 -8C198 -8 60 138 60 341C60 546 198 689 388 689C578 689 716 546 716 341C716 138 578 -8 388 -8ZM388 4C572 4 704 146 704 341C704 538 572 677 388 677C204 677 72 538 72 341C72 146 204 4 388 4ZM292 526V158H304V520L298 514H402C481 514 526 489 526 425C526 354 474 334 412 334H294V322H412C482 322 538 348 538 425C538 495 491 526 402 526Z" glyph-name="uni2117" horiz-adv-x="776" unicode="&#8471;" /><glyph d="M302 -129C302 -160 317 -185 357 -185C397 -185 413 -156 413 -115H401C401 -148 389 -173 357 -173C323 -173 314 -150 314 -129C314 -69 378 -27 413 0L404 7C338 -40 302 -79 302 -129ZM409 216H401C401 105 346 7 237 7C125 7 97 80 97 187V470H85V185C85 70 118 -5 235 -5C353 -5 409 91 409 216ZM401 121V0H413V470H401V143Z" glyph-name="uogonek" horiz-adv-x="503" unicode="&#371;" /><glyph d="M409 216H401C401 105 346 7 237 7C125 7 97 80 97 187V470H85V185C85 70 118 -5 235 -5C353 -5 409 91 409 216ZM401 121V0H413V470H401V143ZM176 671C176 628 207 594 253 594C300 594 331 628 331 671C331 715 300 749 253 749C208 749 176 715 176 671ZM319 671C319 634 292 606 253 606C215 606 188 634 188 671C188 709 215 737 253 737C292 737 319 709 319 671Z" glyph-name="uring" horiz-adv-x="503" unicode="&#367;" /><glyph d="M409 216H401C401 105 346 7 237 7C125 7 97 80 97 187V470H85V185C85 70 118 -5 235 -5C353 -5 409 91 409 216ZM401 121V0H413V470H401V143ZM127 590 139 594C122.8968 642.3096 131 690 182 690C256 690 236 592 307 592C366 592 381.3003 646.0991 362 704L350 700C366.1032 651.6904 358 604 307 604C247 604 265 702 182 702C123 702 107.6997 647.9009 127 590Z" glyph-name="utilde" horiz-adv-x="503" unicode="&#361;" /><glyph d="M25 470 208 0H220L403 470H390L208 4H220L39 470Z" glyph-name="v" horiz-adv-x="428" unicode="v" /><glyph d="M15 689 131 408H144L260 689H248L134 415H141L28 689Z" glyph-name="v.superior" horiz-adv-x="275" /><glyph d="M30 470 183 0H195L352 398H350L507 0H519L672 470H659L512 21L357 412H345L190 21L43 470Z" glyph-name="w" horiz-adv-x="702" unicode="w" /><glyph d="M18 689 115 408H127L226 642H224L322 408H333L431 689H419L327 426L231 656H219L122 423L30 689Z" glyph-name="w.superior" horiz-adv-x="449" /><glyph d="M30 470 183 0H195L352 398H350L507 0H519L672 470H659L512 21L357 412H345L190 21L43 470ZM317 571 326 561 463 722 454 732Z" glyph-name="wacute" horiz-adv-x="702" unicode="&#7811;" /><glyph d="M30 470 183 0H195L352 398H350L507 0H519L672 470H659L512 21L357 412H345L190 21L43 470ZM209 571 218 561 351 717 483 561 492 571 355 732H346Z" glyph-name="wcircumflex" horiz-adv-x="702" unicode="&#373;" /><glyph d="M30 470 183 0H195L352 398H350L507 0H519L672 470H659L512 21L357 412H345L190 21L43 470ZM252 662C252 652 259 643 271 643C282 643 289 652 289 662C289 671 282 680 271 680C259 680 252 671 252 662ZM412 662C412 652 419 643 431 643C442 643 449 652 449 662C449 671 442 680 431 680C419 680 412 671 412 662Z" glyph-name="wdieresis" horiz-adv-x="702" unicode="&#7813;" /><glyph d="M30 470 183 0H195L352 398H350L507 0H519L672 470H659L512 21L357 412H345L190 21L43 470ZM267 722 404 561 413 571 276 732Z" glyph-name="wgrave" horiz-adv-x="702" unicode="&#7809;" /><glyph d="M211 242 382 0H396L217 253L215 256L64 470H50L208 246ZM208 252 30 0H44L215 242L217 245L376 470H362L211 256Z" glyph-name="x" horiz-adv-x="426" unicode="x" /><glyph d="M134 552 241 408H256L142 560L139 562L46 689H31L131 554ZM131 559 17 408H32L139 551L142 553L244 689H229L134 561Z" glyph-name="x.superior" horiz-adv-x="274" /><glyph d="M25 -194C25 -224 38 -250 87 -250C130 -250 154 -222 172 -172L409 470H396L234 31L160 -168C145 -209 126 -238 88 -238C50 -238 37 -218 37 -194ZM31 470 223 -8 229 12 45 470Z" glyph-name="y" horiz-adv-x="434" unicode="y" /><glyph d="M15 300C15 280 23 259 57 259C84 259 101 275 113 307L264 689H251L149 429L102 312C92 286 81 271 57 271C32 271 28 286 27 300ZM18 689 142 403 149 416 32 689Z" glyph-name="y.superior" horiz-adv-x="279" /><glyph d="M25 -194C25 -224 38 -250 87 -250C130 -250 154 -222 172 -172L409 470H396L234 31L160 -168C145 -209 126 -238 88 -238C50 -238 37 -218 37 -194ZM31 470 223 -8 229 12 45 470ZM199 571 208 561 345 722 336 732Z" glyph-name="yacute" horiz-adv-x="434" unicode="&#253;" /><glyph d="M25 -194C25 -224 38 -250 87 -250C130 -250 154 -222 172 -172L409 470H396L234 31L160 -168C145 -209 126 -238 88 -238C50 -238 37 -218 37 -194ZM31 470 223 -8 229 12 45 470ZM83 571 92 561 225 717 357 561 366 571 229 732H220Z" glyph-name="ycircumflex" horiz-adv-x="434" unicode="&#375;" /><glyph d="M25 -194C25 -224 38 -250 87 -250C130 -250 154 -222 172 -172L409 470H396L234 31L160 -168C145 -209 126 -238 88 -238C50 -238 37 -218 37 -194ZM31 470 223 -8 229 12 45 470ZM124 662C124 652 131 643 143 643C154 643 161 652 161 662C161 671 154 680 143 680C131 680 124 671 124 662ZM284 662C284 652 291 643 303 643C314 643 321 652 321 662C321 671 314 680 303 680C291 680 284 671 284 662Z" glyph-name="ydieresis" horiz-adv-x="434" unicode="&#255;" /><glyph d="M281 307H269L27 665H44L281 314H269L506 665H523ZM268 321H282V0H268ZM470 270V256H80V270ZM210 408 217 394H80V408ZM470 408V394H334L342 408Z" glyph-name="yen" horiz-adv-x="550" unicode="&#165;" /><glyph d="M25 -194C25 -224 38 -250 87 -250C130 -250 154 -222 172 -172L409 470H396L234 31L160 -168C145 -209 126 -238 88 -238C50 -238 37 -218 37 -194ZM31 470 223 -8 229 12 45 470ZM125 722 262 561 271 571 134 732Z" glyph-name="ygrave" horiz-adv-x="434" unicode="&#7923;" /><glyph d="M40 10V0H364V12H45L50 2L361 460V470H66V458H356L351 468Z" glyph-name="z" horiz-adv-x="404" unicode="z" /><glyph d="M25 416V408H234V420H36L38 413L232 679V689H41V677H224L223 687Z" glyph-name="z.superior" horiz-adv-x="260" /><glyph d="M40 10V0H364V12H45L50 2L361 460V470H66V458H356L351 468ZM157 571 166 561 303 722 294 732Z" glyph-name="zacute" horiz-adv-x="404" unicode="&#378;" /><glyph d="M40 10V0H364V12H45L50 2L361 460V470H66V458H356L351 468ZM77 722 214 561H223L360 722L351 732L218 576L86 732Z" glyph-name="zcaron" horiz-adv-x="404" unicode="&#382;" /><glyph d="M40 10V0H364V12H45L50 2L361 460V470H66V458H356L351 468ZM212 643C223 643 230 652 230 662C230 671 223 680 212 680C200 680 193 671 193 662C193 652 200 643 212 643Z" glyph-name="zdotaccent" horiz-adv-x="404" unicode="&#380;" /><glyph d="M277 9C169 9 67 103 67 334C67 543 153 661 277 661C383 661 483 569 483 343C483 131 400 9 277 9ZM277 -5C405 -5 497 115 497 343C497 585 387 675 277 675C147 675 53 557 53 334C53 87 165 -5 277 -5Z" glyph-name="zero" horiz-adv-x="550" unicode="0" /><glyph d="M230 7C140 7 50 77 50 257C50 421 126 513 230 513C317 513 405 441 405 263C405 98 331 7 230 7ZM230 -5C338 -5 417 86 417 263C417 453 324 525 230 525C119 525 38 433 38 257C38 65 133 -5 230 -5Z" glyph-name="zero.small" horiz-adv-x="455" /><glyph d="M230 7C140 7 50 77 50 257C50 421 126 513 230 513C317 513 405 441 405 263C405 98 331 7 230 7ZM230 -5C338 -5 417 86 417 263C417 453 324 525 230 525C119 525 38 433 38 257C38 65 133 -5 230 -5Z" glyph-name="zero.small_tab" horiz-adv-x="455" /><glyph d="M277 9C169 9 67 103 67 334C67 543 153 661 277 661C383 661 483 569 483 343C483 131 400 9 277 9ZM277 -5C405 -5 497 115 497 343C497 585 387 675 277 675C147 675 53 557 53 334C53 87 165 -5 277 -5Z" glyph-name="zero.tab" horiz-adv-x="550" /><glyph d="M174 -91C107 -91 45 -37 45 100C45 225 98 293 174 293C239 293 300 240 300 106C300 -20 250 -91 174 -91ZM174 -103C254 -103 312 -31 312 106C312 251 243 305 174 305C92 305 33 235 33 100C33 -48 103 -103 174 -103Z" glyph-name="zeroinferior" horiz-adv-x="345" unicode="&#8320;" /><glyph d="M277 -5C405 -5 497 115 497 343C497 585 387 675 277 675C147 675 53 557 53 334C53 87 165 -5 277 -5ZM277 9C169 9 67 103 67 334C67 543 153 661 277 661C383 661 483 569 483 343C483 131 400 9 277 9ZM418 602 109 96 121 88 429 592Z" glyph-name="zeroslash" horiz-adv-x="550" /><glyph d="M350 464 103 57 113 49 361 457ZM230 7C140 7 50 77 50 257C50 421 126 513 230 513C317 513 405 441 405 263C405 98 331 7 230 7ZM230 -5C338 -5 417 86 417 263C417 453 324 525 230 525C119 525 38 433 38 257C38 65 133 -5 230 -5Z" glyph-name="zeroslash.small" horiz-adv-x="455" /><glyph d="M350 464 103 57 113 49 361 457ZM230 7C140 7 50 77 50 257C50 421 126 513 230 513C317 513 405 441 405 263C405 98 331 7 230 7ZM230 -5C338 -5 417 86 417 263C417 453 324 525 230 525C119 525 38 433 38 257C38 65 133 -5 230 -5Z" glyph-name="zeroslash.small_tab" horiz-adv-x="455" /><glyph d="M277 -5C405 -5 497 115 497 343C497 585 387 675 277 675C147 675 53 557 53 334C53 87 165 -5 277 -5ZM277 9C169 9 67 103 67 334C67 543 153 661 277 661C383 661 483 569 483 343C483 131 400 9 277 9ZM418 602 109 96 121 88 429 592Z" glyph-name="zeroslash.tab" horiz-adv-x="550" /><glyph d="M174 417C107 417 45 471 45 608C45 733 98 801 174 801C239 801 300 748 300 614C300 488 250 417 174 417ZM174 405C254 405 312 477 312 614C312 759 243 813 174 813C92 813 33 743 33 608C33 460 103 405 174 405Z" glyph-name="zerosuperior" horiz-adv-x="345" unicode="&#8304;" /></font>
</defs>
</svg>
