<?xml version="1.0" standalone="no"?><!DOCTYPE svg PUBLIC "-//W3C//DTD SVG 1.1//EN" "http://www.w3.org/Graphics/SVG/1.1/DTD/svg11.dtd" ><svg version="1.1" xmlns="http://www.w3.org/2000/svg"><defs><font horiz-adv-x="0" id="font"><font-face ascent="710" bbox="-150 -250 1115 1007" cap-height="690" descent="-250" font-family="Faune" font-stretch="normal" font-style="italic" font-weight="400" units-per-em="1000" x-height="474" /><missing-glyph d="M440 0H376V690H440ZM107 630V690H427V630ZM107 0V60H427V0ZM124 0H60L376 690H440ZM124 0H60V690H124ZM124 690 440 0H376L60 690Z" horiz-adv-x="500" /><glyph d="M93 0C105 205 153 315 304 466L456 620L394 249C381 173 365 76 365 0H405C457 175 550 340 550 491C550 568 535 628 502 694H456L235 486C106 364 2 248 2 128C2 78 28 35 57 0ZM439 244V293H101V244Z" glyph-name="A" horiz-adv-x="610" unicode="A" /><glyph d="M265 0H295C346 143 446 230 446 370C446 432 427 483 397 525H364L177 375C61 282 -25 188 -25 105C-25 62 -3 26 26 0H54C60 74 74 136 100 191H299L290 154C278 101 264 41 265 0ZM308 231H121C148 275 185 316 235 358L363 467Z" glyph-name="A.small" horiz-adv-x="511" /><glyph d="M776 116H757C745 85 691 74 618 74H432C485 249 505 328 508 338H746L761 393H524C541 475 560 573 567 638C622 626 738 593 816 593C872 593 907 615 907 697H896C884 681 860 676 806 676C738 676 536 690 436 694L234 490C101 353 2 248 2 128C2 78 28 35 57 0H93C99 100 115 174 147 244H373C361 173 354 25 355 25C427 16 572 -10 643 -10C725 -10 768 43 776 116ZM381 293H172C204 349 247 404 303 470L436 620Z" glyph-name="AE" horiz-adv-x="873" unicode="&#198;" /><glyph d="M631 109H614C604 80 569 62 503 62H348L418 255H610L624 297H433C457 368 475 434 483 482C531 470 614 442 676 442C720 442 752 456 752 532H741C729 519 709 513 660 515C546 520 417 525 364 525L177 375C61 282 -25 188 -25 105C-25 62 -3 26 26 0H54C60 75 73 137 99 193H299L290 154C278 102 274 63 275 22C339 22 454 -10 521 -10C593 -10 625 38 631 109ZM308 231H119C147 276 184 319 235 361L363 470Z" glyph-name="AE.small" horiz-adv-x="732" /><glyph d="M776 116H757C745 85 691 74 618 74H432C485 249 505 328 508 338H746L761 393H524C541 475 560 573 567 638C622 626 738 593 816 593C872 593 907 615 907 697H896C884 681 860 676 806 676C738 676 536 690 436 694L234 490C101 353 2 248 2 128C2 78 28 35 57 0H93C99 100 115 174 147 244H373C361 173 354 25 355 25C427 16 572 -10 643 -10C725 -10 768 43 776 116ZM381 293H172C204 349 247 404 303 470L436 620ZM611 765 621 739C689 760 775 776 805 783C828 790 844 804 844 827C844 851 827 870 804 870C759 870 709 816 611 765Z" glyph-name="AEacute" horiz-adv-x="873" unicode="&#508;" /><glyph d="M631 109H614C604 80 569 62 503 62H348L418 255H610L624 297H433C457 368 475 434 483 482C531 470 614 442 676 442C720 442 752 456 752 532H741C729 519 709 513 660 515C546 520 417 525 364 525L177 375C61 282 -25 188 -25 105C-25 62 -3 26 26 0H54C60 75 73 137 99 193H299L290 154C278 102 274 63 275 22C339 22 454 -10 521 -10C593 -10 625 38 631 109ZM308 231H119C147 276 184 319 235 361L363 470ZM505 623 520 604C636 686 719 708 719 756C719 776 701 794 679 794C637 794 605 720 505 623Z" glyph-name="AEacute.small" horiz-adv-x="732" /><glyph d="M93 0C105 205 153 315 304 466L456 620L394 249C381 173 365 76 365 0H405C457 175 550 340 550 491C550 568 535 628 502 694H456L235 486C106 364 2 248 2 128C2 78 28 35 57 0ZM439 244V293H101V244ZM408 765 418 739C486 760 572 776 602 783C625 790 641 804 641 827C641 851 624 870 601 870C556 870 506 816 408 765Z" glyph-name="Aacute" horiz-adv-x="610" unicode="&#193;" /><glyph d="M265 0H295C346 143 446 230 446 370C446 432 427 483 397 525H364L177 375C61 282 -25 188 -25 105C-25 62 -3 26 26 0H54C60 74 74 136 100 191H299L290 154C278 101 264 41 265 0ZM308 231H121C148 275 185 316 235 358L363 467ZM351 623 366 604C482 686 565 708 565 756C565 776 547 794 525 794C483 794 451 720 351 623Z" glyph-name="Aacute.small" horiz-adv-x="511" /><glyph d="M93 0C105 205 153 315 304 466L456 620L394 249C381 173 365 76 365 0H405C457 175 550 340 550 491C550 568 535 628 502 694H456L235 486C106 364 2 248 2 128C2 78 28 35 57 0ZM439 244V293H101V244ZM415 880C393 853 384 825 389 795C394 765 421 736 486 736C591 736 664 803 694 880H661C632 835 582 796 516 796C447 796 437 838 443 880Z" glyph-name="Abreve" horiz-adv-x="610" unicode="&#258;" /><glyph d="M265 0H295C346 143 446 230 446 370C446 432 427 483 397 525H364L177 375C61 282 -25 188 -25 105C-25 62 -3 26 26 0H54C60 74 74 136 100 191H299L290 154C278 101 264 41 265 0ZM308 231H121C148 275 185 316 235 358L363 467ZM400 624C519 624 601 717 626 796H594C564 750 514 693 439 693C357 693 355 753 359 796H334C311 761 301 731 306 696C311 659 336 624 400 624Z" glyph-name="Abreve.small" horiz-adv-x="511" /><glyph d="M93 0C105 205 153 315 304 466L456 620L394 249C381 173 365 76 365 0H405C457 175 550 340 550 491C550 568 535 628 502 694H456L235 486C106 364 2 248 2 128C2 78 28 35 57 0ZM439 244V293H101V244ZM329 759 345 731 503 803C525 783 589 740 621 730L642 751C615 783 580 840 563 878H538Z" glyph-name="Acircumflex" horiz-adv-x="610" unicode="&#194;" /><glyph d="M265 0H295C346 143 446 230 446 370C446 432 427 483 397 525H364L177 375C61 282 -25 188 -25 105C-25 62 -3 26 26 0H54C60 74 74 136 100 191H299L290 154C278 101 264 41 265 0ZM308 231H121C148 275 185 316 235 358L363 467ZM229 631 243 604 422 720C441 690 502 621 530 606L555 624C528 674 498 755 487 806H461Z" glyph-name="Acircumflex.small" horiz-adv-x="511" /><glyph d="M93 0C105 205 153 315 304 466L456 620L394 249C381 173 365 76 365 0H405C457 175 550 340 550 491C550 568 535 628 502 694H456L235 486C106 364 2 248 2 128C2 78 28 35 57 0ZM439 244V293H101V244ZM357 788C357 766 371 749 397 749C429 749 459 772 459 807C459 830 444 847 418 847C387 847 357 825 357 788ZM535 788C535 766 549 749 575 749C607 749 636 772 636 807C636 830 622 847 595 847C565 847 535 825 535 788Z" glyph-name="Adieresis" horiz-adv-x="610" unicode="&#196;" /><glyph d="M265 0H295C346 143 446 230 446 370C446 432 427 483 397 525H364L177 375C61 282 -25 188 -25 105C-25 62 -3 26 26 0H54C60 74 74 136 100 191H299L290 154C278 101 264 41 265 0ZM308 231H121C148 275 185 316 235 358L363 467ZM271 705C271 684 285 666 311 666C344 666 373 689 373 725C373 748 358 765 332 765C301 765 271 742 271 705ZM449 705C449 684 463 666 489 666C521 666 551 689 551 725C551 748 536 765 510 765C479 765 449 742 449 705Z" glyph-name="Adieresis.small" horiz-adv-x="511" /><glyph d="M93 0C105 205 153 315 304 466L456 620L394 249C381 173 365 76 365 0H405C457 175 550 340 550 491C550 568 535 628 502 694H456L235 486C106 364 2 248 2 128C2 78 28 35 57 0ZM439 244V293H101V244ZM315 823C315 776 410 771 504 733L517 755C447 809 399 869 359 869C329 869 315 841 315 823Z" glyph-name="Agrave" horiz-adv-x="610" unicode="&#192;" /><glyph d="M265 0H295C346 143 446 230 446 370C446 432 427 483 397 525H364L177 375C61 282 -25 188 -25 105C-25 62 -3 26 26 0H54C60 74 74 136 100 191H299L290 154C278 101 264 41 265 0ZM308 231H121C148 275 185 316 235 358L363 467ZM249 757C249 715 327 674 394 604L414 623C359 706 338 799 294 799C270 799 249 777 249 757Z" glyph-name="Agrave.small" horiz-adv-x="511" /><glyph d="M93 0C105 205 153 315 304 466L456 620L394 249C381 173 365 76 365 0H405C457 175 550 340 550 491C550 568 535 628 502 694H456L235 486C106 364 2 248 2 128C2 78 28 35 57 0ZM439 244V293H101V244ZM367 833 341 776H629L655 833Z" glyph-name="Amacron" horiz-adv-x="610" unicode="&#256;" /><glyph d="M265 0H295C346 143 446 230 446 370C446 432 427 483 397 525H364L177 375C61 282 -25 188 -25 105C-25 62 -3 26 26 0H54C60 74 74 136 100 191H299L290 154C278 101 264 41 265 0ZM308 231H121C148 275 185 316 235 358L363 467ZM284 754 257 696H545L571 754Z" glyph-name="Amacron.small" horiz-adv-x="511" /><glyph d="M265 -139C265 -179 287 -209 335 -209C396 -209 424 -170 433 -116H412C406 -139 391 -157 366 -157C345 -157 337 -143 337 -122C337 -84 362 -42 405 0L393 22C318 -36 265 -76 265 -139ZM93 0C105 205 153 315 304 466L456 620L394 249C381 173 365 76 365 0H405C457 175 550 340 550 491C550 568 535 628 502 694H456L235 486C106 364 2 248 2 128C2 78 28 35 57 0ZM439 244V293H101V244Z" glyph-name="Aogonek" horiz-adv-x="610" unicode="&#260;" /><glyph d="M151 -139C151 -179 173 -209 221 -209C282 -209 310 -170 320 -116H298C292 -139 277 -157 252 -157C231 -157 223 -143 223 -122C223 -84 252 -42 295 0L279 22C205 -36 151 -76 151 -139ZM265 0H295C346 143 446 230 446 370C446 432 427 483 397 525H364L177 375C61 282 -25 188 -25 105C-25 62 -3 26 26 0H54C60 74 74 136 100 191H299L290 154C278 101 264 41 265 0ZM308 231H121C148 275 185 316 235 358L363 467Z" glyph-name="Aogonek.small" horiz-adv-x="511" /><glyph d="M93 0C105 205 153 315 304 466L456 620L394 249C381 173 365 76 365 0H405C457 175 550 340 550 491C550 568 535 628 502 694H456L235 486C106 364 2 248 2 128C2 78 28 35 57 0ZM439 244V293H101V244ZM389 805C389 756 419 718 486 718C556 718 610 766 610 830C610 879 576 917 513 917C441 917 389 866 389 805ZM551 825C551 787 527 756 493 756C462 756 449 779 449 808C449 850 473 879 507 879C537 879 551 855 551 825Z" glyph-name="Aring" horiz-adv-x="610" unicode="&#197;" /><glyph d="M265 0H295C346 143 446 230 446 370C446 432 427 483 397 525H364L177 375C61 282 -25 188 -25 105C-25 62 -3 26 26 0H54C60 74 74 136 100 191H299L290 154C278 101 264 41 265 0ZM308 231H121C148 275 185 316 235 358L363 467ZM301 711C301 657 339 623 400 623C471 623 526 671 526 737C526 787 490 826 427 826C354 826 301 774 301 711ZM467 736C467 702 445 660 405 660C370 660 359 683 359 712C359 757 387 788 422 788C453 788 467 766 467 736Z" glyph-name="Aring.small" horiz-adv-x="511" /><glyph d="M93 0C105 205 153 315 304 466L456 620L394 249C381 173 365 76 365 0H405C457 175 550 340 550 491C550 568 535 628 502 694H456L235 486C106 364 2 248 2 128C2 78 28 35 57 0ZM439 244V293H101V244ZM377 745C377 696 407 658 474 658C544 658 598 706 598 770C598 819 564 857 501 857C429 857 377 806 377 745ZM539 765C539 727 515 696 481 696C450 696 437 719 437 748C437 790 461 819 495 819C525 819 539 795 539 765ZM426 902 436 876C504 897 590 913 620 920C643 927 659 941 659 964C659 988 642 1007 619 1007C574 1007 524 953 426 902Z" glyph-name="Aringacute" horiz-adv-x="610" unicode="&#506;" /><glyph d="M265 0H295C346 143 446 230 446 370C446 432 427 483 397 525H364L177 375C61 282 -25 188 -25 105C-25 62 -3 26 26 0H54C60 74 74 136 100 191H299L290 154C278 101 264 41 265 0ZM308 231H121C148 275 185 316 235 358L363 467ZM297 670C297 616 335 582 396 582C467 582 522 630 522 696C522 746 486 785 423 785C350 785 297 733 297 670ZM463 695C463 661 441 619 401 619C366 619 355 642 355 671C355 716 383 747 418 747C449 747 463 725 463 695ZM374 854 384 828C452 849 538 865 568 872C591 879 607 893 607 916C607 940 590 959 567 959C522 959 472 905 374 854Z" glyph-name="Aringacute.small" horiz-adv-x="511" /><glyph d="M93 0C105 205 153 315 304 466L456 620L394 249C381 173 365 76 365 0H405C457 175 550 340 550 491C550 568 535 628 502 694H456L235 486C106 364 2 248 2 128C2 78 28 35 57 0ZM439 244V293H101V244ZM588 804C535 804 523 872 442 872C373 872 326 832 326 745H353C359 784 368 809 406 809C464 809 474 742 550 742C619 742 668 780 668 869H640C636 829 626 804 588 804Z" glyph-name="Atilde" horiz-adv-x="610" unicode="&#195;" /><glyph d="M265 0H295C346 143 446 230 446 370C446 432 427 483 397 525H364L177 375C61 282 -25 188 -25 105C-25 62 -3 26 26 0H54C60 74 74 136 100 191H299L290 154C278 101 264 41 265 0ZM308 231H121C148 275 185 316 235 358L363 467ZM236 644H269C273 687 282 716 321 716C377 716 390 642 468 642C535 642 582 679 582 774H548C545 731 536 704 497 704C445 704 432 778 349 778C279 778 236 742 236 644Z" glyph-name="Atilde.small" horiz-adv-x="511" /><glyph d="M50 0C121 0 186 -5 239 -5C404 -5 542 72 542 210C542 296 480 350 366 359C490 368 623 416 623 545C623 643 541 695 409 695C360 695 253 690 228 690C174 528 45 337 45 122C45 83 47 47 50 0ZM376 645C476 645 512 623 512 575C512 544 499 528 478 478C447 405 391 391 287 391H224C253 503 266 559 280 638C310 643 349 645 376 645ZM276 336C389 336 432 310 432 260C432 232 418 211 404 166C378 84 346 46 215 46C185 46 142 50 116 54L209 336Z" glyph-name="B" horiz-adv-x="640" unicode="B" /><glyph d="M13 0C77 0 125 -4 173 -4C311 -4 422 58 422 163C422 224 371 266 284 271C385 277 495 316 495 419C495 488 431 529 327 529C283 529 197 524 174 524C122 394 5 296 5 111C5 75 8 38 13 0ZM302 489C371 489 397 471 397 441C397 415 387 410 367 360C341 296 296 295 215 295H163C189 369 202 419 214 484C241 488 278 489 302 489ZM205 255C292 255 324 239 324 204C324 178 312 164 298 131C274 77 260 37 154 37C131 37 92 41 68 43L149 255Z" glyph-name="B.small" horiz-adv-x="523" /><glyph d="M44 204C44 57 134 -10 273 -10C434 -10 537 87 537 221H488C474 120 411 45 278 45C165 45 137 93 137 144C137 213 177 216 235 360C270 454 283 511 311 569C332 612 368 650 454 650C525 650 556 616 556 574C556 531 537 499 484 491V468C495 462 508 459 523 459C581 459 620 507 620 567C620 641 573 700 455 700C225 700 44 436 44 204Z" glyph-name="C" horiz-adv-x="645" unicode="C" /><glyph d="M196 -10C321 -10 410 59 410 174H370C357 89 305 36 200 36C119 36 91 66 91 107C91 168 129 156 182 274C213 346 223 391 246 436C261 465 288 492 354 492C404 492 430 473 430 437C430 406 412 385 372 372V351C381 345 393 342 406 342C452 342 489 374 489 424C489 484 449 533 353 533C162 533 10 341 10 155C10 58 73 -10 196 -10Z" glyph-name="C.small" horiz-adv-x="514" /><glyph d="M44 204C44 57 134 -10 273 -10C434 -10 537 87 537 221H488C474 120 411 45 278 45C165 45 137 93 137 144C137 213 177 216 235 360C270 454 283 511 311 569C332 612 368 650 454 650C525 650 556 616 556 574C556 531 537 499 484 491V468C495 462 508 459 523 459C581 459 620 507 620 567C620 641 573 700 455 700C225 700 44 436 44 204ZM419 765 429 739C497 760 583 776 613 783C636 790 652 804 652 827C652 851 635 870 612 870C567 870 517 816 419 765Z" glyph-name="Cacute" horiz-adv-x="645" unicode="&#262;" /><glyph d="M196 -10C321 -10 410 59 410 174H370C357 89 305 36 200 36C119 36 91 66 91 107C91 168 129 156 182 274C213 346 223 391 246 436C261 465 288 492 354 492C404 492 430 473 430 437C430 406 412 385 372 372V351C381 345 393 342 406 342C452 342 489 374 489 424C489 484 449 533 353 533C162 533 10 341 10 155C10 58 73 -10 196 -10ZM326 623 341 604C457 686 540 708 540 756C540 776 522 794 500 794C458 794 426 720 326 623Z" glyph-name="Cacute.small" horiz-adv-x="514" /><glyph d="M44 204C44 57 134 -10 273 -10C434 -10 537 87 537 221H488C474 120 411 45 278 45C165 45 137 93 137 144C137 213 177 216 235 360C270 454 283 511 311 569C332 612 368 650 454 650C525 650 556 616 556 574C556 531 537 499 484 491V468C495 462 508 459 523 459C581 459 620 507 620 567C620 641 573 700 455 700C225 700 44 436 44 204ZM375 855C396 831 428 797 461 731H486L694 850L679 878L524 801C481 839 446 867 410 880Z" glyph-name="Ccaron" horiz-adv-x="645" unicode="&#268;" /><glyph d="M196 -10C321 -10 410 59 410 174H370C357 89 305 36 200 36C119 36 91 66 91 107C91 168 129 156 182 274C213 346 223 391 246 436C261 465 288 492 354 492C404 492 430 473 430 437C430 406 412 385 372 372V351C381 345 393 342 406 342C452 342 489 374 489 424C489 484 449 533 353 533C162 533 10 341 10 155C10 58 73 -10 196 -10ZM285 784C306 750 338 679 360 602H386L618 776L604 803L425 684C393 738 348 792 320 806Z" glyph-name="Ccaron.small" horiz-adv-x="514" /><glyph d="M44 204C44 57 134 -10 273 -10C434 -10 537 87 537 221H488C474 120 411 45 278 45C165 45 137 93 137 144C137 213 177 216 235 360C270 454 283 511 311 569C332 612 368 650 454 650C525 650 556 616 556 574C556 531 537 499 484 491V468C495 462 508 459 523 459C581 459 620 507 620 567C620 641 573 700 455 700C225 700 44 436 44 204ZM146 -115C138 -150 149 -200 212 -200C264 -200 310 -166 310 -109C310 -62 274 -35 211 -51L227 -52L246 0L217 10L177 -66L195 -84C201 -82 208 -81 215 -81C238 -81 251 -95 251 -116C251 -146 233 -164 206 -164C176 -164 167 -143 167 -115Z" glyph-name="Ccedilla" horiz-adv-x="645" unicode="&#199;" /><glyph d="M196 -10C321 -10 410 59 410 174H370C357 89 305 36 200 36C119 36 91 66 91 107C91 168 129 156 182 274C213 346 223 391 246 436C261 465 288 492 354 492C404 492 430 473 430 437C430 406 412 385 372 372V351C381 345 393 342 406 342C452 342 489 374 489 424C489 484 449 533 353 533C162 533 10 341 10 155C10 58 73 -10 196 -10ZM118 -115C110 -150 121 -200 184 -200C236 -200 282 -166 282 -109C282 -62 246 -35 183 -51L199 -52L218 0L189 10L149 -66L167 -84C173 -82 180 -81 187 -81C210 -81 223 -95 223 -116C223 -146 205 -164 178 -164C148 -164 139 -143 139 -115Z" glyph-name="Ccedilla.small" horiz-adv-x="514" /><glyph d="M44 204C44 57 134 -10 273 -10C434 -10 537 87 537 221H488C474 120 411 45 278 45C165 45 137 93 137 144C137 213 177 216 235 360C270 454 283 511 311 569C332 612 368 650 454 650C525 650 556 616 556 574C556 531 537 499 484 491V468C495 462 508 459 523 459C581 459 620 507 620 567C620 641 573 700 455 700C225 700 44 436 44 204ZM331 759 347 731 505 803C527 783 591 740 623 730L644 751C617 783 582 840 565 878H540Z" glyph-name="Ccircumflex" horiz-adv-x="645" unicode="&#264;" /><glyph d="M196 -10C321 -10 410 59 410 174H370C357 89 305 36 200 36C119 36 91 66 91 107C91 168 129 156 182 274C213 346 223 391 246 436C261 465 288 492 354 492C404 492 430 473 430 437C430 406 412 385 372 372V351C381 345 393 342 406 342C452 342 489 374 489 424C489 484 449 533 353 533C162 533 10 341 10 155C10 58 73 -10 196 -10ZM229 631 243 604 422 720C441 690 502 621 530 606L555 624C528 674 498 755 487 806H461Z" glyph-name="Ccircumflex.small" horiz-adv-x="514" /><glyph d="M44 204C44 57 134 -10 273 -10C434 -10 537 87 537 221H488C474 120 411 45 278 45C165 45 137 93 137 144C137 213 177 216 235 360C270 454 283 511 311 569C332 612 368 650 454 650C525 650 556 616 556 574C556 531 537 499 484 491V468C495 462 508 459 523 459C581 459 620 507 620 567C620 641 573 700 455 700C225 700 44 436 44 204ZM445 798C445 767 470 742 500 742C531 742 557 767 557 798C557 829 531 854 500 854C470 854 445 829 445 798Z" glyph-name="Cdotaccent" horiz-adv-x="645" unicode="&#266;" /><glyph d="M196 -10C321 -10 410 59 410 174H370C357 89 305 36 200 36C119 36 91 66 91 107C91 168 129 156 182 274C213 346 223 391 246 436C261 465 288 492 354 492C404 492 430 473 430 437C430 406 412 385 372 372V351C381 345 393 342 406 342C452 342 489 374 489 424C489 484 449 533 353 533C162 533 10 341 10 155C10 58 73 -10 196 -10ZM395 642C431 642 458 667 458 705C458 733 437 753 407 753C372 753 344 728 344 689C344 661 366 642 395 642Z" glyph-name="Cdotaccent.small" horiz-adv-x="514" /><glyph d="M225 690C167 534 45 318 45 118V0H204C486 0 671 231 671 441C671 560 611 690 387 690ZM120 52 197 291C236 411 268 548 282 639H393C518 639 558 567 558 501C558 441 546 429 495 283C431 100 342 52 176 52Z" glyph-name="D" horiz-adv-x="714" unicode="D" /><glyph d="M5 105C5 79 6 19 8 0H149C367 0 527 173 527 336C527 422 479 525 305 525H172C114 395 5 290 5 105ZM73 43 147 256C180 352 206 420 217 483H292C391 483 426 445 426 390C426 336 405 334 362 211C310 62 241 43 114 43Z" glyph-name="D.small" horiz-adv-x="582" /><glyph d="M225 690C167 534 45 318 45 118V0H204C486 0 671 231 671 441C671 560 611 690 387 690ZM120 52 197 291C236 411 268 548 282 639H393C518 639 558 567 558 501C558 441 546 429 495 283C431 100 342 52 176 52ZM323 855C344 831 376 797 409 731H434L642 850L627 878L472 801C429 839 394 867 358 880Z" glyph-name="Dcaron" horiz-adv-x="714" unicode="&#270;" /><glyph d="M5 105C5 79 6 19 8 0H149C367 0 527 173 527 336C527 422 479 525 305 525H172C114 395 5 290 5 105ZM73 43 147 256C180 352 206 420 217 483H292C391 483 426 445 426 390C426 336 405 334 362 211C310 62 241 43 114 43ZM258 784C279 750 311 679 333 602H359L591 776L577 803L398 684C366 738 321 792 293 806Z" glyph-name="Dcaron.small" horiz-adv-x="582" /><glyph d="M12 394 -10 339H364L386 394ZM225 690C167 534 45 318 45 118V0H204C486 0 671 231 671 441C671 560 611 690 387 690ZM120 52 197 291C236 411 268 548 282 639H393C518 639 558 567 558 501C558 441 546 429 495 283C431 100 342 52 176 52Z" glyph-name="Dcroat" horiz-adv-x="714" unicode="&#272;" /><glyph d="M-8 292 -20 252H279L291 292ZM16 105C16 79 17 19 19 0H160C378 0 538 173 538 336C538 422 490 525 316 525H183C125 395 16 290 16 105ZM84 43 158 256C191 352 217 420 228 483H303C402 483 437 445 437 390C437 336 416 334 373 211C321 62 252 43 125 43Z" glyph-name="Dcroat.small" horiz-adv-x="593" /><glyph d="M466 60H107L290 577ZM30 0H605V37L378 692H269L30 37Z" glyph-name="Delta" horiz-adv-x="675" unicode="&#8710;" /><glyph d="M474 116H455C443 85 389 74 316 74H118L206 338H444L459 393H222C246 480 266 573 273 638C328 626 436 593 514 593C570 593 605 615 605 697H594C582 681 558 673 504 676L240 690C191 534 45 350 45 152C45 113 47 76 58 24C130 16 270 -10 341 -10C423 -10 466 43 474 116Z" glyph-name="E" horiz-adv-x="571" unicode="E" /><glyph d="M361 109H344C334 80 299 62 233 62H78L148 253H340L354 297H163C187 368 205 434 213 482C261 470 344 442 406 442C450 442 482 456 482 532H471C459 519 439 512 390 515L187 525C134 381 5 299 5 132C5 95 10 57 20 22C89 17 184 -10 251 -10C323 -10 355 38 361 109Z" glyph-name="E.small" horiz-adv-x="462" /><glyph d="M474 116H455C443 85 389 74 316 74H118L206 338H444L459 393H222C246 480 266 573 273 638C328 626 436 593 514 593C570 593 605 615 605 697H594C582 681 558 673 504 676L240 690C191 534 45 350 45 152C45 113 47 76 58 24C130 16 270 -10 341 -10C423 -10 466 43 474 116ZM372 765 382 739C450 760 536 776 566 783C589 790 605 804 605 827C605 851 588 870 565 870C520 870 470 816 372 765Z" glyph-name="Eacute" horiz-adv-x="571" unicode="&#201;" /><glyph d="M361 109H344C334 80 299 62 233 62H78L148 253H340L354 297H163C187 368 205 434 213 482C261 470 344 442 406 442C450 442 482 456 482 532H471C459 519 439 512 390 515L187 525C134 381 5 299 5 132C5 95 10 57 20 22C89 17 184 -10 251 -10C323 -10 355 38 361 109ZM306 623 321 604C437 686 520 708 520 756C520 776 502 794 480 794C438 794 406 720 306 623Z" glyph-name="Eacute.small" horiz-adv-x="462" /><glyph d="M474 116H455C443 85 389 74 316 74H118L206 338H444L459 393H222C246 480 266 573 273 638C328 626 436 593 514 593C570 593 605 615 605 697H594C582 681 558 673 504 676L240 690C191 534 45 350 45 152C45 113 47 76 58 24C130 16 270 -10 341 -10C423 -10 466 43 474 116ZM357 880C335 853 326 825 331 795C336 765 363 736 428 736C533 736 606 803 636 880H603C574 835 524 796 458 796C389 796 379 838 385 880Z" glyph-name="Ebreve" horiz-adv-x="571" unicode="&#276;" /><glyph d="M361 109H344C334 80 299 62 233 62H78L148 253H340L354 297H163C187 368 205 434 213 482C261 470 344 442 406 442C450 442 482 456 482 532H471C459 519 439 512 390 515L187 525C134 381 5 299 5 132C5 95 10 57 20 22C89 17 184 -10 251 -10C323 -10 355 38 361 109ZM351 624C470 624 552 717 577 796H545C515 750 465 693 390 693C308 693 306 753 310 796H285C262 761 252 731 257 696C262 659 287 624 351 624Z" glyph-name="Ebreve.small" horiz-adv-x="462" /><glyph d="M474 116H455C443 85 389 74 316 74H118L206 338H444L459 393H222C246 480 266 573 273 638C328 626 436 593 514 593C570 593 605 615 605 697H594C582 681 558 673 504 676L240 690C191 534 45 350 45 152C45 113 47 76 58 24C130 16 270 -10 341 -10C423 -10 466 43 474 116ZM335 855C356 831 388 797 421 731H446L654 850L639 878L484 801C441 839 406 867 370 880Z" glyph-name="Ecaron" horiz-adv-x="571" unicode="&#282;" /><glyph d="M361 109H344C334 80 299 62 233 62H78L148 253H340L354 297H163C187 368 205 434 213 482C261 470 344 442 406 442C450 442 482 456 482 532H471C459 519 439 512 390 515L187 525C134 381 5 299 5 132C5 95 10 57 20 22C89 17 184 -10 251 -10C323 -10 355 38 361 109ZM258 784C279 750 311 679 333 602H359L591 776L577 803L398 684C366 738 321 792 293 806Z" glyph-name="Ecaron.small" horiz-adv-x="462" /><glyph d="M474 116H455C443 85 389 74 316 74H118L206 338H444L459 393H222C246 480 266 573 273 638C328 626 436 593 514 593C570 593 605 615 605 697H594C582 681 558 673 504 676L240 690C191 534 45 350 45 152C45 113 47 76 58 24C130 16 270 -10 341 -10C423 -10 466 43 474 116ZM292 759 308 731 466 803C488 783 552 740 584 730L605 751C578 783 543 840 526 878H501Z" glyph-name="Ecircumflex" horiz-adv-x="571" unicode="&#202;" /><glyph d="M361 109H344C334 80 299 62 233 62H78L148 253H340L354 297H163C187 368 205 434 213 482C261 470 344 442 406 442C450 442 482 456 482 532H471C459 519 439 512 390 515L187 525C134 381 5 299 5 132C5 95 10 57 20 22C89 17 184 -10 251 -10C323 -10 355 38 361 109ZM192 631 206 604 385 720C404 690 465 621 493 606L518 624C491 674 461 755 450 806H424Z" glyph-name="Ecircumflex.small" horiz-adv-x="462" /><glyph d="M474 116H455C443 85 389 74 316 74H118L206 338H444L459 393H222C246 480 266 573 273 638C328 626 436 593 514 593C570 593 605 615 605 697H594C582 681 558 673 504 676L240 690C191 534 45 350 45 152C45 113 47 76 58 24C130 16 270 -10 341 -10C423 -10 466 43 474 116ZM312 788C312 766 326 749 352 749C384 749 414 772 414 807C414 830 399 847 373 847C342 847 312 825 312 788ZM490 788C490 766 504 749 530 749C562 749 591 772 591 807C591 830 577 847 550 847C520 847 490 825 490 788Z" glyph-name="Edieresis" horiz-adv-x="571" unicode="&#203;" /><glyph d="M361 109H344C334 80 299 62 233 62H78L148 253H340L354 297H163C187 368 205 434 213 482C261 470 344 442 406 442C450 442 482 456 482 532H471C459 519 439 512 390 515L187 525C134 381 5 299 5 132C5 95 10 57 20 22C89 17 184 -10 251 -10C323 -10 355 38 361 109ZM235 705C235 684 249 666 275 666C308 666 337 689 337 725C337 748 322 765 296 765C265 765 235 742 235 705ZM413 705C413 684 427 666 453 666C485 666 515 689 515 725C515 748 500 765 474 765C443 765 413 742 413 705Z" glyph-name="Edieresis.small" horiz-adv-x="462" /><glyph d="M474 116H455C443 85 389 74 316 74H118L206 338H444L459 393H222C246 480 266 573 273 638C328 626 436 593 514 593C570 593 605 615 605 697H594C582 681 558 673 504 676L240 690C191 534 45 350 45 152C45 113 47 76 58 24C130 16 270 -10 341 -10C423 -10 466 43 474 116ZM385 798C385 767 410 742 440 742C471 742 497 767 497 798C497 829 471 854 440 854C410 854 385 829 385 798Z" glyph-name="Edotaccent" horiz-adv-x="571" unicode="&#278;" /><glyph d="M361 109H344C334 80 299 62 233 62H78L148 253H340L354 297H163C187 368 205 434 213 482C261 470 344 442 406 442C450 442 482 456 482 532H471C459 519 439 512 390 515L187 525C134 381 5 299 5 132C5 95 10 57 20 22C89 17 184 -10 251 -10C323 -10 355 38 361 109ZM353 642C389 642 416 667 416 705C416 733 395 753 365 753C330 753 302 728 302 689C302 661 324 642 353 642Z" glyph-name="Edotaccent.small" horiz-adv-x="462" /><glyph d="M474 116H455C443 85 389 74 316 74H118L206 338H444L459 393H222C246 480 266 573 273 638C328 626 436 593 514 593C570 593 605 615 605 697H594C582 681 558 673 504 676L240 690C191 534 45 350 45 152C45 113 47 76 58 24C130 16 270 -10 341 -10C423 -10 466 43 474 116ZM300 823C300 776 395 771 489 733L502 755C432 809 384 869 344 869C314 869 300 841 300 823Z" glyph-name="Egrave" horiz-adv-x="571" unicode="&#200;" /><glyph d="M361 109H344C334 80 299 62 233 62H78L148 253H340L354 297H163C187 368 205 434 213 482C261 470 344 442 406 442C450 442 482 456 482 532H471C459 519 439 512 390 515L187 525C134 381 5 299 5 132C5 95 10 57 20 22C89 17 184 -10 251 -10C323 -10 355 38 361 109ZM240 757C240 715 318 674 385 604L405 623C350 706 329 799 285 799C261 799 240 777 240 757Z" glyph-name="Egrave.small" horiz-adv-x="462" /><glyph d="M474 116H455C443 85 389 74 316 74H118L206 338H444L459 393H222C246 480 266 573 273 638C328 626 436 593 514 593C570 593 605 615 605 697H594C582 681 558 673 504 676L240 690C191 534 45 350 45 152C45 113 47 76 58 24C130 16 270 -10 341 -10C423 -10 466 43 474 116ZM324 833 298 776H586L612 833Z" glyph-name="Emacron" horiz-adv-x="571" unicode="&#274;" /><glyph d="M361 109H344C334 80 299 62 233 62H78L148 253H340L354 297H163C187 368 205 434 213 482C261 470 344 442 406 442C450 442 482 456 482 532H471C459 519 439 512 390 515L187 525C134 381 5 299 5 132C5 95 10 57 20 22C89 17 184 -10 251 -10C323 -10 355 38 361 109ZM267 754 240 696H528L554 754Z" glyph-name="Emacron.small" horiz-adv-x="462" /><glyph d="M266 -180C380 -180 394 -97 438 -1C541 226 671 428 671 557C671 606 662 650 645 690H626L449 121C402 355 316 539 275 690H250C172 462 30 302 30 127C30 83 40 30 51 0H71L235 528C256 367 360 162 360 -10C360 -73 337 -129 275 -129C221 -129 205 -96 213 -33H173C164 -52 159 -69 159 -92C159 -145 200 -180 266 -180Z" glyph-name="Eng" horiz-adv-x="701" unicode="&#330;" /><glyph d="M215 -153C331 -153 343 -58 398 68C454 197 557 317 557 420C557 459 549 492 533 525H518L367 108C343 203 286 385 247 525H208C145 356 5 259 5 97C5 60 14 26 24 0H40L189 402C206 197 301 67 301 -20C301 -68 285 -113 222 -113C162 -113 159 -72 166 -30H133C125 -43 120 -58 120 -78C120 -116 144 -153 215 -153Z" glyph-name="Eng.small" horiz-adv-x="602" /><glyph d="M274 -135C274 -181 299 -209 347 -209C408 -209 436 -170 446 -116H424C418 -139 403 -157 378 -157C357 -157 347 -143 347 -117C347 -81 372 -28 434 24L423 36C341 -18 274 -66 274 -135ZM474 116H455C443 85 389 74 316 74H118L206 338H444L459 393H222C246 480 266 573 273 638C328 626 436 593 514 593C570 593 605 615 605 697H594C582 681 558 673 504 676L240 690C191 534 45 350 45 152C45 113 47 76 58 24C130 16 270 -10 341 -10C423 -10 466 43 474 116Z" glyph-name="Eogonek" horiz-adv-x="571" unicode="&#280;" /><glyph d="M173 -135C173 -181 198 -209 247 -209C307 -209 334 -170 344 -116H322C316 -139 301 -157 276 -157C255 -157 245 -143 245 -117C245 -81 262 -34 325 17L321 36C239 -18 173 -66 173 -135ZM361 109H344C334 80 299 62 233 62H78L148 253H340L354 297H163C187 368 205 434 213 482C261 470 344 442 406 442C450 442 482 456 482 532H471C459 519 439 512 390 515L187 525C134 381 5 299 5 132C5 95 10 57 20 22C89 17 184 -10 251 -10C323 -10 355 38 361 109Z" glyph-name="Eogonek.small" horiz-adv-x="462" /><glyph d="M12 394 -10 339H364L386 394ZM225 690C167 534 45 318 45 118V0H204C486 0 671 231 671 441C671 560 611 690 387 690ZM120 52 197 291C236 411 268 548 282 639H393C518 639 558 567 558 501C558 441 546 429 495 283C431 100 342 52 176 52Z" glyph-name="Eth" horiz-adv-x="714" unicode="&#208;" /><glyph d="M-8 292 -20 252H279L291 292ZM16 105C16 79 17 19 19 0H160C378 0 538 173 538 336C538 422 490 525 316 525H183C125 395 16 290 16 105ZM84 43 158 256C191 352 217 420 228 483H303C402 483 437 445 437 390C437 336 416 334 373 211C321 62 252 43 125 43Z" glyph-name="Eth.small" horiz-adv-x="593" /><glyph d="M92 215C92 76 164 -9 314 -9C438 -9 523 45 533 185H484C465 89 422 46 314 46C236 46 186 70 186 155C186 220 230 226 281 354C320 453 328 517 362 575C385 612 428 629 486 629C580 629 587 567 580 511H625C632.6689 527.2964 636.8918 545.4307 636.9254 563.586C637.032 621.1873 594.9692 679 487 679C261 679 92 423 92 215ZM502 438H61L45 388H486ZM456 303H25L9 253H440Z" glyph-name="Euro" horiz-adv-x="624" unicode="&#8364;" /><glyph d="M97 0C196 301 199 311 202 321H430L445 376H218C242 463 266 573 273 638C328 626 423 593 501 593C557 593 592 615 592 697H581C569 681 545 673 491 676L240 690C191 534 45 350 45 152C45 113 49 53 64 0Z" glyph-name="F" horiz-adv-x="510" unicode="F" /><glyph d="M148 240H327L341 284H161C184 350 204 425 213 481C261 469 335 441 398 441C441 441 473 455 473 531H462C450 518 430 511 382 514L187 524C132 377 5 298 5 131C5 95 11 46 26 0H58Z" glyph-name="F.small" horiz-adv-x="433" /><glyph d="M148 240H327L341 284H161C184 350 204 425 213 481C261 469 335 441 398 441C441 441 473 455 473 531H462C450 518 430 511 382 514L187 524C132 377 5 298 5 131C5 95 11 46 26 0H58ZM630 524C580 391 447 309 447 131C447 89 453 47 466 0H492L587 241C640 376 659 487 659 524Z" glyph-name="FI.small" horiz-adv-x="689" /><glyph d="M148 240H327L341 284H161C184 350 204 425 213 481C261 469 335 441 398 441C441 441 473 455 473 531H462C450 518 430 511 382 514L187 524C132 377 5 298 5 131C5 95 11 46 26 0H58ZM672 -8C747 -8 782 43 782 111H763C752 82 718 69 652 67H510L582 244C627 359 654 479 654 525H626C582 397 442 310 442 132C442 96 447 61 457 24C525 17 608 -8 672 -8Z" glyph-name="FL.small" horiz-adv-x="857" /><glyph d="M495 58C536 141 575 268 587 326H390V286C424 286 444 281 456 271C468 260 472 245 472 225C472 137 418 45 285 45C200 45 135 69 135 145C135 213 170 216 229 363C270 465 284 532 318 578C346 616 385 647 469 647C526 647 576 623 576 570C576 521 546 511 517 503V480C524 475 541 471 558 471C603 471 641 509 641 566C641 639 589 700 469 700C229 700 44 440 44 214C44 93 92 -10 276 -10C404 -10 445 60 479 60C484 60 492 59 495 58Z" glyph-name="G" horiz-adv-x="671" unicode="G" /><glyph d="M373 29C408 86 446 198 456 240H290V210C315 209 330 204 339 196C348 187 351 175 351 162C351 99 311 36 203 36C135 36 91 61 91 109C91 159 122 155 179 276C216 356 228 409 256 445C277 469 306 492 367 492C415 492 451 473 451 435C451 398 423 385 400 377V357C407 352 421 349 435 349C475 349 508 378 508 426C508 482 466 533 369 533C173 533 10 339 10 162C10 79 57 -10 200 -10C292 -10 328 38 356 38C362 38 369 33 373 29Z" glyph-name="G.small" horiz-adv-x="545" /><glyph d="M495 58C536 141 575 268 587 326H390V286C424 286 444 281 456 271C468 260 472 245 472 225C472 137 418 45 285 45C200 45 135 69 135 145C135 213 170 216 229 363C270 465 284 532 318 578C346 616 385 647 469 647C526 647 576 623 576 570C576 521 546 511 517 503V480C524 475 541 471 558 471C603 471 641 509 641 566C641 639 589 700 469 700C229 700 44 440 44 214C44 93 92 -10 276 -10C404 -10 445 60 479 60C484 60 492 59 495 58ZM427 880C405 853 396 825 401 795C406 765 433 736 498 736C603 736 676 803 706 880H673C644 835 594 796 528 796C459 796 449 838 455 880Z" glyph-name="Gbreve" horiz-adv-x="671" unicode="&#286;" /><glyph d="M373 29C408 86 446 198 456 240H290V210C315 209 330 204 339 196C348 187 351 175 351 162C351 99 311 36 203 36C135 36 91 61 91 109C91 159 122 155 179 276C216 356 228 409 256 445C277 469 306 492 367 492C415 492 451 473 451 435C451 398 423 385 400 377V357C407 352 421 349 435 349C475 349 508 378 508 426C508 482 466 533 369 533C173 533 10 339 10 162C10 79 57 -10 200 -10C292 -10 328 38 356 38C362 38 369 33 373 29ZM404 624C523 624 605 717 630 796H598C568 750 518 693 443 693C361 693 359 753 363 796H338C315 761 305 731 310 696C315 659 340 624 404 624Z" glyph-name="Gbreve.small" horiz-adv-x="545" /><glyph d="M495 58C536 141 575 268 587 326H390V286C424 286 444 281 456 271C468 260 472 245 472 225C472 137 418 45 285 45C200 45 135 69 135 145C135 213 170 216 229 363C270 465 284 532 318 578C346 616 385 647 469 647C526 647 576 623 576 570C576 521 546 511 517 503V480C524 475 541 471 558 471C603 471 641 509 641 566C641 639 589 700 469 700C229 700 44 440 44 214C44 93 92 -10 276 -10C404 -10 445 60 479 60C484 60 492 59 495 58ZM335 759 351 731 509 803C531 783 595 740 627 730L648 751C621 783 586 840 569 878H544Z" glyph-name="Gcircumflex" horiz-adv-x="671" unicode="&#284;" /><glyph d="M373 29C408 86 446 198 456 240H290V210C315 209 330 204 339 196C348 187 351 175 351 162C351 99 311 36 203 36C135 36 91 61 91 109C91 159 122 155 179 276C216 356 228 409 256 445C277 469 306 492 367 492C415 492 451 473 451 435C451 398 423 385 400 377V357C407 352 421 349 435 349C475 349 508 378 508 426C508 482 466 533 369 533C173 533 10 339 10 162C10 79 57 -10 200 -10C292 -10 328 38 356 38C362 38 369 33 373 29ZM233 631 247 604 426 720C445 690 506 621 534 606L559 624C532 674 502 755 491 806H465Z" glyph-name="Gcircumflex.small" horiz-adv-x="545" /><glyph d="M495 58C536 141 575 268 587 326H390V286C424 286 444 281 456 271C468 260 472 245 472 225C472 137 418 45 285 45C200 45 135 69 135 145C135 213 170 216 229 363C270 465 284 532 318 578C346 616 385 647 469 647C526 647 576 623 576 570C576 521 546 511 517 503V480C524 475 541 471 558 471C603 471 641 509 641 566C641 639 589 700 469 700C229 700 44 440 44 214C44 93 92 -10 276 -10C404 -10 445 60 479 60C484 60 492 59 495 58ZM176 -220 208 -232C253 -200 307 -110 316 -54H238C231 -103 197 -183 176 -220Z" glyph-name="Gcommaaccent" horiz-adv-x="671" unicode="&#290;" /><glyph d="M373 29C408 86 446 198 456 240H290V210C315 209 330 204 339 196C348 187 351 175 351 162C351 99 311 36 203 36C135 36 91 61 91 109C91 159 122 155 179 276C216 356 228 409 256 445C277 469 306 492 367 492C415 492 451 473 451 435C451 398 423 385 400 377V357C407 352 421 349 435 349C475 349 508 378 508 426C508 482 466 533 369 533C173 533 10 339 10 162C10 79 57 -10 200 -10C292 -10 328 38 356 38C362 38 369 33 373 29ZM90 -220 122 -232C167 -200 221 -110 230 -54H152C145 -103 111 -183 90 -220Z" glyph-name="Gcommaaccent.small" horiz-adv-x="545" /><glyph d="M495 58C536 141 575 268 587 326H390V286C424 286 444 281 456 271C468 260 472 245 472 225C472 137 418 45 285 45C200 45 135 69 135 145C135 213 170 216 229 363C270 465 284 532 318 578C346 616 385 647 469 647C526 647 576 623 576 570C576 521 546 511 517 503V480C524 475 541 471 558 471C603 471 641 509 641 566C641 639 589 700 469 700C229 700 44 440 44 214C44 93 92 -10 276 -10C404 -10 445 60 479 60C484 60 492 59 495 58ZM449 798C449 767 474 742 504 742C535 742 561 767 561 798C561 829 535 854 504 854C474 854 449 829 449 798Z" glyph-name="Gdotaccent" horiz-adv-x="671" unicode="&#288;" /><glyph d="M373 29C408 86 446 198 456 240H290V210C315 209 330 204 339 196C348 187 351 175 351 162C351 99 311 36 203 36C135 36 91 61 91 109C91 159 122 155 179 276C216 356 228 409 256 445C277 469 306 492 367 492C415 492 451 473 451 435C451 398 423 385 400 377V357C407 352 421 349 435 349C475 349 508 378 508 426C508 482 466 533 369 533C173 533 10 339 10 162C10 79 57 -10 200 -10C292 -10 328 38 356 38C362 38 369 33 373 29ZM399 642C435 642 462 667 462 705C462 733 441 753 411 753C376 753 348 728 348 689C348 661 370 642 399 642Z" glyph-name="Gdotaccent.small" horiz-adv-x="545" /><glyph d="M177 338H525V393H177ZM197 298C263 495 281 651 281 690H245C185 510 45 354 45 152C45 93 51 46 64 0H97ZM505 392C439 195 421 39 421 0H457C517 180 657 343 657 538C657 597 651 644 638 690H605Z" glyph-name="H" horiz-adv-x="702" unicode="H" /><glyph d="M300 0H329C379 134 512 218 512 395C512 436 504 488 493 525H466L379 297H163C201 404 217 494 217 525H188C138 391 5 309 5 129C5 88 12 37 24 0H51L147 253H363C318 132 300 34 300 0Z" glyph-name="H.small" horiz-adv-x="562" /><glyph d="M102 574 80 519H724L746 574ZM177 338H525V393H177ZM197 298C263 495 281 651 281 690H245C185 510 45 354 45 152C45 93 51 46 64 0H97ZM505 392C439 195 421 39 421 0H457C517 180 657 343 657 538C657 597 651 644 638 690H605Z" glyph-name="Hbar" horiz-adv-x="702" unicode="&#294;" /><glyph d="M57 443 45 403H578L590 443ZM300 0H329C379 134 512 218 512 395C512 436 504 488 493 525H466L379 297H163C201 404 217 494 217 525H188C138 391 5 309 5 129C5 88 12 37 24 0H51L147 253H363C318 132 300 34 300 0Z" glyph-name="Hbar.small" horiz-adv-x="562" /><glyph d="M177 338H525V393H177ZM197 298C263 495 281 651 281 690H245C185 510 45 354 45 152C45 93 51 46 64 0H97ZM505 392C439 195 421 39 421 0H457C517 180 657 343 657 538C657 597 651 644 638 690H605ZM300 759 316 731 474 803C496 783 560 740 592 730L613 751C586 783 551 840 534 878H509Z" glyph-name="Hcircumflex" horiz-adv-x="702" unicode="&#292;" /><glyph d="M300 0H329C379 134 512 218 512 395C512 436 504 488 493 525H466L379 297H163C201 404 217 494 217 525H188C138 391 5 309 5 129C5 88 12 37 24 0H51L147 253H363C318 132 300 34 300 0ZM197 631 211 604 390 720C409 690 470 621 498 606L523 624C496 674 466 755 455 806H429Z" glyph-name="Hcircumflex.small" horiz-adv-x="562" /><glyph d="M198 298C264 495 282 651 282 690H247C187 510 47 354 47 152C47 93 53 46 66 0H98Z" glyph-name="I" horiz-adv-x="303" unicode="I" /><glyph d="M193 524C143 391 10 309 10 131C10 89 16 47 29 0H55L150 241C203 376 222 487 222 524Z" glyph-name="I.small" horiz-adv-x="252" /><glyph d="M198 298C264 495 282 651 282 690H247C187 510 47 354 47 152C47 93 53 46 66 0H98ZM210 29C201 10 196 -7 196 -36C196 -86 229 -138 315 -138C466 -138 489 6 531 151C573 295 661 546 661 690H625C578 532 423 359 423 159V55C423 -7 410 -87 324 -87C247 -87 242 -34 250 29Z" glyph-name="IJ" horiz-adv-x="675" unicode="&#306;" /><glyph d="M193 524C143 391 10 309 10 131C10 89 16 47 29 0H55L150 241C203 376 222 487 222 524ZM145 0C137 -13 132 -28 132 -48C132 -86 157 -123 228 -123C350 -123 371 -13 407 99C447 223 527 426 527 525H498C458 406 314 301 314 116V14C314 -34 293 -79 235 -79C175 -79 171 -42 178 0Z" glyph-name="IJ.small" horiz-adv-x="557" /><glyph d="M198 298C264 495 282 651 282 690H247C187 510 47 354 47 152C47 93 53 46 66 0H98ZM238 765 248 739C316 760 402 776 432 783C455 790 471 804 471 827C471 851 454 870 431 870C386 870 336 816 238 765Z" glyph-name="Iacute" horiz-adv-x="303" unicode="&#205;" /><glyph d="M193 524C143 391 10 309 10 131C10 89 16 47 29 0H55L150 241C203 376 222 487 222 524ZM175 623 190 604C306 686 389 708 389 756C389 776 371 794 349 794C307 794 275 720 175 623Z" glyph-name="Iacute.small" horiz-adv-x="252" /><glyph d="M198 298C264 495 282 651 282 690H247C187 510 47 354 47 152C47 93 53 46 66 0H98ZM202 880C180 853 171 825 176 795C181 765 208 736 273 736C378 736 451 803 481 880H448C419 835 369 796 303 796C234 796 224 838 230 880Z" glyph-name="Ibreve" horiz-adv-x="303" unicode="&#300;" /><glyph d="M244 624C351 624 410 717 435 796H403C375 746 331 693 266 693C192 693 187 752 196 796H173C153 773 140 739 140 708C140 654 180 624 244 624ZM193 524C143 391 10 309 10 131C10 89 16 47 29 0H55L150 241C203 376 222 487 222 524Z" glyph-name="Ibreve.small" horiz-adv-x="252" /><glyph d="M198 298C264 495 282 651 282 690H247C187 510 47 354 47 152C47 93 53 46 66 0H98ZM113 759 129 731 287 803C309 783 373 740 405 730L426 751C399 783 364 840 347 878H322Z" glyph-name="Icircumflex" horiz-adv-x="303" unicode="&#206;" /><glyph d="M96 631 110 604 269 720C287 687 324 635 357 606L382 624C360 688 343 752 334 806H308ZM193 524C143 391 10 309 10 131C10 89 16 47 29 0H55L150 241C203 376 222 487 222 524Z" glyph-name="Icircumflex.small" horiz-adv-x="252" /><glyph d="M198 298C264 495 282 651 282 690H247C187 510 47 354 47 152C47 93 53 46 66 0H98ZM153 788C153 766 167 749 193 749C225 749 255 772 255 807C255 830 240 847 214 847C183 847 153 825 153 788ZM331 788C331 766 345 749 371 749C403 749 432 772 432 807C432 830 418 847 391 847C361 847 331 825 331 788Z" glyph-name="Idieresis" horiz-adv-x="303" unicode="&#207;" /><glyph d="M115 705C115 684 129 666 155 666C188 666 217 689 217 725C217 748 202 765 176 765C145 765 115 742 115 705ZM273 705C273 684 287 666 313 666C345 666 375 689 375 725C375 748 360 765 334 765C303 765 273 742 273 705ZM193 524C143 391 10 309 10 131C10 89 16 47 29 0H55L150 241C203 376 222 487 222 524Z" glyph-name="Idieresis.small" horiz-adv-x="252" /><glyph d="M198 298C264 495 282 651 282 690H247C187 510 47 354 47 152C47 93 53 46 66 0H98ZM225 798C225 767 250 742 280 742C311 742 337 767 337 798C337 829 311 854 280 854C250 854 225 829 225 798Z" glyph-name="Idotaccent" horiz-adv-x="303" unicode="&#304;" /><glyph d="M193 524C143 391 10 309 10 131C10 89 16 47 29 0H55L150 241C203 376 222 487 222 524ZM235 642C271 642 298 667 298 705C298 733 277 753 247 753C212 753 184 728 184 689C184 661 206 642 235 642Z" glyph-name="Idotaccent.small" horiz-adv-x="252" /><glyph d="M198 298C264 495 282 651 282 690H247C187 510 47 354 47 152C47 93 53 46 66 0H98ZM143 823C143 776 238 771 332 733L345 755C275 809 227 869 187 869C157 869 143 841 143 823Z" glyph-name="Igrave" horiz-adv-x="303" unicode="&#204;" /><glyph d="M193 524C143 391 10 309 10 131C10 89 16 47 29 0H55L150 241C203 376 222 487 222 524ZM80 757C80 715 158 674 225 604L245 623C190 706 169 799 125 799C101 799 80 777 80 757Z" glyph-name="Igrave.small" horiz-adv-x="252" /><glyph d="M198 298C264 495 282 651 282 690H247C187 510 47 354 47 152C47 93 53 46 66 0H98ZM160 833 134 776H422L448 833Z" glyph-name="Imacron" horiz-adv-x="303" unicode="&#298;" /><glyph d="M160 754 139 696H367L387 754ZM193 524C143 391 10 309 10 131C10 89 16 47 29 0H55L150 241C203 376 222 487 222 524Z" glyph-name="Imacron.small" horiz-adv-x="252" /><glyph d="M-31 -135C-31 -181 -6 -209 42 -209C103 -209 131 -170 141 -116H119C113 -139 98 -157 73 -157C52 -157 42 -144 42 -117C42 -85 58 -44 98 0L81 22C18 -34 -31 -75 -31 -135ZM198 298C264 495 282 651 282 690H247C187 510 47 354 47 152C47 93 53 46 66 0H98Z" glyph-name="Iogonek" horiz-adv-x="303" unicode="&#302;" /><glyph d="M-74 -135C-74 -181 -49 -209 0 -209C60 -209 89 -170 98 -116H77C71 -139 55 -157 31 -157C9 -157 -1 -144 -1 -117C-1 -85 16 -44 55 0L43 20C-20 -36 -74 -75 -74 -135ZM193 524C143 391 10 309 10 131C10 89 16 47 29 0H55L150 241C203 376 222 487 222 524Z" glyph-name="Iogonek.small" horiz-adv-x="252" /><glyph d="M198 298C264 495 282 651 282 690H247C187 510 47 354 47 152C47 93 53 46 66 0H98ZM393 804C340 804 328 872 247 872C178 872 131 832 131 745H158C164 784 173 809 211 809C269 809 279 742 355 742C424 742 473 780 473 869H445C441 829 431 804 393 804Z" glyph-name="Itilde" horiz-adv-x="303" unicode="&#296;" /><glyph d="M92 644H125C129 687 135 716 174 716C218 716 237 642 307 642C366 642 412 679 412 774H378C375 731 369 704 330 704C284 704 270 778 196 778C132 778 92 742 92 644ZM193 524C143 391 10 309 10 131C10 89 16 47 29 0H55L150 241C203 376 222 487 222 524Z" glyph-name="Itilde.small" horiz-adv-x="252" /><glyph d="M-73 29C-82 10 -87 -7 -87 -36C-87 -86 -54 -138 32 -138C183 -138 206 6 248 151C290 295 378 546 378 690H342C295 532 140 359 140 159V55C140 -7 127 -87 41 -87C-36 -87 -41 -34 -33 29Z" glyph-name="J" horiz-adv-x="392" unicode="J" /><glyph d="M-108 0C-116 -13 -121 -28 -121 -48C-121 -86 -96 -123 -25 -123C97 -123 118 -13 154 99C194 223 274 426 274 525H245C205 406 61 301 61 116V14C61 -34 40 -79 -18 -79C-78 -79 -82 -42 -75 0Z" glyph-name="J.small" horiz-adv-x="304" /><glyph d="M-73 29C-82 10 -87 -7 -87 -36C-87 -86 -54 -138 32 -138C183 -138 206 6 248 151C290 295 378 546 378 690H342C295 532 140 359 140 159V55C140 -7 127 -87 41 -87C-36 -87 -41 -34 -33 29ZM211 759 227 731 385 803C407 783 471 740 503 730L524 751C497 783 462 840 445 878H420Z" glyph-name="Jcircumflex" horiz-adv-x="392" unicode="&#308;" /><glyph d="M-108 0C-116 -13 -121 -28 -121 -48C-121 -86 -96 -123 -25 -123C97 -123 118 -13 154 99C194 223 274 426 274 525H245C205 406 61 301 61 116V14C61 -34 40 -79 -18 -79C-78 -79 -82 -42 -75 0ZM130 631 144 604 323 720C342 690 403 621 431 606L456 624C429 674 399 755 388 806H362Z" glyph-name="Jcircumflex.small" horiz-adv-x="304" /><glyph d="M97 0 178 240C211 337 267 369 323 369C394 369 399 316 399 296C399 231 357 183 357 109C357 43 395 2 473 2L481 28C450 33 436 43 436 65C436 114 519 163 519 272C519 314 495 406 365 405C348 405 329 403 308 399C481 522 620 577 620 641C620 663 612 679 603 690H582L221 374C258 480 281 653 281 690H245C189 515 45 363 45 144C45 106 49 50 64 0Z" glyph-name="K" horiz-adv-x="634" unicode="K" /><glyph d="M353 -2 360 23C338 27 324 33 324 49C324 85 409 108 409 209C409 250 386 316 281 316C269 316 256 316 240 313C386 395 493 428 493 487C493 503 486 515 478 525H460L162 294C196 392 216 491 216 525H187C138 392 5 309 5 125C5 90 12 37 26 0H53L123 176C150 246 200 284 248 284C300 284 306 254 306 236C306 187 256 148 256 80C256 32 281 0 353 -2Z" glyph-name="K.small" horiz-adv-x="503" /><glyph d="M97 0 178 240C211 337 267 369 323 369C394 369 399 316 399 296C399 231 357 183 357 109C357 43 395 2 473 2L481 28C450 33 436 43 436 65C436 114 519 163 519 272C519 314 495 406 365 405C348 405 329 403 308 399C481 522 620 577 620 641C620 663 612 679 603 690H582L221 374C258 480 281 653 281 690H245C189 515 45 363 45 144C45 106 49 50 64 0ZM154 -220 186 -232C231 -200 285 -110 294 -54H216C209 -103 175 -183 154 -220Z" glyph-name="Kcommaaccent" horiz-adv-x="636" unicode="&#310;" /><glyph d="M353 -2 360 23C338 27 324 33 324 49C324 85 409 108 409 209C409 250 386 316 281 316C269 316 256 316 240 313C386 395 493 428 493 487C493 503 486 515 478 525H460L162 294C196 392 216 491 216 525H187C138 392 5 309 5 125C5 90 12 37 26 0H53L123 176C150 246 200 284 248 284C300 284 306 254 306 236C306 187 256 148 256 80C256 32 281 0 353 -2ZM70 -220 102 -232C147 -200 201 -110 210 -54H132C125 -103 91 -183 70 -220Z" glyph-name="Kcommaaccent.small" horiz-adv-x="503" /><glyph d="M58 24C136 19 257 -10 328 -10C410 -10 452 48 460 121H441C429 90 375 75 302 75H119L198 309C241 437 278 618 278 690H245C196 534 45 350 45 152C45 113 47 76 58 24Z" glyph-name="L" horiz-adv-x="518" unicode="L" /><glyph d="M235 -8C310 -8 345 43 345 111H326C315 82 281 69 215 67H73L145 244C190 359 217 479 217 525H189C145 397 5 310 5 132C5 96 10 61 20 24C88 17 171 -8 235 -8Z" glyph-name="L.small" horiz-adv-x="420" /><glyph d="M58 24C136 19 257 -10 328 -10C410 -10 452 48 460 121H441C429 90 375 75 302 75H119L198 309C241 437 278 618 278 690H245C196 534 45 350 45 152C45 113 47 76 58 24ZM264 765 274 739C342 760 428 776 458 783C481 790 497 804 497 827C497 851 480 870 457 870C412 870 362 816 264 765Z" glyph-name="Lacute" horiz-adv-x="518" unicode="&#313;" /><glyph d="M235 -8C310 -8 345 43 345 111H326C315 82 281 69 215 67H73L145 244C190 359 217 479 217 525H189C145 397 5 310 5 132C5 96 10 61 20 24C88 17 171 -8 235 -8ZM194 623 209 604C325 686 408 708 408 756C408 776 390 794 368 794C326 794 294 720 194 623Z" glyph-name="Lacute.small" horiz-adv-x="420" /><glyph d="M58 24C136 19 257 -10 328 -10C410 -10 452 48 460 121H441C429 90 375 75 302 75H119L198 309C241 437 278 618 278 690H245C196 534 45 350 45 152C45 113 47 76 58 24ZM359 517 389 503C434 535 483 638 492 695H418C412 647 379 555 359 517Z" glyph-name="Lcaron" horiz-adv-x="518" unicode="&#317;" /><glyph d="M234 -8C309 -8 344 43 344 111H325C314 82 280 69 214 67H72L144 244C189 359 216 479 216 525H188C144 397 4 310 4 132C4 96 9 61 19 24C87 17 170 -8 234 -8ZM281 350 311 336C356 368 405 471 414 528H340C334 480 301 388 281 350Z" glyph-name="Lcaron.small" horiz-adv-x="420" /><glyph d="M58 24C136 19 257 -10 328 -10C410 -10 452 48 460 121H441C429 90 375 75 302 75H119L198 309C241 437 278 618 278 690H245C196 534 45 350 45 152C45 113 47 76 58 24ZM119 -220 151 -232C196 -200 250 -110 259 -54H181C174 -103 140 -183 119 -220Z" glyph-name="Lcommaaccent" horiz-adv-x="518" unicode="&#315;" /><glyph d="M235 -8C310 -8 345 43 345 111H326C315 82 281 69 215 67H73L145 244C190 359 217 479 217 525H189C145 397 5 310 5 132C5 96 10 61 20 24C88 17 171 -8 235 -8ZM70 -220 102 -232C147 -200 201 -110 210 -54H132C125 -103 91 -183 70 -220Z" glyph-name="Lcommaaccent.small" horiz-adv-x="420" /><glyph d="M58 24C136 19 257 -10 328 -10C410 -10 452 48 460 121H441C429 90 375 75 302 75H119L198 309C241 437 278 618 278 690H245C196 534 45 350 45 152C45 113 47 76 58 24ZM382 300C418 300 445 325 445 363C445 391 424 411 394 411C359 411 331 386 331 347C331 319 353 300 382 300Z" glyph-name="Ldot" horiz-adv-x="518" unicode="&#319;" /><glyph d="M235 -8C310 -8 345 43 345 111H326C315 82 281 69 215 67H73L145 244C190 359 217 479 217 525H189C145 397 5 310 5 132C5 96 10 61 20 24C88 17 171 -8 235 -8ZM275 206C311 206 338 231 338 269C338 297 317 317 287 317C252 317 224 292 224 253C224 225 246 206 275 206Z" glyph-name="Ldot.small" horiz-adv-x="420" /><glyph d="M-35 144 400 411V475L-35 210ZM62 24C140 19 261 -10 332 -10C414 -10 456 48 464 121H445C433 90 379 75 306 75H123L202 309C245 437 282 618 282 690H249C200 534 49 350 49 152C49 113 51 76 62 24Z" glyph-name="Lslash" horiz-adv-x="518" unicode="&#321;" /><glyph d="M-55 116 294 314V363L-55 165ZM235 -8C310 -8 345 43 345 111H326C315 82 281 69 215 67H73L145 244C190 359 217 479 217 525H189C145 397 5 310 5 132C5 96 10 61 20 24C88 17 171 -8 235 -8Z" glyph-name="Lslash.small" horiz-adv-x="420" /><glyph d="M321 3H343C433 166 609 433 699 547L603 250C575 163 561 49 561 0H594C668 215 789 379 789 556C789 606 786 641 775 690H745C661 605 492 373 390 185C382 352 335 571 321 690H264C189 484 40 302 40 130C40 91 49 38 60 0H81L252 549C252 363 313 84 321 3Z" glyph-name="M" horiz-adv-x="829" unicode="M" /><glyph d="M194 412C193 248 228 75 235 0H265C347 150 478 318 559 412L474 175C452 118 437 45 437 0H464C528 154 644 235 644 403C644 449 640 483 631 525H604C534 471 398 322 306 160C303 260 278 416 266 525H208C141 348 5 257 5 98C5 62 12 28 23 0H41Z" glyph-name="M.small" horiz-adv-x="694" /><glyph d="M434 -1C548 255 671 420 671 557C671 606 662 650 645 690H626L459 149C416 341 316 539 275 690H250C172 462 30 302 30 127C30 83 40 30 51 0H71L235 528C266 325 398 86 410 -1Z" glyph-name="N" horiz-adv-x="701" unicode="N" /><glyph d="M342 0C439 193 557 294 557 420C557 459 549 492 533 525H518L366 118C342 213 286 385 247 525H208C145 356 5 259 5 97C5 60 14 26 24 0H40L189 396C209 226 291 80 302 0Z" glyph-name="N.small" horiz-adv-x="602" /><glyph d="M434 -1C548 255 671 420 671 557C671 606 662 650 645 690H626L459 149C416 341 316 539 275 690H250C172 462 30 302 30 127C30 83 40 30 51 0H71L235 528C266 325 398 86 410 -1ZM409 765 419 739C487 760 573 776 603 783C626 790 642 804 642 827C642 851 625 870 602 870C557 870 507 816 409 765Z" glyph-name="Nacute" horiz-adv-x="701" unicode="&#323;" /><glyph d="M342 0C439 193 557 294 557 420C557 459 549 492 533 525H518L366 118C342 213 286 385 247 525H208C145 356 5 259 5 97C5 60 14 26 24 0H40L189 396C209 226 291 80 302 0ZM341 623 356 604C472 686 555 708 555 756C555 776 537 794 515 794C473 794 441 720 341 623Z" glyph-name="Nacute.small" horiz-adv-x="602" /><glyph d="M434 -1C548 255 671 420 671 557C671 606 662 650 645 690H626L459 149C416 341 316 539 275 690H250C172 462 30 302 30 127C30 83 40 30 51 0H71L235 528C266 325 398 86 410 -1ZM356 855C377 831 409 797 442 731H467L675 850L660 878L505 801C462 839 427 867 391 880Z" glyph-name="Ncaron" horiz-adv-x="701" unicode="&#327;" /><glyph d="M342 0C439 193 557 294 557 420C557 459 549 492 533 525H518L366 118C342 213 286 385 247 525H208C145 356 5 259 5 97C5 60 14 26 24 0H40L189 396C209 226 291 80 302 0ZM311 784C332 750 364 679 386 602H412L644 776L630 803L451 684C419 738 374 792 346 806Z" glyph-name="Ncaron.small" horiz-adv-x="602" /><glyph d="M434 -1C548 255 671 420 671 557C671 606 662 650 645 690H626L459 149C416 341 316 539 275 690H250C172 462 30 302 30 127C30 83 40 30 51 0H71L235 528C266 325 398 86 410 -1ZM136 -220 168 -232C213 -200 267 -110 276 -54H198C191 -103 157 -183 136 -220Z" glyph-name="Ncommaaccent" horiz-adv-x="701" unicode="&#325;" /><glyph d="M342 0C439 193 557 294 557 420C557 459 549 492 533 525H518L366 118C342 213 286 385 247 525H208C145 356 5 259 5 97C5 60 14 26 24 0H40L189 396C209 226 291 80 302 0ZM73 -220 105 -232C150 -200 204 -110 213 -54H135C128 -103 94 -183 73 -220Z" glyph-name="Ncommaaccent.small" horiz-adv-x="602" /><glyph d="M434 -1C548 255 671 420 671 557C671 606 662 650 645 690H626L459 149C416 341 316 539 275 690H250C172 462 30 302 30 127C30 83 40 30 51 0H71L235 528C266 325 398 86 410 -1ZM570 804C517 804 505 872 424 872C355 872 308 832 308 745H335C341 784 350 809 388 809C446 809 456 742 532 742C601 742 650 780 650 869H622C618 829 608 804 570 804Z" glyph-name="Ntilde" horiz-adv-x="701" unicode="&#209;" /><glyph d="M342 0C439 193 557 294 557 420C557 459 549 492 533 525H518L366 118C342 213 286 385 247 525H208C145 356 5 259 5 97C5 60 14 26 24 0H40L189 396C209 226 291 80 302 0ZM258 644H291C295 687 304 716 343 716C399 716 412 642 490 642C557 642 604 679 604 774H570C567 731 558 704 519 704C467 704 454 778 371 778C301 778 258 742 258 644Z" glyph-name="Ntilde.small" horiz-adv-x="602" /><glyph d="M443 699C211 699 44 420 44 232C44 81 104 -9 273 -9C500 -9 666 269 666 458C666 597 604 699 443 699ZM503 331C456 175 420 41 272 41C185 41 137 83 137 151C137 203 168 238 212 359C265 507 300 649 437 649C516 649 575 610 575 539C575 486 544 452 503 331Z" glyph-name="O" horiz-adv-x="710" unicode="O" /><glyph d="M10 170C10 79 63 -10 198 -10C388 -10 518 200 518 355C518 439 473 533 333 533C137 533 10 321 10 170ZM367 246C324 130 318 30 199 30C133 30 101 59 101 105C101 160 120 162 163 270C211 390 218 493 331 493C393 493 427 460 427 415C427 359 407 355 367 246Z" glyph-name="O.small" horiz-adv-x="573" /><glyph d="M44 232C44 81 104 -9 273 -9C500 -9 646 269 646 458C646 597 604 699 443 699C211 699 44 420 44 232ZM503 331C456 175 420 41 272 41C185 41 137 83 137 151C137 203 168 238 212 359C265 507 300 649 437 649C516 649 575 610 575 539C575 486 544 452 503 331ZM898 110 883 116C871 85 817 74 744 74H546C628 318 631 328 634 338H872L887 393H650C674 480 694 573 701 638C756 626 864 593 942 593C998 593 1033 615 1033 697H1022C1010 681 986 673 932 676L668 690C619 534 473 350 473 152C473 113 475 76 486 24C558 16 698 -10 769 -10C851 -10 890 37 898 110Z" glyph-name="OE" horiz-adv-x="999" unicode="&#338;" /><glyph d="M367 246C324 130 317 27 198 27C132 27 100 55 100 101C100 156 120 162 163 270C211 390 218 496 331 496C393 496 427 464 427 419C427 363 407 355 367 246ZM701 109H684C674 80 639 62 573 62H418L488 255H680L694 297H503C527 368 545 434 553 482C601 470 684 442 746 442C790 442 822 456 822 532H811C799 519 779 512 730 515L527 525C516 494 501 467 486 440C468 492 425 533 333 533C137 533 10 321 10 170C10 79 63 -10 198 -10C260 -10 314 15 358 54C360 42 363 30 366 19C435 14 524 -10 591 -10C663 -10 695 38 701 109Z" glyph-name="OE.small" horiz-adv-x="802" /><glyph d="M443 699C211 699 44 420 44 232C44 81 104 -9 273 -9C500 -9 666 269 666 458C666 597 604 699 443 699ZM503 331C456 175 420 41 272 41C185 41 137 83 137 151C137 203 168 238 212 359C265 507 300 649 437 649C516 649 575 610 575 539C575 486 544 452 503 331ZM448 765 458 739C526 760 612 776 642 783C665 790 681 804 681 827C681 851 664 870 641 870C596 870 546 816 448 765Z" glyph-name="Oacute" horiz-adv-x="710" unicode="&#211;" /><glyph d="M10 170C10 79 63 -10 198 -10C388 -10 518 200 518 355C518 439 473 533 333 533C137 533 10 321 10 170ZM367 246C324 130 318 30 199 30C133 30 101 59 101 105C101 160 120 162 163 270C211 390 218 493 331 493C393 493 427 460 427 415C427 359 407 355 367 246ZM344 623 359 604C475 686 558 708 558 756C558 776 540 794 518 794C476 794 444 720 344 623Z" glyph-name="Oacute.small" horiz-adv-x="573" /><glyph d="M443 699C211 699 44 420 44 232C44 81 104 -9 273 -9C500 -9 666 269 666 458C666 597 604 699 443 699ZM503 331C456 175 420 41 272 41C185 41 137 83 137 151C137 203 168 238 212 359C265 507 300 649 437 649C516 649 575 610 575 539C575 486 544 452 503 331ZM413 880C391 853 382 825 387 795C392 765 419 736 484 736C589 736 662 803 692 880H659C630 835 580 796 514 796C445 796 435 838 441 880Z" glyph-name="Obreve" horiz-adv-x="710" unicode="&#334;" /><glyph d="M10 170C10 79 63 -10 198 -10C388 -10 518 200 518 355C518 439 473 533 333 533C137 533 10 321 10 170ZM367 246C324 130 318 30 199 30C133 30 101 59 101 105C101 160 120 162 163 270C211 390 218 493 331 493C393 493 427 460 427 415C427 359 407 355 367 246ZM381 624C500 624 582 717 607 796H575C545 750 495 693 420 693C338 693 336 753 340 796H315C292 761 282 731 287 696C292 659 317 624 381 624Z" glyph-name="Obreve.small" horiz-adv-x="573" /><glyph d="M443 699C211 699 44 420 44 232C44 81 104 -9 273 -9C500 -9 666 269 666 458C666 597 604 699 443 699ZM503 331C456 175 420 41 272 41C185 41 137 83 137 151C137 203 168 238 212 359C265 507 300 649 437 649C516 649 575 610 575 539C575 486 544 452 503 331ZM336 759 352 731 510 803C532 783 596 740 628 730L649 751C622 783 587 840 570 878H545Z" glyph-name="Ocircumflex" horiz-adv-x="710" unicode="&#212;" /><glyph d="M10 170C10 79 63 -10 198 -10C388 -10 518 200 518 355C518 439 473 533 333 533C137 533 10 321 10 170ZM367 246C324 130 318 30 199 30C133 30 101 59 101 105C101 160 120 162 163 270C211 390 218 493 331 493C393 493 427 460 427 415C427 359 407 355 367 246ZM225 631 239 604 418 720C437 690 498 621 526 606L551 624C524 674 494 755 483 806H457Z" glyph-name="Ocircumflex.small" horiz-adv-x="573" /><glyph d="M443 699C211 699 44 420 44 232C44 81 104 -9 273 -9C500 -9 666 269 666 458C666 597 604 699 443 699ZM503 331C456 175 420 41 272 41C185 41 137 83 137 151C137 203 168 238 212 359C265 507 300 649 437 649C516 649 575 610 575 539C575 486 544 452 503 331ZM354 788C354 766 368 749 394 749C426 749 456 772 456 807C456 830 441 847 415 847C384 847 354 825 354 788ZM532 788C532 766 546 749 572 749C604 749 633 772 633 807C633 830 619 847 592 847C562 847 532 825 532 788Z" glyph-name="Odieresis" horiz-adv-x="710" unicode="&#214;" /><glyph d="M10 170C10 79 63 -10 198 -10C388 -10 518 200 518 355C518 439 473 533 333 533C137 533 10 321 10 170ZM367 246C324 130 318 30 199 30C133 30 101 59 101 105C101 160 120 162 163 270C211 390 218 493 331 493C393 493 427 460 427 415C427 359 407 355 367 246ZM269 705C269 684 283 666 309 666C342 666 371 689 371 725C371 748 356 765 330 765C299 765 269 742 269 705ZM447 705C447 684 461 666 487 666C519 666 549 689 549 725C549 748 534 765 508 765C477 765 447 742 447 705Z" glyph-name="Odieresis.small" horiz-adv-x="573" /><glyph d="M443 699C211 699 44 420 44 232C44 81 104 -9 273 -9C500 -9 666 269 666 458C666 597 604 699 443 699ZM503 331C456 175 420 41 272 41C185 41 137 83 137 151C137 203 168 238 212 359C265 507 300 649 437 649C516 649 575 610 575 539C575 486 544 452 503 331ZM354 823C354 776 449 771 543 733L556 755C486 809 438 869 398 869C368 869 354 841 354 823Z" glyph-name="Ograve" horiz-adv-x="710" unicode="&#210;" /><glyph d="M10 170C10 79 63 -10 198 -10C388 -10 518 200 518 355C518 439 473 533 333 533C137 533 10 321 10 170ZM367 246C324 130 318 30 199 30C133 30 101 59 101 105C101 160 120 162 163 270C211 390 218 493 331 493C393 493 427 460 427 415C427 359 407 355 367 246ZM274 757C274 715 352 674 419 604L439 623C384 706 363 799 319 799C295 799 274 777 274 757Z" glyph-name="Ograve.small" horiz-adv-x="573" /><glyph d="M443 699C211 699 44 420 44 232C44 81 104 -9 273 -9C500 -9 666 269 666 458C666 597 604 699 443 699ZM503 331C456 175 420 41 272 41C185 41 137 83 137 151C137 203 168 238 212 359C265 507 300 649 437 649C516 649 575 610 575 539C575 486 544 452 503 331ZM371 740 399 716 582 846 507 881ZM548 740 576 716 758 846 684 881Z" glyph-name="Ohungarumlaut" horiz-adv-x="710" unicode="&#336;" /><glyph d="M10 170C10 79 63 -10 198 -10C388 -10 518 200 518 355C518 439 473 533 333 533C137 533 10 321 10 170ZM367 246C324 130 318 30 199 30C133 30 101 59 101 105C101 160 120 162 163 270C211 390 218 493 331 493C393 493 427 460 427 415C427 359 407 355 367 246ZM270 625 296 602 468 770 400 814ZM443 625 469 602 644 763 579 811Z" glyph-name="Ohungarumlaut.small" horiz-adv-x="573" /><glyph d="M443 699C211 699 44 420 44 232C44 81 104 -9 273 -9C500 -9 666 269 666 458C666 597 604 699 443 699ZM503 331C456 175 420 41 272 41C185 41 137 83 137 151C137 203 168 238 212 359C265 507 300 649 437 649C516 649 575 610 575 539C575 486 544 452 503 331ZM396 833 370 776H658L684 833Z" glyph-name="Omacron" horiz-adv-x="710" unicode="&#332;" /><glyph d="M10 170C10 79 63 -10 198 -10C388 -10 518 200 518 355C518 439 473 533 333 533C137 533 10 321 10 170ZM367 246C324 130 318 30 199 30C133 30 101 59 101 105C101 160 120 162 163 270C211 390 218 493 331 493C393 493 427 460 427 415C427 359 407 355 367 246ZM282 754 255 696H543L569 754Z" glyph-name="Omacron.small" horiz-adv-x="573" /><glyph d="M377 697C172 697 53 553 53 372C53 157 222 84 254 75V63H68V0H305V96C302 97 172 183 172 367C172 516 226 648 377 648C528 648 581 516 581 367C581 183 452 97 448 96V0H686V63H499V75C531 84 701 157 701 372C701 553 582 697 377 697Z" glyph-name="Omega" horiz-adv-x="744" unicode="&#8486;" /><glyph d="M602 699 30 -7H109L680 699ZM443 699C211 699 44 420 44 232C44 81 104 -9 273 -9C500 -9 666 269 666 458C666 597 604 699 443 699ZM503 331C456 175 420 41 272 41C185 41 137 83 137 151C137 203 168 238 212 359C265 507 300 649 437 649C516 649 575 610 575 539C575 486 544 452 503 331Z" glyph-name="Oslash" horiz-adv-x="710" unicode="&#216;" /><glyph d="M474 533 10 -10H55L519 533ZM10 170C10 79 63 -10 198 -10C388 -10 518 200 518 355C518 439 473 533 333 533C137 533 10 321 10 170ZM367 246C324 130 318 30 199 30C133 30 101 59 101 105C101 160 120 162 163 270C211 390 218 493 331 493C393 493 427 460 427 415C427 359 407 355 367 246Z" glyph-name="Oslash.small" horiz-adv-x="573" /><glyph d="M602 699 30 -7H109L680 699ZM443 699C211 699 44 420 44 232C44 81 104 -9 273 -9C500 -9 666 269 666 458C666 597 604 699 443 699ZM503 331C456 175 420 41 272 41C185 41 137 83 137 151C137 203 168 238 212 359C265 507 300 649 437 649C516 649 575 610 575 539C575 486 544 452 503 331ZM448 765 458 739C526 760 612 776 642 783C665 790 681 804 681 827C681 851 664 870 641 870C596 870 546 816 448 765Z" glyph-name="Oslashacute" horiz-adv-x="710" unicode="&#510;" /><glyph d="M474 533 10 -10H55L519 533ZM10 170C10 79 63 -10 198 -10C388 -10 518 200 518 355C518 439 473 533 333 533C137 533 10 321 10 170ZM367 246C324 130 318 30 199 30C133 30 101 59 101 105C101 160 120 162 163 270C211 390 218 493 331 493C393 493 427 460 427 415C427 359 407 355 367 246ZM327 623 342 604C458 686 541 708 541 756C541 776 523 794 501 794C459 794 427 720 327 623Z" glyph-name="Oslashacute.small" horiz-adv-x="573" /><glyph d="M443 699C211 699 44 420 44 232C44 81 104 -9 273 -9C500 -9 666 269 666 458C666 597 604 699 443 699ZM503 331C456 175 420 41 272 41C185 41 137 83 137 151C137 203 168 238 212 359C265 507 300 649 437 649C516 649 575 610 575 539C575 486 544 452 503 331ZM612 804C559 804 547 872 466 872C397 872 350 832 350 745H377C383 784 392 809 430 809C488 809 498 742 574 742C643 742 692 780 692 869H664C660 829 650 804 612 804Z" glyph-name="Otilde" horiz-adv-x="710" unicode="&#213;" /><glyph d="M10 170C10 79 63 -10 198 -10C388 -10 518 200 518 355C518 439 473 533 333 533C137 533 10 321 10 170ZM367 246C324 130 318 30 199 30C133 30 101 59 101 105C101 160 120 162 163 270C211 390 218 493 331 493C393 493 427 460 427 415C427 359 407 355 367 246ZM242 644H275C279 687 288 716 327 716C383 716 396 642 474 642C541 642 588 679 588 774H554C551 731 542 704 503 704C451 704 438 778 355 778C285 778 242 742 242 644Z" glyph-name="Otilde.small" horiz-adv-x="573" /><glyph d="M305 313C269 313 225 319 203 325L227 400C255 485 270 569 280 640C291 641 341 647 378 647C483 647 509 611 509 573C509 540 496 523 475 470C451 410 448 390 429 360C410 331 362 313 305 313ZM325 259C490 259 616 380 616 524C616 637 535 695 410 695C362 695 254 690 231 690C188 541 45 361 45 148C45 99 51 39 64 0H97L186 274C220 266 292 259 325 259Z" glyph-name="P" horiz-adv-x="608" unicode="P" /><glyph d="M246 190C384 190 489 296 489 404C489 487 425 530 325 530C281 530 196 525 175 525C133 403 5 304 5 123C5 77 11 35 23 0H54L132 203C162 195 216 190 246 190ZM299 490C370 490 394 470 394 439C394 409 381 401 362 356C342 308 339 298 325 273C311 250 279 233 233 233C199 233 165 238 147 245L168 300C191 361 208 423 217 485C227 487 269 490 299 490Z" glyph-name="P.small" horiz-adv-x="499" /><glyph d="M227 23C219 2 207 -22 207 -57C207 -125 254 -172 361 -172C460 -172 526 -132 526 -37H488C484 -90 450 -127 380 -127C318 -127 308 -96 308 -57C308 -24 321 2 330 23ZM443 699C211 699 44 420 44 232C44 81 104 -9 273 -9C500 -9 666 269 666 458C666 597 604 699 443 699ZM503 331C456 175 420 41 272 41C185 41 137 83 137 151C137 203 168 238 212 359C265 507 300 649 437 649C516 649 575 610 575 539C575 486 544 452 503 331Z" glyph-name="Q" horiz-adv-x="710" unicode="Q" /><glyph d="M142 20C136 5 127 -12 127 -30C127 -85 169 -135 262 -135C343 -135 399 -94 397 -18H363C360 -60 334 -96 278 -96C227 -96 215 -72 215 -42C215 -21 225 0 233 18ZM10 170C10 79 63 -10 198 -10C388 -10 518 200 518 355C518 439 473 533 333 533C137 533 10 321 10 170ZM367 246C324 130 318 30 199 30C133 30 101 59 101 105C101 160 120 162 163 270C211 390 218 493 331 493C393 493 427 460 427 415C427 359 407 355 367 246Z" glyph-name="Q.small" horiz-adv-x="573" /><glyph d="M481 0 489 26C458 30 444 42 444 62C444 107 520 156 520 229C520 297 480 344 358 357C498 368 621 417 621 545C621 642 535 695 404 695C355 695 263 690 231 690C178 520 45 355 45 152C45 87 53 38 64 0H97L209 336H288C366 336 403 308 403 250C403 196 366 157 366 96C366 35 405 0 481 0ZM280 637C309 641 352 644 381 644C485 644 512 613 512 570C512 543 502 526 479 475C448 405 400 389 284 389H223C245 477 269 572 280 637Z" glyph-name="R" horiz-adv-x="636" unicode="R" /><glyph d="M366 -2 373 23C351 26 337 34 337 49C337 81 403 107 403 179C403 228 373 262 279 274C390 282 494 325 494 419C494 488 430 530 325 530C277 530 202 525 175 525C131 405 5 309 5 119C5 76 12 37 23 0H52L151 256H211C271 256 295 233 295 199C295 155 269 130 269 84C269 38 287 0 366 -2ZM302 489C376 489 394 468 394 441C394 417 384 404 368 368C344 314 314 297 212 297H164C184 360 205 425 215 485C244 488 276 489 302 489Z" glyph-name="R.small" horiz-adv-x="519" /><glyph d="M481 0 489 26C458 30 444 42 444 62C444 107 520 156 520 229C520 297 480 344 358 357C498 368 621 417 621 545C621 642 535 695 404 695C355 695 263 690 231 690C178 520 45 355 45 152C45 87 53 38 64 0H97L209 336H288C366 336 403 308 403 250C403 196 366 157 366 96C366 35 405 0 481 0ZM280 637C309 641 352 644 381 644C485 644 512 613 512 570C512 543 502 526 479 475C448 405 400 389 284 389H223C245 477 269 572 280 637ZM378 765 388 739C456 760 542 776 572 783C595 790 611 804 611 827C611 851 594 870 571 870C526 870 476 816 378 765Z" glyph-name="Racute" horiz-adv-x="636" unicode="&#340;" /><glyph d="M366 -2 373 23C351 26 337 34 337 49C337 81 403 107 403 179C403 228 373 262 279 274C390 282 494 325 494 419C494 488 430 530 325 530C277 530 202 525 175 525C131 405 5 309 5 119C5 76 12 37 23 0H52L151 256H211C271 256 295 233 295 199C295 155 269 130 269 84C269 38 287 0 366 -2ZM302 489C376 489 394 468 394 441C394 417 384 404 368 368C344 314 314 297 212 297H164C184 360 205 425 215 485C244 488 276 489 302 489ZM296 623 311 604C427 686 510 708 510 756C510 776 492 794 470 794C428 794 396 720 296 623Z" glyph-name="Racute.small" horiz-adv-x="519" /><glyph d="M481 0 489 26C458 30 444 42 444 62C444 107 520 156 520 229C520 297 480 344 358 357C498 368 621 417 621 545C621 642 535 695 404 695C355 695 263 690 231 690C178 520 45 355 45 152C45 87 53 38 64 0H97L209 336H288C366 336 403 308 403 250C403 196 366 157 366 96C366 35 405 0 481 0ZM280 637C309 641 352 644 381 644C485 644 512 613 512 570C512 543 502 526 479 475C448 405 400 389 284 389H223C245 477 269 572 280 637ZM328 855C349 831 381 797 414 731H439L647 850L632 878L477 801C434 839 399 867 363 880Z" glyph-name="Rcaron" horiz-adv-x="636" unicode="&#344;" /><glyph d="M366 -2 373 23C351 26 337 34 337 49C337 81 403 107 403 179C403 228 373 262 279 274C390 282 494 325 494 419C494 488 430 530 325 530C277 530 202 525 175 525C131 405 5 309 5 119C5 76 12 37 23 0H52L151 256H211C271 256 295 233 295 199C295 155 269 130 269 84C269 38 287 0 366 -2ZM302 489C376 489 394 468 394 441C394 417 384 404 368 368C344 314 314 297 212 297H164C184 360 205 425 215 485C244 488 276 489 302 489ZM246 784C267 750 299 679 321 602H347L579 776L565 803L386 684C354 738 309 792 281 806Z" glyph-name="Rcaron.small" horiz-adv-x="519" /><glyph d="M481 0 489 26C458 30 444 42 444 62C444 107 520 156 520 229C520 297 480 344 358 357C498 368 621 417 621 545C621 642 535 695 404 695C355 695 263 690 231 690C178 520 45 355 45 152C45 87 53 38 64 0H97L209 336H288C366 336 403 308 403 250C403 196 366 157 366 96C366 35 405 0 481 0ZM280 637C309 641 352 644 381 644C485 644 512 613 512 570C512 543 502 526 479 475C448 405 400 389 284 389H223C245 477 269 572 280 637ZM151 -220 183 -232C228 -200 282 -110 291 -54H213C206 -103 172 -183 151 -220Z" glyph-name="Rcommaaccent" horiz-adv-x="636" unicode="&#342;" /><glyph d="M366 -2 373 23C351 26 337 34 337 49C337 81 403 107 403 179C403 228 373 262 279 274C390 282 494 325 494 419C494 488 430 530 325 530C277 530 202 525 175 525C131 405 5 309 5 119C5 76 12 37 23 0H52L151 256H211C271 256 295 233 295 199C295 155 269 130 269 84C269 38 287 0 366 -2ZM302 489C376 489 394 468 394 441C394 417 384 404 368 368C344 314 314 297 212 297H164C184 360 205 425 215 485C244 488 276 489 302 489ZM81 -220 113 -232C158 -200 212 -110 221 -54H143C136 -103 102 -183 81 -220Z" glyph-name="Rcommaaccent.small" horiz-adv-x="519" /><glyph d="M37 232C21 206 14 177 14 147C14 72 58 -10 205 -10C391 -10 479 116 479 227C479 344 409 377 329 405C258 429 215 445 215 521C215 579 249 647 374 647C505 647 498 558 486 495H531C542 515 549 539 549 566C549 644 490 700 380 700C209 700 115 590 115 481C115 374 162 343 239 306C312 271 367 253 367 177C367 109 326 43 207 43C78 43 66 131 78 232Z" glyph-name="S" horiz-adv-x="578" unicode="S" /><glyph d="M7 186C-7 166 -15 140 -15 116C-15 60 22 -9 140 -9C293 -9 367 96 367 177C367 267 305 293 243 314C188 331 144 339 144 394C144 444 184 488 273 488C377 488 375 412 364 366H406C417 380 424 402 424 423C424 481 374 533 281 533C132 533 69 443 69 359C69 278 115 250 171 222C226 195 271 178 271 128C271 78 231 36 145 36C41 36 30 103 46 186Z" glyph-name="S.small" horiz-adv-x="474" /><glyph d="M37 232C21 206 14 177 14 147C14 72 58 -10 205 -10C391 -10 479 116 479 227C479 344 409 377 329 405C258 429 215 445 215 521C215 579 249 647 374 647C505 647 498 558 486 495H531C542 515 549 539 549 566C549 644 490 700 380 700C209 700 115 590 115 481C115 374 162 343 239 306C312 271 367 253 367 177C367 109 326 43 207 43C78 43 66 131 78 232ZM336 765 346 739C414 760 500 776 530 783C553 790 569 804 569 827C569 851 552 870 529 870C484 870 434 816 336 765Z" glyph-name="Sacute" horiz-adv-x="578" unicode="&#346;" /><glyph d="M7 186C-7 166 -15 140 -15 116C-15 60 22 -9 140 -9C293 -9 367 96 367 177C367 267 305 293 243 314C188 331 144 339 144 394C144 444 184 488 273 488C377 488 375 412 364 366H406C417 380 424 402 424 423C424 481 374 533 281 533C132 533 69 443 69 359C69 278 115 250 171 222C226 195 271 178 271 128C271 78 231 36 145 36C41 36 30 103 46 186ZM258 623 273 604C389 686 472 708 472 756C472 776 454 794 432 794C390 794 358 720 258 623Z" glyph-name="Sacute.small" horiz-adv-x="474" /><glyph d="M37 232C21 206 14 177 14 147C14 72 58 -10 205 -10C391 -10 479 116 479 227C479 344 409 377 329 405C258 429 215 445 215 521C215 579 249 647 374 647C505 647 498 558 486 495H531C542 515 549 539 549 566C549 644 490 700 380 700C209 700 115 590 115 481C115 374 162 343 239 306C312 271 367 253 367 177C367 109 326 43 207 43C78 43 66 131 78 232ZM279 855C300 831 332 797 365 731H390L598 850L583 878L428 801C385 839 350 867 314 880Z" glyph-name="Scaron" horiz-adv-x="578" unicode="&#352;" /><glyph d="M7 186C-7 166 -15 140 -15 116C-15 60 22 -9 140 -9C293 -9 367 96 367 177C367 267 305 293 243 314C188 331 144 339 144 394C144 444 184 488 273 488C377 488 375 412 364 366H406C417 380 424 402 424 423C424 481 374 533 281 533C132 533 69 443 69 359C69 278 115 250 171 222C226 195 271 178 271 128C271 78 231 36 145 36C41 36 30 103 46 186ZM216 784C237 750 269 679 291 602H317L549 776L535 803L356 684C324 738 279 792 251 806Z" glyph-name="Scaron.small" horiz-adv-x="474" /><glyph d="M37 232C21 206 14 177 14 147C14 72 58 -10 205 -10C391 -10 479 116 479 227C479 344 409 377 329 405C258 429 215 445 215 521C215 579 249 647 374 647C505 647 498 558 486 495H531C542 515 549 539 549 566C549 644 490 700 380 700C209 700 115 590 115 481C115 374 162 343 239 306C312 271 367 253 367 177C367 109 326 43 207 43C78 43 66 131 78 232ZM98 -115C90 -150 101 -200 164 -200C216 -200 262 -166 262 -109C262 -62 226 -35 163 -51L179 -52L198 0L169 10L129 -66L147 -84C153 -82 160 -81 167 -81C190 -81 203 -95 203 -116C203 -146 185 -164 158 -164C128 -164 119 -143 119 -115Z" glyph-name="Scedilla" horiz-adv-x="578" unicode="&#350;" /><glyph d="M7 186C-7 166 -15 140 -15 116C-15 60 22 -9 140 -9C293 -9 367 96 367 177C367 267 305 293 243 314C188 331 144 339 144 394C144 444 184 488 273 488C377 488 375 412 364 366H406C417 380 424 402 424 423C424 481 374 533 281 533C132 533 69 443 69 359C69 278 115 250 171 222C226 195 271 178 271 128C271 78 231 36 145 36C41 36 30 103 46 186ZM72 -115C64 -150 75 -200 138 -200C190 -200 236 -166 236 -109C236 -62 200 -35 137 -51L153 -52L172 0L143 10L103 -66L121 -84C127 -82 134 -81 141 -81C164 -81 177 -95 177 -116C177 -146 159 -164 132 -164C102 -164 93 -143 93 -115Z" glyph-name="Scedilla.small" horiz-adv-x="474" /><glyph d="M227 -9C450 -9 640 237 640 471C640 620 555 699 398 699C244 699 136 605 136 469H186C200 583 268 645 393 645C487 645 542 610 542 541C542 467 491 438 449 345C274 345 36 329 36 146C36 68 81 -9 227 -9ZM249 43C183 43 166 90 173 139C188 242 219 301 436 301C406 228 392 154 354 93C334 61 302 43 249 43Z" glyph-name="Schwa" horiz-adv-x="680" unicode="&#399;" /><glyph d="M77 350H118C125 429 173 492 276 492C346 492 388 471 388 418C388 372 367 341 328 265C220 267 159 260 105 243C37 224 -10 172 -10 110C-10 36 37 -10 142 -10C306 -10 476 184 476 352C476 469 411 533 283 533C161 533 70 465 77 350ZM146 28C87 28 83 75 109 139C117 157 136 192 171 209C209 229 274 233 315 233C248 95 234 28 146 28Z" glyph-name="Schwa.small" horiz-adv-x="531" /><glyph d="M37 232C21 206 14 177 14 147C14 72 58 -10 205 -10C391 -10 479 116 479 227C479 344 409 377 329 405C258 429 215 445 215 521C215 579 249 647 374 647C505 647 498 558 486 495H531C542 515 549 539 549 566C549 644 490 700 380 700C209 700 115 590 115 481C115 374 162 343 239 306C312 271 367 253 367 177C367 109 326 43 207 43C78 43 66 131 78 232ZM234 759 250 731 408 803C430 783 494 740 526 730L547 751C520 783 485 840 468 878H443Z" glyph-name="Scircumflex" horiz-adv-x="578" unicode="&#348;" /><glyph d="M7 186C-7 166 -15 140 -15 116C-15 60 22 -9 140 -9C293 -9 367 96 367 177C367 267 305 293 243 314C188 331 144 339 144 394C144 444 184 488 273 488C377 488 375 412 364 366H406C417 380 424 402 424 423C424 481 374 533 281 533C132 533 69 443 69 359C69 278 115 250 171 222C226 195 271 178 271 128C271 78 231 36 145 36C41 36 30 103 46 186ZM151 631 165 604 344 720C363 690 424 621 452 606L477 624C450 674 420 755 409 806H383Z" glyph-name="Scircumflex.small" horiz-adv-x="474" /><glyph d="M37 232C21 206 14 177 14 147C14 72 58 -10 205 -10C391 -10 479 116 479 227C479 344 409 377 329 405C258 429 215 445 215 521C215 579 249 647 374 647C505 647 498 558 486 495H531C542 515 549 539 549 566C549 644 490 700 380 700C209 700 115 590 115 481C115 374 162 343 239 306C312 271 367 253 367 177C367 109 326 43 207 43C78 43 66 131 78 232ZM101 -220 133 -232C178 -200 232 -110 241 -54H163C156 -103 122 -183 101 -220Z" glyph-name="Scommaaccent" horiz-adv-x="578" unicode="&#536;" /><glyph d="M7 186C-7 166 -15 140 -15 116C-15 60 22 -9 140 -9C293 -9 367 96 367 177C367 267 305 293 243 314C188 331 144 339 144 394C144 444 184 488 273 488C377 488 375 412 364 366H406C417 380 424 402 424 423C424 481 374 533 281 533C132 533 69 443 69 359C69 278 115 250 171 222C226 195 271 178 271 128C271 78 231 36 145 36C41 36 30 103 46 186ZM34 -220 66 -232C111 -200 165 -110 174 -54H96C89 -103 55 -183 34 -220Z" glyph-name="Scommaaccent.small" horiz-adv-x="474" /><glyph d="M522 607C641 607 685 644 693 698H668C652 663 600 667 571 667C486 667 340 697 234 697C100 697 66 624 57 569H81C106 605 130 607 196 607ZM347 613C296 481 162 307 162 139C162 100 172 38 184 0H219L410 613Z" glyph-name="T" horiz-adv-x="561" unicode="T" /><glyph d="M271 479C222 369 88 261 88 111C88 75 99 35 109 0H143L321 479ZM39 408C58 440 85 450 141 450H390C496 450 532 482 537 534H519C505 502 460 503 434 503C357 503 260 531 164 531C54 531 23 451 20 408Z" glyph-name="T.small" horiz-adv-x="457" /><glyph d="M112 364 90 309H429L451 364ZM522 607C641 607 685 644 693 698H668C652 663 600 667 571 667C486 667 340 697 234 697C100 697 66 624 57 569H81C106 605 130 607 196 607ZM347 613C296 481 162 307 162 139C162 100 172 38 184 0H219L410 613Z" glyph-name="Tbar" horiz-adv-x="561" unicode="&#358;" /><glyph d="M54 270 41 230H314L327 270ZM271 479C222 369 88 261 88 111C88 75 99 35 109 0H143L321 479ZM39 408C58 440 85 450 141 450H390C496 450 532 482 537 534H519C505 502 460 503 434 503C357 503 260 531 164 531C54 531 23 451 20 408Z" glyph-name="Tbar.small" horiz-adv-x="457" /><glyph d="M522 607C641 607 685 644 693 698H668C652 663 600 667 571 667C486 667 340 697 234 697C100 697 66 624 57 569H81C106 605 130 607 196 607ZM347 613C296 481 162 307 162 139C162 100 172 38 184 0H219L410 613ZM305 855C326 831 358 797 391 731H416L624 850L609 878L454 801C411 839 376 867 340 880Z" glyph-name="Tcaron" horiz-adv-x="561" unicode="&#356;" /><glyph d="M271 479C222 369 88 261 88 111C88 75 99 35 109 0H143L321 479ZM39 408C58 440 85 450 141 450H390C496 450 532 482 537 534H519C505 502 460 503 434 503C357 503 260 531 164 531C54 531 23 451 20 408ZM230 784C251 750 283 679 305 602H331L563 776L549 803L370 684C338 738 293 792 265 806Z" glyph-name="Tcaron.small" horiz-adv-x="457" /><glyph d="M522 607C641 607 685 644 693 698H668C652 663 600 667 571 667C486 667 340 697 234 697C100 697 66 624 57 569H81C106 605 130 607 196 607ZM347 613C296 481 162 307 162 139C162 100 172 38 184 0H219L410 613ZM119 -115C111 -150 122 -200 185 -200C237 -200 283 -166 283 -109C283 -62 247 -35 184 -51L200 -52L219 0L190 10L150 -66L168 -84C174 -82 181 -81 188 -81C211 -81 224 -95 224 -116C224 -146 206 -164 179 -164C149 -164 140 -143 140 -115Z" glyph-name="Tcedilla" horiz-adv-x="561" unicode="&#354;" /><glyph d="M271 479C222 369 88 261 88 111C88 75 99 35 109 0H143L321 479ZM39 408C58 440 85 450 141 450H390C496 450 532 482 537 534H519C505 502 460 503 434 503C357 503 260 531 164 531C54 531 23 451 20 408ZM43 -115C35 -150 46 -200 109 -200C161 -200 207 -166 207 -109C207 -62 171 -35 108 -51L124 -52L143 0L114 10L74 -66L92 -84C98 -82 105 -81 112 -81C135 -81 148 -95 148 -116C148 -146 130 -164 103 -164C73 -164 64 -143 64 -115Z" glyph-name="Tcedilla.small" horiz-adv-x="457" /><glyph d="M522 607C641 607 685 644 693 698H668C652 663 600 667 571 667C486 667 340 697 234 697C100 697 66 624 57 569H81C106 605 130 607 196 607ZM347 613C296 481 162 307 162 139C162 100 172 38 184 0H219L410 613ZM94 -220 126 -232C171 -200 225 -110 234 -54H156C149 -103 115 -183 94 -220Z" glyph-name="Tcommaaccent" horiz-adv-x="561" unicode="&#538;" /><glyph d="M271 479C222 369 88 261 88 111C88 75 99 35 109 0H143L321 479ZM39 408C58 440 85 450 141 450H390C496 450 532 482 537 534H519C505 502 460 503 434 503C357 503 260 531 164 531C54 531 23 451 20 408ZM22 -220 54 -232C99 -200 153 -110 162 -54H84C77 -103 43 -183 22 -220Z" glyph-name="Tcommaaccent.small" horiz-adv-x="457" /><glyph d="M265 183C229 183 186 189 163 195L198 298C225 378 243 450 256 512C277 514 311 517 338 517C443 517 469 481 469 443C469 410 456 393 435 340C411 280 408 260 389 230C370 201 322 183 265 183ZM65 0H98L146 144C180 136 252 129 285 129C450 129 576 250 576 394C576 507 495 565 370 565C344 565 303 564 266 562C278 626 282 671 282 690H247C181.1176 491.1765 46 355 46 148C46 99 52 39 65 0Z" glyph-name="Thorn" horiz-adv-x="608" unicode="&#222;" /><glyph d="M23 0H54L102 128C132 120 186 114 216 114C354 114 451 199 451 307C451 390 387 433 287 433H204C214 476 218 507 218 524H189C140.9802 395.9471 5 293 5 123C5 77 12 35 23 0ZM203 153C169 153 135 158 117 165L138 220C157 271 182.0588 341.2353 195 393C213 395 240 396 261 396C332 396 355 377 355 346C355 322 348 317 329 272C309 224 309 218 295 193C281 170 249 153 203 153Z" glyph-name="Thorn.small" horiz-adv-x="499" /><glyph d="M39 188C39 61 117 -10 253 -10C495 -10 635 290 635 497C635 563 623 633 610 690H573L491 333C442 121 371 40 253 40C182 40 154 73 153 130C151 172 165 227 185 292L243 477C268 558 285 631 289 690H245C166 485 39 372 39 188Z" glyph-name="U" horiz-adv-x="678" unicode="U" /><glyph d="M10 140C10 52 73 -10 186 -10C377 -10 509 228 509 394C509 436 501 483 488 525H458L387 275C344 124 285 33 191 33C136 33 116 59 116 95C115 125 129 165 148 219L205 380C224 435 237 485 239 525H205C139 374 10 310 10 140Z" glyph-name="U.small" horiz-adv-x="559" /><glyph d="M39 188C39 61 117 -10 253 -10C495 -10 635 290 635 497C635 563 623 633 610 690H573L491 333C442 121 371 40 253 40C182 40 154 73 153 130C151 172 165 227 185 292L243 477C268 558 285 631 289 690H245C166 485 39 372 39 188ZM384 765 394 739C462 760 548 776 578 783C601 790 617 804 617 827C617 851 600 870 577 870C532 870 482 816 384 765Z" glyph-name="Uacute" horiz-adv-x="678" unicode="&#218;" /><glyph d="M10 140C10 52 73 -10 186 -10C377 -10 509 228 509 394C509 436 501 483 488 525H458L387 275C344 124 285 33 191 33C136 33 116 59 116 95C115 125 129 165 148 219L205 380C224 435 237 485 239 525H205C139 374 10 310 10 140ZM325 623 340 604C456 686 539 708 539 756C539 776 521 794 499 794C457 794 425 720 325 623Z" glyph-name="Uacute.small" horiz-adv-x="559" /><glyph d="M39 188C39 61 117 -10 253 -10C495 -10 635 290 635 497C635 563 623 633 610 690H573L491 333C442 121 371 40 253 40C182 40 154 73 153 130C151 172 165 227 185 292L243 477C268 558 285 631 289 690H245C166 485 39 372 39 188ZM362 880C340 853 331 825 336 795C341 765 368 736 433 736C538 736 611 803 641 880H608C579 835 529 796 463 796C394 796 384 838 390 880Z" glyph-name="Ubreve" horiz-adv-x="678" unicode="&#364;" /><glyph d="M10 140C10 52 73 -10 186 -10C377 -10 509 228 509 394C509 436 501 483 488 525H458L387 275C344 124 285 33 191 33C136 33 116 59 116 95C115 125 129 165 148 219L205 380C224 435 237 485 239 525H205C139 374 10 310 10 140ZM366 624C485 624 567 717 592 796H560C530 750 480 693 405 693C323 693 321 753 325 796H300C277 761 267 731 272 696C277 659 302 624 366 624Z" glyph-name="Ubreve.small" horiz-adv-x="559" /><glyph d="M39 188C39 61 117 -10 253 -10C495 -10 635 290 635 497C635 563 623 633 610 690H573L491 333C442 121 371 40 253 40C182 40 154 73 153 130C151 172 165 227 185 292L243 477C268 558 285 631 289 690H245C166 485 39 372 39 188ZM282 759 298 731 456 803C478 783 542 740 574 730L595 751C568 783 533 840 516 878H491Z" glyph-name="Ucircumflex" horiz-adv-x="678" unicode="&#219;" /><glyph d="M10 140C10 52 73 -10 186 -10C377 -10 509 228 509 394C509 436 501 483 488 525H458L387 275C344 124 285 33 191 33C136 33 116 59 116 95C115 125 129 165 148 219L205 380C224 435 237 485 239 525H205C139 374 10 310 10 140ZM202 631 216 604 395 720C414 690 475 621 503 606L528 624C501 674 471 755 460 806H434Z" glyph-name="Ucircumflex.small" horiz-adv-x="559" /><glyph d="M39 188C39 61 117 -10 253 -10C495 -10 635 290 635 497C635 563 623 633 610 690H573L491 333C442 121 371 40 253 40C182 40 154 73 153 130C151 172 165 227 185 292L243 477C268 558 285 631 289 690H245C166 485 39 372 39 188ZM309 788C309 766 323 749 349 749C381 749 411 772 411 807C411 830 396 847 370 847C339 847 309 825 309 788ZM487 788C487 766 501 749 527 749C559 749 588 772 588 807C588 830 574 847 547 847C517 847 487 825 487 788Z" glyph-name="Udieresis" horiz-adv-x="678" unicode="&#220;" /><glyph d="M10 140C10 52 73 -10 186 -10C377 -10 509 228 509 394C509 436 501 483 488 525H458L387 275C344 124 285 33 191 33C136 33 116 59 116 95C115 125 129 165 148 219L205 380C224 435 237 485 239 525H205C139 374 10 310 10 140ZM241 705C241 684 255 666 281 666C314 666 343 689 343 725C343 748 328 765 302 765C271 765 241 742 241 705ZM419 705C419 684 433 666 459 666C491 666 521 689 521 725C521 748 506 765 480 765C449 765 419 742 419 705Z" glyph-name="Udieresis.small" horiz-adv-x="559" /><glyph d="M39 188C39 61 117 -10 253 -10C495 -10 635 290 635 497C635 563 623 633 610 690H573L491 333C442 121 371 40 253 40C182 40 154 73 153 130C151 172 165 227 185 292L243 477C268 558 285 631 289 690H245C166 485 39 372 39 188ZM322 823C322 776 417 771 511 733L524 755C454 809 406 869 366 869C336 869 322 841 322 823Z" glyph-name="Ugrave" horiz-adv-x="678" unicode="&#217;" /><glyph d="M10 140C10 52 73 -10 186 -10C377 -10 509 228 509 394C509 436 501 483 488 525H458L387 275C344 124 285 33 191 33C136 33 116 59 116 95C115 125 129 165 148 219L205 380C224 435 237 485 239 525H205C139 374 10 310 10 140ZM256 757C256 715 334 674 401 604L421 623C366 706 345 799 301 799C277 799 256 777 256 757Z" glyph-name="Ugrave.small" horiz-adv-x="559" /><glyph d="M39 188C39 61 117 -10 253 -10C495 -10 635 290 635 497C635 563 623 633 610 690H573L491 333C442 121 371 40 253 40C182 40 154 73 153 130C151 172 165 227 185 292L243 477C268 558 285 631 289 690H245C166 485 39 372 39 188ZM317 740 345 716 528 846 453 881ZM494 740 522 716 704 846 630 881Z" glyph-name="Uhungarumlaut" horiz-adv-x="678" unicode="&#368;" /><glyph d="M10 140C10 52 73 -10 186 -10C377 -10 509 228 509 394C509 436 501 483 488 525H458L387 275C344 124 285 33 191 33C136 33 116 59 116 95C115 125 129 165 148 219L205 380C224 435 237 485 239 525H205C139 374 10 310 10 140ZM263 625 289 602 461 770 393 814ZM436 625 462 602 637 763 572 811Z" glyph-name="Uhungarumlaut.small" horiz-adv-x="559" /><glyph d="M39 188C39 61 117 -10 253 -10C495 -10 635 290 635 497C635 563 623 633 610 690H573L491 333C442 121 371 40 253 40C182 40 154 73 153 130C151 172 165 227 185 292L243 477C268 558 285 631 289 690H245C166 485 39 372 39 188ZM318 833 292 776H580L606 833Z" glyph-name="Umacron" horiz-adv-x="678" unicode="&#362;" /><glyph d="M10 140C10 52 73 -10 186 -10C377 -10 509 228 509 394C509 436 501 483 488 525H458L387 275C344 124 285 33 191 33C136 33 116 59 116 95C115 125 129 165 148 219L205 380C224 435 237 485 239 525H205C139 374 10 310 10 140ZM259 754 232 696H520L546 754Z" glyph-name="Umacron.small" horiz-adv-x="559" /><glyph d="M39 188C39 61 117 -10 253 -10C495 -10 635 290 635 497C635 563 623 633 610 690H573L491 333C442 121 371 40 253 40C182 40 154 73 153 130C151 172 165 227 185 292L243 477C268 558 285 631 289 690H245C166 485 39 372 39 188ZM249 -132C249 -178 273 -209 322 -209C382 -209 411 -170 420 -116H395C389 -139 377 -157 353 -157C331 -157 322 -143 322 -116C322 -70 359 -3 444 62L416 66C328 2 249 -45 249 -132Z" glyph-name="Uogonek" horiz-adv-x="678" unicode="&#370;" /><glyph d="M10 140C10 52 73 -10 186 -10C377 -10 509 228 509 394C509 436 501 483 488 525H458L387 275C344 124 285 33 191 33C136 33 116 59 116 95C115 125 129 165 148 219L205 380C224 435 237 485 239 525H205C139 374 10 310 10 140ZM164 -132C164 -178 188 -209 237 -209C297 -209 326 -170 335 -116H310C304 -139 292 -157 268 -157C246 -157 237 -143 237 -116C237 -70 274 -3 359 62L331 66C243 2 164 -45 164 -132Z" glyph-name="Uogonek.small" horiz-adv-x="559" /><glyph d="M39 188C39 61 117 -10 253 -10C495 -10 635 290 635 497C635 563 623 633 610 690H573L491 333C442 121 371 40 253 40C182 40 154 73 153 130C151 172 165 227 185 292L243 477C268 558 285 631 289 690H245C166 485 39 372 39 188ZM336 805C336 756 366 718 433 718C503 718 557 766 557 830C557 879 523 917 460 917C388 917 336 866 336 805ZM498 825C498 787 474 756 440 756C409 756 396 779 396 808C396 850 420 879 454 879C484 879 498 855 498 825Z" glyph-name="Uring" horiz-adv-x="678" unicode="&#366;" /><glyph d="M10 140C10 52 73 -10 186 -10C377 -10 509 228 509 394C509 436 501 483 488 525H458L387 275C344 124 285 33 191 33C136 33 116 59 116 95C115 125 129 165 148 219L205 380C224 435 237 485 239 525H205C139 374 10 310 10 140ZM272 711C272 657 310 623 371 623C442 623 497 671 497 737C497 787 461 826 398 826C325 826 272 774 272 711ZM438 736C438 702 416 660 376 660C341 660 330 683 330 712C330 757 358 788 393 788C424 788 438 766 438 736Z" glyph-name="Uring.small" horiz-adv-x="559" /><glyph d="M39 188C39 61 117 -10 253 -10C495 -10 635 290 635 497C635 563 623 633 610 690H573L491 333C442 121 371 40 253 40C182 40 154 73 153 130C151 172 165 227 185 292L243 477C268 558 285 631 289 690H245C166 485 39 372 39 188ZM530 804C477 804 465 872 384 872C315 872 268 832 268 745H295C301 784 310 809 348 809C406 809 416 742 492 742C561 742 610 780 610 869H582C578 829 568 804 530 804Z" glyph-name="Utilde" horiz-adv-x="678" unicode="&#360;" /><glyph d="M10 140C10 52 73 -10 186 -10C377 -10 509 228 509 394C509 436 501 483 488 525H458L387 275C344 124 285 33 191 33C136 33 116 59 116 95C115 125 129 165 148 219L205 380C224 435 237 485 239 525H205C139 374 10 310 10 140ZM225 644H258C262 687 271 716 310 716C366 716 379 642 457 642C524 642 571 679 571 774H537C534 731 525 704 486 704C434 704 421 778 338 778C268 778 225 742 225 644Z" glyph-name="Utilde.small" horiz-adv-x="559" /><glyph d="M531 690C529 485 461 379 310 228L156 74L218 402C232 478 243 572 243 690H202C164 495 55 350 55 199C55 122 73 62 106 -4H155L378 204C508 325 621 442 621 562C621 612 601 654 566 690Z" glyph-name="V" horiz-adv-x="609" unicode="V" /><glyph d="M95 0 280 152C394 250 493 336 493 420C493 470 473 502 440 525H412C403 357 352 272 222 166L97 63L171 360C184 413 194 473 194 525H162C118 377 10 299 10 159C10 97 31 40 59 0Z" glyph-name="V.small" horiz-adv-x="503" /><glyph d="M156 74 218 402C232 478 243 575 243 690H202C161 494 55 350 55 199C55 122 73 62 106 -4H155C252 101 339 208 410 317C393 148 409 61 435 -4H473L662 195C765 303 882 451 882 554C882 611 867 648 827 690H792C792 485 691 334 597 224L480 88L541 432C556 518 564 639 535 690H504C464 442 286 242 156 74Z" glyph-name="W" horiz-adv-x="870" unicode="W" /><glyph d="M323 0H357L523 152C615 236 711 320 711 415C711 461 696 496 658 525H630C623 350 555 254 466 165L364 63L431 332C449 403 448 478 422 525H396C366 334 217 193 97 62L171 360C184 414 194 474 193 525H161C115 372 10 298 10 159C10 97 30 41 57 0H95C164 65 262 169 301 216C290 127 302 50 323 0Z" glyph-name="W.small" horiz-adv-x="721" /><glyph d="M156 74 218 402C232 478 243 575 243 690H202C161 494 55 350 55 199C55 122 73 62 106 -4H155C252 101 339 208 410 317C393 148 409 61 435 -4H473L662 195C765 303 882 451 882 554C882 611 867 648 827 690H792C792 485 691 334 597 224L480 88L541 432C556 518 564 639 535 690H504C464 442 286 242 156 74ZM501 765 511 739C579 760 665 776 695 783C718 790 734 804 734 827C734 851 717 870 694 870C649 870 599 816 501 765Z" glyph-name="Wacute" horiz-adv-x="870" unicode="&#7810;" /><glyph d="M323 0H357L523 152C615 236 711 320 711 415C711 461 696 496 658 525H630C623 350 555 254 466 165L364 63L431 332C449 403 448 478 422 525H396C366 334 217 193 97 62L171 360C184 414 194 474 193 525H161C115 372 10 298 10 159C10 97 30 41 57 0H95C164 65 262 169 301 216C290 127 302 50 323 0ZM407 623 422 604C538 686 621 708 621 756C621 776 603 794 581 794C539 794 507 720 407 623Z" glyph-name="Wacute.small" horiz-adv-x="721" /><glyph d="M156 74 218 402C232 478 243 575 243 690H202C161 494 55 350 55 199C55 122 73 62 106 -4H155C252 101 339 208 410 317C393 148 409 61 435 -4H473L662 195C765 303 882 451 882 554C882 611 867 648 827 690H792C792 485 691 334 597 224L480 88L541 432C556 518 564 639 535 690H504C464 442 286 242 156 74ZM387 759 403 731 561 803C583 783 647 740 679 730L700 751C673 783 638 840 621 878H596Z" glyph-name="Wcircumflex" horiz-adv-x="870" unicode="&#372;" /><glyph d="M323 0H357L523 152C615 236 711 320 711 415C711 461 696 496 658 525H630C623 350 555 254 466 165L364 63L431 332C449 403 448 478 422 525H396C366 334 217 193 97 62L171 360C184 414 194 474 193 525H161C115 372 10 298 10 159C10 97 30 41 57 0H95C164 65 262 169 301 216C290 127 302 50 323 0ZM274 631 288 604 467 720C486 690 547 621 575 606L600 624C573 674 543 755 532 806H506Z" glyph-name="Wcircumflex.small" horiz-adv-x="721" /><glyph d="M156 74 218 402C232 478 243 575 243 690H202C161 494 55 350 55 199C55 122 73 62 106 -4H155C252 101 339 208 410 317C393 148 409 61 435 -4H473L662 195C765 303 882 451 882 554C882 611 867 648 827 690H792C792 485 691 334 597 224L480 88L541 432C556 518 564 639 535 690H504C464 442 286 242 156 74ZM402 788C402 766 416 749 442 749C474 749 504 772 504 807C504 830 489 847 463 847C432 847 402 825 402 788ZM580 788C580 766 594 749 620 749C652 749 681 772 681 807C681 830 667 847 640 847C610 847 580 825 580 788Z" glyph-name="Wdieresis" horiz-adv-x="870" unicode="&#7812;" /><glyph d="M323 0H357L523 152C615 236 711 320 711 415C711 461 696 496 658 525H630C623 350 555 254 466 165L364 63L431 332C449 403 448 478 422 525H396C366 334 217 193 97 62L171 360C184 414 194 474 193 525H161C115 372 10 298 10 159C10 97 30 41 57 0H95C164 65 262 169 301 216C290 127 302 50 323 0ZM318 705C318 684 332 666 358 666C391 666 420 689 420 725C420 748 405 765 379 765C348 765 318 742 318 705ZM496 705C496 684 510 666 536 666C568 666 598 689 598 725C598 748 583 765 557 765C526 765 496 742 496 705Z" glyph-name="Wdieresis.small" horiz-adv-x="721" /><glyph d="M156 74 218 402C232 478 243 575 243 690H202C161 494 55 350 55 199C55 122 73 62 106 -4H155C252 101 339 208 410 317C393 148 409 61 435 -4H473L662 195C765 303 882 451 882 554C882 611 867 648 827 690H792C792 485 691 334 597 224L480 88L541 432C556 518 564 639 535 690H504C464 442 286 242 156 74ZM406 823C406 776 501 771 595 733L608 755C538 809 490 869 450 869C420 869 406 841 406 823Z" glyph-name="Wgrave" horiz-adv-x="870" unicode="&#7808;" /><glyph d="M323 0H357L523 152C615 236 711 320 711 415C711 461 696 496 658 525H630C623 350 555 254 466 165L364 63L431 332C449 403 448 478 422 525H396C366 334 217 193 97 62L171 360C184 414 194 474 193 525H161C115 372 10 298 10 159C10 97 30 41 57 0H95C164 65 262 169 301 216C290 127 302 50 323 0ZM327 757C327 715 405 674 472 604L492 623C437 706 416 799 372 799C348 799 327 777 327 757Z" glyph-name="Wgrave.small" horiz-adv-x="721" /><glyph d="M289 458C208 584 189 610 199 690H175C139 657 119 609 119 557C119 516 154 451 209 367L293 239C355 145 385 95 372 0H396C428 31 452 81 452 133C452 192 425 246 374 325ZM321 348C481 519 586 584 586 641C586 656 580 676 566 690H532L301 393ZM241 342C81 171 -15 106 -15 49C-15 34 -9 14 5 0H40L261 297Z" glyph-name="X" horiz-adv-x="576" unicode="X" /><glyph d="M214 183C263 107 282 73 271 0H293C322 26 350 66 350 114C350 158 328 195 291 246L226 344C165 435 151 462 160 525H139C104 494 84 461 84 413C84 374 109 337 151 276ZM250 275C363 373 463 421 463 480C463 495 458 512 444 525H419L234 306ZM176 260C64 166 -35 108 -35 49C-35 34 -29 16 -16 0H9L192 229Z" glyph-name="X.small" horiz-adv-x="463" /><glyph d="M169 0 222 184C240 248 265 289 302 331C404 449 568 570 568 636C568 654 562 672 546 690H517L276 382L221 506C187 584 177 616 192 690H170C94 628 77 534 142 396L195 295C139 222 100 175 100 103C100 66 117 24 134 0Z" glyph-name="Y" horiz-adv-x="523" unicode="Y" /><glyph d="M101 0 149 139C169 196 185 216 220 251C313 345 442 409 442 482C442 498 436 513 423 525H403L200 293L178 349C149 433 137 468 150 525H130C61 468 41 413 93 303L130 225C81 169 40 130 40 78C40 49 54 23 71 0Z" glyph-name="Y.small" horiz-adv-x="412" /><glyph d="M169 0 222 184C240 248 265 289 302 331C404 449 568 570 568 636C568 654 562 672 546 690H517L276 382L221 506C187 584 177 616 192 690H170C94 628 77 534 142 396L195 295C139 222 100 175 100 103C100 66 117 24 134 0ZM329 765 339 739C407 760 493 776 523 783C546 790 562 804 562 827C562 851 545 870 522 870C477 870 427 816 329 765Z" glyph-name="Yacute" horiz-adv-x="523" unicode="&#221;" /><glyph d="M101 0 149 139C169 196 185 216 220 251C313 345 442 409 442 482C442 498 436 513 423 525H403L200 293L178 349C149 433 137 468 150 525H130C61 468 41 413 93 303L130 225C81 169 40 130 40 78C40 49 54 23 71 0ZM262 623 277 604C393 686 476 708 476 756C476 776 458 794 436 794C394 794 362 720 262 623Z" glyph-name="Yacute.small" horiz-adv-x="412" /><glyph d="M169 0 222 184C240 248 265 289 302 331C404 449 568 570 568 636C568 654 562 672 546 690H517L276 382L221 506C187 584 177 616 192 690H170C94 628 77 534 142 396L195 295C139 222 100 175 100 103C100 66 117 24 134 0ZM218 759 234 731 392 803C414 783 478 740 510 730L531 751C504 783 469 840 452 878H427Z" glyph-name="Ycircumflex" horiz-adv-x="523" unicode="&#374;" /><glyph d="M101 0 149 139C169 196 185 216 220 251C313 345 442 409 442 482C442 498 436 513 423 525H403L200 293L178 349C149 433 137 468 150 525H130C61 468 41 413 93 303L130 225C81 169 40 130 40 78C40 49 54 23 71 0ZM138 631 152 604 331 720C350 690 411 621 439 606L464 624C437 674 407 755 396 806H370Z" glyph-name="Ycircumflex.small" horiz-adv-x="412" /><glyph d="M169 0 222 184C240 248 265 289 302 331C404 449 568 570 568 636C568 654 562 672 546 690H517L276 382L221 506C187 584 177 616 192 690H170C94 628 77 534 142 396L195 295C139 222 100 175 100 103C100 66 117 24 134 0ZM250 788C250 766 264 749 290 749C322 749 352 772 352 807C352 830 337 847 311 847C280 847 250 825 250 788ZM428 788C428 766 442 749 468 749C500 749 529 772 529 807C529 830 515 847 488 847C458 847 428 825 428 788Z" glyph-name="Ydieresis" horiz-adv-x="523" unicode="&#376;" /><glyph d="M101 0 149 139C169 196 185 216 220 251C313 345 442 409 442 482C442 498 436 513 423 525H403L200 293L178 349C149 433 137 468 150 525H130C61 468 41 413 93 303L130 225C81 169 40 130 40 78C40 49 54 23 71 0ZM183 705C183 684 197 666 223 666C256 666 285 689 285 725C285 748 270 765 244 765C213 765 183 742 183 705ZM361 705C361 684 375 666 401 666C433 666 463 689 463 725C463 748 448 765 422 765C391 765 361 742 361 705Z" glyph-name="Ydieresis.small" horiz-adv-x="412" /><glyph d="M169 0 222 184C240 248 265 289 302 331C404 449 568 570 568 636C568 654 562 672 546 690H517L276 382L221 506C187 584 177 616 192 690H170C94 628 77 534 142 396L195 295C139 222 100 175 100 103C100 66 117 24 134 0ZM260 823C260 776 355 771 449 733L462 755C392 809 344 869 304 869C274 869 260 841 260 823Z" glyph-name="Ygrave" horiz-adv-x="523" unicode="&#7922;" /><glyph d="M101 0 149 139C169 196 185 216 220 251C313 345 442 409 442 482C442 498 436 513 423 525H403L200 293L178 349C149 433 137 468 150 525H130C61 468 41 413 93 303L130 225C81 169 40 130 40 78C40 49 54 23 71 0ZM184 757C184 715 262 674 329 604L349 623C294 706 273 799 229 799C205 799 184 777 184 757Z" glyph-name="Ygrave.small" horiz-adv-x="412" /><glyph d="M-9 1C126 100 488 496 624 665L597 691C457 592 181 340 -35 29ZM27 40C109 31 291 -7 352 -7C428 -7 485 31 485 126H461C449 94 391 91 319 91H84ZM556 651C507 658 339 697 265 697C159 697 121 614 121 568H148C167 603 200 605 277 605H503Z" glyph-name="Z" horiz-adv-x="594" unicode="Z" /><glyph d="M500 505 479 525C340 425 124 262 -50 18L-29 -2C115 121 371 320 500 505ZM441 488C398 490 275 531 206 531C110 531 85 444 85 407H107C123 439 146 450 216 450H401ZM1 38C79 35 212 -7 271 -7C340 -7 383 41 383 122H363C352 93 316 82 251 82H48Z" glyph-name="Z.small" horiz-adv-x="490" /><glyph d="M-9 1C126 100 488 496 624 665L597 691C457 592 181 340 -35 29ZM27 40C109 31 291 -7 352 -7C428 -7 485 31 485 126H461C449 94 391 91 319 91H84ZM556 651C507 658 339 697 265 697C159 697 121 614 121 568H148C167 603 200 605 277 605H503ZM321 763 331 737C399 758 485 774 515 781C538 788 554 802 554 825C554 849 537 868 514 868C469 868 419 814 321 763Z" glyph-name="Zacute" horiz-adv-x="594" unicode="&#377;" /><glyph d="M500 505 479 525C340 425 124 262 -50 18L-29 -2C115 121 371 320 500 505ZM441 488C398 490 275 531 206 531C110 531 85 444 85 407H107C123 439 146 450 216 450H401ZM1 38C79 35 212 -7 271 -7C340 -7 383 41 383 122H363C352 93 316 82 251 82H48ZM236 623 251 604C367 686 450 708 450 756C450 776 432 794 410 794C368 794 336 720 236 623Z" glyph-name="Zacute.small" horiz-adv-x="490" /><glyph d="M-9 1C126 100 488 496 624 665L597 691C457 592 181 340 -35 29ZM27 40C109 31 291 -7 352 -7C428 -7 485 31 485 126H461C449 94 391 91 319 91H84ZM556 651C507 658 339 697 265 697C159 697 121 614 121 568H148C167 603 200 605 277 605H503ZM268 855C289 831 321 797 354 731H379L587 850L572 878L417 801C374 839 339 867 303 880Z" glyph-name="Zcaron" horiz-adv-x="594" unicode="&#381;" /><glyph d="M500 505 479 525C340 425 124 262 -50 18L-29 -2C115 121 371 320 500 505ZM441 488C398 490 275 531 206 531C110 531 85 444 85 407H107C123 439 146 450 216 450H401ZM1 38C79 35 212 -7 271 -7C340 -7 383 41 383 122H363C352 93 316 82 251 82H48ZM204 784C225 750 257 679 279 602H305L537 776L523 803L344 684C312 738 267 792 239 806Z" glyph-name="Zcaron.small" horiz-adv-x="490" /><glyph d="M-9 1C126 100 488 496 624 665L597 691C457 592 181 340 -35 29ZM27 40C109 31 291 -7 352 -7C428 -7 485 31 485 126H461C449 94 391 91 319 91H84ZM556 651C507 658 339 697 265 697C159 697 121 614 121 568H148C167 603 200 605 277 605H503ZM334 798C334 767 359 742 389 742C420 742 446 767 446 798C446 829 420 854 389 854C359 854 334 829 334 798Z" glyph-name="Zdotaccent" horiz-adv-x="594" unicode="&#379;" /><glyph d="M500 505 479 525C340 425 124 262 -50 18L-29 -2C115 121 371 320 500 505ZM441 488C398 490 275 531 206 531C110 531 85 444 85 407H107C123 439 146 450 216 450H401ZM1 38C79 35 212 -7 271 -7C340 -7 383 41 383 122H363C352 93 316 82 251 82H48ZM308 642C344 642 371 667 371 705C371 733 350 753 320 753C285 753 257 728 257 689C257 661 279 642 308 642Z" glyph-name="Zdotaccent.small" horiz-adv-x="490" /><glyph d="M320 -10C384 -10 414 26 412 75H387C382 43 366 35 345 35C321 35 310 46 310 77C310 148 428 253 428 353C428 429 373 485 274 485C164 485 89 429 93 335H136C144 400 186 439 252 439C311 439 335 403 335 364C335 332 321 301 285 288C260 279 226 272 193 267C91 252 -23 203 -23 94C-23 32 17 -10 82 -10C149 -10 188 16 221 70C229 17 258 -10 320 -10ZM137 49C95 49 83 89 95 138C108 192 147 218 187 227C215 235 252 240 285 252C263 225 250 197 236 167C212 115 187 49 137 49Z" glyph-name="a" horiz-adv-x="501" unicode="a" /><glyph d="M270 399C314 399 332 421 326 452H308C308 431 297 425 283 425C267 425 257 435 257 455C257 499 326 542 326 608C326 660 282 691 216 691C145 691 98 659 107 603H135C136 641 162 664 203 664C239 664 258 645 258 620C258 601 252 585 229 576C212 570 191 565 171 562C104 553 36 531 36 466C36 424 67 399 113 399C156 399 181 416 195 446C204 415 229 399 270 399ZM146 433C120 433 113 457 119 487C125 518 145 532 167 538C185 544 207 546 227 554C212 537 205 520 198 502C186 471 175 433 146 433Z" glyph-name="a.superior" horiz-adv-x="315" /><glyph d="M320 -10C384 -10 414 26 412 75H387C382 43 366 35 345 35C321 35 310 46 310 77C310 148 428 253 428 353C428 429 373 485 274 485C164 485 89 429 93 335H136C144 400 186 439 252 439C311 439 335 403 335 364C335 332 321 301 285 288C260 279 226 272 193 267C91 252 -23 203 -23 94C-23 32 17 -10 82 -10C149 -10 188 16 221 70C229 17 258 -10 320 -10ZM137 49C95 49 83 89 95 138C108 192 147 218 187 227C215 235 252 240 285 252C263 225 250 197 236 167C212 115 187 49 137 49ZM266 573 281 554C397 636 480 658 480 706C480 726 462 744 440 744C398 744 366 670 266 573Z" glyph-name="aacute" horiz-adv-x="501" unicode="&#225;" /><glyph d="M320 -10C384 -10 414 26 412 75H387C382 43 366 35 345 35C321 35 310 46 310 77C310 148 428 253 428 353C428 429 373 485 274 485C164 485 89 429 93 335H136C144 400 186 439 252 439C311 439 335 403 335 364C335 332 321 301 285 288C260 279 226 272 193 267C91 252 -23 203 -23 94C-23 32 17 -10 82 -10C149 -10 188 16 221 70C229 17 258 -10 320 -10ZM137 49C95 49 83 89 95 138C108 192 147 218 187 227C215 235 252 240 285 252C263 225 250 197 236 167C212 115 187 49 137 49ZM311 574C430 574 512 667 537 746H505C475 700 425 643 350 643C268 643 266 703 270 746H245C222 711 212 681 217 646C222 609 247 574 311 574Z" glyph-name="abreve" horiz-adv-x="501" unicode="&#259;" /><glyph d="M320 -10C384 -10 414 26 412 75H387C382 43 366 35 345 35C321 35 310 46 310 77C310 148 428 253 428 353C428 429 373 485 274 485C164 485 89 429 93 335H136C144 400 186 439 252 439C311 439 335 403 335 364C335 332 321 301 285 288C260 279 226 272 193 267C91 252 -23 203 -23 94C-23 32 17 -10 82 -10C149 -10 188 16 221 70C229 17 258 -10 320 -10ZM137 49C95 49 83 89 95 138C108 192 147 218 187 227C215 235 252 240 285 252C263 225 250 197 236 167C212 115 187 49 137 49ZM147 581 161 554 340 670C359 640 420 571 448 556L473 574C446 624 416 705 405 756H379Z" glyph-name="acircumflex" horiz-adv-x="501" unicode="&#226;" /><glyph d="M238 573 253 554C369 636 452 658 452 706C452 726 434 744 412 744C370 744 338 670 238 573Z" glyph-name="acute" horiz-adv-x="500" unicode="&#180;" /><glyph d="M322 765 332 739C400 760 486 776 516 783C539 790 555 804 555 827C555 851 538 870 515 870C470 870 420 816 322 765Z" glyph-name="acute.cap" horiz-adv-x="500" /><glyph d="M320 -10C384 -10 414 26 412 75H387C382 43 366 35 345 35C321 35 310 46 310 77C310 148 428 253 428 353C428 429 373 485 274 485C164 485 89 429 93 335H136C144 400 186 439 252 439C311 439 335 403 335 364C335 332 321 301 285 288C260 279 226 272 193 267C91 252 -23 203 -23 94C-23 32 17 -10 82 -10C149 -10 188 16 221 70C229 17 258 -10 320 -10ZM137 49C95 49 83 89 95 138C108 192 147 218 187 227C215 235 252 240 285 252C263 225 250 197 236 167C212 115 187 49 137 49ZM187 655C187 634 201 616 227 616C260 616 289 639 289 675C289 698 274 715 248 715C217 715 187 692 187 655ZM365 655C365 634 379 616 405 616C437 616 467 639 467 675C467 698 452 715 426 715C395 715 365 692 365 655Z" glyph-name="adieresis" horiz-adv-x="501" unicode="&#228;" /><glyph d="M442 -10C549 -10 621 52 615 157H576C571 75 532 38 446 38C387 38 351 65 351 113C351 155 366 166 399 235C489 233 552 239 598 254C655 272 694 316 694 373C694 440 646 485 558 485C496 485 447 463 404 418C384 459 342 485 274 485C164 485 89 429 93 335H136C144 400 186 439 252 439C311 439 335 403 335 364C335 332 321 301 285 288C260 279 226 272 193 267C91 252 -23 203 -23 94C-23 32 18 -10 94 -10C168 -10 215 30 253 105C266 29 332 -10 442 -10ZM546 447C595 447 602 404 580 346C573 329 563 301 534 285C502 267 446 267 411 267C468 386 479 447 546 447ZM137 49C95 49 83 89 95 138C108 192 147 218 187 227C215 235 252 240 285 252C263 225 250 197 236 167C212 115 187 49 137 49Z" glyph-name="ae" horiz-adv-x="737" unicode="&#230;" /><glyph d="M442 -10C549 -10 621 52 615 157H576C571 75 532 38 446 38C387 38 351 65 351 113C351 155 366 166 399 235C489 233 552 239 598 254C655 272 694 316 694 373C694 440 646 485 558 485C496 485 447 463 404 418C384 459 342 485 274 485C164 485 89 429 93 335H136C144 400 186 439 252 439C311 439 335 403 335 364C335 332 321 301 285 288C260 279 226 272 193 267C91 252 -23 203 -23 94C-23 32 18 -10 94 -10C168 -10 215 30 253 105C266 29 332 -10 442 -10ZM546 447C595 447 602 404 580 346C573 329 563 301 534 285C502 267 446 267 411 267C468 386 479 447 546 447ZM137 49C95 49 83 89 95 138C108 192 147 218 187 227C215 235 252 240 285 252C263 225 250 197 236 167C212 115 187 49 137 49ZM455 573 470 554C586 636 669 658 669 706C669 726 651 744 629 744C587 744 555 670 455 573Z" glyph-name="aeacute" horiz-adv-x="737" unicode="&#509;" /><glyph d="M320 -10C384 -10 414 26 412 75H387C382 43 366 35 345 35C321 35 310 46 310 77C310 148 428 253 428 353C428 429 373 485 274 485C164 485 89 429 93 335H136C144 400 186 439 252 439C311 439 335 403 335 364C335 332 321 301 285 288C260 279 226 272 193 267C91 252 -23 203 -23 94C-23 32 17 -10 82 -10C149 -10 188 16 221 70C229 17 258 -10 320 -10ZM137 49C95 49 83 89 95 138C108 192 147 218 187 227C215 235 252 240 285 252C263 225 250 197 236 167C212 115 187 49 137 49ZM177 707C177 665 255 624 322 554L342 573C287 656 266 749 222 749C198 749 177 727 177 707Z" glyph-name="agrave" horiz-adv-x="501" unicode="&#224;" /><glyph d="M320 -10C384 -10 414 26 412 75H387C382 43 366 35 345 35C321 35 310 46 310 77C310 148 428 253 428 353C428 429 373 485 274 485C164 485 89 429 93 335H136C144 400 186 439 252 439C311 439 335 403 335 364C335 332 321 301 285 288C260 279 226 272 193 267C91 252 -23 203 -23 94C-23 32 17 -10 82 -10C149 -10 188 16 221 70C229 17 258 -10 320 -10ZM137 49C95 49 83 89 95 138C108 192 147 218 187 227C215 235 252 240 285 252C263 225 250 197 236 167C212 115 187 49 137 49ZM202 704 175 646H463L489 704Z" glyph-name="amacron" horiz-adv-x="501" unicode="&#257;" /><glyph d="M290 242C267 305 253 387 253 440C253 621 332 698 460 698C559 698 602 635 602 573C602 443 441 416 314 391C182 365 134 307 139 201C144 104 200 43 293 43C406 43 541 109 541 326H586C599 80 417 -11 254 -11C122 -11 16 57 16 175C16 321 136 400 300 426C453 450 510 490 510 573C510 619 481 655 428 655C368 655 328 604 328 548C328 479 360 437 404 281C448 124 446 6 557 6C591 6 610 17 629 36L651 6C629 -22 591 -38 548 -38C434 -38 354 66 290 242Z" glyph-name="ampersand" horiz-adv-x="698" unicode="&amp;" /><glyph d="M237 181C215 230 186 299 186 338C186 465 261 533 360 533C443 533 476 486 476 436C476 326 344 323 239 299C138 276 107 234 107 153C107 87 156 36 233 36C328 36 434 95 434 250H476C481 59 335 -10 198 -10C88 -10 5 38 5 140C5 256 97 307 230 328C357 348 397 369 397 434C397 470 378 498 339 498C286 498 258 461 258 413C258 353 293 325 335 207C375 96 377 8 463 8C492 8 509 19 524 34L540 5C521 -18 493 -30 453 -30C358 -30 294 52 237 181Z" glyph-name="ampersand.small" horiz-adv-x="591" /><glyph d="M235 -137C235 -180 260 -209 308 -209C369 -209 397 -170 407 -116H380C374 -139 364 -157 339 -157C318 -157 308 -143 308 -119C308 -80 338 -35 386 10L371 24C294 -26 235 -70 235 -137ZM320 -10C384 -10 414 26 412 75H387C382 43 366 35 345 35C321 35 310 46 310 77C310 148 428 253 428 353C428 429 373 485 274 485C164 485 89 429 93 335H136C144 400 186 439 252 439C311 439 335 403 335 364C335 332 321 301 285 288C260 279 226 272 193 267C91 252 -23 203 -23 94C-23 32 17 -10 82 -10C149 -10 188 16 221 70C229 17 258 -10 320 -10ZM137 49C95 49 83 89 95 138C108 192 147 218 187 227C215 235 252 240 285 252C263 225 250 197 236 167C212 115 187 49 137 49Z" glyph-name="aogonek" horiz-adv-x="501" unicode="&#261;" /><glyph d="M222 485C269 485 302 466 332 446C361 427 388 408 420 408C463 408 479 444 482 485H519C517 398 473 347 384 347C331 347 296 366 266 385C237 404 214 423 185 423C142 423 124 382 122 347H86C89 432 133 485 222 485ZM222 263C267 263 300 244 330 224C361 205 388 186 420 186C463 186 479 222 482 263H519C517 176 473 125 384 125C333 125 298 144 267 163C238 182 214 201 185 201C142 201 124 159 122 125H86C89 209 133 263 222 263Z" glyph-name="approxequal" horiz-adv-x="624" unicode="&#8776;" /><glyph d="M320 -10C384 -10 414 26 412 75H387C382 43 366 35 345 35C321 35 310 46 310 77C310 148 428 253 428 353C428 429 373 485 274 485C164 485 89 429 93 335H136C144 400 186 439 252 439C311 439 335 403 335 364C335 332 321 301 285 288C260 279 226 272 193 267C91 252 -23 203 -23 94C-23 32 17 -10 82 -10C149 -10 188 16 221 70C229 17 258 -10 320 -10ZM137 49C95 49 83 89 95 138C108 192 147 218 187 227C215 235 252 240 285 252C263 225 250 197 236 167C212 115 187 49 137 49ZM215 661C215 607 253 573 314 573C385 573 440 621 440 687C440 737 404 776 341 776C268 776 215 724 215 661ZM381 686C381 652 359 610 319 610C284 610 273 633 273 662C273 707 301 738 336 738C367 738 381 716 381 686Z" glyph-name="aring" horiz-adv-x="501" unicode="&#229;" /><glyph d="M320 -10C384 -10 414 26 412 75H387C382 43 366 35 345 35C321 35 310 46 310 77C310 148 428 253 428 353C428 429 373 485 274 485C164 485 89 429 93 335H136C144 400 186 439 252 439C311 439 335 403 335 364C335 332 321 301 285 288C260 279 226 272 193 267C91 252 -23 203 -23 94C-23 32 17 -10 82 -10C149 -10 188 16 221 70C229 17 258 -10 320 -10ZM137 49C95 49 83 89 95 138C108 192 147 218 187 227C215 235 252 240 285 252C263 225 250 197 236 167C212 115 187 49 137 49ZM213 634C213 580 251 546 312 546C383 546 438 594 438 660C438 710 402 749 339 749C266 749 213 697 213 634ZM379 659C379 625 357 583 317 583C282 583 271 606 271 635C271 680 299 711 334 711C365 711 379 689 379 659ZM290 823 300 797C368 818 454 834 484 841C507 848 523 862 523 885C523 909 506 928 483 928C438 928 388 874 290 823Z" glyph-name="aringacute" horiz-adv-x="501" unicode="&#507;" /><glyph d="M257 690H317V47H257ZM250 83 499 261 522 227 288 -8 53 227 77 261 326 83Z" glyph-name="arrowdown" horiz-adv-x="576" unicode="&#8595;" /><glyph d="M573 442 532 482 104 54 145 13ZM89 0H422V39L126 89L180 35L128 332H89Z" glyph-name="arrowdownleft" horiz-adv-x="621" unicode="&#8601;" /><glyph d="M48 442 89 482 517 54 476 13ZM532 0H199V39L495 89L441 35L493 332H532Z" glyph-name="arrowdownright" horiz-adv-x="621" unicode="&#8600;" /><glyph d="M638 293V233H73V293ZM254 497 288 473 109 224V301L288 51L254 28L19 262Z" glyph-name="arrowleft" horiz-adv-x="703" unicode="&#8592;" /><glyph d="M43 293V233H608V293ZM427 497 393 473 572 224V301L393 51L427 28L662 262Z" glyph-name="arrowright" horiz-adv-x="703" unicode="&#8594;" /><glyph d="M319 0H259V643H319ZM326 607 77 429 54 463 288 698 523 463 499 429 250 607Z" glyph-name="arrowup" horiz-adv-x="576" unicode="&#8593;" /><glyph d="M573 34 532 -6 104 422 145 463ZM89 476H422V437L126 387L180 441L128 144H89Z" glyph-name="arrowupleft" horiz-adv-x="621" unicode="&#8598;" /><glyph d="M48 34 89 -6 517 422 476 463ZM532 476H199V437L495 387L441 441L493 144H532Z" glyph-name="arrowupright" horiz-adv-x="621" unicode="&#8599;" /><glyph d="M290 683 121 408 155 379 325 585H312L483 379L517 408L348 683Z" glyph-name="asciicircum" horiz-adv-x="612" unicode="^" /><glyph d="M222 387C274 387 307 367 336 345C364 324 388 303 420 303C463 303 479 346 482 387H519C517 301 473 235 385 235C327 235 291 256 262 277C234 298 213 319 185 319C142 319 124 269 122 235H86C89 319 133 387 222 387Z" glyph-name="asciitilde" horiz-adv-x="624" unicode="~" /><glyph d="M397 346 287 498 450 468 453 570 288 524 358 678 263 706V529L135 639L85 550L250 506L96 414L160 337L265 487L302 313Z" glyph-name="asterisk" horiz-adv-x="482" unicode="*" /><glyph d="M541 368C541 281 459 73 322 73C257 73 211 110 211 194C211 332 329 461 442 461C511 461 541 416 541 368ZM509 361C509 396 493 425 456 425C391 425 386 345 357 272C330 203 303 188 303 148C303 125 317 112 345 112C423 112 509 278 509 361ZM620 -15 640 -48C639 -49 548 -135 366 -135C126 -135 20 12 20 182C20 408 190 670 503 670C708 670 825 544 825 390C825 176 662 71 548 71C484 71 463 102 463 142C463 165 469 189 483 234L536 400L609 442H642L560 216C550 185 541 161 541 147C541 126 551 114 576 114C645 114 752 208 752 391C752 525 663 629 497 629C240 629 102 410 102 191C102 19 197 -90 386 -90C535 -90 619 -16 620 -15Z" glyph-name="at" horiz-adv-x="861" unicode="@" /><glyph d="M556 435C556 348 474 140 337 140C272 140 226 177 226 261C226 399 344 528 457 528C526 528 556 483 556 435ZM524 428C524 463 508 492 471 492C406 492 401 412 372 339C345 270 318 255 318 215C318 192 332 179 360 179C438 179 524 345 524 428ZM635 52 655 19C654 18 563 -68 381 -68C141 -68 35 79 35 249C35 475 205 737 518 737C723 737 840 611 840 457C840 243 677 138 563 138C499 138 478 169 478 209C478 232 484 256 498 301L551 467L624 509H657L575 283C565 252 556 228 556 214C556 193 566 181 591 181C660 181 767 275 767 458C767 592 678 696 512 696C255 696 117 477 117 258C117 86 212 -23 401 -23C550 -23 634 51 635 52Z" glyph-name="at.cap" horiz-adv-x="861" /><glyph d="M493 345C493 271 428 96 298 96C239 96 200 130 200 201C200 321 305 424 402 424C463 424 493 386 493 345ZM461 336C461 367 444 393 409 393C347 393 355 333 320 263C290 203 273 196 273 165C273 145 287 129 313 129C391 129 461 263 461 336ZM503 216C493 189 487 169 487 157C487 138 499 128 518 128C575 128 667 207 667 362C667 480 585 564 443 564C218 564 91 382 91 196C91 46 183 -40 342 -40C469 -40 549 25 549 26L568 -5C567 -6 489 -81 329 -81C112 -81 18 41 18 189C18 381 171 602 452 602C637 602 735 494 735 364C735 180 591 94 488 94C436 94 419 120 419 154C419 174 415 167 428 205L484 372L541 409H570Z" glyph-name="at.small" horiz-adv-x="775" /><glyph d="M320 -10C384 -10 414 26 412 75H387C382 43 366 35 345 35C321 35 310 46 310 77C310 148 428 253 428 353C428 429 373 485 274 485C164 485 89 429 93 335H136C144 400 186 439 252 439C311 439 335 403 335 364C335 332 321 301 285 288C260 279 226 272 193 267C91 252 -23 203 -23 94C-23 32 17 -10 82 -10C149 -10 188 16 221 70C229 17 258 -10 320 -10ZM137 49C95 49 83 89 95 138C108 192 147 218 187 227C215 235 252 240 285 252C263 225 250 197 236 167C212 115 187 49 137 49ZM162 594H195C199 637 208 666 247 666C303 666 316 592 394 592C461 592 508 629 508 724H474C471 681 462 654 423 654C371 654 358 728 275 728C205 728 162 692 162 594Z" glyph-name="atilde" horiz-adv-x="501" unicode="&#227;" /><glyph d="M214 -10C368 -10 487 184 487 339C487 430 437 485 350 485C290 485 240 451 209 404C239 468 254 545 254 584C254 641 242 677 220 710L189 701C197 683 201 655 201 641C201 445 15 334 15 145C15 106 23 48 49 0H70L103 111C107 49 133 -10 214 -10ZM338 229C298 133 305 39 214 39C156 39 122 100 144 186C184 341 257 437 340 437C381 437 411 416 411 378C411 333 374 315 338 229Z" glyph-name="b" horiz-adv-x="549" unicode="b" /><glyph d="M200 399C296 399 364 497 364 585C364 642 334.4118 691 265 691C229 691 199 673 182 648C196 681 202 716 202 741C202 781 188 809 168 829L152 824C161.7947 806.043 163 791.4868 163 776C163 682 60 624 60 517C60 488.7919 67.5966 445.6455 93 405H106L122 470C127 435 145 399 200 399ZM261 541C240 483 250 427 194 427C165 427 145 451 145 488C145 580 205.0276 664 263 664C290.0588 664 306 651 306 628C306 602 279 591 261 541Z" glyph-name="b.superior" horiz-adv-x="348" /><glyph d="M114 710H67C122 449 232 123 328 -88H374C333 116 209 486 114 710Z" glyph-name="backslash" horiz-adv-x="444" unicode="\" /><glyph d="M165 -153H103V740H165Z" glyph-name="bar" horiz-adv-x="268" unicode="|" /><glyph d="M196 142C196 209 158 258 90 269V258C130 252 255 264 292 407C308 468 310 527 310 603C310 667 344 686 394 693L420 697V737H395C290 737 198 703 198 532V399C198 325 157 294 67 294L55 259C55 259 124 224 124 161C124 46 12 13 12 -104C12 -166 53 -216 162 -216H191V-176L172 -173C136 -167 118 -152 118 -118C118 -47 196 35 196 142Z" glyph-name="braceleft" horiz-adv-x="380" unicode="{" /><glyph d="M196 203C196 270 158 319 90 330V319C130 313 255 325 292 468C308 529 310 588 310 664C310 728 344 747 394 754L420 758V798H395C290 798 198 764 198 593V460C198 386 157 355 67 355L55 320C55 320 124 285 124 222C124 107 12 74 12 -43C12 -105 53 -155 162 -155H191V-115L172 -112C136 -106 118 -91 118 -57C118 14 196 96 196 203Z" glyph-name="braceleft.cap" horiz-adv-x="380" /><glyph d="M184 162C184 219 148 259 87 268V258C122 254 245 274 272 367C286 414 287 470 287 527C287 580 318 596 363 602L387 605V641H365C269 641 177 613 177 474V374C177 318 133 288 58 288L47 259C47 259 110 231 110 177C110 92 11 67 11 -25C11 -79 58 -119 157 -119H182V-82L165 -79C132 -75 115 -63 115 -32C115 23 184 83 184 162Z" glyph-name="braceleft.small" horiz-adv-x="362" /><glyph d="M137 379C137 312 175 263 243 252V263C203 269 78 257 41 114C25 53 23 -6 23 -82C23 -146 -11 -165 -61 -172L-87 -176V-216H-62C43 -216 135 -182 135 -11V122C135 196 176 227 266 227L278 262C278 262 209 297 209 360C209 475 321 508 321 625C321 687 280 737 171 737H142V697L161 694C197 688 215 673 215 639C215 568 137 486 137 379Z" glyph-name="braceright" horiz-adv-x="380" unicode="}" /><glyph d="M147 440C147 373 185 324 253 313V324C213 330 88 318 51 175C35 114 33 55 33 -21C33 -85 -1 -104 -51 -111L-77 -115V-155H-52C53 -155 145 -121 145 50V183C145 257 186 288 276 288L288 323C288 323 219 358 219 421C219 536 331 569 331 686C331 748 290 798 181 798H152V758L171 755C207 749 225 734 225 700C225 629 147 547 147 440Z" glyph-name="braceright.cap" horiz-adv-x="380" /><glyph d="M138 361C138 304 174 264 235 255V265C200 269 77 249 50 156C36 109 35 53 35 -4C35 -57 4 -73 -41 -79L-65 -82V-118H-43C53 -118 145 -90 145 49V149C145 205 189 235 264 235L275 264C275 264 212 292 212 346C212 431 311 456 311 548C311 602 264 642 165 642H140V605L157 602C190 598 207 586 207 555C207 500 138 440 138 361Z" glyph-name="braceright.small" horiz-adv-x="372" /><glyph d="M292 691H418L431 739H214L-49 -216H167L179 -168H55L59 -174L301 697Z" glyph-name="bracketleft" horiz-adv-x="333" unicode="[" /><glyph d="M292 758H418L431 806H214L-49 -149H167L179 -101H55L59 -107L301 764Z" glyph-name="bracketleft.cap" horiz-adv-x="333" /><glyph d="M262 592H388L405 643H194L-18 -125H193L211 -74H87L91 -80L270 598Z" glyph-name="bracketleft.small" horiz-adv-x="330" /><glyph d="M7 -168H-119L-132 -216H85L348 739H132L120 691H244L240 697L-2 -174Z" glyph-name="bracketright" horiz-adv-x="333" unicode="]" /><glyph d="M7 -101H-119L-132 -149H85L348 806H132L120 758H244L240 764L-2 -107Z" glyph-name="bracketright.cap" horiz-adv-x="333" /><glyph d="M38 -74H-88L-105 -125H106L318 643H107L89 592H213L209 598L30 -80Z" glyph-name="bracketright.small" horiz-adv-x="330" /><glyph d="M299 574C418 574 500 667 525 746H493C463 700 413 643 338 643C256 643 254 703 258 746H233C210 711 200 681 205 646C210 609 235 574 299 574Z" glyph-name="breve" horiz-adv-x="500" unicode="&#728;" /><glyph d="M313 880C291 853 282 825 287 795C292 765 319 736 384 736C489 736 562 803 592 880H559C530 835 480 796 414 796C345 796 335 838 341 880Z" glyph-name="breve.cap" horiz-adv-x="500" /><glyph d="M165 417H103V740H165ZM165 -153H103V170H165Z" glyph-name="brokenbar" horiz-adv-x="268" unicode="&#166;" /><glyph d="M177 192C256 192 319 249 319 334C319 418 256 476 177 476C99 476 36 418 36 334C36 249 99 192 177 192Z" glyph-name="bullet" horiz-adv-x="389" unicode="&#8226;" /><glyph d="M283 485C133 485 3 330 3 171C3 65 64 -10 173 -10C278 -10 352 52 344 157H305C303 74 254 38 177 38C130 38 91 61 91 102C91 151 115 152 155 246C203 358 199 446 285 446C331 446 353 423 353 391C353 362 337 352 319 341V323C327 320 335 319 343 319C376 319 409 339 409 388C409 440 367 485 283 485Z" glyph-name="c" horiz-adv-x="449" unicode="c" /><glyph d="M220 691C120 691 51 604 51 511C51 442 102 399 175 399C242 399 285 436 273 497H248C252 449 224 426 173 426C141 426 115 440 115 466C115 493 133 493 157 551C182 615 169 669 226 669C254 669 269 655 270 637C272 621 263 614 251 607V595C257 593 264 592 270 592C290 592 309 603 309 631C309 663 278 691 220 691Z" glyph-name="c.superior" horiz-adv-x="280" /><glyph d="M283 485C133 485 3 330 3 171C3 65 64 -10 173 -10C278 -10 352 52 344 157H305C303 74 254 38 177 38C130 38 91 61 91 102C91 151 115 152 155 246C203 358 199 446 285 446C331 446 353 423 353 391C353 362 337 352 319 341V323C327 320 335 319 343 319C376 319 409 339 409 388C409 440 367 485 283 485ZM266 573 281 554C397 636 480 658 480 706C480 726 462 744 440 744C398 744 366 670 266 573Z" glyph-name="cacute" horiz-adv-x="449" unicode="&#263;" /><glyph d="M230 734C251 700 283 629 305 552H331L563 726L549 753L370 634C338 688 293 742 265 756Z" glyph-name="caron" horiz-adv-x="500" unicode="&#711;" /><glyph d="M278 855C299 831 331 797 364 731H389L597 850L582 878L427 801C384 839 349 867 313 880Z" glyph-name="caron.cap" horiz-adv-x="500" /><glyph d="M243 532 273 518C318 550 367 653 376 710H302C296 662 263 570 243 532Z" glyph-name="caronSlovak" horiz-adv-x="500" /><glyph d="M283 485C133 485 3 330 3 171C3 65 64 -10 173 -10C278 -10 352 52 344 157H305C303 74 254 38 177 38C130 38 91 61 91 102C91 151 115 152 155 246C203 358 199 446 285 446C331 446 353 423 353 391C353 362 337 352 319 341V323C327 320 335 319 343 319C376 319 409 339 409 388C409 440 367 485 283 485ZM230 734C251 700 283 629 305 552H331L563 726L549 753L370 634C338 688 293 742 265 756Z" glyph-name="ccaron" horiz-adv-x="449" unicode="&#269;" /><glyph d="M283 485C133 485 3 330 3 171C3 65 64 -10 173 -10C278 -10 352 52 344 157H305C303 74 254 38 177 38C130 38 91 61 91 102C91 151 115 152 155 246C203 358 199 446 285 446C331 446 353 423 353 391C353 362 337 352 319 341V323C327 320 335 319 343 319C376 319 409 339 409 388C409 440 367 485 283 485ZM58 -115C50 -150 61 -200 124 -200C176 -200 222 -166 222 -109C222 -62 186 -35 123 -51L139 -52L158 0L129 10L89 -66L107 -84C113 -82 120 -81 127 -81C150 -81 163 -95 163 -116C163 -146 145 -164 118 -164C88 -164 79 -143 79 -115Z" glyph-name="ccedilla" horiz-adv-x="449" unicode="&#231;" /><glyph d="M283 485C133 485 3 330 3 171C3 65 64 -10 173 -10C278 -10 352 52 344 157H305C303 74 254 38 177 38C130 38 91 61 91 102C91 151 115 152 155 246C203 358 199 446 285 446C331 446 353 423 353 391C353 362 337 352 319 341V323C327 320 335 319 343 319C376 319 409 339 409 388C409 440 367 485 283 485ZM154 581 168 554 347 670C366 640 427 571 455 556L480 574C453 624 423 705 412 756H386Z" glyph-name="ccircumflex" horiz-adv-x="449" unicode="&#265;" /><glyph d="M283 485C133 485 3 330 3 171C3 65 64 -10 173 -10C278 -10 352 52 344 157H305C303 74 254 38 177 38C130 38 91 61 91 102C91 151 115 152 155 246C203 358 199 446 285 446C331 446 353 423 353 391C353 362 337 352 319 341V323C327 320 335 319 343 319C376 319 409 339 409 388C409 440 367 485 283 485ZM323 592C359 592 386 617 386 655C386 683 365 703 335 703C300 703 272 678 272 639C272 611 294 592 323 592Z" glyph-name="cdotaccent" horiz-adv-x="449" unicode="&#267;" /><glyph d="M57 -115C49 -150 60 -200 123 -200C175 -200 221 -166 221 -109C221 -62 185 -35 122 -51L138 -52L157 0L128 10L88 -66L106 -84C112 -82 119 -81 126 -81C149 -81 162 -95 162 -116C162 -146 144 -164 117 -164C87 -164 78 -143 78 -115Z" glyph-name="cedilla" horiz-adv-x="500" unicode="&#184;" /><glyph d="M267 0 296 115H243L213 0ZM419 574 449 690H395L365 574ZM395 594C245 594 115 439 115 280C115 174 176 99 285 99C390 99 464 161 456 266H417C415 183 366 147 289 147C242 147 203 170 203 211C203 260 227 261 267 355C315 467 311 555 397 555C443 555 465 532 465 500C465 471 449 461 431 450V432C439 429 447 428 455 428C488 428 521 448 521 497C521 549 479 594 395 594Z" glyph-name="cent" horiz-adv-x="624" unicode="&#162;" /><glyph d="M68 596V482L405 110L738 479V592L405 224Z" glyph-name="chevrondown" horiz-adv-x="770" /><glyph d="M495 0 167 344 496 690H390L61 344L390 0Z" glyph-name="chevronleft" horiz-adv-x="569" /><glyph d="M74 0 402 344 73 690H179L508 344L179 0Z" glyph-name="chevronright" horiz-adv-x="569" /><glyph d="M702 143V257L365 629L32 260V147L365 515Z" glyph-name="chevronup" horiz-adv-x="770" /><glyph d="M166 581 180 554 359 670C378 640 439 571 467 556L492 574C465 624 435 705 424 756H398Z" glyph-name="circumflex" horiz-adv-x="500" unicode="&#710;" /><glyph d="M256 759 272 731 430 803C452 783 516 740 548 730L569 751C542 783 507 840 490 878H465Z" glyph-name="circumflex.cap" horiz-adv-x="500" /><glyph d="M65 403C65 368 89 340 128 340C164 340 188 367 188 402C188 433 164 463 128 463C88 463 65 434 65 403ZM-16 52C-16 17 8 -11 47 -11C83 -11 107 16 107 51C107 82 83 112 47 112C7 112 -16 83 -16 52Z" glyph-name="colon" horiz-adv-x="218" unicode=":" /><glyph d="M-60 -109 -48 -138C63 -109 117 -17 117 49C117 80 96 111 56 111C19 111 -5 86 -5 53C-5 25 14 4 50 0C40 -43 3 -84 -60 -109Z" glyph-name="comma" horiz-adv-x="261" unicode="," /><glyph d="M41 -220 73 -232C118 -200 172 -110 181 -54H103C96 -103 62 -183 41 -220Z" glyph-name="commaaccent" horiz-adv-x="500" /><glyph d="M311 729 279 741C234 709 180 619 171 563H249C256 612 290 692 311 729Z" glyph-name="commaaccent.alt" horiz-adv-x="500" /><glyph d="M386 -12C579 -12 725 130 725 342C725 557 579 695 386 695C194 695 48 557 48 342C48 130 185 -12 386 -12ZM385 53C218 53 118 175 118 342C118 512 224 630 385 630C545 630 655 510 655 342C655 172 545 53 385 53ZM490 396H527C529 404 529 413 529 419C529 470 492 531 395 531C291 531 221 459 221 334C221 195 312 155 397 155C492 155 539 216 539 293H510C505 242 474 212 418 212C363 212 319 252 319 338C319 418 353 465 410 465C465 465 488 431 490 396Z" glyph-name="copyright" horiz-adv-x="773" unicode="&#169;" /><glyph d="M311 115C208 115 132 196 132 294C132 394 208 473 311 473C416 473 489 393 489 293C489 195 416 115 311 115ZM309 173C380 173 428 228 428 294C428 361 380 414 309 414C239 414 193 361 193 294C193 228 239 173 309 173ZM227 424 182 378 94 469 139 514ZM94 129 182 218 227 174 140 84ZM396 424 484 514 530 469 441 378ZM529 129 483 84 396 174 442 218Z" glyph-name="currency" horiz-adv-x="624" unicode="&#164;" /><glyph d="M334 0H366L469 311C512 442 531 501 531 585C531 631 521 676 497 710L467 701C476 683 479 658 479 648C479 563 425 479 391 400C374 460 330 485 269 485C123 485 3 285 3 137C3 40 56 -11 138 -11C223 -11 277 35 320 124C317 93 321 31 334 0ZM345 285C299 120 226 38 146 38C104 38 80 61 80 96C80 152 120 166 155 252C187 330 189 373 216 409C228 425 245 440 280 440C341 440 369 370 345 285Z" glyph-name="d" horiz-adv-x="549" unicode="d" /><glyph d="M283 405H302L359 594C373 649 386 691 386 734C386 764.5868 377.6387 804.3613 353 829L337 824C345.288 807.424 348 794.0828 348 784C348 735 313 693 292 642C279 675 251 691 212 691C120 691 51 589 51 505C51 450 80.9412 399 148 399C204 399 239 429 262 481C262 459 270 425 283 405ZM272 604C272 514 209.1566 427 152 427C124.9412 427 111 440 111 464C111 493 137 502 156 552C172 597 170 627 187 648C194 657 205 664 224 664C254 664 272 639 272 604Z" glyph-name="d.superior" horiz-adv-x="347" /><glyph d="M107 -54C109 49 123 207 139 290L244 474V690H383L275 474V290C245 192 168 12 127 -54ZM473 534 428 409 257 464 44 409 88 534 262 484Z" glyph-name="dagger" horiz-adv-x="462" unicode="&#8224;" /><glyph d="M59 -54 167 161V316L256 475V690H395L287 475V316L198 161V-54ZM479 536 434 411 268 466 64 411 108 536 274 485ZM390 226 346 101 179 151 -24 101 20 226 184 170Z" glyph-name="daggerdbl" horiz-adv-x="462" unicode="&#8225;" /><glyph d="M334 0H366L469 311C512 442 531 501 531 585C531 631 521 676 497 710L467 701C476 683 479 658 479 648C479 563 425 479 391 400C374 460 330 485 269 485C123 485 3 285 3 137C3 40 56 -11 138 -11C223 -11 277 35 320 124C317 93 321 31 334 0ZM345 285C299 120 226 38 146 38C104 38 80 61 80 96C80 152 120 166 155 252C187 330 189 373 216 409C228 425 245 440 280 440C341 440 369 370 345 285ZM587 532 617 518C662 550 711 653 720 710H646C640 662 607 570 587 532Z" glyph-name="dcaron" horiz-adv-x="560" unicode="&#271;" /><glyph d="M315 616 302 576H619L632 616ZM334 0H366L469 311C512 442 531 501 531 585C531 631 521 676 497 710L467 701C476 683 479 658 479 648C479 563 425 479 391 400C374 460 330 485 269 485C123 485 3 285 3 137C3 40 56 -11 138 -11C223 -11 277 35 320 124C317 93 321 31 334 0ZM345 285C299 120 226 38 146 38C104 38 80 61 80 96C80 152 120 166 155 252C187 330 189 373 216 409C228 425 245 440 280 440C341 440 369 370 345 285Z" glyph-name="dcroat" horiz-adv-x="549" unicode="&#273;" /><glyph d="M179 391C102 391 50 439 50 506C50 606 128 690 235 690C313 690 365 643 365 576C365 482 291 391 179 391ZM270 531C282 561 288 578 288 595C288 622 274 650 232 650C179 650 167 607 145 550C134 521 129 504 129 486C129 459 141 432 184 432C232 432 247 473 270 531Z" glyph-name="degree" horiz-adv-x="392" unicode="&#176;" /><glyph d="M191 655C191 634 205 616 231 616C264 616 293 639 293 675C293 698 278 715 252 715C221 715 191 692 191 655ZM369 655C369 634 383 616 409 616C441 616 471 639 471 675C471 698 456 715 430 715C399 715 369 692 369 655Z" glyph-name="dieresis" horiz-adv-x="500" unicode="&#168;" /><glyph d="M266 788C266 766 280 749 306 749C338 749 368 772 368 807C368 830 353 847 327 847C296 847 266 825 266 788ZM444 788C444 766 458 749 484 749C516 749 545 772 545 807C545 830 531 847 504 847C474 847 444 825 444 788Z" glyph-name="dieresis.cap" horiz-adv-x="500" /><glyph d="M507 340H80V278H507ZM235.2931 101.9513C235.2931 69.0033 257.886 42.6449 294.5995 42.6449C328.4888 42.6449 351.0817 68.0619 351.0817 101.0099C351.0817 130.1924 328.4888 158.4335 294.5995 158.4335C256.9447 158.4335 235.2931 131.1337 235.2931 101.9513ZM235.2931 519.9513C235.2931 487.0033 257.886 460.6449 294.5995 460.6449C328.4888 460.6449 351.0817 486.0619 351.0817 519.0099C351.0817 548.1924 328.4888 576.4335 294.5995 576.4335C256.9447 576.4335 235.2931 549.1337 235.2931 519.9513Z" glyph-name="divide" horiz-adv-x="624" unicode="&#247;" /><glyph d="M348 377 442 751H388L294 377ZM228 -87 337 345H283L174 -87ZM61 225C45 200 38 172 38 143C38 70 82 -10 229 -10C415 -10 504 113 504 220C504 334 429 366 349 393C278 416 227 428 227 506C227 562 261 628 386 628C518 628 511 541 499 480H544C555 500 562 523 562 549C562 625 503 679 392 679C221 679 127 573 127 467C127 363 182 330 259 297C334 265 391 250 391 172C391 106 350 42 231 42C102 42 90 127 102 225Z" glyph-name="dollar" horiz-adv-x="624" unicode="$" /><glyph d="M288 592C324 592 351 617 351 655C351 683 330 703 300 703C265 703 237 678 237 639C237 611 259 592 288 592Z" glyph-name="dotaccent" horiz-adv-x="500" unicode="&#729;" /><glyph d="M350 798C350 767 375 742 405 742C436 742 462 767 462 798C462 829 436 854 405 854C375 854 350 829 350 798Z" glyph-name="dotaccent.cap" horiz-adv-x="500" /><glyph d="M131 474C138 463 142 447 142 435C142 332 16 273 16 130C16 88 29 48 50 0H82L123 131C154 231 197 325 197 384C197 421 191 450 161 482Z" glyph-name="dotlessi" horiz-adv-x="260" unicode="&#305;" /><glyph d="M-138 -110C-145 -126 -150 -145 -150 -165C-150 -208 -122 -250 -55 -250C64 -250 70 -133 103 -28L174 202C202 293 222 331 222 390C222 427 212 460 184 482L156 474C162 464 167 448 167 434C167 324 33 290 33 103V-26C33 -141 4 -204 -51 -204C-110 -204 -109 -155 -99 -110Z" glyph-name="dotlessj" horiz-adv-x="282" unicode="&#567;" /><glyph d="M346 157H307C302 75 263 38 177 38C118 38 82 65 82 113C82 155 97 166 130 235C220 233 283 239 329 254C386 272 425 316 425 373C425 440 377 485 289 485C152 485 3 331 3 170C3 63 54 -10 176 -10C283 -10 352 52 346 157ZM277 447C326 447 333 404 311 346C304 329 294 301 265 285C233 267 177 267 142 267C199 386 210 447 277 447Z" glyph-name="e" horiz-adv-x="468" unicode="e" /><glyph d="M276 497H252C252 445 229 426 174 426C128 426 112 445 112 473C112 493 123 500 143 540C195 540 238 543 269 554C302 565 325 588 325 619C325 655 296.0588 691 229 691C146 691 50 612 50 519C50 453 85.2353 399 177 399C238 399 278 426 278 476C278 483 277 490 276 497ZM220 671C240 671 249 658 249 637C249 620.7471 248 593 221 573C205 561 176 558 150 558C182 633 177 671 220 671Z" glyph-name="e.superior" horiz-adv-x="296" /><glyph d="M346 157H307C302 75 263 38 177 38C118 38 82 65 82 113C82 155 97 166 130 235C220 233 283 239 329 254C386 272 425 316 425 373C425 440 377 485 289 485C152 485 3 331 3 170C3 63 54 -10 176 -10C283 -10 352 52 346 157ZM277 447C326 447 333 404 311 346C304 329 294 301 265 285C233 267 177 267 142 267C199 386 210 447 277 447ZM283 573 298 554C414 636 497 658 497 706C497 726 479 744 457 744C415 744 383 670 283 573Z" glyph-name="eacute" horiz-adv-x="468" unicode="&#233;" /><glyph d="M346 157H307C302 75 263 38 177 38C118 38 82 65 82 113C82 155 97 166 130 235C220 233 283 239 329 254C386 272 425 316 425 373C425 440 377 485 289 485C152 485 3 331 3 170C3 63 54 -10 176 -10C283 -10 352 52 346 157ZM277 447C326 447 333 404 311 346C304 329 294 301 265 285C233 267 177 267 142 267C199 386 210 447 277 447ZM321 574C440 574 522 667 547 746H515C485 700 435 643 360 643C278 643 276 703 280 746H255C232 711 222 681 227 646C232 609 257 574 321 574Z" glyph-name="ebreve" horiz-adv-x="468" unicode="&#277;" /><glyph d="M346 157H307C302 75 263 38 177 38C118 38 82 65 82 113C82 155 97 166 130 235C220 233 283 239 329 254C386 272 425 316 425 373C425 440 377 485 289 485C152 485 3 331 3 170C3 63 54 -10 176 -10C283 -10 352 52 346 157ZM277 447C326 447 333 404 311 346C304 329 294 301 265 285C233 267 177 267 142 267C199 386 210 447 277 447ZM227 734C248 700 280 629 302 552H328L560 726L546 753L367 634C335 688 290 742 262 756Z" glyph-name="ecaron" horiz-adv-x="468" unicode="&#283;" /><glyph d="M346 157H307C302 75 263 38 177 38C118 38 82 65 82 113C82 155 97 166 130 235C220 233 283 239 329 254C386 272 425 316 425 373C425 440 377 485 289 485C152 485 3 331 3 170C3 63 54 -10 176 -10C283 -10 352 52 346 157ZM277 447C326 447 333 404 311 346C304 329 294 301 265 285C233 267 177 267 142 267C199 386 210 447 277 447ZM177 581 191 554 370 670C389 640 450 571 478 556L503 574C476 624 446 705 435 756H409Z" glyph-name="ecircumflex" horiz-adv-x="468" unicode="&#234;" /><glyph d="M346 157H307C302 75 263 38 177 38C118 38 82 65 82 113C82 155 97 166 130 235C220 233 283 239 329 254C386 272 425 316 425 373C425 440 377 485 289 485C152 485 3 331 3 170C3 63 54 -10 176 -10C283 -10 352 52 346 157ZM277 447C326 447 333 404 311 346C304 329 294 301 265 285C233 267 177 267 142 267C199 386 210 447 277 447ZM202 655C202 634 216 616 242 616C275 616 304 639 304 675C304 698 289 715 263 715C232 715 202 692 202 655ZM380 655C380 634 394 616 420 616C452 616 482 639 482 675C482 698 467 715 441 715C410 715 380 692 380 655Z" glyph-name="edieresis" horiz-adv-x="468" unicode="&#235;" /><glyph d="M346 157H307C302 75 263 38 177 38C118 38 82 65 82 113C82 155 97 166 130 235C220 233 283 239 329 254C386 272 425 316 425 373C425 440 377 485 289 485C152 485 3 331 3 170C3 63 54 -10 176 -10C283 -10 352 52 346 157ZM277 447C326 447 333 404 311 346C304 329 294 301 265 285C233 267 177 267 142 267C199 386 210 447 277 447ZM325 592C361 592 388 617 388 655C388 683 367 703 337 703C302 703 274 678 274 639C274 611 296 592 325 592Z" glyph-name="edotaccent" horiz-adv-x="468" unicode="&#279;" /><glyph d="M346 157H307C302 75 263 38 177 38C118 38 82 65 82 113C82 155 97 166 130 235C220 233 283 239 329 254C386 272 425 316 425 373C425 440 377 485 289 485C152 485 3 331 3 170C3 63 54 -10 176 -10C283 -10 352 52 346 157ZM277 447C326 447 333 404 311 346C304 329 294 301 265 285C233 267 177 267 142 267C199 386 210 447 277 447ZM194 707C194 665 272 624 339 554L359 573C304 656 283 749 239 749C215 749 194 727 194 707Z" glyph-name="egrave" horiz-adv-x="468" unicode="&#232;" /><glyph d="M193 337C69 300 12 222 12 142C12 58 74 -10 215 -10C414 -10 487 104 487 212C487 418 193 362 193 519C193 573 243 631 331 631C407 631 446 586 446 528C446 482 435 428 331 383L376 366C459 389 540 450 540 534C540 614 475 680 353 680C189 680 107 582 107 472C107 368 176 329 245 297C313 264 382 237 382 158C382 93 332 40 242 40C150 40 109 97 109 163C109 205 142 291 218 315Z" glyph-name="eight" horiz-adv-x="577" unicode="8" /><glyph d="M146 277C40 247 -10 179 -10 113C-10 49 40 -10 158 -10C327 -10 393 87 393 171C393 335 148 287 148 408C148 450 186 492 260 492C323 492 351 457 351 413C351 378 344 332 259 301L293 287C363 303 433 353 433 420C433 482 382 533 279 533C141 533 73 459 73 371C73 290 129 257 186 231C243 205 301 183 301 123C301 73 254 31 180 31C104 31 73 76 73 126C73 172 101 234 166 254Z" glyph-name="eight.small" horiz-adv-x="483" /><glyph d="M173 277C67 247 17 179 17 113C17 49 67 -10 185 -10C354 -10 420 87 420 171C420 335 175 287 175 408C175 450 213 492 287 492C350 492 378 457 378 413C378 378 371 332 286 301L320 287C390 303 460 353 460 420C460 482 409 533 306 533C168 533 100 459 100 371C100 290 156 257 213 231C270 205 328 183 328 123C328 73 281 31 207 31C131 31 100 76 100 126C100 172 128 234 193 254Z" glyph-name="eight.small_tab" horiz-adv-x="533" /><glyph d="M218 337C94 300 37 222 37 142C37 58 99 -10 240 -10C439 -10 512 104 512 212C512 418 218 362 218 519C218 573 268 631 356 631C432 631 471 586 471 528C471 482 460 428 356 383L401 366C484 389 565 450 565 534C565 614 500 680 378 680C214 680 132 582 132 472C132 368 201 329 270 297C338 264 407 237 407 158C407 93 357 40 267 40C175 40 134 97 134 163C134 205 167 291 243 315Z" glyph-name="eight.tab" horiz-adv-x="624" /><glyph d="M67 95C-6 74 -34 30 -34 -11C-34 -57 -3.7059 -109 101 -109C220 -109 267 -46 267 14C267 153 63 112 63 215C63 245 91 274 143 274C197.1176 274 220 238 220 202C220 177 209 151 160 129L185 119C234 130 280 157 280 208C280 252 246.7647 303 155 303C58 303 8 249 8 186C8 123 51.0588 89.5294 104 66C154.5882 43.6471 199 25 199 -22C199 -56 167 -79 117 -79C51.1176 -79 27 -37 27 2C27 26 40 67 83 81Z" glyph-name="eightinferior" horiz-adv-x="386" unicode="&#8328;" /><glyph d="M170 603C97 582 69 538 69 497C69 451 99.2941 399 204 399C323 399 370 462 370 522C370 661 166 620 166 723C166 753 194 782 246 782C300.1176 782 323 746 323 710C323 685 312 659 263 637L288 627C337 638 383 665 383 716C383 760 349.7647 811 258 811C161 811 111 757 111 694C111 631 154.0588 597.5294 207 574C257.5882 551.6471 302 533 302 486C302 452 270 429 220 429C154.1176 429 130 471 130 510C130 534 143 575 186 589Z" glyph-name="eightsuperior" horiz-adv-x="369" unicode="&#8312;" /><glyph d="M-5 52C-5 17 19 -11 58 -11C94 -11 118 16 118 51C118 82 94 112 58 112C18 112 -5 83 -5 52ZM212 52C212 17 236 -11 275 -11C311 -11 335 16 335 51C335 82 311 112 275 112C235 112 212 83 212 52ZM428 52C428 17 452 -11 491 -11C527 -11 551 16 551 51C551 82 527 112 491 112C451 112 428 83 428 52Z" glyph-name="ellipsis" horiz-adv-x="694" unicode="&#8230;" /><glyph d="M346 157H307C302 75 263 38 177 38C118 38 82 65 82 113C82 155 97 166 130 235C220 233 283 239 329 254C386 272 425 316 425 373C425 440 377 485 289 485C152 485 3 331 3 170C3 63 54 -10 176 -10C283 -10 352 52 346 157ZM277 447C326 447 333 404 311 346C304 329 294 301 265 285C233 267 177 267 142 267C199 386 210 447 277 447ZM207 704 180 646H468L494 704Z" glyph-name="emacron" horiz-adv-x="468" unicode="&#275;" /><glyph d="M12 318V263H952V318Z" glyph-name="emdash" horiz-adv-x="1000" unicode="&#8212;" /><glyph d="M31 412V357H971V412Z" glyph-name="emdash.cap" horiz-adv-x="1000" /><glyph d="M12 318V263H524V318Z" glyph-name="endash" horiz-adv-x="573" unicode="&#8211;" /><glyph d="M8 413V358H520V413Z" glyph-name="endash.cap" horiz-adv-x="500" /><glyph d="M173 -250C292 -250 305 -99 354 8L421 153C450 215 487 284 487 352C487 424 445 485 358 485C280 485 222 433 184 359C190 418 180 458 148 482L120 474C128 460 131 443 131 434C131 346 16 284 16 140C16 92 26 46 50 0H82L132 160C178 307 256 431 342 431C377 431 398 413 398 383C398 281 261 242 261 73V-26C261 -141 232 -204 177 -204C118 -204 119 -155 129 -110H90C83 -126 78 -145 78 -165C78 -208 106 -250 173 -250Z" glyph-name="eng" horiz-adv-x="543" unicode="&#331;" /><glyph d="M142 -132C142 -178 166 -209 215 -209C275 -209 304 -170 313 -116H288C282 -139 270 -157 246 -157C224 -157 215 -143 215 -116C215 -70 245 -10 301 32L276 38C208 -10 142 -64 142 -132ZM346 157H307C302 75 263 38 177 38C118 38 82 65 82 113C82 155 97 166 130 235C220 233 283 239 329 254C386 272 425 316 425 373C425 440 377 485 289 485C152 485 3 331 3 170C3 63 54 -10 176 -10C283 -10 352 52 346 157ZM277 447C326 447 333 404 311 346C304 329 294 301 265 285C233 267 177 267 142 267C199 386 210 447 277 447Z" glyph-name="eogonek" horiz-adv-x="468" unicode="&#281;" /><glyph d="M507 227H80V165H507ZM507 453H80V391H507Z" glyph-name="equal" horiz-adv-x="624" unicode="=" /><glyph d="M709 281V301C709 469 578 607 380 607C180 607 50 469 50 301C50 135 172 -5 380 -5C533 -5 621 52 673 125L648 146C587 64 509 26 380 26C288 26 226 52 181 94V281ZM380 576C465 576 532 550 579 506V309H181V506C228 551 293 576 380 576Z" glyph-name="estimated" horiz-adv-x="761" unicode="&#8494;" /><glyph d="M163 -10C363 -10 510 235 510 420C510 573 429 693 274 693C252 693 222 690 207 683L215 649C229 651 242 652 255 652C354.9237 652 424.2126 587.8129 422.3755 466.2911C422.0616 445.5238 419.6705 423.082 415 399C397 450 350 480 289 480C127 480 3 328 3 169C3 76 35 -10 163 -10ZM322 223C278 115 259 30 166 30C106.7795 30 86 59 86 97C86 138 110 166 143 242C189 347 197 440 292 440C351 440 376 398 376 365C376 323 353 299 322 223ZM274 526 518 672 499 705 254 560Z" glyph-name="eth" horiz-adv-x="547" unicode="&#240;" /><glyph d="M114 194C149 301 282 475 282 581C282 611 275 658 242 690H210L176 581C138 459 86 259 71 194ZM7 50C7 17 30 -9 67 -9C102 -9 124 16 124 50C124 79 102 107 67 107C29 107 7 80 7 50Z" glyph-name="exclam" horiz-adv-x="316" unicode="!" /><glyph d="M104 189C137 266 217 368 217 440C217 471 204 507 183 527H154L138 467C125 420 82 254 67 189ZM11 47C11 15 32 -9 67 -9C100 -9 121 14 121 46C121 73 100 100 67 100C32 100 11 74 11 47Z" glyph-name="exclam.small" horiz-adv-x="283" /><glyph d="M133 281C98 174 -35 0 -35 -106C-35 -136 -28 -183 5 -215H37L71 -106C109 16 161 216 176 281ZM240 425C240 458 217 484 180 484C145 484 123 459 123 425C123 396 145 368 180 368C218 368 240 395 240 425Z" glyph-name="exclamdown" horiz-adv-x="316" unicode="&#161;" /><glyph d="M192 496C157 389 24 215 24 109C24 79 31 32 64 0H96L130 109C168 231 220 431 235 496ZM299 640C299 673 276 699 239 699C204 699 182 674 182 640C182 611 204 583 239 583C277 583 299 610 299 640Z" glyph-name="exclamdown.cap" horiz-adv-x="316" /><glyph d="M134 330C101 253 21 151 21 79C21 48 34 12 55 -8H84L100 52C113 99 156 265 171 330ZM227 472C227 504 206 528 171 528C138 528 117 505 117 473C117 446 138 419 171 419C206 419 227 445 227 472Z" glyph-name="exclamdown.small" horiz-adv-x="283" /><glyph d="M91 0 186 286C204 339 226 398 235 435H339V475H237C237 520 213 539 213 586C213 632 234 665 288 665C347 665 360 621 351 568H385C393 583 398 598 398 620C398 666 362 710 288 710C186 710 138 649 138 580C138 535 160 511 160 475H65V435H157C134 367 25 272 25 144C25 95 31 59 59 0Z" glyph-name="f" horiz-adv-x="328" unicode="f" /><glyph d="M123 405 172 570C184 607 199 640 203 663H267V686H202C199 717 177 731 177 760C177 787 193 804 222 804C260 804 270 776 267 743H290C294 751 297 762 295 774C291 802 270 829 222 829C155 829 135 791 135 757C135 727 146 709 148 686H88V663H147C133 620 67 584 67 502C67 462 81 441 103 405Z" glyph-name="f.superior" horiz-adv-x="200" /><glyph d="M91 0 186 286C204 339 226 398 235 435H339V475H237C237 520 213 539 213 586C213 632 234 665 288 665C347 665 360 621 351 568H385C393 583 398 598 398 620C398 666 362 710 288 710C186 710 138 649 138 580C138 535 160 511 160 475H65V435H157C134 367 25 272 25 144C25 95 31 59 59 0ZM462 474C469 463 473 447 473 435C473 332 347 273 347 130C347 88 360 48 381 0H413L454 131C485 231 528 325 528 384C528 421 522 450 492 482ZM524 592C560 592 587 617 587 655C587 683 566 703 536 703C501 703 473 678 473 639C473 611 495 592 524 592Z" glyph-name="fi" horiz-adv-x="595" unicode="&#64257;" /><glyph d="M97 0C196 301 199 311 202 321H430L445 376H218C242 463 266 573 273 638C328 626 423 593 501 593C557 593 592 615 592 697H581C569 681 545 673 491 676L240 690C191 534 45 350 45 152C45 113 49 53 64 0ZM729 295C795 492 813 648 813 687H778C718 507 578 351 578 149C578 90 584 43 597 -3H629Z" glyph-name="fi.cap" horiz-adv-x="834" /><glyph d="M198 665 84 332 126 316C161 351 213 395 301 395C373 395 403 357 403 313C403 270 385 247 364 193C333 114 308 43 213 43C109 43 70 116 99 224H55C40 197 30 174 30 137C30 46 94 -10 207 -10C378 -10 509 115 509 270C509 380 438 444 318 444C239 444 179 417 145 379L152 364L227 590L214 578H545L590 692H563C540 670 523 665 453 665Z" glyph-name="five" horiz-adv-x="600" unicode="5" /><glyph d="M149 522 49 256 85 244C115 272 159 304 229 304C282 304 310 276 310 241C310 208 294 189 276 147C249 85 231 34 151 34C66 34 36 91 63 178H25C12 156 5 135 5 107C5 38 57 -10 154 -10C299 -10 410 81 410 210C410 296 350 349 249 349C177 349 127 320 102 296L114 286L181 471L161 447H440L480 544H457C437 526 420 522 361 522Z" glyph-name="five.small" horiz-adv-x="510" /><glyph d="M156 522 56 256 92 244C122 272 166 304 236 304C289 304 317 276 317 241C317 208 301 189 283 147C256 85 238 34 158 34C73 34 43 91 70 178H32C19 156 12 135 12 107C12 38 64 -10 161 -10C306 -10 417 81 417 210C417 296 357 349 256 349C184 349 134 320 109 296L121 286L188 471L168 447H447L487 544H464C444 526 427 522 368 522Z" glyph-name="five.small_tab" horiz-adv-x="533" /><glyph d="M208 665 94 332 136 316C171 351 223 395 311 395C383 395 413 357 413 313C413 270 395 247 374 193C343 114 318 43 223 43C119 43 80 116 109 224H65C50 197 40 174 40 137C40 46 104 -10 217 -10C388 -10 519 115 519 270C519 380 448 444 328 444C249 444 189 417 155 379L162 364L237 590L224 578H555L600 692H573C550 670 533 665 463 665Z" glyph-name="five.tab" horiz-adv-x="624" /><glyph d="M63 294 9 96 37 86C58 108 88 132 139 132C186.0588 132 204 109 204 77C204 57 194 42 185 13C170 -34 163 -77 102 -77C39.2653 -77 11.1111 -32.4444 24 32H-4C-11 18 -15 4 -15 -13C-15 -59 17.9412 -109 105 -109C208 -109 286 -50 286 40C286 109 241.4118 162 152 162C90 162 55 138 43 121L50 114L90 259L76 240H288L311 311H293C279 297 264 294 219 294Z" glyph-name="fiveinferior" horiz-adv-x="400" unicode="&#8325;" /><glyph d="M156 802 102 604 130 594C151 616 181 640 232 640C279.0588 640 297 617 297 585C297 565 287 550 278 521C263 474 256 431 195 431C132.2653 431 104.1111 475.5556 117 540H89C82 526 78 512 78 495C78 449 110.9412 399 198 399C301 399 379 458 379 548C379 617 334.4118 670 245 670C183 670 148 646 136 629L143 622L183 767L169 748H381L404 819H386C372 805 357 802 312 802Z" glyph-name="fivesuperior" horiz-adv-x="390" unicode="&#8309;" /><glyph d="M91 0 186 286C204 339 226 398 235 435H339V475H237C237 520 213 539 213 586C213 632 234 665 288 665C347 665 360 621 351 568H385C393 583 398 598 398 620C398 666 362 710 288 710C186 710 138 649 138 580C138 535 160 511 160 475H65V435H157C134 367 25 272 25 144C25 95 31 59 59 0ZM522 701C526 691 534 668 534 638C534 440 352 342 352 144C352 95 359 49 386 0H418L521 312C562 437 587 513 587 593C587 639 575 680 553 710Z" glyph-name="fl" horiz-adv-x="605" unicode="&#64258;" /><glyph d="M97 0C196 301 199 311 202 321H430L445 376H218C242 463 266 573 273 638C328 626 423 593 501 593C557 593 592 615 592 697H581C569 681 545 673 491 676L240 690C191 534 45 350 45 152C45 113 49 53 64 0ZM574 24C652 19 773 -10 844 -10C926 -10 968 48 976 121H957C945 90 891 75 818 75H635L714 309C757 437 794 618 794 690H761C712 534 561 350 561 152C561 113 563 76 574 24Z" glyph-name="fl.cap" horiz-adv-x="1034" /><glyph d="M162 87C162 5 162 -76 84 -76C22 -76 33 -30 37 -2H-1C-27 -56 -14 -120 80 -120C195 -120 227 -27 257 64L322 264C342 325 383 412 388 501C392 564 399 635 481 635C535 635 548 598 540 551H579C586 564 589 579 589 595C588 637 558 679 488 679C363 679 322 577 314 493C299.6193 337.209 162 317 162 87ZM504 459H211L200 409H494Z" glyph-name="florin" horiz-adv-x="624" unicode="&#402;" /><glyph d="M0 158H551L572 240H83L91 232L541 615H533C454 440 326 277 326 164C326 92 331 44 347 0H385L541 477C564 550 588 637 588 679H533L0 230Z" glyph-name="four" horiz-adv-x="638" unicode="4" /><glyph d="M435 484H428C357 347 242 222 242 126C242 73 251 36 265 0H298L434 372C454 428 475 498 475 533H422L-25 186V122H438L458 190H47L51 180Z" glyph-name="four.small" horiz-adv-x="535" /><glyph d="M431 484H424C353 347 238 222 238 126C238 73 247 36 261 0H294L430 372C450 428 471 498 471 533H418L-29 186V122H434L454 190H43L47 180Z" glyph-name="four.small_tab" horiz-adv-x="533" /><glyph d="M-5 158H546L567 240H78L86 232L536 615H528C449 440 321 277 321 164C321 92 326 44 342 0H380L536 477C559 550 583 637 583 679H528L-5 230Z" glyph-name="four.tab" horiz-adv-x="624" /><glyph d="M-44 -11H310L319 41H11L12 33L283 265H276C221 138 164 64 164 1C164 -37 177 -73 188 -103H214L290 179C300 221 311 275 308 303H272L-44 34Z" glyph-name="fourinferior" horiz-adv-x="408" unicode="&#8324;" /><glyph d="M52 497H406L415 549H107L108 541L379 773H372C317 646 260 572 260 509C260 471 273 435 284 405H310L386 687C396 729 407 783 404 811H368L52 542Z" glyph-name="foursuperior" horiz-adv-x="402" unicode="&#8308;" /><glyph d="M387 680 424 659C337 482 147 159 11 -9L-25 12C77 228 269 538 387 680Z" glyph-name="fraction" horiz-adv-x="403" unicode="&#8260;" /><glyph d="M92 -250C282 -250 366 -149 366 -51C366 29 311 65 209 65H110C57 65 39 73 39 96C39 129 78 157 145 162C166 157 186 153 214 153C344 153 420 230 438 327L446 369C456 422 470 437 490 437C511 437 517 416 508 386H537C543 395 548 409 548 423C548 448 532 475 491 475C461 475 426 462 414 413C398 448 358 485 275 485C145 485 58 395 58 296C58 243 78 211 104 190C13 171 -26 122 -26 69C-26 -10 42 -22 126 -28L186 -32C248 -36 277 -58 277 -103C277 -156 221 -207 106 -207C-3 -207 -29 -159 -29 -109C-29 -97 -28 -86 -26 -74H-53C-73 -90 -85 -114 -85 -137C-85 -199 -40 -250 92 -250ZM321 298C300 241 285 189 226 189C172 189 152 222 152 254C152 279 168 300 182 339C206 404 216 450 275 450C328 450 350 425 350 387C350 364 338 344 321 298Z" glyph-name="g" horiz-adv-x="528" unicode="g" /><glyph d="M121 256C247 256 290 313 290 371C290 416 248 444 184 444H129C91 444 67 443 67 459C67 478 92 496 143 498C157 496 170 493 189 493C280 493 330 541 330 597V623C330 653 340 662 353 662C367 662 372 649 368 631H387C391 637 394 645 393 654C391 669 379 684 353 684C333 684 312 676 307 648C292 670 263 691 207 691C122 691 72 644 72 589C72 554 87.2941 530.2941 112 515C43 505 27 473 27 445C27 397 68 384 131 379L170 376C207 373 232 364 232 337C232 308 199 280 128 280C71.5349 280 48.1893 308.7036 39.9185 336.9931C37.0571 346.7802 36 356.5178 36 365H18C6 355 -1 337 -1 323C-1 283 35 256 121 256ZM243 581C230 548 228 514 186 514C158 514 140 530 140 549C140 569 150 577 162 603C181 644 175 671 214 671C243 671 260 656 260 638C260 619 255 611 243 581Z" glyph-name="g.superior" horiz-adv-x="329" /><glyph d="M92 -250C282 -250 366 -149 366 -51C366 29 311 65 209 65H110C57 65 39 73 39 96C39 129 78 157 145 162C166 157 186 153 214 153C344 153 420 230 438 327L446 369C456 422 470 437 490 437C511 437 517 416 508 386H537C543 395 548 409 548 423C548 448 532 475 491 475C461 475 426 462 414 413C398 448 358 485 275 485C145 485 58 395 58 296C58 243 78 211 104 190C13 171 -26 122 -26 69C-26 -10 42 -22 126 -28L186 -32C248 -36 277 -58 277 -103C277 -156 221 -207 106 -207C-3 -207 -29 -159 -29 -109C-29 -97 -28 -86 -26 -74H-53C-73 -90 -85 -114 -85 -137C-85 -199 -40 -250 92 -250ZM321 298C300 241 285 189 226 189C172 189 152 222 152 254C152 279 168 300 182 339C206 404 216 450 275 450C328 450 350 425 350 387C350 364 338 344 321 298ZM341 574C460 574 542 667 567 746H535C505 700 455 643 380 643C298 643 296 703 300 746H275C252 711 242 681 247 646C252 609 277 574 341 574Z" glyph-name="gbreve" horiz-adv-x="528" unicode="&#287;" /><glyph d="M92 -250C282 -250 366 -149 366 -51C366 29 311 65 209 65H110C57 65 39 73 39 96C39 129 78 157 145 162C166 157 186 153 214 153C344 153 420 230 438 327L446 369C456 422 470 437 490 437C511 437 517 416 508 386H537C543 395 548 409 548 423C548 448 532 475 491 475C461 475 426 462 414 413C398 448 358 485 275 485C145 485 58 395 58 296C58 243 78 211 104 190C13 171 -26 122 -26 69C-26 -10 42 -22 126 -28L186 -32C248 -36 277 -58 277 -103C277 -156 221 -207 106 -207C-3 -207 -29 -159 -29 -109C-29 -97 -28 -86 -26 -74H-53C-73 -90 -85 -114 -85 -137C-85 -199 -40 -250 92 -250ZM321 298C300 241 285 189 226 189C172 189 152 222 152 254C152 279 168 300 182 339C206 404 216 450 275 450C328 450 350 425 350 387C350 364 338 344 321 298ZM164 581 178 554 357 670C376 640 437 571 465 556L490 574C463 624 433 705 422 756H396Z" glyph-name="gcircumflex" horiz-adv-x="528" unicode="&#285;" /><glyph d="M92 -250C282 -250 366 -149 366 -51C366 29 311 65 209 65H110C57 65 39 73 39 96C39 129 78 157 145 162C166 157 186 153 214 153C344 153 420 230 438 327L446 369C456 422 470 437 490 437C511 437 517 416 508 386H537C543 395 548 409 548 423C548 448 532 475 491 475C461 475 426 462 414 413C398 448 358 485 275 485C145 485 58 395 58 296C58 243 78 211 104 190C13 171 -26 122 -26 69C-26 -10 42 -22 126 -28L186 -32C248 -36 277 -58 277 -103C277 -156 221 -207 106 -207C-3 -207 -29 -159 -29 -109C-29 -97 -28 -86 -26 -74H-53C-73 -90 -85 -114 -85 -137C-85 -199 -40 -250 92 -250ZM321 298C300 241 285 189 226 189C172 189 152 222 152 254C152 279 168 300 182 339C206 404 216 450 275 450C328 450 350 425 350 387C350 364 338 344 321 298ZM415 729 383 741C338 709 284 619 275 563H353C360 612 394 692 415 729Z" glyph-name="gcommaaccent" horiz-adv-x="528" unicode="&#291;" /><glyph d="M92 -250C282 -250 366 -149 366 -51C366 29 311 65 209 65H110C57 65 39 73 39 96C39 129 78 157 145 162C166 157 186 153 214 153C344 153 420 230 438 327L446 369C456 422 470 437 490 437C511 437 517 416 508 386H537C543 395 548 409 548 423C548 448 532 475 491 475C461 475 426 462 414 413C398 448 358 485 275 485C145 485 58 395 58 296C58 243 78 211 104 190C13 171 -26 122 -26 69C-26 -10 42 -22 126 -28L186 -32C248 -36 277 -58 277 -103C277 -156 221 -207 106 -207C-3 -207 -29 -159 -29 -109C-29 -97 -28 -86 -26 -74H-53C-73 -90 -85 -114 -85 -137C-85 -199 -40 -250 92 -250ZM321 298C300 241 285 189 226 189C172 189 152 222 152 254C152 279 168 300 182 339C206 404 216 450 275 450C328 450 350 425 350 387C350 364 338 344 321 298ZM333 592C369 592 396 617 396 655C396 683 375 703 345 703C310 703 282 678 282 639C282 611 304 592 333 592Z" glyph-name="gdotaccent" horiz-adv-x="528" unicode="&#289;" /><glyph d="M185 313C228 443 243 515 262 572C285 642 317 667 366 667C410 667 435 638 435 593C435 477 288 458 288 324C288 196 419 199 419 117C419 64 380 35 311 35C254 35 222 62 222 117C222 129 224 143 227 158H188C182 143 177 126 177 108C177 59 197 -9 308 -9C444 -9 514 74 514 167C514 247 460 285 419 304C379 323 340 332 340 370C340 400 372 421 412 440C468 467 539 495 539 579C539 651 480 710 370 710C263 710 220 650 186 550C127 377 15 295 15 144C15 99 19 57 49 0H81Z" glyph-name="germandbls" horiz-adv-x="599" unicode="&#223;" /><glyph d="M37 232C21 206 14 177 14 147C14 72 58 -10 205 -10C391 -10 479 116 479 227C479 344 409 377 329 405C258 429 215 445 215 521C215 579 249 647 374 647C505 647 498 558 486 495H531C542 515 549 539 549 566C549 644 490 700 380 700C209 700 115 590 115 481C115 374 162 343 239 306C312 271 367 253 367 177C367 109 326 43 207 43C78 43 66 131 78 232ZM603 232C587 206 580 177 580 147C580 72 624 -10 771 -10C957 -10 1045 116 1045 227C1045 344 975 377 895 405C824 429 781 445 781 521C781 579 815 647 940 647C1071 647 1064 558 1052 495H1097C1108 515 1115 539 1115 566C1115 644 1056 700 946 700C775 700 681 590 681 481C681 374 728 343 805 306C878 271 933 253 933 177C933 109 892 43 773 43C644 43 632 131 644 232Z" glyph-name="germandbls.cap" horiz-adv-x="1144" /><glyph d="M7 186C-7 166 -15 140 -15 116C-15 60 22 -9 140 -9C293 -9 367 96 367 177C367 267 305 293 243 314C188 331 144 339 144 394C144 444 184 488 273 488C377 488 375 412 364 366H406C417 380 424 402 424 423C424 481 374 533 281 533C132 533 69 443 69 359C69 278 115 250 171 222C226 195 271 178 271 128C271 78 231 36 145 36C41 36 30 103 46 186ZM484 186C470 166 462 140 462 116C462 60 499 -9 617 -9C770 -9 844 96 844 177C844 267 782 293 720 314C665 331 621 339 621 394C621 444 661 488 750 488C854 488 852 412 841 366H883C894 380 901 402 901 423C901 481 851 533 758 533C609 533 546 443 546 359C546 278 592 250 648 222C703 195 748 178 748 128C748 78 708 36 622 36C518 36 507 103 523 186Z" glyph-name="germandbls.small" horiz-adv-x="951" /><glyph d="M203 707C203 665 281 624 348 554L368 573C313 656 292 749 248 749C224 749 203 727 203 707Z" glyph-name="grave" horiz-adv-x="500" unicode="`" /><glyph d="M276 823C276 776 371 771 465 733L478 755C408 809 360 869 320 869C290 869 276 841 276 823Z" glyph-name="grave.cap" horiz-adv-x="500" /><glyph d="M414 303 115 462 143 517 509 324V295L143 102L115 157L414 316Z" glyph-name="greater" horiz-adv-x="624" unicode="&gt;" /><glyph d="M425 361 118 513 146 568 520 382V353L146 167L118 222L425 374ZM103 63H530V0H103Z" glyph-name="greaterequal" horiz-adv-x="616" unicode="&#8805;" /><glyph d="M124 243 279 433H217L40 268L34 245L115 66H170L125 249ZM308 243 463 433H401L224 268L218 245L299 66H354L309 249Z" glyph-name="guillemotleft" horiz-adv-x="481" unicode="&#171;" /><glyph d="M164 343 319 533H257L80 368L74 345L155 166H210L165 349ZM364 343 519 533H457L280 368L274 345L355 166H410L365 349Z" glyph-name="guillemotleft.cap" horiz-adv-x="515" /><glyph d="M305 255 150 65H212L389 230L395 253L314 432H259L304 249ZM121 255 -34 65H28L205 230L211 253L130 432H75L120 249Z" glyph-name="guillemotright" horiz-adv-x="481" unicode="&#187;" /><glyph d="M351 355 196 165H258L435 330L441 353L360 532H305L350 349ZM167 355 12 165H74L251 330L257 353L176 532H121L166 349Z" glyph-name="guillemotright.cap" horiz-adv-x="515" /><glyph d="M124 243 279 433H217L40 268L34 245L115 66H170L125 249Z" glyph-name="guilsinglleft" horiz-adv-x="297" unicode="&#8249;" /><glyph d="M154 343 309 533H247L70 368L64 345L145 166H200L155 349Z" glyph-name="guilsinglleft.cap" horiz-adv-x="297" /><glyph d="M121 255 -34 65H28L205 230L211 253L130 432H75L120 249Z" glyph-name="guilsinglright" horiz-adv-x="297" unicode="&#8250;" /><glyph d="M143 355 -12 165H50L227 330L233 353L152 532H97L142 349Z" glyph-name="guilsinglright.cap" horiz-adv-x="297" /><glyph d="M81 0 136 175C176 303 253 431 341 431C383 431 397 405 397 383C397 275 260 231 260 91C260 54 281 15 329 -8L353 21C333 30 325 42 325 56C325 128 486 180 486 351C486 423 444 485 356 485C273 485 219 428 182 356L179 361C219 440 249 524 249 594C249 637 237 677 215 710L184 701C193 680 196 654 196 638C196 444 15 339 15 143C15 87 25 46 49 0Z" glyph-name="h" horiz-adv-x="542" unicode="h" /><glyph d="M118 405 146 508C169 588 215 661 272 661C300.2353 661 307 644.3333 307 631C307 580 223 551 223 472C223 445.3333 236.1765 409.4118 275 400L286 413C275.4118 417.7059 269 427 269 435C269 473 368 510 368 600C368 645 344.4118 691 275 691C223 691 190 658 169 616L167 619C186 661 202 701 202 742C202 773.8164 192.4158 806.8166 169 829L153 824C162.3786 806.806 164 791.8795 164 778C164 687 63 624 63 518C63 479.1827 73.3799 444.0402 99 405Z" glyph-name="h.superior" horiz-adv-x="346" /><glyph d="M89 616 80 576H397L407 616ZM81 0 136 175C176 303 253 431 341 431C383 431 397 405 397 383C397 275 260 231 260 91C260 54 281 15 329 -8L353 21C333 30 325 42 325 56C325 128 486 180 486 351C486 423 444 485 356 485C273 485 219 428 182 356L179 361C219 440 249 524 249 594C249 637 237 677 215 710L184 701C193 680 196 654 196 638C196 444 15 339 15 143C15 87 25 46 49 0Z" glyph-name="hbar" horiz-adv-x="542" unicode="&#295;" /><glyph d="M86 759 102 731 240 803C262 783 316 742 348 730L369 751C344 786 313 843 300 878H275ZM81 0 136 175C176 303 253 431 341 431C383 431 397 405 397 383C397 275 260 231 260 91C260 54 281 15 329 -8L353 21C333 30 325 42 325 56C325 128 486 180 486 351C486 423 444 485 356 485C273 485 219 428 182 356L179 361C219 440 249 524 249 594C249 637 237 677 215 710L184 701C193 680 196 654 196 638C196 444 15 339 15 143C15 87 25 46 49 0Z" glyph-name="hcircumflex" horiz-adv-x="542" unicode="&#293;" /><glyph d="M188 575 214 552 386 720 318 764ZM361 575 387 552 562 713 497 761Z" glyph-name="hungarumlaut" horiz-adv-x="500" unicode="&#733;" /><glyph d="M226 740 254 716 437 846 362 881ZM403 740 431 716 613 846 539 881Z" glyph-name="hungarumlaut.cap" horiz-adv-x="500" /><glyph d="M38 318V263H288V318Z" glyph-name="hyphen" horiz-adv-x="370" unicode="-" /><glyph d="M60 405V350H310V405Z" glyph-name="hyphen.cap" horiz-adv-x="370" /><glyph d="M131 474C138 463 142 447 142 435C142 332 16 273 16 130C16 88 29 48 50 0H82L123 131C154 231 197 325 197 384C197 421 191 450 161 482ZM193 592C229 592 256 617 256 655C256 683 235 703 205 703C170 703 142 678 142 639C142 611 164 592 193 592Z" glyph-name="i" horiz-adv-x="260" unicode="i" /><glyph d="M131 474C138 463 142 447 142 435C142 332 16 273 16 130C16 88 29 48 50 0H82L123 131C154 231 197 325 197 384C197 421 191 450 161 482ZM193 592C229 592 256 617 256 655C256 683 235 703 205 703C170 703 142 678 142 639C142 611 164 592 193 592Z" glyph-name="i.TRK" horiz-adv-x="260" /><glyph d="M128 681C132.5 676.5 137 668 137 657C137 628 56 591 56 518C56 485 67.9115 447.3993 95 405H110L131 470C145 513 173 579 173 620C173 645 162.7059 674.4118 138 685ZM154 755C178 755 195 769 195 790C195 814 179.7059 827 155 827C132 827 115 812 115 790C115 768 130.4706 755 154 755Z" glyph-name="i.superior" horiz-adv-x="160" unicode="&#8305;" /><glyph d="M131 474C138 463 142 447 142 435C142 332 16 273 16 130C16 88 29 48 50 0H82L123 131C154 231 197 325 197 384C197 421 191 450 161 482ZM135 573 150 554C266 636 349 658 349 706C349 726 331 744 309 744C267 744 235 670 135 573Z" glyph-name="iacute" horiz-adv-x="260" unicode="&#237;" /><glyph d="M194 574C301 574 360 667 385 746H353C325 696 281 643 216 643C142 643 137 702 146 746H123C103 723 90 689 90 658C90 604 130 574 194 574ZM131 474C138 463 142 447 142 435C142 332 16 273 16 130C16 88 29 48 50 0H82L123 131C154 231 197 325 197 384C197 421 191 450 161 482Z" glyph-name="ibreve" horiz-adv-x="260" unicode="&#301;" /><glyph d="M26 581 40 554 199 670C217 637 254 585 287 556L312 574C290 638 273 702 264 756H238ZM131 474C138 463 142 447 142 435C142 332 16 273 16 130C16 88 29 48 50 0H82L123 131C154 231 197 325 197 384C197 421 191 450 161 482Z" glyph-name="icircumflex" horiz-adv-x="260" unicode="&#238;" /><glyph d="M79 655C79 634 93 616 119 616C152 616 181 639 181 675C181 698 166 715 140 715C109 715 79 692 79 655ZM237 655C237 634 251 616 277 616C309 616 339 639 339 675C339 698 324 715 298 715C267 715 237 692 237 655ZM131 474C138 463 142 447 142 435C142 332 16 273 16 130C16 88 29 48 50 0H82L123 131C154 231 197 325 197 384C197 421 191 450 161 482Z" glyph-name="idieresis" horiz-adv-x="260" unicode="&#239;" /><glyph d="M131 474C138 463 142 447 142 435C142 332 16 273 16 130C16 88 29 48 50 0H82L123 131C154 231 197 325 197 384C197 421 191 450 161 482ZM66 707C66 665 144 624 211 554L231 573C176 656 155 749 111 749C87 749 66 727 66 707Z" glyph-name="igrave" horiz-adv-x="260" unicode="&#236;" /><glyph d="M131 474C138 463 142 447 142 435C142 332 16 273 16 130C16 88 29 48 50 0H82L123 131C154 231 197 325 197 384C197 421 191 450 161 482ZM193 592C229 592 256 617 256 655C256 683 235 703 205 703C170 703 142 678 142 639C142 611 164 592 193 592ZM111 -110C104 -126 99 -145 99 -165C99 -208 127 -250 194 -250C313 -250 319 -133 352 -28L423 202C451 293 471 331 471 390C471 427 461 460 433 482L405 474C411 464 416 448 416 434C416 324 282 290 282 103V-26C282 -141 253 -204 198 -204C139 -204 140 -155 150 -110ZM462 592C498 592 525 617 525 655C525 683 504 703 474 703C439 703 411 678 411 639C411 611 433 592 462 592Z" glyph-name="ij" horiz-adv-x="531" unicode="&#307;" /><glyph d="M90 704 69 646H297L317 704ZM131 474C138 463 142 447 142 435C142 332 16 273 16 130C16 88 29 48 50 0H82L123 131C154 231 197 325 197 384C197 421 191 450 161 482Z" glyph-name="imacron" horiz-adv-x="260" unicode="&#299;" /><glyph d="M423 174C524 174 567 245 567 317C567 381 529 444 442 444C382 444 342 402 306 355C270 401 229 444 164 444C64 444 22 366 22 299C22 234 58 174 145 174C200 174 242 210 279 254C316 212 359 174 423 174ZM442 245C396 245 365 275 335 312C367 352 400 386 444 386C495 386 513 352 513 315C513 278 488 245 442 245ZM146 231C95 231 76 270 76 307C76 342 101 374 146 374C188 374 219 337 252 295C223 260 190 231 146 231Z" glyph-name="infinity" horiz-adv-x="589" unicode="&#8734;" /><glyph d="M234 49 226 543C226 641 235.9348 688 286 688C307 688 320 679 333 661L367 689C352 714 319 749 259 749C156.0714 749 110 679 113 543L123 48C123 -51 108.0323 -97 58 -97C37 -97 24 -88 10 -70L-23 -98C-8 -123 25 -158 85 -158C189.084 -158 236 -77 234 49Z" glyph-name="integral" horiz-adv-x="358" unicode="&#8747;" /><glyph d="M-42 -134C-42 -180 -18 -209 30 -209C91 -209 120 -170 129 -116H108C102 -139 86 -157 62 -157C40 -157 31 -143 31 -116C31 -86 48 -44 86 0L71 17C9 -29 -42 -74 -42 -134ZM131 474C138 463 142 447 142 435C142 332 16 273 16 130C16 88 29 48 50 0H82L123 131C154 231 197 325 197 384C197 421 191 450 161 482ZM193 592C229 592 256 617 256 655C256 683 235 703 205 703C170 703 142 678 142 639C142 611 164 592 193 592Z" glyph-name="iogonek" horiz-adv-x="260" unicode="&#303;" /><glyph d="M32 594H65C69 637 75 666 114 666C158 666 177 592 247 592C306 592 352 629 352 724H318C315 681 309 654 270 654C224 654 210 728 136 728C72 728 32 692 32 594ZM131 474C138 463 142 447 142 435C142 332 16 273 16 130C16 88 29 48 50 0H82L123 131C154 231 197 325 197 384C197 421 191 450 161 482Z" glyph-name="itilde" horiz-adv-x="260" unicode="&#297;" /><glyph d="M-138 -110C-145 -126 -150 -145 -150 -165C-150 -208 -122 -250 -55 -250C64 -250 70 -133 103 -28L174 202C202 293 222 331 222 390C222 427 212 460 184 482L156 474C162 464 167 448 167 434C167 324 33 290 33 103V-26C33 -141 4 -204 -51 -204C-110 -204 -109 -155 -99 -110ZM213 592C249 592 276 617 276 655C276 683 255 703 225 703C190 703 162 678 162 639C162 611 184 592 213 592Z" glyph-name="j" horiz-adv-x="282" unicode="j" /><glyph d="M-11 338C-15 331 -17 322 -17 313C-17 289 -0.7059 256 44 256C117 256 117 325 135 384L176 520C183 544 193 585 193 611C193 652 178 674 156 685L146 681C152 674 155 668 155 658C155 629 78 592 78 494C78 446 88 389 88 353C88 305 77 281 47 281C14 281 11 311 11 338ZM176 755C201 755 217 769 217 791C217 814 201.7059 827 177 827C154 827 136 812 136 790C136 767 151.2941 755 176 755Z" glyph-name="j.superior" horiz-adv-x="181" /><glyph d="M-138 -110C-145 -126 -150 -145 -150 -165C-150 -208 -122 -250 -55 -250C64 -250 70 -133 103 -28L174 202C202 293 222 331 222 390C222 427 212 460 184 482L156 474C162 464 167 448 167 434C167 324 33 290 33 103V-26C33 -141 4 -204 -51 -204C-110 -204 -109 -155 -99 -110ZM43 581 57 554 236 670C255 640 316 571 344 556L369 574C342 624 312 705 301 756H275Z" glyph-name="jcircumflex" horiz-adv-x="282" unicode="&#309;" /><glyph d="M325 -8 342 13C327 22 318 38 318 52C318 109 423 138 423 229C423 300 372 335 314 335C275 335 244 325 220 307C281 404 340 445 396 445C425 445 437 429 437 413C437 397 428 387 414 382V365C420 360 431 358 440 358C471 358 493 381 493 415C493 447 470 485 399 485C291 485 209 373 154 269L149 273L181 351C212 426 250 521 250 591C250 625 241 676 216 710L185 701C189 692 197 666 197 642C197 440 15 342 15 141C15 88 24 51 49 0H81L108 86C164 263 240 298 303 298C331 298 348 284 348 264C348 209 233 194 233 100C233 44 272 7 325 -8Z" glyph-name="k" horiz-adv-x="521" unicode="k" /><glyph d="M270 400 279 413C267 416 259 425 259 435C259 467 332 476 332 535C332 580 301.2353 603 253 603C225 603 205 594 198 588C230 644 268 667 301 667C319 667 329 658 329 646C329 636 324 632 316 628V617C321 614 329 613 335 613C353 613 367 626 367 648C367 671 349 691 306 691C240 691 188 633 154 564L150 566L168 614C186 664 202 702 202 749C202 780 190 810 170 829L153 824C157 818 163 795 163 783C163 681 64 641 64 507C64 477 76 435 99 405H118L129 449C159 555 201 581 251 581C274.5294 581 282 570 282 560C282 525 199 525 199 466C199 431 226.4706 407.0588 270 400Z" glyph-name="k.superior" horiz-adv-x="333" /><glyph d="M325 -8 342 13C327 22 318 38 318 52C318 109 423 138 423 229C423 300 372 335 314 335C275 335 244 325 220 307C281 404 340 445 396 445C425 445 437 429 437 413C437 397 428 387 414 382V365C420 360 431 358 440 358C471 358 493 381 493 415C493 447 470 485 399 485C291 485 209 373 154 269L149 273L181 351C212 426 250 521 250 591C250 625 241 676 216 710L185 701C189 692 197 666 197 642C197 440 15 342 15 141C15 88 24 51 49 0H81L108 86C164 263 240 298 303 298C331 298 348 284 348 264C348 209 233 194 233 100C233 44 272 7 325 -8ZM70 -220 102 -232C147 -200 201 -110 210 -54H132C125 -103 91 -183 70 -220Z" glyph-name="kcommaaccent" horiz-adv-x="521" unicode="&#311;" /><glyph d="M185 701C189 691 197 668 197 638C197 440 15 342 15 144C15 95 22 49 49 0H81L184 312C225 437 250 513 250 593C250 639 238 680 216 710Z" glyph-name="l" horiz-adv-x="268" unicode="l" /><glyph d="M154 824C159.4422 814.4761 165 793.094 165 778C165 684 63 627 63 518C63 478 73.0748 444.505 99 405H118L175 595C190 648 203 694 203 738C203 777 193.9455 807.5751 170 829Z" glyph-name="l.superior" horiz-adv-x="168" /><glyph d="M185 701C189 691 197 668 197 638C197 440 15 342 15 144C15 95 22 49 49 0H81L184 312C225 437 250 513 250 593C250 639 238 680 216 710ZM137 765 147 739C215 760 301 776 331 783C354 790 370 804 370 827C370 851 353 870 330 870C285 870 235 816 137 765Z" glyph-name="lacute" horiz-adv-x="262" unicode="&#314;" /><glyph d="M185 701C189 691 197 668 197 638C197 440 15 342 15 144C15 95 22 49 49 0H81L184 312C225 437 250 513 250 593C250 639 238 680 216 710ZM302 532 332 518C377 550 426 653 435 710H361C355 662 322 570 302 532Z" glyph-name="lcaron" horiz-adv-x="275" unicode="&#318;" /><glyph d="M185 701C189 691 197 668 197 638C197 440 15 342 15 144C15 95 22 49 49 0H81L184 312C225 437 250 513 250 593C250 639 238 680 216 710ZM-42 -220 -10 -232C35 -200 89 -110 98 -54H20C13 -103 -21 -183 -42 -220Z" glyph-name="lcommaaccent" horiz-adv-x="262" unicode="&#316;" /><glyph d="M185 701C189 691 197 668 197 638C197 440 15 342 15 144C15 95 22 49 49 0H81L184 312C225 437 250 513 250 593C250 639 238 680 216 710ZM279 271C315 271 342 296 342 334C342 362 321 382 291 382C256 382 228 357 228 318C228 290 250 271 279 271Z" glyph-name="ldot" horiz-adv-x="330" unicode="&#320;" /><glyph d="M195 303 494 462 466 517 100 324V295L466 102L494 157L195 316Z" glyph-name="less" horiz-adv-x="624" unicode="&lt;" /><glyph d="M192 361 499 513 471 568 97 382V353L471 167L499 222L192 374ZM514 63H87V0H514Z" glyph-name="lessequal" horiz-adv-x="624" unicode="&#8804;" /><glyph d="M272 524 176 177C158 102 158 45 219 45C255 45 282 84 297 104L327 87C298 31 258 -9 185 -9C81 -9 45 76 88 221L157 492C199 641 266 703 362 703C429 703 471 661 471 589C471 439 346 294 -20 163L-22 207C318 321 419 481 419 589C419 627 402 654 365 654C315 654 293 614 272 524Z" glyph-name="litre" horiz-adv-x="440" unicode="&#8467;" /><glyph d="M522 175V445H459V175ZM506 446H95V383H506Z" glyph-name="logicalnot" horiz-adv-x="624" unicode="&#172;" /><glyph d="M513 364 315 689H251L53 364V316L251 -6H315L513 316ZM282 69 122 343 282 615 443 343Z" glyph-name="lozenge" horiz-adv-x="566" unicode="&#9674;" /><glyph d="M-52 128 290 400V459L-52 187ZM185 701C189 691 197 668 197 638C197 440 15 342 15 144C15 95 22 49 49 0H81L184 312C225 437 250 513 250 593C250 639 238 680 216 710Z" glyph-name="lslash" horiz-adv-x="262" unicode="&#322;" /><glyph d="M131 156C183 322 263 431 342 431C373 431 383 413 383 394C383 327 284 277 284 139C284 105 290 54 318 0H350L399 157C452 328 536 431 620 431C651 431 673 415 673 384C673 279 536 228 536 94C536 43 568 11 605 -8L629 21C611 31 601 41 601 56C601 128 762 180 762 352C762 424 722 485 638 485C558 485 507 446 470 374C470 435 442 485 359 485C277 485 221 432 184 359C190 408 182 459 148 482L120 474C125 465 131 449 131 433C131 349 16 284 16 134C16 99 24 52 50 0H82Z" glyph-name="m" horiz-adv-x="817" unicode="m" /><glyph d="M138 496C166 598 214 661 264 661C285.1765 661 292 649.3333 292 636C292 603 230 581 230 511C230 483.2556 238.724 450.1339 268 405H287L312 497C342 601 391 661 446 661C468.3529 661 480 651 480 631C480 581 396 551 396 474C396 441.3866 410.3868 409.4486 447 400L459 413C450.7647 416.5294 442 424 442 434C442 473 541 509 541 601C541 642 515.7059 691 451 691C401 691 368 668 347 626C343 662 324 691 270 691C218 691 185 661 164 619C164 651 152.7097 677.6129 130 690L115 685C119 680 125 672 125 663C125 617 57 590 57 511C57 479 64.9683 449.1786 94 405H113Z" glyph-name="m.superior" horiz-adv-x="518" /><glyph d="M196 704 169 646H457L483 704Z" glyph-name="macron" horiz-adv-x="500" unicode="&#175;" /><glyph d="M290 833 264 776H552L578 833Z" glyph-name="macron.cap" horiz-adv-x="500" /><glyph d="M507 340H80V278H507Z" glyph-name="minus" horiz-adv-x="624" unicode="&#8722;" /><glyph d="M388 249 372 290C372 155 340 64 267 64C200 64 175 107 175 214V431H147V180C147 65 178 -9 265 -9C365 -9 388 127 388 249ZM175 -250V481L68 476V-250ZM479 -9C551 -9 575 31 575 93H548C548 73 537 49 516 49C482 49 478 77 478 120V481L372 475V204L377 122C377 41 410 -9 479 -9Z" glyph-name="mu" horiz-adv-x="635" unicode="&#181;" /><glyph d="M432 127 476 171 348 300 476 429 432 473 304 344 175 473 131 429 260 300 131 171 175 127 304 256Z" glyph-name="multiply" horiz-adv-x="624" unicode="&#215;" /><glyph d="M132 160C178 307 256 431 342 431C377 431 398 413 398 383C398 278 261 227 261 94C261 42 293 10 330 -8L354 21C336 30 326 40 326 56C326 127 487 179 487 352C487 424 445 485 358 485C280 485 222 433 184 359C190 418 180 458 148 482L120 474C128 460 131 443 131 434C131 346 16 284 16 140C16 92 26 46 50 0H82Z" glyph-name="n" horiz-adv-x="543" unicode="n" /><glyph d="M138 498C162 586 208 661 267 661C291.7059 661 302 649 302 631C302 582 218 550 218 472C218 445.3333 234.7059 408.2353 270 400L282 413C272.5882 416.5294 264 423 264 435C264 473 364 510 364 602C364 646 339.0588 691 272 691C222 691 187 661 165 618C165 655 152 677 130 690L115 685C122.0588 676.7647 125 668 125 659C125 618 57 589 57 512C57 478 69.6799 442.6962 94 405H113Z" glyph-name="n.superior" horiz-adv-x="341" unicode="&#8319;" /><glyph d="M132 160C178 307 256 431 342 431C377 431 398 413 398 383C398 278 261 227 261 94C261 42 293 10 330 -8L354 21C336 30 326 40 326 56C326 127 487 179 487 352C487 424 445 485 358 485C280 485 222 433 184 359C190 418 180 458 148 482L120 474C128 460 131 443 131 434C131 346 16 284 16 140C16 92 26 46 50 0H82ZM311 573 326 554C442 636 525 658 525 706C525 726 507 744 485 744C443 744 411 670 311 573Z" glyph-name="nacute" horiz-adv-x="543" unicode="&#324;" /><glyph d="M132 160C178 307 256 431 342 431C377 431 398 413 398 383C398 278 261 227 261 94C261 42 293 10 330 -8L354 21C336 30 326 40 326 56C326 127 487 179 487 352C487 424 445 485 358 485C280 485 222 433 184 359C190 418 180 458 148 482L120 474C128 460 131 443 131 434C131 346 16 284 16 140C16 92 26 46 50 0H82ZM295 734C316 700 348 629 370 552H396L628 726L614 753L435 634C403 688 358 742 330 756Z" glyph-name="ncaron" horiz-adv-x="543" unicode="&#328;" /><glyph d="M132 160C178 307 256 431 342 431C377 431 398 413 398 383C398 278 261 227 261 94C261 42 293 10 330 -8L354 21C336 30 326 40 326 56C326 127 487 179 487 352C487 424 445 485 358 485C280 485 222 433 184 359C190 418 180 458 148 482L120 474C128 460 131 443 131 434C131 346 16 284 16 140C16 92 26 46 50 0H82ZM86 -220 118 -232C163 -200 217 -110 226 -54H148C141 -103 107 -183 86 -220Z" glyph-name="ncommaaccent" horiz-adv-x="543" unicode="&#326;" /><glyph d="M343 680C171 680 70 534 70 423C70 325 132 256 244 256C327 256 383 291 412 341L403 336C346 106 275 41 183 41C96 41 50 103 78 211H33C17 185 15 157 15 131C15 63 62 -10 183 -10C396 -10 541 250 541 451C541 580 490 680 343 680ZM446 561C447 522 437 508 418 447C393 360 347 302 263 302C194 302 173 336 173 377C173 404 188 435 202 484C228 570 257 635 341 635C414 635 445 601 446 561Z" glyph-name="nine" horiz-adv-x="571" unicode="9" /><glyph d="M274 533C128 533 48 426 48 329C48 253 104 197 199 197C266 197 313 225 340 274L320 271C262 96 213 34 137 34C70 34 32 82 57 169H16C4 150 0 126 0 105C0 50 36 -8 141 -8C323 -8 446 191 446 354C446 455 397 533 274 533ZM357 436C358 405 348 389 330 342C306 280 279 237 216 237C160 237 142 267 142 299C142 321 152 342 166 382C188 446 205 494 272 494C332 494 356 468 357 436Z" glyph-name="nine.small" horiz-adv-x="506" /><glyph d="M285 533C139 533 59 426 59 329C59 253 115 197 210 197C277 197 324 225 351 274L331 271C273 96 224 34 148 34C81 34 43 82 68 169H27C15 150 11 126 11 105C11 50 47 -8 152 -8C334 -8 457 191 457 354C457 455 408 533 285 533ZM368 436C369 405 359 389 341 342C317 280 290 237 227 237C171 237 153 267 153 299C153 321 163 342 177 382C199 446 216 494 283 494C343 494 367 468 368 436Z" glyph-name="nine.small_tab" horiz-adv-x="533" /><glyph d="M343 680C171 680 70 534 70 423C70 325 132 256 244 256C327 256 383 291 412 341L403 336C346 106 275 41 183 41C96 41 50 103 78 211H33C17 185 15 157 15 131C15 63 62 -10 183 -10C396 -10 541 250 541 451C541 580 490 680 343 680ZM446 561C447 522 437 508 418 447C393 360 347 302 263 302C194 302 173 336 173 377C173 404 188 435 202 484C228 570 257 635 341 635C414 635 445 601 446 561Z" glyph-name="nine.tab" horiz-adv-x="624" /><glyph d="M152 303C44 303 -4 226 -4 163C-4 104 33.4118 50 124 50C173 50 204 72 218 99L204 94C185 -43 147 -78 90 -78C44 -78 12 -51 12 0C12 8 13 16 14 24H-14C-21 13 -23 1 -23 -12C-23 -55 10.2941 -109 95 -109C224 -109 300 17 300 136C300 230.6447 257.2303 303 152 303ZM226 224C226 207 219 191 211 160C199 111 189 78 136 78C90.1176 78 76 102 76 126C76 141 81 158 87 183C98 230 104 275 157 275C207.5882 275 226 250 226 224Z" glyph-name="nineinferior" horiz-adv-x="399" unicode="&#8329;" /><glyph d="M253 811C145 811 97 734 97 671C97 612 134.4118 558 225 558C274 558 305 580 319 607L305 602C286 465 248 430 191 430C145 430 113 457 113 508C113 516 114 524 115 532H87C80 521 78 509 78 496C78 453 111.2941 399 196 399C325 399 401 525 401 644C401 738.6447 358.2303 811 253 811ZM327 732C327 715 320 699 312 668C300 619 290 586 237 586C191.1176 586 177 610 177 634C177 649 182 666 188 691C199 738 205 783 258 783C308.5882 783 327 758 327 732Z" glyph-name="ninesuperior" horiz-adv-x="380" unicode="&#8313;" /><glyph d="M393 560 125 64 193 63 460 559ZM507 224H80V165H507ZM507 453H80V394H507Z" glyph-name="notequal" horiz-adv-x="624" unicode="&#8800;" /><glyph d="M132 160C178 307 256 431 342 431C377 431 398 413 398 383C398 278 261 227 261 94C261 42 293 10 330 -8L354 21C336 30 326 40 326 56C326 127 487 179 487 352C487 424 445 485 358 485C280 485 222 433 184 359C190 418 180 458 148 482L120 474C128 460 131 443 131 434C131 346 16 284 16 140C16 92 26 46 50 0H82ZM217 594H250C254 637 263 666 302 666C358 666 371 592 449 592C516 592 563 629 563 724H529C526 681 517 654 478 654C426 654 413 728 330 728C260 728 217 692 217 594Z" glyph-name="ntilde" horiz-adv-x="543" unicode="&#241;" /><glyph d="M124 0H64L258 665H319ZM604 489V434H66V489ZM364 0H304L499 665H559ZM559 252V197H21V252Z" glyph-name="numbersign" horiz-adv-x="624" unicode="#" /><glyph d="M434 -1C548 255 671 420 671 557C671 606 662 650 645 690H626L459 149C416 341 316 539 275 690H250C172 462 30 302 30 127C30 83 40 30 51 0H71L235 528C266 325 398 86 410 -1ZM730.5202 280V225H1029.9952V280ZM919 391C842 391 790 439 790 506C790 606 868 690 975 690C1053 690 1105 643 1105 576C1105 482 1031 391 919 391ZM1010 531C1022 561 1028 578 1028 595C1028 622 1014 650 972 650C919 650 907 607 885 550C874 521 869 504 869 486C869 459 881 432 924 432C972 432 987 473 1010 531Z" glyph-name="numero" horiz-adv-x="1103" unicode="&#8470;" /><glyph d="M3 154C3 49 65 -10 169 -10C323 -10 456 174 456 321C456 424 394 485 290 485C136 485 3 301 3 154ZM312 231C270 130 258 30 166 30C109 30 83 63 83 100C83 145 113 162 147 244C189 345 200 445 292 445C349 445 376 412 376 375C376 330 346 313 312 231Z" glyph-name="o" horiz-adv-x="513" unicode="o" /><glyph d="M50 518C50 454.374 86.2951 399 168 399C268 399 344 488 344 573C344 641 306.5294 691 223 691C126 691 50 606 50 518ZM244 541C220 482 222 422 165 422C128.5294 422 113 443 113 464C113 488 130 500 149 549C172 608 169 668 228 668C264.4706 668 281 646 281 622C281 598 263 587 244 541Z" glyph-name="o.superior" horiz-adv-x="319" /><glyph d="M3 154C3 49 65 -10 169 -10C323 -10 456 174 456 321C456 424 394 485 290 485C136 485 3 301 3 154ZM312 231C270 130 258 30 166 30C109 30 83 63 83 100C83 145 113 162 147 244C189 345 200 445 292 445C349 445 376 412 376 375C376 330 346 313 312 231ZM269 573 284 554C400 636 483 658 483 706C483 726 465 744 443 744C401 744 369 670 269 573Z" glyph-name="oacute" horiz-adv-x="513" unicode="&#243;" /><glyph d="M3 154C3 49 65 -10 169 -10C323 -10 456 174 456 321C456 424 394 485 290 485C136 485 3 301 3 154ZM312 231C270 130 258 30 166 30C109 30 83 63 83 100C83 145 113 162 147 244C189 345 200 445 292 445C349 445 376 412 376 375C376 330 346 313 312 231ZM331 574C450 574 532 667 557 746H525C495 700 445 643 370 643C288 643 286 703 290 746H265C242 711 232 681 237 646C242 609 267 574 331 574Z" glyph-name="obreve" horiz-adv-x="513" unicode="&#335;" /><glyph d="M3 154C3 49 65 -10 169 -10C323 -10 456 174 456 321C456 424 394 485 290 485C136 485 3 301 3 154ZM312 231C270 130 258 30 166 30C109 30 83 63 83 100C83 145 113 162 147 244C189 345 200 445 292 445C349 445 376 412 376 375C376 330 346 313 312 231ZM178 581 192 554 371 670C390 640 451 571 479 556L504 574C477 624 447 705 436 756H410Z" glyph-name="ocircumflex" horiz-adv-x="513" unicode="&#244;" /><glyph d="M3 154C3 49 65 -10 169 -10C323 -10 456 174 456 321C456 424 394 485 290 485C136 485 3 301 3 154ZM312 231C270 130 258 30 166 30C109 30 83 63 83 100C83 145 113 162 147 244C189 345 200 445 292 445C349 445 376 412 376 375C376 330 346 313 312 231ZM203 655C203 634 217 616 243 616C276 616 305 639 305 675C305 698 290 715 264 715C233 715 203 692 203 655ZM381 655C381 634 395 616 421 616C453 616 483 639 483 675C483 698 468 715 442 715C411 715 381 692 381 655Z" glyph-name="odieresis" horiz-adv-x="513" unicode="&#246;" /><glyph d="M3 165C3 63 43 -10 164 -10C318 -10 431 161 431 308C431 417 393 485 285 485C127 485 3 318 3 165ZM311 231C265 131 250 30 165 30C113 30 86 57 86 95C86 137 105 159 142 245C185 345 198 445 286 445C339 445 365 412 365 375C365 330 347 309 311 231ZM650 157H611C606 75 567 38 481 38C422 38 386 65 386 113C386 155 401 166 434 235C524 233 587 239 633 254C690 272 729 316 729 373C729 440 681 485 593 485C456 485 327 331 327 170C327 63 358 -10 480 -10C587 -10 656 52 650 157ZM581 447C630 447 637 404 615 346C608 329 598 301 569 285C537 267 481 267 446 267C503 386 514 447 581 447Z" glyph-name="oe" horiz-adv-x="772" unicode="&#339;" /><glyph d="M166 -132C166 -178 190 -209 239 -209C299 -209 328 -170 337 -116H312C306 -139 294 -157 270 -157C248 -157 239 -143 239 -116C239 -70 276 -3 361 62L333 66C245 2 166 -45 166 -132Z" glyph-name="ogonek" horiz-adv-x="500" unicode="&#731;" /><glyph d="M3 154C3 49 65 -10 169 -10C323 -10 456 174 456 321C456 424 394 485 290 485C136 485 3 301 3 154ZM312 231C270 130 258 30 166 30C109 30 83 63 83 100C83 145 113 162 147 244C189 345 200 445 292 445C349 445 376 412 376 375C376 330 346 313 312 231ZM221 707C221 665 299 624 366 554L386 573C331 656 310 749 266 749C242 749 221 727 221 707Z" glyph-name="ograve" horiz-adv-x="513" unicode="&#242;" /><glyph d="M3 154C3 49 65 -10 169 -10C323 -10 456 174 456 321C456 424 394 485 290 485C136 485 3 301 3 154ZM312 231C270 130 258 30 166 30C109 30 83 63 83 100C83 145 113 162 147 244C189 345 200 445 292 445C349 445 376 412 376 375C376 330 346 313 312 231ZM224 575 250 552 422 720 354 764ZM397 575 423 552 598 713 533 761Z" glyph-name="ohungarumlaut" horiz-adv-x="513" unicode="&#337;" /><glyph d="M3 154C3 49 65 -10 169 -10C323 -10 456 174 456 321C456 424 394 485 290 485C136 485 3 301 3 154ZM312 231C270 130 258 30 166 30C109 30 83 63 83 100C83 145 113 162 147 244C189 345 200 445 292 445C349 445 376 412 376 375C376 330 346 313 312 231ZM209 704 182 646H470L496 704Z" glyph-name="omacron" horiz-adv-x="513" unicode="&#333;" /><glyph d="M188 0 301 333C350 476 373 609 381 679H349L65 537L79 499C169 514 266 584 325 616C265 468 122 311 122 151C122 90 135 40 154 0Z" glyph-name="one" horiz-adv-x="401" unicode="1" /><glyph d="M134 0 232 261C274 371 295 475 302 533H275L35 422L48 388C126 400 205 452 256 479C205 364 81 251 81 120C81 74 92 34 109 0Z" glyph-name="one.small" horiz-adv-x="332" /><glyph d="M55 0H377V50H55ZM349 479C298 364 174 251 174 120C174 74 185 34 202 0H227L325 261C367 371 388 475 395 533H368L98 418L111 384C189 396 298 452 349 479Z" glyph-name="one.small_tab" horiz-adv-x="533" /><glyph d="M59 0H479V55H59ZM293 0 406 333C468 516 478 609 486 679H454L131 529L145 488C262 510 371 581 430 613C370 465 227 311 227 151C227 90 245 39 259 0Z" glyph-name="one.tab" horiz-adv-x="624" /><glyph d="M130 358 182 506C208 581 215 640 219 672H191L60 604L67 584C108 589 150 618 173 632C150 592 85 499 85 430C85 406 91 379 105 358ZM592 -6C645 -6 660 41 660 72H641C636 57 619 50 585 52L470 60C519 132 694 108 694 229C694 278 651 315 584 315C501 315 457 263 471 205H510C505 259 530 277 571 277C601 277 616 260 616 233C616 140 413 146 413 22V0H450L458 23C483 17 542 -6 592 -6ZM516 680 553 659C466 482 276 159 140 -9L104 12C206 228 398 538 516 680Z" glyph-name="onehalf" horiz-adv-x="740" unicode="&#189;" /><glyph d="M86 -103 142 96C165 178 173 257 174 303H153L-19 218L-8 195C53 204 105 243 144 264C117 183 33 101 33 6C33 -33.7687 46.9795 -71.2027 67 -103Z" glyph-name="oneinferior" horiz-adv-x="254" unicode="&#8321;" /><glyph d="M130 358 182 506C208 581 215 640 219 672H191L60 604L67 584C108 589 150 618 173 632C150 592 85 499 85 430C85 406 91 379 105 358ZM528 116H436L608 265C577 219 543 149 528 116ZM643 73 657 116H606L639 219C647 243 660 296 660 315H617L377 112V73H519C519 43 528 18 536 0H566L588 73ZM516 680 553 659C466 482 276 159 140 -9L104 12C206 228 398 538 516 680Z" glyph-name="onequarter" horiz-adv-x="711" unicode="&#188;" /><glyph d="M182 405 238 604C261 686 269 765 270 811H249L77 726L88 703C149 712 201 751 240 772C213 691 129 609 129 514C129 474.2313 142.9795 436.7973 163 405Z" glyph-name="onesuperior" horiz-adv-x="250" unicode="&#185;" /><glyph d="M296 400C338 400 358 423 356 458H332C329 439 322 429 307 429C294 429 288 438 288 453C288 493 366 544 366 612C366 660 329 696 255 696C178 696 134 660 137 605H170C175 641 197 665 242 665C276 665 290 646 290 621C290 600 279 580 259 573C242 567 226 566 203 563C125 555 54 532 54 466C54 423 81 400 134 400C181 400 211 423 225 452C229 415 253 400 296 400ZM163 436C141 436 133 454 143 486C152 517 170 532 202 537C222 540 234 540 252 545C236 531 231 518 224 503C210 472 203 436 163 436Z" glyph-name="ordfeminine" horiz-adv-x="347" unicode="&#170;" /><glyph d="M67 513C67 439 114 399 184 399C295 399 374 484 374 583C374 659 325 697 256 697C149 697 67 622 67 513ZM274 546C248 478 240 428 182 428C148 428 131 447 131 469C131 496 146 501 167 551C192 619 199 670 259 670C292 670 311 652 311 629C311 605 294 596 274 546Z" glyph-name="ordmasculine" horiz-adv-x="348" unicode="&#186;" /><glyph d="M395 485 3 -10H61L452 485ZM3 154C3 49 65 -10 169 -10C323 -10 456 174 456 321C456 424 394 485 290 485C136 485 3 301 3 154ZM312 231C270 130 258 30 166 30C109 30 83 63 83 100C83 145 113 162 147 244C189 345 200 445 292 445C349 445 376 412 376 375C376 330 346 313 312 231Z" glyph-name="oslash" horiz-adv-x="513" unicode="&#248;" /><glyph d="M395 485 3 -10H61L452 485ZM3 154C3 49 65 -10 169 -10C323 -10 456 174 456 321C456 424 394 485 290 485C136 485 3 301 3 154ZM312 231C270 130 258 30 166 30C109 30 83 63 83 100C83 145 113 162 147 244C189 345 200 445 292 445C349 445 376 412 376 375C376 330 346 313 312 231ZM269 573 284 554C400 636 483 658 483 706C483 726 465 744 443 744C401 744 369 670 269 573Z" glyph-name="oslashacute" horiz-adv-x="513" unicode="&#511;" /><glyph d="M3 154C3 49 65 -10 169 -10C323 -10 456 174 456 321C456 424 394 485 290 485C136 485 3 301 3 154ZM312 231C270 130 258 30 166 30C109 30 83 63 83 100C83 145 113 162 147 244C189 345 200 445 292 445C349 445 376 412 376 375C376 330 346 313 312 231ZM185 594H218C222 637 231 666 270 666C326 666 339 592 417 592C484 592 531 629 531 724H497C494 681 485 654 446 654C394 654 381 728 298 728C228 728 185 692 185 594Z" glyph-name="otilde" horiz-adv-x="513" unicode="&#245;" /><glyph d="M230 -10C373 -10 496 182 496 337C496 435 438 485 353 485C285 485 234 451 192 383C188 422 167 462 133 482L106 474C114 459 119 419 119 403C119 207 -50 102 -50 -90C-50 -147 -37 -200 -14 -241H15L115 87C124 28 166 -10 230 -10ZM347 228C307 132 314 38 223 38C165 38 130 99 153 185C196 349 269 437 348 437C391 437 420 415 420 377C420 332 383 314 347 228Z" glyph-name="p" horiz-adv-x="558" unicode="p" /><glyph d="M223 399C314 399 383 496 383 585C383 644 352.2353 691 284 691C241 691 205 670 181 631C176 655 161 679 132 690L118 685C128.2315 671.8452 133 645.6647 133 633C133 544 37 490 37 378C37 327 50.0816 297.507 74 261H92L144 453C154 421 180 399 223 399ZM280 540C259 482 271 427 214 427C184 427 164 451 164 487C164 567 216 664 282 664C309 664 325 648 325 628C325 601 298 590 280 540Z" glyph-name="p.superior" horiz-adv-x="367" /><glyph d="M179 -113 395 690H346C205 690 71 604 71 449C71 360 134 309 237 309L131 -113ZM334 646H635L646 690H351ZM325 -113C385 73 576 278 576 546C576 573 575 658 570 690H487L367 194C336 108 291 -45 281 -113Z" glyph-name="paragraph" horiz-adv-x="618" unicode="&#182;" /><glyph d="M150 109C150 456 293 601 421 699L398 730C279 656 42 458 42 180C42 -18 158 -144 193 -187L223 -167C202 -130 150 -54 150 109Z" glyph-name="parenleft" horiz-adv-x="342" unicode="(" /><glyph d="M150 159C150 506 293 651 421 749L398 780C279 706 42 508 42 230C42 32 158 -94 193 -137L223 -117C202 -80 150 -4 150 159Z" glyph-name="parenleft.cap" horiz-adv-x="342" /><glyph d="M126 124C126 398 199 503 323 614L297 644C199 572 28 414 28 182C28 19 117 -86 146 -126L184 -103C162 -60 126 3 126 124Z" glyph-name="parenleft.small" horiz-adv-x="291" /><glyph d="M162 431C162 84 19 -61 -109 -159L-86 -190C33 -116 270 82 270 360C270 558 154 684 119 727L89 707C110 670 162 594 162 431Z" glyph-name="parenright" horiz-adv-x="342" unicode=")" /><glyph d="M162 481C162 134 19 -11 -109 -109L-86 -140C33 -66 270 132 270 410C270 608 154 734 119 777L89 757C110 720 162 644 162 481Z" glyph-name="parenright.cap" horiz-adv-x="342" /><glyph d="M121 388C121 114 48 9 -76 -102L-50 -132C48 -60 219 98 219 330C219 493 130 598 101 638L63 615C85 572 121 509 121 388Z" glyph-name="parenright.small" horiz-adv-x="291" /><glyph d="M261 698C190 698 145 679 116 659L136 616C161 630 195 641 235 642C312 642 394 571 394 377C394 144 342 43 253 43C178 43 152 119 152 220C152 326 182 415 272 415C368 415 385 297 388 251L415 301C411 350 388 472 249 472C105 472 37 352 37 220C37 89 105 -9 254 -9C422 -9 510 141 510 362C510 592 393 698 261 698Z" glyph-name="partialdiff" horiz-adv-x="548" unicode="&#8706;" /><glyph d="M187 685C95 685 42 611 42 540C42 493 73 444 145 444C237 444 290 524 290 588C290 637 258 685 187 685ZM188 652C207 652 222 641 222 621C222 605 212 582 202 559C184 517 175 480 145 480C126 480 111 489 111 515C111 531 121 554 130 573C153 621 156 652 188 652ZM503 232C411 232 358 158 358 87C358 40 389 -9 461 -9C553 -9 606 71 606 135C606 184 574 232 503 232ZM504 199C523 199 538 188 538 168C538 152 528 129 518 106C500 64 491 27 461 27C442 27 427 36 427 62C427 78 437 101 446 120C469 168 472 199 504 199ZM503 680 540 659C453 482 263 159 127 -9L91 12C193 228 385 538 503 680Z" glyph-name="percent" horiz-adv-x="648" unicode="%" /><glyph d="M-5 52C-5 17 19 -11 58 -11C94 -11 118 16 118 51C118 82 94 112 58 112C18 112 -5 83 -5 52Z" glyph-name="period" horiz-adv-x="261" unicode="." /><glyph d="M47 349C47 314 71 286 110 286C146 286 170 313 170 348C170 379 146 409 110 409C70 409 47 380 47 349Z" glyph-name="periodcentered" horiz-adv-x="238" unicode="&#183;" /><glyph d="M58 380C58 345 82 317 121 317C157 317 181 344 181 379C181 410 157 440 121 440C81 440 58 411 58 380Z" glyph-name="periodcentered.cap" horiz-adv-x="238" /><glyph d="M145 444C73 444 42 493 42 540C42 611 95 685 187 685C258 685 290 637 290 588C290 524 237 444 145 444ZM145 480C175 480 184 517 202 559C212 582 222 605 222 621C222 641 207 652 188 652C156 652 153 621 130 573C121 554 111 531 111 515C111 489 126 480 145 480ZM461 -9C389 -9 358 40 358 87C358 158 411 232 503 232C574 232 606 184 606 135C606 71 553 -9 461 -9ZM461 27C491 27 500 64 518 106C528 129 538 152 538 168C538 188 523 199 504 199C472 199 469 168 446 120C437 101 427 78 427 62C427 36 442 27 461 27ZM770 -9C698 -9 667 40 667 87C667 158 720 232 812 232C883 232 915 184 915 135C915 71 862 -9 770 -9ZM770 27C800 27 809 64 827 106C837 129 847 152 847 168C847 188 832 199 813 199C781 199 778 168 755 120C746 101 736 78 736 62C736 36 751 27 770 27ZM503 680 540 659C453 482 263 159 127 -9L91 12C193 228 385 538 503 680Z" glyph-name="perthousand" horiz-adv-x="958" unicode="&#8240;" /><glyph d="M377 139C377 35 419 -9 496 -9C568 -9 597 33 597 107H571C570 74 556 49 527 49C487 49 483 81 483 123V467H377ZM120 468V207C120 152 117 41 109 0H159C205 36 226 127 226 209V468ZM10 476V428H597V476Z" glyph-name="pi" horiz-adv-x="667" unicode="&#960;" /><glyph d="M325 93V525H262V93ZM507 340H80V278H507Z" glyph-name="plus" horiz-adv-x="624" unicode="+" /><glyph d="M507 349H80V286H507ZM325 101V536H262V101ZM507 63H80V0H507Z" glyph-name="plusminus" horiz-adv-x="624" unicode="&#177;" /><glyph d="M93 690V-130H200V645L191 635H491L485 645V-130H592V690Z" glyph-name="product" horiz-adv-x="712" unicode="&#8719;" /><glyph d="M261 -248 292 -239C285 -220 280 -200 280 -177C280 -2 472 137 472 424V450L391 424C379 447 347 485 275 485C121 485 3 287 3 141C3 58 39 -10 133 -10C200 -10 238 16 276 69L279 65C230 -31 227 -82 227 -121C227 -182 244 -226 261 -248ZM343 285C297 119 227 38 147 38C101 38 78 60 78 95C78 151 118 166 153 252C185 330 187 373 214 409C226 425 243 440 278 440C347 440 369 379 343 285Z" glyph-name="q" horiz-adv-x="540" unicode="q" /><glyph d="M247 256 263 262C255.0069 275.3218 252 289.9584 252 306C252 390 359 475 359 613C359 634.0086 354 653 345 672C341 669 309 656 300 656C284 665 268 691 215 691C121 691 51 590 51 506C51 462 74.2353 399 146 399C189 399 216 417 239 449L241 447C219 397 213 368 213 346C213 307.3148 229.2465 271.3864 247 256ZM272 610C272 514.014 211.86 427 152 427C123.7647 427 110 445 110 464C110 492 136 502 155 552C171 597 170 629 186 650C194 659 204 666 223 666C254 666 272 644 272 610Z" glyph-name="q.superior" horiz-adv-x="348" /><glyph d="M206 292C308 347 470 368 470 525C470 625 401 698 271 698C113 698 68 605 84 514H127C127 605 158 648 239 648C311 648 347 597 347 530C347 347 105 381 105 252C105 232 112 213 119 193H148C157 255 170 273 206 292ZM73 50C73 17 95 -9 133 -9C167 -9 190 16 190 50C190 79 167 107 133 107C95 107 73 80 73 50Z" glyph-name="question" horiz-adv-x="490" unicode="?" /><glyph d="M119 173C119 213 124 231 166 248C250 281 362 292 362 411C362 483 306 533 209 533C81 533 52 459 66 394H99C100 461 122 496 183 496C236 496 258 464 258 417C258 293 80 308 80 216C80 195 88 178 90 173ZM50 47C50 16 71 -9 106 -9C138 -9 159 15 159 47C159 74 138 101 106 101C70 101 50 75 50 47Z" glyph-name="question.small" horiz-adv-x="394" /><glyph d="M229 183C127 128 -35 107 -35 -50C-35 -150 34 -223 164 -223C322 -223 367 -130 351 -39H308C308 -130 277 -173 196 -173C124 -173 88 -122 88 -55C88 128 330 94 330 223C330 243 323 262 316 282H287C278 220 265 202 229 183ZM362 425C362 458 340 484 302 484C268 484 245 459 245 425C245 396 268 368 302 368C340 368 362 395 362 425Z" glyph-name="questiondown" horiz-adv-x="490" unicode="&#191;" /><glyph d="M280 395C178 340 16 319 16 162C16 62 85 -11 215 -11C373 -11 418 82 402 173H359C359 82 328 39 247 39C175 39 139 90 139 157C139 340 381 306 381 435C381 455 374 474 367 494H338C329 432 316 414 280 395ZM413 637C413 670 391 696 353 696C319 696 296 671 296 637C296 608 319 580 353 580C391 580 413 607 413 637Z" glyph-name="questiondown.cap" horiz-adv-x="490" /><glyph d="M238 351C238 311 233 293 191 276C107 243 -5 232 -5 113C-5 41 51 -9 148 -9C276 -9 305 65 291 130H258C257 63 235 28 174 28C121 28 99 60 99 107C99 231 277 216 277 308C277 329 269 346 267 351ZM307 477C307 508 286 533 251 533C219 533 198 509 198 477C198 450 219 423 251 423C287 423 307 449 307 477Z" glyph-name="questiondown.small" horiz-adv-x="394" /><glyph d="M105 536H63L115 710H197C184 656 138 562 105 536ZM257 536H215L267 710H349C336 656 290 562 257 536Z" glyph-name="quotedbl" horiz-adv-x="300" unicode="&quot;" /><glyph d="M-80 -83 -68 -110C43 -79 91 7 91 71C91 102 73 130 36 130C2 130 -19 106 -19 76C-19 33 16 35 19 18C17 -17 -19 -58 -80 -83ZM102 -83 114 -110C225 -79 273 7 273 71C273 102 255 130 218 130C184 130 163 106 163 76C163 33 198 35 201 18C199 -17 163 -58 102 -83Z" glyph-name="quotedblbase" horiz-adv-x="373" unicode="&#8222;" /><glyph d="M252 683 241 710C130 679 82 593 82 529C82 498 99 470 136 470C171 470 192 494 192 523C192 567 157 565 154 582C155 617 191 658 252 683ZM434 683 423 710C312 679 264 593 264 529C264 498 281 470 318 470C353 470 374 494 374 523C374 567 339 565 336 582C337 617 373 658 434 683Z" glyph-name="quotedblleft" horiz-adv-x="382" unicode="&#8220;" /><glyph d="M74 497 86 470C197 501 245 587 245 651C245 682 227 710 190 710C156 710 135 686 135 656C135 613 170 615 173 598C171 563 135 522 74 497ZM256 497 268 470C379 501 427 587 427 651C427 682 409 710 372 710C338 710 317 686 317 656C317 613 352 615 355 598C353 563 317 522 256 497Z" glyph-name="quotedblright" horiz-adv-x="382" unicode="&#8221;" /><glyph d="M252 683 241 710C130 679 82 593 82 529C82 498 99 470 136 470C171 470 192 494 192 523C192 567 157 565 154 582C155 617 191 658 252 683Z" glyph-name="quoteleft" horiz-adv-x="201" unicode="&#8216;" /><glyph d="M74 497 86 470C197 501 245 587 245 651C245 682 227 710 190 710C156 710 135 686 135 656C135 613 170 615 173 598C171 563 135 522 74 497Z" glyph-name="quoteright" horiz-adv-x="201" unicode="&#8217;" /></font>
</defs>
</svg>
