<?xml version="1.0" encoding="UTF-8"?>
<svg xmlns="http://www.w3.org/2000/svg" xmlns:xlink="http://www.w3.org/1999/xlink" version="1.2" >
<font id="Ampero Italic">
<font-face  font-family="Ampero" units-per-em="1000" ascent="775" descent="-231" font-style="italic" font-weight="400" font-stretch="normal" cap-height="749" x-height="540" underline-position="-75" underline-thickness="50" />
<missing-glyph  horiz-adv-x="233" d="" />
<glyph glyph-name="Z" unicode="Z" horiz-adv-x="392" d="M156 749 L468 749 L452 650 Q450 636 443 625 L149 99 L366 99 L351 0 L40 0 L54 97 Q57 113 63 124 L358 650 L140 650 L156 749 Z " />
<glyph glyph-name="Y" unicode="Y" horiz-adv-x="387" d="M246 391 L262 391 L288 505 L384 749 L483 749 L279 233 L243 0 L143 0 L179 233 L137 749 L236 749 L256 505 L246 391 Z " />
<glyph glyph-name="X" unicode="X" horiz-adv-x="422" d="M385 0 L285 0 L264 236 L279 379 L262 379 L230 236 L137 0 L37 0 L196 414 L154 749 L254 749 L282 569 L275 461 L292 461 L316 569 L402 749 L502 749 L354 414 L385 0 Z " />
<glyph glyph-name="P" unicode="P" horiz-adv-x="411" d="M177 749 L402 749 Q434 749 456 727.5 Q478 706 476 675 Q476 673 475.5 670 Q475 667 475 665 L434 401 Q431 383 421.5 367.5 Q412 352 398.5 341 Q385 330 368.5 323.5 Q352 317 334 317 L208 317 L159 0 L60 0 L177 749 Z M264 670 L220 398 L297 398 Q311 398 324.5 409 Q338 420 340 434 L371 633 Q371 645 366 657.5 Q361 670 345 670 L264 670 Z " />
<glyph glyph-name="R" unicode="R" horiz-adv-x="418" d="M436 401 Q430 363 395 340 Q360 317 303 315 L391 0 L286 0 L197 335 L182 335 L189 188 L160 0 L61 0 L178 749 L403 749 Q435 749 457.5 727.5 Q480 706 478 675 Q478 673 477.5 670 Q477 667 477 665 L436 401 Z M265 670 L221 398 L298 398 Q312 398 325.5 409 Q339 420 341 434 L372 633 Q372 645 367 657.5 Q362 670 346 670 L265 670 Z " />
<glyph glyph-name="Q" unicode="Q" horiz-adv-x="406" d="M290 670 Q276 670 264 658 Q252 646 250 632 L169 117 Q168 103 175 91.5 Q182 80 196 80 L240 80 Q254 80 267 91.5 Q280 103 282 117 L363 633 Q363 646 357.5 658 Q352 670 327 670 L290 670 Z M281 -152 L218 -152 Q185 -152 163.5 -132 Q142 -112 144 -80 Q144 -73 145 -69 L157 0 L136 0 Q104 0 82.5 21 Q61 42 62 74 Q62 80 63 84 L155 665 Q158 682 167 697.5 Q176 713 189.5 724.5 Q203 736 219.5 742.5 Q236 749 253 749 L395 749 Q428 749 448.5 728 Q469 707 467 676 Q467 673 466.5 670.5 Q466 668 466 665 L374 84 Q369 49 341.5 24.5 Q314 0 278 0 L257 0 L250 -36 Q250 -48 257.5 -59.5 Q265 -71 280 -71 L294 -71 L281 -152 Z " />
<glyph glyph-name="S" unicode="S" horiz-adv-x="403" d="M229 542 Q229 540 228.5 538.5 Q228 537 228 535 Q227 514 240.5 499.5 Q254 485 274.5 473 Q295 461 319.5 449.5 Q344 438 364.5 423.5 Q385 409 398.5 390.5 Q412 372 411 345 Q409 337 409 333 L370 84 Q367 67 358 51.5 Q349 36 336 24.5 Q323 13 306.5 6.5 Q290 0 272 0 L130 0 Q115 0 101.5 6 Q88 12 78 22.5 Q68 33 62 46.5 Q56 60 56 76 Q56 78 56.5 80 Q57 82 57 84 L77 211 L177 211 L163 117 Q162 103 169 91.5 Q176 80 190 80 L234 80 Q248 80 261.5 91.5 Q275 103 277 117 L304 290 Q304 292 304.5 295 Q305 298 305 300 Q306 326 292.5 343 Q279 360 259 373 Q239 386 214.5 396.5 Q190 407 170 420.5 Q150 434 136.5 452.5 Q123 471 124 499 L150 665 Q155 700 181.5 724.5 Q208 749 249 749 L389 749 Q421 749 443 727.5 Q465 706 463 675 Q463 673 462.5 670 Q462 667 462 665 L446 563 L347 563 L358 633 Q358 645 352 657.5 Q346 670 320 670 L284 670 Q270 670 258 658 Q246 646 244 632 L229 542 Z " />
<glyph glyph-name="T" unicode="T" horiz-adv-x="382" d="M158 749 L469 749 L453 650 L347 650 L246 0 L147 0 L248 650 L142 650 L158 749 Z " />
<glyph glyph-name="U" unicode="U" horiz-adv-x="418" d="M274 749 L175 117 Q174 103 180.5 91.5 Q187 80 202 80 L246 80 Q260 80 273.5 91.5 Q287 103 289 117 L388 749 L487 749 L382 84 Q379 67 370 51.5 Q361 36 348 24.5 Q335 13 318.5 6.5 Q302 0 284 0 L143 0 Q107 0 87.5 25 Q68 50 69 84 L174 749 L274 749 Z " />
<glyph glyph-name="W" unicode="W" horiz-adv-x="744" d="M555 338 L537 141 L553 141 L597 338 L749 749 L857 749 L572 0 L478 0 L444 357 L463 554 L447 554 L402 357 L259 0 L164 0 L113 749 L221 749 L243 338 L225 141 L241 141 L285 338 L438 749 L532 749 L555 338 Z " />
<glyph glyph-name="B" unicode="B" horiz-adv-x="423" d="M177 749 L404 749 Q436 749 458 727.5 Q480 706 478 675 Q478 673 477.5 670 Q477 667 477 665 L453 513 Q448 478 430.5 460 Q413 442 390 434 Q416 425 423 406 Q430 387 429 364 Q429 362 428.5 360 Q428 358 428 356 L385 84 Q382 67 373 51.5 Q364 36 351 24.5 Q338 13 321.5 6.5 Q305 0 287 0 L60 0 L177 749 Z M170 80 L249 80 Q263 80 276 91.5 Q289 103 291 117 L328 356 Q329 371 321 382.5 Q313 394 297 394 L220 394 L170 80 Z M310 474 Q325 474 337.5 485 Q350 496 352 510 L372 632 Q372 644 367.5 656 Q363 668 347 668 L264 668 L233 474 L310 474 Z " />
<glyph glyph-name="D" unicode="D" horiz-adv-x="427" d="M177 749 L403 749 Q435 749 457 727.5 Q479 706 477 675 Q477 673 476.5 670 Q476 667 476 665 L384 84 Q381 67 372 51.5 Q363 36 350 24.5 Q337 13 320.5 6.5 Q304 0 286 0 L60 0 L177 749 Z M372 633 Q372 645 367 657.5 Q362 670 346 670 L264 670 L170 80 L248 80 Q262 80 275.5 91.5 Q289 103 291 117 L372 633 Z " />
<glyph glyph-name="C" unicode="C" horiz-adv-x="407" d="M408 295 L374 84 Q369 49 341.5 24.5 Q314 0 278 0 L136 0 Q104 0 82.5 21 Q61 42 62 74 Q62 80 63 84 L155 665 Q158 682 167 697.5 Q176 713 189.5 724.5 Q203 736 219.5 742.5 Q236 749 253 749 L395 749 Q428 749 448.5 728 Q469 707 467 676 Q467 673 466.5 670.5 Q466 668 466 665 L430 438 L332 438 L363 632 Q363 644 358.5 656 Q354 668 338 668 L286 668 Q271 668 261.5 656 Q252 644 250 632 L169 117 Q168 103 172.5 91.5 Q177 80 191 80 L240 80 Q254 80 267 91.5 Q280 103 282 117 L310 295 L408 295 Z " />
<glyph glyph-name="E" unicode="E" horiz-adv-x="424" d="M178 749 L491 749 L475 650 L261 650 L225 416 L407 416 L391 317 L209 317 L175 99 L389 99 L374 0 L61 0 L178 749 Z " />
<glyph glyph-name="G" unicode="G" horiz-adv-x="409" d="M136 0 Q104 0 82.5 21 Q61 42 62 74 Q62 80 63 84 L155 665 Q158 682 167 697.5 Q176 713 189.5 724.5 Q203 736 219.5 742.5 Q236 749 253 749 L395 749 Q428 749 448.5 728 Q469 707 467 676 Q467 673 466.5 670.5 Q466 668 466 665 L436 479 L338 479 L363 632 Q363 644 358.5 656 Q354 668 338 668 L286 668 Q271 668 261.5 656 Q252 644 250 632 L169 117 Q168 103 173.5 92.5 Q179 82 191 80 L236 80 Q250 80 264.5 89 Q279 98 282 117 L301 237 L261 237 L276 336 L414 336 L362 0 L292 0 L274 28 Q263 16 251 8 Q239 0 228 0 L136 0 Z " />
<glyph glyph-name="H" unicode="H" horiz-adv-x="432" d="M322 317 L208 317 L159 0 L60 0 L177 749 L276 749 L224 416 L338 416 L390 749 L489 749 L372 0 L273 0 L322 317 Z " />
<glyph glyph-name="J" unicode="J" horiz-adv-x="362" d="M143 285 L118 117 Q117 103 123.5 91.5 Q130 80 145 80 L194 80 Q207 82 217.5 92.5 Q228 103 230 117 L329 749 L429 749 L324 84 Q321 67 312.5 51.5 Q304 36 290.5 24.5 Q277 13 261 6.5 Q245 0 227 0 L85 0 Q52 0 31 21 Q10 42 11 73 Q11 80 12 84 L43 285 L143 285 Z " />
<glyph glyph-name="K" unicode="K" horiz-adv-x="400" d="M245 550 L193 413 L208 413 Q256 496 305 581 Q354 666 401 749 L506 749 L287 374 L390 0 L285 0 L196 335 L181 335 L188 188 L159 0 L60 0 L177 749 L276 749 L245 550 Z " />
<glyph glyph-name="L" unicode="L" horiz-adv-x="399" d="M174 99 L388 99 L373 0 L60 0 L177 749 L276 749 L174 99 Z " />
<glyph glyph-name="M" unicode="M" horiz-adv-x="550" d="M300 0 L255 0 L213 472 L201 472 L201 285 L158 0 L60 0 L177 749 L286 749 L318 419 L314 271 L326 271 L367 419 L504 749 L613 749 L496 0 L397 0 L440 285 L501 472 L489 472 L300 0 Z " />
<glyph glyph-name="O" unicode="O" horiz-adv-x="412" d="M135 0 Q121 0 107.5 6 Q94 12 83.5 22 Q73 32 67 46 Q61 60 61 75 Q61 77 61.5 79.5 Q62 82 62 84 L154 665 Q157 682 166 697.5 Q175 713 188.5 724.5 Q202 736 218.5 742.5 Q235 749 252 749 L394 749 Q427 749 447.5 728 Q468 707 466 676 Q466 673 465.5 670.5 Q465 668 465 665 L373 84 Q368 49 340.5 24.5 Q313 0 277 0 L135 0 Z M289 670 Q275 670 263 658 Q251 646 249 632 L168 117 Q167 103 174 91.5 Q181 80 195 80 L239 80 Q253 80 266 91.5 Q279 103 281 117 L362 633 Q362 646 356.5 658 Q351 670 326 670 L289 670 Z " />
<glyph glyph-name="N" unicode="N" horiz-adv-x="425" d="M373 0 L265 0 L216 477 L203 477 L202 280 L159 0 L60 0 L177 749 L288 749 L331 276 L346 276 L348 474 L391 749 L490 749 L373 0 Z " />
<glyph glyph-name="I" unicode="I" horiz-adv-x="221" d="M177 749 L278 749 L161 0 L60 0 L177 749 Z " />
<glyph glyph-name="F" unicode="F" horiz-adv-x="414" d="M178 749 L491 749 L475 650 L261 650 L225 416 L407 416 L391 317 L209 317 L160 0 L61 0 L178 749 Z " />
<glyph glyph-name="V" unicode="V" horiz-adv-x="432" d="M442 749 L549 749 L265 0 L169 0 L117 749 L224 749 L247 338 L229 141 L246 141 L289 338 L442 749 Z " />
<glyph glyph-name="zero" unicode="0" horiz-adv-x="389" d="M137 0 Q105 0 84 20.5 Q63 41 63 72 Q63 79 64 84 L156 665 Q159 682 168 697.5 Q177 713 190.5 724.5 Q204 736 220.5 742.5 Q237 749 254 749 L396 749 Q428 749 449 728.5 Q470 708 470 678 Q470 675 469.5 671.5 Q469 668 469 665 L377 84 Q374 67 365 51.5 Q356 36 343 24.5 Q330 13 313.5 6.5 Q297 0 279 0 L137 0 Z M291 670 Q277 670 265 658 Q253 646 251 632 L170 117 Q170 103 176.5 91.5 Q183 80 197 80 L241 80 Q255 80 268.5 91.5 Q282 103 284 117 L365 633 Q365 645 359 657.5 Q353 670 328 670 L291 670 Z " />
<glyph glyph-name="one" unicode="1" horiz-adv-x="264" d="M114 0 L202 563 L148 563 L164 666 Q178 675 190 687 Q201 698 211.5 713 Q222 728 230 749 L330 749 L213 0 L114 0 Z " />
<glyph glyph-name="two" unicode="2" horiz-adv-x="409" d="M461 611 Q458 593 449 579 L159 99 L380 99 L365 0 L53 0 L67 97 Q69 106 72 115 Q75 124 83 137 L340 558 Q348 570 357 589.5 Q366 609 366 636 Q366 649 358 659.5 Q350 670 336 670 L301 670 Q275 670 264.5 658 Q254 646 252 633 L241 563 L141 563 L157 665 Q160 682 169 697.5 Q178 713 191 724.5 Q204 736 220.5 742.5 Q237 749 255 749 L396 749 Q428 749 449 728.5 Q470 708 470 678 Q470 675 469.5 671.5 Q469 668 469 665 L461 611 Z " />
<glyph glyph-name="three" unicode="3" horiz-adv-x="389" d="M241 80 Q255 80 268.5 91.5 Q282 103 284 117 L321 358 Q321 373 313.5 384.5 Q306 396 289 396 L244 396 L257 476 L302 476 Q317 476 330 487 Q343 498 345 512 L365 632 Q365 644 360 656 Q355 668 339 668 L287 668 Q271 668 262 656 Q253 644 251 632 L244 590 L144 590 L156 665 Q161 700 187.5 724.5 Q214 749 254 749 L396 749 Q428 749 449 728.5 Q470 708 470 678 Q470 675 469.5 671.5 Q469 668 469 665 L445 514 Q441 491 426.5 470 Q412 449 383 435 Q401 428 411 412.5 Q421 397 421 376 Q421 371 420.5 366.5 Q420 362 420 357 L377 84 Q374 67 365 51.5 Q356 36 343 24.5 Q330 13 313.5 6.5 Q297 0 279 0 L137 0 Q105 0 84 20.5 Q63 41 63 72 Q63 79 64 84 L95 285 L195 285 L170 117 Q170 103 175.5 91.5 Q181 80 197 80 L241 80 Z " />
<glyph glyph-name="four" unicode="4" horiz-adv-x="442" d="M104 328 L328 749 L480 749 L413 318 L495 318 L478 219 L396 219 L363 0 L264 0 L297 219 L86 219 L104 328 Z M200 318 L314 318 L345 521 L390 678 L378 678 L324 548 L200 318 Z " />
<glyph glyph-name="five" unicode="5" horiz-adv-x="389" d="M222 452 Q236 466 248.5 472.5 Q261 479 270 479 L353 479 Q385 479 406.5 459 Q428 439 428 407 Q428 404 427 401 Q426 398 426 395 L377 84 Q374 67 365 51.5 Q356 36 343 24.5 Q330 13 313.5 6.5 Q297 0 279 0 L137 0 Q105 0 84 20.5 Q63 41 63 72 Q63 79 64 84 L81 192 L181 192 L170 117 Q170 103 176.5 91.5 Q183 80 197 80 L241 80 Q255 80 268.5 91.5 Q282 103 284 117 L322 363 Q322 379 316.5 388.5 Q311 398 291 398 L252 398 Q219 398 207 365 L108 365 L169 749 L482 749 L470 670 L291 670 Q277 670 265 658 Q253 646 251 632 L222 452 Z " />
<glyph glyph-name="six" unicode="6" horiz-adv-x="389" d="M241 80 Q255 80 268.5 91.5 Q282 103 284 117 L322 363 Q322 375 313.5 386.5 Q305 398 291 398 L252 398 Q238 398 224.5 390.5 Q211 383 208 364 L170 117 Q170 103 176.5 91.5 Q183 80 197 80 L241 80 Z M353 479 Q385 479 406.5 459 Q428 439 428 407 Q428 404 427 401 Q426 398 426 395 L377 84 Q374 67 365 51.5 Q356 36 343 24.5 Q330 13 313.5 6.5 Q297 0 279 0 L137 0 Q105 0 84 20.5 Q63 41 63 72 Q63 79 64 84 L156 665 Q159 682 168 697.5 Q177 713 190.5 724.5 Q204 736 220.5 742.5 Q237 749 254 749 L396 749 Q428 749 449 728.5 Q470 708 470 678 Q470 675 469.5 671.5 Q469 668 469 665 L456 584 L357 584 L365 633 Q365 645 359 657.5 Q353 670 328 670 L291 670 Q277 670 264.5 658 Q252 646 250 632 L221 452 Q235 466 247.5 472.5 Q260 479 269 479 L353 479 Z " />
<glyph glyph-name="seven" unicode="7" horiz-adv-x="390" d="M169 749 L482 749 L466 650 Q465 643 462.5 637 Q460 631 456 623 L149 0 L50 0 L370 650 L153 650 L169 749 Z " />
<glyph glyph-name="eight" unicode="8" horiz-adv-x="389" d="M137 0 Q105 0 84 20.5 Q63 41 63 72 Q63 79 64 84 L104 342 Q107 362 124 381.5 Q141 401 167 420 Q130 460 130 499 L156 665 Q161 700 188.5 724.5 Q216 749 254 749 L396 749 Q428 749 449 728.5 Q470 708 470 678 Q470 675 469.5 671.5 Q469 668 469 665 L443 499 Q440 480 423.5 460 Q407 440 380 420 Q398 404 408.5 387 Q419 370 419 353 Q419 350 418.5 347.5 Q418 345 417 342 L377 84 Q374 67 365 51.5 Q356 36 343 24.5 Q330 13 313.5 6.5 Q297 0 279 0 L137 0 Z M247 380 Q233 380 219.5 368.5 Q206 357 204 342 L170 117 Q170 103 175.5 91.5 Q181 80 197 80 L241 80 Q255 80 268.5 91.5 Q282 103 284 117 L318 342 Q318 357 311 368.5 Q304 380 287 380 L247 380 Z M287 668 Q270 668 261.5 656 Q253 644 251 632 L229 496 Q229 482 236 471 Q243 460 260 460 L300 460 Q315 460 328 471 Q341 482 343 496 L365 632 Q365 644 360 656 Q355 668 339 668 L287 668 Z " />
<glyph glyph-name="nine" unicode="9" horiz-adv-x="409" d="M291 668 Q277 668 265 656.5 Q253 645 251 631 L212 385 Q212 373 218.5 361.5 Q225 350 240 350 L280 350 Q294 350 308.5 357.5 Q323 365 326 383 L365 632 Q365 668 335 668 L291 668 Z M179 269 Q147 269 126 289 Q105 309 105 340 Q105 345 107 353 L156 664 Q159 681 168 696.5 Q177 712 190.5 723.5 Q204 735 220.5 741.5 Q237 748 254 748 L396 748 Q428 748 449 727 Q470 706 470 676 Q470 673 469.5 670 Q469 667 469 664 L377 83 Q374 65 364.5 49.5 Q355 34 341.5 23 Q328 12 311.5 5.5 Q295 -1 277 -1 L135 -1 Q103 -1 83 19 Q63 39 63 70 Q63 78 64 83 L77 164 L177 164 L170 115 Q170 102 174.5 90 Q179 78 206 78 L241 78 Q252 78 267 90 Q282 102 284 117 L312 296 Q298 282 285 275.5 Q272 269 264 269 L179 269 Z " />
<glyph glyph-name="a" unicode="a" horiz-adv-x="416" d="M170 118 Q170 106 176.5 94.5 Q183 83 200 83 L239 83 Q250 83 265 90.5 Q280 98 284 119 L332 425 Q332 448 322.5 452 Q313 456 297 456 L252 456 Q235 456 227 444.5 Q219 433 217 421 L170 118 Z M311 540 Q320 540 331 534.5 Q342 529 350 513 Q355 528 365 534 Q375 540 386 540 L452 540 L368 0 L289 0 L270 28 Q259 16 247.5 8 Q236 0 225 0 L137 0 Q105 0 83.5 20.5 Q62 41 62 72 Q62 80 63 85 L121 455 Q124 473 133 488.5 Q142 504 155.5 515.5 Q169 527 186 533.5 Q203 540 221 540 L311 540 Z " />
<glyph glyph-name="b" unicode="b" horiz-adv-x="416" d="M201 0 Q179 0 163 28 L138 0 L60 0 L182 774 L283 774 L243 526 Q257 535 273 537.5 Q289 540 300 540 L376 540 Q414 540 431 515 Q448 490 448 455 L390 85 Q384 49 355.5 24.5 Q327 0 292 0 L201 0 Z M340 421 Q340 432 335.5 444 Q331 456 315 456 L270 456 Q254 456 242.5 452 Q231 448 227 425 L179 118 Q179 101 184.5 92 Q190 83 212 83 L255 83 Q267 83 279 94.5 Q291 106 293 118 L340 421 Z " />
<glyph glyph-name="c" unicode="c" horiz-adv-x="399" d="M251 456 Q235 456 226.5 444.5 Q218 433 216 421 L169 119 Q169 105 174 95 Q179 85 193 83 L242 83 Q257 83 269 94 Q281 105 283 119 L287 145 L389 145 L379 85 Q373 49 345 24.5 Q317 0 280 0 L136 0 Q99 0 80.5 25.5 Q62 51 62 85 L120 455 Q123 473 132 488.5 Q141 504 155 515.5 Q169 527 185.5 533.5 Q202 540 220 540 L364 540 Q399 540 418.5 519.5 Q438 499 438 469 Q438 460 437 455 L428 392 L326 392 L331 425 Q331 427 331.5 429.5 Q332 432 332 434 Q332 451 321 453.5 Q310 456 296 456 L251 456 Z " />
<glyph glyph-name="w" unicode="w" horiz-adv-x="634" d="M454 103 L480 216 L589 541 L699 541 L484 0 L378 0 L358 223 L342 223 L259 0 L150 0 L104 541 L214 541 L221 216 L211 103 L227 103 L253 216 L336 386 L320 541 L440 541 L447 216 L437 103 L454 103 Z " />
<glyph glyph-name="v" unicode="v" horiz-adv-x="398" d="M223 103 L249 216 L358 541 L462 541 L248 0 L151 0 L104 541 L209 541 L216 216 L206 103 L223 103 Z " />
<glyph glyph-name="u" unicode="u" horiz-adv-x="410" d="M138 0 Q103 0 82.5 21 Q62 42 62 74 Q62 81 63 85 L135 540 L237 540 L171 119 Q171 105 174.5 94.5 Q178 84 195 84 L239 84 Q255 84 267.5 90.5 Q280 97 284 119 L350 540 L452 540 L368 0 L297 0 Q286 0 277.5 6 Q269 12 269 27 Q256 11 243.5 5.5 Q231 0 223 0 L138 0 Z " />
<glyph glyph-name="t" unicode="t" horiz-adv-x="280" d="M152 437 L96 437 L112 540 L168 540 L181 627 L281 627 L268 540 L329 540 L313 439 L252 439 L202 116 Q202 105 207 94 Q212 83 231 83 L257 83 L245 0 L171 0 Q135 0 115.5 21 Q96 42 96 77 Q96 82 96.5 87 Q97 92 98 97 L152 437 Z " />
<glyph glyph-name="s" unicode="s" horiz-adv-x="399" d="M213 421 Q210 403 209.5 398 Q209 393 209 391 Q209 368 222.5 352 Q236 336 256 323 Q276 310 300 298.5 Q324 287 344 272.5 Q364 258 377.5 238 Q391 218 391 188 Q391 172 388 150 Q385 128 377 85 Q374 67 364.5 51.5 Q355 36 341.5 24.5 Q328 13 311.5 6.5 Q295 0 277 0 L133 0 Q101 0 79.5 20 Q58 40 58 72 Q58 80 59 85 L70 152 L171 152 L166 118 Q166 106 172.5 94.5 Q179 83 195 83 L239 83 Q254 83 266 94 Q278 105 280 119 Q283 139 283.5 144.5 Q284 150 284 152 Q284 174 270.5 190 Q257 206 236 218 Q215 230 191.5 241 Q168 252 147 265.5 Q126 279 112.5 296.5 Q99 314 99 339 Q99 340 100 344.5 Q101 349 103 361 Q105 373 108.5 395 Q112 417 118 455 Q121 473 130 488.5 Q139 504 153 515.5 Q167 527 183.5 533.5 Q200 540 218 540 L361 540 Q393 540 413.5 515 Q434 490 434 459 Q434 455 433.5 451 Q433 447 433 444 L426 400 L324 400 L327 422 Q327 434 322 446 Q317 458 291 458 L254 458 Q240 458 227.5 446.5 Q215 435 213 421 Z " />
<glyph glyph-name="q" unicode="q" horiz-adv-x="409" d="M139 0 Q105 0 84 20 Q63 40 63 72 Q63 75 63 78.5 Q63 82 64 85 L122 455 Q125 473 134 488.5 Q143 504 156.5 515.5 Q170 527 187.5 533.5 Q205 540 223 540 L320 540 Q328 540 337.5 534.5 Q347 529 354 521 Q360 530 367 535 Q374 540 388 540 L453 540 L331 -230 L230 -230 L270 17 Q262 9 254.5 4.5 Q247 0 239 0 L139 0 Z M172 118 Q172 116 171.5 115.5 Q171 115 171 113 Q171 102 179.5 92.5 Q188 83 201 83 L240 83 Q254 83 268 90.5 Q282 98 286 119 L334 425 Q334 448 324.5 452 Q315 456 298 456 L254 456 Q237 456 229 444.5 Q221 433 219 421 L172 118 Z " />
<glyph glyph-name="r" unicode="r" horiz-adv-x="366" d="M202 540 Q212 540 220 533 Q228 526 229 507 Q248 527 269 534 Q290 541 300 541 L366 541 Q397 541 418.5 519.5 Q440 498 440 466 Q440 464 439.5 461 Q439 458 439 456 L432 403 L331 403 L333 422 Q333 439 326 448.5 Q319 458 304 458 L263 458 Q245 458 232.5 448 Q220 438 218 422 L153 0 L52 0 L136 540 L202 540 L202 540 Z " />
<glyph glyph-name="p" unicode="p" horiz-adv-x="409" d="M184 0 Q176 0 168.5 4.5 Q161 9 157 17 L117 -231 L16 -231 L138 540 L203 540 Q217 540 222.5 535 Q228 530 231 521 Q240 529 251.5 534.5 Q263 540 271 540 L368 540 Q400 540 421 519.5 Q442 499 442 469 Q442 460 441 455 L383 85 Q377 49 348.5 24.5 Q320 0 284 0 L184 0 Z M334 421 Q334 434 329.5 445 Q325 456 309 456 L264 456 Q249 456 237 452 Q225 448 221 425 L173 119 Q172 116 172 111 Q172 94 182.5 88.5 Q193 83 206 83 L246 83 Q258 83 271.5 94.5 Q285 106 287 118 L334 421 Z " />
<glyph glyph-name="o" unicode="o" horiz-adv-x="407" d="M128 0 Q96 0 74.5 20 Q53 40 53 72 Q53 80 54 85 L112 455 Q115 473 124 488.5 Q133 504 147 515.5 Q161 527 177.5 533.5 Q194 540 212 540 L356 540 Q389 540 410 519.5 Q431 499 431 468 Q431 464 430.5 461.5 Q430 459 429 455 L371 85 Q365 49 337 24.5 Q309 0 272 0 L128 0 Z M250 458 Q235 458 222.5 446.5 Q210 435 208 421 L161 118 Q161 106 167.5 94.5 Q174 83 191 83 L234 83 Q249 83 261 94 Q273 105 275 119 L322 422 Q322 436 317 447 Q312 458 286 458 L250 458 Z " />
<glyph glyph-name="n" unicode="n" horiz-adv-x="417" d="M372 540 Q406 540 426.5 519 Q447 498 447 466 Q447 463 446 460 Q445 457 445 455 L375 0 L273 0 L338 421 Q338 432 333.5 444 Q329 456 313 456 L268 456 Q251 456 239.5 449.5 Q228 443 225 421 L160 0 L58 0 L142 540 L212 540 Q225 540 231.5 534 Q238 528 238 513 Q252 529 265 534.5 Q278 540 287 540 L372 540 Z " />
<glyph glyph-name="m" unicode="m" horiz-adv-x="621" d="M363 540 Q382 540 402 532.5 Q422 525 431 505 Q444 527 463 533.5 Q482 540 505 540 L585 540 Q620 540 640 519 Q660 498 660 466 Q660 463 659.5 460.5 Q659 458 658 455 L588 0 L486 0 L551 421 Q551 433 547 444.5 Q543 456 526 456 L482 456 Q466 456 453.5 450 Q441 444 437 421 L372 0 L271 0 L336 421 Q336 433 331 444.5 Q326 456 310 456 L265 456 Q248 456 236 449.5 Q224 443 221 421 L156 0 L54 0 L138 540 L209 540 Q222 540 228 534 Q234 528 234 513 Q248 529 261 534.5 Q274 540 284 540 L363 540 Z " />
<glyph glyph-name="l" unicode="l" horiz-adv-x="221" d="M185 774 L286 774 L164 0 L63 0 L185 774 Z " />
<glyph glyph-name="k" unicode="k" horiz-adv-x="381" d="M280 774 L233 483 L197 347 L212 347 L350 540 L457 540 L281 312 Q290 274 302.5 235 Q315 196 328 156 Q341 116 353.5 76.5 Q366 37 375 0 L267 0 L196 269 L185 269 L177 123 L158 0 L60 0 L182 774 L280 774 Z " />
<glyph glyph-name="i" unicode="i" horiz-adv-x="215" d="M141 540 L242 540 L158 0 L57 0 L141 540 Z M158 707 Q158 719 164 731 Q170 743 179.5 753 Q189 763 201.5 769 Q214 775 229 775 Q252 775 265.5 760.5 Q279 746 279 725 Q279 696 257.5 676 Q236 656 209 656 Q185 656 171.5 670 Q158 684 158 707 Z " />
<glyph glyph-name="j" unicode="j" horiz-adv-x="216" d="M162 708 Q162 721 168.5 733 Q175 745 185 754.5 Q195 764 207.5 769.5 Q220 775 234 775 Q256 775 270 760.5 Q284 746 284 724 Q284 710 278 697.5 Q272 685 262 676 Q252 667 239.5 661.5 Q227 656 214 656 Q190 656 176 670.5 Q162 685 162 708 Z M-6 -169 Q12 -169 24.5 -157.5 Q37 -146 39 -132 L145 541 L246 541 L135 -166 Q132 -184 122.5 -199.5 Q113 -215 99 -226.5 Q85 -238 68.5 -245 Q52 -252 35 -252 L-19 -252 L-6 -169 Z " />
<glyph glyph-name="h" unicode="h" horiz-adv-x="413" d="M60 0 L182 774 L283 774 L243 529 Q250 534 260.5 537.5 Q271 541 282 541 L376 541 Q408 541 429 520.5 Q450 500 450 469 Q450 464 448 456 L378 0 L275 0 L340 422 Q340 434 336 445.5 Q332 457 316 457 L271 457 Q256 457 243.5 453 Q231 449 227 426 L161 0 L60 0 Z " />
<glyph glyph-name="g" unicode="g" horiz-adv-x="409" d="M170 118 Q170 106 176.5 94.5 Q183 83 200 83 L239 83 Q247 83 263.5 90.5 Q280 98 284 119 L332 426 Q332 457 298 457 L253 457 Q238 457 228.5 445.5 Q219 434 217 422 L170 118 Z M137 0 Q105 0 83.5 20.5 Q62 41 62 72 Q62 80 63 85 L121 455 Q124 473 133 488.5 Q142 504 155.5 515.5 Q169 527 186 533.5 Q203 540 221 540 L330 540 Q338 540 344.5 533.5 Q351 527 353 518 Q355 529 363 534.5 Q371 540 376 540 L452 540 L344 -146 Q341 -164 331.5 -179.5 Q322 -195 308 -206.5 Q294 -218 277 -224.5 Q260 -231 243 -231 L99 -231 Q61 -231 44 -206 Q27 -181 27 -146 L38 -76 L139 -76 L134 -112 Q134 -126 139.5 -137.5 Q145 -149 163 -149 L211 -149 Q224 -147 235 -136.5 Q246 -126 248 -112 L269 26 Q256 12 243.5 6 Q231 0 223 0 L137 0 Z " />
<glyph glyph-name="f" unicode="f" horiz-adv-x="274" d="M165 676 Q172 721 199.5 747.5 Q227 774 269 774 L397 774 L380 674 L264 674 L243 540 L327 540 L311 439 L227 439 L159 0 L59 0 L165 676 Z " />
<glyph glyph-name="z" unicode="z" horiz-adv-x="386" d="M63 76 Q66 94 72.5 106 Q79 118 84 125 L295 439 L120 439 L136 540 L428 540 L415 457 Q413 445 407 433.5 Q401 422 397 416 L182 100 L369 100 L352 -1 L50 -1 L63 76 Z " />
<glyph glyph-name="y" unicode="y" horiz-adv-x="412" d="M455 540 L347 -145 Q344 -163 334.5 -178.5 Q325 -194 311 -205.5 Q297 -217 280 -224 Q263 -231 246 -231 L102 -231 Q70 -231 49.5 -214 Q29 -197 29 -163 Q29 -159 29 -154.5 Q29 -150 30 -145 L42 -73 L143 -73 L137 -111 Q137 -125 141.5 -136.5 Q146 -148 166 -148 L214 -148 Q231 -148 240 -137 Q249 -126 251 -111 L272 26 Q259 12 246.5 6 Q234 0 226 0 L140 0 Q108 0 86.5 20.5 Q65 41 65 72 Q65 80 66 85 L138 540 L239 540 L173 119 Q173 106 177 95 Q181 84 198 84 L242 84 Q256 84 269.5 88 Q283 92 287 115 L353 540 L455 540 Z " />
<glyph glyph-name="x" unicode="x" horiz-adv-x="390" d="M235 321 L254 321 L268 396 L348 540 L446 540 L314 287 L363 0 L262 0 L232 168 L240 244 L223 244 L207 168 L127 0 L26 0 L165 287 L111 540 L209 540 L243 396 L235 321 Z " />
<glyph glyph-name="d" unicode="d" horiz-adv-x="417" d="M491 775 L369 0 L292 0 L274 28 Q263 16 251.5 8 Q240 0 228 0 L138 0 Q106 0 84.5 20.5 Q63 41 63 72 Q63 80 64 85 L122 455 Q125 473 134 488.5 Q143 504 156.5 515.5 Q170 527 187 533.5 Q204 540 222 540 L300 540 Q308 540 323 533 Q338 526 347 513 L390 775 L491 775 Z M172 118 Q172 105 178 94 Q184 83 200 83 L241 83 Q255 83 268.5 89.5 Q282 96 286 118 L334 425 Q334 448 324.5 452 Q315 456 299 456 L255 456 Q238 456 229.5 444.5 Q221 433 219 421 L172 118 Z " />
<glyph glyph-name="e" unicode="e" horiz-adv-x="403" d="M390 145 L380 85 Q374 49 346 24.5 Q318 0 281 0 L137 0 Q105 0 83.5 20.5 Q62 41 62 72 Q62 80 63 85 L121 455 Q124 473 133 488.5 Q142 504 155.5 515.5 Q169 527 186 533.5 Q203 540 221 540 L365 540 Q397 540 418.5 519.5 Q440 499 440 468 Q440 464 439 460.5 Q438 457 438 455 L407 253 L191 253 L170 119 Q170 105 175 95 Q180 85 194 83 L243 83 Q258 83 270 94 Q282 105 284 119 L288 145 L390 145 Z M203 332 L317 332 L331 421 Q331 433 326.5 444.5 Q322 456 305 456 L252 456 Q235 456 227 444.5 Q219 433 217 421 L203 332 Z " />
<glyph glyph-name="at" unicode="&#x40;" horiz-adv-x="835" d="M538 638 Q547 638 558.5 632.5 Q570 627 578 611 Q583 627 592.5 632.5 Q602 638 614 638 L684 638 L609 170 Q609 168 608.5 166.5 Q608 165 608 163 Q608 134 631 113.5 Q654 93 686 93 Q702 93 719 100 Q736 107 750.5 119 Q765 131 775.5 147.5 Q786 164 789 182 L843 537 Q845 552 846 567 Q847 582 847 596 Q847 657 826.5 708.5 Q806 760 769 796.5 Q732 833 680 853.5 Q628 874 565 874 Q495 874 429 847 Q363 820 309.5 774 Q256 728 219.5 666 Q183 604 173 534 L118 172 Q115 158 114 145.5 Q113 133 113 120 Q113 60 134.5 7.5 Q156 -45 194.5 -83.5 Q233 -122 286.5 -144 Q340 -166 403 -166 Q460 -166 517 -145.5 Q574 -125 623 -91 L651 -114 Q593 -155 525.5 -179 Q458 -203 393 -203 Q322 -203 263.5 -179 Q205 -155 162.5 -112.5 Q120 -70 96.5 -12.5 Q73 45 73 113 Q73 129 74.5 144 Q76 159 78 175 L132 534 Q144 612 184 681 Q224 750 283.5 801 Q343 852 416.5 881.5 Q490 911 568 911 Q638 911 697.5 886.5 Q757 862 800 819.5 Q843 777 867 718.5 Q891 660 891 593 Q891 579 889.5 564.5 Q888 550 886 536 L832 186 Q827 156 811 129.5 Q795 103 772 84 Q749 65 721.5 54 Q694 43 667 43 Q634 43 609 52 Q584 61 566.5 76 Q549 91 539 110 Q529 129 526 149 Q503 120 484 109 Q465 98 442 98 L368 98 Q335 98 314 118 Q293 138 293 169 Q293 179 294 184 L352 552 Q357 588 385 613 Q413 638 453 638 L538 638 Z M401 217 Q401 204 408 192.5 Q415 181 431 181 L471 181 Q481 181 496 189 Q511 197 515 218 L564 523 Q564 546 555.5 550 Q547 554 530 554 L485 554 Q469 554 460 543 Q451 532 449 518 L401 217 Z " />
<glyph glyph-name="bracketleft" unicode="&#x5b;" horiz-adv-x="260" d="M197 -114 L35 -114 L175 775 L338 775 L325 695 L263 695 L148 -32 L209 -32 L197 -114 Z " />
<glyph glyph-name="backslash" unicode="&#x5c;" horiz-adv-x="514" d="M223 774 L516 -55 L421 -55 L124 774 L223 774 Z " />
<glyph glyph-name="bracketright" unicode="&#x5d;" horiz-adv-x="261" d="M110 -32 L225 695 L162 695 L175 775 L338 775 L198 -114 L37 -114 L49 -32 L110 -32 Z " />
<glyph glyph-name="parenright" unicode="&#x29;" horiz-adv-x="262" d="M171 776 L247 776 Q279 776 299.5 756.5 Q320 737 320 707 Q320 702 319.5 699 Q319 696 319 692 L206 -27 Q203 -45 194 -60.5 Q185 -76 171.5 -87 Q158 -98 141.5 -104.5 Q125 -111 107 -111 L30 -111 L42 -31 L71 -31 Q84 -31 96.5 -20.5 Q109 -10 111 6 L214 659 Q214 673 207 684 Q200 695 186 695 L158 695 L171 776 Z " />
<glyph glyph-name="parenleft" unicode="&#x28;" horiz-adv-x="260" d="M197 -113 L121 -113 Q89 -113 67.5 -93 Q46 -73 46 -41 Q46 -33 48 -28 L161 692 Q164 710 173 725.5 Q182 741 195.5 752 Q209 763 226 769.5 Q243 776 261 776 L338 776 L325 696 L297 696 Q282 696 270 685 Q258 674 256 658 L154 4 Q154 -10 160 -20.5 Q166 -31 182 -31 L209 -31 L197 -113 Z " />
<glyph glyph-name="asterisk" unicode="&#x2a;" horiz-adv-x="421" d="M309 770 L360 770 L341 650 L455 710 L473 668 L361 607 L455 547 L422 502 L328 563 L309 445 L258 445 L277 563 L164 503 L147 547 L259 607 L166 668 L197 711 L290 650 L309 770 Z " />
<glyph glyph-name="plus" unicode="&#x2b;" horiz-adv-x="398" d="M341 531 L323 423 L430 423 L415 324 L308 324 L291 215 L192 215 L209 324 L102 324 L117 423 L224 423 L242 531 L341 531 Z " />
<glyph glyph-name="comma" unicode="&#x2c;" horiz-adv-x="194" d="M54 0 L69 99 L168 99 L152 0 Q146 -33 141 -57 Q136 -81 124 -97.5 Q112 -114 91 -122 Q70 -130 33 -130 L40 -83 Q60 -83 72 -78.5 Q84 -74 90.5 -64.5 Q97 -55 101 -39 Q105 -23 109 0 L54 0 Z " />
<glyph glyph-name="hyphen" unicode="&#x2d;" horiz-adv-x="285" d="M107 399 L299 399 L283 300 L91 300 L107 399 Z " />
<glyph glyph-name="period" unicode="&#x2e;" horiz-adv-x="203" d="M69 99 L168 99 L153 0 L54 0 L69 99 Z " />
<glyph glyph-name="slash" unicode="&#x2f;" horiz-adv-x="514" d="M647 774 L89 -54 L-5 -54 L549 774 L647 774 Z " />
<glyph glyph-name="ampersand" unicode="&#x26;" horiz-adv-x="434" d="M451 557 L431 430 L486 430 L473 350 L418 350 L364 0 L137 0 Q105 0 83.5 20.5 Q62 41 62 72 Q62 79 63 84 L99 311 Q103 336 119 356.5 Q135 377 157 390 Q143 401 133 419 Q123 437 123 457 Q123 465 124 469 L155 665 Q158 682 167 697.5 Q176 713 189.5 724.5 Q203 736 219.5 742.5 Q236 749 254 749 L439 749 L427 668 L287 668 Q270 668 261 656 Q252 644 250 632 L224 467 Q224 465 223.5 464.5 Q223 464 223 462 Q223 448 232 439 Q241 430 256 430 L332 430 L352 557 L451 557 Z M319 350 L243 350 Q227 350 214 338.5 Q201 327 199 313 L169 117 Q169 103 174.5 91.5 Q180 80 197 80 L276 80 L319 350 Z " />
<glyph glyph-name="dollar" unicode="&#x24;" horiz-adv-x="389" d="M231 514 Q230 511 230 507 Q230 489 243.5 475.5 Q257 462 277 449.5 Q297 437 321 424.5 Q345 412 365 397.5 Q385 383 398.5 364.5 Q412 346 412 321 Q412 317 412 313.5 Q412 310 411 305 L376 84 Q373 67 364 51.5 Q355 36 342 24.5 Q329 13 312.5 6.5 Q296 0 278 0 L258 0 L249 -53 L150 -53 L159 0 L136 0 Q104 0 83 20.5 Q62 41 62 72 Q62 79 63 84 L83 211 L183 211 L169 117 Q169 103 175.5 91.5 Q182 80 196 80 L240 80 Q254 80 267.5 91.5 Q281 103 283 117 Q292 172 296.5 203 Q301 234 303 248.5 Q305 263 305.5 266.5 Q306 270 306 271 Q306 296 292.5 313 Q279 330 259 343.5 Q239 357 215 369 Q191 381 171 394 Q151 407 137.5 423.5 Q124 440 124 464 Q124 467 125.5 474.5 Q127 482 130 500.5 Q133 519 138.5 551.5 Q144 584 152 637 Q157 672 185.5 696.5 Q214 721 251 721 L272 721 L281 774 L380 774 L371 721 L391 721 Q429 721 446.5 696.5 Q464 672 464 637 L447 535 L348 535 L360 605 Q360 618 353.5 630 Q347 642 321 642 L285 642 Q271 642 259.5 630 Q248 618 246 604 L231 514 Z " />
<glyph glyph-name="numbersign" unicode="&#x23;" horiz-adv-x="776" d="M609 453 L559 309 L756 309 L727 230 L531 230 L449 0 L368 0 L453 232 L309 232 L227 0 L149 0 L230 234 L35 234 L66 312 L262 312 L310 456 L115 456 L146 534 L343 534 L408 717 L487 717 L420 532 L564 532 L630 716 L706 716 L639 531 L838 531 L807 453 L609 453 Z M337 310 L483 310 L533 454 L388 454 L337 310 Z " />
<glyph glyph-name="exclam" unicode="&#x21;" horiz-adv-x="203" d="M164 211 L107 211 L175 774 L273 774 L164 211 Z M171 67 Q170 41 149.5 20 Q129 -1 101 -1 Q78 -1 64.5 12 Q51 25 51 46 Q51 74 71.5 95.5 Q92 117 121 117 Q145 117 158 102.5 Q171 88 171 67 Z " />
<glyph glyph-name="semicolon" unicode="&#x3b;" horiz-adv-x="203" d="M136 524 L235 524 L219 425 L120 425 L136 524 Z M54 0 L69 99 L168 99 L153 8 Q147 -28 141.5 -54.5 Q136 -81 124 -97.5 Q112 -114 91 -122 Q70 -130 33 -130 L40 -83 Q60 -83 72 -78.5 Q84 -74 90.5 -64.5 Q97 -55 101 -39 Q105 -23 109 0 L54 0 Z " />
<glyph glyph-name="colon" unicode="&#x3a;" horiz-adv-x="203" d="M69 99 L168 99 L153 0 L54 0 L69 99 Z M136 524 L235 524 L219 425 L120 425 L136 524 Z " />
<glyph glyph-name="less" unicode="&#x3c;" horiz-adv-x="398" d="M421 220 L124 321 L140 428 L469 526 L454 430 L305 386 L234 378 L232 370 L301 363 L436 317 L421 220 Z " />
<glyph glyph-name="equal" unicode="&#x3d;" horiz-adv-x="398" d="M86 228 L399 228 L384 129 L71 129 L86 228 Z M122 456 L435 456 L420 357 L107 357 L122 456 Z " />
<glyph glyph-name="greater" unicode="&#x3e;" horiz-adv-x="398" d="M134 527 L431 426 L415 319 L86 221 L101 317 L250 361 L321 369 L323 377 L254 384 L119 430 L134 527 Z " />
<glyph glyph-name="question" unicode="&#x3f;" horiz-adv-x="409" d="M314 332 Q310 324 307 315.5 Q304 307 303 301 L289 211 L190 211 L203 293 Q204 298 206 307 Q208 316 213 323 Q259 402 287.5 449 Q316 496 331 523 Q346 550 351.5 562.5 Q357 575 359 584 L367 632 Q367 646 360 658 Q353 670 337 670 L302 670 Q275 670 265 658 Q255 646 253 633 L241 555 L141 555 L158 665 Q161 682 170 697.5 Q179 713 192 724.5 Q205 736 221.5 742.5 Q238 749 256 749 L397 749 Q429 749 450 728.5 Q471 708 471 678 Q471 675 470.5 671.5 Q470 668 470 665 L457 585 Q456 578 449 565.5 Q442 553 426 526 Q410 499 383 452.5 Q356 406 314 332 Z M276 67 Q275 41 254.5 20 Q234 -1 206 -1 Q183 -1 169.5 12 Q156 25 156 46 Q156 74 176.5 95.5 Q197 117 226 117 Q250 117 263 102.5 Q276 88 276 67 Z " />
<glyph glyph-name="sterling" unicode="&#xa3;" horiz-adv-x="389" d="M346 517 L364 633 Q364 645 358.5 657.5 Q353 670 327 670 L292 670 Q277 670 267 659 Q257 648 252 635 L222 444 L303 444 L288 346 L207 346 L164 80 L242 80 Q256 80 268.5 91.5 Q281 103 283 117 L307 270 L407 270 L377 84 Q371 49 343 24.5 Q315 0 280 0 L53 0 L107 346 L50 346 L65 444 L122 444 L157 665 Q160 682 169 697.5 Q178 713 191 724.5 Q204 736 220.5 742.5 Q237 749 255 749 L397 749 Q429 749 449.5 729 Q470 709 470 679 Q470 675 469.5 671.5 Q469 668 469 665 L446 517 L346 517 Z " />
<glyph glyph-name="braceleft" unicode="&#x7b;" horiz-adv-x="264" d="M232 -114 L157 -114 Q125 -114 103 -93.5 Q81 -73 81 -42 Q81 -34 82 -29 L130 269 Q130 283 121.5 293 Q113 303 99 303 L76 303 L89 383 L113 383 Q126 383 138.5 393.5 Q151 404 153 420 L196 691 Q199 709 208 724.5 Q217 740 230.5 751 Q244 762 261.5 768.5 Q279 775 297 775 L373 775 L360 695 L332 695 Q316 695 304 684 Q292 673 290 657 L253 420 Q250 402 232.5 380.5 Q215 359 189 342 Q229 299 229 263 L188 3 Q188 -11 195 -21.5 Q202 -32 217 -32 L244 -32 L232 -114 Z " />
<glyph glyph-name="braceright" unicode="&#x7d;" horiz-adv-x="249" d="M38 -33 Q52 -33 64.5 -22.5 Q77 -12 79 2 L120 262 Q122 279 139 300 Q156 321 182 341 Q162 360 153 379.5 Q144 399 144 419 L181 656 Q181 672 176 683 Q171 694 154 694 L126 694 L139 774 L215 774 Q247 774 267.5 754 Q288 734 288 703 Q288 699 287.5 696.5 Q287 694 287 690 L244 419 Q244 402 251 392 Q258 382 273 382 L298 382 L286 302 L262 302 Q249 302 237 292 Q225 282 220 268 L173 -30 Q170 -48 160.5 -63.5 Q151 -79 137.5 -90.5 Q124 -102 107.5 -108.5 Q91 -115 73 -115 L-1 -115 L11 -33 L38 -33 Z " />
<glyph glyph-name="bar" unicode="&#x7c;" horiz-adv-x="216" d="M176 776 L275 776 L113 -246 L14 -246 L176 776 Z " />
<glyph glyph-name="Euro" unicode="&#x20ac;" horiz-adv-x="407" d="M204 265 L181 117 Q181 102 185 91 Q189 80 203 80 L252 80 Q266 80 278.5 91.5 Q291 103 293 117 L299 160 L399 160 L387 84 Q384 67 375 51.5 Q366 36 352.5 24.5 Q339 13 322.5 6.5 Q306 0 290 0 L148 0 Q116 0 95 20.5 Q74 41 74 71 Q74 79 75 84 L104 265 L47 265 L56 322 L113 322 L129 425 L72 425 L81 482 L138 482 L167 665 Q172 700 200 724.5 Q228 749 265 749 L407 749 Q439 749 459.5 729 Q480 709 480 679 Q480 675 479.5 671.5 Q479 668 479 665 L462 561 L362 561 L374 632 Q374 644 370 656 Q366 668 350 668 L298 668 Q281 668 272.5 656 Q264 644 262 632 L238 482 L319 482 L310 425 L229 425 L213 322 L294 322 L285 265 L204 265 Z " />
<glyph glyph-name="yen" unicode="&#xa5;" horiz-adv-x="387" d="M394 292 L302 292 L279 233 L276 215 L382 215 L367 117 L261 117 L243 0 L143 0 L161 117 L57 117 L72 215 L176 215 L179 233 L174 292 L84 292 L100 391 L166 391 L137 749 L236 749 L256 505 L246 391 L262 391 L288 505 L384 749 L483 749 L341 391 L410 391 L394 292 Z " />
<glyph glyph-name="section" unicode="&#xa7;" horiz-adv-x="389" d="M104 332 Q105 342 112.5 355.5 Q120 369 131 382.5 Q142 396 157 407.5 Q172 419 190 427 Q154 443 142 462 Q130 481 130 496 Q130 498 130.5 500 Q131 502 131 504 L157 665 Q163 701 191.5 725 Q220 749 255 749 L396 749 Q428 749 449 729.5 Q470 710 470 679 Q470 675 469.5 671.5 Q469 668 469 665 L452 555 L353 555 L365 633 Q365 645 359 657.5 Q353 670 328 670 L291 670 Q277 670 265 658 Q253 646 251 632 Q246 597 242.5 578 Q239 559 237.5 550 Q236 541 235.5 539 Q235 537 235 536 Q235 515 249.5 499.5 Q264 484 285 471 Q306 458 330.5 445.5 Q355 433 375 419.5 Q395 406 407.5 390 Q420 374 417 352 L392 175 Q390 165 384 151.5 Q378 138 367 124 Q356 110 340.5 98 Q325 86 306 79 Q326 70 337.5 59.5 Q349 49 354.5 39 Q360 29 361.5 19.5 Q363 10 363 3 L338 -147 Q332 -183 305 -207 Q278 -231 240 -231 L99 -231 Q67 -231 46.5 -210.5 Q26 -190 26 -158 Q26 -155 26.5 -152.5 Q27 -150 27 -147 L45 -37 L145 -37 L132 -116 Q131 -119 131 -124 Q131 -135 139 -143.5 Q147 -152 170 -152 L205 -152 Q219 -152 232.5 -140 Q246 -128 248 -114 Q252 -84 254.5 -68 Q257 -52 258 -43.5 Q259 -35 259 -33 Q259 -31 259 -30 Q259 -10 245.5 4.5 Q232 19 212 31.5 Q192 44 168 55 Q144 66 124 79.5 Q104 93 90.5 110 Q77 127 77 151 Q77 159 78 164 L104 332 Z M184 205 Q184 198 186.5 186 Q189 174 196.5 162 Q204 150 216.5 141 Q229 132 250 132 Q266 132 277.5 143 Q289 154 291 168 L313 303 Q313 310 309.5 322 Q306 334 297.5 345.5 Q289 357 276 365.5 Q263 374 244 374 Q230 374 218 363.5 Q206 353 204 338 L184 205 Z " />
<glyph glyph-name="dagger" unicode="&#x2020;" horiz-adv-x="216" d="M73 399 L115 399 L176 774 L275 774 L214 399 L256 399 L242 302 L200 302 L115 -231 L16 -231 L101 302 L59 302 L73 399 Z " />
<glyph glyph-name="daggerdbl" unicode="&#x2021;" horiz-adv-x="216" d="M82 456 L124 456 L176 774 L275 774 L223 456 L265 456 L250 357 L208 357 L187 228 L229 228 L214 129 L172 129 L115 -231 L16 -231 L73 129 L31 129 L46 228 L88 228 L109 357 L67 357 L82 456 Z " />
<glyph glyph-name="AE" unicode="&#xc6;" horiz-adv-x="591" d="M176 156 L117 0 L5 0 L301 749 L676 749 L660 650 L446 650 L410 416 L593 416 L577 317 L394 317 L360 99 L574 99 L559 0 L246 0 L270 156 L176 156 Z M207 237 L283 237 L318 461 L369 650 L356 650 L292 461 L207 237 Z " />
<glyph glyph-name="germandbls" unicode="&#xdf;" horiz-adv-x="389" d="M225 83 L244 83 Q259 83 271 94 Q283 105 285 119 L323 352 Q323 367 315.5 378 Q308 389 291 389 L274 389 L288 472 L305 472 Q321 472 333 483 Q345 494 347 510 L369 655 Q369 668 365 680 Q361 692 344 692 L260 692 L152 0 L52 0 L160 690 Q162 705 171 720 Q180 735 193.5 747 Q207 759 224.5 766.5 Q242 774 260 774 L404 774 Q436 774 457 753.5 Q478 733 478 702 Q478 698 477.5 695.5 Q477 693 477 689 L449 512 Q444 485 427.5 464 Q411 443 386 432 Q411 418 417.5 397 Q424 376 424 352 L381 85 Q375 49 346.5 24.5 Q318 0 282 0 L213 0 L225 83 Z " />
<glyph glyph-name="longs" unicode="&#x17f;" horiz-adv-x="345" d="M223 676 Q230 721 257.5 747.5 Q285 774 327 774 L455 774 L438 674 L322 674 L217 0 L117 0 L185 437 L122 437 L138 538 L201 538 L223 676 Z " />
<glyph glyph-name="cent" unicode="&#xa2;" horiz-adv-x="389" d="M138 -119 L158 0 L137 0 Q105 0 84 20.5 Q63 41 63 72 Q63 79 64 84 L121 447 Q124 465 133 480.5 Q142 496 155.5 507 Q169 518 186 524.5 Q203 531 220 531 L241 531 L259 649 L358 649 L340 531 L362 531 Q394 531 414.5 511.5 Q435 492 435 462 Q435 457 434.5 454 Q434 451 434 447 L425 385 L326 385 L330 414 Q330 424 324 434.5 Q318 445 307 449 L246 449 Q233 446 225 435 Q217 424 216 414 L170 117 Q170 103 174.5 92.5 Q179 82 192 80 L245 80 Q258 82 270 92.5 Q282 103 284 117 L287 143 L386 143 L377 84 Q374 67 364.5 51.5 Q355 36 341.5 24.5 Q328 13 311.5 6.5 Q295 0 279 0 L257 0 L237 -119 L138 -119 Z " />
<glyph glyph-name="space" unicode="&#x20;" horiz-adv-x="233" d="" />
<glyph glyph-name="acute" unicode="&#xb4;" horiz-adv-x="203" d="M214 774 L308 774 L241 675 L154 675 L214 774 Z " />
<glyph glyph-name="breve" unicode="&#x2d8;" horiz-adv-x="389" d="M487 774 L481 744 Q478 726 469 710.5 Q460 695 446.5 683.5 Q433 672 416.5 665.5 Q400 659 382 659 L240 659 Q208 659 187 680 Q166 701 167 733 Q167 736 168 742 Q169 748 174 774 L273 774 Q273 759 280 749 Q287 739 300 739 L337 739 Q357 739 370 749.5 Q383 760 388 774 L487 774 Z " />
<glyph glyph-name="cyrbreve" unicode="&#xf6d4;" horiz-adv-x="417" d="M144 660 L149 690 Q152 708 161 723.5 Q170 739 184 750.5 Q198 762 214.5 768.5 Q231 775 249 775 L391 775 Q423 775 444 754 Q465 733 463 701 Q463 698 462 691.5 Q461 685 457 660 L358 660 Q357 675 350 685 Q343 695 330 695 L293 695 Q273 695 260.5 684.5 Q248 674 243 660 L144 660 Z " />
<glyph glyph-name="caron" unicode="&#x2c7;" horiz-adv-x="290" d="M120 775 L217 775 L253 705 L310 775 L410 775 L289 627 L192 627 L120 775 Z " />
<glyph glyph-name="cedilla" unicode="&#xb8;" horiz-adv-x="355" d="M43 -138 Q85 -137 102 -118 Q119 -99 120 -72 Q121 -43 104 0 L133 0 Q153 -20 165.5 -53 Q178 -86 176 -116 Q176 -136 169 -154.5 Q162 -173 147.5 -187 Q133 -201 111 -209.5 Q89 -218 58 -218 Q47 -218 34 -217 Q21 -216 4 -212 L43 -138 Z " />
<glyph glyph-name="circumflex" unicode="&#x2c6;" horiz-adv-x="290" d="M216 774 L313 774 L386 626 L288 626 L253 696 L196 626 L96 626 L216 774 Z " />
<glyph glyph-name="dieresis" unicode="&#xa8;" horiz-adv-x="406" d="M153 708 Q154 734 174.5 754.5 Q195 775 223 775 Q246 775 260 761 Q274 747 273 725 Q272 697 251.5 677 Q231 657 203 657 Q180 657 166 671.5 Q152 686 153 708 Z M361 708 Q362 734 383 754.5 Q404 775 432 775 Q454 775 468.5 761 Q483 747 482 725 Q482 711 475.5 698.5 Q469 686 459.5 677 Q450 668 437.5 662.5 Q425 657 412 657 Q389 657 374.5 671.5 Q360 686 361 708 Z " />
<glyph glyph-name="dotaccent" unicode="&#x2d9;" horiz-adv-x="203" d="M154 709 Q154 721 160 733 Q166 745 176 754.5 Q186 764 198.5 769.5 Q211 775 224 775 Q247 775 261 761 Q275 747 274 725 Q273 697 252.5 677 Q232 657 204 657 Q182 657 167.5 671.5 Q153 686 154 709 Z " />
<glyph glyph-name="hungarumlaut" unicode="&#x2dd;" horiz-adv-x="439" d="M214 774 L308 774 L241 675 L154 675 L214 774 Z M418 774 L512 774 L445 675 L358 675 L418 774 Z " />
<glyph glyph-name="grave" unicode="&#x60;" horiz-adv-x="203" d="M250 676 L164 676 L129 775 L224 775 L250 676 Z " />
<glyph glyph-name="ogonek" unicode="&#x2db;" horiz-adv-x="355" d="M180 -209 Q166 -215 152 -216.5 Q138 -218 126 -218 Q75 -218 53.5 -196 Q32 -174 34 -142 Q34 -126 41.5 -106.5 Q49 -87 61 -67.5 Q73 -48 88.5 -30 Q104 -12 121 0 L150 0 Q130 -27 118.5 -50 Q107 -73 106 -90 Q105 -111 119 -124 Q133 -137 167 -138 L180 -209 L180 -209 Z " />
<glyph glyph-name="ring" unicode="&#x2da;" horiz-adv-x="389" d="M330 756 Q345 756 351.5 762 Q358 768 360 775 L361 790 Q361 798 358 804 Q355 810 347 810 L313 810 Q298 810 291 803.5 Q284 797 283 790 L282 777 Q282 769 284.5 762.5 Q287 756 296 756 L330 756 Z M260 700 Q237 700 227 715.5 Q217 731 217 751 L227 815 Q230 835 248.5 850.5 Q267 866 287 866 L383 866 Q406 866 416.5 850.5 Q427 835 427 815 L417 751 Q415 741 409 731.5 Q403 722 394 715 Q385 708 375 704 Q365 700 356 700 L260 700 Z " />
<glyph glyph-name="tilde" unicode="&#x2dc;" horiz-adv-x="353" d="M252 773 Q269 773 283.5 766.5 Q298 760 311.5 752.5 Q325 745 339.5 738.5 Q354 732 372 732 Q384 732 398.5 741 Q413 750 427 773 L501 773 Q486 709 453.5 674.5 Q421 640 379 640 Q363 640 347 646.5 Q331 653 315.5 661 Q300 669 285.5 675.5 Q271 682 258 682 Q245 682 233 673 Q221 664 207 640 L132 640 Q147 702 180 737.5 Q213 773 252 773 Z " />
<glyph glyph-name="Acute" unicode="&#xf6c9;" horiz-adv-x="203" d="M237 921 L331 921 L264 822 L177 822 L237 921 Z " />
<glyph glyph-name="cyrBreve" unicode="&#xf6d1;" horiz-adv-x="417" d="M167 807 L172 837 Q175 855 184 870.5 Q193 886 207 897.5 Q221 909 237.5 915.5 Q254 922 272 922 L414 922 Q446 922 467 901 Q488 880 486 848 Q486 845 485 838.5 Q484 832 480 807 L381 807 Q380 822 373 832 Q366 842 353 842 L316 842 Q296 842 283.5 831.5 Q271 821 266 807 L167 807 Z " />
<glyph glyph-name="Caron" unicode="&#xf6ca;" horiz-adv-x="290" d="M143 922 L240 922 L276 852 L333 922 L433 922 L312 774 L215 774 L143 922 Z " />
<glyph glyph-name="Hungarumlaut" unicode="&#xf6cf;" horiz-adv-x="439" d="M236 920 L330 920 L263 821 L176 821 L236 920 Z M441 921 L535 921 L468 822 L381 822 L441 921 Z " />
<glyph glyph-name="Grave" unicode="&#xf6ce;" horiz-adv-x="203" d="M272 822 L186 822 L151 921 L246 921 L272 822 Z " />
<glyph glyph-name="OE" unicode="&#x152;" horiz-adv-x="603" d="M135 0 Q104 0 82.5 21 Q61 42 61 72 Q61 74 61 77.5 Q61 81 62 84 L154 665 Q157 682 166 697.5 Q175 713 188 724.5 Q201 736 217.5 742.5 Q234 749 252 749 L693 749 L677 650 L463 650 L427 416 L610 416 L594 317 L411 317 L377 99 L591 99 L576 0 L135 0 Z M289 670 Q275 670 263 658 Q251 646 249 632 L168 117 Q168 103 174.5 91.5 Q181 80 195 80 L239 80 Q253 80 265.5 91.5 Q278 103 280 117 L361 633 Q361 645 355.5 657.5 Q350 670 325 670 L289 670 Z " />
<glyph glyph-name="questiondown" unicode="&#xbf;" horiz-adv-x="409" d="M211 207 Q215 215 218 223.5 Q221 232 222 238 L236 328 L335 328 L322 246 Q321 241 319 232 Q317 223 312 216 Q265 137 237 90 Q209 43 194 16 Q179 -11 173 -23.5 Q167 -36 166 -45 L158 -93 Q158 -107 165 -119 Q172 -131 188 -131 L223 -131 Q250 -131 260 -119 Q270 -107 272 -94 L284 -16 L384 -16 L367 -126 Q364 -143 355 -158.5 Q346 -174 333 -185.5 Q320 -197 303.5 -203.5 Q287 -210 269 -210 L128 -210 Q96 -210 75 -189.5 Q54 -169 54 -139 Q54 -136 54.5 -132.5 Q55 -129 55 -126 L68 -46 Q69 -39 76 -26.5 Q83 -14 99 13 Q115 40 142 86.5 Q169 133 211 207 Z M249 472 Q250 498 270.5 519 Q291 540 319 540 Q342 540 355.5 527 Q369 514 369 493 Q369 465 348.5 443.5 Q328 422 299 422 Q275 422 262 436.5 Q249 451 249 472 Z " />
<glyph glyph-name="exclamdown" unicode="&#xa1;" horiz-adv-x="203" d="M209 333 L266 333 L198 -230 L100 -230 L209 333 Z M202 477 Q203 503 223.5 524 Q244 545 272 545 Q295 545 308.5 532 Q322 519 322 498 Q322 470 301.5 448.5 Q281 427 252 427 Q228 427 215 441.5 Q202 456 202 477 Z " />
<glyph glyph-name="endash" unicode="&#x2013;" horiz-adv-x="409" d="M114 399 L423 399 L409 302 L100 302 L114 399 Z " />
<glyph glyph-name="emdash" unicode="&#x2014;" horiz-adv-x="613" d="M112 399 L637 399 L623 302 L98 302 L112 399 Z " />
<glyph glyph-name="plusminus" unicode="&#xb1;" horiz-adv-x="398" d="M76 161 L388 161 L374 64 L62 64 L76 161 Z M341 530 L323 422 L430 422 L415 323 L308 323 L291 214 L192 214 L209 323 L102 323 L117 422 L224 422 L242 530 L341 530 Z " />
<glyph glyph-name="exclamdbl" unicode="&#x203c;" horiz-adv-x="409" d="M165 211 L108 211 L176 774 L274 774 L165 211 Z M172 67 Q171 41 150.5 20 Q130 -1 102 -1 Q79 -1 65.5 12 Q52 25 52 46 Q52 74 72.5 95.5 Q93 117 122 117 Q146 117 159 102.5 Q172 88 172 67 Z M370 211 L313 211 L381 774 L479 774 L370 211 Z M377 67 Q376 41 355.5 20 Q335 -1 307 -1 Q284 -1 270.5 12 Q257 25 257 46 Q257 74 277.5 95.5 Q298 117 327 117 Q351 117 364 102.5 Q377 88 377 67 Z " />
<glyph glyph-name="underscore" unicode="&#x5f;" horiz-adv-x="409" d="M55 17 L364 17 L350 -80 L41 -80 L55 17 Z " />
<glyph glyph-name="quotedblright" unicode="&#x201d;" horiz-adv-x="406" d="M378 774 L477 774 L459 674 Q453 640 447.5 615.5 Q442 591 430 575.5 Q418 560 397.5 552.5 Q377 545 341 545 L348 592 Q368 592 380 596.5 Q392 601 399 611 Q406 621 409.5 637 Q413 653 417 676 L362 676 L378 774 Z M161 676 L177 774 L276 774 L258 674 Q252 640 246.5 615.5 Q241 591 229 575.5 Q217 560 196.5 552.5 Q176 545 140 545 L147 592 Q167 592 179 596.5 Q191 601 198 611 Q205 621 208.5 637 Q212 653 216 676 L161 676 Z " />
<glyph glyph-name="quoteright" unicode="&#x2019;" horiz-adv-x="189" d="M144 774 L243 774 L227 683 Q221 647 215.5 620.5 Q210 594 198.5 577.5 Q187 561 165.5 553 Q144 545 107 545 L114 592 Q134 592 146 596.5 Q158 601 165 611 Q172 621 175.5 637 Q179 653 183 676 L128 676 L144 774 Z " />
<glyph glyph-name="quoteleft" unicode="&#x2018;" horiz-adv-x="194" d="M238 545 L139 545 L154 636 Q160 672 165.5 698.5 Q171 725 183 741.5 Q195 758 216.5 766 Q238 774 275 774 L267 727 Q247 727 235 722.5 Q223 718 216 708.5 Q209 699 205.5 683 Q202 667 199 644 L254 644 L238 545 Z " />
<glyph glyph-name="quotedblleft" unicode="&#x201c;" horiz-adv-x="406" d="M441 549 L342 549 L356 640 Q362 676 367.5 702.5 Q373 729 385 745.5 Q397 762 418.5 770 Q440 778 477 778 L469 731 Q449 731 437 726.5 Q425 722 418.5 712.5 Q412 703 408.5 687 Q405 671 401 648 L456 648 L441 549 Z M240 548 L141 548 L155 639 Q161 675 166.5 701.5 Q172 728 184 744.5 Q196 761 217.5 769 Q239 777 276 777 L268 730 Q248 730 236 725.5 Q224 721 217 711.5 Q210 702 206.5 686 Q203 670 200 647 L255 647 L240 548 Z " />
<glyph glyph-name="brokenbar" unicode="&#xa6;" horiz-adv-x="216" d="M109 358 L176 775 L275 775 L208 358 L109 358 Z M15 -238 L81 179 L180 179 L114 -238 L15 -238 Z " />
<glyph glyph-name="fraction" unicode="&#x2044;" horiz-adv-x="435" d="M654 824 L103 1 L8 1 L556 824 L654 824 Z " />
<glyph glyph-name="percent" unicode="&#x25;" horiz-adv-x="681" d="M727 775 L209 0 L113 0 L628 775 L727 775 Z M193 434 Q161 434 140 454.5 Q119 475 119 506 Q119 514 121 519 L148 690 Q151 707 160 722.5 Q169 738 182.5 749.5 Q196 761 213 767.5 Q230 774 247 774 L359 774 Q391 774 411.5 753.5 Q432 733 432 702 Q432 699 431.5 696 Q431 693 431 690 L404 519 Q401 501 391 485.5 Q381 470 367.5 458.5 Q354 447 337.5 440.5 Q321 434 305 434 L193 434 Z M278 694 Q262 694 250.5 683 Q239 672 237 656 L221 551 Q221 538 228 526.5 Q235 515 249 515 L273 515 Q284 515 298 526 Q312 537 314 552 L330 658 Q330 672 325 683 Q320 694 294 694 L278 694 Z M477 -1 Q445 -1 424.5 19.5 Q404 40 404 71 Q404 79 405 84 L432 255 Q435 272 444 287.5 Q453 303 466.5 314.5 Q480 326 496.5 332.5 Q513 339 531 339 L642 339 Q680 339 697.5 314.5 Q715 290 715 255 L688 84 Q685 66 675 50.5 Q665 35 651.5 23.5 Q638 12 621 5.5 Q604 -1 588 -1 L477 -1 Z M562 259 Q545 259 534.5 247.5 Q524 236 522 221 L506 116 Q506 114 505.5 113 Q505 112 505 110 Q505 98 512.5 88.5 Q520 79 533 79 L557 79 Q571 79 583.5 87 Q596 95 599 117 L615 223 Q615 225 615.5 227 Q616 229 616 231 Q616 242 608 250.5 Q600 259 578 259 L562 259 Z " />
<glyph glyph-name="perthousand" unicode="&#x2030;" horiz-adv-x="1063" d="M195 434 Q167 434 144.5 455 Q122 476 122 508 Q122 515 123 519 L150 690 Q153 707 162 722.5 Q171 738 184.5 749.5 Q198 761 215 767.5 Q232 774 249 774 L361 774 Q393 774 413.5 753.5 Q434 733 434 702 Q434 699 433.5 696 Q433 693 433 690 L406 519 Q403 501 393 485.5 Q383 470 369 458.5 Q355 447 339 440.5 Q323 434 307 434 L195 434 Z M280 694 Q264 694 252.5 683 Q241 672 239 656 L223 551 Q223 549 222.5 548 Q222 547 222 545 Q222 534 229.5 524.5 Q237 515 251 515 L275 515 Q287 515 300.5 526 Q314 537 316 552 L332 658 Q332 672 327 683 Q322 694 296 694 L280 694 Z M478 -1 Q446 -1 426 19.5 Q406 40 406 71 Q406 79 407 84 L434 255 Q437 272 446 287.5 Q455 303 468 314.5 Q481 326 497.5 332.5 Q514 339 532 339 L644 339 Q682 339 699.5 314.5 Q717 290 717 255 L690 84 Q687 66 677 50.5 Q667 35 653 23.5 Q639 12 622.5 5.5 Q606 -1 590 -1 L478 -1 Z M563 259 Q548 259 537 247.5 Q526 236 524 221 L508 116 Q508 102 514 90.5 Q520 79 534 79 L559 79 Q571 79 585 90.5 Q599 102 601 117 L617 223 Q617 235 611.5 247 Q606 259 580 259 L563 259 Z M807 -1 Q776 -1 756 19.5 Q736 40 736 71 Q736 73 736 76.5 Q736 80 737 84 L764 255 Q767 272 775.5 287.5 Q784 303 797.5 314.5 Q811 326 827 332.5 Q843 339 861 339 L974 339 Q1012 339 1029 314.5 Q1046 290 1046 255 L1019 84 Q1016 66 1006 50.5 Q996 35 982.5 23.5 Q969 12 952.5 5.5 Q936 -1 920 -1 L807 -1 Z M893 259 Q878 259 866.5 247.5 Q855 236 853 221 L837 116 Q837 103 843.5 91 Q850 79 864 79 L889 79 Q900 79 914.5 90.5 Q929 102 931 117 L947 223 Q947 236 941 247.5 Q935 259 910 259 L893 259 Z M730 775 L212 0 L116 0 L631 775 L730 775 Z " />
<glyph glyph-name="Dieresis" unicode="&#xf6cb;" horiz-adv-x="406" d="M174 851 Q175 877 195.5 897.5 Q216 918 244 918 Q267 918 281 904 Q295 890 294 868 Q293 840 272.5 820 Q252 800 224 800 Q201 800 187 814.5 Q173 829 174 851 Z M382 851 Q383 877 404 897.5 Q425 918 453 918 Q475 918 489.5 904 Q504 890 503 868 Q503 854 496.5 841.5 Q490 829 480.5 820 Q471 811 458.5 805.5 Q446 800 433 800 Q410 800 395.5 814.5 Q381 829 382 851 Z " />
<glyph glyph-name="commaaccent" unicode="&#xf6c3;" horiz-adv-x="203" d="M176 775 L191 874 L290 874 L276 783 Q270 747 264.5 720.5 Q259 694 247 677.5 Q235 661 213.5 653 Q192 645 155 645 L163 692 Q183 692 195 696.5 Q207 701 214 711 Q221 721 224.5 736.5 Q228 752 231 775 L176 775 Z " />
<glyph glyph-name="dieresisacute" unicode="&#xf6d7;" horiz-adv-x="436" d="M214 774 L308 774 L241 675 L154 675 L214 774 Z M403 774 L497 774 L430 675 L343 675 L403 774 Z " />
<glyph glyph-name="dieresisgrave" unicode="&#xf6d8;" horiz-adv-x="378" d="M250 729 L164 729 L129 828 L224 828 L250 729 Z M437 729 L351 729 L316 828 L411 828 L437 729 Z " />
<glyph glyph-name="DieresisAcute" unicode="&#xf6cc;" horiz-adv-x="436" d="M236 921 L330 921 L263 822 L176 822 L236 921 Z M425 921 L519 921 L452 822 L365 822 L425 921 Z " />
<glyph glyph-name="DieresisGrave" unicode="&#xf6cd;" horiz-adv-x="378" d="M273 823 L187 823 L152 922 L247 922 L273 823 Z M460 823 L374 823 L339 922 L434 922 L460 823 Z " />
<glyph glyph-name="macron" unicode="&#xaf;" horiz-adv-x="409" d="M180 774 L470 774 L456 690 L166 690 L180 774 Z " />
<glyph glyph-name="quotesinglbase" unicode="&#x201a;" horiz-adv-x="194" d="M54 0 L69 99 L168 99 L152 0 Q146 -33 141 -57 Q136 -81 124 -97.5 Q112 -114 91 -122 Q70 -130 33 -130 L40 -83 Q60 -83 72 -78.5 Q84 -74 90.5 -64.5 Q97 -55 101 -39 Q105 -23 109 0 L54 0 Z " />
<glyph glyph-name="quotedblbase" unicode="&#x201e;" horiz-adv-x="406" d="M70 98 L169 98 L153 7 Q147 -29 141.5 -55.5 Q136 -82 124.5 -98.5 Q113 -115 91.5 -123 Q70 -131 33 -131 L40 -84 Q60 -84 72 -79.5 Q84 -75 91 -65 Q98 -55 101.5 -39 Q105 -23 109 0 L54 0 L70 98 Z M271 98 L370 98 L354 7 Q348 -29 342.5 -55.5 Q337 -82 325.5 -98.5 Q314 -115 292.5 -123 Q271 -131 234 -131 L241 -84 Q261 -84 273 -79.5 Q285 -75 292 -65 Q299 -55 302.5 -39 Q306 -23 310 0 L255 0 L271 98 Z " />
<glyph glyph-name="multiply" unicode="&#xd7;" horiz-adv-x="398" d="M425 450 L336 373 L399 298 L318 228 L256 304 L166 227 L108 296 L196 372 L133 449 L215 517 L278 442 L366 519 L425 450 Z " />
<glyph glyph-name="divide" unicode="&#xf7;" horiz-adv-x="369" d="M64 211 L79 309 L391 309 L376 211 L64 211 Z M154 99 L253 99 L238 0 L139 0 L154 99 Z M221 524 L320 524 L304 425 L205 425 L221 524 Z " />
<glyph glyph-name="notequal" unicode="&#x2260;" horiz-adv-x="398" d="M122 456 L286 456 L338 550 L433 550 L382 456 L435 456 L420 357 L333 357 L265 228 L399 228 L384 129 L215 129 L155 17 L56 17 L115 129 L71 129 L86 228 L166 228 L234 357 L107 357 L122 456 Z " />
<glyph glyph-name="florin" unicode="&#x192;" horiz-adv-x="284" d="M161 676 Q168 721 195.5 747.5 Q223 774 265 774 L393 774 L376 674 L261 674 L240 539 L323 539 L307 438 L224 438 L134 -133 Q127 -178 99.5 -204.5 Q72 -231 30 -231 L-96 -231 L-79 -130 L34 -130 L161 676 Z " />
<glyph glyph-name="ae" unicode="&#xe6;" horiz-adv-x="607" d="M129 0 Q96 0 74.5 20.5 Q53 41 53 72 Q53 80 54 85 L112 455 Q115 473 124 488.5 Q133 504 147 515.5 Q161 527 178 533.5 Q195 540 213 540 L296 540 Q319 540 331 529 Q343 518 347 507 Q362 521 384 530.5 Q406 540 426 540 L573 540 Q606 540 627.5 519.5 Q649 499 649 468 Q649 464 648 460.5 Q647 457 647 455 L616 253 L399 253 L378 116 Q378 102 384 93 Q390 84 401 83 L452 83 Q466 83 478.5 94 Q491 105 493 119 L497 145 L599 145 L589 85 Q583 49 555 24.5 Q527 0 489 0 L345 0 Q342 0 333.5 1 Q325 2 315 5 Q305 8 293.5 14.5 Q282 21 273 32 Q259 18 245 9 Q231 0 221 0 L129 0 Z M162 118 Q162 106 168.5 94.5 Q175 83 191 83 L231 83 Q242 83 257 90.5 Q272 98 276 119 L324 425 Q324 448 314.5 452 Q305 456 289 456 L244 456 Q227 456 219 444.5 Q211 433 209 421 L162 118 Z M411 332 L526 332 L540 421 Q540 432 535.5 444 Q531 456 514 456 L460 456 Q447 456 438.5 447 Q430 438 426 427 L411 332 Z " />
<glyph glyph-name="minus" unicode="&#x2212;" horiz-adv-x="398" d="M430 423 L415 324 L102 324 L117 423 L430 423 Z " />
<glyph glyph-name="bullet" unicode="&#x2022;" horiz-adv-x="203" d="M173 443 L230 374 L150 304 L92 373 L173 443 Z " />
<glyph glyph-name="greaterequal" unicode="&#x2265;" horiz-adv-x="419" d="M400 228 L385 129 L72 129 L87 228 L400 228 Z M153 650 L451 549 L434 443 L106 345 L121 441 L269 485 L341 492 L342 500 L273 507 L138 553 L153 650 Z " />
<glyph glyph-name="lessequal" unicode="&#x2264;" horiz-adv-x="419" d="M400 228 L385 129 L72 129 L87 228 L400 228 Z M420 344 L122 444 L139 551 L467 649 L452 553 L303 509 L233 501 L232 492 L299 486 L435 440 L420 344 Z " />
<glyph glyph-name="approxequal" unicode="&#x2248;" horiz-adv-x="398" d="M314 344 Q300 344 288 349.5 Q276 355 264.5 361 Q253 367 241 372.5 Q229 378 217 378 Q206 378 193.5 370.5 Q181 363 172 351 L110 367 Q131 411 162.5 441.5 Q194 472 228 472 Q241 472 253 466.5 Q265 461 276.5 455 Q288 449 299.5 443.5 Q311 438 325 438 Q336 438 349.5 445 Q363 452 372 464 L430 447 Q410 403 379 373.5 Q348 344 314 344 Z M278 116 Q264 116 252 121.5 Q240 127 228 133 Q216 139 204.5 144.5 Q193 150 181 150 Q170 150 157.5 142.5 Q145 135 136 123 L74 139 Q95 183 126.5 213.5 Q158 244 192 244 Q205 244 217 238.5 Q229 233 240 227 Q251 221 263 215.5 Q275 210 289 210 Q300 210 313.5 217 Q327 224 336 236 L394 219 Q374 175 343 145.5 Q312 116 278 116 Z " />
<glyph glyph-name="logicalnot" unicode="&#xac;" horiz-adv-x="556" d="M576 531 L541 313 L443 313 L463 432 L120 432 L135 531 L576 531 Z " />
<glyph glyph-name="paragraph" unicode="&#xb6;" horiz-adv-x="396" d="M423 699 L342 699 L233 0 L184 0 L252 437 L205 437 Q174 437 153.5 457.5 Q133 478 133 509 Q133 512 133.5 515 Q134 518 135 522 L157 664 Q162 699 189.5 724 Q217 749 254 749 L531 749 L523 699 L473 699 L364 0 L314 0 L423 699 Z " />
<glyph glyph-name="mu" unicode="&#xb5;" horiz-adv-x="409" d="M115 -231 L14 -231 L136 540 L238 540 L172 119 Q172 105 175.5 94.5 Q179 84 196 84 L240 84 Q256 84 268.5 90.5 Q281 97 285 119 L351 540 L453 540 L369 0 L298 0 Q287 0 278.5 6 Q270 12 270 26 Q257 11 244.5 5.5 Q232 0 224 0 L153 0 L115 -231 Z " />
<glyph glyph-name="thorn" unicode="&#xfe;" horiz-adv-x="412" d="M333 422 Q333 436 329.5 447 Q326 458 309 458 L263 458 Q249 458 236.5 454 Q224 450 220 427 L172 119 Q172 98 179.5 90.5 Q187 83 204 83 L244 83 Q256 83 270 94.5 Q284 106 286 118 L333 422 Z M114 -231 L14 -231 L174 774 L274 774 L233 518 Q244 530 256 536 Q268 542 276 542 L367 542 Q399 542 420 521.5 Q441 501 441 469 Q441 465 440.5 462.5 Q440 460 439 456 L381 85 Q378 67 368.5 51.5 Q359 36 345.5 24.5 Q332 13 316 6.5 Q300 0 283 0 L192 0 Q184 0 173.5 5 Q163 10 154 24 L114 -231 Z " />
<glyph glyph-name="radical" unicode="&#x221a;" horiz-adv-x="509" d="M302 540 L314 338 L296 141 L313 141 L356 338 L510 749 L616 749 L332 0 L236 0 L205 443 L108 443 L123 540 L302 540 Z " />
<glyph glyph-name="integral" unicode="&#x222b;" horiz-adv-x="284" d="M161 678 Q168 723 195 748.5 Q222 774 264 774 L390 774 L374 676 L260 676 L132 -135 Q125 -179 98 -205 Q71 -231 30 -231 L-94 -231 L-78 -132 L33 -132 L161 678 L161 678 Z " />
<glyph glyph-name="Eng" unicode="&#x14a;" horiz-adv-x="426" d="M348 -147 Q345 -165 336 -180.5 Q327 -196 313.5 -207 Q300 -218 283.5 -224.5 Q267 -231 249 -231 L108 -231 Q75 -231 54 -210 Q33 -189 34 -156 Q34 -154 34.5 -151.5 Q35 -149 35 -147 L47 -75 L137 -75 L132 -113 Q130 -117 130 -119 Q130 -132 138 -141 Q146 -150 159 -150 L217 -150 Q232 -147 241 -135.5 Q250 -124 255.5 -108 Q261 -92 262.5 -73 Q264 -54 264 -37 Q264 -26 263.5 -17 Q263 -8 263 0 L214 477 L201 477 L200 280 L157 0 L58 0 L175 749 L286 749 L329 276 L344 276 L346 474 L389 749 L488 749 L348 -147 Z " />
<glyph glyph-name="eng" unicode="&#x14b;" horiz-adv-x="426" d="M216 -150 Q229 -148 241 -137.5 Q253 -127 255 -113 L338 421 Q338 432 333.5 444 Q329 456 313 456 L268 456 Q251 456 239.5 449.5 Q228 443 225 421 L160 0 L58 0 L142 540 L212 540 Q225 540 231.5 534 Q238 528 238 513 Q252 529 265 534.5 Q278 540 287 540 L372 540 Q406 540 426.5 519 Q447 498 447 466 Q447 463 446 460 Q445 457 445 455 L350 -147 Q347 -164 338 -179.5 Q329 -195 315.5 -206.5 Q302 -218 285.5 -225 Q269 -232 252 -232 L193 -232 L206 -150 L216 -150 Z " />
<glyph glyph-name="longs_t" unicode="&#xfb05;" horiz-adv-x="587" d="M220 675 Q227 720 254 746.5 Q281 773 322 773 L495 773 Q532 773 551.5 752.5 Q571 732 571 696 Q571 691 570.5 685.5 Q570 680 569 675 L548 540 L608 540 L592 439 L532 439 L482 116 Q482 105 487 94 Q492 83 511 83 L536 83 L524 0 L450 0 Q414 0 394.5 21 Q375 42 375 77 Q375 82 375.5 87 Q376 92 377 97 L431 437 L375 437 L391 540 L447 540 L468 673 L320 673 L215 0 L115 0 L183 438 L119 438 L135 540 L199 540 L220 675 Z " />
<glyph glyph-name="middot" unicode="&#xb7;" horiz-adv-x="203" d="M137 531 L236 531 L221 432 L122 432 L137 531 Z " />
<glyph glyph-name="s_t" unicode="&#xfb06;" horiz-adv-x="635" d="M536 540 L549 627 L650 627 L637 540 L697 540 L681 435 L621 435 L571 116 Q571 105 576 94 Q581 83 600 83 L625 83 L613 0 L539 0 Q501 0 482.5 21.5 Q464 43 464 80 L517 423 Q517 437 509 447.5 Q501 458 485 458 L248 458 Q232 458 223 449 Q214 440 209.5 428.5 Q205 417 204 406 Q203 395 203 391 Q203 368 216.5 352 Q230 336 250 323 Q270 310 294 298.5 Q318 287 338 272.5 Q358 258 371.5 237.5 Q385 217 385 187 Q385 179 383 148.5 Q381 118 370.5 85 Q360 52 336.5 26 Q313 0 271 0 L127 0 Q95 0 73.5 20 Q52 40 52 72 Q52 80 53 85 L64 152 L165 152 L160 118 Q160 106 166.5 94.5 Q173 83 189 83 L233 83 Q248 83 260 94 Q272 105 274 119 Q277 139 277.5 144.5 Q278 150 278 152 Q278 174 264.5 190 Q251 206 230 218 Q209 230 185.5 241 Q162 252 141 265.5 Q120 279 106.5 296.5 Q93 314 93 339 Q93 341 98.5 371 Q104 401 112 455 Q115 473 124 488.5 Q133 504 147 515.5 Q161 527 178 533.5 Q195 540 213 540 L536 540 Z " />
<glyph glyph-name="guilsinglleft" unicode="&#x2039;" horiz-adv-x="295" d="M122 439 L333 621 L310 478 L204 386 L203 381 L281 289 L258 146 L105 328 L122 439 Z " />
<glyph glyph-name="guilsinglright" unicode="&#x203a;" horiz-adv-x="295" d="M76 146 L99 289 L204 381 L205 386 L128 478 L151 621 L304 439 L287 328 L76 146 Z " />
<glyph glyph-name="guillemotleft" unicode="&#xab;" horiz-adv-x="488" d="M324 439 L535 621 L512 478 L406 386 L405 381 L483 289 L460 146 L307 328 L324 439 Z M122 439 L333 621 L310 478 L204 386 L203 381 L281 289 L258 146 L105 328 L122 439 Z " />
<glyph glyph-name="guillemotright" unicode="&#xbb;" horiz-adv-x="483" d="M76 146 L99 289 L204 381 L205 386 L128 478 L151 621 L304 439 L287 328 L76 146 Z M277 146 L300 289 L405 381 L406 386 L329 478 L352 621 L505 439 L488 328 L277 146 Z " />
<glyph glyph-name="zerosuperior" unicode="&#x2070;" horiz-adv-x="389" d="M180 279 Q148 279 127.5 299 Q107 319 107 349 Q107 359 108 364 L156 665 Q159 682 168 697.5 Q177 713 190.5 724.5 Q204 736 220.5 742.5 Q237 749 254 749 L396 749 Q428 749 449 728.5 Q470 708 470 678 Q470 675 469.5 671.5 Q469 668 469 665 L421 364 Q418 346 408.5 330.5 Q399 315 385.5 303.5 Q372 292 355.5 285.5 Q339 279 322 279 L180 279 Z M291 670 Q277 670 265 658 Q253 646 251 632 L213 396 Q213 383 220.5 371.5 Q228 360 242 360 L286 360 Q299 360 312 371 Q325 382 327 397 L365 633 Q365 645 359 657.5 Q353 670 328 670 L291 670 Z " />
<glyph glyph-name="onesuperior" unicode="&#xb9;" horiz-adv-x="264" d="M157 279 L202 563 L148 563 L164 666 Q178 675 190 687 Q201 698 211.5 713 Q222 728 230 749 L330 749 L256 279 L157 279 Z " />
<glyph glyph-name="twosuperior" unicode="&#xb2;" horiz-adv-x="409" d="M453 566 Q450 546 440.5 533.5 Q431 521 416 511 Q364 476 319 444 Q274 412 223 376 L424 376 L408 277 L96 277 L111 374 Q113 388 117.5 395 Q122 402 131 408 L334 552 Q345 560 355.5 581.5 Q366 603 366 632 Q366 652 359.5 661 Q353 670 336 670 L301 670 Q275 670 264.5 658 Q254 646 252 633 L241 563 L141 563 L157 665 Q160 682 169 697.5 Q178 713 191 724.5 Q204 736 220.5 742.5 Q237 749 255 749 L396 749 Q428 749 449 728.5 Q470 708 470 678 Q470 675 469.5 671.5 Q469 668 469 665 L453 566 Z " />
<glyph glyph-name="threesuperior" unicode="&#xb3;" horiz-adv-x="389" d="M285 358 Q299 358 312 369.5 Q325 381 327 396 L336 451 Q336 466 328.5 477.5 Q321 489 305 489 L260 489 L271 569 L316 569 Q330 569 344.5 579.5 Q359 590 361 605 L365 632 Q365 644 360 656 Q355 668 339 668 L287 668 Q274 668 264 657 Q254 646 250 632 L151 632 L156 665 Q161 700 188.5 724.5 Q216 749 254 749 L396 749 Q428 749 449 728.5 Q470 708 470 678 Q470 675 469.5 671.5 Q469 668 469 665 L460 606 Q456 580 439.5 559.5 Q423 539 397 528 Q415 517 426 503.5 Q437 490 437 468 Q437 463 436.5 458 Q436 453 435 448 L421 363 Q418 345 409 329.5 Q400 314 386.5 302.5 Q373 291 356.5 284.5 Q340 278 322 278 L180 278 Q148 278 127.5 298 Q107 318 107 348 Q107 358 108 363 L118 427 L218 427 L213 396 Q213 381 219.5 369.5 Q226 358 241 358 L285 358 Z " />
<glyph glyph-name="foursuperior" unicode="&#x2074;" horiz-adv-x="403" d="M142 464 L338 749 L480 749 L433 450 L484 450 L469 352 L418 352 L406 279 L307 279 L319 352 L125 352 L142 464 Z M242 450 L334 450 L352 566 L392 677 Q390 677 387 677.5 Q384 678 381 678 L326 578 L242 450 Z " />
<glyph glyph-name="fivesuperior" unicode="&#x2075;" horiz-adv-x="389" d="M370 583 Q402 583 423 563.5 Q444 544 444 513 Q444 509 443.5 505.5 Q443 502 443 499 L421 363 Q418 345 409 329.5 Q400 314 386.5 302.5 Q373 291 356.5 284.5 Q340 278 322 278 L180 278 Q148 278 127.5 298 Q107 318 107 348 Q107 358 108 363 L113 397 L212 397 Q212 380 221 369 Q230 358 241 358 L285 358 Q299 358 312 369.5 Q325 381 327 396 L339 467 Q339 502 308 502 L269 502 Q256 502 243 494 Q230 486 224 469 L125 469 L169 749 L482 749 L470 670 L291 670 Q277 670 265 658 Q253 646 251 632 L239 556 Q253 570 265.5 576.5 Q278 583 287 583 L370 583 Z " />
<glyph glyph-name="sixsuperior" unicode="&#x2076;" horiz-adv-x="389" d="M285 358 Q290 358 297 361 Q304 364 310 369.5 Q316 375 321 381.5 Q326 388 327 396 L335 446 Q335 462 328 471.5 Q321 481 305 481 L266 481 Q252 481 238 473.5 Q224 466 221 447 L213 395 Q213 381 220 369.5 Q227 358 241 358 L285 358 Z M367 563 Q399 563 420 542.5 Q441 522 441 491 Q441 487 440 483.5 Q439 480 439 478 L421 363 Q418 345 409 329.5 Q400 314 386.5 302.5 Q373 291 356.5 284.5 Q340 278 322 278 L180 278 Q148 278 127.5 298 Q107 318 107 348 Q107 358 108 363 L156 665 Q159 682 168 697.5 Q177 713 190.5 724.5 Q204 736 220.5 742.5 Q237 749 254 749 L396 749 Q428 749 449 728.5 Q470 708 470 678 Q470 675 469.5 671.5 Q469 668 469 665 L464 635 L365 635 Q364 648 356 659 Q348 670 328 670 L291 670 Q277 670 265 658 Q253 646 251 632 L235 537 Q249 551 262 557 Q275 563 284 563 L367 563 Z " />
<glyph glyph-name="sevensuperior" unicode="&#x2077;" horiz-adv-x="390" d="M169 749 L482 749 L462 619 Q461 614 458 606 Q455 598 451 593 L226 278 L100 278 L374 650 L153 650 L169 749 Z " />
<glyph glyph-name="eightsuperior" unicode="&#x2078;" horiz-adv-x="389" d="M180 278 Q148 278 127.5 298 Q107 318 107 348 Q107 358 108 363 L121 447 Q124 467 141 487 Q158 507 184 526 Q167 543 156.5 561 Q146 579 146 596 Q146 602 147 605 L156 665 Q159 682 168 697.5 Q177 713 190.5 724.5 Q204 736 220.5 742.5 Q237 749 254 749 L396 749 Q428 749 449 728.5 Q470 708 470 678 Q470 675 469.5 671.5 Q469 668 469 665 L460 605 Q457 585 440 565 Q423 545 397 526 Q417 507 425.5 487 Q434 467 434 447 L421 363 Q418 345 409 329.5 Q400 314 386.5 302.5 Q373 291 356.5 284.5 Q340 278 322 278 L180 278 Z M263 484 Q249 484 236 473 Q223 462 221 447 L213 396 Q213 394 212.5 392.5 Q212 391 212 389 Q212 376 219.5 367 Q227 358 241 358 L285 358 Q300 358 312.5 369.5 Q325 381 327 396 L335 447 Q335 461 327.5 472.5 Q320 484 303 484 L263 484 Z M287 668 Q271 668 262 656 Q253 644 251 632 L245 601 Q244 599 244 594 Q244 581 253 573 Q262 565 276 565 L316 565 Q332 565 344 575.5 Q356 586 359 601 L365 632 Q365 634 365.5 635.5 Q366 637 366 639 Q366 650 359.5 659 Q353 668 339 668 L287 668 Z " />
<glyph glyph-name="ninesuperior" unicode="&#x2079;" horiz-adv-x="409" d="M291 670 Q277 670 265 658.5 Q253 647 251 632 L243 583 Q243 570 250.5 558.5 Q258 547 272 547 L312 547 Q326 547 340 554.5 Q354 562 357 582 L365 633 Q365 635 365.5 637 Q366 639 366 641 Q366 654 357.5 662 Q349 670 335 670 L291 670 Z M210 466 Q178 466 157 486 Q136 506 136 537 Q136 541 136.5 543.5 Q137 546 138 550 L156 666 Q159 684 168 699.5 Q177 715 190.5 726 Q204 737 221 743.5 Q238 750 255 750 L397 750 Q429 750 449.5 730.5 Q470 711 470 681 Q470 676 469.5 673 Q469 670 469 666 L421 364 Q418 346 408.5 330.5 Q399 315 385.5 303.5 Q372 292 355.5 285.5 Q339 279 322 279 L180 279 Q148 279 127.5 299 Q107 319 107 349 Q107 359 108 364 L113 397 L213 397 Q214 383 221 370.5 Q228 358 250 358 L285 358 Q299 358 311.5 370 Q324 382 327 398 L343 492 Q329 478 316 472 Q303 466 295 466 L210 466 Z " />
<glyph glyph-name="parenleftsuperior" unicode="&#x207d;" horiz-adv-x="260" d="M240 168 L164 168 Q132 168 111 187.5 Q90 207 90 239 Q90 242 90.5 245.5 Q91 249 91 252 L162 693 Q165 711 174 726.5 Q183 742 196.5 753 Q210 764 226.5 770.5 Q243 777 261 777 L338 777 L325 697 L297 697 Q281 697 270 686 Q259 675 257 659 L197 284 Q197 272 204 260.5 Q211 249 226 249 L253 249 L240 168 Z " />
<glyph glyph-name="parenrightsuperior" unicode="&#x207e;" horiz-adv-x="262" d="M171 777 L247 777 Q285 777 302.5 752.5 Q320 728 320 693 L250 253 Q247 235 237.5 219.5 Q228 204 214.5 193 Q201 182 184.5 175.5 Q168 169 150 169 L73 169 L86 249 L115 249 Q128 249 140.5 260.5 Q153 272 155 286 L215 660 Q215 674 207 685 Q199 696 186 696 L158 696 L171 777 Z " />
<glyph glyph-name="zeroinferior" unicode="&#x2080;" horiz-adv-x="389" d="M139 11 Q107 11 86.5 31 Q66 51 66 81 Q66 91 67 96 L115 397 Q118 414 127 429.5 Q136 445 149.5 456.5 Q163 468 179.5 474.5 Q196 481 213 481 L355 481 Q387 481 408 460.5 Q429 440 429 410 Q429 407 428.5 403.5 Q428 400 428 397 L380 96 Q377 78 367.5 62.5 Q358 47 344.5 35.5 Q331 24 314.5 17.5 Q298 11 281 11 L139 11 Z M250 402 Q236 402 224 390 Q212 378 210 364 L172 128 Q172 115 179.5 103.5 Q187 92 201 92 L245 92 Q258 92 271 103 Q284 114 286 129 L324 365 Q324 377 318 389.5 Q312 402 287 402 L250 402 Z " />
<glyph glyph-name="oneinferior" unicode="&#x2081;" horiz-adv-x="264" d="M116 11 L161 295 L107 295 L123 398 Q137 407 149 419 Q160 430 170.5 445 Q181 460 189 481 L289 481 L215 11 L116 11 Z " />
<glyph glyph-name="twoinferior" unicode="&#x2082;" horiz-adv-x="409" d="M412 300 Q409 280 399.5 267.5 Q390 255 375 245 Q323 210 278 178 Q233 146 182 110 L383 110 L367 11 L55 11 L70 108 Q72 122 76.5 129 Q81 136 90 142 L293 286 Q304 294 314.5 315.5 Q325 337 325 366 Q325 386 318.5 395 Q312 404 295 404 L260 404 Q234 404 223.5 392 Q213 380 211 367 L200 297 L100 297 L116 399 Q119 416 128 431.5 Q137 447 150 458.5 Q163 470 179.5 476.5 Q196 483 214 483 L355 483 Q387 483 408 462.5 Q429 442 429 412 Q429 409 428.5 405.5 Q428 402 428 399 L412 300 Z " />
<glyph glyph-name="threeinferior" unicode="&#x2083;" horiz-adv-x="389" d="M244 91 Q258 91 271 102.5 Q284 114 286 129 L295 184 Q295 199 287.5 210.5 Q280 222 264 222 L219 222 L230 302 L275 302 Q289 302 303.5 312.5 Q318 323 320 338 L324 365 Q324 377 319 389 Q314 401 298 401 L246 401 Q233 401 223 390 Q213 379 209 365 L110 365 L115 398 Q120 433 147.5 457.5 Q175 482 213 482 L355 482 Q387 482 408 461.5 Q429 441 429 411 Q429 408 428.5 404.5 Q428 401 428 398 L419 339 Q415 313 398.5 292.5 Q382 272 356 261 Q374 250 385 236.5 Q396 223 396 201 Q396 196 395.5 191 Q395 186 394 181 L380 96 Q377 78 368 62.5 Q359 47 345.5 35.5 Q332 24 315.5 17.5 Q299 11 281 11 L139 11 Q107 11 86.5 31 Q66 51 66 81 Q66 91 67 96 L77 160 L177 160 L172 129 Q172 114 178.5 102.5 Q185 91 200 91 L244 91 Z " />
<glyph glyph-name="fiveinferior" unicode="&#x2085;" horiz-adv-x="389" d="M329 316 Q361 316 382 296.5 Q403 277 403 246 Q403 242 402.5 238.5 Q402 235 402 232 L380 96 Q377 78 368 62.5 Q359 47 345.5 35.5 Q332 24 315.5 17.5 Q299 11 281 11 L139 11 Q107 11 86.5 31 Q66 51 66 81 Q66 91 67 96 L72 130 L171 130 Q171 113 180 102 Q189 91 200 91 L244 91 Q258 91 271 102.5 Q284 114 286 129 L298 200 Q298 235 267 235 L228 235 Q215 235 202 227 Q189 219 183 202 L84 202 L128 482 L441 482 L429 403 L250 403 Q236 403 224 391 Q212 379 210 365 L198 289 Q212 303 224.5 309.5 Q237 316 246 316 L329 316 Z " />
<glyph glyph-name="fourinferior" unicode="&#x2084;" horiz-adv-x="421" d="M101 196 L297 481 L439 481 L392 182 L443 182 L428 84 L377 84 L365 11 L266 11 L278 84 L84 84 L101 196 Z M201 182 L293 182 L311 298 L351 409 Q349 409 346 409.5 Q343 410 340 410 L285 310 L201 182 Z " />
<glyph glyph-name="sixinferior" unicode="&#x2086;" horiz-adv-x="389" d="M244 91 Q249 91 256 94 Q263 97 269 102.5 Q275 108 280 114.5 Q285 121 286 129 L294 179 Q294 195 287 204.5 Q280 214 264 214 L225 214 Q211 214 197 206.5 Q183 199 180 180 L172 128 Q172 114 179 102.5 Q186 91 200 91 L244 91 Z M326 296 Q358 296 379 275.5 Q400 255 400 224 Q400 220 399 216.5 Q398 213 398 211 L380 96 Q377 78 368 62.5 Q359 47 345.5 35.5 Q332 24 315.5 17.5 Q299 11 281 11 L139 11 Q107 11 86.5 31 Q66 51 66 81 Q66 91 67 96 L115 398 Q118 415 127 430.5 Q136 446 149.5 457.5 Q163 469 179.5 475.5 Q196 482 213 482 L355 482 Q387 482 408 461.5 Q429 441 429 411 Q429 408 428.5 404.5 Q428 401 428 398 L423 368 L324 368 Q323 381 315 392 Q307 403 287 403 L250 403 Q236 403 224 391 Q212 379 210 365 L194 270 Q208 284 221 290 Q234 296 243 296 L326 296 Z " />
<glyph glyph-name="seveninferior" unicode="&#x2087;" horiz-adv-x="390" d="M128 482 L441 482 L421 352 Q420 347 417 339 Q414 331 410 326 L185 11 L59 11 L333 383 L112 383 L128 482 Z " />
<glyph glyph-name="eightinferior" unicode="&#x2088;" horiz-adv-x="389" d="M139 11 Q107 11 86.5 31 Q66 51 66 81 Q66 91 67 96 L80 180 Q83 200 100 220 Q117 240 143 259 Q126 276 115.5 294 Q105 312 105 329 Q105 335 106 338 L115 398 Q118 415 127 430.5 Q136 446 149.5 457.5 Q163 469 179.5 475.5 Q196 482 213 482 L355 482 Q387 482 408 461.5 Q429 441 429 411 Q429 408 428.5 404.5 Q428 401 428 398 L419 338 Q416 318 399 298 Q382 278 356 259 Q376 240 384.5 220 Q393 200 393 180 L380 96 Q377 78 368 62.5 Q359 47 345.5 35.5 Q332 24 315.5 17.5 Q299 11 281 11 L139 11 Z M222 217 Q208 217 195 206 Q182 195 180 180 L172 129 Q172 127 171.5 125.5 Q171 124 171 122 Q171 109 178.5 100 Q186 91 200 91 L244 91 Q259 91 271.5 102.5 Q284 114 286 129 L294 180 Q294 194 286.5 205.5 Q279 217 262 217 L222 217 Z M246 401 Q230 401 221 389 Q212 377 210 365 L204 334 Q203 332 203 327 Q203 314 212 306 Q221 298 235 298 L275 298 Q291 298 303 308.5 Q315 319 318 334 L324 365 Q324 367 324.5 368.5 Q325 370 325 372 Q325 383 318.5 392 Q312 401 298 401 L246 401 Z " />
<glyph glyph-name="nineinferior" unicode="&#x2089;" horiz-adv-x="409" d="M250 402 Q236 402 224 390.5 Q212 379 210 364 L202 315 Q202 302 209.5 290.5 Q217 279 231 279 L271 279 Q285 279 299 286.5 Q313 294 316 314 L324 365 Q324 367 324.5 369 Q325 371 325 373 Q325 386 316.5 394 Q308 402 294 402 L250 402 Z M169 198 Q137 198 116 218 Q95 238 95 269 Q95 273 95.5 275.5 Q96 278 97 282 L115 398 Q118 416 127 431.5 Q136 447 149.5 458 Q163 469 180 475.5 Q197 482 214 482 L356 482 Q388 482 408.5 462.5 Q429 443 429 413 Q429 408 428.5 405 Q428 402 428 398 L380 96 Q377 78 367.5 62.5 Q358 47 344.5 35.5 Q331 24 314.5 17.5 Q298 11 281 11 L139 11 Q107 11 86.5 31 Q66 51 66 81 Q66 91 67 96 L72 129 L172 129 Q173 115 180 102.5 Q187 90 209 90 L244 90 Q258 90 270.5 102 Q283 114 286 130 L302 224 Q288 210 275 204 Q262 198 254 198 L169 198 Z " />
<glyph glyph-name="parenleftinferior" unicode="&#x208d;" horiz-adv-x="260" d="M199 -100 L123 -100 Q91 -100 70 -80.5 Q49 -61 49 -29 Q49 -26 49.5 -22.5 Q50 -19 50 -16 L121 425 Q124 443 133 458.5 Q142 474 155.5 485 Q169 496 185.5 502.5 Q202 509 220 509 L297 509 L284 429 L256 429 Q240 429 229 418 Q218 407 216 391 L156 16 Q156 4 163 -7.5 Q170 -19 185 -19 L212 -19 L199 -100 Z " />
<glyph glyph-name="parenrightinferior" unicode="&#x208e;" horiz-adv-x="262" d="M130 509 L206 509 Q244 509 261.5 484.5 Q279 460 279 425 L209 -15 Q206 -33 196.5 -48.5 Q187 -64 173.5 -75 Q160 -86 143.5 -92.5 Q127 -99 109 -99 L32 -99 L45 -19 L74 -19 Q87 -19 99.5 -7.5 Q112 4 114 18 L174 392 Q174 406 166 417 Q158 428 145 428 L117 428 L130 509 Z " />
<glyph glyph-name="onethird" unicode="&#x2153;" horiz-adv-x="907" d="M157 279 L202 563 L148 563 L164 666 Q178 675 190 687 Q201 698 211.5 713 Q222 728 230 749 L330 749 L256 279 L157 279 Z M761 774 L203 -54 L109 -54 L663 774 L761 774 Z M725 91 Q739 91 752 102.5 Q765 114 767 129 L776 184 Q776 199 768.5 210.5 Q761 222 745 222 L700 222 L711 302 L756 302 Q770 302 784.5 312.5 Q799 323 801 338 L805 365 Q805 377 800 389 Q795 401 779 401 L727 401 Q714 401 704 390 Q694 379 690 365 L591 365 L596 398 Q601 433 628.5 457.5 Q656 482 694 482 L836 482 Q868 482 889 461.5 Q910 441 910 411 Q910 408 909.5 404.5 Q909 401 909 398 L900 339 Q896 313 879.5 292.5 Q863 272 837 261 Q855 250 866 236.5 Q877 223 877 201 Q877 196 876.5 191 Q876 186 875 181 L861 96 Q858 78 849 62.5 Q840 47 826.5 35.5 Q813 24 796.5 17.5 Q780 11 762 11 L620 11 Q588 11 567.5 31 Q547 51 547 81 Q547 91 548 96 L558 160 L658 160 L653 129 Q653 114 659.5 102.5 Q666 91 681 91 L725 91 Z " />
<glyph glyph-name="onehalf" unicode="&#xbd;" horiz-adv-x="889" d="M760 774 L202 -54 L108 -54 L662 774 L760 774 Z M157 279 L202 563 L148 563 L164 666 Q178 675 190 687 Q201 698 211.5 713 Q222 728 230 749 L330 749 L256 279 L157 279 Z M882 300 Q879 280 869.5 267.5 Q860 255 845 245 Q793 210 748 178 Q703 146 652 110 L853 110 L837 11 L525 11 L540 108 Q542 122 546.5 129 Q551 136 560 142 L763 286 Q774 294 784.5 315.5 Q795 337 795 366 Q795 386 788.5 395 Q782 404 765 404 L730 404 Q704 404 693.5 392 Q683 380 681 367 L670 297 L570 297 L586 399 Q589 416 598 431.5 Q607 447 620 458.5 Q633 470 649.5 476.5 Q666 483 684 483 L825 483 Q857 483 878 462.5 Q899 442 899 412 Q899 409 898.5 405.5 Q898 402 898 399 L882 300 Z " />
<glyph glyph-name="oneeighth" unicode="&#x215b;" horiz-adv-x="900" d="M157 279 L202 563 L148 563 L164 666 Q178 675 190 687 Q201 698 211.5 713 Q222 728 230 749 L330 749 L256 279 L157 279 Z M760 774 L202 -54 L108 -54 L662 774 L760 774 Z M610 11 Q578 11 557.5 31 Q537 51 537 81 Q537 91 538 96 L551 180 Q554 200 571 220 Q588 240 614 259 Q597 276 586.5 294 Q576 312 576 329 Q576 335 577 338 L586 398 Q589 415 598 430.5 Q607 446 620.5 457.5 Q634 469 650.5 475.5 Q667 482 684 482 L826 482 Q858 482 879 461.5 Q900 441 900 411 Q900 408 899.5 404.5 Q899 401 899 398 L890 338 Q887 318 870 298 Q853 278 827 259 Q847 240 855.5 220 Q864 200 864 180 L851 96 Q848 78 839 62.5 Q830 47 816.5 35.5 Q803 24 786.5 17.5 Q770 11 752 11 L610 11 Z M693 217 Q679 217 666 206 Q653 195 651 180 L643 129 Q643 127 642.5 125.5 Q642 124 642 122 Q642 109 649.5 100 Q657 91 671 91 L715 91 Q730 91 742.5 102.5 Q755 114 757 129 L765 180 Q765 194 757.5 205.5 Q750 217 733 217 L693 217 Z M717 401 Q701 401 692 389 Q683 377 681 365 L675 334 Q674 332 674 327 Q674 314 683 306 Q692 298 706 298 L746 298 Q762 298 774 308.5 Q786 319 789 334 L795 365 Q795 367 795.5 368.5 Q796 370 796 372 Q796 383 789.5 392 Q783 401 769 401 L717 401 Z " />
<glyph glyph-name="onequarter" unicode="&#xbc;" horiz-adv-x="851" d="M761 774 L203 -54 L109 -54 L663 774 L761 774 Z M157 279 L202 563 L148 563 L164 666 Q178 675 190 687 Q201 698 211.5 713 Q222 728 230 749 L330 749 L256 279 L157 279 Z M487 196 L683 481 L825 481 L778 182 L829 182 L814 84 L763 84 L751 11 L652 11 L664 84 L470 84 L487 196 Z M587 182 L679 182 L697 298 L737 409 Q735 409 732 409.5 Q729 410 726 410 L671 310 L587 182 Z " />
<glyph glyph-name="twothirds" unicode="&#x2154;" horiz-adv-x="1035" d="M907 774 L349 -54 L255 -54 L809 774 L907 774 Z M453 566 Q450 546 440.5 533.5 Q431 521 416 511 Q364 476 319 444 Q274 412 223 376 L424 376 L408 277 L96 277 L111 374 Q113 388 117.5 395 Q122 402 131 408 L334 552 Q345 560 355.5 581.5 Q366 603 366 632 Q366 652 359.5 661 Q353 670 336 670 L301 670 Q275 670 264.5 658 Q254 646 252 633 L241 563 L141 563 L157 665 Q160 682 169 697.5 Q178 713 191 724.5 Q204 736 220.5 742.5 Q237 749 255 749 L396 749 Q428 749 449 728.5 Q470 708 470 678 Q470 675 469.5 671.5 Q469 668 469 665 L453 566 Z M870 91 Q884 91 897 102.5 Q910 114 912 129 L921 184 Q921 199 913.5 210.5 Q906 222 890 222 L845 222 L856 302 L901 302 Q915 302 929.5 312.5 Q944 323 946 338 L950 365 Q950 377 945 389 Q940 401 924 401 L872 401 Q859 401 849 390 Q839 379 835 365 L736 365 L741 398 Q746 433 773.5 457.5 Q801 482 839 482 L981 482 Q1013 482 1034 461.5 Q1055 441 1055 411 Q1055 408 1054.5 404.5 Q1054 401 1054 398 L1045 339 Q1041 313 1024.5 292.5 Q1008 272 982 261 Q1000 250 1011 236.5 Q1022 223 1022 201 Q1022 196 1021.5 191 Q1021 186 1020 181 L1006 96 Q1003 78 994 62.5 Q985 47 971.5 35.5 Q958 24 941.5 17.5 Q925 11 907 11 L765 11 Q733 11 712.5 31 Q692 51 692 81 Q692 91 693 96 L703 160 L803 160 L798 129 Q798 114 804.5 102.5 Q811 91 826 91 L870 91 Z " />
<glyph glyph-name="threequarters" unicode="&#xbe;" horiz-adv-x="992" d="M908 774 L350 -54 L256 -54 L810 774 L908 774 Z M285 358 Q299 358 312 369.5 Q325 381 327 396 L336 451 Q336 466 328.5 477.5 Q321 489 305 489 L260 489 L271 569 L316 569 Q330 569 344.5 579.5 Q359 590 361 605 L365 632 Q365 644 360 656 Q355 668 339 668 L287 668 Q274 668 264 657 Q254 646 250 632 L151 632 L156 665 Q161 700 188.5 724.5 Q216 749 254 749 L396 749 Q428 749 449 728.5 Q470 708 470 678 Q470 675 469.5 671.5 Q469 668 469 665 L460 606 Q456 580 439.5 559.5 Q423 539 397 528 Q415 517 426 503.5 Q437 490 437 468 Q437 463 436.5 458 Q436 453 435 448 L421 363 Q418 345 409 329.5 Q400 314 386.5 302.5 Q373 291 356.5 284.5 Q340 278 322 278 L180 278 Q148 278 127.5 298 Q107 318 107 348 Q107 358 108 363 L118 427 L218 427 L213 396 Q213 381 219.5 369.5 Q226 358 241 358 L285 358 Z M649 196 L845 481 L987 481 L940 182 L991 182 L976 84 L925 84 L913 11 L814 11 L826 84 L632 84 L649 196 Z M749 182 L841 182 L859 298 L899 409 Q897 409 894 409.5 Q891 410 888 410 L833 310 L749 182 Z " />
<glyph glyph-name="threeeighths" unicode="&#x215c;" horiz-adv-x="972" d="M285 358 Q299 358 312 369.5 Q325 381 327 396 L336 451 Q336 466 328.5 477.5 Q321 489 305 489 L260 489 L271 569 L316 569 Q330 569 344.5 579.5 Q359 590 361 605 L365 632 Q365 644 360 656 Q355 668 339 668 L287 668 Q274 668 264 657 Q254 646 250 632 L151 632 L156 665 Q161 700 188.5 724.5 Q216 749 254 749 L396 749 Q428 749 449 728.5 Q470 708 470 678 Q470 675 469.5 671.5 Q469 668 469 665 L460 606 Q456 580 439.5 559.5 Q423 539 397 528 Q415 517 426 503.5 Q437 490 437 468 Q437 463 436.5 458 Q436 453 435 448 L421 363 Q418 345 409 329.5 Q400 314 386.5 302.5 Q373 291 356.5 284.5 Q340 278 322 278 L180 278 Q148 278 127.5 298 Q107 318 107 348 Q107 358 108 363 L118 427 L218 427 L213 396 Q213 381 219.5 369.5 Q226 358 241 358 L285 358 Z M904 774 L346 -54 L252 -54 L806 774 L904 774 Z M647 196 L843 481 L985 481 L938 182 L989 182 L974 84 L923 84 L911 11 L812 11 L824 84 L630 84 L647 196 Z M747 182 L839 182 L857 298 L897 409 Q895 409 892 409.5 Q889 410 886 410 L831 310 L747 182 Z " />
<glyph glyph-name="fiveeighths" unicode="&#x215d;" horiz-adv-x="1042" d="M370 583 Q402 583 423 563.5 Q444 544 444 513 Q444 509 443.5 505.5 Q443 502 443 499 L421 363 Q418 345 409 329.5 Q400 314 386.5 302.5 Q373 291 356.5 284.5 Q340 278 322 278 L180 278 Q148 278 127.5 298 Q107 318 107 348 Q107 358 108 363 L113 397 L212 397 Q212 380 221 369 Q230 358 241 358 L285 358 Q299 358 312 369.5 Q325 381 327 396 L339 467 Q339 502 308 502 L269 502 Q256 502 243 494 Q230 486 224 469 L125 469 L169 749 L482 749 L470 670 L291 670 Q277 670 265 658 Q253 646 251 632 L239 556 Q253 570 265.5 576.5 Q278 583 287 583 L370 583 Z M905 774 L347 -54 L253 -54 L807 774 L905 774 Z M764 11 Q732 11 711.5 31 Q691 51 691 81 Q691 91 692 96 L705 180 Q708 200 725 220 Q742 240 768 259 Q751 276 740.5 294 Q730 312 730 329 Q730 335 731 338 L740 398 Q743 415 752 430.5 Q761 446 774.5 457.5 Q788 469 804.5 475.5 Q821 482 838 482 L980 482 Q1012 482 1033 461.5 Q1054 441 1054 411 Q1054 408 1053.5 404.5 Q1053 401 1053 398 L1044 338 Q1041 318 1024 298 Q1007 278 981 259 Q1001 240 1009.5 220 Q1018 200 1018 180 L1005 96 Q1002 78 993 62.5 Q984 47 970.5 35.5 Q957 24 940.5 17.5 Q924 11 906 11 L764 11 Z M847 217 Q833 217 820 206 Q807 195 805 180 L797 129 Q797 127 796.5 125.5 Q796 124 796 122 Q796 109 803.5 100 Q811 91 825 91 L869 91 Q884 91 896.5 102.5 Q909 114 911 129 L919 180 Q919 194 911.5 205.5 Q904 217 887 217 L847 217 Z M871 401 Q855 401 846 389 Q837 377 835 365 L829 334 Q828 332 828 327 Q828 314 837 306 Q846 298 860 298 L900 298 Q916 298 928 308.5 Q940 319 943 334 L949 365 Q949 367 949.5 368.5 Q950 370 950 372 Q950 383 943.5 392 Q937 401 923 401 L871 401 Z " />
<glyph glyph-name="seveneighths" unicode="&#x215e;" horiz-adv-x="932" d="M169 749 L482 749 L462 619 Q461 614 458 606 Q455 598 451 593 L226 278 L100 278 L374 650 L153 650 L169 749 Z M787 774 L229 -54 L135 -54 L689 774 L787 774 Z M645 11 Q613 11 592.5 31 Q572 51 572 81 Q572 91 573 96 L586 180 Q589 200 606 220 Q623 240 649 259 Q632 276 621.5 294 Q611 312 611 329 Q611 335 612 338 L621 398 Q624 415 633 430.5 Q642 446 655.5 457.5 Q669 469 685.5 475.5 Q702 482 719 482 L861 482 Q893 482 914 461.5 Q935 441 935 411 Q935 408 934.5 404.5 Q934 401 934 398 L925 338 Q922 318 905 298 Q888 278 862 259 Q882 240 890.5 220 Q899 200 899 180 L886 96 Q883 78 874 62.5 Q865 47 851.5 35.5 Q838 24 821.5 17.5 Q805 11 787 11 L645 11 Z M728 217 Q714 217 701 206 Q688 195 686 180 L678 129 Q678 127 677.5 125.5 Q677 124 677 122 Q677 109 684.5 100 Q692 91 706 91 L750 91 Q765 91 777.5 102.5 Q790 114 792 129 L800 180 Q800 194 792.5 205.5 Q785 217 768 217 L728 217 Z M752 401 Q736 401 727 389 Q718 377 716 365 L710 334 Q709 332 709 327 Q709 314 718 306 Q727 298 741 298 L781 298 Q797 298 809 308.5 Q821 319 824 334 L830 365 Q830 367 830.5 368.5 Q831 370 831 372 Q831 383 824.5 392 Q818 401 804 401 L752 401 Z " />
<glyph glyph-name="degree" unicode="&#xb0;" horiz-adv-x="289" d="M160 533 Q151 533 140.5 538.5 Q130 544 121.5 555 Q113 566 107 582.5 Q101 599 101 622 Q101 664 112.5 692.5 Q124 721 140.5 739 Q157 757 174 765 Q191 773 203 773 L334 773 Q343 773 354.5 768 Q366 763 375.5 752 Q385 741 392 724 Q399 707 399 682 Q399 641 387.5 612.5 Q376 584 359.5 566.5 Q343 549 325.5 541 Q308 533 297 533 L160 533 Z M258 609 Q283 609 293.5 621 Q304 633 306 644 L309 661 Q309 675 301.5 686 Q294 697 280 697 L245 697 Q231 697 222 694 Q213 691 208 685.5 Q203 680 200.5 673.5 Q198 667 197 661 L194 647 Q194 632 200 620.5 Q206 609 222 609 L258 609 Z " />
<glyph glyph-name="NULL" d="" />
<glyph glyph-name="nonmarkingreturn" unicode="&#xd;" horiz-adv-x="233" d="" />
<glyph glyph-name="A" unicode="A" horiz-adv-x="432" d="M325 0 L317 156 L163 156 L108 0 L-2 0 L283 749 L379 749 L430 0 L325 0 Z M261 422 L194 237 L313 237 L303 422 L323 620 L306 620 L261 422 Z " />
<glyph glyph-name="Aacute" unicode="&#xc1;" horiz-adv-x="442" d="M332 0 L324 156 L170 156 L115 0 L5 0 L290 749 L386 749 L437 0 L332 0 Z M268 422 L201 237 L320 237 L310 422 L330 620 L313 620 L268 422 Z M377 983 L471 983 L404 884 L317 884 L377 983 Z " />
<glyph glyph-name="Abreve" unicode="&#x102;" horiz-adv-x="442" d="M332 0 L324 156 L170 156 L115 0 L5 0 L290 749 L386 749 L437 0 L332 0 Z M268 422 L201 237 L320 237 L310 422 L330 620 L313 620 L268 422 Z M528 979 L522 949 Q519 931 510 915.5 Q501 900 487.5 888.5 Q474 877 457.5 870.5 Q441 864 423 864 L281 864 Q249 864 228 885 Q207 906 208 938 Q208 941 209 947 Q210 953 215 979 L314 979 Q314 964 321 954 Q328 944 341 944 L378 944 Q398 944 411 954.5 Q424 965 429 979 L528 979 Z " />
<glyph glyph-name="Acircumflex" unicode="&#xc2;" horiz-adv-x="442" d="M437 0 L386 749 L290 749 L5 0 L115 0 L170 156 L324 156 L332 0 L437 0 Z M313 620 L330 620 L310 422 L320 237 L201 237 L268 422 L313 620 Z M320 983 L417 983 L490 835 L392 835 L357 905 L300 835 L200 835 L320 983 Z " />
<glyph glyph-name="Agrave" unicode="&#xc0;" horiz-adv-x="442" d="M332 0 L324 156 L170 156 L115 0 L5 0 L290 749 L386 749 L437 0 L332 0 Z M268 422 L201 237 L320 237 L310 422 L330 620 L313 620 L268 422 Z M391 885 L305 885 L270 984 L365 984 L391 885 Z " />
<glyph glyph-name="Adieresis" unicode="&#xc4;" horiz-adv-x="442" d="M330 0 L322 156 L168 156 L113 0 L3 0 L288 749 L384 749 L435 0 L330 0 Z M266 422 L199 237 L318 237 L308 422 L328 620 L311 620 L266 422 Z M195 915 Q196 941 216.5 961.5 Q237 982 265 982 Q288 982 302 968 Q316 954 315 932 Q314 904 293.5 884 Q273 864 245 864 Q222 864 208 878.5 Q194 893 195 915 Z M403 915 Q404 941 425 961.5 Q446 982 474 982 Q496 982 510.5 968 Q525 954 524 932 Q524 918 517.5 905.5 Q511 893 501.5 884 Q492 875 479.5 869.5 Q467 864 454 864 Q431 864 416.5 878.5 Q402 893 403 915 Z " />
<glyph glyph-name="Amacron" unicode="&#x100;" horiz-adv-x="442" d="M330 0 L322 156 L168 156 L113 0 L3 0 L288 749 L384 749 L435 0 L330 0 Z M266 422 L199 237 L318 237 L308 422 L328 620 L311 620 L266 422 Z M234 980 L538 980 L512 895 L209 895 L234 980 Z " />
<glyph glyph-name="Aogonek" unicode="&#x104;" horiz-adv-x="442" d="M335 0 L327 156 L173 156 L118 0 L8 0 L293 749 L389 749 L440 0 L335 0 Z M271 422 L204 237 L323 237 L313 422 L333 620 L316 620 L271 422 Z M442 -209 Q428 -215 414 -216.5 Q400 -218 388 -218 Q337 -218 315.5 -196 Q294 -174 296 -142 Q296 -126 303.5 -106.5 Q311 -87 323 -67.5 Q335 -48 350.5 -30 Q366 -12 383 0 L412 0 Q392 -27 380.5 -50 Q369 -73 368 -90 Q367 -111 381 -124 Q395 -137 429 -138 L442 -209 Z " />
<glyph glyph-name="Aring" unicode="&#xc5;" horiz-adv-x="432" d="M325 0 L317 156 L163 156 L108 0 L-2 0 L283 749 L379 749 L430 0 L325 0 Z M261 422 L194 237 L313 237 L303 422 L323 620 L306 620 L261 422 Z M343 752 Q358 752 364.5 758 Q371 764 373 771 L374 786 Q374 794 371 800 Q368 806 360 806 L326 806 Q311 806 304 799.5 Q297 793 296 786 L295 773 Q295 765 297.5 758.5 Q300 752 309 752 L343 752 Z M273 696 Q250 696 240 711.5 Q230 727 230 747 L240 811 Q243 831 261.5 846.5 Q280 862 300 862 L396 862 Q419 862 429.5 846.5 Q440 831 440 811 L430 747 Q428 737 422 727.5 Q416 718 407 711 Q398 704 388 700 Q378 696 369 696 L273 696 Z " />
<glyph glyph-name="Atilde" unicode="&#xc3;" horiz-adv-x="442" d="M330 0 L322 156 L168 156 L113 0 L3 0 L288 749 L384 749 L435 0 L330 0 Z M266 422 L199 237 L318 237 L308 422 L328 620 L311 620 L266 422 Z M298 982 Q315 982 329.5 975.5 Q344 969 357.5 961.5 Q371 954 385.5 947.5 Q400 941 418 941 Q430 941 444.5 950 Q459 959 473 982 L547 982 Q532 918 499.5 883.5 Q467 849 425 849 Q409 849 393 855.5 Q377 862 361.5 870 Q346 878 331.5 884.5 Q317 891 304 891 Q291 891 279 882 Q267 873 253 849 L178 849 Q193 911 226 946.5 Q259 982 298 982 Z " />
<glyph glyph-name="AEacute" unicode="&#x1fc;" horiz-adv-x="591" d="M176 156 L117 0 L5 0 L301 749 L676 749 L660 650 L446 650 L410 416 L593 416 L577 317 L394 317 L360 99 L574 99 L559 0 L246 0 L270 156 L176 156 Z M207 237 L283 237 L318 461 L369 650 L356 650 L292 461 L207 237 Z M494 983 L588 983 L521 884 L434 884 L494 983 Z " />
<glyph glyph-name="Cacute" unicode="&#x106;" horiz-adv-x="407" d="M408 295 L374 84 Q369 49 341.5 24.5 Q314 0 278 0 L136 0 Q104 0 82.5 21 Q61 42 62 74 Q62 80 63 84 L155 665 Q158 682 167 697.5 Q176 713 189.5 724.5 Q203 736 219.5 742.5 Q236 749 253 749 L395 749 Q428 749 448.5 728 Q469 707 467 676 Q467 673 466.5 670.5 Q466 668 466 665 L430 438 L332 438 L363 632 Q363 644 358.5 656 Q354 668 338 668 L286 668 Q271 668 261.5 656 Q252 644 250 632 L169 117 Q168 103 172.5 91.5 Q177 80 191 80 L240 80 Q254 80 267 91.5 Q280 103 282 117 L310 295 L408 295 Z M361 983 L455 983 L388 884 L301 884 L361 983 Z " />
<glyph glyph-name="Ccaron" unicode="&#x10c;" horiz-adv-x="407" d="M408 295 L374 84 Q369 49 341.5 24.5 Q314 0 278 0 L136 0 Q104 0 82.5 21 Q61 42 62 74 Q62 80 63 84 L155 665 Q158 682 167 697.5 Q176 713 189.5 724.5 Q203 736 219.5 742.5 Q236 749 253 749 L395 749 Q428 749 448.5 728 Q469 707 467 676 Q467 673 466.5 670.5 Q466 668 466 665 L430 438 L332 438 L363 632 Q363 644 358.5 656 Q354 668 338 668 L286 668 Q271 668 261.5 656 Q252 644 250 632 L169 117 Q168 103 172.5 91.5 Q177 80 191 80 L240 80 Q254 80 267 91.5 Q280 103 282 117 L310 295 L408 295 Z M210 984 L307 984 L343 914 L400 984 L500 984 L379 836 L282 836 L210 984 Z " />
<glyph glyph-name="Ccedilla" unicode="&#xc7;" horiz-adv-x="407" d="M408 295 L374 84 Q369 49 341.5 24.5 Q314 0 278 0 L136 0 Q104 0 82.5 21 Q61 42 62 74 Q62 80 63 84 L155 665 Q158 682 167 697.5 Q176 713 189.5 724.5 Q203 736 219.5 742.5 Q236 749 253 749 L395 749 Q428 749 448.5 728 Q469 707 467 676 Q467 673 466.5 670.5 Q466 668 466 665 L430 438 L332 438 L363 632 Q363 644 358.5 656 Q354 668 338 668 L286 668 Q271 668 261.5 656 Q252 644 250 632 L169 117 Q168 103 172.5 91.5 Q177 80 191 80 L240 80 Q254 80 267 91.5 Q280 103 282 117 L310 295 L408 295 Z M128 -138 Q170 -137 187 -118 Q204 -99 205 -72 Q206 -43 189 0 L218 0 Q238 -20 250.5 -53 Q263 -86 261 -116 Q261 -136 254 -154.5 Q247 -173 232.5 -187 Q218 -201 196 -209.5 Q174 -218 143 -218 Q132 -218 119 -217 Q106 -216 89 -212 L128 -138 Z " />
<glyph glyph-name="Ccircumflex" unicode="&#x108;" horiz-adv-x="407" d="M310 295 L282 117 Q280 103 267 91.5 Q254 80 240 80 L191 80 Q177 80 172.5 91.5 Q168 103 169 117 L250 632 Q252 644 261.5 656 Q271 668 286 668 L338 668 Q354 668 358.5 656 Q363 644 363 632 L332 438 L430 438 L466 665 Q466 668 466.5 670.5 Q467 673 467 676 Q469 707 448.5 728 Q428 749 395 749 L253 749 Q236 749 219.5 742.5 Q203 736 189.5 724.5 Q176 713 167 697.5 Q158 682 155 665 L63 84 Q62 80 62 74 Q61 42 82.5 21 Q104 0 136 0 L278 0 Q314 0 341.5 24.5 Q369 49 374 84 L408 295 L310 295 Z M306 983 L403 983 L476 835 L378 835 L343 905 L286 835 L186 835 L306 983 Z " />
<glyph glyph-name="Cdotaccent" unicode="&#x10a;" horiz-adv-x="407" d="M408 295 L374 84 Q369 49 341.5 24.5 Q314 0 278 0 L136 0 Q104 0 82.5 21 Q61 42 62 74 Q62 80 63 84 L155 665 Q158 682 167 697.5 Q176 713 189.5 724.5 Q203 736 219.5 742.5 Q236 749 253 749 L395 749 Q428 749 448.5 728 Q469 707 467 676 Q467 673 466.5 670.5 Q466 668 466 665 L430 438 L332 438 L363 632 Q363 644 358.5 656 Q354 668 338 668 L286 668 Q271 668 261.5 656 Q252 644 250 632 L169 117 Q168 103 172.5 91.5 Q177 80 191 80 L240 80 Q254 80 267 91.5 Q280 103 282 117 L310 295 L408 295 Z M288 918 Q288 930 294 942 Q300 954 310 963.5 Q320 973 332.5 978.5 Q345 984 358 984 Q381 984 395 970 Q409 956 408 934 Q407 906 386.5 886 Q366 866 338 866 Q316 866 301.5 880.5 Q287 895 288 918 Z " />
<glyph glyph-name="Dcaron" unicode="&#x10e;" horiz-adv-x="415" d="M178 749 L404 749 Q436 749 458 727.5 Q480 706 478 675 Q478 673 477.5 670 Q477 667 477 665 L385 84 Q382 67 373 51.5 Q364 36 351 24.5 Q338 13 321.5 6.5 Q305 0 287 0 L61 0 L178 749 Z M373 633 Q373 645 368 657.5 Q363 670 347 670 L265 670 L171 80 L249 80 Q263 80 276.5 91.5 Q290 103 292 117 L373 633 Z M214 984 L311 984 L347 914 L404 984 L504 984 L383 836 L286 836 L214 984 Z " />
<glyph glyph-name="Dcroat" unicode="&#x110;" horiz-adv-x="425" d="M188 749 L414 749 Q446 749 468 727.5 Q490 706 488 675 Q488 673 487.5 670 Q487 667 487 665 L395 84 Q392 67 383 51.5 Q374 36 361 24.5 Q348 13 331.5 6.5 Q315 0 297 0 L71 0 L188 749 Z M383 633 Q383 645 378 657.5 Q373 670 357 670 L275 670 L181 80 L259 80 Q273 80 286.5 91.5 Q300 103 302 117 L383 633 Z M85 396 L277 396 L261 297 L69 297 L85 396 Z " />
<glyph glyph-name="Eacute" unicode="&#xc9;" horiz-adv-x="412" d="M178 749 L491 749 L475 650 L261 650 L225 416 L407 416 L391 317 L209 317 L175 99 L389 99 L374 0 L61 0 L178 749 Z M375 983 L469 983 L402 884 L315 884 L375 983 Z " />
<glyph glyph-name="Ebreve" unicode="&#x114;" horiz-adv-x="412" d="M178 749 L491 749 L475 650 L261 650 L225 416 L407 416 L391 317 L209 317 L175 99 L389 99 L374 0 L61 0 L178 749 Z M533 982 L527 952 Q524 934 515 918.5 Q506 903 492.5 891.5 Q479 880 462.5 873.5 Q446 867 428 867 L286 867 Q254 867 233 888 Q212 909 213 941 Q213 944 214 950 Q215 956 220 982 L319 982 Q319 967 326 957 Q333 947 346 947 L383 947 Q403 947 416 957.5 Q429 968 434 982 L533 982 Z " />
<glyph glyph-name="Ecaron" unicode="&#x11a;" horiz-adv-x="412" d="M178 749 L491 749 L475 650 L261 650 L225 416 L407 416 L391 317 L209 317 L175 99 L389 99 L374 0 L61 0 L178 749 Z M213 984 L310 984 L346 914 L403 984 L503 984 L382 836 L285 836 L213 984 Z " />
<glyph glyph-name="Ecircumflex" unicode="&#xca;" horiz-adv-x="412" d="M61 0 L374 0 L389 99 L175 99 L209 317 L391 317 L407 416 L225 416 L261 650 L475 650 L491 749 L178 749 L61 0 Z M309 983 L406 983 L479 835 L381 835 L346 905 L289 835 L189 835 L309 983 Z " />
<glyph glyph-name="Edieresis" unicode="&#xcb;" horiz-adv-x="412" d="M178 749 L491 749 L475 650 L261 650 L225 416 L407 416 L391 317 L209 317 L175 99 L389 99 L374 0 L61 0 L178 749 Z M188 917 Q189 943 209.5 963.5 Q230 984 258 984 Q281 984 295 970 Q309 956 308 934 Q307 906 286.5 886 Q266 866 238 866 Q215 866 201 880.5 Q187 895 188 917 Z M396 917 Q397 943 418 963.5 Q439 984 467 984 Q489 984 503.5 970 Q518 956 517 934 Q517 920 510.5 907.5 Q504 895 494.5 886 Q485 877 472.5 871.5 Q460 866 447 866 Q424 866 409.5 880.5 Q395 895 396 917 Z " />
<glyph glyph-name="Edotaccent" unicode="&#x116;" horiz-adv-x="412" d="M178 749 L491 749 L475 650 L261 650 L225 416 L407 416 L391 317 L209 317 L175 99 L389 99 L374 0 L61 0 L178 749 Z M301 918 Q301 930 307 942 Q313 954 323 963.5 Q333 973 345.5 978.5 Q358 984 371 984 Q394 984 408 970 Q422 956 421 934 Q420 906 399.5 886 Q379 866 351 866 Q329 866 314.5 880.5 Q300 895 301 918 Z " />
<glyph glyph-name="Egrave" unicode="&#xc8;" horiz-adv-x="412" d="M178 749 L491 749 L475 650 L261 650 L225 416 L407 416 L391 317 L209 317 L175 99 L389 99 L374 0 L61 0 L178 749 Z M359 885 L273 885 L238 984 L333 984 L359 885 Z " />
<glyph glyph-name="Eogonek" unicode="&#x118;" horiz-adv-x="412" d="M178 749 L491 749 L475 650 L261 650 L225 416 L407 416 L391 317 L209 317 L175 99 L389 99 L374 0 L61 0 L178 749 Z M301 -209 Q287 -215 273 -216.5 Q259 -218 247 -218 Q196 -218 174.5 -196 Q153 -174 155 -142 Q155 -126 162.5 -106.5 Q170 -87 182 -67.5 Q194 -48 209.5 -30 Q225 -12 242 0 L271 0 Q251 -27 239.5 -50 Q228 -73 227 -90 Q226 -111 240 -124 Q254 -137 288 -138 L301 -209 Z " />
<glyph glyph-name="Macron" unicode="&#xf6d0;" horiz-adv-x="409" d="M220 896 L510 896 L496 812 L206 812 L220 896 Z " />
<glyph glyph-name="Emacron" unicode="&#x112;" horiz-adv-x="412" d="M178 749 L491 749 L475 650 L261 650 L225 416 L407 416 L391 317 L209 317 L175 99 L389 99 L374 0 L61 0 L178 749 Z M228 981 L518 981 L504 897 L214 897 L228 981 Z " />
<glyph glyph-name="Gbreve" unicode="&#x11e;" horiz-adv-x="409" d="M136 0 Q104 0 82.5 21 Q61 42 62 74 Q62 80 63 84 L155 665 Q158 682 167 697.5 Q176 713 189.5 724.5 Q203 736 219.5 742.5 Q236 749 253 749 L395 749 Q428 749 448.5 728 Q469 707 467 676 Q467 673 466.5 670.5 Q466 668 466 665 L436 479 L338 479 L363 632 Q363 644 358.5 656 Q354 668 338 668 L286 668 Q271 668 261.5 656 Q252 644 250 632 L169 117 Q168 103 173.5 92.5 Q179 82 191 80 L236 80 Q250 80 264.5 89 Q279 98 282 117 L301 237 L261 237 L276 336 L414 336 L362 0 L292 0 L274 28 Q263 16 251 8 Q239 0 228 0 L136 0 Z M512 980 L506 950 Q503 932 494 916.5 Q485 901 471.5 889.5 Q458 878 441.5 871.5 Q425 865 407 865 L265 865 Q233 865 212 886 Q191 907 192 939 Q192 942 193 948 Q194 954 199 980 L298 980 Q298 965 305 955 Q312 945 325 945 L362 945 Q382 945 395 955.5 Q408 966 413 980 L512 980 Z " />
<glyph glyph-name="Gcircumflex" unicode="&#x11c;" horiz-adv-x="409" d="M228 0 Q239 0 251 8 Q263 16 274 28 L292 0 L362 0 L414 336 L276 336 L261 237 L301 237 L282 117 Q279 98 264.5 89 Q250 80 236 80 L191 80 Q179 82 173.5 92.5 Q168 103 169 117 L250 632 Q252 644 261.5 656 Q271 668 286 668 L338 668 Q354 668 358.5 656 Q363 644 363 632 L338 479 L436 479 L466 665 Q466 668 466.5 670.5 Q467 673 467 676 Q469 707 448.5 728 Q428 749 395 749 L253 749 Q236 749 219.5 742.5 Q203 736 189.5 724.5 Q176 713 167 697.5 Q158 682 155 665 L63 84 Q62 80 62 74 Q61 42 82.5 21 Q104 0 136 0 L228 0 Z M307 983 L404 983 L477 835 L379 835 L344 905 L287 835 L187 835 L307 983 Z " />
<glyph glyph-name="Gcommaaccent" unicode="&#x122;" horiz-adv-x="409" d="M136 0 Q104 0 82.5 21 Q61 42 62 74 Q62 80 63 84 L155 665 Q158 682 167 697.5 Q176 713 189.5 724.5 Q203 736 219.5 742.5 Q236 749 253 749 L395 749 Q428 749 448.5 728 Q469 707 467 676 Q467 673 466.5 670.5 Q466 668 466 665 L436 479 L338 479 L363 632 Q363 644 358.5 656 Q354 668 338 668 L286 668 Q271 668 261.5 656 Q252 644 250 632 L169 117 Q168 103 173.5 92.5 Q179 82 191 80 L236 80 Q250 80 264.5 89 Q279 98 282 117 L301 237 L261 237 L276 336 L414 336 L362 0 L292 0 L274 28 Q263 16 251 8 Q239 0 228 0 L136 0 Z M123 -207 L138 -108 L237 -108 L223 -199 Q217 -235 211.5 -261.5 Q206 -288 194 -304.5 Q182 -321 160.5 -329 Q139 -337 102 -337 L110 -290 Q130 -290 142 -285.5 Q154 -281 161 -271 Q168 -261 171.5 -245.5 Q175 -230 178 -207 L123 -207 Z " />
<glyph glyph-name="Gdotaccent" unicode="&#x120;" horiz-adv-x="409" d="M136 0 Q104 0 82.5 21 Q61 42 62 74 Q62 80 63 84 L155 665 Q158 682 167 697.5 Q176 713 189.5 724.5 Q203 736 219.5 742.5 Q236 749 253 749 L395 749 Q428 749 448.5 728 Q469 707 467 676 Q467 673 466.5 670.5 Q466 668 466 665 L436 479 L338 479 L363 632 Q363 644 358.5 656 Q354 668 338 668 L286 668 Q271 668 261.5 656 Q252 644 250 632 L169 117 Q168 103 173.5 92.5 Q179 82 191 80 L236 80 Q250 80 264.5 89 Q279 98 282 117 L301 237 L261 237 L276 336 L414 336 L362 0 L292 0 L274 28 Q263 16 251 8 Q239 0 228 0 L136 0 Z M289 918 Q289 930 295 942 Q301 954 311 963.5 Q321 973 333.5 978.5 Q346 984 359 984 Q382 984 396 970 Q410 956 409 934 Q408 906 387.5 886 Q367 866 339 866 Q317 866 302.5 880.5 Q288 895 289 918 Z " />
<glyph glyph-name="Hbar" unicode="&#x126;" horiz-adv-x="425" d="M137 647 L161 647 L178 749 L277 749 L261 647 L375 647 L391 749 L490 749 L473 647 L497 647 L481 548 L458 548 L373 0 L274 0 L323 317 L209 317 L160 0 L61 0 L146 548 L121 548 L137 647 Z M339 416 L360 548 L246 548 L225 416 L339 416 Z " />
<glyph glyph-name="Hcircumflex" unicode="&#x124;" horiz-adv-x="425" d="M274 0 L373 0 L490 749 L391 749 L339 416 L225 416 L277 749 L178 749 L61 0 L160 0 L209 317 L323 317 L274 0 Z M315 983 L412 983 L485 835 L387 835 L352 905 L295 835 L195 835 L315 983 Z " />
<glyph glyph-name="Iacute" unicode="&#xcd;" horiz-adv-x="221" d="M180 749 L281 749 L164 0 L63 0 L180 749 Z M265 983 L359 983 L292 884 L205 884 L265 983 Z " />
<glyph glyph-name="Ibreve" unicode="&#x12c;" horiz-adv-x="221" d="M180 749 L281 749 L164 0 L63 0 L180 749 Z M429 977 L423 947 Q420 929 411 913.5 Q402 898 388.5 886.5 Q375 875 358.5 868.5 Q342 862 324 862 L182 862 Q150 862 129 883 Q108 904 109 936 Q109 939 110 945 Q111 951 116 977 L215 977 Q215 962 222 952 Q229 942 242 942 L279 942 Q299 942 312 952.5 Q325 963 330 977 L429 977 Z " />
<glyph glyph-name="Icircumflex" unicode="&#xce;" horiz-adv-x="221" d="M63 0 L164 0 L281 749 L180 749 L63 0 Z M215 983 L312 983 L385 835 L287 835 L252 905 L195 835 L95 835 L215 983 Z " />
<glyph glyph-name="Idieresis" unicode="&#xcf;" horiz-adv-x="221" d="M180 749 L281 749 L164 0 L63 0 L180 749 Z M91 911 Q92 937 112.5 957.5 Q133 978 161 978 Q184 978 198 964 Q212 950 211 928 Q210 900 189.5 880 Q169 860 141 860 Q118 860 104 874.5 Q90 889 91 911 Z M299 911 Q300 937 321 957.5 Q342 978 370 978 Q392 978 406.5 964 Q421 950 420 928 Q420 914 413.5 901.5 Q407 889 397.5 880 Q388 871 375.5 865.5 Q363 860 350 860 Q327 860 312.5 874.5 Q298 889 299 911 Z " />
<glyph glyph-name="Idotaccent" unicode="&#x130;" horiz-adv-x="221" d="M180 749 L281 749 L164 0 L63 0 L180 749 Z M196 910 Q196 922 202 934 Q208 946 218 955.5 Q228 965 240.5 970.5 Q253 976 266 976 Q289 976 303 962 Q317 948 316 926 Q315 898 294.5 878 Q274 858 246 858 Q224 858 209.5 872.5 Q195 887 196 910 Z " />
<glyph glyph-name="Igrave" unicode="&#xcc;" horiz-adv-x="221" d="M180 749 L281 749 L164 0 L63 0 L180 749 Z M271 885 L185 885 L150 984 L245 984 L271 885 Z " />
<glyph glyph-name="Imacron" unicode="&#x12a;" horiz-adv-x="221" d="M180 749 L281 749 L164 0 L63 0 L180 749 Z M126 975 L416 975 L402 891 L112 891 L126 975 Z " />
<glyph glyph-name="Iogonek" unicode="&#x12e;" horiz-adv-x="221" d="M180 749 L281 749 L164 0 L63 0 L180 749 Z M166 -208 Q152 -214 138 -215.5 Q124 -217 112 -217 Q61 -217 39.5 -195 Q18 -173 20 -141 Q20 -125 27.5 -105.5 Q35 -86 47 -66.5 Q59 -47 74.5 -29 Q90 -11 107 1 L136 1 Q116 -26 104.5 -49 Q93 -72 92 -89 Q91 -110 105 -123 Q119 -136 153 -137 L166 -208 Z " />
<glyph glyph-name="Itilde" unicode="&#x128;" horiz-adv-x="221" d="M180 749 L281 749 L164 0 L63 0 L180 749 Z M193 982 Q210 982 224.5 975.5 Q239 969 252.5 961.5 Q266 954 280.5 947.5 Q295 941 313 941 Q325 941 339.5 950 Q354 959 368 982 L442 982 Q427 918 394.5 883.5 Q362 849 320 849 Q304 849 288 855.5 Q272 862 256.5 870 Q241 878 226.5 884.5 Q212 891 199 891 Q186 891 174 882 Q162 873 148 849 L73 849 Q88 911 121 946.5 Q154 982 193 982 Z " />
<glyph glyph-name="IJ" unicode="&#x132;" horiz-adv-x="610" d="M180 749 L281 749 L164 0 L63 0 L180 749 Z M391 285 L366 117 Q365 103 371.5 91.5 Q378 80 393 80 L442 80 Q455 82 465.5 92.5 Q476 103 478 117 L577 749 L677 749 L572 84 Q569 67 560.5 51.5 Q552 36 538.5 24.5 Q525 13 509 6.5 Q493 0 475 0 L333 0 Q300 0 279 21 Q258 42 259 73 Q259 80 260 84 L291 285 L391 285 Z " />
<glyph glyph-name="Jcircumflex" unicode="&#x134;" horiz-adv-x="359" d="M40 285 L9 84 Q8 80 8 73 Q7 42 28 21 Q49 0 82 0 L224 0 Q242 0 258 6.5 Q274 13 287.5 24.5 Q301 36 309.5 51.5 Q318 67 321 84 L426 749 L326 749 L227 117 Q225 103 214.5 92.5 Q204 82 191 80 L142 80 Q127 80 120.5 91.5 Q114 103 115 117 L140 285 L40 285 Z M353 983 L450 983 L523 835 L425 835 L390 905 L333 835 L233 835 L353 983 Z " />
<glyph glyph-name="Kcommaaccent" unicode="&#x136;" horiz-adv-x="402" d="M246 550 L194 413 L209 413 Q257 496 306 581 Q355 666 402 749 L507 749 L288 374 L391 0 L286 0 L197 335 L182 335 L189 188 L160 0 L61 0 L178 749 L277 749 L246 550 Z M121 -206 L136 -107 L235 -107 L221 -198 Q215 -234 209.5 -260.5 Q204 -287 192 -303.5 Q180 -320 158.5 -328 Q137 -336 100 -336 L108 -289 Q128 -289 140 -284.5 Q152 -280 159 -270 Q166 -260 169.5 -244.5 Q173 -229 176 -206 L121 -206 Z " />
<glyph glyph-name="eth" unicode="&#xf0;" horiz-adv-x="396" d="M316 651 L209 621 L199 698 L306 727 L298 789 L401 817 L409 755 L518 785 L528 710 L418 679 L439 515 Q440 510 440.5 504 Q441 498 441 491 Q441 480 440 469.5 Q439 459 438 454 L380 85 Q374 49 345.5 24.5 Q317 0 281 0 L137 0 Q105 0 83.5 20 Q62 40 62 72 Q62 80 63 85 L121 455 Q124 473 133 488.5 Q142 504 156 515.5 Q170 527 186.5 533.5 Q203 540 221 540 L331 540 L316 651 Z M258 457 Q244 457 231.5 445.5 Q219 434 217 420 L170 118 Q170 106 176.5 94.5 Q183 83 199 83 L245 83 Q259 83 271.5 94 Q284 105 286 119 L333 422 Q333 434 327 445.5 Q321 457 294 457 L258 457 Z " />
<glyph glyph-name="Lacute" unicode="&#x139;" horiz-adv-x="400" d="M175 99 L389 99 L374 0 L61 0 L178 749 L277 749 L175 99 Z M268 983 L362 983 L295 884 L208 884 L268 983 Z " />
<glyph glyph-name="Lcaron" unicode="&#x13d;" horiz-adv-x="400" d="M175 99 L389 99 L374 0 L61 0 L178 749 L277 749 L175 99 Z M120 984 L217 984 L253 914 L310 984 L410 984 L289 836 L192 836 L120 984 Z " />
<glyph glyph-name="Lcommaaccent" unicode="&#x13b;" horiz-adv-x="400" d="M175 99 L389 99 L374 0 L61 0 L178 749 L277 749 L175 99 Z M120 -205 L135 -106 L234 -106 L220 -197 Q214 -233 208.5 -259.5 Q203 -286 191 -302.5 Q179 -319 157.5 -327 Q136 -335 99 -335 L107 -288 Q127 -288 139 -283.5 Q151 -279 158 -269 Q165 -259 168.5 -243.5 Q172 -228 175 -205 L120 -205 Z " />
<glyph glyph-name="Ldot" unicode="&#x13f;" horiz-adv-x="400" d="M175 99 L389 99 L374 0 L61 0 L178 749 L277 749 L175 99 Z M321 475 Q321 487 327 499 Q333 511 343 520.5 Q353 530 365.5 535.5 Q378 541 391 541 Q414 541 428 527 Q442 513 441 491 Q440 463 419.5 443 Q399 423 371 423 Q349 423 334.5 437.5 Q320 452 321 475 Z " />
<glyph glyph-name="Lslash" unicode="&#x141;" horiz-adv-x="417" d="M252 476 L343 522 L377 435 L234 360 L193 99 L407 99 L392 0 L79 0 L126 302 L85 281 L49 367 L144 418 L196 749 L295 749 L252 476 Z " />
<glyph glyph-name="Nacute" unicode="&#x143;" horiz-adv-x="426" d="M374 0 L266 0 L217 477 L204 477 L203 280 L160 0 L61 0 L178 749 L289 749 L332 276 L347 276 L349 474 L392 749 L491 749 L374 0 Z M362 983 L456 983 L389 884 L302 884 L362 983 Z " />
<glyph glyph-name="Ncaron" unicode="&#x147;" horiz-adv-x="426" d="M374 0 L266 0 L217 477 L204 477 L203 280 L160 0 L61 0 L178 749 L289 749 L332 276 L347 276 L349 474 L392 749 L491 749 L374 0 Z M219 984 L316 984 L352 914 L409 984 L509 984 L388 836 L291 836 L219 984 Z " />
<glyph glyph-name="Ncommaaccent" unicode="&#x145;" horiz-adv-x="426" d="M374 0 L266 0 L217 477 L204 477 L203 280 L160 0 L61 0 L178 749 L289 749 L332 276 L347 276 L349 474 L392 749 L491 749 L374 0 Z M133 -203 L148 -104 L247 -104 L233 -195 Q227 -231 221.5 -257.5 Q216 -284 204 -300.5 Q192 -317 170.5 -325 Q149 -333 112 -333 L120 -286 Q140 -286 152 -281.5 Q164 -277 171 -267 Q178 -257 181.5 -241.5 Q185 -226 188 -203 L133 -203 Z " />
<glyph glyph-name="Ntilde" unicode="&#xd1;" horiz-adv-x="426" d="M374 0 L266 0 L217 477 L204 477 L203 280 L160 0 L61 0 L178 749 L289 749 L332 276 L347 276 L349 474 L392 749 L491 749 L374 0 Z M293 982 Q310 982 324.5 975.5 Q339 969 352.5 961.5 Q366 954 380.5 947.5 Q395 941 413 941 Q425 941 439.5 950 Q454 959 468 982 L542 982 Q527 918 494.5 883.5 Q462 849 420 849 Q404 849 388 855.5 Q372 862 356.5 870 Q341 878 326.5 884.5 Q312 891 299 891 Q286 891 274 882 Q262 873 248 849 L173 849 Q188 911 221 946.5 Q254 982 293 982 Z " />
<glyph glyph-name="Oacute" unicode="&#xd3;" horiz-adv-x="406" d="M136 0 Q122 0 108.5 6 Q95 12 84.5 22 Q74 32 68 46 Q62 60 62 75 Q62 77 62.5 79.5 Q63 82 63 84 L155 665 Q158 682 167 697.5 Q176 713 189.5 724.5 Q203 736 219.5 742.5 Q236 749 253 749 L395 749 Q428 749 448.5 728 Q469 707 467 676 Q467 673 466.5 670.5 Q466 668 466 665 L374 84 Q369 49 341.5 24.5 Q314 0 278 0 L136 0 Z M290 670 Q276 670 264 658 Q252 646 250 632 L169 117 Q168 103 175 91.5 Q182 80 196 80 L240 80 Q254 80 267 91.5 Q280 103 282 117 L363 633 Q363 646 357.5 658 Q352 670 327 670 L290 670 Z M360 983 L454 983 L387 884 L300 884 L360 983 Z " />
<glyph glyph-name="Obreve" unicode="&#x14e;" horiz-adv-x="406" d="M136 0 Q122 0 108.5 6 Q95 12 84.5 22 Q74 32 68 46 Q62 60 62 75 Q62 77 62.5 79.5 Q63 82 63 84 L155 665 Q158 682 167 697.5 Q176 713 189.5 724.5 Q203 736 219.5 742.5 Q236 749 253 749 L395 749 Q428 749 448.5 728 Q469 707 467 676 Q467 673 466.5 670.5 Q466 668 466 665 L374 84 Q369 49 341.5 24.5 Q314 0 278 0 L136 0 Z M290 670 Q276 670 264 658 Q252 646 250 632 L169 117 Q168 103 175 91.5 Q182 80 196 80 L240 80 Q254 80 267 91.5 Q280 103 282 117 L363 633 Q363 646 357.5 658 Q352 670 327 670 L290 670 Z M524 978 L518 948 Q515 930 506 914.5 Q497 899 483.5 887.5 Q470 876 453.5 869.5 Q437 863 419 863 L277 863 Q245 863 224 884 Q203 905 204 937 Q204 940 205 946 Q206 952 211 978 L310 978 Q310 963 317 953 Q324 943 337 943 L374 943 Q394 943 407 953.5 Q420 964 425 978 L524 978 Z " />
<glyph glyph-name="Ocircumflex" unicode="&#xd4;" horiz-adv-x="406" d="M278 0 Q314 0 341.5 24.5 Q369 49 374 84 L466 665 Q466 668 466.5 670.5 Q467 673 467 676 Q469 707 448.5 728 Q428 749 395 749 L253 749 Q236 749 219.5 742.5 Q203 736 189.5 724.5 Q176 713 167 697.5 Q158 682 155 665 L63 84 Q63 82 62.5 79.5 Q62 77 62 75 Q62 60 68 46 Q74 32 84.5 22 Q95 12 108.5 6 Q122 0 136 0 L278 0 Z M327 670 Q352 670 357.5 658 Q363 646 363 633 L282 117 Q280 103 267 91.5 Q254 80 240 80 L196 80 Q182 80 175 91.5 Q168 103 169 117 L250 632 Q252 646 264 658 Q276 670 290 670 L327 670 Z M305 983 L402 983 L475 835 L377 835 L342 905 L285 835 L185 835 L305 983 Z " />
<glyph glyph-name="Odieresis" unicode="&#xd6;" horiz-adv-x="406" d="M136 0 Q122 0 108.5 6 Q95 12 84.5 22 Q74 32 68 46 Q62 60 62 75 Q62 77 62.5 79.5 Q63 82 63 84 L155 665 Q158 682 167 697.5 Q176 713 189.5 724.5 Q203 736 219.5 742.5 Q236 749 253 749 L395 749 Q428 749 448.5 728 Q469 707 467 676 Q467 673 466.5 670.5 Q466 668 466 665 L374 84 Q369 49 341.5 24.5 Q314 0 278 0 L136 0 Z M290 670 Q276 670 264 658 Q252 646 250 632 L169 117 Q168 103 175 91.5 Q182 80 196 80 L240 80 Q254 80 267 91.5 Q280 103 282 117 L363 633 Q363 646 357.5 658 Q352 670 327 670 L290 670 Z M190 912 Q191 938 211.5 958.5 Q232 979 260 979 Q283 979 297 965 Q311 951 310 929 Q309 901 288.5 881 Q268 861 240 861 Q217 861 203 875.5 Q189 890 190 912 Z M398 912 Q399 938 420 958.5 Q441 979 469 979 Q491 979 505.5 965 Q520 951 519 929 Q519 915 512.5 902.5 Q506 890 496.5 881 Q487 872 474.5 866.5 Q462 861 449 861 Q426 861 411.5 875.5 Q397 890 398 912 Z " />
<glyph glyph-name="Ohungarumlaut" unicode="&#x150;" horiz-adv-x="406" d="M136 0 Q122 0 108.5 6 Q95 12 84.5 22 Q74 32 68 46 Q62 60 62 75 Q62 77 62.5 79.5 Q63 82 63 84 L155 665 Q158 682 167 697.5 Q176 713 189.5 724.5 Q203 736 219.5 742.5 Q236 749 253 749 L395 749 Q428 749 448.5 728 Q469 707 467 676 Q467 673 466.5 670.5 Q466 668 466 665 L374 84 Q369 49 341.5 24.5 Q314 0 278 0 L136 0 Z M290 670 Q276 670 264 658 Q252 646 250 632 L169 117 Q168 103 175 91.5 Q182 80 196 80 L240 80 Q254 80 267 91.5 Q280 103 282 117 L363 633 Q363 646 357.5 658 Q352 670 327 670 L290 670 Z M259 983 L353 983 L286 884 L199 884 L259 983 Z M463 983 L557 983 L490 884 L403 884 L463 983 Z " />
<glyph glyph-name="Ograve" unicode="&#xd2;" horiz-adv-x="406" d="M136 0 Q122 0 108.5 6 Q95 12 84.5 22 Q74 32 68 46 Q62 60 62 75 Q62 77 62.5 79.5 Q63 82 63 84 L155 665 Q158 682 167 697.5 Q176 713 189.5 724.5 Q203 736 219.5 742.5 Q236 749 253 749 L395 749 Q428 749 448.5 728 Q469 707 467 676 Q467 673 466.5 670.5 Q466 668 466 665 L374 84 Q369 49 341.5 24.5 Q314 0 278 0 L136 0 Z M290 670 Q276 670 264 658 Q252 646 250 632 L169 117 Q168 103 175 91.5 Q182 80 196 80 L240 80 Q254 80 267 91.5 Q280 103 282 117 L363 633 Q363 646 357.5 658 Q352 670 327 670 L290 670 Z M366 885 L280 885 L245 984 L340 984 L366 885 Z " />
<glyph glyph-name="Oslash" unicode="&#xd8;" horiz-adv-x="483" d="M170 0 Q159 0 144 4.5 Q129 9 112 20 L66 -52 L-26 -52 L108 152 L189 665 Q192 682 201 697.5 Q210 713 223.5 724.5 Q237 736 253.5 742.5 Q270 749 287 749 L429 749 Q443 749 459 742 Q475 735 492 723 L527 777 L625 777 L487 573 L409 84 Q406 67 397.5 51.5 Q389 36 375.5 24.5 Q362 13 346 6.5 Q330 0 312 0 L170 0 Z M324 670 Q310 670 298 658 Q286 646 284 632 L203 117 Q203 103 209.5 91.5 Q216 80 230 80 L274 80 Q289 80 301 91.5 Q313 103 315 117 L396 633 Q396 645 390.5 657.5 Q385 670 360 670 L324 670 Z " />
<glyph glyph-name="Omacron" unicode="&#x14c;" horiz-adv-x="406" d="M136 0 Q122 0 108.5 6 Q95 12 84.5 22 Q74 32 68 46 Q62 60 62 75 Q62 77 62.5 79.5 Q63 82 63 84 L155 665 Q158 682 167 697.5 Q176 713 189.5 724.5 Q203 736 219.5 742.5 Q236 749 253 749 L395 749 Q428 749 448.5 728 Q469 707 467 676 Q467 673 466.5 670.5 Q466 668 466 665 L374 84 Q369 49 341.5 24.5 Q314 0 278 0 L136 0 Z M290 670 Q276 670 264 658 Q252 646 250 632 L169 117 Q168 103 175 91.5 Q182 80 196 80 L240 80 Q254 80 267 91.5 Q280 103 282 117 L363 633 Q363 646 357.5 658 Q352 670 327 670 L290 670 Z M220 979 L510 979 L496 895 L206 895 L220 979 Z " />
<glyph glyph-name="Oslashacute" unicode="&#x1fe;" horiz-adv-x="406" d="M136 0 Q125 0 110 4.5 Q95 9 78 20 L32 -52 L-60 -52 L74 152 L155 665 Q158 682 167 697.5 Q176 713 189.5 724.5 Q203 736 219.5 742.5 Q236 749 253 749 L395 749 Q409 749 425 742 Q441 735 458 723 L493 777 L591 777 L453 573 L375 84 Q372 67 363.5 51.5 Q355 36 341.5 24.5 Q328 13 312 6.5 Q296 0 278 0 L136 0 Z M290 670 Q276 670 264 658 Q252 646 250 632 L169 117 Q169 103 175.5 91.5 Q182 80 196 80 L240 80 Q255 80 267 91.5 Q279 103 281 117 L362 633 Q362 645 356.5 657.5 Q351 670 326 670 L290 670 Z M360 983 L454 983 L387 884 L300 884 L360 983 Z " />
<glyph glyph-name="Otilde" unicode="&#xd5;" horiz-adv-x="406" d="M136 0 Q122 0 108.5 6 Q95 12 84.5 22 Q74 32 68 46 Q62 60 62 75 Q62 77 62.5 79.5 Q63 82 63 84 L155 665 Q158 682 167 697.5 Q176 713 189.5 724.5 Q203 736 219.5 742.5 Q236 749 253 749 L395 749 Q428 749 448.5 728 Q469 707 467 676 Q467 673 466.5 670.5 Q466 668 466 665 L374 84 Q369 49 341.5 24.5 Q314 0 278 0 L136 0 Z M290 670 Q276 670 264 658 Q252 646 250 632 L169 117 Q168 103 175 91.5 Q182 80 196 80 L240 80 Q254 80 267 91.5 Q280 103 282 117 L363 633 Q363 646 357.5 658 Q352 670 327 670 L290 670 Z M283 982 Q300 982 314.5 975.5 Q329 969 342.5 961.5 Q356 954 370.5 947.5 Q385 941 403 941 Q415 941 429.5 950 Q444 959 458 982 L532 982 Q517 918 484.5 883.5 Q452 849 410 849 Q394 849 378 855.5 Q362 862 346.5 870 Q331 878 316.5 884.5 Q302 891 289 891 Q276 891 264 882 Q252 873 238 849 L163 849 Q178 911 211 946.5 Q244 982 283 982 Z " />
<glyph glyph-name="Racute" unicode="&#x154;" horiz-adv-x="418" d="M436 401 Q430 363 395 340 Q360 317 303 315 L391 0 L286 0 L197 335 L182 335 L189 188 L160 0 L61 0 L178 749 L403 749 Q435 749 457.5 727.5 Q480 706 478 675 Q478 673 477.5 670 Q477 667 477 665 L436 401 Z M265 670 L221 398 L298 398 Q312 398 325.5 409 Q339 420 341 434 L372 633 Q372 645 367 657.5 Q362 670 346 670 L265 670 Z M372 983 L466 983 L399 884 L312 884 L372 983 Z " />
<glyph glyph-name="Rcaron" unicode="&#x158;" horiz-adv-x="418" d="M436 401 Q430 363 395 340 Q360 317 303 315 L391 0 L286 0 L197 335 L182 335 L189 188 L160 0 L61 0 L178 749 L403 749 Q435 749 457.5 727.5 Q480 706 478 675 Q478 673 477.5 670 Q477 667 477 665 L436 401 Z M265 670 L221 398 L298 398 Q312 398 325.5 409 Q339 420 341 434 L372 633 Q372 645 367 657.5 Q362 670 346 670 L265 670 Z M215 985 L312 985 L348 915 L405 985 L505 985 L384 837 L287 837 L215 985 Z " />
<glyph glyph-name="Rcommaaccent" unicode="&#x156;" horiz-adv-x="418" d="M436 401 Q430 363 395 340 Q360 317 303 315 L391 0 L286 0 L197 335 L182 335 L189 188 L160 0 L61 0 L178 749 L403 749 Q435 749 457.5 727.5 Q480 706 478 675 Q478 673 477.5 670 Q477 667 477 665 L436 401 Z M265 670 L221 398 L298 398 Q312 398 325.5 409 Q339 420 341 434 L372 633 Q372 645 367 657.5 Q362 670 346 670 L265 670 Z M129 -207 L144 -108 L243 -108 L229 -199 Q223 -235 217.5 -261.5 Q212 -288 200 -304.5 Q188 -321 166.5 -329 Q145 -337 108 -337 L116 -290 Q136 -290 148 -285.5 Q160 -281 167 -271 Q174 -261 177.5 -245.5 Q181 -230 184 -207 L129 -207 Z " />
<glyph glyph-name="Sacute" unicode="&#x15a;" horiz-adv-x="421" d="M238 542 Q238 540 237.5 538.5 Q237 537 237 535 Q236 514 249.5 499.5 Q263 485 283.5 473 Q304 461 328.5 449.5 Q353 438 373.5 423.5 Q394 409 407.5 390.5 Q421 372 420 345 Q418 337 418 333 L379 84 Q376 67 367 51.5 Q358 36 345 24.5 Q332 13 315.5 6.5 Q299 0 281 0 L139 0 Q124 0 110.5 6 Q97 12 87 22.5 Q77 33 71 46.5 Q65 60 65 76 Q65 78 65.5 80 Q66 82 66 84 L86 211 L186 211 L172 117 Q171 103 178 91.5 Q185 80 199 80 L243 80 Q257 80 270.5 91.5 Q284 103 286 117 L313 290 Q313 292 313.5 295 Q314 298 314 300 Q315 326 301.5 343 Q288 360 268 373 Q248 386 223.5 396.5 Q199 407 179 420.5 Q159 434 145.5 452.5 Q132 471 133 499 L159 665 Q164 700 190.5 724.5 Q217 749 258 749 L398 749 Q430 749 452 727.5 Q474 706 472 675 Q472 673 471.5 670 Q471 667 471 665 L455 563 L356 563 L367 633 Q367 645 361 657.5 Q355 670 329 670 L293 670 Q279 670 267 658 Q255 646 253 632 L238 542 Z M385 983 L479 983 L412 884 L325 884 L385 983 Z " />
<glyph glyph-name="Scaron" unicode="&#x160;" horiz-adv-x="392" d="M228 542 Q228 540 227.5 538.5 Q227 537 227 535 Q226 514 239.5 499.5 Q253 485 273.5 473 Q294 461 318.5 449.5 Q343 438 363.5 423.5 Q384 409 397.5 390.5 Q411 372 410 345 Q408 337 408 333 L369 84 Q366 67 357 51.5 Q348 36 335 24.5 Q322 13 305.5 6.5 Q289 0 271 0 L129 0 Q114 0 100.5 6 Q87 12 77 22.5 Q67 33 61 46.5 Q55 60 55 76 Q55 78 55.5 80 Q56 82 56 84 L76 211 L176 211 L162 117 Q161 103 168 91.5 Q175 80 189 80 L233 80 Q247 80 260.5 91.5 Q274 103 276 117 L303 290 Q303 292 303.5 295 Q304 298 304 300 Q305 326 291.5 343 Q278 360 258 373 Q238 386 213.5 396.5 Q189 407 169 420.5 Q149 434 135.5 452.5 Q122 471 123 499 L149 665 Q154 700 180.5 724.5 Q207 749 248 749 L388 749 Q420 749 442 727.5 Q464 706 462 675 Q462 673 461.5 670 Q461 667 461 665 L445 563 L346 563 L357 633 Q357 645 351 657.5 Q345 670 319 670 L283 670 Q269 670 257 658 Q245 646 243 632 L228 542 Z M202 984 L299 984 L335 914 L392 984 L492 984 L371 836 L274 836 L202 984 Z " />
<glyph glyph-name="Scedilla" unicode="&#x15e;" horiz-adv-x="392" d="M228 542 Q228 540 227.5 538.5 Q227 537 227 535 Q226 514 239.5 499.5 Q253 485 273.5 473 Q294 461 318.5 449.5 Q343 438 363.5 423.5 Q384 409 397.5 390.5 Q411 372 410 345 Q408 337 408 333 L369 84 Q366 67 357 51.5 Q348 36 335 24.5 Q322 13 305.5 6.5 Q289 0 271 0 L129 0 Q114 0 100.5 6 Q87 12 77 22.5 Q67 33 61 46.5 Q55 60 55 76 Q55 78 55.5 80 Q56 82 56 84 L76 211 L176 211 L162 117 Q161 103 168 91.5 Q175 80 189 80 L233 80 Q247 80 260.5 91.5 Q274 103 276 117 L303 290 Q303 292 303.5 295 Q304 298 304 300 Q305 326 291.5 343 Q278 360 258 373 Q238 386 213.5 396.5 Q189 407 169 420.5 Q149 434 135.5 452.5 Q122 471 123 499 L149 665 Q154 700 180.5 724.5 Q207 749 248 749 L388 749 Q420 749 442 727.5 Q464 706 462 675 Q462 673 461.5 670 Q461 667 461 665 L445 563 L346 563 L357 633 Q357 645 351 657.5 Q345 670 319 670 L283 670 Q269 670 257 658 Q245 646 243 632 L228 542 Z M121 -138 Q163 -137 180 -118 Q197 -99 198 -72 Q199 -43 182 0 L211 0 Q231 -20 243.5 -53 Q256 -86 254 -116 Q254 -136 247 -154.5 Q240 -173 225.5 -187 Q211 -201 189 -209.5 Q167 -218 136 -218 Q125 -218 112 -217 Q99 -216 82 -212 L121 -138 Z " />
<glyph glyph-name="Scircumflex" unicode="&#x15c;" horiz-adv-x="392" d="M243 632 Q245 646 257 658 Q269 670 283 670 L319 670 Q345 670 351 657.5 Q357 645 357 633 L346 563 L445 563 L461 665 Q461 667 461.5 670 Q462 673 462 675 Q464 706 442 727.5 Q420 749 388 749 L248 749 Q207 749 180.5 724.5 Q154 700 149 665 L123 499 Q122 471 135.5 452.5 Q149 434 169 420.5 Q189 407 213.5 396.5 Q238 386 258 373 Q278 360 291.5 343 Q305 326 304 300 Q304 298 303.5 295 Q303 292 303 290 L276 117 Q274 103 260.5 91.5 Q247 80 233 80 L189 80 Q175 80 168 91.5 Q161 103 162 117 L176 211 L76 211 L56 84 Q56 82 55.5 80 Q55 78 55 76 Q55 60 61 46.5 Q67 33 77 22.5 Q87 12 100.5 6 Q114 0 129 0 L271 0 Q289 0 305.5 6.5 Q322 13 335 24.5 Q348 36 357 51.5 Q366 67 369 84 L408 333 Q408 337 410 345 Q411 372 397.5 390.5 Q384 409 363.5 423.5 Q343 438 318.5 449.5 Q294 461 273.5 473 Q253 485 239.5 499.5 Q226 514 227 535 Q227 537 227.5 538.5 Q228 540 228 542 L243 632 Z M299 983 L396 983 L469 835 L371 835 L336 905 L279 835 L179 835 L299 983 Z " />
<glyph glyph-name="Scommaaccent" unicode="&#x218;" horiz-adv-x="392" d="M228 542 Q228 540 227.5 538.5 Q227 537 227 535 Q226 514 239.5 499.5 Q253 485 273.5 473 Q294 461 318.5 449.5 Q343 438 363.5 423.5 Q384 409 397.5 390.5 Q411 372 410 345 Q408 337 408 333 L369 84 Q366 67 357 51.5 Q348 36 335 24.5 Q322 13 305.5 6.5 Q289 0 271 0 L129 0 Q114 0 100.5 6 Q87 12 77 22.5 Q67 33 61 46.5 Q55 60 55 76 Q55 78 55.5 80 Q56 82 56 84 L76 211 L176 211 L162 117 Q161 103 168 91.5 Q175 80 189 80 L233 80 Q247 80 260.5 91.5 Q274 103 276 117 L303 290 Q303 292 303.5 295 Q304 298 304 300 Q305 326 291.5 343 Q278 360 258 373 Q238 386 213.5 396.5 Q189 407 169 420.5 Q149 434 135.5 452.5 Q122 471 123 499 L149 665 Q154 700 180.5 724.5 Q207 749 248 749 L388 749 Q420 749 442 727.5 Q464 706 462 675 Q462 673 461.5 670 Q461 667 461 665 L445 563 L346 563 L357 633 Q357 645 351 657.5 Q345 670 319 670 L283 670 Q269 670 257 658 Q245 646 243 632 L228 542 Z M111 -231 L126 -132 L225 -132 L209 -231 Q203 -264 198 -288 Q193 -312 181 -328.5 Q169 -345 148 -353 Q127 -361 90 -361 L97 -314 Q117 -314 129 -309.5 Q141 -305 147.5 -295.5 Q154 -286 158 -270 Q162 -254 166 -231 L111 -231 Z " />
<glyph glyph-name="Tbar" unicode="&#x166;" horiz-adv-x="382" d="M153 749 L464 749 L448 650 L342 650 L324 539 L407 539 L391 440 L309 440 L241 0 L142 0 L210 440 L144 440 L160 539 L225 539 L243 650 L137 650 L153 749 Z " />
<glyph glyph-name="Tcaron" unicode="&#x164;" horiz-adv-x="382" d="M153 749 L464 749 L448 650 L342 650 L241 0 L142 0 L243 650 L137 650 L153 749 Z M197 985 L294 985 L330 915 L387 985 L487 985 L366 837 L269 837 L197 985 Z " />
<glyph glyph-name="Tcommaaccent" unicode="&#x162;" horiz-adv-x="382" d="M158 749 L469 749 L453 650 L347 650 L246 0 L147 0 L248 650 L142 650 L158 749 Z M111 -205 L126 -106 L225 -106 L211 -197 Q205 -233 199.5 -259.5 Q194 -286 182 -302.5 Q170 -319 148.5 -327 Q127 -335 90 -335 L98 -288 Q118 -288 130 -283.5 Q142 -279 149 -269 Q156 -259 159.5 -243.5 Q163 -228 166 -205 L111 -205 Z " />
<glyph glyph-name="Uacute" unicode="&#xda;" horiz-adv-x="418" d="M274 749 L175 117 Q174 103 180.5 91.5 Q187 80 202 80 L246 80 Q260 80 273.5 91.5 Q287 103 289 117 L388 749 L487 749 L382 84 Q379 67 370 51.5 Q361 36 348 24.5 Q335 13 318.5 6.5 Q302 0 284 0 L143 0 Q107 0 87.5 25 Q68 50 69 84 L174 749 L274 749 Z M363 983 L457 983 L390 884 L303 884 L363 983 Z " />
<glyph glyph-name="Ubreve" unicode="&#x16c;" horiz-adv-x="418" d="M274 749 L175 117 Q174 103 180.5 91.5 Q187 80 202 80 L246 80 Q260 80 273.5 91.5 Q287 103 289 117 L388 749 L487 749 L382 84 Q379 67 370 51.5 Q361 36 348 24.5 Q335 13 318.5 6.5 Q302 0 284 0 L143 0 Q107 0 87.5 25 Q68 50 69 84 L174 749 L274 749 Z M532 979 L526 949 Q523 931 514 915.5 Q505 900 491.5 888.5 Q478 877 461.5 870.5 Q445 864 427 864 L285 864 Q253 864 232 885 Q211 906 212 938 Q212 941 213 947 Q214 953 219 979 L318 979 Q318 964 325 954 Q332 944 345 944 L382 944 Q402 944 415 954.5 Q428 965 433 979 L532 979 Z " />
<glyph glyph-name="Ucircumflex" unicode="&#xdb;" horiz-adv-x="418" d="M174 749 L69 84 Q68 50 87.5 25 Q107 0 143 0 L284 0 Q302 0 318.5 6.5 Q335 13 348 24.5 Q361 36 370 51.5 Q379 67 382 84 L487 749 L388 749 L289 117 Q287 103 273.5 91.5 Q260 80 246 80 L202 80 Q187 80 180.5 91.5 Q174 103 175 117 L274 749 L174 749 Z M311 983 L408 983 L481 835 L383 835 L348 905 L291 835 L191 835 L311 983 Z " />
<glyph glyph-name="Udieresis" unicode="&#xdc;" horiz-adv-x="418" d="M274 749 L175 117 Q174 103 180.5 91.5 Q187 80 202 80 L246 80 Q260 80 273.5 91.5 Q287 103 289 117 L388 749 L487 749 L382 84 Q379 67 370 51.5 Q361 36 348 24.5 Q335 13 318.5 6.5 Q302 0 284 0 L143 0 Q107 0 87.5 25 Q68 50 69 84 L174 749 L274 749 Z M187 914 Q188 940 208.5 960.5 Q229 981 257 981 Q280 981 294 967 Q308 953 307 931 Q306 903 285.5 883 Q265 863 237 863 Q214 863 200 877.5 Q186 892 187 914 Z M395 914 Q396 940 417 960.5 Q438 981 466 981 Q488 981 502.5 967 Q517 953 516 931 Q516 917 509.5 904.5 Q503 892 493.5 883 Q484 874 471.5 868.5 Q459 863 446 863 Q423 863 408.5 877.5 Q394 892 395 914 Z " />
<glyph glyph-name="Ugrave" unicode="&#xd9;" horiz-adv-x="418" d="M274 749 L175 117 Q174 103 180.5 91.5 Q187 80 202 80 L246 80 Q260 80 273.5 91.5 Q287 103 289 117 L388 749 L487 749 L382 84 Q379 67 370 51.5 Q361 36 348 24.5 Q335 13 318.5 6.5 Q302 0 284 0 L143 0 Q107 0 87.5 25 Q68 50 69 84 L174 749 L274 749 Z M382 885 L296 885 L261 984 L356 984 L382 885 Z " />
<glyph glyph-name="Uhungarumlaut" unicode="&#x170;" horiz-adv-x="418" d="M274 749 L175 117 Q174 103 180.5 91.5 Q187 80 202 80 L246 80 Q260 80 273.5 91.5 Q287 103 289 117 L388 749 L487 749 L382 84 Q379 67 370 51.5 Q361 36 348 24.5 Q335 13 318.5 6.5 Q302 0 284 0 L143 0 Q107 0 87.5 25 Q68 50 69 84 L174 749 L274 749 Z M265 983 L359 983 L292 884 L205 884 L265 983 Z M469 983 L563 983 L496 884 L409 884 L469 983 Z " />
<glyph glyph-name="Umacron" unicode="&#x16a;" horiz-adv-x="418" d="M274 749 L175 117 Q174 103 180.5 91.5 Q187 80 202 80 L246 80 Q260 80 273.5 91.5 Q287 103 289 117 L388 749 L487 749 L382 84 Q379 67 370 51.5 Q361 36 348 24.5 Q335 13 318.5 6.5 Q302 0 284 0 L143 0 Q107 0 87.5 25 Q68 50 69 84 L174 749 L274 749 Z M219 981 L509 981 L495 897 L205 897 L219 981 Z " />
<glyph glyph-name="Uogonek" unicode="&#x172;" horiz-adv-x="418" d="M274 749 L175 117 Q174 103 180.5 91.5 Q187 80 202 80 L246 80 Q260 80 273.5 91.5 Q287 103 289 117 L388 749 L487 749 L382 84 Q379 67 370 51.5 Q361 36 348 24.5 Q335 13 318.5 6.5 Q302 0 284 0 L143 0 Q107 0 87.5 25 Q68 50 69 84 L174 749 L274 749 Z M266 -208 Q252 -214 238 -215.5 Q224 -217 212 -217 Q161 -217 139.5 -195 Q118 -173 120 -141 Q120 -125 127.5 -105.5 Q135 -86 147 -66.5 Q159 -47 174.5 -29 Q190 -11 207 1 L236 1 Q216 -26 204.5 -49 Q193 -72 192 -89 Q191 -110 205 -123 Q219 -136 253 -137 L266 -208 Z " />
<glyph glyph-name="Uring" unicode="&#x16e;" horiz-adv-x="418" d="M274 749 L175 117 Q174 103 180.5 91.5 Q187 80 202 80 L246 80 Q260 80 273.5 91.5 Q287 103 289 117 L388 749 L487 749 L382 84 Q379 67 370 51.5 Q361 36 348 24.5 Q335 13 318.5 6.5 Q302 0 284 0 L143 0 Q107 0 87.5 25 Q68 50 69 84 L174 749 L274 749 Z M358 872 Q373 872 379.5 878 Q386 884 388 891 L389 906 Q389 914 386 920 Q383 926 375 926 L341 926 Q326 926 319 919.5 Q312 913 311 906 L310 893 Q310 885 312.5 878.5 Q315 872 324 872 L358 872 Z M288 816 Q265 816 255 831.5 Q245 847 245 867 L255 931 Q258 951 276.5 966.5 Q295 982 315 982 L411 982 Q434 982 444.5 966.5 Q455 951 455 931 L445 867 Q443 857 437 847.5 Q431 838 422 831 Q413 824 403 820 Q393 816 384 816 L288 816 Z " />
<glyph glyph-name="Utilde" unicode="&#x168;" horiz-adv-x="418" d="M274 749 L175 117 Q174 103 180.5 91.5 Q187 80 202 80 L246 80 Q260 80 273.5 91.5 Q287 103 289 117 L388 749 L487 749 L382 84 Q379 67 370 51.5 Q361 36 348 24.5 Q335 13 318.5 6.5 Q302 0 284 0 L143 0 Q107 0 87.5 25 Q68 50 69 84 L174 749 L274 749 Z M289 983 Q306 983 320.5 976.5 Q335 970 348.5 962.5 Q362 955 376.5 948.5 Q391 942 409 942 Q421 942 435.5 951 Q450 960 464 983 L538 983 Q523 919 490.5 884.5 Q458 850 416 850 Q400 850 384 856.5 Q368 863 352.5 871 Q337 879 322.5 885.5 Q308 892 295 892 Q282 892 270 883 Q258 874 244 850 L169 850 Q184 912 217 947.5 Q250 983 289 983 Z " />
<glyph glyph-name="Wacute" unicode="&#x1e82;" horiz-adv-x="742" d="M556 338 L538 141 L554 141 L598 338 L750 749 L858 749 L573 0 L479 0 L445 357 L464 554 L448 554 L403 357 L260 0 L165 0 L114 749 L222 749 L244 338 L226 141 L242 141 L286 338 L439 749 L533 749 L556 338 Z M535 984 L629 984 L562 885 L475 885 L535 984 Z " />
<glyph glyph-name="Wcircumflex" unicode="&#x174;" horiz-adv-x="742" d="M556 338 L538 141 L554 141 L598 338 L750 749 L858 749 L573 0 L479 0 L445 357 L464 554 L448 554 L403 357 L260 0 L165 0 L114 749 L222 749 L244 338 L226 141 L242 141 L286 338 L439 749 L533 749 L556 338 Z M474 984 L571 984 L644 836 L546 836 L511 906 L454 836 L354 836 L474 984 Z " />
<glyph glyph-name="Wdieresis" unicode="&#x1e84;" horiz-adv-x="742" d="M556 338 L538 141 L554 141 L598 338 L750 749 L858 749 L573 0 L479 0 L445 357 L464 554 L448 554 L403 357 L260 0 L165 0 L114 749 L222 749 L244 338 L226 141 L242 141 L286 338 L439 749 L533 749 L556 338 Z M350 915 Q351 941 371.5 961.5 Q392 982 420 982 Q443 982 457 968 Q471 954 470 932 Q469 904 448.5 884 Q428 864 400 864 Q377 864 363 878.5 Q349 893 350 915 Z M558 915 Q559 941 580 961.5 Q601 982 629 982 Q651 982 665.5 968 Q680 954 679 932 Q679 918 672.5 905.5 Q666 893 656.5 884 Q647 875 634.5 869.5 Q622 864 609 864 Q586 864 571.5 878.5 Q557 893 558 915 Z " />
<glyph glyph-name="Wgrave" unicode="&#x1e80;" horiz-adv-x="742" d="M556 338 L538 141 L554 141 L598 338 L750 749 L858 749 L573 0 L479 0 L445 357 L464 554 L448 554 L403 357 L260 0 L165 0 L114 749 L222 749 L244 338 L226 141 L242 141 L286 338 L439 749 L533 749 L556 338 Z M530 885 L444 885 L409 984 L504 984 L530 885 Z " />
<glyph glyph-name="Yacute" unicode="&#xdd;" horiz-adv-x="421" d="M261 391 L277 391 L303 505 L399 749 L498 749 L294 233 L258 0 L158 0 L194 233 L152 749 L251 749 L271 505 L261 391 Z M371 984 L465 984 L398 885 L311 885 L371 984 Z " />
<glyph glyph-name="Ycircumflex" unicode="&#x176;" horiz-adv-x="420" d="M273 505 L253 749 L154 749 L196 233 L160 0 L260 0 L296 233 L500 749 L401 749 L305 505 L279 391 L263 391 L273 505 Z M310 983 L407 983 L480 835 L382 835 L347 905 L290 835 L190 835 L310 983 Z " />
<glyph glyph-name="Ydieresis" unicode="&#x178;" horiz-adv-x="421" d="M261 391 L277 391 L303 505 L399 749 L498 749 L294 233 L258 0 L158 0 L194 233 L152 749 L251 749 L271 505 L261 391 Z M179 915 Q180 941 200.5 961.5 Q221 982 249 982 Q272 982 286 968 Q300 954 299 932 Q298 904 277.5 884 Q257 864 229 864 Q206 864 192 878.5 Q178 893 179 915 Z M387 915 Q388 941 409 961.5 Q430 982 458 982 Q480 982 494.5 968 Q509 954 508 932 Q508 918 501.5 905.5 Q495 893 485.5 884 Q476 875 463.5 869.5 Q451 864 438 864 Q415 864 400.5 878.5 Q386 893 387 915 Z " />
<glyph glyph-name="Ygrave" unicode="&#x1ef2;" horiz-adv-x="421" d="M261 391 L277 391 L303 505 L399 749 L498 749 L294 233 L258 0 L158 0 L194 233 L152 749 L251 749 L271 505 L261 391 Z M364 886 L278 886 L243 985 L338 985 L364 886 Z " />
<glyph glyph-name="Zacute" unicode="&#x179;" horiz-adv-x="386" d="M157 749 L469 749 L453 650 Q451 636 444 625 L150 99 L367 99 L352 0 L41 0 L55 97 Q58 113 64 124 L359 650 L141 650 L157 749 Z M370 984 L464 984 L397 885 L310 885 L370 984 Z " />
<glyph glyph-name="Zcaron" unicode="&#x17d;" horiz-adv-x="386" d="M157 749 L469 749 L453 650 Q451 636 444 625 L150 99 L367 99 L352 0 L41 0 L55 97 Q58 113 64 124 L359 650 L141 650 L157 749 Z M199 984 L296 984 L332 914 L389 984 L489 984 L368 836 L271 836 L199 984 Z " />
<glyph glyph-name="Zdotaccent" unicode="&#x17b;" horiz-adv-x="386" d="M157 749 L469 749 L453 650 Q451 636 444 625 L150 99 L367 99 L352 0 L41 0 L55 97 Q58 113 64 124 L359 650 L141 650 L157 749 Z M293 920 Q293 932 299 944 Q305 956 315 965.5 Q325 975 337.5 980.5 Q350 986 363 986 Q386 986 400 972 Q414 958 413 936 Q412 908 391.5 888 Q371 868 343 868 Q321 868 306.5 882.5 Q292 897 293 920 Z " />
<glyph glyph-name="Asmall" unicode="&#xf761;" horiz-adv-x="442" d="M313 85 L153 85 L114 0 L2 0 L255 540 L355 540 L440 0 L329 0 L313 85 Z M202 185 L296 185 L282 270 L297 438 L281 438 L244 270 L202 185 Z " />
<glyph glyph-name="Bsmall" unicode="&#xf762;" horiz-adv-x="416" d="M144 540 L376 540 Q408 540 429.5 519 Q451 498 450 466 Q450 463 449 460 Q448 457 448 455 L435 371 Q433 351 416.5 330.5 Q400 310 372 290 Q395 270 403 250.5 Q411 231 410 211 L390 85 Q387 67 378 51.5 Q369 36 356 24.5 Q343 13 326.5 6.5 Q310 0 292 0 L60 0 L144 540 Z M173 83 L253 83 Q269 83 280.5 94 Q292 105 294 119 L310 227 Q311 242 304 253 Q297 264 280 264 L202 264 L173 83 Z M293 346 Q308 346 321 357 Q334 368 336 383 L341 421 Q342 432 337 444 Q332 456 316 456 L231 456 L215 346 L293 346 Z " />
<glyph glyph-name="Csmall" unicode="&#xf763;" horiz-adv-x="407" d="M396 184 L380 85 Q377 67 368 51.5 Q359 36 345.5 24.5 Q332 13 315.5 6.5 Q299 0 281 0 L137 0 Q104 0 82.5 21 Q61 42 62 74 Q62 81 63 85 L121 455 Q124 473 133 488.5 Q142 504 155.5 515.5 Q169 527 186 533.5 Q203 540 221 540 L365 540 Q398 540 419.5 519 Q441 498 440 466 Q440 463 439 460 Q438 457 438 455 L420 339 L318 339 L331 421 Q332 433 327 444.5 Q322 456 305 456 L252 456 Q237 456 228 444.5 Q219 433 217 421 L170 119 Q169 105 174.5 95 Q180 85 194 83 L243 83 Q258 83 270 94 Q282 105 284 119 L294 184 L396 184 Z " />
<glyph glyph-name="Dsmall" unicode="&#xf764;" horiz-adv-x="415" d="M144 540 L375 540 Q410 540 431.5 515 Q453 490 447 455 L389 85 Q386 67 377 51.5 Q368 36 355 24.5 Q342 13 325.5 6.5 Q309 0 291 0 L60 0 L144 540 Z M340 422 Q342 435 336.5 446.5 Q331 458 316 458 L232 458 L173 83 L252 83 Q268 83 279.5 94 Q291 105 293 119 L340 422 Z " />
<glyph glyph-name="Esmall" unicode="&#xf765;" horiz-adv-x="412" d="M144 540 L462 540 L447 440 L230 440 L210 317 L395 317 L379 217 L194 217 L176 101 L393 101 L378 0 L60 0 L144 540 Z " />
<glyph glyph-name="Fsmall" unicode="&#xf766;" horiz-adv-x="406" d="M144 540 L462 540 L446 439 L229 439 L208 307 L393 307 L378 206 L193 206 L161 0 L60 0 L144 540 Z " />
<glyph glyph-name="Gsmall" unicode="&#xf767;" horiz-adv-x="409" d="M137 0 Q104 0 82.5 21 Q61 42 62 74 Q62 81 63 85 L121 455 Q124 473 133 488.5 Q142 504 155.5 515.5 Q169 527 186 533.5 Q203 540 221 540 L365 540 Q398 540 419.5 519 Q441 498 440 466 Q440 463 439 460 Q438 457 438 455 L420 339 L318 339 L331 421 Q332 433 327 444.5 Q322 456 305 456 L252 456 Q237 456 228 444.5 Q219 433 217 421 L170 119 Q169 105 174.5 95 Q180 85 194 83 L241 83 Q255 83 268 92.5 Q281 102 284 119 L293 173 L253 173 L264 252 L406 252 L368 0 L291 0 L276 33 Q262 19 247.5 9.5 Q233 0 221 0 L137 0 Z " />
<glyph glyph-name="Hsmall" unicode="&#xf768;" horiz-adv-x="426" d="M299 208 L184 208 L152 0 L52 0 L136 540 L236 540 L199 308 L314 308 L351 540 L452 540 L368 0 L267 0 L299 208 Z " />
<glyph glyph-name="Ismall" unicode="&#xf769;" horiz-adv-x="221" d="M147 540 L248 540 L164 0 L63 0 L147 540 Z " />
<glyph glyph-name="Jsmall" unicode="&#xf76a;" horiz-adv-x="359" d="M124 184 L114 119 Q113 105 120.5 94 Q128 83 144 83 L193 83 Q206 83 217 94 Q228 105 230 119 L296 540 L397 540 L325 85 Q322 67 313 51.5 Q304 36 291 24.5 Q278 13 261.5 6.5 Q245 0 227 0 L82 0 Q49 0 27.5 21 Q6 42 7 74 Q7 81 8 85 L24 184 L124 184 Z " />
<glyph glyph-name="Ksmall" unicode="&#xf76b;" horiz-adv-x="372" d="M237 -1 L178 228 L162 228 L170 83 L158 0 L60 0 L144 540 L242 540 L227 442 L175 306 L191 306 L325 540 L428 540 L268 267 L340 -1 L237 -1 Z " />
<glyph glyph-name="Lsmall" unicode="&#xf76c;" horiz-adv-x="400" d="M176 101 L393 101 L378 0 L60 0 L144 540 L245 540 L176 101 Z " />
<glyph glyph-name="Msmall" unicode="&#xf76d;" horiz-adv-x="499" d="M226 0 L191 362 L177 362 L176 214 L143 0 L42 0 L126 540 L240 540 L273 308 L270 159 L278 159 L321 308 L428 540 L542 540 L458 0 L357 0 L390 214 L435 362 L421 362 L274 0 L226 0 Z " />
<glyph glyph-name="Nsmall" unicode="&#xf76e;" horiz-adv-x="426" d="M378 1 L266 1 L209 369 L196 369 L195 220 L161 1 L60 1 L144 540 L259 540 L311 171 L325 171 L328 320 L362 540 L462 540 L378 1 Z " />
<glyph glyph-name="Osmall" unicode="&#xf76f;" horiz-adv-x="406" d="M137 0 Q105 0 83.5 20.5 Q62 41 62 72 Q62 80 63 85 L121 455 Q124 473 133 488.5 Q142 504 155.5 515.5 Q169 527 186 533.5 Q203 540 221 540 L365 540 Q397 540 418.5 519.5 Q440 499 440 468 Q440 464 439 460.5 Q438 457 438 455 L380 85 Q374 49 345.5 24.5 Q317 0 281 0 L137 0 Z M259 458 Q244 458 231.5 446.5 Q219 435 217 421 L170 118 Q170 106 176.5 94.5 Q183 83 200 83 L243 83 Q258 83 270 94 Q282 105 284 119 L331 422 Q331 436 326 447 Q321 458 295 458 L259 458 Z " />
<glyph glyph-name="Psmall" unicode="&#xf770;" horiz-adv-x="397" d="M144 540 L373 540 Q405 540 426.5 519.5 Q448 499 448 468 Q448 464 447 460.5 Q446 457 446 455 L423 303 Q420 285 410 269 Q400 253 386 242 Q372 231 355.5 224.5 Q339 218 322 218 L194 218 L161 0 L60 0 L144 540 Z M232 458 L207 300 L285 300 Q299 300 311.5 311 Q324 322 326 337 L339 422 Q339 436 335.5 447 Q332 458 315 458 L232 458 Z " />
<glyph glyph-name="Qsmall" unicode="&#xf771;" horiz-adv-x="406" d="M260 461 Q243 461 231 449.5 Q219 438 217 422 L170 118 Q170 106 176.5 94.5 Q183 83 200 83 L243 83 Q258 83 270 94 Q282 105 284 119 L332 425 Q332 439 327 450 Q322 461 296 461 L260 461 Z M284 -158 L219 -158 Q183 -158 164 -136.5 Q145 -115 145 -80 Q145 -75 146 -72 L158 0 L137 0 Q105 0 83.5 20.5 Q62 41 62 72 Q62 80 63 85 L121 455 Q124 473 133 488.5 Q142 504 155.5 515.5 Q169 527 186 533.5 Q203 540 221 540 L365 540 Q397 540 418.5 519.5 Q440 499 440 468 Q440 464 439 460.5 Q438 457 438 455 L380 85 Q374 49 345.5 24.5 Q317 0 281 0 L260 0 L253 -39 Q253 -53 260.5 -64.5 Q268 -76 282 -76 L297 -76 L284 -158 Z " />
<glyph glyph-name="Rsmall" unicode="&#xf772;" horiz-adv-x="378" d="M145 540 L354 540 Q386 540 407.5 519.5 Q429 499 429 468 Q429 464 428 460.5 Q427 457 427 455 L404 303 Q402 289 391.5 275 Q381 261 365.5 249 Q350 237 332 228 Q314 219 296 214 L351 0 L253 0 L193 227 L179 227 L179 118 L161 0 L61 0 L145 540 Z M232 458 L207 300 L255 300 Q261 300 269.5 301.5 Q278 303 286 307 Q294 311 300 318.5 Q306 326 308 337 L321 422 Q321 434 316.5 446 Q312 458 296 458 L232 458 Z " />
<glyph glyph-name="Ssmall" unicode="&#xf773;" horiz-adv-x="388" d="M206 401 Q204 397 204 389 Q204 364 217.5 349 Q231 334 251.5 323.5 Q272 313 295.5 305 Q319 297 339.5 284.5 Q360 272 373.5 252 Q387 232 387 200 Q387 195 387 188.5 Q387 182 386 175 L371 85 Q365 49 337 24.5 Q309 0 272 0 L128 0 Q96 0 74.5 21.5 Q53 43 53 73 Q53 80 54 85 L69 174 L170 174 L161 118 Q161 106 167.5 94.5 Q174 83 191 83 L234 83 Q249 83 261 94 Q273 105 275 119 L280 154 Q280 156 280.5 158.5 Q281 161 281 164 Q281 187 267.5 202.5 Q254 218 233 229 Q212 240 188.5 249.5 Q165 259 144 270.5 Q123 282 109.5 298 Q96 314 96 338 Q96 341 96.5 344 Q97 347 98 351 L113 456 Q116 474 125 489.5 Q134 505 147.5 516.5 Q161 528 178 534.5 Q195 541 213 541 L356 541 Q394 541 411.5 517 Q429 493 429 462 Q429 457 428.5 453.5 Q428 450 428 445 L420 392 L318 392 L323 424 Q323 436 318 448 Q313 460 287 460 L251 460 Q237 460 223.5 448.5 Q210 437 208 422 L206 401 Z " />
<glyph glyph-name="Tsmall" unicode="&#xf774;" horiz-adv-x="382" d="M124 541 L440 541 L425 440 L317 440 L248 0 L149 0 L218 440 L109 440 L124 541 Z " />
<glyph glyph-name="Usmall" unicode="&#xf775;" horiz-adv-x="418" d="M242 541 L176 118 Q176 106 182.5 94.5 Q189 83 205 83 L249 83 Q264 83 276 94 Q288 105 290 119 L356 541 L458 541 L386 85 Q380 49 351.5 24.5 Q323 0 287 0 L143 0 Q111 0 89.5 20.5 Q68 41 68 72 Q68 80 69 85 L141 541 L242 541 Z " />
<glyph glyph-name="Vsmall" unicode="&#xf776;" horiz-adv-x="442" d="M411 540 L526 540 L273 0 L173 0 L88 540 L196 540 L242 270 L226 102 L242 102 L280 270 L411 540 Z " />
<glyph glyph-name="Wsmall" unicode="&#xf777;" horiz-adv-x="804" d="M542 541 L578 252 L570 123 L585 123 L617 252 L749 541 L868 541 L618 0 L495 0 L464 252 L474 406 L457 406 L416 252 L309 0 L187 0 L104 541 L223 541 L264 252 L256 123 L272 123 L302 252 L432 541 L542 541 Z " />
<glyph glyph-name="Xsmall" unicode="&#xf778;" horiz-adv-x="417" d="M288 407 L369 541 L475 541 L348 319 L393 0 L285 0 L253 162 L259 251 L240 251 L218 162 L138 0 L26 0 L171 319 L112 541 L218 541 L257 407 L252 331 L269 331 L288 407 Z " />
<glyph glyph-name="Ysmall" unicode="&#xf779;" horiz-adv-x="421" d="M192 163 L118 541 L222 541 L256 386 L245 268 L264 268 L290 386 L374 541 L481 541 L293 170 L268 0 L167 0 L192 163 Z " />
<glyph glyph-name="Zsmall" unicode="&#xf77a;" horiz-adv-x="386" d="M161 101 L372 101 L357 0 L41 0 L56 98 Q57 106 59 113.5 Q61 121 65 126 L321 440 L109 440 L124 541 L440 541 L425 443 Q423 434 421.5 427 Q420 420 416 415 L161 101 Z " />
<glyph glyph-name="Aacutesmall" unicode="&#xf7e1;" horiz-adv-x="442" d="M313 85 L153 85 L114 0 L2 0 L255 540 L355 540 L440 0 L329 0 L313 85 Z M202 185 L296 185 L282 270 L297 438 L281 438 L244 270 L202 185 Z M344 774 L438 774 L371 675 L284 675 L344 774 Z " />
<glyph glyph-name="Acircumflexsmall" unicode="&#xf7e2;" horiz-adv-x="442" d="M329 0 L440 0 L355 540 L255 540 L2 0 L114 0 L153 85 L313 85 L329 0 Z M244 270 L281 438 L297 438 L282 270 L296 185 L202 185 L244 270 Z M292 774 L389 774 L462 626 L364 626 L329 696 L272 626 L172 626 L292 774 Z " />
<glyph glyph-name="Adieresissmall" unicode="&#xf7e4;" horiz-adv-x="442" d="M313 85 L153 85 L114 0 L2 0 L255 540 L355 540 L440 0 L329 0 L313 85 Z M202 185 L296 185 L282 270 L297 438 L281 438 L244 270 L202 185 Z M171 708 Q172 734 192.5 754.5 Q213 775 241 775 Q264 775 278 761 Q292 747 291 725 Q290 697 269.5 677 Q249 657 221 657 Q198 657 184 671.5 Q170 686 171 708 Z M379 708 Q380 734 401 754.5 Q422 775 450 775 Q472 775 486.5 761 Q501 747 500 725 Q500 711 493.5 698.5 Q487 686 477.5 677 Q468 668 455.5 662.5 Q443 657 430 657 Q407 657 392.5 671.5 Q378 686 379 708 Z " />
<glyph glyph-name="Aringsmall" unicode="&#xf7e5;" horiz-adv-x="442" d="M310 85 L150 85 L111 0 L-1 0 L252 540 L352 540 L437 0 L326 0 L310 85 Z M199 185 L293 185 L279 270 L294 438 L278 438 L241 270 L199 185 Z M317 542 Q332 542 338.5 548 Q345 554 347 561 L348 576 Q348 584 345 590 Q342 596 334 596 L300 596 Q285 596 278 589.5 Q271 583 270 576 L269 563 Q269 555 271.5 548.5 Q274 542 283 542 L317 542 Z M247 486 Q224 486 214 501.5 Q204 517 204 537 L214 601 Q217 621 235.5 636.5 Q254 652 274 652 L370 652 Q393 652 403.5 636.5 Q414 621 414 601 L404 537 Q402 527 396 517.5 Q390 508 381 501 Q372 494 362 490 Q352 486 343 486 L247 486 Z " />
<glyph glyph-name="Atildesmall" unicode="&#xf7e3;" horiz-adv-x="442" d="M313 85 L153 85 L114 0 L2 0 L255 540 L355 540 L440 0 L329 0 L313 85 Z M202 185 L296 185 L282 270 L297 438 L281 438 L244 270 L202 185 Z M256 773 Q273 773 287.5 766.5 Q302 760 315.5 752.5 Q329 745 343.5 738.5 Q358 732 376 732 Q388 732 402.5 741 Q417 750 431 773 L505 773 Q490 709 457.5 674.5 Q425 640 383 640 Q367 640 351 646.5 Q335 653 319.5 661 Q304 669 289.5 675.5 Q275 682 262 682 Q249 682 237 673 Q225 664 211 640 L136 640 Q151 702 184 737.5 Q217 773 256 773 Z " />
<glyph glyph-name="Agravesmall" unicode="&#xf7e0;" horiz-adv-x="442" d="M313 85 L153 85 L114 0 L2 0 L255 540 L355 540 L440 0 L329 0 L313 85 Z M202 185 L296 185 L282 270 L297 438 L281 438 L244 270 L202 185 Z M344 676 L258 676 L223 775 L318 775 L344 676 Z " />
<glyph glyph-name="AEsmall" unicode="&#xf7e6;" horiz-adv-x="600" d="M244 74 L155 74 L125 0 L13 0 L266 540 L635 540 L619 439 L401 439 L382 317 L568 317 L552 217 L366 217 L348 101 L566 101 L551 0 L233 0 L244 74 Z M190 156 L257 156 L278 290 L309 425 L294 425 L250 296 L190 156 Z " />
<glyph glyph-name="Ccedillasmall" unicode="&#xf7e7;" horiz-adv-x="407" d="M396 184 L380 85 Q377 67 368 51.5 Q359 36 345.5 24.5 Q332 13 315.5 6.5 Q299 0 281 0 L137 0 Q104 0 82.5 21 Q61 42 62 74 Q62 81 63 85 L121 455 Q124 473 133 488.5 Q142 504 155.5 515.5 Q169 527 186 533.5 Q203 540 221 540 L365 540 Q398 540 419.5 519 Q441 498 440 466 Q440 463 439 460 Q438 457 438 455 L420 339 L318 339 L331 421 Q332 433 327 444.5 Q322 456 305 456 L252 456 Q237 456 228 444.5 Q219 433 217 421 L170 119 Q169 105 174.5 95 Q180 85 194 83 L243 83 Q258 83 270 94 Q282 105 284 119 L294 184 L396 184 Z M126 -138 Q168 -137 185 -118 Q202 -99 203 -72 Q204 -43 187 0 L216 0 Q236 -20 248.5 -53 Q261 -86 259 -116 Q259 -136 252 -154.5 Q245 -173 230.5 -187 Q216 -201 194 -209.5 Q172 -218 141 -218 Q130 -218 117 -217 Q104 -216 87 -212 L126 -138 Z " />
<glyph glyph-name="Eacutesmall" unicode="&#xf7e9;" horiz-adv-x="412" d="M144 540 L462 540 L447 440 L230 440 L210 317 L395 317 L379 217 L194 217 L176 101 L393 101 L378 0 L60 0 L144 540 Z M347 774 L441 774 L374 675 L287 675 L347 774 Z " />
<glyph glyph-name="Ecircumflexsmall" unicode="&#xf7ea;" horiz-adv-x="412" d="M60 0 L378 0 L393 101 L176 101 L194 217 L379 217 L395 317 L210 317 L230 440 L447 440 L462 540 L144 540 L60 0 Z M277 774 L374 774 L447 626 L349 626 L314 696 L257 626 L157 626 L277 774 Z " />
<glyph glyph-name="Edieresissmall" unicode="&#xf7eb;" horiz-adv-x="412" d="M144 540 L462 540 L447 440 L230 440 L210 317 L395 317 L379 217 L194 217 L176 101 L393 101 L378 0 L60 0 L144 540 Z M156 708 Q157 734 177.5 754.5 Q198 775 226 775 Q249 775 263 761 Q277 747 276 725 Q275 697 254.5 677 Q234 657 206 657 Q183 657 169 671.5 Q155 686 156 708 Z M364 708 Q365 734 386 754.5 Q407 775 435 775 Q457 775 471.5 761 Q486 747 485 725 Q485 711 478.5 698.5 Q472 686 462.5 677 Q453 668 440.5 662.5 Q428 657 415 657 Q392 657 377.5 671.5 Q363 686 364 708 Z " />
<glyph glyph-name="Egravesmall" unicode="&#xf7e8;" horiz-adv-x="412" d="M144 540 L462 540 L447 440 L230 440 L210 317 L395 317 L379 217 L194 217 L176 101 L393 101 L378 0 L60 0 L144 540 Z M341 676 L255 676 L220 775 L315 775 L341 676 Z " />
<glyph glyph-name="Iacutesmall" unicode="&#xf7ed;" horiz-adv-x="221" d="M147 540 L248 540 L164 0 L63 0 L147 540 Z M230 774 L324 774 L257 675 L170 675 L230 774 Z " />
<glyph glyph-name="Icircumflexsmall" unicode="&#xf7ee;" horiz-adv-x="221" d="M63 0 L164 0 L248 540 L147 540 L63 0 Z M181 774 L278 774 L351 626 L253 626 L218 696 L161 626 L61 626 L181 774 Z " />
<glyph glyph-name="Idieresissmall" unicode="&#xf7ef;" horiz-adv-x="221" d="M147 540 L248 540 L164 0 L63 0 L147 540 Z M60 708 Q61 734 81.5 754.5 Q102 775 130 775 Q153 775 167 761 Q181 747 180 725 Q179 697 158.5 677 Q138 657 110 657 Q87 657 73 671.5 Q59 686 60 708 Z M268 708 Q269 734 290 754.5 Q311 775 339 775 Q361 775 375.5 761 Q390 747 389 725 Q389 711 382.5 698.5 Q376 686 366.5 677 Q357 668 344.5 662.5 Q332 657 319 657 Q296 657 281.5 671.5 Q267 686 268 708 Z " />
<glyph glyph-name="Igravesmall" unicode="&#xf7ec;" horiz-adv-x="221" d="M147 540 L248 540 L164 0 L63 0 L147 540 Z M248 676 L162 676 L127 775 L222 775 L248 676 Z " />
<glyph glyph-name="Lslashsmall" unicode="&#xf6f9;" horiz-adv-x="400" d="M219 368 L311 416 L346 328 L200 252 L177 102 L394 102 L379 0 L62 0 L91 192 L48 169 L13 259 L110 310 L146 540 L246 540 L219 368 Z " />
<glyph glyph-name="Ntildesmall" unicode="&#xf7f1;" horiz-adv-x="426" d="M378 1 L266 1 L209 369 L196 369 L195 220 L161 1 L60 1 L144 540 L259 540 L311 171 L325 171 L328 320 L362 540 L462 540 L378 1 Z M261 773 Q278 773 292.5 766.5 Q307 760 320.5 752.5 Q334 745 348.5 738.5 Q363 732 381 732 Q393 732 407.5 741 Q422 750 436 773 L510 773 Q495 709 462.5 674.5 Q430 640 388 640 Q372 640 356 646.5 Q340 653 324.5 661 Q309 669 294.5 675.5 Q280 682 267 682 Q254 682 242 673 Q230 664 216 640 L141 640 Q156 702 189 737.5 Q222 773 261 773 Z " />
<glyph glyph-name="Oslashsmall" unicode="&#xf7f8;" horiz-adv-x="450" d="M156 0 Q147 0 134 4 Q121 8 107 14 L52 -53 L-43 -53 L83 97 L139 455 Q142 473 151 488.5 Q160 504 174 515.5 Q188 527 205 533.5 Q222 540 240 540 L385 540 Q396 540 410 535 Q424 530 441 519 L483 569 L579 569 L451 419 L398 85 Q392 49 364 24.5 Q336 0 301 0 L156 0 Z M276 458 Q262 458 249.5 446.5 Q237 435 235 421 L188 118 Q188 106 194.5 94.5 Q201 83 217 83 L262 83 Q276 83 289 94 Q302 105 304 119 L351 422 Q351 428 350 434.5 Q349 441 345.5 446 Q342 451 334 454.5 Q326 458 312 458 L276 458 Z " />
<glyph glyph-name="Otildesmall" unicode="&#xf7f5;" horiz-adv-x="406" d="M128 0 Q96 0 74.5 20.5 Q53 41 53 72 Q53 80 54 85 L112 455 Q115 473 124 488.5 Q133 504 146.5 515.5 Q160 527 177 533.5 Q194 540 212 540 L356 540 Q388 540 409.5 519.5 Q431 499 431 468 Q431 464 430 460.5 Q429 457 429 455 L371 85 Q365 49 336.5 24.5 Q308 0 272 0 L128 0 Z M250 458 Q235 458 222.5 446.5 Q210 435 208 421 L161 118 Q161 106 167.5 94.5 Q174 83 191 83 L234 83 Q249 83 261 94 Q273 105 275 119 L322 422 Q322 436 317 447 Q312 458 286 458 L250 458 Z M243 773 Q260 773 274.5 766.5 Q289 760 302.5 752.5 Q316 745 330.5 738.5 Q345 732 363 732 Q375 732 389.5 741 Q404 750 418 773 L492 773 Q477 709 444.5 674.5 Q412 640 370 640 Q354 640 338 646.5 Q322 653 306.5 661 Q291 669 276.5 675.5 Q262 682 249 682 Q236 682 224 673 Q212 664 198 640 L123 640 Q138 702 171 737.5 Q204 773 243 773 Z " />
<glyph glyph-name="Ogravesmall" unicode="&#xf7f2;" horiz-adv-x="406" d="M137 0 Q105 0 83.5 20.5 Q62 41 62 72 Q62 80 63 85 L121 455 Q124 473 133 488.5 Q142 504 155.5 515.5 Q169 527 186 533.5 Q203 540 221 540 L365 540 Q397 540 418.5 519.5 Q440 499 440 468 Q440 464 439 460.5 Q438 457 438 455 L380 85 Q374 49 345.5 24.5 Q317 0 281 0 L137 0 Z M259 458 Q244 458 231.5 446.5 Q219 435 217 421 L170 118 Q170 106 176.5 94.5 Q183 83 200 83 L243 83 Q258 83 270 94 Q282 105 284 119 L331 422 Q331 436 326 447 Q321 458 295 458 L259 458 Z M325 676 L239 676 L204 775 L299 775 L325 676 Z " />
<glyph glyph-name="Odieresissmall" unicode="&#xf7f6;" horiz-adv-x="406" d="M137 0 Q105 0 83.5 20.5 Q62 41 62 72 Q62 80 63 85 L121 455 Q124 473 133 488.5 Q142 504 155.5 515.5 Q169 527 186 533.5 Q203 540 221 540 L365 540 Q397 540 418.5 519.5 Q440 499 440 468 Q440 464 439 460.5 Q438 457 438 455 L380 85 Q374 49 345.5 24.5 Q317 0 281 0 L137 0 Z M259 458 Q244 458 231.5 446.5 Q219 435 217 421 L170 118 Q170 106 176.5 94.5 Q183 83 200 83 L243 83 Q258 83 270 94 Q282 105 284 119 L331 422 Q331 436 326 447 Q321 458 295 458 L259 458 Z M153 708 Q154 734 174.5 754.5 Q195 775 223 775 Q246 775 260 761 Q274 747 273 725 Q272 697 251.5 677 Q231 657 203 657 Q180 657 166 671.5 Q152 686 153 708 Z M361 708 Q362 734 383 754.5 Q404 775 432 775 Q454 775 468.5 761 Q483 747 482 725 Q482 711 475.5 698.5 Q469 686 459.5 677 Q450 668 437.5 662.5 Q425 657 412 657 Q389 657 374.5 671.5 Q360 686 361 708 Z " />
<glyph glyph-name="Ocircumflexsmall" unicode="&#xf7f4;" horiz-adv-x="406" d="M281 0 Q317 0 345.5 24.5 Q374 49 380 85 L438 455 Q438 457 439 460.5 Q440 464 440 468 Q440 499 418.5 519.5 Q397 540 365 540 L221 540 Q203 540 186 533.5 Q169 527 155.5 515.5 Q142 504 133 488.5 Q124 473 121 455 L63 85 Q62 80 62 72 Q62 41 83.5 20.5 Q105 0 137 0 L281 0 Z M295 458 Q321 458 326 447 Q331 436 331 422 L284 119 Q282 105 270 94 Q258 83 243 83 L200 83 Q183 83 176.5 94.5 Q170 106 170 118 L217 421 Q219 435 231.5 446.5 Q244 458 259 458 L295 458 Z M274 774 L371 774 L444 626 L346 626 L311 696 L254 626 L154 626 L274 774 Z " />
<glyph glyph-name="Oacutesmall" unicode="&#xf7f3;" horiz-adv-x="406" d="M137 0 Q105 0 83.5 20.5 Q62 41 62 72 Q62 80 63 85 L121 455 Q124 473 133 488.5 Q142 504 155.5 515.5 Q169 527 186 533.5 Q203 540 221 540 L365 540 Q397 540 418.5 519.5 Q440 499 440 468 Q440 464 439 460.5 Q438 457 438 455 L380 85 Q374 49 345.5 24.5 Q317 0 281 0 L137 0 Z M259 458 Q244 458 231.5 446.5 Q219 435 217 421 L170 118 Q170 106 176.5 94.5 Q183 83 200 83 L243 83 Q258 83 270 94 Q282 105 284 119 L331 422 Q331 436 326 447 Q321 458 295 458 L259 458 Z M331 774 L425 774 L358 675 L271 675 L331 774 Z " />
<glyph glyph-name="OEsmall" unicode="&#xf6fa;" horiz-adv-x="607" d="M351 540 L669 540 L654 440 L437 440 L417 317 L602 317 L586 217 L401 217 L383 101 L600 101 L585 0 L267 0 L351 540 Z M137 0 Q105 0 83.5 20.5 Q62 41 62 72 Q62 80 63 85 L121 455 Q124 473 133 488.5 Q142 504 155.5 515.5 Q169 527 186 533.5 Q203 540 221 540 L365 540 Q397 540 418.5 519.5 Q440 499 440 468 Q440 464 439 460.5 Q438 457 438 455 L380 85 Q374 49 345.5 24.5 Q317 0 281 0 L137 0 Z M259 458 Q244 458 231.5 446.5 Q219 435 217 421 L170 118 Q170 106 176.5 94.5 Q183 83 200 83 L243 83 Q258 83 270 94 Q282 105 284 119 L331 422 Q331 436 326 447 Q321 458 295 458 L259 458 Z " />
<glyph glyph-name="Scaronsmall" unicode="&#xf6fd;" horiz-adv-x="389" d="M206 401 Q204 397 204 389 Q204 364 217.5 349 Q231 334 251.5 323.5 Q272 313 295.5 305 Q319 297 339.5 284.5 Q360 272 373.5 252 Q387 232 387 200 Q387 195 387 188.5 Q387 182 386 175 L371 85 Q365 49 337 24.5 Q309 0 272 0 L128 0 Q96 0 74.5 21.5 Q53 43 53 73 Q53 80 54 85 L69 174 L170 174 L161 118 Q161 106 167.5 94.5 Q174 83 191 83 L234 83 Q249 83 261 94 Q273 105 275 119 L280 154 Q280 156 280.5 158.5 Q281 161 281 164 Q281 187 267.5 202.5 Q254 218 233 229 Q212 240 188.5 249.5 Q165 259 144 270.5 Q123 282 109.5 298 Q96 314 96 338 Q96 341 96.5 344 Q97 347 98 351 L113 456 Q116 474 125 489.5 Q134 505 147.5 516.5 Q161 528 178 534.5 Q195 541 213 541 L356 541 Q394 541 411.5 517 Q429 493 429 462 Q429 457 428.5 453.5 Q428 450 428 445 L420 392 L318 392 L323 424 Q323 436 318 448 Q313 460 287 460 L251 460 Q237 460 223.5 448.5 Q210 437 208 422 L206 401 Z M169 775 L266 775 L302 705 L359 775 L459 775 L338 627 L241 627 L169 775 Z " />
<glyph glyph-name="Ugravesmall" unicode="&#xf7f9;" horiz-adv-x="418" d="M233 541 L167 118 Q167 106 173.5 94.5 Q180 83 196 83 L240 83 Q255 83 267 94 Q279 105 281 119 L347 541 L449 541 L377 85 Q371 49 342.5 24.5 Q314 0 278 0 L134 0 Q102 0 80.5 20.5 Q59 41 59 72 Q59 80 60 85 L132 541 L233 541 Z M338 676 L252 676 L217 775 L312 775 L338 676 Z " />
<glyph glyph-name="Uacutesmall" unicode="&#xf7fa;" horiz-adv-x="418" d="M242 541 L176 118 Q176 106 182.5 94.5 Q189 83 205 83 L249 83 Q264 83 276 94 Q288 105 290 119 L356 541 L458 541 L386 85 Q380 49 351.5 24.5 Q323 0 287 0 L143 0 Q111 0 89.5 20.5 Q68 41 68 72 Q68 80 69 85 L141 541 L242 541 Z M340 774 L434 774 L367 675 L280 675 L340 774 Z " />
<glyph glyph-name="Ucircumflexsmall" unicode="&#xf7fb;" horiz-adv-x="418" d="M141 541 L69 85 Q68 80 68 72 Q68 41 89.5 20.5 Q111 0 143 0 L287 0 Q323 0 351.5 24.5 Q380 49 386 85 L458 541 L356 541 L290 119 Q288 105 276 94 Q264 83 249 83 L205 83 Q189 83 182.5 94.5 Q176 106 176 118 L242 541 L141 541 Z M280 774 L377 774 L450 626 L352 626 L317 696 L260 626 L160 626 L280 774 Z " />
<glyph glyph-name="Udieresissmall" unicode="&#xf7fc;" horiz-adv-x="418" d="M242 541 L176 118 Q176 106 182.5 94.5 Q189 83 205 83 L249 83 Q264 83 276 94 Q288 105 290 119 L356 541 L458 541 L386 85 Q380 49 351.5 24.5 Q323 0 287 0 L143 0 Q111 0 89.5 20.5 Q68 41 68 72 Q68 80 69 85 L141 541 L242 541 Z M159 708 Q160 734 180.5 754.5 Q201 775 229 775 Q252 775 266 761 Q280 747 279 725 Q278 697 257.5 677 Q237 657 209 657 Q186 657 172 671.5 Q158 686 159 708 Z M367 708 Q368 734 389 754.5 Q410 775 438 775 Q460 775 474.5 761 Q489 747 488 725 Q488 711 481.5 698.5 Q475 686 465.5 677 Q456 668 443.5 662.5 Q431 657 418 657 Q395 657 380.5 671.5 Q366 686 367 708 Z " />
<glyph glyph-name="Yacutesmall" unicode="&#xf7fd;" horiz-adv-x="421" d="M192 163 L118 541 L222 541 L256 386 L245 268 L264 268 L290 386 L374 541 L481 541 L293 170 L268 0 L167 0 L192 163 Z M331 774 L425 774 L358 675 L271 675 L331 774 Z " />
<glyph glyph-name="Ydieresissmall" unicode="&#xf7ff;" horiz-adv-x="421" d="M192 163 L118 541 L222 541 L256 386 L245 268 L264 268 L290 386 L374 541 L481 541 L293 170 L268 0 L167 0 L192 163 Z M160 708 Q161 734 181.5 754.5 Q202 775 230 775 Q253 775 267 761 Q281 747 280 725 Q279 697 258.5 677 Q238 657 210 657 Q187 657 173 671.5 Q159 686 160 708 Z M368 708 Q369 734 390 754.5 Q411 775 439 775 Q461 775 475.5 761 Q490 747 489 725 Q489 711 482.5 698.5 Q476 686 466.5 677 Q457 668 444.5 662.5 Q432 657 419 657 Q396 657 381.5 671.5 Q367 686 368 708 Z " />
<glyph glyph-name="Zcaronsmall" unicode="&#xf6ff;" horiz-adv-x="386" d="M161 101 L372 101 L357 0 L41 0 L56 98 Q57 106 59 113.5 Q61 121 65 126 L321 440 L109 440 L124 541 L440 541 L425 443 Q423 434 421.5 427 Q420 420 416 415 L161 101 Z M168 775 L265 775 L301 705 L358 775 L458 775 L337 627 L240 627 L168 775 Z " />
<glyph glyph-name="uni2215" unicode="&#x2215;" horiz-adv-x="483" d="M654 824 L103 1 L8 1 L556 824 L654 824 Z " />
<glyph glyph-name="summation" unicode="&#x2211;" horiz-adv-x="416" d="M357 -33 L346 -113 L43 -113 L57 -24 L309 306 L147 551 L161 643 L464 643 L451 561 L242 561 L407 306 L152 -33 L357 -33 Z " />
<glyph glyph-name="product" unicode="&#x220f;" horiz-adv-x="418" d="M57 0 L174 749 L487 749 L370 0 L271 0 L376 669 L262 669 L157 0 L57 0 Z " />
<glyph glyph-name="uni2206" unicode="&#x2206;" horiz-adv-x="422" d="M-7 0 L279 749 L375 749 L425 0 L-7 0 Z M294 411 L313 608 L296 608 L252 411 L128 80 L313 80 L294 411 Z " />
<glyph glyph-name="trademark" unicode="&#x2122;" horiz-adv-x="885" d="M160 775 L476 775 L461 674 L353 674 L284 234 L185 234 L254 674 L145 674 L160 775 Z M632 235 L597 597 L583 597 L582 449 L549 235 L448 235 L532 775 L646 775 L679 543 L676 394 L684 394 L727 543 L834 775 L948 775 L864 235 L763 235 L796 449 L841 597 L827 597 L680 235 L632 235 Z " />
<glyph glyph-name="ff" unicode="&#xfb00;" horiz-adv-x="584" d="M450 439 L217 439 L149 0 L49 0 L155 676 Q162 721 189.5 747.5 Q217 774 259 774 L387 774 L370 674 L254 674 L233 540 L466 540 L488 676 Q495 721 522.5 747.5 Q550 774 591 774 L719 774 L702 674 L588 674 L567 540 L650 540 L634 439 L551 439 L483 0 L382 0 L450 439 Z " />
<glyph glyph-name="aacute" unicode="&#xe1;" horiz-adv-x="416" d="M170 118 Q170 106 176.5 94.5 Q183 83 200 83 L239 83 Q250 83 265 90.5 Q280 98 284 119 L332 425 Q332 448 322.5 452 Q313 456 297 456 L252 456 Q235 456 227 444.5 Q219 433 217 421 L170 118 Z M311 540 Q320 540 331 534.5 Q342 529 350 513 Q355 528 365 534 Q375 540 386 540 L452 540 L368 0 L289 0 L270 28 Q259 16 247.5 8 Q236 0 225 0 L137 0 Q105 0 83.5 20.5 Q62 41 62 72 Q62 80 63 85 L121 455 Q124 473 133 488.5 Q142 504 155.5 515.5 Q169 527 186 533.5 Q203 540 221 540 L311 540 Z M320 773 L414 773 L347 674 L260 674 L320 773 Z " />
<glyph glyph-name="abreve" unicode="&#x103;" horiz-adv-x="416" d="M170 118 Q170 106 176.5 94.5 Q183 83 200 83 L239 83 Q250 83 265 90.5 Q280 98 284 119 L332 425 Q332 448 322.5 452 Q313 456 297 456 L252 456 Q235 456 227 444.5 Q219 433 217 421 L170 118 Z M311 540 Q320 540 331 534.5 Q342 529 350 513 Q355 528 365 534 Q375 540 386 540 L452 540 L368 0 L289 0 L270 28 Q259 16 247.5 8 Q236 0 225 0 L137 0 Q105 0 83.5 20.5 Q62 41 62 72 Q62 80 63 85 L121 455 Q124 473 133 488.5 Q142 504 155.5 515.5 Q169 527 186 533.5 Q203 540 221 540 L311 540 Z M491 774 L485 744 Q482 726 473 710.5 Q464 695 450.5 683.5 Q437 672 420.5 665.5 Q404 659 386 659 L244 659 Q212 659 191 680 Q170 701 171 733 Q171 736 172 742 Q173 748 178 774 L277 774 Q277 759 284 749 Q291 739 304 739 L341 739 Q361 739 374 749.5 Q387 760 392 774 L491 774 Z " />
<glyph glyph-name="acircumflex" unicode="&#xe2;" horiz-adv-x="416" d="M217 421 Q219 433 227 444.5 Q235 456 252 456 L297 456 Q313 456 322.5 452 Q332 448 332 425 L284 119 Q280 98 265 90.5 Q250 83 239 83 L200 83 Q183 83 176.5 94.5 Q170 106 170 118 L217 421 Z M221 540 Q203 540 186 533.5 Q169 527 155.5 515.5 Q142 504 133 488.5 Q124 473 121 455 L63 85 Q62 80 62 72 Q62 41 83.5 20.5 Q105 0 137 0 L225 0 Q236 0 247.5 8 Q259 16 270 28 L289 0 L368 0 L452 540 L386 540 Q375 540 365 534 Q355 528 350 513 Q342 529 331 534.5 Q320 540 311 540 L221 540 Z M281 774 L378 774 L451 626 L353 626 L318 696 L261 626 L161 626 L281 774 Z " />
<glyph glyph-name="adieresis" unicode="&#xe4;" horiz-adv-x="416" d="M170 118 Q170 106 176.5 94.5 Q183 83 200 83 L239 83 Q250 83 265 90.5 Q280 98 284 119 L332 425 Q332 448 322.5 452 Q313 456 297 456 L252 456 Q235 456 227 444.5 Q219 433 217 421 L170 118 Z M311 540 Q320 540 331 534.5 Q342 529 350 513 Q355 528 365 534 Q375 540 386 540 L452 540 L368 0 L289 0 L270 28 Q259 16 247.5 8 Q236 0 225 0 L137 0 Q105 0 83.5 20.5 Q62 41 62 72 Q62 80 63 85 L121 455 Q124 473 133 488.5 Q142 504 155.5 515.5 Q169 527 186 533.5 Q203 540 221 540 L311 540 Z M158 718 Q159 744 179.5 764.5 Q200 785 228 785 Q251 785 265 771 Q279 757 278 735 Q277 707 256.5 687 Q236 667 208 667 Q185 667 171 681.5 Q157 696 158 718 Z M366 718 Q367 744 388 764.5 Q409 785 437 785 Q459 785 473.5 771 Q488 757 487 735 Q487 721 480.5 708.5 Q474 696 464.5 687 Q455 678 442.5 672.5 Q430 667 417 667 Q394 667 379.5 681.5 Q365 696 366 718 Z " />
<glyph glyph-name="agrave" unicode="&#xe0;" horiz-adv-x="416" d="M170 118 Q170 106 176.5 94.5 Q183 83 200 83 L239 83 Q250 83 265 90.5 Q280 98 284 119 L332 425 Q332 448 322.5 452 Q313 456 297 456 L252 456 Q235 456 227 444.5 Q219 433 217 421 L170 118 Z M311 540 Q320 540 331 534.5 Q342 529 350 513 Q355 528 365 534 Q375 540 386 540 L452 540 L368 0 L289 0 L270 28 Q259 16 247.5 8 Q236 0 225 0 L137 0 Q105 0 83.5 20.5 Q62 41 62 72 Q62 80 63 85 L121 455 Q124 473 133 488.5 Q142 504 155.5 515.5 Q169 527 186 533.5 Q203 540 221 540 L311 540 Z M347 676 L261 676 L226 775 L321 775 L347 676 Z " />
<glyph glyph-name="amacron" unicode="&#x101;" horiz-adv-x="416" d="M170 118 Q170 106 176.5 94.5 Q183 83 200 83 L239 83 Q250 83 265 90.5 Q280 98 284 119 L332 425 Q332 448 322.5 452 Q313 456 297 456 L252 456 Q235 456 227 444.5 Q219 433 217 421 L170 118 Z M311 540 Q320 540 331 534.5 Q342 529 350 513 Q355 528 365 534 Q375 540 386 540 L452 540 L368 0 L289 0 L270 28 Q259 16 247.5 8 Q236 0 225 0 L137 0 Q105 0 83.5 20.5 Q62 41 62 72 Q62 80 63 85 L121 455 Q124 473 133 488.5 Q142 504 155.5 515.5 Q169 527 186 533.5 Q203 540 221 540 L311 540 Z M190 774 L480 774 L466 690 L176 690 L190 774 Z " />
<glyph glyph-name="aogonek" unicode="&#x105;" horiz-adv-x="416" d="M170 118 Q170 106 176.5 94.5 Q183 83 200 83 L239 83 Q250 83 265 90.5 Q280 98 284 119 L332 425 Q332 448 322.5 452 Q313 456 297 456 L252 456 Q235 456 227 444.5 Q219 433 217 421 L170 118 Z M311 540 Q320 540 331 534.5 Q342 529 350 513 Q355 528 365 534 Q375 540 386 540 L452 540 L368 0 L289 0 L270 28 Q259 16 247.5 8 Q236 0 225 0 L137 0 Q105 0 83.5 20.5 Q62 41 62 72 Q62 80 63 85 L121 455 Q124 473 133 488.5 Q142 504 155.5 515.5 Q169 527 186 533.5 Q203 540 221 540 L311 540 Z M348 -209 Q334 -215 320 -216.5 Q306 -218 294 -218 Q243 -218 221.5 -196 Q200 -174 202 -142 Q202 -126 209.5 -106.5 Q217 -87 229 -67.5 Q241 -48 256.5 -30 Q272 -12 289 0 L318 0 Q298 -27 286.5 -50 Q275 -73 274 -90 Q273 -111 287 -124 Q301 -137 335 -138 L348 -209 Z " />
<glyph glyph-name="aring" unicode="&#xe5;" horiz-adv-x="416" d="M170 118 Q170 106 176.5 94.5 Q183 83 200 83 L239 83 Q250 83 265 90.5 Q280 98 284 119 L332 425 Q332 448 322.5 452 Q313 456 297 456 L252 456 Q235 456 227 444.5 Q219 433 217 421 L170 118 Z M311 540 Q320 540 331 534.5 Q342 529 350 513 Q355 528 365 534 Q375 540 386 540 L452 540 L368 0 L289 0 L270 28 Q259 16 247.5 8 Q236 0 225 0 L137 0 Q105 0 83.5 20.5 Q62 41 62 72 Q62 80 63 85 L121 455 Q124 473 133 488.5 Q142 504 155.5 515.5 Q169 527 186 533.5 Q203 540 221 540 L311 540 Z M323 665 Q338 665 344.5 671 Q351 677 353 684 L354 699 Q354 707 351 713 Q348 719 340 719 L306 719 Q291 719 284 712.5 Q277 706 276 699 L275 686 Q275 678 277.5 671.5 Q280 665 289 665 L323 665 Z M253 609 Q230 609 220 624.5 Q210 640 210 660 L220 724 Q223 744 241.5 759.5 Q260 775 280 775 L376 775 Q399 775 409.5 759.5 Q420 744 420 724 L410 660 Q408 650 402 640.5 Q396 631 387 624 Q378 617 368 613 Q358 609 349 609 L253 609 Z " />
<glyph glyph-name="atilde" unicode="&#xe3;" horiz-adv-x="416" d="M170 118 Q170 106 176.5 94.5 Q183 83 200 83 L239 83 Q250 83 265 90.5 Q280 98 284 119 L332 425 Q332 448 322.5 452 Q313 456 297 456 L252 456 Q235 456 227 444.5 Q219 433 217 421 L170 118 Z M311 540 Q320 540 331 534.5 Q342 529 350 513 Q355 528 365 534 Q375 540 386 540 L452 540 L368 0 L289 0 L270 28 Q259 16 247.5 8 Q236 0 225 0 L137 0 Q105 0 83.5 20.5 Q62 41 62 72 Q62 80 63 85 L121 455 Q124 473 133 488.5 Q142 504 155.5 515.5 Q169 527 186 533.5 Q203 540 221 540 L311 540 Z M257 775 Q274 775 288.5 768.5 Q303 762 316.5 754.5 Q330 747 344.5 740.5 Q359 734 377 734 Q389 734 403.5 743 Q418 752 432 775 L506 775 Q491 711 458.5 676.5 Q426 642 384 642 Q368 642 352 648.5 Q336 655 320.5 663 Q305 671 290.5 677.5 Q276 684 263 684 Q250 684 238 675 Q226 666 212 642 L137 642 Q152 704 185 739.5 Q218 775 257 775 Z " />
<glyph glyph-name="aeacute" unicode="&#x1fd;" horiz-adv-x="607" d="M129 0 Q96 0 74.5 20.5 Q53 41 53 72 Q53 80 54 85 L112 455 Q115 473 124 488.5 Q133 504 147 515.5 Q161 527 178 533.5 Q195 540 213 540 L296 540 Q319 540 331 529 Q343 518 347 507 Q362 521 384 530.5 Q406 540 426 540 L573 540 Q606 540 627.5 519.5 Q649 499 649 468 Q649 464 648 460.5 Q647 457 647 455 L616 253 L399 253 L378 116 Q378 102 384 93 Q390 84 401 83 L452 83 Q466 83 478.5 94 Q491 105 493 119 L497 145 L599 145 L589 85 Q583 49 555 24.5 Q527 0 489 0 L345 0 Q342 0 333.5 1 Q325 2 315 5 Q305 8 293.5 14.5 Q282 21 273 32 Q259 18 245 9 Q231 0 221 0 L129 0 Z M162 118 Q162 106 168.5 94.5 Q175 83 191 83 L231 83 Q242 83 257 90.5 Q272 98 276 119 L324 425 Q324 448 314.5 452 Q305 456 289 456 L244 456 Q227 456 219 444.5 Q211 433 209 421 L162 118 Z M411 332 L526 332 L540 421 Q540 432 535.5 444 Q531 456 514 456 L460 456 Q447 456 438.5 447 Q430 438 426 427 L411 332 Z M389 774 L483 774 L416 675 L329 675 L389 774 Z " />
<glyph glyph-name="cacute" unicode="&#x107;" horiz-adv-x="399" d="M251 456 Q235 456 226.5 444.5 Q218 433 216 421 L169 119 Q169 105 174 95 Q179 85 193 83 L242 83 Q257 83 269 94 Q281 105 283 119 L287 145 L389 145 L379 85 Q373 49 345 24.5 Q317 0 280 0 L136 0 Q99 0 80.5 25.5 Q62 51 62 85 L120 455 Q123 473 132 488.5 Q141 504 155 515.5 Q169 527 185.5 533.5 Q202 540 220 540 L364 540 Q399 540 418.5 519.5 Q438 499 438 469 Q438 460 437 455 L428 392 L326 392 L331 425 Q331 427 331.5 429.5 Q332 432 332 434 Q332 451 321 453.5 Q310 456 296 456 L251 456 Z M327 774 L421 774 L354 675 L267 675 L327 774 Z " />
<glyph glyph-name="ccaron" unicode="&#x10d;" horiz-adv-x="399" d="M251 456 Q235 456 226.5 444.5 Q218 433 216 421 L169 119 Q169 105 174 95 Q179 85 193 83 L242 83 Q257 83 269 94 Q281 105 283 119 L287 145 L389 145 L379 85 Q373 49 345 24.5 Q317 0 280 0 L136 0 Q99 0 80.5 25.5 Q62 51 62 85 L120 455 Q123 473 132 488.5 Q141 504 155 515.5 Q169 527 185.5 533.5 Q202 540 220 540 L364 540 Q399 540 418.5 519.5 Q438 499 438 469 Q438 460 437 455 L428 392 L326 392 L331 425 Q331 427 331.5 429.5 Q332 432 332 434 Q332 451 321 453.5 Q310 456 296 456 L251 456 Z M184 775 L281 775 L317 705 L374 775 L474 775 L353 627 L256 627 L184 775 Z " />
<glyph glyph-name="ccedilla" unicode="&#xe7;" horiz-adv-x="399" d="M251 456 Q235 456 226.5 444.5 Q218 433 216 421 L169 119 Q169 105 174 95 Q179 85 193 83 L242 83 Q257 83 269 94 Q281 105 283 119 L287 145 L389 145 L379 85 Q373 49 345 24.5 Q317 0 280 0 L136 0 Q99 0 80.5 25.5 Q62 51 62 85 L120 455 Q123 473 132 488.5 Q141 504 155 515.5 Q169 527 185.5 533.5 Q202 540 220 540 L364 540 Q399 540 418.5 519.5 Q438 499 438 469 Q438 460 437 455 L428 392 L326 392 L331 425 Q331 427 331.5 429.5 Q332 432 332 434 Q332 451 321 453.5 Q310 456 296 456 L251 456 Z M124 -138 Q166 -137 183 -118 Q200 -99 201 -72 Q202 -43 185 0 L214 0 Q234 -20 246.5 -53 Q259 -86 257 -116 Q257 -136 250 -154.5 Q243 -173 228.5 -187 Q214 -201 192 -209.5 Q170 -218 139 -218 Q128 -218 115 -217 Q102 -216 85 -212 L124 -138 Z " />
<glyph glyph-name="ccircumflex" unicode="&#x109;" horiz-adv-x="399" d="M296 456 Q310 456 321 453.5 Q332 451 332 434 Q332 432 331.5 429.5 Q331 427 331 425 L326 392 L428 392 L437 455 Q438 460 438 469 Q438 499 418.5 519.5 Q399 540 364 540 L220 540 Q202 540 185.5 533.5 Q169 527 155 515.5 Q141 504 132 488.5 Q123 473 120 455 L62 85 Q62 51 80.5 25.5 Q99 0 136 0 L280 0 Q317 0 345 24.5 Q373 49 379 85 L389 145 L287 145 L283 119 Q281 105 269 94 Q257 83 242 83 L193 83 Q179 85 174 95 Q169 105 169 119 L216 421 Q218 433 226.5 444.5 Q235 456 251 456 L296 456 Z M270 774 L367 774 L440 626 L342 626 L307 696 L250 626 L150 626 L270 774 Z " />
<glyph glyph-name="cdotaccent" unicode="&#x10b;" horiz-adv-x="399" d="M251 456 Q235 456 226.5 444.5 Q218 433 216 421 L169 119 Q169 105 174 95 Q179 85 193 83 L242 83 Q257 83 269 94 Q281 105 283 119 L287 145 L389 145 L379 85 Q373 49 345 24.5 Q317 0 280 0 L136 0 Q99 0 80.5 25.5 Q62 51 62 85 L120 455 Q123 473 132 488.5 Q141 504 155 515.5 Q169 527 185.5 533.5 Q202 540 220 540 L364 540 Q399 540 418.5 519.5 Q438 499 438 469 Q438 460 437 455 L428 392 L326 392 L331 425 Q331 427 331.5 429.5 Q332 432 332 434 Q332 451 321 453.5 Q310 456 296 456 L251 456 Z M253 719 Q253 731 259 743 Q265 755 275 764.5 Q285 774 297.5 779.5 Q310 785 323 785 Q346 785 360 771 Q374 757 373 735 Q372 707 351.5 687 Q331 667 303 667 Q281 667 266.5 681.5 Q252 696 253 719 Z " />
<glyph glyph-name="dcaron" unicode="&#x10f;" horiz-adv-x="530" d="M491 775 L369 0 L292 0 L274 28 Q263 16 251.5 8 Q240 0 228 0 L138 0 Q106 0 84.5 20.5 Q63 41 63 72 Q63 80 64 85 L122 455 Q125 473 134 488.5 Q143 504 156.5 515.5 Q170 527 187 533.5 Q204 540 222 540 L300 540 Q308 540 323 533 Q338 526 347 513 L390 775 L491 775 Z M172 118 Q172 105 178 94 Q184 83 200 83 L241 83 Q255 83 268.5 89.5 Q282 96 286 118 L334 425 Q334 448 324.5 452 Q315 456 299 456 L255 456 Q238 456 229.5 444.5 Q221 433 219 421 L172 118 Z M552 775 L651 775 L635 684 Q629 648 623.5 621.5 Q618 595 606.5 578.5 Q595 562 573.5 554 Q552 546 515 546 L522 593 Q542 593 554 597.5 Q566 602 573 612 Q580 622 583.5 638 Q587 654 591 677 L536 677 L552 775 Z " />
<glyph glyph-name="dcroat" unicode="&#x111;" horiz-adv-x="428" d="M312 678 L525 678 L510 590 L298 590 L312 678 Z M491 775 L369 0 L292 0 L274 28 Q263 16 251.5 8 Q240 0 228 0 L138 0 Q106 0 84.5 20.5 Q63 41 63 72 Q63 80 64 85 L122 455 Q125 473 134 488.5 Q143 504 156.5 515.5 Q170 527 187 533.5 Q204 540 222 540 L300 540 Q308 540 323 533 Q338 526 347 513 L390 775 L491 775 Z M172 118 Q172 105 178 94 Q184 83 200 83 L241 83 Q255 83 268.5 89.5 Q282 96 286 118 L334 425 Q334 448 324.5 452 Q315 456 299 456 L255 456 Q238 456 229.5 444.5 Q221 433 219 421 L172 118 Z " />
<glyph glyph-name="eacute" unicode="&#xe9;" horiz-adv-x="403" d="M390 145 L380 85 Q374 49 346 24.5 Q318 0 281 0 L137 0 Q105 0 83.5 20.5 Q62 41 62 72 Q62 80 63 85 L121 455 Q124 473 133 488.5 Q142 504 155.5 515.5 Q169 527 186 533.5 Q203 540 221 540 L365 540 Q397 540 418.5 519.5 Q440 499 440 468 Q440 464 439 460.5 Q438 457 438 455 L407 253 L191 253 L170 119 Q170 105 175 95 Q180 85 194 83 L243 83 Q258 83 270 94 Q282 105 284 119 L288 145 L390 145 Z M203 332 L317 332 L331 421 Q331 433 326.5 444.5 Q322 456 305 456 L252 456 Q235 456 227 444.5 Q219 433 217 421 L203 332 Z M324 774 L418 774 L351 675 L264 675 L324 774 Z " />
<glyph glyph-name="ebreve" unicode="&#x115;" horiz-adv-x="403" d="M390 145 L380 85 Q374 49 346 24.5 Q318 0 281 0 L137 0 Q105 0 83.5 20.5 Q62 41 62 72 Q62 80 63 85 L121 455 Q124 473 133 488.5 Q142 504 155.5 515.5 Q169 527 186 533.5 Q203 540 221 540 L365 540 Q397 540 418.5 519.5 Q440 499 440 468 Q440 464 439 460.5 Q438 457 438 455 L407 253 L191 253 L170 119 Q170 105 175 95 Q180 85 194 83 L243 83 Q258 83 270 94 Q282 105 284 119 L288 145 L390 145 Z M203 332 L317 332 L331 421 Q331 433 326.5 444.5 Q322 456 305 456 L252 456 Q235 456 227 444.5 Q219 433 217 421 L203 332 Z M485 774 L479 744 Q476 726 467 710.5 Q458 695 444.5 683.5 Q431 672 414.5 665.5 Q398 659 380 659 L238 659 Q206 659 185 680 Q164 701 165 733 Q165 736 166 742 Q167 748 172 774 L271 774 Q271 759 278 749 Q285 739 298 739 L335 739 Q355 739 368 749.5 Q381 760 386 774 L485 774 Z " />
<glyph glyph-name="ecaron" unicode="&#x11b;" horiz-adv-x="403" d="M390 145 L380 85 Q374 49 346 24.5 Q318 0 281 0 L137 0 Q105 0 83.5 20.5 Q62 41 62 72 Q62 80 63 85 L121 455 Q124 473 133 488.5 Q142 504 155.5 515.5 Q169 527 186 533.5 Q203 540 221 540 L365 540 Q397 540 418.5 519.5 Q440 499 440 468 Q440 464 439 460.5 Q438 457 438 455 L407 253 L191 253 L170 119 Q170 105 175 95 Q180 85 194 83 L243 83 Q258 83 270 94 Q282 105 284 119 L288 145 L390 145 Z M203 332 L317 332 L331 421 Q331 433 326.5 444.5 Q322 456 305 456 L252 456 Q235 456 227 444.5 Q219 433 217 421 L203 332 Z M179 775 L276 775 L312 705 L369 775 L469 775 L348 627 L251 627 L179 775 Z " />
<glyph glyph-name="ecircumflex" unicode="&#xea;" horiz-adv-x="403" d="M288 145 L284 119 Q282 105 270 94 Q258 83 243 83 L194 83 Q180 85 175 95 Q170 105 170 119 L191 253 L407 253 L438 455 Q438 457 439 460.5 Q440 464 440 468 Q440 499 418.5 519.5 Q397 540 365 540 L221 540 Q203 540 186 533.5 Q169 527 155.5 515.5 Q142 504 133 488.5 Q124 473 121 455 L63 85 Q62 80 62 72 Q62 41 83.5 20.5 Q105 0 137 0 L281 0 Q318 0 346 24.5 Q374 49 380 85 L390 145 L288 145 Z M217 421 Q219 433 227 444.5 Q235 456 252 456 L305 456 Q322 456 326.5 444.5 Q331 433 331 421 L317 332 L203 332 L217 421 Z M275 775 L372 775 L445 627 L347 627 L312 697 L255 627 L155 627 L275 775 Z " />
<glyph glyph-name="edieresis" unicode="&#xeb;" horiz-adv-x="403" d="M390 145 L380 85 Q374 49 346 24.5 Q318 0 281 0 L137 0 Q105 0 83.5 20.5 Q62 41 62 72 Q62 80 63 85 L121 455 Q124 473 133 488.5 Q142 504 155.5 515.5 Q169 527 186 533.5 Q203 540 221 540 L365 540 Q397 540 418.5 519.5 Q440 499 440 468 Q440 464 439 460.5 Q438 457 438 455 L407 253 L191 253 L170 119 Q170 105 175 95 Q180 85 194 83 L243 83 Q258 83 270 94 Q282 105 284 119 L288 145 L390 145 Z M203 332 L317 332 L331 421 Q331 433 326.5 444.5 Q322 456 305 456 L252 456 Q235 456 227 444.5 Q219 433 217 421 L203 332 Z M153 718 Q154 744 174.5 764.5 Q195 785 223 785 Q246 785 260 771 Q274 757 273 735 Q272 707 251.5 687 Q231 667 203 667 Q180 667 166 681.5 Q152 696 153 718 Z M361 718 Q362 744 383 764.5 Q404 785 432 785 Q454 785 468.5 771 Q483 757 482 735 Q482 721 475.5 708.5 Q469 696 459.5 687 Q450 678 437.5 672.5 Q425 667 412 667 Q389 667 374.5 681.5 Q360 696 361 718 Z " />
<glyph glyph-name="edotaccent" unicode="&#x117;" horiz-adv-x="403" d="M390 145 L380 85 Q374 49 346 24.5 Q318 0 281 0 L137 0 Q105 0 83.5 20.5 Q62 41 62 72 Q62 80 63 85 L121 455 Q124 473 133 488.5 Q142 504 155.5 515.5 Q169 527 186 533.5 Q203 540 221 540 L365 540 Q397 540 418.5 519.5 Q440 499 440 468 Q440 464 439 460.5 Q438 457 438 455 L407 253 L191 253 L170 119 Q170 105 175 95 Q180 85 194 83 L243 83 Q258 83 270 94 Q282 105 284 119 L288 145 L390 145 Z M203 332 L317 332 L331 421 Q331 433 326.5 444.5 Q322 456 305 456 L252 456 Q235 456 227 444.5 Q219 433 217 421 L203 332 Z M255 719 Q255 731 261 743 Q267 755 277 764.5 Q287 774 299.5 779.5 Q312 785 325 785 Q348 785 362 771 Q376 757 375 735 Q374 707 353.5 687 Q333 667 305 667 Q283 667 268.5 681.5 Q254 696 255 719 Z " />
<glyph glyph-name="egrave" unicode="&#xe8;" horiz-adv-x="403" d="M390 145 L380 85 Q374 49 346 24.5 Q318 0 281 0 L137 0 Q105 0 83.5 20.5 Q62 41 62 72 Q62 80 63 85 L121 455 Q124 473 133 488.5 Q142 504 155.5 515.5 Q169 527 186 533.5 Q203 540 221 540 L365 540 Q397 540 418.5 519.5 Q440 499 440 468 Q440 464 439 460.5 Q438 457 438 455 L407 253 L191 253 L170 119 Q170 105 175 95 Q180 85 194 83 L243 83 Q258 83 270 94 Q282 105 284 119 L288 145 L390 145 Z M203 332 L317 332 L331 421 Q331 433 326.5 444.5 Q322 456 305 456 L252 456 Q235 456 227 444.5 Q219 433 217 421 L203 332 Z M333 676 L247 676 L212 775 L307 775 L333 676 Z " />
<glyph glyph-name="emacron" unicode="&#x113;" horiz-adv-x="403" d="M390 145 L380 85 Q374 49 346 24.5 Q318 0 281 0 L137 0 Q105 0 83.5 20.5 Q62 41 62 72 Q62 80 63 85 L121 455 Q124 473 133 488.5 Q142 504 155.5 515.5 Q169 527 186 533.5 Q203 540 221 540 L365 540 Q397 540 418.5 519.5 Q440 499 440 468 Q440 464 439 460.5 Q438 457 438 455 L407 253 L191 253 L170 119 Q170 105 175 95 Q180 85 194 83 L243 83 Q258 83 270 94 Q282 105 284 119 L288 145 L390 145 Z M203 332 L317 332 L331 421 Q331 433 326.5 444.5 Q322 456 305 456 L252 456 Q235 456 227 444.5 Q219 433 217 421 L203 332 Z M180 774 L470 774 L456 690 L166 690 L180 774 Z " />
<glyph glyph-name="eogonek" unicode="&#x119;" horiz-adv-x="403" d="M390 145 L380 85 Q374 49 346 24.5 Q318 0 281 0 L137 0 Q105 0 83.5 20.5 Q62 41 62 72 Q62 80 63 85 L121 455 Q124 473 133 488.5 Q142 504 155.5 515.5 Q169 527 186 533.5 Q203 540 221 540 L365 540 Q397 540 418.5 519.5 Q440 499 440 468 Q440 464 439 460.5 Q438 457 438 455 L407 253 L191 253 L170 119 Q170 105 175 95 Q180 85 194 83 L243 83 Q258 83 270 94 Q282 105 284 119 L288 145 L390 145 Z M203 332 L317 332 L331 421 Q331 433 326.5 444.5 Q322 456 305 456 L252 456 Q235 456 227 444.5 Q219 433 217 421 L203 332 Z M299 -209 Q285 -215 271 -216.5 Q257 -218 245 -218 Q194 -218 172.5 -196 Q151 -174 153 -142 Q153 -126 160.5 -106.5 Q168 -87 180 -67.5 Q192 -48 207.5 -30 Q223 -12 240 0 L269 0 Q249 -27 237.5 -50 Q226 -73 225 -90 Q224 -111 238 -124 Q252 -137 286 -138 L299 -209 Z " />
<glyph glyph-name="ffi" unicode="&#xfb03;" horiz-adv-x="785" d="M725 440 L549 440 L480 0 L380 0 L449 440 L216 440 L147 0 L47 0 L153 676 Q160 721 187.5 747.5 Q215 774 257 774 L385 774 L368 674 L252 674 L231 541 L464 541 L486 676 Q494 721 520.5 747.5 Q547 774 589 774 L827 774 Q850 774 864 760.5 Q878 747 878 725 Q878 696 857 675.5 Q836 655 807 655 Q795 655 785.5 658 Q776 661 766 664.5 Q756 668 744 671 Q732 674 716 674 L585 674 L564 541 L841 541 L757 0 L656 0 L725 440 Z " />
<glyph glyph-name="ffl" unicode="&#xfb04;" horiz-adv-x="785" d="M763 674 L585 674 L564 539 L647 539 L631 438 L548 438 L480 0 L380 0 L448 438 L215 438 L147 0 L48 0 L154 676 Q161 721 188 747.5 Q215 774 257 774 L385 774 L368 674 L252 674 L231 539 L464 539 L486 676 Q493 721 520.5 747.5 Q548 774 589 774 L880 774 L758 0 L658 0 L763 674 Z " />
<glyph glyph-name="fi" unicode="&#xfb01;" horiz-adv-x="534" d="M403 438 L226 438 L158 0 L57 0 L163 676 Q170 721 197.5 747.5 Q225 774 267 774 L506 774 Q529 774 542.5 760 Q556 746 556 725 Q556 696 535.5 675.5 Q515 655 486 655 Q474 655 464 657.5 Q454 660 444 663.5 Q434 667 422 670 Q410 673 394 674 L263 674 L242 539 L518 539 L434 0 L335 0 L403 438 Z " />
<glyph glyph-name="fl" unicode="&#xfb02;" horiz-adv-x="485" d="M444 674 L266 674 L245 539 L329 539 L313 438 L229 438 L161 0 L61 0 L167 676 Q174 721 201.5 747.5 Q229 774 271 774 L561 774 L439 0 L339 0 L444 674 Z " />
<glyph glyph-name="gbreve" unicode="&#x11f;" horiz-adv-x="409" d="M170 118 Q170 106 176.5 94.5 Q183 83 200 83 L239 83 Q247 83 263.5 90.5 Q280 98 284 119 L332 426 Q332 457 298 457 L253 457 Q238 457 228.5 445.5 Q219 434 217 422 L170 118 Z M137 0 Q105 0 83.5 20.5 Q62 41 62 72 Q62 80 63 85 L121 455 Q124 473 133 488.5 Q142 504 155.5 515.5 Q169 527 186 533.5 Q203 540 221 540 L330 540 Q338 540 344.5 533.5 Q351 527 353 518 Q355 529 363 534.5 Q371 540 376 540 L452 540 L344 -146 Q341 -164 331.5 -179.5 Q322 -195 308 -206.5 Q294 -218 277 -224.5 Q260 -231 243 -231 L99 -231 Q61 -231 44 -206 Q27 -181 27 -146 L38 -76 L139 -76 L134 -112 Q134 -126 139.5 -137.5 Q145 -149 163 -149 L211 -149 Q224 -147 235 -136.5 Q246 -126 248 -112 L269 26 Q256 12 243.5 6 Q231 0 223 0 L137 0 Z M487 774 L481 744 Q478 726 469 710.5 Q460 695 446.5 683.5 Q433 672 416.5 665.5 Q400 659 382 659 L240 659 Q208 659 187 680 Q166 701 167 733 Q167 736 168 742 Q169 748 174 774 L273 774 Q273 759 280 749 Q287 739 300 739 L337 739 Q357 739 370 749.5 Q383 760 388 774 L487 774 Z " />
<glyph glyph-name="gcircumflex" unicode="&#x11d;" horiz-adv-x="409" d="M217 422 Q219 434 228.5 445.5 Q238 457 253 457 L298 457 Q332 457 332 426 L284 119 Q280 98 263.5 90.5 Q247 83 239 83 L200 83 Q183 83 176.5 94.5 Q170 106 170 118 L217 422 Z M223 0 Q231 0 243.5 6 Q256 12 269 26 L248 -112 Q246 -126 235 -136.5 Q224 -147 211 -149 L163 -149 Q145 -149 139.5 -137.5 Q134 -126 134 -112 L139 -76 L38 -76 L27 -146 Q27 -181 44 -206 Q61 -231 99 -231 L243 -231 Q260 -231 277 -224.5 Q294 -218 308 -206.5 Q322 -195 331.5 -179.5 Q341 -164 344 -146 L452 540 L376 540 Q371 540 363 534.5 Q355 529 353 518 Q351 527 344.5 533.5 Q338 540 330 540 L221 540 Q203 540 186 533.5 Q169 527 155.5 515.5 Q142 504 133 488.5 Q124 473 121 455 L63 85 Q62 80 62 72 Q62 41 83.5 20.5 Q105 0 137 0 L223 0 Z M277 774 L374 774 L447 626 L349 626 L314 696 L257 626 L157 626 L277 774 Z " />
<glyph glyph-name="gcommaaccent" unicode="&#x123;" horiz-adv-x="409" d="M217 422 Q219 434 228.5 445.5 Q238 457 253 457 L298 457 Q332 457 332 426 L284 119 Q280 98 263.5 90.5 Q247 83 239 83 L200 83 Q183 83 176.5 94.5 Q170 106 170 118 L217 422 Z M223 0 Q231 0 243.5 6 Q256 12 269 26 L248 -112 Q246 -126 235 -136.5 Q224 -147 211 -149 L163 -149 Q145 -149 139.5 -137.5 Q134 -126 134 -112 L139 -76 L38 -76 L27 -146 Q27 -181 44 -206 Q61 -231 99 -231 L243 -231 Q260 -231 277 -224.5 Q294 -218 308 -206.5 Q322 -195 331.5 -179.5 Q341 -164 344 -146 L452 540 L376 540 Q371 540 363 534.5 Q355 529 353 518 Q351 527 344.5 533.5 Q338 540 330 540 L221 540 Q203 540 186 533.5 Q169 527 155.5 515.5 Q142 504 133 488.5 Q124 473 121 455 L63 85 Q62 80 62 72 Q62 41 83.5 20.5 Q105 0 137 0 L223 0 Z M355 641 L256 641 L271 732 Q277 768 282.5 794.5 Q288 821 300 837.5 Q312 854 333.5 862 Q355 870 392 870 L384 823 Q364 823 352 818.5 Q340 814 333 804.5 Q326 795 322.5 779 Q319 763 316 740 L371 740 L355 641 Z " />
<glyph glyph-name="gdotaccent" unicode="&#x121;" horiz-adv-x="409" d="M170 118 Q170 106 176.5 94.5 Q183 83 200 83 L239 83 Q247 83 263.5 90.5 Q280 98 284 119 L332 426 Q332 457 298 457 L253 457 Q238 457 228.5 445.5 Q219 434 217 422 L170 118 Z M137 0 Q105 0 83.5 20.5 Q62 41 62 72 Q62 80 63 85 L121 455 Q124 473 133 488.5 Q142 504 155.5 515.5 Q169 527 186 533.5 Q203 540 221 540 L330 540 Q338 540 344.5 533.5 Q351 527 353 518 Q355 529 363 534.5 Q371 540 376 540 L452 540 L344 -146 Q341 -164 331.5 -179.5 Q322 -195 308 -206.5 Q294 -218 277 -224.5 Q260 -231 243 -231 L99 -231 Q61 -231 44 -206 Q27 -181 27 -146 L38 -76 L139 -76 L134 -112 Q134 -126 139.5 -137.5 Q145 -149 163 -149 L211 -149 Q224 -147 235 -136.5 Q246 -126 248 -112 L269 26 Q256 12 243.5 6 Q231 0 223 0 L137 0 Z M258 719 Q258 731 264 743 Q270 755 280 764.5 Q290 774 302.5 779.5 Q315 785 328 785 Q351 785 365 771 Q379 757 378 735 Q377 707 356.5 687 Q336 667 308 667 Q286 667 271.5 681.5 Q257 696 258 719 Z " />
<glyph glyph-name="hbar" unicode="&#x127;" horiz-adv-x="431" d="M144 677 L184 677 L200 774 L301 774 L284 677 L372 677 L358 593 L271 593 L261 529 Q268 534 278.5 537.5 Q289 541 300 541 L394 541 Q426 541 447 520.5 Q468 500 468 469 Q468 464 466 456 L396 0 L293 0 L358 422 Q358 434 354 445.5 Q350 457 334 457 L289 457 Q274 457 261.5 453 Q249 449 245 426 L179 0 L78 0 L171 593 L130 593 L144 677 Z " />
<glyph glyph-name="hcircumflex" unicode="&#x125;" horiz-adv-x="413" d="M161 0 L227 426 Q231 449 243.5 453 Q256 457 271 457 L316 457 Q332 457 336 445.5 Q340 434 340 422 L275 0 L378 0 L448 456 Q450 464 450 469 Q450 500 429 520.5 Q408 541 376 541 L282 541 Q271 541 260.5 537.5 Q250 534 243 529 L283 774 L182 774 L60 0 L161 0 Z M306 966 L403 966 L476 818 L378 818 L343 888 L286 818 L186 818 L306 966 Z " />
<glyph glyph-name="dotlessi" unicode="&#x131;" horiz-adv-x="215" d="M144 541 L245 541 L161 0 L60 0 L144 541 Z " />
<glyph glyph-name="iacute" unicode="&#xed;" horiz-adv-x="215" d="M144 541 L245 541 L161 0 L60 0 L144 541 Z M221 774 L315 774 L248 675 L161 675 L221 774 Z " />
<glyph glyph-name="ibreve" unicode="&#x12d;" horiz-adv-x="215" d="M144 541 L245 541 L161 0 L60 0 L144 541 Z M390 774 L384 744 Q381 726 372 710.5 Q363 695 349.5 683.5 Q336 672 319.5 665.5 Q303 659 285 659 L143 659 Q111 659 90 680 Q69 701 70 733 Q70 736 71 742 Q72 748 77 774 L176 774 Q176 759 183 749 Q190 739 203 739 L240 739 Q260 739 273 749.5 Q286 760 291 774 L390 774 Z " />
<glyph glyph-name="icircumflex" unicode="&#xee;" horiz-adv-x="215" d="M60 0 L161 0 L245 541 L144 541 L60 0 Z M178 774 L275 774 L348 626 L250 626 L215 696 L158 626 L58 626 L178 774 Z " />
<glyph glyph-name="idieresis" unicode="&#xef;" horiz-adv-x="215" d="M144 541 L245 541 L161 0 L60 0 L144 541 Z M60 718 Q61 744 81.5 764.5 Q102 785 130 785 Q153 785 167 771 Q181 757 180 735 Q179 707 158.5 687 Q138 667 110 667 Q87 667 73 681.5 Q59 696 60 718 Z M268 718 Q269 744 290 764.5 Q311 785 339 785 Q361 785 375.5 771 Q390 757 389 735 Q389 721 382.5 708.5 Q376 696 366.5 687 Q357 678 344.5 672.5 Q332 667 319 667 Q296 667 281.5 681.5 Q267 696 268 718 Z " />
<glyph glyph-name="igrave" unicode="&#xec;" horiz-adv-x="215" d="M144 541 L245 541 L161 0 L60 0 L144 541 Z M249 676 L163 676 L128 775 L223 775 L249 676 Z " />
<glyph glyph-name="imacron" unicode="&#x12b;" horiz-adv-x="215" d="M144 541 L245 541 L161 0 L60 0 L144 541 Z M81 774 L371 774 L357 690 L67 690 L81 774 Z " />
<glyph glyph-name="iogonek" unicode="&#x12f;" horiz-adv-x="215" d="M141 540 L242 540 L158 0 L57 0 L141 540 Z M158 707 Q158 719 164 731 Q170 743 179.5 753 Q189 763 201.5 769 Q214 775 229 775 Q252 775 265.5 760.5 Q279 746 279 725 Q279 696 257.5 676 Q236 656 209 656 Q185 656 171.5 670 Q158 684 158 707 Z M170 -209 Q156 -215 142 -216.5 Q128 -218 116 -218 Q65 -218 43.5 -196 Q22 -174 24 -142 Q24 -126 31.5 -106.5 Q39 -87 51 -67.5 Q63 -48 78.5 -30 Q94 -12 111 0 L140 0 Q120 -27 108.5 -50 Q97 -73 96 -90 Q95 -111 109 -124 Q123 -137 157 -138 L170 -209 Z " />
<glyph glyph-name="itilde" unicode="&#x129;" horiz-adv-x="215" d="M144 541 L245 541 L161 0 L60 0 L144 541 Z M159 775 Q176 775 190.5 768.5 Q205 762 218.5 754.5 Q232 747 246.5 740.5 Q261 734 279 734 Q291 734 305.5 743 Q320 752 334 775 L408 775 Q393 711 360.5 676.5 Q328 642 286 642 Q270 642 254 648.5 Q238 655 222.5 663 Q207 671 192.5 677.5 Q178 684 165 684 Q152 684 140 675 Q128 666 114 642 L39 642 Q54 704 87 739.5 Q120 775 159 775 Z " />
<glyph glyph-name="kcommaaccent" unicode="&#x137;" horiz-adv-x="382" d="M280 774 L233 483 L197 347 L212 347 L350 540 L457 540 L281 312 Q290 274 302.5 235 Q315 196 328 156 Q341 116 353.5 76.5 Q366 37 375 0 L267 0 L196 269 L185 269 L177 123 L158 0 L60 0 L182 774 L280 774 Z M119 -205 L134 -106 L233 -106 L219 -197 Q213 -233 207.5 -259.5 Q202 -286 190 -302.5 Q178 -319 156.5 -327 Q135 -335 98 -335 L106 -288 Q126 -288 138 -283.5 Q150 -279 157 -269 Q164 -259 167.5 -243.5 Q171 -228 174 -205 L119 -205 Z " />
<glyph glyph-name="lacute" unicode="&#x13a;" horiz-adv-x="221" d="M185 774 L286 774 L164 0 L63 0 L185 774 Z M261 973 L355 973 L288 874 L201 874 L261 973 Z " />
<glyph glyph-name="lcaron" unicode="&#x13e;" horiz-adv-x="381" d="M185 774 L286 774 L164 0 L63 0 L185 774 Z M354 773 L453 773 L437 682 Q431 646 425.5 619.5 Q420 593 408.5 576.5 Q397 560 375.5 552 Q354 544 317 544 L324 591 Q344 591 356 595.5 Q368 600 375 610 Q382 620 385.5 636 Q389 652 393 675 L338 675 L354 773 Z " />
<glyph glyph-name="lcommaaccent" unicode="&#x13c;" horiz-adv-x="221" d="M185 774 L286 774 L164 0 L63 0 L185 774 Z M31 -205 L46 -106 L145 -106 L131 -197 Q125 -233 119.5 -259.5 Q114 -286 102 -302.5 Q90 -319 68.5 -327 Q47 -335 10 -335 L18 -288 Q38 -288 50 -283.5 Q62 -279 69 -269 Q76 -259 79.5 -243.5 Q83 -228 86 -205 L31 -205 Z " />
<glyph glyph-name="ldot" unicode="&#x140;" horiz-adv-x="338" d="M185 774 L286 774 L164 0 L63 0 L185 774 Z M292 443 Q292 455 298 467 Q304 479 314 488.5 Q324 498 336.5 503.5 Q349 509 362 509 Q385 509 399 495 Q413 481 412 459 Q411 431 390.5 411 Q370 391 342 391 Q320 391 305.5 405.5 Q291 420 292 443 Z " />
<glyph glyph-name="lslash" unicode="&#x142;" horiz-adv-x="270" d="M25 321 L146 388 L208 774 L309 774 L256 446 L321 480 L358 391 L238 327 L187 0 L86 0 L128 269 L61 234 L25 321 Z " />
<glyph glyph-name="jcircumflex" unicode="&#x135;" horiz-adv-x="216" d="M-19 -252 L35 -252 Q52 -252 69 -245 Q86 -238 99.5 -226.5 Q113 -215 122.5 -199.5 Q132 -184 135 -166 L246 541 L145 541 L39 -132 Q37 -146 24.5 -157.5 Q12 -169 -6 -169 L-19 -252 Z M180 775 L277 775 L350 627 L252 627 L217 697 L160 627 L60 627 L180 775 Z " />
<glyph glyph-name="dotlessj" unicode="&#x237;" horiz-adv-x="216" d="M-6 -169 Q12 -169 24.5 -157.5 Q37 -146 39 -132 L145 541 L246 541 L135 -166 Q132 -184 122.5 -199.5 Q113 -215 99.5 -226.5 Q86 -238 69 -245 Q52 -252 35 -252 L-19 -252 L-6 -169 Z " />
<glyph glyph-name="nacute" unicode="&#x144;" horiz-adv-x="417" d="M372 540 Q406 540 426.5 519 Q447 498 447 466 Q447 463 446 460 Q445 457 445 455 L375 0 L273 0 L338 421 Q338 432 333.5 444 Q329 456 313 456 L268 456 Q251 456 239.5 449.5 Q228 443 225 421 L160 0 L58 0 L142 540 L212 540 Q225 540 231.5 534 Q238 528 238 513 Q252 529 265 534.5 Q278 540 287 540 L372 540 Z M314 774 L408 774 L341 675 L254 675 L314 774 Z " />
<glyph glyph-name="napostrophe" unicode="&#x149;" horiz-adv-x="440" d="M395 540 Q429 540 449.5 519 Q470 498 470 466 Q470 463 469 460 Q468 457 468 455 L398 0 L296 0 L361 421 Q361 432 356.5 444 Q352 456 336 456 L291 456 Q274 456 262.5 449.5 Q251 443 248 421 L183 0 L81 0 L165 540 L235 540 Q248 540 254.5 534 Q261 528 261 513 Q275 529 288 534.5 Q301 540 310 540 L395 540 Z M144 774 L159 873 L258 873 L244 782 Q238 746 232.5 719.5 Q227 693 215 676.5 Q203 660 181.5 652 Q160 644 123 644 L131 691 Q151 691 163 695.5 Q175 700 182 710 Q189 720 192.5 735.5 Q196 751 199 774 L144 774 Z " />
<glyph glyph-name="ncaron" unicode="&#x148;" horiz-adv-x="417" d="M372 540 Q406 540 426.5 519 Q447 498 447 466 Q447 463 446 460 Q445 457 445 455 L375 0 L273 0 L338 421 Q338 432 333.5 444 Q329 456 313 456 L268 456 Q251 456 239.5 449.5 Q228 443 225 421 L160 0 L58 0 L142 540 L212 540 Q225 540 231.5 534 Q238 528 238 513 Q252 529 265 534.5 Q278 540 287 540 L372 540 Z M183 775 L280 775 L316 705 L373 775 L473 775 L352 627 L255 627 L183 775 Z " />
<glyph glyph-name="ncommaaccent" unicode="&#x146;" horiz-adv-x="417" d="M372 540 Q406 540 426.5 519 Q447 498 447 466 Q447 463 446 460 Q445 457 445 455 L375 0 L273 0 L338 421 Q338 432 333.5 444 Q329 456 313 456 L268 456 Q251 456 239.5 449.5 Q228 443 225 421 L160 0 L58 0 L142 540 L212 540 Q225 540 231.5 534 Q238 528 238 513 Q252 529 265 534.5 Q278 540 287 540 L372 540 Z M143 -229 L158 -130 L257 -130 L243 -221 Q237 -257 231.5 -283.5 Q226 -310 214 -326.5 Q202 -343 180.5 -351 Q159 -359 122 -359 L130 -312 Q150 -312 162 -307.5 Q174 -303 181 -293 Q188 -283 191.5 -267.5 Q195 -252 198 -229 L143 -229 Z " />
<glyph glyph-name="ntilde" unicode="&#xf1;" horiz-adv-x="417" d="M372 540 Q406 540 426.5 519 Q447 498 447 466 Q447 463 446 460 Q445 457 445 455 L375 0 L273 0 L338 421 Q338 432 333.5 444 Q329 456 313 456 L268 456 Q251 456 239.5 449.5 Q228 443 225 421 L160 0 L58 0 L142 540 L212 540 Q225 540 231.5 534 Q238 528 238 513 Q252 529 265 534.5 Q278 540 287 540 L372 540 Z M256 773 Q273 773 287.5 766.5 Q302 760 315.5 752.5 Q329 745 343.5 738.5 Q358 732 376 732 Q388 732 402.5 741 Q417 750 431 773 L505 773 Q490 709 457.5 674.5 Q425 640 383 640 Q367 640 351 646.5 Q335 653 319.5 661 Q304 669 289.5 675.5 Q275 682 262 682 Q249 682 237 673 Q225 664 211 640 L136 640 Q151 702 184 737.5 Q217 773 256 773 Z " />
<glyph glyph-name="oacute" unicode="&#xf3;" horiz-adv-x="406" d="M128 0 Q96 0 74.5 20 Q53 40 53 72 Q53 80 54 85 L112 455 Q115 473 124 488.5 Q133 504 147 515.5 Q161 527 177.5 533.5 Q194 540 212 540 L356 540 Q389 540 410 519.5 Q431 499 431 468 Q431 464 430.5 461.5 Q430 459 429 455 L371 85 Q365 49 337 24.5 Q309 0 272 0 L128 0 Z M250 458 Q235 458 222.5 446.5 Q210 435 208 421 L161 118 Q161 106 167.5 94.5 Q174 83 191 83 L234 83 Q249 83 261 94 Q273 105 275 119 L322 422 Q322 436 317 447 Q312 458 286 458 L250 458 Z M328 774 L422 774 L355 675 L268 675 L328 774 Z " />
<glyph glyph-name="obreve" unicode="&#x14f;" horiz-adv-x="406" d="M128 0 Q96 0 74.5 20 Q53 40 53 72 Q53 80 54 85 L112 455 Q115 473 124 488.5 Q133 504 147 515.5 Q161 527 177.5 533.5 Q194 540 212 540 L356 540 Q389 540 410 519.5 Q431 499 431 468 Q431 464 430.5 461.5 Q430 459 429 455 L371 85 Q365 49 337 24.5 Q309 0 272 0 L128 0 Z M250 458 Q235 458 222.5 446.5 Q210 435 208 421 L161 118 Q161 106 167.5 94.5 Q174 83 191 83 L234 83 Q249 83 261 94 Q273 105 275 119 L322 422 Q322 436 317 447 Q312 458 286 458 L250 458 Z M479 774 L473 744 Q470 726 461 710.5 Q452 695 438.5 683.5 Q425 672 408.5 665.5 Q392 659 374 659 L232 659 Q200 659 179 680 Q158 701 159 733 Q159 736 160 742 Q161 748 166 774 L265 774 Q265 759 272 749 Q279 739 292 739 L329 739 Q349 739 362 749.5 Q375 760 380 774 L479 774 Z " />
<glyph glyph-name="ocircumflex" unicode="&#xf4;" horiz-adv-x="406" d="M272 0 Q309 0 337 24.5 Q365 49 371 85 L429 455 Q430 459 430.5 461.5 Q431 464 431 468 Q431 499 410 519.5 Q389 540 356 540 L212 540 Q194 540 177.5 533.5 Q161 527 147 515.5 Q133 504 124 488.5 Q115 473 112 455 L54 85 Q53 80 53 72 Q53 40 74.5 20 Q96 0 128 0 L272 0 Z M286 458 Q312 458 317 447 Q322 436 322 422 L275 119 Q273 105 261 94 Q249 83 234 83 L191 83 Q174 83 167.5 94.5 Q161 106 161 118 L208 421 Q210 435 222.5 446.5 Q235 458 250 458 L286 458 Z M270 774 L367 774 L440 626 L342 626 L307 696 L250 626 L150 626 L270 774 Z " />
<glyph glyph-name="odieresis" unicode="&#xf6;" horiz-adv-x="406" d="M128 0 Q96 0 74.5 20 Q53 40 53 72 Q53 80 54 85 L112 455 Q115 473 124 488.5 Q133 504 147 515.5 Q161 527 177.5 533.5 Q194 540 212 540 L356 540 Q389 540 410 519.5 Q431 499 431 468 Q431 464 430.5 461.5 Q430 459 429 455 L371 85 Q365 49 337 24.5 Q309 0 272 0 L128 0 Z M250 458 Q235 458 222.5 446.5 Q210 435 208 421 L161 118 Q161 106 167.5 94.5 Q174 83 191 83 L234 83 Q249 83 261 94 Q273 105 275 119 L322 422 Q322 436 317 447 Q312 458 286 458 L250 458 Z M151 718 Q152 744 172.5 764.5 Q193 785 221 785 Q244 785 258 771 Q272 757 271 735 Q270 707 249.5 687 Q229 667 201 667 Q178 667 164 681.5 Q150 696 151 718 Z M359 718 Q360 744 381 764.5 Q402 785 430 785 Q452 785 466.5 771 Q481 757 480 735 Q480 721 473.5 708.5 Q467 696 457.5 687 Q448 678 435.5 672.5 Q423 667 410 667 Q387 667 372.5 681.5 Q358 696 359 718 Z " />
<glyph glyph-name="ograve" unicode="&#xf2;" horiz-adv-x="406" d="M128 0 Q96 0 74.5 20 Q53 40 53 72 Q53 80 54 85 L112 455 Q115 473 124 488.5 Q133 504 147 515.5 Q161 527 177.5 533.5 Q194 540 212 540 L356 540 Q389 540 410 519.5 Q431 499 431 468 Q431 464 430.5 461.5 Q430 459 429 455 L371 85 Q365 49 337 24.5 Q309 0 272 0 L128 0 Z M250 458 Q235 458 222.5 446.5 Q210 435 208 421 L161 118 Q161 106 167.5 94.5 Q174 83 191 83 L234 83 Q249 83 261 94 Q273 105 275 119 L322 422 Q322 436 317 447 Q312 458 286 458 L250 458 Z M336 676 L250 676 L215 775 L310 775 L336 676 Z " />
<glyph glyph-name="ohungarumlaut" unicode="&#x151;" horiz-adv-x="406" d="M128 0 Q96 0 74.5 20 Q53 40 53 72 Q53 80 54 85 L112 455 Q115 473 124 488.5 Q133 504 147 515.5 Q161 527 177.5 533.5 Q194 540 212 540 L356 540 Q389 540 410 519.5 Q431 499 431 468 Q431 464 430.5 461.5 Q430 459 429 455 L371 85 Q365 49 337 24.5 Q309 0 272 0 L128 0 Z M250 458 Q235 458 222.5 446.5 Q210 435 208 421 L161 118 Q161 106 167.5 94.5 Q174 83 191 83 L234 83 Q249 83 261 94 Q273 105 275 119 L322 422 Q322 436 317 447 Q312 458 286 458 L250 458 Z M227 774 L321 774 L254 675 L167 675 L227 774 Z M431 774 L525 774 L458 675 L371 675 L431 774 Z " />
<glyph glyph-name="oslash" unicode="&#xf8;" horiz-adv-x="450" d="M139 0 L101 -55 L-14 -55 L68 72 L128 455 Q131 473 140 488.5 Q149 504 163 515.5 Q177 527 193.5 533.5 Q210 540 228 540 L384 540 L421 594 L542 594 L445 453 L387 85 Q381 49 352.5 24.5 Q324 0 289 0 L139 0 Z M266 458 Q251 458 238.5 446.5 Q226 435 224 421 L177 118 Q177 107 183.5 95 Q190 83 207 83 L251 83 Q266 83 277.5 94 Q289 105 291 119 L338 422 Q338 434 333 446 Q328 458 301 458 L266 458 Z " />
<glyph glyph-name="omacron" unicode="&#x14d;" horiz-adv-x="406" d="M128 0 Q96 0 74.5 20 Q53 40 53 72 Q53 80 54 85 L112 455 Q115 473 124 488.5 Q133 504 147 515.5 Q161 527 177.5 533.5 Q194 540 212 540 L356 540 Q389 540 410 519.5 Q431 499 431 468 Q431 464 430.5 461.5 Q430 459 429 455 L371 85 Q365 49 337 24.5 Q309 0 272 0 L128 0 Z M250 458 Q235 458 222.5 446.5 Q210 435 208 421 L161 118 Q161 106 167.5 94.5 Q174 83 191 83 L234 83 Q249 83 261 94 Q273 105 275 119 L322 422 Q322 436 317 447 Q312 458 286 458 L250 458 Z M180 774 L470 774 L456 690 L166 690 L180 774 Z " />
<glyph glyph-name="otilde" unicode="&#xf5;" horiz-adv-x="406" d="M128 0 Q96 0 74.5 20 Q53 40 53 72 Q53 80 54 85 L112 455 Q115 473 124 488.5 Q133 504 147 515.5 Q161 527 177.5 533.5 Q194 540 212 540 L356 540 Q389 540 410 519.5 Q431 499 431 468 Q431 464 430.5 461.5 Q430 459 429 455 L371 85 Q365 49 337 24.5 Q309 0 272 0 L128 0 Z M250 458 Q235 458 222.5 446.5 Q210 435 208 421 L161 118 Q161 106 167.5 94.5 Q174 83 191 83 L234 83 Q249 83 261 94 Q273 105 275 119 L322 422 Q322 436 317 447 Q312 458 286 458 L250 458 Z M251 773 Q268 773 282.5 766.5 Q297 760 310.5 752.5 Q324 745 338.5 738.5 Q353 732 371 732 Q383 732 397.5 741 Q412 750 426 773 L500 773 Q485 709 452.5 674.5 Q420 640 378 640 Q362 640 346 646.5 Q330 653 314.5 661 Q299 669 284.5 675.5 Q270 682 257 682 Q244 682 232 673 Q220 664 206 640 L131 640 Q146 702 179 737.5 Q212 773 251 773 Z " />
<glyph glyph-name="oe" unicode="&#x153;" horiz-adv-x="609" d="M391 0 Q337 0 315 42 Q298 23 274.5 11.5 Q251 0 216 0 L130 0 Q97 0 75.5 20.5 Q54 41 54 72 Q54 75 54 78.5 Q54 82 55 85 L113 455 Q116 473 125 488.5 Q134 504 148 515.5 Q162 527 179 533.5 Q196 540 214 540 L300 540 Q335 540 356 527 Q377 514 387 499 Q401 516 425 528 Q449 540 475 540 L573 540 Q606 540 627 520.5 Q648 501 648 470 Q648 461 647 456 L616 253 L400 253 L379 116 Q379 103 384.5 94 Q390 85 403 83 L452 83 Q466 83 478.5 94 Q491 105 493 119 L497 145 L599 145 L589 85 Q583 49 555 24.5 Q527 0 489 0 L391 0 Z M251 458 Q237 458 224.5 446.5 Q212 435 209 421 L162 118 Q162 116 161.5 115.5 Q161 115 161 114 Q161 103 170 93 Q179 83 192 83 L236 83 Q250 83 262.5 94 Q275 105 277 119 L324 422 Q324 424 324.5 425.5 Q325 427 325 429 Q325 440 317 449 Q309 458 287 458 L251 458 Z M412 332 L527 332 L541 422 Q541 424 541.5 425.5 Q542 427 542 429 Q542 440 535.5 448.5 Q529 457 515 457 L462 457 Q449 457 439.5 447 Q430 437 427 426 L412 332 Z " />
<glyph glyph-name="oslashacute" unicode="&#x1ff;" horiz-adv-x="460" d="M139 0 L101 -55 L-14 -55 L68 72 L128 455 Q131 473 140 488.5 Q149 504 163 515.5 Q177 527 193.5 533.5 Q210 540 228 540 L384 540 L421 594 L542 594 L445 453 L387 85 Q381 49 352.5 24.5 Q324 0 289 0 L139 0 Z M266 458 Q251 458 238.5 446.5 Q226 435 224 421 L177 118 Q177 107 183.5 95 Q190 83 207 83 L251 83 Q266 83 277.5 94 Q289 105 291 119 L338 422 Q338 434 333 446 Q328 458 301 458 L266 458 Z M347 774 L441 774 L374 675 L287 675 L347 774 Z " />
<glyph glyph-name="racute" unicode="&#x155;" horiz-adv-x="377" d="M202 540 Q212 540 220 533 Q228 526 229 507 Q248 527 269 534 Q290 541 300 541 L366 541 Q397 541 418.5 519.5 Q440 498 440 466 Q440 464 439.5 461 Q439 458 439 456 L432 403 L331 403 L333 422 Q333 439 326 448.5 Q319 458 304 458 L263 458 Q245 458 232.5 448 Q220 438 218 422 L153 0 L52 0 L136 540 L202 540 Z M323 774 L417 774 L350 675 L263 675 L323 774 Z " />
<glyph glyph-name="rcaron" unicode="&#x159;" horiz-adv-x="377" d="M202 540 Q212 540 220 533 Q228 526 229 507 Q248 527 269 534 Q290 541 300 541 L366 541 Q397 541 418.5 519.5 Q440 498 440 466 Q440 464 439.5 461 Q439 458 439 456 L432 403 L331 403 L333 422 Q333 439 326 448.5 Q319 458 304 458 L263 458 Q245 458 232.5 448 Q220 438 218 422 L153 0 L52 0 L136 540 L202 540 Z M163 775 L260 775 L296 705 L353 775 L453 775 L332 627 L235 627 L163 775 Z " />
<glyph glyph-name="rcommaaccent" unicode="&#x157;" horiz-adv-x="377" d="M202 540 Q212 540 220 533 Q228 526 229 507 Q248 527 269 534 Q290 541 300 541 L366 541 Q397 541 418.5 519.5 Q440 498 440 466 Q440 464 439.5 461 Q439 458 439 456 L432 403 L331 403 L333 422 Q333 439 326 448.5 Q319 458 304 458 L263 458 Q245 458 232.5 448 Q220 438 218 422 L153 0 L52 0 L136 540 L202 540 Z M109 -204 L124 -105 L223 -105 L209 -196 Q203 -232 197.5 -258.5 Q192 -285 180 -301.5 Q168 -318 146.5 -326 Q125 -334 88 -334 L96 -287 Q116 -287 128 -282.5 Q140 -278 147 -268 Q154 -258 157.5 -242.5 Q161 -227 164 -204 L109 -204 Z " />
<glyph glyph-name="sacute" unicode="&#x15b;" horiz-adv-x="399" d="M213 421 Q210 403 209.5 398 Q209 393 209 391 Q209 368 222.5 352 Q236 336 256 323 Q276 310 300 298.5 Q324 287 344 272.5 Q364 258 377.5 238 Q391 218 391 188 Q391 172 388 150 Q385 128 377 85 Q374 67 364.5 51.5 Q355 36 341.5 24.5 Q328 13 311.5 6.5 Q295 0 277 0 L133 0 Q101 0 79.5 20 Q58 40 58 72 Q58 80 59 85 L70 152 L171 152 L166 118 Q166 106 172.5 94.5 Q179 83 195 83 L239 83 Q254 83 266 94 Q278 105 280 119 Q283 139 283.5 144.5 Q284 150 284 152 Q284 174 270.5 190 Q257 206 236 218 Q215 230 191.5 241 Q168 252 147 265.5 Q126 279 112.5 296.5 Q99 314 99 339 Q99 340 100 344.5 Q101 349 103 361 Q105 373 108.5 395 Q112 417 118 455 Q121 473 130 488.5 Q139 504 153 515.5 Q167 527 183.5 533.5 Q200 540 218 540 L361 540 Q393 540 413.5 515 Q434 490 434 459 Q434 455 433.5 451 Q433 447 433 444 L426 400 L324 400 L327 422 Q327 434 322 446 Q317 458 291 458 L254 458 Q240 458 227.5 446.5 Q215 435 213 421 Z M324 774 L418 774 L351 675 L264 675 L324 774 Z " />
<glyph glyph-name="scaron" unicode="&#x161;" horiz-adv-x="399" d="M213 421 Q210 403 209.5 398 Q209 393 209 391 Q209 368 222.5 352 Q236 336 256 323 Q276 310 300 298.5 Q324 287 344 272.5 Q364 258 377.5 238 Q391 218 391 188 Q391 172 388 150 Q385 128 377 85 Q374 67 364.5 51.5 Q355 36 341.5 24.5 Q328 13 311.5 6.5 Q295 0 277 0 L133 0 Q101 0 79.5 20 Q58 40 58 72 Q58 80 59 85 L70 152 L171 152 L166 118 Q166 106 172.5 94.5 Q179 83 195 83 L239 83 Q254 83 266 94 Q278 105 280 119 Q283 139 283.5 144.5 Q284 150 284 152 Q284 174 270.5 190 Q257 206 236 218 Q215 230 191.5 241 Q168 252 147 265.5 Q126 279 112.5 296.5 Q99 314 99 339 Q99 340 100 344.5 Q101 349 103 361 Q105 373 108.5 395 Q112 417 118 455 Q121 473 130 488.5 Q139 504 153 515.5 Q167 527 183.5 533.5 Q200 540 218 540 L361 540 Q393 540 413.5 515 Q434 490 434 459 Q434 455 433.5 451 Q433 447 433 444 L426 400 L324 400 L327 422 Q327 434 322 446 Q317 458 291 458 L254 458 Q240 458 227.5 446.5 Q215 435 213 421 Z M174 775 L271 775 L307 705 L364 775 L464 775 L343 627 L246 627 L174 775 Z " />
</font>
</svg>
