<?xml version="1.0" encoding="UTF-8"?>
<svg xmlns="http://www.w3.org/2000/svg" xmlns:xlink="http://www.w3.org/1999/xlink" version="1.2" >
<font id="Ampero Bold">
<font-face  font-family="Ampero" units-per-em="1000" ascent="775" descent="-231" font-style="normal" font-weight="700" font-stretch="normal" cap-height="749" x-height="540" underline-position="-75" underline-thickness="50" />
<missing-glyph  horiz-adv-x="233" d="" />
<glyph glyph-name="Z" unicode="Z" horiz-adv-x="392" d="M35 749 L361 749 L361 642 Q361 632 359.5 625 Q358 618 356 613 L156 119 L361 119 L361 0 L36 0 L36 105 Q36 127 40 136 L241 630 L35 630 L35 749 Z " />
<glyph glyph-name="Y" unicode="Y" horiz-adv-x="387" d="M193 503 L196 424 L200 503 L259 749 L381 749 Q366 689 350 624 Q334 559 318 492.5 Q302 426 286 360.5 Q270 295 256 235 L256 0 L137 0 L137 235 Q123 295 107 360.5 Q91 426 75 492.5 Q59 559 43 624 Q27 689 12 749 L134 749 L193 503 Z " />
<glyph glyph-name="X" unicode="X" horiz-adv-x="422" d="M214 345 L210 238 L152 0 L30 0 L127 410 L30 749 L152 749 L210 558 L214 486 L218 558 L276 749 L398 749 L301 410 L398 0 L276 0 L218 238 L214 345 Z " />
<glyph glyph-name="P" unicode="P" horiz-adv-x="411" d="M55 749 L284 749 Q303 749 320.5 741.5 Q338 734 351 721.5 Q364 709 372 691.5 Q380 674 380 655 L380 401 Q380 381 372 363.5 Q364 346 351 333.5 Q338 321 320.5 314 Q303 307 284 307 L174 307 L174 0 L55 0 L55 749 Z M174 649 L174 409 L237 409 Q247 409 254 415.5 Q261 422 261 432 L261 625 Q261 633 255.5 641 Q250 649 241 649 L174 649 Z " />
<glyph glyph-name="R" unicode="R" horiz-adv-x="418" d="M382 401 Q382 360 352.5 336 Q323 312 272 306 L404 0 L277 0 L155 290 L175 196 L175 0 L56 0 L56 749 L285 749 Q304 749 321.5 741.5 Q339 734 352.5 721.5 Q366 709 374 691.5 Q382 674 382 655 L382 401 Z M175 649 L175 409 L238 409 Q248 409 255 415.5 Q262 422 262 432 L262 625 Q262 633 256.5 641 Q251 649 242 649 L175 649 Z " />
<glyph glyph-name="Q" unicode="Q" horiz-adv-x="437" d="M326 -149 L253 -149 Q234 -149 216.5 -142 Q199 -135 186 -122 Q173 -109 165 -92.5 Q157 -76 157 -56 L157 0 L148 0 Q129 0 112 7.5 Q95 15 82.5 27.5 Q70 40 62.5 57 Q55 74 55 94 L55 655 Q55 674 62.5 691.5 Q70 709 82.5 721.5 Q95 734 112 741.5 Q129 749 148 749 L286 749 Q305 749 322.5 741.5 Q340 734 352.5 721.5 Q365 709 372.5 691.5 Q380 674 380 655 L380 94 Q380 74 372.5 57 Q365 40 352.5 27.5 Q340 15 322.5 7.5 Q305 0 286 0 L277 0 L277 -25 Q277 -31 284 -38.5 Q291 -46 300 -46 L326 -46 L326 -149 Z M197 649 Q188 649 181.5 641.5 Q175 634 175 624 L175 125 Q175 117 182 109 Q189 101 197 101 L239 101 Q249 101 255.5 108 Q262 115 262 125 L262 625 Q262 633 255.5 641 Q249 649 232 649 L197 649 Z " />
<glyph glyph-name="S" unicode="S" horiz-adv-x="403" d="M160 537 Q160 517 175.5 503 Q191 489 214 477.5 Q237 466 263.5 454 Q290 442 313 426 Q336 410 351.5 388.5 Q367 367 367 336 L367 94 Q367 74 359.5 57 Q352 40 338.5 27.5 Q325 15 307.5 7.5 Q290 0 271 0 L134 0 Q115 0 98 7.5 Q81 15 68 27.5 Q55 40 47.5 57 Q40 74 40 94 L40 227 L160 227 L160 125 Q160 117 167 109 Q174 101 182 101 L224 101 Q234 101 241 108 Q248 115 248 125 L248 292 Q248 316 232.5 332.5 Q217 349 194 362.5 Q171 376 144.5 388 Q118 400 95 414.5 Q72 429 56.5 448 Q41 467 41 495 L41 655 Q41 674 48.5 691.5 Q56 709 69 721.5 Q82 734 99 741.5 Q116 749 136 749 L271 749 Q290 749 307.5 741.5 Q325 734 338.5 721.5 Q352 709 359.5 691.5 Q367 674 367 655 L367 545 L248 545 L248 625 Q248 633 241 641 Q234 649 216 649 L182 649 Q173 649 166.5 641.5 Q160 634 160 624 L160 537 Z " />
<glyph glyph-name="T" unicode="T" horiz-adv-x="382" d="M36 749 L361 749 L361 630 L258 630 L258 0 L138 0 L138 630 L36 630 L36 749 Z " />
<glyph glyph-name="U" unicode="U" horiz-adv-x="418" d="M172 749 L172 125 Q172 117 179 109 Q186 101 194 101 L236 101 Q246 101 253 108 Q260 115 260 125 L260 749 L379 749 L379 94 Q379 74 371 57 Q363 40 350 27.5 Q337 15 319.5 7.5 Q302 0 283 0 L146 0 Q127 0 110 7.5 Q93 15 80 27.5 Q67 40 59.5 57 Q52 74 52 94 L52 749 L172 749 Z " />
<glyph glyph-name="W" unicode="W" horiz-adv-x="744" d="M426 749 L512 342 L521 212 L530 342 L616 749 L746 749 L578 0 L467 0 L379 355 L370 487 L362 355 L275 0 L163 0 L-5 749 L125 749 L212 342 L220 212 L229 342 L315 749 L426 749 Z " />
<glyph glyph-name="B" unicode="B" horiz-adv-x="423" d="M55 749 L286 749 Q305 749 322.5 741.5 Q340 734 353 721.5 Q366 709 374 691.5 Q382 674 382 655 L382 494 Q382 474 370.5 455 Q359 436 339 417 Q382 385 382 343 L382 94 Q382 74 374 57 Q366 40 353 27.5 Q340 15 322.5 7.5 Q305 0 286 0 L55 0 L55 749 Z M174 101 L239 101 Q249 101 255 108 Q261 115 261 125 L261 356 Q261 367 254.5 374.5 Q248 382 237 382 L174 382 L174 101 Z M237 482 Q248 482 254.5 489 Q261 496 261 506 L261 624 Q261 632 256.5 639.5 Q252 647 243 647 L174 647 L174 482 L237 482 Z " />
<glyph glyph-name="D" unicode="D" horiz-adv-x="427" d="M55 749 L285 749 Q304 749 321.5 741.5 Q339 734 352 721.5 Q365 709 373 691.5 Q381 674 381 655 L381 94 Q381 74 373 57 Q365 40 352 27.5 Q339 15 321.5 7.5 Q304 0 285 0 L55 0 L55 749 Z M261 625 Q261 633 256 641 Q251 649 242 649 L174 649 L174 101 L238 101 Q248 101 254.5 108 Q261 115 261 125 L261 625 Z " />
<glyph glyph-name="C" unicode="C" horiz-adv-x="407" d="M371 309 L371 94 Q371 74 363.5 57 Q356 40 343.5 27.5 Q331 15 313.5 7.5 Q296 0 277 0 L139 0 Q120 0 103 7.5 Q86 15 73.5 27.5 Q61 40 53.5 57 Q46 74 46 94 L46 655 Q46 674 53.5 691.5 Q61 709 73.5 721.5 Q86 734 103 741.5 Q120 749 139 749 L277 749 Q296 749 313.5 741.5 Q331 734 343.5 721.5 Q356 709 363.5 691.5 Q371 674 371 655 L371 424 L253 424 L253 624 Q253 632 248 639.5 Q243 647 234 647 L184 647 Q175 647 170.5 639.5 Q166 632 166 624 L166 125 Q166 116 171 108.5 Q176 101 184 101 L230 101 Q240 101 246.5 108 Q253 115 253 125 L253 309 L371 309 Z " />
<glyph glyph-name="E" unicode="E" horiz-adv-x="424" d="M56 749 L383 749 L383 630 L175 630 L175 426 L351 426 L351 307 L175 307 L175 119 L383 119 L383 0 L56 0 L56 749 Z " />
<glyph glyph-name="G" unicode="G" horiz-adv-x="409" d="M139 0 Q120 0 103 7.5 Q86 15 73.5 27.5 Q61 40 53.5 57 Q46 74 46 94 L46 655 Q46 674 53.5 691.5 Q61 709 73.5 721.5 Q86 734 103 741.5 Q120 749 139 749 L277 749 Q296 749 313.5 741.5 Q331 734 343.5 721.5 Q356 709 363.5 691.5 Q371 674 371 655 L371 464 L253 464 L253 624 Q253 632 248 639.5 Q243 647 234 647 L184 647 Q175 647 170.5 639.5 Q166 632 166 624 L166 125 Q166 116 171.5 109.5 Q177 103 185 101 L226 101 Q236 101 244.5 106.5 Q253 112 253 125 L253 229 L213 229 L213 349 L371 349 L371 0 L265 0 L251 20 Q242 11 231 5.5 Q220 0 209 0 L139 0 Z " />
<glyph glyph-name="H" unicode="H" horiz-adv-x="432" d="M261 307 L174 307 L174 0 L55 0 L55 749 L174 749 L174 426 L261 426 L261 749 L381 749 L381 0 L261 0 L261 307 Z " />
<glyph glyph-name="J" unicode="J" horiz-adv-x="362" d="M116 299 L116 125 Q116 115 122 108 Q128 101 137 101 L183 101 Q190 103 195.5 109 Q201 115 201 125 L201 749 L321 749 L321 94 Q321 74 313.5 57 Q306 40 293.5 27.5 Q281 15 264 7.5 Q247 0 228 0 L90 0 Q71 0 53.5 7.5 Q36 15 23 27.5 Q10 40 2.5 57 Q-5 74 -5 94 L-5 299 L116 299 Z " />
<glyph glyph-name="K" unicode="K" horiz-adv-x="400" d="M174 542 L149 440 L275 749 L403 749 L244 374 L403 0 L276 0 L155 291 L174 196 L174 0 L55 0 L55 749 L174 749 L174 542 Z " />
<glyph glyph-name="L" unicode="L" horiz-adv-x="399" d="M174 119 L382 119 L382 0 L55 0 L55 749 L174 749 L174 119 Z " />
<glyph glyph-name="M" unicode="M" horiz-adv-x="550" d="M376 749 L503 749 L503 0 L384 0 L384 284 L400 383 L312 0 L246 0 L158 383 L174 284 L174 0 L55 0 L55 749 L182 749 L279 311 L376 749 Z " />
<glyph glyph-name="O" unicode="O" horiz-adv-x="412" d="M138 0 Q119 0 102 7.5 Q85 15 72.5 27.5 Q60 40 52.5 57 Q45 74 45 94 L45 655 Q45 674 52.5 691.5 Q60 709 72.5 721.5 Q85 734 102 741.5 Q119 749 138 749 L276 749 Q295 749 312.5 741.5 Q330 734 342.5 721.5 Q355 709 362.5 691.5 Q370 674 370 655 L370 94 Q370 74 362.5 57 Q355 40 342.5 27.5 Q330 15 312.5 7.5 Q295 0 276 0 L138 0 Z M187 649 Q178 649 171.5 641.5 Q165 634 165 624 L165 125 Q165 117 172 109 Q179 101 187 101 L229 101 Q239 101 245.5 108 Q252 115 252 125 L252 625 Q252 633 245.5 641 Q239 649 222 649 L187 649 Z " />
<glyph glyph-name="N" unicode="N" horiz-adv-x="425" d="M386 0 L256 0 L158 383 L174 284 L174 0 L55 0 L55 749 L184 749 L282 366 L266 465 L266 749 L386 749 L386 0 Z " />
<glyph glyph-name="I" unicode="I" horiz-adv-x="221" d="M60 749 L180 749 L180 0 L60 0 L60 749 Z " />
<glyph glyph-name="F" unicode="F" horiz-adv-x="414" d="M56 749 L383 749 L383 630 L175 630 L175 426 L351 426 L351 307 L175 307 L175 0 L56 0 L56 749 Z " />
<glyph glyph-name="V" unicode="V" horiz-adv-x="432" d="M206 331 L214 197 L223 331 L310 749 L440 749 L270 0 L158 0 L-10 749 L119 749 L206 331 Z " />
<glyph glyph-name="zero" unicode="0" horiz-adv-x="389" d="M140 0 Q121 0 104 7.5 Q87 15 74.5 27.5 Q62 40 54.5 57 Q47 74 47 94 L47 655 Q47 674 54.5 691.5 Q62 709 74.5 721.5 Q87 734 104 741.5 Q121 749 140 749 L278 749 Q297 749 314.5 741.5 Q332 734 345 721.5 Q358 709 366 691.5 Q374 674 374 655 L374 94 Q374 74 366 57 Q358 40 345 27.5 Q332 15 314.5 7.5 Q297 0 278 0 L140 0 Z M189 649 Q180 649 173.5 641.5 Q167 634 167 624 L167 125 Q167 117 174 109 Q181 101 189 101 L231 101 Q241 101 248 108 Q255 115 255 125 L255 625 Q255 633 248 641 Q241 649 224 649 L189 649 Z " />
<glyph glyph-name="one" unicode="1" horiz-adv-x="264" d="M106 0 L106 545 L54 545 L54 662 Q65 671 76 683 Q85 694 93.5 710 Q102 726 107 749 L227 749 L227 0 L106 0 Z " />
<glyph glyph-name="two" unicode="2" horiz-adv-x="409" d="M374 603 Q374 595 371 586 Q368 577 365 569 L163 119 L374 119 L374 0 L48 0 L48 105 Q48 116 50.5 125.5 Q53 135 60 150 L243 556 Q247 565 251.5 582.5 Q256 600 256 624 Q256 638 249 643.5 Q242 649 232 649 L199 649 Q181 649 174.5 641 Q168 633 168 625 L168 545 L48 545 L48 655 Q48 674 55.5 691.5 Q63 709 75.5 721.5 Q88 734 105 741.5 Q122 749 141 749 L278 749 Q297 749 314.5 741.5 Q332 734 345 721.5 Q358 709 366 691.5 Q374 674 374 655 L374 603 Z " />
<glyph glyph-name="three" unicode="3" horiz-adv-x="389" d="M231 101 Q241 101 248 108 Q255 115 255 125 L255 360 Q255 370 247.5 377.5 Q240 385 229 385 L174 385 L174 486 L229 486 Q240 486 247.5 492.5 Q255 499 255 509 L255 624 Q255 632 249.5 639.5 Q244 647 235 647 L185 647 Q176 647 171.5 639.5 Q167 632 167 624 L167 572 L47 572 L47 655 Q47 674 54.5 691.5 Q62 709 74.5 721.5 Q87 734 104 741.5 Q121 749 140 749 L278 749 Q297 749 314.5 741.5 Q332 734 345 721.5 Q358 709 366 691.5 Q374 674 374 655 L374 510 Q374 486 367 467 Q360 448 335 434 Q358 426 366 406.5 Q374 387 374 358 L374 94 Q374 74 366 57 Q358 40 345 27.5 Q332 15 314.5 7.5 Q297 0 278 0 L140 0 Q121 0 104 7.5 Q87 15 74.5 27.5 Q62 40 54.5 57 Q47 74 47 94 L47 299 L167 299 L167 125 Q167 115 173.5 108 Q180 101 189 101 L231 101 L231 101 Z " />
<glyph glyph-name="four" unicode="4" horiz-adv-x="403" d="M47 334 L203 749 L371 749 L371 332 L451 332 L451 213 L371 213 L371 0 L252 0 L252 213 L47 213 L47 334 Z M170 332 L252 332 L252 519 L265 595 L249 536 L170 332 Z " />
<glyph glyph-name="five" unicode="5" horiz-adv-x="389" d="M167 477 Q175 483 183.5 485 Q192 487 199 487 L278 487 Q297 487 314.5 480 Q332 473 345 460.5 Q358 448 366 431 Q374 414 374 395 L374 94 Q374 74 366 57 Q358 40 345 27.5 Q332 15 314.5 7.5 Q297 0 278 0 L140 0 Q121 0 104 7.5 Q87 15 74.5 27.5 Q62 40 54.5 57 Q47 74 47 94 L47 210 L167 210 L167 125 Q167 117 174 109 Q181 101 189 101 L231 101 Q241 101 248 108 Q255 115 255 125 L255 363 Q255 386 231 386 L194 386 Q170 386 164 353 L47 353 L47 749 L374 749 L374 649 L189 649 Q180 649 173.5 641.5 Q167 634 167 624 L167 477 Z " />
<glyph glyph-name="six" unicode="6" horiz-adv-x="389" d="M231 101 Q241 101 248 108 Q255 115 255 125 L255 363 Q255 371 247 378.5 Q239 386 231 386 L194 386 Q184 386 175.5 381 Q167 376 167 364 L167 125 Q167 117 174 109 Q181 101 189 101 L231 101 Z M278 487 Q297 487 314.5 480 Q332 473 345 460.5 Q358 448 366 431 Q374 414 374 395 L374 94 Q374 74 366 57 Q358 40 345 27.5 Q332 15 314.5 7.5 Q297 0 278 0 L140 0 Q121 0 104 7.5 Q87 15 74.5 27.5 Q62 40 54.5 57 Q47 74 47 94 L47 655 Q47 674 54.5 691.5 Q62 709 74.5 721.5 Q87 734 104 741.5 Q121 749 140 749 L278 749 Q297 749 314.5 741.5 Q332 734 345 721.5 Q358 709 366 691.5 Q374 674 374 655 L374 566 L255 566 L255 625 Q255 633 248 641 Q241 649 224 649 L189 649 Q180 649 173 641.5 Q166 634 166 624 L166 477 Q174 483 182.5 485 Q191 487 198 487 L278 487 Z " />
<glyph glyph-name="seven" unicode="7" horiz-adv-x="390" d="M51 749 L378 749 L378 646 Q378 638 376 628.5 Q374 619 372 611 L166 0 L43 0 L256 630 L51 630 L51 749 Z " />
<glyph glyph-name="eight" unicode="8" horiz-adv-x="389" d="M47 342 Q47 365 57 386 Q67 407 85 418 Q69 432 58 453 Q47 474 47 494 L47 657 Q47 676 54.5 693 Q62 710 74.5 722.5 Q87 735 104 742 Q121 749 140 749 L278 749 Q297 749 314.5 741.5 Q332 734 345 721.5 Q358 709 366 691.5 Q374 674 374 655 L374 494 Q374 474 363 453 Q352 432 335 418 Q354 407 364 386 Q374 365 374 342 L374 94 Q374 74 366 57 Q358 40 345 27.5 Q332 15 314.5 7.5 Q297 0 278 0 L140 0 Q121 0 104 7.5 Q87 15 74.5 27.5 Q62 40 54.5 57 Q47 74 47 94 L47 342 Z M191 369 Q181 369 174 361.5 Q167 354 167 343 L167 125 Q167 115 173.5 108 Q180 101 189 101 L231 101 Q241 101 248 108 Q255 115 255 125 L255 343 Q255 354 247.5 361.5 Q240 369 229 369 L191 369 Z M185 647 Q176 647 171.5 639.5 Q167 632 167 624 L167 493 Q167 483 174 476 Q181 469 191 469 L229 469 Q240 469 247.5 476 Q255 483 255 493 L255 624 Q255 632 249.5 639.5 Q244 647 235 647 L185 647 Z " />
<glyph glyph-name="nine" unicode="9" horiz-adv-x="409" d="M189 647 Q180 647 173.5 640 Q167 633 167 623 L167 385 Q167 377 174 369.5 Q181 362 189 362 L227 362 Q237 362 246 366.5 Q255 371 255 383 L255 624 Q255 632 247 639.5 Q239 647 231 647 L189 647 Z M140 261 Q121 261 104 268 Q87 275 74.5 287.5 Q62 300 54.5 316.5 Q47 333 47 353 L47 655 Q47 674 54.5 691 Q62 708 74.5 720.5 Q87 733 104 740.5 Q121 748 140 748 L278 748 Q297 748 314.5 740.5 Q332 733 345 720.5 Q358 708 366 691 Q374 674 374 655 L374 93 Q374 73 366 55.5 Q358 38 345 25.5 Q332 13 314.5 6 Q297 -1 278 -1 L140 -1 Q102 -1 74.5 25.5 Q47 52 47 93 L47 182 L167 182 L167 123 Q167 115 173.5 107 Q180 99 198 99 L231 99 Q241 99 248 106.5 Q255 114 255 125 L255 272 Q247 267 237.5 264 Q228 261 223 261 L140 261 Z " />
<glyph glyph-name="a" unicode="a" horiz-adv-x="416" d="M166 124 Q166 117 172 110 Q178 103 188 103 L225 103 Q235 103 243.5 108 Q252 113 252 125 L252 419 Q252 432 243.5 434 Q235 436 225 436 L182 436 Q174 436 170 429 Q166 422 166 415 L166 124 Z M225 540 Q233 540 244 535.5 Q255 531 263 523 Q269 532 278 536 Q287 540 298 540 L372 540 L372 0 L279 0 L263 18 Q246 0 223 0 L139 0 Q100 0 72.5 27 Q45 54 45 93 L45 447 Q45 466 52.5 483 Q60 500 72.5 512.5 Q85 525 102 532.5 Q119 540 139 540 L225 540 Z " />
<glyph glyph-name="b" unicode="b" horiz-adv-x="416" d="M202 0 Q188 0 180 3.5 Q172 7 163 18 L147 0 L55 0 L55 774 L176 774 L176 514 Q183 530 196 535 Q209 540 217 540 L289 540 Q308 540 325 532.5 Q342 525 355 512.5 Q368 500 375.5 483 Q383 466 383 447 L383 93 Q383 73 375.5 56.5 Q368 40 355 27 Q342 14 325 7 Q308 0 289 0 L202 0 Z M262 411 Q262 420 258 428 Q254 436 241 436 L201 436 Q190 436 183 430 Q176 424 176 411 L176 124 Q176 111 183 107 Q190 103 201 103 L242 103 Q251 103 256.5 110 Q262 117 262 124 L262 411 Z " />
<glyph glyph-name="c" unicode="c" horiz-adv-x="399" d="M371 162 L371 93 Q371 73 363.5 56.5 Q356 40 343 27 Q330 14 312.5 7 Q295 0 276 0 L138 0 Q119 0 102 7 Q85 14 72 27 Q59 40 51.5 56.5 Q44 73 44 93 L44 447 Q44 466 51.5 483 Q59 500 72 512.5 Q85 525 102 532.5 Q119 540 138 540 L276 540 Q295 540 312.5 532.5 Q330 525 343 512.5 Q356 500 363.5 483 Q371 466 371 447 L371 375 L251 375 L251 415 Q251 422 247 429 Q243 436 232 436 L181 436 Q173 436 169 429 Q165 422 165 415 L165 125 Q165 117 170 110.5 Q175 104 183 103 L228 103 Q238 103 244.5 109.5 Q251 116 251 125 L251 162 L371 162 Z " />
<glyph glyph-name="w" unicode="w" horiz-adv-x="634" d="M418 220 L422 161 L427 220 L485 540 L615 540 L484 0 L362 0 L314 203 Q303 153 292 101 Q281 49 270 0 L145 0 L15 540 L146 540 L203 220 L207 161 L212 221 L264 381 L222 540 L361 540 L418 220 Z " />
<glyph glyph-name="v" unicode="v" horiz-adv-x="398" d="M197 220 L201 161 L206 220 L263 540 L389 540 L258 0 L145 0 L14 540 L139 540 L197 220 Z " />
<glyph glyph-name="u" unicode="u" horiz-adv-x="410" d="M140 0 Q100 0 72.5 27 Q45 54 45 93 L45 540 L167 540 L167 125 Q167 118 171 111 Q175 104 183 104 L225 104 Q236 104 244 108 Q252 112 252 125 L252 540 L372 540 L372 0 L293 0 Q281 0 272.5 4.5 Q264 9 259 26 Q248 9 238 4.5 Q228 0 221 0 L140 0 Z " />
<glyph glyph-name="t" unicode="t" horiz-adv-x="280" d="M77 418 L23 418 L23 540 L77 540 L77 627 L195 627 L195 540 L254 540 L254 420 L195 420 L195 122 Q195 116 201 109.5 Q207 103 218 103 L254 103 L254 0 L172 0 Q127 0 102 28 Q77 56 77 105 L77 418 Z " />
<glyph glyph-name="s" unicode="s" horiz-adv-x="399" d="M162 395 Q162 371 177.5 355.5 Q193 340 215.5 328 Q238 316 265 303.5 Q292 291 314.5 273 Q337 255 352.5 228 Q368 201 368 159 L368 93 Q368 73 360.5 56.5 Q353 40 340 27 Q327 14 309.5 7 Q292 0 273 0 L135 0 Q116 0 99 7 Q82 14 69 27 Q56 40 48.5 56.5 Q41 73 41 93 L41 168 L162 168 L162 124 Q162 117 168.5 110 Q175 103 183 103 L225 103 Q235 103 241.5 109.5 Q248 116 248 125 L248 149 Q248 172 232.5 187 Q217 202 194.5 214 Q172 226 145 237 Q118 248 95.5 262 Q73 276 57.5 295.5 Q42 315 42 345 L42 447 Q42 466 49.5 483 Q57 500 70 512.5 Q83 525 100 532.5 Q117 540 136 540 L273 540 Q292 540 309.5 531 Q327 522 340 507 Q353 492 360.5 473.5 Q368 455 368 436 L368 382 L248 382 L248 416 Q248 424 241.5 431 Q235 438 218 438 L183 438 Q174 438 168 431 Q162 424 162 415 L162 395 Z " />
<glyph glyph-name="q" unicode="q" horiz-adv-x="409" d="M141 0 Q101 0 73.5 27 Q46 54 46 93 L46 447 Q46 466 53.5 483 Q61 500 73.5 512.5 Q86 525 103.5 532.5 Q121 540 141 540 L234 540 Q241 540 249.5 535 Q258 530 266 516 Q272 530 280.5 535 Q289 540 300 540 L373 540 L373 -231 L254 -231 L254 3 Q249 1 245.5 0.5 Q242 0 237 0 L141 0 Z M168 124 Q168 117 174 110 Q180 103 189 103 L226 103 Q237 103 245.5 108 Q254 113 254 125 L254 414 Q254 427 248 431.5 Q242 436 231 436 L184 436 Q176 436 172 429 Q168 422 168 415 L168 124 Z " />
<glyph glyph-name="r" unicode="r" horiz-adv-x="366" d="M122 540 Q130 540 140 534 Q150 528 157 508 Q173 528 190 534 Q207 540 216 540 L278 540 Q297 540 314.5 532.5 Q332 525 345 512.5 Q358 500 365.5 483 Q373 466 373 447 L373 384 L254 384 L254 415 Q254 424 247 430.5 Q240 437 231 437 L192 437 Q181 437 174 430.5 Q167 424 167 415 L167 0 L46 0 L46 540 L122 540 L122 540 Z " />
<glyph glyph-name="p" unicode="p" horiz-adv-x="409" d="M184 0 Q179 0 176 0.5 Q173 1 169 3 L169 -231 L48 -231 L48 540 L123 540 Q132 540 141 535.5 Q150 531 155 518 Q163 529 172 534.5 Q181 540 187 540 L280 540 Q299 540 316.5 532.5 Q334 525 347 512.5 Q360 500 367.5 483 Q375 466 375 447 L375 93 Q375 73 367.5 56.5 Q360 40 347 27 Q334 14 316.5 7 Q299 0 280 0 L184 0 Z M255 415 Q255 422 250.5 429 Q246 436 237 436 L194 436 Q184 436 176.5 434 Q169 432 169 419 L169 125 Q169 113 176.5 108 Q184 103 194 103 L232 103 Q242 103 248.5 110 Q255 117 255 124 L255 415 Z " />
<glyph glyph-name="o" unicode="o" horiz-adv-x="406" d="M188 438 Q178 438 172 429.5 Q166 421 166 412 L166 128 Q166 121 172.5 112 Q179 103 188 103 L229 103 Q239 103 245.5 111.5 Q252 120 252 129 L252 413 Q252 421 246 429.5 Q240 438 222 438 L188 438 Z M139 0 Q120 0 103 7 Q86 14 73 27 Q60 40 52.5 56.5 Q45 73 45 93 L45 447 Q45 466 52.5 483 Q60 500 73 512.5 Q86 525 103 532.5 Q120 540 139 540 L277 540 Q297 540 314.5 532.5 Q332 525 344.5 512.5 Q357 500 364.5 483 Q372 466 372 447 L372 93 Q372 54 344.5 27 Q317 0 277 0 L139 0 Z " />
<glyph glyph-name="n" unicode="n" horiz-adv-x="417" d="M284 540 Q303 540 320.5 532.5 Q338 525 351 512.5 Q364 500 371.5 483 Q379 466 379 447 L379 0 L259 0 L259 415 Q259 422 254.5 429 Q250 436 241 436 L198 436 Q187 436 180.5 432 Q174 428 174 415 L174 0 L52 0 L52 540 L131 540 Q142 540 151 536 Q160 532 166 515 Q176 532 185.5 536 Q195 540 203 540 L284 540 Z " />
<glyph glyph-name="m" unicode="m" horiz-adv-x="621" d="M277 540 Q294 540 312.5 533.5 Q331 527 346 505 Q359 527 376 533.5 Q393 540 413 540 L491 540 Q510 540 527.5 532.5 Q545 525 558 512.5 Q571 500 578.5 483 Q586 466 586 447 L586 0 L464 0 L464 415 Q464 422 460 429 Q456 436 448 436 L406 436 Q395 436 386.5 432.5 Q378 429 378 415 L378 0 L259 0 L259 415 Q259 422 254 429 Q249 436 240 436 L197 436 Q187 436 179.5 432 Q172 428 172 415 L172 0 L50 0 L50 540 L131 540 Q142 540 149.5 536 Q157 532 163 515 Q173 532 182.5 536 Q192 540 202 540 L277 540 Z " />
<glyph glyph-name="l" unicode="l" horiz-adv-x="221" d="M57 774 L177 774 L177 0 L57 0 L57 774 Z " />
<glyph glyph-name="k" unicode="k" horiz-adv-x="386" d="M172 774 L172 472 L152 359 L258 540 L386 540 L249 309 L385 0 L256 0 L157 239 L172 131 L172 0 L54 0 L54 774 L172 774 Z " />
<glyph glyph-name="i" unicode="i" horiz-adv-x="215" d="M51 540 L171 540 L171 0 L51 0 L51 540 Z M42 699 Q42 728 62 748.5 Q82 769 111 769 Q140 769 159.5 748.5 Q179 728 179 699 Q179 670 159.5 651 Q140 632 111 632 Q82 632 62 651 Q42 670 42 699 Z " />
<glyph glyph-name="j" unicode="j" horiz-adv-x="216" d="M17 -139 Q55 -137 55 -106 L55 540 L173 540 L173 -145 Q173 -164 165.5 -181 Q158 -198 145 -210.5 Q132 -223 115 -230.5 Q98 -238 79 -238 L12 -238 L17 -139 Z M45 705 Q45 734 65 754.5 Q85 775 114 775 Q142 775 162.5 754.5 Q183 734 183 705 Q183 676 162.5 657 Q142 638 114 638 Q85 638 65 657 Q45 676 45 705 Z " />
<glyph glyph-name="h" unicode="h" horiz-adv-x="413" d="M55 0 L55 774 L176 774 L176 526 Q181 535 187.5 537.5 Q194 540 199 540 L289 540 Q308 540 325 532.5 Q342 525 355 512.5 Q368 500 375.5 483 Q383 466 383 447 L383 0 L263 0 L263 416 Q263 426 256.5 431 Q250 436 241 436 L200 436 Q190 436 183 431.5 Q176 427 176 416 L176 0 L55 0 Z " />
<glyph glyph-name="g" unicode="g" horiz-adv-x="409" d="M139 0 Q100 0 72.5 27 Q45 54 45 93 L45 447 Q45 466 52.5 483 Q60 500 72.5 512.5 Q85 525 102 532.5 Q119 540 139 540 L244 540 Q250 540 256.5 536.5 Q263 533 266 523 Q271 534 277 537 Q283 540 288 540 L372 540 L372 -138 Q372 -157 364.5 -174 Q357 -191 344 -203.5 Q331 -216 313.5 -223.5 Q296 -231 277 -231 L139 -231 Q119 -231 102 -223.5 Q85 -216 72.5 -203.5 Q60 -191 52.5 -174 Q45 -157 45 -138 L45 -60 L166 -60 L166 -106 Q166 -116 172 -122.5 Q178 -129 188 -129 L226 -129 Q239 -129 245.5 -122 Q252 -115 252 -106 L252 10 Q234 0 221 0 L139 0 Z M166 124 Q166 117 172.5 110 Q179 103 188 103 L225 103 Q235 103 243.5 108 Q252 113 252 125 L252 420 Q252 433 243.5 435 Q235 437 225 437 L182 437 Q174 437 170 430 Q166 423 166 416 L166 124 Z " />
<glyph glyph-name="f" unicode="f" horiz-adv-x="274" d="M54 668 Q54 718 79 746 Q104 774 150 774 L284 774 L284 655 L172 655 L172 540 L252 540 L252 420 L172 420 L172 0 L54 0 L54 668 Z " />
<glyph glyph-name="z" unicode="z" horiz-adv-x="386" d="M46 84 Q46 102 51.5 115.5 Q57 129 61 137 L208 420 L46 420 L46 540 L349 540 L349 449 Q349 436 346.5 427.5 Q344 419 339 410 L187 119 L358 119 L358 -1 L46 -1 L46 84 Z " />
<glyph glyph-name="y" unicode="y" horiz-adv-x="412" d="M375 540 L375 -132 Q375 -151 367.5 -168 Q360 -185 347 -198 Q334 -211 316.5 -218.5 Q299 -226 280 -226 L142 -226 Q122 -226 105 -218.5 Q88 -211 75.5 -198 Q63 -185 55.5 -168 Q48 -151 48 -132 L48 -52 L169 -52 L169 -100 Q169 -110 175 -116.5 Q181 -123 191 -123 L236 -123 Q244 -121 249.5 -115 Q255 -109 255 -100 L255 10 Q237 0 224 0 L142 0 Q103 0 75.5 27 Q48 54 48 93 L48 540 L169 540 L169 125 Q169 118 173 111 Q177 104 186 104 L228 104 Q238 104 246.5 106 Q255 108 255 121 L255 540 L375 540 Z " />
<glyph glyph-name="x" unicode="x" horiz-adv-x="390" d="M201 394 L256 540 L374 540 L281 287 L375 0 L252 0 L201 168 L197 227 L193 168 L142 0 L19 0 L113 287 L20 540 L138 540 L193 394 L197 337 L201 394 Z " />
<glyph glyph-name="d" unicode="d" horiz-adv-x="417" d="M373 774 L373 0 L282 0 L266 20 Q258 11 248.5 5.5 Q239 0 226 0 L140 0 Q101 0 73.5 27 Q46 54 46 93 L46 447 Q46 466 53.5 483 Q61 500 73.5 512.5 Q86 525 103 532.5 Q120 540 140 540 L216 540 Q221 540 232 535.5 Q243 531 254 516 L254 774 L373 774 Z M168 124 Q168 117 173.5 110 Q179 103 188 103 L227 103 Q237 103 245.5 107 Q254 111 254 124 L254 419 Q254 432 245.5 434 Q237 436 227 436 L185 436 Q176 436 172 429 Q168 422 168 415 L168 124 Z " />
<glyph glyph-name="e" unicode="e" horiz-adv-x="403" d="M372 162 L372 93 Q372 73 364.5 56.5 Q357 40 344 27 Q331 14 313.5 7 Q296 0 277 0 L139 0 Q100 0 72.5 27 Q45 54 45 93 L45 447 Q45 466 52.5 483 Q60 500 72.5 512.5 Q85 525 102 532.5 Q119 540 139 540 L277 540 Q296 540 313.5 532.5 Q331 525 344 512.5 Q357 500 364.5 483 Q372 466 372 447 L372 242 L166 242 L166 125 Q166 117 171 110.5 Q176 104 184 103 L229 103 Q239 103 245.5 109.5 Q252 116 252 125 L252 162 L372 162 Z M166 341 L252 341 L252 415 Q252 422 248 429 Q244 436 233 436 L182 436 Q174 436 170 429 Q166 422 166 415 L166 341 Z " />
<glyph glyph-name="at" unicode="&#x40;" horiz-adv-x="835" d="M432 642 Q440 642 450 637.5 Q460 633 471 616 Q477 633 486 637.5 Q495 642 506 642 L586 642 L586 178 Q586 162 592.5 150 Q599 138 609.5 129.5 Q620 121 633.5 117 Q647 113 660 113 Q690 113 712 135 Q734 157 734 188 L734 528 Q734 594 709.5 651 Q685 708 642.5 750.5 Q600 793 543 817.5 Q486 842 421 842 Q355 842 298 817 Q241 792 199.5 749 Q158 706 134 648.5 Q110 591 110 525 L110 192 Q110 127 134.5 69.5 Q159 12 202 -31 Q245 -74 302.5 -99 Q360 -124 426 -124 Q476 -124 527.5 -103 Q579 -82 625 -47 L678 -86 Q621 -131 554 -157 Q487 -183 423 -183 Q345 -183 276.5 -153.5 Q208 -124 157 -73 Q106 -22 76.5 47 Q47 116 47 195 L47 525 Q47 603 76.5 671.5 Q106 740 157 791 Q208 842 276.5 872 Q345 902 423 902 Q499 902 567.5 872.5 Q636 843 688 792 Q740 741 770 672.5 Q800 604 800 527 L800 192 Q800 160 788 132.5 Q776 105 755.5 84.5 Q735 64 707.5 52.5 Q680 41 649 41 Q620 41 595.5 48.5 Q571 56 551.5 69 Q532 82 517 98.5 Q502 115 493 132 Q476 109 460 101.5 Q444 94 423 94 L351 94 Q331 94 313.5 101.5 Q296 109 283 122 Q270 135 262 152.5 Q254 170 254 190 L254 546 Q254 565 262 582.5 Q270 600 283 613.5 Q296 627 313.5 634.5 Q331 642 351 642 L432 642 Z M376 221 Q376 214 383 206.5 Q390 199 399 199 L437 199 Q448 199 456 204 Q464 209 464 222 L464 519 Q464 532 456 534 Q448 536 437 536 L394 536 Q385 536 380.5 529.5 Q376 523 376 514 L376 221 Z " />
<glyph glyph-name="bracketleft" unicode="&#x5b;" horiz-adv-x="260" d="M228 -114 L47 -114 L47 775 L229 775 L229 673 L169 673 L169 -12 L228 -12 L228 -114 Z " />
<glyph glyph-name="backslash" unicode="&#x5c;" horiz-adv-x="514" d="M115 775 L541 -53 L423 -53 L-6 775 L115 775 Z " />
<glyph glyph-name="bracketright" unicode="&#x5d;" horiz-adv-x="261" d="M108 -12 L108 673 L47 673 L47 775 L229 775 L229 -114 L49 -114 L49 -12 L108 -12 Z " />
<glyph glyph-name="parenright" unicode="&#x29;" horiz-adv-x="262" d="M43 776 L129 776 Q148 776 165.5 768.5 Q183 761 196 748.5 Q209 736 216.5 718.5 Q224 701 224 682 L224 -15 Q224 -35 216.5 -51.5 Q209 -68 196 -80.5 Q183 -93 165.5 -100 Q148 -107 129 -107 L42 -107 L42 -7 L83 -7 Q103 -7 103 18 L103 651 Q103 659 97 666 Q91 673 83 673 L43 673 L43 776 Z " />
<glyph glyph-name="parenleft" unicode="&#x28;" horiz-adv-x="260" d="M228 -109 L143 -109 Q124 -109 106.5 -102 Q89 -95 76 -82 Q63 -69 55 -52.5 Q47 -36 47 -16 L47 682 Q47 701 55 718.5 Q63 736 76 748.5 Q89 761 106.5 768.5 Q124 776 143 776 L229 776 L229 674 L190 674 Q181 674 175 667 Q169 660 169 650 L169 16 Q169 7 175 0 Q181 -7 190 -7 L228 -7 L228 -109 Z " />
<glyph glyph-name="asterisk" unicode="&#x2a;" horiz-adv-x="421" d="M182 770 L255 770 L255 661 L347 716 L383 655 L290 599 L384 545 L347 482 L255 536 L255 431 L182 431 L182 536 L89 483 L54 545 L147 599 L54 655 L89 717 L182 660 L182 770 Z " />
<glyph glyph-name="plus" unicode="&#x2b;" horiz-adv-x="398" d="M269 537 L269 433 L374 433 L374 314 L269 314 L269 209 L150 209 L150 314 L47 314 L47 433 L150 433 L150 537 L269 537 Z " />
<glyph glyph-name="comma" unicode="&#x2c;" horiz-adv-x="194" d="M48 0 L48 119 L167 119 L167 20 Q167 -19 165 -46.5 Q163 -74 152 -91.5 Q141 -109 117 -117.5 Q93 -126 48 -126 L48 -57 Q82 -57 91 -43 Q100 -29 101 0 L48 0 Z " />
<glyph glyph-name="hyphen" unicode="&#x2d;" horiz-adv-x="285" d="M48 410 L249 410 L249 292 L48 292 L48 410 Z " />
<glyph glyph-name="period" unicode="&#x2e;" horiz-adv-x="203" d="M48 119 L167 119 L167 0 L48 0 L48 119 Z " />
<glyph glyph-name="slash" unicode="&#x2f;" horiz-adv-x="514" d="M541 775 L112 -53 L-6 -53 L420 775 L541 775 Z " />
<glyph glyph-name="ampersand" unicode="&#x26;" horiz-adv-x="434" d="M373 563 L373 440 L426 440 L426 339 L373 339 L373 0 L142 0 Q122 0 104.5 7.5 Q87 15 74 27.5 Q61 40 53.5 57 Q46 74 46 94 L46 313 Q46 336 56.5 356 Q67 376 83 390 Q68 404 57 425 Q46 446 46 467 L46 655 Q46 674 53.5 691.5 Q61 709 74 721.5 Q87 734 104.5 741.5 Q122 749 142 749 L333 749 L333 647 L185 647 Q176 647 171 639.5 Q166 632 166 624 L166 465 Q166 454 173.5 447 Q181 440 192 440 L254 440 L254 563 L373 563 Z M254 339 L192 339 Q181 339 173.5 332 Q166 325 166 315 L166 125 Q166 115 172.5 108 Q179 101 189 101 L254 101 L254 339 Z " />
<glyph glyph-name="dollar" unicode="&#x24;" horiz-adv-x="389" d="M162 510 Q162 490 177.5 475.5 Q193 461 216 449 Q239 437 265.5 425 Q292 413 315 397.5 Q338 382 353.5 360 Q369 338 369 307 L369 94 Q369 74 361 57 Q353 40 340 27.5 Q327 15 309.5 7.5 Q292 0 273 0 L265 0 L265 -53 L146 -53 L146 0 L135 0 Q116 0 99 7.5 Q82 15 69.5 27.5 Q57 40 49.5 57 Q42 74 42 94 L42 227 L162 227 L162 125 Q162 117 169 109 Q176 101 184 101 L226 101 Q236 101 243 108 Q250 115 250 125 L250 266 Q250 290 234.5 306.5 Q219 323 196 336 Q173 349 146.5 360.5 Q120 372 97 386.5 Q74 401 58.5 420 Q43 439 43 468 L43 629 Q43 648 50.5 664.5 Q58 681 71 693.5 Q84 706 101 713.5 Q118 721 137 721 L146 721 L146 774 L265 774 L265 721 L273 721 Q292 721 309.5 713.5 Q327 706 340 693.5 Q353 681 361 664.5 Q369 648 369 629 L369 519 L250 519 L250 597 Q250 605 243 613.5 Q236 622 218 622 L184 622 Q175 622 168.5 614 Q162 606 162 596 L162 510 Z " />
<glyph glyph-name="numbersign" unicode="&#x23;" horiz-adv-x="776" d="M543 439 Q537 409 533 381 Q529 353 523 323 L715 323 L691 222 L501 222 L457 0 L354 0 L403 224 L286 224 L241 0 L143 0 L186 226 L-5 226 L20 326 L209 326 L229 442 L39 442 L63 540 L254 540 L287 718 L388 718 L352 538 L468 538 L504 718 L600 718 L564 537 L759 537 L735 439 L543 439 Z M306 324 L423 324 L446 440 L330 440 L306 324 Z " />
<glyph glyph-name="exclam" unicode="&#x21;" horiz-adv-x="203" d="M147 205 L69 205 L47 775 L165 775 L147 205 Z M175 68 Q175 37 155.5 18 Q136 -1 107 -1 Q80 -1 59 18 Q38 37 38 68 Q38 97 59 117 Q80 137 107 137 Q136 137 155.5 117 Q175 97 175 68 Z " />
<glyph glyph-name="semicolon" unicode="&#x3b;" horiz-adv-x="203" d="M48 0 L48 119 L167 119 L167 20 Q167 -19 165 -46.5 Q163 -74 152 -91.5 Q141 -109 117 -117.5 Q93 -126 48 -126 L48 -57 Q82 -57 91 -43 Q100 -29 101 0 L48 0 Z M48 530 L167 530 L167 411 L48 411 L48 530 Z " />
<glyph glyph-name="colon" unicode="&#x3a;" horiz-adv-x="203" d="M48 119 L167 119 L167 0 L48 0 L48 119 Z M48 531 L167 531 L167 411 L48 411 L48 531 Z " />
<glyph glyph-name="less" unicode="&#x3c;" horiz-adv-x="398" d="M241 374 L393 329 L393 209 L66 314 L66 435 L393 538 L393 418 L241 374 Z " />
<glyph glyph-name="equal" unicode="&#x3d;" horiz-adv-x="398" d="M47 244 L374 244 L374 125 L47 125 L47 244 Z M47 466 L374 466 L374 345 L47 345 L47 466 Z " />
<glyph glyph-name="greater" unicode="&#x3e;" horiz-adv-x="398" d="M199 373 L47 418 L47 538 L374 433 L374 312 L47 209 L47 329 L199 373 Z " />
<glyph glyph-name="question" unicode="&#x3f;" horiz-adv-x="409" d="M278 68 Q279 37 258.5 18 Q238 -1 209 -1 Q182 -1 161 18 Q140 37 140 68 Q140 97 161 117 Q182 137 209 137 Q239 137 258.5 117 Q278 97 278 68 Z M375 602 Q375 582 364 549.5 Q353 517 337.5 479.5 Q322 442 304.5 402.5 Q287 363 274 330 Q271 323 270 315.5 Q269 308 269 303 L269 205 L149 205 L149 295 Q149 300 151.5 313.5 Q154 327 158 336 Q170 366 187 404 Q204 442 219.5 477 Q235 512 246 540 Q257 568 257 579 L257 624 Q257 634 250 641.5 Q243 649 233 649 L200 649 Q182 649 175.5 641 Q169 633 169 625 L169 537 L49 537 L49 655 Q49 674 56.5 691.5 Q64 709 76.5 721.5 Q89 734 106 741.5 Q123 749 142 749 L279 749 Q298 749 315.5 741.5 Q333 734 346 721.5 Q359 709 367 691.5 Q375 674 375 655 L375 602 Z " />
<glyph glyph-name="sterling" unicode="&#xa3;" horiz-adv-x="389" d="M251 501 L251 625 Q251 633 245 641 Q239 649 222 649 L187 649 Q179 649 174 641.5 Q169 634 167 625 L167 454 L246 454 L246 336 L167 336 L167 101 L231 101 Q240 101 245.5 108 Q251 115 251 125 L251 285 L372 285 L372 94 Q372 74 364.5 57 Q357 40 344 27.5 Q331 15 314 7.5 Q297 0 278 0 L47 0 L47 336 L-8 336 L-8 454 L47 454 L47 655 Q47 674 54.5 691.5 Q62 709 74.5 721.5 Q87 734 104 741.5 Q121 749 140 749 L278 749 Q297 749 314 741.5 Q331 734 344 721.5 Q357 709 364.5 691.5 Q372 674 372 655 L372 501 L251 501 Z " />
<glyph glyph-name="braceleft" unicode="&#x7b;" horiz-adv-x="273" d="M260 -114 L175 -114 Q156 -114 138.5 -107 Q121 -100 108 -87 Q95 -74 87.5 -57.5 Q80 -41 80 -21 L80 266 Q80 277 72 283.5 Q64 290 56 290 L22 290 L22 392 L57 392 Q66 392 73 398.5 Q80 405 80 415 L80 681 Q80 700 87.5 717.5 Q95 735 108 747.5 Q121 760 138.5 767.5 Q156 775 175 775 L261 775 L261 673 L222 673 Q213 673 206.5 666 Q200 659 200 649 L200 418 Q200 395 188.5 372.5 Q177 350 158 342 Q177 331 188.5 313 Q200 295 200 267 L200 11 Q200 2 207 -5 Q214 -12 222 -12 L260 -12 L260 -114 Z " />
<glyph glyph-name="braceright" unicode="&#x7d;" horiz-adv-x="262" d="M53 -12 Q61 -12 68 -5 Q75 2 75 11 L75 267 Q75 295 86.5 313 Q98 331 117 342 Q98 350 86.5 372.5 Q75 395 75 418 L75 649 Q75 659 68.5 666 Q62 673 53 673 L14 673 L14 775 L100 775 Q119 775 136.5 767.5 Q154 760 167 747.5 Q180 735 187.5 717.5 Q195 700 195 681 L195 415 Q195 405 202 398.5 Q209 392 218 392 L253 392 L253 290 L219 290 Q211 290 203 283.5 Q195 277 195 266 L195 -21 Q195 -41 187.5 -57.5 Q180 -74 167 -87 Q154 -100 136.5 -107 Q119 -114 100 -114 L15 -114 L15 -12 L53 -12 Z " />
<glyph glyph-name="bar" unicode="&#x7c;" horiz-adv-x="216" d="M48 776 L167 776 L167 -241 L48 -241 L48 776 Z " />
<glyph glyph-name="Euro" unicode="&#x20ac;" horiz-adv-x="407" d="M178 257 L178 125 Q178 115 182.5 108 Q187 101 194 101 L242 101 Q250 101 256 108 Q262 115 262 125 L262 178 L382 178 L382 94 Q382 74 374.5 57 Q367 40 354.5 27.5 Q342 15 325 7.5 Q308 0 289 0 L151 0 Q132 0 115 7.5 Q98 15 85.5 27.5 Q73 40 65.5 57 Q58 74 58 94 L58 257 L2 257 L2 336 L58 336 L58 411 L2 411 L2 490 L58 490 L58 655 Q58 674 65.5 691.5 Q73 709 85.5 721.5 Q98 734 115 741.5 Q132 749 151 749 L289 749 Q308 749 325 741.5 Q342 734 354.5 721.5 Q367 709 374.5 691.5 Q382 674 382 655 L382 543 L262 543 L262 624 Q262 632 258 639.5 Q254 647 246 647 L194 647 Q186 647 182 639.5 Q178 632 178 624 L178 490 L256 490 L256 411 L178 411 L178 336 L256 336 L256 257 L178 257 Z " />
<glyph glyph-name="yen" unicode="&#xa5;" horiz-adv-x="387" d="M190 503 L193 424 L197 503 L256 749 L378 749 Q358 668 336 579.5 Q314 491 293 403 L355 403 L355 282 L264 282 L253 235 L253 231 L355 231 L355 113 L253 113 L253 0 L134 0 L134 113 L31 113 L31 231 L134 231 L134 235 L123 282 L31 282 L31 403 L94 403 L9 749 L131 749 L190 503 Z " />
<glyph glyph-name="section" unicode="&#xa7;" horiz-adv-x="389" d="M48 334 Q48 351 63 378 Q78 405 104 423 Q72 442 60 463.5 Q48 485 48 500 L48 655 Q48 696 75.5 722.5 Q103 749 141 749 L278 749 Q297 749 314.5 742 Q332 735 345 722.5 Q358 710 366 692.5 Q374 675 374 655 L374 537 L255 537 L255 625 Q255 633 248 641 Q241 649 224 649 L189 649 Q180 649 173.5 641.5 Q167 634 167 624 L167 538 Q167 516 182.5 501 Q198 486 221 474 Q244 462 270.5 450.5 Q297 439 320 423.5 Q343 408 358.5 387 Q374 366 374 334 L374 181 Q374 173 370.5 161 Q367 149 360 136 Q353 123 343 111 Q333 99 321 90 Q353 70 362.5 49.5 Q372 29 372 15 L372 -135 Q372 -174 344 -200.5 Q316 -227 277 -227 L140 -227 Q121 -227 104 -220 Q87 -213 74.5 -200.5 Q62 -188 54.5 -171.5 Q47 -155 47 -135 L47 -17 L167 -17 L167 -104 Q167 -112 173.5 -120 Q180 -128 198 -128 L231 -128 Q241 -128 248 -120 Q255 -112 255 -102 L255 -25 Q255 -5 239.5 9.5 Q224 24 201 36.5 Q178 49 151.5 61.5 Q125 74 102 90 Q79 106 63.5 127.5 Q48 149 48 181 L48 334 Z M167 211 Q167 205 171.5 195.5 Q176 186 184.5 176 Q193 166 204.5 159 Q216 152 231 152 Q242 152 248.5 158.5 Q255 165 255 174 L255 305 Q255 310 250 319.5 Q245 329 236 338.5 Q227 348 215 355 Q203 362 189 362 Q179 362 173 355.5 Q167 349 167 340 L167 211 Z " />
<glyph glyph-name="dagger" unicode="&#x2020;" horiz-adv-x="216" d="M7 410 L47 410 L47 774 L166 774 L166 410 L208 410 L208 292 L166 292 L166 -227 L47 -227 L47 292 L7 292 L7 410 Z " />
<glyph glyph-name="daggerdbl" unicode="&#x2021;" horiz-adv-x="216" d="M7 466 L47 466 L47 774 L166 774 L166 466 L208 466 L208 345 L166 345 L166 244 L208 244 L208 125 L166 125 L166 -227 L47 -227 L47 125 L7 125 L7 244 L47 244 L47 345 L7 345 L7 466 Z " />
<glyph glyph-name="AE" unicode="&#xc6;" horiz-adv-x="591" d="M172 152 L137 0 L3 0 L182 749 L567 749 L567 630 L361 630 L361 426 L538 426 L538 307 L361 307 L361 119 L567 119 L567 0 L240 0 L240 152 L172 152 Z M192 253 L240 253 L240 460 L249 559 L228 461 L192 253 Z " />
<glyph glyph-name="germandbls" unicode="&#xdf;" horiz-adv-x="389" d="M201 103 L230 103 Q240 103 246.5 109.5 Q253 116 253 125 L253 358 Q253 369 246 375.5 Q239 382 228 382 L201 382 L201 484 L228 484 Q239 484 246 491.5 Q253 499 253 510 L253 644 Q253 652 249 659.5 Q245 667 234 667 L166 667 L166 0 L46 0 L46 677 Q46 694 53 710.5 Q60 727 73 740 Q86 753 103 761 Q120 769 140 769 L278 769 Q297 769 314.5 762 Q332 755 345 742 Q358 729 365.5 712 Q373 695 373 676 L373 509 Q373 486 361.5 466.5 Q350 447 329 434 Q350 422 361.5 400.5 Q373 379 373 355 L373 93 Q373 73 365.5 56.5 Q358 40 345 27 Q332 14 314.5 7 Q297 0 278 0 L201 0 L201 103 Z " />
<glyph glyph-name="longs" unicode="&#x17f;" horiz-adv-x="345" d="M110 668 Q110 718 135 746 Q160 774 206 774 L340 774 L340 655 L228 655 L228 0 L110 0 L110 418 L49 418 L49 538 L110 538 L110 668 Z " />
<glyph glyph-name="cent" unicode="&#xa2;" horiz-adv-x="389" d="M149 -120 L149 0 L140 0 Q121 0 104 7.5 Q87 15 74.5 27.5 Q62 40 54.5 57 Q47 74 47 94 L47 445 Q47 464 54.5 481 Q62 498 74.5 510.5 Q87 523 104 530 Q121 537 140 537 L149 537 L149 649 L268 649 L268 537 L278 537 Q297 537 314.5 530 Q332 523 345 510.5 Q358 498 366 481 Q374 464 374 445 L374 373 L255 373 L255 412 Q255 417 249 424 Q243 431 235 435 L183 435 Q177 432 172 424.5 Q167 417 167 412 L167 125 Q167 117 172.5 110 Q178 103 185 101 L233 101 Q241 103 248 109 Q255 115 255 125 L255 162 L374 162 L374 94 Q374 74 366 57 Q358 40 345 27.5 Q332 15 314.5 7.5 Q297 0 278 0 L268 0 L268 -120 L149 -120 Z " />
<glyph glyph-name="space" unicode="&#x20;" horiz-adv-x="233" d="" />
<glyph glyph-name="acute" unicode="&#xb4;" horiz-adv-x="203" d="M89 772 L207 772 L144 653 L35 653 L89 772 Z " />
<glyph glyph-name="breve" unicode="&#x2d8;" horiz-adv-x="389" d="M136 639 Q117 639 99.5 646.5 Q82 654 69 666.5 Q56 679 48.5 696 Q41 713 41 732 L41 774 L158 774 Q158 760 167 749.5 Q176 739 190 739 L226 739 Q240 739 249.5 749.5 Q259 760 259 774 L376 774 L376 732 Q376 713 368 696 Q360 679 347 666.5 Q334 654 316.5 646.5 Q299 639 280 639 L136 639 L136 639 Z " />
<glyph glyph-name="cyrbreve" unicode="&#xf6d4;" horiz-adv-x="417" d="M273 773 Q292 773 309.5 765.5 Q327 758 340 745.5 Q353 733 361 715.5 Q369 698 369 679 L369 638 L252 638 Q252 652 242.5 662.5 Q233 673 219 673 L183 673 Q169 673 160 662.5 Q151 652 151 638 L34 638 L34 679 Q34 698 41.5 715.5 Q49 733 62.5 745.5 Q76 758 93 765.5 Q110 773 130 773 L273 773 Z " />
<glyph glyph-name="caron" unicode="&#x2c7;" horiz-adv-x="290" d="M-17 774 L107 774 L148 715 L185 774 L306 774 L198 608 L93 608 L-17 774 Z " />
<glyph glyph-name="cedilla" unicode="&#xb8;" horiz-adv-x="355" d="M66 -134 Q100 -133 115 -121.5 Q130 -110 130 -93 Q130 -62 94 0 L148 0 Q162 -13 174.5 -30 Q187 -47 196 -66 Q205 -85 210.5 -104 Q216 -123 216 -139 Q216 -158 209.5 -175.5 Q203 -193 189.5 -206 Q176 -219 154 -227 Q132 -235 102 -235 Q93 -235 78 -233.5 Q63 -232 34 -226 L66 -134 Z " />
<glyph glyph-name="circumflex" unicode="&#x2c6;" horiz-adv-x="290" d="M93 775 L198 775 L307 609 L185 609 L146 666 L107 609 L-17 609 L93 775 Z " />
<glyph glyph-name="dieresis" unicode="&#xa8;" horiz-adv-x="406" d="M38 706 Q38 735 58 755 Q78 775 106 775 Q135 775 155 755 Q175 735 175 706 Q175 677 155 657 Q135 637 106 637 Q78 637 58 657 Q38 677 38 706 Z M240 706 Q240 735 260 755 Q280 775 309 775 Q336 775 357 755 Q378 735 378 706 Q378 677 357 657 Q336 637 309 637 Q280 637 260 657 Q240 677 240 706 Z " />
<glyph glyph-name="dotaccent" unicode="&#x2d9;" horiz-adv-x="203" d="M34 706 Q34 720 39.5 732.5 Q45 745 54.5 754.5 Q64 764 76.5 769.5 Q89 775 102 775 Q132 775 151.5 755 Q171 735 171 706 Q171 677 151.5 657 Q132 637 102 637 Q76 637 55 657 Q34 677 34 706 Z " />
<glyph glyph-name="hungarumlaut" unicode="&#x2dd;" horiz-adv-x="439" d="M89 773 L207 773 L144 654 L35 654 L89 773 Z M293 773 L411 773 L348 654 L239 654 L293 773 Z " />
<glyph glyph-name="grave" unicode="&#x60;" horiz-adv-x="203" d="M172 655 L66 655 L3 774 L122 774 L172 655 Z " />
<glyph glyph-name="ogonek" unicode="&#x2db;" horiz-adv-x="355" d="M232 -220 Q203 -238 170 -238 Q149 -238 128 -231.5 Q107 -225 90.5 -212.5 Q74 -200 63.5 -181.5 Q53 -163 53 -139 Q53 -123 58.5 -103.5 Q64 -84 73 -65 Q82 -46 94.5 -29 Q107 -12 121 0 L175 0 Q158 -31 148.5 -54.5 Q139 -78 139 -93 Q139 -110 154 -121.5 Q169 -133 203 -134 L232 -220 Z " />
<glyph glyph-name="ring" unicode="&#x2da;" horiz-adv-x="389" d="M188 695 Q183 695 180.5 691.5 Q178 688 178 686 L178 676 Q178 672 181.5 669.5 Q185 667 188 667 L220 667 Q225 667 227.5 670.5 Q230 674 230 676 L230 686 Q230 690 226.5 692.5 Q223 695 220 695 L188 695 Z M157 589 Q145 589 134 594 Q123 599 114.5 607.5 Q106 616 100.5 627 Q95 638 95 650 L95 712 Q95 737 114.5 755 Q134 773 157 773 L251 773 Q275 773 294 755 Q313 737 313 712 L313 650 Q313 627 294 608 Q275 589 251 589 L157 589 Z " />
<glyph glyph-name="tilde" unicode="&#x2dc;" horiz-adv-x="353" d="M140 772 Q157 772 172 766 Q187 760 201.5 752.5 Q216 745 231 739 Q246 733 263 733 Q271 733 281 741 Q291 749 302 772 L392 772 Q387 698 357.5 658.5 Q328 619 283 619 Q268 619 251.5 625.5 Q235 632 219 640 Q203 648 188 654.5 Q173 661 160 661 Q151 661 143 652 Q135 643 125 619 L31 619 Q36 690 66 731 Q96 772 140 772 Z " />
<glyph glyph-name="Acute" unicode="&#xf6c9;" horiz-adv-x="203" d="M95 978 L213 978 L150 859 L41 859 L95 978 Z " />
<glyph glyph-name="cyrBreve" unicode="&#xf6d1;" horiz-adv-x="417" d="M273 979 Q292 979 309.5 971.5 Q327 964 340 951.5 Q353 939 361 921.5 Q369 904 369 885 L369 844 L252 844 Q252 858 242.5 868.5 Q233 879 219 879 L183 879 Q169 879 160 868.5 Q151 858 151 844 L34 844 L34 885 Q34 904 41.5 921.5 Q49 939 62.5 951.5 Q76 964 93 971.5 Q110 979 130 979 L273 979 Z " />
<glyph glyph-name="Caron" unicode="&#xf6ca;" horiz-adv-x="290" d="M-17 979 L107 979 L148 920 L185 979 L306 979 L198 813 L93 813 L-17 979 Z " />
<glyph glyph-name="Hungarumlaut" unicode="&#xf6cf;" horiz-adv-x="439" d="M101 978 L219 978 L156 859 L47 859 L101 978 Z M305 979 L423 979 L360 860 L251 860 L305 979 Z " />
<glyph glyph-name="Grave" unicode="&#xf6ce;" horiz-adv-x="203" d="M157 860 L51 860 L-12 979 L107 979 L157 860 Z " />
<glyph glyph-name="OE" unicode="&#x152;" horiz-adv-x="603" d="M139 0 Q120 0 103 7.5 Q86 15 73.5 27.5 Q61 40 53.5 57 Q46 74 46 94 L46 655 Q46 674 53.5 691.5 Q61 709 73.5 721.5 Q86 734 103 741.5 Q120 749 139 749 L578 749 L578 630 L372 630 L372 426 L549 426 L549 307 L372 307 L372 119 L578 119 L578 0 L139 0 Z M188 649 Q179 649 172.5 641.5 Q166 634 166 624 L166 125 Q166 117 173 109 Q180 101 188 101 L230 101 Q239 101 245 108 Q251 115 251 125 L251 625 Q251 633 245 641 Q239 649 222 649 L188 649 Z " />
<glyph glyph-name="questiondown" unicode="&#xbf;" horiz-adv-x="409" d="M170 471 Q169 502 189.5 521 Q210 540 239 540 Q266 540 287 521 Q308 502 308 471 Q308 442 287 422 Q266 402 239 402 Q209 402 189.5 422 Q170 442 170 471 Z M73 -63 Q73 -43 84 -10.5 Q95 22 110.5 59.5 Q126 97 143.5 136.5 Q161 176 174 209 Q177 216 178 223.5 Q179 231 179 236 L179 334 L299 334 L299 244 Q299 239 296.5 225.5 Q294 212 290 203 Q278 173 261 135 Q244 97 228.5 62 Q213 27 202 -1 Q191 -29 191 -40 L191 -85 Q191 -95 198 -102.5 Q205 -110 215 -110 L248 -110 Q266 -110 272.5 -102 Q279 -94 279 -86 L279 2 L399 2 L399 -116 Q399 -136 391.5 -153 Q384 -170 371 -182.5 Q358 -195 341.5 -202.5 Q325 -210 306 -210 L169 -210 Q150 -210 132.5 -202.5 Q115 -195 102 -182.5 Q89 -170 81 -153 Q73 -136 73 -116 L73 -63 Z " />
<glyph glyph-name="exclamdown" unicode="&#xa1;" horiz-adv-x="203" d="M165 -231 L47 -231 L69 339 L147 339 L165 -231 Z M175 476 Q175 447 155.5 427 Q136 407 107 407 Q80 407 59 427 Q38 447 38 476 Q38 507 59 526 Q80 545 107 545 Q136 545 155.5 526 Q175 507 175 476 Z " />
<glyph glyph-name="endash" unicode="&#x2013;" horiz-adv-x="409" d="M48 410 L371 410 L371 292 L48 292 L48 410 Z " />
<glyph glyph-name="emdash" unicode="&#x2014;" horiz-adv-x="613" d="M47 410 L578 410 L578 292 L47 292 L47 410 Z " />
<glyph glyph-name="plusminus" unicode="&#xb1;" horiz-adv-x="398" d="M46 172 L372 172 L372 54 L46 54 L46 172 Z M269 536 L269 432 L374 432 L374 313 L269 313 L269 208 L150 208 L150 313 L47 313 L47 432 L150 432 L150 536 L269 536 Z " />
<glyph glyph-name="exclamdbl" unicode="&#x203c;" horiz-adv-x="409" d="M148 205 L70 205 L48 775 L166 775 L148 205 Z M176 68 Q176 37 156.5 18 Q137 -1 108 -1 Q81 -1 60 18 Q39 37 39 68 Q39 97 60 117 Q81 137 108 137 Q137 137 156.5 117 Q176 97 176 68 Z M353 205 L275 205 L253 775 L371 775 L353 205 Z M381 68 Q381 37 361.5 18 Q342 -1 313 -1 Q286 -1 265 18 Q244 37 244 68 Q244 97 265 117 Q286 137 313 137 Q342 137 361.5 117 Q381 97 381 68 Z " />
<glyph glyph-name="underscore" unicode="&#x5f;" horiz-adv-x="409" d="M48 28 L371 28 L371 -90 L48 -90 L48 28 Z " />
<glyph glyph-name="quotedblright" unicode="&#x201d;" horiz-adv-x="406" d="M243 774 L362 774 L362 673 Q362 635 360 607.5 Q358 580 347 562.5 Q336 545 312 536.5 Q288 528 243 528 L243 596 Q278 596 286.5 610.5 Q295 625 296 655 L243 655 L243 774 Z M48 655 L48 774 L167 774 L167 673 Q167 635 165 607.5 Q163 580 152 562.5 Q141 545 117 536.5 Q93 528 48 528 L48 596 Q83 596 91.5 610.5 Q100 625 101 655 L48 655 Z " />
<glyph glyph-name="quoteright" unicode="&#x2019;" horiz-adv-x="189" d="M16 774 L136 774 L136 673 Q136 635 134 607.5 Q132 580 121 562.5 Q110 545 85.5 536.5 Q61 528 16 528 L16 596 Q51 596 60 610.5 Q69 625 70 655 L16 655 L16 774 Z " />
<glyph glyph-name="quoteleft" unicode="&#x2018;" horiz-adv-x="194" d="M167 528 L48 528 L48 628 Q48 666 50 693.5 Q52 721 63 739 Q74 757 98 765.5 Q122 774 167 774 L167 705 Q150 705 139.5 701.5 Q129 698 123.5 691 Q118 684 116 673.5 Q114 663 114 648 L167 648 L167 528 Z " />
<glyph glyph-name="quotedblleft" unicode="&#x201c;" horiz-adv-x="406" d="M363 531 L244 531 L244 632 Q244 670 246 697.5 Q248 725 259 743 Q270 761 294 769.5 Q318 778 363 778 L363 708 Q328 708 319.5 694.5 Q311 681 310 652 L363 652 L363 531 Z M168 531 L49 531 L49 631 Q49 669 51 696.5 Q53 724 64 742 Q75 760 99 768.5 Q123 777 168 777 L168 707 Q133 707 124.5 693.5 Q116 680 115 651 L168 651 L168 531 Z " />
<glyph glyph-name="brokenbar" unicode="&#xa6;" horiz-adv-x="216" d="M48 347 L48 775 L167 775 L167 347 L48 347 Z M48 -238 L48 198 L167 198 L167 -238 L48 -238 Z " />
<glyph glyph-name="fraction" unicode="&#x2044;" horiz-adv-x="435" d="M540 821 L116 0 L-1 0 L418 821 L540 821 Z " />
<glyph glyph-name="percent" unicode="&#x25;" horiz-adv-x="710" d="M625 775 L227 0 L109 0 L504 775 L625 775 Z M131 420 Q112 420 95 427.5 Q78 435 65 448 Q52 461 44 478.5 Q36 496 36 515 L36 680 Q36 699 44 716 Q52 733 65 746 Q78 759 95 766.5 Q112 774 131 774 L239 774 Q258 774 275.5 766.5 Q293 759 306 746 Q319 733 327 716 Q335 699 335 680 L335 515 Q335 496 327 478.5 Q319 461 306 448 Q293 435 275.5 427.5 Q258 420 239 420 L131 420 Z M173 672 Q164 672 158 665 Q152 658 152 648 L152 545 Q152 537 158.5 530 Q165 523 173 523 L197 523 Q218 523 218 546 L218 650 Q218 658 212 665 Q206 672 189 672 L173 672 Z M493 -1 Q474 -1 457 6.5 Q440 14 427 26.5 Q414 39 406.5 56.5 Q399 74 399 94 L399 259 Q399 278 406.5 294.5 Q414 311 427 323.5 Q440 336 457 343.5 Q474 351 493 351 L602 351 Q621 351 638 343.5 Q655 336 668 323.5 Q681 311 688.5 294.5 Q696 278 696 259 L696 94 Q696 74 688.5 56.5 Q681 39 668 26.5 Q655 14 638 6.5 Q621 -1 602 -1 L493 -1 Z M536 251 Q527 251 520.5 243.5 Q514 236 514 225 L514 124 Q514 116 521 108 Q528 100 536 100 L558 100 Q568 100 574.5 107 Q581 114 581 125 L581 227 Q581 235 574.5 243 Q568 251 550 251 L536 251 Z " />
<glyph glyph-name="perthousand" unicode="&#x2030;" horiz-adv-x="1095" d="M132 420 Q113 420 96 427.5 Q79 435 66.5 448 Q54 461 46.5 478.5 Q39 496 39 515 L39 680 Q39 699 46.5 716 Q54 733 66.5 746 Q79 759 96 766.5 Q113 774 132 774 L240 774 Q259 774 276.5 766.5 Q294 759 307.5 746 Q321 733 328.5 716 Q336 699 336 680 L336 515 Q336 496 328.5 478.5 Q321 461 307.5 448 Q294 435 276.5 427.5 Q259 420 240 420 L132 420 Z M174 672 Q166 672 160 665 Q154 658 154 648 L154 545 Q154 537 160 530 Q166 523 174 523 L198 523 Q208 523 214.5 529 Q221 535 221 546 L221 650 Q221 658 214 665 Q207 672 190 672 L174 672 Z M495 -1 Q475 -1 458 6.5 Q441 14 428 26.5 Q415 39 407.5 56.5 Q400 74 400 94 L400 259 Q400 278 407.5 294.5 Q415 311 428 323.5 Q441 336 458 343.5 Q475 351 495 351 L603 351 Q622 351 639 343.5 Q656 336 669 323.5 Q682 311 689.5 294.5 Q697 278 697 259 L697 94 Q697 74 689.5 56.5 Q682 39 669 26.5 Q656 14 639 6.5 Q622 -1 603 -1 L495 -1 Z M536 251 Q528 251 521.5 243.5 Q515 236 515 225 L515 124 Q515 116 521.5 108 Q528 100 536 100 L560 100 Q569 100 575.5 107 Q582 114 582 125 L582 227 Q582 235 575.5 243 Q569 251 553 251 L536 251 Z M822 -1 Q803 -1 786.5 6.5 Q770 14 757.5 26.5 Q745 39 737.5 56.5 Q730 74 730 94 L730 259 Q730 297 757 324 Q784 351 822 351 L933 351 Q952 351 969 343.5 Q986 336 998.5 323.5 Q1011 311 1018.5 294.5 Q1026 278 1026 259 L1026 94 Q1026 74 1018.5 56.5 Q1011 39 998.5 26.5 Q986 14 969 6.5 Q952 -1 933 -1 L822 -1 Z M866 251 Q858 251 851 243.5 Q844 236 844 225 L844 124 Q844 116 851 108 Q858 100 866 100 L889 100 Q899 100 905.5 107 Q912 114 912 125 L912 227 Q912 235 905.5 243 Q899 251 882 251 L866 251 Z M627 774 L231 0 L112 0 L506 774 L627 774 Z " />
<glyph glyph-name="Dieresis" unicode="&#xf6cb;" horiz-adv-x="406" d="M38 910 Q38 939 58 959 Q78 979 106 979 Q135 979 155 959 Q175 939 175 910 Q175 881 155 861 Q135 841 106 841 Q78 841 58 861 Q38 881 38 910 Z M240 910 Q240 939 260 959 Q280 979 309 979 Q336 979 357 959 Q378 939 378 910 Q378 881 357 861 Q336 841 309 841 Q280 841 260 861 Q240 881 240 910 Z " />
<glyph glyph-name="commaaccent" unicode="&#xf6c3;" horiz-adv-x="203" d="M48 757 L48 876 L167 876 L167 777 Q167 738 165 710.5 Q163 683 152 665.5 Q141 648 117 639.5 Q93 631 48 631 L48 700 Q82 700 91 714 Q100 728 101 757 L48 757 Z " />
<glyph glyph-name="dieresisacute" unicode="&#xf6d7;" horiz-adv-x="436" d="M89 772 L207 772 L144 653 L35 653 L89 772 Z M278 772 L396 772 L333 653 L224 653 L278 772 Z " />
<glyph glyph-name="dieresisgrave" unicode="&#xf6d8;" horiz-adv-x="378" d="M172 682 L66 682 L3 801 L122 801 L172 682 Z M359 682 L253 682 L190 801 L309 801 L359 682 Z " />
<glyph glyph-name="DieresisAcute" unicode="&#xf6cc;" horiz-adv-x="436" d="M104 979 L222 979 L159 860 L50 860 L104 979 Z M293 979 L411 979 L348 860 L239 860 L293 979 Z " />
<glyph glyph-name="DieresisGrave" unicode="&#xf6cd;" horiz-adv-x="378" d="M150 860 L44 860 L-19 979 L100 979 L150 860 Z M337 860 L231 860 L168 979 L287 979 L337 860 Z " />
<glyph glyph-name="macron" unicode="&#xaf;" horiz-adv-x="409" d="M53 774 L357 774 L357 668 L53 668 L53 774 Z " />
<glyph glyph-name="quotesinglbase" unicode="&#x201a;" horiz-adv-x="194" d="M48 0 L48 119 L167 119 L167 20 Q167 -19 165 -46.5 Q163 -74 152 -91.5 Q141 -109 117 -117.5 Q93 -126 48 -126 L48 -57 Q82 -57 91 -43 Q100 -29 101 0 L48 0 Z " />
<glyph glyph-name="quotedblbase" unicode="&#x201e;" horiz-adv-x="406" d="M47 99 L167 99 L167 -2 Q167 -40 165 -67.5 Q163 -95 152 -112.5 Q141 -130 116.5 -138.5 Q92 -147 47 -147 L47 -79 Q82 -79 91 -64.5 Q100 -50 101 -20 L47 -20 L47 99 Z M250 99 L370 99 L370 -2 Q370 -40 368 -67.5 Q366 -95 355 -112.5 Q344 -130 319.5 -138.5 Q295 -147 250 -147 L250 -79 Q285 -79 294 -64.5 Q303 -50 304 -20 L250 -20 L250 99 Z " />
<glyph glyph-name="multiply" unicode="&#xd7;" horiz-adv-x="398" d="M370 448 L295 373 L368 300 L285 217 L212 290 L138 216 L55 298 L130 372 L56 447 L140 529 L212 456 L286 531 L370 448 Z " />
<glyph glyph-name="divide" unicode="&#xf7;" horiz-adv-x="369" d="M27 205 L27 323 L353 323 L353 205 L27 205 Z M130 119 L251 119 L251 0 L130 0 L130 119 Z M130 531 L251 531 L251 411 L130 411 L130 531 Z " />
<glyph glyph-name="notequal" unicode="&#x2260;" horiz-adv-x="398" d="M48 466 L209 466 L246 556 L363 556 L328 466 L375 466 L375 345 L288 345 L249 244 L375 244 L375 125 L208 125 L166 17 L44 17 L84 125 L48 125 L48 244 L128 244 L166 345 L48 345 L48 466 Z " />
<glyph glyph-name="florin" unicode="&#x192;" horiz-adv-x="284" d="M46 668 Q46 718 71 746 Q96 774 142 774 L276 774 L276 655 L166 655 L166 540 L246 540 L246 420 L166 420 L166 -124 Q166 -173 141 -201.5 Q116 -230 71 -230 L-63 -230 L-63 -110 L46 -110 L46 668 Z " />
<glyph glyph-name="ae" unicode="&#xe6;" horiz-adv-x="607" d="M138 0 Q119 0 102 7 Q85 14 72 27 Q59 40 51.5 56.5 Q44 73 44 93 L44 447 Q44 466 51.5 483 Q59 500 72 512.5 Q85 525 102 532.5 Q119 540 138 540 L218 540 Q238 540 251.5 532.5 Q265 525 273 516 Q288 527 306 533.5 Q324 540 342 540 L483 540 Q503 540 520.5 532.5 Q538 525 551 512.5 Q564 500 571.5 483 Q579 466 579 447 L579 242 L370 242 L370 124 Q375 105 387 103 L436 103 Q444 103 450.5 109.5 Q457 116 457 125 L457 162 L579 162 L579 93 Q579 73 571.5 56.5 Q564 40 551 27 Q538 14 520.5 7 Q503 0 483 0 L345 0 Q342 0 334.5 0.5 Q327 1 317 3 Q307 5 295.5 10.5 Q284 16 272 25 Q263 14 253.5 7 Q244 0 226 0 L138 0 Z M164 124 Q164 117 170.5 110 Q177 103 185 103 L224 103 Q234 103 242 108 Q250 113 250 125 L250 419 Q250 432 242 434 Q234 436 224 436 L181 436 Q173 436 168.5 429 Q164 422 164 415 L164 124 Z M388 436 Q380 436 375.5 430.5 Q371 425 370 420 L370 341 L457 341 L457 415 Q457 422 452.5 429 Q448 436 440 436 L388 436 Z " />
<glyph glyph-name="minus" unicode="&#x2212;" horiz-adv-x="398" d="M374 433 L374 314 L47 314 L47 433 L374 433 Z " />
<glyph glyph-name="bullet" unicode="&#x2022;" horiz-adv-x="203" d="M110 457 L192 374 L109 290 L26 373 L110 457 Z " />
<glyph glyph-name="greaterequal" unicode="&#x2265;" horiz-adv-x="419" d="M375 244 L375 125 L48 125 L48 244 L375 244 Z M199 492 L47 537 L47 657 L374 552 L374 431 L47 328 L47 448 L199 492 Z " />
<glyph glyph-name="lessequal" unicode="&#x2264;" horiz-adv-x="419" d="M221 492 L229 492 L375 448 L375 328 L48 432 L48 553 L375 657 L375 537 L229 493 L221 492 Z M375 244 L375 125 L48 125 L48 244 L375 244 Z " />
<glyph glyph-name="approxequal" unicode="&#x2248;" horiz-adv-x="398" d="M263 334 Q249 334 236.5 339 Q224 344 212.5 350 Q201 356 189 361 Q177 366 164 366 Q156 366 147 358.5 Q138 351 131 338 L47 359 Q64 410 94 445 Q124 480 161 480 Q175 480 187 475 Q199 470 211 464 Q223 458 235 453 Q247 448 261 448 Q268 448 278 455 Q288 462 297 474 L377 453 Q362 402 331.5 368 Q301 334 263 334 Z M263 112 Q249 112 237 117.5 Q225 123 213.5 129 Q202 135 190 140.5 Q178 146 164 146 Q145 146 131 117 L47 139 Q64 190 94 225 Q124 260 161 260 Q175 260 187 254.5 Q199 249 211 243 Q223 237 235 231.5 Q247 226 261 226 Q268 226 278.5 233 Q289 240 297 254 L377 231 Q362 180 331.5 146 Q301 112 263 112 Z " />
<glyph glyph-name="logicalnot" unicode="&#xac;" horiz-adv-x="556" d="M498 537 L498 303 L380 303 L380 418 L47 418 L47 537 L498 537 Z " />
<glyph glyph-name="paragraph" unicode="&#xb6;" horiz-adv-x="396" d="M301 677 L246 677 L246 0 L175 0 L175 423 L142 423 Q122 423 105 430.5 Q88 438 75.5 451 Q63 464 55.5 481 Q48 498 48 518 L48 655 Q48 674 55.5 691 Q63 708 75.5 721 Q88 734 105 741.5 Q122 749 142 749 L421 749 L421 677 L373 677 L373 0 L301 0 L301 677 Z " />
<glyph glyph-name="mu" unicode="&#xb5;" horiz-adv-x="409" d="M167 -230 L46 -230 L46 540 L168 540 L168 125 Q168 118 172 111 Q176 104 184 104 L226 104 Q237 104 245 108 Q253 112 253 125 L253 540 L373 540 L373 0 L294 0 Q283 0 274 4 Q265 8 260 25 Q249 9 239.5 4.5 Q230 0 222 0 L167 0 L167 -230 Z " />
<glyph glyph-name="thorn" unicode="&#xfe;" horiz-adv-x="412" d="M254 416 Q254 424 249.5 431 Q245 438 236 438 L192 438 Q183 438 175.5 436 Q168 434 168 421 L168 125 Q168 113 175.5 108 Q183 103 192 103 L230 103 Q240 103 247 110 Q254 117 254 124 L254 416 Z M166 -230 L46 -230 L46 773 L166 773 L166 523 Q173 535 180 538.5 Q187 542 192 542 L279 542 Q298 542 315 534.5 Q332 527 345 514.5 Q358 502 365.5 484.5 Q373 467 373 448 L373 93 Q373 73 365.5 56.5 Q358 40 345 27 Q332 14 315 7 Q298 0 279 0 L192 0 Q185 0 179 3 Q173 6 166 18 L166 -230 Z " />
<glyph glyph-name="radical" unicode="&#x221a;" horiz-adv-x="509" d="M275 342 L284 212 L293 342 L380 749 L509 749 L340 0 L228 0 L131 428 L36 428 L36 545 L231 545 L275 342 Z " />
<glyph glyph-name="integral" unicode="&#x222b;" horiz-adv-x="284" d="M47 668 Q47 717 72.5 745.5 Q98 774 144 774 L277 774 L277 655 L166 655 L166 -126 Q166 -174 141.5 -202 Q117 -230 72 -230 L-62 -230 L-62 -111 L47 -111 L47 668 Z " />
<glyph glyph-name="Eng" unicode="&#x14a;" horiz-adv-x="426" d="M383 -138 Q383 -158 375 -174.5 Q367 -191 354 -203.5 Q341 -216 323.5 -223 Q306 -230 287 -230 L150 -230 Q131 -230 114 -223 Q97 -216 84 -203.5 Q71 -191 63.5 -174.5 Q56 -158 56 -138 L56 -56 L166 -56 L166 -104 Q166 -115 172 -122 Q178 -129 188 -129 L243 -129 Q251 -129 257 -122 Q263 -115 263 -104 Q263 -80 262 -48.5 Q261 -17 256 5 L158 387 L175 284 L175 0 L56 0 L56 749 L185 749 L278 370 L263 468 L263 749 L383 749 L383 -138 Z " />
<glyph glyph-name="eng" unicode="&#x14b;" horiz-adv-x="426" d="M237 -129 Q246 -127 252.5 -120.5 Q259 -114 259 -106 L259 415 Q259 422 254.5 429 Q250 436 241 436 L198 436 Q187 436 180.5 432 Q174 428 174 415 L174 0 L52 0 L52 540 L131 540 Q142 540 151 537 Q160 534 166 525 Q176 535 185.5 537.5 Q195 540 203 540 L284 540 Q303 540 320.5 532.5 Q338 525 351 512.5 Q364 500 371.5 483 Q379 466 379 447 L379 -138 Q379 -157 371.5 -174 Q364 -191 351 -203.5 Q338 -216 321.5 -223.5 Q305 -231 286 -231 L218 -231 L218 -129 L237 -129 Z " />
<glyph glyph-name="longs_t" unicode="&#xfb05;" horiz-adv-x="587" d="M109 668 Q109 718 133.5 746 Q158 774 204 774 L369 774 Q416 774 441 746 Q466 718 466 668 L466 540 L524 540 L524 420 L466 420 L466 122 Q466 116 472 109.5 Q478 103 487 103 L524 103 L524 0 L440 0 Q396 0 371 28 Q346 56 346 105 L346 418 L293 418 L293 540 L346 540 L346 655 L227 655 L227 0 L109 0 L109 419 L47 419 L47 540 L109 540 L109 668 Z " />
<glyph glyph-name="middot" unicode="&#xb7;" horiz-adv-x="203" d="M48 537 L167 537 L167 418 L48 418 L48 537 Z " />
<glyph glyph-name="s_t" unicode="&#xfb06;" horiz-adv-x="635" d="M435 627 L554 627 L554 540 L612 540 L612 417 L554 417 L554 122 Q554 116 560 109.5 Q566 103 577 103 L612 103 L612 0 L530 0 Q485 0 460 28 Q435 56 435 105 L435 417 Q435 425 427 431.5 Q419 438 411 438 L188 438 Q179 438 172.5 431 Q166 424 166 415 L166 395 Q166 371 181.5 355.5 Q197 340 219.5 328 Q242 316 269 303.5 Q296 291 318.5 273 Q341 255 356.5 228 Q372 201 372 159 L372 93 Q372 73 364.5 56.5 Q357 40 344 27 Q331 14 314 7 Q297 0 278 0 L140 0 Q121 0 104 7 Q87 14 74 27 Q61 40 53.5 56.5 Q46 73 46 93 L46 168 L166 168 L166 124 Q166 117 173 110 Q180 103 188 103 L230 103 Q239 103 245.5 109.5 Q252 116 252 125 L252 149 Q252 172 237 187 Q222 202 199 214 Q176 226 149.5 237 Q123 248 100 262 Q77 276 62 295.5 Q47 315 47 345 L47 447 Q47 466 54.5 483 Q62 500 75 512.5 Q88 525 105 532.5 Q122 540 141 540 L435 540 L435 627 Z " />
<glyph glyph-name="guilsinglleft" unicode="&#x2039;" horiz-adv-x="295" d="M48 441 L248 641 L248 470 L160 384 L248 295 L248 126 L48 326 L48 441 Z " />
<glyph glyph-name="guilsinglright" unicode="&#x203a;" horiz-adv-x="295" d="M48 126 L48 295 L137 383 L48 470 L48 641 L248 441 L248 326 L48 126 Z " />
<glyph glyph-name="guillemotleft" unicode="&#xab;" horiz-adv-x="488" d="M250 441 L450 641 L450 470 L362 384 L450 295 L450 126 L250 326 L250 441 Z M48 441 L248 641 L248 470 L160 384 L248 295 L248 126 L48 326 L48 441 Z " />
<glyph glyph-name="guillemotright" unicode="&#xbb;" horiz-adv-x="483" d="M48 126 L48 295 L137 383 L48 470 L48 641 L248 441 L248 326 L48 126 Z M249 126 L249 295 L338 383 L249 470 L249 641 L449 441 L449 326 L249 126 Z " />
<glyph glyph-name="zerosuperior" unicode="&#x2070;" horiz-adv-x="389" d="M140 271 Q121 271 104 278.5 Q87 286 74.5 298.5 Q62 311 54.5 328 Q47 345 47 364 L47 655 Q47 674 54.5 691.5 Q62 709 74.5 721.5 Q87 734 104 741.5 Q121 749 140 749 L278 749 Q297 749 314.5 741.5 Q332 734 345 721.5 Q358 709 366 691.5 Q374 674 374 655 L374 364 Q374 345 366 328 Q358 311 345 298.5 Q332 286 314.5 278.5 Q297 271 278 271 L140 271 Z M189 649 Q180 649 173.5 641.5 Q167 634 167 624 L167 396 Q167 388 174 380 Q181 372 189 372 L231 372 Q241 372 248 379 Q255 386 255 397 L255 625 Q255 633 248 641 Q241 649 224 649 L189 649 Z " />
<glyph glyph-name="onesuperior" unicode="&#xb9;" horiz-adv-x="264" d="M106 271 L106 545 L54 545 L54 662 Q65 671 76 683 Q85 694 93.5 710 Q102 726 107 749 L227 749 L227 271 L106 271 Z " />
<glyph glyph-name="twosuperior" unicode="&#xb2;" horiz-adv-x="409" d="M374 560 Q374 538 365 523 Q356 508 342 497 L300 465 Q271 443 249.5 426.5 Q228 410 200 388 L374 388 L374 269 L48 269 L48 374 Q48 382 53.5 395.5 Q59 409 66 416 L241 556 Q250 564 253 577.5 Q256 591 256 595 L256 624 Q256 634 249 641.5 Q242 649 232 649 L199 649 Q181 649 174.5 641 Q168 633 168 625 L168 545 L48 545 L48 655 Q48 674 55.5 691.5 Q63 709 75.5 721.5 Q88 734 105 741.5 Q122 749 141 749 L278 749 Q297 749 314.5 741.5 Q332 734 345 721.5 Q358 709 366 691.5 Q374 674 374 655 L374 560 Z " />
<glyph glyph-name="threesuperior" unicode="&#xb3;" horiz-adv-x="389" d="M231 370 Q241 370 248 377.5 Q255 385 255 396 L255 450 Q255 460 247.5 467 Q240 474 229 474 L174 474 L174 576 L229 576 Q240 576 247.5 582.5 Q255 589 255 598 L255 624 Q255 632 249.5 639.5 Q244 647 235 647 L193 647 Q178 647 172 636.5 Q166 626 164 612 L47 612 L47 655 Q47 674 54.5 691.5 Q62 709 74.5 721.5 Q87 734 104 741.5 Q121 749 140 749 L278 749 Q297 749 314.5 741.5 Q332 734 345 721.5 Q358 709 366 691.5 Q374 674 374 655 L374 599 Q374 583 362.5 563 Q351 543 332 525 Q351 508 362.5 487.5 Q374 467 374 447 L374 363 Q374 344 366 327 Q358 310 345 297.5 Q332 285 314.5 277.5 Q297 270 278 270 L140 270 Q121 270 104 277.5 Q87 285 74.5 297.5 Q62 310 54.5 327 Q47 344 47 363 L47 437 L167 437 L167 396 Q167 385 173.5 377.5 Q180 370 189 370 L231 370 L231 370 Z " />
<glyph glyph-name="foursuperior" unicode="&#x2074;" horiz-adv-x="403" d="M65 464 L216 749 L372 749 L372 460 L421 460 L421 341 L372 341 L372 271 L253 271 L253 341 L65 341 L65 464 Z M194 460 L253 460 L253 562 L267 619 L252 577 L194 460 Z " />
<glyph glyph-name="fivesuperior" unicode="&#x2075;" horiz-adv-x="389" d="M278 589 Q297 589 314.5 581.5 Q332 574 345 561.5 Q358 549 366 531.5 Q374 514 374 495 L374 363 Q374 344 366 327 Q358 310 345 297.5 Q332 285 314.5 277.5 Q297 270 278 270 L140 270 Q121 270 104 277.5 Q87 285 74.5 297.5 Q62 310 54.5 327 Q47 344 47 363 L47 408 L164 408 Q166 391 173.5 380.5 Q181 370 189 370 L231 370 Q241 370 248 377.5 Q255 385 255 396 L255 465 Q255 471 247 478.5 Q239 486 231 486 L194 486 Q185 486 176 478.5 Q167 471 164 455 L47 455 L47 749 L374 749 L374 649 L189 649 Q180 649 173.5 641.5 Q167 634 167 624 L167 579 Q174 582 184 585.5 Q194 589 199 589 L278 589 Z " />
<glyph glyph-name="sixsuperior" unicode="&#x2076;" horiz-adv-x="389" d="M231 370 Q241 370 248 377.5 Q255 385 255 396 L255 444 Q255 452 247 459 Q239 466 231 466 L194 466 Q185 466 176 461.5 Q167 457 167 445 L167 395 Q167 387 174 378.5 Q181 370 189 370 L231 370 Z M278 569 Q297 569 314.5 561.5 Q332 554 345 541.5 Q358 529 366 511.5 Q374 494 374 474 L374 363 Q374 344 366 327 Q358 310 345 297.5 Q332 285 314.5 277.5 Q297 270 278 270 L140 270 Q121 270 104 277.5 Q87 285 74.5 297.5 Q62 310 54.5 327 Q47 344 47 363 L47 655 Q47 674 54.5 691.5 Q62 709 74.5 721.5 Q87 734 104 741.5 Q121 749 140 749 L278 749 Q297 749 314.5 741.5 Q332 734 345 721.5 Q358 709 366 691.5 Q374 674 374 655 L374 615 L257 615 Q257 637 250 643 Q243 649 224 649 L189 649 Q180 649 173.5 641.5 Q167 634 167 624 L167 558 Q176 565 183.5 567 Q191 569 199 569 L278 569 Z " />
<glyph glyph-name="sevensuperior" unicode="&#x2077;" horiz-adv-x="390" d="M47 749 L374 749 L374 631 Q374 609 372.5 598.5 Q371 588 365 578 L192 270 L44 270 L253 630 L47 630 L47 749 Z " />
<glyph glyph-name="eightsuperior" unicode="&#x2078;" horiz-adv-x="389" d="M140 270 Q121 270 104 277.5 Q87 285 74.5 297.5 Q62 310 54.5 327 Q47 344 47 363 L47 446 Q47 463 60 484.5 Q73 506 90 524 Q72 542 59.5 561.5 Q47 581 47 598 L47 655 Q47 674 54.5 691.5 Q62 709 74.5 721.5 Q87 734 104 741.5 Q121 749 140 749 L278 749 Q297 749 314.5 741.5 Q332 734 345 721.5 Q358 709 366 691.5 Q374 674 374 655 L374 600 Q374 582 362.5 561.5 Q351 541 332 524 Q350 507 362 486 Q374 465 374 448 L374 363 Q374 344 366 327 Q358 310 345 297.5 Q332 285 314.5 277.5 Q297 270 278 270 L140 270 Z M191 473 Q181 473 174 467 Q167 461 167 450 L167 396 Q167 385 173.5 377.5 Q180 370 189 370 L231 370 Q241 370 248 377.5 Q255 385 255 396 L255 450 Q255 461 247.5 467 Q240 473 229 473 L191 473 Z M185 647 Q176 647 171.5 639.5 Q167 632 167 624 L167 598 Q167 589 174 582.5 Q181 576 191 576 L229 576 Q240 576 247.5 582.5 Q255 589 255 598 L255 624 Q255 632 249.5 639.5 Q244 647 235 647 L185 647 Z " />
<glyph glyph-name="ninesuperior" unicode="&#x2079;" horiz-adv-x="409" d="M189 649 Q180 649 173.5 642 Q167 635 167 624 L167 577 Q167 569 174 561 Q181 553 189 553 L227 553 Q237 553 246 558 Q255 563 255 576 L255 625 Q255 633 247 641 Q239 649 231 649 L189 649 Z M140 452 Q121 452 104 459 Q87 466 74.5 478.5 Q62 491 54.5 507.5 Q47 524 47 544 L47 656 Q47 697 74.5 723.5 Q102 750 140 750 L278 750 Q297 750 314.5 743 Q332 736 345 723.5 Q358 711 366 693.5 Q374 676 374 656 L374 364 Q374 345 366 328 Q358 311 345 298.5 Q332 286 314.5 278.5 Q297 271 278 271 L140 271 Q121 271 104 278.5 Q87 286 74.5 298.5 Q62 311 54.5 328 Q47 345 47 364 L47 408 L165 408 Q165 387 173.5 378.5 Q182 370 198 370 L231 370 Q241 370 248 378.5 Q255 387 255 398 L255 461 Q247 458 237.5 455 Q228 452 223 452 L140 452 Z " />
<glyph glyph-name="parenleftsuperior" unicode="&#x207d;" horiz-adv-x="260" d="M228 162 L143 162 Q124 162 106.5 169.5 Q89 177 76 189.5 Q63 202 55 219 Q47 236 47 256 L47 683 Q47 702 55 719.5 Q63 737 76 749.5 Q89 762 106.5 769.5 Q124 777 143 777 L229 777 L229 675 L190 675 Q181 675 175 668 Q169 661 169 651 L169 286 Q169 280 175 272.5 Q181 265 190 265 L228 265 L228 162 Z " />
<glyph glyph-name="parenrightsuperior" unicode="&#x207e;" horiz-adv-x="262" d="M43 777 L129 777 Q148 777 165.5 769.5 Q183 762 196 749.5 Q209 737 216.5 719.5 Q224 702 224 683 L224 257 Q224 237 216.5 220 Q209 203 196 190.5 Q183 178 165.5 170.5 Q148 163 129 163 L42 163 L42 265 L83 265 Q92 265 97.5 272.5 Q103 280 103 288 L103 652 Q103 660 97 667 Q91 674 83 674 L43 674 L43 777 Z " />
<glyph glyph-name="zeroinferior" unicode="&#x2080;" horiz-adv-x="389" d="M140 3 Q121 3 104 10.5 Q87 18 74.5 30.5 Q62 43 54.5 60 Q47 77 47 96 L47 387 Q47 406 54.5 423.5 Q62 441 74.5 453.5 Q87 466 104 473.5 Q121 481 140 481 L278 481 Q297 481 314.5 473.5 Q332 466 345 453.5 Q358 441 366 423.5 Q374 406 374 387 L374 96 Q374 77 366 60 Q358 43 345 30.5 Q332 18 314.5 10.5 Q297 3 278 3 L140 3 Z M189 381 Q180 381 173.5 373.5 Q167 366 167 356 L167 128 Q167 120 174 112 Q181 104 189 104 L231 104 Q241 104 248 111 Q255 118 255 129 L255 357 Q255 365 248 373 Q241 381 224 381 L189 381 Z " />
<glyph glyph-name="oneinferior" unicode="&#x2081;" horiz-adv-x="264" d="M106 3 L106 277 L54 277 L54 394 Q65 403 76 415 Q85 426 93.5 442 Q102 458 107 481 L227 481 L227 3 L106 3 Z " />
<glyph glyph-name="twoinferior" unicode="&#x2082;" horiz-adv-x="409" d="M374 294 Q374 272 365 257 Q356 242 342 231 L300 199 Q271 177 249.5 160.5 Q228 144 200 122 L374 122 L374 3 L48 3 L48 108 Q48 116 53.5 129.5 Q59 143 66 150 L241 290 Q250 298 253 311.5 Q256 325 256 329 L256 358 Q256 368 249 375.5 Q242 383 232 383 L199 383 Q181 383 174.5 375 Q168 367 168 359 L168 279 L48 279 L48 389 Q48 408 55.5 425.5 Q63 443 75.5 455.5 Q88 468 105 475.5 Q122 483 141 483 L278 483 Q297 483 314.5 475.5 Q332 468 345 455.5 Q358 443 366 425.5 Q374 408 374 389 L374 294 Z " />
<glyph glyph-name="threeinferior" unicode="&#x2083;" horiz-adv-x="389" d="M231 103 Q241 103 248 110.5 Q255 118 255 129 L255 183 Q255 193 247.5 200 Q240 207 229 207 L174 207 L174 309 L229 309 Q240 309 247.5 315.5 Q255 322 255 331 L255 357 Q255 365 249.5 372.5 Q244 380 235 380 L193 380 Q178 380 172 369.5 Q166 359 164 345 L47 345 L47 388 Q47 407 54.5 424.5 Q62 442 74.5 454.5 Q87 467 104 474.5 Q121 482 140 482 L278 482 Q297 482 314.5 474.5 Q332 467 345 454.5 Q358 442 366 424.5 Q374 407 374 388 L374 332 Q374 316 362.5 296 Q351 276 332 258 Q351 241 362.5 220.5 Q374 200 374 180 L374 96 Q374 77 366 60 Q358 43 345 30.5 Q332 18 314.5 10.5 Q297 3 278 3 L140 3 Q121 3 104 10.5 Q87 18 74.5 30.5 Q62 43 54.5 60 Q47 77 47 96 L47 170 L167 170 L167 129 Q167 118 173.5 110.5 Q180 103 189 103 L231 103 L231 103 Z " />
<glyph glyph-name="fiveinferior" unicode="&#x2085;" horiz-adv-x="389" d="M278 322 Q297 322 314.5 314.5 Q332 307 345 294.5 Q358 282 366 264.5 Q374 247 374 228 L374 96 Q374 77 366 60 Q358 43 345 30.5 Q332 18 314.5 10.5 Q297 3 278 3 L140 3 Q121 3 104 10.5 Q87 18 74.5 30.5 Q62 43 54.5 60 Q47 77 47 96 L47 141 L164 141 Q166 124 173.5 113.5 Q181 103 189 103 L231 103 Q241 103 248 110.5 Q255 118 255 129 L255 198 Q255 204 247 211.5 Q239 219 231 219 L194 219 Q185 219 176 211.5 Q167 204 164 188 L47 188 L47 482 L374 482 L374 382 L189 382 Q180 382 173.5 374.5 Q167 367 167 357 L167 312 Q174 315 184 318.5 Q194 322 199 322 L278 322 Z " />
<glyph glyph-name="fourinferior" unicode="&#x2084;" horiz-adv-x="421" d="M65 196 L216 481 L372 481 L372 192 L421 192 L421 73 L372 73 L372 3 L253 3 L253 73 L65 73 L65 196 Z M194 192 L253 192 L253 294 L267 351 L252 309 L194 192 Z " />
<glyph glyph-name="sixinferior" unicode="&#x2086;" horiz-adv-x="389" d="M231 103 Q241 103 248 110.5 Q255 118 255 129 L255 177 Q255 185 247 192 Q239 199 231 199 L194 199 Q185 199 176 194.5 Q167 190 167 178 L167 128 Q167 120 174 111.5 Q181 103 189 103 L231 103 Z M278 302 Q297 302 314.5 294.5 Q332 287 345 274.5 Q358 262 366 244.5 Q374 227 374 207 L374 96 Q374 77 366 60 Q358 43 345 30.5 Q332 18 314.5 10.5 Q297 3 278 3 L140 3 Q121 3 104 10.5 Q87 18 74.5 30.5 Q62 43 54.5 60 Q47 77 47 96 L47 388 Q47 407 54.5 424.5 Q62 442 74.5 454.5 Q87 467 104 474.5 Q121 482 140 482 L278 482 Q297 482 314.5 474.5 Q332 467 345 454.5 Q358 442 366 424.5 Q374 407 374 388 L374 348 L257 348 Q257 370 250 376 Q243 382 224 382 L189 382 Q180 382 173.5 374.5 Q167 367 167 357 L167 291 Q176 298 183.5 300 Q191 302 199 302 L278 302 Z " />
<glyph glyph-name="seveninferior" unicode="&#x2087;" horiz-adv-x="390" d="M47 482 L374 482 L374 364 Q374 342 372.5 331.5 Q371 321 365 311 L192 3 L44 3 L253 363 L47 363 L47 482 Z " />
<glyph glyph-name="eightinferior" unicode="&#x2088;" horiz-adv-x="389" d="M140 3 Q121 3 104 10.5 Q87 18 74.5 30.5 Q62 43 54.5 60 Q47 77 47 96 L47 179 Q47 196 60 217.5 Q73 239 90 257 Q72 275 59.5 294.5 Q47 314 47 331 L47 388 Q47 407 54.5 424.5 Q62 442 74.5 454.5 Q87 467 104 474.5 Q121 482 140 482 L278 482 Q297 482 314.5 474.5 Q332 467 345 454.5 Q358 442 366 424.5 Q374 407 374 388 L374 333 Q374 315 362.5 294.5 Q351 274 332 257 Q350 240 362 219 Q374 198 374 181 L374 96 Q374 77 366 60 Q358 43 345 30.5 Q332 18 314.5 10.5 Q297 3 278 3 L140 3 Z M191 206 Q181 206 174 200 Q167 194 167 183 L167 129 Q167 118 173.5 110.5 Q180 103 189 103 L231 103 Q241 103 248 110.5 Q255 118 255 129 L255 183 Q255 194 247.5 200 Q240 206 229 206 L191 206 Z M185 380 Q176 380 171.5 372.5 Q167 365 167 357 L167 331 Q167 322 174 315.5 Q181 309 191 309 L229 309 Q240 309 247.5 315.5 Q255 322 255 331 L255 357 Q255 365 249.5 372.5 Q244 380 235 380 L185 380 Z " />
<glyph glyph-name="nineinferior" unicode="&#x2089;" horiz-adv-x="409" d="M189 381 Q180 381 173.5 374 Q167 367 167 356 L167 309 Q167 301 174 293 Q181 285 189 285 L227 285 Q237 285 246 290 Q255 295 255 308 L255 357 Q255 365 247 373 Q239 381 231 381 L189 381 Z M140 184 Q121 184 104 191 Q87 198 74.5 210.5 Q62 223 54.5 239.5 Q47 256 47 276 L47 388 Q47 429 74.5 455.5 Q102 482 140 482 L278 482 Q297 482 314.5 475 Q332 468 345 455.5 Q358 443 366 425.5 Q374 408 374 388 L374 96 Q374 77 366 60 Q358 43 345 30.5 Q332 18 314.5 10.5 Q297 3 278 3 L140 3 Q121 3 104 10.5 Q87 18 74.5 30.5 Q62 43 54.5 60 Q47 77 47 96 L47 140 L165 140 Q165 119 173.5 110.5 Q182 102 198 102 L231 102 Q241 102 248 110.5 Q255 119 255 130 L255 193 Q247 190 237.5 187 Q228 184 223 184 L140 184 Z " />
<glyph glyph-name="parenleftinferior" unicode="&#x208d;" horiz-adv-x="260" d="M228 -106 L143 -106 Q124 -106 106.5 -98.5 Q89 -91 76 -78.5 Q63 -66 55 -49 Q47 -32 47 -12 L47 415 Q47 434 55 451.5 Q63 469 76 481.5 Q89 494 106.5 501.5 Q124 509 143 509 L229 509 L229 407 L190 407 Q181 407 175 400 Q169 393 169 383 L169 18 Q169 12 175 4.5 Q181 -3 190 -3 L228 -3 L228 -106 Z " />
<glyph glyph-name="parenrightinferior" unicode="&#x208e;" horiz-adv-x="262" d="M43 509 L129 509 Q148 509 165.5 501.5 Q183 494 196 481.5 Q209 469 216.5 451.5 Q224 434 224 415 L224 -11 Q224 -31 216.5 -48 Q209 -65 196 -77.5 Q183 -90 165.5 -97.5 Q148 -105 129 -105 L42 -105 L42 -3 L83 -3 Q92 -3 97.5 4.5 Q103 12 103 20 L103 384 Q103 392 97 399 Q91 406 83 406 L43 406 L43 509 Z " />
<glyph glyph-name="onethird" unicode="&#x2153;" horiz-adv-x="907" d="M106 271 L106 545 L54 545 L54 662 Q65 671 76 683 Q85 694 93.5 710 Q102 726 107 749 L227 749 L227 271 L106 271 Z M655 775 L226 -53 L108 -53 L534 775 L655 775 Z M714 103 Q724 103 731 110.5 Q738 118 738 129 L738 183 Q738 193 730.5 200 Q723 207 712 207 L657 207 L657 309 L712 309 Q723 309 730.5 315.5 Q738 322 738 331 L738 357 Q738 365 732.5 372.5 Q727 380 718 380 L676 380 Q661 380 655 369.5 Q649 359 647 345 L530 345 L530 388 Q530 407 537.5 424.5 Q545 442 557.5 454.5 Q570 467 587 474.5 Q604 482 623 482 L761 482 Q780 482 797.5 474.5 Q815 467 828 454.5 Q841 442 849 424.5 Q857 407 857 388 L857 332 Q857 316 845.5 296 Q834 276 815 258 Q834 241 845.5 220.5 Q857 200 857 180 L857 96 Q857 77 849 60 Q841 43 828 30.5 Q815 18 797.5 10.5 Q780 3 761 3 L623 3 Q604 3 587 10.5 Q570 18 557.5 30.5 Q545 43 537.5 60 Q530 77 530 96 L530 170 L650 170 L650 129 Q650 118 656.5 110.5 Q663 103 672 103 L714 103 Z " />
<glyph glyph-name="onehalf" unicode="&#xbd;" horiz-adv-x="889" d="M654 775 L225 -53 L107 -53 L533 775 L654 775 Z M106 271 L106 545 L54 545 L54 662 Q65 671 76 683 Q85 694 93.5 710 Q102 726 107 749 L227 749 L227 271 L106 271 Z M846 294 Q846 272 837 257 Q828 242 814 231 L772 199 Q743 177 721.5 160.5 Q700 144 672 122 L846 122 L846 3 L520 3 L520 108 Q520 116 525.5 129.5 Q531 143 538 150 L713 290 Q722 298 725 311.5 Q728 325 728 329 L728 358 Q728 368 721 375.5 Q714 383 704 383 L671 383 Q653 383 646.5 375 Q640 367 640 359 L640 279 L520 279 L520 389 Q520 408 527.5 425.5 Q535 443 547.5 455.5 Q560 468 577 475.5 Q594 483 613 483 L750 483 Q769 483 786.5 475.5 Q804 468 817 455.5 Q830 443 838 425.5 Q846 408 846 389 L846 294 Z " />
<glyph glyph-name="oneeighth" unicode="&#x215b;" horiz-adv-x="900" d="M106 271 L106 545 L54 545 L54 662 Q65 671 76 683 Q85 694 93.5 710 Q102 726 107 749 L227 749 L227 271 L106 271 Z M654 775 L225 -53 L107 -53 L533 775 L654 775 Z M613 3 Q594 3 577 10.5 Q560 18 547.5 30.5 Q535 43 527.5 60 Q520 77 520 96 L520 179 Q520 196 533 217.5 Q546 239 563 257 Q545 275 532.5 294.5 Q520 314 520 331 L520 388 Q520 407 527.5 424.5 Q535 442 547.5 454.5 Q560 467 577 474.5 Q594 482 613 482 L751 482 Q770 482 787.5 474.5 Q805 467 818 454.5 Q831 442 839 424.5 Q847 407 847 388 L847 333 Q847 315 835.5 294.5 Q824 274 805 257 Q823 240 835 219 Q847 198 847 181 L847 96 Q847 77 839 60 Q831 43 818 30.5 Q805 18 787.5 10.5 Q770 3 751 3 L613 3 Z M664 206 Q654 206 647 200 Q640 194 640 183 L640 129 Q640 118 646.5 110.5 Q653 103 662 103 L704 103 Q714 103 721 110.5 Q728 118 728 129 L728 183 Q728 194 720.5 200 Q713 206 702 206 L664 206 Z M658 380 Q649 380 644.5 372.5 Q640 365 640 357 L640 331 Q640 322 647 315.5 Q654 309 664 309 L702 309 Q713 309 720.5 315.5 Q728 322 728 331 L728 357 Q728 365 722.5 372.5 Q717 380 708 380 L658 380 Z " />
<glyph glyph-name="onequarter" unicode="&#xbc;" horiz-adv-x="851" d="M655 775 L226 -53 L108 -53 L534 775 L655 775 Z M106 271 L106 545 L54 545 L54 662 Q65 671 76 683 Q85 694 93.5 710 Q102 726 107 749 L227 749 L227 271 L106 271 Z M453 196 L604 481 L760 481 L760 192 L809 192 L809 73 L760 73 L760 3 L641 3 L641 73 L453 73 L453 196 Z M582 192 L641 192 L641 294 L655 351 L640 309 L582 192 Z " />
<glyph glyph-name="twothirds" unicode="&#x2154;" horiz-adv-x="1035" d="M801 775 L372 -53 L254 -53 L680 775 L801 775 Z M374 560 Q374 538 365 523 Q356 508 342 497 L300 465 Q271 443 249.5 426.5 Q228 410 200 388 L374 388 L374 269 L48 269 L48 374 Q48 382 53.5 395.5 Q59 409 66 416 L241 556 Q250 564 253 577.5 Q256 591 256 595 L256 624 Q256 634 249 641.5 Q242 649 232 649 L199 649 Q181 649 174.5 641 Q168 633 168 625 L168 545 L48 545 L48 655 Q48 674 55.5 691.5 Q63 709 75.5 721.5 Q88 734 105 741.5 Q122 749 141 749 L278 749 Q297 749 314.5 741.5 Q332 734 345 721.5 Q358 709 366 691.5 Q374 674 374 655 L374 560 Z M859 103 Q869 103 876 110.5 Q883 118 883 129 L883 183 Q883 193 875.5 200 Q868 207 857 207 L802 207 L802 309 L857 309 Q868 309 875.5 315.5 Q883 322 883 331 L883 357 Q883 365 877.5 372.5 Q872 380 863 380 L821 380 Q806 380 800 369.5 Q794 359 792 345 L675 345 L675 388 Q675 407 682.5 424.5 Q690 442 702.5 454.5 Q715 467 732 474.5 Q749 482 768 482 L906 482 Q925 482 942.5 474.5 Q960 467 973 454.5 Q986 442 994 424.5 Q1002 407 1002 388 L1002 332 Q1002 316 990.5 296 Q979 276 960 258 Q979 241 990.5 220.5 Q1002 200 1002 180 L1002 96 Q1002 77 994 60 Q986 43 973 30.5 Q960 18 942.5 10.5 Q925 3 906 3 L768 3 Q749 3 732 10.5 Q715 18 702.5 30.5 Q690 43 682.5 60 Q675 77 675 96 L675 170 L795 170 L795 129 Q795 118 801.5 110.5 Q808 103 817 103 L859 103 Z " />
<glyph glyph-name="threequarters" unicode="&#xbe;" horiz-adv-x="992" d="M802 775 L373 -53 L255 -53 L681 775 L802 775 Z M231 370 Q241 370 248 377.5 Q255 385 255 396 L255 450 Q255 460 247.5 467 Q240 474 229 474 L174 474 L174 576 L229 576 Q240 576 247.5 582.5 Q255 589 255 598 L255 624 Q255 632 249.5 639.5 Q244 647 235 647 L193 647 Q178 647 172 636.5 Q166 626 164 612 L47 612 L47 655 Q47 674 54.5 691.5 Q62 709 74.5 721.5 Q87 734 104 741.5 Q121 749 140 749 L278 749 Q297 749 314.5 741.5 Q332 734 345 721.5 Q358 709 366 691.5 Q374 674 374 655 L374 599 Q374 583 362.5 563 Q351 543 332 525 Q351 508 362.5 487.5 Q374 467 374 447 L374 363 Q374 344 366 327 Q358 310 345 297.5 Q332 285 314.5 277.5 Q297 270 278 270 L140 270 Q121 270 104 277.5 Q87 285 74.5 297.5 Q62 310 54.5 327 Q47 344 47 363 L47 437 L167 437 L167 396 Q167 385 173.5 377.5 Q180 370 189 370 L231 370 Z M615 196 L766 481 L922 481 L922 192 L971 192 L971 73 L922 73 L922 3 L803 3 L803 73 L615 73 L615 196 Z M744 192 L803 192 L803 294 L817 351 L802 309 L744 192 Z " />
<glyph glyph-name="threeeighths" unicode="&#x215c;" horiz-adv-x="972" d="M231 370 Q241 370 248 377.5 Q255 385 255 396 L255 450 Q255 460 247.5 467 Q240 474 229 474 L174 474 L174 576 L229 576 Q240 576 247.5 582.5 Q255 589 255 598 L255 624 Q255 632 249.5 639.5 Q244 647 235 647 L193 647 Q178 647 172 636.5 Q166 626 164 612 L47 612 L47 655 Q47 674 54.5 691.5 Q62 709 74.5 721.5 Q87 734 104 741.5 Q121 749 140 749 L278 749 Q297 749 314.5 741.5 Q332 734 345 721.5 Q358 709 366 691.5 Q374 674 374 655 L374 599 Q374 583 362.5 563 Q351 543 332 525 Q351 508 362.5 487.5 Q374 467 374 447 L374 363 Q374 344 366 327 Q358 310 345 297.5 Q332 285 314.5 277.5 Q297 270 278 270 L140 270 Q121 270 104 277.5 Q87 285 74.5 297.5 Q62 310 54.5 327 Q47 344 47 363 L47 437 L167 437 L167 396 Q167 385 173.5 377.5 Q180 370 189 370 L231 370 Z M798 775 L369 -53 L251 -53 L677 775 L798 775 Z M613 196 L764 481 L920 481 L920 192 L969 192 L969 73 L920 73 L920 3 L801 3 L801 73 L613 73 L613 196 Z M742 192 L801 192 L801 294 L815 351 L800 309 L742 192 Z " />
<glyph glyph-name="fiveeighths" unicode="&#x215d;" horiz-adv-x="1042" d="M278 589 Q297 589 314.5 581.5 Q332 574 345 561.5 Q358 549 366 531.5 Q374 514 374 495 L374 363 Q374 344 366 327 Q358 310 345 297.5 Q332 285 314.5 277.5 Q297 270 278 270 L140 270 Q121 270 104 277.5 Q87 285 74.5 297.5 Q62 310 54.5 327 Q47 344 47 363 L47 408 L164 408 Q166 391 173.5 380.5 Q181 370 189 370 L231 370 Q241 370 248 377.5 Q255 385 255 396 L255 465 Q255 471 247 478.5 Q239 486 231 486 L194 486 Q185 486 176 478.5 Q167 471 164 455 L47 455 L47 749 L374 749 L374 649 L189 649 Q180 649 173.5 641.5 Q167 634 167 624 L167 579 Q174 582 184 585.5 Q194 589 199 589 L278 589 Z M799 775 L370 -53 L252 -53 L678 775 L799 775 Z M767 3 Q748 3 731 10.5 Q714 18 701.5 30.5 Q689 43 681.5 60 Q674 77 674 96 L674 179 Q674 196 687 217.5 Q700 239 717 257 Q699 275 686.5 294.5 Q674 314 674 331 L674 388 Q674 407 681.5 424.5 Q689 442 701.5 454.5 Q714 467 731 474.5 Q748 482 767 482 L905 482 Q924 482 941.5 474.5 Q959 467 972 454.5 Q985 442 993 424.5 Q1001 407 1001 388 L1001 333 Q1001 315 989.5 294.5 Q978 274 959 257 Q977 240 989 219 Q1001 198 1001 181 L1001 96 Q1001 77 993 60 Q985 43 972 30.5 Q959 18 941.5 10.5 Q924 3 905 3 L767 3 Z M818 206 Q808 206 801 200 Q794 194 794 183 L794 129 Q794 118 800.5 110.5 Q807 103 816 103 L858 103 Q868 103 875 110.5 Q882 118 882 129 L882 183 Q882 194 874.5 200 Q867 206 856 206 L818 206 Z M812 380 Q803 380 798.5 372.5 Q794 365 794 357 L794 331 Q794 322 801 315.5 Q808 309 818 309 L856 309 Q867 309 874.5 315.5 Q882 322 882 331 L882 357 Q882 365 876.5 372.5 Q871 380 862 380 L812 380 Z " />
<glyph glyph-name="seveneighths" unicode="&#x215e;" horiz-adv-x="932" d="M47 749 L374 749 L374 631 Q374 609 372.5 598.5 Q371 588 365 578 L192 270 L44 270 L253 630 L47 630 L47 749 Z M681 775 L252 -53 L134 -53 L560 775 L681 775 Z M648 3 Q629 3 612 10.5 Q595 18 582.5 30.5 Q570 43 562.5 60 Q555 77 555 96 L555 179 Q555 196 568 217.5 Q581 239 598 257 Q580 275 567.5 294.5 Q555 314 555 331 L555 388 Q555 407 562.5 424.5 Q570 442 582.5 454.5 Q595 467 612 474.5 Q629 482 648 482 L786 482 Q805 482 822.5 474.5 Q840 467 853 454.5 Q866 442 874 424.5 Q882 407 882 388 L882 333 Q882 315 870.5 294.5 Q859 274 840 257 Q858 240 870 219 Q882 198 882 181 L882 96 Q882 77 874 60 Q866 43 853 30.5 Q840 18 822.5 10.5 Q805 3 786 3 L648 3 Z M699 206 Q689 206 682 200 Q675 194 675 183 L675 129 Q675 118 681.5 110.5 Q688 103 697 103 L739 103 Q749 103 756 110.5 Q763 118 763 129 L763 183 Q763 194 755.5 200 Q748 206 737 206 L699 206 Z M693 380 Q684 380 679.5 372.5 Q675 365 675 357 L675 331 Q675 322 682 315.5 Q689 309 699 309 L737 309 Q748 309 755.5 315.5 Q763 322 763 331 L763 357 Q763 365 757.5 372.5 Q752 380 743 380 L693 380 Z " />
<glyph glyph-name="degree" unicode="&#xb0;" horiz-adv-x="289" d="M70 519 Q58 519 43.5 526.5 Q29 534 16 550 Q3 566 -6 590.5 Q-15 615 -15 648 Q-15 682 -5.5 706 Q4 730 18.5 745.5 Q33 761 49 768 Q65 775 77 775 L204 775 Q215 775 230.5 768 Q246 761 260 745 Q274 729 284 704.5 Q294 680 294 645 Q294 610 284 586 Q274 562 260 547 Q246 532 230.5 525.5 Q215 519 204 519 L70 519 Z M155 615 Q171 615 177 622.5 Q183 630 183 638 L183 654 Q183 662 176.5 669.5 Q170 677 162 677 L128 677 Q109 677 104 669.5 Q99 662 99 654 L99 641 Q99 631 104.5 623 Q110 615 119 615 L155 615 Z " />
<glyph glyph-name="NULL" d="" />
<glyph glyph-name="nonmarkingreturn" unicode="&#xd;" horiz-adv-x="233" d="" />
<glyph glyph-name="A" unicode="A" horiz-adv-x="449" d="M320 0 L288 152 L158 152 L129 0 L0 0 L168 749 L280 749 L450 0 L320 0 Z M224 551 L216 418 L182 253 L267 253 Q258 295 250 335.5 Q242 376 233 418 L224 551 Z " />
<glyph glyph-name="Aacute" unicode="&#xc1;" horiz-adv-x="442" d="M319 0 L287 152 L157 152 L128 0 L-1 0 L167 749 L279 749 L449 0 L319 0 Z M223 551 L215 418 L181 253 L266 253 Q257 295 249 335.5 Q241 376 232 418 L223 551 Z M240 981 L358 981 L295 862 L186 862 L240 981 Z " />
<glyph glyph-name="Abreve" unicode="&#x102;" horiz-adv-x="442" d="M319 0 L287 152 L157 152 L128 0 L-1 0 L167 749 L279 749 L449 0 L319 0 Z M223 551 L215 418 L181 253 L266 253 Q257 295 249 335.5 Q241 376 232 418 L223 551 Z M149 845 Q130 845 112.5 852.5 Q95 860 82 872.5 Q69 885 61.5 902 Q54 919 54 938 L54 980 L171 980 Q171 966 180 955.5 Q189 945 203 945 L239 945 Q253 945 262.5 955.5 Q272 966 272 980 L389 980 L389 938 Q389 919 381 902 Q373 885 360 872.5 Q347 860 329.5 852.5 Q312 845 293 845 L149 845 Z " />
<glyph glyph-name="Acircumflex" unicode="&#xc2;" horiz-adv-x="442" d="M449 0 L279 749 L167 749 L-1 0 L128 0 L157 152 L287 152 L319 0 L449 0 Z M232 418 Q241 376 249 335.5 Q257 295 266 253 L181 253 L215 418 L223 551 L232 418 Z M169 984 L274 984 L383 818 L261 818 L222 875 L183 818 L59 818 L169 984 Z " />
<glyph glyph-name="Agrave" unicode="&#xc0;" horiz-adv-x="442" d="M319 0 L287 152 L157 152 L128 0 L-1 0 L167 749 L279 749 L449 0 L319 0 Z M223 551 L215 418 L181 253 L266 253 Q257 295 249 335.5 Q241 376 232 418 L223 551 Z M266 864 L160 864 L97 983 L216 983 L266 864 Z " />
<glyph glyph-name="Adieresis" unicode="&#xc4;" horiz-adv-x="442" d="M319 0 L287 152 L157 152 L128 0 L-1 0 L167 749 L279 749 L449 0 L319 0 Z M223 551 L215 418 L181 253 L266 253 Q257 295 249 335.5 Q241 376 232 418 L223 551 Z M51 911 Q51 940 71 960 Q91 980 119 980 Q148 980 168 960 Q188 940 188 911 Q188 882 168 862 Q148 842 119 842 Q91 842 71 862 Q51 882 51 911 Z M253 911 Q253 940 273 960 Q293 980 322 980 Q349 980 370 960 Q391 940 391 911 Q391 882 370 862 Q349 842 322 842 Q293 842 273 862 Q253 882 253 911 Z " />
<glyph glyph-name="Amacron" unicode="&#x100;" horiz-adv-x="442" d="M319 0 L287 152 L157 152 L128 0 L-1 0 L167 749 L279 749 L449 0 L319 0 Z M223 551 L215 418 L181 253 L266 253 Q257 295 249 335.5 Q241 376 232 418 L223 551 Z M64 978 L382 978 L382 877 L64 877 L64 978 Z " />
<glyph glyph-name="Aogonek" unicode="&#x104;" horiz-adv-x="442" d="M324 0 L292 152 L162 152 L133 0 L4 0 L172 749 L284 749 L454 0 L324 0 Z M228 551 L220 418 L186 253 L271 253 Q262 295 254 335.5 Q246 376 237 418 L228 551 Z M494 -220 Q465 -238 432 -238 Q411 -238 390 -231.5 Q369 -225 352.5 -212.5 Q336 -200 325.5 -181.5 Q315 -163 315 -139 Q315 -123 320.5 -103.5 Q326 -84 335 -65 Q344 -46 356.5 -29 Q369 -12 383 0 L437 0 Q420 -31 410.5 -54.5 Q401 -78 401 -93 Q401 -110 416 -121.5 Q431 -133 465 -134 L494 -220 Z " />
<glyph glyph-name="Aring" unicode="&#xc5;" horiz-adv-x="432" d="M311 0 L279 152 L149 152 L120 0 L-9 0 L143 677 Q128 685 117.5 699.5 Q107 714 107 731 L107 793 Q107 818 126.5 836 Q146 854 169 854 L263 854 Q287 854 306 836 Q325 818 325 793 L325 731 Q325 714 314.5 698.5 Q304 683 287 675 L441 0 L311 0 Z M215 551 L207 418 L173 253 L258 253 Q249 295 241 335.5 Q233 376 224 418 L215 551 Z M200 776 Q195 776 192.5 772.5 Q190 769 190 767 L190 757 Q190 751 196 749 L236 749 Q242 752 242 757 L242 767 Q242 771 238.5 773.5 Q235 776 232 776 L200 776 Z " />
<glyph glyph-name="Atilde" unicode="&#xc3;" horiz-adv-x="442" d="M316 0 L284 152 L154 152 L125 0 L-4 0 L164 749 L276 749 L446 0 L316 0 Z M220 551 L212 418 L178 253 L263 253 Q254 295 246 335.5 Q238 376 229 418 L220 551 Z M154 981 Q171 981 186 975 Q201 969 215.5 961.5 Q230 954 245 948 Q260 942 277 942 Q285 942 295 950 Q305 958 316 981 L406 981 Q401 907 371.5 867.5 Q342 828 297 828 Q282 828 265.5 834.5 Q249 841 233 849 Q217 857 202 863.5 Q187 870 174 870 Q165 870 157 861 Q149 852 139 828 L45 828 Q50 899 80 940 Q110 981 154 981 Z " />
<glyph glyph-name="AEacute" unicode="&#x1fc;" horiz-adv-x="591" d="M172 152 L137 0 L3 0 L182 749 L567 749 L567 630 L361 630 L361 426 L538 426 L538 307 L361 307 L361 119 L567 119 L567 0 L240 0 L240 152 L172 152 Z M192 253 L240 253 L240 460 L249 559 L228 461 L192 253 Z M283 862 L392 862 L455 981 L337 981 L283 862 Z " />
<glyph glyph-name="Cacute" unicode="&#x106;" horiz-adv-x="407" d="M371 309 L371 94 Q371 74 363.5 57 Q356 40 343.5 27.5 Q331 15 313.5 7.5 Q296 0 277 0 L139 0 Q120 0 103 7.5 Q86 15 73.5 27.5 Q61 40 53.5 57 Q46 74 46 94 L46 655 Q46 674 53.5 691.5 Q61 709 73.5 721.5 Q86 734 103 741.5 Q120 749 139 749 L277 749 Q296 749 313.5 741.5 Q331 734 343.5 721.5 Q356 709 363.5 691.5 Q371 674 371 655 L371 424 L253 424 L253 624 Q253 632 248 639.5 Q243 647 234 647 L184 647 Q175 647 170.5 639.5 Q166 632 166 624 L166 125 Q166 116 171 108.5 Q176 101 184 101 L230 101 Q240 101 246.5 108 Q253 115 253 125 L253 309 L371 309 Z M217 981 L335 981 L272 862 L163 862 L217 981 Z " />
<glyph glyph-name="Ccaron" unicode="&#x10c;" horiz-adv-x="407" d="M371 309 L371 94 Q371 74 363.5 57 Q356 40 343.5 27.5 Q331 15 313.5 7.5 Q296 0 277 0 L139 0 Q120 0 103 7.5 Q86 15 73.5 27.5 Q61 40 53.5 57 Q46 74 46 94 L46 655 Q46 674 53.5 691.5 Q61 709 73.5 721.5 Q86 734 103 741.5 Q120 749 139 749 L277 749 Q296 749 313.5 741.5 Q331 734 343.5 721.5 Q356 709 363.5 691.5 Q371 674 371 655 L371 424 L253 424 L253 624 Q253 632 248 639.5 Q243 647 234 647 L184 647 Q175 647 170.5 639.5 Q166 632 166 624 L166 125 Q166 116 171 108.5 Q176 101 184 101 L230 101 Q240 101 246.5 108 Q253 115 253 125 L253 309 L371 309 Z M41 983 L165 983 L206 924 L243 983 L364 983 L256 817 L151 817 L41 983 Z " />
<glyph glyph-name="Ccedilla" unicode="&#xc7;" horiz-adv-x="407" d="M371 309 L371 94 Q371 74 363.5 57 Q356 40 343.5 27.5 Q331 15 313.5 7.5 Q296 0 277 0 L139 0 Q120 0 103 7.5 Q86 15 73.5 27.5 Q61 40 53.5 57 Q46 74 46 94 L46 655 Q46 674 53.5 691.5 Q61 709 73.5 721.5 Q86 734 103 741.5 Q120 749 139 749 L277 749 Q296 749 313.5 741.5 Q331 734 343.5 721.5 Q356 709 363.5 691.5 Q371 674 371 655 L371 424 L253 424 L253 624 Q253 632 248 639.5 Q243 647 234 647 L184 647 Q175 647 170.5 639.5 Q166 632 166 624 L166 125 Q166 116 171 108.5 Q176 101 184 101 L230 101 Q240 101 246.5 108 Q253 115 253 125 L253 309 L371 309 Z M151 -134 Q185 -133 200 -121.5 Q215 -110 215 -93 Q215 -62 179 0 L233 0 Q247 -13 259.5 -30 Q272 -47 281 -66 Q290 -85 295.5 -104 Q301 -123 301 -139 Q301 -158 294.5 -175.5 Q288 -193 274.5 -206 Q261 -219 239 -227 Q217 -235 187 -235 Q178 -235 163 -233.5 Q148 -232 119 -226 L151 -134 Z " />
<glyph glyph-name="Ccircumflex" unicode="&#x108;" horiz-adv-x="407" d="M253 309 L253 125 Q253 115 246.5 108 Q240 101 230 101 L184 101 Q176 101 171 108.5 Q166 116 166 125 L166 624 Q166 632 170.5 639.5 Q175 647 184 647 L234 647 Q243 647 248 639.5 Q253 632 253 624 L253 424 L371 424 L371 655 Q371 674 363.5 691.5 Q356 709 343.5 721.5 Q331 734 313.5 741.5 Q296 749 277 749 L139 749 Q120 749 103 741.5 Q86 734 73.5 721.5 Q61 709 53.5 691.5 Q46 674 46 655 L46 94 Q46 74 53.5 57 Q61 40 73.5 27.5 Q86 15 103 7.5 Q120 0 139 0 L277 0 Q296 0 313.5 7.5 Q331 15 343.5 27.5 Q356 40 363.5 57 Q371 74 371 94 L371 309 L253 309 Z M151 984 L256 984 L365 818 L243 818 L204 875 L165 818 L41 818 L151 984 Z " />
<glyph glyph-name="Cdotaccent" unicode="&#x10a;" horiz-adv-x="407" d="M371 309 L371 94 Q371 74 363.5 57 Q356 40 343.5 27.5 Q331 15 313.5 7.5 Q296 0 277 0 L139 0 Q120 0 103 7.5 Q86 15 73.5 27.5 Q61 40 53.5 57 Q46 74 46 94 L46 655 Q46 674 53.5 691.5 Q61 709 73.5 721.5 Q86 734 103 741.5 Q120 749 139 749 L277 749 Q296 749 313.5 741.5 Q331 734 343.5 721.5 Q356 709 363.5 691.5 Q371 674 371 655 L371 424 L253 424 L253 624 Q253 632 248 639.5 Q243 647 234 647 L184 647 Q175 647 170.5 639.5 Q166 632 166 624 L166 125 Q166 116 171 108.5 Q176 101 184 101 L230 101 Q240 101 246.5 108 Q253 115 253 125 L253 309 L371 309 Z M135 915 Q135 929 140.5 941.5 Q146 954 155.5 963.5 Q165 973 177.5 978.5 Q190 984 203 984 Q233 984 252.5 964 Q272 944 272 915 Q272 886 252.5 866 Q233 846 203 846 Q177 846 156 866 Q135 886 135 915 Z " />
<glyph glyph-name="Dcaron" unicode="&#x10e;" horiz-adv-x="415" d="M56 749 L286 749 Q305 749 322.5 741.5 Q340 734 353 721.5 Q366 709 374 691.5 Q382 674 382 655 L382 94 Q382 74 374 57 Q366 40 353 27.5 Q340 15 322.5 7.5 Q305 0 286 0 L56 0 L56 749 Z M262 625 Q262 633 257 641 Q252 649 243 649 L175 649 L175 101 L239 101 Q249 101 255.5 108 Q262 115 262 125 L262 625 Z M45 983 L169 983 L210 924 L247 983 L368 983 L260 817 L155 817 L45 983 Z " />
<glyph glyph-name="Dcroat" unicode="&#x110;" horiz-adv-x="425" d="M26 407 L66 407 L66 749 L296 749 Q315 749 332.5 741.5 Q350 734 363 721.5 Q376 709 384 691.5 Q392 674 392 655 L392 94 Q392 74 384 57 Q376 40 363 27.5 Q350 15 332.5 7.5 Q315 0 296 0 L66 0 L66 289 L26 289 L26 407 Z M272 625 Q272 633 267 641 Q262 649 253 649 L185 649 L185 407 L227 407 L227 289 L185 289 L185 101 L249 101 Q259 101 265.5 108 Q272 115 272 125 L272 625 Z " />
<glyph glyph-name="Eacute" unicode="&#xc9;" horiz-adv-x="412" d="M56 749 L383 749 L383 630 L175 630 L175 426 L351 426 L351 307 L175 307 L175 119 L383 119 L383 0 L56 0 L56 749 Z M218 981 L336 981 L273 862 L164 862 L218 981 Z " />
<glyph glyph-name="Ebreve" unicode="&#x114;" horiz-adv-x="412" d="M56 749 L383 749 L383 630 L175 630 L175 426 L351 426 L351 307 L175 307 L175 119 L383 119 L383 0 L56 0 L56 749 Z M142 844 Q123 844 105.5 851.5 Q88 859 75 871.5 Q62 884 54.5 901 Q47 918 47 937 L47 979 L164 979 Q164 965 173 954.5 Q182 944 196 944 L232 944 Q246 944 255.5 954.5 Q265 965 265 979 L382 979 L382 937 Q382 918 374 901 Q366 884 353 871.5 Q340 859 322.5 851.5 Q305 844 286 844 L142 844 Z " />
<glyph glyph-name="Ecaron" unicode="&#x11a;" horiz-adv-x="412" d="M56 749 L383 749 L383 630 L175 630 L175 426 L351 426 L351 307 L175 307 L175 119 L383 119 L383 0 L56 0 L56 749 Z M64 983 L188 983 L229 924 L266 983 L387 983 L279 817 L174 817 L64 983 Z " />
<glyph glyph-name="Ecircumflex" unicode="&#xca;" horiz-adv-x="412" d="M56 0 L383 0 L383 119 L175 119 L175 307 L351 307 L351 426 L175 426 L175 630 L383 630 L383 749 L56 749 L56 0 Z M164 984 L269 984 L378 818 L256 818 L217 875 L178 818 L54 818 L164 984 Z " />
<glyph glyph-name="Edieresis" unicode="&#xcb;" horiz-adv-x="412" d="M56 749 L383 749 L383 630 L175 630 L175 426 L351 426 L351 307 L175 307 L175 119 L383 119 L383 0 L56 0 L56 749 Z M41 915 Q41 944 61 964 Q81 984 109 984 Q138 984 158 964 Q178 944 178 915 Q178 886 158 866 Q138 846 109 846 Q81 846 61 866 Q41 886 41 915 Z M243 915 Q243 944 263 964 Q283 984 312 984 Q339 984 360 964 Q381 944 381 915 Q381 886 360 866 Q339 846 312 846 Q283 846 263 866 Q243 886 243 915 Z " />
<glyph glyph-name="Edotaccent" unicode="&#x116;" horiz-adv-x="412" d="M56 749 L383 749 L383 630 L175 630 L175 426 L351 426 L351 307 L175 307 L175 119 L383 119 L383 0 L56 0 L56 749 Z M151 915 Q151 929 156.5 941.5 Q162 954 171.5 963.5 Q181 973 193.5 978.5 Q206 984 219 984 Q249 984 268.5 964 Q288 944 288 915 Q288 886 268.5 866 Q249 846 219 846 Q193 846 172 866 Q151 886 151 915 Z " />
<glyph glyph-name="Egrave" unicode="&#xc8;" horiz-adv-x="412" d="M56 749 L383 749 L383 630 L175 630 L175 426 L351 426 L351 307 L175 307 L175 119 L383 119 L383 0 L56 0 L56 749 Z M275 864 L169 864 L106 983 L225 983 L275 864 Z " />
<glyph glyph-name="Eogonek" unicode="&#x118;" horiz-adv-x="412" d="M56 749 L383 749 L383 630 L175 630 L175 426 L351 426 L351 307 L175 307 L175 119 L383 119 L383 0 L56 0 L56 749 Z M353 -220 Q324 -238 291 -238 Q270 -238 249 -231.5 Q228 -225 211.5 -212.5 Q195 -200 184.5 -181.5 Q174 -163 174 -139 Q174 -123 179.5 -103.5 Q185 -84 194 -65 Q203 -46 215.5 -29 Q228 -12 242 0 L296 0 Q279 -31 269.5 -54.5 Q260 -78 260 -93 Q260 -110 275 -121.5 Q290 -133 324 -134 L353 -220 Z " />
<glyph glyph-name="Macron" unicode="&#xf6d0;" horiz-adv-x="409" d="M49 978 L367 978 L367 877 L49 877 L49 978 Z " />
<glyph glyph-name="Emacron" unicode="&#x112;" horiz-adv-x="412" d="M56 749 L383 749 L383 630 L175 630 L175 426 L351 426 L351 307 L175 307 L175 119 L383 119 L383 0 L56 0 L56 749 Z M64 979 L382 979 L382 878 L64 878 L64 979 Z " />
<glyph glyph-name="Gbreve" unicode="&#x11e;" horiz-adv-x="409" d="M145 0 Q126 0 109 7.5 Q92 15 79.5 27.5 Q67 40 59.5 57 Q52 74 52 94 L52 655 Q52 674 59.5 691.5 Q67 709 79.5 721.5 Q92 734 109 741.5 Q126 749 145 749 L283 749 Q302 749 319.5 741.5 Q337 734 349.5 721.5 Q362 709 369.5 691.5 Q377 674 377 655 L377 464 L259 464 L259 624 Q259 632 254 639.5 Q249 647 240 647 L190 647 Q181 647 176.5 639.5 Q172 632 172 624 L172 125 Q172 116 177.5 109.5 Q183 103 191 101 L232 101 Q242 101 250.5 106.5 Q259 112 259 125 L259 229 L219 229 L219 349 L377 349 L377 0 L271 0 L257 20 Q248 11 237 5.5 Q226 0 215 0 L145 0 Z M135 845 Q116 845 98.5 852.5 Q81 860 68 872.5 Q55 885 47.5 902 Q40 919 40 938 L40 980 L157 980 Q157 966 166 955.5 Q175 945 189 945 L225 945 Q239 945 248.5 955.5 Q258 966 258 980 L375 980 L375 938 Q375 919 367 902 Q359 885 346 872.5 Q333 860 315.5 852.5 Q298 845 279 845 L135 845 Z " />
<glyph glyph-name="Gcircumflex" unicode="&#x11c;" horiz-adv-x="409" d="M209 0 Q220 0 231 5.5 Q242 11 251 20 L265 0 L371 0 L371 349 L213 349 L213 229 L253 229 L253 125 Q253 112 244.5 106.5 Q236 101 226 101 L185 101 Q177 103 171.5 109.5 Q166 116 166 125 L166 624 Q166 632 170.5 639.5 Q175 647 184 647 L234 647 Q243 647 248 639.5 Q253 632 253 624 L253 464 L371 464 L371 655 Q371 674 363.5 691.5 Q356 709 343.5 721.5 Q331 734 313.5 741.5 Q296 749 277 749 L139 749 Q120 749 103 741.5 Q86 734 73.5 721.5 Q61 709 53.5 691.5 Q46 674 46 655 L46 94 Q46 74 53.5 57 Q61 40 73.5 27.5 Q86 15 103 7.5 Q120 0 139 0 L209 0 Z M152 984 L257 984 L366 818 L244 818 L205 875 L166 818 L42 818 L152 984 Z " />
<glyph glyph-name="Gcommaaccent" unicode="&#x122;" horiz-adv-x="409" d="M139 0 Q120 0 103 7.5 Q86 15 73.5 27.5 Q61 40 53.5 57 Q46 74 46 94 L46 655 Q46 674 53.5 691.5 Q61 709 73.5 721.5 Q86 734 103 741.5 Q120 749 139 749 L277 749 Q296 749 313.5 741.5 Q331 734 343.5 721.5 Q356 709 363.5 691.5 Q371 674 371 655 L371 464 L253 464 L253 624 Q253 632 248 639.5 Q243 647 234 647 L184 647 Q175 647 170.5 639.5 Q166 632 166 624 L166 125 Q166 116 171.5 109.5 Q177 103 185 101 L226 101 Q236 101 244.5 106.5 Q253 112 253 125 L253 229 L213 229 L213 349 L371 349 L371 0 L265 0 L251 20 Q242 11 231 5.5 Q220 0 209 0 L139 0 Z M149 -225 L149 -106 L268 -106 L268 -205 Q268 -244 266 -271.5 Q264 -299 253 -316.5 Q242 -334 218 -342.5 Q194 -351 149 -351 L149 -282 Q183 -282 192 -268 Q201 -254 202 -225 L149 -225 Z " />
<glyph glyph-name="Gdotaccent" unicode="&#x120;" horiz-adv-x="409" d="M139 0 Q120 0 103 7.5 Q86 15 73.5 27.5 Q61 40 53.5 57 Q46 74 46 94 L46 655 Q46 674 53.5 691.5 Q61 709 73.5 721.5 Q86 734 103 741.5 Q120 749 139 749 L277 749 Q296 749 313.5 741.5 Q331 734 343.5 721.5 Q356 709 363.5 691.5 Q371 674 371 655 L371 464 L253 464 L253 624 Q253 632 248 639.5 Q243 647 234 647 L184 647 Q175 647 170.5 639.5 Q166 632 166 624 L166 125 Q166 116 171.5 109.5 Q177 103 185 101 L226 101 Q236 101 244.5 106.5 Q253 112 253 125 L253 229 L213 229 L213 349 L371 349 L371 0 L265 0 L251 20 Q242 11 231 5.5 Q220 0 209 0 L139 0 Z M137 915 Q137 929 142.5 941.5 Q148 954 157.5 963.5 Q167 973 179.5 978.5 Q192 984 205 984 Q235 984 254.5 964 Q274 944 274 915 Q274 886 254.5 866 Q235 846 205 846 Q179 846 158 866 Q137 886 137 915 Z " />
<glyph glyph-name="Hbar" unicode="&#x126;" horiz-adv-x="425" d="M27 655 L48 655 L48 749 L167 749 L167 655 L254 655 L254 749 L374 749 L374 655 L394 655 L394 536 L374 536 L374 0 L254 0 L254 307 L167 307 L167 0 L48 0 L48 536 L27 536 L27 655 Z M254 426 L254 536 L167 536 L167 426 L254 426 Z " />
<glyph glyph-name="Hcircumflex" unicode="&#x124;" horiz-adv-x="425" d="M254 0 L374 0 L374 749 L254 749 L254 426 L167 426 L167 749 L48 749 L48 0 L167 0 L167 307 L254 307 L254 0 Z M159 984 L264 984 L373 818 L251 818 L212 875 L173 818 L49 818 L159 984 Z " />
<glyph glyph-name="Iacute" unicode="&#xcd;" horiz-adv-x="221" d="M118 981 L236 981 L173 862 L64 862 L118 981 Z M60 749 L180 749 L180 0 L60 0 L60 749 Z " />
<glyph glyph-name="Ibreve" unicode="&#x12c;" horiz-adv-x="221" d="M38 844 Q19 844 1.5 851.5 Q-16 859 -29 871.5 Q-42 884 -49.5 901 Q-57 918 -57 937 L-57 979 L60 979 Q60 965 69 954.5 Q78 944 92 944 L128 944 Q142 944 151.5 954.5 Q161 965 161 979 L278 979 L278 937 Q278 918 270 901 Q262 884 249 871.5 Q236 859 218.5 851.5 Q201 844 182 844 L38 844 Z M50 749 L170 749 L170 0 L50 0 L50 749 Z " />
<glyph glyph-name="Icircumflex" unicode="&#xce;" horiz-adv-x="221" d="M65 984 L170 984 L279 818 L157 818 L118 875 L79 818 L-45 818 L65 984 Z M60 0 L180 0 L180 749 L60 749 L60 0 Z " />
<glyph glyph-name="Idieresis" unicode="&#xcf;" horiz-adv-x="221" d="M-48 909 Q-48 938 -28 958 Q-8 978 20 978 Q49 978 69 958 Q89 938 89 909 Q89 880 69 860 Q49 840 20 840 Q-8 840 -28 860 Q-48 880 -48 909 Z M154 909 Q154 938 174 958 Q194 978 223 978 Q250 978 271 958 Q292 938 292 909 Q292 880 271 860 Q250 840 223 840 Q194 840 174 860 Q154 880 154 909 Z M60 749 L180 749 L180 0 L60 0 L60 749 Z " />
<glyph glyph-name="Idotaccent" unicode="&#x130;" horiz-adv-x="221" d="M42 915 Q42 929 47.5 941.5 Q53 954 62.5 963.5 Q72 973 84.5 978.5 Q97 984 110 984 Q140 984 159.5 964 Q179 944 179 915 Q179 886 159.5 866 Q140 846 110 846 Q84 846 63 866 Q42 886 42 915 Z M50 749 L170 749 L170 0 L50 0 L50 749 Z " />
<glyph glyph-name="Igrave" unicode="&#xcc;" horiz-adv-x="221" d="M171 864 L65 864 L2 983 L121 983 L171 864 Z M60 749 L180 749 L180 0 L60 0 L60 749 Z " />
<glyph glyph-name="Imacron" unicode="&#x12a;" horiz-adv-x="221" d="M50 749 L170 749 L170 0 L50 0 L50 749 Z M-48 978 L270 978 L270 877 L-48 877 L-48 978 Z " />
<glyph glyph-name="Iogonek" unicode="&#x12e;" horiz-adv-x="221" d="M216 -219 Q187 -237 154 -237 Q133 -237 112 -230.5 Q91 -224 74.5 -211.5 Q58 -199 47.5 -180.5 Q37 -162 37 -138 Q37 -122 42.5 -102.5 Q48 -83 57 -64 Q66 -45 78.5 -28 Q91 -11 105 1 L159 1 Q142 -30 132.5 -53.5 Q123 -77 123 -92 Q123 -109 138 -120.5 Q153 -132 187 -133 L216 -219 Z M60 749 L180 749 L180 0 L60 0 L60 749 Z " />
<glyph glyph-name="Itilde" unicode="&#x128;" horiz-adv-x="221" d="M47 981 Q64 981 79 975 Q94 969 108.5 961.5 Q123 954 138 948 Q153 942 170 942 Q178 942 188 950 Q198 958 209 981 L299 981 Q294 907 264.5 867.5 Q235 828 190 828 Q175 828 158.5 834.5 Q142 841 126 849 Q110 857 95 863.5 Q80 870 67 870 Q58 870 50 861 Q42 852 32 828 L-62 828 Q-57 899 -27 940 Q3 981 47 981 Z M60 749 L180 749 L180 0 L60 0 L60 749 Z " />
<glyph glyph-name="IJ" unicode="&#x132;" horiz-adv-x="610" d="M364 299 L364 125 Q364 115 370 108 Q376 101 385 101 L431 101 Q438 103 443.5 109 Q449 115 449 125 L449 749 L569 749 L569 94 Q569 74 561.5 57 Q554 40 541.5 27.5 Q529 15 512 7.5 Q495 0 476 0 L338 0 Q319 0 301.5 7.5 Q284 15 271 27.5 Q258 40 250.5 57 Q243 74 243 94 L243 299 L364 299 Z M50 749 L170 749 L170 0 L50 0 L50 749 Z " />
<glyph glyph-name="Jcircumflex" unicode="&#x134;" horiz-adv-x="359" d="M-8 299 L-8 94 Q-8 74 -0.5 57 Q7 40 20 27.5 Q33 15 50.5 7.5 Q68 0 87 0 L225 0 Q244 0 261 7.5 Q278 15 290.5 27.5 Q303 40 310.5 57 Q318 74 318 94 L318 749 L198 749 L198 125 Q198 115 192.5 109 Q187 103 180 101 L134 101 Q125 101 119 108 Q113 115 113 125 L113 299 L-8 299 Z M198 984 L303 984 L412 818 L290 818 L251 875 L212 818 L88 818 L198 984 Z " />
<glyph glyph-name="Kcommaaccent" unicode="&#x136;" horiz-adv-x="402" d="M175 542 L150 440 L276 749 L404 749 L245 374 L404 0 L277 0 L156 291 L175 196 L175 0 L56 0 L56 749 L175 749 L175 542 Z M147 -224 L147 -105 L266 -105 L266 -204 Q266 -243 264 -270.5 Q262 -298 251 -315.5 Q240 -333 216 -341.5 Q192 -350 147 -350 L147 -281 Q181 -281 190 -267 Q199 -253 200 -224 L147 -224 Z " />
<glyph glyph-name="eth" unicode="&#xf0;" horiz-adv-x="396" d="M140 0 Q121 0 104 7 Q87 14 74.5 27 Q62 40 54.5 56.5 Q47 73 47 93 L47 447 Q47 466 54.5 483 Q62 500 74.5 512.5 Q87 525 104 532.5 Q121 540 140 540 L227 540 Q221 560 215 577.5 Q209 595 203 615 Q179 609 153.5 600.5 Q128 592 104 586 L76 683 L176 713 L157 770 L275 804 L294 744 L391 774 L420 679 L320 647 L347 560 Q358 522 365 497 Q372 472 372 446 L372 93 Q372 73 364.5 56.5 Q357 40 344 27 Q331 14 313.5 7 Q296 0 277 0 L140 0 Z M187 437 Q179 437 172.5 430 Q166 423 166 414 L166 124 Q166 117 172.5 110 Q179 103 187 103 L231 103 Q240 103 247 109.5 Q254 116 254 125 L254 416 Q254 423 247 430 Q240 437 223 437 L187 437 Z " />
<glyph glyph-name="Lacute" unicode="&#x139;" horiz-adv-x="400" d="M175 119 L383 119 L383 0 L56 0 L56 749 L175 749 L175 119 Z M121 981 L239 981 L176 862 L67 862 L121 981 Z " />
<glyph glyph-name="Lcaron" unicode="&#x13d;" horiz-adv-x="400" d="M175 119 L383 119 L383 0 L56 0 L56 749 L175 749 L175 119 Z M-50 983 L74 983 L115 924 L152 983 L273 983 L165 817 L60 817 L-50 983 Z " />
<glyph glyph-name="Lcommaaccent" unicode="&#x13b;" horiz-adv-x="400" d="M175 119 L383 119 L383 0 L56 0 L56 749 L175 749 L175 119 Z M146 -223 L146 -104 L265 -104 L265 -203 Q265 -242 263 -269.5 Q261 -297 250 -314.5 Q239 -332 215 -340.5 Q191 -349 146 -349 L146 -280 Q180 -280 189 -266 Q198 -252 199 -223 L146 -223 Z " />
<glyph glyph-name="Ldot" unicode="&#x13f;" horiz-adv-x="400" d="M175 119 L383 119 L383 0 L56 0 L56 749 L175 749 L175 119 Z M239 472 Q239 486 244.5 498.5 Q250 511 259.5 520.5 Q269 530 281.5 535.5 Q294 541 307 541 Q337 541 356.5 521 Q376 501 376 472 Q376 443 356.5 423 Q337 403 307 403 Q281 403 260 423 Q239 443 239 472 Z " />
<glyph glyph-name="Lslash" unicode="&#x141;" horiz-adv-x="417" d="M193 491 L265 533 L324 429 L193 354 L193 119 L400 119 L400 0 L73 0 L73 283 L46 269 L-14 371 L73 422 L73 749 L193 749 L193 491 Z " />
<glyph glyph-name="Nacute" unicode="&#x143;" horiz-adv-x="426" d="M387 0 L257 0 L159 383 L175 284 L175 0 L56 0 L56 749 L185 749 L283 366 L267 465 L267 749 L387 749 L387 0 Z M217 981 L335 981 L272 862 L163 862 L217 981 Z " />
<glyph glyph-name="Ncaron" unicode="&#x147;" horiz-adv-x="426" d="M379 0 L249 0 L151 383 L167 284 L167 0 L48 0 L48 749 L177 749 L275 366 L259 465 L259 749 L379 749 L379 0 Z M50 983 L174 983 L215 924 L252 983 L373 983 L265 817 L160 817 L50 983 Z " />
<glyph glyph-name="Ncommaaccent" unicode="&#x145;" horiz-adv-x="426" d="M387 0 L257 0 L159 383 L175 284 L175 0 L56 0 L56 749 L185 749 L283 366 L267 465 L267 749 L387 749 L387 0 Z M159 -221 L159 -102 L278 -102 L278 -201 Q278 -240 276 -267.5 Q274 -295 263 -312.5 Q252 -330 228 -338.5 Q204 -347 159 -347 L159 -278 Q193 -278 202 -264 Q211 -250 212 -221 L159 -221 Z " />
<glyph glyph-name="Ntilde" unicode="&#xd1;" horiz-adv-x="426" d="M379 0 L249 0 L151 383 L167 284 L167 0 L48 0 L48 749 L177 749 L275 366 L259 465 L259 749 L379 749 L379 0 Z M142 981 Q159 981 174 975 Q189 969 203.5 961.5 Q218 954 233 948 Q248 942 265 942 Q273 942 283 950 Q293 958 304 981 L394 981 Q389 907 359.5 867.5 Q330 828 285 828 Q270 828 253.5 834.5 Q237 841 221 849 Q205 857 190 863.5 Q175 870 162 870 Q153 870 145 861 Q137 852 127 828 L33 828 Q38 899 68 940 Q98 981 142 981 Z " />
<glyph glyph-name="Oacute" unicode="&#xd3;" horiz-adv-x="406" d="M139 0 Q120 0 103 7.5 Q86 15 73.5 27.5 Q61 40 53.5 57 Q46 74 46 94 L46 655 Q46 674 53.5 691.5 Q61 709 73.5 721.5 Q86 734 103 741.5 Q120 749 139 749 L277 749 Q296 749 313.5 741.5 Q331 734 343.5 721.5 Q356 709 363.5 691.5 Q371 674 371 655 L371 94 Q371 74 363.5 57 Q356 40 343.5 27.5 Q331 15 313.5 7.5 Q296 0 277 0 L139 0 Z M188 649 Q179 649 172.5 641.5 Q166 634 166 624 L166 125 Q166 117 173 109 Q180 101 188 101 L230 101 Q240 101 246.5 108 Q253 115 253 125 L253 625 Q253 633 246.5 641 Q240 649 223 649 L188 649 Z M203 981 L321 981 L258 862 L149 862 L203 981 Z " />
<glyph glyph-name="Obreve" unicode="&#x14e;" horiz-adv-x="406" d="M139 0 Q120 0 103 7.5 Q86 15 73.5 27.5 Q61 40 53.5 57 Q46 74 46 94 L46 655 Q46 674 53.5 691.5 Q61 709 73.5 721.5 Q86 734 103 741.5 Q120 749 139 749 L277 749 Q296 749 313.5 741.5 Q331 734 343.5 721.5 Q356 709 363.5 691.5 Q371 674 371 655 L371 94 Q371 74 363.5 57 Q356 40 343.5 27.5 Q331 15 313.5 7.5 Q296 0 277 0 L139 0 Z M188 649 Q179 649 172.5 641.5 Q166 634 166 624 L166 125 Q166 117 173 109 Q180 101 188 101 L230 101 Q240 101 246.5 108 Q253 115 253 125 L253 625 Q253 633 246.5 641 Q240 649 223 649 L188 649 Z M135 842 Q116 842 98.5 849.5 Q81 857 68 869.5 Q55 882 47.5 899 Q40 916 40 935 L40 977 L157 977 Q157 963 166 952.5 Q175 942 189 942 L225 942 Q239 942 248.5 952.5 Q258 963 258 977 L375 977 L375 935 Q375 916 367 899 Q359 882 346 869.5 Q333 857 315.5 849.5 Q298 842 279 842 L135 842 Z " />
<glyph glyph-name="Ocircumflex" unicode="&#xd4;" horiz-adv-x="406" d="M277 0 Q296 0 313.5 7.5 Q331 15 343.5 27.5 Q356 40 363.5 57 Q371 74 371 94 L371 655 Q371 674 363.5 691.5 Q356 709 343.5 721.5 Q331 734 313.5 741.5 Q296 749 277 749 L139 749 Q120 749 103 741.5 Q86 734 73.5 721.5 Q61 709 53.5 691.5 Q46 674 46 655 L46 94 Q46 74 53.5 57 Q61 40 73.5 27.5 Q86 15 103 7.5 Q120 0 139 0 L277 0 Z M223 649 Q240 649 246.5 641 Q253 633 253 625 L253 125 Q253 115 246.5 108 Q240 101 230 101 L188 101 Q180 101 173 109 Q166 117 166 125 L166 624 Q166 634 172.5 641.5 Q179 649 188 649 L223 649 Z M150 984 L255 984 L364 818 L242 818 L203 875 L164 818 L40 818 L150 984 Z " />
<glyph glyph-name="Odieresis" unicode="&#xd6;" horiz-adv-x="406" d="M139 0 Q120 0 103 7.5 Q86 15 73.5 27.5 Q61 40 53.5 57 Q46 74 46 94 L46 655 Q46 674 53.5 691.5 Q61 709 73.5 721.5 Q86 734 103 741.5 Q120 749 139 749 L277 749 Q296 749 313.5 741.5 Q331 734 343.5 721.5 Q356 709 363.5 691.5 Q371 674 371 655 L371 94 Q371 74 363.5 57 Q356 40 343.5 27.5 Q331 15 313.5 7.5 Q296 0 277 0 L139 0 Z M188 649 Q179 649 172.5 641.5 Q166 634 166 624 L166 125 Q166 117 173 109 Q180 101 188 101 L230 101 Q240 101 246.5 108 Q253 115 253 125 L253 625 Q253 633 246.5 641 Q240 649 223 649 L188 649 Z M38 913 Q38 942 58 962 Q78 982 106 982 Q135 982 155 962 Q175 942 175 913 Q175 884 155 864 Q135 844 106 844 Q78 844 58 864 Q38 884 38 913 Z M240 913 Q240 942 260 962 Q280 982 309 982 Q336 982 357 962 Q378 942 378 913 Q378 884 357 864 Q336 844 309 844 Q280 844 260 864 Q240 884 240 913 Z " />
<glyph glyph-name="Ohungarumlaut" unicode="&#x150;" horiz-adv-x="406" d="M139 0 Q120 0 103 7.5 Q86 15 73.5 27.5 Q61 40 53.5 57 Q46 74 46 94 L46 655 Q46 674 53.5 691.5 Q61 709 73.5 721.5 Q86 734 103 741.5 Q120 749 139 749 L277 749 Q296 749 313.5 741.5 Q331 734 343.5 721.5 Q356 709 363.5 691.5 Q371 674 371 655 L371 94 Q371 74 363.5 57 Q356 40 343.5 27.5 Q331 15 313.5 7.5 Q296 0 277 0 L139 0 Z M188 649 Q179 649 172.5 641.5 Q166 634 166 624 L166 125 Q166 117 173 109 Q180 101 188 101 L230 101 Q240 101 246.5 108 Q253 115 253 125 L253 625 Q253 633 246.5 641 Q240 649 223 649 L188 649 Z M102 981 L220 981 L157 862 L48 862 L102 981 Z M306 981 L424 981 L361 862 L252 862 L306 981 Z " />
<glyph glyph-name="Ograve" unicode="&#xd2;" horiz-adv-x="406" d="M139 0 Q120 0 103 7.5 Q86 15 73.5 27.5 Q61 40 53.5 57 Q46 74 46 94 L46 655 Q46 674 53.5 691.5 Q61 709 73.5 721.5 Q86 734 103 741.5 Q120 749 139 749 L277 749 Q296 749 313.5 741.5 Q331 734 343.5 721.5 Q356 709 363.5 691.5 Q371 674 371 655 L371 94 Q371 74 363.5 57 Q356 40 343.5 27.5 Q331 15 313.5 7.5 Q296 0 277 0 L139 0 Z M188 649 Q179 649 172.5 641.5 Q166 634 166 624 L166 125 Q166 117 173 109 Q180 101 188 101 L230 101 Q240 101 246.5 108 Q253 115 253 125 L253 625 Q253 633 246.5 641 Q240 649 223 649 L188 649 Z M256 864 L150 864 L87 983 L206 983 L256 864 Z " />
<glyph glyph-name="Oslash" unicode="&#xd8;" horiz-adv-x="483" d="M175 0 Q152 0 121 16 Q113 -1 106 -17.5 Q99 -34 91 -50 L-28 -50 L82 160 L82 655 Q82 674 89.5 691.5 Q97 709 109.5 721.5 Q122 734 139 741.5 Q156 749 175 749 L313 749 Q326 749 342 743 Q358 737 374 728 L397 777 L518 777 L407 565 L407 94 Q407 74 399.5 57 Q392 40 379 27.5 Q366 15 349 7.5 Q332 0 313 0 L175 0 Z M222 649 Q214 649 208 641.5 Q202 634 202 624 L202 125 Q202 117 208.5 109 Q215 101 222 101 L266 101 Q275 101 280.5 108 Q286 115 286 125 L286 625 Q286 633 280.5 641 Q275 649 258 649 L222 649 Z " />
<glyph glyph-name="Omacron" unicode="&#x14c;" horiz-adv-x="406" d="M139 0 Q120 0 103 7.5 Q86 15 73.5 27.5 Q61 40 53.5 57 Q46 74 46 94 L46 655 Q46 674 53.5 691.5 Q61 709 73.5 721.5 Q86 734 103 741.5 Q120 749 139 749 L277 749 Q296 749 313.5 741.5 Q331 734 343.5 721.5 Q356 709 363.5 691.5 Q371 674 371 655 L371 94 Q371 74 363.5 57 Q356 40 343.5 27.5 Q331 15 313.5 7.5 Q296 0 277 0 L139 0 Z M188 649 Q179 649 172.5 641.5 Q166 634 166 624 L166 125 Q166 117 173 109 Q180 101 188 101 L230 101 Q240 101 246.5 108 Q253 115 253 125 L253 625 Q253 633 246.5 641 Q240 649 223 649 L188 649 Z M49 978 L367 978 L367 877 L49 877 L49 978 Z " />
<glyph glyph-name="Oslashacute" unicode="&#x1fe;" horiz-adv-x="406" d="M141 0 Q118 0 87 16 Q79 -1 72 -17.5 Q65 -34 57 -50 L-62 -50 L48 160 L48 655 Q48 674 55.5 691.5 Q63 709 75.5 721.5 Q88 734 105 741.5 Q122 749 141 749 L279 749 Q292 749 308 743 Q324 737 340 728 L363 777 L484 777 L373 565 L373 94 Q373 74 365.5 57 Q358 40 345 27.5 Q332 15 315 7.5 Q298 0 279 0 L141 0 Z M188 649 Q180 649 174 641.5 Q168 634 168 624 L168 125 Q168 117 174.5 109 Q181 101 188 101 L232 101 Q241 101 246.5 108 Q252 115 252 125 L252 625 Q252 633 246.5 641 Q241 649 224 649 L188 649 Z M203 981 L321 981 L258 862 L149 862 L203 981 Z " />
<glyph glyph-name="Otilde" unicode="&#xd5;" horiz-adv-x="406" d="M139 0 Q120 0 103 7.5 Q86 15 73.5 27.5 Q61 40 53.5 57 Q46 74 46 94 L46 655 Q46 674 53.5 691.5 Q61 709 73.5 721.5 Q86 734 103 741.5 Q120 749 139 749 L277 749 Q296 749 313.5 741.5 Q331 734 343.5 721.5 Q356 709 363.5 691.5 Q371 674 371 655 L371 94 Q371 74 363.5 57 Q356 40 343.5 27.5 Q331 15 313.5 7.5 Q296 0 277 0 L139 0 Z M188 649 Q179 649 172.5 641.5 Q166 634 166 624 L166 125 Q166 117 173 109 Q180 101 188 101 L230 101 Q240 101 246.5 108 Q253 115 253 125 L253 625 Q253 633 246.5 641 Q240 649 223 649 L188 649 Z M139 981 Q156 981 171 975 Q186 969 200.5 961.5 Q215 954 230 948 Q245 942 262 942 Q270 942 280 950 Q290 958 301 981 L391 981 Q386 907 356.5 867.5 Q327 828 282 828 Q267 828 250.5 834.5 Q234 841 218 849 Q202 857 187 863.5 Q172 870 159 870 Q150 870 142 861 Q134 852 124 828 L30 828 Q35 899 65 940 Q95 981 139 981 Z " />
<glyph glyph-name="Racute" unicode="&#x154;" horiz-adv-x="418" d="M382 401 Q382 360 352.5 336 Q323 312 272 306 L404 0 L277 0 L155 290 L175 196 L175 0 L56 0 L56 749 L285 749 Q304 749 321.5 741.5 Q339 734 352.5 721.5 Q366 709 374 691.5 Q382 674 382 655 L382 401 Z M175 649 L175 409 L238 409 Q248 409 255 415.5 Q262 422 262 432 L262 625 Q262 633 256.5 641 Q251 649 242 649 L175 649 Z M215 981 L333 981 L270 862 L161 862 L215 981 Z " />
<glyph glyph-name="Rcaron" unicode="&#x158;" horiz-adv-x="418" d="M382 401 Q382 360 352.5 336 Q323 312 272 306 L404 0 L277 0 L155 290 L175 196 L175 0 L56 0 L56 749 L285 749 Q304 749 321.5 741.5 Q339 734 352.5 721.5 Q366 709 374 691.5 Q382 674 382 655 L382 401 Z M175 649 L175 409 L238 409 Q248 409 255 415.5 Q262 422 262 432 L262 625 Q262 633 256.5 641 Q251 649 242 649 L175 649 Z M46 984 L170 984 L211 925 L248 984 L369 984 L261 818 L156 818 L46 984 Z " />
<glyph glyph-name="Rcommaaccent" unicode="&#x156;" horiz-adv-x="418" d="M382 401 Q382 360 352.5 336 Q323 312 272 306 L404 0 L277 0 L155 290 L175 196 L175 0 L56 0 L56 749 L285 749 Q304 749 321.5 741.5 Q339 734 352.5 721.5 Q366 709 374 691.5 Q382 674 382 655 L382 401 Z M175 649 L175 409 L238 409 Q248 409 255 415.5 Q262 422 262 432 L262 625 Q262 633 256.5 641 Q251 649 242 649 L175 649 Z M155 -225 L155 -106 L274 -106 L274 -205 Q274 -244 272 -271.5 Q270 -299 259 -316.5 Q248 -334 224 -342.5 Q200 -351 155 -351 L155 -282 Q189 -282 198 -268 Q207 -254 208 -225 L155 -225 Z " />
<glyph glyph-name="Sacute" unicode="&#x15a;" horiz-adv-x="421" d="M169 537 Q169 517 184.5 503 Q200 489 223 477.5 Q246 466 272.5 454 Q299 442 322 426 Q345 410 360.5 388.5 Q376 367 376 336 L376 94 Q376 74 368.5 57 Q361 40 347.5 27.5 Q334 15 316.5 7.5 Q299 0 280 0 L143 0 Q124 0 107 7.5 Q90 15 77 27.5 Q64 40 56.5 57 Q49 74 49 94 L49 227 L169 227 L169 125 Q169 117 176 109 Q183 101 191 101 L233 101 Q243 101 250 108 Q257 115 257 125 L257 292 Q257 316 241.5 332.5 Q226 349 203 362.5 Q180 376 153.5 388 Q127 400 104 414.5 Q81 429 65.5 448 Q50 467 50 495 L50 655 Q50 674 57.5 691.5 Q65 709 78 721.5 Q91 734 108 741.5 Q125 749 145 749 L280 749 Q299 749 316.5 741.5 Q334 734 347.5 721.5 Q361 709 368.5 691.5 Q376 674 376 655 L376 545 L257 545 L257 625 Q257 633 250 641 Q243 649 225 649 L191 649 Q182 649 175.5 641.5 Q169 634 169 624 L169 537 Z M228 981 L346 981 L283 862 L174 862 L228 981 Z " />
<glyph glyph-name="Scaron" unicode="&#x160;" horiz-adv-x="392" d="M159 537 Q159 517 174.5 503 Q190 489 213 477.5 Q236 466 262.5 454 Q289 442 312 426 Q335 410 350.5 388.5 Q366 367 366 336 L366 94 Q366 74 358.5 57 Q351 40 337.5 27.5 Q324 15 306.5 7.5 Q289 0 270 0 L133 0 Q114 0 97 7.5 Q80 15 67 27.5 Q54 40 46.5 57 Q39 74 39 94 L39 227 L159 227 L159 125 Q159 117 166 109 Q173 101 181 101 L223 101 Q233 101 240 108 Q247 115 247 125 L247 292 Q247 316 231.5 332.5 Q216 349 193 362.5 Q170 376 143.5 388 Q117 400 94 414.5 Q71 429 55.5 448 Q40 467 40 495 L40 655 Q40 674 47.5 691.5 Q55 709 68 721.5 Q81 734 98 741.5 Q115 749 135 749 L270 749 Q289 749 306.5 741.5 Q324 734 337.5 721.5 Q351 709 358.5 691.5 Q366 674 366 655 L366 545 L247 545 L247 625 Q247 633 240 641 Q233 649 215 649 L181 649 Q172 649 165.5 641.5 Q159 634 159 624 L159 537 Z M33 983 L157 983 L198 924 L235 983 L356 983 L248 817 L143 817 L33 983 Z " />
<glyph glyph-name="Scedilla" unicode="&#x15e;" horiz-adv-x="392" d="M159 537 Q159 517 174.5 503 Q190 489 213 477.5 Q236 466 262.5 454 Q289 442 312 426 Q335 410 350.5 388.5 Q366 367 366 336 L366 94 Q366 74 358.5 57 Q351 40 337.5 27.5 Q324 15 306.5 7.5 Q289 0 270 0 L133 0 Q114 0 97 7.5 Q80 15 67 27.5 Q54 40 46.5 57 Q39 74 39 94 L39 227 L159 227 L159 125 Q159 117 166 109 Q173 101 181 101 L223 101 Q233 101 240 108 Q247 115 247 125 L247 292 Q247 316 231.5 332.5 Q216 349 193 362.5 Q170 376 143.5 388 Q117 400 94 414.5 Q71 429 55.5 448 Q40 467 40 495 L40 655 Q40 674 47.5 691.5 Q55 709 68 721.5 Q81 734 98 741.5 Q115 749 135 749 L270 749 Q289 749 306.5 741.5 Q324 734 337.5 721.5 Q351 709 358.5 691.5 Q366 674 366 655 L366 545 L247 545 L247 625 Q247 633 240 641 Q233 649 215 649 L181 649 Q172 649 165.5 641.5 Q159 634 159 624 L159 537 Z M144 -134 Q178 -133 193 -121.5 Q208 -110 208 -93 Q208 -62 172 0 L226 0 Q240 -13 252.5 -30 Q265 -47 274 -66 Q283 -85 288.5 -104 Q294 -123 294 -139 Q294 -158 287.5 -175.5 Q281 -193 267.5 -206 Q254 -219 232 -227 Q210 -235 180 -235 Q171 -235 156 -233.5 Q141 -232 112 -226 L144 -134 Z " />
<glyph glyph-name="Scircumflex" unicode="&#x15c;" horiz-adv-x="392" d="M159 624 Q159 634 165.5 641.5 Q172 649 181 649 L215 649 Q233 649 240 641 Q247 633 247 625 L247 545 L366 545 L366 655 Q366 674 358.5 691.5 Q351 709 337.5 721.5 Q324 734 306.5 741.5 Q289 749 270 749 L135 749 Q115 749 98 741.5 Q81 734 68 721.5 Q55 709 47.5 691.5 Q40 674 40 655 L40 495 Q40 467 55.5 448 Q71 429 94 414.5 Q117 400 143.5 388 Q170 376 193 362.5 Q216 349 231.5 332.5 Q247 316 247 292 L247 125 Q247 115 240 108 Q233 101 223 101 L181 101 Q173 101 166 109 Q159 117 159 125 L159 227 L39 227 L39 94 Q39 74 46.5 57 Q54 40 67 27.5 Q80 15 97 7.5 Q114 0 133 0 L270 0 Q289 0 306.5 7.5 Q324 15 337.5 27.5 Q351 40 358.5 57 Q366 74 366 94 L366 336 Q366 367 350.5 388.5 Q335 410 312 426 Q289 442 262.5 454 Q236 466 213 477.5 Q190 489 174.5 503 Q159 517 159 537 L159 624 Z M144 984 L249 984 L358 818 L236 818 L197 875 L158 818 L34 818 L144 984 Z " />
<glyph glyph-name="Scommaaccent" unicode="&#x218;" horiz-adv-x="392" d="M159 537 Q159 517 174.5 503 Q190 489 213 477.5 Q236 466 262.5 454 Q289 442 312 426 Q335 410 350.5 388.5 Q366 367 366 336 L366 94 Q366 74 358.5 57 Q351 40 337.5 27.5 Q324 15 306.5 7.5 Q289 0 270 0 L133 0 Q114 0 97 7.5 Q80 15 67 27.5 Q54 40 46.5 57 Q39 74 39 94 L39 227 L159 227 L159 125 Q159 117 166 109 Q173 101 181 101 L223 101 Q233 101 240 108 Q247 115 247 125 L247 292 Q247 316 231.5 332.5 Q216 349 193 362.5 Q170 376 143.5 388 Q117 400 94 414.5 Q71 429 55.5 448 Q40 467 40 495 L40 655 Q40 674 47.5 691.5 Q55 709 68 721.5 Q81 734 98 741.5 Q115 749 135 749 L270 749 Q289 749 306.5 741.5 Q324 734 337.5 721.5 Q351 709 358.5 691.5 Q366 674 366 655 L366 545 L247 545 L247 625 Q247 633 240 641 Q233 649 215 649 L181 649 Q172 649 165.5 641.5 Q159 634 159 624 L159 537 Z M143 -231 L143 -112 L262 -112 L262 -211 Q262 -250 260 -277.5 Q258 -305 247 -322.5 Q236 -340 212 -348.5 Q188 -357 143 -357 L143 -288 Q177 -288 186 -274 Q195 -260 196 -231 L143 -231 Z " />
<glyph glyph-name="Tbar" unicode="&#x166;" horiz-adv-x="382" d="M27 749 L352 749 L352 630 L250 630 L250 544 L317 544 L317 430 L250 430 L250 0 L129 0 L129 430 L63 430 L63 544 L129 544 L129 630 L27 630 L27 749 Z " />
<glyph glyph-name="Tcaron" unicode="&#x164;" horiz-adv-x="382" d="M31 749 L356 749 L356 630 L253 630 L253 0 L133 0 L133 630 L31 630 L31 749 Z M28 984 L152 984 L193 925 L230 984 L351 984 L243 818 L138 818 L28 984 Z " />
<glyph glyph-name="Tcommaaccent" unicode="&#x162;" horiz-adv-x="382" d="M36 749 L361 749 L361 630 L258 630 L258 0 L138 0 L138 630 L36 630 L36 749 Z M137 -223 L137 -104 L256 -104 L256 -203 Q256 -242 254 -269.5 Q252 -297 241 -314.5 Q230 -332 206 -340.5 Q182 -349 137 -349 L137 -280 Q171 -280 180 -266 Q189 -252 190 -223 L137 -223 Z " />
<glyph glyph-name="Uacute" unicode="&#xda;" horiz-adv-x="418" d="M172 749 L172 125 Q172 117 179 109 Q186 101 194 101 L236 101 Q246 101 253 108 Q260 115 260 125 L260 749 L379 749 L379 94 Q379 74 371 57 Q363 40 350 27.5 Q337 15 319.5 7.5 Q302 0 283 0 L146 0 Q127 0 110 7.5 Q93 15 80 27.5 Q67 40 59.5 57 Q52 74 52 94 L52 749 L172 749 Z M206 981 L324 981 L261 862 L152 862 L206 981 Z " />
<glyph glyph-name="Ubreve" unicode="&#x16c;" horiz-adv-x="418" d="M172 749 L172 125 Q172 117 179 109 Q186 101 194 101 L236 101 Q246 101 253 108 Q260 115 260 125 L260 749 L379 749 L379 94 Q379 74 371 57 Q363 40 350 27.5 Q337 15 319.5 7.5 Q302 0 283 0 L146 0 Q127 0 110 7.5 Q93 15 80 27.5 Q67 40 59.5 57 Q52 74 52 94 L52 749 L172 749 Z M141 843 Q122 843 104.5 850.5 Q87 858 74 870.5 Q61 883 53.5 900 Q46 917 46 936 L46 978 L163 978 Q163 964 172 953.5 Q181 943 195 943 L231 943 Q245 943 254.5 953.5 Q264 964 264 978 L381 978 L381 936 Q381 917 373 900 Q365 883 352 870.5 Q339 858 321.5 850.5 Q304 843 285 843 L141 843 Z " />
<glyph glyph-name="Ucircumflex" unicode="&#xdb;" horiz-adv-x="418" d="M46 749 L46 94 Q46 74 53.5 57 Q61 40 74 27.5 Q87 15 104 7.5 Q121 0 140 0 L277 0 Q296 0 313.5 7.5 Q331 15 344 27.5 Q357 40 365 57 Q373 74 373 94 L373 749 L254 749 L254 125 Q254 115 247 108 Q240 101 230 101 L188 101 Q180 101 173 109 Q166 117 166 125 L166 749 L46 749 Z M157 984 L262 984 L371 818 L249 818 L210 875 L171 818 L47 818 L157 984 Z " />
<glyph glyph-name="Udieresis" unicode="&#xdc;" horiz-adv-x="418" d="M172 749 L172 125 Q172 117 179 109 Q186 101 194 101 L236 101 Q246 101 253 108 Q260 115 260 125 L260 749 L379 749 L379 94 Q379 74 371 57 Q363 40 350 27.5 Q337 15 319.5 7.5 Q302 0 283 0 L146 0 Q127 0 110 7.5 Q93 15 80 27.5 Q67 40 59.5 57 Q52 74 52 94 L52 749 L172 749 Z M43 912 Q43 941 63 961 Q83 981 111 981 Q140 981 160 961 Q180 941 180 912 Q180 883 160 863 Q140 843 111 843 Q83 843 63 863 Q43 883 43 912 Z M245 912 Q245 941 265 961 Q285 981 314 981 Q341 981 362 961 Q383 941 383 912 Q383 883 362 863 Q341 843 314 843 Q285 843 265 863 Q245 883 245 912 Z " />
<glyph glyph-name="Ugrave" unicode="&#xd9;" horiz-adv-x="418" d="M172 749 L172 125 Q172 117 179 109 Q186 101 194 101 L236 101 Q246 101 253 108 Q260 115 260 125 L260 749 L379 749 L379 94 Q379 74 371 57 Q363 40 350 27.5 Q337 15 319.5 7.5 Q302 0 283 0 L146 0 Q127 0 110 7.5 Q93 15 80 27.5 Q67 40 59.5 57 Q52 74 52 94 L52 749 L172 749 Z M272 864 L166 864 L103 983 L222 983 L272 864 Z " />
<glyph glyph-name="Uhungarumlaut" unicode="&#x170;" horiz-adv-x="418" d="M172 749 L172 125 Q172 117 179 109 Q186 101 194 101 L236 101 Q246 101 253 108 Q260 115 260 125 L260 749 L379 749 L379 94 Q379 74 371 57 Q363 40 350 27.5 Q337 15 319.5 7.5 Q302 0 283 0 L146 0 Q127 0 110 7.5 Q93 15 80 27.5 Q67 40 59.5 57 Q52 74 52 94 L52 749 L172 749 Z M108 981 L226 981 L163 862 L54 862 L108 981 Z M312 981 L430 981 L367 862 L258 862 L312 981 Z " />
<glyph glyph-name="Umacron" unicode="&#x16a;" horiz-adv-x="418" d="M172 749 L172 125 Q172 117 179 109 Q186 101 194 101 L236 101 Q246 101 253 108 Q260 115 260 125 L260 749 L379 749 L379 94 Q379 74 371 57 Q363 40 350 27.5 Q337 15 319.5 7.5 Q302 0 283 0 L146 0 Q127 0 110 7.5 Q93 15 80 27.5 Q67 40 59.5 57 Q52 74 52 94 L52 749 L172 749 Z M58 978 L376 978 L376 877 L58 877 L58 978 Z " />
<glyph glyph-name="Uogonek" unicode="&#x172;" horiz-adv-x="418" d="M172 749 L172 125 Q172 117 179 109 Q186 101 194 101 L236 101 Q246 101 253 108 Q260 115 260 125 L260 749 L379 749 L379 94 Q379 74 371 57 Q363 40 350 27.5 Q337 15 319.5 7.5 Q302 0 283 0 L146 0 Q127 0 110 7.5 Q93 15 80 27.5 Q67 40 59.5 57 Q52 74 52 94 L52 749 L172 749 Z M318 -219 Q289 -237 256 -237 Q235 -237 214 -230.5 Q193 -224 176.5 -211.5 Q160 -199 149.5 -180.5 Q139 -162 139 -138 Q139 -122 144.5 -102.5 Q150 -83 159 -64 Q168 -45 180.5 -28 Q193 -11 207 1 L261 1 Q244 -30 234.5 -53.5 Q225 -77 225 -92 Q225 -109 240 -120.5 Q255 -132 289 -133 L318 -219 Z " />
<glyph glyph-name="Uring" unicode="&#x16e;" horiz-adv-x="418" d="M166 749 L166 125 Q166 117 173 109 Q180 101 188 101 L230 101 Q240 101 247 108 Q254 115 254 125 L254 749 L373 749 L373 94 Q373 74 365 57 Q357 40 344 27.5 Q331 15 313.5 7.5 Q296 0 277 0 L140 0 Q121 0 104 7.5 Q87 15 74 27.5 Q61 40 53.5 57 Q46 74 46 94 L46 749 L166 749 Z M193 902 Q188 902 185.5 898.5 Q183 895 183 893 L183 883 Q183 879 186.5 876.5 Q190 874 193 874 L225 874 Q230 874 232.5 877.5 Q235 881 235 883 L235 893 Q235 897 231.5 899.5 Q228 902 225 902 L193 902 Z M162 796 Q150 796 139 801 Q128 806 119.5 814.5 Q111 823 105.5 834 Q100 845 100 857 L100 919 Q100 944 119.5 962 Q139 980 162 980 L256 980 Q280 980 299 962 Q318 944 318 919 L318 857 Q318 834 299 815 Q280 796 256 796 L162 796 Z " />
<glyph glyph-name="Utilde" unicode="&#x168;" horiz-adv-x="418" d="M166 749 L166 125 Q166 117 173 109 Q180 101 188 101 L230 101 Q240 101 247 108 Q254 115 254 125 L254 749 L373 749 L373 94 Q373 74 365 57 Q357 40 344 27.5 Q331 15 313.5 7.5 Q296 0 277 0 L140 0 Q121 0 104 7.5 Q87 15 74 27.5 Q61 40 53.5 57 Q46 74 46 94 L46 749 L166 749 Z M138 982 Q155 982 170 976 Q185 970 199.5 962.5 Q214 955 229 949 Q244 943 261 943 Q269 943 279 951 Q289 959 300 982 L390 982 Q385 908 355.5 868.5 Q326 829 281 829 Q266 829 249.5 835.5 Q233 842 217 850 Q201 858 186 864.5 Q171 871 158 871 Q149 871 141 862 Q133 853 123 829 L29 829 Q34 900 64 941 Q94 982 138 982 Z " />
<glyph glyph-name="Wacute" unicode="&#x1e82;" horiz-adv-x="742" d="M427 749 L513 342 L522 212 L531 342 L617 749 L747 749 L579 0 L468 0 L380 355 L371 487 L363 355 L276 0 L164 0 L-4 749 L126 749 L213 342 L221 212 L230 342 L316 749 L427 749 Z M378 982 L496 982 L433 863 L324 863 L378 982 Z " />
<glyph glyph-name="Wcircumflex" unicode="&#x174;" horiz-adv-x="742" d="M427 749 L513 342 L522 212 L531 342 L617 749 L747 749 L579 0 L468 0 L380 355 L371 487 L363 355 L276 0 L164 0 L-4 749 L126 749 L213 342 L221 212 L230 342 L316 749 L427 749 Z M319 985 L424 985 L533 819 L411 819 L372 876 L333 819 L209 819 L319 985 Z " />
<glyph glyph-name="Wdieresis" unicode="&#x1e84;" horiz-adv-x="742" d="M427 749 L513 342 L522 212 L531 342 L617 749 L747 749 L579 0 L468 0 L380 355 L371 487 L363 355 L276 0 L164 0 L-4 749 L126 749 L213 342 L221 212 L230 342 L316 749 L427 749 Z M206 897 Q206 926 226 946 Q246 966 274 966 Q303 966 323 946 Q343 926 343 897 Q343 868 323 848 Q303 828 274 828 Q246 828 226 848 Q206 868 206 897 Z M408 897 Q408 926 428 946 Q448 966 477 966 Q504 966 525 946 Q546 926 546 897 Q546 868 525 848 Q504 828 477 828 Q448 828 428 848 Q408 868 408 897 Z " />
<glyph glyph-name="Wgrave" unicode="&#x1e80;" horiz-adv-x="742" d="M427 749 L513 342 L522 212 L531 342 L617 749 L747 749 L579 0 L468 0 L380 355 L371 487 L363 355 L276 0 L164 0 L-4 749 L126 749 L213 342 L221 212 L230 342 L316 749 L427 749 Z M420 864 L314 864 L251 983 L370 983 L420 864 Z " />
<glyph glyph-name="Yacute" unicode="&#xdd;" horiz-adv-x="421" d="M193 503 L196 424 L200 503 L259 749 L381 749 Q366 689 350 624 Q334 559 318 492.5 Q302 426 286 360.5 Q270 295 256 235 L256 0 L137 0 L137 235 Q123 295 107 360.5 Q91 426 75 492.5 Q59 559 43 624 Q27 689 12 749 L134 749 L193 503 Z M199 982 L317 982 L254 863 L145 863 L199 982 Z " />
<glyph glyph-name="Ycircumflex" unicode="&#x176;" horiz-adv-x="420" d="M151 749 L29 749 Q44 689 60 624 Q76 559 92 492.5 Q108 426 124 360.5 Q140 295 154 235 L154 0 L273 0 L273 235 Q287 295 303 360.5 Q319 426 335 492.5 Q351 559 367 624 Q383 689 398 749 L276 749 L217 503 L213 424 L210 503 L151 749 Z M155 984 L260 984 L369 818 L247 818 L208 875 L169 818 L45 818 L155 984 Z " />
<glyph glyph-name="Ydieresis" unicode="&#x178;" horiz-adv-x="421" d="M193 503 L196 424 L200 503 L259 749 L381 749 Q366 689 350 624 Q334 559 318 492.5 Q302 426 286 360.5 Q270 295 256 235 L256 0 L137 0 L137 235 Q123 295 107 360.5 Q91 426 75 492.5 Q59 559 43 624 Q27 689 12 749 L134 749 L193 503 Z M30 897 Q30 926 50 946 Q70 966 98 966 Q127 966 147 946 Q167 926 167 897 Q167 868 147 848 Q127 828 98 828 Q70 828 50 848 Q30 868 30 897 Z M232 897 Q232 926 252 946 Q272 966 301 966 Q328 966 349 946 Q370 926 370 897 Q370 868 349 848 Q328 828 301 828 Q272 828 252 848 Q232 868 232 897 Z " />
<glyph glyph-name="Ygrave" unicode="&#x1ef2;" horiz-adv-x="421" d="M193 503 L196 424 L200 503 L259 749 L381 749 Q366 689 350 624 Q334 559 318 492.5 Q302 426 286 360.5 Q270 295 256 235 L256 0 L137 0 L137 235 Q123 295 107 360.5 Q91 426 75 492.5 Q59 559 43 624 Q27 689 12 749 L134 749 L193 503 Z M239 865 L133 865 L70 984 L189 984 L239 865 Z " />
<glyph glyph-name="Zacute" unicode="&#x179;" horiz-adv-x="386" d="M36 749 L362 749 L362 642 Q362 632 360.5 625 Q359 618 357 613 L157 119 L362 119 L362 0 L37 0 L37 105 Q37 127 41 136 L242 630 L36 630 L36 749 Z M213 982 L331 982 L268 863 L159 863 L213 982 Z " />
<glyph glyph-name="Zcaron" unicode="&#x17d;" horiz-adv-x="386" d="M36 749 L362 749 L362 642 Q362 632 360.5 625 Q359 618 357 613 L157 119 L362 119 L362 0 L37 0 L37 105 Q37 127 41 136 L242 630 L36 630 L36 749 Z M42 983 L166 983 L207 924 L244 983 L365 983 L257 817 L152 817 L42 983 Z " />
<glyph glyph-name="Zdotaccent" unicode="&#x17b;" horiz-adv-x="386" d="M36 749 L362 749 L362 642 Q362 632 360.5 625 Q359 618 357 613 L157 119 L362 119 L362 0 L37 0 L37 105 Q37 127 41 136 L242 630 L36 630 L36 749 Z M125 898 Q125 912 130.5 924.5 Q136 937 145.5 946.5 Q155 956 167.5 961.5 Q180 967 193 967 Q223 967 242.5 947 Q262 927 262 898 Q262 869 242.5 849 Q223 829 193 829 Q167 829 146 849 Q125 869 125 898 Z " />
<glyph glyph-name="Asmall" unicode="&#xf761;" horiz-adv-x="442" d="M276 540 L446 0 L314 0 L289 81 L151 81 L127 0 L-5 0 L164 540 L276 540 Z M250 201 L227 266 L220 372 L213 266 L190 201 L250 201 Z " />
<glyph glyph-name="Bsmall" unicode="&#xf762;" horiz-adv-x="416" d="M55 540 L289 540 Q308 540 325 532.5 Q342 525 355 512.5 Q368 500 375.5 483 Q383 466 383 447 L383 367 Q383 347 371 327 Q359 307 342 290 Q360 273 371.5 253 Q383 233 383 213 L383 93 Q383 73 375.5 56.5 Q368 40 355 27 Q342 14 325 7 Q308 0 289 0 L55 0 L55 540 Z M176 103 L240 103 Q250 103 256.5 109.5 Q263 116 263 125 L263 229 Q263 252 238 252 L176 252 L176 103 Z M238 354 Q249 354 256 361 Q263 368 263 379 L263 415 Q263 422 258.5 429 Q254 436 245 436 L176 436 L176 354 L238 354 Z " />
<glyph glyph-name="Csmall" unicode="&#xf763;" horiz-adv-x="407" d="M372 200 L372 93 Q372 73 364.5 56.5 Q357 40 344 27 Q331 14 313.5 7 Q296 0 277 0 L139 0 Q100 0 72.5 27 Q45 54 45 93 L45 447 Q45 466 52.5 483 Q60 500 72.5 512.5 Q85 525 102 532.5 Q119 540 139 540 L277 540 Q296 540 313.5 532.5 Q331 525 344 512.5 Q357 500 364.5 483 Q372 466 372 447 L372 325 L252 325 L252 415 Q252 422 248 429 Q244 436 233 436 L182 436 Q174 436 170 429 Q166 422 166 415 L166 125 Q166 117 170.5 110 Q175 103 182 103 L229 103 Q239 103 245.5 109.5 Q252 116 252 125 L252 200 L372 200 Z " />
<glyph glyph-name="Dsmall" unicode="&#xf764;" horiz-adv-x="415" d="M55 540 L288 540 Q307 540 324 532.5 Q341 525 354 512.5 Q367 500 374.5 483 Q382 466 382 447 L382 93 Q382 73 374.5 56.5 Q367 40 354 27 Q341 14 324 7 Q307 0 288 0 L55 0 L55 540 Z M262 416 Q262 424 257.5 431 Q253 438 244 438 L176 438 L176 103 L239 103 Q249 103 255.5 109.5 Q262 116 262 125 L262 416 Z " />
<glyph glyph-name="Esmall" unicode="&#xf765;" horiz-adv-x="412" d="M55 540 L383 540 L383 421 L176 421 L176 327 L353 327 L353 207 L176 207 L176 120 L383 120 L383 0 L55 0 L55 540 Z " />
<glyph glyph-name="Fsmall" unicode="&#xf766;" horiz-adv-x="406" d="M55 540 L383 540 L383 420 L176 420 L176 317 L353 317 L353 198 L176 198 L176 0 L55 0 L55 540 Z " />
<glyph glyph-name="Gsmall" unicode="&#xf767;" horiz-adv-x="409" d="M139 0 Q100 0 72.5 27 Q45 54 45 93 L45 447 Q45 466 52.5 483 Q60 500 72.5 512.5 Q85 525 102 532.5 Q119 540 139 540 L277 540 Q296 540 313.5 532.5 Q331 525 344 512.5 Q357 500 364.5 483 Q372 466 372 447 L372 325 L252 325 L252 415 Q252 422 248 429 Q244 436 233 436 L182 436 Q174 436 170 429 Q166 422 166 415 L166 125 Q166 117 171 110 Q176 103 183 103 L227 103 Q236 103 244 109 Q252 115 252 125 L252 165 L213 165 L213 264 L372 264 L372 0 L263 0 L250 22 Q239 12 227 6 Q215 0 204 0 L139 0 Z " />
<glyph glyph-name="Hsmall" unicode="&#xf768;" horiz-adv-x="440" d="M262 199 L175 199 L175 0 L55 0 L55 540 L175 540 L175 318 L262 318 L262 540 L381 540 L381 0 L262 0 L262 199 Z " />
<glyph glyph-name="Ismall" unicode="&#xf769;" horiz-adv-x="240" d="M60 540 L180 540 L180 0 L60 0 L60 540 Z " />
<glyph glyph-name="Jsmall" unicode="&#xf76a;" horiz-adv-x="359" d="M110 200 L110 125 Q110 116 117 109.5 Q124 103 134 103 L181 103 Q198 105 198 125 L198 540 L319 540 L319 93 Q319 73 311.5 56.5 Q304 40 291 27 Q278 14 261 7 Q244 0 225 0 L86 0 Q67 0 50 7 Q33 14 20 27 Q7 40 -0.5 56.5 Q-8 73 -8 93 L-8 200 L110 200 Z " />
<glyph glyph-name="Ksmall" unicode="&#xf76b;" horiz-adv-x="388" d="M226 0 L146 189 L172 93 L172 0 L55 0 L55 540 L172 540 L172 432 L146 336 L232 540 L356 540 L240 267 L354 0 L226 0 Z " />
<glyph glyph-name="Lsmall" unicode="&#xf76c;" horiz-adv-x="400" d="M176 120 L383 120 L383 0 L55 0 L55 540 L176 540 L176 120 Z " />
<glyph glyph-name="Msmall" unicode="&#xf76d;" horiz-adv-x="499" d="M248 204 L260 312 L329 540 L460 540 L460 0 L340 0 L340 218 L354 297 L280 0 L216 0 L142 297 L157 218 L157 0 L38 0 L38 540 L168 540 L238 312 L248 204 Z " />
<glyph glyph-name="Nsmall" unicode="&#xf76e;" horiz-adv-x="426" d="M383 0 L255 0 L162 297 L176 223 L176 0 L55 0 L55 540 L186 540 L276 241 L264 315 L264 540 L383 540 L383 0 Z " />
<glyph glyph-name="Osmall" unicode="&#xf76f;" horiz-adv-x="406" d="M139 0 Q100 0 72.5 27 Q45 54 45 93 L45 447 Q45 466 52.5 483 Q60 500 72.5 512.5 Q85 525 102 532.5 Q119 540 139 540 L277 540 Q296 540 313.5 532.5 Q331 525 344 512.5 Q357 500 364.5 483 Q372 466 372 447 L372 93 Q372 73 364.5 56.5 Q357 40 344 27 Q331 14 313.5 7 Q296 0 277 0 L139 0 Z M188 438 Q178 438 172 431 Q166 424 166 415 L166 124 Q166 117 172.5 110 Q179 103 188 103 L229 103 Q239 103 245.5 109.5 Q252 116 252 125 L252 416 Q252 424 246 431 Q240 438 222 438 L188 438 Z " />
<glyph glyph-name="Psmall" unicode="&#xf770;" horiz-adv-x="397" d="M55 540 L286 540 Q305 540 322.5 532.5 Q340 525 353 512.5 Q366 500 373.5 483 Q381 466 381 447 L381 301 Q381 261 353 234.5 Q325 208 286 208 L176 208 L176 0 L55 0 L55 540 Z M176 438 L176 310 L238 310 Q248 310 254.5 317 Q261 324 261 335 L261 416 Q261 424 256.5 431 Q252 438 243 438 L176 438 Z " />
<glyph glyph-name="Qsmall" unicode="&#xf771;" horiz-adv-x="406" d="M188 441 Q178 441 172 433.5 Q166 426 166 416 L166 124 Q166 117 172.5 110 Q179 103 188 103 L229 103 Q239 103 245.5 109.5 Q252 116 252 125 L252 419 Q252 426 246 433.5 Q240 441 222 441 L188 441 Z M316 -152 L243 -152 Q223 -152 206 -144.5 Q189 -137 176 -124.5 Q163 -112 155.5 -95 Q148 -78 148 -58 L148 0 L139 0 Q100 0 72.5 27 Q45 54 45 93 L45 447 Q45 466 52.5 483 Q60 500 72.5 512.5 Q85 525 102 532.5 Q119 540 139 540 L277 540 Q296 540 313.5 532.5 Q331 525 344 512.5 Q357 500 364.5 483 Q372 466 372 447 L372 93 Q372 73 364.5 56.5 Q357 40 344 27 Q331 14 313.5 7 Q296 0 277 0 L268 0 L268 -25 Q268 -33 275 -41.5 Q282 -50 291 -50 L316 -50 L316 -152 Z " />
<glyph glyph-name="Rsmall" unicode="&#xf772;" horiz-adv-x="376" d="M54 540 L265 540 Q284 540 301.5 532.5 Q319 525 332 512.5 Q345 500 352.5 483 Q360 466 360 447 L360 301 Q360 272 335 247 Q310 222 275 208 L360 0 L242 0 L162 188 L173 126 L173 0 L54 0 L54 540 Z M173 438 L173 310 L208 310 Q216 310 228.5 315 Q241 320 241 335 L241 416 Q241 424 236 431 Q231 438 222 438 L173 438 Z " />
<glyph glyph-name="Ssmall" unicode="&#xf773;" horiz-adv-x="389" d="M167 395 Q167 368 182.5 353.5 Q198 339 220.5 329 Q243 319 270 309.5 Q297 300 319.5 285 Q342 270 357.5 245 Q373 220 373 179 L373 93 Q373 73 365.5 56.5 Q358 40 345 27 Q332 14 314.5 7 Q297 0 278 0 L140 0 Q101 0 73.5 27 Q46 54 46 93 L46 190 L167 190 L167 124 Q167 117 173.5 110 Q180 103 189 103 L230 103 Q240 103 246.5 109.5 Q253 116 253 125 L253 159 Q253 182 237.5 196.5 Q222 211 199.5 222 Q177 233 150 243 Q123 253 100.5 266.5 Q78 280 62.5 299 Q47 318 47 347 L47 448 Q47 467 54.5 484 Q62 501 74.5 513.5 Q87 526 104 533 Q121 540 141 540 L278 540 Q297 540 314.5 531 Q332 522 345 507.5 Q358 493 365.5 474.5 Q373 456 373 437 L373 375 L253 375 L253 418 Q253 425 246.5 432.5 Q240 440 223 440 L189 440 Q179 440 173 432.5 Q167 425 167 416 L167 395 Z " />
<glyph glyph-name="Tsmall" unicode="&#xf774;" horiz-adv-x="382" d="M35 540 L361 540 L361 421 L258 421 L258 0 L140 0 L140 421 L35 421 L35 540 Z " />
<glyph glyph-name="Usmall" unicode="&#xf775;" horiz-adv-x="418" d="M172 540 L172 124 Q172 117 178 110 Q184 103 193 103 L235 103 Q245 103 251.5 109.5 Q258 116 258 125 L258 540 L378 540 L378 93 Q378 73 370.5 56.5 Q363 40 350 27 Q337 14 319.5 7 Q302 0 283 0 L145 0 Q106 0 78.5 27 Q51 54 51 93 L51 540 L172 540 Z " />
<glyph glyph-name="Vsmall" unicode="&#xf776;" horiz-adv-x="442" d="M217 274 L224 168 L231 274 L317 540 L450 540 L280 0 L168 0 L-1 540 L131 540 L217 274 Z " />
<glyph glyph-name="Wsmall" unicode="&#xf777;" horiz-adv-x="804" d="M398 361 L386 247 L318 0 L181 0 L16 540 L156 540 L241 258 L248 176 Q250 196 252 217 Q254 238 256 258 L340 540 L456 540 L540 258 L547 176 Q549 196 551 217 Q553 238 555 258 L640 540 L780 540 L615 0 L478 0 L410 247 L398 361 Z " />
<glyph glyph-name="Xsmall" unicode="&#xf778;" horiz-adv-x="417" d="M207 400 L211 342 L215 400 L277 540 L401 540 L309 315 L401 0 L271 0 L216 181 L211 238 L206 181 L150 0 L20 0 L113 315 L20 540 L144 540 L207 400 Z " />
<glyph glyph-name="Ysmall" unicode="&#xf779;" horiz-adv-x="421" d="M160 163 Q128 256 93.5 352.5 Q59 449 27 540 L156 540 L214 385 L219 302 L222 384 L284 540 L409 540 L279 170 L279 0 L160 0 L160 163 Z " />
<glyph glyph-name="Zsmall" unicode="&#xf77a;" horiz-adv-x="386" d="M170 120 L362 120 L362 0 L36 0 L36 106 Q36 114 37 122 Q38 130 41 135 L229 421 L35 421 L35 541 L361 541 L361 435 Q360 426 360 418.5 Q360 411 355 403 L170 120 Z " />
<glyph glyph-name="Aacutesmall" unicode="&#xf7e1;" horiz-adv-x="442" d="M276 540 L446 0 L314 0 L289 81 L151 81 L127 0 L-5 0 L164 540 L276 540 Z M250 201 L227 266 L220 372 L213 266 L190 201 L250 201 Z M165 653 L274 653 L337 772 L219 772 L165 653 Z " />
<glyph glyph-name="Acircumflexsmall" unicode="&#xf7e2;" horiz-adv-x="442" d="M164 540 L-5 0 L127 0 L151 81 L289 81 L314 0 L446 0 L276 540 L164 540 Z M190 201 L213 266 L220 372 L227 266 L250 201 L190 201 Z M169 775 L274 775 L383 609 L261 609 L222 666 L183 609 L59 609 L169 775 Z " />
<glyph glyph-name="Adieresissmall" unicode="&#xf7e4;" horiz-adv-x="442" d="M276 540 L446 0 L314 0 L289 81 L151 81 L127 0 L-5 0 L164 540 L276 540 Z M250 201 L227 266 L220 372 L213 266 L190 201 L250 201 Z M56 706 Q56 735 76 755 Q96 775 124 775 Q153 775 173 755 Q193 735 193 706 Q193 677 173 657 Q153 637 124 637 Q96 637 76 657 Q56 677 56 706 Z M258 706 Q258 735 278 755 Q298 775 327 775 Q354 775 375 755 Q396 735 396 706 Q396 677 375 657 Q354 637 327 637 Q298 637 278 657 Q258 677 258 706 Z " />
<glyph glyph-name="Aringsmall" unicode="&#xf7e5;" horiz-adv-x="442" d="M277 540 L447 0 L315 0 L290 81 L152 81 L128 0 L-4 0 L165 540 L277 540 Z M251 201 L228 266 L221 372 L214 266 L191 201 L251 201 Z M205 567 Q200 567 197.5 563.5 Q195 560 195 558 L195 548 Q195 544 198.5 541.5 Q202 539 205 539 L237 539 Q242 539 244.5 542.5 Q247 546 247 548 L247 558 Q247 562 243.5 564.5 Q240 567 237 567 L205 567 Z M174 461 Q162 461 151 466 Q140 471 131.5 479.5 Q123 488 117.5 499 Q112 510 112 522 L112 584 Q112 609 131.5 627 Q151 645 174 645 L268 645 Q292 645 311 627 Q330 609 330 584 L330 522 Q330 499 311 480 Q292 461 268 461 L174 461 Z " />
<glyph glyph-name="Atildesmall" unicode="&#xf7e3;" horiz-adv-x="442" d="M276 540 L446 0 L314 0 L289 81 L151 81 L127 0 L-5 0 L164 540 L276 540 Z M250 201 L227 266 L220 372 L213 266 L190 201 L250 201 Z M157 772 Q174 772 189 766 Q204 760 218.5 752.5 Q233 745 248 739 Q263 733 280 733 Q288 733 298 741 Q308 749 319 772 L409 772 Q404 698 374.5 658.5 Q345 619 300 619 Q285 619 268.5 625.5 Q252 632 236 640 Q220 648 205 654.5 Q190 661 177 661 Q168 661 160 652 Q152 643 142 619 L48 619 Q53 690 83 731 Q113 772 157 772 Z " />
<glyph glyph-name="Agravesmall" unicode="&#xf7e0;" horiz-adv-x="442" d="M276 540 L446 0 L314 0 L289 81 L151 81 L127 0 L-5 0 L164 540 L276 540 Z M250 201 L227 266 L220 372 L213 266 L190 201 L250 201 Z M216 774 L97 774 L160 655 L266 655 L216 774 Z " />
<glyph glyph-name="AEsmall" unicode="&#xf7e6;" horiz-adv-x="600" d="M222 70 L159 70 Q154 53 149 35 Q144 17 140 0 L8 0 L175 540 L550 540 L550 420 L341 420 L341 327 L519 327 L519 207 L341 207 L341 120 L550 120 L550 0 L222 0 L222 70 Z M185 172 L222 172 L222 290 L230 372 L185 172 Z " />
<glyph glyph-name="Ccedillasmall" unicode="&#xf7e7;" horiz-adv-x="407" d="M372 200 L372 93 Q372 73 364.5 56.5 Q357 40 344 27 Q331 14 313.5 7 Q296 0 277 0 L139 0 Q100 0 72.5 27 Q45 54 45 93 L45 447 Q45 466 52.5 483 Q60 500 72.5 512.5 Q85 525 102 532.5 Q119 540 139 540 L277 540 Q296 540 313.5 532.5 Q331 525 344 512.5 Q357 500 364.5 483 Q372 466 372 447 L372 325 L252 325 L252 415 Q252 422 248 429 Q244 436 233 436 L182 436 Q174 436 170 429 Q166 422 166 415 L166 125 Q166 117 170.5 110 Q175 103 182 103 L229 103 Q239 103 245.5 109.5 Q252 116 252 125 L252 200 L372 200 Z M149 -134 Q183 -133 198 -121.5 Q213 -110 213 -93 Q213 -62 177 0 L231 0 Q245 -13 257.5 -30 Q270 -47 279 -66 Q288 -85 293.5 -104 Q299 -123 299 -139 Q299 -158 292.5 -175.5 Q286 -193 272.5 -206 Q259 -219 237 -227 Q215 -235 185 -235 Q176 -235 161 -233.5 Q146 -232 117 -226 L149 -134 Z " />
<glyph glyph-name="Eacutesmall" unicode="&#xf7e9;" horiz-adv-x="412" d="M55 540 L383 540 L383 421 L176 421 L176 327 L353 327 L353 207 L176 207 L176 120 L383 120 L383 0 L55 0 L55 540 Z M222 772 L340 772 L277 653 L168 653 L222 772 Z " />
<glyph glyph-name="Ecircumflexsmall" unicode="&#xf7ea;" horiz-adv-x="412" d="M55 0 L383 0 L383 120 L176 120 L176 207 L353 207 L353 327 L176 327 L176 421 L383 421 L383 540 L55 540 L55 0 Z M154 775 L259 775 L368 609 L246 609 L207 666 L168 609 L44 609 L154 775 Z " />
<glyph glyph-name="Edieresissmall" unicode="&#xf7eb;" horiz-adv-x="412" d="M55 540 L383 540 L383 421 L176 421 L176 327 L353 327 L353 207 L176 207 L176 120 L383 120 L383 0 L55 0 L55 540 Z M41 706 Q41 735 61 755 Q81 775 109 775 Q138 775 158 755 Q178 735 178 706 Q178 677 158 657 Q138 637 109 637 Q81 637 61 657 Q41 677 41 706 Z M243 706 Q243 735 263 755 Q283 775 312 775 Q339 775 360 755 Q381 735 381 706 Q381 677 360 657 Q339 637 312 637 Q283 637 263 657 Q243 677 243 706 Z " />
<glyph glyph-name="Egravesmall" unicode="&#xf7e8;" horiz-adv-x="412" d="M55 540 L383 540 L383 421 L176 421 L176 327 L353 327 L353 207 L176 207 L176 120 L383 120 L383 0 L55 0 L55 540 Z M263 655 L157 655 L94 774 L213 774 L263 655 Z " />
<glyph glyph-name="Iacutesmall" unicode="&#xf7ed;" horiz-adv-x="221" d="M57 540 L177 540 L177 0 L57 0 L57 540 Z M115 772 L233 772 L170 653 L61 653 L115 772 Z " />
<glyph glyph-name="Icircumflexsmall" unicode="&#xf7ee;" horiz-adv-x="221" d="M57 0 L177 0 L177 540 L57 540 L57 0 Z M58 775 L163 775 L272 609 L150 609 L111 666 L72 609 L-52 609 L58 775 Z " />
<glyph glyph-name="Idieresissmall" unicode="&#xf7ef;" horiz-adv-x="221" d="M57 540 L177 540 L177 0 L57 0 L57 540 Z M-55 706 Q-55 735 -35 755 Q-15 775 13 775 Q42 775 62 755 Q82 735 82 706 Q82 677 62 657 Q42 637 13 637 Q-15 637 -35 657 Q-55 677 -55 706 Z M147 706 Q147 735 167 755 Q187 775 216 775 Q243 775 264 755 Q285 735 285 706 Q285 677 264 657 Q243 637 216 637 Q187 637 167 657 Q147 677 147 706 Z " />
<glyph glyph-name="Igravesmall" unicode="&#xf7ec;" horiz-adv-x="221" d="M57 540 L177 540 L177 0 L57 0 L57 540 Z M170 655 L64 655 L1 774 L120 774 L170 655 Z " />
<glyph glyph-name="Lslashsmall" unicode="&#xf6f9;" horiz-adv-x="400" d="M55 316 L55 540 L173 540 L173 383 L245 426 L303 323 L173 248 L173 121 L381 121 L381 0 L55 0 L55 182 L25 165 L-32 267 L55 316 Z " />
<glyph glyph-name="Ntildesmall" unicode="&#xf7f1;" horiz-adv-x="426" d="M383 0 L255 0 L162 297 L176 223 L176 0 L55 0 L55 540 L186 540 L276 241 L264 315 L264 540 L383 540 L383 0 Z M149 772 Q166 772 181 766 Q196 760 210.5 752.5 Q225 745 240 739 Q255 733 272 733 Q280 733 290 741 Q300 749 311 772 L401 772 Q396 698 366.5 658.5 Q337 619 292 619 Q277 619 260.5 625.5 Q244 632 228 640 Q212 648 197 654.5 Q182 661 169 661 Q160 661 152 652 Q144 643 134 619 L40 619 Q45 690 75 731 Q105 772 149 772 Z " />
<glyph glyph-name="Oslashsmall" unicode="&#xf7f8;" horiz-adv-x="450" d="M167 0 Q159 0 146 2.5 Q133 5 121 10 Q110 -5 101 -20.5 Q92 -36 82 -51 L-39 -51 L72 109 L72 447 Q72 466 79.5 483 Q87 500 100 512.5 Q113 525 130 532.5 Q147 540 167 540 L306 540 Q317 540 329.5 536.5 Q342 533 359 523 L389 567 L509 567 L399 409 L399 93 Q399 73 391.5 56.5 Q384 40 371 27 Q358 14 341.5 7 Q325 0 306 0 L167 0 Z M214 438 Q204 438 198 431 Q192 424 192 415 L192 124 Q192 117 198.5 110 Q205 103 214 103 L257 103 Q267 103 273 109.5 Q279 116 279 125 L279 416 Q279 424 272.5 431 Q266 438 248 438 L214 438 Z " />
<glyph glyph-name="Otildesmall" unicode="&#xf7f5;" horiz-adv-x="406" d="M139 0 Q100 0 72.5 27 Q45 54 45 93 L45 447 Q45 466 52.5 483 Q60 500 72.5 512.5 Q85 525 102 532.5 Q119 540 139 540 L277 540 Q296 540 313.5 532.5 Q331 525 344 512.5 Q357 500 364.5 483 Q372 466 372 447 L372 93 Q372 73 364.5 56.5 Q357 40 344 27 Q331 14 313.5 7 Q296 0 277 0 L139 0 Z M188 438 Q178 438 172 431 Q166 424 166 415 L166 124 Q166 117 172.5 110 Q179 103 188 103 L229 103 Q239 103 245.5 109.5 Q252 116 252 125 L252 416 Q252 424 246 431 Q240 438 222 438 L188 438 Z M140 772 Q157 772 172 766 Q187 760 201.5 752.5 Q216 745 231 739 Q246 733 263 733 Q271 733 281 741 Q291 749 302 772 L392 772 Q387 698 357.5 658.5 Q328 619 283 619 Q268 619 251.5 625.5 Q235 632 219 640 Q203 648 188 654.5 Q173 661 160 661 Q151 661 143 652 Q135 643 125 619 L31 619 Q36 690 66 731 Q96 772 140 772 Z " />
<glyph glyph-name="Ogravesmall" unicode="&#xf7f2;" horiz-adv-x="406" d="M139 0 Q100 0 72.5 27 Q45 54 45 93 L45 447 Q45 466 52.5 483 Q60 500 72.5 512.5 Q85 525 102 532.5 Q119 540 139 540 L277 540 Q296 540 313.5 532.5 Q331 525 344 512.5 Q357 500 364.5 483 Q372 466 372 447 L372 93 Q372 73 364.5 56.5 Q357 40 344 27 Q331 14 313.5 7 Q296 0 277 0 L139 0 Z M188 438 Q178 438 172 431 Q166 424 166 415 L166 124 Q166 117 172.5 110 Q179 103 188 103 L229 103 Q239 103 245.5 109.5 Q252 116 252 125 L252 416 Q252 424 246 431 Q240 438 222 438 L188 438 Z M247 655 L141 655 L78 774 L197 774 L247 655 Z " />
<glyph glyph-name="Odieresissmall" unicode="&#xf7f6;" horiz-adv-x="406" d="M139 0 Q100 0 72.5 27 Q45 54 45 93 L45 447 Q45 466 52.5 483 Q60 500 72.5 512.5 Q85 525 102 532.5 Q119 540 139 540 L277 540 Q296 540 313.5 532.5 Q331 525 344 512.5 Q357 500 364.5 483 Q372 466 372 447 L372 93 Q372 73 364.5 56.5 Q357 40 344 27 Q331 14 313.5 7 Q296 0 277 0 L139 0 Z M188 438 Q178 438 172 431 Q166 424 166 415 L166 124 Q166 117 172.5 110 Q179 103 188 103 L229 103 Q239 103 245.5 109.5 Q252 116 252 125 L252 416 Q252 424 246 431 Q240 438 222 438 L188 438 Z M38 706 Q38 735 58 755 Q78 775 106 775 Q135 775 155 755 Q175 735 175 706 Q175 677 155 657 Q135 637 106 637 Q78 637 58 657 Q38 677 38 706 Z M240 706 Q240 735 260 755 Q280 775 309 775 Q336 775 357 755 Q378 735 378 706 Q378 677 357 657 Q336 637 309 637 Q280 637 260 657 Q240 677 240 706 Z " />
<glyph glyph-name="Ocircumflexsmall" unicode="&#xf7f4;" horiz-adv-x="406" d="M277 0 Q296 0 313.5 7 Q331 14 344 27 Q357 40 364.5 56.5 Q372 73 372 93 L372 447 Q372 466 364.5 483 Q357 500 344 512.5 Q331 525 313.5 532.5 Q296 540 277 540 L139 540 Q119 540 102 532.5 Q85 525 72.5 512.5 Q60 500 52.5 483 Q45 466 45 447 L45 93 Q45 54 72.5 27 Q100 0 139 0 L277 0 Z M222 438 Q240 438 246 431 Q252 424 252 416 L252 125 Q252 116 245.5 109.5 Q239 103 229 103 L188 103 Q179 103 172.5 110 Q166 117 166 124 L166 415 Q166 424 172 431 Q178 438 188 438 L222 438 Z M151 775 L256 775 L365 609 L243 609 L204 666 L165 609 L41 609 L151 775 Z " />
<glyph glyph-name="Oacutesmall" unicode="&#xf7f3;" horiz-adv-x="406" d="M139 0 Q100 0 72.5 27 Q45 54 45 93 L45 447 Q45 466 52.5 483 Q60 500 72.5 512.5 Q85 525 102 532.5 Q119 540 139 540 L277 540 Q296 540 313.5 532.5 Q331 525 344 512.5 Q357 500 364.5 483 Q372 466 372 447 L372 93 Q372 73 364.5 56.5 Q357 40 344 27 Q331 14 313.5 7 Q296 0 277 0 L139 0 Z M188 438 Q178 438 172 431 Q166 424 166 415 L166 124 Q166 117 172.5 110 Q179 103 188 103 L229 103 Q239 103 245.5 109.5 Q252 116 252 125 L252 416 Q252 424 246 431 Q240 438 222 438 L188 438 Z M206 772 L324 772 L261 653 L152 653 L206 772 Z " />
<glyph glyph-name="OEsmall" unicode="&#xf6fa;" horiz-adv-x="607" d="M140 0 Q121 0 104 7 Q87 14 74 27 Q61 40 53.5 56.5 Q46 73 46 93 L46 447 Q46 466 53.5 483 Q61 500 74 512.5 Q87 525 104 532.5 Q121 540 140 540 L583 540 L583 421 L375 421 L375 327 L552 327 L552 207 L375 207 L375 120 L583 120 L583 0 L140 0 Z M189 438 Q180 438 173.5 431 Q167 424 167 415 L167 124 Q167 117 174 110 Q181 103 189 103 L230 103 Q240 103 246.5 109.5 Q253 116 253 125 L253 416 Q253 424 247 431 Q241 438 224 438 L189 438 Z " />
<glyph glyph-name="Scaronsmall" unicode="&#xf6fd;" horiz-adv-x="389" d="M167 395 Q167 368 182.5 353.5 Q198 339 220.5 329 Q243 319 270 309.5 Q297 300 319.5 285 Q342 270 357.5 245 Q373 220 373 179 L373 93 Q373 73 365.5 56.5 Q358 40 345 27 Q332 14 314.5 7 Q297 0 278 0 L140 0 Q101 0 73.5 27 Q46 54 46 93 L46 190 L167 190 L167 124 Q167 117 173.5 110 Q180 103 189 103 L230 103 Q240 103 246.5 109.5 Q253 116 253 125 L253 159 Q253 182 237.5 196.5 Q222 211 199.5 222 Q177 233 150 243 Q123 253 100.5 266.5 Q78 280 62.5 299 Q47 318 47 347 L47 448 Q47 467 54.5 484 Q62 501 74.5 513.5 Q87 526 104 533 Q121 540 141 540 L278 540 Q297 540 314.5 531 Q332 522 345 507.5 Q358 493 365.5 474.5 Q373 456 373 437 L373 375 L253 375 L253 418 Q253 425 246.5 432.5 Q240 440 223 440 L189 440 Q179 440 173 432.5 Q167 425 167 416 L167 395 Z M32 774 L156 774 L197 715 L234 774 L355 774 L247 608 L142 608 L32 774 Z " />
<glyph glyph-name="Ugravesmall" unicode="&#xf7f9;" horiz-adv-x="418" d="M172 540 L172 124 Q172 117 178 110 Q184 103 193 103 L235 103 Q245 103 251.5 109.5 Q258 116 258 125 L258 540 L378 540 L378 93 Q378 73 370.5 56.5 Q363 40 350 27 Q337 14 319.5 7 Q302 0 283 0 L145 0 Q106 0 78.5 27 Q51 54 51 93 L51 540 L172 540 Z M269 655 L163 655 L100 774 L219 774 L269 655 Z " />
<glyph glyph-name="Uacutesmall" unicode="&#xf7fa;" horiz-adv-x="418" d="M172 540 L172 124 Q172 117 178 110 Q184 103 193 103 L235 103 Q245 103 251.5 109.5 Q258 116 258 125 L258 540 L378 540 L378 93 Q378 73 370.5 56.5 Q363 40 350 27 Q337 14 319.5 7 Q302 0 283 0 L145 0 Q106 0 78.5 27 Q51 54 51 93 L51 540 L172 540 Z M215 772 L333 772 L270 653 L161 653 L215 772 Z " />
<glyph glyph-name="Ucircumflexsmall" unicode="&#xf7fb;" horiz-adv-x="418" d="M51 540 L51 93 Q51 54 78.5 27 Q106 0 145 0 L283 0 Q302 0 319.5 7 Q337 14 350 27 Q363 40 370.5 56.5 Q378 73 378 93 L378 540 L258 540 L258 125 Q258 116 251.5 109.5 Q245 103 235 103 L193 103 Q184 103 178 110 Q172 117 172 124 L172 540 L51 540 Z M157 775 L262 775 L371 609 L249 609 L210 666 L171 609 L47 609 L157 775 Z " />
<glyph glyph-name="Udieresissmall" unicode="&#xf7fc;" horiz-adv-x="418" d="M172 540 L172 124 Q172 117 178 110 Q184 103 193 103 L235 103 Q245 103 251.5 109.5 Q258 116 258 125 L258 540 L378 540 L378 93 Q378 73 370.5 56.5 Q363 40 350 27 Q337 14 319.5 7 Q302 0 283 0 L145 0 Q106 0 78.5 27 Q51 54 51 93 L51 540 L172 540 Z M44 706 Q44 735 64 755 Q84 775 112 775 Q141 775 161 755 Q181 735 181 706 Q181 677 161 657 Q141 637 112 637 Q84 637 64 657 Q44 677 44 706 Z M246 706 Q246 735 266 755 Q286 775 315 775 Q342 775 363 755 Q384 735 384 706 Q384 677 363 657 Q342 637 315 637 Q286 637 266 657 Q246 677 246 706 Z " />
<glyph glyph-name="Yacutesmall" unicode="&#xf7fd;" horiz-adv-x="421" d="M160 163 Q128 256 93.5 352.5 Q59 449 27 540 L156 540 L214 385 L219 302 L222 384 L284 540 L409 540 L279 170 L279 0 L160 0 L160 163 Z M206 772 L324 772 L261 653 L152 653 L206 772 Z " />
<glyph glyph-name="Ydieresissmall" unicode="&#xf7ff;" horiz-adv-x="421" d="M160 163 Q128 256 93.5 352.5 Q59 449 27 540 L156 540 L214 385 L219 302 L222 384 L284 540 L409 540 L279 170 L279 0 L160 0 L160 163 Z M45 706 Q45 735 65 755 Q85 775 113 775 Q142 775 162 755 Q182 735 182 706 Q182 677 162 657 Q142 637 113 637 Q85 637 65 657 Q45 677 45 706 Z M247 706 Q247 735 267 755 Q287 775 316 775 Q343 775 364 755 Q385 735 385 706 Q385 677 364 657 Q343 637 316 637 Q287 637 267 657 Q247 677 247 706 Z " />
<glyph glyph-name="Zcaronsmall" unicode="&#xf6ff;" horiz-adv-x="386" d="M170 120 L362 120 L362 0 L36 0 L36 106 Q36 114 37 122 Q38 130 41 135 L229 421 L35 421 L35 541 L361 541 L361 435 Q360 426 360 418.5 Q360 411 355 403 L170 120 Z M31 774 L155 774 L196 715 L233 774 L354 774 L246 608 L141 608 L31 774 Z " />
<glyph glyph-name="uni2215" unicode="&#x2215;" horiz-adv-x="483" d="M540 821 L116 0 L-1 0 L418 821 L540 821 Z " />
<glyph glyph-name="summation" unicode="&#x2211;" horiz-adv-x="416" d="M373 -13 L373 -113 L56 -113 L56 -14 L247 306 L56 539 L56 647 L373 647 L373 543 L184 543 L371 310 L183 -13 L373 -13 Z " />
<glyph glyph-name="product" unicode="&#x220f;" horiz-adv-x="418" d="M52 0 L52 749 L379 749 L379 0 L260 0 L260 648 L172 648 L172 0 L52 0 Z " />
<glyph glyph-name="uni2206" unicode="&#x2206;" horiz-adv-x="422" d="M439 0 L-11 0 L159 749 L271 749 L439 0 Z M223 418 L215 552 L206 418 L140 101 L288 101 L223 418 Z " />
<glyph glyph-name="trademark" unicode="&#x2122;" horiz-adv-x="885" d="M35 655 L140 655 L140 234 L258 234 L258 655 L361 655 L361 774 L35 774 L35 655 Z M618 439 L630 547 L699 775 L830 775 L830 235 L710 235 L710 453 L724 532 L650 235 L586 235 L512 532 L527 453 L527 235 L408 235 L408 775 L538 775 L608 547 L618 439 Z " />
<glyph glyph-name="ff" unicode="&#xfb00;" horiz-adv-x="584" d="M363 420 L164 420 L164 0 L46 0 L46 668 Q46 718 71 746 Q96 774 141 774 L275 774 L275 655 L164 655 L164 540 L363 540 L363 668 Q363 718 388.5 746 Q414 774 458 774 L592 774 L592 655 L484 655 L484 540 L563 540 L563 420 L484 420 L484 0 L363 0 L363 420 Z " />
<glyph glyph-name="aacute" unicode="&#xe1;" horiz-adv-x="416" d="M166 124 Q166 117 172 110 Q178 103 188 103 L225 103 Q235 103 243.5 108 Q252 113 252 125 L252 419 Q252 432 243.5 434 Q235 436 225 436 L182 436 Q174 436 170 429 Q166 422 166 415 L166 124 Z M225 540 Q233 540 244 535.5 Q255 531 263 523 Q269 532 278 536 Q287 540 298 540 L372 540 L372 0 L279 0 L263 18 Q246 0 223 0 L139 0 Q100 0 72.5 27 Q45 54 45 93 L45 447 Q45 466 52.5 483 Q60 500 72.5 512.5 Q85 525 102 532.5 Q119 540 139 540 L225 540 Z M208 775 L326 775 L263 656 L154 656 L208 775 Z " />
<glyph glyph-name="abreve" unicode="&#x103;" horiz-adv-x="416" d="M166 124 Q166 117 172 110 Q178 103 188 103 L225 103 Q235 103 243.5 108 Q252 113 252 125 L252 419 Q252 432 243.5 434 Q235 436 225 436 L182 436 Q174 436 170 429 Q166 422 166 415 L166 124 Z M225 540 Q233 540 244 535.5 Q255 531 263 523 Q269 532 278 536 Q287 540 298 540 L372 540 L372 0 L279 0 L263 18 Q246 0 223 0 L139 0 Q100 0 72.5 27 Q45 54 45 93 L45 447 Q45 466 52.5 483 Q60 500 72.5 512.5 Q85 525 102 532.5 Q119 540 139 540 L225 540 Z M140 639 Q121 639 103.5 646.5 Q86 654 73 666.5 Q60 679 52.5 696 Q45 713 45 732 L45 774 L162 774 Q162 760 171 749.5 Q180 739 194 739 L230 739 Q244 739 253.5 749.5 Q263 760 263 774 L380 774 L380 732 Q380 713 372 696 Q364 679 351 666.5 Q338 654 320.5 646.5 Q303 639 284 639 L140 639 Z " />
<glyph glyph-name="acircumflex" unicode="&#xe2;" horiz-adv-x="416" d="M166 415 Q166 422 170 429 Q174 436 182 436 L225 436 Q235 436 243.5 434 Q252 432 252 419 L252 125 Q252 113 243.5 108 Q235 103 225 103 L188 103 Q178 103 172 110 Q166 117 166 124 L166 415 Z M139 540 Q119 540 102 532.5 Q85 525 72.5 512.5 Q60 500 52.5 483 Q45 466 45 447 L45 93 Q45 54 72.5 27 Q100 0 139 0 L223 0 Q246 0 263 18 L279 0 L372 0 L372 540 L298 540 Q287 540 278 536 Q269 532 263 523 Q255 531 244 535.5 Q233 540 225 540 L139 540 Z M155 773 L260 773 L369 607 L247 607 L208 664 L169 607 L45 607 L155 773 Z " />
<glyph glyph-name="adieresis" unicode="&#xe4;" horiz-adv-x="416" d="M166 124 Q166 117 172 110 Q178 103 188 103 L225 103 Q235 103 243.5 108 Q252 113 252 125 L252 419 Q252 432 243.5 434 Q235 436 225 436 L182 436 Q174 436 170 429 Q166 422 166 415 L166 124 Z M225 540 Q233 540 244 535.5 Q255 531 263 523 Q269 532 278 536 Q287 540 298 540 L372 540 L372 0 L279 0 L263 18 Q246 0 223 0 L139 0 Q100 0 72.5 27 Q45 54 45 93 L45 447 Q45 466 52.5 483 Q60 500 72.5 512.5 Q85 525 102 532.5 Q119 540 139 540 L225 540 Z M42 716 Q42 745 62 765 Q82 785 110 785 Q139 785 159 765 Q179 745 179 716 Q179 687 159 667 Q139 647 110 647 Q82 647 62 667 Q42 687 42 716 Z M244 716 Q244 745 264 765 Q284 785 313 785 Q340 785 361 765 Q382 745 382 716 Q382 687 361 667 Q340 647 313 647 Q284 647 264 667 Q244 687 244 716 Z " />
<glyph glyph-name="agrave" unicode="&#xe0;" horiz-adv-x="416" d="M166 124 Q166 117 172 110 Q178 103 188 103 L225 103 Q235 103 243.5 108 Q252 113 252 125 L252 419 Q252 432 243.5 434 Q235 436 225 436 L182 436 Q174 436 170 429 Q166 422 166 415 L166 124 Z M225 540 Q233 540 244 535.5 Q255 531 263 523 Q269 532 278 536 Q287 540 298 540 L372 540 L372 0 L279 0 L263 18 Q246 0 223 0 L139 0 Q100 0 72.5 27 Q45 54 45 93 L45 447 Q45 466 52.5 483 Q60 500 72.5 512.5 Q85 525 102 532.5 Q119 540 139 540 L225 540 Z M266 653 L160 653 L97 772 L216 772 L266 653 Z " />
<glyph glyph-name="amacron" unicode="&#x101;" horiz-adv-x="416" d="M166 124 Q166 117 172 110 Q178 103 188 103 L225 103 Q235 103 243.5 108 Q252 113 252 125 L252 419 Q252 432 243.5 434 Q235 436 225 436 L182 436 Q174 436 170 429 Q166 422 166 415 L166 124 Z M225 540 Q233 540 244 535.5 Q255 531 263 523 Q269 532 278 536 Q287 540 298 540 L372 540 L372 0 L279 0 L263 18 Q246 0 223 0 L139 0 Q100 0 72.5 27 Q45 54 45 93 L45 447 Q45 466 52.5 483 Q60 500 72.5 512.5 Q85 525 102 532.5 Q119 540 139 540 L225 540 Z M55 773 L359 773 L359 667 L55 667 L55 773 Z " />
<glyph glyph-name="aogonek" unicode="&#x105;" horiz-adv-x="416" d="M166 124 Q166 117 172 110 Q178 103 188 103 L225 103 Q235 103 243.5 108 Q252 113 252 125 L252 419 Q252 432 243.5 434 Q235 436 225 436 L182 436 Q174 436 170 429 Q166 422 166 415 L166 124 Z M225 540 Q233 540 244 535.5 Q255 531 263 523 Q269 532 278 536 Q287 540 298 540 L372 540 L372 0 L279 0 L263 18 Q246 0 223 0 L139 0 Q100 0 72.5 27 Q45 54 45 93 L45 447 Q45 466 52.5 483 Q60 500 72.5 512.5 Q85 525 102 532.5 Q119 540 139 540 L225 540 Z M400 -220 Q371 -238 338 -238 Q317 -238 296 -231.5 Q275 -225 258.5 -212.5 Q242 -200 231.5 -181.5 Q221 -163 221 -139 Q221 -123 226.5 -103.5 Q232 -84 241 -65 Q250 -46 262.5 -29 Q275 -12 289 0 L343 0 Q326 -31 316.5 -54.5 Q307 -78 307 -93 Q307 -110 322 -121.5 Q337 -133 371 -134 L400 -220 Z " />
<glyph glyph-name="aring" unicode="&#xe5;" horiz-adv-x="416" d="M166 124 Q166 117 172 110 Q178 103 188 103 L225 103 Q235 103 243.5 108 Q252 113 252 125 L252 419 Q252 432 243.5 434 Q235 436 225 436 L182 436 Q174 436 170 429 Q166 422 166 415 L166 124 Z M225 540 Q233 540 244 535.5 Q255 531 263 523 Q269 532 278 536 Q287 540 298 540 L372 540 L372 0 L279 0 L263 18 Q246 0 223 0 L139 0 Q100 0 72.5 27 Q45 54 45 93 L45 447 Q45 466 52.5 483 Q60 500 72.5 512.5 Q85 525 102 532.5 Q119 540 139 540 L225 540 Z M195 698 Q190 698 187.5 694.5 Q185 691 185 689 L185 679 Q185 675 188.5 672.5 Q192 670 195 670 L227 670 Q232 670 234.5 673.5 Q237 677 237 679 L237 689 Q237 693 233.5 695.5 Q230 698 227 698 L195 698 Z M164 592 Q152 592 141 597 Q130 602 121.5 610.5 Q113 619 107.5 630 Q102 641 102 653 L102 715 Q102 740 121.5 758 Q141 776 164 776 L258 776 Q282 776 301 758 Q320 740 320 715 L320 653 Q320 630 301 611 Q282 592 258 592 L164 592 Z " />
<glyph glyph-name="atilde" unicode="&#xe3;" horiz-adv-x="416" d="M166 124 Q166 117 172 110 Q178 103 188 103 L225 103 Q235 103 243.5 108 Q252 113 252 125 L252 419 Q252 432 243.5 434 Q235 436 225 436 L182 436 Q174 436 170 429 Q166 422 166 415 L166 124 Z M225 540 Q233 540 244 535.5 Q255 531 263 523 Q269 532 278 536 Q287 540 298 540 L372 540 L372 0 L279 0 L263 18 Q246 0 223 0 L139 0 Q100 0 72.5 27 Q45 54 45 93 L45 447 Q45 466 52.5 483 Q60 500 72.5 512.5 Q85 525 102 532.5 Q119 540 139 540 L225 540 Z M144 772 Q161 772 176 766 Q191 760 205.5 752.5 Q220 745 235 739 Q250 733 267 733 Q275 733 285 741 Q295 749 306 772 L396 772 Q391 698 361.5 658.5 Q332 619 287 619 Q272 619 255.5 625.5 Q239 632 223 640 Q207 648 192 654.5 Q177 661 164 661 Q155 661 147 652 Q139 643 129 619 L35 619 Q40 690 70 731 Q100 772 144 772 Z " />
<glyph glyph-name="aeacute" unicode="&#x1fd;" horiz-adv-x="607" d="M138 0 Q119 0 102 7 Q85 14 72 27 Q59 40 51.5 56.5 Q44 73 44 93 L44 447 Q44 466 51.5 483 Q59 500 72 512.5 Q85 525 102 532.5 Q119 540 138 540 L218 540 Q238 540 251.5 532.5 Q265 525 273 516 Q288 527 306 533.5 Q324 540 342 540 L483 540 Q503 540 520.5 532.5 Q538 525 551 512.5 Q564 500 571.5 483 Q579 466 579 447 L579 242 L370 242 L370 124 Q375 105 387 103 L436 103 Q444 103 450.5 109.5 Q457 116 457 125 L457 162 L579 162 L579 93 Q579 73 571.5 56.5 Q564 40 551 27 Q538 14 520.5 7 Q503 0 483 0 L345 0 Q342 0 334.5 0.5 Q327 1 317 3 Q307 5 295.5 10.5 Q284 16 272 25 Q263 14 253.5 7 Q244 0 226 0 L138 0 Z M164 124 Q164 117 170.5 110 Q177 103 185 103 L224 103 Q234 103 242 108 Q250 113 250 125 L250 419 Q250 432 242 434 Q234 436 224 436 L181 436 Q173 436 168.5 429 Q164 422 164 415 L164 124 Z M388 436 Q380 436 375.5 430.5 Q371 425 370 420 L370 341 L457 341 L457 415 Q457 422 452.5 429 Q448 436 440 436 L388 436 Z M308 772 L426 772 L363 653 L254 653 L308 772 Z " />
<glyph glyph-name="cacute" unicode="&#x107;" horiz-adv-x="399" d="M371 162 L371 93 Q371 73 363.5 56.5 Q356 40 343 27 Q330 14 312.5 7 Q295 0 276 0 L138 0 Q119 0 102 7 Q85 14 72 27 Q59 40 51.5 56.5 Q44 73 44 93 L44 447 Q44 466 51.5 483 Q59 500 72 512.5 Q85 525 102 532.5 Q119 540 138 540 L276 540 Q295 540 312.5 532.5 Q330 525 343 512.5 Q356 500 363.5 483 Q371 466 371 447 L371 375 L251 375 L251 415 Q251 422 247 429 Q243 436 232 436 L181 436 Q173 436 169 429 Q165 422 165 415 L165 125 Q165 117 170 110.5 Q175 104 183 103 L228 103 Q238 103 244.5 109.5 Q251 116 251 125 L251 162 L371 162 Z M202 772 L320 772 L257 653 L148 653 L202 772 Z " />
<glyph glyph-name="ccaron" unicode="&#x10d;" horiz-adv-x="399" d="M371 162 L371 93 Q371 73 363.5 56.5 Q356 40 343 27 Q330 14 312.5 7 Q295 0 276 0 L138 0 Q119 0 102 7 Q85 14 72 27 Q59 40 51.5 56.5 Q44 73 44 93 L44 447 Q44 466 51.5 483 Q59 500 72 512.5 Q85 525 102 532.5 Q119 540 138 540 L276 540 Q295 540 312.5 532.5 Q330 525 343 512.5 Q356 500 363.5 483 Q371 466 371 447 L371 375 L251 375 L251 415 Q251 422 247 429 Q243 436 232 436 L181 436 Q173 436 169 429 Q165 422 165 415 L165 125 Q165 117 170 110.5 Q175 104 183 103 L228 103 Q238 103 244.5 109.5 Q251 116 251 125 L251 162 L371 162 Z M37 774 L161 774 L202 715 L239 774 L360 774 L252 608 L147 608 L37 774 Z " />
<glyph glyph-name="ccedilla" unicode="&#xe7;" horiz-adv-x="399" d="M371 162 L371 93 Q371 73 363.5 56.5 Q356 40 343 27 Q330 14 312.5 7 Q295 0 276 0 L138 0 Q119 0 102 7 Q85 14 72 27 Q59 40 51.5 56.5 Q44 73 44 93 L44 447 Q44 466 51.5 483 Q59 500 72 512.5 Q85 525 102 532.5 Q119 540 138 540 L276 540 Q295 540 312.5 532.5 Q330 525 343 512.5 Q356 500 363.5 483 Q371 466 371 447 L371 375 L251 375 L251 415 Q251 422 247 429 Q243 436 232 436 L181 436 Q173 436 169 429 Q165 422 165 415 L165 125 Q165 117 170 110.5 Q175 104 183 103 L228 103 Q238 103 244.5 109.5 Q251 116 251 125 L251 162 L371 162 Z M147 -134 Q181 -133 196 -121.5 Q211 -110 211 -93 Q211 -62 175 0 L229 0 Q243 -13 255.5 -30 Q268 -47 277 -66 Q286 -85 291.5 -104 Q297 -123 297 -139 Q297 -158 290.5 -175.5 Q284 -193 270.5 -206 Q257 -219 235 -227 Q213 -235 183 -235 Q174 -235 159 -233.5 Q144 -232 115 -226 L147 -134 Z " />
<glyph glyph-name="ccircumflex" unicode="&#x109;" horiz-adv-x="399" d="M251 162 L251 125 Q251 116 244.5 109.5 Q238 103 228 103 L183 103 Q175 104 170 110.5 Q165 117 165 125 L165 415 Q165 422 169 429 Q173 436 181 436 L232 436 Q243 436 247 429 Q251 422 251 415 L251 375 L371 375 L371 447 Q371 466 363.5 483 Q356 500 343 512.5 Q330 525 312.5 532.5 Q295 540 276 540 L138 540 Q119 540 102 532.5 Q85 525 72 512.5 Q59 500 51.5 483 Q44 466 44 447 L44 93 Q44 73 51.5 56.5 Q59 40 72 27 Q85 14 102 7 Q119 0 138 0 L276 0 Q295 0 312.5 7 Q330 14 343 27 Q356 40 363.5 56.5 Q371 73 371 93 L371 162 L251 162 Z M147 775 L252 775 L361 609 L239 609 L200 666 L161 609 L37 609 L147 775 Z " />
<glyph glyph-name="cdotaccent" unicode="&#x10b;" horiz-adv-x="399" d="M371 162 L371 93 Q371 73 363.5 56.5 Q356 40 343 27 Q330 14 312.5 7 Q295 0 276 0 L138 0 Q119 0 102 7 Q85 14 72 27 Q59 40 51.5 56.5 Q44 73 44 93 L44 447 Q44 466 51.5 483 Q59 500 72 512.5 Q85 525 102 532.5 Q119 540 138 540 L276 540 Q295 540 312.5 532.5 Q330 525 343 512.5 Q356 500 363.5 483 Q371 466 371 447 L371 375 L251 375 L251 415 Q251 422 247 429 Q243 436 232 436 L181 436 Q173 436 169 429 Q165 422 165 415 L165 125 Q165 117 170 110.5 Q175 104 183 103 L228 103 Q238 103 244.5 109.5 Q251 116 251 125 L251 162 L371 162 Z M132 716 Q132 730 137.5 742.5 Q143 755 152.5 764.5 Q162 774 174.5 779.5 Q187 785 200 785 Q230 785 249.5 765 Q269 745 269 716 Q269 687 249.5 667 Q230 647 200 647 Q174 647 153 667 Q132 687 132 716 Z " />
<glyph glyph-name="dcaron" unicode="&#x10f;" horiz-adv-x="531" d="M373 774 L373 0 L282 0 L266 20 Q258 11 248.5 5.5 Q239 0 226 0 L140 0 Q101 0 73.5 27 Q46 54 46 93 L46 447 Q46 466 53.5 483 Q61 500 73.5 512.5 Q86 525 103 532.5 Q120 540 140 540 L216 540 Q221 540 232 535.5 Q243 531 254 516 L254 774 L373 774 Z M168 124 Q168 117 173.5 110 Q179 103 188 103 L227 103 Q237 103 245.5 107 Q254 111 254 124 L254 419 Q254 432 245.5 434 Q237 436 227 436 L185 436 Q176 436 172 429 Q168 422 168 415 L168 124 Z M424 774 L544 774 L544 673 Q544 635 542 607.5 Q540 580 529 562.5 Q518 545 493.5 536.5 Q469 528 424 528 L424 596 Q459 596 468 610.5 Q477 625 478 655 L424 655 L424 774 Z " />
<glyph glyph-name="dcroat" unicode="&#x111;" horiz-adv-x="428" d="M184 680 L254 680 L254 774 L373 774 L373 680 L415 680 L415 576 L373 576 L373 0 L282 0 L267 20 Q258 11 248.5 5.5 Q239 0 227 0 L140 0 Q121 0 104 7 Q87 14 74.5 27 Q62 40 54.5 56.5 Q47 73 47 93 L47 447 Q47 466 54.5 483 Q62 500 74.5 512.5 Q87 525 104 532.5 Q121 540 140 540 L216 540 Q222 540 232.5 535.5 Q243 531 254 516 L254 576 L184 576 L184 680 Z M168 124 Q168 117 174 110 Q180 103 188 103 L228 103 Q237 103 245.5 107 Q254 111 254 124 L254 419 Q254 432 245.5 434 Q237 436 228 436 L185 436 Q177 436 172.5 429 Q168 422 168 415 L168 124 Z " />
<glyph glyph-name="eacute" unicode="&#xe9;" horiz-adv-x="403" d="M372 162 L372 93 Q372 73 364.5 56.5 Q357 40 344 27 Q331 14 313.5 7 Q296 0 277 0 L139 0 Q100 0 72.5 27 Q45 54 45 93 L45 447 Q45 466 52.5 483 Q60 500 72.5 512.5 Q85 525 102 532.5 Q119 540 139 540 L277 540 Q296 540 313.5 532.5 Q331 525 344 512.5 Q357 500 364.5 483 Q372 466 372 447 L372 242 L166 242 L166 125 Q166 117 171 110.5 Q176 104 184 103 L229 103 Q239 103 245.5 109.5 Q252 116 252 125 L252 162 L372 162 Z M166 341 L252 341 L252 415 Q252 422 248 429 Q244 436 233 436 L182 436 Q174 436 170 429 Q166 422 166 415 L166 341 Z M199 772 L317 772 L254 653 L145 653 L199 772 Z " />
<glyph glyph-name="ebreve" unicode="&#x115;" horiz-adv-x="403" d="M372 162 L372 93 Q372 73 364.5 56.5 Q357 40 344 27 Q331 14 313.5 7 Q296 0 277 0 L139 0 Q100 0 72.5 27 Q45 54 45 93 L45 447 Q45 466 52.5 483 Q60 500 72.5 512.5 Q85 525 102 532.5 Q119 540 139 540 L277 540 Q296 540 313.5 532.5 Q331 525 344 512.5 Q357 500 364.5 483 Q372 466 372 447 L372 242 L166 242 L166 125 Q166 117 171 110.5 Q176 104 184 103 L229 103 Q239 103 245.5 109.5 Q252 116 252 125 L252 162 L372 162 Z M166 341 L252 341 L252 415 Q252 422 248 429 Q244 436 233 436 L182 436 Q174 436 170 429 Q166 422 166 415 L166 341 Z M134 639 Q115 639 97.5 646.5 Q80 654 67 666.5 Q54 679 46.5 696 Q39 713 39 732 L39 774 L156 774 Q156 760 165 749.5 Q174 739 188 739 L224 739 Q238 739 247.5 749.5 Q257 760 257 774 L374 774 L374 732 Q374 713 366 696 Q358 679 345 666.5 Q332 654 314.5 646.5 Q297 639 278 639 L134 639 Z " />
<glyph glyph-name="ecaron" unicode="&#x11b;" horiz-adv-x="403" d="M372 162 L372 93 Q372 73 364.5 56.5 Q357 40 344 27 Q331 14 313.5 7 Q296 0 277 0 L139 0 Q100 0 72.5 27 Q45 54 45 93 L45 447 Q45 466 52.5 483 Q60 500 72.5 512.5 Q85 525 102 532.5 Q119 540 139 540 L277 540 Q296 540 313.5 532.5 Q331 525 344 512.5 Q357 500 364.5 483 Q372 466 372 447 L372 242 L166 242 L166 125 Q166 117 171 110.5 Q176 104 184 103 L229 103 Q239 103 245.5 109.5 Q252 116 252 125 L252 162 L372 162 Z M166 341 L252 341 L252 415 Q252 422 248 429 Q244 436 233 436 L182 436 Q174 436 170 429 Q166 422 166 415 L166 341 Z M50 772 L174 772 L215 713 L252 772 L373 772 L265 606 L160 606 L50 772 Z " />
<glyph glyph-name="ecircumflex" unicode="&#xea;" horiz-adv-x="403" d="M252 162 L252 125 Q252 116 245.5 109.5 Q239 103 229 103 L184 103 Q176 104 171 110.5 Q166 117 166 125 L166 242 L372 242 L372 447 Q372 466 364.5 483 Q357 500 344 512.5 Q331 525 313.5 532.5 Q296 540 277 540 L139 540 Q119 540 102 532.5 Q85 525 72.5 512.5 Q60 500 52.5 483 Q45 466 45 447 L45 93 Q45 54 72.5 27 Q100 0 139 0 L277 0 Q296 0 313.5 7 Q331 14 344 27 Q357 40 364.5 56.5 Q372 73 372 93 L372 162 L252 162 Z M166 415 Q166 422 170 429 Q174 436 182 436 L233 436 Q244 436 248 429 Q252 422 252 415 L252 341 L166 341 L166 415 Z M149 773 L254 773 L363 607 L241 607 L202 664 L163 607 L39 607 L149 773 Z " />
<glyph glyph-name="edieresis" unicode="&#xeb;" horiz-adv-x="403" d="M372 162 L372 93 Q372 73 364.5 56.5 Q357 40 344 27 Q331 14 313.5 7 Q296 0 277 0 L139 0 Q100 0 72.5 27 Q45 54 45 93 L45 447 Q45 466 52.5 483 Q60 500 72.5 512.5 Q85 525 102 532.5 Q119 540 139 540 L277 540 Q296 540 313.5 532.5 Q331 525 344 512.5 Q357 500 364.5 483 Q372 466 372 447 L372 242 L166 242 L166 125 Q166 117 171 110.5 Q176 104 184 103 L229 103 Q239 103 245.5 109.5 Q252 116 252 125 L252 162 L372 162 Z M166 341 L252 341 L252 415 Q252 422 248 429 Q244 436 233 436 L182 436 Q174 436 170 429 Q166 422 166 415 L166 341 Z M35 716 Q35 745 55 765 Q75 785 103 785 Q132 785 152 765 Q172 745 172 716 Q172 687 152 667 Q132 647 103 647 Q75 647 55 667 Q35 687 35 716 Z M237 716 Q237 745 257 765 Q277 785 306 785 Q333 785 354 765 Q375 745 375 716 Q375 687 354 667 Q333 647 306 647 Q277 647 257 667 Q237 687 237 716 Z " />
<glyph glyph-name="edotaccent" unicode="&#x117;" horiz-adv-x="403" d="M372 162 L372 93 Q372 73 364.5 56.5 Q357 40 344 27 Q331 14 313.5 7 Q296 0 277 0 L139 0 Q100 0 72.5 27 Q45 54 45 93 L45 447 Q45 466 52.5 483 Q60 500 72.5 512.5 Q85 525 102 532.5 Q119 540 139 540 L277 540 Q296 540 313.5 532.5 Q331 525 344 512.5 Q357 500 364.5 483 Q372 466 372 447 L372 242 L166 242 L166 125 Q166 117 171 110.5 Q176 104 184 103 L229 103 Q239 103 245.5 109.5 Q252 116 252 125 L252 162 L372 162 Z M166 341 L252 341 L252 415 Q252 422 248 429 Q244 436 233 436 L182 436 Q174 436 170 429 Q166 422 166 415 L166 341 Z M133 716 Q133 730 138.5 742.5 Q144 755 153.5 764.5 Q163 774 175.5 779.5 Q188 785 201 785 Q231 785 250.5 765 Q270 745 270 716 Q270 687 250.5 667 Q231 647 201 647 Q175 647 154 667 Q133 687 133 716 Z " />
<glyph glyph-name="egrave" unicode="&#xe8;" horiz-adv-x="403" d="M372 162 L372 93 Q372 73 364.5 56.5 Q357 40 344 27 Q331 14 313.5 7 Q296 0 277 0 L139 0 Q100 0 72.5 27 Q45 54 45 93 L45 447 Q45 466 52.5 483 Q60 500 72.5 512.5 Q85 525 102 532.5 Q119 540 139 540 L277 540 Q296 540 313.5 532.5 Q331 525 344 512.5 Q357 500 364.5 483 Q372 466 372 447 L372 242 L166 242 L166 125 Q166 117 171 110.5 Q176 104 184 103 L229 103 Q239 103 245.5 109.5 Q252 116 252 125 L252 162 L372 162 Z M166 341 L252 341 L252 415 Q252 422 248 429 Q244 436 233 436 L182 436 Q174 436 170 429 Q166 422 166 415 L166 341 Z M255 655 L149 655 L86 774 L205 774 L255 655 Z " />
<glyph glyph-name="emacron" unicode="&#x113;" horiz-adv-x="403" d="M375 162 L375 93 Q375 73 367.5 56.5 Q360 40 347 27 Q334 14 316.5 7 Q299 0 280 0 L142 0 Q103 0 75.5 27 Q48 54 48 93 L48 447 Q48 466 55.5 483 Q63 500 75.5 512.5 Q88 525 105 532.5 Q122 540 142 540 L280 540 Q299 540 316.5 532.5 Q334 525 347 512.5 Q360 500 367.5 483 Q375 466 375 447 L375 242 L169 242 L169 125 Q169 117 174 110.5 Q179 104 187 103 L232 103 Q242 103 248.5 109.5 Q255 116 255 125 L255 162 L375 162 Z M169 341 L255 341 L255 415 Q255 422 251 429 Q247 436 236 436 L185 436 Q177 436 173 429 Q169 422 169 415 L169 341 Z M59 774 L363 774 L363 668 L59 668 L59 774 Z " />
<glyph glyph-name="eogonek" unicode="&#x119;" horiz-adv-x="403" d="M372 162 L372 93 Q372 73 364.5 56.5 Q357 40 344 27 Q331 14 313.5 7 Q296 0 277 0 L139 0 Q100 0 72.5 27 Q45 54 45 93 L45 447 Q45 466 52.5 483 Q60 500 72.5 512.5 Q85 525 102 532.5 Q119 540 139 540 L277 540 Q296 540 313.5 532.5 Q331 525 344 512.5 Q357 500 364.5 483 Q372 466 372 447 L372 242 L166 242 L166 125 Q166 117 171 110.5 Q176 104 184 103 L229 103 Q239 103 245.5 109.5 Q252 116 252 125 L252 162 L372 162 Z M166 341 L252 341 L252 415 Q252 422 248 429 Q244 436 233 436 L182 436 Q174 436 170 429 Q166 422 166 415 L166 341 Z M351 -220 Q322 -238 289 -238 Q268 -238 247 -231.5 Q226 -225 209.5 -212.5 Q193 -200 182.5 -181.5 Q172 -163 172 -139 Q172 -123 177.5 -103.5 Q183 -84 192 -65 Q201 -46 213.5 -29 Q226 -12 240 0 L294 0 Q277 -31 267.5 -54.5 Q258 -78 258 -93 Q258 -110 273 -121.5 Q288 -133 322 -134 L351 -220 Z " />
<glyph glyph-name="ffi" unicode="&#xfb03;" horiz-adv-x="785" d="M627 421 L482 421 L482 0 L362 0 L362 421 L163 421 L163 0 L44 0 L44 668 Q44 718 69 746 Q94 774 139 774 L274 774 L274 655 L163 655 L163 541 L362 541 L362 668 Q362 718 387.5 746 Q413 774 457 774 L685 774 Q714 774 735 755 Q756 736 756 704 Q756 675 735 656 Q714 637 685 637 Q661 637 640.5 646 Q620 655 595 655 L482 655 L482 541 L747 541 L747 0 L627 0 L627 421 Z " />
<glyph glyph-name="ffl" unicode="&#xfb04;" horiz-adv-x="785" d="M628 655 L482 655 L482 539 L561 539 L561 419 L482 419 L482 0 L362 0 L362 419 L163 419 L163 0 L44 0 L44 668 Q44 718 69 746 Q94 774 139 774 L274 774 L274 655 L163 655 L163 539 L362 539 L362 668 Q362 718 387 746 Q412 774 457 774 L748 774 L748 0 L628 0 L628 655 Z " />
<glyph glyph-name="fi" unicode="&#xfb01;" horiz-adv-x="534" d="M319 419 L172 419 L172 0 L53 0 L53 668 Q53 718 78 746 Q103 774 148 774 L376 774 Q406 774 426 753.5 Q446 733 446 704 Q446 675 426 656 Q406 637 376 637 Q351 637 329 646 Q307 655 284 655 L172 655 L172 539 L436 539 L436 0 L319 0 L319 419 Z " />
<glyph glyph-name="fl" unicode="&#xfb02;" horiz-adv-x="485" d="M322 655 L175 655 L175 539 L255 539 L255 419 L175 419 L175 0 L57 0 L57 668 Q57 718 81.5 746 Q106 774 151 774 L441 774 L441 0 L322 0 L322 655 Z " />
<glyph glyph-name="gbreve" unicode="&#x11f;" horiz-adv-x="409" d="M139 0 Q100 0 72.5 27 Q45 54 45 93 L45 447 Q45 466 52.5 483 Q60 500 72.5 512.5 Q85 525 102 532.5 Q119 540 139 540 L244 540 Q250 540 256.5 536.5 Q263 533 266 523 Q271 534 277 537 Q283 540 288 540 L372 540 L372 -138 Q372 -157 364.5 -174 Q357 -191 344 -203.5 Q331 -216 313.5 -223.5 Q296 -231 277 -231 L139 -231 Q119 -231 102 -223.5 Q85 -216 72.5 -203.5 Q60 -191 52.5 -174 Q45 -157 45 -138 L45 -60 L166 -60 L166 -106 Q166 -116 172 -122.5 Q178 -129 188 -129 L226 -129 Q239 -129 245.5 -122 Q252 -115 252 -106 L252 10 Q234 0 221 0 L139 0 Z M166 124 Q166 117 172.5 110 Q179 103 188 103 L225 103 Q235 103 243.5 108 Q252 113 252 125 L252 420 Q252 433 243.5 435 Q235 437 225 437 L182 437 Q174 437 170 430 Q166 423 166 416 L166 124 Z M136 639 Q117 639 99.5 646.5 Q82 654 69 666.5 Q56 679 48.5 696 Q41 713 41 732 L41 774 L158 774 Q158 760 167 749.5 Q176 739 190 739 L226 739 Q240 739 249.5 749.5 Q259 760 259 774 L376 774 L376 732 Q376 713 368 696 Q360 679 347 666.5 Q334 654 316.5 646.5 Q299 639 280 639 L136 639 Z " />
<glyph glyph-name="gcircumflex" unicode="&#x11d;" horiz-adv-x="409" d="M221 0 Q234 0 252 10 L252 -106 Q252 -115 245.5 -122 Q239 -129 226 -129 L188 -129 Q178 -129 172 -122.5 Q166 -116 166 -106 L166 -60 L45 -60 L45 -138 Q45 -157 52.5 -174 Q60 -191 72.5 -203.5 Q85 -216 102 -223.5 Q119 -231 139 -231 L277 -231 Q296 -231 313.5 -223.5 Q331 -216 344 -203.5 Q357 -191 364.5 -174 Q372 -157 372 -138 L372 540 L288 540 Q283 540 277 537 Q271 534 266 523 Q263 533 256.5 536.5 Q250 540 244 540 L139 540 Q119 540 102 532.5 Q85 525 72.5 512.5 Q60 500 52.5 483 Q45 466 45 447 L45 93 Q45 54 72.5 27 Q100 0 139 0 L221 0 Z M166 416 Q166 423 170 430 Q174 437 182 437 L225 437 Q235 437 243.5 435 Q252 433 252 420 L252 125 Q252 113 243.5 108 Q235 103 225 103 L188 103 Q179 103 172.5 110 Q166 117 166 124 L166 416 Z M164 776 L269 776 L378 610 L256 610 L217 667 L178 610 L54 610 L164 776 Z " />
<glyph glyph-name="gcommaaccent" unicode="&#x123;" horiz-adv-x="409" d="M221 0 Q234 0 252 10 L252 -106 Q252 -115 245.5 -122 Q239 -129 226 -129 L188 -129 Q178 -129 172 -122.5 Q166 -116 166 -106 L166 -60 L45 -60 L45 -138 Q45 -157 52.5 -174 Q60 -191 72.5 -203.5 Q85 -216 102 -223.5 Q119 -231 139 -231 L277 -231 Q296 -231 313.5 -223.5 Q331 -216 344 -203.5 Q357 -191 364.5 -174 Q372 -157 372 -138 L372 540 L288 540 Q283 540 277 537 Q271 534 266 523 Q263 533 256.5 536.5 Q250 540 244 540 L139 540 Q119 540 102 532.5 Q85 525 72.5 512.5 Q60 500 52.5 483 Q45 466 45 447 L45 93 Q45 54 72.5 27 Q100 0 139 0 L221 0 Z M166 416 Q166 423 170 430 Q174 437 182 437 L225 437 Q235 437 243.5 435 Q252 433 252 420 L252 125 Q252 113 243.5 108 Q235 103 225 103 L188 103 Q179 103 172.5 110 Q166 117 166 124 L166 416 Z M270 624 L151 624 L151 724 Q151 762 153 789.5 Q155 817 166 835 Q177 853 201 861.5 Q225 870 270 870 L270 801 Q253 801 242.5 797.5 Q232 794 226.5 787 Q221 780 219 769.5 Q217 759 217 744 L270 744 L270 624 Z " />
<glyph glyph-name="gdotaccent" unicode="&#x121;" horiz-adv-x="409" d="M139 0 Q100 0 72.5 27 Q45 54 45 93 L45 447 Q45 466 52.5 483 Q60 500 72.5 512.5 Q85 525 102 532.5 Q119 540 139 540 L244 540 Q250 540 256.5 536.5 Q263 533 266 523 Q271 534 277 537 Q283 540 288 540 L372 540 L372 -138 Q372 -157 364.5 -174 Q357 -191 344 -203.5 Q331 -216 313.5 -223.5 Q296 -231 277 -231 L139 -231 Q119 -231 102 -223.5 Q85 -216 72.5 -203.5 Q60 -191 52.5 -174 Q45 -157 45 -138 L45 -60 L166 -60 L166 -106 Q166 -116 172 -122.5 Q178 -129 188 -129 L226 -129 Q239 -129 245.5 -122 Q252 -115 252 -106 L252 10 Q234 0 221 0 L139 0 Z M166 124 Q166 117 172.5 110 Q179 103 188 103 L225 103 Q235 103 243.5 108 Q252 113 252 125 L252 420 Q252 433 243.5 435 Q235 437 225 437 L182 437 Q174 437 170 430 Q166 423 166 416 L166 124 Z M137 716 Q137 730 142.5 742.5 Q148 755 157.5 764.5 Q167 774 179.5 779.5 Q192 785 205 785 Q235 785 254.5 765 Q274 745 274 716 Q274 687 254.5 667 Q235 647 205 647 Q179 647 158 667 Q137 687 137 716 Z " />
<glyph glyph-name="hbar" unicode="&#x127;" horiz-adv-x="431" d="M73 0 L73 576 L34 576 L34 680 L73 680 L73 774 L194 774 L194 680 L266 680 L266 576 L194 576 L194 522 Q197 531 206.5 535.5 Q216 540 229 540 L307 540 Q326 540 343 532.5 Q360 525 373 512.5 Q386 500 393.5 483 Q401 466 401 447 L401 0 L281 0 L281 416 Q281 426 274.5 431 Q268 436 259 436 L218 436 Q208 436 201 431.5 Q194 427 194 416 L194 0 L73 0 Z " />
<glyph glyph-name="hcircumflex" unicode="&#x125;" horiz-adv-x="413" d="M176 0 L176 416 Q176 427 183 431.5 Q190 436 200 436 L241 436 Q250 436 256.5 431 Q263 426 263 416 L263 0 L383 0 L383 447 Q383 466 375.5 483 Q368 500 355 512.5 Q342 525 325 532.5 Q308 540 289 540 L199 540 Q194 540 187.5 537.5 Q181 535 176 526 L176 774 L55 774 L55 0 L176 0 Z M161 978 L266 978 L375 812 L253 812 L214 869 L175 812 L51 812 L161 978 Z " />
<glyph glyph-name="dotlessi" unicode="&#x131;" horiz-adv-x="215" d="M54 541 L174 541 L174 0 L54 0 L54 541 Z " />
<glyph glyph-name="iacute" unicode="&#xed;" horiz-adv-x="215" d="M54 541 L174 541 L174 0 L54 0 L54 541 Z M106 772 L224 772 L161 653 L52 653 L106 772 Z " />
<glyph glyph-name="ibreve" unicode="&#x12d;" horiz-adv-x="215" d="M54 541 L174 541 L174 0 L54 0 L54 541 Z M39 639 Q20 639 2.5 646.5 Q-15 654 -28 666.5 Q-41 679 -48.5 696 Q-56 713 -56 732 L-56 774 L61 774 Q61 760 70 749.5 Q79 739 93 739 L129 739 Q143 739 152.5 749.5 Q162 760 162 774 L279 774 L279 732 Q279 713 271 696 Q263 679 250 666.5 Q237 654 219.5 646.5 Q202 639 183 639 L39 639 Z " />
<glyph glyph-name="icircumflex" unicode="&#xee;" horiz-adv-x="215" d="M54 0 L174 0 L174 541 L54 541 L54 0 Z M55 775 L160 775 L269 609 L147 609 L108 666 L69 609 L-55 609 L55 775 Z " />
<glyph glyph-name="idieresis" unicode="&#xef;" horiz-adv-x="215" d="M54 541 L174 541 L174 0 L54 0 L54 541 Z M-58 716 Q-58 745 -38 765 Q-18 785 10 785 Q39 785 59 765 Q79 745 79 716 Q79 687 59 667 Q39 647 10 647 Q-18 647 -38 667 Q-58 687 -58 716 Z M144 716 Q144 745 164 765 Q184 785 213 785 Q240 785 261 765 Q282 745 282 716 Q282 687 261 667 Q240 647 213 647 Q184 647 164 667 Q144 687 144 716 Z " />
<glyph glyph-name="igrave" unicode="&#xec;" horiz-adv-x="215" d="M54 541 L174 541 L174 0 L54 0 L54 541 Z M171 655 L65 655 L2 774 L121 774 L171 655 Z " />
<glyph glyph-name="imacron" unicode="&#x12b;" horiz-adv-x="215" d="M54 541 L174 541 L174 0 L54 0 L54 541 Z M-46 774 L258 774 L258 668 L-46 668 L-46 774 Z " />
<glyph glyph-name="iogonek" unicode="&#x12f;" horiz-adv-x="215" d="M51 540 L171 540 L171 0 L51 0 L51 540 Z M42 699 Q42 728 62 748.5 Q82 769 111 769 Q140 769 159.5 748.5 Q179 728 179 699 Q179 670 159.5 651 Q140 632 111 632 Q82 632 62 651 Q42 670 42 699 Z M212 -220 Q183 -238 150 -238 Q129 -238 108 -231.5 Q87 -225 70.5 -212.5 Q54 -200 43.5 -181.5 Q33 -163 33 -139 Q33 -123 38.5 -103.5 Q44 -84 53 -65 Q62 -46 74.5 -29 Q87 -12 101 0 L155 0 Q138 -31 128.5 -54.5 Q119 -78 119 -93 Q119 -110 134 -121.5 Q149 -133 183 -134 L212 -220 Z " />
<glyph glyph-name="itilde" unicode="&#x129;" horiz-adv-x="215" d="M54 541 L174 541 L174 0 L54 0 L54 541 Z M44 772 Q61 772 76 766 Q91 760 105.5 752.5 Q120 745 135 739 Q150 733 167 733 Q175 733 185 741 Q195 749 206 772 L296 772 Q291 698 261.5 658.5 Q232 619 187 619 Q172 619 155.5 625.5 Q139 632 123 640 Q107 648 92 654.5 Q77 661 64 661 Q55 661 47 652 Q39 643 29 619 L-65 619 Q-60 690 -30 731 Q0 772 44 772 Z " />
<glyph glyph-name="kcommaaccent" unicode="&#x137;" horiz-adv-x="398" d="M172 774 L172 472 L152 359 L258 540 L386 540 L249 309 L385 0 L256 0 L157 239 L172 131 L172 0 L54 0 L54 774 L172 774 Z M145 -223 L145 -104 L264 -104 L264 -203 Q264 -242 262 -269.5 Q260 -297 249 -314.5 Q238 -332 214 -340.5 Q190 -349 145 -349 L145 -280 Q179 -280 188 -266 Q197 -252 198 -223 L145 -223 Z " />
<glyph glyph-name="lacute" unicode="&#x13a;" horiz-adv-x="221" d="M57 774 L177 774 L177 0 L57 0 L57 774 Z M130 978 L248 978 L185 859 L76 859 L130 978 Z " />
<glyph glyph-name="lcaron" unicode="&#x13e;" horiz-adv-x="318" d="M57 774 L177 774 L177 0 L57 0 L57 774 Z M228 773 L348 773 L348 672 Q348 634 346 606.5 Q344 579 333 561.5 Q322 544 297.5 535.5 Q273 527 228 527 L228 595 Q263 595 272 609.5 Q281 624 282 654 L228 654 L228 773 Z " />
<glyph glyph-name="lcommaaccent" unicode="&#x13c;" horiz-adv-x="221" d="M57 774 L177 774 L177 0 L57 0 L57 774 Z M57 -223 L57 -104 L176 -104 L176 -203 Q176 -242 174 -269.5 Q172 -297 161 -314.5 Q150 -332 126 -340.5 Q102 -349 57 -349 L57 -280 Q91 -280 100 -266 Q109 -252 110 -223 L57 -223 Z " />
<glyph glyph-name="ldot" unicode="&#x140;" horiz-adv-x="338" d="M57 774 L177 774 L177 0 L57 0 L57 774 Z M215 440 Q215 454 220.5 466.5 Q226 479 235.5 488.5 Q245 498 257.5 503.5 Q270 509 283 509 Q313 509 332.5 489 Q352 469 352 440 Q352 411 332.5 391 Q313 371 283 371 Q257 371 236 391 Q215 411 215 440 Z " />
<glyph glyph-name="lslash" unicode="&#x142;" horiz-adv-x="270" d="M-31 326 L77 387 L77 774 L196 774 L196 456 L248 486 L308 383 L196 318 L196 0 L77 0 L77 248 L29 222 L-31 326 Z " />
<glyph glyph-name="jcircumflex" unicode="&#x135;" horiz-adv-x="216" d="M3 -252 L69 -252 Q88 -252 105 -244.5 Q122 -237 135 -224 Q148 -211 156 -194 Q164 -177 164 -158 L164 541 L43 541 L43 -113 Q43 -122 34.5 -135.5 Q26 -149 3 -149 L3 -252 Z M53 773 L158 773 L267 607 L145 607 L106 664 L67 607 L-57 607 L53 773 Z " />
<glyph glyph-name="dotlessj" unicode="&#x237;" horiz-adv-x="216" d="M13 -252 L17 -151 Q29 -151 36 -147 Q43 -143 46.5 -137 Q50 -131 51.5 -124.5 Q53 -118 53 -113 L53 540 L174 540 L174 -158 Q174 -177 166 -194 Q158 -211 145 -224 Q132 -237 115 -244.5 Q98 -252 79 -252 L12 -252 L13 -252 Z " />
<glyph glyph-name="nacute" unicode="&#x144;" horiz-adv-x="417" d="M284 540 Q303 540 320.5 532.5 Q338 525 351 512.5 Q364 500 371.5 483 Q379 466 379 447 L379 0 L259 0 L259 415 Q259 422 254.5 429 Q250 436 241 436 L198 436 Q187 436 180.5 432 Q174 428 174 415 L174 0 L52 0 L52 540 L131 540 Q142 540 151 536 Q160 532 166 515 Q176 532 185.5 536 Q195 540 203 540 L284 540 Z M215 772 L333 772 L270 653 L161 653 L215 772 Z " />
<glyph glyph-name="napostrophe" unicode="&#x149;" horiz-adv-x="460" d="M327 540 Q346 540 363.5 532.5 Q381 525 394 512.5 Q407 500 414.5 483 Q422 466 422 447 L422 0 L302 0 L302 415 Q302 422 297.5 429 Q293 436 284 436 L241 436 Q230 436 223.5 432 Q217 428 217 415 L217 0 L95 0 L95 540 L174 540 Q185 540 194 536 Q203 532 209 515 Q219 532 228.5 536 Q238 540 246 540 L327 540 Z M-13 656 L-13 775 L106 775 L106 676 Q106 637 104 609.5 Q102 582 91 564.5 Q80 547 56 538.5 Q32 530 -13 530 L-13 599 Q21 599 30 613 Q39 627 40 656 L-13 656 Z " />
<glyph glyph-name="ncaron" unicode="&#x148;" horiz-adv-x="417" d="M284 540 Q303 540 320.5 532.5 Q338 525 351 512.5 Q364 500 371.5 483 Q379 466 379 447 L379 0 L259 0 L259 415 Q259 422 254.5 429 Q250 436 241 436 L198 436 Q187 436 180.5 432 Q174 428 174 415 L174 0 L52 0 L52 540 L131 540 Q142 540 151 536 Q160 532 166 515 Q176 532 185.5 536 Q195 540 203 540 L284 540 Z M46 774 L170 774 L211 715 L248 774 L369 774 L261 608 L156 608 L46 774 Z " />
<glyph glyph-name="ncommaaccent" unicode="&#x146;" horiz-adv-x="417" d="M284 540 Q303 540 320.5 532.5 Q338 525 351 512.5 Q364 500 371.5 483 Q379 466 379 447 L379 0 L259 0 L259 415 Q259 422 254.5 429 Q250 436 241 436 L198 436 Q187 436 180.5 432 Q174 428 174 415 L174 0 L52 0 L52 540 L131 540 Q142 540 151 536 Q160 532 166 515 Q176 532 185.5 536 Q195 540 203 540 L284 540 Z M155 -237 L155 -118 L274 -118 L274 -217 Q274 -256 272 -283.5 Q270 -311 259 -328.5 Q248 -346 224 -354.5 Q200 -363 155 -363 L155 -294 Q189 -294 198 -280 Q207 -266 208 -237 L155 -237 Z " />
<glyph glyph-name="ntilde" unicode="&#xf1;" horiz-adv-x="417" d="M284 540 Q303 540 320.5 532.5 Q338 525 351 512.5 Q364 500 371.5 483 Q379 466 379 447 L379 0 L259 0 L259 415 Q259 422 254.5 429 Q250 436 241 436 L198 436 Q187 436 180.5 432 Q174 428 174 415 L174 0 L52 0 L52 540 L131 540 Q142 540 151 536 Q160 532 166 515 Q176 532 185.5 536 Q195 540 203 540 L284 540 Z M144 772 Q161 772 176 766 Q191 760 205.5 752.5 Q220 745 235 739 Q250 733 267 733 Q275 733 285 741 Q295 749 306 772 L396 772 Q391 698 361.5 658.5 Q332 619 287 619 Q272 619 255.5 625.5 Q239 632 223 640 Q207 648 192 654.5 Q177 661 164 661 Q155 661 147 652 Q139 643 129 619 L35 619 Q40 690 70 731 Q100 772 144 772 Z " />
<glyph glyph-name="oacute" unicode="&#xf3;" horiz-adv-x="406" d="M188 438 Q178 438 172 429.5 Q166 421 166 412 L166 128 Q166 121 172.5 112 Q179 103 188 103 L229 103 Q239 103 245.5 111.5 Q252 120 252 129 L252 413 Q252 421 246 429.5 Q240 438 222 438 L188 438 Z M139 0 Q120 0 103 7 Q86 14 73 27 Q60 40 52.5 56.5 Q45 73 45 93 L45 447 Q45 466 52.5 483 Q60 500 73 512.5 Q86 525 103 532.5 Q120 540 139 540 L277 540 Q297 540 314.5 532.5 Q332 525 344.5 512.5 Q357 500 364.5 483 Q372 466 372 447 L372 93 Q372 54 344.5 27 Q317 0 277 0 L139 0 Z M203 772 L321 772 L258 653 L149 653 L203 772 Z " />
<glyph glyph-name="obreve" unicode="&#x14f;" horiz-adv-x="406" d="M194 438 Q184 438 178 429.5 Q172 421 172 412 L172 128 Q172 121 178.5 112 Q185 103 194 103 L235 103 Q245 103 251.5 111.5 Q258 120 258 129 L258 413 Q258 421 252 429.5 Q246 438 228 438 L194 438 Z M145 0 Q126 0 109 7 Q92 14 79 27 Q66 40 58.5 56.5 Q51 73 51 93 L51 447 Q51 466 58.5 483 Q66 500 79 512.5 Q92 525 109 532.5 Q126 540 145 540 L283 540 Q303 540 320.5 532.5 Q338 525 350.5 512.5 Q363 500 370.5 483 Q378 466 378 447 L378 93 Q378 54 350.5 27 Q323 0 283 0 L145 0 Z M134 639 Q115 639 97.5 646.5 Q80 654 67 666.5 Q54 679 46.5 696 Q39 713 39 732 L39 774 L156 774 Q156 760 165 749.5 Q174 739 188 739 L224 739 Q238 739 247.5 749.5 Q257 760 257 774 L374 774 L374 732 Q374 713 366 696 Q358 679 345 666.5 Q332 654 314.5 646.5 Q297 639 278 639 L134 639 Z " />
<glyph glyph-name="ocircumflex" unicode="&#xf4;" horiz-adv-x="406" d="M222 438 Q240 438 246 429.5 Q252 421 252 413 L252 129 Q252 120 245.5 111.5 Q239 103 229 103 L188 103 Q179 103 172.5 112 Q166 121 166 128 L166 412 Q166 421 172 429.5 Q178 438 188 438 L222 438 Z M277 0 Q317 0 344.5 27 Q372 54 372 93 L372 447 Q372 466 364.5 483 Q357 500 344.5 512.5 Q332 525 314.5 532.5 Q297 540 277 540 L139 540 Q120 540 103 532.5 Q86 525 73 512.5 Q60 500 52.5 483 Q45 466 45 447 L45 93 Q45 73 52.5 56.5 Q60 40 73 27 Q86 14 103 7 Q120 0 139 0 L277 0 Z M147 775 L252 775 L361 609 L239 609 L200 666 L161 609 L37 609 L147 775 Z " />
<glyph glyph-name="odieresis" unicode="&#xf6;" horiz-adv-x="406" d="M193 438 Q183 438 177 429.5 Q171 421 171 412 L171 128 Q171 121 177.5 112 Q184 103 193 103 L234 103 Q244 103 250.5 111.5 Q257 120 257 129 L257 413 Q257 421 251 429.5 Q245 438 227 438 L193 438 Z M144 0 Q125 0 108 7 Q91 14 78 27 Q65 40 57.5 56.5 Q50 73 50 93 L50 447 Q50 466 57.5 483 Q65 500 78 512.5 Q91 525 108 532.5 Q125 540 144 540 L282 540 Q302 540 319.5 532.5 Q337 525 349.5 512.5 Q362 500 369.5 483 Q377 466 377 447 L377 93 Q377 54 349.5 27 Q322 0 282 0 L144 0 Z M38 716 Q38 745 58 765 Q78 785 106 785 Q135 785 155 765 Q175 745 175 716 Q175 687 155 667 Q135 647 106 647 Q78 647 58 667 Q38 687 38 716 Z M240 716 Q240 745 260 765 Q280 785 309 785 Q336 785 357 765 Q378 745 378 716 Q378 687 357 667 Q336 647 309 647 Q280 647 260 667 Q240 687 240 716 Z " />
<glyph glyph-name="ograve" unicode="&#xf2;" horiz-adv-x="406" d="M188 438 Q178 438 172 429.5 Q166 421 166 412 L166 128 Q166 121 172.5 112 Q179 103 188 103 L229 103 Q239 103 245.5 111.5 Q252 120 252 129 L252 413 Q252 421 246 429.5 Q240 438 222 438 L188 438 Z M139 0 Q120 0 103 7 Q86 14 73 27 Q60 40 52.5 56.5 Q45 73 45 93 L45 447 Q45 466 52.5 483 Q60 500 73 512.5 Q86 525 103 532.5 Q120 540 139 540 L277 540 Q297 540 314.5 532.5 Q332 525 344.5 512.5 Q357 500 364.5 483 Q372 466 372 447 L372 93 Q372 54 344.5 27 Q317 0 277 0 L139 0 Z M258 655 L152 655 L89 774 L208 774 L258 655 Z " />
<glyph glyph-name="ohungarumlaut" unicode="&#x151;" horiz-adv-x="406" d="M188 438 Q178 438 172 429.5 Q166 421 166 412 L166 128 Q166 121 172.5 112 Q179 103 188 103 L229 103 Q239 103 245.5 111.5 Q252 120 252 129 L252 413 Q252 421 246 429.5 Q240 438 222 438 L188 438 Z M139 0 Q120 0 103 7 Q86 14 73 27 Q60 40 52.5 56.5 Q45 73 45 93 L45 447 Q45 466 52.5 483 Q60 500 73 512.5 Q86 525 103 532.5 Q120 540 139 540 L277 540 Q297 540 314.5 532.5 Q332 525 344.5 512.5 Q357 500 364.5 483 Q372 466 372 447 L372 93 Q372 54 344.5 27 Q317 0 277 0 L139 0 Z M102 772 L220 772 L157 653 L48 653 L102 772 Z M306 772 L424 772 L361 653 L252 653 L306 772 Z " />
<glyph glyph-name="oslash" unicode="&#xf8;" horiz-adv-x="450" d="M160 0 L133 -53 L-4 -53 L65 82 L65 447 Q65 466 72.5 483 Q80 500 93 512.5 Q106 525 123 532.5 Q140 540 159 540 L301 540 L329 592 L471 592 L392 443 L392 93 Q392 73 384.5 56.5 Q377 40 364 27 Q351 14 334 7 Q317 0 298 0 L160 0 Z M208 438 Q198 438 191.5 431 Q185 424 185 415 L185 124 Q185 117 191.5 110 Q198 103 208 103 L250 103 Q260 103 266 109.5 Q272 116 272 125 L272 416 Q272 424 265.5 431 Q259 438 241 438 L208 438 Z " />
<glyph glyph-name="omacron" unicode="&#x14d;" horiz-adv-x="406" d="M188 438 Q178 438 172 429.5 Q166 421 166 412 L166 128 Q166 121 172.5 112 Q179 103 188 103 L229 103 Q239 103 245.5 111.5 Q252 120 252 129 L252 413 Q252 421 246 429.5 Q240 438 222 438 L188 438 Z M139 0 Q120 0 103 7 Q86 14 73 27 Q60 40 52.5 56.5 Q45 73 45 93 L45 447 Q45 466 52.5 483 Q60 500 73 512.5 Q86 525 103 532.5 Q120 540 139 540 L277 540 Q297 540 314.5 532.5 Q332 525 344.5 512.5 Q357 500 364.5 483 Q372 466 372 447 L372 93 Q372 54 344.5 27 Q317 0 277 0 L139 0 Z M53 774 L357 774 L357 668 L53 668 L53 774 Z " />
<glyph glyph-name="otilde" unicode="&#xf5;" horiz-adv-x="406" d="M188 438 Q178 438 172 429.5 Q166 421 166 412 L166 128 Q166 121 172.5 112 Q179 103 188 103 L229 103 Q239 103 245.5 111.5 Q252 120 252 129 L252 413 Q252 421 246 429.5 Q240 438 222 438 L188 438 Z M139 0 Q120 0 103 7 Q86 14 73 27 Q60 40 52.5 56.5 Q45 73 45 93 L45 447 Q45 466 52.5 483 Q60 500 73 512.5 Q86 525 103 532.5 Q120 540 139 540 L277 540 Q297 540 314.5 532.5 Q332 525 344.5 512.5 Q357 500 364.5 483 Q372 466 372 447 L372 93 Q372 54 344.5 27 Q317 0 277 0 L139 0 Z M139 776 Q156 776 171 770 Q186 764 200.5 756.5 Q215 749 230 743 Q245 737 262 737 Q270 737 280 745 Q290 753 301 776 L391 776 Q386 702 356.5 662.5 Q327 623 282 623 Q267 623 250.5 629.5 Q234 636 218 644 Q202 652 187 658.5 Q172 665 159 665 Q150 665 142 656 Q134 647 124 623 L30 623 Q35 694 65 735 Q95 776 139 776 Z " />
<glyph glyph-name="oe" unicode="&#x153;" horiz-adv-x="609" d="M388 0 Q365 0 344 9.5 Q323 19 309 33 Q293 19 273.5 9.5 Q254 0 221 0 L138 0 Q119 0 102 7 Q85 14 72 27 Q59 40 51.5 56.5 Q44 73 44 93 L44 447 Q44 466 51.5 483 Q59 500 72 512.5 Q85 525 102 532.5 Q119 540 138 540 L221 540 Q253 540 274.5 529.5 Q296 519 310 507 Q324 518 346 529 Q368 540 388 540 L482 540 Q522 540 550 513.5 Q578 487 578 448 L578 242 L370 242 L370 122 Q370 114 375 108.5 Q380 103 388 103 L435 103 Q444 103 450 109.5 Q456 116 456 125 L456 162 L578 162 L578 93 Q578 73 570.5 56.5 Q563 40 550 27 Q537 14 519.5 7 Q502 0 482 0 L388 0 Z M185 438 Q177 438 170 431 Q163 424 163 415 L163 124 Q163 117 170 110 Q177 103 185 103 L227 103 Q237 103 243.5 109.5 Q250 116 250 125 L250 416 Q250 424 244 431 Q238 438 221 438 L185 438 Z M390 437 Q379 437 374.5 431 Q370 425 370 419 L370 341 L457 341 L457 416 Q457 423 452.5 430 Q448 437 439 437 L390 437 Z " />
<glyph glyph-name="oslashacute" unicode="&#x1ff;" horiz-adv-x="460" d="M160 0 L133 -53 L-4 -53 L65 82 L65 447 Q65 466 72.5 483 Q80 500 93 512.5 Q106 525 123 532.5 Q140 540 159 540 L301 540 L329 592 L471 592 L392 443 L392 93 Q392 73 384.5 56.5 Q377 40 364 27 Q351 14 334 7 Q317 0 298 0 L160 0 Z M208 438 Q198 438 191.5 431 Q185 424 185 415 L185 124 Q185 117 191.5 110 Q198 103 208 103 L250 103 Q260 103 266 109.5 Q272 116 272 125 L272 416 Q272 424 265.5 431 Q259 438 241 438 L208 438 Z M222 772 L340 772 L277 653 L168 653 L222 772 Z " />
<glyph glyph-name="racute" unicode="&#x155;" horiz-adv-x="377" d="M122 540 Q130 540 140 534 Q150 528 157 508 Q173 528 190 534 Q207 540 216 540 L278 540 Q297 540 314.5 532.5 Q332 525 345 512.5 Q358 500 365.5 483 Q373 466 373 447 L373 384 L254 384 L254 415 Q254 424 247 430.5 Q240 437 231 437 L192 437 Q181 437 174 430.5 Q167 424 167 415 L167 0 L46 0 L46 540 L122 540 Z M198 772 L316 772 L253 653 L144 653 L198 772 Z " />
<glyph glyph-name="rcaron" unicode="&#x159;" horiz-adv-x="377" d="M122 540 Q130 540 140 534 Q150 528 157 508 Q173 528 190 534 Q207 540 216 540 L278 540 Q297 540 314.5 532.5 Q332 525 345 512.5 Q358 500 365.5 483 Q373 466 373 447 L373 384 L254 384 L254 415 Q254 424 247 430.5 Q240 437 231 437 L192 437 Q181 437 174 430.5 Q167 424 167 415 L167 0 L46 0 L46 540 L122 540 Z M26 774 L150 774 L191 715 L228 774 L349 774 L241 608 L136 608 L26 774 Z " />
<glyph glyph-name="rcommaaccent" unicode="&#x157;" horiz-adv-x="377" d="M122 540 Q130 540 140 534 Q150 528 157 508 Q173 528 190 534 Q207 540 216 540 L278 540 Q297 540 314.5 532.5 Q332 525 345 512.5 Q358 500 365.5 483 Q373 466 373 447 L373 384 L254 384 L254 415 Q254 424 247 430.5 Q240 437 231 437 L192 437 Q181 437 174 430.5 Q167 424 167 415 L167 0 L46 0 L46 540 L122 540 Z M135 -222 L135 -103 L254 -103 L254 -202 Q254 -241 252 -268.5 Q250 -296 239 -313.5 Q228 -331 204 -339.5 Q180 -348 135 -348 L135 -279 Q169 -279 178 -265 Q187 -251 188 -222 L135 -222 Z " />
<glyph glyph-name="sacute" unicode="&#x15b;" horiz-adv-x="399" d="M162 395 Q162 371 177.5 355.5 Q193 340 215.5 328 Q238 316 265 303.5 Q292 291 314.5 273 Q337 255 352.5 228 Q368 201 368 159 L368 93 Q368 73 360.5 56.5 Q353 40 340 27 Q327 14 309.5 7 Q292 0 273 0 L135 0 Q116 0 99 7 Q82 14 69 27 Q56 40 48.5 56.5 Q41 73 41 93 L41 168 L162 168 L162 124 Q162 117 168.5 110 Q175 103 183 103 L225 103 Q235 103 241.5 109.5 Q248 116 248 125 L248 149 Q248 172 232.5 187 Q217 202 194.5 214 Q172 226 145 237 Q118 248 95.5 262 Q73 276 57.5 295.5 Q42 315 42 345 L42 447 Q42 466 49.5 483 Q57 500 70 512.5 Q83 525 100 532.5 Q117 540 136 540 L273 540 Q292 540 309.5 531 Q327 522 340 507 Q353 492 360.5 473.5 Q368 455 368 436 L368 382 L248 382 L248 416 Q248 424 241.5 431 Q235 438 218 438 L183 438 Q174 438 168 431 Q162 424 162 415 L162 395 Z M199 772 L317 772 L254 653 L145 653 L199 772 Z " />
<glyph glyph-name="scaron" unicode="&#x161;" horiz-adv-x="399" d="M162 395 Q162 371 177.5 355.5 Q193 340 215.5 328 Q238 316 265 303.5 Q292 291 314.5 273 Q337 255 352.5 228 Q368 201 368 159 L368 93 Q368 73 360.5 56.5 Q353 40 340 27 Q327 14 309.5 7 Q292 0 273 0 L135 0 Q116 0 99 7 Q82 14 69 27 Q56 40 48.5 56.5 Q41 73 41 93 L41 168 L162 168 L162 124 Q162 117 168.5 110 Q175 103 183 103 L225 103 Q235 103 241.5 109.5 Q248 116 248 125 L248 149 Q248 172 232.5 187 Q217 202 194.5 214 Q172 226 145 237 Q118 248 95.5 262 Q73 276 57.5 295.5 Q42 315 42 345 L42 447 Q42 466 49.5 483 Q57 500 70 512.5 Q83 525 100 532.5 Q117 540 136 540 L273 540 Q292 540 309.5 531 Q327 522 340 507 Q353 492 360.5 473.5 Q368 455 368 436 L368 382 L248 382 L248 416 Q248 424 241.5 431 Q235 438 218 438 L183 438 Q174 438 168 431 Q162 424 162 415 L162 395 Z M37 774 L161 774 L202 715 L239 774 L360 774 L252 608 L147 608 L37 774 Z " />
<glyph glyph-name="scedilla" unicode="&#x15f;" horiz-adv-x="399" d="M162 395 Q162 371 177.5 355.5 Q193 340 215.5 328 Q238 316 265 303.5 Q292 291 314.5 273 Q337 255 352.5 228 Q368 201 368 159 L368 93 Q368 73 360.5 56.5 Q353 40 340 27 Q327 14 309.5 7 Q292 0 273 0 L135 0 Q116 0 99 7 Q82 14 69 27 Q56 40 48.5 56.5 Q41 73 41 93 L41 168 L162 168 L162 124 Q162 117 168.5 110 Q175 103 183 103 L225 103 Q235 103 241.5 109.5 Q248 116 248 125 L248 149 Q248 172 232.5 187 Q217 202 194.5 214 Q172 226 145 237 Q118 248 95.5 262 Q73 276 57.5 295.5 Q42 315 42 345 L42 447 Q42 466 49.5 483 Q57 500 70 512.5 Q83 525 100 532.5 Q117 540 136 540 L273 540 Q292 540 309.5 531 Q327 522 340 507 Q353 492 360.5 473.5 Q368 455 368 436 L368 382 L248 382 L248 416 Q248 424 241.5 431 Q235 438 218 438 L183 438 Q174 438 168 431 Q162 424 162 415 L162 395 Z M147 -134 Q181 -133 196 -121.5 Q211 -110 211 -93 Q211 -62 175 0 L229 0 Q243 -13 255.5 -30 Q268 -47 277 -66 Q286 -85 291.5 -104 Q297 -123 297 -139 Q297 -158 290.5 -175.5 Q284 -193 270.5 -206 Q257 -219 235 -227 Q213 -235 183 -235 Q174 -235 159 -233.5 Q144 -232 115 -226 L147 -134 Z " />
<glyph glyph-name="scircumflex" unicode="&#x15d;" horiz-adv-x="399" d="M162 415 Q162 424 168 431 Q174 438 183 438 L218 438 Q235 438 241.5 431 Q248 424 248 416 L248 382 L368 382 L368 436 Q368 455 360.5 473.5 Q353 492 340 507 Q327 522 309.5 531 Q292 540 273 540 L136 540 Q117 540 100 532.5 Q83 525 70 512.5 Q57 500 49.5 483 Q42 466 42 447 L42 345 Q42 315 57.5 295.5 Q73 276 95.5 262 Q118 248 145 237 Q172 226 194.5 214 Q217 202 232.5 187 Q248 172 248 149 L248 125 Q248 116 241.5 109.5 Q235 103 225 103 L183 103 Q175 103 168.5 110 Q162 117 162 124 L162 168 L41 168 L41 93 Q41 73 48.5 56.5 Q56 40 69 27 Q82 14 99 7 Q116 0 135 0 L273 0 Q292 0 309.5 7 Q327 14 340 27 Q353 40 360.5 56.5 Q368 73 368 93 L368 159 Q368 201 352.5 228 Q337 255 314.5 273 Q292 291 265 303.5 Q238 316 215.5 328 Q193 340 177.5 355.5 Q162 371 162 395 L162 415 Z M147 775 L252 775 L361 609 L239 609 L200 666 L161 609 L37 609 L147 775 Z " />
<glyph glyph-name="scommaaccent" unicode="&#x219;" horiz-adv-x="399" d="M162 395 Q162 371 177.5 355.5 Q193 340 215.5 328 Q238 316 265 303.5 Q292 291 314.5 273 Q337 255 352.5 228 Q368 201 368 159 L368 93 Q368 73 360.5 56.5 Q353 40 340 27 Q327 14 309.5 7 Q292 0 273 0 L135 0 Q116 0 99 7 Q82 14 69 27 Q56 40 48.5 56.5 Q41 73 41 93 L41 168 L162 168 L162 124 Q162 117 168.5 110 Q175 103 183 103 L225 103 Q235 103 241.5 109.5 Q248 116 248 125 L248 149 Q248 172 232.5 187 Q217 202 194.5 214 Q172 226 145 237 Q118 248 95.5 262 Q73 276 57.5 295.5 Q42 315 42 345 L42 447 Q42 466 49.5 483 Q57 500 70 512.5 Q83 525 100 532.5 Q117 540 136 540 L273 540 Q292 540 309.5 531 Q327 522 340 507 Q353 492 360.5 473.5 Q368 455 368 436 L368 382 L248 382 L248 416 Q248 424 241.5 431 Q235 438 218 438 L183 438 Q174 438 168 431 Q162 424 162 415 L162 395 Z M146 -222 L146 -103 L265 -103 L265 -202 Q265 -241 263 -268.5 Q261 -296 250 -313.5 Q239 -331 215 -339.5 Q191 -348 146 -348 L146 -279 Q180 -279 189 -265 Q198 -251 199 -222 L146 -222 Z " />
<glyph glyph-name="tbar" unicode="&#x167;" horiz-adv-x="245" d="M5 359 L61 359 L61 418 L7 418 L7 540 L61 540 L61 627 L179 627 L179 540 L238 540 L238 420 L179 420 L179 359 L237 359 L237 255 L179 255 L179 122 Q179 116 185 109.5 Q191 103 202 103 L238 103 L238 0 L156 0 Q111 0 86 28 Q61 56 61 105 L61 255 L5 255 L5 359 Z " />
<glyph glyph-name="tcaron" unicode="&#x165;" horiz-adv-x="347" d="M61 105 Q61 56 86 28 Q111 0 156 0 L238 0 L238 103 L202 103 Q191 103 185 109.5 Q179 116 179 122 L179 420 L238 420 L238 540 L179 540 L179 627 L61 627 L61 540 L7 540 L7 418 L61 418 L61 105 Z M259 772 L379 772 L379 671 Q379 633 377 605.5 Q375 578 364 560.5 Q353 543 328.5 534.5 Q304 526 259 526 L259 594 Q294 594 303 608.5 Q312 623 313 653 L259 653 L259 772 Z " />
</font>
</svg>
