<?xml version="1.0" encoding="UTF-8"?>
<svg xmlns="http://www.w3.org/2000/svg" xmlns:xlink="http://www.w3.org/1999/xlink" version="1.2" >
<font id="Ampero SemiBold">
<font-face  font-family="Ampero" units-per-em="1000" ascent="775" descent="-231" font-style="normal" font-weight="600" font-stretch="normal" cap-height="749" x-height="540" underline-position="-75" underline-thickness="50" />
<missing-glyph  horiz-adv-x="233" d="" />
<glyph glyph-name="Z" unicode="Z" horiz-adv-x="392" d="M40 749 L359 749 L359 646 Q359 638 357.5 631 Q356 624 354 619 L148 109 L359 109 L359 0 L41 0 L41 101 Q41 121 45 130 L252 640 L40 640 L40 749 Z " />
<glyph glyph-name="Y" unicode="Y" horiz-adv-x="387" d="M201 397 L209 504 L267 749 L378 749 L253 234 L253 0 L144 0 L144 234 L19 749 L130 749 L188 504 L196 397 L201 397 Z " />
<glyph glyph-name="X" unicode="X" horiz-adv-x="422" d="M218 373 L214 373 L206 237 L148 0 L37 0 L133 412 L37 749 L148 749 L206 569 L214 466 L218 466 L226 569 L284 749 L395 749 L299 412 L395 0 L284 0 L226 237 L218 373 Z " />
<glyph glyph-name="P" unicode="P" horiz-adv-x="411" d="M60 749 L287 749 Q324 749 351 723 Q378 697 378 660 L378 401 Q378 382 370.5 365.5 Q363 349 350.5 337 Q338 325 321.5 318.5 Q305 312 287 312 L169 312 L169 0 L60 0 L60 749 Z M169 659 L169 404 L239 404 Q251 404 260 412.5 Q269 421 269 433 L269 629 Q269 640 262 649.5 Q255 659 243 659 L169 659 Z " />
<glyph glyph-name="R" unicode="R" horiz-adv-x="418" d="M380 401 Q380 362 350 338.5 Q320 315 266 310 Q299 233 333.5 155 Q368 77 400 0 L284 0 L147 330 L142 330 L170 192 L170 0 L61 0 L61 749 L288 749 Q306 749 323 742 Q340 735 352.5 723 Q365 711 372.5 694.5 Q380 678 380 660 L380 401 Z M170 659 L170 404 L240 404 Q252 404 261 412.5 Q270 421 270 433 L270 629 Q270 640 263 649.5 Q256 659 244 659 L170 659 Z " />
<glyph glyph-name="Q" unicode="Q" horiz-adv-x="437" d="M323 -151 L255 -151 Q218 -151 191 -126 Q164 -101 164 -63 L164 0 L149 0 Q131 0 115 7 Q99 14 86.5 26 Q74 38 67 54.5 Q60 71 60 89 L60 660 Q60 678 67 694.5 Q74 711 86.5 723 Q99 735 115 742 Q131 749 149 749 L289 749 Q327 749 352.5 723 Q378 697 378 660 L378 89 Q378 52 352.5 26 Q327 0 289 0 L274 0 L274 -31 Q274 -40 283 -49.5 Q292 -59 303 -59 L323 -59 L323 -151 Z M198 659 Q187 659 178.5 649.5 Q170 640 170 628 L170 121 Q170 110 178.5 100.5 Q187 91 198 91 L241 91 Q253 91 261.5 100 Q270 109 270 121 L270 629 Q270 640 262 649.5 Q254 659 234 659 L198 659 Z " />
<glyph glyph-name="S" unicode="S" horiz-adv-x="403" d="M155 540 Q155 518 170.5 503.5 Q186 489 209.5 476.5 Q233 464 260 452 Q287 440 310.5 424.5 Q334 409 349.5 387.5 Q365 366 365 335 L365 89 Q365 52 338.5 26 Q312 0 274 0 L135 0 Q98 0 71.5 26 Q45 52 45 89 L45 219 L155 219 L155 121 Q155 110 163.5 100.5 Q172 91 183 91 L226 91 Q238 91 247 100 Q256 109 256 121 L256 291 Q256 317 240.5 335 Q225 353 201.5 367 Q178 381 151 392.5 Q124 404 100.5 418.5 Q77 433 61.5 451.5 Q46 470 46 497 L46 660 Q46 697 72.5 723 Q99 749 137 749 L274 749 Q312 749 338.5 723 Q365 697 365 660 L365 554 L256 554 L256 629 Q256 640 247.5 649.5 Q239 659 218 659 L183 659 Q172 659 163.5 649.5 Q155 640 155 628 L155 540 Z " />
<glyph glyph-name="T" unicode="T" horiz-adv-x="382" d="M41 749 L359 749 L359 640 L255 640 L255 0 L145 0 L145 640 L41 640 L41 749 Z " />
<glyph glyph-name="U" unicode="U" horiz-adv-x="418" d="M167 749 L167 121 Q167 110 175.5 100.5 Q184 91 195 91 L238 91 Q250 91 259 100 Q268 109 268 121 L268 749 L377 749 L377 89 Q377 52 350 26 Q323 0 286 0 L147 0 Q110 0 83.5 26 Q57 52 57 89 L57 749 L167 749 Z " />
<glyph glyph-name="W" unicode="W" horiz-adv-x="744" d="M425 749 L511 340 L524 151 L528 151 L541 340 L628 749 L747 749 L579 0 L476 0 L388 356 L376 545 L371 545 L359 356 L271 0 L168 0 L0 749 L119 749 L206 340 L219 151 L223 151 L236 340 L322 749 L425 749 Z " />
<glyph glyph-name="B" unicode="B" horiz-adv-x="423" d="M60 749 L289 749 Q326 749 353 723 Q380 697 380 660 L380 496 Q380 476 368 457 Q356 438 333 418 Q380 383 380 342 L380 89 Q380 52 353 26 Q326 0 289 0 L60 0 L60 749 Z M169 91 L241 91 Q253 91 261 100 Q269 109 269 121 L269 356 Q269 369 260.5 378.5 Q252 388 239 388 L169 388 L169 91 Z M239 478 Q252 478 260.5 487 Q269 496 269 508 L269 628 Q269 638 263 647.5 Q257 657 245 657 L169 657 L169 478 L239 478 Z " />
<glyph glyph-name="D" unicode="D" horiz-adv-x="427" d="M60 749 L288 749 Q325 749 352 723 Q379 697 379 660 L379 89 Q379 52 352 26 Q325 0 288 0 L60 0 L60 749 Z M269 629 Q269 640 262.5 649.5 Q256 659 244 659 L169 659 L169 91 L240 91 Q252 91 260.5 100 Q269 109 269 121 L269 629 Z " />
<glyph glyph-name="C" unicode="C" horiz-adv-x="407" d="M369 302 L369 89 Q369 52 343.5 26 Q318 0 280 0 L140 0 Q122 0 106 7 Q90 14 77.5 26 Q65 38 58 54.5 Q51 71 51 89 L51 660 Q51 678 58 694.5 Q65 711 77.5 723 Q90 735 106 742 Q122 749 140 749 L280 749 Q318 749 343.5 723 Q369 697 369 660 L369 431 L261 431 L261 628 Q261 638 254.5 647.5 Q248 657 236 657 L185 657 Q173 657 167 647.5 Q161 638 161 628 L161 121 Q161 110 168 100.5 Q175 91 185 91 L232 91 Q244 91 252.5 100 Q261 109 261 121 L261 302 L369 302 Z " />
<glyph glyph-name="E" unicode="E" horiz-adv-x="424" d="M61 749 L381 749 L381 640 L170 640 L170 421 L349 421 L349 312 L170 312 L170 109 L381 109 L381 0 L61 0 L61 749 Z " />
<glyph glyph-name="G" unicode="G" horiz-adv-x="409" d="M140 0 Q122 0 106 7 Q90 14 77.5 26 Q65 38 58 54.5 Q51 71 51 89 L51 660 Q51 678 58 694.5 Q65 711 77.5 723 Q90 735 106 742 Q122 749 140 749 L280 749 Q318 749 343.5 723 Q369 697 369 660 L369 471 L261 471 L261 628 Q261 638 254.5 647.5 Q248 657 236 657 L185 657 Q173 657 167 647.5 Q161 638 161 628 L161 121 Q161 110 168 101.5 Q175 93 185 91 L228 91 Q240 91 250.5 98 Q261 105 261 121 L261 233 L221 233 L221 343 L369 343 L369 0 L271 0 L254 24 Q244 13 233.5 6.5 Q223 0 211 0 L140 0 Z " />
<glyph glyph-name="H" unicode="H" horiz-adv-x="432" d="M269 312 L169 312 L169 0 L60 0 L60 749 L169 749 L169 421 L269 421 L269 749 L379 749 L379 0 L269 0 L269 312 Z " />
<glyph glyph-name="J" unicode="J" horiz-adv-x="362" d="M111 292 L111 121 Q111 109 119 100 Q127 91 138 91 L186 91 Q195 93 202 101 Q209 109 209 121 L209 749 L319 749 L319 89 Q319 52 293 26 Q267 0 230 0 L90 0 Q53 0 26.5 26 Q0 52 0 89 L0 292 L111 292 Z " />
<glyph glyph-name="K" unicode="K" horiz-adv-x="400" d="M169 546 L142 418 L147 418 L282 749 L399 749 L239 374 L399 0 L283 0 L147 330 L142 330 L169 192 L169 0 L60 0 L60 749 L169 749 L169 546 Z " />
<glyph glyph-name="L" unicode="L" horiz-adv-x="399" d="M169 109 L380 109 L380 0 L60 0 L60 749 L169 749 L169 109 Z " />
<glyph glyph-name="M" unicode="M" horiz-adv-x="550" d="M310 0 L253 0 L145 455 L140 455 L169 287 L169 0 L60 0 L60 749 L178 749 L262 419 L279 279 L284 279 L301 419 L385 749 L503 749 L503 0 L394 0 L394 287 L423 455 L418 455 L310 0 Z " />
<glyph glyph-name="O" unicode="O" horiz-adv-x="412" d="M139 0 Q121 0 105 7 Q89 14 76.5 26 Q64 38 57 54.5 Q50 71 50 89 L50 660 Q50 678 57 694.5 Q64 711 76.5 723 Q89 735 105 742 Q121 749 139 749 L279 749 Q317 749 342.5 723 Q368 697 368 660 L368 89 Q368 52 342.5 26 Q317 0 279 0 L139 0 Z M188 659 Q177 659 168.5 649.5 Q160 640 160 628 L160 121 Q160 110 168.5 100.5 Q177 91 188 91 L231 91 Q243 91 251.5 100 Q260 109 260 121 L260 629 Q260 640 252 649.5 Q244 659 224 659 L188 659 Z " />
<glyph glyph-name="N" unicode="N" horiz-adv-x="425" d="M380 0 L263 0 L144 469 L139 469 Q145 437 149 411 Q153 385 156.5 362.5 Q160 340 163 320.5 Q166 301 169 282 L169 0 L60 0 L60 749 L180 749 L295 283 L300 283 L270 471 L270 749 L380 749 L380 0 Z " />
<glyph glyph-name="I" unicode="I" horiz-adv-x="221" d="M66 749 L177 749 L177 0 L66 0 L66 749 Z " />
<glyph glyph-name="F" unicode="F" horiz-adv-x="414" d="M61 749 L381 749 L381 640 L170 640 L170 421 L349 421 L349 312 L170 312 L170 0 L61 0 L61 749 Z " />
<glyph glyph-name="V" unicode="V" horiz-adv-x="432" d="M202 329 L214 139 L219 139 L231 329 L318 749 L437 749 L268 0 L164 0 L-4 749 L114 749 L202 329 Z " />
<glyph glyph-name="zero" unicode="0" horiz-adv-x="389" d="M141 0 Q123 0 107 7 Q91 14 78.5 26 Q66 38 59 54.5 Q52 71 52 89 L52 660 Q52 678 59 694.5 Q66 711 78.5 723 Q91 735 107 742 Q123 749 141 749 L281 749 Q318 749 345 723 Q372 697 372 660 L372 89 Q372 52 345 26 Q318 0 281 0 L141 0 Z M190 659 Q179 659 170.5 649.5 Q162 640 162 628 L162 121 Q162 110 170.5 100.5 Q179 91 190 91 L233 91 Q245 91 254 100 Q263 109 263 121 L263 629 Q263 640 255 649.5 Q247 659 226 659 L190 659 Z " />
<glyph glyph-name="one" unicode="1" horiz-adv-x="264" d="M113 0 L113 554 L60 554 L60 664 Q71 673 82 685 Q91 696 99.5 711.5 Q108 727 113 749 L223 749 L223 0 L113 0 Z " />
<glyph glyph-name="two" unicode="2" horiz-adv-x="409" d="M372 607 Q372 598 369.5 589.5 Q367 581 364 574 L156 109 L372 109 L372 0 L53 0 L53 101 Q53 111 55 120.5 Q57 130 64 144 L251 557 Q255 566 259.5 584 Q264 602 264 628 Q264 646 255 652.5 Q246 659 234 659 L200 659 Q178 659 170.5 649.5 Q163 640 163 629 L163 554 L53 554 L53 660 Q53 678 60 694.5 Q67 711 79.5 723 Q92 735 108 742 Q124 749 142 749 L281 749 Q318 749 345 723 Q372 697 372 660 L372 607 Z " />
<glyph glyph-name="three" unicode="3" horiz-adv-x="389" d="M233 91 Q245 91 254 100 Q263 109 263 121 L263 358 Q263 370 253.5 379.5 Q244 389 231 389 L181 389 L181 480 L231 480 Q244 480 253.5 488.5 Q263 497 263 509 L263 628 Q263 638 256 647.5 Q249 657 237 657 L186 657 Q174 657 168 647.5 Q162 638 162 628 L162 581 L52 581 L52 660 Q52 678 59 694.5 Q66 711 78.5 723 Q91 735 107 742 Q123 749 141 749 L281 749 Q318 749 345 723 Q372 697 372 660 L372 511 Q372 488 359 466 Q346 444 327 433 Q348 423 360 401.5 Q372 380 372 357 L372 89 Q372 52 345 26 Q318 0 281 0 L141 0 Q123 0 107 7 Q91 14 78.5 26 Q66 38 59 54.5 Q52 71 52 89 L52 292 L162 292 L162 121 Q162 109 170.5 100 Q179 91 190 91 L233 91 L233 91 Z " />
<glyph glyph-name="four" unicode="4" horiz-adv-x="403" d="M52 331 L209 749 L369 749 L369 325 L450 325 L450 216 L369 216 L369 0 L260 0 L260 216 L52 216 L52 331 Z M162 325 L260 325 L260 520 L285 666 L279 666 L245 541 L162 325 Z " />
<glyph glyph-name="five" unicode="5" horiz-adv-x="389" d="M162 467 Q172 476 182 479.5 Q192 483 200 483 L281 483 Q318 483 345 458 Q372 433 372 395 L372 89 Q372 52 345 26 Q318 0 281 0 L141 0 Q123 0 107 7 Q91 14 78.5 26 Q66 38 59 54.5 Q52 71 52 89 L52 201 L162 201 L162 121 Q162 110 170.5 100.5 Q179 91 190 91 L233 91 Q245 91 254 100 Q263 109 263 121 L263 363 Q263 392 233 392 L195 392 Q166 392 160 359 L52 359 L52 749 L372 749 L372 659 L190 659 Q179 659 170.5 649.5 Q162 640 162 628 L162 467 Z " />
<glyph glyph-name="six" unicode="6" horiz-adv-x="389" d="M233 91 Q245 91 254 100 Q263 109 263 121 L263 363 Q263 373 253.5 382.5 Q244 392 233 392 L195 392 Q183 392 172.5 386 Q162 380 162 364 L162 121 Q162 110 170.5 100.5 Q179 91 190 91 L233 91 Z M281 483 Q318 483 345 458 Q372 433 372 395 L372 89 Q372 52 345 26 Q318 0 281 0 L141 0 Q123 0 107 7 Q91 14 78.5 26 Q66 38 59 54.5 Q52 71 52 89 L52 660 Q52 678 59 694.5 Q66 711 78.5 723 Q91 735 107 742 Q123 749 141 749 L281 749 Q318 749 345 723 Q372 697 372 660 L372 575 L263 575 L263 629 Q263 640 255 649.5 Q247 659 226 659 L190 659 Q179 659 170 649.5 Q161 640 161 628 L161 467 Q171 476 181 479.5 Q191 483 199 483 L281 483 Z " />
<glyph glyph-name="seven" unicode="7" horiz-adv-x="390" d="M56 749 L376 749 L376 650 Q376 643 374 634 Q372 625 370 617 L162 0 L51 0 L267 640 L56 640 L56 749 Z " />
<glyph glyph-name="eight" unicode="8" horiz-adv-x="389" d="M52 343 Q52 366 64 387.5 Q76 409 97 419 Q78 430 65 452 Q52 474 52 497 L52 662 Q52 699 78.5 724 Q105 749 141 749 L281 749 Q318 749 345 723 Q372 697 372 660 L372 497 Q372 474 359 452 Q346 430 327 419 Q348 409 360 387.5 Q372 366 372 343 L372 89 Q372 52 345 26 Q318 0 281 0 L141 0 Q123 0 107 7 Q91 14 78.5 26 Q66 38 59 54.5 Q52 71 52 89 L52 343 Z M192 375 Q180 375 171 365.5 Q162 356 162 343 L162 121 Q162 109 170.5 100 Q179 91 190 91 L233 91 Q245 91 254 100 Q263 109 263 121 L263 343 Q263 356 253.5 365.5 Q244 375 231 375 L192 375 Z M186 657 Q174 657 168 647.5 Q162 638 162 628 L162 495 Q162 483 171 474 Q180 465 192 465 L231 465 Q244 465 253.5 474 Q263 483 263 495 L263 628 Q263 638 256 647.5 Q249 657 237 657 L186 657 Z " />
<glyph glyph-name="nine" unicode="9" horiz-adv-x="409" d="M190 657 Q179 657 170.5 648 Q162 639 162 627 L162 385 Q162 375 170.5 365.5 Q179 356 190 356 L229 356 Q241 356 252 362 Q263 368 263 383 L263 628 Q263 638 253.5 647.5 Q244 657 233 657 L190 657 Z M141 265 Q123 265 107 271.5 Q91 278 78.5 290 Q66 302 59 318 Q52 334 52 353 L52 659 Q52 677 59 693.5 Q66 710 78.5 722 Q91 734 107 741 Q123 748 141 748 L281 748 Q318 748 345 722 Q372 696 372 659 L372 88 Q372 69 364.5 52.5 Q357 36 344.5 24 Q332 12 315.5 5.5 Q299 -1 281 -1 L141 -1 Q123 -1 107 5.5 Q91 12 78.5 24 Q66 36 59 52.5 Q52 69 52 88 L52 173 L162 173 L162 119 Q162 108 169.5 98.5 Q177 89 199 89 L233 89 Q245 89 254 98.5 Q263 108 263 121 L263 281 Q253 274 242.5 269.5 Q232 265 225 265 L141 265 Z " />
<glyph glyph-name="a" unicode="a" horiz-adv-x="416" d="M161 121 Q161 112 169.5 102.5 Q178 93 190 93 L228 93 Q240 93 250.5 99 Q261 105 261 122 L261 422 Q261 440 250.5 443 Q240 446 228 446 L184 446 Q173 446 167 436.5 Q161 427 161 418 L161 121 Z M228 540 Q236 540 247 535.5 Q258 531 268 520 Q279 540 302 540 L372 540 L372 0 L286 0 L267 22 Q259 12 248 6 Q237 0 226 0 L140 0 Q102 0 76 25.5 Q50 51 50 89 L50 451 Q50 488 76 514 Q102 540 140 540 L228 540 Z " />
<glyph glyph-name="b" unicode="b" horiz-adv-x="416" d="M204 0 Q191 0 182.5 4.5 Q174 9 164 22 L145 0 L60 0 L60 774 L171 774 L171 531 Q183 538 195.5 539 Q208 540 219 540 L293 540 Q330 540 356.5 514 Q383 488 383 451 L383 89 Q383 51 356.5 25.5 Q330 0 293 0 L204 0 Z M271 418 Q271 427 265 436.5 Q259 446 247 446 L203 446 Q190 446 180.5 443 Q171 440 171 422 L171 121 Q171 104 180.5 98.5 Q190 93 203 93 L245 93 Q256 93 263.5 102.5 Q271 112 271 121 L271 418 Z " />
<glyph glyph-name="c" unicode="c" horiz-adv-x="399" d="M371 154 L371 89 Q371 51 344.5 25.5 Q318 0 280 0 L139 0 Q102 0 75.5 25.5 Q49 51 49 89 L49 451 Q49 488 75.5 514 Q102 540 139 540 L280 540 Q318 540 344.5 514 Q371 488 371 451 L371 383 L260 383 L260 418 Q260 427 254.5 436.5 Q249 446 235 446 L183 446 Q172 446 166 436.5 Q160 427 160 418 L160 122 Q160 111 167.5 103 Q175 95 184 93 L231 93 Q244 93 252 102 Q260 111 260 122 L260 154 L371 154 Z " />
<glyph glyph-name="w" unicode="w" horiz-adv-x="634" d="M431 112 L439 218 L497 540 L617 540 L486 0 L372 0 L320 218 L315 218 L267 0 L150 0 L20 540 L141 540 L198 218 L206 112 L211 112 L219 218 L273 383 L231 540 L361 540 L418 218 L426 112 L431 112 Z " />
<glyph glyph-name="v" unicode="v" horiz-adv-x="398" d="M206 112 L214 218 L272 540 L387 540 L256 0 L151 0 L20 540 L135 540 L193 218 L201 112 L206 112 Z " />
<glyph glyph-name="u" unicode="u" horiz-adv-x="410" d="M141 0 Q122 0 105.5 7 Q89 14 76.5 26 Q64 38 57 54 Q50 70 50 89 L50 540 L162 540 L162 122 Q162 113 167.5 103.5 Q173 94 185 94 L228 94 Q242 94 251.5 99.5 Q261 105 261 122 L261 540 L372 540 L372 0 L297 0 Q285 0 276.5 3.5 Q268 7 264 20 Q253 7 242.5 3.5 Q232 0 224 0 L141 0 Z " />
<glyph glyph-name="t" unicode="t" horiz-adv-x="280" d="M83 427 L28 427 L28 540 L83 540 L83 625 L192 625 L192 540 L252 540 L252 429 L192 429 L192 119 Q192 111 199.5 102 Q207 93 221 93 L252 93 L252 0 L174 0 Q131 0 107 27 Q83 54 83 101 L83 427 Z " />
<glyph glyph-name="s" unicode="s" horiz-adv-x="399" d="M157 398 Q157 371 172.5 355 Q188 339 211.5 326 Q235 313 262.5 301 Q290 289 313.5 271 Q337 253 352.5 226 Q368 199 368 157 L368 89 Q368 51 341 25.5 Q314 0 277 0 L136 0 Q99 0 72.5 25.5 Q46 51 46 89 L46 160 L157 160 L157 121 Q157 112 165.5 102.5 Q174 93 185 93 L228 93 Q241 93 249 102 Q257 111 257 122 L257 146 Q257 171 241.5 187.5 Q226 204 202.5 217 Q179 230 152 241 Q125 252 101.5 266 Q78 280 62.5 299 Q47 318 47 347 L47 451 Q47 488 73.5 514 Q100 540 137 540 L277 540 Q295 540 311.5 531.5 Q328 523 340.5 508.5 Q353 494 360.5 476 Q368 458 368 440 L368 391 L257 391 L257 419 Q257 429 249.5 438.5 Q242 448 221 448 L185 448 Q174 448 165.5 438.5 Q157 429 157 418 L157 398 Z " />
<glyph glyph-name="q" unicode="q" horiz-adv-x="409" d="M142 0 Q123 0 106.5 7 Q90 14 77.5 26 Q65 38 58 54 Q51 70 51 89 L51 451 Q51 469 58 485.5 Q65 502 77.5 514 Q90 526 106.5 533 Q123 540 142 540 L237 540 Q244 540 253.5 535.5 Q263 531 271 524 Q276 531 284 535.5 Q292 540 304 540 L373 540 L373 -231 L263 -231 L263 8 Q258 5 252 2.5 Q246 0 240 0 L142 0 Z M163 121 Q163 112 171.5 102.5 Q180 93 191 93 L229 93 Q242 93 252.5 99 Q263 105 263 122 L263 422 Q263 440 252.5 443 Q242 446 229 446 L186 446 Q174 446 168.5 436.5 Q163 427 163 418 L163 121 Z " />
<glyph glyph-name="r" unicode="r" horiz-adv-x="366" d="M122 541 Q131 541 140.5 535 Q150 529 156 515 Q172 529 190.5 535 Q209 541 218 541 L282 541 Q320 541 346.5 515 Q373 489 373 452 L373 394 L263 394 L263 419 Q263 432 254 440 Q245 448 234 448 L194 448 Q180 448 171 439.5 Q162 431 162 419 L162 0 L51 0 L51 541 L122 541 L122 541 Z " />
<glyph glyph-name="p" unicode="p" horiz-adv-x="409" d="M186 0 Q175 0 164 8 L164 -231 L53 -231 L53 540 L123 540 Q145 540 155 525 Q163 531 172.5 535.5 Q182 540 189 540 L284 540 Q322 540 348.5 514 Q375 488 375 451 L375 89 Q375 51 348.5 25.5 Q322 0 284 0 L186 0 Z M264 418 Q264 427 258 436.5 Q252 446 240 446 L196 446 Q184 446 174 443 Q164 440 164 422 L164 122 Q164 105 174 99 Q184 93 196 93 L235 93 Q247 93 255.5 102.5 Q264 112 264 121 L264 418 Z " />
<glyph glyph-name="o" unicode="o" horiz-adv-x="406" d="M140 0 Q103 0 76.5 25.5 Q50 51 50 89 L50 451 Q50 488 76.5 514 Q103 540 140 540 L281 540 Q300 540 316.5 533 Q333 526 345.5 514 Q358 502 365 485.5 Q372 469 372 451 L372 89 Q372 70 365 54 Q358 38 345.5 26 Q333 14 316.5 7 Q300 0 281 0 L140 0 Z M190 448 Q178 448 169.5 438.5 Q161 429 161 418 L161 121 Q161 112 170 102.5 Q179 93 190 93 L232 93 Q245 93 253 102 Q261 111 261 122 L261 419 Q261 429 254 438.5 Q247 448 225 448 L190 448 Z " />
<glyph glyph-name="n" unicode="n" horiz-adv-x="417" d="M288 540 Q326 540 352.5 514 Q379 488 379 451 L379 0 L268 0 L268 418 Q268 427 262 436.5 Q256 446 244 446 L200 446 Q187 446 178 440.5 Q169 435 169 418 L169 0 L57 0 L57 540 L132 540 Q143 540 151.5 536.5 Q160 533 165 520 Q176 533 186.5 536.5 Q197 540 205 540 L288 540 Z " />
<glyph glyph-name="m" unicode="m" horiz-adv-x="621" d="M280 540 Q297 540 317 533.5 Q337 527 351 511 Q362 529 379.5 534.5 Q397 540 419 540 L498 540 Q536 540 562.5 514 Q589 488 589 451 L589 0 L477 0 L477 418 Q477 427 471.5 436.5 Q466 446 454 446 L411 446 Q397 446 387 441.5 Q377 437 377 418 L377 0 L267 0 L267 418 Q267 427 260.5 436.5 Q254 446 242 446 L198 446 Q186 446 176 440.5 Q166 435 166 418 L166 0 L54 0 L54 540 L130 540 Q154 540 162 520 Q173 532 183 536 Q193 540 203 540 L280 540 Z " />
<glyph glyph-name="l" unicode="l" horiz-adv-x="221" d="M63 774 L174 774 L174 0 L63 0 L63 774 Z " />
<glyph glyph-name="k" unicode="k" horiz-adv-x="386" d="M167 774 L167 477 L149 351 L154 351 L264 540 L382 540 L246 311 L383 0 L263 0 L154 265 L149 265 L167 127 L167 0 L59 0 L59 774 L167 774 Z " />
<glyph glyph-name="i" unicode="i" horiz-adv-x="215" d="M57 540 L168 540 L168 0 L57 0 L57 540 Z M48 709 Q48 736 66.5 755 Q85 774 112 774 Q139 774 157.5 755 Q176 736 176 709 Q176 682 157.5 664 Q139 646 112 646 Q85 646 66.5 664 Q48 682 48 709 Z " />
<glyph glyph-name="j" unicode="j" horiz-adv-x="216" d="M22 -148 Q37 -146 49 -136.5 Q61 -127 61 -116 L61 541 L170 541 L170 -149 Q170 -167 163 -183 Q156 -199 143.5 -211.5 Q131 -224 114.5 -231 Q98 -238 80 -238 L19 -238 L22 -148 Z M51 710 Q51 737 70 756 Q89 775 116 775 Q142 775 161 756 Q180 737 180 710 Q180 683 161 665 Q142 647 116 647 Q89 647 70 665 Q51 683 51 710 Z " />
<glyph glyph-name="h" unicode="h" horiz-adv-x="413" d="M60 0 L60 774 L171 774 L171 534 Q187 541 201 541 L293 541 Q330 541 356.5 515 Q383 489 383 452 L383 0 L271 0 L271 419 Q271 428 265 437.5 Q259 447 247 447 L203 447 Q190 447 180.5 444 Q171 441 171 423 L171 0 L60 0 Z " />
<glyph glyph-name="g" unicode="g" horiz-adv-x="409" d="M161 121 Q161 112 170 102.5 Q179 93 190 93 L228 93 Q240 93 250.5 99 Q261 105 261 122 L261 423 Q261 441 250.5 444 Q240 447 228 447 L184 447 Q173 447 167 437.5 Q161 428 161 419 L161 121 Z M140 0 Q102 0 76 25.5 Q50 51 50 89 L50 451 Q50 488 76 514 Q102 540 140 540 L247 540 Q260 540 270 532 Q275 537 281 538.5 Q287 540 292 540 L372 540 L372 -137 Q372 -174 345.5 -200 Q319 -226 281 -226 L140 -226 Q102 -226 76 -200 Q50 -174 50 -137 L50 -63 L161 -63 L161 -104 Q161 -116 169.5 -125 Q178 -134 190 -134 L237 -134 Q247 -132 254 -123.5 Q261 -115 261 -104 L261 16 Q251 8 241 4 Q231 0 224 0 L140 0 Z " />
<glyph glyph-name="f" unicode="f" horiz-adv-x="274" d="M59 672 Q59 720 83 747 Q107 774 151 774 L282 774 L282 664 L168 664 L168 540 L250 540 L250 429 L168 429 L168 0 L59 0 L59 672 Z " />
<glyph glyph-name="z" unicode="z" horiz-adv-x="386" d="M51 80 Q51 97 56 110 Q61 123 65 131 L137 270 Q157 310 178 349 Q199 388 219 429 L51 429 L51 540 L349 540 L349 453 Q349 440 344 428.5 Q339 417 336 410 L179 110 L358 110 L358 -1 L51 -1 L51 80 Z " />
<glyph glyph-name="y" unicode="y" horiz-adv-x="412" d="M375 540 L375 -141 Q375 -178 348.5 -204.5 Q322 -231 284 -231 L143 -231 Q105 -231 79 -204.5 Q53 -178 53 -141 L53 -65 L164 -65 L164 -108 Q164 -121 172.5 -129.5 Q181 -138 193 -138 L239 -138 Q250 -136 257 -128 Q264 -120 264 -108 L264 16 Q254 8 244 4 Q234 0 227 0 L143 0 Q105 0 79 25.5 Q53 51 53 89 L53 540 L164 540 L164 122 Q164 113 170 103.5 Q176 94 188 94 L231 94 Q243 94 253.5 97 Q264 100 264 118 L264 540 L375 540 Z " />
<glyph glyph-name="x" unicode="x" horiz-adv-x="390" d="M206 395 L264 540 L372 540 Q349 479 325.5 414 Q302 349 279 287 L373 0 L261 0 L206 168 L202 239 L197 239 L193 168 L138 0 L26 0 L120 287 Q97 349 73.5 414 Q50 479 27 540 L135 540 L193 395 L197 326 L202 326 L206 395 Z " />
<glyph glyph-name="d" unicode="d" horiz-adv-x="417" d="M373 774 L373 0 L289 0 L271 23 Q262 13 252 6.5 Q242 0 229 0 L141 0 Q103 0 77 25.5 Q51 51 51 89 L51 451 Q51 488 77 514 Q103 540 141 540 L218 540 Q225 540 238 535 Q251 530 263 520 L263 774 L373 774 Z M163 121 Q163 112 171 102.5 Q179 93 190 93 L230 93 Q242 93 252.5 98.5 Q263 104 263 121 L263 422 Q263 440 252.5 443 Q242 446 230 446 L187 446 Q175 446 169 436.5 Q163 427 163 418 L163 121 Z " />
<glyph glyph-name="e" unicode="e" horiz-adv-x="403" d="M372 154 L372 89 Q372 51 345.5 25.5 Q319 0 281 0 L140 0 Q102 0 76 25.5 Q50 51 50 89 L50 451 Q50 488 76 514 Q102 540 140 540 L281 540 Q319 540 345.5 514 Q372 488 372 451 L372 247 L161 247 L161 122 Q161 111 168.5 103 Q176 95 185 93 L232 93 Q245 93 253 102 Q261 111 261 122 L261 154 L372 154 Z M161 337 L261 337 L261 418 Q261 427 255.5 436.5 Q250 446 236 446 L184 446 Q173 446 167 436.5 Q161 427 161 418 L161 337 Z " />
<glyph glyph-name="at" unicode="&#x40;" horiz-adv-x="835" d="M436 640 Q444 640 455 635.5 Q466 631 477 620 Q482 632 491 636 Q500 640 511 640 L586 640 L586 174 Q592 147 615 125 Q638 103 667 103 Q700 103 724 127 Q748 151 748 185 L748 530 Q748 598 722.5 657 Q697 716 653 760 Q609 804 550 829.5 Q491 855 424 855 Q356 855 297.5 829 Q239 803 195.5 758.5 Q152 714 127 654.5 Q102 595 102 527 L102 189 Q102 122 127.5 62.5 Q153 3 197.5 -41.5 Q242 -86 301.5 -112 Q361 -138 429 -138 Q482 -138 535 -117 Q588 -96 633 -62 L675 -93 Q621 -136 556 -161 Q491 -186 426 -186 Q348 -186 279.5 -156.5 Q211 -127 160 -76 Q109 -25 79.5 44 Q50 113 50 192 L50 527 Q50 605 79.5 673.5 Q109 742 160 793.5 Q211 845 279.5 874.5 Q348 904 426 904 Q503 904 571.5 874.5 Q640 845 691.5 794 Q743 743 773 675 Q803 607 803 529 L803 189 Q803 158 791.5 131 Q780 104 759.5 84.5 Q739 65 712.5 53.5 Q686 42 656 42 Q624 42 598.5 50 Q573 58 553.5 71.5 Q534 85 520 103 Q506 121 498 140 Q481 113 465 104.5 Q449 96 426 96 L353 96 Q334 96 317.5 103 Q301 110 288.5 122.5 Q276 135 268.5 151.5 Q261 168 261 187 L261 549 Q261 587 288 613.5 Q315 640 353 640 L436 640 Z M373 219 Q373 209 382 199.5 Q391 190 402 190 L441 190 Q454 190 464 196.5 Q474 203 474 220 L474 521 Q474 539 464 542 Q454 545 441 545 L397 545 Q385 545 379 536 Q373 527 373 516 L373 219 Z " />
<glyph glyph-name="bracketleft" unicode="&#x5b;" horiz-adv-x="260" d="M225 -112 L53 -112 L53 775 L226 775 L226 684 L165 684 L165 -20 L225 -20 L225 -112 Z " />
<glyph glyph-name="backslash" unicode="&#x5c;" horiz-adv-x="514" d="M112 777 L537 -51 L430 -51 L2 777 L112 777 Z " />
<glyph glyph-name="bracketright" unicode="&#x5d;" horiz-adv-x="261" d="M115 -20 L115 684 L53 684 L53 775 L226 775 L226 -112 L55 -112 L55 -20 L115 -20 Z " />
<glyph glyph-name="parenright" unicode="&#x29;" horiz-adv-x="262" d="M49 776 L130 776 Q167 776 194 750.5 Q221 725 221 687 L221 -21 Q221 -59 194 -84 Q167 -109 130 -109 L48 -109 L48 -19 L83 -19 Q94 -19 102 -10.5 Q110 -2 110 12 L110 655 Q110 666 101.5 675 Q93 684 83 684 L49 684 L49 776 Z " />
<glyph glyph-name="parenleft" unicode="&#x28;" horiz-adv-x="260" d="M225 -111 L144 -111 Q107 -111 80 -85.5 Q53 -60 53 -22 L53 687 Q53 725 80 750.5 Q107 776 144 776 L226 776 L226 685 L192 685 Q180 685 172.5 676 Q165 667 165 654 L165 10 Q165 -1 173 -10 Q181 -19 192 -19 L225 -19 L225 -111 Z " />
<glyph glyph-name="asterisk" unicode="&#x2a;" horiz-adv-x="421" d="M189 770 L251 770 L251 656 L349 713 L379 661 L281 603 L380 546 L349 492 L251 549 L251 438 L189 438 L189 549 L91 493 L61 546 L159 603 L61 661 L91 714 L189 655 L189 770 Z " />
<glyph glyph-name="plus" unicode="&#x2b;" horiz-adv-x="398" d="M266 534 L266 428 L372 428 L372 319 L266 319 L266 212 L157 212 L157 319 L52 319 L52 428 L157 428 L157 534 L266 534 Z " />
<glyph glyph-name="comma" unicode="&#x2c;" horiz-adv-x="194" d="M54 0 L54 109 L163 109 L163 14 Q163 -24 161.5 -50.5 Q160 -77 149.5 -94.5 Q139 -112 117 -120 Q95 -128 54 -128 L54 -70 Q73 -70 84 -66 Q95 -62 100 -53.5 Q105 -45 106.5 -32 Q108 -19 108 0 L54 0 Z " />
<glyph glyph-name="hyphen" unicode="&#x2d;" horiz-adv-x="285" d="M54 405 L246 405 L246 297 L54 297 L54 405 Z " />
<glyph glyph-name="period" unicode="&#x2e;" horiz-adv-x="203" d="M54 109 L163 109 L163 0 L54 0 L54 109 Z " />
<glyph glyph-name="slash" unicode="&#x2f;" horiz-adv-x="514" d="M537 776 L109 -51 L2 -51 L427 776 L537 776 Z " />
<glyph glyph-name="ampersand" unicode="&#x26;" horiz-adv-x="434" d="M371 560 L371 435 L425 435 L425 344 L371 344 L371 0 L142 0 Q104 0 77.5 26 Q51 52 51 89 L51 312 Q51 335 63 355.5 Q75 376 92 390 Q75 404 63 425 Q51 446 51 468 L51 660 Q51 697 77.5 723 Q104 749 142 749 L330 749 L330 657 L186 657 Q174 657 167.5 647.5 Q161 638 161 628 L161 466 Q161 453 170 444 Q179 435 193 435 L262 435 L262 560 L371 560 Z M262 344 L193 344 Q179 344 170 335 Q161 326 161 314 L161 121 Q161 109 169.5 100 Q178 91 190 91 L262 91 L262 344 Z " />
<glyph glyph-name="dollar" unicode="&#x24;" horiz-adv-x="389" d="M157 512 Q157 490 172.5 475 Q188 460 211.5 447.5 Q235 435 262 423 Q289 411 312.5 395.5 Q336 380 351.5 358.5 Q367 337 367 306 L367 89 Q367 52 340 26 Q313 0 276 0 L262 0 L262 -53 L153 -53 L153 0 L136 0 Q118 0 102 7 Q86 14 73.5 26 Q61 38 54 54.5 Q47 71 47 89 L47 219 L157 219 L157 121 Q157 110 165.5 100.5 Q174 91 185 91 L228 91 Q240 91 249 100 Q258 109 258 121 L258 264 Q258 290 242.5 308 Q227 326 203.5 339.5 Q180 353 153 365 Q126 377 102.5 391 Q79 405 63.5 423.5 Q48 442 48 469 L48 633 Q48 651 55 667 Q62 683 74.5 695 Q87 707 103.5 714 Q120 721 138 721 L153 721 L153 774 L262 774 L262 721 L276 721 Q294 721 310.5 714 Q327 707 339.5 695 Q352 683 359.5 667 Q367 651 367 633 L367 527 L258 527 L258 601 Q258 612 249.5 622 Q241 632 220 632 L185 632 Q174 632 165.5 622 Q157 612 157 600 L157 512 Z " />
<glyph glyph-name="numbersign" unicode="&#x23;" horiz-adv-x="776" d="M544 446 L520 316 L715 316 L694 226 L501 226 L456 0 L364 0 L413 228 L283 228 L237 0 L149 0 L193 230 L0 230 L22 319 L214 319 L237 449 L45 449 L66 537 L260 537 L294 718 L384 718 L348 535 L477 535 L514 717 L600 717 L563 534 L760 534 L739 446 L544 446 Z M300 317 L432 317 L457 447 L327 447 L300 317 Z " />
<glyph glyph-name="exclam" unicode="&#x21;" horiz-adv-x="203" d="M143 208 L75 208 L53 775 L161 775 L143 208 Z M171 63 Q171 34 153 16.5 Q135 -1 108 -1 Q82 -1 63 16.5 Q44 34 44 63 Q44 90 63 108.5 Q82 127 108 127 Q135 127 153 108.5 Q171 90 171 63 Z " />
<glyph glyph-name="semicolon" unicode="&#x3b;" horiz-adv-x="203" d="M54 528 L163 528 L163 418 L54 418 L54 528 Z M54 0 L54 109 L163 109 L163 14 Q163 -24 161.5 -50.5 Q160 -77 149.5 -94.5 Q139 -112 117 -120 Q95 -128 54 -128 L54 -70 Q73 -70 84 -66 Q95 -62 100 -53.5 Q105 -45 106.5 -32 Q108 -19 108 0 L54 0 Z " />
<glyph glyph-name="colon" unicode="&#x3a;" horiz-adv-x="203" d="M54 109 L163 109 L163 0 L54 0 L54 109 Z M54 528 L163 528 L163 418 L54 418 L54 528 Z " />
<glyph glyph-name="less" unicode="&#x3c;" horiz-adv-x="398" d="M187 372 L244 368 L388 324 L388 216 L68 318 L68 431 L388 533 L388 425 L244 381 L187 377 L187 372 Z " />
<glyph glyph-name="equal" unicode="&#x3d;" horiz-adv-x="398" d="M52 236 L372 236 L372 127 L52 127 L52 236 Z M52 461 L372 461 L372 351 L52 351 L52 461 Z " />
<glyph glyph-name="greater" unicode="&#x3e;" horiz-adv-x="398" d="M253 375 L196 379 L52 423 L52 531 L372 429 L372 316 L52 214 L52 322 L196 366 L253 370 L253 375 Z " />
<glyph glyph-name="question" unicode="&#x3f;" horiz-adv-x="409" d="M275 63 Q275 34 256.5 16.5 Q238 -1 211 -1 Q185 -1 166 16.5 Q147 34 147 63 Q147 90 166 108.5 Q185 127 211 127 Q239 127 257 108.5 Q275 90 275 63 Z M271 331 Q267 323 266.5 315 Q266 307 266 302 L266 208 L156 208 L156 294 Q156 299 158.5 312 Q161 325 165 333 Q172 349 182 372.5 Q192 396 203 422.5 Q214 449 225.5 475.5 Q237 502 245.5 524 Q254 546 259.5 561.5 Q265 577 265 581 L265 628 Q265 640 256 649.5 Q247 659 235 659 L201 659 Q179 659 171.5 649.5 Q164 640 164 629 L164 546 L54 546 L54 660 Q54 678 61 694.5 Q68 711 80.5 723 Q93 735 109 742 Q125 749 143 749 L282 749 Q319 749 346 723 Q373 697 373 660 L373 582 Q373 575 368 561 Q363 547 351 519.5 Q339 492 319.5 446.5 Q300 401 271 331 Z " />
<glyph glyph-name="sterling" unicode="&#xa3;" horiz-adv-x="389" d="M260 509 L260 629 Q260 640 252.5 649.5 Q245 659 224 659 L189 659 Q178 659 171 650 Q164 641 162 630 L162 449 L242 449 L242 341 L162 341 L162 91 L233 91 Q245 91 252.5 100 Q260 109 260 121 L260 278 L371 278 L371 89 Q371 52 344.5 26 Q318 0 281 0 L52 0 L52 341 L-4 341 L-4 449 L52 449 L52 660 Q52 697 78 723 Q104 749 141 749 L281 749 Q318 749 344.5 723 Q371 697 371 660 L371 509 L260 509 Z " />
<glyph glyph-name="braceleft" unicode="&#x7b;" horiz-adv-x="273" d="M257 -112 L177 -112 Q140 -112 113 -86.5 Q86 -61 86 -23 L86 268 Q84 279 75.5 287 Q67 295 56 295 L27 295 L27 386 L57 386 Q68 386 77 394.5 Q86 403 86 416 L86 686 Q86 724 113 749.5 Q140 775 177 775 L258 775 L258 684 L224 684 Q213 684 204.5 675 Q196 666 196 653 L196 419 Q196 402 183 380.5 Q170 359 150 342 Q170 322 183 301.5 Q196 281 196 265 L196 9 Q196 -2 204.5 -11 Q213 -20 224 -20 L257 -20 L257 -112 Z " />
<glyph glyph-name="braceright" unicode="&#x7d;" horiz-adv-x="262" d="M53 -21 Q64 -21 72.5 -12 Q81 -3 81 8 L81 264 Q81 281 93.5 301 Q106 321 127 341 Q106 358 93.5 379 Q81 400 81 418 L81 652 Q81 665 73 674 Q65 683 53 683 L20 683 L20 774 L100 774 Q138 774 164.5 748.5 Q191 723 191 685 L191 416 Q191 403 200 394.5 Q209 386 220 386 L250 386 L250 295 L221 295 Q210 295 201.5 286.5 Q193 278 191 267 L191 -24 Q191 -62 164.5 -87.5 Q138 -113 100 -113 L21 -113 L21 -21 L53 -21 Z " />
<glyph glyph-name="bar" unicode="&#x7c;" horiz-adv-x="216" d="M54 774 L163 774 L163 -231 L54 -231 L54 774 Z " />
<glyph glyph-name="Euro" unicode="&#x20ac;" horiz-adv-x="407" d="M173 261 L173 121 Q173 109 179.5 100 Q186 91 196 91 L244 91 Q255 91 263 100 Q271 109 271 121 L271 169 L381 169 L381 89 Q381 52 355 26 Q329 0 292 0 L152 0 Q115 0 89 26 Q63 52 63 89 L63 261 L6 261 L6 329 L63 329 L63 418 L6 418 L6 486 L63 486 L63 660 Q63 697 89 723 Q115 749 152 749 L292 749 Q329 749 355 723 Q381 697 381 660 L381 552 L271 552 L271 628 Q271 638 265 647.5 Q259 657 248 657 L196 657 Q185 657 179 647.5 Q173 638 173 628 L173 486 L253 486 L253 418 L173 418 L173 329 L253 329 L253 261 L173 261 Z " />
<glyph glyph-name="yen" unicode="&#xa5;" horiz-adv-x="387" d="M18 749 L129 749 L187 504 L195 397 L200 397 L208 504 L266 749 L377 749 L291 397 L356 397 L356 287 L266 287 L253 234 L253 223 L356 223 L356 115 L253 115 L253 0 L142 0 L142 115 L39 115 L39 223 L142 223 L142 234 L129 287 L39 287 L39 397 L103 397 L18 749 Z " />
<glyph glyph-name="section" unicode="&#xa7;" horiz-adv-x="389" d="M53 333 Q53 342 57.5 354.5 Q62 367 70 379.5 Q78 392 89.5 404 Q101 416 115 425 Q78 444 65.5 466 Q53 488 53 502 L53 660 Q53 679 60 695.5 Q67 712 79.5 724 Q92 736 108 742.5 Q124 749 142 749 L281 749 Q299 749 315.5 742.5 Q332 736 344.5 724 Q357 712 364.5 695.5 Q372 679 372 660 L372 546 L263 546 L263 629 Q263 640 255 649.5 Q247 659 226 659 L190 659 Q179 659 170.5 649.5 Q162 640 162 628 L162 541 Q162 517 177.5 501.5 Q193 486 216.5 473.5 Q240 461 267 449 Q294 437 317.5 422 Q341 407 356.5 385.5 Q372 364 372 333 L372 178 Q372 169 368.5 156.5 Q365 144 357.5 130.5 Q350 117 338.5 104.5 Q327 92 312 84 Q331 75 342.5 64.5 Q354 54 360 44 Q366 34 368 25 Q370 16 370 9 L370 -143 Q370 -181 344 -206 Q318 -231 280 -231 L141 -231 Q123 -231 107 -224.5 Q91 -218 78.5 -206 Q66 -194 59 -178 Q52 -162 52 -143 L52 -29 L162 -29 L162 -112 Q162 -122 169.5 -132 Q177 -142 199 -142 L233 -142 Q245 -142 254 -132 Q263 -122 263 -110 L263 -31 Q263 -9 247.5 6.5 Q232 22 208.5 35 Q185 48 158 60 Q131 72 107.5 88 Q84 104 68.5 125 Q53 146 53 178 L53 333 Z M162 208 Q162 202 167 190.5 Q172 179 181 168.5 Q190 158 203 150 Q216 142 233 142 Q246 142 254.5 151 Q263 160 263 171 L263 304 Q263 310 257.5 320.5 Q252 331 242.5 341.5 Q233 352 219.5 360 Q206 368 190 368 Q178 368 170 359.5 Q162 351 162 339 L162 208 Z " />
<glyph glyph-name="dagger" unicode="&#x2020;" horiz-adv-x="216" d="M12 405 L53 405 L53 774 L162 774 L162 405 L204 405 L204 297 L162 297 L162 -231 L53 -231 L53 297 L12 297 L12 405 Z " />
<glyph glyph-name="daggerdbl" unicode="&#x2021;" horiz-adv-x="216" d="M12 461 L53 461 L53 774 L162 774 L162 461 L204 461 L204 351 L162 351 L162 236 L204 236 L204 127 L162 127 L162 -231 L53 -231 L53 127 L12 127 L12 236 L53 236 L53 351 L12 351 L12 461 Z " />
<glyph glyph-name="AE" unicode="&#xc6;" horiz-adv-x="591" d="M167 154 L132 0 L9 0 L188 749 L568 749 L568 640 L358 640 L358 421 L538 421 L538 312 L358 312 L358 109 L568 109 L568 0 L248 0 L248 154 L167 154 Z M186 245 L248 245 L248 461 L262 611 L256 611 L223 463 L186 245 Z " />
<glyph glyph-name="germandbls" unicode="&#xdf;" horiz-adv-x="389" d="M209 93 L233 93 Q246 93 254 102 Q262 111 262 122 L262 360 Q262 374 253.5 382 Q245 390 231 390 L209 390 L209 483 L231 483 Q245 483 253.5 492 Q262 501 262 515 L262 652 Q262 663 256.5 672.5 Q251 682 237 682 L161 682 L161 0 L51 0 L51 686 Q51 702 58 718 Q65 734 77 746.5 Q89 759 105.5 766.5 Q122 774 141 774 L282 774 Q320 774 346.5 748.5 Q373 723 373 685 L373 501 Q373 484 359.5 463.5 Q346 443 326 424 Q346 406 359.5 384.5 Q373 363 373 344 L373 89 Q373 51 346.5 25.5 Q320 0 282 0 L209 0 L209 93 Z " />
<glyph glyph-name="longs" unicode="&#x17f;" horiz-adv-x="345" d="M116 672 Q116 720 140 747 Q164 774 208 774 L339 774 L339 664 L225 664 L225 0 L116 0 L116 427 L54 427 L54 538 L116 538 L116 672 Z " />
<glyph glyph-name="cent" unicode="&#xa2;" horiz-adv-x="389" d="M156 -119 L156 0 L141 0 Q123 0 107 7 Q91 14 78.5 26 Q66 38 59 54.5 Q52 71 52 89 L52 446 Q52 465 59 481 Q66 497 78.5 509 Q91 521 107 527.5 Q123 534 141 534 L156 534 L156 650 L265 650 L265 534 L281 534 Q318 534 345 509 Q372 484 372 446 L372 379 L263 379 L263 413 Q263 420 254.5 428.5 Q246 437 238 442 L182 442 Q174 439 168 430 Q162 421 162 413 L162 121 Q162 110 168.5 101.5 Q175 93 185 91 L236 91 Q247 93 255 101 Q263 109 263 121 L263 153 L372 153 L372 89 Q372 52 345 26 Q318 0 281 0 L265 0 L265 -119 L156 -119 Z " />
<glyph glyph-name="space" unicode="&#x20;" horiz-adv-x="233" d="" />
<glyph glyph-name="acute" unicode="&#xb4;" horiz-adv-x="203" d="M90 749 L197 749 L140 640 L42 640 L90 749 Z " />
<glyph glyph-name="breve" unicode="&#x2d8;" horiz-adv-x="389" d="M137 649 Q100 649 73 675 Q46 701 46 738 L46 774 L153 774 Q153 760 163.5 749.5 Q174 739 191 739 L228 739 Q245 739 256 749.5 Q267 760 267 774 L374 774 L374 738 Q374 701 347 675 Q320 649 283 649 L137 649 L137 649 Z " />
<glyph glyph-name="cyrbreve" unicode="&#xf6d4;" horiz-adv-x="417" d="M276 749 Q313 749 340 723 Q367 697 367 660 L367 624 L260 624 Q260 638 249 648.5 Q238 659 221 659 L184 659 Q167 659 156.5 648.5 Q146 638 146 624 L39 624 L39 660 Q39 697 66 723 Q93 749 130 749 L276 749 Z " />
<glyph glyph-name="caron" unicode="&#x2c7;" horiz-adv-x="290" d="M-7 749 L105 749 L148 685 L190 749 L299 749 L197 592 L96 592 L-7 749 Z " />
<glyph glyph-name="cedilla" unicode="&#xb8;" horiz-adv-x="355" d="M68 -136 Q103 -135 118.5 -121.5 Q134 -108 134 -88 Q134 -56 101 0 L143 0 Q157 -12 169 -28.5 Q181 -45 190 -63.5 Q199 -82 204 -100.5 Q209 -119 209 -135 Q209 -172 183.5 -199.5 Q158 -227 100 -227 Q90 -227 76 -225.5 Q62 -224 39 -219 L68 -136 Z " />
<glyph glyph-name="circumflex" unicode="&#x2c6;" horiz-adv-x="290" d="M96 749 L197 749 L300 592 L190 592 L147 655 L105 592 L-7 592 L96 749 Z " />
<glyph glyph-name="dieresis" unicode="&#xa8;" horiz-adv-x="406" d="M43 711 Q43 738 61.5 756.5 Q80 775 106 775 Q133 775 151.5 756.5 Q170 738 170 711 Q170 684 151.5 665.5 Q133 647 106 647 Q80 647 61.5 665.5 Q43 684 43 711 Z M248 711 Q248 738 266.5 756.5 Q285 775 312 775 Q338 775 357 756.5 Q376 738 376 711 Q376 684 357 665.5 Q338 647 312 647 Q285 647 266.5 665.5 Q248 684 248 711 Z " />
<glyph glyph-name="dotaccent" unicode="&#x2d9;" horiz-adv-x="203" d="M40 711 Q40 738 59 756.5 Q78 775 103 775 Q131 775 149 756.5 Q167 738 167 711 Q167 684 149 665.5 Q131 647 103 647 Q78 647 59 665.5 Q40 684 40 711 Z " />
<glyph glyph-name="hungarumlaut" unicode="&#x2dd;" horiz-adv-x="439" d="M90 749 L197 749 L140 640 L42 640 L90 749 Z M294 749 L401 749 L344 640 L246 640 L294 749 Z " />
<glyph glyph-name="grave" unicode="&#x60;" horiz-adv-x="203" d="M165 640 L69 640 L12 749 L119 749 L165 640 Z " />
<glyph glyph-name="ogonek" unicode="&#x2db;" horiz-adv-x="355" d="M228 -215 Q204 -230 172 -230 Q152 -230 131.5 -223.5 Q111 -217 95 -205 Q79 -193 69 -175.5 Q59 -158 59 -135 Q59 -119 64 -100 Q69 -81 78 -63 Q87 -45 99 -28.5 Q111 -12 125 0 L167 0 Q152 -27 143 -49.5 Q134 -72 134 -88 Q134 -108 149.5 -121.5 Q165 -135 200 -136 L228 -215 Z " />
<glyph glyph-name="ring" unicode="&#x2da;" horiz-adv-x="389" d="M218 759 Q229 759 233.5 763 Q238 767 238 772 L238 786 Q238 791 234.5 795.5 Q231 800 226 800 L193 800 Q182 800 177.5 795.5 Q173 791 173 786 L173 774 Q173 768 176.5 763.5 Q180 759 185 759 L218 759 Z M158 692 Q136 692 118.5 709 Q101 726 101 748 L101 811 Q101 834 118.5 850.5 Q136 867 158 867 L253 867 Q276 867 293 850.5 Q310 834 310 811 L310 748 Q310 726 293 709 Q276 692 253 692 L158 692 Z " />
<glyph glyph-name="tilde" unicode="&#x2dc;" horiz-adv-x="353" d="M141 749 Q158 749 173 742.5 Q188 736 203 728.5 Q218 721 233 715 Q248 709 266 709 Q276 709 287 717.5 Q298 726 309 749 L391 749 Q386 680 357.5 643 Q329 606 286 606 Q270 606 253.5 612.5 Q237 619 221 627 Q205 635 189.5 641.5 Q174 648 161 648 Q150 648 140.5 639 Q131 630 121 606 L36 606 Q41 672 70 710.5 Q99 749 141 749 Z " />
<glyph glyph-name="Acute" unicode="&#xf6c9;" horiz-adv-x="203" d="M90 896 L197 896 L140 787 L42 787 L90 896 Z " />
<glyph glyph-name="cyrBreve" unicode="&#xf6d1;" horiz-adv-x="417" d="M276 896 Q313 896 340 870 Q367 844 367 807 L367 771 L260 771 Q260 785 249 795.5 Q238 806 221 806 L184 806 Q167 806 156.5 795.5 Q146 785 146 771 L39 771 L39 807 Q39 844 66 870 Q93 896 130 896 L276 896 Z " />
<glyph glyph-name="Caron" unicode="&#xf6ca;" horiz-adv-x="290" d="M-7 896 L105 896 L148 832 L190 896 L299 896 L197 739 L96 739 L-7 896 Z " />
<glyph glyph-name="Hungarumlaut" unicode="&#xf6cf;" horiz-adv-x="439" d="M90 895 L197 895 L140 786 L42 786 L90 895 Z M294 896 L401 896 L344 787 L246 787 L294 896 Z " />
<glyph glyph-name="Grave" unicode="&#xf6ce;" horiz-adv-x="203" d="M165 786 L69 786 L12 895 L119 895 L165 786 Z " />
<glyph glyph-name="OE" unicode="&#x152;" horiz-adv-x="603" d="M139 0 Q102 0 76 26 Q50 52 50 89 L50 660 Q50 697 76 723 Q102 749 139 749 L579 749 L579 640 L369 640 L369 421 L549 421 L549 312 L369 312 L369 109 L579 109 L579 0 L139 0 Z M188 659 Q177 659 168.5 649.5 Q160 640 160 628 L160 121 Q160 110 168.5 100.5 Q177 91 188 91 L231 91 Q243 91 250.5 100 Q258 109 258 121 L258 629 Q258 640 251 649.5 Q244 659 223 659 L188 659 Z " />
<glyph glyph-name="questiondown" unicode="&#xbf;" horiz-adv-x="409" d="M173 476 Q173 505 191.5 522.5 Q210 540 237 540 Q263 540 282 522.5 Q301 505 301 476 Q301 449 282 430.5 Q263 412 237 412 Q209 412 191 430.5 Q173 449 173 476 Z M177 208 Q181 216 181.5 224 Q182 232 182 237 L182 331 L292 331 L292 245 Q292 240 289.5 227 Q287 214 283 206 Q272 182 255.5 142.5 Q239 103 222.5 64 Q206 25 194.5 -5.5 Q183 -36 183 -42 L183 -89 Q183 -101 192 -110.5 Q201 -120 213 -120 L247 -120 Q269 -120 276.5 -110.5 Q284 -101 284 -90 L284 -7 L394 -7 L394 -121 Q394 -139 387 -155.5 Q380 -172 367.5 -184 Q355 -196 339 -203 Q323 -210 305 -210 L166 -210 Q129 -210 102 -184 Q75 -158 75 -121 L75 -43 Q75 -36 80 -22 Q85 -8 97 19.5 Q109 47 128.5 92.5 Q148 138 177 208 Z " />
<glyph glyph-name="exclamdown" unicode="&#xa1;" horiz-adv-x="203" d="M161 -231 L53 -231 L75 336 L143 336 L161 -231 Z M171 481 Q171 454 153 435.5 Q135 417 108 417 Q82 417 63 435.5 Q44 454 44 481 Q44 510 63 527.5 Q82 545 108 545 Q135 545 153 527.5 Q171 510 171 481 Z " />
<glyph glyph-name="endash" unicode="&#x2013;" horiz-adv-x="409" d="M53 405 L369 405 L369 297 L53 297 L53 405 Z " />
<glyph glyph-name="emdash" unicode="&#x2014;" horiz-adv-x="613" d="M51 405 L579 405 L579 297 L51 297 L51 405 Z " />
<glyph glyph-name="plusminus" unicode="&#xb1;" horiz-adv-x="398" d="M51 167 L370 167 L370 59 L51 59 L51 167 Z M266 533 L266 427 L372 427 L372 318 L266 318 L266 211 L157 211 L157 318 L52 318 L52 427 L157 427 L157 533 L266 533 Z " />
<glyph glyph-name="exclamdbl" unicode="&#x203c;" horiz-adv-x="409" d="M144 208 L76 208 L54 775 L162 775 L144 208 Z M172 63 Q172 34 154 16.5 Q136 -1 109 -1 Q83 -1 64 16.5 Q45 34 45 63 Q45 90 64 108.5 Q83 127 109 127 Q136 127 154 108.5 Q172 90 172 63 Z M349 208 L281 208 L259 775 L367 775 L349 208 Z M377 63 Q377 34 359 16.5 Q341 -1 314 -1 Q288 -1 269 16.5 Q250 34 250 63 Q250 90 269 108.5 Q288 127 314 127 Q341 127 359 108.5 Q377 90 377 63 Z " />
<glyph glyph-name="underscore" unicode="&#x5f;" horiz-adv-x="409" d="M53 23 L369 23 L369 -85 L53 -85 L53 23 Z " />
<glyph glyph-name="quotedblright" unicode="&#x201d;" horiz-adv-x="406" d="M251 774 L360 774 L360 678 Q360 641 358.5 614 Q357 587 346.5 570 Q336 553 314 544.5 Q292 536 251 536 L251 594 Q270 594 281 598 Q292 602 297 610.5 Q302 619 303.5 632.5 Q305 646 305 665 L251 665 L251 774 Z M53 665 L53 774 L162 774 L162 678 Q162 641 160.5 614 Q159 587 148.5 570 Q138 553 116 544.5 Q94 536 53 536 L53 594 Q72 594 83 598 Q94 602 99 610.5 Q104 619 105.5 632.5 Q107 646 107 665 L53 665 Z " />
<glyph glyph-name="quoteright" unicode="&#x2019;" horiz-adv-x="189" d="M22 774 L132 774 L132 678 Q132 641 130.5 614 Q129 587 118.5 570 Q108 553 85.5 544.5 Q63 536 22 536 L22 594 Q41 594 52 598 Q63 602 68 610.5 Q73 619 74.5 632.5 Q76 646 76 665 L22 665 L22 774 Z " />
<glyph glyph-name="quoteleft" unicode="&#x2018;" horiz-adv-x="194" d="M163 536 L54 536 L54 632 Q54 669 55.5 696 Q57 723 67.5 740 Q78 757 100 765.5 Q122 774 163 774 L163 716 Q144 716 133 712 Q122 708 117 699.5 Q112 691 110.5 678 Q109 665 109 646 L163 646 L163 536 Z " />
<glyph glyph-name="quotedblleft" unicode="&#x201c;" horiz-adv-x="406" d="M361 540 L252 540 L252 636 Q252 673 253.5 700 Q255 727 265.5 744 Q276 761 298 769.5 Q320 778 361 778 L361 719 Q342 719 331 715 Q320 711 315 703 Q310 695 308.5 682 Q307 669 307 650 L361 650 L361 540 Z M163 539 L54 539 L54 635 Q54 672 55.5 699 Q57 726 67.5 743 Q78 760 100 768.5 Q122 777 163 777 L163 718 Q144 718 133 714 Q122 710 117 702 Q112 694 110.5 681 Q109 668 109 649 L163 649 L163 539 Z " />
<glyph glyph-name="brokenbar" unicode="&#xa6;" horiz-adv-x="216" d="M54 352 L54 774 L163 774 L163 352 L54 352 Z M54 -231 L54 188 L163 188 L163 -231 L54 -231 Z " />
<glyph glyph-name="fraction" unicode="&#x2044;" horiz-adv-x="435" d="M536 822 L113 0 L7 0 L426 822 L536 822 Z " />
<glyph glyph-name="percent" unicode="&#x25;" horiz-adv-x="681" d="M612 775 L215 0 L108 0 L502 775 L612 775 Z M130 427 Q112 427 95.5 434 Q79 441 67 453.5 Q55 466 47.5 482.5 Q40 499 40 517 L40 685 Q40 703 47.5 719 Q55 735 67 747.5 Q79 760 95.5 767 Q112 774 130 774 L240 774 Q258 774 274.5 767 Q291 760 303.5 747.5 Q316 735 323.5 719 Q331 703 331 685 L331 517 Q331 499 323.5 482.5 Q316 466 303.5 453.5 Q291 441 274.5 434 Q258 427 240 427 L130 427 Z M173 683 Q162 683 154 674 Q146 665 146 652 L146 548 Q146 537 154 528 Q162 519 173 519 L197 519 Q209 519 217 527.5 Q225 536 225 549 L225 654 Q225 665 217 674 Q209 683 189 683 L173 683 Z M478 -1 Q460 -1 443.5 6 Q427 13 415 25 Q403 37 395.5 53.5 Q388 70 388 89 L388 257 Q388 275 395.5 291 Q403 307 415 319 Q427 331 443.5 338 Q460 345 478 345 L588 345 Q606 345 622.5 338 Q639 331 651.5 319 Q664 307 671 291 Q678 275 678 257 L678 89 Q678 51 651.5 25 Q625 -1 588 -1 L478 -1 Z M521 255 Q510 255 501.5 245.5 Q493 236 493 223 L493 120 Q493 109 501.5 99.5 Q510 90 521 90 L544 90 Q557 90 565 99 Q573 108 573 121 L573 225 Q573 236 565.5 245.5 Q558 255 536 255 L521 255 Z " />
<glyph glyph-name="perthousand" unicode="&#x2030;" horiz-adv-x="1063" d="M130 427 Q112 427 96 434 Q80 441 67.5 453.5 Q55 466 48 482.5 Q41 499 41 517 L41 685 Q41 703 48 719 Q55 735 67.5 747.5 Q80 760 96 767 Q112 774 130 774 L240 774 Q259 774 275.5 767 Q292 760 304.5 747.5 Q317 735 324 719 Q331 703 331 685 L331 517 Q331 480 304.5 453.5 Q278 427 240 427 L130 427 Z M173 683 Q162 683 154 674 Q146 665 146 652 L146 548 Q146 537 154 528 Q162 519 173 519 L197 519 Q209 519 217.5 527.5 Q226 536 226 549 L226 654 Q226 665 218 674 Q210 683 189 683 L173 683 Z M478 -1 Q441 -1 414.5 25 Q388 51 388 89 L388 257 Q388 275 395 291 Q402 307 414.5 319 Q427 331 443.5 338 Q460 345 478 345 L588 345 Q606 345 622.5 338 Q639 331 651.5 319 Q664 307 671 291 Q678 275 678 257 L678 89 Q678 51 651.5 25 Q625 -1 588 -1 L478 -1 Z M520 255 Q509 255 501 245.5 Q493 236 493 223 L493 120 Q493 109 501.5 99.5 Q510 90 520 90 L544 90 Q557 90 565 99 Q573 108 573 121 L573 225 Q573 236 565 245.5 Q557 255 537 255 L520 255 Z M801 -1 Q783 -1 767 6 Q751 13 739 25 Q727 37 720 53.5 Q713 70 713 89 L713 257 Q713 275 720 291 Q727 307 739 319 Q751 331 767 338 Q783 345 801 345 L913 345 Q931 345 947.5 338 Q964 331 976 319 Q988 307 995 291 Q1002 275 1002 257 L1002 89 Q1002 51 976 25 Q950 -1 913 -1 L801 -1 Z M845 255 Q834 255 825.5 245.5 Q817 236 817 223 L817 120 Q817 109 826 99.5 Q835 90 845 90 L869 90 Q881 90 889.5 99 Q898 108 898 121 L898 225 Q898 236 890 245.5 Q882 255 861 255 L845 255 Z M613 774 L217 0 L109 0 L503 774 L613 774 Z " />
<glyph glyph-name="Dieresis" unicode="&#xf6cb;" horiz-adv-x="406" d="M43 854 Q43 881 61.5 899.5 Q80 918 106 918 Q133 918 151.5 899.5 Q170 881 170 854 Q170 827 151.5 808.5 Q133 790 106 790 Q80 790 61.5 808.5 Q43 827 43 854 Z M248 854 Q248 881 266.5 899.5 Q285 918 312 918 Q338 918 357 899.5 Q376 881 376 854 Q376 827 357 808.5 Q338 790 312 790 Q285 790 266.5 808.5 Q248 827 248 854 Z " />
<glyph glyph-name="commaaccent" unicode="&#xf6c3;" horiz-adv-x="203" d="M54 767 L54 876 L163 876 L163 781 Q163 743 161.5 716.5 Q160 690 149.5 672.5 Q139 655 117 647 Q95 639 54 639 L54 697 Q73 697 84 701 Q95 705 100 713.5 Q105 722 106.5 735 Q108 748 108 767 L54 767 Z " />
<glyph glyph-name="dieresisacute" unicode="&#xf6d7;" horiz-adv-x="436" d="M90 749 L197 749 L140 640 L42 640 L90 749 Z M279 749 L386 749 L329 640 L231 640 L279 749 Z " />
<glyph glyph-name="dieresisgrave" unicode="&#xf6d8;" horiz-adv-x="378" d="M165 640 L69 640 L12 749 L119 749 L165 640 Z M352 640 L256 640 L199 749 L306 749 L352 640 Z " />
<glyph glyph-name="DieresisAcute" unicode="&#xf6cc;" horiz-adv-x="436" d="M90 896 L197 896 L140 787 L42 787 L90 896 Z M279 896 L386 896 L329 787 L231 787 L279 896 Z " />
<glyph glyph-name="DieresisGrave" unicode="&#xf6cd;" horiz-adv-x="378" d="M165 787 L69 787 L12 896 L119 896 L165 787 Z M352 787 L256 787 L199 896 L306 896 L352 787 Z " />
<glyph glyph-name="macron" unicode="&#xaf;" horiz-adv-x="409" d="M58 774 L355 774 L355 679 L58 679 L58 774 Z " />
<glyph glyph-name="quotesinglbase" unicode="&#x201a;" horiz-adv-x="194" d="M54 0 L54 109 L163 109 L163 14 Q163 -24 161.5 -50.5 Q160 -77 149.5 -94.5 Q139 -112 117 -120 Q95 -128 54 -128 L54 -70 Q73 -70 84 -66 Q95 -62 100 -53.5 Q105 -45 106.5 -32 Q108 -19 108 0 L54 0 Z " />
<glyph glyph-name="quotedblbase" unicode="&#x201e;" horiz-adv-x="406" d="M53 99 L163 99 L163 3 Q163 -34 161.5 -61 Q160 -88 149.5 -105 Q139 -122 116.5 -130.5 Q94 -139 53 -139 L53 -81 Q72 -81 83 -77 Q94 -73 99 -64.5 Q104 -56 105.5 -42.5 Q107 -29 107 -10 L53 -10 L53 99 Z M256 99 L366 99 L366 3 Q366 -34 364.5 -61 Q363 -88 352.5 -105 Q342 -122 319.5 -130.5 Q297 -139 256 -139 L256 -81 Q275 -81 286 -77 Q297 -73 302 -64.5 Q307 -56 308.5 -42.5 Q310 -29 310 -10 L256 -10 L256 99 Z " />
<glyph glyph-name="multiply" unicode="&#xd7;" horiz-adv-x="398" d="M366 449 L290 373 L364 299 L288 222 L214 297 L139 221 L62 297 L138 372 L63 448 L141 523 L214 449 L289 525 L366 449 Z " />
<glyph glyph-name="divide" unicode="&#xf7;" horiz-adv-x="369" d="M32 208 L32 316 L351 316 L351 208 L32 208 Z M137 109 L247 109 L247 0 L137 0 L137 109 Z M137 528 L247 528 L247 418 L137 418 L137 528 Z " />
<glyph glyph-name="notequal" unicode="&#x2260;" horiz-adv-x="398" d="M53 461 L215 461 L252 553 L358 553 L324 461 L373 461 L373 351 L286 351 Q275 320 264.5 294 Q254 268 243 236 L373 236 L373 127 L205 127 Q195 101 183.5 72 Q172 43 162 17 L52 17 L93 127 L53 127 L53 236 L133 236 Q144 268 154.5 294 Q165 320 176 351 L53 351 L53 461 Z " />
<glyph glyph-name="florin" unicode="&#x192;" horiz-adv-x="284" d="M52 672 Q52 720 76 747 Q100 774 144 774 L275 774 L275 664 L163 664 L163 540 L244 540 L244 429 L163 429 L163 -129 Q163 -176 138.5 -203.5 Q114 -231 71 -231 L-60 -231 L-60 -120 L52 -120 L52 672 Z " />
<glyph glyph-name="ae" unicode="&#xe6;" horiz-adv-x="607" d="M138 0 Q100 0 73.5 25.5 Q47 51 47 89 L47 451 Q47 488 73.5 514 Q100 540 138 540 L219 540 Q240 540 253.5 531 Q267 522 275 512 Q289 524 308 532 Q327 540 346 540 L490 540 Q509 540 526 533 Q543 526 555.5 514 Q568 502 575 485.5 Q582 469 582 451 L582 247 L369 247 L369 120 Q371 109 377.5 101.5 Q384 94 392 93 L442 93 Q453 93 461.5 102 Q470 111 470 122 L470 154 L582 154 L582 89 Q582 70 575 54 Q568 38 555.5 26 Q543 14 526 7 Q509 0 490 0 L349 0 Q342 0 320 4 Q298 8 275 28 Q264 17 256 8.5 Q248 0 228 0 L138 0 Z M158 121 Q158 112 166.5 102.5 Q175 93 186 93 L226 93 Q238 93 248 99 Q258 105 258 122 L258 422 Q258 440 248 443 Q238 446 226 446 L182 446 Q170 446 164 436.5 Q158 427 158 418 L158 121 Z M393 446 Q382 446 376 438.5 Q370 431 369 423 L369 337 L470 337 L470 418 Q470 427 464 436.5 Q458 446 446 446 L393 446 Z " />
<glyph glyph-name="minus" unicode="&#x2212;" horiz-adv-x="398" d="M372 428 L372 319 L52 319 L52 428 L372 428 Z " />
<glyph glyph-name="bullet" unicode="&#x2022;" horiz-adv-x="203" d="M111 450 L186 374 L110 297 L34 373 L111 450 Z " />
<glyph glyph-name="greaterequal" unicode="&#x2265;" horiz-adv-x="419" d="M373 236 L373 127 L53 127 L53 236 L373 236 Z M253 496 L196 500 L52 544 L52 652 L372 550 L372 437 L52 335 L52 443 L196 487 L253 491 L253 496 Z " />
<glyph glyph-name="lessequal" unicode="&#x2264;" horiz-adv-x="419" d="M229 488 L373 444 L373 336 L53 438 L53 551 L373 653 L373 545 L229 501 L172 497 L172 492 L229 488 Z M373 236 L373 127 L53 127 L53 236 L373 236 Z " />
<glyph glyph-name="approxequal" unicode="&#x2248;" horiz-adv-x="398" d="M266 339 Q252 339 239.5 344 Q227 349 215 355.5 Q203 362 191 367 Q179 372 165 372 Q144 372 128 344 L54 363 Q70 410 98.5 443 Q127 476 162 476 Q176 476 188 471 Q200 466 212 459.5 Q224 453 236.5 448 Q249 443 263 443 Q272 443 283 450 Q294 457 302 469 L373 450 Q359 402 330 370.5 Q301 339 266 339 Z M266 114 Q252 114 239.5 119.5 Q227 125 215 131 Q203 137 191 142.5 Q179 148 165 148 Q144 148 128 120 L54 139 Q70 186 98.5 219 Q127 252 162 252 Q176 252 188 246.5 Q200 241 212 235 Q224 229 236.5 223.5 Q249 218 263 218 Q272 218 283 225 Q294 232 302 245 L373 225 Q359 177 330 145.5 Q301 114 266 114 Z " />
<glyph glyph-name="logicalnot" unicode="&#xac;" horiz-adv-x="556" d="M498 534 L498 308 L390 308 L390 425 L52 425 L52 534 L498 534 Z " />
<glyph glyph-name="paragraph" unicode="&#xb6;" horiz-adv-x="396" d="M310 688 L242 688 L242 0 L182 0 L182 430 L142 430 Q105 430 79 456 Q53 482 53 520 L53 659 Q53 696 79 722.5 Q105 749 142 749 L420 749 L420 688 L371 688 L371 0 L310 0 L310 688 Z " />
<glyph glyph-name="mu" unicode="&#xb5;" horiz-adv-x="409" d="M162 -231 L51 -231 L51 541 L163 541 L163 122 Q163 113 168.5 103.5 Q174 94 186 94 L229 94 Q243 94 252.5 99.5 Q262 105 262 122 L262 541 L373 541 L373 0 L298 0 Q288 0 278.5 4.5 Q269 9 265 19 Q254 8 243.5 4 Q233 0 225 0 L162 0 L162 -231 Z " />
<glyph glyph-name="thorn" unicode="&#xfe;" horiz-adv-x="412" d="M263 419 Q263 429 257 438.5 Q251 448 239 448 L194 448 Q183 448 173 445 Q163 442 163 424 L163 122 Q163 105 173 99 Q183 93 194 93 L233 93 Q245 93 254 102.5 Q263 112 263 121 L263 419 Z M161 -230 L51 -230 L51 774 L161 774 L161 527 Q170 535 178.5 538.5 Q187 542 194 542 L283 542 Q320 542 346.5 516 Q373 490 373 452 L373 89 Q373 51 346.5 25.5 Q320 0 283 0 L194 0 Q178 0 161 14 L161 -230 Z " />
<glyph glyph-name="radical" unicode="&#x221a;" horiz-adv-x="509" d="M271 340 L284 151 L288 151 L301 340 L389 749 L507 749 L338 0 L234 0 L136 435 L40 435 L40 542 L228 542 L271 340 Z " />
<glyph glyph-name="integral" unicode="&#x222b;" horiz-adv-x="284" d="M53 673 Q53 720 77 747 Q101 774 145 774 L275 774 L275 665 L162 665 L162 -131 Q162 -177 138.5 -204 Q115 -231 72 -231 L-58 -231 L-58 -122 L53 -122 L53 673 Z " />
<glyph glyph-name="Eng" unicode="&#x14a;" horiz-adv-x="426" d="M381 -139 Q381 -177 354 -202 Q327 -227 290 -227 L151 -227 Q114 -227 87.5 -202 Q61 -177 61 -139 L61 -62 L161 -62 L161 -105 Q161 -118 169 -127 Q177 -136 189 -136 L245 -136 Q256 -136 263.5 -127 Q271 -118 271 -105 Q271 -80 270 -51 Q269 -22 264 0 L145 469 L140 469 L170 282 L170 0 L61 0 L61 749 L181 749 L296 283 L301 283 L271 471 L271 749 L381 749 L381 -139 Z " />
<glyph glyph-name="eng" unicode="&#x14b;" horiz-adv-x="426" d="M241 -138 Q252 -136 260 -127.5 Q268 -119 268 -108 L268 418 Q268 427 262 436.5 Q256 446 244 446 L200 446 Q187 446 178 440.5 Q169 435 169 418 L169 0 L57 0 L57 540 L132 540 Q143 540 151.5 536.5 Q160 533 165 520 Q176 533 186.5 536.5 Q197 540 205 540 L288 540 Q326 540 352.5 514 Q379 488 379 451 L379 -141 Q379 -159 372 -175 Q365 -191 352.5 -203.5 Q340 -216 324 -223 Q308 -230 290 -230 L226 -230 L226 -138 L241 -138 Z " />
<glyph glyph-name="longs_t" unicode="&#xfb05;" horiz-adv-x="587" d="M114 672 Q114 720 137.5 747 Q161 774 205 774 L374 774 Q419 774 443 747 Q467 720 467 672 L467 540 L526 540 L526 429 L467 429 L467 119 Q467 111 474.5 102 Q482 93 495 93 L526 93 L526 0 L447 0 Q405 0 380.5 27 Q356 54 356 101 L356 427 L302 427 L302 540 L356 540 L356 664 L223 664 L223 0 L114 0 L114 428 L51 428 L51 540 L114 540 L114 672 Z " />
<glyph glyph-name="middot" unicode="&#xb7;" horiz-adv-x="203" d="M54 534 L163 534 L163 425 L54 425 L54 534 Z " />
<glyph glyph-name="s_t" unicode="&#xfb06;" horiz-adv-x="635" d="M447 627 L557 627 L557 540 L616 540 L616 426 L557 426 L557 119 Q557 111 564.5 102 Q572 93 586 93 L616 93 L616 0 L538 0 Q495 0 471 27 Q447 54 447 101 L447 420 Q447 431 437 439.5 Q427 448 416 448 L188 448 Q177 448 168.5 438.5 Q160 429 160 418 L160 398 Q160 371 175.5 355 Q191 339 214.5 326 Q238 313 265.5 301 Q293 289 316.5 271 Q340 253 355.5 226 Q371 199 371 157 L371 89 Q371 51 344 25.5 Q317 0 280 0 L139 0 Q102 0 75.5 25.5 Q49 51 49 89 L49 160 L160 160 L160 121 Q160 112 168.5 102.5 Q177 93 188 93 L231 93 Q244 93 252 102 Q260 111 260 122 L260 146 Q260 171 244.5 187.5 Q229 204 205.5 217 Q182 230 155 241 Q128 252 104.5 266 Q81 280 65.5 299 Q50 318 50 347 L50 451 Q50 488 76.5 514 Q103 540 140 540 L447 540 L447 627 Z " />
<glyph glyph-name="guilsinglleft" unicode="&#x2039;" horiz-adv-x="295" d="M54 440 L245 631 L245 474 L155 386 L155 381 L245 292 L245 136 L54 327 L54 440 Z " />
<glyph glyph-name="guilsinglright" unicode="&#x203a;" horiz-adv-x="295" d="M54 136 L54 292 L144 381 L144 386 L54 474 L54 631 L245 440 L245 327 L54 136 Z " />
<glyph glyph-name="guillemotleft" unicode="&#xab;" horiz-adv-x="488" d="M256 440 L447 631 L447 474 L357 386 L357 381 L447 292 L447 136 L256 327 L256 440 Z M54 440 L245 631 L245 474 L155 386 L155 381 L245 292 L245 136 L54 327 L54 440 Z " />
<glyph glyph-name="guillemotright" unicode="&#xbb;" horiz-adv-x="483" d="M54 136 L54 292 L144 381 L144 386 L54 474 L54 631 L245 440 L245 327 L54 136 Z M255 136 L255 292 L345 381 L345 386 L255 474 L255 631 L446 440 L446 327 L255 136 Z " />
<glyph glyph-name="zerosuperior" unicode="&#x2070;" horiz-adv-x="389" d="M141 275 Q123 275 107 282 Q91 289 78.5 301 Q66 313 59 329.5 Q52 346 52 364 L52 660 Q52 678 59 694.5 Q66 711 78.5 723 Q91 735 107 742 Q123 749 141 749 L281 749 Q318 749 345 723 Q372 697 372 660 L372 364 Q372 327 345 301 Q318 275 281 275 L141 275 Z M190 659 Q179 659 170.5 649.5 Q162 640 162 628 L162 396 Q162 385 170.5 375.5 Q179 366 190 366 L233 366 Q245 366 254 375 Q263 384 263 397 L263 629 Q263 640 255 649.5 Q247 659 226 659 L190 659 Z " />
<glyph glyph-name="onesuperior" unicode="&#xb9;" horiz-adv-x="264" d="M113 275 L113 554 L60 554 L60 664 Q71 673 82 685 Q91 696 99.5 711.5 Q108 727 113 749 L223 749 L223 275 L113 275 Z " />
<glyph glyph-name="twosuperior" unicode="&#xb2;" horiz-adv-x="409" d="M372 563 Q372 542 364 528.5 Q356 515 342 504 Q300 472 262 443 Q224 414 185 382 L372 382 L372 273 L53 273 L53 374 Q53 382 57.5 394.5 Q62 407 69 412 L247 554 Q258 562 261 578 Q264 594 264 599 L264 628 Q264 640 255 649.5 Q246 659 234 659 L200 659 Q178 659 170.5 649.5 Q163 640 163 629 L163 554 L53 554 L53 660 Q53 678 60 694.5 Q67 711 79.5 723 Q92 735 108 742 Q124 749 142 749 L281 749 Q318 749 345 723 Q372 697 372 660 L372 563 Z " />
<glyph glyph-name="threesuperior" unicode="&#xb3;" horiz-adv-x="389" d="M233 364 Q245 364 254 373.5 Q263 383 263 396 L263 451 Q263 463 253.5 472.5 Q244 482 231 482 L181 482 L181 573 L231 573 Q244 573 253.5 581.5 Q263 590 263 602 L263 628 Q263 638 256 647.5 Q249 657 237 657 L194 657 Q176 657 169 646.5 Q162 636 160 622 L52 622 L52 660 Q52 678 59 694.5 Q66 711 78.5 723 Q91 735 107 742 Q123 749 141 749 L281 749 Q318 749 345 723 Q372 697 372 660 L372 603 Q372 586 359.5 565.5 Q347 545 327 526 Q347 509 359.5 488.5 Q372 468 372 448 L372 363 Q372 326 345 300 Q318 274 281 274 L141 274 Q123 274 107 281 Q91 288 78.5 300 Q66 312 59 328.5 Q52 345 52 363 L52 432 L162 432 L162 396 Q162 383 170.5 373.5 Q179 364 190 364 L233 364 L233 364 Z " />
<glyph glyph-name="foursuperior" unicode="&#x2074;" horiz-adv-x="403" d="M70 464 L221 749 L370 749 L370 455 L420 455 L420 346 L370 346 L370 275 L261 275 L261 346 L70 346 L70 464 Z M186 455 L261 455 L261 564 L284 664 L279 664 L247 578 L186 455 Z " />
<glyph glyph-name="fivesuperior" unicode="&#x2075;" horiz-adv-x="389" d="M281 586 Q318 586 345 560.5 Q372 535 372 497 L372 363 Q372 326 345 300 Q318 274 281 274 L141 274 Q123 274 107 281 Q91 288 78.5 300 Q66 312 59 328.5 Q52 345 52 363 L52 403 L160 403 Q162 386 171 375 Q180 364 190 364 L233 364 Q245 364 254 373.5 Q263 383 263 396 L263 466 Q263 475 253.5 484.5 Q244 494 233 494 L195 494 Q184 494 173.5 486.5 Q163 479 160 462 L52 462 L52 749 L372 749 L372 659 L190 659 Q179 659 170.5 649.5 Q162 640 162 628 L162 569 Q172 579 182 582.5 Q192 586 200 586 L281 586 Z " />
<glyph glyph-name="sixsuperior" unicode="&#x2076;" horiz-adv-x="389" d="M233 364 Q245 364 254 373.5 Q263 383 263 396 L263 445 Q263 456 253.5 464.5 Q244 473 233 473 L195 473 Q184 473 173 467.5 Q162 462 162 446 L162 395 Q162 384 170.5 374 Q179 364 190 364 L233 364 Z M281 566 Q318 566 345 540 Q372 514 372 476 L372 363 Q372 326 345 300 Q318 274 281 274 L141 274 Q123 274 107 281 Q91 288 78.5 300 Q66 312 59 328.5 Q52 345 52 363 L52 660 Q52 678 59 694.5 Q66 711 78.5 723 Q91 735 107 742 Q123 749 141 749 L281 749 Q318 749 345 723 Q372 697 372 660 L372 625 L264 625 Q261 638 252 648.5 Q243 659 226 659 L190 659 Q179 659 170.5 649.5 Q162 640 162 628 L162 549 Q172 558 182 562 Q192 566 200 566 L281 566 Z " />
<glyph glyph-name="sevensuperior" unicode="&#x2077;" horiz-adv-x="390" d="M52 749 L372 749 L372 635 Q372 614 370.5 603.5 Q369 593 364 584 L190 274 L53 274 L265 640 L52 640 L52 749 Z " />
<glyph glyph-name="eightsuperior" unicode="&#x2078;" horiz-adv-x="389" d="M141 274 Q123 274 107 281 Q91 288 78.5 300 Q66 312 59 328.5 Q52 345 52 363 L52 449 Q52 467 65 488.5 Q78 510 98 528 Q79 546 65.5 566.5 Q52 587 52 604 L52 660 Q52 678 59 694.5 Q66 711 78.5 723 Q91 735 107 742 Q123 749 141 749 L281 749 Q318 749 345 723 Q372 697 372 660 L372 604 Q372 585 359.5 564.5 Q347 544 327 527 Q347 510 359.5 489 Q372 468 372 449 L372 363 Q372 326 345 300 Q318 274 281 274 L141 274 Z M192 481 Q180 481 171 472.5 Q162 464 162 451 L162 396 Q162 383 170.5 373.5 Q179 364 190 364 L233 364 Q245 364 254 373.5 Q263 383 263 396 L263 451 Q263 464 253.5 472.5 Q244 481 231 481 L192 481 Z M186 657 Q174 657 168 647.5 Q162 638 162 628 L162 602 Q162 590 171 581.5 Q180 573 192 573 L231 573 Q244 573 253.5 581.5 Q263 590 263 602 L263 628 Q263 638 256 647.5 Q249 657 237 657 L186 657 Z " />
<glyph glyph-name="ninesuperior" unicode="&#x2079;" horiz-adv-x="409" d="M190 659 Q179 659 170.5 650 Q162 641 162 628 L162 580 Q162 569 170.5 559.5 Q179 550 190 550 L229 550 Q241 550 252 556 Q263 562 263 579 L263 629 Q263 640 253.5 649.5 Q244 659 233 659 L190 659 Z M141 459 Q123 459 107 465.5 Q91 472 78.5 484 Q66 496 59 512 Q52 528 52 547 L52 661 Q52 680 59 696.5 Q66 713 78.5 725 Q91 737 107 743.5 Q123 750 141 750 L281 750 Q299 750 315.5 743.5 Q332 737 344.5 725 Q357 713 364.5 696.5 Q372 680 372 661 L372 364 Q372 327 345 301 Q318 275 281 275 L141 275 Q123 275 107 282 Q91 289 78.5 301 Q66 313 59 329.5 Q52 346 52 364 L52 403 L161 403 Q163 389 171.5 376.5 Q180 364 199 364 L233 364 Q245 364 254 374 Q263 384 263 398 L263 474 Q253 466 243 462.5 Q233 459 225 459 L141 459 Z " />
<glyph glyph-name="parenleftsuperior" unicode="&#x207d;" horiz-adv-x="260" d="M225 162 L144 162 Q107 162 80 187.5 Q53 213 53 251 L53 685 Q53 723 80 748.5 Q107 774 144 774 L226 774 L226 683 L192 683 Q180 683 172.5 674 Q165 665 165 652 L165 282 Q165 273 173 263.5 Q181 254 192 254 L225 254 L225 162 Z " />
<glyph glyph-name="parenrightsuperior" unicode="&#x207e;" horiz-adv-x="262" d="M49 774 L130 774 Q167 774 194 748.5 Q221 723 221 685 L221 252 Q221 214 194 188.5 Q167 163 130 163 L48 163 L48 254 L83 254 Q94 254 102 263.5 Q110 273 110 284 L110 653 Q110 664 101.5 673 Q93 682 83 682 L49 682 L49 774 Z " />
<glyph glyph-name="zeroinferior" unicode="&#x2080;" horiz-adv-x="389" d="M141 7 Q123 7 107 14 Q91 21 78.5 33 Q66 45 59 61.5 Q52 78 52 96 L52 392 Q52 410 59 426.5 Q66 443 78.5 455 Q91 467 107 474 Q123 481 141 481 L281 481 Q318 481 345 455 Q372 429 372 392 L372 96 Q372 59 345 33 Q318 7 281 7 L141 7 Z M190 391 Q179 391 170.5 381.5 Q162 372 162 360 L162 128 Q162 117 170.5 107.5 Q179 98 190 98 L233 98 Q245 98 254 107 Q263 116 263 129 L263 361 Q263 372 255 381.5 Q247 391 226 391 L190 391 Z " />
<glyph glyph-name="oneinferior" unicode="&#x2081;" horiz-adv-x="264" d="M113 7 L113 286 L60 286 L60 396 Q71 405 82 417 Q91 428 99.5 443.5 Q108 459 113 481 L223 481 L223 7 L113 7 Z " />
<glyph glyph-name="twoinferior" unicode="&#x2082;" horiz-adv-x="409" d="M372 297 Q372 276 364 262.5 Q356 249 342 238 Q300 206 262 177 Q224 148 185 116 L372 116 L372 7 L53 7 L53 108 Q53 116 57.5 128.5 Q62 141 69 146 L247 288 Q258 296 261 312 Q264 328 264 333 L264 362 Q264 374 255 383.5 Q246 393 234 393 L200 393 Q178 393 170.5 383.5 Q163 374 163 363 L163 288 L53 288 L53 394 Q53 412 60 428.5 Q67 445 79.5 457 Q92 469 108 476 Q124 483 142 483 L281 483 Q318 483 345 457 Q372 431 372 394 L372 297 Z " />
<glyph glyph-name="threeinferior" unicode="&#x2083;" horiz-adv-x="389" d="M233 97 Q245 97 254 106.5 Q263 116 263 129 L263 184 Q263 196 253.5 205.5 Q244 215 231 215 L181 215 L181 306 L231 306 Q244 306 253.5 314.5 Q263 323 263 335 L263 361 Q263 371 256 380.5 Q249 390 237 390 L194 390 Q176 390 169 379.5 Q162 369 160 355 L52 355 L52 393 Q52 411 59 427.5 Q66 444 78.5 456 Q91 468 107 475 Q123 482 141 482 L281 482 Q318 482 345 456 Q372 430 372 393 L372 336 Q372 319 359.5 298.5 Q347 278 327 259 Q347 242 359.5 221.5 Q372 201 372 181 L372 96 Q372 59 345 33 Q318 7 281 7 L141 7 Q123 7 107 14 Q91 21 78.5 33 Q66 45 59 61.5 Q52 78 52 96 L52 165 L162 165 L162 129 Q162 116 170.5 106.5 Q179 97 190 97 L233 97 L233 97 Z " />
<glyph glyph-name="fiveinferior" unicode="&#x2085;" horiz-adv-x="389" d="M281 319 Q318 319 345 293.5 Q372 268 372 230 L372 96 Q372 59 345 33 Q318 7 281 7 L141 7 Q123 7 107 14 Q91 21 78.5 33 Q66 45 59 61.5 Q52 78 52 96 L52 136 L160 136 Q162 119 171 108 Q180 97 190 97 L233 97 Q245 97 254 106.5 Q263 116 263 129 L263 199 Q263 208 253.5 217.5 Q244 227 233 227 L195 227 Q184 227 173.5 219.5 Q163 212 160 195 L52 195 L52 482 L372 482 L372 392 L190 392 Q179 392 170.5 382.5 Q162 373 162 361 L162 302 Q172 312 182 315.5 Q192 319 200 319 L281 319 Z " />
<glyph glyph-name="fourinferior" unicode="&#x2084;" horiz-adv-x="421" d="M70 196 L221 481 L370 481 L370 187 L420 187 L420 78 L370 78 L370 7 L261 7 L261 78 L70 78 L70 196 Z M186 187 L261 187 L261 296 L284 396 L279 396 L247 310 L186 187 Z " />
<glyph glyph-name="sixinferior" unicode="&#x2086;" horiz-adv-x="389" d="M233 97 Q245 97 254 106.5 Q263 116 263 129 L263 178 Q263 189 253.5 197.5 Q244 206 233 206 L195 206 Q184 206 173 200.5 Q162 195 162 179 L162 128 Q162 117 170.5 107 Q179 97 190 97 L233 97 Z M281 299 Q318 299 345 273 Q372 247 372 209 L372 96 Q372 59 345 33 Q318 7 281 7 L141 7 Q123 7 107 14 Q91 21 78.5 33 Q66 45 59 61.5 Q52 78 52 96 L52 393 Q52 411 59 427.5 Q66 444 78.5 456 Q91 468 107 475 Q123 482 141 482 L281 482 Q318 482 345 456 Q372 430 372 393 L372 358 L264 358 Q261 371 252 381.5 Q243 392 226 392 L190 392 Q179 392 170.5 382.5 Q162 373 162 361 L162 282 Q172 291 182 295 Q192 299 200 299 L281 299 Z " />
<glyph glyph-name="seveninferior" unicode="&#x2087;" horiz-adv-x="390" d="M52 482 L372 482 L372 368 Q372 347 370.5 336.5 Q369 326 364 317 L190 7 L53 7 L265 373 L52 373 L52 482 Z " />
<glyph glyph-name="eightinferior" unicode="&#x2088;" horiz-adv-x="389" d="M141 7 Q123 7 107 14 Q91 21 78.5 33 Q66 45 59 61.5 Q52 78 52 96 L52 182 Q52 200 65 221.5 Q78 243 98 261 Q79 279 65.5 299.5 Q52 320 52 337 L52 393 Q52 411 59 427.5 Q66 444 78.5 456 Q91 468 107 475 Q123 482 141 482 L281 482 Q318 482 345 456 Q372 430 372 393 L372 337 Q372 318 359.5 297.5 Q347 277 327 260 Q347 243 359.5 222 Q372 201 372 182 L372 96 Q372 59 345 33 Q318 7 281 7 L141 7 Z M192 214 Q180 214 171 205.5 Q162 197 162 184 L162 129 Q162 116 170.5 106.5 Q179 97 190 97 L233 97 Q245 97 254 106.5 Q263 116 263 129 L263 184 Q263 197 253.5 205.5 Q244 214 231 214 L192 214 Z M186 390 Q174 390 168 380.5 Q162 371 162 361 L162 335 Q162 323 171 314.5 Q180 306 192 306 L231 306 Q244 306 253.5 314.5 Q263 323 263 335 L263 361 Q263 371 256 380.5 Q249 390 237 390 L186 390 Z " />
<glyph glyph-name="nineinferior" unicode="&#x2089;" horiz-adv-x="409" d="M190 391 Q179 391 170.5 382 Q162 373 162 360 L162 312 Q162 301 170.5 291.5 Q179 282 190 282 L229 282 Q241 282 252 288 Q263 294 263 311 L263 361 Q263 372 253.5 381.5 Q244 391 233 391 L190 391 Z M141 191 Q123 191 107 197.5 Q91 204 78.5 216 Q66 228 59 244 Q52 260 52 279 L52 393 Q52 412 59 428.5 Q66 445 78.5 457 Q91 469 107 475.5 Q123 482 141 482 L281 482 Q299 482 315.5 475.5 Q332 469 344.5 457 Q357 445 364.5 428.5 Q372 412 372 393 L372 96 Q372 59 345 33 Q318 7 281 7 L141 7 Q123 7 107 14 Q91 21 78.5 33 Q66 45 59 61.5 Q52 78 52 96 L52 135 L161 135 Q163 121 171.5 108.5 Q180 96 199 96 L233 96 Q245 96 254 106 Q263 116 263 130 L263 206 Q253 198 243 194.5 Q233 191 225 191 L141 191 Z " />
<glyph glyph-name="parenleftinferior" unicode="&#x208d;" horiz-adv-x="260" d="M225 -106 L144 -106 Q107 -106 80 -80.5 Q53 -55 53 -17 L53 417 Q53 455 80 480.5 Q107 506 144 506 L226 506 L226 415 L192 415 Q180 415 172.5 406 Q165 397 165 384 L165 14 Q165 5 173 -4.5 Q181 -14 192 -14 L225 -14 L225 -106 Z " />
<glyph glyph-name="parenrightinferior" unicode="&#x208e;" horiz-adv-x="262" d="M49 506 L130 506 Q167 506 194 480.5 Q221 455 221 417 L221 -16 Q221 -54 194 -79.5 Q167 -105 130 -105 L48 -105 L48 -14 L83 -14 Q94 -14 102 -4.5 Q110 5 110 16 L110 385 Q110 396 101.5 405 Q93 414 83 414 L49 414 L49 506 Z " />
<glyph glyph-name="onethird" unicode="&#x2153;" horiz-adv-x="907" d="M113 275 L113 554 L60 554 L60 664 Q71 673 82 685 Q91 696 99.5 711.5 Q108 727 113 749 L223 749 L223 275 L113 275 Z M651 776 L223 -51 L116 -51 L541 776 L651 776 Z M716 97 Q728 97 737 106.5 Q746 116 746 129 L746 184 Q746 196 736.5 205.5 Q727 215 714 215 L664 215 L664 306 L714 306 Q727 306 736.5 314.5 Q746 323 746 335 L746 361 Q746 371 739 380.5 Q732 390 720 390 L677 390 Q659 390 652 379.5 Q645 369 643 355 L535 355 L535 393 Q535 411 542 427.5 Q549 444 561.5 456 Q574 468 590 475 Q606 482 624 482 L764 482 Q801 482 828 456 Q855 430 855 393 L855 336 Q855 319 842.5 298.5 Q830 278 810 259 Q830 242 842.5 221.5 Q855 201 855 181 L855 96 Q855 59 828 33 Q801 7 764 7 L624 7 Q606 7 590 14 Q574 21 561.5 33 Q549 45 542 61.5 Q535 78 535 96 L535 165 L645 165 L645 129 Q645 116 653.5 106.5 Q662 97 673 97 L716 97 Z " />
<glyph glyph-name="onehalf" unicode="&#xbd;" horiz-adv-x="889" d="M650 776 L222 -51 L115 -51 L540 776 L650 776 Z M113 275 L113 554 L60 554 L60 664 Q71 673 82 685 Q91 696 99.5 711.5 Q108 727 113 749 L223 749 L223 275 L113 275 Z M844 297 Q844 276 836 262.5 Q828 249 814 238 Q772 206 734 177 Q696 148 657 116 L844 116 L844 7 L525 7 L525 108 Q525 116 529.5 128.5 Q534 141 541 146 L719 288 Q730 296 733 312 Q736 328 736 333 L736 362 Q736 374 727 383.5 Q718 393 706 393 L672 393 Q650 393 642.5 383.5 Q635 374 635 363 L635 288 L525 288 L525 394 Q525 412 532 428.5 Q539 445 551.5 457 Q564 469 580 476 Q596 483 614 483 L753 483 Q790 483 817 457 Q844 431 844 394 L844 297 Z " />
<glyph glyph-name="oneeighth" unicode="&#x215b;" horiz-adv-x="900" d="M113 275 L113 554 L60 554 L60 664 Q71 673 82 685 Q91 696 99.5 711.5 Q108 727 113 749 L223 749 L223 275 L113 275 Z M650 776 L222 -51 L115 -51 L540 776 L650 776 Z M614 7 Q596 7 580 14 Q564 21 551.5 33 Q539 45 532 61.5 Q525 78 525 96 L525 182 Q525 200 538 221.5 Q551 243 571 261 Q552 279 538.5 299.5 Q525 320 525 337 L525 393 Q525 411 532 427.5 Q539 444 551.5 456 Q564 468 580 475 Q596 482 614 482 L754 482 Q791 482 818 456 Q845 430 845 393 L845 337 Q845 318 832.5 297.5 Q820 277 800 260 Q820 243 832.5 222 Q845 201 845 182 L845 96 Q845 59 818 33 Q791 7 754 7 L614 7 Z M665 214 Q653 214 644 205.5 Q635 197 635 184 L635 129 Q635 116 643.5 106.5 Q652 97 663 97 L706 97 Q718 97 727 106.5 Q736 116 736 129 L736 184 Q736 197 726.5 205.5 Q717 214 704 214 L665 214 Z M659 390 Q647 390 641 380.5 Q635 371 635 361 L635 335 Q635 323 644 314.5 Q653 306 665 306 L704 306 Q717 306 726.5 314.5 Q736 323 736 335 L736 361 Q736 371 729 380.5 Q722 390 710 390 L659 390 Z " />
<glyph glyph-name="onequarter" unicode="&#xbc;" horiz-adv-x="851" d="M651 776 L223 -51 L116 -51 L541 776 L651 776 Z M113 275 L113 554 L60 554 L60 664 Q71 673 82 685 Q91 696 99.5 711.5 Q108 727 113 749 L223 749 L223 275 L113 275 Z M458 196 L609 481 L758 481 L758 187 L808 187 L808 78 L758 78 L758 7 L649 7 L649 78 L458 78 L458 196 Z M574 187 L649 187 L649 296 L672 396 L667 396 L635 310 L574 187 Z " />
<glyph glyph-name="twothirds" unicode="&#x2154;" horiz-adv-x="1035" d="M797 776 L369 -51 L262 -51 L687 776 L797 776 Z M372 563 Q372 542 364 528.5 Q356 515 342 504 Q300 472 262 443 Q224 414 185 382 L372 382 L372 273 L53 273 L53 374 Q53 382 57.5 394.5 Q62 407 69 412 L247 554 Q258 562 261 578 Q264 594 264 599 L264 628 Q264 640 255 649.5 Q246 659 234 659 L200 659 Q178 659 170.5 649.5 Q163 640 163 629 L163 554 L53 554 L53 660 Q53 678 60 694.5 Q67 711 79.5 723 Q92 735 108 742 Q124 749 142 749 L281 749 Q318 749 345 723 Q372 697 372 660 L372 563 Z M861 97 Q873 97 882 106.5 Q891 116 891 129 L891 184 Q891 196 881.5 205.5 Q872 215 859 215 L809 215 L809 306 L859 306 Q872 306 881.5 314.5 Q891 323 891 335 L891 361 Q891 371 884 380.5 Q877 390 865 390 L822 390 Q804 390 797 379.5 Q790 369 788 355 L680 355 L680 393 Q680 411 687 427.5 Q694 444 706.5 456 Q719 468 735 475 Q751 482 769 482 L909 482 Q946 482 973 456 Q1000 430 1000 393 L1000 336 Q1000 319 987.5 298.5 Q975 278 955 259 Q975 242 987.5 221.5 Q1000 201 1000 181 L1000 96 Q1000 59 973 33 Q946 7 909 7 L769 7 Q751 7 735 14 Q719 21 706.5 33 Q694 45 687 61.5 Q680 78 680 96 L680 165 L790 165 L790 129 Q790 116 798.5 106.5 Q807 97 818 97 L861 97 Z " />
<glyph glyph-name="threequarters" unicode="&#xbe;" horiz-adv-x="992" d="M798 776 L370 -51 L263 -51 L688 776 L798 776 Z M233 364 Q245 364 254 373.5 Q263 383 263 396 L263 451 Q263 463 253.5 472.5 Q244 482 231 482 L181 482 L181 573 L231 573 Q244 573 253.5 581.5 Q263 590 263 602 L263 628 Q263 638 256 647.5 Q249 657 237 657 L194 657 Q176 657 169 646.5 Q162 636 160 622 L52 622 L52 660 Q52 678 59 694.5 Q66 711 78.5 723 Q91 735 107 742 Q123 749 141 749 L281 749 Q318 749 345 723 Q372 697 372 660 L372 603 Q372 586 359.5 565.5 Q347 545 327 526 Q347 509 359.5 488.5 Q372 468 372 448 L372 363 Q372 326 345 300 Q318 274 281 274 L141 274 Q123 274 107 281 Q91 288 78.5 300 Q66 312 59 328.5 Q52 345 52 363 L52 432 L162 432 L162 396 Q162 383 170.5 373.5 Q179 364 190 364 L233 364 Z M620 196 L771 481 L920 481 L920 187 L970 187 L970 78 L920 78 L920 7 L811 7 L811 78 L620 78 L620 196 Z M736 187 L811 187 L811 296 L834 396 L829 396 L797 310 L736 187 Z " />
<glyph glyph-name="threeeighths" unicode="&#x215c;" horiz-adv-x="972" d="M233 364 Q245 364 254 373.5 Q263 383 263 396 L263 451 Q263 463 253.5 472.5 Q244 482 231 482 L181 482 L181 573 L231 573 Q244 573 253.5 581.5 Q263 590 263 602 L263 628 Q263 638 256 647.5 Q249 657 237 657 L194 657 Q176 657 169 646.5 Q162 636 160 622 L52 622 L52 660 Q52 678 59 694.5 Q66 711 78.5 723 Q91 735 107 742 Q123 749 141 749 L281 749 Q318 749 345 723 Q372 697 372 660 L372 603 Q372 586 359.5 565.5 Q347 545 327 526 Q347 509 359.5 488.5 Q372 468 372 448 L372 363 Q372 326 345 300 Q318 274 281 274 L141 274 Q123 274 107 281 Q91 288 78.5 300 Q66 312 59 328.5 Q52 345 52 363 L52 432 L162 432 L162 396 Q162 383 170.5 373.5 Q179 364 190 364 L233 364 Z M794 776 L366 -51 L259 -51 L684 776 L794 776 Z M618 196 L769 481 L918 481 L918 187 L968 187 L968 78 L918 78 L918 7 L809 7 L809 78 L618 78 L618 196 Z M734 187 L809 187 L809 296 L832 396 L827 396 L795 310 L734 187 Z " />
<glyph glyph-name="fiveeighths" unicode="&#x215d;" horiz-adv-x="1042" d="M281 586 Q318 586 345 560.5 Q372 535 372 497 L372 363 Q372 326 345 300 Q318 274 281 274 L141 274 Q123 274 107 281 Q91 288 78.5 300 Q66 312 59 328.5 Q52 345 52 363 L52 403 L160 403 Q162 386 171 375 Q180 364 190 364 L233 364 Q245 364 254 373.5 Q263 383 263 396 L263 466 Q263 475 253.5 484.5 Q244 494 233 494 L195 494 Q184 494 173.5 486.5 Q163 479 160 462 L52 462 L52 749 L372 749 L372 659 L190 659 Q179 659 170.5 649.5 Q162 640 162 628 L162 569 Q172 579 182 582.5 Q192 586 200 586 L281 586 Z M795 776 L367 -51 L260 -51 L685 776 L795 776 Z M768 7 Q750 7 734 14 Q718 21 705.5 33 Q693 45 686 61.5 Q679 78 679 96 L679 182 Q679 200 692 221.5 Q705 243 725 261 Q706 279 692.5 299.5 Q679 320 679 337 L679 393 Q679 411 686 427.5 Q693 444 705.5 456 Q718 468 734 475 Q750 482 768 482 L908 482 Q945 482 972 456 Q999 430 999 393 L999 337 Q999 318 986.5 297.5 Q974 277 954 260 Q974 243 986.5 222 Q999 201 999 182 L999 96 Q999 59 972 33 Q945 7 908 7 L768 7 Z M819 214 Q807 214 798 205.5 Q789 197 789 184 L789 129 Q789 116 797.5 106.5 Q806 97 817 97 L860 97 Q872 97 881 106.5 Q890 116 890 129 L890 184 Q890 197 880.5 205.5 Q871 214 858 214 L819 214 Z M813 390 Q801 390 795 380.5 Q789 371 789 361 L789 335 Q789 323 798 314.5 Q807 306 819 306 L858 306 Q871 306 880.5 314.5 Q890 323 890 335 L890 361 Q890 371 883 380.5 Q876 390 864 390 L813 390 Z " />
<glyph glyph-name="seveneighths" unicode="&#x215e;" horiz-adv-x="932" d="M52 749 L372 749 L372 635 Q372 614 370.5 603.5 Q369 593 364 584 L190 274 L53 274 L265 640 L52 640 L52 749 Z M677 776 L249 -51 L142 -51 L567 776 L677 776 Z M649 7 Q631 7 615 14 Q599 21 586.5 33 Q574 45 567 61.5 Q560 78 560 96 L560 182 Q560 200 573 221.5 Q586 243 606 261 Q587 279 573.5 299.5 Q560 320 560 337 L560 393 Q560 411 567 427.5 Q574 444 586.5 456 Q599 468 615 475 Q631 482 649 482 L789 482 Q826 482 853 456 Q880 430 880 393 L880 337 Q880 318 867.5 297.5 Q855 277 835 260 Q855 243 867.5 222 Q880 201 880 182 L880 96 Q880 59 853 33 Q826 7 789 7 L649 7 Z M700 214 Q688 214 679 205.5 Q670 197 670 184 L670 129 Q670 116 678.5 106.5 Q687 97 698 97 L741 97 Q753 97 762 106.5 Q771 116 771 129 L771 184 Q771 197 761.5 205.5 Q752 214 739 214 L700 214 Z M694 390 Q682 390 676 380.5 Q670 371 670 361 L670 335 Q670 323 679 314.5 Q688 306 700 306 L739 306 Q752 306 761.5 314.5 Q771 323 771 335 L771 361 Q771 371 764 380.5 Q757 390 745 390 L694 390 Z " />
<glyph glyph-name="degree" unicode="&#xb0;" horiz-adv-x="289" d="M70 527 Q59 527 45 534.5 Q31 542 19 557.5 Q7 573 -1.5 596.5 Q-10 620 -10 652 Q-10 685 -1 708.5 Q8 732 21.5 747 Q35 762 50 768.5 Q65 775 77 775 L206 775 Q217 775 231.5 768 Q246 761 259.5 746 Q273 731 282.5 707 Q292 683 292 649 Q292 616 282.5 592.5 Q273 569 259.5 554.5 Q246 540 231.5 533.5 Q217 527 206 527 L70 527 Z M156 613 Q176 613 183.5 623 Q191 633 191 642 L191 658 Q191 669 182.5 678.5 Q174 688 163 688 L129 688 Q106 688 99.5 678.5 Q93 669 93 658 L93 645 Q93 633 101 623 Q109 613 120 613 L156 613 Z " />
<glyph glyph-name="NULL" d="" />
<glyph glyph-name="nonmarkingreturn" unicode="&#xd;" horiz-adv-x="233" d="" />
<glyph glyph-name="A" unicode="A" horiz-adv-x="432" d="M322 0 L290 154 L148 154 L118 0 L0 0 L168 749 L272 749 L441 0 L322 0 Z M206 420 L169 245 L271 245 L235 420 L223 610 L218 610 L206 420 Z " />
<glyph glyph-name="Aacute" unicode="&#xc1;" horiz-adv-x="442" d="M327 0 L295 154 L153 154 L123 0 L5 0 L173 749 L277 749 L446 0 L327 0 Z M211 420 L174 245 L276 245 L240 420 L228 610 L223 610 L211 420 Z M219 983 L326 983 L269 874 L171 874 L219 983 Z " />
<glyph glyph-name="Abreve" unicode="&#x102;" horiz-adv-x="442" d="M327 0 L295 154 L153 154 L123 0 L5 0 L173 749 L277 749 L446 0 L327 0 Z M211 420 L174 245 L276 245 L240 420 L228 610 L223 610 L211 420 Z M148 854 Q111 854 84 880 Q57 906 57 943 L57 979 L164 979 Q164 965 174.5 954.5 Q185 944 202 944 L239 944 Q256 944 267 954.5 Q278 965 278 979 L385 979 L385 943 Q385 906 358 880 Q331 854 294 854 L148 854 Z " />
<glyph glyph-name="Acircumflex" unicode="&#xc2;" horiz-adv-x="442" d="M446 0 L277 749 L173 749 L5 0 L123 0 L153 154 L295 154 L327 0 L446 0 Z M223 610 L228 610 L240 420 L276 245 L174 245 L211 420 L223 610 Z M166 981 L267 981 L370 824 L260 824 L217 887 L175 824 L63 824 L166 981 Z " />
<glyph glyph-name="Agrave" unicode="&#xc0;" horiz-adv-x="442" d="M327 0 L295 154 L153 154 L123 0 L5 0 L173 749 L277 749 L446 0 L327 0 Z M211 420 L174 245 L276 245 L240 420 L228 610 L223 610 L211 420 Z M272 872 L176 872 L119 981 L226 981 L272 872 Z " />
<glyph glyph-name="Adieresis" unicode="&#xc4;" horiz-adv-x="442" d="M327 0 L295 154 L153 154 L123 0 L5 0 L173 749 L277 749 L446 0 L327 0 Z M211 420 L174 245 L276 245 L240 420 L228 610 L223 610 L211 420 Z M56 903 Q56 930 74.5 948.5 Q93 967 119 967 Q146 967 164.5 948.5 Q183 930 183 903 Q183 876 164.5 857.5 Q146 839 119 839 Q93 839 74.5 857.5 Q56 876 56 903 Z M261 903 Q261 930 279.5 948.5 Q298 967 325 967 Q351 967 370 948.5 Q389 930 389 903 Q389 876 370 857.5 Q351 839 325 839 Q298 839 279.5 857.5 Q261 876 261 903 Z " />
<glyph glyph-name="Amacron" unicode="&#x100;" horiz-adv-x="442" d="M327 0 L295 154 L153 154 L123 0 L5 0 L173 749 L277 749 L446 0 L327 0 Z M211 420 L174 245 L276 245 L240 420 L228 610 L223 610 L211 420 Z M74 933 L378 933 L378 840 L74 840 L74 933 Z " />
<glyph glyph-name="Aogonek" unicode="&#x104;" horiz-adv-x="442" d="M332 0 L300 154 L158 154 L128 0 L10 0 L178 749 L282 749 L451 0 L332 0 Z M216 420 L179 245 L281 245 L245 420 L233 610 L228 610 L216 420 Z M490 -215 Q466 -230 434 -230 Q414 -230 393.5 -223.5 Q373 -217 357 -205 Q341 -193 331 -175.5 Q321 -158 321 -135 Q321 -119 326 -100 Q331 -81 340 -63 Q349 -45 361 -28.5 Q373 -12 387 0 L429 0 Q414 -27 405 -49.5 Q396 -72 396 -88 Q396 -108 411.5 -121.5 Q427 -135 462 -136 L490 -215 Z " />
<glyph glyph-name="Aring" unicode="&#xc5;" horiz-adv-x="432" d="M322 0 L290 154 L148 154 L118 0 L0 0 L168 749 L272 749 L441 0 L322 0 Z M206 420 L169 245 L271 245 L235 420 L223 610 L218 610 L206 420 Z M231 749 Q242 749 246.5 753 Q251 757 251 762 L251 776 Q251 781 247.5 785.5 Q244 790 239 790 L206 790 Q195 790 190.5 785.5 Q186 781 186 776 L186 764 Q186 758 189.5 753.5 Q193 749 198 749 L231 749 Z M171 682 Q149 682 131.5 699 Q114 716 114 738 L114 801 Q114 824 131.5 840.5 Q149 857 171 857 L266 857 Q289 857 306 840.5 Q323 824 323 801 L323 738 Q323 716 306 699 Q289 682 266 682 L171 682 Z " />
<glyph glyph-name="Atilde" unicode="&#xc3;" horiz-adv-x="442" d="M327 0 L295 154 L153 154 L123 0 L5 0 L173 749 L277 749 L446 0 L327 0 Z M211 420 L174 245 L276 245 L240 420 L228 610 L223 610 L211 420 Z M155 987 Q172 987 187 980.5 Q202 974 217 966.5 Q232 959 247 953 Q262 947 280 947 Q290 947 301 955.5 Q312 964 323 987 L405 987 Q400 918 371.5 881 Q343 844 300 844 Q284 844 267.5 850.5 Q251 857 235 865 Q219 873 203.5 879.5 Q188 886 175 886 Q164 886 154.5 877 Q145 868 135 844 L50 844 Q55 910 84 948.5 Q113 987 155 987 Z " />
<glyph glyph-name="AEacute" unicode="&#x1fc;" horiz-adv-x="591" d="M167 154 L132 0 L9 0 L188 749 L568 749 L568 640 L358 640 L358 421 L538 421 L538 312 L358 312 L358 109 L568 109 L568 0 L248 0 L248 154 L167 154 Z M186 245 L248 245 L248 461 L262 611 L256 611 L223 463 L186 245 Z M338 987 L445 987 L388 878 L290 878 L338 987 Z " />
<glyph glyph-name="Cacute" unicode="&#x106;" horiz-adv-x="407" d="M369 302 L369 89 Q369 52 343.5 26 Q318 0 280 0 L140 0 Q122 0 106 7 Q90 14 77.5 26 Q65 38 58 54.5 Q51 71 51 89 L51 660 Q51 678 58 694.5 Q65 711 77.5 723 Q90 735 106 742 Q122 749 140 749 L280 749 Q318 749 343.5 723 Q369 697 369 660 L369 431 L261 431 L261 628 Q261 638 254.5 647.5 Q248 657 236 657 L185 657 Q173 657 167 647.5 Q161 638 161 628 L161 121 Q161 110 168 100.5 Q175 91 185 91 L232 91 Q244 91 252.5 100 Q261 109 261 121 L261 302 L369 302 Z M205 986 L312 986 L255 877 L157 877 L205 986 Z " />
<glyph glyph-name="Ccaron" unicode="&#x10c;" horiz-adv-x="407" d="M369 302 L369 89 Q369 52 343.5 26 Q318 0 280 0 L140 0 Q122 0 106 7 Q90 14 77.5 26 Q65 38 58 54.5 Q51 71 51 89 L51 660 Q51 678 58 694.5 Q65 711 77.5 723 Q90 735 106 742 Q122 749 140 749 L280 749 Q318 749 343.5 723 Q369 697 369 660 L369 431 L261 431 L261 628 Q261 638 254.5 647.5 Q248 657 236 657 L185 657 Q173 657 167 647.5 Q161 638 161 628 L161 121 Q161 110 168 100.5 Q175 91 185 91 L232 91 Q244 91 252.5 100 Q261 109 261 121 L261 302 L369 302 Z M51 988 L163 988 L206 924 L248 988 L357 988 L255 831 L154 831 L51 988 Z " />
<glyph glyph-name="Ccedilla" unicode="&#xc7;" horiz-adv-x="407" d="M369 302 L369 89 Q369 52 343.5 26 Q318 0 280 0 L140 0 Q122 0 106 7 Q90 14 77.5 26 Q65 38 58 54.5 Q51 71 51 89 L51 660 Q51 678 58 694.5 Q65 711 77.5 723 Q90 735 106 742 Q122 749 140 749 L280 749 Q318 749 343.5 723 Q369 697 369 660 L369 431 L261 431 L261 628 Q261 638 254.5 647.5 Q248 657 236 657 L185 657 Q173 657 167 647.5 Q161 638 161 628 L161 121 Q161 110 168 100.5 Q175 91 185 91 L232 91 Q244 91 252.5 100 Q261 109 261 121 L261 302 L369 302 Z M153 -136 Q188 -135 203.5 -121.5 Q219 -108 219 -88 Q219 -56 186 0 L228 0 Q242 -12 254 -28.5 Q266 -45 275 -63.5 Q284 -82 289 -100.5 Q294 -119 294 -135 Q294 -172 268.5 -199.5 Q243 -227 185 -227 Q175 -227 161 -225.5 Q147 -224 124 -219 L153 -136 Z " />
<glyph glyph-name="Ccircumflex" unicode="&#x108;" horiz-adv-x="407" d="M261 302 L261 121 Q261 109 252.5 100 Q244 91 232 91 L185 91 Q175 91 168 100.5 Q161 110 161 121 L161 628 Q161 638 167 647.5 Q173 657 185 657 L236 657 Q248 657 254.5 647.5 Q261 638 261 628 L261 431 L369 431 L369 660 Q369 697 343.5 723 Q318 749 280 749 L140 749 Q122 749 106 742 Q90 735 77.5 723 Q65 711 58 694.5 Q51 678 51 660 L51 89 Q51 71 58 54.5 Q65 38 77.5 26 Q90 14 106 7 Q122 0 140 0 L280 0 Q318 0 343.5 26 Q369 52 369 89 L369 302 L261 302 Z M154 984 L255 984 L358 827 L248 827 L205 890 L163 827 L51 827 L154 984 Z " />
<glyph glyph-name="Cdotaccent" unicode="&#x10a;" horiz-adv-x="407" d="M369 302 L369 89 Q369 52 343.5 26 Q318 0 280 0 L140 0 Q122 0 106 7 Q90 14 77.5 26 Q65 38 58 54.5 Q51 71 51 89 L51 660 Q51 678 58 694.5 Q65 711 77.5 723 Q90 735 106 742 Q122 749 140 749 L280 749 Q318 749 343.5 723 Q369 697 369 660 L369 431 L261 431 L261 628 Q261 638 254.5 647.5 Q248 657 236 657 L185 657 Q173 657 167 647.5 Q161 638 161 628 L161 121 Q161 110 168 100.5 Q175 91 185 91 L232 91 Q244 91 252.5 100 Q261 109 261 121 L261 302 L369 302 Z M142 920 Q142 947 161 965.5 Q180 984 205 984 Q233 984 251 965.5 Q269 947 269 920 Q269 893 251 874.5 Q233 856 205 856 Q180 856 161 874.5 Q142 893 142 920 Z " />
<glyph glyph-name="Dcaron" unicode="&#x10e;" horiz-adv-x="415" d="M61 749 L289 749 Q326 749 353 723 Q380 697 380 660 L380 89 Q380 52 353 26 Q326 0 289 0 L61 0 L61 749 Z M270 629 Q270 640 263.5 649.5 Q257 659 245 659 L170 659 L170 91 L241 91 Q253 91 261.5 100 Q270 109 270 121 L270 629 Z M55 986 L167 986 L210 922 L252 986 L361 986 L259 829 L158 829 L55 986 Z " />
<glyph glyph-name="Dcroat" unicode="&#x110;" horiz-adv-x="425" d="M71 749 L299 749 Q336 749 363 723 Q390 697 390 660 L390 89 Q390 52 363 26 Q336 0 299 0 L71 0 L71 749 Z M280 629 Q280 640 273.5 649.5 Q267 659 255 659 L180 659 L180 91 L251 91 Q263 91 271.5 100 Q280 109 280 121 L280 629 Z M32 402 L224 402 L224 294 L32 294 L32 402 Z " />
<glyph glyph-name="Eacute" unicode="&#xc9;" horiz-adv-x="412" d="M61 749 L381 749 L381 640 L170 640 L170 421 L349 421 L349 312 L170 312 L170 109 L381 109 L381 0 L61 0 L61 749 Z M219 980 L326 980 L269 871 L171 871 L219 980 Z " />
<glyph glyph-name="Ebreve" unicode="&#x114;" horiz-adv-x="412" d="M61 749 L381 749 L381 640 L170 640 L170 421 L349 421 L349 312 L170 312 L170 109 L381 109 L381 0 L61 0 L61 749 Z M137 856 Q100 856 73 882 Q46 908 46 945 L46 981 L153 981 Q153 967 163.5 956.5 Q174 946 191 946 L228 946 Q245 946 256 956.5 Q267 967 267 981 L374 981 L374 945 Q374 908 347 882 Q320 856 283 856 L137 856 Z " />
<glyph glyph-name="Ecaron" unicode="&#x11a;" horiz-adv-x="412" d="M61 749 L381 749 L381 640 L170 640 L170 421 L349 421 L349 312 L170 312 L170 109 L381 109 L381 0 L61 0 L61 749 Z M54 979 L166 979 L209 915 L251 979 L360 979 L258 822 L157 822 L54 979 Z " />
<glyph glyph-name="Ecircumflex" unicode="&#xca;" horiz-adv-x="412" d="M61 0 L381 0 L381 109 L170 109 L170 312 L349 312 L349 421 L170 421 L170 640 L381 640 L381 749 L61 749 L61 0 Z M157 986 L258 986 L361 829 L251 829 L208 892 L166 829 L54 829 L157 986 Z " />
<glyph glyph-name="Edieresis" unicode="&#xcb;" horiz-adv-x="412" d="M61 749 L381 749 L381 640 L170 640 L170 421 L349 421 L349 312 L170 312 L170 109 L381 109 L381 0 L61 0 L61 749 Z M46 920 Q46 947 64.5 965.5 Q83 984 109 984 Q136 984 154.5 965.5 Q173 947 173 920 Q173 893 154.5 874.5 Q136 856 109 856 Q83 856 64.5 874.5 Q46 893 46 920 Z M251 920 Q251 947 269.5 965.5 Q288 984 315 984 Q341 984 360 965.5 Q379 947 379 920 Q379 893 360 874.5 Q341 856 315 856 Q288 856 269.5 874.5 Q251 893 251 920 Z " />
<glyph glyph-name="Edotaccent" unicode="&#x116;" horiz-adv-x="412" d="M61 749 L381 749 L381 640 L170 640 L170 421 L349 421 L349 312 L170 312 L170 109 L381 109 L381 0 L61 0 L61 749 Z M157 920 Q157 947 176 965.5 Q195 984 220 984 Q248 984 266 965.5 Q284 947 284 920 Q284 893 266 874.5 Q248 856 220 856 Q195 856 176 874.5 Q157 893 157 920 Z " />
<glyph glyph-name="Egrave" unicode="&#xc8;" horiz-adv-x="412" d="M61 749 L381 749 L381 640 L170 640 L170 421 L349 421 L349 312 L170 312 L170 109 L381 109 L381 0 L61 0 L61 749 Z M246 868 L150 868 L93 977 L200 977 L246 868 Z " />
<glyph glyph-name="Eogonek" unicode="&#x118;" horiz-adv-x="412" d="M61 749 L381 749 L381 640 L170 640 L170 421 L349 421 L349 312 L170 312 L170 109 L381 109 L381 0 L61 0 L61 749 Z M349 -215 Q325 -230 293 -230 Q273 -230 252.5 -223.5 Q232 -217 216 -205 Q200 -193 190 -175.5 Q180 -158 180 -135 Q180 -119 185 -100 Q190 -81 199 -63 Q208 -45 220 -28.5 Q232 -12 246 0 L288 0 Q273 -27 264 -49.5 Q255 -72 255 -88 Q255 -108 270.5 -121.5 Q286 -135 321 -136 L349 -215 Z " />
<glyph glyph-name="Macron" unicode="&#xf6d0;" horiz-adv-x="409" d="M58 896 L362 896 L362 803 L58 803 L58 896 Z " />
<glyph glyph-name="Emacron" unicode="&#x112;" horiz-adv-x="412" d="M61 749 L381 749 L381 640 L170 640 L170 421 L349 421 L349 312 L170 312 L170 109 L381 109 L381 0 L61 0 L61 749 Z M63 981 L367 981 L367 888 L63 888 L63 981 Z " />
<glyph glyph-name="Gbreve" unicode="&#x11e;" horiz-adv-x="409" d="M146 0 Q128 0 112 7 Q96 14 83.5 26 Q71 38 64 54.5 Q57 71 57 89 L57 660 Q57 678 64 694.5 Q71 711 83.5 723 Q96 735 112 742 Q128 749 146 749 L286 749 Q324 749 349.5 723 Q375 697 375 660 L375 471 L267 471 L267 628 Q267 638 260.5 647.5 Q254 657 242 657 L191 657 Q179 657 173 647.5 Q167 638 167 628 L167 121 Q167 110 174 101.5 Q181 93 191 91 L234 91 Q246 91 256.5 98 Q267 105 267 121 L267 233 L227 233 L227 343 L375 343 L375 0 L277 0 L260 24 Q250 13 239.5 6.5 Q229 0 217 0 L146 0 Z M136 855 Q99 855 72 881 Q45 907 45 944 L45 980 L152 980 Q152 966 162.5 955.5 Q173 945 190 945 L227 945 Q244 945 255 955.5 Q266 966 266 980 L373 980 L373 944 Q373 907 346 881 Q319 855 282 855 L136 855 Z " />
<glyph glyph-name="Gcircumflex" unicode="&#x11c;" horiz-adv-x="409" d="M211 0 Q223 0 233.5 6.5 Q244 13 254 24 L271 0 L369 0 L369 343 L221 343 L221 233 L261 233 L261 121 Q261 105 250.5 98 Q240 91 228 91 L185 91 Q175 93 168 101.5 Q161 110 161 121 L161 628 Q161 638 167 647.5 Q173 657 185 657 L236 657 Q248 657 254.5 647.5 Q261 638 261 628 L261 471 L369 471 L369 660 Q369 697 343.5 723 Q318 749 280 749 L140 749 Q122 749 106 742 Q90 735 77.5 723 Q65 711 58 694.5 Q51 678 51 660 L51 89 Q51 71 58 54.5 Q65 38 77.5 26 Q90 14 106 7 Q122 0 140 0 L211 0 Z M155 978 L256 978 L359 821 L249 821 L206 884 L164 821 L52 821 L155 978 Z " />
<glyph glyph-name="Gcommaaccent" unicode="&#x122;" horiz-adv-x="409" d="M140 0 Q122 0 106 7 Q90 14 77.5 26 Q65 38 58 54.5 Q51 71 51 89 L51 660 Q51 678 58 694.5 Q65 711 77.5 723 Q90 735 106 742 Q122 749 140 749 L280 749 Q318 749 343.5 723 Q369 697 369 660 L369 471 L261 471 L261 628 Q261 638 254.5 647.5 Q248 657 236 657 L185 657 Q173 657 167 647.5 Q161 638 161 628 L161 121 Q161 110 168 101.5 Q175 93 185 91 L228 91 Q240 91 250.5 98 Q261 105 261 121 L261 233 L221 233 L221 343 L369 343 L369 0 L271 0 L254 24 Q244 13 233.5 6.5 Q223 0 211 0 L140 0 Z M155 -215 L155 -106 L264 -106 L264 -201 Q264 -239 262.5 -265.5 Q261 -292 250.5 -309.5 Q240 -327 218 -335 Q196 -343 155 -343 L155 -285 Q174 -285 185 -281 Q196 -277 201 -268.5 Q206 -260 207.5 -247 Q209 -234 209 -215 L155 -215 Z " />
<glyph glyph-name="Gdotaccent" unicode="&#x120;" horiz-adv-x="409" d="M140 0 Q122 0 106 7 Q90 14 77.5 26 Q65 38 58 54.5 Q51 71 51 89 L51 660 Q51 678 58 694.5 Q65 711 77.5 723 Q90 735 106 742 Q122 749 140 749 L280 749 Q318 749 343.5 723 Q369 697 369 660 L369 471 L261 471 L261 628 Q261 638 254.5 647.5 Q248 657 236 657 L185 657 Q173 657 167 647.5 Q161 638 161 628 L161 121 Q161 110 168 101.5 Q175 93 185 91 L228 91 Q240 91 250.5 98 Q261 105 261 121 L261 233 L221 233 L221 343 L369 343 L369 0 L271 0 L254 24 Q244 13 233.5 6.5 Q223 0 211 0 L140 0 Z M143 920 Q143 947 162 965.5 Q181 984 206 984 Q234 984 252 965.5 Q270 947 270 920 Q270 893 252 874.5 Q234 856 206 856 Q181 856 162 874.5 Q143 893 143 920 Z " />
<glyph glyph-name="Hbar" unicode="&#x126;" horiz-adv-x="425" d="M32 653 L53 653 L53 749 L162 749 L162 653 L262 653 L262 749 L372 749 L372 653 L393 653 L393 545 L372 545 L372 0 L262 0 L262 312 L162 312 L162 0 L53 0 L53 545 L32 545 L32 653 Z M262 421 L262 545 L162 545 L162 421 L262 421 Z " />
<glyph glyph-name="Hcircumflex" unicode="&#x124;" horiz-adv-x="425" d="M262 0 L372 0 L372 749 L262 749 L262 421 L162 421 L162 749 L53 749 L53 0 L162 0 L162 312 L262 312 L262 0 Z M162 984 L263 984 L366 827 L256 827 L213 890 L171 827 L59 827 L162 984 Z " />
<glyph glyph-name="Iacute" unicode="&#xcd;" horiz-adv-x="221" d="M63 749 L174 749 L174 0 L63 0 L63 749 Z M109 984 L216 984 L159 875 L61 875 L109 984 Z " />
<glyph glyph-name="Ibreve" unicode="&#x12c;" horiz-adv-x="221" d="M63 749 L174 749 L174 0 L63 0 L63 749 Z M44 851 Q7 851 -20 877 Q-47 903 -47 940 L-47 976 L60 976 Q60 962 70.5 951.5 Q81 941 98 941 L135 941 Q152 941 163 951.5 Q174 962 174 976 L281 976 L281 940 Q281 903 254 877 Q227 851 190 851 L44 851 Z " />
<glyph glyph-name="Icircumflex" unicode="&#xce;" horiz-adv-x="221" d="M63 0 L174 0 L174 749 L63 749 L63 0 Z M61 981 L162 981 L265 824 L155 824 L112 887 L70 824 L-42 824 L61 981 Z " />
<glyph glyph-name="Idieresis" unicode="&#xcf;" horiz-adv-x="221" d="M63 749 L174 749 L174 0 L63 0 L63 749 Z M-50 918 Q-50 945 -31.5 963.5 Q-13 982 13 982 Q40 982 58.5 963.5 Q77 945 77 918 Q77 891 58.5 872.5 Q40 854 13 854 Q-13 854 -31.5 872.5 Q-50 891 -50 918 Z M155 918 Q155 945 173.5 963.5 Q192 982 219 982 Q245 982 264 963.5 Q283 945 283 918 Q283 891 264 872.5 Q245 854 219 854 Q192 854 173.5 872.5 Q155 891 155 918 Z " />
<glyph glyph-name="Idotaccent" unicode="&#x130;" horiz-adv-x="221" d="M63 749 L174 749 L174 0 L63 0 L63 749 Z M49 917 Q49 944 68 962.5 Q87 981 112 981 Q140 981 158 962.5 Q176 944 176 917 Q176 890 158 871.5 Q140 853 112 853 Q87 853 68 871.5 Q49 890 49 917 Z " />
<glyph glyph-name="Igrave" unicode="&#xcc;" horiz-adv-x="221" d="M63 749 L174 749 L174 0 L63 0 L63 749 Z M154 872 L58 872 L1 981 L108 981 L154 872 Z " />
<glyph glyph-name="Imacron" unicode="&#x12a;" horiz-adv-x="221" d="M63 749 L174 749 L174 0 L63 0 L63 749 Z M-38 981 L266 981 L266 888 L-38 888 L-38 981 Z " />
<glyph glyph-name="Iogonek" unicode="&#x12e;" horiz-adv-x="221" d="M63 749 L174 749 L174 0 L63 0 L63 749 Z M212 -214 Q188 -229 156 -229 Q136 -229 115.5 -222.5 Q95 -216 79 -204 Q63 -192 53 -174.5 Q43 -157 43 -134 Q43 -118 48 -99 Q53 -80 62 -62 Q71 -44 83 -27.5 Q95 -11 109 1 L151 1 Q136 -26 127 -48.5 Q118 -71 118 -87 Q118 -107 133.5 -120.5 Q149 -134 184 -135 L212 -214 Z " />
<glyph glyph-name="Itilde" unicode="&#x128;" horiz-adv-x="221" d="M63 749 L174 749 L174 0 L63 0 L63 749 Z M48 980 Q65 980 80 973.5 Q95 967 110 959.5 Q125 952 140 946 Q155 940 173 940 Q183 940 194 948.5 Q205 957 216 980 L298 980 Q293 911 264.5 874 Q236 837 193 837 Q177 837 160.5 843.5 Q144 850 128 858 Q112 866 96.5 872.5 Q81 879 68 879 Q57 879 47.5 870 Q38 861 28 837 L-57 837 Q-52 903 -23 941.5 Q6 980 48 980 Z " />
<glyph glyph-name="IJ" unicode="&#x132;" horiz-adv-x="610" d="M63 749 L174 749 L174 0 L63 0 L63 749 Z M359 292 L359 121 Q359 109 367 100 Q375 91 386 91 L434 91 Q443 93 450 101 Q457 109 457 121 L457 749 L567 749 L567 89 Q567 52 541 26 Q515 0 478 0 L338 0 Q301 0 274.5 26 Q248 52 248 89 L248 292 L359 292 Z " />
<glyph glyph-name="Jcircumflex" unicode="&#x134;" horiz-adv-x="359" d="M-3 292 L-3 89 Q-3 52 23.5 26 Q50 0 87 0 L227 0 Q264 0 290 26 Q316 52 316 89 L316 749 L206 749 L206 121 Q206 109 199 101 Q192 93 183 91 L135 91 Q124 91 116 100 Q108 109 108 121 L108 292 L-3 292 Z M201 977 L302 977 L405 820 L295 820 L252 883 L210 820 L98 820 L201 977 Z " />
<glyph glyph-name="Kcommaaccent" unicode="&#x136;" horiz-adv-x="402" d="M170 546 L143 418 L148 418 L283 749 L400 749 L240 374 L400 0 L284 0 L148 330 L143 330 L170 192 L170 0 L61 0 L61 749 L170 749 L170 546 Z M153 -214 L153 -105 L262 -105 L262 -200 Q262 -238 260.5 -264.5 Q259 -291 248.5 -308.5 Q238 -326 216 -334 Q194 -342 153 -342 L153 -284 Q172 -284 183 -280 Q194 -276 199 -267.5 Q204 -259 205.5 -246 Q207 -233 207 -214 L153 -214 Z " />
<glyph glyph-name="eth" unicode="&#xf0;" horiz-adv-x="396" d="M141 0 Q104 0 77.5 25.5 Q51 51 51 89 L51 451 Q51 488 77.5 514 Q104 540 141 540 L237 540 L210 630 L108 601 L83 688 L185 718 Q180 732 175 747.5 Q170 763 166 777 L274 808 L293 748 L393 777 L419 692 L317 660 Q330 615 340 584 Q350 553 357 529.5 Q364 506 368 487.5 Q372 469 372 450 L372 89 Q372 51 345.5 25.5 Q319 0 281 0 L141 0 Z M189 447 Q178 447 169.5 437.5 Q161 428 161 417 L161 121 Q161 112 169.5 102.5 Q178 93 189 93 L234 93 Q245 93 254 102 Q263 111 263 122 L263 419 Q263 428 254.5 437.5 Q246 447 225 447 L189 447 Z " />
<glyph glyph-name="Lacute" unicode="&#x139;" horiz-adv-x="400" d="M170 109 L381 109 L381 0 L61 0 L61 749 L170 749 L170 109 Z M122 982 L229 982 L172 873 L74 873 L122 982 Z " />
<glyph glyph-name="Lcaron" unicode="&#x13d;" horiz-adv-x="400" d="M170 109 L381 109 L381 0 L61 0 L61 749 L170 749 L170 109 Z M-39 979 L73 979 L116 915 L158 979 L267 979 L165 822 L64 822 L-39 979 Z " />
<glyph glyph-name="Lcommaaccent" unicode="&#x13b;" horiz-adv-x="400" d="M170 109 L381 109 L381 0 L61 0 L61 749 L170 749 L170 109 Z M152 -213 L152 -104 L261 -104 L261 -199 Q261 -237 259.5 -263.5 Q258 -290 247.5 -307.5 Q237 -325 215 -333 Q193 -341 152 -341 L152 -283 Q171 -283 182 -279 Q193 -275 198 -266.5 Q203 -258 204.5 -245 Q206 -232 206 -213 L152 -213 Z " />
<glyph glyph-name="Ldot" unicode="&#x13f;" horiz-adv-x="400" d="M170 109 L381 109 L381 0 L61 0 L61 749 L170 749 L170 109 Z M245 477 Q245 504 264 522.5 Q283 541 308 541 Q336 541 354 522.5 Q372 504 372 477 Q372 450 354 431.5 Q336 413 308 413 Q283 413 264 431.5 Q245 450 245 477 Z " />
<glyph glyph-name="Lslash" unicode="&#x141;" horiz-adv-x="417" d="M189 484 L266 528 L320 432 L189 357 L189 109 L399 109 L399 0 L79 0 L79 292 L47 275 L-8 369 L79 420 L79 749 L189 749 L189 484 Z " />
<glyph glyph-name="Nacute" unicode="&#x143;" horiz-adv-x="426" d="M381 0 L264 0 L145 469 L140 469 Q146 437 150 411 Q154 385 157.5 362.5 Q161 340 164 320.5 Q167 301 170 282 L170 0 L61 0 L61 749 L181 749 L296 283 L301 283 L271 471 L271 749 L381 749 L381 0 Z M206 982 L313 982 L256 873 L158 873 L206 982 Z " />
<glyph glyph-name="Ncaron" unicode="&#x147;" horiz-adv-x="426" d="M381 0 L264 0 L145 469 L140 469 Q146 437 150 411 Q154 385 157.5 362.5 Q161 340 164 320.5 Q167 301 170 282 L170 0 L61 0 L61 749 L181 749 L296 283 L301 283 L271 471 L271 749 L381 749 L381 0 Z M60 983 L172 983 L215 919 L257 983 L366 983 L264 826 L163 826 L60 983 Z " />
<glyph glyph-name="Ncommaaccent" unicode="&#x145;" horiz-adv-x="426" d="M381 0 L264 0 L145 469 L140 469 Q146 437 150 411 Q154 385 157.5 362.5 Q161 340 164 320.5 Q167 301 170 282 L170 0 L61 0 L61 749 L181 749 L296 283 L301 283 L271 471 L271 749 L381 749 L381 0 Z M165 -211 L165 -102 L274 -102 L274 -197 Q274 -235 272.5 -261.5 Q271 -288 260.5 -305.5 Q250 -323 228 -331 Q206 -339 165 -339 L165 -281 Q184 -281 195 -277 Q206 -273 211 -264.5 Q216 -256 217.5 -243 Q219 -230 219 -211 L165 -211 Z " />
<glyph glyph-name="Ntilde" unicode="&#xd1;" horiz-adv-x="426" d="M381 0 L264 0 L145 469 L140 469 Q146 437 150 411 Q154 385 157.5 362.5 Q161 340 164 320.5 Q167 301 170 282 L170 0 L61 0 L61 749 L181 749 L296 283 L301 283 L271 471 L271 749 L381 749 L381 0 Z M150 983 Q167 983 182 976.5 Q197 970 212 962.5 Q227 955 242 949 Q257 943 275 943 Q285 943 296 951.5 Q307 960 318 983 L400 983 Q395 914 366.5 877 Q338 840 295 840 Q279 840 262.5 846.5 Q246 853 230 861 Q214 869 198.5 875.5 Q183 882 170 882 Q159 882 149.5 873 Q140 864 130 840 L45 840 Q50 906 79 944.5 Q108 983 150 983 Z " />
<glyph glyph-name="Oacute" unicode="&#xd3;" horiz-adv-x="406" d="M140 0 Q122 0 106 7 Q90 14 77.5 26 Q65 38 58 54.5 Q51 71 51 89 L51 660 Q51 678 58 694.5 Q65 711 77.5 723 Q90 735 106 742 Q122 749 140 749 L280 749 Q318 749 343.5 723 Q369 697 369 660 L369 89 Q369 52 343.5 26 Q318 0 280 0 L140 0 Z M189 659 Q178 659 169.5 649.5 Q161 640 161 628 L161 121 Q161 110 169.5 100.5 Q178 91 189 91 L232 91 Q244 91 252.5 100 Q261 109 261 121 L261 629 Q261 640 253 649.5 Q245 659 225 659 L189 659 Z M204 977 L311 977 L254 868 L156 868 L204 977 Z " />
<glyph glyph-name="Obreve" unicode="&#x14e;" horiz-adv-x="406" d="M140 0 Q122 0 106 7 Q90 14 77.5 26 Q65 38 58 54.5 Q51 71 51 89 L51 660 Q51 678 58 694.5 Q65 711 77.5 723 Q90 735 106 742 Q122 749 140 749 L280 749 Q318 749 343.5 723 Q369 697 369 660 L369 89 Q369 52 343.5 26 Q318 0 280 0 L140 0 Z M189 659 Q178 659 169.5 649.5 Q161 640 161 628 L161 121 Q161 110 169.5 100.5 Q178 91 189 91 L232 91 Q244 91 252.5 100 Q261 109 261 121 L261 629 Q261 640 253 649.5 Q245 659 225 659 L189 659 Z M136 854 Q99 854 72 880 Q45 906 45 943 L45 979 L152 979 Q152 965 162.5 954.5 Q173 944 190 944 L227 944 Q244 944 255 954.5 Q266 965 266 979 L373 979 L373 943 Q373 906 346 880 Q319 854 282 854 L136 854 Z " />
<glyph glyph-name="Ocircumflex" unicode="&#xd4;" horiz-adv-x="406" d="M280 0 Q318 0 343.5 26 Q369 52 369 89 L369 660 Q369 697 343.5 723 Q318 749 280 749 L140 749 Q122 749 106 742 Q90 735 77.5 723 Q65 711 58 694.5 Q51 678 51 660 L51 89 Q51 71 58 54.5 Q65 38 77.5 26 Q90 14 106 7 Q122 0 140 0 L280 0 Z M225 659 Q245 659 253 649.5 Q261 640 261 629 L261 121 Q261 109 252.5 100 Q244 91 232 91 L189 91 Q178 91 169.5 100.5 Q161 110 161 121 L161 628 Q161 640 169.5 649.5 Q178 659 189 659 L225 659 Z M153 985 L254 985 L357 828 L247 828 L204 891 L162 828 L50 828 L153 985 Z " />
<glyph glyph-name="Odieresis" unicode="&#xd6;" horiz-adv-x="406" d="M140 0 Q122 0 106 7 Q90 14 77.5 26 Q65 38 58 54.5 Q51 71 51 89 L51 660 Q51 678 58 694.5 Q65 711 77.5 723 Q90 735 106 742 Q122 749 140 749 L280 749 Q318 749 343.5 723 Q369 697 369 660 L369 89 Q369 52 343.5 26 Q318 0 280 0 L140 0 Z M189 659 Q178 659 169.5 649.5 Q161 640 161 628 L161 121 Q161 110 169.5 100.5 Q178 91 189 91 L232 91 Q244 91 252.5 100 Q261 109 261 121 L261 629 Q261 640 253 649.5 Q245 659 225 659 L189 659 Z M43 916 Q43 943 61.5 961.5 Q80 980 106 980 Q133 980 151.5 961.5 Q170 943 170 916 Q170 889 151.5 870.5 Q133 852 106 852 Q80 852 61.5 870.5 Q43 889 43 916 Z M248 916 Q248 943 266.5 961.5 Q285 980 312 980 Q338 980 357 961.5 Q376 943 376 916 Q376 889 357 870.5 Q338 852 312 852 Q285 852 266.5 870.5 Q248 889 248 916 Z " />
<glyph glyph-name="Ohungarumlaut" unicode="&#x150;" horiz-adv-x="406" d="M140 0 Q122 0 106 7 Q90 14 77.5 26 Q65 38 58 54.5 Q51 71 51 89 L51 660 Q51 678 58 694.5 Q65 711 77.5 723 Q90 735 106 742 Q122 749 140 749 L280 749 Q318 749 343.5 723 Q369 697 369 660 L369 89 Q369 52 343.5 26 Q318 0 280 0 L140 0 Z M189 659 Q178 659 169.5 649.5 Q161 640 161 628 L161 121 Q161 110 169.5 100.5 Q178 91 189 91 L232 91 Q244 91 252.5 100 Q261 109 261 121 L261 629 Q261 640 253 649.5 Q245 659 225 659 L189 659 Z M103 980 L210 980 L153 871 L55 871 L103 980 Z M307 980 L414 980 L357 871 L259 871 L307 980 Z " />
<glyph glyph-name="Ograve" unicode="&#xd2;" horiz-adv-x="406" d="M140 0 Q122 0 106 7 Q90 14 77.5 26 Q65 38 58 54.5 Q51 71 51 89 L51 660 Q51 678 58 694.5 Q65 711 77.5 723 Q90 735 106 742 Q122 749 140 749 L280 749 Q318 749 343.5 723 Q369 697 369 660 L369 89 Q369 52 343.5 26 Q318 0 280 0 L140 0 Z M189 659 Q178 659 169.5 649.5 Q161 640 161 628 L161 121 Q161 110 169.5 100.5 Q178 91 189 91 L232 91 Q244 91 252.5 100 Q261 109 261 121 L261 629 Q261 640 253 649.5 Q245 659 225 659 L189 659 Z M249 875 L153 875 L96 984 L203 984 L249 875 Z " />
<glyph glyph-name="Oslash" unicode="&#xd8;" horiz-adv-x="483" d="M176 0 Q153 0 119 18 L86 -51 L-20 -51 L87 156 L87 660 Q87 678 94 694.5 Q101 711 113.5 723 Q126 735 142 742 Q158 749 176 749 L316 749 Q330 749 346.5 742.5 Q363 736 380 725 L405 777 L514 777 L406 569 L406 89 Q406 52 379.5 26 Q353 0 316 0 L176 0 Z M224 659 Q213 659 205 649.5 Q197 640 197 628 L197 121 Q197 110 205.5 100.5 Q214 91 224 91 L268 91 Q280 91 287.5 100 Q295 109 295 121 L295 629 Q295 640 287.5 649.5 Q280 659 260 659 L224 659 Z " />
<glyph glyph-name="Omacron" unicode="&#x14c;" horiz-adv-x="406" d="M140 0 Q122 0 106 7 Q90 14 77.5 26 Q65 38 58 54.5 Q51 71 51 89 L51 660 Q51 678 58 694.5 Q65 711 77.5 723 Q90 735 106 742 Q122 749 140 749 L280 749 Q318 749 343.5 723 Q369 697 369 660 L369 89 Q369 52 343.5 26 Q318 0 280 0 L140 0 Z M189 659 Q178 659 169.5 649.5 Q161 640 161 628 L161 121 Q161 110 169.5 100.5 Q178 91 189 91 L232 91 Q244 91 252.5 100 Q261 109 261 121 L261 629 Q261 640 253 649.5 Q245 659 225 659 L189 659 Z M58 979 L362 979 L362 886 L58 886 L58 979 Z " />
<glyph glyph-name="Oslashacute" unicode="&#x1fe;" horiz-adv-x="406" d="M142 0 Q119 0 85 18 L52 -51 L-54 -51 L53 156 L53 660 Q53 678 60 694.5 Q67 711 79.5 723 Q92 735 108 742 Q124 749 142 749 L282 749 Q296 749 312.5 742.5 Q329 736 346 725 L371 777 L480 777 L372 569 L372 89 Q372 52 345.5 26 Q319 0 282 0 L142 0 Z M190 659 Q179 659 171 649.5 Q163 640 163 628 L163 121 Q163 110 171.5 100.5 Q180 91 190 91 L234 91 Q246 91 253.5 100 Q261 109 261 121 L261 629 Q261 640 253.5 649.5 Q246 659 226 659 L190 659 Z M204 982 L311 982 L254 873 L156 873 L204 982 Z " />
<glyph glyph-name="Otilde" unicode="&#xd5;" horiz-adv-x="406" d="M140 0 Q122 0 106 7 Q90 14 77.5 26 Q65 38 58 54.5 Q51 71 51 89 L51 660 Q51 678 58 694.5 Q65 711 77.5 723 Q90 735 106 742 Q122 749 140 749 L280 749 Q318 749 343.5 723 Q369 697 369 660 L369 89 Q369 52 343.5 26 Q318 0 280 0 L140 0 Z M189 659 Q178 659 169.5 649.5 Q161 640 161 628 L161 121 Q161 110 169.5 100.5 Q178 91 189 91 L232 91 Q244 91 252.5 100 Q261 109 261 121 L261 629 Q261 640 253 649.5 Q245 659 225 659 L189 659 Z M140 980 Q157 980 172 973.5 Q187 967 202 959.5 Q217 952 232 946 Q247 940 265 940 Q275 940 286 948.5 Q297 957 308 980 L390 980 Q385 911 356.5 874 Q328 837 285 837 Q269 837 252.5 843.5 Q236 850 220 858 Q204 866 188.5 872.5 Q173 879 160 879 Q149 879 139.5 870 Q130 861 120 837 L35 837 Q40 903 69 941.5 Q98 980 140 980 Z " />
<glyph glyph-name="Racute" unicode="&#x154;" horiz-adv-x="418" d="M380 401 Q380 362 350 338.5 Q320 315 266 310 Q299 233 333.5 155 Q368 77 400 0 L284 0 L147 330 L142 330 L170 192 L170 0 L61 0 L61 749 L288 749 Q306 749 323 742 Q340 735 352.5 723 Q365 711 372.5 694.5 Q380 678 380 660 L380 401 Z M170 659 L170 404 L240 404 Q252 404 261 412.5 Q270 421 270 433 L270 629 Q270 640 263 649.5 Q256 659 244 659 L170 659 Z M216 984 L323 984 L266 875 L168 875 L216 984 Z " />
<glyph glyph-name="Rcaron" unicode="&#x158;" horiz-adv-x="418" d="M380 401 Q380 362 350 338.5 Q320 315 266 310 Q299 233 333.5 155 Q368 77 400 0 L284 0 L147 330 L142 330 L170 192 L170 0 L61 0 L61 749 L288 749 Q306 749 323 742 Q340 735 352.5 723 Q365 711 372.5 694.5 Q380 678 380 660 L380 401 Z M170 659 L170 404 L240 404 Q252 404 261 412.5 Q270 421 270 433 L270 629 Q270 640 263 649.5 Q256 659 244 659 L170 659 Z M56 973 L168 973 L211 909 L253 973 L362 973 L260 816 L159 816 L56 973 Z " />
<glyph glyph-name="Rcommaaccent" unicode="&#x156;" horiz-adv-x="418" d="M380 401 Q380 362 350 338.5 Q320 315 266 310 Q299 233 333.5 155 Q368 77 400 0 L284 0 L147 330 L142 330 L170 192 L170 0 L61 0 L61 749 L288 749 Q306 749 323 742 Q340 735 352.5 723 Q365 711 372.5 694.5 Q380 678 380 660 L380 401 Z M170 659 L170 404 L240 404 Q252 404 261 412.5 Q270 421 270 433 L270 629 Q270 640 263 649.5 Q256 659 244 659 L170 659 Z M161 -215 L161 -106 L270 -106 L270 -201 Q270 -239 268.5 -265.5 Q267 -292 256.5 -309.5 Q246 -327 224 -335 Q202 -343 161 -343 L161 -285 Q180 -285 191 -281 Q202 -277 207 -268.5 Q212 -260 213.5 -247 Q215 -234 215 -215 L161 -215 Z " />
<glyph glyph-name="Sacute" unicode="&#x15a;" horiz-adv-x="421" d="M164 540 Q164 518 179.5 503.5 Q195 489 218.5 476.5 Q242 464 269 452 Q296 440 319.5 424.5 Q343 409 358.5 387.5 Q374 366 374 335 L374 89 Q374 52 347.5 26 Q321 0 283 0 L144 0 Q107 0 80.5 26 Q54 52 54 89 L54 219 L164 219 L164 121 Q164 110 172.5 100.5 Q181 91 192 91 L235 91 Q247 91 256 100 Q265 109 265 121 L265 291 Q265 317 249.5 335 Q234 353 210.5 367 Q187 381 160 392.5 Q133 404 109.5 418.5 Q86 433 70.5 451.5 Q55 470 55 497 L55 660 Q55 697 81.5 723 Q108 749 146 749 L283 749 Q321 749 347.5 723 Q374 697 374 660 L374 554 L265 554 L265 629 Q265 640 256.5 649.5 Q248 659 227 659 L192 659 Q181 659 172.5 649.5 Q164 640 164 628 L164 540 Z M229 977 L336 977 L279 868 L181 868 L229 977 Z " />
<glyph glyph-name="Scaron" unicode="&#x160;" horiz-adv-x="392" d="M154 540 Q154 518 169.5 503.5 Q185 489 208.5 476.5 Q232 464 259 452 Q286 440 309.5 424.5 Q333 409 348.5 387.5 Q364 366 364 335 L364 89 Q364 52 337.5 26 Q311 0 273 0 L134 0 Q97 0 70.5 26 Q44 52 44 89 L44 219 L154 219 L154 121 Q154 110 162.5 100.5 Q171 91 182 91 L225 91 Q237 91 246 100 Q255 109 255 121 L255 291 Q255 317 239.5 335 Q224 353 200.5 367 Q177 381 150 392.5 Q123 404 99.5 418.5 Q76 433 60.5 451.5 Q45 470 45 497 L45 660 Q45 697 71.5 723 Q98 749 136 749 L273 749 Q311 749 337.5 723 Q364 697 364 660 L364 554 L255 554 L255 629 Q255 640 246.5 649.5 Q238 659 217 659 L182 659 Q171 659 162.5 649.5 Q154 640 154 628 L154 540 Z M43 981 L155 981 L198 917 L240 981 L349 981 L247 824 L146 824 L43 981 Z " />
<glyph glyph-name="Scedilla" unicode="&#x15e;" horiz-adv-x="392" d="M154 540 Q154 518 169.5 503.5 Q185 489 208.5 476.5 Q232 464 259 452 Q286 440 309.5 424.5 Q333 409 348.5 387.5 Q364 366 364 335 L364 89 Q364 52 337.5 26 Q311 0 273 0 L134 0 Q97 0 70.5 26 Q44 52 44 89 L44 219 L154 219 L154 121 Q154 110 162.5 100.5 Q171 91 182 91 L225 91 Q237 91 246 100 Q255 109 255 121 L255 291 Q255 317 239.5 335 Q224 353 200.5 367 Q177 381 150 392.5 Q123 404 99.5 418.5 Q76 433 60.5 451.5 Q45 470 45 497 L45 660 Q45 697 71.5 723 Q98 749 136 749 L273 749 Q311 749 337.5 723 Q364 697 364 660 L364 554 L255 554 L255 629 Q255 640 246.5 649.5 Q238 659 217 659 L182 659 Q171 659 162.5 649.5 Q154 640 154 628 L154 540 Z M146 -136 Q181 -135 196.5 -121.5 Q212 -108 212 -88 Q212 -56 179 0 L221 0 Q235 -12 247 -28.5 Q259 -45 268 -63.5 Q277 -82 282 -100.5 Q287 -119 287 -135 Q287 -172 261.5 -199.5 Q236 -227 178 -227 Q168 -227 154 -225.5 Q140 -224 117 -219 L146 -136 Z " />
<glyph glyph-name="Scircumflex" unicode="&#x15c;" horiz-adv-x="392" d="M154 628 Q154 640 162.5 649.5 Q171 659 182 659 L217 659 Q238 659 246.5 649.5 Q255 640 255 629 L255 554 L364 554 L364 660 Q364 697 337.5 723 Q311 749 273 749 L136 749 Q98 749 71.5 723 Q45 697 45 660 L45 497 Q45 470 60.5 451.5 Q76 433 99.5 418.5 Q123 404 150 392.5 Q177 381 200.5 367 Q224 353 239.5 335 Q255 317 255 291 L255 121 Q255 109 246 100 Q237 91 225 91 L182 91 Q171 91 162.5 100.5 Q154 110 154 121 L154 219 L44 219 L44 89 Q44 52 70.5 26 Q97 0 134 0 L273 0 Q311 0 337.5 26 Q364 52 364 89 L364 335 Q364 366 348.5 387.5 Q333 409 309.5 424.5 Q286 440 259 452 Q232 464 208.5 476.5 Q185 489 169.5 503.5 Q154 518 154 540 L154 628 Z M147 983 L248 983 L351 826 L241 826 L198 889 L156 826 L44 826 L147 983 Z " />
<glyph glyph-name="Scommaaccent" unicode="&#x218;" horiz-adv-x="392" d="M154 540 Q154 518 169.5 503.5 Q185 489 208.5 476.5 Q232 464 259 452 Q286 440 309.5 424.5 Q333 409 348.5 387.5 Q364 366 364 335 L364 89 Q364 52 337.5 26 Q311 0 273 0 L134 0 Q97 0 70.5 26 Q44 52 44 89 L44 219 L154 219 L154 121 Q154 110 162.5 100.5 Q171 91 182 91 L225 91 Q237 91 246 100 Q255 109 255 121 L255 291 Q255 317 239.5 335 Q224 353 200.5 367 Q177 381 150 392.5 Q123 404 99.5 418.5 Q76 433 60.5 451.5 Q45 470 45 497 L45 660 Q45 697 71.5 723 Q98 749 136 749 L273 749 Q311 749 337.5 723 Q364 697 364 660 L364 554 L255 554 L255 629 Q255 640 246.5 649.5 Q238 659 217 659 L182 659 Q171 659 162.5 649.5 Q154 640 154 628 L154 540 Z M149 -231 L149 -122 L258 -122 L258 -217 Q258 -255 256.5 -281.5 Q255 -308 244.5 -325.5 Q234 -343 212 -351 Q190 -359 149 -359 L149 -301 Q168 -301 179 -297 Q190 -293 195 -284.5 Q200 -276 201.5 -263 Q203 -250 203 -231 L149 -231 Z " />
<glyph glyph-name="Tbar" unicode="&#x166;" horiz-adv-x="382" d="M32 749 L350 749 L350 640 L246 640 L246 541 L315 541 L315 437 L246 437 L246 0 L136 0 L136 437 L68 437 L68 541 L136 541 L136 640 L32 640 L32 749 Z " />
<glyph glyph-name="Tcaron" unicode="&#x164;" horiz-adv-x="382" d="M36 749 L354 749 L354 640 L250 640 L250 0 L140 0 L140 640 L36 640 L36 749 Z M38 979 L150 979 L193 915 L235 979 L344 979 L242 822 L141 822 L38 979 Z " />
<glyph glyph-name="Tcommaaccent" unicode="&#x162;" horiz-adv-x="382" d="M41 749 L359 749 L359 640 L255 640 L255 0 L145 0 L145 640 L41 640 L41 749 Z M143 -213 L143 -104 L252 -104 L252 -199 Q252 -237 250.5 -263.5 Q249 -290 238.5 -307.5 Q228 -325 206 -333 Q184 -341 143 -341 L143 -283 Q162 -283 173 -279 Q184 -275 189 -266.5 Q194 -258 195.5 -245 Q197 -232 197 -213 L143 -213 Z " />
<glyph glyph-name="Uacute" unicode="&#xda;" horiz-adv-x="418" d="M167 749 L167 121 Q167 110 175.5 100.5 Q184 91 195 91 L238 91 Q250 91 259 100 Q268 109 268 121 L268 749 L377 749 L377 89 Q377 52 350 26 Q323 0 286 0 L147 0 Q110 0 83.5 26 Q57 52 57 89 L57 749 L167 749 Z M207 979 L314 979 L257 870 L159 870 L207 979 Z " />
<glyph glyph-name="Ubreve" unicode="&#x16c;" horiz-adv-x="418" d="M167 749 L167 121 Q167 110 175.5 100.5 Q184 91 195 91 L238 91 Q250 91 259 100 Q268 109 268 121 L268 749 L377 749 L377 89 Q377 52 350 26 Q323 0 286 0 L147 0 Q110 0 83.5 26 Q57 52 57 89 L57 749 L167 749 Z M142 855 Q105 855 78 881 Q51 907 51 944 L51 980 L158 980 Q158 966 168.5 955.5 Q179 945 196 945 L233 945 Q250 945 261 955.5 Q272 966 272 980 L379 980 L379 944 Q379 907 352 881 Q325 855 288 855 L142 855 Z " />
<glyph glyph-name="Ucircumflex" unicode="&#xdb;" horiz-adv-x="418" d="M57 749 L57 89 Q57 52 83.5 26 Q110 0 147 0 L286 0 Q323 0 350 26 Q377 52 377 89 L377 749 L268 749 L268 121 Q268 109 259 100 Q250 91 238 91 L195 91 Q184 91 175.5 100.5 Q167 110 167 121 L167 749 L57 749 Z M159 980 L260 980 L363 823 L253 823 L210 886 L168 823 L56 823 L159 980 Z " />
<glyph glyph-name="Udieresis" unicode="&#xdc;" horiz-adv-x="418" d="M167 749 L167 121 Q167 110 175.5 100.5 Q184 91 195 91 L238 91 Q250 91 259 100 Q268 109 268 121 L268 749 L377 749 L377 89 Q377 52 350 26 Q323 0 286 0 L147 0 Q110 0 83.5 26 Q57 52 57 89 L57 749 L167 749 Z M48 918 Q48 945 66.5 963.5 Q85 982 111 982 Q138 982 156.5 963.5 Q175 945 175 918 Q175 891 156.5 872.5 Q138 854 111 854 Q85 854 66.5 872.5 Q48 891 48 918 Z M253 918 Q253 945 271.5 963.5 Q290 982 317 982 Q343 982 362 963.5 Q381 945 381 918 Q381 891 362 872.5 Q343 854 317 854 Q290 854 271.5 872.5 Q253 891 253 918 Z " />
<glyph glyph-name="Ugrave" unicode="&#xd9;" horiz-adv-x="418" d="M167 749 L167 121 Q167 110 175.5 100.5 Q184 91 195 91 L238 91 Q250 91 259 100 Q268 109 268 121 L268 749 L377 749 L377 89 Q377 52 350 26 Q323 0 286 0 L147 0 Q110 0 83.5 26 Q57 52 57 89 L57 749 L167 749 Z M265 871 L169 871 L112 980 L219 980 L265 871 Z " />
<glyph glyph-name="Uhungarumlaut" unicode="&#x170;" horiz-adv-x="418" d="M167 749 L167 121 Q167 110 175.5 100.5 Q184 91 195 91 L238 91 Q250 91 259 100 Q268 109 268 121 L268 749 L377 749 L377 89 Q377 52 350 26 Q323 0 286 0 L147 0 Q110 0 83.5 26 Q57 52 57 89 L57 749 L167 749 Z M109 983 L216 983 L159 874 L61 874 L109 983 Z M313 983 L420 983 L363 874 L265 874 L313 983 Z " />
<glyph glyph-name="Umacron" unicode="&#x16a;" horiz-adv-x="418" d="M167 749 L167 121 Q167 110 175.5 100.5 Q184 91 195 91 L238 91 Q250 91 259 100 Q268 109 268 121 L268 749 L377 749 L377 89 Q377 52 350 26 Q323 0 286 0 L147 0 Q110 0 83.5 26 Q57 52 57 89 L57 749 L167 749 Z M67 980 L371 980 L371 887 L67 887 L67 980 Z " />
<glyph glyph-name="Uogonek" unicode="&#x172;" horiz-adv-x="418" d="M167 749 L167 121 Q167 110 175.5 100.5 Q184 91 195 91 L238 91 Q250 91 259 100 Q268 109 268 121 L268 749 L377 749 L377 89 Q377 52 350 26 Q323 0 286 0 L147 0 Q110 0 83.5 26 Q57 52 57 89 L57 749 L167 749 Z M314 -214 Q290 -229 258 -229 Q238 -229 217.5 -222.5 Q197 -216 181 -204 Q165 -192 155 -174.5 Q145 -157 145 -134 Q145 -118 150 -99 Q155 -80 164 -62 Q173 -44 185 -27.5 Q197 -11 211 1 L253 1 Q238 -26 229 -48.5 Q220 -71 220 -87 Q220 -107 235.5 -120.5 Q251 -134 286 -135 L314 -214 Z " />
<glyph glyph-name="Uring" unicode="&#x16e;" horiz-adv-x="418" d="M167 749 L167 121 Q167 110 175.5 100.5 Q184 91 195 91 L238 91 Q250 91 259 100 Q268 109 268 121 L268 749 L377 749 L377 89 Q377 52 350 26 Q323 0 286 0 L147 0 Q110 0 83.5 26 Q57 52 57 89 L57 749 L167 749 Z M226 873 Q237 873 241.5 877 Q246 881 246 886 L246 900 Q246 905 242.5 909.5 Q239 914 234 914 L201 914 Q190 914 185.5 909.5 Q181 905 181 900 L181 888 Q181 882 184.5 877.5 Q188 873 193 873 L226 873 Z M166 806 Q144 806 126.5 823 Q109 840 109 862 L109 925 Q109 948 126.5 964.5 Q144 981 166 981 L261 981 Q284 981 301 964.5 Q318 948 318 925 L318 862 Q318 840 301 823 Q284 806 261 806 L166 806 Z " />
<glyph glyph-name="Utilde" unicode="&#x168;" horiz-adv-x="418" d="M167 749 L167 121 Q167 110 175.5 100.5 Q184 91 195 91 L238 91 Q250 91 259 100 Q268 109 268 121 L268 749 L377 749 L377 89 Q377 52 350 26 Q323 0 286 0 L147 0 Q110 0 83.5 26 Q57 52 57 89 L57 749 L167 749 Z M146 985 Q163 985 178 978.5 Q193 972 208 964.5 Q223 957 238 951 Q253 945 271 945 Q281 945 292 953.5 Q303 962 314 985 L396 985 Q391 916 362.5 879 Q334 842 291 842 Q275 842 258.5 848.5 Q242 855 226 863 Q210 871 194.5 877.5 Q179 884 166 884 Q155 884 145.5 875 Q136 866 126 842 L41 842 Q46 908 75 946.5 Q104 985 146 985 Z " />
<glyph glyph-name="Wacute" unicode="&#x1e82;" horiz-adv-x="742" d="M426 749 L512 340 L525 151 L529 151 L542 340 L629 749 L748 749 L580 0 L477 0 L389 356 L377 545 L372 545 L360 356 L272 0 L169 0 L1 749 L120 749 L207 340 L220 151 L224 151 L237 340 L323 749 L426 749 Z M382 981 L489 981 L432 872 L334 872 L382 981 Z " />
<glyph glyph-name="Wcircumflex" unicode="&#x174;" horiz-adv-x="742" d="M426 749 L512 340 L525 151 L529 151 L542 340 L629 749 L748 749 L580 0 L477 0 L389 356 L377 545 L372 545 L360 356 L272 0 L169 0 L1 749 L120 749 L207 340 L220 151 L224 151 L237 340 L323 749 L426 749 Z M322 985 L423 985 L526 828 L416 828 L373 891 L331 828 L219 828 L322 985 Z " />
<glyph glyph-name="Wdieresis" unicode="&#x1e84;" horiz-adv-x="742" d="M426 749 L512 340 L525 151 L529 151 L542 340 L629 749 L748 749 L580 0 L477 0 L389 356 L377 545 L372 545 L360 356 L272 0 L169 0 L1 749 L120 749 L207 340 L220 151 L224 151 L237 340 L323 749 L426 749 Z M211 920 Q211 947 229.5 965.5 Q248 984 274 984 Q301 984 319.5 965.5 Q338 947 338 920 Q338 893 319.5 874.5 Q301 856 274 856 Q248 856 229.5 874.5 Q211 893 211 920 Z M416 920 Q416 947 434.5 965.5 Q453 984 480 984 Q506 984 525 965.5 Q544 947 544 920 Q544 893 525 874.5 Q506 856 480 856 Q453 856 434.5 874.5 Q416 893 416 920 Z " />
<glyph glyph-name="Wgrave" unicode="&#x1e80;" horiz-adv-x="742" d="M426 749 L512 340 L525 151 L529 151 L542 340 L629 749 L748 749 L580 0 L477 0 L389 356 L377 545 L372 545 L360 356 L272 0 L169 0 L1 749 L120 749 L207 340 L220 151 L224 151 L237 340 L323 749 L426 749 Z M413 874 L317 874 L260 983 L367 983 L413 874 Z " />
<glyph glyph-name="Yacute" unicode="&#xdd;" horiz-adv-x="421" d="M201 397 L209 504 L267 749 L378 749 L253 234 L253 0 L144 0 L144 234 L19 749 L130 749 L188 504 L196 397 L201 397 Z M217 986 L324 986 L267 877 L169 877 L217 986 Z " />
<glyph glyph-name="Ycircumflex" unicode="&#x176;" horiz-adv-x="420" d="M213 397 L205 504 L147 749 L36 749 L161 234 L161 0 L270 0 L270 234 L395 749 L284 749 L226 504 L218 397 L213 397 Z M159 980 L260 980 L363 823 L253 823 L210 886 L168 823 L56 823 L159 980 Z " />
<glyph glyph-name="Ydieresis" unicode="&#x178;" horiz-adv-x="421" d="M201 397 L209 504 L267 749 L378 749 L253 234 L253 0 L144 0 L144 234 L19 749 L130 749 L188 504 L196 397 L201 397 Z M35 917 Q35 944 53.5 962.5 Q72 981 98 981 Q125 981 143.5 962.5 Q162 944 162 917 Q162 890 143.5 871.5 Q125 853 98 853 Q72 853 53.5 871.5 Q35 890 35 917 Z M240 917 Q240 944 258.5 962.5 Q277 981 304 981 Q330 981 349 962.5 Q368 944 368 917 Q368 890 349 871.5 Q330 853 304 853 Q277 853 258.5 871.5 Q240 890 240 917 Z " />
<glyph glyph-name="Ygrave" unicode="&#x1ef2;" horiz-adv-x="421" d="M201 397 L209 504 L267 749 L378 749 L253 234 L253 0 L144 0 L144 234 L19 749 L130 749 L188 504 L196 397 L201 397 Z M245 876 L149 876 L92 985 L199 985 L245 876 Z " />
<glyph glyph-name="Zacute" unicode="&#x179;" horiz-adv-x="386" d="M41 749 L360 749 L360 646 Q360 638 358.5 631 Q357 624 355 619 L149 109 L360 109 L360 0 L42 0 L42 101 Q42 121 46 130 L253 640 L41 640 L41 749 Z M216 977 L323 977 L266 868 L168 868 L216 977 Z " />
<glyph glyph-name="Zcaron" unicode="&#x17d;" horiz-adv-x="386" d="M41 749 L360 749 L360 646 Q360 638 358.5 631 Q357 624 355 619 L149 109 L360 109 L360 0 L42 0 L42 101 Q42 121 46 130 L253 640 L41 640 L41 749 Z M45 977 L157 977 L200 913 L242 977 L351 977 L249 820 L148 820 L45 977 Z " />
<glyph glyph-name="Zdotaccent" unicode="&#x17b;" horiz-adv-x="386" d="M41 749 L360 749 L360 646 Q360 638 358.5 631 Q357 624 355 619 L149 109 L360 109 L360 0 L42 0 L42 101 Q42 121 46 130 L253 640 L41 640 L41 749 Z M130 922 Q130 949 149 967.5 Q168 986 193 986 Q221 986 239 967.5 Q257 949 257 922 Q257 895 239 876.5 Q221 858 193 858 Q168 858 149 876.5 Q130 895 130 922 Z " />
<glyph glyph-name="Asmall" unicode="&#xf761;" horiz-adv-x="442" d="M274 540 L444 0 L322 0 Q316 19 310 41 Q304 63 297 83 L146 83 Q139 63 133 41 Q127 19 121 0 L-1 0 L169 540 L274 540 Z M260 193 L235 268 L224 428 L219 428 L208 268 L183 193 L260 193 Z " />
<glyph glyph-name="Bsmall" unicode="&#xf762;" horiz-adv-x="416" d="M60 540 L293 540 Q330 540 356.5 514 Q383 488 383 451 L383 369 Q383 348 371.5 329 Q360 310 337 290 Q383 253 383 212 L383 89 Q383 51 356.5 25.5 Q330 0 293 0 L60 0 L60 540 Z M171 93 L243 93 Q256 93 264 102 Q272 111 272 122 L272 228 Q272 241 263.5 249.5 Q255 258 241 258 L171 258 L171 93 Z M241 350 Q255 350 263.5 359 Q272 368 272 381 L272 418 Q272 427 266 436.5 Q260 446 248 446 L171 446 L171 350 L241 350 Z " />
<glyph glyph-name="Csmall" unicode="&#xf763;" horiz-adv-x="407" d="M372 192 L372 89 Q372 51 345.5 25.5 Q319 0 281 0 L140 0 Q102 0 76 25.5 Q50 51 50 89 L50 451 Q50 488 76 514 Q102 540 140 540 L281 540 Q319 540 345.5 514 Q372 488 372 451 L372 332 L261 332 L261 418 Q261 427 255.5 436.5 Q250 446 236 446 L184 446 Q173 446 167 436.5 Q161 427 161 418 L161 122 Q161 111 168 102 Q175 93 184 93 L232 93 Q245 93 253 102 Q261 111 261 122 L261 192 L372 192 Z " />
<glyph glyph-name="Dsmall" unicode="&#xf764;" horiz-adv-x="415" d="M60 540 L292 540 Q329 540 355.5 514 Q382 488 382 451 L382 89 Q382 51 355.5 25.5 Q329 0 292 0 L60 0 L60 540 Z M271 419 Q271 429 265 438.5 Q259 448 247 448 L171 448 L171 93 L242 93 Q255 93 263 102 Q271 111 271 122 L271 419 Z " />
<glyph glyph-name="Esmall" unicode="&#xf765;" horiz-adv-x="412" d="M60 540 L383 540 L383 430 L171 430 L171 322 L352 322 L352 212 L171 212 L171 111 L383 111 L383 0 L60 0 L60 540 Z " />
<glyph glyph-name="Fsmall" unicode="&#xf766;" horiz-adv-x="406" d="M60 540 L383 540 L383 429 L171 429 L171 312 L352 312 L352 202 L171 202 L171 0 L60 0 L60 540 Z " />
<glyph glyph-name="Gsmall" unicode="&#xf767;" horiz-adv-x="409" d="M140 0 Q102 0 76 25.5 Q50 51 50 89 L50 451 Q50 488 76 514 Q102 540 140 540 L281 540 Q319 540 345.5 514 Q372 488 372 451 L372 332 L261 332 L261 418 Q261 427 255.5 436.5 Q250 446 236 446 L184 446 Q173 446 167 436.5 Q161 427 161 418 L161 122 Q161 111 168.5 102 Q176 93 185 93 L230 93 Q241 93 251 101 Q261 109 261 122 L261 169 L221 169 L221 258 L372 258 L372 0 L271 0 L254 27 Q243 16 230.5 8 Q218 0 206 0 L140 0 Z " />
<glyph glyph-name="Hsmall" unicode="&#xf768;" horiz-adv-x="440" d="M271 203 L170 203 L170 0 L60 0 L60 540 L170 540 L170 313 L271 313 L271 540 L381 540 L381 0 L271 0 L271 203 Z " />
<glyph glyph-name="Ismall" unicode="&#xf769;" horiz-adv-x="221" d="M63 540 L174 540 L174 0 L63 0 L63 540 Z " />
<glyph glyph-name="Jsmall" unicode="&#xf76a;" horiz-adv-x="359" d="M105 192 L105 122 Q105 111 114 102 Q123 93 135 93 L183 93 Q193 94 200 102.5 Q207 111 207 122 L207 540 L318 540 L318 89 Q318 51 291.5 25.5 Q265 0 228 0 L86 0 Q49 0 22.5 25.5 Q-4 51 -4 89 L-4 192 L105 192 Z " />
<glyph glyph-name="Ksmall" unicode="&#xf76b;" horiz-adv-x="388" d="M237 -1 L143 223 L138 223 L168 88 L168 0 L60 0 L60 540 L168 540 L168 437 L138 311 L143 311 Q166 368 191 425.5 Q216 483 239 540 L353 540 L236 267 L351 -1 L237 -1 Z " />
<glyph glyph-name="Lsmall" unicode="&#xf76c;" horiz-adv-x="400" d="M171 111 L383 111 L383 0 L60 0 L60 540 L171 540 L171 111 Z " />
<glyph glyph-name="Msmall" unicode="&#xf76d;" horiz-adv-x="499" d="M249 169 L254 169 L269 310 L339 540 L461 540 L461 0 L351 0 L351 216 L373 354 L368 354 L280 0 L223 0 L135 354 L130 354 L152 216 L152 0 L42 0 L42 540 L164 540 L234 310 L249 169 Z " />
<glyph glyph-name="Nsmall" unicode="&#xf76e;" horiz-adv-x="426" d="M383 0 L263 0 L151 360 L146 360 L171 221 L171 0 L60 0 L60 540 L183 540 L292 178 L297 178 L273 317 L273 540 L383 540 L383 0 Z " />
<glyph glyph-name="Osmall" unicode="&#xf76f;" horiz-adv-x="406" d="M140 0 Q102 0 76 25.5 Q50 51 50 89 L50 451 Q50 488 76 514 Q102 540 140 540 L281 540 Q319 540 345.5 514 Q372 488 372 451 L372 89 Q372 51 345.5 25.5 Q319 0 281 0 L140 0 Z M190 448 Q178 448 169.5 438.5 Q161 429 161 418 L161 121 Q161 112 170 102.5 Q179 93 190 93 L232 93 Q245 93 253 102 Q261 111 261 122 L261 419 Q261 429 254 438.5 Q247 448 225 448 L190 448 Z " />
<glyph glyph-name="Psmall" unicode="&#xf770;" horiz-adv-x="397" d="M60 540 L290 540 Q328 540 354.5 514 Q381 488 381 451 L381 302 Q381 283 374 266.5 Q367 250 354.5 238 Q342 226 325.5 219.5 Q309 213 290 213 L171 213 L171 0 L60 0 L60 540 Z M171 448 L171 305 L241 305 Q254 305 262 314 Q270 323 270 336 L270 419 Q270 429 264 438.5 Q258 448 246 448 L171 448 Z " />
<glyph glyph-name="Qsmall" unicode="&#xf771;" horiz-adv-x="406" d="M190 451 Q178 451 169.5 441.5 Q161 432 161 419 L161 121 Q161 112 170 102.5 Q179 93 190 93 L232 93 Q245 93 253 102 Q261 111 261 122 L261 422 Q261 432 254 441.5 Q247 451 225 451 L190 451 Z M315 -155 L246 -155 Q208 -155 181.5 -129 Q155 -103 155 -65 L155 0 L140 0 Q102 0 76 25.5 Q50 51 50 89 L50 451 Q50 488 76 514 Q102 540 140 540 L281 540 Q319 540 345.5 514 Q372 488 372 451 L372 89 Q372 51 345.5 25.5 Q319 0 281 0 L266 0 L266 -32 Q266 -43 275 -53 Q284 -63 295 -63 L315 -63 L315 -155 Z " />
<glyph glyph-name="Rsmall" unicode="&#xf772;" horiz-adv-x="376" d="M59 540 L269 540 Q307 540 333.5 514 Q360 488 360 451 L360 302 Q360 288 352.5 274.5 Q345 261 332.5 249 Q320 237 304 227 Q288 217 270 211 L357 0 L249 0 L156 222 L151 222 L169 122 L169 0 L59 0 L59 540 Z M169 448 L169 305 L210 305 Q215 305 222 306.5 Q229 308 235 311.5 Q241 315 245.5 321 Q250 327 250 336 L250 419 Q250 429 243.5 438.5 Q237 448 225 448 L169 448 Z " />
<glyph glyph-name="Ssmall" unicode="&#xf773;" horiz-adv-x="389" d="M162 398 Q162 369 177.5 353 Q193 337 216.5 326.5 Q240 316 267.5 307 Q295 298 318.5 283 Q342 268 357.5 243.5 Q373 219 373 177 L373 89 Q373 51 346.5 25.5 Q320 0 282 0 L141 0 Q103 0 77 25.5 Q51 51 51 89 L51 182 L162 182 L162 121 Q162 112 171 102.5 Q180 93 191 93 L233 93 Q246 93 254 102 Q262 111 262 122 L262 157 Q262 182 246.5 197.5 Q231 213 207.5 225 Q184 237 157 247 Q130 257 106.5 270 Q83 283 67.5 301.5 Q52 320 52 349 L52 452 Q52 489 78 515 Q104 541 142 541 L282 541 Q301 541 317.5 532.5 Q334 524 346.5 509.5 Q359 495 366 477 Q373 459 373 441 L373 383 L262 383 L262 421 Q262 430 254.5 440 Q247 450 226 450 L191 450 Q179 450 170.5 440.5 Q162 431 162 419 L162 398 Z " />
<glyph glyph-name="Tsmall" unicode="&#xf774;" horiz-adv-x="382" d="M40 541 L361 541 L361 430 L256 430 L256 0 L147 0 L147 430 L40 430 L40 541 Z " />
<glyph glyph-name="Usmall" unicode="&#xf775;" horiz-adv-x="418" d="M167 541 L167 121 Q167 112 175.5 102.5 Q184 93 195 93 L238 93 Q251 93 259 102 Q267 111 267 122 L267 541 L378 541 L378 89 Q378 51 351.5 25.5 Q325 0 287 0 L146 0 Q108 0 82 25.5 Q56 51 56 89 L56 541 L167 541 Z " />
<glyph glyph-name="Vsmall" unicode="&#xf776;" horiz-adv-x="442" d="M229 112 L240 272 L327 541 L449 541 L279 0 L174 0 L4 541 L126 541 L213 272 L224 112 L229 112 Z " />
<glyph glyph-name="Wsmall" unicode="&#xf777;" horiz-adv-x="804" d="M400 397 L384 249 L316 0 L186 0 L20 541 L150 541 L236 255 L247 132 L252 132 L263 255 L348 541 L457 541 L542 255 L553 132 L558 132 L569 255 L655 541 L785 541 L619 0 L489 0 L421 249 L405 397 L400 397 Z " />
<glyph glyph-name="Xsmall" unicode="&#xf778;" horiz-adv-x="417" d="M223 404 L284 541 L399 541 L306 317 L400 0 L280 0 L224 161 L215 246 L211 246 L202 161 L146 0 L26 0 L120 317 L27 541 L142 541 L203 404 L210 336 L216 336 L223 404 Z " />
<glyph glyph-name="Ysmall" unicode="&#xf779;" horiz-adv-x="421" d="M167 163 L34 541 L152 541 L210 385 L219 274 L224 274 L231 385 L292 541 L407 541 L277 170 L277 0 L167 0 L167 163 Z " />
<glyph glyph-name="Zsmall" unicode="&#xf77a;" horiz-adv-x="386" d="M161 111 L362 111 L362 0 L41 0 L41 102 Q41 110 42 118 Q43 126 45 129 L243 430 L40 430 L40 541 L361 541 L361 439 Q361 430 360.5 423 Q360 416 356 409 L161 111 Z " />
<glyph glyph-name="Aacutesmall" unicode="&#xf7e1;" horiz-adv-x="442" d="M274 540 L444 0 L322 0 Q316 19 310 41 Q304 63 297 83 L146 83 Q139 63 133 41 Q127 19 121 0 L-1 0 L169 540 L274 540 Z M260 193 L235 268 L224 428 L219 428 L208 268 L183 193 L260 193 Z M234 774 L341 774 L284 665 L186 665 L234 774 Z " />
<glyph glyph-name="Acircumflexsmall" unicode="&#xf7e2;" horiz-adv-x="442" d="M169 540 L-1 0 L121 0 Q127 19 133 41 Q139 63 146 83 L297 83 Q304 63 310 41 Q316 19 322 0 L444 0 L274 540 L169 540 Z M183 193 L208 268 L219 428 L224 428 L235 268 L260 193 L183 193 Z M172 777 L273 777 L376 620 L266 620 L223 683 L181 620 L69 620 L172 777 Z " />
<glyph glyph-name="Adieresissmall" unicode="&#xf7e4;" horiz-adv-x="442" d="M274 540 L444 0 L322 0 Q316 19 310 41 Q304 63 297 83 L146 83 Q139 63 133 41 Q127 19 121 0 L-1 0 L169 540 L274 540 Z M260 193 L235 268 L224 428 L219 428 L208 268 L183 193 L260 193 Z M61 711 Q61 738 79.5 756.5 Q98 775 124 775 Q151 775 169.5 756.5 Q188 738 188 711 Q188 684 169.5 665.5 Q151 647 124 647 Q98 647 79.5 665.5 Q61 684 61 711 Z M266 711 Q266 738 284.5 756.5 Q303 775 330 775 Q356 775 375 756.5 Q394 738 394 711 Q394 684 375 665.5 Q356 647 330 647 Q303 647 284.5 665.5 Q266 684 266 711 Z " />
<glyph glyph-name="Aringsmall" unicode="&#xf7e5;" horiz-adv-x="442" d="M274 540 L444 0 L322 0 Q316 19 310 41 Q304 63 297 83 L146 83 Q139 63 133 41 Q127 19 121 0 L-1 0 L169 540 L274 540 Z M260 193 L235 268 L224 428 L219 428 L208 268 L183 193 L260 193 Z M238 540 Q249 540 253.5 544 Q258 548 258 553 L258 567 Q258 572 254.5 576.5 Q251 581 246 581 L213 581 Q202 581 197.5 576.5 Q193 572 193 567 L193 555 Q193 549 196.5 544.5 Q200 540 205 540 L238 540 Z M178 473 Q156 473 138.5 490 Q121 507 121 529 L121 592 Q121 615 138.5 631.5 Q156 648 178 648 L273 648 Q296 648 313 631.5 Q330 615 330 592 L330 529 Q330 507 313 490 Q296 473 273 473 L178 473 Z " />
<glyph glyph-name="Atildesmall" unicode="&#xf7e3;" horiz-adv-x="442" d="M274 540 L444 0 L322 0 Q316 19 310 41 Q304 63 297 83 L146 83 Q139 63 133 41 Q127 19 121 0 L-1 0 L169 540 L274 540 Z M260 193 L235 268 L224 428 L219 428 L208 268 L183 193 L260 193 Z M158 773 Q175 773 190 766.5 Q205 760 220 752.5 Q235 745 250 739 Q265 733 283 733 Q293 733 304 741.5 Q315 750 326 773 L408 773 Q403 704 374.5 667 Q346 630 303 630 Q287 630 270.5 636.5 Q254 643 238 651 Q222 659 206.5 665.5 Q191 672 178 672 Q167 672 157.5 663 Q148 654 138 630 L53 630 Q58 696 87 734.5 Q116 773 158 773 Z " />
<glyph glyph-name="Agravesmall" unicode="&#xf7e0;" horiz-adv-x="442" d="M274 540 L444 0 L322 0 Q316 19 310 41 Q304 63 297 83 L146 83 Q139 63 133 41 Q127 19 121 0 L-1 0 L169 540 L274 540 Z M260 193 L235 268 L224 428 L219 428 L208 268 L183 193 L260 193 Z M245 665 L149 665 L92 774 L199 774 L245 665 Z " />
<glyph glyph-name="AEsmall" unicode="&#xf7e6;" horiz-adv-x="600" d="M225 72 L149 72 L130 0 L8 0 L176 540 L548 540 L548 429 L334 429 L334 322 L516 322 L516 212 L334 212 L334 111 L548 111 L548 0 L225 0 L225 72 Z M173 164 L225 164 L225 290 L236 416 L231 416 L207 292 L173 164 Z " />
<glyph glyph-name="Ccedillasmall" unicode="&#xf7e7;" horiz-adv-x="407" d="M372 192 L372 89 Q372 51 345.5 25.5 Q319 0 281 0 L140 0 Q102 0 76 25.5 Q50 51 50 89 L50 451 Q50 488 76 514 Q102 540 140 540 L281 540 Q319 540 345.5 514 Q372 488 372 451 L372 332 L261 332 L261 418 Q261 427 255.5 436.5 Q250 446 236 446 L184 446 Q173 446 167 436.5 Q161 427 161 418 L161 122 Q161 111 168 102 Q175 93 184 93 L232 93 Q245 93 253 102 Q261 111 261 122 L261 192 L372 192 Z M151 -136 Q186 -135 201.5 -121.5 Q217 -108 217 -88 Q217 -56 184 0 L226 0 Q240 -12 252 -28.5 Q264 -45 273 -63.5 Q282 -82 287 -100.5 Q292 -119 292 -135 Q292 -172 266.5 -199.5 Q241 -227 183 -227 Q173 -227 159 -225.5 Q145 -224 122 -219 L151 -136 Z " />
<glyph glyph-name="Eacutesmall" unicode="&#xf7e9;" horiz-adv-x="412" d="M60 540 L383 540 L383 430 L171 430 L171 322 L352 322 L352 212 L171 212 L171 111 L383 111 L383 0 L60 0 L60 540 Z M223 771 L330 771 L273 662 L175 662 L223 771 Z " />
<glyph glyph-name="Ecircumflexsmall" unicode="&#xf7ea;" horiz-adv-x="412" d="M60 0 L383 0 L383 111 L171 111 L171 212 L352 212 L352 322 L171 322 L171 430 L383 430 L383 540 L60 540 L60 0 Z M157 774 L258 774 L361 617 L251 617 L208 680 L166 617 L54 617 L157 774 Z " />
<glyph glyph-name="Edieresissmall" unicode="&#xf7eb;" horiz-adv-x="412" d="M60 540 L383 540 L383 430 L171 430 L171 322 L352 322 L352 212 L171 212 L171 111 L383 111 L383 0 L60 0 L60 540 Z M46 711 Q46 738 64.5 756.5 Q83 775 109 775 Q136 775 154.5 756.5 Q173 738 173 711 Q173 684 154.5 665.5 Q136 647 109 647 Q83 647 64.5 665.5 Q46 684 46 711 Z M251 711 Q251 738 269.5 756.5 Q288 775 315 775 Q341 775 360 756.5 Q379 738 379 711 Q379 684 360 665.5 Q341 647 315 647 Q288 647 269.5 665.5 Q251 684 251 711 Z " />
<glyph glyph-name="Egravesmall" unicode="&#xf7e8;" horiz-adv-x="412" d="M60 540 L383 540 L383 430 L171 430 L171 322 L352 322 L352 212 L171 212 L171 111 L383 111 L383 0 L60 0 L60 540 Z M256 665 L160 665 L103 774 L210 774 L256 665 Z " />
<glyph glyph-name="Iacutesmall" unicode="&#xf7ed;" horiz-adv-x="221" d="M63 540 L174 540 L174 0 L63 0 L63 540 Z M106 774 L213 774 L156 665 L58 665 L106 774 Z " />
<glyph glyph-name="Icircumflexsmall" unicode="&#xf7ee;" horiz-adv-x="221" d="M63 0 L174 0 L174 540 L63 540 L63 0 Z M61 768 L162 768 L265 611 L155 611 L112 674 L70 611 L-42 611 L61 768 Z " />
<glyph glyph-name="Idieresissmall" unicode="&#xf7ef;" horiz-adv-x="221" d="M63 540 L174 540 L174 0 L63 0 L63 540 Z M-50 711 Q-50 738 -31.5 756.5 Q-13 775 13 775 Q40 775 58.5 756.5 Q77 738 77 711 Q77 684 58.5 665.5 Q40 647 13 647 Q-13 647 -31.5 665.5 Q-50 684 -50 711 Z M155 711 Q155 738 173.5 756.5 Q192 775 219 775 Q245 775 264 756.5 Q283 738 283 711 Q283 684 264 665.5 Q245 647 219 647 Q192 647 173.5 665.5 Q155 684 155 711 Z " />
<glyph glyph-name="Igravesmall" unicode="&#xf7ec;" horiz-adv-x="221" d="M63 540 L174 540 L174 0 L63 0 L63 540 Z M163 667 L67 667 L10 776 L117 776 L163 667 Z " />
<glyph glyph-name="Lslashsmall" unicode="&#xf6f9;" horiz-adv-x="400" d="M60 314 L60 540 L169 540 L169 376 L247 421 L300 326 L169 252 L169 112 L382 112 L382 0 L60 0 L60 190 L26 171 L-27 265 L60 314 Z " />
<glyph glyph-name="Ntildesmall" unicode="&#xf7f1;" horiz-adv-x="426" d="M383 0 L263 0 L151 360 L146 360 L171 221 L171 0 L60 0 L60 540 L183 540 L292 178 L297 178 L273 317 L273 540 L383 540 L383 0 Z M150 768 Q167 768 182 761.5 Q197 755 212 747.5 Q227 740 242 734 Q257 728 275 728 Q285 728 296 736.5 Q307 745 318 768 L400 768 Q395 699 366.5 662 Q338 625 295 625 Q279 625 262.5 631.5 Q246 638 230 646 Q214 654 198.5 660.5 Q183 667 170 667 Q159 667 149.5 658 Q140 649 130 625 L45 625 Q50 691 79 729.5 Q108 768 150 768 Z " />
<glyph glyph-name="Oslashsmall" unicode="&#xf7f8;" horiz-adv-x="450" d="M168 0 Q160 0 146 3.5 Q132 7 120 12 L78 -52 L-31 -52 L77 103 L77 451 Q77 488 103.5 514 Q130 540 168 540 L310 540 Q321 540 334.5 536 Q348 532 366 521 L399 568 L507 568 L399 414 L399 89 Q399 70 392 54 Q385 38 372.5 26 Q360 14 344 7 Q328 0 310 0 L168 0 Z M216 448 Q204 448 196 438.5 Q188 429 188 418 L188 121 Q188 112 196.5 102.5 Q205 93 216 93 L260 93 Q272 93 280.5 102 Q289 111 289 122 L289 419 Q289 429 281 438.5 Q273 448 251 448 L216 448 Z " />
<glyph glyph-name="Otildesmall" unicode="&#xf7f5;" horiz-adv-x="406" d="M140 0 Q102 0 76 25.5 Q50 51 50 89 L50 451 Q50 488 76 514 Q102 540 140 540 L281 540 Q319 540 345.5 514 Q372 488 372 451 L372 89 Q372 51 345.5 25.5 Q319 0 281 0 L140 0 Z M190 448 Q178 448 169.5 438.5 Q161 429 161 418 L161 121 Q161 112 170 102.5 Q179 93 190 93 L232 93 Q245 93 253 102 Q261 111 261 122 L261 419 Q261 429 254 438.5 Q247 448 225 448 L190 448 Z M141 774 Q158 774 173 767.5 Q188 761 203 753.5 Q218 746 233 740 Q248 734 266 734 Q276 734 287 742.5 Q298 751 309 774 L391 774 Q386 705 357.5 668 Q329 631 286 631 Q270 631 253.5 637.5 Q237 644 221 652 Q205 660 189.5 666.5 Q174 673 161 673 Q150 673 140.5 664 Q131 655 121 631 L36 631 Q41 697 70 735.5 Q99 774 141 774 Z " />
<glyph glyph-name="Ogravesmall" unicode="&#xf7f2;" horiz-adv-x="406" d="M140 0 Q102 0 76 25.5 Q50 51 50 89 L50 451 Q50 488 76 514 Q102 540 140 540 L281 540 Q319 540 345.5 514 Q372 488 372 451 L372 89 Q372 51 345.5 25.5 Q319 0 281 0 L140 0 Z M190 448 Q178 448 169.5 438.5 Q161 429 161 418 L161 121 Q161 112 170 102.5 Q179 93 190 93 L232 93 Q245 93 253 102 Q261 111 261 122 L261 419 Q261 429 254 438.5 Q247 448 225 448 L190 448 Z M240 663 L144 663 L87 772 L194 772 L240 663 Z " />
<glyph glyph-name="Odieresissmall" unicode="&#xf7f6;" horiz-adv-x="406" d="M140 0 Q102 0 76 25.5 Q50 51 50 89 L50 451 Q50 488 76 514 Q102 540 140 540 L281 540 Q319 540 345.5 514 Q372 488 372 451 L372 89 Q372 51 345.5 25.5 Q319 0 281 0 L140 0 Z M190 448 Q178 448 169.5 438.5 Q161 429 161 418 L161 121 Q161 112 170 102.5 Q179 93 190 93 L232 93 Q245 93 253 102 Q261 111 261 122 L261 419 Q261 429 254 438.5 Q247 448 225 448 L190 448 Z M43 711 Q43 738 61.5 756.5 Q80 775 106 775 Q133 775 151.5 756.5 Q170 738 170 711 Q170 684 151.5 665.5 Q133 647 106 647 Q80 647 61.5 665.5 Q43 684 43 711 Z M248 711 Q248 738 266.5 756.5 Q285 775 312 775 Q338 775 357 756.5 Q376 738 376 711 Q376 684 357 665.5 Q338 647 312 647 Q285 647 266.5 665.5 Q248 684 248 711 Z " />
<glyph glyph-name="Ocircumflexsmall" unicode="&#xf7f4;" horiz-adv-x="406" d="M281 0 Q319 0 345.5 25.5 Q372 51 372 89 L372 451 Q372 488 345.5 514 Q319 540 281 540 L140 540 Q102 540 76 514 Q50 488 50 451 L50 89 Q50 51 76 25.5 Q102 0 140 0 L281 0 Z M225 448 Q247 448 254 438.5 Q261 429 261 419 L261 122 Q261 111 253 102 Q245 93 232 93 L190 93 Q179 93 170 102.5 Q161 112 161 121 L161 418 Q161 429 169.5 438.5 Q178 448 190 448 L225 448 Z M154 775 L255 775 L358 618 L248 618 L205 681 L163 618 L51 618 L154 775 Z " />
<glyph glyph-name="Oacutesmall" unicode="&#xf7f3;" horiz-adv-x="406" d="M140 0 Q102 0 76 25.5 Q50 51 50 89 L50 451 Q50 488 76 514 Q102 540 140 540 L281 540 Q319 540 345.5 514 Q372 488 372 451 L372 89 Q372 51 345.5 25.5 Q319 0 281 0 L140 0 Z M190 448 Q178 448 169.5 438.5 Q161 429 161 418 L161 121 Q161 112 170 102.5 Q179 93 190 93 L232 93 Q245 93 253 102 Q261 111 261 122 L261 419 Q261 429 254 438.5 Q247 448 225 448 L190 448 Z M207 774 L314 774 L257 665 L159 665 L207 774 Z " />
<glyph glyph-name="OEsmall" unicode="&#xf6fa;" horiz-adv-x="607" d="M140 0 Q102 0 76 25.5 Q50 51 50 89 L50 451 Q50 488 76 514 Q102 540 140 540 L586 540 L586 430 L374 430 L374 322 L555 322 L555 212 L374 212 L374 111 L586 111 L586 0 L140 0 Z M190 448 Q178 448 169.5 438.5 Q161 429 161 418 L161 121 Q161 112 170 102.5 Q179 93 190 93 L232 93 Q245 93 253 102 Q261 111 261 122 L261 419 Q261 429 254 438.5 Q247 448 225 448 L190 448 Z " />
<glyph glyph-name="Scaronsmall" unicode="&#xf6fd;" horiz-adv-x="389" d="M162 398 Q162 369 177.5 353 Q193 337 216.5 326.5 Q240 316 267.5 307 Q295 298 318.5 283 Q342 268 357.5 243.5 Q373 219 373 177 L373 89 Q373 51 346.5 25.5 Q320 0 282 0 L141 0 Q103 0 77 25.5 Q51 51 51 89 L51 182 L162 182 L162 121 Q162 112 171 102.5 Q180 93 191 93 L233 93 Q246 93 254 102 Q262 111 262 122 L262 157 Q262 182 246.5 197.5 Q231 213 207.5 225 Q184 237 157 247 Q130 257 106.5 270 Q83 283 67.5 301.5 Q52 320 52 349 L52 452 Q52 489 78 515 Q104 541 142 541 L282 541 Q301 541 317.5 532.5 Q334 524 346.5 509.5 Q359 495 366 477 Q373 459 373 441 L373 383 L262 383 L262 421 Q262 430 254.5 440 Q247 450 226 450 L191 450 Q179 450 170.5 440.5 Q162 431 162 419 L162 398 Z M42 772 L154 772 L197 708 L239 772 L348 772 L246 615 L145 615 L42 772 Z " />
<glyph glyph-name="Ugravesmall" unicode="&#xf7f9;" horiz-adv-x="418" d="M167 541 L167 121 Q167 112 175.5 102.5 Q184 93 195 93 L238 93 Q251 93 259 102 Q267 111 267 122 L267 541 L378 541 L378 89 Q378 51 351.5 25.5 Q325 0 287 0 L146 0 Q108 0 82 25.5 Q56 51 56 89 L56 541 L167 541 Z M252 663 L156 663 L99 772 L206 772 L252 663 Z " />
<glyph glyph-name="Uacutesmall" unicode="&#xf7fa;" horiz-adv-x="418" d="M167 541 L167 121 Q167 112 175.5 102.5 Q184 93 195 93 L238 93 Q251 93 259 102 Q267 111 267 122 L267 541 L378 541 L378 89 Q378 51 351.5 25.5 Q325 0 287 0 L146 0 Q108 0 82 25.5 Q56 51 56 89 L56 541 L167 541 Z M216 775 L323 775 L266 666 L168 666 L216 775 Z " />
<glyph glyph-name="Ucircumflexsmall" unicode="&#xf7fb;" horiz-adv-x="418" d="M56 541 L56 89 Q56 51 82 25.5 Q108 0 146 0 L287 0 Q325 0 351.5 25.5 Q378 51 378 89 L378 541 L267 541 L267 122 Q267 111 259 102 Q251 93 238 93 L195 93 Q184 93 175.5 102.5 Q167 112 167 121 L167 541 L56 541 Z M160 775 L261 775 L364 618 L254 618 L211 681 L169 618 L57 618 L160 775 Z " />
<glyph glyph-name="Udieresissmall" unicode="&#xf7fc;" horiz-adv-x="418" d="M167 541 L167 121 Q167 112 175.5 102.5 Q184 93 195 93 L238 93 Q251 93 259 102 Q267 111 267 122 L267 541 L378 541 L378 89 Q378 51 351.5 25.5 Q325 0 287 0 L146 0 Q108 0 82 25.5 Q56 51 56 89 L56 541 L167 541 Z M49 711 Q49 738 67.5 756.5 Q86 775 112 775 Q139 775 157.5 756.5 Q176 738 176 711 Q176 684 157.5 665.5 Q139 647 112 647 Q86 647 67.5 665.5 Q49 684 49 711 Z M254 711 Q254 738 272.5 756.5 Q291 775 318 775 Q344 775 363 756.5 Q382 738 382 711 Q382 684 363 665.5 Q344 647 318 647 Q291 647 272.5 665.5 Q254 684 254 711 Z " />
<glyph glyph-name="Yacutesmall" unicode="&#xf7fd;" horiz-adv-x="421" d="M167 163 L34 541 L152 541 L210 385 L219 274 L224 274 L231 385 L292 541 L407 541 L277 170 L277 0 L167 0 L167 163 Z M229 775 L336 775 L279 666 L181 666 L229 775 Z " />
<glyph glyph-name="Ydieresissmall" unicode="&#xf7ff;" horiz-adv-x="421" d="M167 163 L34 541 L152 541 L210 385 L219 274 L224 274 L231 385 L292 541 L407 541 L277 170 L277 0 L167 0 L167 163 Z M50 711 Q50 738 68.5 756.5 Q87 775 113 775 Q140 775 158.5 756.5 Q177 738 177 711 Q177 684 158.5 665.5 Q140 647 113 647 Q87 647 68.5 665.5 Q50 684 50 711 Z M255 711 Q255 738 273.5 756.5 Q292 775 319 775 Q345 775 364 756.5 Q383 738 383 711 Q383 684 364 665.5 Q345 647 319 647 Q292 647 273.5 665.5 Q255 684 255 711 Z " />
<glyph glyph-name="Zcaronsmall" unicode="&#xf6ff;" horiz-adv-x="386" d="M161 111 L362 111 L362 0 L41 0 L41 102 Q41 110 42 118 Q43 126 45 129 L243 430 L40 430 L40 541 L361 541 L361 439 Q361 430 360.5 423 Q360 416 356 409 L161 111 Z M41 775 L153 775 L196 711 L238 775 L347 775 L245 618 L144 618 L41 775 Z " />
<glyph glyph-name="uni2215" unicode="&#x2215;" horiz-adv-x="483" d="M536 822 L113 0 L7 0 L426 822 L536 822 Z " />
<glyph glyph-name="summation" unicode="&#x2211;" horiz-adv-x="416" d="M371 -21 L371 -111 L61 -111 L61 -17 L257 306 Q208 366 159 426.5 Q110 487 61 545 L61 645 L371 645 L371 552 L172 552 Q220 491 270 429.5 Q320 368 368 308 L174 -21 L371 -21 Z " />
<glyph glyph-name="product" unicode="&#x220f;" horiz-adv-x="418" d="M57 0 L57 749 L377 749 L377 0 L268 0 L268 658 L167 658 L167 0 L57 0 Z " />
<glyph glyph-name="uni2206" unicode="&#x2206;" horiz-adv-x="422" d="M-6 0 L163 749 L267 749 L436 0 L-6 0 Z M213 598 L200 409 L131 91 L298 91 L230 409 L217 598 L213 598 Z " />
<glyph glyph-name="trademark" unicode="&#x2122;" horiz-adv-x="885" d="M40 775 L361 775 L361 664 L256 664 L256 234 L147 234 L147 664 L40 664 L40 775 Z M619 404 L624 404 L639 545 L709 775 L831 775 L831 235 L721 235 L721 451 L743 589 L738 589 L650 235 L593 235 L505 589 L500 589 L522 451 L522 235 L412 235 L412 775 L534 775 L604 545 L619 404 Z " />
<glyph glyph-name="ff" unicode="&#xfb00;" horiz-adv-x="584" d="M374 429 L158 429 L158 0 L49 0 L49 671 Q49 719 73 746 Q97 773 141 773 L272 773 L272 663 L158 663 L158 540 L374 540 L374 671 Q374 719 398.5 746 Q423 773 465 773 L596 773 L596 663 L485 663 L485 540 L566 540 L566 429 L485 429 L485 0 L374 0 L374 429 Z " />
<glyph glyph-name="aacute" unicode="&#xe1;" horiz-adv-x="416" d="M161 121 Q161 112 169.5 102.5 Q178 93 190 93 L228 93 Q240 93 250.5 99 Q261 105 261 122 L261 422 Q261 440 250.5 443 Q240 446 228 446 L184 446 Q173 446 167 436.5 Q161 427 161 418 L161 121 Z M228 540 Q236 540 247 535.5 Q258 531 268 520 Q279 540 302 540 L372 540 L372 0 L286 0 L267 22 Q259 12 248 6 Q237 0 226 0 L140 0 Q102 0 76 25.5 Q50 51 50 89 L50 451 Q50 488 76 514 Q102 540 140 540 L228 540 Z M204 775 L311 775 L254 666 L156 666 L204 775 Z " />
<glyph glyph-name="abreve" unicode="&#x103;" horiz-adv-x="416" d="M161 121 Q161 112 169.5 102.5 Q178 93 190 93 L228 93 Q240 93 250.5 99 Q261 105 261 122 L261 422 Q261 440 250.5 443 Q240 446 228 446 L184 446 Q173 446 167 436.5 Q161 427 161 418 L161 121 Z M228 540 Q236 540 247 535.5 Q258 531 268 520 Q279 540 302 540 L372 540 L372 0 L286 0 L267 22 Q259 12 248 6 Q237 0 226 0 L140 0 Q102 0 76 25.5 Q50 51 50 89 L50 451 Q50 488 76 514 Q102 540 140 540 L228 540 Z M141 649 Q104 649 77 675 Q50 701 50 738 L50 774 L157 774 Q157 760 167.5 749.5 Q178 739 195 739 L232 739 Q249 739 260 749.5 Q271 760 271 774 L378 774 L378 738 Q378 701 351 675 Q324 649 287 649 L141 649 Z " />
<glyph glyph-name="acircumflex" unicode="&#xe2;" horiz-adv-x="416" d="M161 418 Q161 427 167 436.5 Q173 446 184 446 L228 446 Q240 446 250.5 443 Q261 440 261 422 L261 122 Q261 105 250.5 99 Q240 93 228 93 L190 93 Q178 93 169.5 102.5 Q161 112 161 121 L161 418 Z M140 540 Q102 540 76 514 Q50 488 50 451 L50 89 Q50 51 76 25.5 Q102 0 140 0 L226 0 Q237 0 248 6 Q259 12 267 22 L286 0 L372 0 L372 540 L302 540 Q279 540 268 520 Q258 531 247 535.5 Q236 540 228 540 L140 540 Z M158 774 L259 774 L362 617 L252 617 L209 680 L167 617 L55 617 L158 774 Z " />
<glyph glyph-name="adieresis" unicode="&#xe4;" horiz-adv-x="416" d="M161 121 Q161 112 169.5 102.5 Q178 93 190 93 L228 93 Q240 93 250.5 99 Q261 105 261 122 L261 422 Q261 440 250.5 443 Q240 446 228 446 L184 446 Q173 446 167 436.5 Q161 427 161 418 L161 121 Z M228 540 Q236 540 247 535.5 Q258 531 268 520 Q279 540 302 540 L372 540 L372 0 L286 0 L267 22 Q259 12 248 6 Q237 0 226 0 L140 0 Q102 0 76 25.5 Q50 51 50 89 L50 451 Q50 488 76 514 Q102 540 140 540 L228 540 Z M47 721 Q47 748 65.5 766.5 Q84 785 110 785 Q137 785 155.5 766.5 Q174 748 174 721 Q174 694 155.5 675.5 Q137 657 110 657 Q84 657 65.5 675.5 Q47 694 47 721 Z M252 721 Q252 748 270.5 766.5 Q289 785 316 785 Q342 785 361 766.5 Q380 748 380 721 Q380 694 361 675.5 Q342 657 316 657 Q289 657 270.5 675.5 Q252 694 252 721 Z " />
<glyph glyph-name="agrave" unicode="&#xe0;" horiz-adv-x="416" d="M161 121 Q161 112 169.5 102.5 Q178 93 190 93 L228 93 Q240 93 250.5 99 Q261 105 261 122 L261 422 Q261 440 250.5 443 Q240 446 228 446 L184 446 Q173 446 167 436.5 Q161 427 161 418 L161 121 Z M228 540 Q236 540 247 535.5 Q258 531 268 520 Q279 540 302 540 L372 540 L372 0 L286 0 L267 22 Q259 12 248 6 Q237 0 226 0 L140 0 Q102 0 76 25.5 Q50 51 50 89 L50 451 Q50 488 76 514 Q102 540 140 540 L228 540 Z M259 665 L163 665 L106 774 L213 774 L259 665 Z " />
<glyph glyph-name="amacron" unicode="&#x101;" horiz-adv-x="416" d="M161 121 Q161 112 169.5 102.5 Q178 93 190 93 L228 93 Q240 93 250.5 99 Q261 105 261 122 L261 422 Q261 440 250.5 443 Q240 446 228 446 L184 446 Q173 446 167 436.5 Q161 427 161 418 L161 121 Z M228 540 Q236 540 247 535.5 Q258 531 268 520 Q279 540 302 540 L372 540 L372 0 L286 0 L267 22 Q259 12 248 6 Q237 0 226 0 L140 0 Q102 0 76 25.5 Q50 51 50 89 L50 451 Q50 488 76 514 Q102 540 140 540 L228 540 Z M60 775 L357 775 L357 680 L60 680 L60 775 Z " />
<glyph glyph-name="aogonek" unicode="&#x105;" horiz-adv-x="416" d="M161 121 Q161 112 169.5 102.5 Q178 93 190 93 L228 93 Q240 93 250.5 99 Q261 105 261 122 L261 422 Q261 440 250.5 443 Q240 446 228 446 L184 446 Q173 446 167 436.5 Q161 427 161 418 L161 121 Z M228 540 Q236 540 247 535.5 Q258 531 268 520 Q279 540 302 540 L372 540 L372 0 L286 0 L267 22 Q259 12 248 6 Q237 0 226 0 L140 0 Q102 0 76 25.5 Q50 51 50 89 L50 451 Q50 488 76 514 Q102 540 140 540 L228 540 Z M396 -215 Q372 -230 340 -230 Q320 -230 299.5 -223.5 Q279 -217 263 -205 Q247 -193 237 -175.5 Q227 -158 227 -135 Q227 -119 232 -100 Q237 -81 246 -63 Q255 -45 267 -28.5 Q279 -12 293 0 L335 0 Q320 -27 311 -49.5 Q302 -72 302 -88 Q302 -108 317.5 -121.5 Q333 -135 368 -136 L396 -215 Z " />
<glyph glyph-name="aring" unicode="&#xe5;" horiz-adv-x="416" d="M161 121 Q161 112 169.5 102.5 Q178 93 190 93 L228 93 Q240 93 250.5 99 Q261 105 261 122 L261 422 Q261 440 250.5 443 Q240 446 228 446 L184 446 Q173 446 167 436.5 Q161 427 161 418 L161 121 Z M228 540 Q236 540 247 535.5 Q258 531 268 520 Q279 540 302 540 L372 540 L372 0 L286 0 L267 22 Q259 12 248 6 Q237 0 226 0 L140 0 Q102 0 76 25.5 Q50 51 50 89 L50 451 Q50 488 76 514 Q102 540 140 540 L228 540 Z M225 667 Q236 667 240.5 671 Q245 675 245 680 L245 694 Q245 699 241.5 703.5 Q238 708 233 708 L200 708 Q189 708 184.5 703.5 Q180 699 180 694 L180 682 Q180 676 183.5 671.5 Q187 667 192 667 L225 667 Z M165 600 Q143 600 125.5 617 Q108 634 108 656 L108 719 Q108 742 125.5 758.5 Q143 775 165 775 L260 775 Q283 775 300 758.5 Q317 742 317 719 L317 656 Q317 634 300 617 Q283 600 260 600 L165 600 Z " />
<glyph glyph-name="atilde" unicode="&#xe3;" horiz-adv-x="416" d="M161 121 Q161 112 169.5 102.5 Q178 93 190 93 L228 93 Q240 93 250.5 99 Q261 105 261 122 L261 422 Q261 440 250.5 443 Q240 446 228 446 L184 446 Q173 446 167 436.5 Q161 427 161 418 L161 121 Z M228 540 Q236 540 247 535.5 Q258 531 268 520 Q279 540 302 540 L372 540 L372 0 L286 0 L267 22 Q259 12 248 6 Q237 0 226 0 L140 0 Q102 0 76 25.5 Q50 51 50 89 L50 451 Q50 488 76 514 Q102 540 140 540 L228 540 Z M145 777 Q162 777 177 770.5 Q192 764 207 756.5 Q222 749 237 743 Q252 737 270 737 Q280 737 291 745.5 Q302 754 313 777 L395 777 Q390 708 361.5 671 Q333 634 290 634 Q274 634 257.5 640.5 Q241 647 225 655 Q209 663 193.5 669.5 Q178 676 165 676 Q154 676 144.5 667 Q135 658 125 634 L40 634 Q45 700 74 738.5 Q103 777 145 777 Z " />
<glyph glyph-name="aeacute" unicode="&#x1fd;" horiz-adv-x="607" d="M138 0 Q100 0 73.5 25.5 Q47 51 47 89 L47 451 Q47 488 73.5 514 Q100 540 138 540 L219 540 Q240 540 253.5 531 Q267 522 275 512 Q289 524 308 532 Q327 540 346 540 L490 540 Q509 540 526 533 Q543 526 555.5 514 Q568 502 575 485.5 Q582 469 582 451 L582 247 L369 247 L369 120 Q371 109 377.5 101.5 Q384 94 392 93 L442 93 Q453 93 461.5 102 Q470 111 470 122 L470 154 L582 154 L582 89 Q582 70 575 54 Q568 38 555.5 26 Q543 14 526 7 Q509 0 490 0 L349 0 Q342 0 320 4 Q298 8 275 28 Q264 17 256 8.5 Q248 0 228 0 L138 0 Z M158 121 Q158 112 166.5 102.5 Q175 93 186 93 L226 93 Q238 93 248 99 Q258 105 258 122 L258 422 Q258 440 248 443 Q238 446 226 446 L182 446 Q170 446 164 436.5 Q158 427 158 418 L158 121 Z M393 446 Q382 446 376 438.5 Q370 431 369 423 L369 337 L470 337 L470 418 Q470 427 464 436.5 Q458 446 446 446 L393 446 Z M305 774 L412 774 L355 665 L257 665 L305 774 Z " />
<glyph glyph-name="cacute" unicode="&#x107;" horiz-adv-x="399" d="M371 154 L371 89 Q371 51 344.5 25.5 Q318 0 280 0 L139 0 Q102 0 75.5 25.5 Q49 51 49 89 L49 451 Q49 488 75.5 514 Q102 540 139 540 L280 540 Q318 540 344.5 514 Q371 488 371 451 L371 383 L260 383 L260 418 Q260 427 254.5 436.5 Q249 446 235 446 L183 446 Q172 446 166 436.5 Q160 427 160 418 L160 122 Q160 111 167.5 103 Q175 95 184 93 L231 93 Q244 93 252 102 Q260 111 260 122 L260 154 L371 154 Z M203 773 L310 773 L253 664 L155 664 L203 773 Z " />
<glyph glyph-name="ccaron" unicode="&#x10d;" horiz-adv-x="399" d="M371 154 L371 89 Q371 51 344.5 25.5 Q318 0 280 0 L139 0 Q102 0 75.5 25.5 Q49 51 49 89 L49 451 Q49 488 75.5 514 Q102 540 139 540 L280 540 Q318 540 344.5 514 Q371 488 371 451 L371 383 L260 383 L260 418 Q260 427 254.5 436.5 Q249 446 235 446 L183 446 Q172 446 166 436.5 Q160 427 160 418 L160 122 Q160 111 167.5 103 Q175 95 184 93 L231 93 Q244 93 252 102 Q260 111 260 122 L260 154 L371 154 Z M47 775 L159 775 L202 711 L244 775 L353 775 L251 618 L150 618 L47 775 Z " />
<glyph glyph-name="ccedilla" unicode="&#xe7;" horiz-adv-x="399" d="M371 154 L371 89 Q371 51 344.5 25.5 Q318 0 280 0 L139 0 Q102 0 75.5 25.5 Q49 51 49 89 L49 451 Q49 488 75.5 514 Q102 540 139 540 L280 540 Q318 540 344.5 514 Q371 488 371 451 L371 383 L260 383 L260 418 Q260 427 254.5 436.5 Q249 446 235 446 L183 446 Q172 446 166 436.5 Q160 427 160 418 L160 122 Q160 111 167.5 103 Q175 95 184 93 L231 93 Q244 93 252 102 Q260 111 260 122 L260 154 L371 154 Z M149 -136 Q184 -135 199.5 -121.5 Q215 -108 215 -88 Q215 -56 182 0 L224 0 Q238 -12 250 -28.5 Q262 -45 271 -63.5 Q280 -82 285 -100.5 Q290 -119 290 -135 Q290 -172 264.5 -199.5 Q239 -227 181 -227 Q171 -227 157 -225.5 Q143 -224 120 -219 L149 -136 Z " />
<glyph glyph-name="ccircumflex" unicode="&#x109;" horiz-adv-x="399" d="M260 154 L260 122 Q260 111 252 102 Q244 93 231 93 L184 93 Q175 95 167.5 103 Q160 111 160 122 L160 418 Q160 427 166 436.5 Q172 446 183 446 L235 446 Q249 446 254.5 436.5 Q260 427 260 418 L260 383 L371 383 L371 451 Q371 488 344.5 514 Q318 540 280 540 L139 540 Q102 540 75.5 514 Q49 488 49 451 L49 89 Q49 51 75.5 25.5 Q102 0 139 0 L280 0 Q318 0 344.5 25.5 Q371 51 371 89 L371 154 L260 154 Z M150 772 L251 772 L354 615 L244 615 L201 678 L159 615 L47 615 L150 772 Z " />
<glyph glyph-name="cdotaccent" unicode="&#x10b;" horiz-adv-x="399" d="M371 154 L371 89 Q371 51 344.5 25.5 Q318 0 280 0 L139 0 Q102 0 75.5 25.5 Q49 51 49 89 L49 451 Q49 488 75.5 514 Q102 540 139 540 L280 540 Q318 540 344.5 514 Q371 488 371 451 L371 383 L260 383 L260 418 Q260 427 254.5 436.5 Q249 446 235 446 L183 446 Q172 446 166 436.5 Q160 427 160 418 L160 122 Q160 111 167.5 103 Q175 95 184 93 L231 93 Q244 93 252 102 Q260 111 260 122 L260 154 L371 154 Z M138 721 Q138 748 157 766.5 Q176 785 201 785 Q229 785 247 766.5 Q265 748 265 721 Q265 694 247 675.5 Q229 657 201 657 Q176 657 157 675.5 Q138 694 138 721 Z " />
<glyph glyph-name="dcaron" unicode="&#x10f;" horiz-adv-x="531" d="M373 774 L373 0 L289 0 L271 23 Q262 13 252 6.5 Q242 0 229 0 L141 0 Q103 0 77 25.5 Q51 51 51 89 L51 451 Q51 488 77 514 Q103 540 141 540 L218 540 Q225 540 238 535 Q251 530 263 520 L263 774 L373 774 Z M163 121 Q163 112 171 102.5 Q179 93 190 93 L230 93 Q242 93 252.5 98.5 Q263 104 263 121 L263 422 Q263 440 252.5 443 Q242 446 230 446 L187 446 Q175 446 169 436.5 Q163 427 163 418 L163 121 Z M430 774 L540 774 L540 678 Q540 641 538.5 614 Q537 587 526.5 570 Q516 553 493.5 544.5 Q471 536 430 536 L430 594 Q449 594 460 598 Q471 602 476 610.5 Q481 619 482.5 632.5 Q484 646 484 665 L430 665 L430 774 Z " />
<glyph glyph-name="dcroat" unicode="&#x111;" horiz-adv-x="428" d="M191 683 L263 683 L263 774 L373 774 L373 683 L416 683 L416 589 L373 589 L373 0 L289 0 L271 23 Q262 13 252 6.5 Q242 0 229 0 L141 0 Q103 0 77 25.5 Q51 51 51 89 L51 451 Q51 488 77 514 Q103 540 141 540 L218 540 Q225 540 238 535 Q251 530 263 520 L263 589 L191 589 L191 683 Z M163 121 Q163 112 171 102.5 Q179 93 190 93 L230 93 Q242 93 252.5 98.5 Q263 104 263 121 L263 422 Q263 440 252.5 443 Q242 446 230 446 L187 446 Q175 446 169 436.5 Q163 427 163 418 L163 121 Z " />
<glyph glyph-name="eacute" unicode="&#xe9;" horiz-adv-x="403" d="M372 154 L372 89 Q372 51 345.5 25.5 Q319 0 281 0 L140 0 Q102 0 76 25.5 Q50 51 50 89 L50 451 Q50 488 76 514 Q102 540 140 540 L281 540 Q319 540 345.5 514 Q372 488 372 451 L372 247 L161 247 L161 122 Q161 111 168.5 103 Q176 95 185 93 L232 93 Q245 93 253 102 Q261 111 261 122 L261 154 L372 154 Z M161 337 L261 337 L261 418 Q261 427 255.5 436.5 Q250 446 236 446 L184 446 Q173 446 167 436.5 Q161 427 161 418 L161 337 Z M220 776 L327 776 L270 667 L172 667 L220 776 Z " />
<glyph glyph-name="ebreve" unicode="&#x115;" horiz-adv-x="403" d="M372 154 L372 89 Q372 51 345.5 25.5 Q319 0 281 0 L140 0 Q102 0 76 25.5 Q50 51 50 89 L50 451 Q50 488 76 514 Q102 540 140 540 L281 540 Q319 540 345.5 514 Q372 488 372 451 L372 247 L161 247 L161 122 Q161 111 168.5 103 Q176 95 185 93 L232 93 Q245 93 253 102 Q261 111 261 122 L261 154 L372 154 Z M161 337 L261 337 L261 418 Q261 427 255.5 436.5 Q250 446 236 446 L184 446 Q173 446 167 436.5 Q161 427 161 418 L161 337 Z M135 649 Q98 649 71 675 Q44 701 44 738 L44 774 L151 774 Q151 760 161.5 749.5 Q172 739 189 739 L226 739 Q243 739 254 749.5 Q265 760 265 774 L372 774 L372 738 Q372 701 345 675 Q318 649 281 649 L135 649 Z " />
<glyph glyph-name="ecaron" unicode="&#x11b;" horiz-adv-x="403" d="M372 154 L372 89 Q372 51 345.5 25.5 Q319 0 281 0 L140 0 Q102 0 76 25.5 Q50 51 50 89 L50 451 Q50 488 76 514 Q102 540 140 540 L281 540 Q319 540 345.5 514 Q372 488 372 451 L372 247 L161 247 L161 122 Q161 111 168.5 103 Q176 95 185 93 L232 93 Q245 93 253 102 Q261 111 261 122 L261 154 L372 154 Z M161 337 L261 337 L261 418 Q261 427 255.5 436.5 Q250 446 236 446 L184 446 Q173 446 167 436.5 Q161 427 161 418 L161 337 Z M49 774 L161 774 L204 710 L246 774 L355 774 L253 617 L152 617 L49 774 Z " />
<glyph glyph-name="ecircumflex" unicode="&#xea;" horiz-adv-x="403" d="M261 154 L261 122 Q261 111 253 102 Q245 93 232 93 L185 93 Q176 95 168.5 103 Q161 111 161 122 L161 247 L372 247 L372 451 Q372 488 345.5 514 Q319 540 281 540 L140 540 Q102 540 76 514 Q50 488 50 451 L50 89 Q50 51 76 25.5 Q102 0 140 0 L281 0 Q319 0 345.5 25.5 Q372 51 372 89 L372 154 L261 154 Z M161 418 Q161 427 167 436.5 Q173 446 184 446 L236 446 Q250 446 255.5 436.5 Q261 427 261 418 L261 337 L161 337 L161 418 Z M152 774 L253 774 L356 617 L246 617 L203 680 L161 617 L49 617 L152 774 Z " />
<glyph glyph-name="edieresis" unicode="&#xeb;" horiz-adv-x="403" d="M372 154 L372 89 Q372 51 345.5 25.5 Q319 0 281 0 L140 0 Q102 0 76 25.5 Q50 51 50 89 L50 451 Q50 488 76 514 Q102 540 140 540 L281 540 Q319 540 345.5 514 Q372 488 372 451 L372 247 L161 247 L161 122 Q161 111 168.5 103 Q176 95 185 93 L232 93 Q245 93 253 102 Q261 111 261 122 L261 154 L372 154 Z M161 337 L261 337 L261 418 Q261 427 255.5 436.5 Q250 446 236 446 L184 446 Q173 446 167 436.5 Q161 427 161 418 L161 337 Z M41 721 Q41 748 59.5 766.5 Q78 785 104 785 Q131 785 149.5 766.5 Q168 748 168 721 Q168 694 149.5 675.5 Q131 657 104 657 Q78 657 59.5 675.5 Q41 694 41 721 Z M246 721 Q246 748 264.5 766.5 Q283 785 310 785 Q336 785 355 766.5 Q374 748 374 721 Q374 694 355 675.5 Q336 657 310 657 Q283 657 264.5 675.5 Q246 694 246 721 Z " />
<glyph glyph-name="edotaccent" unicode="&#x117;" horiz-adv-x="403" d="M372 154 L372 89 Q372 51 345.5 25.5 Q319 0 281 0 L140 0 Q102 0 76 25.5 Q50 51 50 89 L50 451 Q50 488 76 514 Q102 540 140 540 L281 540 Q319 540 345.5 514 Q372 488 372 451 L372 247 L161 247 L161 122 Q161 111 168.5 103 Q176 95 185 93 L232 93 Q245 93 253 102 Q261 111 261 122 L261 154 L372 154 Z M161 337 L261 337 L261 418 Q261 427 255.5 436.5 Q250 446 236 446 L184 446 Q173 446 167 436.5 Q161 427 161 418 L161 337 Z M140 721 Q140 748 159 766.5 Q178 785 203 785 Q231 785 249 766.5 Q267 748 267 721 Q267 694 249 675.5 Q231 657 203 657 Q178 657 159 675.5 Q140 694 140 721 Z " />
<glyph glyph-name="egrave" unicode="&#xe8;" horiz-adv-x="403" d="M372 154 L372 89 Q372 51 345.5 25.5 Q319 0 281 0 L140 0 Q102 0 76 25.5 Q50 51 50 89 L50 451 Q50 488 76 514 Q102 540 140 540 L281 540 Q319 540 345.5 514 Q372 488 372 451 L372 247 L161 247 L161 122 Q161 111 168.5 103 Q176 95 185 93 L232 93 Q245 93 253 102 Q261 111 261 122 L261 154 L372 154 Z M161 337 L261 337 L261 418 Q261 427 255.5 436.5 Q250 446 236 446 L184 446 Q173 446 167 436.5 Q161 427 161 418 L161 337 Z M248 666 L152 666 L95 775 L202 775 L248 666 Z " />
<glyph glyph-name="emacron" unicode="&#x113;" horiz-adv-x="403" d="M372 154 L372 89 Q372 51 345.5 25.5 Q319 0 281 0 L140 0 Q102 0 76 25.5 Q50 51 50 89 L50 451 Q50 488 76 514 Q102 540 140 540 L281 540 Q319 540 345.5 514 Q372 488 372 451 L372 247 L161 247 L161 122 Q161 111 168.5 103 Q176 95 185 93 L232 93 Q245 93 253 102 Q261 111 261 122 L261 154 L372 154 Z M161 337 L261 337 L261 418 Q261 427 255.5 436.5 Q250 446 236 446 L184 446 Q173 446 167 436.5 Q161 427 161 418 L161 337 Z M58 774 L355 774 L355 679 L58 679 L58 774 Z " />
<glyph glyph-name="eogonek" unicode="&#x119;" horiz-adv-x="403" d="M372 154 L372 89 Q372 51 345.5 25.5 Q319 0 281 0 L140 0 Q102 0 76 25.5 Q50 51 50 89 L50 451 Q50 488 76 514 Q102 540 140 540 L281 540 Q319 540 345.5 514 Q372 488 372 451 L372 247 L161 247 L161 122 Q161 111 168.5 103 Q176 95 185 93 L232 93 Q245 93 253 102 Q261 111 261 122 L261 154 L372 154 Z M161 337 L261 337 L261 418 Q261 427 255.5 436.5 Q250 446 236 446 L184 446 Q173 446 167 436.5 Q161 427 161 418 L161 337 Z M347 -215 Q323 -230 291 -230 Q271 -230 250.5 -223.5 Q230 -217 214 -205 Q198 -193 188 -175.5 Q178 -158 178 -135 Q178 -119 183 -100 Q188 -81 197 -63 Q206 -45 218 -28.5 Q230 -12 244 0 L286 0 Q271 -27 262 -49.5 Q253 -72 253 -88 Q253 -108 268.5 -121.5 Q284 -135 319 -136 L347 -215 Z " />
<glyph glyph-name="ffi" unicode="&#xfb03;" horiz-adv-x="785" d="M642 430 L482 430 L482 0 L372 0 L372 430 L156 430 L156 0 L47 0 L47 671 Q47 719 70.5 746 Q94 773 138 773 L270 773 L270 663 L156 663 L156 541 L372 541 L372 671 Q372 719 396.5 746 Q421 773 463 773 L696 773 Q724 773 743 755 Q762 737 762 708 Q762 681 743 663 Q724 645 696 645 Q673 645 651.5 654 Q630 663 604 663 L482 663 L482 541 L753 541 L753 0 L642 0 L642 430 Z " />
<glyph glyph-name="ffl" unicode="&#xfb04;" horiz-adv-x="785" d="M644 663 L482 663 L482 539 L563 539 L563 428 L482 428 L482 0 L372 0 L372 428 L156 428 L156 0 L47 0 L47 671 Q47 719 71 746 Q95 773 138 773 L270 773 L270 663 L156 663 L156 539 L372 539 L372 671 Q372 719 396 746 Q420 773 463 773 L754 773 L754 0 L644 0 L644 663 Z " />
<glyph glyph-name="fi" unicode="&#xfb01;" horiz-adv-x="534" d="M329 428 L167 428 L167 0 L57 0 L57 671 Q57 719 81 746 Q105 773 149 773 L382 773 Q410 773 428.5 754 Q447 735 447 708 Q447 681 428.5 663 Q410 645 382 645 Q359 645 336 654 Q313 663 288 663 L167 663 L167 539 L437 539 L437 0 L329 0 L329 428 Z " />
<glyph glyph-name="fl" unicode="&#xfb02;" horiz-adv-x="485" d="M332 663 L170 663 L170 539 L252 539 L252 428 L170 428 L170 0 L61 0 L61 671 Q61 719 84.5 746 Q108 773 152 773 L442 773 L442 0 L332 0 L332 663 Z " />
<glyph glyph-name="gbreve" unicode="&#x11f;" horiz-adv-x="409" d="M161 121 Q161 112 170 102.5 Q179 93 190 93 L228 93 Q240 93 250.5 99 Q261 105 261 122 L261 423 Q261 441 250.5 444 Q240 447 228 447 L184 447 Q173 447 167 437.5 Q161 428 161 419 L161 121 Z M140 0 Q102 0 76 25.5 Q50 51 50 89 L50 451 Q50 488 76 514 Q102 540 140 540 L247 540 Q260 540 270 532 Q275 537 281 538.5 Q287 540 292 540 L372 540 L372 -137 Q372 -174 345.5 -200 Q319 -226 281 -226 L140 -226 Q102 -226 76 -200 Q50 -174 50 -137 L50 -63 L161 -63 L161 -104 Q161 -116 169.5 -125 Q178 -134 190 -134 L237 -134 Q247 -132 254 -123.5 Q261 -115 261 -104 L261 16 Q251 8 241 4 Q231 0 224 0 L140 0 Z M137 649 Q100 649 73 675 Q46 701 46 738 L46 774 L153 774 Q153 760 163.5 749.5 Q174 739 191 739 L228 739 Q245 739 256 749.5 Q267 760 267 774 L374 774 L374 738 Q374 701 347 675 Q320 649 283 649 L137 649 Z " />
<glyph glyph-name="gcircumflex" unicode="&#x11d;" horiz-adv-x="409" d="M161 419 Q161 428 167 437.5 Q173 447 184 447 L228 447 Q240 447 250.5 444 Q261 441 261 423 L261 122 Q261 105 250.5 99 Q240 93 228 93 L190 93 Q179 93 170 102.5 Q161 112 161 121 L161 419 Z M224 0 Q231 0 241 4 Q251 8 261 16 L261 -104 Q261 -115 254 -123.5 Q247 -132 237 -134 L190 -134 Q178 -134 169.5 -125 Q161 -116 161 -104 L161 -63 L50 -63 L50 -137 Q50 -174 76 -200 Q102 -226 140 -226 L281 -226 Q319 -226 345.5 -200 Q372 -174 372 -137 L372 540 L292 540 Q287 540 281 538.5 Q275 537 270 532 Q260 540 247 540 L140 540 Q102 540 76 514 Q50 488 50 451 L50 89 Q50 51 76 25.5 Q102 0 140 0 L224 0 Z M166 773 L267 773 L370 616 L260 616 L217 679 L175 616 L63 616 L166 773 Z " />
<glyph glyph-name="gcommaaccent" unicode="&#x123;" horiz-adv-x="409" d="M161 419 Q161 428 167 437.5 Q173 447 184 447 L228 447 Q240 447 250.5 444 Q261 441 261 423 L261 122 Q261 105 250.5 99 Q240 93 228 93 L190 93 Q179 93 170 102.5 Q161 112 161 121 L161 419 Z M224 0 Q231 0 241 4 Q251 8 261 16 L261 -104 Q261 -115 254 -123.5 Q247 -132 237 -134 L190 -134 Q178 -134 169.5 -125 Q161 -116 161 -104 L161 -63 L50 -63 L50 -137 Q50 -174 76 -200 Q102 -226 140 -226 L281 -226 Q319 -226 345.5 -200 Q372 -174 372 -137 L372 540 L292 540 Q287 540 281 538.5 Q275 537 270 532 Q260 540 247 540 L140 540 Q102 540 76 514 Q50 488 50 451 L50 89 Q50 51 76 25.5 Q102 0 140 0 L224 0 Z M266 632 L157 632 L157 728 Q157 765 158.5 792 Q160 819 170.5 836 Q181 853 203 861.5 Q225 870 266 870 L266 812 Q247 812 236 808 Q225 804 220 795.5 Q215 787 213.5 774 Q212 761 212 742 L266 742 L266 632 Z " />
<glyph glyph-name="gdotaccent" unicode="&#x121;" horiz-adv-x="409" d="M161 121 Q161 112 170 102.5 Q179 93 190 93 L228 93 Q240 93 250.5 99 Q261 105 261 122 L261 423 Q261 441 250.5 444 Q240 447 228 447 L184 447 Q173 447 167 437.5 Q161 428 161 419 L161 121 Z M140 0 Q102 0 76 25.5 Q50 51 50 89 L50 451 Q50 488 76 514 Q102 540 140 540 L247 540 Q260 540 270 532 Q275 537 281 538.5 Q287 540 292 540 L372 540 L372 -137 Q372 -174 345.5 -200 Q319 -226 281 -226 L140 -226 Q102 -226 76 -200 Q50 -174 50 -137 L50 -63 L161 -63 L161 -104 Q161 -116 169.5 -125 Q178 -134 190 -134 L237 -134 Q247 -132 254 -123.5 Q261 -115 261 -104 L261 16 Q251 8 241 4 Q231 0 224 0 L140 0 Z M143 721 Q143 748 162 766.5 Q181 785 206 785 Q234 785 252 766.5 Q270 748 270 721 Q270 694 252 675.5 Q234 657 206 657 Q181 657 162 675.5 Q143 694 143 721 Z " />
<glyph glyph-name="hbar" unicode="&#x127;" horiz-adv-x="431" d="M38 683 L78 683 L78 774 L189 774 L189 683 L263 683 L263 589 L189 589 L189 534 Q205 541 219 541 L311 541 Q348 541 374.5 515 Q401 489 401 452 L401 0 L289 0 L289 419 Q289 428 283 437.5 Q277 447 265 447 L221 447 Q208 447 198.5 444 Q189 441 189 423 L189 0 L78 0 L78 589 L38 589 L38 683 Z " />
<glyph glyph-name="hcircumflex" unicode="&#x125;" horiz-adv-x="413" d="M171 0 L171 423 Q171 441 180.5 444 Q190 447 203 447 L247 447 Q259 447 265 437.5 Q271 428 271 419 L271 0 L383 0 L383 452 Q383 489 356.5 515 Q330 541 293 541 L201 541 Q187 541 171 534 L171 774 L60 774 L60 0 L171 0 Z M164 966 L265 966 L368 809 L258 809 L215 872 L173 809 L61 809 L164 966 Z " />
<glyph glyph-name="dotlessi" unicode="&#x131;" horiz-adv-x="215" d="M60 541 L171 541 L171 0 L60 0 L60 541 Z " />
<glyph glyph-name="iacute" unicode="&#xed;" horiz-adv-x="215" d="M60 541 L171 541 L171 0 L60 0 L60 541 Z M107 775 L214 775 L157 666 L59 666 L107 775 Z " />
<glyph glyph-name="ibreve" unicode="&#x12d;" horiz-adv-x="215" d="M60 541 L171 541 L171 0 L60 0 L60 541 Z M40 649 Q3 649 -24 675 Q-51 701 -51 738 L-51 774 L56 774 Q56 760 66.5 749.5 Q77 739 94 739 L131 739 Q148 739 159 749.5 Q170 760 170 774 L277 774 L277 738 Q277 701 250 675 Q223 649 186 649 L40 649 Z " />
<glyph glyph-name="icircumflex" unicode="&#xee;" horiz-adv-x="215" d="M60 0 L171 0 L171 541 L60 541 L60 0 Z M58 771 L159 771 L262 614 L152 614 L109 677 L67 614 L-45 614 L58 771 Z " />
<glyph glyph-name="idieresis" unicode="&#xef;" horiz-adv-x="215" d="M60 541 L171 541 L171 0 L60 0 L60 541 Z M-53 721 Q-53 748 -34.5 766.5 Q-16 785 10 785 Q37 785 55.5 766.5 Q74 748 74 721 Q74 694 55.5 675.5 Q37 657 10 657 Q-16 657 -34.5 675.5 Q-53 694 -53 721 Z M152 721 Q152 748 170.5 766.5 Q189 785 216 785 Q242 785 261 766.5 Q280 748 280 721 Q280 694 261 675.5 Q242 657 216 657 Q189 657 170.5 675.5 Q152 694 152 721 Z " />
<glyph glyph-name="igrave" unicode="&#xec;" horiz-adv-x="215" d="M60 541 L171 541 L171 0 L60 0 L60 541 Z M164 662 L68 662 L11 771 L118 771 L164 662 Z " />
<glyph glyph-name="imacron" unicode="&#x12b;" horiz-adv-x="215" d="M60 541 L171 541 L171 0 L60 0 L60 541 Z M-41 774 L256 774 L256 679 L-41 679 L-41 774 Z " />
<glyph glyph-name="iogonek" unicode="&#x12f;" horiz-adv-x="215" d="M57 540 L168 540 L168 0 L57 0 L57 540 Z M48 709 Q48 736 66.5 755 Q85 774 112 774 Q139 774 157.5 755 Q176 736 176 709 Q176 682 157.5 664 Q139 646 112 646 Q85 646 66.5 664 Q48 682 48 709 Z M218 -215 Q194 -230 162 -230 Q142 -230 121.5 -223.5 Q101 -217 85 -205 Q69 -193 59 -175.5 Q49 -158 49 -135 Q49 -119 54 -100 Q59 -81 68 -63 Q77 -45 89 -28.5 Q101 -12 115 0 L157 0 Q142 -27 133 -49.5 Q124 -72 124 -88 Q124 -108 139.5 -121.5 Q155 -135 190 -136 L218 -215 Z " />
<glyph glyph-name="itilde" unicode="&#x129;" horiz-adv-x="215" d="M60 541 L171 541 L171 0 L60 0 L60 541 Z M45 774 Q62 774 77 767.5 Q92 761 107 753.5 Q122 746 137 740 Q152 734 170 734 Q180 734 191 742.5 Q202 751 213 774 L295 774 Q290 705 261.5 668 Q233 631 190 631 Q174 631 157.5 637.5 Q141 644 125 652 Q109 660 93.5 666.5 Q78 673 65 673 Q54 673 44.5 664 Q35 655 25 631 L-60 631 Q-55 697 -26 735.5 Q3 774 45 774 Z " />
<glyph glyph-name="kcommaaccent" unicode="&#x137;" horiz-adv-x="398" d="M167 774 L167 477 L149 351 L154 351 L264 540 L382 540 L246 311 L383 0 L263 0 L154 265 L149 265 L167 127 L167 0 L59 0 L59 774 L167 774 Z M151 -213 L151 -104 L260 -104 L260 -199 Q260 -237 258.5 -263.5 Q257 -290 246.5 -307.5 Q236 -325 214 -333 Q192 -341 151 -341 L151 -283 Q170 -283 181 -279 Q192 -275 197 -266.5 Q202 -258 203.5 -245 Q205 -232 205 -213 L151 -213 Z " />
<glyph glyph-name="lacute" unicode="&#x13a;" horiz-adv-x="221" d="M63 774 L174 774 L174 0 L63 0 L63 774 Z M109 931 L216 931 L159 822 L61 822 L109 931 Z " />
<glyph glyph-name="lcaron" unicode="&#x13e;" horiz-adv-x="318" d="M63 774 L174 774 L174 0 L63 0 L63 774 Z M234 773 L344 773 L344 677 Q344 640 342.5 613 Q341 586 330.5 569 Q320 552 297.5 543.5 Q275 535 234 535 L234 593 Q253 593 264 597 Q275 601 280 609.5 Q285 618 286.5 631.5 Q288 645 288 664 L234 664 L234 773 Z " />
<glyph glyph-name="lcommaaccent" unicode="&#x13c;" horiz-adv-x="221" d="M63 774 L174 774 L174 0 L63 0 L63 774 Z M63 -213 L63 -104 L172 -104 L172 -199 Q172 -237 170.5 -263.5 Q169 -290 158.5 -307.5 Q148 -325 126 -333 Q104 -341 63 -341 L63 -283 Q82 -283 93 -279 Q104 -275 109 -266.5 Q114 -258 115.5 -245 Q117 -232 117 -213 L63 -213 Z " />
<glyph glyph-name="ldot" unicode="&#x140;" horiz-adv-x="338" d="M63 774 L174 774 L174 0 L63 0 L63 774 Z M221 445 Q221 472 240 490.5 Q259 509 284 509 Q312 509 330 490.5 Q348 472 348 445 Q348 418 330 399.5 Q312 381 284 381 Q259 381 240 399.5 Q221 418 221 445 Z " />
<glyph glyph-name="lslash" unicode="&#x142;" horiz-adv-x="270" d="M-25 325 L83 387 L83 773 L193 773 L193 450 L250 483 L305 388 L193 323 L193 0 L83 0 L83 259 L30 229 L-25 325 Z " />
<glyph glyph-name="jcircumflex" unicode="&#x135;" horiz-adv-x="216" d="M8 -247 L69 -247 Q87 -247 103.5 -239.5 Q120 -232 132.5 -220 Q145 -208 152.5 -191.5 Q160 -175 160 -157 L160 541 L49 541 L49 -123 Q49 -134 41 -142 Q33 -150 25 -154 L8 -154 L8 -247 Z M54 775 L155 775 L258 618 L148 618 L105 681 L63 618 L-49 618 L54 775 Z " />
<glyph glyph-name="dotlessj" unicode="&#x237;" horiz-adv-x="216" d="M23 -160 Q37 -158 49 -149 Q61 -140 61 -127 L61 541 L171 541 L171 -161 Q171 -179 163.5 -195.5 Q156 -212 143.5 -224 Q131 -236 114.5 -243.5 Q98 -251 80 -251 L20 -251 L23 -160 Z " />
<glyph glyph-name="nacute" unicode="&#x144;" horiz-adv-x="417" d="M288 540 Q326 540 352.5 514 Q379 488 379 451 L379 0 L268 0 L268 418 Q268 427 262 436.5 Q256 446 244 446 L200 446 Q187 446 178 440.5 Q169 435 169 418 L169 0 L57 0 L57 540 L132 540 Q143 540 151.5 536.5 Q160 533 165 520 Q176 533 186.5 536.5 Q197 540 205 540 L288 540 Z M225 776 L332 776 L275 667 L177 667 L225 776 Z " />
<glyph glyph-name="napostrophe" unicode="&#x149;" horiz-adv-x="440" d="M311 540 Q349 540 375.5 514 Q402 488 402 451 L402 0 L291 0 L291 418 Q291 427 285 436.5 Q279 446 267 446 L223 446 Q210 446 201 440.5 Q192 435 192 418 L192 0 L80 0 L80 540 L155 540 Q166 540 174.5 536.5 Q183 533 188 520 Q199 533 209.5 536.5 Q220 540 228 540 L311 540 Z M-6 666 L-6 775 L103 775 L103 680 Q103 642 101.5 615.5 Q100 589 89.5 571.5 Q79 554 57 546 Q35 538 -6 538 L-6 596 Q13 596 24 600 Q35 604 40 612.5 Q45 621 46.5 634 Q48 647 48 666 L-6 666 Z " />
<glyph glyph-name="ncaron" unicode="&#x148;" horiz-adv-x="417" d="M288 540 Q326 540 352.5 514 Q379 488 379 451 L379 0 L268 0 L268 418 Q268 427 262 436.5 Q256 446 244 446 L200 446 Q187 446 178 440.5 Q169 435 169 418 L169 0 L57 0 L57 540 L132 540 Q143 540 151.5 536.5 Q160 533 165 520 Q176 533 186.5 536.5 Q197 540 205 540 L288 540 Z M58 779 L170 779 L213 715 L255 779 L364 779 L262 622 L161 622 L58 779 Z " />
<glyph glyph-name="ncommaaccent" unicode="&#x146;" horiz-adv-x="417" d="M288 540 Q326 540 352.5 514 Q379 488 379 451 L379 0 L268 0 L268 418 Q268 427 262 436.5 Q256 446 244 446 L200 446 Q187 446 178 440.5 Q169 435 169 418 L169 0 L57 0 L57 540 L132 540 Q143 540 151.5 536.5 Q160 533 165 520 Q176 533 186.5 536.5 Q197 540 205 540 L288 540 Z M161 -232 L161 -123 L270 -123 L270 -218 Q270 -256 268.5 -282.5 Q267 -309 256.5 -326.5 Q246 -344 224 -352 Q202 -360 161 -360 L161 -302 Q180 -302 191 -298 Q202 -294 207 -285.5 Q212 -277 213.5 -264 Q215 -251 215 -232 L161 -232 Z " />
<glyph glyph-name="ntilde" unicode="&#xf1;" horiz-adv-x="417" d="M288 540 Q326 540 352.5 514 Q379 488 379 451 L379 0 L268 0 L268 418 Q268 427 262 436.5 Q256 446 244 446 L200 446 Q187 446 178 440.5 Q169 435 169 418 L169 0 L57 0 L57 540 L132 540 Q143 540 151.5 536.5 Q160 533 165 520 Q176 533 186.5 536.5 Q197 540 205 540 L288 540 Z M145 777 Q162 777 177 770.5 Q192 764 207 756.5 Q222 749 237 743 Q252 737 270 737 Q280 737 291 745.5 Q302 754 313 777 L395 777 Q390 708 361.5 671 Q333 634 290 634 Q274 634 257.5 640.5 Q241 647 225 655 Q209 663 193.5 669.5 Q178 676 165 676 Q154 676 144.5 667 Q135 658 125 634 L40 634 Q45 700 74 738.5 Q103 777 145 777 Z " />
<glyph glyph-name="oacute" unicode="&#xf3;" horiz-adv-x="406" d="M140 0 Q103 0 76.5 25.5 Q50 51 50 89 L50 451 Q50 488 76.5 514 Q103 540 140 540 L281 540 Q300 540 316.5 533 Q333 526 345.5 514 Q358 502 365 485.5 Q372 469 372 451 L372 89 Q372 70 365 54 Q358 38 345.5 26 Q333 14 316.5 7 Q300 0 281 0 L140 0 Z M190 448 Q178 448 169.5 438.5 Q161 429 161 418 L161 121 Q161 112 170 102.5 Q179 93 190 93 L232 93 Q245 93 253 102 Q261 111 261 122 L261 419 Q261 429 254 438.5 Q247 448 225 448 L190 448 Z M204 774 L311 774 L254 665 L156 665 L204 774 Z " />
<glyph glyph-name="obreve" unicode="&#x14f;" horiz-adv-x="406" d="M146 0 Q109 0 82.5 25.5 Q56 51 56 89 L56 451 Q56 488 82.5 514 Q109 540 146 540 L287 540 Q306 540 322.5 533 Q339 526 351.5 514 Q364 502 371 485.5 Q378 469 378 451 L378 89 Q378 70 371 54 Q364 38 351.5 26 Q339 14 322.5 7 Q306 0 287 0 L146 0 Z M196 448 Q184 448 175.5 438.5 Q167 429 167 418 L167 121 Q167 112 176 102.5 Q185 93 196 93 L238 93 Q251 93 259 102 Q267 111 267 122 L267 419 Q267 429 260 438.5 Q253 448 231 448 L196 448 Z M135 649 Q98 649 71 675 Q44 701 44 738 L44 774 L151 774 Q151 760 161.5 749.5 Q172 739 189 739 L226 739 Q243 739 254 749.5 Q265 760 265 774 L372 774 L372 738 Q372 701 345 675 Q318 649 281 649 L135 649 Z " />
<glyph glyph-name="ocircumflex" unicode="&#xf4;" horiz-adv-x="406" d="M281 0 Q300 0 316.5 7 Q333 14 345.5 26 Q358 38 365 54 Q372 70 372 89 L372 451 Q372 469 365 485.5 Q358 502 345.5 514 Q333 526 316.5 533 Q300 540 281 540 L140 540 Q103 540 76.5 514 Q50 488 50 451 L50 89 Q50 51 76.5 25.5 Q103 0 140 0 L281 0 Z M225 448 Q247 448 254 438.5 Q261 429 261 419 L261 122 Q261 111 253 102 Q245 93 232 93 L190 93 Q179 93 170 102.5 Q161 112 161 121 L161 418 Q161 429 169.5 438.5 Q178 448 190 448 L225 448 Z M150 774 L251 774 L354 617 L244 617 L201 680 L159 617 L47 617 L150 774 Z " />
<glyph glyph-name="odieresis" unicode="&#xf6;" horiz-adv-x="406" d="M145 0 Q108 0 81.5 25.5 Q55 51 55 89 L55 451 Q55 488 81.5 514 Q108 540 145 540 L286 540 Q305 540 321.5 533 Q338 526 350.5 514 Q363 502 370 485.5 Q377 469 377 451 L377 89 Q377 70 370 54 Q363 38 350.5 26 Q338 14 321.5 7 Q305 0 286 0 L145 0 Z M195 448 Q183 448 174.5 438.5 Q166 429 166 418 L166 121 Q166 112 175 102.5 Q184 93 195 93 L237 93 Q250 93 258 102 Q266 111 266 122 L266 419 Q266 429 259 438.5 Q252 448 230 448 L195 448 Z M43 721 Q43 748 61.5 766.5 Q80 785 106 785 Q133 785 151.5 766.5 Q170 748 170 721 Q170 694 151.5 675.5 Q133 657 106 657 Q80 657 61.5 675.5 Q43 694 43 721 Z M248 721 Q248 748 266.5 766.5 Q285 785 312 785 Q338 785 357 766.5 Q376 748 376 721 Q376 694 357 675.5 Q338 657 312 657 Q285 657 266.5 675.5 Q248 694 248 721 Z " />
<glyph glyph-name="ograve" unicode="&#xf2;" horiz-adv-x="406" d="M140 0 Q103 0 76.5 25.5 Q50 51 50 89 L50 451 Q50 488 76.5 514 Q103 540 140 540 L281 540 Q300 540 316.5 533 Q333 526 345.5 514 Q358 502 365 485.5 Q372 469 372 451 L372 89 Q372 70 365 54 Q358 38 345.5 26 Q333 14 316.5 7 Q300 0 281 0 L140 0 Z M190 448 Q178 448 169.5 438.5 Q161 429 161 418 L161 121 Q161 112 170 102.5 Q179 93 190 93 L232 93 Q245 93 253 102 Q261 111 261 122 L261 419 Q261 429 254 438.5 Q247 448 225 448 L190 448 Z M251 665 L155 665 L98 774 L205 774 L251 665 Z " />
<glyph glyph-name="ohungarumlaut" unicode="&#x151;" horiz-adv-x="406" d="M140 0 Q103 0 76.5 25.5 Q50 51 50 89 L50 451 Q50 488 76.5 514 Q103 540 140 540 L281 540 Q300 540 316.5 533 Q333 526 345.5 514 Q358 502 365 485.5 Q372 469 372 451 L372 89 Q372 70 365 54 Q358 38 345.5 26 Q333 14 316.5 7 Q300 0 281 0 L140 0 Z M190 448 Q178 448 169.5 438.5 Q161 429 161 418 L161 121 Q161 112 170 102.5 Q179 93 190 93 L232 93 Q245 93 253 102 Q261 111 261 122 L261 419 Q261 429 254 438.5 Q247 448 225 448 L190 448 Z M113 775 L220 775 L163 666 L65 666 L113 775 Z M317 775 L424 775 L367 666 L269 666 L317 775 Z " />
<glyph glyph-name="oslash" unicode="&#xf8;" horiz-adv-x="450" d="M158 0 L130 -53 L3 -53 L70 77 L70 451 Q70 488 96.5 514 Q123 540 160 540 L309 540 L338 592 L469 592 L392 448 L392 89 Q392 51 365.5 25.5 Q339 0 302 0 L158 0 Z M210 448 Q198 448 189.5 438.5 Q181 429 181 418 L181 121 Q181 113 189.5 103 Q198 93 210 93 L253 93 Q265 93 273 102 Q281 111 281 122 L281 419 Q281 429 273.5 438.5 Q266 448 244 448 L210 448 Z " />
<glyph glyph-name="omacron" unicode="&#x14d;" horiz-adv-x="406" d="M132 0 Q95 0 68.5 25.5 Q42 51 42 89 L42 451 Q42 488 68.5 514 Q95 540 132 540 L273 540 Q292 540 308.5 533 Q325 526 337.5 514 Q350 502 357 485.5 Q364 469 364 451 L364 89 Q364 70 357 54 Q350 38 337.5 26 Q325 14 308.5 7 Q292 0 273 0 L132 0 Z M182 448 Q170 448 161.5 438.5 Q153 429 153 418 L153 121 Q153 112 162 102.5 Q171 93 182 93 L224 93 Q237 93 245 102 Q253 111 253 122 L253 419 Q253 429 246 438.5 Q239 448 217 448 L182 448 Z M55 774 L352 774 L352 679 L55 679 L55 774 Z " />
<glyph glyph-name="otilde" unicode="&#xf5;" horiz-adv-x="406" d="M140 0 Q103 0 76.5 25.5 Q50 51 50 89 L50 451 Q50 488 76.5 514 Q103 540 140 540 L281 540 Q300 540 316.5 533 Q333 526 345.5 514 Q358 502 365 485.5 Q372 469 372 451 L372 89 Q372 70 365 54 Q358 38 345.5 26 Q333 14 316.5 7 Q300 0 281 0 L140 0 Z M190 448 Q178 448 169.5 438.5 Q161 429 161 418 L161 121 Q161 112 170 102.5 Q179 93 190 93 L232 93 Q245 93 253 102 Q261 111 261 122 L261 419 Q261 429 254 438.5 Q247 448 225 448 L190 448 Z M140 775 Q157 775 172 768.5 Q187 762 202 754.5 Q217 747 232 741 Q247 735 265 735 Q275 735 286 743.5 Q297 752 308 775 L390 775 Q385 706 356.5 669 Q328 632 285 632 Q269 632 252.5 638.5 Q236 645 220 653 Q204 661 188.5 667.5 Q173 674 160 674 Q149 674 139.5 665 Q130 656 120 632 L35 632 Q40 698 69 736.5 Q98 775 140 775 Z " />
<glyph glyph-name="oe" unicode="&#x153;" horiz-adv-x="609" d="M393 0 Q341 0 313 37 Q298 21 277 10.5 Q256 0 222 0 L138 0 Q100 0 73.5 25.5 Q47 51 47 89 L47 451 Q47 488 73.5 514 Q100 540 138 540 L222 540 Q255 540 277 529 Q299 518 313 504 Q326 517 348.5 528.5 Q371 540 393 540 L489 540 Q508 540 525 533.5 Q542 527 554.5 515 Q567 503 574 487 Q581 471 581 452 L581 247 L369 247 L369 119 Q369 109 376 101 Q383 93 393 93 L441 93 Q452 93 460.5 102 Q469 111 469 122 L469 154 L581 154 L581 89 Q581 70 574 54 Q567 38 554.5 26 Q542 14 525 7 Q508 0 489 0 L393 0 Z M186 448 Q175 448 166 438.5 Q157 429 157 418 L157 121 Q157 112 166 102.5 Q175 93 186 93 L229 93 Q241 93 249.5 102 Q258 111 258 122 L258 419 Q258 429 250.5 438.5 Q243 448 222 448 L186 448 Z M369 337 L470 337 L470 419 Q470 428 464 437.5 Q458 447 445 447 L393 447 Q383 447 376.5 439 Q370 431 369 423 L369 337 Z " />
<glyph glyph-name="oslashacute" unicode="&#x1ff;" horiz-adv-x="460" d="M158 0 L130 -53 L3 -53 L70 77 L70 451 Q70 488 96.5 514 Q123 540 160 540 L309 540 L338 592 L469 592 L392 448 L392 89 Q392 51 365.5 25.5 Q339 0 302 0 L158 0 Z M210 448 Q198 448 189.5 438.5 Q181 429 181 418 L181 121 Q181 113 189.5 103 Q198 93 210 93 L253 93 Q265 93 273 102 Q281 111 281 122 L281 419 Q281 429 273.5 438.5 Q266 448 244 448 L210 448 Z M230 775 L337 775 L280 666 L182 666 L230 775 Z " />
<glyph glyph-name="racute" unicode="&#x155;" horiz-adv-x="377" d="M122 541 Q131 541 140.5 535 Q150 529 156 515 Q172 529 190.5 535 Q209 541 218 541 L282 541 Q320 541 346.5 515 Q373 489 373 452 L373 394 L263 394 L263 419 Q263 432 254 440 Q245 448 234 448 L194 448 Q180 448 171 439.5 Q162 431 162 419 L162 0 L51 0 L51 541 L122 541 Z M206 774 L313 774 L256 665 L158 665 L206 774 Z " />
<glyph glyph-name="rcaron" unicode="&#x159;" horiz-adv-x="377" d="M122 541 Q131 541 140.5 535 Q150 529 156 515 Q172 529 190.5 535 Q209 541 218 541 L282 541 Q320 541 346.5 515 Q373 489 373 452 L373 394 L263 394 L263 419 Q263 432 254 440 Q245 448 234 448 L194 448 Q180 448 171 439.5 Q162 431 162 419 L162 0 L51 0 L51 541 L122 541 Z M46 774 L158 774 L201 710 L243 774 L352 774 L250 617 L149 617 L46 774 Z " />
<glyph glyph-name="rcommaaccent" unicode="&#x157;" horiz-adv-x="377" d="M122 541 Q131 541 140.5 535 Q150 529 156 515 Q172 529 190.5 535 Q209 541 218 541 L282 541 Q320 541 346.5 515 Q373 489 373 452 L373 394 L263 394 L263 419 Q263 432 254 440 Q245 448 234 448 L194 448 Q180 448 171 439.5 Q162 431 162 419 L162 0 L51 0 L51 541 L122 541 Z M141 -212 L141 -103 L250 -103 L250 -198 Q250 -236 248.5 -262.5 Q247 -289 236.5 -306.5 Q226 -324 204 -332 Q182 -340 141 -340 L141 -282 Q160 -282 171 -278 Q182 -274 187 -265.5 Q192 -257 193.5 -244 Q195 -231 195 -212 L141 -212 Z " />
<glyph glyph-name="sacute" unicode="&#x15b;" horiz-adv-x="399" d="M157 398 Q157 371 172.5 355 Q188 339 211.5 326 Q235 313 262.5 301 Q290 289 313.5 271 Q337 253 352.5 226 Q368 199 368 157 L368 89 Q368 51 341 25.5 Q314 0 277 0 L136 0 Q99 0 72.5 25.5 Q46 51 46 89 L46 160 L157 160 L157 121 Q157 112 165.5 102.5 Q174 93 185 93 L228 93 Q241 93 249 102 Q257 111 257 122 L257 146 Q257 171 241.5 187.5 Q226 204 202.5 217 Q179 230 152 241 Q125 252 101.5 266 Q78 280 62.5 299 Q47 318 47 347 L47 451 Q47 488 73.5 514 Q100 540 137 540 L277 540 Q295 540 311.5 531.5 Q328 523 340.5 508.5 Q353 494 360.5 476 Q368 458 368 440 L368 391 L257 391 L257 419 Q257 429 249.5 438.5 Q242 448 221 448 L185 448 Q174 448 165.5 438.5 Q157 429 157 418 L157 398 Z M200 771 L307 771 L250 662 L152 662 L200 771 Z " />
<glyph glyph-name="scaron" unicode="&#x161;" horiz-adv-x="399" d="M157 398 Q157 371 172.5 355 Q188 339 211.5 326 Q235 313 262.5 301 Q290 289 313.5 271 Q337 253 352.5 226 Q368 199 368 157 L368 89 Q368 51 341 25.5 Q314 0 277 0 L136 0 Q99 0 72.5 25.5 Q46 51 46 89 L46 160 L157 160 L157 121 Q157 112 165.5 102.5 Q174 93 185 93 L228 93 Q241 93 249 102 Q257 111 257 122 L257 146 Q257 171 241.5 187.5 Q226 204 202.5 217 Q179 230 152 241 Q125 252 101.5 266 Q78 280 62.5 299 Q47 318 47 347 L47 451 Q47 488 73.5 514 Q100 540 137 540 L277 540 Q295 540 311.5 531.5 Q328 523 340.5 508.5 Q353 494 360.5 476 Q368 458 368 440 L368 391 L257 391 L257 419 Q257 429 249.5 438.5 Q242 448 221 448 L185 448 Q174 448 165.5 438.5 Q157 429 157 418 L157 398 Z M47 774 L159 774 L202 710 L244 774 L353 774 L251 617 L150 617 L47 774 Z " />
<glyph glyph-name="scedilla" unicode="&#x15f;" horiz-adv-x="399" d="M157 398 Q157 371 172.5 355 Q188 339 211.5 326 Q235 313 262.5 301 Q290 289 313.5 271 Q337 253 352.5 226 Q368 199 368 157 L368 89 Q368 51 341 25.5 Q314 0 277 0 L136 0 Q99 0 72.5 25.5 Q46 51 46 89 L46 160 L157 160 L157 121 Q157 112 165.5 102.5 Q174 93 185 93 L228 93 Q241 93 249 102 Q257 111 257 122 L257 146 Q257 171 241.5 187.5 Q226 204 202.5 217 Q179 230 152 241 Q125 252 101.5 266 Q78 280 62.5 299 Q47 318 47 347 L47 451 Q47 488 73.5 514 Q100 540 137 540 L277 540 Q295 540 311.5 531.5 Q328 523 340.5 508.5 Q353 494 360.5 476 Q368 458 368 440 L368 391 L257 391 L257 419 Q257 429 249.5 438.5 Q242 448 221 448 L185 448 Q174 448 165.5 438.5 Q157 429 157 418 L157 398 Z M149 -136 Q184 -135 199.5 -121.5 Q215 -108 215 -88 Q215 -56 182 0 L224 0 Q238 -12 250 -28.5 Q262 -45 271 -63.5 Q280 -82 285 -100.5 Q290 -119 290 -135 Q290 -172 264.5 -199.5 Q239 -227 181 -227 Q171 -227 157 -225.5 Q143 -224 120 -219 L149 -136 Z " />
<glyph glyph-name="scircumflex" unicode="&#x15d;" horiz-adv-x="399" d="M157 418 Q157 429 165.5 438.5 Q174 448 185 448 L221 448 Q242 448 249.5 438.5 Q257 429 257 419 L257 391 L368 391 L368 440 Q368 458 360.5 476 Q353 494 340.5 508.5 Q328 523 311.5 531.5 Q295 540 277 540 L137 540 Q100 540 73.5 514 Q47 488 47 451 L47 347 Q47 318 62.5 299 Q78 280 101.5 266 Q125 252 152 241 Q179 230 202.5 217 Q226 204 241.5 187.5 Q257 171 257 146 L257 122 Q257 111 249 102 Q241 93 228 93 L185 93 Q174 93 165.5 102.5 Q157 112 157 121 L157 160 L46 160 L46 89 Q46 51 72.5 25.5 Q99 0 136 0 L277 0 Q314 0 341 25.5 Q368 51 368 89 L368 157 Q368 199 352.5 226 Q337 253 313.5 271 Q290 289 262.5 301 Q235 313 211.5 326 Q188 339 172.5 355 Q157 371 157 398 L157 418 Z M150 773 L251 773 L354 616 L244 616 L201 679 L159 616 L47 616 L150 773 Z " />
<glyph glyph-name="scommaaccent" unicode="&#x219;" horiz-adv-x="399" d="M157 398 Q157 371 172.5 355 Q188 339 211.5 326 Q235 313 262.5 301 Q290 289 313.5 271 Q337 253 352.5 226 Q368 199 368 157 L368 89 Q368 51 341 25.5 Q314 0 277 0 L136 0 Q99 0 72.5 25.5 Q46 51 46 89 L46 160 L157 160 L157 121 Q157 112 165.5 102.5 Q174 93 185 93 L228 93 Q241 93 249 102 Q257 111 257 122 L257 146 Q257 171 241.5 187.5 Q226 204 202.5 217 Q179 230 152 241 Q125 252 101.5 266 Q78 280 62.5 299 Q47 318 47 347 L47 451 Q47 488 73.5 514 Q100 540 137 540 L277 540 Q295 540 311.5 531.5 Q328 523 340.5 508.5 Q353 494 360.5 476 Q368 458 368 440 L368 391 L257 391 L257 419 Q257 429 249.5 438.5 Q242 448 221 448 L185 448 Q174 448 165.5 438.5 Q157 429 157 418 L157 398 Z M152 -212 L152 -103 L261 -103 L261 -198 Q261 -236 259.5 -262.5 Q258 -289 247.5 -306.5 Q237 -324 215 -332 Q193 -340 152 -340 L152 -282 Q171 -282 182 -278 Q193 -274 198 -265.5 Q203 -257 204.5 -244 Q206 -231 206 -212 L152 -212 Z " />
<glyph glyph-name="tbar" unicode="&#x167;" horiz-adv-x="245" d="M10 355 L67 355 L67 427 L12 427 L12 540 L67 540 L67 625 L176 625 L176 540 L236 540 L236 429 L176 429 L176 355 L235 355 L235 261 L176 261 L176 119 Q176 111 183.5 102 Q191 93 205 93 L236 93 L236 0 L158 0 Q115 0 91 27 Q67 54 67 101 L67 261 L10 261 L10 355 Z " />
<glyph glyph-name="tcaron" unicode="&#x165;" horiz-adv-x="347" d="M67 101 Q67 54 91 27 Q115 0 158 0 L236 0 L236 93 L205 93 Q191 93 183.5 102 Q176 111 176 119 L176 429 L236 429 L236 540 L176 540 L176 625 L67 625 L67 540 L12 540 L12 427 L67 427 L67 101 Z M265 772 L375 772 L375 676 Q375 639 373.5 612 Q372 585 361.5 568 Q351 551 328.5 542.5 Q306 534 265 534 L265 592 Q284 592 295 596 Q306 600 311 608.5 Q316 617 317.5 630.5 Q319 644 319 663 L265 663 L265 772 Z " />
<glyph glyph-name="tcommaaccent" unicode="&#x163;" horiz-adv-x="245" d="M67 427 L12 427 L12 540 L67 540 L67 625 L176 625 L176 540 L236 540 L236 429 L176 429 L176 119 Q176 111 183.5 102 Q191 93 205 93 L236 93 L236 0 L158 0 Q115 0 91 27 Q67 54 67 101 L67 427 Z M95 -231 L95 -122 L204 -122 L204 -217 Q204 -255 202.5 -281.5 Q201 -308 190.5 -325.5 Q180 -343 158 -351 Q136 -359 95 -359 L95 -301 Q114 -301 125 -297 Q136 -293 141 -284.5 Q146 -276 147.5 -263 Q149 -250 149 -231 L95 -231 Z " />
<glyph glyph-name="uacute" unicode="&#xfa;" horiz-adv-x="410" d="M141 0 Q122 0 105.5 7 Q89 14 76.5 26 Q64 38 57 54 Q50 70 50 89 L50 540 L162 540 L162 122 Q162 113 167.5 103.5 Q173 94 185 94 L228 94 Q242 94 251.5 99.5 Q261 105 261 122 L261 540 L372 540 L372 0 L297 0 Q285 0 276.5 3.5 Q268 7 264 20 Q253 7 242.5 3.5 Q232 0 224 0 L141 0 Z M205 775 L312 775 L255 666 L157 666 L205 775 Z " />
<glyph glyph-name="ubreve" unicode="&#x16d;" horiz-adv-x="410" d="M141 0 Q122 0 105.5 7 Q89 14 76.5 26 Q64 38 57 54 Q50 70 50 89 L50 540 L162 540 L162 122 Q162 113 167.5 103.5 Q173 94 185 94 L228 94 Q242 94 251.5 99.5 Q261 105 261 122 L261 540 L372 540 L372 0 L297 0 Q285 0 276.5 3.5 Q268 7 264 20 Q253 7 242.5 3.5 Q232 0 224 0 L141 0 Z M138 649 Q101 649 74 675 Q47 701 47 738 L47 774 L154 774 Q154 760 164.5 749.5 Q175 739 192 739 L229 739 Q246 739 257 749.5 Q268 760 268 774 L375 774 L375 738 Q375 701 348 675 Q321 649 284 649 L138 649 Z " />
<glyph glyph-name="ucircumflex" unicode="&#xfb;" horiz-adv-x="410" d="M141 0 Q122 0 105.5 7 Q89 14 76.5 26 Q64 38 57 54 Q50 70 50 89 L50 540 L162 540 L162 122 Q162 113 167.5 103.5 Q173 94 185 94 L228 94 Q242 94 251.5 99.5 Q261 105 261 122 L261 540 L372 540 L372 0 L297 0 Q285 0 276.5 3.5 Q268 7 264 20 Q253 7 242.5 3.5 Q232 0 224 0 L141 0 Z M155 774 L256 774 L359 617 L249 617 L206 680 L164 617 L52 617 L155 774 Z " />
<glyph glyph-name="udieresis" unicode="&#xfc;" horiz-adv-x="410" d="M141 0 Q122 0 105.5 7 Q89 14 76.5 26 Q64 38 57 54 Q50 70 50 89 L50 540 L162 540 L162 122 Q162 113 167.5 103.5 Q173 94 185 94 L228 94 Q242 94 251.5 99.5 Q261 105 261 122 L261 540 L372 540 L372 0 L297 0 Q285 0 276.5 3.5 Q268 7 264 20 Q253 7 242.5 3.5 Q232 0 224 0 L141 0 Z M44 721 Q44 748 62.5 766.5 Q81 785 107 785 Q134 785 152.5 766.5 Q171 748 171 721 Q171 694 152.5 675.5 Q134 657 107 657 Q81 657 62.5 675.5 Q44 694 44 721 Z M249 721 Q249 748 267.5 766.5 Q286 785 313 785 Q339 785 358 766.5 Q377 748 377 721 Q377 694 358 675.5 Q339 657 313 657 Q286 657 267.5 675.5 Q249 694 249 721 Z " />
<glyph glyph-name="uhungarumlaut" unicode="&#x171;" horiz-adv-x="410" d="M141 0 Q122 0 105.5 7 Q89 14 76.5 26 Q64 38 57 54 Q50 70 50 89 L50 540 L162 540 L162 122 Q162 113 167.5 103.5 Q173 94 185 94 L228 94 Q242 94 251.5 99.5 Q261 105 261 122 L261 540 L372 540 L372 0 L297 0 Q285 0 276.5 3.5 Q268 7 264 20 Q253 7 242.5 3.5 Q232 0 224 0 L141 0 Z M111 776 L218 776 L161 667 L63 667 L111 776 Z M315 776 L422 776 L365 667 L267 667 L315 776 Z " />
<glyph glyph-name="ugrave" unicode="&#xf9;" horiz-adv-x="410" d="M141 0 Q122 0 105.5 7 Q89 14 76.5 26 Q64 38 57 54 Q50 70 50 89 L50 540 L162 540 L162 122 Q162 113 167.5 103.5 Q173 94 185 94 L228 94 Q242 94 251.5 99.5 Q261 105 261 122 L261 540 L372 540 L372 0 L297 0 Q285 0 276.5 3.5 Q268 7 264 20 Q253 7 242.5 3.5 Q232 0 224 0 L141 0 Z M246 665 L150 665 L93 774 L200 774 L246 665 Z " />
<glyph glyph-name="umacron" unicode="&#x16b;" horiz-adv-x="410" d="M141 0 Q122 0 105.5 7 Q89 14 76.5 26 Q64 38 57 54 Q50 70 50 89 L50 540 L162 540 L162 122 Q162 113 167.5 103.5 Q173 94 185 94 L228 94 Q242 94 251.5 99.5 Q261 105 261 122 L261 540 L372 540 L372 0 L297 0 Q285 0 276.5 3.5 Q268 7 264 20 Q253 7 242.5 3.5 Q232 0 224 0 L141 0 Z M57 774 L354 774 L354 679 L57 679 L57 774 Z " />
<glyph glyph-name="uogonek" unicode="&#x173;" horiz-adv-x="410" d="M141 0 Q122 0 105.5 7 Q89 14 76.5 26 Q64 38 57 54 Q50 70 50 89 L50 540 L162 540 L162 122 Q162 113 167.5 103.5 Q173 94 185 94 L228 94 Q242 94 251.5 99.5 Q261 105 261 122 L261 540 L372 540 L372 0 L297 0 Q285 0 276.5 3.5 Q268 7 264 20 Q253 7 242.5 3.5 Q232 0 224 0 L141 0 Z M378 -136 Q343 -135 327.5 -121.5 Q312 -108 312 -88 Q312 -72 321 -49.5 Q330 -27 345 0 L303 0 Q289 -12 277 -28.5 Q265 -45 256 -63 Q247 -81 242 -100 Q237 -119 237 -135 Q237 -158 247 -175.5 Q257 -193 273 -205 Q289 -217 309.5 -223.5 Q330 -230 350 -230 Q382 -230 406 -215 L378 -136 Z " />
<glyph glyph-name="uring" unicode="&#x16f;" horiz-adv-x="410" d="M141 0 Q122 0 105.5 7 Q89 14 76.5 26 Q64 38 57 54 Q50 70 50 89 L50 540 L162 540 L162 122 Q162 113 167.5 103.5 Q173 94 185 94 L228 94 Q242 94 251.5 99.5 Q261 105 261 122 L261 540 L372 540 L372 0 L297 0 Q285 0 276.5 3.5 Q268 7 264 20 Q253 7 242.5 3.5 Q232 0 224 0 L141 0 Z M222 669 Q233 669 237.5 673 Q242 677 242 682 L242 696 Q242 701 238.5 705.5 Q235 710 230 710 L197 710 Q186 710 181.5 705.5 Q177 701 177 696 L177 684 Q177 678 180.5 673.5 Q184 669 189 669 L222 669 Z M162 602 Q140 602 122.5 619 Q105 636 105 658 L105 721 Q105 744 122.5 760.5 Q140 777 162 777 L257 777 Q280 777 297 760.5 Q314 744 314 721 L314 658 Q314 636 297 619 Q280 602 257 602 L162 602 Z " />
<glyph glyph-name="utilde" unicode="&#x169;" horiz-adv-x="410" d="M141 0 Q122 0 105.5 7 Q89 14 76.5 26 Q64 38 57 54 Q50 70 50 89 L50 540 L162 540 L162 122 Q162 113 167.5 103.5 Q173 94 185 94 L228 94 Q242 94 251.5 99.5 Q261 105 261 122 L261 540 L372 540 L372 0 L297 0 Q285 0 276.5 3.5 Q268 7 264 20 Q253 7 242.5 3.5 Q232 0 224 0 L141 0 Z M142 774 Q159 774 174 767.5 Q189 761 204 753.5 Q219 746 234 740 Q249 734 267 734 Q277 734 288 742.5 Q299 751 310 774 L392 774 Q387 705 358.5 668 Q330 631 287 631 Q271 631 254.5 637.5 Q238 644 222 652 Q206 660 190.5 666.5 Q175 673 162 673 Q151 673 141.5 664 Q132 655 122 631 L37 631 Q42 697 71 735.5 Q100 774 142 774 Z " />
<glyph glyph-name="wacute" unicode="&#x1e83;" horiz-adv-x="634" d="M431 112 L439 218 L497 540 L617 540 L486 0 L372 0 L320 218 L315 218 L267 0 L150 0 L20 540 L141 540 L198 218 L206 112 L211 112 L219 218 L273 383 L231 540 L361 540 L418 218 L426 112 L431 112 Z M301 773 L408 773 L351 664 L253 664 L301 773 Z " />
<glyph glyph-name="wcircumflex" unicode="&#x175;" horiz-adv-x="634" d="M426 112 L418 218 L361 540 L231 540 L273 383 L219 218 L211 112 L206 112 L198 218 L141 540 L20 540 L150 0 L267 0 L315 218 L320 218 L372 0 L486 0 L617 540 L497 540 L439 218 L431 112 L426 112 Z M266 773 L367 773 L470 616 L360 616 L317 679 L275 616 L163 616 L266 773 Z " />
<glyph glyph-name="wdieresis" unicode="&#x1e85;" horiz-adv-x="634" d="M431 112 L439 218 L497 540 L617 540 L486 0 L372 0 L320 218 L315 218 L267 0 L150 0 L20 540 L141 540 L198 218 L206 112 L211 112 L219 218 L273 383 L231 540 L361 540 L418 218 L426 112 L431 112 Z M155 711 Q155 738 173.5 756.5 Q192 775 218 775 Q245 775 263.5 756.5 Q282 738 282 711 Q282 684 263.5 665.5 Q245 647 218 647 Q192 647 173.5 665.5 Q155 684 155 711 Z M360 711 Q360 738 378.5 756.5 Q397 775 424 775 Q450 775 469 756.5 Q488 738 488 711 Q488 684 469 665.5 Q450 647 424 647 Q397 647 378.5 665.5 Q360 684 360 711 Z " />
<glyph glyph-name="wgrave" unicode="&#x1e81;" horiz-adv-x="634" d="M431 112 L439 218 L497 540 L617 540 L486 0 L372 0 L320 218 L315 218 L267 0 L150 0 L20 540 L141 540 L198 218 L206 112 L211 112 L219 218 L273 383 L231 540 L361 540 L418 218 L426 112 L431 112 Z M324 668 L228 668 L171 777 L278 777 L324 668 Z " />
<glyph glyph-name="yacute" unicode="&#xfd;" horiz-adv-x="412" d="M375 540 L375 -141 Q375 -178 348.5 -204.5 Q322 -231 284 -231 L143 -231 Q105 -231 79 -204.5 Q53 -178 53 -141 L53 -65 L164 -65 L164 -108 Q164 -121 172.5 -129.5 Q181 -138 193 -138 L239 -138 Q250 -136 257 -128 Q264 -120 264 -108 L264 16 Q254 8 244 4 Q234 0 227 0 L143 0 Q105 0 79 25.5 Q53 51 53 89 L53 540 L164 540 L164 122 Q164 113 170 103.5 Q176 94 188 94 L231 94 Q243 94 253.5 97 Q264 100 264 118 L264 540 L375 540 Z M216 774 L323 774 L266 665 L168 665 L216 774 Z " />
<glyph glyph-name="ycircumflex" unicode="&#x177;" horiz-adv-x="412" d="M264 540 L264 118 Q264 100 253.5 97 Q243 94 231 94 L188 94 Q176 94 170 103.5 Q164 113 164 122 L164 540 L53 540 L53 89 Q53 51 79 25.5 Q105 0 143 0 L227 0 Q234 0 244 4 Q254 8 264 16 L264 -108 Q264 -120 257 -128 Q250 -136 239 -138 L193 -138 Q181 -138 172.5 -129.5 Q164 -121 164 -108 L164 -65 L53 -65 L53 -141 Q53 -178 79 -204.5 Q105 -231 143 -231 L284 -231 Q322 -231 348.5 -204.5 Q375 -178 375 -141 L375 540 L264 540 Z M166 774 L267 774 L370 617 L260 617 L217 680 L175 617 L63 617 L166 774 Z " />
<glyph glyph-name="ydieresis" unicode="&#xff;" horiz-adv-x="412" d="M375 540 L375 -141 Q375 -178 348.5 -204.5 Q322 -231 284 -231 L143 -231 Q105 -231 79 -204.5 Q53 -178 53 -141 L53 -65 L164 -65 L164 -108 Q164 -121 172.5 -129.5 Q181 -138 193 -138 L239 -138 Q250 -136 257 -128 Q264 -120 264 -108 L264 16 Q254 8 244 4 Q234 0 227 0 L143 0 Q105 0 79 25.5 Q53 51 53 89 L53 540 L164 540 L164 122 Q164 113 170 103.5 Q176 94 188 94 L231 94 Q243 94 253.5 97 Q264 100 264 118 L264 540 L375 540 Z M45 721 Q45 748 63.5 766.5 Q82 785 108 785 Q135 785 153.5 766.5 Q172 748 172 721 Q172 694 153.5 675.5 Q135 657 108 657 Q82 657 63.5 675.5 Q45 694 45 721 Z M250 721 Q250 748 268.5 766.5 Q287 785 314 785 Q340 785 359 766.5 Q378 748 378 721 Q378 694 359 675.5 Q340 657 314 657 Q287 657 268.5 675.5 Q250 694 250 721 Z " />
<glyph glyph-name="ygrave" unicode="&#x1ef3;" horiz-adv-x="412" d="M375 540 L375 -141 Q375 -178 348.5 -204.5 Q322 -231 284 -231 L143 -231 Q105 -231 79 -204.5 Q53 -178 53 -141 L53 -65 L164 -65 L164 -108 Q164 -121 172.5 -129.5 Q181 -138 193 -138 L239 -138 Q250 -136 257 -128 Q264 -120 264 -108 L264 16 Q254 8 244 4 Q234 0 227 0 L143 0 Q105 0 79 25.5 Q53 51 53 89 L53 540 L164 540 L164 122 Q164 113 170 103.5 Q176 94 188 94 L231 94 Q243 94 253.5 97 Q264 100 264 118 L264 540 L375 540 Z M254 666 L158 666 L101 775 L208 775 L254 666 Z " />
<glyph glyph-name="zacute" unicode="&#x17a;" horiz-adv-x="386" d="M51 80 Q51 97 56 110 Q61 123 65 131 L137 270 Q157 310 178 349 Q199 388 219 429 L51 429 L51 540 L349 540 L349 453 Q349 440 344 428.5 Q339 417 336 410 L179 110 L358 110 L358 -1 L51 -1 L51 80 Z M207 774 L314 774 L257 665 L159 665 L207 774 Z " />
<glyph glyph-name="zcaron" unicode="&#x17e;" horiz-adv-x="386" d="M51 80 Q51 97 56 110 Q61 123 65 131 L137 270 Q157 310 178 349 Q199 388 219 429 L51 429 L51 540 L349 540 L349 453 Q349 440 344 428.5 Q339 417 336 410 L179 110 L358 110 L358 -1 L51 -1 L51 80 Z M57 774 L169 774 L212 710 L254 774 L363 774 L261 617 L160 617 L57 774 Z " />
<glyph glyph-name="zdotaccent" unicode="&#x17c;" horiz-adv-x="386" d="M51 80 Q51 97 56 110 Q61 123 65 131 L137 270 Q157 310 178 349 Q199 388 219 429 L51 429 L51 540 L349 540 L349 453 Q349 440 344 428.5 Q339 417 336 410 L179 110 L358 110 L358 -1 L51 -1 L51 80 Z M142 711 Q142 738 161 756.5 Q180 775 205 775 Q233 775 251 756.5 Q269 738 269 711 Q269 684 251 665.5 Q233 647 205 647 Q180 647 161 665.5 Q142 684 142 711 Z " />
<glyph glyph-name="infinity" unicode="&#x221e;" horiz-adv-x="573" d="M399 325 Q390 325 382.5 319 Q375 313 369.5 303.5 Q364 294 360.5 283 Q357 272 357 262 Q357 242 368.5 233.5 Q380 225 399 225 Q408 225 415.5 231 Q423 237 429 246.5 Q435 256 438.5 267 Q442 278 442 288 Q442 308 430.5 316.5 Q419 325 399 325 Z M407 108 Q381 108 349 118 Q317 128 282 157 Q268 140 248 131.5 Q228 123 205 123 Q161 123 128 137 Q95 151 72.5 173 Q50 195 38.5 221.5 Q27 248 27 274 Q27 305 35.5 337 Q44 369 62.5 395 Q81 421 110 437.5 Q139 454 180 454 Q206 454 238.5 444 Q271 434 306 406 Q318 424 337.5 432 Q357 440 381 440 Q425 440 458.5 426 Q492 412 514.5 390 Q537 368 548.5 341 Q560 314 560 289 Q560 258 551.5 226 Q543 194 524.5 167.5 Q506 141 477 124.5 Q448 108 407 108 Z M193 339 Q184 339 176.5 333 Q169 327 163.5 317.5 Q158 308 154.5 297 Q151 286 151 276 Q151 256 162.5 247.5 Q174 239 193 239 Q202 239 209.5 245 Q217 251 223 260.5 Q229 270 232.5 281 Q236 292 236 302 Q236 322 224.5 330.5 Q213 339 193 339 Z " />
<glyph glyph-name="Alpha" unicode="&#x391;" horiz-adv-x="432" d="M322 0 L290 154 L148 154 L118 0 L0 0 L168 749 L272 749 L441 0 L322 0 Z M206 420 L169 245 L271 245 L235 420 L223 610 L218 610 L206 420 Z " />
<glyph glyph-name="Alphatonos" unicode="&#x386;" horiz-adv-x="422" d="M313 0 L281 154 L139 154 L109 0 L-9 0 L159 749 L263 749 L432 0 L313 0 Z M197 420 L160 245 L262 245 L226 420 L214 610 L209 610 L197 420 Z M-10 749 L116 749 L108 621 L-2 621 L-10 749 Z " />
<glyph glyph-name="Beta" unicode="&#x392;" horiz-adv-x="416" d="M61 749 L290 749 Q327 749 354 723 Q381 697 381 660 L381 496 Q381 476 369 457 Q357 438 334 418 Q381 383 381 342 L381 89 Q381 52 354 26 Q327 0 290 0 L61 0 L61 749 Z M170 91 L242 91 Q254 91 262 100 Q270 109 270 121 L270 356 Q270 369 261.5 378.5 Q253 388 240 388 L170 388 L170 91 Z M240 478 Q253 478 261.5 487 Q270 496 270 508 L270 628 Q270 638 264 647.5 Q258 657 246 657 L170 657 L170 478 L240 478 Z " />
<glyph glyph-name="Gamma" unicode="&#x393;" horiz-adv-x="400" d="M170 0 L61 0 L61 749 L381 749 L381 640 L170 640 L170 0 Z " />
<glyph glyph-name="Delta" unicode="&#x394;" horiz-adv-x="422" d="M-6 0 L163 749 L267 749 L436 0 L-6 0 Z M213 598 L200 409 L131 91 L298 91 L230 409 L217 598 L213 598 Z " />
<glyph glyph-name="Epsilon" unicode="&#x395;" horiz-adv-x="412" d="M61 749 L381 749 L381 640 L170 640 L170 421 L349 421 L349 312 L170 312 L170 109 L381 109 L381 0 L61 0 L61 749 Z " />
<glyph glyph-name="Epsilontonos" unicode="&#x388;" horiz-adv-x="480" d="M144 749 L464 749 L464 640 L253 640 L253 421 L432 421 L432 312 L253 312 L253 109 L464 109 L464 0 L144 0 L144 749 Z M-8 749 L118 749 L110 621 L0 621 L-8 749 Z " />
<glyph glyph-name="Zeta" unicode="&#x396;" horiz-adv-x="386" d="M41 749 L360 749 L360 646 Q360 638 358.5 631 Q357 624 355 619 L149 109 L360 109 L360 0 L42 0 L42 101 Q42 121 46 130 L253 640 L41 640 L41 749 Z " />
<glyph glyph-name="Eta" unicode="&#x397;" horiz-adv-x="425" d="M270 312 L170 312 L170 0 L61 0 L61 749 L170 749 L170 421 L270 421 L270 749 L380 749 L380 0 L270 0 L270 312 Z " />
<glyph glyph-name="Etatonos" unicode="&#x389;" horiz-adv-x="425" d="M270 312 L170 312 L170 0 L61 0 L61 749 L170 749 L170 421 L270 421 L270 749 L380 749 L380 0 L270 0 L270 312 Z M197 958 L304 958 L247 849 L149 849 L197 958 Z " />
<glyph glyph-name="Iota" unicode="&#x399;" horiz-adv-x="221" d="M63 749 L172 749 L172 0 L63 0 L63 749 Z " />
<glyph glyph-name="Kappa" unicode="&#x39a;" horiz-adv-x="402" d="M170 546 L143 418 L148 418 L283 749 L400 749 L240 374 L400 0 L284 0 L148 330 L143 330 L170 192 L170 0 L61 0 L61 749 L170 749 L170 546 Z " />
<glyph glyph-name="Lambda" unicode="&#x39b;" horiz-adv-x="422" d="M108 1 L-10 1 L158 750 L262 750 L431 1 L312 1 L225 421 L213 611 L208 611 L196 421 L108 1 Z " />
<glyph glyph-name="Mu" unicode="&#x39c;" horiz-adv-x="545" d="M305 0 L248 0 L140 455 L135 455 L164 287 L164 0 L55 0 L55 749 L173 749 L257 419 L274 279 L279 279 L296 419 L380 749 L498 749 L498 0 L389 0 L389 287 L418 455 L413 455 L305 0 Z " />
</font>
</svg>
