<?xml version="1.0" encoding="UTF-8"?>
<svg xmlns="http://www.w3.org/2000/svg" xmlns:xlink="http://www.w3.org/1999/xlink" version="1.2" >
<font id="Ampero Regular">
<font-face  font-family="Ampero" units-per-em="1000" ascent="775" descent="-231" font-style="normal" font-weight="400" font-stretch="normal" cap-height="749" x-height="540" underline-position="-75" underline-thickness="50" />
<missing-glyph  horiz-adv-x="233" d="" />
<glyph glyph-name="NULL" d="" />
<glyph glyph-name="nonmarkingreturn" unicode="&#xd;" horiz-adv-x="233" d="" />
<glyph glyph-name="space" unicode="&#x20;" horiz-adv-x="233" d="" />
<glyph glyph-name="exclam" unicode="&#x21;" horiz-adv-x="203" d="M132 211 L75 211 L53 774 L151 774 L132 211 Z M161 58 Q161 32 144.5 15.5 Q128 -1 103 -1 Q79 -1 61.5 15.5 Q44 32 44 58 Q44 84 61.5 100.5 Q79 117 103 117 Q128 117 144.5 100.5 Q161 84 161 58 Z " />
<glyph glyph-name="quotedbl" unicode="&#x22;" horiz-adv-x="406" d="M256 774 L355 774 L355 683 Q355 647 353.5 620.5 Q352 594 342.5 577.5 Q333 561 313 553 Q293 545 256 545 L256 592 Q276 592 287 596.5 Q298 601 303.5 611 Q309 621 310 637 Q311 653 311 676 L256 676 L256 774 Z M55 676 L55 774 L154 774 L154 683 Q154 647 152.5 620.5 Q151 594 141.5 577.5 Q132 561 112 553 Q92 545 55 545 L55 592 Q75 592 86 596.5 Q97 601 102.5 611 Q108 621 109 637 Q110 653 110 676 L55 676 Z " />
<glyph glyph-name="numbersign" unicode="&#x23;" horiz-adv-x="776" d="M539 453 L512 309 L709 309 L691 230 L495 230 L449 0 L368 0 L417 232 L273 232 L227 0 L149 0 L194 234 L-1 234 L18 312 L214 312 L240 456 L45 456 L63 534 L260 534 L295 717 L374 717 L337 532 L481 532 L518 716 L594 716 L556 531 L755 531 L737 453 L539 453 Z M289 310 L435 310 L463 454 L318 454 L289 310 Z " />
<glyph glyph-name="dollar" unicode="&#x24;" horiz-adv-x="389" d="M151 514 Q151 491 167 475 Q183 459 206.5 446 Q230 433 257.5 421 Q285 409 308.5 393 Q332 377 348 356 Q364 335 364 305 L364 84 Q364 67 357 51.5 Q350 36 338.5 24.5 Q327 13 311.5 6.5 Q296 0 278 0 L258 0 L258 -53 L159 -53 L159 0 L136 0 Q101 0 76 24.5 Q51 49 51 84 L51 211 L151 211 L151 117 Q151 104 161.5 92 Q172 80 185 80 L229 80 Q243 80 254 91.5 Q265 103 265 117 L265 262 Q265 290 249 309 Q233 328 209.5 342.5 Q186 357 158.5 369 Q131 381 107.5 395 Q84 409 68 427 Q52 445 52 471 L52 637 Q52 654 59 669.5 Q66 685 77.5 696.5 Q89 708 104.5 714.5 Q120 721 138 721 L159 721 L159 774 L258 774 L258 721 L278 721 Q296 721 311.5 714.5 Q327 708 338.5 696.5 Q350 685 357 669.5 Q364 654 364 637 L364 535 L265 535 L265 605 Q265 618 255.5 630 Q246 642 221 642 L185 642 Q171 642 161 630 Q151 618 151 604 L151 514 Z " />
<glyph glyph-name="percent" unicode="&#x25;" horiz-adv-x="681" d="M605 775 L209 0 L113 0 L506 775 L605 775 Z M125 434 Q108 434 92.5 440.5 Q77 447 65.5 458.5 Q54 470 47 485.5 Q40 501 40 519 L40 690 Q40 725 65 749.5 Q90 774 125 774 L237 774 Q255 774 270.5 767.5 Q286 761 297.5 749.5 Q309 738 316 722.5 Q323 707 323 690 L323 519 Q323 501 316 485.5 Q309 470 297.5 458.5 Q286 447 270.5 440.5 Q255 434 237 434 L125 434 Z M169 694 Q155 694 145 683 Q135 672 135 656 L135 551 Q135 538 145.5 526.5 Q156 515 169 515 L193 515 Q207 515 217.5 526 Q228 537 228 552 L228 658 Q228 672 219 683 Q210 694 185 694 L169 694 Z M479 -1 Q462 -1 446.5 5.5 Q431 12 419 23.5 Q407 35 400 50.5 Q393 66 393 84 L393 255 Q393 290 418.5 314.5 Q444 339 479 339 L590 339 Q608 339 623.5 332.5 Q639 326 650.5 314.5 Q662 303 669 287.5 Q676 272 676 255 L676 84 Q676 66 669 50.5 Q662 35 650.5 23.5 Q639 12 623.5 5.5 Q608 -1 590 -1 L479 -1 Z M522 259 Q508 259 498 247.5 Q488 236 488 221 L488 116 Q488 103 498.5 91 Q509 79 522 79 L546 79 Q561 79 571 90.5 Q581 102 581 117 L581 223 Q581 236 572.5 247.5 Q564 259 538 259 L522 259 Z " />
<glyph glyph-name="ampersand" unicode="&#x26;" horiz-adv-x="434" d="M364 557 L364 430 L419 430 L419 350 L364 350 L364 0 L137 0 Q119 0 103.5 6.5 Q88 13 76.5 24.5 Q65 36 58 51.5 Q51 67 51 84 L51 311 Q51 336 64 356.5 Q77 377 97 390 Q77 404 64 425 Q51 446 51 469 L51 665 Q51 682 58 697.5 Q65 713 76.5 724.5 Q88 736 103.5 742.5 Q119 749 137 749 L322 749 L322 668 L182 668 Q167 668 159 656 Q151 644 151 632 L151 467 Q151 452 162 441 Q173 430 189 430 L265 430 L265 557 L364 557 Z M265 350 L189 350 Q173 350 162 338.5 Q151 327 151 313 L151 117 Q151 103 161.5 91.5 Q172 80 186 80 L265 80 L265 350 Z " />
<glyph glyph-name="quotesingle" unicode="&#x27;" horiz-adv-x="131" d="M22 774 L121 774 L121 683 Q121 647 119.5 620.5 Q118 594 108.5 577.5 Q99 561 79 553 Q59 545 22 545 L22 592 Q42 592 53 596.5 Q64 601 69.5 611 Q75 621 76 637 Q77 653 77 676 L22 676 L22 774 Z " />
<glyph glyph-name="parenleft" unicode="&#x28;" horiz-adv-x="260" d="M215 -113 L139 -113 Q104 -113 78.5 -88.5 Q53 -64 53 -28 L53 692 Q53 728 78.5 752 Q104 776 139 776 L216 776 L216 696 L188 696 Q174 696 164 685 Q154 674 154 658 L154 4 Q154 -10 164 -20.5 Q174 -31 188 -31 L215 -31 L215 -113 Z " />
<glyph glyph-name="parenright" unicode="&#x29;" horiz-adv-x="262" d="M49 776 L125 776 Q160 776 185.5 752 Q211 728 211 692 L211 -27 Q211 -63 185.5 -87 Q160 -111 125 -111 L48 -111 L48 -31 L77 -31 Q91 -31 101 -20.5 Q111 -10 111 6 L111 659 Q111 673 100 684 Q89 695 77 695 L49 695 L49 776 Z " />
<glyph glyph-name="asterisk" unicode="&#x2a;" horiz-adv-x="421" d="M189 770 L240 770 L240 650 L344 710 L368 668 L266 607 L369 547 L344 502 L240 563 L240 445 L189 445 L189 563 L86 503 L61 547 L164 607 L61 668 L86 711 L189 650 L189 770 Z " />
<glyph glyph-name="plus" unicode="&#x2b;" horiz-adv-x="398" d="M258 531 L258 423 L365 423 L365 324 L258 324 L258 215 L159 215 L159 324 L52 324 L52 423 L159 423 L159 531 L258 531 Z " />
<glyph glyph-name="comma" unicode="&#x2c;" horiz-adv-x="194" d="M54 0 L54 99 L153 99 L153 8 Q153 -28 151.5 -54.5 Q150 -81 140.5 -97.5 Q131 -114 111 -122 Q91 -130 54 -130 L54 -83 Q74 -83 85 -78.5 Q96 -74 101.5 -64.5 Q107 -55 108 -39 Q109 -23 109 0 L54 0 Z " />
<glyph glyph-name="hyphen" unicode="&#x2d;" horiz-adv-x="285" d="M54 399 L237 399 L237 302 L54 302 L54 399 Z " />
<glyph glyph-name="period" unicode="&#x2e;" horiz-adv-x="203" d="M54 99 L153 99 L153 0 L54 0 L54 99 Z " />
<glyph glyph-name="slash" unicode="&#x2f;" horiz-adv-x="514" d="M525 775 L98 -53 L2 -53 L427 775 L525 775 Z " />
<glyph glyph-name="zero" unicode="0" horiz-adv-x="389" d="M137 0 Q102 0 77 24.5 Q52 49 52 84 L52 665 Q52 700 77 724.5 Q102 749 137 749 L279 749 Q297 749 312.5 742.5 Q328 736 339.5 724.5 Q351 713 358 697.5 Q365 682 365 665 L365 84 Q365 67 358 51.5 Q351 36 339.5 24.5 Q328 13 312.5 6.5 Q297 0 279 0 L137 0 Z M186 670 Q172 670 162 658 Q152 646 152 632 L152 117 Q152 104 162.5 92 Q173 80 186 80 L230 80 Q244 80 255 91.5 Q266 103 266 117 L266 633 Q266 646 256.5 658 Q247 670 223 670 L186 670 Z " />
<glyph glyph-name="one" unicode="1" horiz-adv-x="264" d="M114 0 L114 563 L60 563 L60 666 Q71 675 82 687 Q91 698 99.5 713 Q108 728 113 749 L213 749 L213 0 L114 0 Z " />
<glyph glyph-name="two" unicode="2" horiz-adv-x="409" d="M365 611 Q365 593 358 579 L144 99 L365 99 L365 0 L53 0 L53 97 Q53 106 55 115 Q57 124 63 137 L253 558 Q257 567 262 585 Q267 603 267 632 Q267 646 256 658 Q245 670 231 670 L196 670 Q170 670 161.5 658 Q153 646 153 633 L153 563 L53 563 L53 665 Q53 700 78 724.5 Q103 749 138 749 L279 749 Q297 749 312.5 742.5 Q328 736 339.5 724.5 Q351 713 358 697.5 Q365 682 365 665 L365 611 Z " />
<glyph glyph-name="three" unicode="3" horiz-adv-x="389" d="M230 80 Q244 80 255 91.5 Q266 103 266 117 L266 358 Q266 373 254.5 384.5 Q243 396 228 396 L183 396 L183 476 L228 476 Q243 476 254.5 487 Q266 498 266 512 L266 632 Q266 644 257.5 656 Q249 668 234 668 L182 668 Q167 668 159.5 656 Q152 644 152 632 L152 590 L52 590 L52 665 Q52 700 77 724.5 Q102 749 137 749 L279 749 Q297 749 312.5 742.5 Q328 736 339.5 724.5 Q351 713 358 697.5 Q365 682 365 665 L365 514 Q365 477 315 435 Q339 417 352 397 Q365 377 365 357 L365 84 Q365 67 358 51.5 Q351 36 339.5 24.5 Q328 13 312.5 6.5 Q297 0 279 0 L137 0 Q102 0 77 24.5 Q52 49 52 84 L52 285 L152 285 L152 117 Q152 103 162 91.5 Q172 80 186 80 L230 80 L230 80 Z " />
<glyph glyph-name="four" unicode="4" horiz-adv-x="442" d="M53 328 L211 749 L363 749 L363 318 L445 318 L445 219 L363 219 L363 0 L264 0 L264 219 L53 219 L53 328 Z M150 318 L264 318 L264 521 L284 677 Q282 677 279 677.5 Q276 678 272 678 L238 548 L150 318 Z " />
<glyph glyph-name="five" unicode="5" horiz-adv-x="389" d="M152 452 Q163 466 175 472.5 Q187 479 196 479 L279 479 Q314 479 339.5 455 Q365 431 365 395 L365 84 Q365 67 358 51.5 Q351 36 339.5 24.5 Q328 13 312.5 6.5 Q297 0 279 0 L137 0 Q102 0 77 24.5 Q52 49 52 84 L52 192 L152 192 L152 117 Q152 104 162.5 92 Q173 80 186 80 L230 80 Q244 80 255 91.5 Q266 103 266 117 L266 363 Q266 398 230 398 L191 398 Q157 398 151 365 L52 365 L52 749 L365 749 L365 670 L186 670 Q172 670 162 658 Q152 646 152 632 L152 452 Z " />
<glyph glyph-name="six" unicode="6" horiz-adv-x="389" d="M230 80 Q244 80 255 91.5 Q266 103 266 117 L266 363 Q266 375 254.5 386.5 Q243 398 230 398 L191 398 Q177 398 164.5 390.5 Q152 383 152 364 L152 117 Q152 104 162.5 92 Q173 80 186 80 L230 80 Z M279 479 Q314 479 339.5 455 Q365 431 365 395 L365 84 Q365 67 358 51.5 Q351 36 339.5 24.5 Q328 13 312.5 6.5 Q297 0 279 0 L137 0 Q102 0 77 24.5 Q52 49 52 84 L52 665 Q52 700 77 724.5 Q102 749 137 749 L279 749 Q297 749 312.5 742.5 Q328 736 339.5 724.5 Q351 713 358 697.5 Q365 682 365 665 L365 584 L266 584 L266 633 Q266 646 256.5 658 Q247 670 223 670 L186 670 Q172 670 161.5 658 Q151 646 151 632 L151 452 Q162 466 174 472.5 Q186 479 195 479 L279 479 Z " />
<glyph glyph-name="seven" unicode="7" horiz-adv-x="390" d="M52 749 L365 749 L365 650 Q365 643 363 637 Q361 631 359 623 L149 0 L50 0 L269 650 L52 650 L52 749 Z " />
<glyph glyph-name="eight" unicode="8" horiz-adv-x="389" d="M137 0 Q102 0 77 24.5 Q52 49 52 84 L52 342 Q52 362 65.5 381.5 Q79 401 102 420 Q82 439 67 460.5 Q52 482 52 499 L52 665 Q52 700 77 724.5 Q102 749 137 749 L279 749 Q297 749 312.5 742.5 Q328 736 339.5 724.5 Q351 713 358 697.5 Q365 682 365 665 L365 499 Q365 462 315 420 Q339 402 352 382 Q365 362 365 342 L365 84 Q365 67 358 51.5 Q351 36 339.5 24.5 Q328 13 312.5 6.5 Q297 0 279 0 L137 0 Z M188 380 Q174 380 163 368.5 Q152 357 152 342 L152 117 Q152 103 162 91.5 Q172 80 186 80 L230 80 Q244 80 255 91.5 Q266 103 266 117 L266 342 Q266 357 254.5 368.5 Q243 380 228 380 L188 380 Z M182 668 Q167 668 159.5 656 Q152 644 152 632 L152 496 Q152 482 163 471 Q174 460 188 460 L228 460 Q243 460 254.5 471 Q266 482 266 496 L266 632 Q266 644 257.5 656 Q249 668 234 668 L182 668 Z " />
<glyph glyph-name="nine" unicode="9" horiz-adv-x="409" d="M186 668 Q172 668 162 656.5 Q152 645 152 631 L152 385 Q152 373 162.5 361.5 Q173 350 186 350 L226 350 Q240 350 253 357.5 Q266 365 266 383 L266 632 Q266 644 254.5 656 Q243 668 230 668 L186 668 Z M137 269 Q102 269 77 293 Q52 317 52 353 L52 664 Q52 699 77 723.5 Q102 748 137 748 L279 748 Q297 748 312.5 741.5 Q328 735 339.5 723.5 Q351 712 358 696.5 Q365 681 365 664 L365 83 Q365 47 339.5 23 Q314 -1 279 -1 L137 -1 Q102 -1 77 23 Q52 47 52 83 L52 164 L152 164 L152 115 Q152 102 160.5 90 Q169 78 195 78 L230 78 Q244 78 255 90 Q266 102 266 117 L266 296 Q255 282 242.5 275.5 Q230 269 222 269 L137 269 Z " />
<glyph glyph-name="colon" unicode="&#x3a;" horiz-adv-x="203" d="M54 99 L153 99 L153 0 L54 0 L54 99 Z M54 524 L153 524 L153 425 L54 425 L54 524 Z " />
<glyph glyph-name="semicolon" unicode="&#x3b;" horiz-adv-x="203" d="M54 524 L153 524 L153 425 L54 425 L54 524 Z M54 0 L54 99 L153 99 L153 8 Q153 -28 151.5 -54.5 Q150 -81 140.5 -97.5 Q131 -114 111 -122 Q91 -130 54 -130 L54 -83 Q74 -83 85 -78.5 Q96 -74 101.5 -64.5 Q107 -55 108 -39 Q109 -23 109 0 L54 0 Z " />
<glyph glyph-name="less" unicode="&#x3c;" horiz-adv-x="398" d="M386 220 L73 321 L73 428 L386 526 L386 430 L244 386 L174 378 L174 370 L244 363 L386 317 L386 220 Z " />
<glyph glyph-name="equal" unicode="&#x3d;" horiz-adv-x="398" d="M52 228 L365 228 L365 129 L52 129 L52 228 Z M52 456 L365 456 L365 357 L52 357 L52 456 Z " />
<glyph glyph-name="greater" unicode="&#x3e;" horiz-adv-x="398" d="M52 527 L365 426 L365 319 L52 221 L52 317 L194 361 L264 369 L264 377 L194 384 L52 430 L52 527 Z " />
<glyph glyph-name="question" unicode="&#x3f;" horiz-adv-x="409" d="M267 58 Q267 32 250.5 15.5 Q234 -1 208 -1 Q184 -1 166.5 15.5 Q149 32 149 58 Q149 84 166.5 100.5 Q184 117 208 117 Q234 117 250.5 100.5 Q267 84 267 58 Z M263 332 Q257 315 257 301 L257 211 L158 211 L158 293 Q158 298 159 307 Q160 316 163 323 Q197 402 217.5 449 Q238 496 249.5 523 Q261 550 264.5 562.5 Q268 575 268 584 L268 632 Q268 646 257 658 Q246 670 232 670 L197 670 Q171 670 162.5 658 Q154 646 154 633 L154 555 L54 555 L54 665 Q54 700 79 724.5 Q104 749 139 749 L280 749 Q298 749 313.5 742.5 Q329 736 340.5 724.5 Q352 713 359 697.5 Q366 682 366 665 L366 585 Q366 578 361 565.5 Q356 553 344 526 Q332 499 312.5 452.5 Q293 406 263 332 Z " />
<glyph glyph-name="at" unicode="&#x40;" horiz-adv-x="835" d="M438 638 Q447 638 459 632.5 Q471 627 482 611 Q484 627 493 632.5 Q502 638 514 638 L584 638 L584 170 Q584 154 591.5 140 Q599 126 611.5 115.5 Q624 105 640 99 Q656 93 672 93 Q690 93 706 100 Q722 107 734.5 119 Q747 131 754 147.5 Q761 164 761 182 L761 532 Q761 602 734.5 663.5 Q708 725 662.5 770.5 Q617 816 555.5 842.5 Q494 869 425 869 Q355 869 294 842 Q233 815 188 769 Q143 723 117.5 661 Q92 599 92 529 L92 186 Q92 117 118.5 55.5 Q145 -6 191 -52 Q237 -98 298.5 -125 Q360 -152 430 -152 Q487 -152 540.5 -131.5 Q594 -111 639 -77 L670 -100 Q618 -141 555 -165 Q492 -189 427 -189 Q349 -189 280.5 -159.5 Q212 -130 161 -79 Q110 -28 80.5 41 Q51 110 51 189 L51 529 Q51 607 80.5 676 Q110 745 161 796 Q212 847 280.5 876.5 Q349 906 427 906 Q504 906 572.5 876.5 Q641 847 692.5 796.5 Q744 746 774 677.5 Q804 609 804 531 L804 186 Q804 156 792.5 129.5 Q781 103 761.5 84 Q742 65 716 54 Q690 43 661 43 Q628 43 601.5 52 Q575 61 555.5 76 Q536 91 522.5 110 Q509 129 503 149 Q486 120 468 109 Q450 98 427 98 L353 98 Q317 98 291.5 122.5 Q266 147 266 184 L266 552 Q266 588 291.5 613 Q317 638 353 638 L438 638 Z M368 217 Q368 204 378.5 192.5 Q389 181 403 181 L443 181 Q458 181 470 189 Q482 197 482 218 L482 523 Q482 546 470 550 Q458 554 443 554 L398 554 Q383 554 375.5 543 Q368 532 368 518 L368 217 Z " />
<glyph glyph-name="A" unicode="A" horiz-adv-x="432" d="M322 0 L290 156 L136 156 L105 0 L-2 0 L166 749 L262 749 L430 0 L322 0 Z M193 422 L154 237 L273 237 L235 422 L223 620 L206 620 L193 422 Z " />
<glyph glyph-name="B" unicode="B" horiz-adv-x="423" d="M60 749 L287 749 Q305 749 320.5 742.5 Q336 736 347.5 724.5 Q359 713 366 697.5 Q373 682 373 665 L373 498 Q373 461 322 419 Q373 382 373 341 L373 84 Q373 67 366 51.5 Q359 36 347.5 24.5 Q336 13 320.5 6.5 Q305 0 287 0 L60 0 L60 749 Z M159 80 L238 80 Q252 80 262.5 91.5 Q273 103 273 117 L273 356 Q273 371 262 382.5 Q251 394 236 394 L159 394 L159 80 Z M236 474 Q251 474 262 485 Q273 496 273 510 L273 632 Q273 644 265 656 Q257 668 242 668 L159 668 L159 474 L236 474 Z " />
<glyph glyph-name="C" unicode="C" horiz-adv-x="407" d="M362 295 L362 84 Q362 49 338 24.5 Q314 0 278 0 L136 0 Q101 0 76 24.5 Q51 49 51 84 L51 665 Q51 700 76 724.5 Q101 749 136 749 L278 749 Q314 749 338 724.5 Q362 700 362 665 L362 438 L264 438 L264 632 Q264 644 256 656 Q248 668 233 668 L181 668 Q166 668 158.5 656 Q151 644 151 632 L151 117 Q151 103 159.5 92.5 Q168 82 180 80 L229 80 Q243 80 253.5 91.5 Q264 103 264 117 L264 295 L362 295 Z " />
<glyph glyph-name="D" unicode="D" horiz-adv-x="427" d="M60 749 L286 749 Q304 749 319.5 742.5 Q335 736 346.5 724.5 Q358 713 365 697.5 Q372 682 372 665 L372 84 Q372 67 365 51.5 Q358 36 346.5 24.5 Q335 13 319.5 6.5 Q304 0 286 0 L60 0 L60 749 Z M273 633 Q273 646 264.5 658 Q256 670 241 670 L159 670 L159 80 L237 80 Q251 80 262 91.5 Q273 103 273 117 L273 633 Z " />
<glyph glyph-name="E" unicode="E" horiz-adv-x="424" d="M61 749 L374 749 L374 650 L160 650 L160 416 L342 416 L342 317 L160 317 L160 99 L374 99 L374 0 L61 0 L61 749 Z " />
<glyph glyph-name="F" unicode="F" horiz-adv-x="414" d="M61 749 L374 749 L374 650 L160 650 L160 416 L342 416 L342 317 L160 317 L160 0 L61 0 L61 749 Z " />
<glyph glyph-name="G" unicode="G" horiz-adv-x="409" d="M136 0 Q101 0 76 24.5 Q51 49 51 84 L51 665 Q51 700 76 724.5 Q101 749 136 749 L278 749 Q314 749 338 724.5 Q362 700 362 665 L362 479 L264 479 L264 632 Q264 644 256 656 Q248 668 233 668 L181 668 Q166 668 158.5 656 Q151 644 151 632 L151 117 Q151 103 159.5 92.5 Q168 82 180 80 L225 80 Q239 80 251.5 89 Q264 98 264 117 L264 237 L224 237 L224 336 L362 336 L362 0 L272 0 L251 28 Q241 16 230 8 Q219 0 208 0 L136 0 Z " />
<glyph glyph-name="H" unicode="H" horiz-adv-x="432" d="M273 317 L159 317 L159 0 L60 0 L60 749 L159 749 L159 416 L273 416 L273 749 L372 749 L372 0 L273 0 L273 317 Z " />
<glyph glyph-name="I" unicode="I" horiz-adv-x="221" d="M60 749 L161 749 L161 0 L60 0 L60 749 Z " />
<glyph glyph-name="J" unicode="J" horiz-adv-x="362" d="M100 285 L100 117 Q100 103 110 91.5 Q120 80 134 80 L183 80 Q195 82 203.5 92.5 Q212 103 212 117 L212 749 L312 749 L312 84 Q312 67 305.5 51.5 Q299 36 287.5 24.5 Q276 13 260.5 6.5 Q245 0 227 0 L85 0 Q67 0 51.5 6.5 Q36 13 24.5 24.5 Q13 36 6.5 51.5 Q0 67 0 84 L0 285 L100 285 Z " />
<glyph glyph-name="K" unicode="K" horiz-adv-x="400" d="M159 550 L129 413 L144 413 Q178 496 214 581 Q250 666 284 749 L389 749 L229 374 L390 0 L285 0 L144 335 L129 335 L159 188 L159 0 L60 0 L60 749 L159 749 L159 550 Z " />
<glyph glyph-name="L" unicode="L" horiz-adv-x="399" d="M159 99 L373 99 L373 0 L60 0 L60 749 L159 749 L159 99 Z " />
<glyph glyph-name="M" unicode="M" horiz-adv-x="550" d="M300 0 L255 0 L140 472 L128 472 L158 285 L158 0 L60 0 L60 749 L169 749 L253 419 L272 271 L284 271 L302 419 L387 749 L496 749 L496 0 L397 0 L397 285 Q405 333 412.5 378.5 Q420 424 428 472 L416 472 L300 0 Z " />
<glyph glyph-name="N" unicode="N" horiz-adv-x="425" d="M373 0 L265 0 L142 477 L129 477 Q137 426 144 378.5 Q151 331 159 280 L159 0 L60 0 L60 749 L171 749 L289 276 L304 276 Q296 325 288.5 375 Q281 425 274 474 L274 749 L373 749 L373 0 Z " />
<glyph glyph-name="O" unicode="O" horiz-adv-x="412" d="M135 0 Q100 0 75 24.5 Q50 49 50 84 L50 665 Q50 700 75 724.5 Q100 749 135 749 L277 749 Q313 749 337 724.5 Q361 700 361 665 L361 84 Q361 49 337 24.5 Q313 0 277 0 L135 0 Z M184 670 Q170 670 160 658 Q150 646 150 632 L150 117 Q150 104 160.5 92 Q171 80 184 80 L228 80 Q242 80 252.5 91.5 Q263 103 263 117 L263 633 Q263 646 254 658 Q245 670 221 670 L184 670 Z " />
<glyph glyph-name="P" unicode="P" horiz-adv-x="411" d="M60 749 L285 749 Q303 749 318.5 742.5 Q334 736 345.5 724.5 Q357 713 364 697.5 Q371 682 371 665 L371 401 Q371 365 345.5 341 Q320 317 285 317 L159 317 L159 0 L60 0 L60 749 Z M159 670 L159 398 L236 398 Q250 398 261 409 Q272 420 272 434 L272 633 Q272 646 263.5 658 Q255 670 240 670 L159 670 Z " />
<glyph glyph-name="Q" unicode="Q" horiz-adv-x="406" d="M185 670 Q171 670 161 658 Q151 646 151 632 L151 117 Q151 104 161.5 92 Q172 80 185 80 L229 80 Q243 80 253.5 91.5 Q264 103 264 117 L264 633 Q264 646 255 658 Q246 670 222 670 L185 670 Z M306 -152 L243 -152 Q208 -152 182.5 -128.5 Q157 -105 157 -69 L157 0 L136 0 Q101 0 76 24.5 Q51 49 51 84 L51 665 Q51 700 76 724.5 Q101 749 136 749 L278 749 Q314 749 338 724.5 Q362 700 362 665 L362 84 Q362 49 338 24.5 Q314 0 278 0 L257 0 L257 -36 Q257 -48 267.5 -59.5 Q278 -71 292 -71 L306 -71 L306 -152 Z " />
<glyph glyph-name="R" unicode="R" horiz-adv-x="418" d="M373 401 Q373 363 341.5 340 Q310 317 254 315 L391 0 L286 0 L145 335 L130 335 L160 188 L160 0 L61 0 L61 749 L286 749 Q304 749 319.5 742.5 Q335 736 347 724.5 Q359 713 366 697.5 Q373 682 373 665 L373 401 Z M160 670 L160 398 L237 398 Q251 398 262 409 Q273 420 273 434 L273 633 Q273 646 264.5 658 Q256 670 241 670 L160 670 Z " />
<glyph glyph-name="S" unicode="S" horiz-adv-x="403" d="M145 542 Q145 519 161 503 Q177 487 200.5 474 Q224 461 251.5 449 Q279 437 302.5 421 Q326 405 342 384 Q358 363 358 333 L358 84 Q358 67 351 51.5 Q344 36 332.5 24.5 Q321 13 305.5 6.5 Q290 0 272 0 L130 0 Q95 0 70 24.5 Q45 49 45 84 L45 211 L145 211 L145 117 Q145 104 155.5 92 Q166 80 179 80 L223 80 Q237 80 248 91.5 Q259 103 259 117 L259 290 Q259 318 243 337 Q227 356 203.5 370.5 Q180 385 152.5 397 Q125 409 101.5 423 Q78 437 62 455 Q46 473 46 499 L46 665 Q46 682 53 697.5 Q60 713 71.5 724.5 Q83 736 98.5 742.5 Q114 749 132 749 L272 749 Q290 749 305.5 742.5 Q321 736 332.5 724.5 Q344 713 351 697.5 Q358 682 358 665 L358 563 L259 563 L259 633 Q259 646 249.5 658 Q240 670 215 670 L179 670 Q165 670 155 658 Q145 646 145 632 L145 542 Z " />
<glyph glyph-name="T" unicode="T" horiz-adv-x="382" d="M41 749 L352 749 L352 650 L246 650 L246 0 L147 0 L147 650 L41 650 L41 749 Z " />
<glyph glyph-name="U" unicode="U" horiz-adv-x="418" d="M157 749 L157 117 Q157 104 167.5 92 Q178 80 191 80 L235 80 Q249 80 260 91.5 Q271 103 271 117 L271 749 L370 749 L370 84 Q370 67 363 51.5 Q356 36 344.5 24.5 Q333 13 317.5 6.5 Q302 0 284 0 L143 0 Q125 0 109.5 6.5 Q94 13 82.5 24.5 Q71 36 64 51.5 Q57 67 57 84 L57 749 L157 749 Z " />
<glyph glyph-name="V" unicode="V" horiz-adv-x="432" d="M325 749 L432 749 L265 0 L169 0 L0 749 L107 749 L195 338 L208 141 L225 141 L237 338 L325 749 Z " />
<glyph glyph-name="W" unicode="W" horiz-adv-x="744" d="M503 338 L503 141 L532 141 L545 338 L632 749 L740 749 L572 0 L478 0 L389 357 L376 554 L360 554 L347 357 L259 0 L164 0 L-4 749 L104 749 L191 338 L204 141 L220 141 L233 338 L321 749 L415 749 L503 338 Z " />
<glyph glyph-name="X" unicode="X" horiz-adv-x="422" d="M385 0 L285 0 L228 236 L220 379 L203 379 L194 236 L137 0 L37 0 L132 414 L37 749 L137 749 L194 569 L203 461 L220 461 L228 569 L285 749 L385 749 L290 414 L385 0 Z " />
<glyph glyph-name="Y" unicode="Y" horiz-adv-x="387" d="M185 391 L201 391 L209 505 L267 749 L366 749 L243 233 L243 0 L143 0 L143 233 L20 749 L119 749 L177 505 L185 391 Z " />
<glyph glyph-name="Z" unicode="Z" horiz-adv-x="392" d="M40 749 L352 749 L352 650 Q352 643 350.5 636.5 Q349 630 347 625 L135 99 L352 99 L352 0 L41 0 L41 97 Q41 115 45 124 L258 650 L40 650 L40 749 Z " />
<glyph glyph-name="bracketleft" unicode="&#x5b;" horiz-adv-x="260" d="M215 -114 L53 -114 L53 775 L216 775 L216 695 L154 695 L154 -32 L215 -32 L215 -114 Z " />
<glyph glyph-name="backslash" unicode="&#x5c;" horiz-adv-x="514" d="M101 775 L525 -54 L430 -54 L2 775 L101 775 Z " />
<glyph glyph-name="bracketright" unicode="&#x5d;" horiz-adv-x="261" d="M116 -32 L116 695 L53 695 L53 775 L216 775 L216 -114 L55 -114 L55 -32 L116 -32 Z " />
<glyph glyph-name="underscore" unicode="&#x5f;" horiz-adv-x="409" d="M53 17 L362 17 L362 -80 L53 -80 L53 17 Z " />
<glyph glyph-name="grave" unicode="&#x60;" horiz-adv-x="203" d="M149 675 L63 675 L12 774 L107 774 L149 675 Z " />
<glyph glyph-name="a" unicode="a" horiz-adv-x="416" d="M152 118 Q152 106 162.5 94.5 Q173 83 188 83 L227 83 Q241 83 253.5 90.5 Q266 98 266 119 L266 425 Q266 448 253.5 452 Q241 456 227 456 L182 456 Q167 456 159.5 444.5 Q152 433 152 421 L152 118 Z M227 540 Q236 540 248 534.5 Q260 529 271 513 Q273 528 282 534 Q291 540 302 540 L368 540 L368 0 L289 0 L267 28 Q258 16 247 8 Q236 0 225 0 L137 0 Q101 0 76 24.5 Q51 49 51 85 L51 455 Q51 490 76 515 Q101 540 137 540 L227 540 Z " />
<glyph glyph-name="b" unicode="b" horiz-adv-x="416" d="M201 0 Q179 0 160 28 L138 0 L60 0 L60 774 L161 774 L161 526 Q173 535 189 537.5 Q205 540 216 540 L292 540 Q310 540 325.5 533.5 Q341 527 352.5 515.5 Q364 504 371 488.5 Q378 473 378 455 L378 85 Q378 49 352.5 24.5 Q327 0 292 0 L201 0 Z M275 421 Q275 433 267.5 444.5 Q260 456 245 456 L200 456 Q185 456 173 452 Q161 448 161 425 L161 118 Q161 96 173 89.5 Q185 83 200 83 L243 83 Q257 83 266 94.5 Q275 106 275 118 L275 421 Z " />
<glyph glyph-name="c" unicode="c" horiz-adv-x="399" d="M367 145 L367 85 Q367 49 341.5 24.5 Q316 0 280 0 L136 0 Q101 0 75.5 24.5 Q50 49 50 85 L50 455 Q50 473 57 488.5 Q64 504 75.5 515.5 Q87 527 102.5 533.5 Q118 540 136 540 L280 540 Q298 540 314 533.5 Q330 527 341.5 515.5 Q353 504 360 488.5 Q367 473 367 455 L367 392 L265 392 L265 421 Q265 433 258 444.5 Q251 456 234 456 L181 456 Q166 456 158.5 444.5 Q151 433 151 421 L151 119 Q151 105 160 95 Q169 85 181 83 L230 83 Q245 83 255 94 Q265 105 265 119 L265 145 L367 145 Z " />
<glyph glyph-name="d" unicode="d" horiz-adv-x="417" d="M369 775 L369 0 L292 0 L271 28 Q261 16 250.5 8 Q240 0 228 0 L138 0 Q102 0 77 24.5 Q52 49 52 85 L52 455 Q52 490 77 515 Q102 540 138 540 L216 540 Q224 540 240 533 Q256 526 268 513 L268 775 L369 775 Z M154 118 Q154 106 164 94.5 Q174 83 188 83 L229 83 Q243 83 255.5 89.5 Q268 96 268 118 L268 425 Q268 448 255.5 452 Q243 456 229 456 L185 456 Q169 456 161.5 444.5 Q154 433 154 421 L154 118 Z " />
<glyph glyph-name="e" unicode="e" horiz-adv-x="403" d="M368 145 L368 85 Q368 49 342.5 24.5 Q317 0 281 0 L137 0 Q101 0 76 24.5 Q51 49 51 85 L51 455 Q51 490 76 515 Q101 540 137 540 L281 540 Q299 540 315 533.5 Q331 527 342.5 515.5 Q354 504 361 488.5 Q368 473 368 455 L368 253 L152 253 L152 119 Q152 105 161 95 Q170 85 182 83 L231 83 Q246 83 256 94 Q266 105 266 119 L266 145 L368 145 Z M152 332 L266 332 L266 421 Q266 433 259 444.5 Q252 456 235 456 L182 456 Q167 456 159.5 444.5 Q152 433 152 421 L152 332 Z " />
<glyph glyph-name="f" unicode="f" horiz-adv-x="274" d="M59 676 Q59 721 82 747.5 Q105 774 147 774 L275 774 L275 674 L159 674 L159 540 L243 540 L243 439 L159 439 L159 0 L59 0 L59 676 Z " />
<glyph glyph-name="g" unicode="g" horiz-adv-x="409" d="M152 118 Q152 106 163 94.5 Q174 83 188 83 L227 83 Q241 83 253.5 90.5 Q266 98 266 119 L266 426 Q266 449 253.5 453 Q241 457 227 457 L182 457 Q167 457 159.5 445.5 Q152 434 152 422 L152 118 Z M137 0 Q101 0 76 24.5 Q51 49 51 85 L51 455 Q51 490 76 515 Q101 540 137 540 L246 540 Q254 540 260 536 Q266 532 271 528 Q275 537 281 538.5 Q287 540 292 540 L368 540 L368 -146 Q368 -164 361 -179.5 Q354 -195 342.5 -206.5 Q331 -218 315 -224.5 Q299 -231 281 -231 L137 -231 Q101 -231 76 -206 Q51 -181 51 -146 L51 -76 L152 -76 L152 -112 Q152 -127 162.5 -138 Q173 -149 188 -149 L236 -149 Q249 -147 257.5 -136.5 Q266 -126 266 -112 L266 26 Q255 12 243 6 Q231 0 223 0 L137 0 Z " />
<glyph glyph-name="h" unicode="h" horiz-adv-x="413" d="M60 0 L60 774 L161 774 L161 529 Q167 534 177 537.5 Q187 541 198 541 L292 541 Q310 541 325.5 534.5 Q341 528 352.5 516.5 Q364 505 371 489.5 Q378 474 378 456 L378 0 L275 0 L275 422 Q275 434 267.5 445.5 Q260 457 245 457 L200 457 Q185 457 173 453 Q161 449 161 426 L161 0 L60 0 Z " />
<glyph glyph-name="i" unicode="i" horiz-adv-x="215" d="M57 540 L158 540 L158 0 L57 0 L57 540 Z M48 715 Q48 740 64.5 757.5 Q81 775 107 775 Q133 775 150 757.5 Q167 740 167 715 Q167 689 150 672.5 Q133 656 107 656 Q81 656 64.5 672.5 Q48 689 48 715 Z " />
<glyph glyph-name="j" unicode="j" horiz-adv-x="216" d="M22 -157 Q38 -155 50 -144 Q62 -133 62 -119 L62 541 L162 541 L162 -153 Q162 -170 155 -185.5 Q148 -201 136.5 -212.5 Q125 -224 109.5 -231 Q94 -238 76 -238 L19 -238 L22 -157 Z M52 715 Q52 740 69.5 757.5 Q87 775 112 775 Q137 775 154.5 757.5 Q172 740 172 715 Q172 689 154.5 672.5 Q137 656 112 656 Q87 656 69.5 672.5 Q52 689 52 715 Z " />
<glyph glyph-name="k" unicode="k" horiz-adv-x="381" d="M158 774 L158 483 L143 347 L158 347 L266 540 L373 540 L233 312 Q248 274 266 235 Q284 196 303.5 156 Q323 116 341.5 76.5 Q360 37 375 0 L267 0 L154 269 L143 269 L158 123 L158 0 L60 0 L60 774 L158 774 Z " />
<glyph glyph-name="l" unicode="l" horiz-adv-x="221" d="M63 774 L164 774 L164 0 L63 0 L63 774 Z " />
<glyph glyph-name="m" unicode="m" horiz-adv-x="621" d="M279 540 Q298 540 319 532.5 Q340 525 352 505 Q362 527 380 533.5 Q398 540 421 540 L501 540 Q519 540 535 533.5 Q551 527 563 515.5 Q575 504 581.5 488.5 Q588 473 588 455 L588 0 L486 0 L486 421 Q486 433 479 444.5 Q472 456 456 456 L412 456 Q396 456 384 450 Q372 444 372 421 L372 0 L271 0 L271 421 Q271 433 263 444.5 Q255 456 240 456 L195 456 Q180 456 168 449.5 Q156 443 156 421 L156 0 L54 0 L54 540 L125 540 Q137 540 145 534 Q153 528 155 513 Q166 529 178 534.5 Q190 540 200 540 L279 540 Z " />
<glyph glyph-name="n" unicode="n" horiz-adv-x="417" d="M288 540 Q306 540 322 533.5 Q338 527 349.5 515.5 Q361 504 368 488.5 Q375 473 375 455 L375 0 L273 0 L273 421 Q273 433 265.5 444.5 Q258 456 243 456 L198 456 Q183 456 171.5 449.5 Q160 443 160 421 L160 0 L58 0 L58 540 L128 540 Q140 540 148.5 534 Q157 528 159 513 Q170 529 182 534.5 Q194 540 203 540 L288 540 Z " />
<glyph glyph-name="o" unicode="o" horiz-adv-x="407" d="M128 0 Q93 0 67.5 24.5 Q42 49 42 85 L42 455 Q42 473 49 488.5 Q56 504 67.5 515.5 Q79 527 94.5 533.5 Q110 540 128 540 L272 540 Q290 540 306 533.5 Q322 527 334 515.5 Q346 504 352.5 488.5 Q359 473 359 455 L359 85 Q359 49 334 24.5 Q309 0 272 0 L128 0 Z M179 458 Q164 458 153.5 446.5 Q143 435 143 421 L143 118 Q143 106 154 94.5 Q165 83 179 83 L222 83 Q237 83 247 94 Q257 105 257 119 L257 422 Q257 435 249 446.5 Q241 458 215 458 L179 458 Z " />
<glyph glyph-name="p" unicode="p" horiz-adv-x="409" d="M184 0 Q167 0 155 17 L155 -231 L54 -231 L54 540 L119 540 Q133 540 139 535 Q145 530 150 521 Q158 529 168.5 534.5 Q179 540 187 540 L284 540 Q302 540 318 533.5 Q334 527 345.5 515.5 Q357 504 364 488.5 Q371 473 371 455 L371 85 Q371 49 345.5 24.5 Q320 0 284 0 L184 0 Z M269 421 Q269 433 261.5 444.5 Q254 456 239 456 L194 456 Q180 456 167.5 452 Q155 448 155 425 L155 119 Q155 98 167.5 90.5 Q180 83 194 83 L234 83 Q248 83 258.5 94.5 Q269 106 269 118 L269 421 Z " />
<glyph glyph-name="q" unicode="q" horiz-adv-x="409" d="M139 0 Q102 0 77 24.5 Q52 49 52 85 L52 455 Q52 473 58.5 488.5 Q65 504 77 515.5 Q89 527 105 533.5 Q121 540 139 540 L236 540 Q244 540 254.5 534.5 Q265 529 273 521 Q278 530 284 535 Q290 540 304 540 L369 540 L369 -230 L268 -230 L268 17 Q262 9 254.5 4.5 Q247 0 239 0 L139 0 Z M154 118 Q154 106 164.5 94.5 Q175 83 189 83 L228 83 Q243 83 255.5 90.5 Q268 98 268 119 L268 425 Q268 448 255.5 452 Q243 456 228 456 L184 456 Q168 456 161 444.5 Q154 433 154 421 L154 118 Z " />
<glyph glyph-name="r" unicode="r" horiz-adv-x="366" d="M118 540 Q128 540 137 533 Q146 526 150 507 Q166 527 186 534 Q206 541 216 541 L282 541 Q300 541 316 534.5 Q332 528 343.5 516.5 Q355 505 362 489.5 Q369 474 369 456 L369 403 L268 403 L268 422 Q268 439 257.5 448.5 Q247 458 233 458 L192 458 Q175 458 164 448 Q153 438 153 422 L153 0 L52 0 L52 540 L118 540 L118 540 Z " />
<glyph glyph-name="s" unicode="s" horiz-adv-x="399" d="M148 401 Q148 372 164 354.5 Q180 337 204 324 Q228 311 256 299 Q284 287 308 269.5 Q332 252 348 224.5 Q364 197 364 154 L364 85 Q364 67 357 51.5 Q350 36 338 24.5 Q326 13 310.5 6.5 Q295 0 277 0 L133 0 Q98 0 72.5 24.5 Q47 49 47 85 L47 152 L148 152 L148 118 Q148 106 158.5 94.5 Q169 83 183 83 L227 83 Q242 83 252 94 Q262 105 262 119 L262 143 Q262 169 246 186 Q230 203 206.5 216.5 Q183 230 155 242 Q127 254 103.5 268 Q80 282 64 301 Q48 320 48 349 L48 455 Q48 473 55 488.5 Q62 504 73.5 515.5 Q85 527 100.5 533.5 Q116 540 134 540 L277 540 Q295 540 310.5 531.5 Q326 523 338 509.5 Q350 496 357 479 Q364 462 364 444 L364 400 L262 400 L262 422 Q262 435 253.5 446.5 Q245 458 220 458 L183 458 Q169 458 158.5 446.5 Q148 435 148 421 L148 401 Z " />
<glyph glyph-name="t" unicode="t" horiz-adv-x="280" d="M84 437 L28 437 L28 540 L84 540 L84 627 L184 627 L184 540 L245 540 L245 439 L184 439 L184 116 Q184 105 193 94 Q202 83 219 83 L245 83 L245 0 L171 0 Q130 0 107 26 Q84 52 84 97 L84 437 Z " />
<glyph glyph-name="u" unicode="u" horiz-adv-x="410" d="M138 0 Q101 0 76 24.5 Q51 49 51 85 L51 540 L153 540 L153 119 Q153 107 160 95.5 Q167 84 183 84 L227 84 Q243 84 254.5 90.5 Q266 97 266 119 L266 540 L368 540 L368 0 L297 0 Q286 0 277 6 Q268 12 266 27 Q255 11 243 5.5 Q231 0 223 0 L138 0 Z " />
<glyph glyph-name="v" unicode="v" horiz-adv-x="398" d="M208 103 Q210 132 212 159.5 Q214 187 216 216 L274 541 L378 541 L248 0 L151 0 L20 541 L125 541 L183 216 L191 103 L208 103 Z " />
<glyph glyph-name="w" unicode="w" horiz-adv-x="634" d="M439 103 Q441 132 443 159.5 Q445 187 447 216 L505 541 L615 541 L484 0 L378 0 L324 223 L308 223 L259 0 L150 0 L20 541 L130 541 L188 216 L196 103 L212 103 Q214 132 216 159.5 Q218 187 220 216 L276 386 L236 541 L356 541 L414 216 L422 103 L439 103 Z " />
<glyph glyph-name="x" unicode="x" horiz-adv-x="390" d="M185 321 L204 321 L207 396 L264 540 L362 540 L269 287 L363 0 L262 0 L207 168 L203 244 L186 244 L182 168 L127 0 L26 0 L120 287 L27 540 L125 540 L182 396 L185 321 Z " />
<glyph glyph-name="y" unicode="y" horiz-adv-x="412" d="M371 540 L371 -145 Q371 -163 364 -178.5 Q357 -194 345.5 -205.5 Q334 -217 318 -224 Q302 -231 284 -231 L140 -231 Q122 -231 106.5 -224 Q91 -217 79 -205.5 Q67 -194 60.5 -178.5 Q54 -163 54 -145 L54 -73 L155 -73 L155 -111 Q155 -127 165.5 -137.5 Q176 -148 191 -148 L239 -148 Q252 -146 260.5 -136 Q269 -126 269 -111 L269 26 Q258 12 246 6 Q234 0 226 0 L140 0 Q104 0 79 24.5 Q54 49 54 85 L54 540 L155 540 L155 119 Q155 107 162.5 95.5 Q170 84 186 84 L230 84 Q244 84 256.5 88 Q269 92 269 115 L269 540 L371 540 Z " />
<glyph glyph-name="z" unicode="z" horiz-adv-x="386" d="M52 76 Q52 95 56 107.5 Q60 120 65 125 Q106 205 146 281.5 Q186 358 227 439 L52 439 L52 540 L344 540 L344 457 Q344 445 339.5 433.5 Q335 422 332 416 L167 100 L354 100 L354 -1 L52 -1 L52 76 Z " />
<glyph glyph-name="braceleft" unicode="&#x7b;" horiz-adv-x="264" d="M250 -114 L175 -114 Q157 -114 141.5 -107.5 Q126 -101 114 -89.5 Q102 -78 95 -62.5 Q88 -47 88 -29 L88 269 Q86 283 76 293 Q66 303 52 303 L29 303 L29 383 L53 383 Q67 383 77.5 393.5 Q88 404 88 420 L88 691 Q88 709 95 724.5 Q102 740 114 751 Q126 762 141.5 768.5 Q157 775 175 775 L251 775 L251 695 L223 695 Q209 695 198.5 684 Q188 673 188 657 L188 420 Q188 402 174 380.5 Q160 359 137 342 Q160 322 174 301 Q188 280 188 263 L188 3 Q188 -11 198.5 -21.5 Q209 -32 223 -32 L250 -32 L250 -114 Z " />
<glyph glyph-name="bar" unicode="&#x7c;" horiz-adv-x="216" d="M54 775 L153 775 L153 -241 L54 -241 L54 775 Z " />
<glyph glyph-name="braceright" unicode="&#x7d;" horiz-adv-x="249" d="M45 -33 Q59 -33 69 -22.5 Q79 -12 79 2 L79 262 Q79 279 93.5 300 Q108 321 130 341 Q108 358 93.5 379.5 Q79 401 79 419 L79 656 Q79 672 69 683 Q59 694 45 694 L17 694 L17 774 L93 774 Q128 774 153.5 750 Q179 726 179 690 L179 419 Q179 403 190 392.5 Q201 382 214 382 L239 382 L239 302 L215 302 Q202 302 191.5 292 Q181 282 179 268 L179 -30 Q179 -66 153.5 -90.5 Q128 -115 93 -115 L18 -115 L18 -33 L45 -33 Z " />
<glyph glyph-name="exclamdown" unicode="&#xa1;" horiz-adv-x="203" d="M151 -230 L53 -230 L75 333 L132 333 L151 -230 Z M161 486 Q161 460 144.5 443.5 Q128 427 103 427 Q79 427 61.5 443.5 Q44 460 44 486 Q44 512 61.5 528.5 Q79 545 103 545 Q128 545 144.5 528.5 Q161 512 161 486 Z " />
<glyph glyph-name="cent" unicode="&#xa2;" horiz-adv-x="389" d="M158 -119 L158 0 L137 0 Q102 0 77 24.5 Q52 49 52 84 L52 447 Q52 483 77 507 Q102 531 137 531 L158 531 L158 649 L257 649 L257 531 L279 531 Q314 531 339.5 507 Q365 483 365 447 L365 385 L266 385 L266 414 Q266 423 257 434.5 Q248 446 237 449 L176 449 Q165 446 158.5 435 Q152 424 152 414 L152 117 Q152 103 160.5 92.5 Q169 82 181 80 L234 80 Q247 82 256.5 92.5 Q266 103 266 117 L266 143 L365 143 L365 84 Q365 67 358 51.5 Q351 36 339.5 24.5 Q328 13 312.5 6.5 Q297 0 279 0 L257 0 L257 -119 L158 -119 Z " />
<glyph glyph-name="sterling" unicode="&#xa3;" horiz-adv-x="389" d="M265 517 L265 633 Q265 646 256.5 658 Q248 670 222 670 L187 670 Q172 670 163.5 659 Q155 648 153 635 L153 444 L234 444 L234 346 L153 346 L153 80 L231 80 Q245 80 255 91.5 Q265 103 265 117 L265 270 L365 270 L365 84 Q365 67 358.5 51.5 Q352 36 340.5 24.5 Q329 13 313.5 6.5 Q298 0 280 0 L53 0 L53 346 L-4 346 L-4 444 L53 444 L53 665 Q53 682 59.5 697.5 Q66 713 77.5 724.5 Q89 736 104.5 742.5 Q120 749 138 749 L280 749 Q298 749 313.5 742.5 Q329 736 340.5 724.5 Q352 713 358.5 697.5 Q365 682 365 665 L365 517 L265 517 Z " />
<glyph glyph-name="currency" unicode="&#xa4;" horiz-adv-x="431" d="M361 470 Q373 440 373 400 Q373 381 369 363.5 Q365 346 360 331 L430 261 L361 191 L290 261 L140 261 L70 191 L0 261 L69 330 Q57 361 57 403 Q57 420 61 438 Q65 456 70 472 L0 542 L70 612 L140 541 L290 541 L361 612 L430 542 L362 474 L361 470 Z M230 357 Q256 357 264 369 Q272 381 272 393 L272 409 Q272 423 261.5 434 Q251 445 238 445 L203 445 Q177 445 168.5 433.5 Q160 422 160 409 L160 396 Q160 381 170 369 Q180 357 194 357 L230 357 Z " />
<glyph glyph-name="yen" unicode="&#xa5;" horiz-adv-x="387" d="M349 292 L257 292 L243 233 L243 215 L349 215 L349 117 L243 117 L243 0 L143 0 L143 117 L39 117 L39 215 L143 215 L143 233 L129 292 L39 292 L39 391 L105 391 L20 749 L119 749 L177 505 L185 391 L201 391 L209 505 L267 749 L366 749 L280 391 L349 391 L349 292 Z " />
<glyph glyph-name="brokenbar" unicode="&#xa6;" horiz-adv-x="216" d="M54 358 L54 775 L153 775 L153 358 L54 358 Z M54 -238 L54 179 L153 179 L153 -238 L54 -238 Z " />
<glyph glyph-name="section" unicode="&#xa7;" horiz-adv-x="389" d="M53 332 Q53 342 58 355.5 Q63 369 72 382.5 Q81 396 94 407.5 Q107 419 124 427 Q82 445 67.5 467.5 Q53 490 53 504 L53 665 Q53 701 78 725 Q103 749 138 749 L279 749 Q314 749 339.5 725 Q365 701 365 665 L365 555 L266 555 L266 633 Q266 646 256.5 658 Q247 670 223 670 L186 670 Q172 670 162 658 Q152 646 152 632 L152 544 Q152 519 168 502 Q184 485 207.5 472 Q231 459 258.5 447 Q286 435 309.5 420 Q333 405 349 384 Q365 363 365 332 L365 175 Q365 165 361 151.5 Q357 138 348 124 Q339 110 326 98 Q313 86 295 79 Q316 70 329.5 59.5 Q343 49 350.5 38.5 Q358 28 360.5 19 Q363 10 363 3 L363 -147 Q363 -183 338.5 -207 Q314 -231 278 -231 L137 -231 Q102 -231 77 -207 Q52 -183 52 -147 L52 -37 L152 -37 L152 -116 Q152 -128 160.5 -140 Q169 -152 195 -152 L230 -152 Q244 -152 255 -140 Q266 -128 266 -114 L266 -38 Q266 -14 250 2.5 Q234 19 210.5 32.5 Q187 46 159.5 58.5 Q132 71 108.5 86.5 Q85 102 69 123 Q53 144 53 175 L53 332 Z M152 205 Q152 198 157.5 185.5 Q163 173 173 161 Q183 149 197.5 140.5 Q212 132 230 132 Q245 132 255.5 143 Q266 154 266 168 L266 303 Q266 310 260 322 Q254 334 243.5 345.5 Q233 357 218.5 365.5 Q204 374 186 374 Q172 374 162 363.5 Q152 353 152 338 L152 205 Z " />
<glyph glyph-name="dieresis" unicode="&#xa8;" horiz-adv-x="406" d="M43 716 Q43 742 59.5 758.5 Q76 775 101 775 Q127 775 143.5 758.5 Q160 742 160 716 Q160 691 143.5 674 Q127 657 101 657 Q76 657 59.5 674 Q43 691 43 716 Z M251 716 Q251 742 268 758.5 Q285 775 310 775 Q334 775 351.5 758.5 Q369 742 369 716 Q369 691 351.5 674 Q334 657 310 657 Q285 657 268 674 Q251 691 251 716 Z " />
<glyph glyph-name="copyright" unicode="&#xa9;" horiz-adv-x="864" d="M583 301 L583 203 Q583 166 557.5 141.5 Q532 117 496 117 L352 117 Q316 117 290.5 141.5 Q265 166 265 203 L265 571 Q265 607 290.5 632 Q316 657 352 657 L496 657 Q532 657 557.5 632 Q583 607 583 571 L583 456 L481 456 L481 538 Q481 550 473.5 562 Q466 574 450 574 L397 574 Q382 574 374.5 562 Q367 550 367 538 L367 237 Q367 222 376 212 Q385 202 397 200 L446 200 Q461 200 471 210.5 Q481 221 481 237 L481 301 L583 301 Z M754 398 Q754 467 728.5 528.5 Q703 590 658.5 635.5 Q614 681 554 707.5 Q494 734 425 734 Q356 734 295.5 708 Q235 682 189.5 636.5 Q144 591 118 530 Q92 469 92 400 L92 372 Q92 303 118 242 Q144 181 189.5 135.5 Q235 90 295.5 63.5 Q356 37 425 37 Q494 37 554 64 Q614 91 658.5 137 Q703 183 728.5 244.5 Q754 306 754 375 L754 398 Z M796 374 Q796 297 767 228 Q738 159 688 107 Q638 55 570.5 25 Q503 -5 425 -5 Q348 -5 280 24.5 Q212 54 161 105 Q110 156 80 224.5 Q50 293 50 371 L50 401 Q50 479 80 547 Q110 615 161 666 Q212 717 280 746.5 Q348 776 425 776 Q503 776 570.5 746 Q638 716 688 664.5 Q738 613 767 544.5 Q796 476 796 398 L796 374 Z " />
<glyph glyph-name="guillemotleft" unicode="&#xab;" horiz-adv-x="488" d="M256 439 L438 621 L438 478 L346 386 L346 381 L438 289 L438 146 L256 328 L256 439 Z M54 439 L236 621 L236 478 L144 386 L144 381 L236 289 L236 146 L54 328 L54 439 Z " />
<glyph glyph-name="logicalnot" unicode="&#xac;" horiz-adv-x="556" d="M493 531 L493 313 L395 313 L395 432 L52 432 L52 531 L493 531 Z " />
<glyph glyph-name="registered" unicode="&#xae;" horiz-adv-x="833" d="M286 657 L495 657 Q531 657 556.5 632 Q582 607 582 571 L582 420 Q582 406 574.5 392.5 Q567 379 554 367 Q541 355 524 345.5 Q507 336 488 331 Q497 307 508.5 279.5 Q520 252 531.5 224 Q543 196 554.5 168.5 Q566 141 577 117 L477 117 L384 345 L369 345 L387 236 L387 117 L286 117 L286 657 Z M387 576 L387 417 L434 417 Q440 417 448 420 Q456 423 463 428 Q470 433 475 439.5 Q480 446 480 454 L480 539 Q480 552 473 564 Q466 576 450 576 L387 576 Z M92 375 Q92 306 117.5 244.5 Q143 183 187.5 137 Q232 91 292 64 Q352 37 421 37 Q490 37 550.5 63.5 Q611 90 656.5 135.5 Q702 181 728 242 Q754 303 754 372 L754 400 Q754 469 728 530 Q702 591 656.5 636.5 Q611 682 550.5 708 Q490 734 421 734 Q352 734 292 707.5 Q232 681 187.5 635.5 Q143 590 117.5 528.5 Q92 467 92 398 L92 375 Z M50 398 Q50 476 79 544.5 Q108 613 158 664.5 Q208 716 275.5 746 Q343 776 421 776 Q498 776 566 746.5 Q634 717 685 666 Q736 615 766 547 Q796 479 796 401 L796 371 Q796 293 766 224.5 Q736 156 685 105 Q634 54 566 24.5 Q498 -5 421 -5 Q343 -5 275.5 25 Q208 55 158 107 Q108 159 79 228 Q50 297 50 374 L50 398 Z " />
<glyph glyph-name="macron" unicode="&#xaf;" horiz-adv-x="409" d="M58 774 L348 774 L348 690 L58 690 L58 774 Z " />
<glyph glyph-name="degree" unicode="&#xb0;" horiz-adv-x="289" d="M77 533 Q66 534 53 541.5 Q40 549 28.5 563.5 Q17 578 9 600.5 Q1 623 1 654 Q1 687 9.5 709.5 Q18 732 31 746 Q44 760 58 766.5 Q72 773 83 773 L214 773 Q224 773 238.5 766.5 Q253 760 265.5 745.5 Q278 731 287 707.5 Q296 684 296 651 Q296 619 287 596.5 Q278 574 265.5 560 Q253 546 238.5 539.5 Q224 533 214 533 L77 533 Z M163 609 Q188 609 196.5 621 Q205 633 205 644 L205 661 Q205 675 195 686 Q185 697 171 697 L136 697 Q110 697 101.5 685.5 Q93 674 93 661 L93 647 Q93 633 103 621 Q113 609 127 609 L163 609 Z " />
<glyph glyph-name="plusminus" unicode="&#xb1;" horiz-adv-x="398" d="M51 161 L363 161 L363 64 L51 64 L51 161 Z M258 530 L258 422 L365 422 L365 323 L258 323 L258 214 L159 214 L159 323 L52 323 L52 422 L159 422 L159 530 L258 530 Z " />
<glyph glyph-name="twosuperior" unicode="&#xb2;" horiz-adv-x="409" d="M365 566 Q365 546 357.5 533.5 Q350 521 337 511 Q290 476 250 444 Q210 412 164 376 L365 376 L365 277 L53 277 L53 374 Q53 381 57 392 Q61 403 67 408 L248 552 Q260 561 263.5 578.5 Q267 596 267 603 L267 632 Q267 646 256 658 Q245 670 231 670 L196 670 Q170 670 161.5 658 Q153 646 153 633 L153 563 L53 563 L53 665 Q53 700 78 724.5 Q103 749 138 749 L279 749 Q297 749 312.5 742.5 Q328 736 339.5 724.5 Q351 713 358 697.5 Q365 682 365 665 L365 566 Z " />
<glyph glyph-name="threesuperior" unicode="&#xb3;" horiz-adv-x="389" d="M230 358 Q244 358 255 369.5 Q266 381 266 396 L266 451 Q266 466 254.5 477.5 Q243 489 228 489 L183 489 L183 569 L228 569 Q243 569 254.5 579.5 Q266 590 266 605 L266 632 Q266 644 257.5 656 Q249 668 234 668 L182 668 Q169 668 161 657 Q153 646 151 632 L52 632 L52 665 Q52 700 77 724.5 Q102 749 137 749 L279 749 Q297 749 312.5 742.5 Q328 736 339.5 724.5 Q351 713 358 697.5 Q365 682 365 665 L365 606 Q365 589 351 568 Q337 547 315 528 Q337 511 351 489.5 Q365 468 365 448 L365 363 Q365 345 358 329.5 Q351 314 339.5 302.5 Q328 291 312.5 284.5 Q297 278 279 278 L137 278 Q120 278 104.5 284.5 Q89 291 77.5 302.5 Q66 314 59 329.5 Q52 345 52 363 L52 427 L152 427 L152 396 Q152 381 162 369.5 Q172 358 186 358 L230 358 L230 358 Z " />
<glyph glyph-name="acute" unicode="&#xb4;" horiz-adv-x="203" d="M97 775 L191 775 L140 676 L53 676 L97 775 Z " />
<glyph glyph-name="mu" unicode="&#xb5;" horiz-adv-x="409" d="M153 -231 L52 -231 L52 540 L154 540 L154 119 Q154 107 161 95.5 Q168 84 184 84 L228 84 Q244 84 255.5 90.5 Q267 97 267 119 L267 540 L369 540 L369 0 L298 0 Q287 0 278 6 Q269 12 267 26 Q256 11 244 5.5 Q232 0 224 0 L153 0 L153 -231 Z " />
<glyph glyph-name="paragraph" unicode="&#xb6;" horiz-adv-x="396" d="M314 699 L233 699 L233 0 L184 0 L184 437 L137 437 Q120 437 104.5 443.5 Q89 450 77.5 461.5 Q66 473 59.5 488.5 Q53 504 53 522 L53 664 Q53 699 77.5 724 Q102 749 137 749 L414 749 L414 699 L364 699 L364 0 L314 0 L314 699 Z " />
<glyph glyph-name="middot" unicode="&#xb7;" horiz-adv-x="203" d="M54 531 L153 531 L153 432 L54 432 L54 531 Z " />
<glyph glyph-name="cedilla" unicode="&#xb8;" horiz-adv-x="355" d="M65 -138 Q102 -137 117.5 -121.5 Q133 -106 133 -83 Q133 -49 104 0 L133 0 Q160 -23 178.5 -61 Q197 -99 197 -131 Q197 -166 173 -192 Q149 -218 93 -218 Q82 -218 69 -217 Q56 -216 39 -212 L65 -138 Z " />
<glyph glyph-name="onesuperior" unicode="&#xb9;" horiz-adv-x="264" d="M114 279 L114 563 L60 563 L60 666 Q71 675 82 687 Q91 698 99.5 713 Q108 728 113 749 L213 749 L213 279 L114 279 Z " />
<glyph glyph-name="guillemotright" unicode="&#xbb;" horiz-adv-x="483" d="M54 146 L54 289 L145 381 L145 386 L54 478 L54 621 L236 439 L236 328 L54 146 Z M255 146 L255 289 L346 381 L346 386 L255 478 L255 621 L437 439 L437 328 L255 146 Z " />
<glyph glyph-name="onequarter" unicode="&#xbc;" horiz-adv-x="851" d="M639 775 L212 -53 L116 -53 L541 775 L639 775 Z M114 279 L114 563 L60 563 L60 666 Q71 675 82 687 Q91 698 99.5 713 Q108 728 113 749 L213 749 L213 279 L114 279 Z M458 196 L609 481 L751 481 L751 182 L802 182 L802 84 L751 84 L751 11 L652 11 L652 84 L458 84 L458 196 Z M560 182 L652 182 L652 298 L674 409 Q672 409 669 409.5 Q666 410 663 410 L624 310 L560 182 Z " />
<glyph glyph-name="onehalf" unicode="&#xbd;" horiz-adv-x="889" d="M638 775 L211 -53 L115 -53 L540 775 L638 775 Z M114 279 L114 563 L60 563 L60 666 Q71 675 82 687 Q91 698 99.5 713 Q108 728 113 749 L213 749 L213 279 L114 279 Z M837 300 Q837 280 829.5 267.5 Q822 255 809 245 Q762 210 722 178 Q682 146 636 110 L837 110 L837 11 L525 11 L525 108 Q525 115 529 126 Q533 137 539 142 L720 286 Q732 295 735.5 312.5 Q739 330 739 337 L739 366 Q739 380 728 392 Q717 404 703 404 L668 404 Q642 404 633.5 392 Q625 380 625 367 L625 297 L525 297 L525 399 Q525 434 550 458.5 Q575 483 610 483 L751 483 Q769 483 784.5 476.5 Q800 470 811.5 458.5 Q823 447 830 431.5 Q837 416 837 399 L837 300 Z " />
<glyph glyph-name="threequarters" unicode="&#xbe;" horiz-adv-x="992" d="M786 775 L359 -53 L263 -53 L688 775 L786 775 Z M230 358 Q244 358 255 369.5 Q266 381 266 396 L266 451 Q266 466 254.5 477.5 Q243 489 228 489 L183 489 L183 569 L228 569 Q243 569 254.5 579.5 Q266 590 266 605 L266 632 Q266 644 257.5 656 Q249 668 234 668 L182 668 Q169 668 161 657 Q153 646 151 632 L52 632 L52 665 Q52 700 77 724.5 Q102 749 137 749 L279 749 Q297 749 312.5 742.5 Q328 736 339.5 724.5 Q351 713 358 697.5 Q365 682 365 665 L365 606 Q365 589 351 568 Q337 547 315 528 Q337 511 351 489.5 Q365 468 365 448 L365 363 Q365 345 358 329.5 Q351 314 339.5 302.5 Q328 291 312.5 284.5 Q297 278 279 278 L137 278 Q120 278 104.5 284.5 Q89 291 77.5 302.5 Q66 314 59 329.5 Q52 345 52 363 L52 427 L152 427 L152 396 Q152 381 162 369.5 Q172 358 186 358 L230 358 Z M620 196 L771 481 L913 481 L913 182 L964 182 L964 84 L913 84 L913 11 L814 11 L814 84 L620 84 L620 196 Z M722 182 L814 182 L814 298 L836 409 Q834 409 831 409.5 Q828 410 825 410 L786 310 L722 182 Z " />
<glyph glyph-name="questiondown" unicode="&#xbf;" horiz-adv-x="409" d="M174 481 Q174 507 190.5 523.5 Q207 540 233 540 Q257 540 274.5 523.5 Q292 507 292 481 Q292 455 274.5 438.5 Q257 422 233 422 Q207 422 190.5 438.5 Q174 455 174 481 Z M178 207 Q181 215 182.5 223.5 Q184 232 184 238 L184 328 L283 328 L283 246 Q283 241 282 232 Q281 223 278 216 Q244 137 223.5 90 Q203 43 191.5 16 Q180 -11 176.5 -23.5 Q173 -36 173 -45 L173 -93 Q173 -107 184 -119 Q195 -131 209 -131 L244 -131 Q270 -131 278.5 -119 Q287 -107 287 -94 L287 -16 L387 -16 L387 -126 Q387 -161 362 -185.5 Q337 -210 302 -210 L161 -210 Q143 -210 127.5 -203.5 Q112 -197 100.5 -185.5 Q89 -174 82 -158.5 Q75 -143 75 -126 L75 -46 Q75 -39 80 -26.5 Q85 -14 97 13 Q109 40 128.5 86.5 Q148 133 178 207 Z " />
<glyph glyph-name="Agrave" unicode="&#xc0;" horiz-adv-x="442" d="M329 0 L297 156 L143 156 L112 0 L5 0 L173 749 L269 749 L437 0 L329 0 Z M200 422 L161 237 L280 237 L242 422 L230 620 L213 620 L200 422 Z M258 884 L172 884 L121 983 L216 983 L258 884 Z " />
<glyph glyph-name="Aacute" unicode="&#xc1;" horiz-adv-x="442" d="M329 0 L297 156 L143 156 L112 0 L5 0 L173 749 L269 749 L437 0 L329 0 Z M200 422 L161 237 L280 237 L242 422 L230 620 L213 620 L200 422 Z M228 984 L322 984 L271 885 L184 885 L228 984 Z " />
<glyph glyph-name="Acircumflex" unicode="&#xc2;" horiz-adv-x="442" d="M437 0 L269 749 L173 749 L5 0 L112 0 L143 156 L297 156 L329 0 L437 0 Z M213 620 L230 620 L242 422 L280 237 L161 237 L200 422 L213 620 Z M171 983 L268 983 L365 835 L267 835 L220 905 L175 835 L75 835 L171 983 Z " />
<glyph glyph-name="Atilde" unicode="&#xc3;" horiz-adv-x="442" d="M327 0 L295 156 L141 156 L110 0 L3 0 L171 749 L267 749 L435 0 L327 0 Z M198 422 L159 237 L278 237 L240 422 L228 620 L211 620 L198 422 Z M149 984 Q166 984 181.5 977.5 Q197 971 212 963.5 Q227 956 242.5 949.5 Q258 943 276 943 Q288 943 300.5 952 Q313 961 324 984 L398 984 Q393 920 366 885.5 Q339 851 297 851 Q281 851 264 857.5 Q247 864 230.5 872 Q214 880 198.5 886.5 Q183 893 170 893 Q157 893 146 884 Q135 875 125 851 L50 851 Q55 913 82.5 948.5 Q110 984 149 984 Z " />
<glyph glyph-name="Adieresis" unicode="&#xc4;" horiz-adv-x="442" d="M327 0 L295 156 L141 156 L110 0 L3 0 L171 749 L267 749 L435 0 L327 0 Z M198 422 L159 237 L278 237 L240 422 L228 620 L211 620 L198 422 Z M56 923 Q56 949 72.5 965.5 Q89 982 114 982 Q140 982 156.5 965.5 Q173 949 173 923 Q173 898 156.5 881 Q140 864 114 864 Q89 864 72.5 881 Q56 898 56 923 Z M264 923 Q264 949 281 965.5 Q298 982 323 982 Q347 982 364.5 965.5 Q382 949 382 923 Q382 898 364.5 881 Q347 864 323 864 Q298 864 281 881 Q264 898 264 923 Z " />
<glyph glyph-name="Aring" unicode="&#xc5;" horiz-adv-x="432" d="M322 0 L290 156 L136 156 L105 0 L-2 0 L166 749 L262 749 L430 0 L322 0 Z M193 422 L154 237 L273 237 L235 422 L223 620 L206 620 L193 422 Z M227 743 Q242 743 247.5 749 Q253 755 253 762 L253 777 Q253 785 247.5 791 Q242 797 235 797 L201 797 Q186 797 180.5 790.5 Q175 784 175 777 L175 764 Q175 756 180 749.5 Q185 743 193 743 L227 743 Z M166 687 Q146 687 130 702.5 Q114 718 114 738 L114 802 Q114 822 130 837.5 Q146 853 166 853 L262 853 Q283 853 298.5 837.5 Q314 822 314 802 L314 738 Q314 718 298.5 702.5 Q283 687 262 687 L166 687 Z " />
<glyph glyph-name="AE" unicode="&#xc6;" horiz-adv-x="591" d="M152 156 L117 0 L5 0 L184 749 L559 749 L559 650 L345 650 L345 416 L528 416 L528 317 L345 317 L345 99 L559 99 L559 0 L246 0 L246 156 L152 156 Z M170 237 L246 237 L246 461 L268 650 L255 650 L220 461 L170 237 Z " />
<glyph glyph-name="Ccedilla" unicode="&#xc7;" horiz-adv-x="407" d="M362 295 L362 84 Q362 49 338 24.5 Q314 0 278 0 L136 0 Q101 0 76 24.5 Q51 49 51 84 L51 665 Q51 700 76 724.5 Q101 749 136 749 L278 749 Q314 749 338 724.5 Q362 700 362 665 L362 438 L264 438 L264 632 Q264 644 256 656 Q248 668 233 668 L181 668 Q166 668 158.5 656 Q151 644 151 632 L151 117 Q151 103 159.5 92.5 Q168 82 180 80 L229 80 Q243 80 253.5 91.5 Q264 103 264 117 L264 295 L362 295 Z M150 -138 Q187 -137 202.5 -121.5 Q218 -106 218 -83 Q218 -49 189 0 L218 0 Q245 -23 263.5 -61 Q282 -99 282 -131 Q282 -166 258 -192 Q234 -218 178 -218 Q167 -218 154 -217 Q141 -216 124 -212 L150 -138 Z " />
<glyph glyph-name="Egrave" unicode="&#xc8;" horiz-adv-x="412" d="M61 749 L374 749 L374 650 L160 650 L160 416 L342 416 L342 317 L160 317 L160 99 L374 99 L374 0 L61 0 L61 749 Z M226 884 L140 884 L89 983 L184 983 L226 884 Z " />
<glyph glyph-name="Eacute" unicode="&#xc9;" horiz-adv-x="412" d="M61 749 L374 749 L374 650 L160 650 L160 416 L342 416 L342 317 L160 317 L160 99 L374 99 L374 0 L61 0 L61 749 Z M226 984 L320 984 L269 885 L182 885 L226 984 Z " />
<glyph glyph-name="Ecircumflex" unicode="&#xca;" horiz-adv-x="412" d="M61 0 L374 0 L374 99 L160 99 L160 317 L342 317 L342 416 L160 416 L160 650 L374 650 L374 749 L61 749 L61 0 Z M160 983 L257 983 L354 835 L256 835 L209 905 L164 835 L64 835 L160 983 Z " />
<glyph glyph-name="Edieresis" unicode="&#xcb;" horiz-adv-x="412" d="M61 749 L374 749 L374 650 L160 650 L160 416 L342 416 L342 317 L160 317 L160 99 L374 99 L374 0 L61 0 L61 749 Z M46 925 Q46 951 62.5 967.5 Q79 984 104 984 Q130 984 146.5 967.5 Q163 951 163 925 Q163 900 146.5 883 Q130 866 104 866 Q79 866 62.5 883 Q46 900 46 925 Z M254 925 Q254 951 271 967.5 Q288 984 313 984 Q337 984 354.5 967.5 Q372 951 372 925 Q372 900 354.5 883 Q337 866 313 866 Q288 866 271 883 Q254 900 254 925 Z " />
<glyph glyph-name="Igrave" unicode="&#xcc;" horiz-adv-x="221" d="M63 749 L164 749 L164 0 L63 0 L63 749 Z M148 883 L62 883 L11 982 L106 982 L148 883 Z " />
<glyph glyph-name="Iacute" unicode="&#xcd;" horiz-adv-x="221" d="M63 749 L164 749 L164 0 L63 0 L63 749 Z M116 984 L210 984 L159 885 L72 885 L116 984 Z " />
<glyph glyph-name="Icircumflex" unicode="&#xce;" horiz-adv-x="221" d="M63 0 L164 0 L164 749 L63 749 L63 0 Z M64 983 L161 983 L258 835 L160 835 L113 905 L68 835 L-32 835 L64 983 Z " />
<glyph glyph-name="Idieresis" unicode="&#xcf;" horiz-adv-x="221" d="M63 749 L164 749 L164 0 L63 0 L63 749 Z M-50 923 Q-50 949 -33.5 965.5 Q-17 982 8 982 Q34 982 50.5 965.5 Q67 949 67 923 Q67 898 50.5 881 Q34 864 8 864 Q-17 864 -33.5 881 Q-50 898 -50 923 Z M158 923 Q158 949 175 965.5 Q192 982 217 982 Q241 982 258.5 965.5 Q276 949 276 923 Q276 898 258.5 881 Q241 864 217 864 Q192 864 175 881 Q158 898 158 923 Z " />
<glyph glyph-name="Eth" unicode="&#xd0;" horiz-adv-x="425" d="M71 749 L297 749 Q315 749 330.5 742.5 Q346 736 357.5 724.5 Q369 713 376 697.5 Q383 682 383 665 L383 84 Q383 67 376 51.5 Q369 36 357.5 24.5 Q346 13 330.5 6.5 Q315 0 297 0 L71 0 L71 749 Z M284 633 Q284 646 275.5 658 Q267 670 252 670 L170 670 L170 80 L248 80 Q262 80 273 91.5 Q284 103 284 117 L284 633 Z M32 396 L215 396 L215 299 L32 299 L32 396 Z " />
<glyph glyph-name="Ntilde" unicode="&#xd1;" horiz-adv-x="426" d="M374 0 L266 0 L143 477 L130 477 Q138 426 145 378.5 Q152 331 160 280 L160 0 L61 0 L61 749 L172 749 L290 276 L305 276 Q297 325 289.5 375 Q282 425 275 474 L275 749 L374 749 L374 0 Z M144 984 Q161 984 176.5 977.5 Q192 971 207 963.5 Q222 956 237.5 949.5 Q253 943 271 943 Q283 943 295.5 952 Q308 961 319 984 L393 984 Q388 920 361 885.5 Q334 851 292 851 Q276 851 259 857.5 Q242 864 225.5 872 Q209 880 193.5 886.5 Q178 893 165 893 Q152 893 141 884 Q130 875 120 851 L45 851 Q50 913 77.5 948.5 Q105 984 144 984 Z " />
<glyph glyph-name="Ograve" unicode="&#xd2;" horiz-adv-x="406" d="M136 0 Q101 0 76 24.5 Q51 49 51 84 L51 665 Q51 700 76 724.5 Q101 749 136 749 L278 749 Q314 749 338 724.5 Q362 700 362 665 L362 84 Q362 49 338 24.5 Q314 0 278 0 L136 0 Z M185 670 Q171 670 161 658 Q151 646 151 632 L151 117 Q151 104 161.5 92 Q172 80 185 80 L229 80 Q243 80 253.5 91.5 Q264 103 264 117 L264 633 Q264 646 255 658 Q246 670 222 670 L185 670 Z M233 884 L147 884 L96 983 L191 983 L233 884 Z " />
<glyph glyph-name="Oacute" unicode="&#xd3;" horiz-adv-x="406" d="M136 0 Q101 0 76 24.5 Q51 49 51 84 L51 665 Q51 700 76 724.5 Q101 749 136 749 L278 749 Q314 749 338 724.5 Q362 700 362 665 L362 84 Q362 49 338 24.5 Q314 0 278 0 L136 0 Z M185 670 Q171 670 161 658 Q151 646 151 632 L151 117 Q151 104 161.5 92 Q172 80 185 80 L229 80 Q243 80 253.5 91.5 Q264 103 264 117 L264 633 Q264 646 255 658 Q246 670 222 670 L185 670 Z M211 984 L305 984 L254 885 L167 885 L211 984 Z " />
<glyph glyph-name="Ocircumflex" unicode="&#xd4;" horiz-adv-x="406" d="M278 0 Q314 0 338 24.5 Q362 49 362 84 L362 665 Q362 700 338 724.5 Q314 749 278 749 L136 749 Q101 749 76 724.5 Q51 700 51 665 L51 84 Q51 49 76 24.5 Q101 0 136 0 L278 0 Z M222 670 Q246 670 255 658 Q264 646 264 633 L264 117 Q264 103 253.5 91.5 Q243 80 229 80 L185 80 Q172 80 161.5 92 Q151 104 151 117 L151 632 Q151 646 161 658 Q171 670 185 670 L222 670 Z M156 983 L253 983 L350 835 L252 835 L205 905 L160 835 L60 835 L156 983 Z " />
<glyph glyph-name="Otilde" unicode="&#xd5;" horiz-adv-x="406" d="M136 0 Q101 0 76 24.5 Q51 49 51 84 L51 665 Q51 700 76 724.5 Q101 749 136 749 L278 749 Q314 749 338 724.5 Q362 700 362 665 L362 84 Q362 49 338 24.5 Q314 0 278 0 L136 0 Z M185 670 Q171 670 161 658 Q151 646 151 632 L151 117 Q151 104 161.5 92 Q172 80 185 80 L229 80 Q243 80 253.5 91.5 Q264 103 264 117 L264 633 Q264 646 255 658 Q246 670 222 670 L185 670 Z M134 984 Q151 984 166.5 977.5 Q182 971 197 963.5 Q212 956 227.5 949.5 Q243 943 261 943 Q273 943 285.5 952 Q298 961 309 984 L383 984 Q378 920 351 885.5 Q324 851 282 851 Q266 851 249 857.5 Q232 864 215.5 872 Q199 880 183.5 886.5 Q168 893 155 893 Q142 893 131 884 Q120 875 110 851 L35 851 Q40 913 67.5 948.5 Q95 984 134 984 Z " />
<glyph glyph-name="Odieresis" unicode="&#xd6;" horiz-adv-x="406" d="M136 0 Q101 0 76 24.5 Q51 49 51 84 L51 665 Q51 700 76 724.5 Q101 749 136 749 L278 749 Q314 749 338 724.5 Q362 700 362 665 L362 84 Q362 49 338 24.5 Q314 0 278 0 L136 0 Z M185 670 Q171 670 161 658 Q151 646 151 632 L151 117 Q151 104 161.5 92 Q172 80 185 80 L229 80 Q243 80 253.5 91.5 Q264 103 264 117 L264 633 Q264 646 255 658 Q246 670 222 670 L185 670 Z M43 923 Q43 949 59.5 965.5 Q76 982 101 982 Q127 982 143.5 965.5 Q160 949 160 923 Q160 898 143.5 881 Q127 864 101 864 Q76 864 59.5 881 Q43 898 43 923 Z M251 923 Q251 949 268 965.5 Q285 982 310 982 Q334 982 351.5 965.5 Q369 949 369 923 Q369 898 351.5 881 Q334 864 310 864 Q285 864 268 881 Q251 898 251 923 Z " />
<glyph glyph-name="multiply" unicode="&#xd7;" horiz-adv-x="398" d="M355 450 L278 373 L353 298 L284 228 L209 304 L132 227 L62 296 L139 372 L63 449 L134 517 L209 442 L285 519 L355 450 Z " />
<glyph glyph-name="Oslash" unicode="&#xd8;" horiz-adv-x="483" d="M170 0 Q159 0 144 4.5 Q129 9 110 20 L75 -52 L-19 -52 L85 152 L85 665 Q85 700 110 724.5 Q135 749 170 749 L312 749 Q326 749 343 742 Q360 735 379 723 L405 777 L503 777 L397 573 L397 84 Q397 67 390.5 51.5 Q384 36 372.5 24.5 Q361 13 345.5 6.5 Q330 0 312 0 L170 0 Z M219 670 Q205 670 195 658 Q185 646 185 632 L185 117 Q185 104 195.5 92 Q206 80 219 80 L263 80 Q278 80 287.5 91.5 Q297 103 297 117 L297 633 Q297 646 288.5 658 Q280 670 255 670 L219 670 Z " />
<glyph glyph-name="Ugrave" unicode="&#xd9;" horiz-adv-x="418" d="M157 749 L157 117 Q157 104 167.5 92 Q178 80 191 80 L235 80 Q249 80 260 91.5 Q271 103 271 117 L271 749 L370 749 L370 84 Q370 67 363 51.5 Q356 36 344.5 24.5 Q333 13 317.5 6.5 Q302 0 284 0 L143 0 Q125 0 109.5 6.5 Q94 13 82.5 24.5 Q71 36 64 51.5 Q57 67 57 84 L57 749 L157 749 Z M249 884 L163 884 L112 983 L207 983 L249 884 Z " />
<glyph glyph-name="Uacute" unicode="&#xda;" horiz-adv-x="418" d="M157 749 L157 117 Q157 104 167.5 92 Q178 80 191 80 L235 80 Q249 80 260 91.5 Q271 103 271 117 L271 749 L370 749 L370 84 Q370 67 363 51.5 Q356 36 344.5 24.5 Q333 13 317.5 6.5 Q302 0 284 0 L143 0 Q125 0 109.5 6.5 Q94 13 82.5 24.5 Q71 36 64 51.5 Q57 67 57 84 L57 749 L157 749 Z M214 984 L308 984 L257 885 L170 885 L214 984 Z " />
<glyph glyph-name="Ucircumflex" unicode="&#xdb;" horiz-adv-x="418" d="M57 749 L57 84 Q57 67 64 51.5 Q71 36 82.5 24.5 Q94 13 109.5 6.5 Q125 0 143 0 L284 0 Q302 0 317.5 6.5 Q333 13 344.5 24.5 Q356 36 363 51.5 Q370 67 370 84 L370 749 L271 749 L271 117 Q271 103 260 91.5 Q249 80 235 80 L191 80 Q178 80 167.5 92 Q157 104 157 117 L157 749 L57 749 Z M162 983 L259 983 L356 835 L258 835 L211 905 L166 835 L66 835 L162 983 Z " />
<glyph glyph-name="Udieresis" unicode="&#xdc;" horiz-adv-x="418" d="M157 749 L157 117 Q157 104 167.5 92 Q178 80 191 80 L235 80 Q249 80 260 91.5 Q271 103 271 117 L271 749 L370 749 L370 84 Q370 67 363 51.5 Q356 36 344.5 24.5 Q333 13 317.5 6.5 Q302 0 284 0 L143 0 Q125 0 109.5 6.5 Q94 13 82.5 24.5 Q71 36 64 51.5 Q57 67 57 84 L57 749 L157 749 Z M48 920 Q48 946 64.5 962.5 Q81 979 106 979 Q132 979 148.5 962.5 Q165 946 165 920 Q165 895 148.5 878 Q132 861 106 861 Q81 861 64.5 878 Q48 895 48 920 Z M256 920 Q256 946 273 962.5 Q290 979 315 979 Q339 979 356.5 962.5 Q374 946 374 920 Q374 895 356.5 878 Q339 861 315 861 Q290 861 273 878 Q256 895 256 920 Z " />
<glyph glyph-name="Yacute" unicode="&#xdd;" horiz-adv-x="421" d="M200 391 L216 391 L224 505 L282 749 L381 749 L258 233 L258 0 L158 0 L158 233 L35 749 L134 749 L192 505 L200 391 Z M222 985 L316 985 L265 886 L178 886 L222 985 Z " />
<glyph glyph-name="Thorn" unicode="&#xde;" horiz-adv-x="424" d="M160 597 L317 597 Q335 597 350.5 590.5 Q366 584 377.5 572.5 Q389 561 396 545.5 Q403 530 403 513 L403 249 Q403 213 377.5 189 Q352 165 317 165 L160 165 L160 0 L61 0 L61 749 L160 749 L160 597 Z M268 246 Q282 246 292.5 256.5 Q303 267 303 282 L303 481 Q303 494 295 505.5 Q287 517 272 517 L160 517 L160 246 L268 246 Z " />
<glyph glyph-name="germandbls" unicode="&#xdf;" horiz-adv-x="389" d="M213 83 L232 83 Q247 83 257 94 Q267 105 267 119 L267 362 Q267 378 256.5 388.5 Q246 399 230 399 L213 399 L213 482 L230 482 Q246 482 256.5 493 Q267 504 267 520 L267 655 Q267 668 260 680 Q253 692 236 692 L152 692 L152 0 L52 0 L52 690 Q52 705 58.5 720 Q65 735 76.5 747 Q88 759 104 766.5 Q120 774 138 774 L282 774 Q318 774 343.5 749.5 Q369 725 369 689 L369 506 Q369 488 354.5 467 Q340 446 318 426 Q341 407 355 386.5 Q369 366 369 346 L369 85 Q369 49 343.5 24.5 Q318 0 282 0 L213 0 L213 83 Z " />
<glyph glyph-name="agrave" unicode="&#xe0;" horiz-adv-x="416" d="M152 118 Q152 106 162.5 94.5 Q173 83 188 83 L227 83 Q241 83 253.5 90.5 Q266 98 266 119 L266 425 Q266 448 253.5 452 Q241 456 227 456 L182 456 Q167 456 159.5 444.5 Q152 433 152 421 L152 118 Z M227 540 Q236 540 248 534.5 Q260 529 271 513 Q273 528 282 534 Q291 540 302 540 L368 540 L368 0 L289 0 L267 28 Q258 16 247 8 Q236 0 225 0 L137 0 Q101 0 76 24.5 Q51 49 51 85 L51 455 Q51 490 76 515 Q101 540 137 540 L227 540 Z M243 675 L157 675 L106 774 L201 774 L243 675 Z " />
<glyph glyph-name="aacute" unicode="&#xe1;" horiz-adv-x="416" d="M152 118 Q152 106 162.5 94.5 Q173 83 188 83 L227 83 Q241 83 253.5 90.5 Q266 98 266 119 L266 425 Q266 448 253.5 452 Q241 456 227 456 L182 456 Q167 456 159.5 444.5 Q152 433 152 421 L152 118 Z M227 540 Q236 540 248 534.5 Q260 529 271 513 Q273 528 282 534 Q291 540 302 540 L368 540 L368 0 L289 0 L267 28 Q258 16 247 8 Q236 0 225 0 L137 0 Q101 0 76 24.5 Q51 49 51 85 L51 455 Q51 490 76 515 Q101 540 137 540 L227 540 Z M211 774 L305 774 L254 675 L167 675 L211 774 Z " />
<glyph glyph-name="acircumflex" unicode="&#xe2;" horiz-adv-x="416" d="M152 421 Q152 433 159.5 444.5 Q167 456 182 456 L227 456 Q241 456 253.5 452 Q266 448 266 425 L266 119 Q266 98 253.5 90.5 Q241 83 227 83 L188 83 Q173 83 162.5 94.5 Q152 106 152 118 L152 421 Z M137 540 Q101 540 76 515 Q51 490 51 455 L51 85 Q51 49 76 24.5 Q101 0 137 0 L225 0 Q236 0 247 8 Q258 16 267 28 L289 0 L368 0 L368 540 L302 540 Q291 540 282 534 Q273 528 271 513 Q260 529 248 534.5 Q236 540 227 540 L137 540 Z M161 774 L258 774 L355 626 L257 626 L210 696 L165 626 L65 626 L161 774 Z " />
<glyph glyph-name="atilde" unicode="&#xe3;" horiz-adv-x="416" d="M152 118 Q152 106 162.5 94.5 Q173 83 188 83 L227 83 Q241 83 253.5 90.5 Q266 98 266 119 L266 425 Q266 448 253.5 452 Q241 456 227 456 L182 456 Q167 456 159.5 444.5 Q152 433 152 421 L152 118 Z M227 540 Q236 540 248 534.5 Q260 529 271 513 Q273 528 282 534 Q291 540 302 540 L368 540 L368 0 L289 0 L267 28 Q258 16 247 8 Q236 0 225 0 L137 0 Q101 0 76 24.5 Q51 49 51 85 L51 455 Q51 490 76 515 Q101 540 137 540 L227 540 Z M139 774 Q156 774 171.5 767.5 Q187 761 202 753.5 Q217 746 232.5 739.5 Q248 733 266 733 Q278 733 290.5 742 Q303 751 314 774 L388 774 Q383 710 356 675.5 Q329 641 287 641 Q271 641 254 647.5 Q237 654 220.5 662 Q204 670 188.5 676.5 Q173 683 160 683 Q147 683 136 674 Q125 665 115 641 L40 641 Q45 703 72.5 738.5 Q100 774 139 774 Z " />
<glyph glyph-name="adieresis" unicode="&#xe4;" horiz-adv-x="416" d="M152 118 Q152 106 162.5 94.5 Q173 83 188 83 L227 83 Q241 83 253.5 90.5 Q266 98 266 119 L266 425 Q266 448 253.5 452 Q241 456 227 456 L182 456 Q167 456 159.5 444.5 Q152 433 152 421 L152 118 Z M227 540 Q236 540 248 534.5 Q260 529 271 513 Q273 528 282 534 Q291 540 302 540 L368 540 L368 0 L289 0 L267 28 Q258 16 247 8 Q236 0 225 0 L137 0 Q101 0 76 24.5 Q51 49 51 85 L51 455 Q51 490 76 515 Q101 540 137 540 L227 540 Z M47 726 Q47 752 63.5 768.5 Q80 785 105 785 Q131 785 147.5 768.5 Q164 752 164 726 Q164 701 147.5 684 Q131 667 105 667 Q80 667 63.5 684 Q47 701 47 726 Z M255 726 Q255 752 272 768.5 Q289 785 314 785 Q338 785 355.5 768.5 Q373 752 373 726 Q373 701 355.5 684 Q338 667 314 667 Q289 667 272 684 Q255 701 255 726 Z " />
<glyph glyph-name="aring" unicode="&#xe5;" horiz-adv-x="416" d="M152 118 Q152 106 162.5 94.5 Q173 83 188 83 L227 83 Q241 83 253.5 90.5 Q266 98 266 119 L266 425 Q266 448 253.5 452 Q241 456 227 456 L182 456 Q167 456 159.5 444.5 Q152 433 152 421 L152 118 Z M227 540 Q236 540 248 534.5 Q260 529 271 513 Q273 528 282 534 Q291 540 302 540 L368 540 L368 0 L289 0 L267 28 Q258 16 247 8 Q236 0 225 0 L137 0 Q101 0 76 24.5 Q51 49 51 85 L51 455 Q51 490 76 515 Q101 540 137 540 L227 540 Z M219 664 Q234 664 239.5 670 Q245 676 245 683 L245 698 Q245 706 239.5 712 Q234 718 227 718 L193 718 Q178 718 172.5 711.5 Q167 705 167 698 L167 685 Q167 677 172 670.5 Q177 664 185 664 L219 664 Z M158 608 Q138 608 122 623.5 Q106 639 106 659 L106 723 Q106 743 122 758.5 Q138 774 158 774 L254 774 Q275 774 290.5 758.5 Q306 743 306 723 L306 659 Q306 639 290.5 623.5 Q275 608 254 608 L158 608 Z " />
<glyph glyph-name="ae" unicode="&#xe6;" horiz-adv-x="607" d="M129 0 Q93 0 67.5 24.5 Q42 49 42 85 L42 455 Q42 473 49 488.5 Q56 504 67.5 515.5 Q79 527 95 533.5 Q111 540 129 540 L212 540 Q235 540 248.5 529 Q262 518 268 507 Q281 521 301.5 530.5 Q322 540 342 540 L489 540 Q507 540 523 533.5 Q539 527 551 515.5 Q563 504 570 488.5 Q577 473 577 455 L577 253 L360 253 L360 116 Q362 102 370 93 Q378 84 389 83 L440 83 Q454 83 464.5 94 Q475 105 475 119 L475 145 L577 145 L577 85 Q577 49 551.5 24.5 Q526 0 489 0 L345 0 Q342 0 333.5 1 Q325 2 314.5 5 Q304 8 292 14.5 Q280 21 269 32 Q258 18 244.5 9 Q231 0 221 0 L129 0 Z M144 118 Q144 106 154.5 94.5 Q165 83 179 83 L219 83 Q234 83 246 90.5 Q258 98 258 119 L258 425 Q258 448 246 452 Q234 456 219 456 L174 456 Q159 456 151.5 444.5 Q144 433 144 421 L144 118 Z M360 332 L475 332 L475 421 Q475 433 467.5 444.5 Q460 456 444 456 L390 456 Q377 456 369.5 447 Q362 438 360 427 L360 332 Z " />
<glyph glyph-name="ccedilla" unicode="&#xe7;" horiz-adv-x="399" d="M367 145 L367 85 Q367 49 341.5 24.5 Q316 0 280 0 L136 0 Q101 0 75.5 24.5 Q50 49 50 85 L50 455 Q50 473 57 488.5 Q64 504 75.5 515.5 Q87 527 102.5 533.5 Q118 540 136 540 L280 540 Q298 540 314 533.5 Q330 527 341.5 515.5 Q353 504 360 488.5 Q367 473 367 455 L367 392 L265 392 L265 421 Q265 433 258 444.5 Q251 456 234 456 L181 456 Q166 456 158.5 444.5 Q151 433 151 421 L151 119 Q151 105 160 95 Q169 85 181 83 L230 83 Q245 83 255 94 Q265 105 265 119 L265 145 L367 145 Z M146 -138 Q183 -137 198.5 -121.5 Q214 -106 214 -83 Q214 -49 185 0 L214 0 Q241 -23 259.5 -61 Q278 -99 278 -131 Q278 -166 254 -192 Q230 -218 174 -218 Q163 -218 150 -217 Q137 -216 120 -212 L146 -138 Z " />
<glyph glyph-name="egrave" unicode="&#xe8;" horiz-adv-x="403" d="M368 145 L368 85 Q368 49 342.5 24.5 Q317 0 281 0 L137 0 Q101 0 76 24.5 Q51 49 51 85 L51 455 Q51 490 76 515 Q101 540 137 540 L281 540 Q299 540 315 533.5 Q331 527 342.5 515.5 Q354 504 361 488.5 Q368 473 368 455 L368 253 L152 253 L152 119 Q152 105 161 95 Q170 85 182 83 L231 83 Q246 83 256 94 Q266 105 266 119 L266 145 L368 145 Z M152 332 L266 332 L266 421 Q266 433 259 444.5 Q252 456 235 456 L182 456 Q167 456 159.5 444.5 Q152 433 152 421 L152 332 Z M232 675 L146 675 L95 774 L190 774 L232 675 Z " />
<glyph glyph-name="eacute" unicode="&#xe9;" horiz-adv-x="403" d="M368 145 L368 85 Q368 49 342.5 24.5 Q317 0 281 0 L137 0 Q101 0 76 24.5 Q51 49 51 85 L51 455 Q51 490 76 515 Q101 540 137 540 L281 540 Q299 540 315 533.5 Q331 527 342.5 515.5 Q354 504 361 488.5 Q368 473 368 455 L368 253 L152 253 L152 119 Q152 105 161 95 Q170 85 182 83 L231 83 Q246 83 256 94 Q266 105 266 119 L266 145 L368 145 Z M152 332 L266 332 L266 421 Q266 433 259 444.5 Q252 456 235 456 L182 456 Q167 456 159.5 444.5 Q152 433 152 421 L152 332 Z M207 775 L301 775 L250 676 L163 676 L207 775 Z " />
<glyph glyph-name="ecircumflex" unicode="&#xea;" horiz-adv-x="403" d="M266 145 L266 119 Q266 105 256 94 Q246 83 231 83 L182 83 Q170 85 161 95 Q152 105 152 119 L152 253 L368 253 L368 455 Q368 473 361 488.5 Q354 504 342.5 515.5 Q331 527 315 533.5 Q299 540 281 540 L137 540 Q101 540 76 515 Q51 490 51 455 L51 85 Q51 49 76 24.5 Q101 0 137 0 L281 0 Q317 0 342.5 24.5 Q368 49 368 85 L368 145 L266 145 Z M152 421 Q152 433 159.5 444.5 Q167 456 182 456 L235 456 Q252 456 259 444.5 Q266 433 266 421 L266 332 L152 332 L152 421 Z M155 775 L252 775 L349 627 L251 627 L204 697 L159 627 L59 627 L155 775 Z " />
<glyph glyph-name="edieresis" unicode="&#xeb;" horiz-adv-x="403" d="M368 145 L368 85 Q368 49 342.5 24.5 Q317 0 281 0 L137 0 Q101 0 76 24.5 Q51 49 51 85 L51 455 Q51 490 76 515 Q101 540 137 540 L281 540 Q299 540 315 533.5 Q331 527 342.5 515.5 Q354 504 361 488.5 Q368 473 368 455 L368 253 L152 253 L152 119 Q152 105 161 95 Q170 85 182 83 L231 83 Q246 83 256 94 Q266 105 266 119 L266 145 L368 145 Z M152 332 L266 332 L266 421 Q266 433 259 444.5 Q252 456 235 456 L182 456 Q167 456 159.5 444.5 Q152 433 152 421 L152 332 Z M41 726 Q41 752 57.5 768.5 Q74 785 99 785 Q125 785 141.5 768.5 Q158 752 158 726 Q158 701 141.5 684 Q125 667 99 667 Q74 667 57.5 684 Q41 701 41 726 Z M249 726 Q249 752 266 768.5 Q283 785 308 785 Q332 785 349.5 768.5 Q367 752 367 726 Q367 701 349.5 684 Q332 667 308 667 Q283 667 266 684 Q249 701 249 726 Z " />
<glyph glyph-name="igrave" unicode="&#xec;" horiz-adv-x="215" d="M60 541 L161 541 L161 0 L60 0 L60 541 Z M148 675 L62 675 L11 774 L106 774 L148 675 Z " />
<glyph glyph-name="iacute" unicode="&#xed;" horiz-adv-x="215" d="M60 541 L161 541 L161 0 L60 0 L60 541 Z M104 775 L198 775 L147 676 L60 676 L104 775 Z " />
<glyph glyph-name="icircumflex" unicode="&#xee;" horiz-adv-x="215" d="M60 0 L161 0 L161 541 L60 541 L60 0 Z M61 774 L158 774 L255 626 L157 626 L110 696 L65 626 L-35 626 L61 774 Z " />
<glyph glyph-name="idieresis" unicode="&#xef;" horiz-adv-x="215" d="M60 541 L161 541 L161 0 L60 0 L60 541 Z M-53 726 Q-53 752 -36.5 768.5 Q-20 785 5 785 Q31 785 47.5 768.5 Q64 752 64 726 Q64 701 47.5 684 Q31 667 5 667 Q-20 667 -36.5 684 Q-53 701 -53 726 Z M155 726 Q155 752 172 768.5 Q189 785 214 785 Q238 785 255.5 768.5 Q273 752 273 726 Q273 701 255.5 684 Q238 667 214 667 Q189 667 172 684 Q155 701 155 726 Z " />
<glyph glyph-name="eth" unicode="&#xf0;" horiz-adv-x="396" d="M137 0 Q102 0 76.5 24.5 Q51 49 51 85 L51 455 Q51 473 58 488.5 Q65 504 76.5 515.5 Q88 527 103.5 533.5 Q119 540 137 540 L243 540 Q237 565 229 590 Q221 615 214 641 L110 611 L88 688 L192 719 L173 779 L271 807 L290 747 L393 775 L416 700 L312 669 Q327 623 337.5 590.5 Q348 558 354.5 533.5 Q361 509 364.5 490.5 Q368 472 368 454 L368 85 Q368 49 342.5 24.5 Q317 0 281 0 L137 0 Z M187 457 Q173 457 162.5 445.5 Q152 434 152 420 L152 118 Q152 106 162.5 94.5 Q173 83 187 83 L233 83 Q247 83 257.5 94 Q268 105 268 119 L268 422 Q268 434 258.5 445.5 Q249 457 223 457 L187 457 Z " />
<glyph glyph-name="ntilde" unicode="&#xf1;" horiz-adv-x="417" d="M288 540 Q306 540 322 533.5 Q338 527 349.5 515.5 Q361 504 368 488.5 Q375 473 375 455 L375 0 L273 0 L273 421 Q273 433 265.5 444.5 Q258 456 243 456 L198 456 Q183 456 171.5 449.5 Q160 443 160 421 L160 0 L58 0 L58 540 L128 540 Q140 540 148.5 534 Q157 528 159 513 Q170 529 182 534.5 Q194 540 203 540 L288 540 Z M139 775 Q156 775 171.5 768.5 Q187 762 202 754.5 Q217 747 232.5 740.5 Q248 734 266 734 Q278 734 290.5 743 Q303 752 314 775 L388 775 Q383 711 356 676.5 Q329 642 287 642 Q271 642 254 648.5 Q237 655 220.5 663 Q204 671 188.5 677.5 Q173 684 160 684 Q147 684 136 675 Q125 666 115 642 L40 642 Q45 704 72.5 739.5 Q100 775 139 775 Z " />
<glyph glyph-name="ograve" unicode="&#xf2;" horiz-adv-x="406" d="M128 0 Q93 0 67.5 24.5 Q42 49 42 85 L42 455 Q42 473 49 488.5 Q56 504 67.5 515.5 Q79 527 94.5 533.5 Q110 540 128 540 L272 540 Q290 540 306 533.5 Q322 527 334 515.5 Q346 504 352.5 488.5 Q359 473 359 455 L359 85 Q359 49 334 24.5 Q309 0 272 0 L128 0 Z M179 458 Q164 458 153.5 446.5 Q143 435 143 421 L143 118 Q143 106 154 94.5 Q165 83 179 83 L222 83 Q237 83 247 94 Q257 105 257 119 L257 422 Q257 435 249 446.5 Q241 458 215 458 L179 458 Z M235 675 L149 675 L98 774 L193 774 L235 675 Z " />
<glyph glyph-name="oacute" unicode="&#xf3;" horiz-adv-x="406" d="M128 0 Q93 0 67.5 24.5 Q42 49 42 85 L42 455 Q42 473 49 488.5 Q56 504 67.5 515.5 Q79 527 94.5 533.5 Q110 540 128 540 L272 540 Q290 540 306 533.5 Q322 527 334 515.5 Q346 504 352.5 488.5 Q359 473 359 455 L359 85 Q359 49 334 24.5 Q309 0 272 0 L128 0 Z M179 458 Q164 458 153.5 446.5 Q143 435 143 421 L143 118 Q143 106 154 94.5 Q165 83 179 83 L222 83 Q237 83 247 94 Q257 105 257 119 L257 422 Q257 435 249 446.5 Q241 458 215 458 L179 458 Z M211 775 L305 775 L254 676 L167 676 L211 775 Z " />
<glyph glyph-name="ocircumflex" unicode="&#xf4;" horiz-adv-x="406" d="M272 0 Q309 0 334 24.5 Q359 49 359 85 L359 455 Q359 473 352.5 488.5 Q346 504 334 515.5 Q322 527 306 533.5 Q290 540 272 540 L128 540 Q110 540 94.5 533.5 Q79 527 67.5 515.5 Q56 504 49 488.5 Q42 473 42 455 L42 85 Q42 49 67.5 24.5 Q93 0 128 0 L272 0 Z M215 458 Q241 458 249 446.5 Q257 435 257 422 L257 119 Q257 105 247 94 Q237 83 222 83 L179 83 Q165 83 154 94.5 Q143 106 143 118 L143 421 Q143 435 153.5 446.5 Q164 458 179 458 L215 458 Z M153 774 L250 774 L347 626 L249 626 L202 696 L157 626 L57 626 L153 774 Z " />
<glyph glyph-name="otilde" unicode="&#xf5;" horiz-adv-x="406" d="M128 0 Q93 0 67.5 24.5 Q42 49 42 85 L42 455 Q42 473 49 488.5 Q56 504 67.5 515.5 Q79 527 94.5 533.5 Q110 540 128 540 L272 540 Q290 540 306 533.5 Q322 527 334 515.5 Q346 504 352.5 488.5 Q359 473 359 455 L359 85 Q359 49 334 24.5 Q309 0 272 0 L128 0 Z M179 458 Q164 458 153.5 446.5 Q143 435 143 421 L143 118 Q143 106 154 94.5 Q165 83 179 83 L222 83 Q237 83 247 94 Q257 105 257 119 L257 422 Q257 435 249 446.5 Q241 458 215 458 L179 458 Z M134 775 Q151 775 166.5 768.5 Q182 762 197 754.5 Q212 747 227.5 740.5 Q243 734 261 734 Q273 734 285.5 743 Q298 752 309 775 L383 775 Q378 711 351 676.5 Q324 642 282 642 Q266 642 249 648.5 Q232 655 215.5 663 Q199 671 183.5 677.5 Q168 684 155 684 Q142 684 131 675 Q120 666 110 642 L35 642 Q40 704 67.5 739.5 Q95 775 134 775 Z " />
<glyph glyph-name="odieresis" unicode="&#xf6;" horiz-adv-x="406" d="M128 0 Q93 0 67.5 24.5 Q42 49 42 85 L42 455 Q42 473 49 488.5 Q56 504 67.5 515.5 Q79 527 94.5 533.5 Q110 540 128 540 L272 540 Q290 540 306 533.5 Q322 527 334 515.5 Q346 504 352.5 488.5 Q359 473 359 455 L359 85 Q359 49 334 24.5 Q309 0 272 0 L128 0 Z M179 458 Q164 458 153.5 446.5 Q143 435 143 421 L143 118 Q143 106 154 94.5 Q165 83 179 83 L222 83 Q237 83 247 94 Q257 105 257 119 L257 422 Q257 435 249 446.5 Q241 458 215 458 L179 458 Z M38 726 Q38 752 54.5 768.5 Q71 785 96 785 Q122 785 138.5 768.5 Q155 752 155 726 Q155 701 138.5 684 Q122 667 96 667 Q71 667 54.5 684 Q38 701 38 726 Z M246 726 Q246 752 263 768.5 Q280 785 305 785 Q329 785 346.5 768.5 Q364 752 364 726 Q364 701 346.5 684 Q329 667 305 667 Q280 667 263 684 Q246 701 246 726 Z " />
<glyph glyph-name="divide" unicode="&#xf7;" horiz-adv-x="369" d="M32 211 L32 309 L344 309 L344 211 L32 211 Z M139 99 L238 99 L238 0 L139 0 L139 99 Z M139 524 L238 524 L238 425 L139 425 L139 524 Z " />
<glyph glyph-name="oslash" unicode="&#xf8;" horiz-adv-x="450" d="M139 0 L111 -53 L-6 -53 L58 72 L58 455 Q58 473 65 488.5 Q72 504 83.5 515.5 Q95 527 110.5 533.5 Q126 540 144 540 L300 540 L328 592 L449 592 L375 453 L375 85 Q375 49 349.5 24.5 Q324 0 289 0 L139 0 Z M195 458 Q180 458 169.5 446.5 Q159 435 159 421 L159 118 Q159 107 169.5 95 Q180 83 195 83 L239 83 Q254 83 263.5 94 Q273 105 273 119 L273 422 Q273 435 264.5 446.5 Q256 458 230 458 L195 458 Z " />
<glyph glyph-name="ugrave" unicode="&#xf9;" horiz-adv-x="410" d="M138 0 Q101 0 76 24.5 Q51 49 51 85 L51 540 L153 540 L153 119 Q153 107 160 95.5 Q167 84 183 84 L227 84 Q243 84 254.5 90.5 Q266 97 266 119 L266 540 L368 540 L368 0 L297 0 Q286 0 277 6 Q268 12 266 27 Q255 11 243 5.5 Q231 0 223 0 L138 0 Z M275 675 L189 675 L138 774 L233 774 L275 675 Z " />
<glyph glyph-name="uacute" unicode="&#xfa;" horiz-adv-x="410" d="M138 0 Q101 0 76 24.5 Q51 49 51 85 L51 540 L153 540 L153 119 Q153 107 160 95.5 Q167 84 183 84 L227 84 Q243 84 254.5 90.5 Q266 97 266 119 L266 540 L368 540 L368 0 L297 0 Q286 0 277 6 Q268 12 266 27 Q255 11 243 5.5 Q231 0 223 0 L138 0 Z M212 775 L306 775 L255 676 L168 676 L212 775 Z " />
<glyph glyph-name="ucircumflex" unicode="&#xfb;" horiz-adv-x="410" d="M138 0 Q101 0 76 24.5 Q51 49 51 85 L51 540 L153 540 L153 119 Q153 107 160 95.5 Q167 84 183 84 L227 84 Q243 84 254.5 90.5 Q266 97 266 119 L266 540 L368 540 L368 0 L297 0 Q286 0 277 6 Q268 12 266 27 Q255 11 243 5.5 Q231 0 223 0 L138 0 Z M158 774 L255 774 L352 626 L254 626 L207 696 L162 626 L62 626 L158 774 Z " />
<glyph glyph-name="udieresis" unicode="&#xfc;" horiz-adv-x="410" d="M138 0 Q101 0 76 24.5 Q51 49 51 85 L51 540 L153 540 L153 119 Q153 107 160 95.5 Q167 84 183 84 L227 84 Q243 84 254.5 90.5 Q266 97 266 119 L266 540 L368 540 L368 0 L297 0 Q286 0 277 6 Q268 12 266 27 Q255 11 243 5.5 Q231 0 223 0 L138 0 Z M44 726 Q44 752 60.5 768.5 Q77 785 102 785 Q128 785 144.5 768.5 Q161 752 161 726 Q161 701 144.5 684 Q128 667 102 667 Q77 667 60.5 684 Q44 701 44 726 Z M252 726 Q252 752 269 768.5 Q286 785 311 785 Q335 785 352.5 768.5 Q370 752 370 726 Q370 701 352.5 684 Q335 667 311 667 Q286 667 269 684 Q252 701 252 726 Z " />
<glyph glyph-name="yacute" unicode="&#xfd;" horiz-adv-x="412" d="M371 540 L371 -145 Q371 -163 364 -178.5 Q357 -194 345.5 -205.5 Q334 -217 318 -224 Q302 -231 284 -231 L140 -231 Q122 -231 106.5 -224 Q91 -217 79 -205.5 Q67 -194 60.5 -178.5 Q54 -163 54 -145 L54 -73 L155 -73 L155 -111 Q155 -127 165.5 -137.5 Q176 -148 191 -148 L239 -148 Q252 -146 260.5 -136 Q269 -126 269 -111 L269 26 Q258 12 246 6 Q234 0 226 0 L140 0 Q104 0 79 24.5 Q54 49 54 85 L54 540 L155 540 L155 119 Q155 107 162.5 95.5 Q170 84 186 84 L230 84 Q244 84 256.5 88 Q269 92 269 115 L269 540 L371 540 Z M213 775 L307 775 L256 676 L169 676 L213 775 Z " />
<glyph glyph-name="thorn" unicode="&#xfe;" horiz-adv-x="412" d="M268 422 Q268 435 260.5 446.5 Q253 458 238 458 L192 458 Q178 458 166 454 Q154 450 154 427 L154 119 Q154 98 166 90.5 Q178 83 192 83 L232 83 Q246 83 257 94.5 Q268 106 268 118 L268 422 Z M152 -231 L52 -231 L52 774 L152 774 L152 518 Q162 530 173 536 Q184 542 192 542 L283 542 Q301 542 316.5 535.5 Q332 529 343.5 517 Q355 505 362 489.5 Q369 474 369 456 L369 85 Q369 49 343.5 24.5 Q318 0 283 0 L192 0 Q184 0 173.5 5 Q163 10 152 24 L152 -231 Z " />
<glyph glyph-name="ydieresis" unicode="&#xff;" horiz-adv-x="412" d="M371 540 L371 -145 Q371 -163 364 -178.5 Q357 -194 345.5 -205.5 Q334 -217 318 -224 Q302 -231 284 -231 L140 -231 Q122 -231 106.5 -224 Q91 -217 79 -205.5 Q67 -194 60.5 -178.5 Q54 -163 54 -145 L54 -73 L155 -73 L155 -111 Q155 -127 165.5 -137.5 Q176 -148 191 -148 L239 -148 Q252 -146 260.5 -136 Q269 -126 269 -111 L269 26 Q258 12 246 6 Q234 0 226 0 L140 0 Q104 0 79 24.5 Q54 49 54 85 L54 540 L155 540 L155 119 Q155 107 162.5 95.5 Q170 84 186 84 L230 84 Q244 84 256.5 88 Q269 92 269 115 L269 540 L371 540 Z M45 726 Q45 752 61.5 768.5 Q78 785 103 785 Q129 785 145.5 768.5 Q162 752 162 726 Q162 701 145.5 684 Q129 667 103 667 Q78 667 61.5 684 Q45 701 45 726 Z M253 726 Q253 752 270 768.5 Q287 785 312 785 Q336 785 353.5 768.5 Q371 752 371 726 Q371 701 353.5 684 Q336 667 312 667 Q287 667 270 684 Q253 701 253 726 Z " />
<glyph glyph-name="Amacron" unicode="&#x100;" horiz-adv-x="442" d="M327 0 L295 156 L141 156 L110 0 L3 0 L171 749 L267 749 L435 0 L327 0 Z M198 422 L159 237 L278 237 L240 422 L228 620 L211 620 L198 422 Z M74 980 L364 980 L364 897 L74 897 L74 980 Z " />
<glyph glyph-name="amacron" unicode="&#x101;" horiz-adv-x="416" d="M152 118 Q152 106 162.5 94.5 Q173 83 188 83 L227 83 Q241 83 253.5 90.5 Q266 98 266 119 L266 425 Q266 448 253.5 452 Q241 456 227 456 L182 456 Q167 456 159.5 444.5 Q152 433 152 421 L152 118 Z M227 540 Q236 540 248 534.5 Q260 529 271 513 Q273 528 282 534 Q291 540 302 540 L368 540 L368 0 L289 0 L267 28 Q258 16 247 8 Q236 0 225 0 L137 0 Q101 0 76 24.5 Q51 49 51 85 L51 455 Q51 490 76 515 Q101 540 137 540 L227 540 Z M58 774 L348 774 L348 690 L58 690 L58 774 Z " />
<glyph glyph-name="Abreve" unicode="&#x102;" horiz-adv-x="442" d="M329 0 L297 156 L143 156 L112 0 L5 0 L173 749 L269 749 L437 0 L329 0 Z M200 422 L161 237 L280 237 L242 422 L230 620 L213 620 L200 422 Z M378 979 L378 949 Q378 931 371 915.5 Q364 900 352.5 888.5 Q341 877 325.5 870.5 Q310 864 292 864 L150 864 Q133 864 117.5 870.5 Q102 877 90.5 888.5 Q79 900 72 915.5 Q65 931 65 949 L65 979 L165 979 Q168 964 177 954 Q186 944 199 944 L236 944 Q256 944 267 954.5 Q278 965 280 979 L378 979 Z " />
<glyph glyph-name="abreve" unicode="&#x103;" horiz-adv-x="416" d="M152 118 Q152 106 162.5 94.5 Q173 83 188 83 L227 83 Q241 83 253.5 90.5 Q266 98 266 119 L266 425 Q266 448 253.5 452 Q241 456 227 456 L182 456 Q167 456 159.5 444.5 Q152 433 152 421 L152 118 Z M227 540 Q236 540 248 534.5 Q260 529 271 513 Q273 528 282 534 Q291 540 302 540 L368 540 L368 0 L289 0 L267 28 Q258 16 247 8 Q236 0 225 0 L137 0 Q101 0 76 24.5 Q51 49 51 85 L51 455 Q51 490 76 515 Q101 540 137 540 L227 540 Z M369 774 L369 744 Q369 726 362 710.5 Q355 695 343.5 683.5 Q332 672 316.5 665.5 Q301 659 283 659 L141 659 Q124 659 108.5 665.5 Q93 672 81.5 683.5 Q70 695 63 710.5 Q56 726 56 744 L56 774 L156 774 Q159 759 168 749 Q177 739 190 739 L227 739 Q247 739 258 749.5 Q269 760 271 774 L369 774 Z " />
<glyph glyph-name="Aogonek" unicode="&#x104;" horiz-adv-x="442" d="M332 0 L300 156 L146 156 L115 0 L8 0 L176 749 L272 749 L440 0 L332 0 Z M203 422 L164 237 L283 237 L245 422 L233 620 L216 620 L203 422 Z M468 -214 Q448 -218 423 -218 Q367 -218 343 -192 Q319 -166 319 -131 Q319 -115 324 -97 Q329 -79 338 -61 Q347 -43 358.5 -27 Q370 -11 383 0 L412 0 Q398 -24 390.5 -45 Q383 -66 383 -83 Q383 -106 398.5 -121.5 Q414 -137 451 -138 L474 -203 L468 -214 Z " />
<glyph glyph-name="aogonek" unicode="&#x105;" horiz-adv-x="416" d="M152 118 Q152 106 162.5 94.5 Q173 83 188 83 L227 83 Q241 83 253.5 90.5 Q266 98 266 119 L266 425 Q266 448 253.5 452 Q241 456 227 456 L182 456 Q167 456 159.5 444.5 Q152 433 152 421 L152 118 Z M227 540 Q236 540 248 534.5 Q260 529 271 513 Q273 528 282 534 Q291 540 302 540 L368 540 L368 0 L289 0 L267 28 Q258 16 247 8 Q236 0 225 0 L137 0 Q101 0 76 24.5 Q51 49 51 85 L51 455 Q51 490 76 515 Q101 540 137 540 L227 540 Z M374 -214 Q354 -218 329 -218 Q273 -218 249 -192 Q225 -166 225 -131 Q225 -115 230 -97 Q235 -79 244 -61 Q253 -43 264.5 -27 Q276 -11 289 0 L318 0 Q304 -24 296.5 -45 Q289 -66 289 -83 Q289 -106 304.5 -121.5 Q320 -137 357 -138 L380 -203 L374 -214 Z " />
<glyph glyph-name="Cacute" unicode="&#x106;" horiz-adv-x="407" d="M362 295 L362 84 Q362 49 338 24.5 Q314 0 278 0 L136 0 Q101 0 76 24.5 Q51 49 51 84 L51 665 Q51 700 76 724.5 Q101 749 136 749 L278 749 Q314 749 338 724.5 Q362 700 362 665 L362 438 L264 438 L264 632 Q264 644 256 656 Q248 668 233 668 L181 668 Q166 668 158.5 656 Q151 644 151 632 L151 117 Q151 103 159.5 92.5 Q168 82 180 80 L229 80 Q243 80 253.5 91.5 Q264 103 264 117 L264 295 L362 295 Z M212 984 L306 984 L255 885 L168 885 L212 984 Z " />
<glyph glyph-name="cacute" unicode="&#x107;" horiz-adv-x="399" d="M367 145 L367 85 Q367 49 341.5 24.5 Q316 0 280 0 L136 0 Q101 0 75.5 24.5 Q50 49 50 85 L50 455 Q50 473 57 488.5 Q64 504 75.5 515.5 Q87 527 102.5 533.5 Q118 540 136 540 L280 540 Q298 540 314 533.5 Q330 527 341.5 515.5 Q353 504 360 488.5 Q367 473 367 455 L367 392 L265 392 L265 421 Q265 433 258 444.5 Q251 456 234 456 L181 456 Q166 456 158.5 444.5 Q151 433 151 421 L151 119 Q151 105 160 95 Q169 85 181 83 L230 83 Q245 83 255 94 Q265 105 265 119 L265 145 L367 145 Z M210 775 L304 775 L253 676 L166 676 L210 775 Z " />
<glyph glyph-name="Ccircumflex" unicode="&#x108;" horiz-adv-x="407" d="M264 295 L264 117 Q264 103 253.5 91.5 Q243 80 229 80 L180 80 Q168 82 159.5 92.5 Q151 103 151 117 L151 632 Q151 644 158.5 656 Q166 668 181 668 L233 668 Q248 668 256 656 Q264 644 264 632 L264 438 L362 438 L362 665 Q362 700 338 724.5 Q314 749 278 749 L136 749 Q101 749 76 724.5 Q51 700 51 665 L51 84 Q51 49 76 24.5 Q101 0 136 0 L278 0 Q314 0 338 24.5 Q362 49 362 84 L362 295 L264 295 Z M157 983 L254 983 L351 835 L253 835 L206 905 L161 835 L61 835 L157 983 Z " />
<glyph glyph-name="ccircumflex" unicode="&#x109;" horiz-adv-x="399" d="M265 145 L265 119 Q265 105 255 94 Q245 83 230 83 L181 83 Q169 85 160 95 Q151 105 151 119 L151 421 Q151 433 158.5 444.5 Q166 456 181 456 L234 456 Q251 456 258 444.5 Q265 433 265 421 L265 392 L367 392 L367 455 Q367 473 360 488.5 Q353 504 341.5 515.5 Q330 527 314 533.5 Q298 540 280 540 L136 540 Q118 540 102.5 533.5 Q87 527 75.5 515.5 Q64 504 57 488.5 Q50 473 50 455 L50 85 Q50 49 75.5 24.5 Q101 0 136 0 L280 0 Q316 0 341.5 24.5 Q367 49 367 85 L367 145 L265 145 Z M153 774 L250 774 L347 626 L249 626 L202 696 L157 626 L57 626 L153 774 Z " />
<glyph glyph-name="Cdotaccent" unicode="&#x10a;" horiz-adv-x="407" d="M362 295 L362 84 Q362 49 338 24.5 Q314 0 278 0 L136 0 Q101 0 76 24.5 Q51 49 51 84 L51 665 Q51 700 76 724.5 Q101 749 136 749 L278 749 Q314 749 338 724.5 Q362 700 362 665 L362 438 L264 438 L264 632 Q264 644 256 656 Q248 668 233 668 L181 668 Q166 668 158.5 656 Q151 644 151 632 L151 117 Q151 103 159.5 92.5 Q168 82 180 80 L229 80 Q243 80 253.5 91.5 Q264 103 264 117 L264 295 L362 295 Z M146 925 Q146 951 163.5 967.5 Q181 984 204 984 Q230 984 246.5 967.5 Q263 951 263 925 Q263 900 246.5 883 Q230 866 204 866 Q181 866 163.5 883 Q146 900 146 925 Z " />
<glyph glyph-name="cdotaccent" unicode="&#x10b;" horiz-adv-x="399" d="M367 145 L367 85 Q367 49 341.5 24.5 Q316 0 280 0 L136 0 Q101 0 75.5 24.5 Q50 49 50 85 L50 455 Q50 473 57 488.5 Q64 504 75.5 515.5 Q87 527 102.5 533.5 Q118 540 136 540 L280 540 Q298 540 314 533.5 Q330 527 341.5 515.5 Q353 504 360 488.5 Q367 473 367 455 L367 392 L265 392 L265 421 Q265 433 258 444.5 Q251 456 234 456 L181 456 Q166 456 158.5 444.5 Q151 433 151 421 L151 119 Q151 105 160 95 Q169 85 181 83 L230 83 Q245 83 255 94 Q265 105 265 119 L265 145 L367 145 Z M142 726 Q142 752 159.5 768.5 Q177 785 200 785 Q226 785 242.5 768.5 Q259 752 259 726 Q259 701 242.5 684 Q226 667 200 667 Q177 667 159.5 684 Q142 701 142 726 Z " />
<glyph glyph-name="Ccaron" unicode="&#x10c;" horiz-adv-x="407" d="M362 295 L362 84 Q362 49 338 24.5 Q314 0 278 0 L136 0 Q101 0 76 24.5 Q51 49 51 84 L51 665 Q51 700 76 724.5 Q101 749 136 749 L278 749 Q314 749 338 724.5 Q362 700 362 665 L362 438 L264 438 L264 632 Q264 644 256 656 Q248 668 233 668 L181 668 Q166 668 158.5 656 Q151 644 151 632 L151 117 Q151 103 159.5 92.5 Q168 82 180 80 L229 80 Q243 80 253.5 91.5 Q264 103 264 117 L264 295 L362 295 Z M61 983 L160 983 L207 913 L253 983 L351 983 Q340 964 324.5 940 Q309 916 297 899 Q287 884 276 868 Q265 852 254 835 L157 835 L61 983 Z " />
<glyph glyph-name="ccaron" unicode="&#x10d;" horiz-adv-x="399" d="M367 145 L367 85 Q367 49 341.5 24.5 Q316 0 280 0 L136 0 Q101 0 75.5 24.5 Q50 49 50 85 L50 455 Q50 473 57 488.5 Q64 504 75.5 515.5 Q87 527 102.5 533.5 Q118 540 136 540 L280 540 Q298 540 314 533.5 Q330 527 341.5 515.5 Q353 504 360 488.5 Q367 473 367 455 L367 392 L265 392 L265 421 Q265 433 258 444.5 Q251 456 234 456 L181 456 Q166 456 158.5 444.5 Q151 433 151 421 L151 119 Q151 105 160 95 Q169 85 181 83 L230 83 Q245 83 255 94 Q265 105 265 119 L265 145 L367 145 Z M57 774 L156 774 L203 704 L249 774 L347 774 Q336 755 320.5 731 Q305 707 293 690 Q283 675 272 659 Q261 643 250 626 L153 626 L57 774 Z " />
<glyph glyph-name="Dcaron" unicode="&#x10e;" horiz-adv-x="415" d="M61 749 L287 749 Q305 749 320.5 742.5 Q336 736 347.5 724.5 Q359 713 366 697.5 Q373 682 373 665 L373 84 Q373 67 366 51.5 Q359 36 347.5 24.5 Q336 13 320.5 6.5 Q305 0 287 0 L61 0 L61 749 Z M274 633 Q274 646 265.5 658 Q257 670 242 670 L160 670 L160 80 L238 80 Q252 80 263 91.5 Q274 103 274 117 L274 633 Z M65 983 L164 983 L211 913 L257 983 L355 983 Q344 964 328.5 940 Q313 916 301 899 Q291 884 280 868 Q269 852 258 835 L161 835 L65 983 Z " />
<glyph glyph-name="dcaron" unicode="&#x10f;" horiz-adv-x="530" d="M369 775 L369 0 L292 0 L271 28 Q261 16 250.5 8 Q240 0 228 0 L138 0 Q102 0 77 24.5 Q52 49 52 85 L52 455 Q52 490 77 515 Q102 540 138 540 L216 540 Q224 540 240 533 Q256 526 268 513 L268 775 L369 775 Z M154 118 Q154 106 164 94.5 Q174 83 188 83 L229 83 Q243 83 255.5 89.5 Q268 96 268 118 L268 425 Q268 448 255.5 452 Q243 456 229 456 L185 456 Q169 456 161.5 444.5 Q154 433 154 421 L154 118 Z M430 775 L529 775 L529 684 Q529 648 527.5 621.5 Q526 595 516.5 578.5 Q507 562 487 554 Q467 546 430 546 L430 593 Q450 593 461 597.5 Q472 602 477.5 612 Q483 622 484 638 Q485 654 485 677 L430 677 L430 775 Z " />
<glyph glyph-name="Dcroat" unicode="&#x110;" horiz-adv-x="425" d="M71 749 L297 749 Q315 749 330.5 742.5 Q346 736 357.5 724.5 Q369 713 376 697.5 Q383 682 383 665 L383 84 Q383 67 376 51.5 Q369 36 357.5 24.5 Q346 13 330.5 6.5 Q315 0 297 0 L71 0 L71 749 Z M284 633 Q284 646 275.5 658 Q267 670 252 670 L170 670 L170 80 L248 80 Q262 80 273 91.5 Q284 103 284 117 L284 633 Z M32 396 L215 396 L215 299 L32 299 L32 396 Z " />
<glyph glyph-name="dcroat" unicode="&#x111;" horiz-adv-x="428" d="M369 775 L369 0 L292 0 L271 28 Q261 16 250.5 8 Q240 0 228 0 L138 0 Q102 0 77 24.5 Q52 49 52 85 L52 455 Q52 490 77 515 Q102 540 138 540 L216 540 Q224 540 240 533 Q256 526 268 513 L268 775 L369 775 Z M154 118 Q154 106 164 94.5 Q174 83 188 83 L229 83 Q243 83 255.5 89.5 Q268 96 268 118 L268 425 Q268 448 255.5 452 Q243 456 229 456 L185 456 Q169 456 161.5 444.5 Q154 433 154 421 L154 118 Z M197 678 L411 678 L411 593 L197 593 L197 678 Z " />
<glyph glyph-name="Emacron" unicode="&#x112;" horiz-adv-x="412" d="M61 749 L374 749 L374 650 L160 650 L160 416 L342 416 L342 317 L160 317 L160 99 L374 99 L374 0 L61 0 L61 749 Z M58 981 L348 981 L348 898 L58 898 L58 981 Z " />
<glyph glyph-name="emacron" unicode="&#x113;" horiz-adv-x="403" d="M368 145 L368 85 Q368 49 342.5 24.5 Q317 0 281 0 L137 0 Q101 0 76 24.5 Q51 49 51 85 L51 455 Q51 490 76 515 Q101 540 137 540 L281 540 Q299 540 315 533.5 Q331 527 342.5 515.5 Q354 504 361 488.5 Q368 473 368 455 L368 253 L152 253 L152 119 Q152 105 161 95 Q170 85 182 83 L231 83 Q246 83 256 94 Q266 105 266 119 L266 145 L368 145 Z M152 332 L266 332 L266 421 Q266 433 259 444.5 Q252 456 235 456 L182 456 Q167 456 159.5 444.5 Q152 433 152 421 L152 332 Z M58 774 L348 774 L348 690 L58 690 L58 774 Z " />
<glyph glyph-name="Ebreve" unicode="&#x114;" horiz-adv-x="412" d="M61 749 L374 749 L374 650 L160 650 L160 416 L342 416 L342 317 L160 317 L160 99 L374 99 L374 0 L61 0 L61 749 Z M365 979 L365 949 Q365 931 358 915.5 Q351 900 339.5 888.5 Q328 877 312.5 870.5 Q297 864 279 864 L137 864 Q120 864 104.5 870.5 Q89 877 77.5 888.5 Q66 900 59 915.5 Q52 931 52 949 L52 979 L152 979 Q155 964 164 954 Q173 944 186 944 L223 944 Q243 944 254 954.5 Q265 965 267 979 L365 979 Z " />
<glyph glyph-name="ebreve" unicode="&#x115;" horiz-adv-x="403" d="M368 145 L368 85 Q368 49 342.5 24.5 Q317 0 281 0 L137 0 Q101 0 76 24.5 Q51 49 51 85 L51 455 Q51 490 76 515 Q101 540 137 540 L281 540 Q299 540 315 533.5 Q331 527 342.5 515.5 Q354 504 361 488.5 Q368 473 368 455 L368 253 L152 253 L152 119 Q152 105 161 95 Q170 85 182 83 L231 83 Q246 83 256 94 Q266 105 266 119 L266 145 L368 145 Z M152 332 L266 332 L266 421 Q266 433 259 444.5 Q252 456 235 456 L182 456 Q167 456 159.5 444.5 Q152 433 152 421 L152 332 Z M363 774 L363 744 Q363 726 356 710.5 Q349 695 337.5 683.5 Q326 672 310.5 665.5 Q295 659 277 659 L135 659 Q118 659 102.5 665.5 Q87 672 75.5 683.5 Q64 695 57 710.5 Q50 726 50 744 L50 774 L150 774 Q153 759 162 749 Q171 739 184 739 L221 739 Q241 739 252 749.5 Q263 760 265 774 L363 774 Z " />
<glyph glyph-name="Edotaccent" unicode="&#x116;" horiz-adv-x="412" d="M61 749 L374 749 L374 650 L160 650 L160 416 L342 416 L342 317 L160 317 L160 99 L374 99 L374 0 L61 0 L61 749 Z M149 925 Q149 951 166.5 967.5 Q184 984 207 984 Q233 984 249.5 967.5 Q266 951 266 925 Q266 900 249.5 883 Q233 866 207 866 Q184 866 166.5 883 Q149 900 149 925 Z " />
<glyph glyph-name="edotaccent" unicode="&#x117;" horiz-adv-x="403" d="M368 145 L368 85 Q368 49 342.5 24.5 Q317 0 281 0 L137 0 Q101 0 76 24.5 Q51 49 51 85 L51 455 Q51 490 76 515 Q101 540 137 540 L281 540 Q299 540 315 533.5 Q331 527 342.5 515.5 Q354 504 361 488.5 Q368 473 368 455 L368 253 L152 253 L152 119 Q152 105 161 95 Q170 85 182 83 L231 83 Q246 83 256 94 Q266 105 266 119 L266 145 L368 145 Z M152 332 L266 332 L266 421 Q266 433 259 444.5 Q252 456 235 456 L182 456 Q167 456 159.5 444.5 Q152 433 152 421 L152 332 Z M144 726 Q144 752 161.5 768.5 Q179 785 202 785 Q228 785 244.5 768.5 Q261 752 261 726 Q261 701 244.5 684 Q228 667 202 667 Q179 667 161.5 684 Q144 701 144 726 Z " />
<glyph glyph-name="Eogonek" unicode="&#x118;" horiz-adv-x="412" d="M61 749 L374 749 L374 650 L160 650 L160 416 L342 416 L342 317 L160 317 L160 99 L374 99 L374 0 L61 0 L61 749 Z M327 -214 Q307 -218 282 -218 Q226 -218 202 -192 Q178 -166 178 -131 Q178 -115 183 -97 Q188 -79 197 -61 Q206 -43 217.5 -27 Q229 -11 242 0 L271 0 Q257 -24 249.5 -45 Q242 -66 242 -83 Q242 -106 257.5 -121.5 Q273 -137 310 -138 L333 -203 L327 -214 Z " />
<glyph glyph-name="eogonek" unicode="&#x119;" horiz-adv-x="403" d="M368 145 L368 85 Q368 49 342.5 24.5 Q317 0 281 0 L137 0 Q101 0 76 24.5 Q51 49 51 85 L51 455 Q51 490 76 515 Q101 540 137 540 L281 540 Q299 540 315 533.5 Q331 527 342.5 515.5 Q354 504 361 488.5 Q368 473 368 455 L368 253 L152 253 L152 119 Q152 105 161 95 Q170 85 182 83 L231 83 Q246 83 256 94 Q266 105 266 119 L266 145 L368 145 Z M152 332 L266 332 L266 421 Q266 433 259 444.5 Q252 456 235 456 L182 456 Q167 456 159.5 444.5 Q152 433 152 421 L152 332 Z M325 -214 Q305 -218 280 -218 Q224 -218 200 -192 Q176 -166 176 -131 Q176 -115 181 -97 Q186 -79 195 -61 Q204 -43 215.5 -27 Q227 -11 240 0 L269 0 Q255 -24 247.5 -45 Q240 -66 240 -83 Q240 -106 255.5 -121.5 Q271 -137 308 -138 L331 -203 L325 -214 Z " />
<glyph glyph-name="Ecaron" unicode="&#x11a;" horiz-adv-x="412" d="M61 749 L374 749 L374 650 L160 650 L160 416 L342 416 L342 317 L160 317 L160 99 L374 99 L374 0 L61 0 L61 749 Z M64 983 L163 983 L210 913 L256 983 L354 983 Q343 964 327.5 940 Q312 916 300 899 Q290 884 279 868 Q268 852 257 835 L160 835 L64 983 Z " />
<glyph glyph-name="ecaron" unicode="&#x11b;" horiz-adv-x="403" d="M368 145 L368 85 Q368 49 342.5 24.5 Q317 0 281 0 L137 0 Q101 0 76 24.5 Q51 49 51 85 L51 455 Q51 490 76 515 Q101 540 137 540 L281 540 Q299 540 315 533.5 Q331 527 342.5 515.5 Q354 504 361 488.5 Q368 473 368 455 L368 253 L152 253 L152 119 Q152 105 161 95 Q170 85 182 83 L231 83 Q246 83 256 94 Q266 105 266 119 L266 145 L368 145 Z M152 332 L266 332 L266 421 Q266 433 259 444.5 Q252 456 235 456 L182 456 Q167 456 159.5 444.5 Q152 433 152 421 L152 332 Z M59 773 L158 773 L205 703 L251 773 L349 773 Q338 754 322.5 730 Q307 706 295 689 Q285 674 274 658 Q263 642 252 625 L155 625 L59 773 Z " />
<glyph glyph-name="Gcircumflex" unicode="&#x11c;" horiz-adv-x="409" d="M208 0 Q219 0 230 8 Q241 16 251 28 L272 0 L362 0 L362 336 L224 336 L224 237 L264 237 L264 117 Q264 98 251.5 89 Q239 80 225 80 L180 80 Q168 82 159.5 92.5 Q151 103 151 117 L151 632 Q151 644 158.5 656 Q166 668 181 668 L233 668 Q248 668 256 656 Q264 644 264 632 L264 479 L362 479 L362 665 Q362 700 338 724.5 Q314 749 278 749 L136 749 Q101 749 76 724.5 Q51 700 51 665 L51 84 Q51 49 76 24.5 Q101 0 136 0 L208 0 Z M158 983 L255 983 L352 835 L254 835 L207 905 L162 835 L62 835 L158 983 Z " />
<glyph glyph-name="gcircumflex" unicode="&#x11d;" horiz-adv-x="409" d="M152 422 Q152 434 159.5 445.5 Q167 457 182 457 L227 457 Q241 457 253.5 453 Q266 449 266 426 L266 119 Q266 98 253.5 90.5 Q241 83 227 83 L188 83 Q174 83 163 94.5 Q152 106 152 118 L152 422 Z M223 0 Q231 0 243 6 Q255 12 266 26 L266 -112 Q266 -126 257.5 -136.5 Q249 -147 236 -149 L188 -149 Q173 -149 162.5 -138 Q152 -127 152 -112 L152 -76 L51 -76 L51 -146 Q51 -181 76 -206 Q101 -231 137 -231 L281 -231 Q299 -231 315 -224.5 Q331 -218 342.5 -206.5 Q354 -195 361 -179.5 Q368 -164 368 -146 L368 540 L292 540 Q287 540 281 538.5 Q275 537 271 528 Q266 532 260 536 Q254 540 246 540 L137 540 Q101 540 76 515 Q51 490 51 455 L51 85 Q51 49 76 24.5 Q101 0 137 0 L223 0 Z M158 773 L255 773 L352 625 L254 625 L207 695 L162 625 L62 625 L158 773 Z " />
<glyph glyph-name="Gbreve" unicode="&#x11e;" horiz-adv-x="409" d="M136 0 Q101 0 76 24.5 Q51 49 51 84 L51 665 Q51 700 76 724.5 Q101 749 136 749 L278 749 Q314 749 338 724.5 Q362 700 362 665 L362 479 L264 479 L264 632 Q264 644 256 656 Q248 668 233 668 L181 668 Q166 668 158.5 656 Q151 644 151 632 L151 117 Q151 103 159.5 92.5 Q168 82 180 80 L225 80 Q239 80 251.5 89 Q264 98 264 117 L264 237 L224 237 L224 336 L362 336 L362 0 L272 0 L251 28 Q241 16 230 8 Q219 0 208 0 L136 0 Z M358 980 L358 950 Q358 932 351 916.5 Q344 901 332.5 889.5 Q321 878 305.5 871.5 Q290 865 272 865 L130 865 Q113 865 97.5 871.5 Q82 878 70.5 889.5 Q59 901 52 916.5 Q45 932 45 950 L45 980 L145 980 Q148 965 157 955 Q166 945 179 945 L216 945 Q236 945 247 955.5 Q258 966 260 980 L358 980 Z " />
<glyph glyph-name="gbreve" unicode="&#x11f;" horiz-adv-x="409" d="M152 118 Q152 106 163 94.5 Q174 83 188 83 L227 83 Q241 83 253.5 90.5 Q266 98 266 119 L266 426 Q266 449 253.5 453 Q241 457 227 457 L182 457 Q167 457 159.5 445.5 Q152 434 152 422 L152 118 Z M137 0 Q101 0 76 24.5 Q51 49 51 85 L51 455 Q51 490 76 515 Q101 540 137 540 L246 540 Q254 540 260 536 Q266 532 271 528 Q275 537 281 538.5 Q287 540 292 540 L368 540 L368 -146 Q368 -164 361 -179.5 Q354 -195 342.5 -206.5 Q331 -218 315 -224.5 Q299 -231 281 -231 L137 -231 Q101 -231 76 -206 Q51 -181 51 -146 L51 -76 L152 -76 L152 -112 Q152 -127 162.5 -138 Q173 -149 188 -149 L236 -149 Q249 -147 257.5 -136.5 Q266 -126 266 -112 L266 26 Q255 12 243 6 Q231 0 223 0 L137 0 Z M365 774 L365 744 Q365 726 358 710.5 Q351 695 339.5 683.5 Q328 672 312.5 665.5 Q297 659 279 659 L137 659 Q120 659 104.5 665.5 Q89 672 77.5 683.5 Q66 695 59 710.5 Q52 726 52 744 L52 774 L152 774 Q155 759 164 749 Q173 739 186 739 L223 739 Q243 739 254 749.5 Q265 760 267 774 L365 774 Z " />
<glyph glyph-name="Gdotaccent" unicode="&#x120;" horiz-adv-x="409" d="M136 0 Q101 0 76 24.5 Q51 49 51 84 L51 665 Q51 700 76 724.5 Q101 749 136 749 L278 749 Q314 749 338 724.5 Q362 700 362 665 L362 479 L264 479 L264 632 Q264 644 256 656 Q248 668 233 668 L181 668 Q166 668 158.5 656 Q151 644 151 632 L151 117 Q151 103 159.5 92.5 Q168 82 180 80 L225 80 Q239 80 251.5 89 Q264 98 264 117 L264 237 L224 237 L224 336 L362 336 L362 0 L272 0 L251 28 Q241 16 230 8 Q219 0 208 0 L136 0 Z M147 925 Q147 951 164.5 967.5 Q182 984 205 984 Q231 984 247.5 967.5 Q264 951 264 925 Q264 900 247.5 883 Q231 866 205 866 Q182 866 164.5 883 Q147 900 147 925 Z " />
<glyph glyph-name="gdotaccent" unicode="&#x121;" horiz-adv-x="409" d="M152 118 Q152 106 163 94.5 Q174 83 188 83 L227 83 Q241 83 253.5 90.5 Q266 98 266 119 L266 426 Q266 449 253.5 453 Q241 457 227 457 L182 457 Q167 457 159.5 445.5 Q152 434 152 422 L152 118 Z M137 0 Q101 0 76 24.5 Q51 49 51 85 L51 455 Q51 490 76 515 Q101 540 137 540 L246 540 Q254 540 260 536 Q266 532 271 528 Q275 537 281 538.5 Q287 540 292 540 L368 540 L368 -146 Q368 -164 361 -179.5 Q354 -195 342.5 -206.5 Q331 -218 315 -224.5 Q299 -231 281 -231 L137 -231 Q101 -231 76 -206 Q51 -181 51 -146 L51 -76 L152 -76 L152 -112 Q152 -127 162.5 -138 Q173 -149 188 -149 L236 -149 Q249 -147 257.5 -136.5 Q266 -126 266 -112 L266 26 Q255 12 243 6 Q231 0 223 0 L137 0 Z M147 726 Q147 752 164.5 768.5 Q182 785 205 785 Q231 785 247.5 768.5 Q264 752 264 726 Q264 701 247.5 684 Q231 667 205 667 Q182 667 164.5 684 Q147 701 147 726 Z " />
<glyph glyph-name="Gcommaaccent" unicode="&#x122;" horiz-adv-x="409" d="M136 0 Q101 0 76 24.5 Q51 49 51 84 L51 665 Q51 700 76 724.5 Q101 749 136 749 L278 749 Q314 749 338 724.5 Q362 700 362 665 L362 479 L264 479 L264 632 Q264 644 256 656 Q248 668 233 668 L181 668 Q166 668 158.5 656 Q151 644 151 632 L151 117 Q151 103 159.5 92.5 Q168 82 180 80 L225 80 Q239 80 251.5 89 Q264 98 264 117 L264 237 L224 237 L224 336 L362 336 L362 0 L272 0 L251 28 Q241 16 230 8 Q219 0 208 0 L136 0 Z M155 -205 L155 -106 L254 -106 L254 -197 Q254 -233 252.5 -259.5 Q251 -286 241.5 -302.5 Q232 -319 212 -327 Q192 -335 155 -335 L155 -288 Q175 -288 186 -283.5 Q197 -279 202.5 -269 Q208 -259 209 -243.5 Q210 -228 210 -205 L155 -205 Z " />
<glyph glyph-name="gcommaaccent" unicode="&#x123;" horiz-adv-x="409" d="M152 422 Q152 434 159.5 445.5 Q167 457 182 457 L227 457 Q241 457 253.5 453 Q266 449 266 426 L266 119 Q266 98 253.5 90.5 Q241 83 227 83 L188 83 Q174 83 163 94.5 Q152 106 152 118 L152 422 Z M223 0 Q231 0 243 6 Q255 12 266 26 L266 -112 Q266 -126 257.5 -136.5 Q249 -147 236 -149 L188 -149 Q173 -149 162.5 -138 Q152 -127 152 -112 L152 -76 L51 -76 L51 -146 Q51 -181 76 -206 Q101 -231 137 -231 L281 -231 Q299 -231 315 -224.5 Q331 -218 342.5 -206.5 Q354 -195 361 -179.5 Q368 -164 368 -146 L368 540 L292 540 Q287 540 281 538.5 Q275 537 271 528 Q266 532 260 536 Q254 540 246 540 L137 540 Q101 540 76 515 Q51 490 51 455 L51 85 Q51 49 76 24.5 Q101 0 137 0 L223 0 Z M256 641 L157 641 L157 732 Q157 768 158.5 794.5 Q160 821 169.5 837.5 Q179 854 199 862 Q219 870 256 870 L256 823 Q236 823 224.5 818.5 Q213 814 208 804.5 Q203 795 202 779 Q201 763 201 740 L256 740 L256 641 Z " />
<glyph glyph-name="Hcircumflex" unicode="&#x124;" horiz-adv-x="425" d="M274 0 L373 0 L373 749 L274 749 L274 416 L160 416 L160 749 L61 749 L61 0 L160 0 L160 317 L274 317 L274 0 Z M166 983 L263 983 L360 835 L262 835 L215 905 L170 835 L70 835 L166 983 Z " />
<glyph glyph-name="hcircumflex" unicode="&#x125;" horiz-adv-x="413" d="M161 0 L161 426 Q161 449 173 453 Q185 457 200 457 L245 457 Q260 457 267.5 445.5 Q275 434 275 422 L275 0 L378 0 L378 456 Q378 474 371 489.5 Q364 505 352.5 516.5 Q341 528 325.5 534.5 Q310 541 292 541 L198 541 Q187 541 177 537.5 Q167 534 161 529 L161 774 L60 774 L60 0 L161 0 Z M160 966 L257 966 L354 818 L256 818 L209 888 L164 818 L64 818 L160 966 Z " />
<glyph glyph-name="Hbar" unicode="&#x126;" horiz-adv-x="425" d="M274 317 L160 317 L160 0 L61 0 L61 749 L160 749 L160 416 L274 416 L274 749 L373 749 L373 0 L274 0 L274 317 Z M45 647 L389 647 L389 550 L45 550 L45 647 Z " />
<glyph glyph-name="hbar" unicode="&#x127;" horiz-adv-x="431" d="M78 0 L78 774 L179 774 L179 529 Q185 534 195 537.5 Q205 541 216 541 L310 541 Q328 541 343.5 534.5 Q359 528 370.5 516.5 Q382 505 389 489.5 Q396 474 396 456 L396 0 L293 0 L293 422 Q293 434 285.5 445.5 Q278 457 263 457 L218 457 Q203 457 191 453 Q179 449 179 426 L179 0 L78 0 Z M38 678 L252 678 L252 593 L38 593 L38 678 Z " />
<glyph glyph-name="Itilde" unicode="&#x128;" horiz-adv-x="221" d="M63 749 L164 749 L164 0 L63 0 L63 749 Z M42 984 Q59 984 74.5 977.5 Q90 971 105 963.5 Q120 956 135.5 949.5 Q151 943 169 943 Q181 943 193.5 952 Q206 961 217 984 L291 984 Q286 920 259 885.5 Q232 851 190 851 Q174 851 157 857.5 Q140 864 123.5 872 Q107 880 91.5 886.5 Q76 893 63 893 Q50 893 39 884 Q28 875 18 851 L-57 851 Q-52 913 -24.5 948.5 Q3 984 42 984 Z " />
<glyph glyph-name="itilde" unicode="&#x129;" horiz-adv-x="215" d="M60 541 L161 541 L161 0 L60 0 L60 541 Z M39 775 Q56 775 71.5 768.5 Q87 762 102 754.5 Q117 747 132.5 740.5 Q148 734 166 734 Q178 734 190.5 743 Q203 752 214 775 L288 775 Q283 711 256 676.5 Q229 642 187 642 Q171 642 154 648.5 Q137 655 120.5 663 Q104 671 88.5 677.5 Q73 684 60 684 Q47 684 36 675 Q25 666 15 642 L-60 642 Q-55 704 -27.5 739.5 Q0 775 39 775 Z " />
<glyph glyph-name="Imacron" unicode="&#x12a;" horiz-adv-x="221" d="M63 749 L164 749 L164 0 L63 0 L63 749 Z M-38 980 L252 980 L252 897 L-38 897 L-38 980 Z " />
<glyph glyph-name="imacron" unicode="&#x12b;" horiz-adv-x="215" d="M60 541 L161 541 L161 0 L60 0 L60 541 Z M-38 775 L252 775 L252 691 L-38 691 L-38 775 Z " />
<glyph glyph-name="Ibreve" unicode="&#x12c;" horiz-adv-x="221" d="M63 749 L164 749 L164 0 L63 0 L63 749 Z M272 979 L272 949 Q272 931 265 915.5 Q258 900 246.5 888.5 Q235 877 219.5 870.5 Q204 864 186 864 L44 864 Q27 864 11.5 870.5 Q-4 877 -15.5 888.5 Q-27 900 -34 915.5 Q-41 931 -41 949 L-41 979 L59 979 Q62 964 71 954 Q80 944 93 944 L130 944 Q150 944 161 954.5 Q172 965 174 979 L272 979 Z " />
<glyph glyph-name="ibreve" unicode="&#x12d;" horiz-adv-x="215" d="M60 541 L161 541 L161 0 L60 0 L60 541 Z M268 774 L268 744 Q268 726 261 710.5 Q254 695 242.5 683.5 Q231 672 215.5 665.5 Q200 659 182 659 L40 659 Q23 659 7.5 665.5 Q-8 672 -19.5 683.5 Q-31 695 -38 710.5 Q-45 726 -45 744 L-45 774 L55 774 Q58 759 67 749 Q76 739 89 739 L126 739 Q146 739 157 749.5 Q168 760 170 774 L268 774 Z " />
<glyph glyph-name="Iogonek" unicode="&#x12e;" horiz-adv-x="221" d="M63 749 L164 749 L164 0 L63 0 L63 749 Z M190 -213 Q170 -217 145 -217 Q89 -217 65 -191 Q41 -165 41 -130 Q41 -114 46 -96 Q51 -78 60 -60 Q69 -42 80.5 -26 Q92 -10 105 1 L134 1 Q120 -23 112.5 -44 Q105 -65 105 -82 Q105 -105 120.5 -120.5 Q136 -136 173 -137 L196 -202 L190 -213 Z " />
<glyph glyph-name="iogonek" unicode="&#x12f;" horiz-adv-x="215" d="M57 540 L158 540 L158 0 L57 0 L57 540 Z M48 715 Q48 740 64.5 757.5 Q81 775 107 775 Q133 775 150 757.5 Q167 740 167 715 Q167 689 150 672.5 Q133 656 107 656 Q81 656 64.5 672.5 Q48 689 48 715 Z M196 -214 Q176 -218 151 -218 Q95 -218 71 -192 Q47 -166 47 -131 Q47 -115 52 -97 Q57 -79 66 -61 Q75 -43 86.5 -27 Q98 -11 111 0 L140 0 Q126 -24 118.5 -45 Q111 -66 111 -83 Q111 -106 126.5 -121.5 Q142 -137 179 -138 L202 -203 L196 -214 Z " />
<glyph glyph-name="Idotaccent" unicode="&#x130;" horiz-adv-x="221" d="M63 749 L164 749 L164 0 L63 0 L63 749 Z M53 923 Q53 949 70.5 965.5 Q88 982 111 982 Q137 982 153.5 965.5 Q170 949 170 923 Q170 898 153.5 881 Q137 864 111 864 Q88 864 70.5 881 Q53 898 53 923 Z " />
<glyph glyph-name="dotlessi" unicode="&#x131;" horiz-adv-x="215" d="M60 541 L161 541 L161 0 L60 0 L60 541 Z " />
<glyph glyph-name="IJ" unicode="&#x132;" horiz-adv-x="610" d="M63 749 L164 749 L164 0 L63 0 L63 749 Z M348 285 L348 117 Q348 103 358 91.5 Q368 80 382 80 L431 80 Q443 82 451.5 92.5 Q460 103 460 117 L460 749 L560 749 L560 84 Q560 67 553.5 51.5 Q547 36 535.5 24.5 Q524 13 508.5 6.5 Q493 0 475 0 L333 0 Q315 0 299.5 6.5 Q284 13 272.5 24.5 Q261 36 254.5 51.5 Q248 67 248 84 L248 285 L348 285 Z " />
<glyph glyph-name="ij" unicode="&#x133;" horiz-adv-x="431" d="M57 540 L158 540 L158 0 L57 0 L57 540 Z M48 715 Q48 740 64.5 757.5 Q81 775 107 775 Q133 775 150 757.5 Q167 740 167 715 Q167 689 150 672.5 Q133 656 107 656 Q81 656 64.5 672.5 Q48 689 48 715 Z M209 -157 Q225 -155 237 -144 Q249 -133 249 -119 L249 541 L349 541 L349 -153 Q349 -170 342 -185.5 Q335 -201 323.5 -212.5 Q312 -224 296.5 -231 Q281 -238 263 -238 L206 -238 L209 -157 Z M239 715 Q239 740 256.5 757.5 Q274 775 299 775 Q324 775 341.5 757.5 Q359 740 359 715 Q359 689 341.5 672.5 Q324 656 299 656 Q274 656 256.5 672.5 Q239 689 239 715 Z " />
<glyph glyph-name="Jcircumflex" unicode="&#x134;" horiz-adv-x="359" d="M-3 285 L-3 84 Q-3 67 3.5 51.5 Q10 36 21.5 24.5 Q33 13 48.5 6.5 Q64 0 82 0 L224 0 Q242 0 257.5 6.5 Q273 13 284.5 24.5 Q296 36 302.5 51.5 Q309 67 309 84 L309 749 L209 749 L209 117 Q209 103 200.5 92.5 Q192 82 180 80 L131 80 Q117 80 107 91.5 Q97 103 97 117 L97 285 L-3 285 Z M204 983 L301 983 L398 835 L300 835 L253 905 L208 835 L108 835 L204 983 Z " />
<glyph glyph-name="jcircumflex" unicode="&#x135;" horiz-adv-x="216" d="M19 -252 L75 -252 Q93 -252 109 -245 Q125 -238 136.5 -226.5 Q148 -215 155 -199.5 Q162 -184 162 -166 L162 541 L61 541 L61 -132 Q61 -146 51.5 -156 Q42 -166 31 -169 L19 -169 L19 -252 Z M61 775 L158 775 L255 627 L157 627 L110 697 L65 627 L-35 627 L61 775 Z " />
<glyph glyph-name="Kcommaaccent" unicode="&#x136;" horiz-adv-x="402" d="M160 550 L130 413 L145 413 Q179 496 215 581 Q251 666 285 749 L390 749 L230 374 L391 0 L286 0 L145 335 L130 335 L160 188 L160 0 L61 0 L61 749 L160 749 L160 550 Z M153 -204 L153 -105 L252 -105 L252 -196 Q252 -232 250.5 -258.5 Q249 -285 239.5 -301.5 Q230 -318 210 -326 Q190 -334 153 -334 L153 -287 Q173 -287 184 -282.5 Q195 -278 200.5 -268 Q206 -258 207 -242.5 Q208 -227 208 -204 L153 -204 Z " />
<glyph glyph-name="kcommaaccent" unicode="&#x137;" horiz-adv-x="382" d="M158 774 L158 483 L143 347 L158 347 L266 540 L373 540 L233 312 Q248 274 266 235 Q284 196 303.5 156 Q323 116 341.5 76.5 Q360 37 375 0 L267 0 L154 269 L143 269 L158 123 L158 0 L60 0 L60 774 L158 774 Z M151 -203 L151 -104 L250 -104 L250 -195 Q250 -231 248.5 -257.5 Q247 -284 237.5 -300.5 Q228 -317 208 -325 Q188 -333 151 -333 L151 -286 Q171 -286 182 -281.5 Q193 -277 198.5 -267 Q204 -257 205 -241.5 Q206 -226 206 -203 L151 -203 Z " />
<glyph glyph-name="Lacute" unicode="&#x139;" horiz-adv-x="400" d="M160 99 L374 99 L374 0 L61 0 L61 749 L160 749 L160 99 Z M119 984 L213 984 L162 885 L75 885 L119 984 Z " />
<glyph glyph-name="lacute" unicode="&#x13a;" horiz-adv-x="221" d="M63 774 L164 774 L164 0 L63 0 L63 774 Z M116 925 L210 925 L159 826 L72 826 L116 925 Z " />
<glyph glyph-name="Lcommaaccent" unicode="&#x13b;" horiz-adv-x="400" d="M160 99 L374 99 L374 0 L61 0 L61 749 L160 749 L160 99 Z M152 -203 L152 -104 L251 -104 L251 -195 Q251 -231 249.5 -257.5 Q248 -284 238.5 -300.5 Q229 -317 209 -325 Q189 -333 152 -333 L152 -286 Q172 -286 183 -281.5 Q194 -277 199.5 -267 Q205 -257 206 -241.5 Q207 -226 207 -203 L152 -203 Z " />
<glyph glyph-name="lcommaaccent" unicode="&#x13c;" horiz-adv-x="221" d="M63 774 L164 774 L164 0 L63 0 L63 774 Z M63 -203 L63 -104 L162 -104 L162 -195 Q162 -231 160.5 -257.5 Q159 -284 149.5 -300.5 Q140 -317 120 -325 Q100 -333 63 -333 L63 -286 Q83 -286 94 -281.5 Q105 -277 110.5 -267 Q116 -257 117 -241.5 Q118 -226 118 -203 L63 -203 Z " />
<glyph glyph-name="Lcaron" unicode="&#x13d;" horiz-adv-x="400" d="M160 99 L374 99 L374 0 L61 0 L61 749 L160 749 L160 99 Z M-30 983 L69 983 L116 913 L162 983 L260 983 Q249 964 233.5 940 Q218 916 206 899 Q196 884 185 868 Q174 852 163 835 L66 835 L-30 983 Z " />
<glyph glyph-name="lcaron" unicode="&#x13e;" horiz-adv-x="381" d="M63 774 L164 774 L164 0 L63 0 L63 774 Z M234 773 L333 773 L333 682 Q333 646 331.5 619.5 Q330 593 320.5 576.5 Q311 560 291 552 Q271 544 234 544 L234 591 Q254 591 265 595.5 Q276 600 281.5 610 Q287 620 288 636 Q289 652 289 675 L234 675 L234 773 Z " />
<glyph glyph-name="Ldot" unicode="&#x13f;" horiz-adv-x="400" d="M160 99 L374 99 L374 0 L61 0 L61 749 L160 749 L160 99 Z M249 482 Q249 508 266.5 524.5 Q284 541 307 541 Q333 541 349.5 524.5 Q366 508 366 482 Q366 457 349.5 440 Q333 423 307 423 Q284 423 266.5 440 Q249 457 249 482 Z " />
<glyph glyph-name="ldot" unicode="&#x140;" horiz-adv-x="338" d="M63 774 L164 774 L164 0 L63 0 L63 774 Z M225 450 Q225 476 242.5 492.5 Q260 509 283 509 Q309 509 325.5 492.5 Q342 476 342 450 Q342 425 325.5 408 Q309 391 283 391 Q260 391 242.5 408 Q225 425 225 450 Z " />
<glyph glyph-name="Lslash" unicode="&#x141;" horiz-adv-x="417" d="M178 476 L261 522 L309 435 L178 360 L178 99 L392 99 L392 0 L79 0 L79 302 L42 281 L-8 367 L79 418 L79 749 L178 749 L178 476 Z " />
<glyph glyph-name="lslash" unicode="&#x142;" horiz-adv-x="270" d="M-25 321 L86 388 L86 774 L187 774 L187 446 L247 480 L297 391 L187 327 L187 0 L86 0 L86 269 L25 234 L-25 321 Z " />
<glyph glyph-name="Nacute" unicode="&#x143;" horiz-adv-x="426" d="M374 0 L266 0 L143 477 L130 477 Q138 426 145 378.5 Q152 331 160 280 L160 0 L61 0 L61 749 L172 749 L290 276 L305 276 Q297 325 289.5 375 Q282 425 275 474 L275 749 L374 749 L374 0 Z M213 984 L307 984 L256 885 L169 885 L213 984 Z " />
<glyph glyph-name="nacute" unicode="&#x144;" horiz-adv-x="417" d="M288 540 Q306 540 322 533.5 Q338 527 349.5 515.5 Q361 504 368 488.5 Q375 473 375 455 L375 0 L273 0 L273 421 Q273 433 265.5 444.5 Q258 456 243 456 L198 456 Q183 456 171.5 449.5 Q160 443 160 421 L160 0 L58 0 L58 540 L128 540 Q140 540 148.5 534 Q157 528 159 513 Q170 529 182 534.5 Q194 540 203 540 L288 540 Z M197 775 L291 775 L240 676 L153 676 L197 775 Z " />
<glyph glyph-name="Ncommaaccent" unicode="&#x145;" horiz-adv-x="426" d="M374 0 L266 0 L143 477 L130 477 Q138 426 145 378.5 Q152 331 160 280 L160 0 L61 0 L61 749 L172 749 L290 276 L305 276 Q297 325 289.5 375 Q282 425 275 474 L275 749 L374 749 L374 0 Z M165 -201 L165 -102 L264 -102 L264 -193 Q264 -229 262.5 -255.5 Q261 -282 251.5 -298.5 Q242 -315 222 -323 Q202 -331 165 -331 L165 -284 Q185 -284 196 -279.5 Q207 -275 212.5 -265 Q218 -255 219 -239.5 Q220 -224 220 -201 L165 -201 Z " />
<glyph glyph-name="ncommaaccent" unicode="&#x146;" horiz-adv-x="417" d="M288 540 Q306 540 322 533.5 Q338 527 349.5 515.5 Q361 504 368 488.5 Q375 473 375 455 L375 0 L273 0 L273 421 Q273 433 265.5 444.5 Q258 456 243 456 L198 456 Q183 456 171.5 449.5 Q160 443 160 421 L160 0 L58 0 L58 540 L128 540 Q140 540 148.5 534 Q157 528 159 513 Q170 529 182 534.5 Q194 540 203 540 L288 540 Z M161 -231 L161 -132 L260 -132 L260 -223 Q260 -259 258.5 -285.5 Q257 -312 247.5 -328.5 Q238 -345 218 -353 Q198 -361 161 -361 L161 -314 Q181 -314 192 -309.5 Q203 -305 208.5 -295 Q214 -285 215 -269.5 Q216 -254 216 -231 L161 -231 Z " />
<glyph glyph-name="Ncaron" unicode="&#x147;" horiz-adv-x="426" d="M374 0 L266 0 L143 477 L130 477 Q138 426 145 378.5 Q152 331 160 280 L160 0 L61 0 L61 749 L172 749 L290 276 L305 276 Q297 325 289.5 375 Q282 425 275 474 L275 749 L374 749 L374 0 Z M70 983 L169 983 L216 913 L262 983 L360 983 Q349 964 333.5 940 Q318 916 306 899 Q296 884 285 868 Q274 852 263 835 L166 835 L70 983 Z " />
<glyph glyph-name="ncaron" unicode="&#x148;" horiz-adv-x="417" d="M288 540 Q306 540 322 533.5 Q338 527 349.5 515.5 Q361 504 368 488.5 Q375 473 375 455 L375 0 L273 0 L273 421 Q273 433 265.5 444.5 Q258 456 243 456 L198 456 Q183 456 171.5 449.5 Q160 443 160 421 L160 0 L58 0 L58 540 L128 540 Q140 540 148.5 534 Q157 528 159 513 Q170 529 182 534.5 Q194 540 203 540 L288 540 Z M66 774 L165 774 L212 704 L258 774 L356 774 Q345 755 329.5 731 Q314 707 302 690 Q292 675 281 659 Q270 643 259 626 L162 626 L66 774 Z " />
<glyph glyph-name="napostrophe" unicode="&#x149;" horiz-adv-x="457" d="M328 540 Q346 540 362 533.5 Q378 527 389.5 515.5 Q401 504 408 488.5 Q415 473 415 455 L415 0 L313 0 L313 421 Q313 433 305.5 444.5 Q298 456 283 456 L238 456 Q223 456 211.5 449.5 Q200 443 200 421 L200 0 L98 0 L98 540 L168 540 Q180 540 188.5 534 Q197 528 199 513 Q210 529 222 534.5 Q234 540 243 540 L328 540 Z M-3 676 L-3 775 L96 775 L96 684 Q96 648 94.5 621.5 Q93 595 83.5 578.5 Q74 562 54 554 Q34 546 -3 546 L-3 593 Q17 593 28 597.5 Q39 602 44.5 612 Q50 622 51 637.5 Q52 653 52 676 L-3 676 Z " />
<glyph glyph-name="Eng" unicode="&#x14a;" horiz-adv-x="426" d="M373 -147 Q373 -183 347.5 -207 Q322 -231 287 -231 L146 -231 Q111 -231 85.5 -207 Q60 -183 60 -147 L60 -75 L150 -75 L150 -113 Q150 -128 160 -139 Q170 -150 184 -150 L242 -150 Q255 -148 264 -138 Q273 -128 273 -113 Q273 -83 272 -54 Q271 -25 265 0 L142 477 L129 477 Q137 426 144 378.5 Q151 331 159 280 L159 0 L60 0 L60 748 L171 748 L289 276 L304 276 Q296 325 288.5 375 Q281 425 274 474 L274 748 L373 748 L373 -147 Z " />
<glyph glyph-name="eng" unicode="&#x14b;" horiz-adv-x="426" d="M241 -150 Q255 -148 264 -137.5 Q273 -127 273 -113 L273 421 Q273 433 265.5 444.5 Q258 456 243 456 L198 456 Q183 456 171.5 449.5 Q160 443 160 421 L160 0 L58 0 L58 540 L128 540 Q140 540 148.5 534 Q157 528 159 513 Q170 529 182 534.5 Q194 540 203 540 L288 540 Q306 540 322 533.5 Q338 527 349.5 515.5 Q361 504 368 488.5 Q375 473 375 455 L375 -147 Q375 -182 350 -207 Q325 -232 290 -232 L231 -232 L231 -150 L241 -150 Z " />
<glyph glyph-name="Omacron" unicode="&#x14c;" horiz-adv-x="406" d="M136 0 Q101 0 76 24.5 Q51 49 51 84 L51 665 Q51 700 76 724.5 Q101 749 136 749 L278 749 Q314 749 338 724.5 Q362 700 362 665 L362 84 Q362 49 338 24.5 Q314 0 278 0 L136 0 Z M185 670 Q171 670 161 658 Q151 646 151 632 L151 117 Q151 104 161.5 92 Q172 80 185 80 L229 80 Q243 80 253.5 91.5 Q264 103 264 117 L264 633 Q264 646 255 658 Q246 670 222 670 L185 670 Z M58 980 L348 980 L348 897 L58 897 L58 980 Z " />
<glyph glyph-name="omacron" unicode="&#x14d;" horiz-adv-x="406" d="M128 0 Q93 0 67.5 24.5 Q42 49 42 85 L42 455 Q42 473 49 488.5 Q56 504 67.5 515.5 Q79 527 94.5 533.5 Q110 540 128 540 L272 540 Q290 540 306 533.5 Q322 527 334 515.5 Q346 504 352.5 488.5 Q359 473 359 455 L359 85 Q359 49 334 24.5 Q309 0 272 0 L128 0 Z M179 458 Q164 458 153.5 446.5 Q143 435 143 421 L143 118 Q143 106 154 94.5 Q165 83 179 83 L222 83 Q237 83 247 94 Q257 105 257 119 L257 422 Q257 435 249 446.5 Q241 458 215 458 L179 458 Z M58 774 L348 774 L348 690 L58 690 L58 774 Z " />
<glyph glyph-name="Obreve" unicode="&#x14e;" horiz-adv-x="406" d="M136 0 Q101 0 76 24.5 Q51 49 51 84 L51 665 Q51 700 76 724.5 Q101 749 136 749 L278 749 Q314 749 338 724.5 Q362 700 362 665 L362 84 Q362 49 338 24.5 Q314 0 278 0 L136 0 Z M185 670 Q171 670 161 658 Q151 646 151 632 L151 117 Q151 104 161.5 92 Q172 80 185 80 L229 80 Q243 80 253.5 91.5 Q264 103 264 117 L264 633 Q264 646 255 658 Q246 670 222 670 L185 670 Z M364 982 L364 952 Q364 934 357 918.5 Q350 903 338.5 891.5 Q327 880 311.5 873.5 Q296 867 278 867 L136 867 Q119 867 103.5 873.5 Q88 880 76.5 891.5 Q65 903 58 918.5 Q51 934 51 952 L51 982 L151 982 Q154 967 163 957 Q172 947 185 947 L222 947 Q242 947 253 957.5 Q264 968 266 982 L364 982 Z " />
<glyph glyph-name="obreve" unicode="&#x14f;" horiz-adv-x="406" d="M128 0 Q93 0 67.5 24.5 Q42 49 42 85 L42 455 Q42 473 49 488.5 Q56 504 67.5 515.5 Q79 527 94.5 533.5 Q110 540 128 540 L272 540 Q290 540 306 533.5 Q322 527 334 515.5 Q346 504 352.5 488.5 Q359 473 359 455 L359 85 Q359 49 334 24.5 Q309 0 272 0 L128 0 Z M179 458 Q164 458 153.5 446.5 Q143 435 143 421 L143 118 Q143 106 154 94.5 Q165 83 179 83 L222 83 Q237 83 247 94 Q257 105 257 119 L257 422 Q257 435 249 446.5 Q241 458 215 458 L179 458 Z M357 774 L357 744 Q357 726 350 710.5 Q343 695 331.5 683.5 Q320 672 304.5 665.5 Q289 659 271 659 L129 659 Q112 659 96.5 665.5 Q81 672 69.5 683.5 Q58 695 51 710.5 Q44 726 44 744 L44 774 L144 774 Q147 759 156 749 Q165 739 178 739 L215 739 Q235 739 246 749.5 Q257 760 259 774 L357 774 Z " />
<glyph glyph-name="Ohungarumlaut" unicode="&#x150;" horiz-adv-x="406" d="M136 0 Q101 0 76 24.5 Q51 49 51 84 L51 665 Q51 700 76 724.5 Q101 749 136 749 L278 749 Q314 749 338 724.5 Q362 700 362 665 L362 84 Q362 49 338 24.5 Q314 0 278 0 L136 0 Z M185 670 Q171 670 161 658 Q151 646 151 632 L151 117 Q151 104 161.5 92 Q172 80 185 80 L229 80 Q243 80 253.5 91.5 Q264 103 264 117 L264 633 Q264 646 255 658 Q246 670 222 670 L185 670 Z M110 984 L204 984 L153 885 L66 885 L110 984 Z M314 984 L408 984 L357 885 L270 885 L314 984 Z " />
<glyph glyph-name="ohungarumlaut" unicode="&#x151;" horiz-adv-x="406" d="M128 0 Q93 0 67.5 24.5 Q42 49 42 85 L42 455 Q42 473 49 488.5 Q56 504 67.5 515.5 Q79 527 94.5 533.5 Q110 540 128 540 L272 540 Q290 540 306 533.5 Q322 527 334 515.5 Q346 504 352.5 488.5 Q359 473 359 455 L359 85 Q359 49 334 24.5 Q309 0 272 0 L128 0 Z M179 458 Q164 458 153.5 446.5 Q143 435 143 421 L143 118 Q143 106 154 94.5 Q165 83 179 83 L222 83 Q237 83 247 94 Q257 105 257 119 L257 422 Q257 435 249 446.5 Q241 458 215 458 L179 458 Z M110 775 L204 775 L153 676 L66 676 L110 775 Z M314 775 L408 775 L357 676 L270 676 L314 775 Z " />
<glyph glyph-name="OE" unicode="&#x152;" horiz-adv-x="603" d="M135 0 Q117 0 101.5 6.5 Q86 13 74.5 24.5 Q63 36 56.5 51.5 Q50 67 50 84 L50 665 Q50 682 56.5 697.5 Q63 713 74.5 724.5 Q86 736 101.5 742.5 Q117 749 135 749 L576 749 L576 650 L362 650 L362 416 L545 416 L545 317 L362 317 L362 99 L576 99 L576 0 L135 0 Z M184 670 Q170 670 160 658 Q150 646 150 632 L150 117 Q150 104 160.5 92 Q171 80 184 80 L228 80 Q242 80 252 91.5 Q262 103 262 117 L262 633 Q262 646 253.5 658 Q245 670 220 670 L184 670 Z " />
<glyph glyph-name="oe" unicode="&#x153;" horiz-adv-x="609" d="M391 0 Q339 0 309 42 Q295 23 273 11.5 Q251 0 216 0 L130 0 Q94 0 68.5 24.5 Q43 49 43 85 L43 455 Q43 473 50 488.5 Q57 504 68.5 515.5 Q80 527 96 533.5 Q112 540 130 540 L216 540 Q251 540 274 527 Q297 514 309 499 Q320 516 342.5 528 Q365 540 391 540 L489 540 Q526 540 551.5 516 Q577 492 577 456 L577 253 L361 253 L361 116 Q362 103 371 94 Q380 85 391 83 L440 83 Q454 83 464.5 94 Q475 105 475 119 L475 145 L577 145 L577 85 Q577 49 551.5 24.5 Q526 0 489 0 L391 0 Z M180 458 Q166 458 155 446.5 Q144 435 144 421 L144 118 Q144 106 155 94.5 Q166 83 180 83 L224 83 Q238 83 248.5 94 Q259 105 259 119 L259 422 Q259 435 250.5 446.5 Q242 458 216 458 L180 458 Z M361 332 L476 332 L476 422 Q476 434 468.5 445.5 Q461 457 444 457 L391 457 Q378 457 370 447 Q362 437 361 426 L361 332 Z " />
<glyph glyph-name="Racute" unicode="&#x154;" horiz-adv-x="418" d="M373 401 Q373 363 341.5 340 Q310 317 254 315 L391 0 L286 0 L145 335 L130 335 L160 188 L160 0 L61 0 L61 749 L286 749 Q304 749 319.5 742.5 Q335 736 347 724.5 Q359 713 366 697.5 Q373 682 373 665 L373 401 Z M160 670 L160 398 L237 398 Q251 398 262 409 Q273 420 273 434 L273 633 Q273 646 264.5 658 Q256 670 241 670 L160 670 Z M223 984 L317 984 L266 885 L179 885 L223 984 Z " />
<glyph glyph-name="racute" unicode="&#x155;" horiz-adv-x="377" d="M118 540 Q128 540 137 533 Q146 526 150 507 Q166 527 186 534 Q206 541 216 541 L282 541 Q300 541 316 534.5 Q332 528 343.5 516.5 Q355 505 362 489.5 Q369 474 369 456 L369 403 L268 403 L268 422 Q268 439 257.5 448.5 Q247 458 233 458 L192 458 Q175 458 164 448 Q153 438 153 422 L153 0 L52 0 L52 540 L118 540 Z M206 775 L300 775 L249 676 L162 676 L206 775 Z " />
<glyph glyph-name="Rcommaaccent" unicode="&#x156;" horiz-adv-x="418" d="M373 401 Q373 363 341.5 340 Q310 317 254 315 L391 0 L286 0 L145 335 L130 335 L160 188 L160 0 L61 0 L61 749 L286 749 Q304 749 319.5 742.5 Q335 736 347 724.5 Q359 713 366 697.5 Q373 682 373 665 L373 401 Z M160 670 L160 398 L237 398 Q251 398 262 409 Q273 420 273 434 L273 633 Q273 646 264.5 658 Q256 670 241 670 L160 670 Z M161 -205 L161 -106 L260 -106 L260 -197 Q260 -233 258.5 -259.5 Q257 -286 247.5 -302.5 Q238 -319 218 -327 Q198 -335 161 -335 L161 -288 Q181 -288 192 -283.5 Q203 -279 208.5 -269 Q214 -259 215 -243.5 Q216 -228 216 -205 L161 -205 Z " />
<glyph glyph-name="rcommaaccent" unicode="&#x157;" horiz-adv-x="377" d="M118 540 Q128 540 137 533 Q146 526 150 507 Q166 527 186 534 Q206 541 216 541 L282 541 Q300 541 316 534.5 Q332 528 343.5 516.5 Q355 505 362 489.5 Q369 474 369 456 L369 403 L268 403 L268 422 Q268 439 257.5 448.5 Q247 458 233 458 L192 458 Q175 458 164 448 Q153 438 153 422 L153 0 L52 0 L52 540 L118 540 Z M141 -230 L141 -131 L240 -131 L240 -222 Q240 -258 238.5 -284.5 Q237 -311 227.5 -327.5 Q218 -344 198 -352 Q178 -360 141 -360 L141 -313 Q161 -313 172 -308.5 Q183 -304 188.5 -294 Q194 -284 195 -268.5 Q196 -253 196 -230 L141 -230 Z " />
<glyph glyph-name="Rcaron" unicode="&#x158;" horiz-adv-x="418" d="M373 401 Q373 363 341.5 340 Q310 317 254 315 L391 0 L286 0 L145 335 L130 335 L160 188 L160 0 L61 0 L61 749 L286 749 Q304 749 319.5 742.5 Q335 736 347 724.5 Q359 713 366 697.5 Q373 682 373 665 L373 401 Z M160 670 L160 398 L237 398 Q251 398 262 409 Q273 420 273 434 L273 633 Q273 646 264.5 658 Q256 670 241 670 L160 670 Z M66 984 L165 984 L212 914 L258 984 L356 984 Q345 965 329.5 941 Q314 917 302 900 Q292 885 281 869 Q270 853 259 836 L162 836 L66 984 Z " />
<glyph glyph-name="rcaron" unicode="&#x159;" horiz-adv-x="377" d="M118 540 Q128 540 137 533 Q146 526 150 507 Q166 527 186 534 Q206 541 216 541 L282 541 Q300 541 316 534.5 Q332 528 343.5 516.5 Q355 505 362 489.5 Q369 474 369 456 L369 403 L268 403 L268 422 Q268 439 257.5 448.5 Q247 458 233 458 L192 458 Q175 458 164 448 Q153 438 153 422 L153 0 L52 0 L52 540 L118 540 Z M46 774 L145 774 L192 704 L238 774 L336 774 Q325 755 309.5 731 Q294 707 282 690 Q272 675 261 659 Q250 643 239 626 L142 626 L46 774 Z " />
<glyph glyph-name="Sacute" unicode="&#x15a;" horiz-adv-x="421" d="M154 542 Q154 519 170 503 Q186 487 209.5 474 Q233 461 260.5 449 Q288 437 311.5 421 Q335 405 351 384 Q367 363 367 333 L367 84 Q367 67 360 51.5 Q353 36 341.5 24.5 Q330 13 314.5 6.5 Q299 0 281 0 L139 0 Q104 0 79 24.5 Q54 49 54 84 L54 211 L154 211 L154 117 Q154 104 164.5 92 Q175 80 188 80 L232 80 Q246 80 257 91.5 Q268 103 268 117 L268 290 Q268 318 252 337 Q236 356 212.5 370.5 Q189 385 161.5 397 Q134 409 110.5 423 Q87 437 71 455 Q55 473 55 499 L55 665 Q55 682 62 697.5 Q69 713 80.5 724.5 Q92 736 107.5 742.5 Q123 749 141 749 L281 749 Q299 749 314.5 742.5 Q330 736 341.5 724.5 Q353 713 360 697.5 Q367 682 367 665 L367 563 L268 563 L268 633 Q268 646 258.5 658 Q249 670 224 670 L188 670 Q174 670 164 658 Q154 646 154 632 L154 542 Z M236 984 L330 984 L279 885 L192 885 L236 984 Z " />
<glyph glyph-name="sacute" unicode="&#x15b;" horiz-adv-x="399" d="M148 401 Q148 372 164 354.5 Q180 337 204 324 Q228 311 256 299 Q284 287 308 269.5 Q332 252 348 224.5 Q364 197 364 154 L364 85 Q364 67 357 51.5 Q350 36 338 24.5 Q326 13 310.5 6.5 Q295 0 277 0 L133 0 Q98 0 72.5 24.5 Q47 49 47 85 L47 152 L148 152 L148 118 Q148 106 158.5 94.5 Q169 83 183 83 L227 83 Q242 83 252 94 Q262 105 262 119 L262 143 Q262 169 246 186 Q230 203 206.5 216.5 Q183 230 155 242 Q127 254 103.5 268 Q80 282 64 301 Q48 320 48 349 L48 455 Q48 473 55 488.5 Q62 504 73.5 515.5 Q85 527 100.5 533.5 Q116 540 134 540 L277 540 Q295 540 310.5 531.5 Q326 523 338 509.5 Q350 496 357 479 Q364 462 364 444 L364 400 L262 400 L262 422 Q262 435 253.5 446.5 Q245 458 220 458 L183 458 Q169 458 158.5 446.5 Q148 435 148 421 L148 401 Z M207 775 L301 775 L250 676 L163 676 L207 775 Z " />
<glyph glyph-name="Scircumflex" unicode="&#x15c;" horiz-adv-x="392" d="M144 632 Q144 646 154 658 Q164 670 178 670 L214 670 Q239 670 248.5 658 Q258 646 258 633 L258 563 L357 563 L357 665 Q357 682 350 697.5 Q343 713 331.5 724.5 Q320 736 304.5 742.5 Q289 749 271 749 L131 749 Q113 749 97.5 742.5 Q82 736 70.5 724.5 Q59 713 52 697.5 Q45 682 45 665 L45 499 Q45 473 61 455 Q77 437 100.5 423 Q124 409 151.5 397 Q179 385 202.5 370.5 Q226 356 242 337 Q258 318 258 290 L258 117 Q258 103 247 91.5 Q236 80 222 80 L178 80 Q165 80 154.5 92 Q144 104 144 117 L144 211 L44 211 L44 84 Q44 49 69 24.5 Q94 0 129 0 L271 0 Q289 0 304.5 6.5 Q320 13 331.5 24.5 Q343 36 350 51.5 Q357 67 357 84 L357 333 Q357 363 341 384 Q325 405 301.5 421 Q278 437 250.5 449 Q223 461 199.5 474 Q176 487 160 503 Q144 519 144 542 L144 632 Z M150 983 L247 983 L344 835 L246 835 L199 905 L154 835 L54 835 L150 983 Z " />
<glyph glyph-name="scircumflex" unicode="&#x15d;" horiz-adv-x="399" d="M148 421 Q148 435 158.5 446.5 Q169 458 183 458 L220 458 Q245 458 253.5 446.5 Q262 435 262 422 L262 400 L364 400 L364 444 Q364 462 357 479 Q350 496 338 509.5 Q326 523 310.5 531.5 Q295 540 277 540 L134 540 Q116 540 100.5 533.5 Q85 527 73.5 515.5 Q62 504 55 488.5 Q48 473 48 455 L48 349 Q48 320 64 301 Q80 282 103.5 268 Q127 254 155 242 Q183 230 206.5 216.5 Q230 203 246 186 Q262 169 262 143 L262 119 Q262 105 252 94 Q242 83 227 83 L183 83 Q169 83 158.5 94.5 Q148 106 148 118 L148 152 L47 152 L47 85 Q47 49 72.5 24.5 Q98 0 133 0 L277 0 Q295 0 310.5 6.5 Q326 13 338 24.5 Q350 36 357 51.5 Q364 67 364 85 L364 154 Q364 197 348 224.5 Q332 252 308 269.5 Q284 287 256 299 Q228 311 204 324 Q180 337 164 354.5 Q148 372 148 401 L148 421 Z M153 774 L250 774 L347 626 L249 626 L202 696 L157 626 L57 626 L153 774 Z " />
<glyph glyph-name="Scedilla" unicode="&#x15e;" horiz-adv-x="392" d="M144 542 Q144 519 160 503 Q176 487 199.5 474 Q223 461 250.5 449 Q278 437 301.5 421 Q325 405 341 384 Q357 363 357 333 L357 84 Q357 67 350 51.5 Q343 36 331.5 24.5 Q320 13 304.5 6.5 Q289 0 271 0 L129 0 Q94 0 69 24.5 Q44 49 44 84 L44 211 L144 211 L144 117 Q144 104 154.5 92 Q165 80 178 80 L222 80 Q236 80 247 91.5 Q258 103 258 117 L258 290 Q258 318 242 337 Q226 356 202.5 370.5 Q179 385 151.5 397 Q124 409 100.5 423 Q77 437 61 455 Q45 473 45 499 L45 665 Q45 682 52 697.5 Q59 713 70.5 724.5 Q82 736 97.5 742.5 Q113 749 131 749 L271 749 Q289 749 304.5 742.5 Q320 736 331.5 724.5 Q343 713 350 697.5 Q357 682 357 665 L357 563 L258 563 L258 633 Q258 646 248.5 658 Q239 670 214 670 L178 670 Q164 670 154 658 Q144 646 144 632 L144 542 Z M143 -138 Q180 -137 195.5 -121.5 Q211 -106 211 -83 Q211 -49 182 0 L211 0 Q238 -23 256.5 -61 Q275 -99 275 -131 Q275 -166 251 -192 Q227 -218 171 -218 Q160 -218 147 -217 Q134 -216 117 -212 L143 -138 Z " />
<glyph glyph-name="scedilla" unicode="&#x15f;" horiz-adv-x="399" d="M148 401 Q148 372 164 354.5 Q180 337 204 324 Q228 311 256 299 Q284 287 308 269.5 Q332 252 348 224.5 Q364 197 364 154 L364 85 Q364 67 357 51.5 Q350 36 338 24.5 Q326 13 310.5 6.5 Q295 0 277 0 L133 0 Q98 0 72.5 24.5 Q47 49 47 85 L47 152 L148 152 L148 118 Q148 106 158.5 94.5 Q169 83 183 83 L227 83 Q242 83 252 94 Q262 105 262 119 L262 143 Q262 169 246 186 Q230 203 206.5 216.5 Q183 230 155 242 Q127 254 103.5 268 Q80 282 64 301 Q48 320 48 349 L48 455 Q48 473 55 488.5 Q62 504 73.5 515.5 Q85 527 100.5 533.5 Q116 540 134 540 L277 540 Q295 540 310.5 531.5 Q326 523 338 509.5 Q350 496 357 479 Q364 462 364 444 L364 400 L262 400 L262 422 Q262 435 253.5 446.5 Q245 458 220 458 L183 458 Q169 458 158.5 446.5 Q148 435 148 421 L148 401 Z M146 -138 Q183 -137 198.5 -121.5 Q214 -106 214 -83 Q214 -49 185 0 L214 0 Q241 -23 259.5 -61 Q278 -99 278 -131 Q278 -166 254 -192 Q230 -218 174 -218 Q163 -218 150 -217 Q137 -216 120 -212 L146 -138 Z " />
<glyph glyph-name="Scaron" unicode="&#x160;" horiz-adv-x="392" d="M144 542 Q144 519 160 503 Q176 487 199.5 474 Q223 461 250.5 449 Q278 437 301.5 421 Q325 405 341 384 Q357 363 357 333 L357 84 Q357 67 350 51.5 Q343 36 331.5 24.5 Q320 13 304.5 6.5 Q289 0 271 0 L129 0 Q94 0 69 24.5 Q44 49 44 84 L44 211 L144 211 L144 117 Q144 104 154.5 92 Q165 80 178 80 L222 80 Q236 80 247 91.5 Q258 103 258 117 L258 290 Q258 318 242 337 Q226 356 202.5 370.5 Q179 385 151.5 397 Q124 409 100.5 423 Q77 437 61 455 Q45 473 45 499 L45 665 Q45 682 52 697.5 Q59 713 70.5 724.5 Q82 736 97.5 742.5 Q113 749 131 749 L271 749 Q289 749 304.5 742.5 Q320 736 331.5 724.5 Q343 713 350 697.5 Q357 682 357 665 L357 563 L258 563 L258 633 Q258 646 248.5 658 Q239 670 214 670 L178 670 Q164 670 154 658 Q144 646 144 632 L144 542 Z M53 983 L152 983 L199 913 L245 983 L343 983 Q332 964 316.5 940 Q301 916 289 899 Q279 884 268 868 Q257 852 246 835 L149 835 L53 983 Z " />
<glyph glyph-name="scaron" unicode="&#x161;" horiz-adv-x="399" d="M148 401 Q148 372 164 354.5 Q180 337 204 324 Q228 311 256 299 Q284 287 308 269.5 Q332 252 348 224.5 Q364 197 364 154 L364 85 Q364 67 357 51.5 Q350 36 338 24.5 Q326 13 310.5 6.5 Q295 0 277 0 L133 0 Q98 0 72.5 24.5 Q47 49 47 85 L47 152 L148 152 L148 118 Q148 106 158.5 94.5 Q169 83 183 83 L227 83 Q242 83 252 94 Q262 105 262 119 L262 143 Q262 169 246 186 Q230 203 206.5 216.5 Q183 230 155 242 Q127 254 103.5 268 Q80 282 64 301 Q48 320 48 349 L48 455 Q48 473 55 488.5 Q62 504 73.5 515.5 Q85 527 100.5 533.5 Q116 540 134 540 L277 540 Q295 540 310.5 531.5 Q326 523 338 509.5 Q350 496 357 479 Q364 462 364 444 L364 400 L262 400 L262 422 Q262 435 253.5 446.5 Q245 458 220 458 L183 458 Q169 458 158.5 446.5 Q148 435 148 421 L148 401 Z M57 774 L156 774 L203 704 L249 774 L347 774 Q336 755 320.5 731 Q305 707 293 690 Q283 675 272 659 Q261 643 250 626 L153 626 L57 774 Z " />
<glyph glyph-name="Tcommaaccent" unicode="&#x162;" horiz-adv-x="382" d="M41 749 L352 749 L352 650 L246 650 L246 0 L147 0 L147 650 L41 650 L41 749 Z M143 -203 L143 -104 L242 -104 L242 -195 Q242 -231 240.5 -257.5 Q239 -284 229.5 -300.5 Q220 -317 200 -325 Q180 -333 143 -333 L143 -286 Q163 -286 174 -281.5 Q185 -277 190.5 -267 Q196 -257 197 -241.5 Q198 -226 198 -203 L143 -203 Z " />
<glyph glyph-name="tcommaaccent" unicode="&#x163;" horiz-adv-x="245" d="M68 437 L12 437 L12 540 L68 540 L68 627 L168 627 L168 540 L229 540 L229 439 L168 439 L168 116 Q168 105 177 94 Q186 83 203 83 L229 83 L229 0 L155 0 Q114 0 91 26 Q68 52 68 97 L68 437 Z M95 -201 L95 -102 L194 -102 L194 -193 Q194 -229 192.5 -255.5 Q191 -282 181.5 -298.5 Q172 -315 152 -323 Q132 -331 95 -331 L95 -284 Q115 -284 126 -279.5 Q137 -275 142.5 -265 Q148 -255 149 -239.5 Q150 -224 150 -201 L95 -201 Z " />
<glyph glyph-name="Tcaron" unicode="&#x164;" horiz-adv-x="382" d="M36 749 L347 749 L347 650 L241 650 L241 0 L142 0 L142 650 L36 650 L36 749 Z M48 984 L147 984 L194 914 L240 984 L338 984 Q327 965 311.5 941 Q296 917 284 900 Q274 885 263 869 Q252 853 241 836 L144 836 L48 984 Z " />
<glyph glyph-name="tcaron" unicode="&#x165;" horiz-adv-x="377" d="M68 97 Q68 52 91 26 Q114 0 155 0 L229 0 L229 83 L203 83 Q186 83 177 94 Q168 105 168 116 L168 439 L229 439 L229 540 L168 540 L168 627 L68 627 L68 540 L12 540 L12 437 L68 437 L68 97 Z M265 772 L364 772 L364 681 Q364 645 362.5 618.5 Q361 592 351.5 575.5 Q342 559 322 551 Q302 543 265 543 L265 590 Q285 590 296 594.5 Q307 599 312.5 609 Q318 619 319 635 Q320 651 320 674 L265 674 L265 772 Z " />
<glyph glyph-name="Tbar" unicode="&#x166;" horiz-adv-x="382" d="M36 749 L347 749 L347 650 L241 650 L241 0 L142 0 L142 650 L36 650 L36 749 Z M74 536 L309 536 L309 443 L74 443 L74 536 Z " />
<glyph glyph-name="tbar" unicode="&#x167;" horiz-adv-x="245" d="M68 437 L12 437 L12 540 L68 540 L68 627 L168 627 L168 540 L229 540 L229 439 L168 439 L168 116 Q168 105 177 94 Q186 83 203 83 L229 83 L229 0 L155 0 Q114 0 91 26 Q68 52 68 97 L68 437 Z M10 350 L224 350 L224 265 L10 265 L10 350 Z " />
<glyph glyph-name="Utilde" unicode="&#x168;" horiz-adv-x="418" d="M157 749 L157 117 Q157 104 167.5 92 Q178 80 191 80 L235 80 Q249 80 260 91.5 Q271 103 271 117 L271 749 L370 749 L370 84 Q370 67 363 51.5 Q356 36 344.5 24.5 Q333 13 317.5 6.5 Q302 0 284 0 L143 0 Q125 0 109.5 6.5 Q94 13 82.5 24.5 Q71 36 64 51.5 Q57 67 57 84 L57 749 L157 749 Z M140 985 Q157 985 172.5 978.5 Q188 972 203 964.5 Q218 957 233.5 950.5 Q249 944 267 944 Q279 944 291.5 953 Q304 962 315 985 L389 985 Q384 921 357 886.5 Q330 852 288 852 Q272 852 255 858.5 Q238 865 221.5 873 Q205 881 189.5 887.5 Q174 894 161 894 Q148 894 137 885 Q126 876 116 852 L41 852 Q46 914 73.5 949.5 Q101 985 140 985 Z " />
<glyph glyph-name="utilde" unicode="&#x169;" horiz-adv-x="410" d="M138 0 Q101 0 76 24.5 Q51 49 51 85 L51 540 L153 540 L153 119 Q153 107 160 95.5 Q167 84 183 84 L227 84 Q243 84 254.5 90.5 Q266 97 266 119 L266 540 L368 540 L368 0 L297 0 Q286 0 277 6 Q268 12 266 27 Q255 11 243 5.5 Q231 0 223 0 L138 0 Z M136 775 Q153 775 168.5 768.5 Q184 762 199 754.5 Q214 747 229.5 740.5 Q245 734 263 734 Q275 734 287.5 743 Q300 752 311 775 L385 775 Q380 711 353 676.5 Q326 642 284 642 Q268 642 251 648.5 Q234 655 217.5 663 Q201 671 185.5 677.5 Q170 684 157 684 Q144 684 133 675 Q122 666 112 642 L37 642 Q42 704 69.5 739.5 Q97 775 136 775 Z " />
<glyph glyph-name="Umacron" unicode="&#x16a;" horiz-adv-x="418" d="M157 749 L157 117 Q157 104 167.5 92 Q178 80 191 80 L235 80 Q249 80 260 91.5 Q271 103 271 117 L271 749 L370 749 L370 84 Q370 67 363 51.5 Q356 36 344.5 24.5 Q333 13 317.5 6.5 Q302 0 284 0 L143 0 Q125 0 109.5 6.5 Q94 13 82.5 24.5 Q71 36 64 51.5 Q57 67 57 84 L57 749 L157 749 Z M66 978 L356 978 L356 895 L66 895 L66 978 Z " />
<glyph glyph-name="umacron" unicode="&#x16b;" horiz-adv-x="410" d="M138 0 Q101 0 76 24.5 Q51 49 51 85 L51 540 L153 540 L153 119 Q153 107 160 95.5 Q167 84 183 84 L227 84 Q243 84 254.5 90.5 Q266 97 266 119 L266 540 L368 540 L368 0 L297 0 Q286 0 277 6 Q268 12 266 27 Q255 11 243 5.5 Q231 0 223 0 L138 0 Z M58 775 L348 775 L348 691 L58 691 L58 775 Z " />
<glyph glyph-name="Ubreve" unicode="&#x16c;" horiz-adv-x="418" d="M157 749 L157 117 Q157 104 167.5 92 Q178 80 191 80 L235 80 Q249 80 260 91.5 Q271 103 271 117 L271 749 L370 749 L370 84 Q370 67 363 51.5 Q356 36 344.5 24.5 Q333 13 317.5 6.5 Q302 0 284 0 L143 0 Q125 0 109.5 6.5 Q94 13 82.5 24.5 Q71 36 64 51.5 Q57 67 57 84 L57 749 L157 749 Z M370 979 L370 949 Q370 931 363 915.5 Q356 900 344.5 888.5 Q333 877 317.5 870.5 Q302 864 284 864 L142 864 Q125 864 109.5 870.5 Q94 877 82.5 888.5 Q71 900 64 915.5 Q57 931 57 949 L57 979 L157 979 Q160 964 169 954 Q178 944 191 944 L228 944 Q248 944 259 954.5 Q270 965 272 979 L370 979 Z " />
<glyph glyph-name="ubreve" unicode="&#x16d;" horiz-adv-x="410" d="M138 0 Q101 0 76 24.5 Q51 49 51 85 L51 540 L153 540 L153 119 Q153 107 160 95.5 Q167 84 183 84 L227 84 Q243 84 254.5 90.5 Q266 97 266 119 L266 540 L368 540 L368 0 L297 0 Q286 0 277 6 Q268 12 266 27 Q255 11 243 5.5 Q231 0 223 0 L138 0 Z M366 774 L366 744 Q366 726 359 710.5 Q352 695 340.5 683.5 Q329 672 313.5 665.5 Q298 659 280 659 L138 659 Q121 659 105.5 665.5 Q90 672 78.5 683.5 Q67 695 60 710.5 Q53 726 53 744 L53 774 L153 774 Q156 759 165 749 Q174 739 187 739 L224 739 Q244 739 255 749.5 Q266 760 268 774 L366 774 Z " />
<glyph glyph-name="Uring" unicode="&#x16e;" horiz-adv-x="418" d="M153 749 L153 117 Q153 104 163.5 92 Q174 80 187 80 L231 80 Q245 80 256 91.5 Q267 103 267 117 L267 749 L366 749 L366 84 Q366 67 359 51.5 Q352 36 340.5 24.5 Q329 13 313.5 6.5 Q298 0 280 0 L139 0 Q121 0 105.5 6.5 Q90 13 78.5 24.5 Q67 36 60 51.5 Q53 67 53 84 L53 749 L153 749 Z M222 870 Q237 870 242.5 876 Q248 882 248 889 L248 904 Q248 912 242.5 918 Q237 924 230 924 L196 924 Q181 924 175.5 917.5 Q170 911 170 904 L170 891 Q170 883 175 876.5 Q180 870 188 870 L222 870 Z M161 814 Q141 814 125 829.5 Q109 845 109 865 L109 929 Q109 949 125 964.5 Q141 980 161 980 L257 980 Q278 980 293.5 964.5 Q309 949 309 929 L309 865 Q309 845 293.5 829.5 Q278 814 257 814 L161 814 Z " />
<glyph glyph-name="uring" unicode="&#x16f;" horiz-adv-x="410" d="M138 0 Q101 0 76 24.5 Q51 49 51 85 L51 540 L153 540 L153 119 Q153 107 160 95.5 Q167 84 183 84 L227 84 Q243 84 254.5 90.5 Q266 97 266 119 L266 540 L368 540 L368 0 L297 0 Q286 0 277 6 Q268 12 266 27 Q255 11 243 5.5 Q231 0 223 0 L138 0 Z M216 663 Q231 663 236.5 669 Q242 675 242 682 L242 697 Q242 705 236.5 711 Q231 717 224 717 L190 717 Q175 717 169.5 710.5 Q164 704 164 697 L164 684 Q164 676 169 669.5 Q174 663 182 663 L216 663 Z M155 607 Q135 607 119 622.5 Q103 638 103 658 L103 722 Q103 742 119 757.5 Q135 773 155 773 L251 773 Q272 773 287.5 757.5 Q303 742 303 722 L303 658 Q303 638 287.5 622.5 Q272 607 251 607 L155 607 Z " />
<glyph glyph-name="Uhungarumlaut" unicode="&#x170;" horiz-adv-x="418" d="M157 749 L157 117 Q157 104 167.5 92 Q178 80 191 80 L235 80 Q249 80 260 91.5 Q271 103 271 117 L271 749 L370 749 L370 84 Q370 67 363 51.5 Q356 36 344.5 24.5 Q333 13 317.5 6.5 Q302 0 284 0 L143 0 Q125 0 109.5 6.5 Q94 13 82.5 24.5 Q71 36 64 51.5 Q57 67 57 84 L57 749 L157 749 Z M116 984 L210 984 L159 885 L72 885 L116 984 Z M320 984 L414 984 L363 885 L276 885 L320 984 Z " />
<glyph glyph-name="uhungarumlaut" unicode="&#x171;" horiz-adv-x="410" d="M138 0 Q101 0 76 24.5 Q51 49 51 85 L51 540 L153 540 L153 119 Q153 107 160 95.5 Q167 84 183 84 L227 84 Q243 84 254.5 90.5 Q266 97 266 119 L266 540 L368 540 L368 0 L297 0 Q286 0 277 6 Q268 12 266 27 Q255 11 243 5.5 Q231 0 223 0 L138 0 Z M98 775 L192 775 L141 676 L54 676 L98 775 Z M302 775 L396 775 L345 676 L258 676 L302 775 Z " />
<glyph glyph-name="Uogonek" unicode="&#x172;" horiz-adv-x="418" d="M157 749 L157 117 Q157 104 167.5 92 Q178 80 191 80 L235 80 Q249 80 260 91.5 Q271 103 271 117 L271 749 L370 749 L370 84 Q370 67 363 51.5 Q356 36 344.5 24.5 Q333 13 317.5 6.5 Q302 0 284 0 L143 0 Q125 0 109.5 6.5 Q94 13 82.5 24.5 Q71 36 64 51.5 Q57 67 57 84 L57 749 L157 749 Z M292 -213 Q272 -217 247 -217 Q191 -217 167 -191 Q143 -165 143 -130 Q143 -114 148 -96 Q153 -78 162 -60 Q171 -42 182.5 -26 Q194 -10 207 1 L236 1 Q222 -23 214.5 -44 Q207 -65 207 -82 Q207 -105 222.5 -120.5 Q238 -136 275 -137 L298 -202 L292 -213 Z " />
<glyph glyph-name="uogonek" unicode="&#x173;" horiz-adv-x="410" d="M138 0 Q101 0 76 24.5 Q51 49 51 85 L51 540 L153 540 L153 119 Q153 107 160 95.5 Q167 84 183 84 L227 84 Q243 84 254.5 90.5 Q266 97 266 119 L266 540 L368 540 L368 0 L297 0 Q286 0 277 6 Q268 12 266 27 Q255 11 243 5.5 Q231 0 223 0 L138 0 Z M390 -203 L367 -138 Q330 -137 314.5 -121.5 Q299 -106 299 -83 Q299 -66 306.5 -45 Q314 -24 328 0 L299 0 Q286 -11 274.5 -27 Q263 -43 254 -61 Q245 -79 240 -97 Q235 -115 235 -131 Q235 -166 259 -192 Q283 -218 339 -218 Q364 -218 384 -214 L390 -203 Z " />
<glyph glyph-name="Wcircumflex" unicode="&#x174;" horiz-adv-x="742" d="M504 338 L504 141 L533 141 L546 338 L633 749 L741 749 L573 0 L479 0 L390 357 L377 554 L361 554 L348 357 L260 0 L165 0 L-3 749 L105 749 L192 338 L205 141 L221 141 L234 338 L322 749 L416 749 L504 338 Z M325 984 L422 984 L519 836 L421 836 L374 906 L329 836 L229 836 L325 984 Z " />
<glyph glyph-name="wcircumflex" unicode="&#x175;" horiz-adv-x="634" d="M422 103 L414 216 L356 541 L236 541 L276 386 L220 216 Q218 187 216 159.5 Q214 132 212 103 L196 103 L188 216 L130 541 L20 541 L150 0 L259 0 L308 223 L324 223 L378 0 L484 0 L615 541 L505 541 L447 216 Q445 187 443 159.5 Q441 132 439 103 L422 103 Z M269 774 L366 774 L463 626 L365 626 L318 696 L273 626 L173 626 L269 774 Z " />
<glyph glyph-name="Ycircumflex" unicode="&#x176;" horiz-adv-x="420" d="M194 505 L136 749 L37 749 L160 233 L160 0 L260 0 L260 233 L383 749 L284 749 L226 505 L218 391 L202 391 L194 505 Z M161 983 L258 983 L355 835 L257 835 L210 905 L165 835 L65 835 L161 983 Z " />
<glyph glyph-name="ycircumflex" unicode="&#x177;" horiz-adv-x="412" d="M269 540 L269 115 Q269 92 256.5 88 Q244 84 230 84 L186 84 Q170 84 162.5 95.5 Q155 107 155 119 L155 540 L54 540 L54 85 Q54 49 79 24.5 Q104 0 140 0 L226 0 Q234 0 246 6 Q258 12 269 26 L269 -111 Q269 -126 260.5 -136 Q252 -146 239 -148 L191 -148 Q176 -148 165.5 -137.5 Q155 -127 155 -111 L155 -73 L54 -73 L54 -145 Q54 -163 60.5 -178.5 Q67 -194 79 -205.5 Q91 -217 106.5 -224 Q122 -231 140 -231 L284 -231 Q302 -231 318 -224 Q334 -217 345.5 -205.5 Q357 -194 364 -178.5 Q371 -163 371 -145 L371 540 L269 540 Z M159 774 L256 774 L353 626 L255 626 L208 696 L163 626 L63 626 L159 774 Z " />
<glyph glyph-name="Ydieresis" unicode="&#x178;" horiz-adv-x="421" d="M200 391 L216 391 L224 505 L282 749 L381 749 L258 233 L258 0 L158 0 L158 233 L35 749 L134 749 L192 505 L200 391 Z M50 907 Q50 933 66.5 949.5 Q83 966 108 966 Q134 966 150.5 949.5 Q167 933 167 907 Q167 882 150.5 865 Q134 848 108 848 Q83 848 66.5 865 Q50 882 50 907 Z M258 907 Q258 933 275 949.5 Q292 966 317 966 Q341 966 358.5 949.5 Q376 933 376 907 Q376 882 358.5 865 Q341 848 317 848 Q292 848 275 865 Q258 882 258 907 Z " />
<glyph glyph-name="Zacute" unicode="&#x179;" horiz-adv-x="386" d="M41 749 L353 749 L353 650 Q353 643 351.5 636.5 Q350 630 348 625 L136 99 L353 99 L353 0 L42 0 L42 97 Q42 115 46 124 L259 650 L41 650 L41 749 Z M221 985 L315 985 L264 886 L177 886 L221 985 Z " />
<glyph glyph-name="zacute" unicode="&#x17a;" horiz-adv-x="386" d="M52 76 Q52 95 56 107.5 Q60 120 65 125 Q106 205 146 281.5 Q186 358 227 439 L52 439 L52 540 L344 540 L344 457 Q344 445 339.5 433.5 Q335 422 332 416 L167 100 L354 100 L354 -1 L52 -1 L52 76 Z M214 775 L308 775 L257 676 L170 676 L214 775 Z " />
<glyph glyph-name="Zdotaccent" unicode="&#x17b;" horiz-adv-x="386" d="M41 749 L353 749 L353 650 Q353 643 351.5 636.5 Q350 630 348 625 L136 99 L353 99 L353 0 L42 0 L42 97 Q42 115 46 124 L259 650 L41 650 L41 749 Z M135 921 Q135 947 152.5 963.5 Q170 980 193 980 Q219 980 235.5 963.5 Q252 947 252 921 Q252 896 235.5 879 Q219 862 193 862 Q170 862 152.5 879 Q135 896 135 921 Z " />
<glyph glyph-name="zdotaccent" unicode="&#x17c;" horiz-adv-x="386" d="M52 76 Q52 95 56 107.5 Q60 120 65 125 Q106 205 146 281.5 Q186 358 227 439 L52 439 L52 540 L344 540 L344 457 Q344 445 339.5 433.5 Q335 422 332 416 L167 100 L354 100 L354 -1 L52 -1 L52 76 Z M146 716 Q146 742 163.5 758.5 Q181 775 204 775 Q230 775 246.5 758.5 Q263 742 263 716 Q263 691 246.5 674 Q230 657 204 657 Q181 657 163.5 674 Q146 691 146 716 Z " />
<glyph glyph-name="Zcaron" unicode="&#x17d;" horiz-adv-x="386" d="M41 749 L353 749 L353 650 Q353 643 351.5 636.5 Q350 630 348 625 L136 99 L353 99 L353 0 L42 0 L42 97 Q42 115 46 124 L259 650 L41 650 L41 749 Z M50 983 L149 983 L196 913 L242 983 L340 983 Q329 964 313.5 940 Q298 916 286 899 Q276 884 265 868 Q254 852 243 835 L146 835 L50 983 Z " />
<glyph glyph-name="zcaron" unicode="&#x17e;" horiz-adv-x="386" d="M52 76 Q52 95 56 107.5 Q60 120 65 125 Q106 205 146 281.5 Q186 358 227 439 L52 439 L52 540 L344 540 L344 457 Q344 445 339.5 433.5 Q335 422 332 416 L167 100 L354 100 L354 -1 L52 -1 L52 76 Z M67 774 L166 774 L213 704 L259 774 L357 774 Q346 755 330.5 731 Q315 707 303 690 Q293 675 282 659 Q271 643 260 626 L163 626 L67 774 Z " />
<glyph glyph-name="longs" unicode="&#x17f;" horiz-adv-x="345" d="M117 676 Q117 721 140 747.5 Q163 774 205 774 L333 774 L333 674 L217 674 L217 0 L117 0 L117 437 L54 437 L54 538 L117 538 L117 676 Z " />
<glyph glyph-name="florin" unicode="&#x192;" horiz-adv-x="284" d="M55 676 Q55 721 78 747.5 Q101 774 143 774 L271 774 L271 674 L156 674 L156 539 L239 539 L239 438 L156 438 L156 -133 Q156 -178 133 -204.5 Q110 -231 68 -231 L-60 -231 L-60 -130 L55 -130 L55 676 L55 676 Z " />
<glyph glyph-name="AEacute" unicode="&#x1fc;" horiz-adv-x="591" d="M152 156 L117 0 L5 0 L184 749 L559 749 L559 650 L345 650 L345 416 L528 416 L528 317 L345 317 L345 99 L559 99 L559 0 L246 0 L246 156 L152 156 Z M170 237 L246 237 L246 461 L268 650 L255 650 L220 461 L170 237 Z M345 984 L439 984 L388 885 L301 885 L345 984 Z " />
<glyph glyph-name="aeacute" unicode="&#x1fd;" horiz-adv-x="607" d="M129 0 Q93 0 67.5 24.5 Q42 49 42 85 L42 455 Q42 473 49 488.5 Q56 504 67.5 515.5 Q79 527 95 533.5 Q111 540 129 540 L212 540 Q235 540 248.5 529 Q262 518 268 507 Q281 521 301.5 530.5 Q322 540 342 540 L489 540 Q507 540 523 533.5 Q539 527 551 515.5 Q563 504 570 488.5 Q577 473 577 455 L577 253 L360 253 L360 116 Q362 102 370 93 Q378 84 389 83 L440 83 Q454 83 464.5 94 Q475 105 475 119 L475 145 L577 145 L577 85 Q577 49 551.5 24.5 Q526 0 489 0 L345 0 Q342 0 333.5 1 Q325 2 314.5 5 Q304 8 292 14.5 Q280 21 269 32 Q258 18 244.5 9 Q231 0 221 0 L129 0 Z M144 118 Q144 106 154.5 94.5 Q165 83 179 83 L219 83 Q234 83 246 90.5 Q258 98 258 119 L258 425 Q258 448 246 452 Q234 456 219 456 L174 456 Q159 456 151.5 444.5 Q144 433 144 421 L144 118 Z M360 332 L475 332 L475 421 Q475 433 467.5 444.5 Q460 456 444 456 L390 456 Q377 456 369.5 447 Q362 438 360 427 L360 332 Z M272 775 L366 775 L315 676 L228 676 L272 775 Z " />
<glyph glyph-name="Oslashacute" unicode="&#x1fe;" horiz-adv-x="406" d="M136 0 Q125 0 110 4.5 Q95 9 76 20 L41 -52 L-53 -52 L51 152 L51 665 Q51 700 76 724.5 Q101 749 136 749 L278 749 Q292 749 309 742 Q326 735 345 723 L371 777 L469 777 L363 573 L363 84 Q363 67 356.5 51.5 Q350 36 338.5 24.5 Q327 13 311.5 6.5 Q296 0 278 0 L136 0 Z M185 670 Q171 670 161 658 Q151 646 151 632 L151 117 Q151 104 161.5 92 Q172 80 185 80 L229 80 Q244 80 253.5 91.5 Q263 103 263 117 L263 633 Q263 646 254.5 658 Q246 670 221 670 L185 670 Z M211 984 L305 984 L254 885 L167 885 L211 984 Z " />
<glyph glyph-name="oslashacute" unicode="&#x1ff;" horiz-adv-x="460" d="M139 0 L111 -53 L-6 -53 L58 72 L58 455 Q58 473 65 488.5 Q72 504 83.5 515.5 Q95 527 110.5 533.5 Q126 540 144 540 L300 540 L328 592 L449 592 L375 453 L375 85 Q375 49 349.5 24.5 Q324 0 289 0 L139 0 Z M195 458 Q180 458 169.5 446.5 Q159 435 159 421 L159 118 Q159 107 169.5 95 Q180 83 195 83 L239 83 Q254 83 263.5 94 Q273 105 273 119 L273 422 Q273 435 264.5 446.5 Q256 458 230 458 L195 458 Z M230 775 L324 775 L273 676 L186 676 L230 775 Z " />
<glyph glyph-name="Scommaaccent" unicode="&#x218;" horiz-adv-x="392" d="M144 542 Q144 519 160 503 Q176 487 199.5 474 Q223 461 250.5 449 Q278 437 301.5 421 Q325 405 341 384 Q357 363 357 333 L357 84 Q357 67 350 51.5 Q343 36 331.5 24.5 Q320 13 304.5 6.5 Q289 0 271 0 L129 0 Q94 0 69 24.5 Q44 49 44 84 L44 211 L144 211 L144 117 Q144 104 154.5 92 Q165 80 178 80 L222 80 Q236 80 247 91.5 Q258 103 258 117 L258 290 Q258 318 242 337 Q226 356 202.5 370.5 Q179 385 151.5 397 Q124 409 100.5 423 Q77 437 61 455 Q45 473 45 499 L45 665 Q45 682 52 697.5 Q59 713 70.5 724.5 Q82 736 97.5 742.5 Q113 749 131 749 L271 749 Q289 749 304.5 742.5 Q320 736 331.5 724.5 Q343 713 350 697.5 Q357 682 357 665 L357 563 L258 563 L258 633 Q258 646 248.5 658 Q239 670 214 670 L178 670 Q164 670 154 658 Q144 646 144 632 L144 542 Z M149 -231 L149 -132 L248 -132 L248 -223 Q248 -259 246.5 -285.5 Q245 -312 235.5 -328.5 Q226 -345 206 -353 Q186 -361 149 -361 L149 -314 Q169 -314 180 -309.5 Q191 -305 196.5 -295.5 Q202 -286 203 -270 Q204 -254 204 -231 L149 -231 Z " />
<glyph glyph-name="scommaaccent" unicode="&#x219;" horiz-adv-x="399" d="M148 401 Q148 372 164 354.5 Q180 337 204 324 Q228 311 256 299 Q284 287 308 269.5 Q332 252 348 224.5 Q364 197 364 154 L364 85 Q364 67 357 51.5 Q350 36 338 24.5 Q326 13 310.5 6.5 Q295 0 277 0 L133 0 Q98 0 72.5 24.5 Q47 49 47 85 L47 152 L148 152 L148 118 Q148 106 158.5 94.5 Q169 83 183 83 L227 83 Q242 83 252 94 Q262 105 262 119 L262 143 Q262 169 246 186 Q230 203 206.5 216.5 Q183 230 155 242 Q127 254 103.5 268 Q80 282 64 301 Q48 320 48 349 L48 455 Q48 473 55 488.5 Q62 504 73.5 515.5 Q85 527 100.5 533.5 Q116 540 134 540 L277 540 Q295 540 310.5 531.5 Q326 523 338 509.5 Q350 496 357 479 Q364 462 364 444 L364 400 L262 400 L262 422 Q262 435 253.5 446.5 Q245 458 220 458 L183 458 Q169 458 158.5 446.5 Q148 435 148 421 L148 401 Z M152 -230 L152 -131 L251 -131 L251 -222 Q251 -258 249.5 -284.5 Q248 -311 238.5 -327.5 Q229 -344 209 -352 Q189 -360 152 -360 L152 -313 Q172 -313 183 -308.5 Q194 -304 199.5 -294 Q205 -284 206 -268.5 Q207 -253 207 -230 L152 -230 Z " />
<glyph glyph-name="uni021A" unicode="&#x21a;" horiz-adv-x="382" d="M41 749 L352 749 L352 650 L246 650 L246 0 L147 0 L147 650 L41 650 L41 749 Z M144 -201 L144 -102 L243 -102 L243 -193 Q243 -229 241.5 -255.5 Q240 -282 230.5 -298.5 Q221 -315 201 -323 Q181 -331 144 -331 L144 -284 Q164 -284 175 -279.5 Q186 -275 191.5 -265 Q197 -255 198 -239.5 Q199 -224 199 -201 L144 -201 Z " />
<glyph glyph-name="uni021B" unicode="&#x21b;" horiz-adv-x="245" d="M68 437 L12 437 L12 540 L68 540 L68 627 L168 627 L168 540 L229 540 L229 439 L168 439 L168 116 Q168 105 177 94 Q186 83 203 83 L229 83 L229 0 L155 0 Q114 0 91 26 Q68 52 68 97 L68 437 Z M105 -203 L105 -104 L204 -104 L204 -195 Q204 -231 202.5 -257.5 Q201 -284 191.5 -300.5 Q182 -317 162 -325 Q142 -333 105 -333 L105 -286 Q125 -286 136 -281.5 Q147 -277 152.5 -267 Q158 -257 159 -241.5 Q160 -226 160 -203 L105 -203 Z " />
<glyph glyph-name="dotlessj" unicode="&#x237;" horiz-adv-x="216" d="M23 -170 Q38 -168 50 -157.5 Q62 -147 62 -132 L62 541 L163 541 L163 -166 Q163 -184 156 -199.5 Q149 -215 137 -226.5 Q125 -238 109.5 -245 Q94 -252 76 -252 L20 -252 L23 -170 Z " />
<glyph glyph-name="circumflex" unicode="&#x2c6;" horiz-adv-x="290" d="M99 774 L196 774 L293 626 L195 626 L148 696 L103 626 L3 626 L99 774 Z " />
<glyph glyph-name="caron" unicode="&#x2c7;" horiz-adv-x="290" d="M3 774 L102 774 L149 704 L195 774 L293 774 Q282 755 266.5 731 Q251 707 239 690 Q229 675 218 659 Q207 643 196 626 L99 626 L3 774 Z " />
<glyph glyph-name="breve" unicode="&#x2d8;" horiz-adv-x="389" d="M365 774 L365 744 Q365 726 358 710.5 Q351 695 339.5 683.5 Q328 672 312.5 665.5 Q297 659 279 659 L137 659 Q120 659 104.5 665.5 Q89 672 77.5 683.5 Q66 695 59 710.5 Q52 726 52 744 L52 774 L152 774 Q155 759 164 749 Q173 739 186 739 L223 739 Q243 739 254 749.5 Q265 760 267 774 L365 774 Z " />
<glyph glyph-name="dotaccent" unicode="&#x2d9;" horiz-adv-x="203" d="M44 716 Q44 742 61.5 758.5 Q79 775 102 775 Q128 775 144.5 758.5 Q161 742 161 716 Q161 691 144.5 674 Q128 657 102 657 Q79 657 61.5 674 Q44 691 44 716 Z " />
<glyph glyph-name="ring" unicode="&#x2da;" horiz-adv-x="389" d="M212 664 Q227 664 232.5 670 Q238 676 238 683 L238 698 Q238 706 232.5 712 Q227 718 220 718 L186 718 Q171 718 165.5 711.5 Q160 705 160 698 L160 685 Q160 677 165 670.5 Q170 664 178 664 L212 664 Z M151 608 Q131 608 115 623.5 Q99 639 99 659 L99 723 Q99 743 115 758.5 Q131 774 151 774 L247 774 Q268 774 283.5 758.5 Q299 743 299 723 L299 659 Q299 639 283.5 623.5 Q268 608 247 608 L151 608 Z " />
<glyph glyph-name="ogonek" unicode="&#x2db;" horiz-adv-x="355" d="M206 -214 Q186 -218 161 -218 Q105 -218 81 -192 Q57 -166 57 -131 Q57 -115 62 -97 Q67 -79 76 -61 Q85 -43 96.5 -27 Q108 -11 121 0 L150 0 Q136 -24 128.5 -45 Q121 -66 121 -83 Q121 -106 136.5 -121.5 Q152 -137 189 -138 L212 -203 L206 -214 Z " />
<glyph glyph-name="tilde" unicode="&#x2dc;" horiz-adv-x="353" d="M135 775 Q152 775 167.5 768.5 Q183 762 198 754.5 Q213 747 228.5 740.5 Q244 734 262 734 Q274 734 286.5 743 Q299 752 310 775 L384 775 Q379 711 352 676.5 Q325 642 283 642 Q267 642 250 648.5 Q233 655 216.5 663 Q200 671 184.5 677.5 Q169 684 156 684 Q143 684 132 675 Q121 666 111 642 L36 642 Q41 704 68.5 739.5 Q96 775 135 775 Z " />
<glyph glyph-name="hungarumlaut" unicode="&#x2dd;" horiz-adv-x="439" d="M97 775 L191 775 L140 676 L53 676 L97 775 Z M301 775 L395 775 L344 676 L257 676 L301 775 Z " />
<glyph glyph-name="tonos" unicode="&#x384;" horiz-adv-x="203" d="M46 749 L162 749 L154 631 L54 631 L46 749 Z " />
<glyph glyph-name="dieresistonos" unicode="&#x385;" horiz-adv-x="406" d="M145 833 L261 833 L253 715 L153 715 L145 833 Z M38 634 Q38 660 54.5 676.5 Q71 693 96 693 Q122 693 138.5 676.5 Q155 660 155 634 Q155 609 138.5 592 Q122 575 96 575 Q71 575 54.5 592 Q38 609 38 634 Z M246 634 Q246 660 263 676.5 Q280 693 305 693 Q329 693 346.5 676.5 Q364 660 364 634 Q364 609 346.5 592 Q329 575 305 575 Q280 575 263 592 Q246 609 246 634 Z " />
<glyph glyph-name="Alphatonos" unicode="&#x386;" horiz-adv-x="422" d="M317 0 L285 156 L131 156 L100 0 L-7 0 L161 749 L257 749 L425 0 L317 0 Z M188 422 L149 237 L268 237 Q260 283 249.5 329.5 Q239 376 230 422 L218 620 L201 620 L188 422 Z M-1 749 L115 749 L107 631 L7 631 L-1 749 Z " />
<glyph glyph-name="Epsilontonos" unicode="&#x388;" horiz-adv-x="480" d="M129 749 L442 749 L442 650 L228 650 L228 416 L410 416 L410 317 L228 317 L228 99 L442 99 L442 0 L129 0 L129 749 Z M-17 749 L99 749 L91 631 L-9 631 L-17 749 Z " />
<glyph glyph-name="Etatonos" unicode="&#x389;" horiz-adv-x="425" d="M274 317 L160 317 L160 0 L61 0 L61 749 L160 749 L160 416 L274 416 L274 749 L373 749 L373 0 L274 0 L274 317 Z M204 984 L298 984 L247 885 L160 885 L204 984 Z " />
<glyph glyph-name="Iotatonos" unicode="&#x38a;" horiz-adv-x="290" d="M132 749 L231 749 L231 0 L132 0 L132 749 Z M-17 749 L99 749 L91 631 L-9 631 L-17 749 Z " />
<glyph glyph-name="Omicrontonos" unicode="&#x38c;" horiz-adv-x="484" d="M213 0 Q178 0 153 24.5 Q128 49 128 84 L128 665 Q128 700 153 724.5 Q178 749 213 749 L355 749 Q391 749 415 724.5 Q439 700 439 665 L439 84 Q439 49 415 24.5 Q391 0 355 0 L213 0 Z M262 670 Q248 670 238 658 Q228 646 228 632 L228 117 Q228 104 238.5 92 Q249 80 262 80 L306 80 Q320 80 330.5 91.5 Q341 103 341 117 L341 633 Q341 646 332 658 Q323 670 299 670 L262 670 Z M-20 749 L96 749 L88 631 L-12 631 L-20 749 Z " />
<glyph glyph-name="Upsilontonos" unicode="&#x38e;" horiz-adv-x="436" d="M236 391 L252 391 L260 505 L318 749 L417 749 L294 233 L294 0 L194 0 L194 233 L71 749 L170 749 L228 505 L236 391 Z M-58 749 L58 749 L50 631 L-50 631 L-58 749 Z " />
<glyph glyph-name="Omegatonos" unicode="&#x38f;" horiz-adv-x="484" d="M338 632 Q338 646 327.5 658 Q317 670 303 670 L263 670 Q249 670 239 658 Q229 646 229 632 L229 235 Q229 221 234 212 Q239 203 244.5 194.5 Q250 186 255 177 Q260 168 260 153 L260 94 Q260 77 253.5 60 Q247 43 235.5 29.5 Q224 16 208.5 8 Q193 0 175 0 L129 0 L129 79 Q143 83 151.5 93.5 Q160 104 160 117 L160 153 Q160 166 155 175 Q150 184 144.5 192.5 Q139 201 134 209.5 Q129 218 129 232 L129 665 Q129 700 154 724.5 Q179 749 214 749 L352 749 Q387 749 412 724.5 Q437 700 437 665 L437 232 Q437 218 432 208.5 Q427 199 421.5 191 Q416 183 411 174.5 Q406 166 406 153 L406 117 Q406 106 415.5 95 Q425 84 437 78 L437 0 L392 0 Q374 0 358.5 8 Q343 16 331.5 29.5 Q320 43 313 60 Q306 77 306 94 L306 153 Q306 167 311 176 Q316 185 322 193.5 Q328 202 333 211 Q338 220 338 235 L338 632 Z M-19 749 L97 749 L89 631 L-11 631 L-19 749 Z " />
<glyph glyph-name="iotadieresistonos" unicode="&#x390;" horiz-adv-x="228" d="M147 -5 Q121 -5 104 6 Q87 17 77 36 Q67 55 63.5 80 Q60 105 60 132 L60 540 L161 540 L161 97 Q161 87 168 77.5 Q175 68 200 68 L200 14 Q189 3 175.5 -1 Q162 -5 147 -5 Z M52 833 L168 833 L160 715 L60 715 L52 833 Z M-53 634 Q-53 660 -36.5 676.5 Q-20 693 5 693 Q31 693 47.5 676.5 Q64 660 64 634 Q64 609 47.5 592 Q31 575 5 575 Q-20 575 -36.5 592 Q-53 609 -53 634 Z M155 634 Q155 660 172 676.5 Q189 693 214 693 Q238 693 255.5 676.5 Q273 660 273 634 Q273 609 255.5 592 Q238 575 214 575 Q189 575 172 592 Q155 609 155 634 Z " />
<glyph glyph-name="Alpha" unicode="&#x391;" horiz-adv-x="432" d="M322 0 L290 156 L136 156 L105 0 L-2 0 L166 749 L262 749 L430 0 L322 0 Z M193 422 L154 237 L273 237 Q265 283 254.5 329.5 Q244 376 235 422 L223 620 L206 620 L193 422 Z " />
<glyph glyph-name="Beta" unicode="&#x392;" horiz-adv-x="416" d="M61 749 L288 749 Q306 749 321.5 742.5 Q337 736 348.5 724.5 Q360 713 367 697.5 Q374 682 374 665 L374 498 Q374 461 323 419 Q374 382 374 341 L374 84 Q374 67 367 51.5 Q360 36 348.5 24.5 Q337 13 321.5 6.5 Q306 0 288 0 L61 0 L61 749 Z M160 80 L239 80 Q253 80 263.5 91.5 Q274 103 274 117 L274 356 Q274 371 263 382.5 Q252 394 237 394 L160 394 L160 80 Z M237 474 Q252 474 263 485 Q274 496 274 510 L274 632 Q274 644 266 656 Q258 668 243 668 L160 668 L160 474 L237 474 Z " />
<glyph glyph-name="Gamma" unicode="&#x393;" horiz-adv-x="400" d="M160 0 L61 0 L61 749 L374 749 L374 650 L160 650 L160 0 Z " />
<glyph glyph-name="Epsilon" unicode="&#x395;" horiz-adv-x="412" d="M61 749 L374 749 L374 650 L160 650 L160 416 L342 416 L342 317 L160 317 L160 99 L374 99 L374 0 L61 0 L61 749 Z " />
<glyph glyph-name="Zeta" unicode="&#x396;" horiz-adv-x="392" d="M40 749 L352 749 L352 650 Q352 643 350.5 636.5 Q349 630 347 625 L129 99 L352 99 L352 0 L41 0 L41 97 Q41 115 45 124 Q99 258 151.5 387.5 Q204 517 258 650 L40 650 L40 749 Z " />
<glyph glyph-name="Eta" unicode="&#x397;" horiz-adv-x="425" d="M274 317 L160 317 L160 0 L61 0 L61 749 L160 749 L160 416 L274 416 L274 749 L373 749 L373 0 L274 0 L274 317 Z " />
<glyph glyph-name="Theta" unicode="&#x398;" horiz-adv-x="406" d="M136 0 Q101 0 76 24.5 Q51 49 51 84 L51 665 Q51 700 76 724.5 Q101 749 136 749 L278 749 Q314 749 338 724.5 Q362 700 362 665 L362 84 Q362 49 338 24.5 Q314 0 278 0 L136 0 Z M229 80 Q243 80 253.5 91.5 Q264 103 264 117 L264 353 L151 353 L151 117 Q151 104 161.5 92 Q172 80 185 80 L229 80 Z M185 670 Q171 670 161 658 Q151 646 151 632 L151 452 L264 452 L264 633 Q264 646 255 658 Q246 670 222 670 L185 670 Z " />
<glyph glyph-name="Iota" unicode="&#x399;" horiz-adv-x="221" d="M63 749 L162 749 L162 0 L63 0 L63 749 Z " />
<glyph glyph-name="Kappa" unicode="&#x39a;" horiz-adv-x="402" d="M160 550 L130 413 L145 413 Q179 496 215 581 Q251 666 285 749 L390 749 L230 374 L391 0 L286 0 L145 335 L130 335 L160 188 L160 0 L61 0 L61 749 L160 749 L160 550 Z " />
<glyph glyph-name="Lambda" unicode="&#x39b;" horiz-adv-x="422" d="M231 412 L219 609 L202 609 L189 412 L101 1 L-6 1 L163 750 L259 750 L426 1 L319 1 L231 412 Z " />
<glyph glyph-name="Mu" unicode="&#x39c;" horiz-adv-x="545" d="M295 0 L250 0 L135 472 L123 472 L153 285 L153 0 L55 0 L55 749 L164 749 L248 419 L267 271 L279 271 L297 419 L382 749 L491 749 L491 0 L392 0 L392 285 Q400 333 407.5 378.5 Q415 424 423 472 L411 472 L295 0 Z " />
<glyph glyph-name="Nu" unicode="&#x39d;" horiz-adv-x="425" d="M373 0 L265 0 L142 477 L129 477 Q137 426 144 378.5 Q151 331 159 280 L159 0 L60 0 L60 749 L171 749 L289 276 L304 276 Q296 325 288.5 375 Q281 425 274 474 L274 749 L373 749 L373 0 Z " />
<glyph glyph-name="Xi" unicode="&#x39e;" horiz-adv-x="386" d="M42 99 L353 99 L353 0 L42 0 L42 99 Z M353 650 L41 650 L41 749 L353 749 L353 650 Z M110 431 L292 431 L292 332 L110 332 L110 431 Z " />
<glyph glyph-name="Omicron" unicode="&#x39f;" horiz-adv-x="412" d="M135 0 Q100 0 75 24.5 Q50 49 50 84 L50 665 Q50 700 75 724.5 Q100 749 135 749 L277 749 Q313 749 337 724.5 Q361 700 361 665 L361 84 Q361 49 337 24.5 Q313 0 277 0 L135 0 Z M184 670 Q170 670 160 658 Q150 646 150 632 L150 117 Q150 104 160.5 92 Q171 80 184 80 L228 80 Q242 80 252.5 91.5 Q263 103 263 117 L263 633 Q263 646 254 658 Q245 670 221 670 L184 670 Z " />
<glyph glyph-name="Pi" unicode="&#x3a0;" horiz-adv-x="406" d="M275 650 L160 650 L160 0 L61 0 L61 749 L374 749 L374 0 L275 0 L275 650 Z " />
<glyph glyph-name="Rho" unicode="&#x3a1;" horiz-adv-x="397" d="M61 749 L286 749 Q304 749 319.5 742.5 Q335 736 346.5 724.5 Q358 713 365 697.5 Q372 682 372 665 L372 401 Q372 365 346.5 341 Q321 317 286 317 L160 317 L160 0 L61 0 L61 749 Z M160 670 L160 398 L237 398 Q251 398 262 409 Q273 420 273 434 L273 633 Q273 646 264.5 658 Q256 670 241 670 L160 670 Z " />
<glyph glyph-name="Sigma" unicode="&#x3a3;" horiz-adv-x="386" d="M302 372 L146 99 L353 99 L353 0 L42 0 L42 97 Q42 99 42.5 108.5 Q43 118 45 123 L191 372 L45 626 Q41 633 41 650 L41 749 L353 749 L353 650 L144 650 L302 372 Z " />
<glyph glyph-name="Tau" unicode="&#x3a4;" horiz-adv-x="382" d="M41 749 L352 749 L352 650 L246 650 L246 0 L147 0 L147 650 L41 650 L41 749 Z " />
<glyph glyph-name="Upsilon" unicode="&#x3a5;" horiz-adv-x="387" d="M185 391 L201 391 L209 505 L267 749 L366 749 L243 233 L243 0 L143 0 L143 233 L20 749 L119 749 L177 505 L185 391 Z " />
<glyph glyph-name="Phi" unicode="&#x3a6;" horiz-adv-x="611" d="M264 52 L134 52 Q116 52 100.5 58.5 Q85 65 73.5 76.5 Q62 88 55.5 103.5 Q49 119 49 136 L49 613 Q49 630 55.5 645.5 Q62 661 73.5 672.5 Q85 684 100.5 690.5 Q116 697 134 697 L264 697 L264 749 L362 749 L362 697 L489 697 Q507 697 522.5 690.5 Q538 684 549.5 672.5 Q561 661 568 645.5 Q575 630 575 613 L575 136 Q575 119 568 103.5 Q561 88 549.5 76.5 Q538 65 522.5 58.5 Q507 52 489 52 L362 52 L362 0 L264 0 L264 52 Z M397 617 Q382 617 373 606.5 Q364 596 362 583 L362 164 Q364 151 373.5 142 Q383 133 397 133 L441 133 Q455 133 465 144 Q475 155 475 170 L475 582 Q475 594 466.5 605.5 Q458 617 432 617 L397 617 Z M183 617 Q169 617 159 605.5 Q149 594 149 579 L149 169 Q149 156 159.5 144.5 Q170 133 183 133 L228 133 Q242 133 251.5 144 Q261 155 261 170 L261 582 Q261 594 252.5 605.5 Q244 617 219 617 L183 617 Z " />
<glyph glyph-name="Chi" unicode="&#x3a7;" horiz-adv-x="429" d="M393 0 L293 0 L236 236 L228 379 L211 379 L202 236 L145 0 L45 0 L140 414 L45 749 L145 749 L202 569 L211 461 L228 461 L236 569 L293 749 L393 749 L298 414 L393 0 Z " />
<glyph glyph-name="Psi" unicode="&#x3a8;" horiz-adv-x="535" d="M223 0 L223 445 Q200 415 179.5 403.5 Q159 392 134 392 L97 392 Q62 392 37 415.5 Q12 439 12 475 L12 749 L112 749 L112 507 Q112 495 123 483.5 Q134 472 146 472 L190 472 Q215 472 223 497 L223 749 L323 749 L323 497 Q331 472 356 472 L400 472 Q412 472 423.5 483.5 Q435 495 435 507 L435 749 L535 749 L535 475 Q535 439 509.5 415.5 Q484 392 449 392 L412 392 Q398 392 387.5 393.5 Q377 395 367 400.5 Q357 406 346.5 416.5 Q336 427 323 445 L323 0 L223 0 Z " />
<glyph glyph-name="Omega" unicode="&#x2126;" horiz-adv-x="406" d="M260 632 Q260 646 249.5 658 Q239 670 225 670 L185 670 Q171 670 161 658 Q151 646 151 632 L151 235 Q151 221 156 212 Q161 203 166.5 194.5 Q172 186 177 177 Q182 168 182 153 L182 94 Q182 77 175.5 60 Q169 43 157.5 29.5 Q146 16 130.5 8 Q115 0 97 0 L51 0 L51 79 Q65 83 73.5 93.5 Q82 104 82 117 L82 153 Q82 166 77 175 Q72 184 66.5 192.5 Q61 201 56 209.5 Q51 218 51 232 L51 665 Q51 700 76 724.5 Q101 749 136 749 L274 749 Q309 749 334 724.5 Q359 700 359 665 L359 232 Q359 218 354 208.5 Q349 199 343.5 191 Q338 183 333 174.5 Q328 166 328 153 L328 117 Q328 106 337.5 95 Q347 84 359 78 L359 0 L314 0 Q296 0 280.5 8 Q265 16 253.5 29.5 Q242 43 235 60 Q228 77 228 94 L228 153 Q228 167 233 176 Q238 185 244 193.5 Q250 202 255 211 Q260 220 260 235 L260 632 L260 632 Z " />
<glyph glyph-name="Iotadieresis" unicode="&#x3aa;" horiz-adv-x="221" d="M63 749 L162 749 L162 0 L63 0 L63 749 Z M-50 925 Q-50 951 -33.5 967.5 Q-17 984 8 984 Q34 984 50.5 967.5 Q67 951 67 925 Q67 900 50.5 883 Q34 866 8 866 Q-17 866 -33.5 883 Q-50 900 -50 925 Z M158 925 Q158 951 175 967.5 Q192 984 217 984 Q241 984 258.5 967.5 Q276 951 276 925 Q276 900 258.5 883 Q241 866 217 866 Q192 866 175 883 Q158 900 158 925 Z " />
<glyph glyph-name="Upsilondieresis" unicode="&#x3ab;" horiz-adv-x="384" d="M184 391 L200 391 L208 505 L266 749 L365 749 L242 233 L242 0 L142 0 L142 233 L19 749 L118 749 L176 505 L184 391 Z M27 925 Q27 951 43.5 967.5 Q60 984 85 984 Q111 984 127.5 967.5 Q144 951 144 925 Q144 900 127.5 883 Q111 866 85 866 Q60 866 43.5 883 Q27 900 27 925 Z M235 925 Q235 951 252 967.5 Q269 984 294 984 Q318 984 335.5 967.5 Q353 951 353 925 Q353 900 335.5 883 Q318 866 294 866 Q269 866 252 883 Q235 900 235 925 Z " />
<glyph glyph-name="alphatonos" unicode="&#x3ac;" horiz-adv-x="423" d="M368 99 Q370 89 376.5 76.5 Q383 64 406 57 Q406 40 407 27 Q408 14 408 -1 Q380 -6 356 -6 Q331 -6 309.5 3 Q288 12 274 39 Q263 16 248.5 8 Q234 0 223 0 L137 0 Q101 0 75.5 24.5 Q50 49 50 85 L50 455 Q50 473 57 488.5 Q64 504 75.5 515.5 Q87 527 103 533.5 Q119 540 137 540 L223 540 Q233 540 248 532 Q263 524 274 501 Q289 532 309.5 539 Q330 546 353 546 Q370 546 383.5 544.5 Q397 543 408 541 Q408 526 407 513 Q406 500 406 483 Q387 477 378.5 465.5 Q370 454 368 445 L368 99 Z M267 421 Q267 441 257 449 Q247 457 231 457 L187 457 Q173 457 162.5 445.5 Q152 434 152 422 L152 118 Q152 106 162.5 94.5 Q173 83 187 83 L227 83 Q241 83 254 90.5 Q267 98 267 119 L267 421 Z M161 774 L277 774 L269 656 L169 656 L161 774 Z " />
<glyph glyph-name="epsilontonos" unicode="&#x3ad;" horiz-adv-x="389" d="M232 82 Q247 82 257 93 Q267 104 267 118 L267 180 L369 180 L369 84 Q369 48 343.5 23.5 Q318 -1 282 -1 L138 -1 Q102 -1 77 23.5 Q52 48 52 84 L52 203 Q52 222 65 243 Q78 264 102 282 Q79 302 65.5 323 Q52 344 52 363 L52 457 Q52 474 58.5 489.5 Q65 505 77 516.5 Q89 528 104.5 535 Q120 542 138 542 L282 542 Q300 542 316 535 Q332 528 343.5 516.5 Q355 505 362 489.5 Q369 474 369 457 L369 423 L268 423 Q266 437 258 447.5 Q250 458 236 458 L184 458 Q168 458 160.5 446.5 Q153 435 153 423 L153 361 Q153 346 164 334.5 Q175 323 191 323 L235 323 L235 242 L191 242 Q175 242 164 231 Q153 220 153 205 L153 118 Q153 104 163.5 93 Q174 82 189 82 L232 82 Z M144 774 L260 774 L252 656 L152 656 L144 774 Z " />
<glyph glyph-name="etatonos" unicode="&#x3ae;" horiz-adv-x="417" d="M288 540 Q306 540 322 533.5 Q338 527 349.5 515.5 Q361 504 368 488.5 Q375 473 375 455 L375 -244 L273 -244 L273 421 Q273 433 265.5 444.5 Q258 456 243 456 L198 456 Q183 456 171.5 449.5 Q160 443 160 421 L160 0 L58 0 L58 540 L128 540 Q139 540 148.5 534 Q158 528 160 513 Q171 529 183 534.5 Q195 540 203 540 L288 540 Z M158 749 L274 749 L266 631 L166 631 L158 749 Z " />
<glyph glyph-name="iotatonos" unicode="&#x3af;" horiz-adv-x="228" d="M147 -5 Q121 -5 104 6 Q87 17 77 36 Q67 55 63.5 80 Q60 105 60 132 L60 540 L161 540 L161 97 Q161 87 168 77.5 Q175 68 200 68 L200 14 Q189 3 175.5 -1 Q162 -5 147 -5 Z M53 774 L169 774 L161 656 L61 656 L53 774 Z " />
<glyph glyph-name="upsilondieresistonos" unicode="&#x3b0;" horiz-adv-x="410" d="M138 0 Q101 0 76 24.5 Q51 49 51 85 L51 540 L153 540 L153 119 Q153 107 160 95.5 Q167 84 183 84 L227 84 Q243 84 254.5 90.5 Q266 97 266 119 L266 540 L368 540 L368 0 L297 0 Q286 0 277 6 Q268 12 266 26 Q255 11 243 5.5 Q231 0 223 0 L138 0 Z M152 833 L268 833 L260 715 L160 715 L152 833 Z M47 634 Q47 660 63.5 676.5 Q80 693 105 693 Q131 693 147.5 676.5 Q164 660 164 634 Q164 609 147.5 592 Q131 575 105 575 Q80 575 63.5 592 Q47 609 47 634 Z M255 634 Q255 660 272 676.5 Q289 693 314 693 Q338 693 355.5 676.5 Q373 660 373 634 Q373 609 355.5 592 Q338 575 314 575 Q289 575 272 592 Q255 609 255 634 Z " />
<glyph glyph-name="alpha" unicode="&#x3b1;" horiz-adv-x="423" d="M368 99 Q370 89 376.5 76.5 Q383 64 406 57 Q406 40 407 27 Q408 14 408 -1 Q380 -6 356 -6 Q331 -6 309.5 3 Q288 12 274 39 Q263 16 248.5 8 Q234 0 223 0 L137 0 Q101 0 75.5 24.5 Q50 49 50 85 L50 455 Q50 473 57 488.5 Q64 504 75.5 515.5 Q87 527 103 533.5 Q119 540 137 540 L223 540 Q233 540 248 532 Q263 524 274 501 Q289 532 309.5 539 Q330 546 353 546 Q370 546 383.5 544.5 Q397 543 408 541 Q408 526 407 513 Q406 500 406 483 Q387 477 378.5 465.5 Q370 454 368 445 L368 99 Z M267 421 Q267 441 257 449 Q247 457 231 457 L187 457 Q173 457 162.5 445.5 Q152 434 152 422 L152 118 Q152 106 162.5 94.5 Q173 83 187 83 L227 83 Q241 83 254 90.5 Q267 98 267 119 L267 421 Z " />
<glyph glyph-name="beta" unicode="&#x3b2;" horiz-adv-x="389" d="M213 83 L232 83 Q247 83 257 94 Q267 105 267 119 L267 348 Q267 364 256.5 374.5 Q246 385 230 385 L213 385 L213 468 L230 468 Q246 468 256.5 479 Q267 490 267 506 L267 656 Q267 668 260 680 Q253 692 236 692 L152 692 L152 -231 L52 -231 L52 691 Q52 706 58.5 721 Q65 736 76.5 748 Q88 760 104 767.5 Q120 775 138 775 L282 775 Q300 775 316 768.5 Q332 762 343.5 750.5 Q355 739 362 723.5 Q369 708 369 690 L369 506 Q369 488 354.5 467 Q340 446 318 426 Q341 407 355 386.5 Q369 366 369 346 L369 85 Q369 49 343.5 24.5 Q318 0 282 0 L213 0 L213 83 Z " />
<glyph glyph-name="gamma" unicode="&#x3b3;" horiz-adv-x="387" d="M143 24 L20 540 L119 540 L177 296 L185 182 L202 182 L210 295 L267 540 L367 540 L243 24 L243 -231 L143 -231 L143 24 Z " />
<glyph glyph-name="delta" unicode="&#x3b4;" horiz-adv-x="406" d="M357 774 L357 696 L160 696 L315 536 Q341 510 354.5 480 Q368 450 368 421 L368 85 Q368 49 342.5 24.5 Q317 0 281 0 L137 0 Q101 0 76 24.5 Q51 49 51 85 L51 454 Q51 489 76 514 Q101 539 137 539 L194 539 L60 672 Q55 677 53 689 Q51 701 51 712 L51 774 L357 774 Z M188 457 Q173 457 162.5 445.5 Q152 434 152 420 L152 118 Q152 106 163 94.5 Q174 83 188 83 L231 83 Q246 83 256 94 Q266 105 266 119 L266 422 Q266 434 258 445.5 Q250 457 224 457 L188 457 Z " />
<glyph glyph-name="epsilon" unicode="&#x3b5;" horiz-adv-x="389" d="M232 82 Q247 82 257 93 Q267 104 267 118 L267 180 L369 180 L369 84 Q369 48 343.5 23.5 Q318 -1 282 -1 L138 -1 Q102 -1 77 23.5 Q52 48 52 84 L52 203 Q52 222 65 243 Q78 264 102 282 Q79 302 65.5 323 Q52 344 52 363 L52 457 Q52 474 58.5 489.5 Q65 505 77 516.5 Q89 528 104.5 535 Q120 542 138 542 L282 542 Q300 542 316 535 Q332 528 343.5 516.5 Q355 505 362 489.5 Q369 474 369 457 L369 423 L268 423 Q266 437 258 447.5 Q250 458 236 458 L184 458 Q168 458 160.5 446.5 Q153 435 153 423 L153 361 Q153 346 164 334.5 Q175 323 191 323 L235 323 L235 242 L191 242 Q175 242 164 231 Q153 220 153 205 L153 118 Q153 104 163.5 93 Q174 82 189 82 L232 82 Z " />
<glyph glyph-name="zeta" unicode="&#x3b6;" horiz-adv-x="403" d="M52 77 Q52 94 56.5 106 Q61 118 64 124 L228 439 L52 439 L52 540 L344 540 L344 457 Q344 445 339.5 433.5 Q335 422 332 416 L167 101 L305 101 Q323 101 338.5 94 Q354 87 366 75 Q378 63 384.5 47 Q391 31 391 14 L391 -95 Q391 -134 368 -158 Q345 -182 314 -182 Q300 -182 285.5 -176.5 Q271 -171 257 -158 L257 -98 Q278 -104 282 -104 Q298 -104 303.5 -90 Q309 -76 309 -56 L309 -35 Q309 -21 299 -11.5 Q289 -2 275 0 L52 0 L52 77 Z " />
<glyph glyph-name="eta" unicode="&#x3b7;" horiz-adv-x="417" d="M288 540 Q306 540 322 533.5 Q338 527 349.5 515.5 Q361 504 368 488.5 Q375 473 375 455 L375 -244 L273 -244 L273 421 Q273 433 265.5 444.5 Q258 456 243 456 L198 456 Q183 456 171.5 449.5 Q160 443 160 421 L160 0 L58 0 L58 540 L128 540 Q139 540 148.5 534 Q158 528 160 513 Q171 529 183 534.5 Q195 540 203 540 L288 540 Z " />
<glyph glyph-name="theta" unicode="&#x3b8;" horiz-adv-x="406" d="M137 0 Q101 0 76 24.5 Q51 49 51 85 L51 687 Q51 725 76 749.5 Q101 774 137 774 L281 774 Q317 774 342.5 749.5 Q368 725 368 687 L368 85 Q368 49 342.5 24.5 Q317 0 281 0 L137 0 Z M231 83 Q246 83 256 94 Q266 105 266 119 L266 359 L152 359 L152 118 Q152 106 163 94.5 Q174 83 188 83 L231 83 Z M188 692 Q173 692 162.5 680.5 Q152 669 152 653 L152 460 L266 460 L266 655 Q266 669 258 680.5 Q250 692 224 692 L188 692 Z " />
<glyph glyph-name="iota" unicode="&#x3b9;" horiz-adv-x="228" d="M147 -5 Q121 -5 104 6 Q87 17 77 36 Q67 55 63.5 80 Q60 105 60 132 L60 540 L161 540 L161 97 Q161 87 168 77.5 Q175 68 200 68 L200 14 Q189 3 175.5 -1 Q162 -5 147 -5 Z M50 728 Q50 754 68 772 Q86 790 110 790 Q135 790 152.5 772 Q170 754 170 728 Q170 702 152.5 685.5 Q135 669 110 669 Q86 669 68 685.5 Q50 702 50 728 Z " />
<glyph glyph-name="kappa" unicode="&#x3ba;" horiz-adv-x="388" d="M239 0 L144 229 L128 229 L158 84 L158 1 L60 1 L60 541 L158 541 L158 443 L128 307 L144 307 L241 541 L344 541 L227 268 L342 0 L239 0 Z " />
<glyph glyph-name="lambda" unicode="&#x3bb;" horiz-adv-x="412" d="M204 359 L196 246 L138 0 L34 0 L156 503 L123 689 Q121 700 110 708.5 Q99 717 85 718 L64 712 L40 791 L105 808 Q110 809 113.5 809 Q117 809 122 809 Q150 809 176.5 794.5 Q203 780 211 749 L392 0 L287 0 L229 246 L221 359 L204 359 Z " />
<glyph glyph-name="uni03BC" unicode="&#x3bc;" horiz-adv-x="410" d="M196 0 Q188 0 176 5.5 Q164 11 153 26 Q153 15 153 -4 Q153 -23 152.5 -53 Q152 -83 152 -127 Q152 -171 152 -231 L51 -231 L51 540 L153 540 L153 119 Q153 97 164.5 90.5 Q176 84 191 84 L236 84 Q252 84 259 95.5 Q266 107 266 119 L266 540 L368 540 L368 85 Q368 49 342.5 24.5 Q317 0 281 0 L196 0 Z " />
<glyph glyph-name="nu" unicode="&#x3bd;" horiz-adv-x="347" d="M183 103 Q185 132 187 159.5 Q189 187 191 216 L249 541 L353 541 L223 0 L126 0 L-5 541 L100 541 L158 216 L166 103 L183 103 Z " />
<glyph glyph-name="xi" unicode="&#x3be;" horiz-adv-x="390" d="M152 138 Q152 123 162.5 112 Q173 101 188 101 L281 101 Q318 101 342.5 75 Q367 49 367 14 L367 -129 Q367 -166 347 -191.5 Q327 -217 292 -217 Q275 -217 264 -212.5 Q253 -208 246 -201.5 Q239 -195 236 -189 Q233 -183 233 -180 L233 -115 L250 -115 Q267 -115 277 -106 Q287 -97 287 -71 L287 -35 Q287 -21 275.5 -10.5 Q264 0 250 0 L138 0 Q102 0 77 24.5 Q52 49 52 85 L52 346 Q52 387 102 426 Q80 446 66 467 Q52 488 52 506 L52 688 Q52 726 77 750.5 Q102 775 138 775 L367 775 L367 690 L183 690 Q168 690 160 679 Q152 668 152 654 L152 504 Q152 489 163 478 Q174 467 190 467 L235 467 L235 385 L190 385 Q174 385 163 373.5 Q152 362 152 347 L152 138 L152 138 Z " />
<glyph glyph-name="omicron" unicode="&#x3bf;" horiz-adv-x="406" d="M137 0 Q101 0 76 24.5 Q51 49 51 85 L51 455 Q51 490 76 515 Q101 540 137 540 L281 540 Q299 540 315 533.5 Q331 527 342.5 515.5 Q354 504 361 488.5 Q368 473 368 455 L368 85 Q368 49 342.5 24.5 Q317 0 281 0 L137 0 Z M188 458 Q173 458 162.5 446.5 Q152 435 152 421 L152 118 Q152 106 163 94.5 Q174 83 188 83 L231 83 Q246 83 256 94 Q266 105 266 119 L266 423 Q266 435 258 446.5 Q250 458 224 458 L188 458 Z " />
<glyph glyph-name="pi" unicode="&#x3c0;" horiz-adv-x="510" d="M120 0 L120 461 Q98 456 86 440 Q74 424 70 412 L-19 412 Q-12 483 19 522 Q50 561 104 561 Q141 561 176 551 Q211 541 246.5 528.5 Q282 516 317.5 506 Q353 496 391 496 Q414 496 426 509.5 Q438 523 443 540 L532 540 Q527 482 502 444.5 Q477 407 437 391 L437 0 L337 0 L337 399 L221 436 L221 0 L120 0 Z " />
<glyph glyph-name="rho" unicode="&#x3c1;" horiz-adv-x="409" d="M371 85 Q371 49 345.5 24.5 Q320 0 284 0 L184 0 Q167 0 155 17 L155 -231 L54 -231 L54 454 Q54 470 60.5 485.5 Q67 501 79 513 Q91 525 106.5 532.5 Q122 540 140 540 L284 540 Q302 540 318 533 Q334 526 345.5 514.5 Q357 503 364 487.5 Q371 472 371 455 L371 85 Z M269 420 Q269 437 259.5 447 Q250 457 233 457 L191 457 Q176 457 165.5 445.5 Q155 434 155 420 L155 119 Q155 98 167.5 90.5 Q180 83 194 83 L234 83 Q248 83 258.5 94.5 Q269 106 269 118 L269 420 Z " />
<glyph glyph-name="uni03C2" unicode="&#x3c2;" horiz-adv-x="399" d="M136 0 Q101 0 75.5 24.5 Q50 49 50 85 L50 455 Q50 473 57 488.5 Q64 504 75.5 515.5 Q87 527 102.5 533.5 Q118 540 136 540 L280 540 Q298 540 314 533.5 Q330 527 341.5 515.5 Q353 504 360 488.5 Q367 473 367 455 L367 392 L265 392 L265 421 Q265 433 258 444.5 Q251 456 234 456 L181 456 Q166 456 158.5 444.5 Q151 433 151 421 L151 119 Q151 105 160 95 Q169 85 181 83 L247 83 Q265 83 281 76 Q297 69 308.5 57 Q320 45 326.5 29 Q333 13 333 -5 L333 -100 Q333 -137 312.5 -162.5 Q292 -188 257 -188 Q241 -188 230 -183.5 Q219 -179 212 -173 Q205 -167 202 -160.5 Q199 -154 199 -151 L199 -105 L216 -105 Q233 -105 243 -96 Q253 -87 253 -61 L253 -35 Q253 -21 241.5 -10.5 Q230 0 216 0 L136 0 Z " />
<glyph glyph-name="sigma" unicode="&#x3c3;" horiz-adv-x="437" d="M136 0 Q100 0 74.5 24.5 Q49 49 49 85 L49 455 Q49 473 56 488.5 Q63 504 74.5 515.5 Q86 527 102 533.5 Q118 540 136 540 L433 540 L433 458 L367 458 L367 85 Q367 49 341.5 24.5 Q316 0 280 0 L136 0 Z M186 458 Q172 458 161.5 446.5 Q151 435 151 421 L151 118 Q151 106 161.5 94.5 Q172 83 186 83 L230 83 Q244 83 255 94 Q266 105 266 119 L266 423 Q266 435 257 446.5 Q248 458 222 458 L186 458 Z " />
<glyph glyph-name="tau" unicode="&#x3c4;" horiz-adv-x="353" d="M302 0 L200 0 Q182 0 166.5 6.5 Q151 13 139 24.5 Q127 36 120 51.5 Q113 67 113 85 L113 440 L29 440 L29 540 L327 540 L327 440 L215 440 L215 119 Q215 109 224 98.5 Q233 88 243 83 L282 83 L302 0 Z " />
<glyph glyph-name="upsilon" unicode="&#x3c5;" horiz-adv-x="410" d="M138 0 Q101 0 76 24.5 Q51 49 51 85 L51 540 L153 540 L153 119 Q153 107 160 95.5 Q167 84 183 84 L227 84 Q243 84 254.5 90.5 Q266 97 266 119 L266 540 L368 540 L368 0 L297 0 Q286 0 277 6 Q268 12 266 26 Q255 11 243 5.5 Q231 0 223 0 L138 0 Z " />
<glyph glyph-name="phi" unicode="&#x3c6;" horiz-adv-x="612" d="M266 0 L134 0 Q98 0 72.5 24.5 Q47 49 47 85 L47 455 Q47 473 54 488.5 Q61 504 72.5 515.5 Q84 527 100 533.5 Q116 540 134 540 L173 540 L173 456 Q162 451 155 440.5 Q148 430 148 421 L148 118 Q148 106 159 94.5 Q170 83 184 83 L228 83 Q242 83 253 94 Q264 105 264 119 L264 455 Q264 473 271 488.5 Q278 504 290 515.5 Q302 527 317.5 533.5 Q333 540 351 540 L496 540 Q514 540 530 533.5 Q546 527 558 515.5 Q570 504 576.5 488.5 Q583 473 583 455 L583 85 Q583 49 558 24.5 Q533 0 496 0 L366 0 L366 -231 L266 -231 L266 0 Z M402 462 Q388 462 377.5 450.5 Q367 439 367 423 L367 121 Q367 109 377.5 97 Q388 85 402 85 L447 85 Q461 85 471 96.5 Q481 108 481 123 L481 426 Q481 439 473 450.5 Q465 462 439 462 L402 462 Z " />
<glyph glyph-name="chi" unicode="&#x3c7;" horiz-adv-x="390" d="M185 321 L204 321 L207 396 L264 540 L362 540 L269 287 L363 0 L262 0 L207 168 L203 244 L186 244 L182 168 L127 0 L26 0 L120 287 L27 540 L125 540 L182 396 L185 321 Z " />
<glyph glyph-name="psi" unicode="&#x3c8;" horiz-adv-x="612" d="M367 641 L367 121 Q367 109 377.5 97 Q388 85 402 85 L447 85 Q461 85 471 96.5 Q481 108 481 123 L481 541 L583 541 L583 85 Q583 49 558 24.5 Q533 0 496 0 L366 0 L366 -231 L266 -231 L266 0 L134 0 Q98 0 72.5 24.5 Q47 49 47 85 L47 541 L148 541 L148 118 Q148 106 159 94.5 Q170 83 184 83 L228 83 Q242 83 252.5 94 Q263 105 263 119 L263 641 L367 641 Z " />
<glyph glyph-name="omega" unicode="&#x3c9;" horiz-adv-x="610" d="M468 421 Q468 432 459.5 443 Q451 454 438 458 L438 540 L482 540 Q500 540 516 533.5 Q532 527 544 515.5 Q556 504 563 488.5 Q570 473 570 455 L570 85 Q570 49 544.5 24.5 Q519 0 482 0 L398 0 Q388 0 376 5.5 Q364 11 353 27 Q351 12 343 6 Q335 0 323 0 L282 0 Q271 0 262 6 Q253 12 251 27 Q240 11 228 5.5 Q216 0 207 0 L123 0 Q86 0 60.5 24.5 Q35 49 35 85 L35 455 Q35 473 42 488.5 Q49 504 61 515.5 Q73 527 89 533.5 Q105 540 123 540 L167 540 L167 458 Q154 454 145.5 443 Q137 432 137 421 L137 119 Q137 107 144.5 95.5 Q152 84 168 84 L212 84 Q228 84 239.5 90.5 Q251 97 251 119 L251 540 L354 540 L354 119 Q354 97 366 90.5 Q378 84 393 84 L438 84 Q453 84 460.5 95.5 Q468 107 468 119 L468 421 Z " />
<glyph glyph-name="iotadieresis" unicode="&#x3ca;" horiz-adv-x="228" d="M-57 728 Q-57 754 -39.5 772 Q-22 790 2 790 Q28 790 45.5 772 Q63 754 63 728 Q63 702 45.5 685.5 Q28 669 2 669 Q-22 669 -39.5 685.5 Q-57 702 -57 728 Z M160 728 Q160 754 176 772 Q192 790 218 790 Q244 790 261.5 772 Q279 754 279 728 Q279 702 261.5 685.5 Q244 669 218 669 Q192 669 176 685.5 Q160 702 160 728 Z M146 -5 Q120 -5 103.5 6.5 Q87 18 77 36.5 Q67 55 63.5 80 Q60 105 60 132 L60 540 L161 540 L161 97 Q161 87 168 77.5 Q175 68 200 68 L200 14 Q189 3 175.5 -1 Q162 -5 146 -5 Z " />
<glyph glyph-name="upsilondieresis" unicode="&#x3cb;" horiz-adv-x="410" d="M138 0 Q101 0 76 24.5 Q51 49 51 85 L51 540 L153 540 L153 119 Q153 107 160 95.5 Q167 84 183 84 L227 84 Q243 84 254.5 90.5 Q266 97 266 119 L266 540 L368 540 L368 0 L297 0 Q286 0 277 6 Q268 12 266 26 Q255 11 243 5.5 Q231 0 223 0 L138 0 Z M44 716 Q44 742 60.5 758.5 Q77 775 102 775 Q128 775 144.5 758.5 Q161 742 161 716 Q161 691 144.5 674 Q128 657 102 657 Q77 657 60.5 674 Q44 691 44 716 Z M252 716 Q252 742 269 758.5 Q286 775 311 775 Q335 775 352.5 758.5 Q370 742 370 716 Q370 691 352.5 674 Q335 657 311 657 Q286 657 269 674 Q252 691 252 716 Z " />
<glyph glyph-name="omicrontonos" unicode="&#x3cc;" horiz-adv-x="406" d="M137 0 Q101 0 76 24.5 Q51 49 51 85 L51 455 Q51 490 76 515 Q101 540 137 540 L281 540 Q299 540 315 533.5 Q331 527 342.5 515.5 Q354 504 361 488.5 Q368 473 368 455 L368 85 Q368 49 342.5 24.5 Q317 0 281 0 L137 0 Z M188 458 Q173 458 162.5 446.5 Q152 435 152 421 L152 118 Q152 106 163 94.5 Q174 83 188 83 L231 83 Q246 83 256 94 Q266 105 266 119 L266 423 Q266 435 258 446.5 Q250 458 224 458 L188 458 Z M153 749 L269 749 L261 631 L161 631 L153 749 Z " />
<glyph glyph-name="upsilontonos" unicode="&#x3cd;" horiz-adv-x="410" d="M138 0 Q101 0 76 24.5 Q51 49 51 85 L51 540 L153 540 L153 119 Q153 107 160 95.5 Q167 84 183 84 L227 84 Q243 84 254.5 90.5 Q266 97 266 119 L266 540 L368 540 L368 0 L297 0 Q286 0 277 6 Q268 12 266 26 Q255 11 243 5.5 Q231 0 223 0 L138 0 Z M155 774 L271 774 L263 656 L163 656 L155 774 Z " />
<glyph glyph-name="omegatonos" unicode="&#x3ce;" horiz-adv-x="610" d="M471 421 Q471 432 462.5 443 Q454 454 441 458 L441 540 L485 540 Q503 540 519 533.5 Q535 527 547 515.5 Q559 504 566 488.5 Q573 473 573 455 L573 85 Q573 49 547.5 24.5 Q522 0 485 0 L401 0 Q391 0 379 5.5 Q367 11 356 27 Q354 12 346 6 Q338 0 326 0 L285 0 Q274 0 265 6 Q256 12 254 27 Q243 11 231 5.5 Q219 0 210 0 L126 0 Q89 0 63.5 24.5 Q38 49 38 85 L38 455 Q38 473 45 488.5 Q52 504 64 515.5 Q76 527 92 533.5 Q108 540 126 540 L170 540 L170 458 Q157 454 148.5 443 Q140 432 140 421 L140 119 Q140 107 147.5 95.5 Q155 84 171 84 L215 84 Q231 84 242.5 90.5 Q254 97 254 119 L254 540 L357 540 L357 119 Q357 97 369 90.5 Q381 84 396 84 L441 84 Q456 84 463.5 95.5 Q471 107 471 119 L471 421 Z M247 773 L363 773 L355 655 L255 655 L247 773 Z " />
<glyph glyph-name="uni03D0" unicode="&#x3d0;" horiz-adv-x="389" d="M138 0 Q102 0 77 24.5 Q52 49 52 85 L52 455 Q52 472 58.5 487.5 Q65 503 77 514.5 Q89 526 104.5 533 Q120 540 138 540 L282 540 Q300 540 316 533 Q332 526 343.5 514.5 Q355 503 362 487.5 Q369 472 369 455 L369 382 Q369 324 328 300 Q369 279 369 221 L369 85 Q369 49 343.5 24.5 Q318 0 282 0 L138 0 Z M232 83 Q247 83 257 94 Q267 105 267 119 L267 221 Q267 237 256.5 248 Q246 259 230 259 L217 259 L217 341 L230 341 Q246 341 256.5 351.5 Q267 362 267 378 L267 421 Q267 433 260 444.5 Q253 456 236 456 L184 456 Q168 456 160.5 444.5 Q153 433 153 421 L153 119 Q153 105 163.5 94 Q174 83 189 83 L232 83 Z " />
<glyph glyph-name="uni03F0" unicode="&#x3f0;" horiz-adv-x="389" d="M197 396 Q210 428 220.5 451 Q231 474 238.5 490.5 Q246 507 251 519 Q256 531 259 541 L358 541 L267 299 L267 285 Q267 241 276.5 203 Q286 165 300 137.5 Q314 110 331.5 94.5 Q349 79 366 79 Q374 79 378.5 79.5 Q383 80 391 84 L433 25 Q376 -11 334 -11 Q305 -11 282 6.5 Q259 24 241.5 51 Q224 78 212.5 109.5 Q201 141 196 168 L188 244 L179 244 L170 168 L115 0 L17 0 L110 285 L110 296 Q110 312 104 340 Q98 368 86 394 Q74 420 56.5 439.5 Q39 459 16 459 Q8 459 -1 456 L-44 515 Q15 551 58 551 Q83 551 102 535 Q121 519 134.5 495.5 Q148 472 157 445 Q166 418 170 396 L178 322 L187 322 L197 396 Z " />
<glyph glyph-name="afii10023" unicode="&#x401;" horiz-adv-x="412" d="M61 749 L374 749 L374 650 L160 650 L160 416 L342 416 L342 317 L160 317 L160 99 L374 99 L374 0 L61 0 L61 749 Z M45 926 Q45 952 61.5 968.5 Q78 985 103 985 Q129 985 145.5 968.5 Q162 952 162 926 Q162 901 145.5 884 Q129 867 103 867 Q78 867 61.5 884 Q45 901 45 926 Z M253 926 Q253 952 270 968.5 Q287 985 312 985 Q336 985 353.5 968.5 Q371 952 371 926 Q371 901 353.5 884 Q336 867 312 867 Q287 867 270 884 Q253 901 253 926 Z " />
<glyph glyph-name="afii10051" unicode="&#x402;" horiz-adv-x="452" d="M308 420 Q308 433 300.5 444.5 Q293 456 277 456 L234 456 Q219 456 206.5 452 Q194 448 194 425 L194 0 L93 0 L93 650 L-10 650 L-10 749 L93 749 L93 774 L193 774 L193 749 L301 749 L301 650 L194 650 L194 529 Q201 533 211 536.5 Q221 540 232 540 L321 540 Q357 540 382.5 515 Q408 490 408 454 L408 84 Q408 67 401.5 51.5 Q395 36 383.5 24.5 Q372 13 356.5 6.5 Q341 0 323 0 L271 0 L271 79 Q286 81 297 92 Q308 103 308 117 L308 420 Z " />
<glyph glyph-name="afii10052" unicode="&#x403;" horiz-adv-x="400" d="M160 0 L61 0 L61 749 L374 749 L374 650 L160 650 L160 0 Z M168 990 L262 990 L211 891 L124 891 L168 990 Z " />
<glyph glyph-name="afii10053" unicode="&#x404;" horiz-adv-x="412" d="M231 80 Q245 80 256 91.5 Q267 103 267 117 L267 285 L366 285 L366 84 Q366 67 359 51.5 Q352 36 340.5 24.5 Q329 13 313.5 6.5 Q298 0 280 0 L138 0 Q103 0 78 24.5 Q53 49 53 84 L53 665 Q53 700 78 724.5 Q103 749 138 749 L280 749 Q298 749 313.5 742.5 Q329 736 340.5 724.5 Q352 713 359 697.5 Q366 682 366 665 L366 590 L267 590 L267 632 Q267 644 258.5 656 Q250 668 235 668 L183 668 Q168 668 160.5 656 Q153 644 153 632 L153 510 Q153 496 164 485 Q175 474 189 474 L234 474 L234 394 L189 394 Q175 394 164 382.5 Q153 371 153 356 L153 117 Q153 103 163 91.5 Q173 80 187 80 L231 80 Z " />
<glyph glyph-name="afii10054" unicode="&#x405;" horiz-adv-x="412" d="M154 542 Q154 519 170 503 Q186 487 209.5 474 Q233 461 260.5 449 Q288 437 311.5 421 Q335 405 351 384 Q367 363 367 333 L367 84 Q367 67 360 51.5 Q353 36 341.5 24.5 Q330 13 314.5 6.5 Q299 0 281 0 L139 0 Q104 0 79 24.5 Q54 49 54 84 L54 211 L154 211 L154 117 Q154 104 164.5 92 Q175 80 188 80 L232 80 Q246 80 257 91.5 Q268 103 268 117 L268 290 Q268 318 252 337 Q236 356 212.5 370.5 Q189 385 161.5 397 Q134 409 110.5 423 Q87 437 71 455 Q55 473 55 499 L55 665 Q55 682 62 697.5 Q69 713 80.5 724.5 Q92 736 107.5 742.5 Q123 749 141 749 L281 749 Q299 749 314.5 742.5 Q330 736 341.5 724.5 Q353 713 360 697.5 Q367 682 367 665 L367 563 L268 563 L268 633 Q268 646 258.5 658 Q249 670 224 670 L188 670 Q174 670 164 658 Q154 646 154 632 L154 542 Z " />
<glyph glyph-name="afii10055" unicode="&#x406;" horiz-adv-x="221" d="M63 749 L164 749 L164 0 L63 0 L63 749 Z " />
<glyph glyph-name="afii10056" unicode="&#x407;" horiz-adv-x="221" d="M63 749 L164 749 L164 0 L63 0 L63 749 Z M-50 931 Q-50 957 -33.5 973.5 Q-17 990 8 990 Q34 990 50.5 973.5 Q67 957 67 931 Q67 906 50.5 889 Q34 872 8 872 Q-17 872 -33.5 889 Q-50 906 -50 931 Z M158 931 Q158 957 175 973.5 Q192 990 217 990 Q241 990 258.5 973.5 Q276 957 276 931 Q276 906 258.5 889 Q241 872 217 872 Q192 872 175 889 Q158 906 158 931 Z " />
<glyph glyph-name="afii10057" unicode="&#x408;" horiz-adv-x="359" d="M97 304 L97 117 Q97 103 107 91.5 Q117 80 131 80 L180 80 Q192 80 200.5 91.5 Q209 103 209 117 L209 749 L309 749 L309 84 Q309 67 302.5 51.5 Q296 36 284.5 24.5 Q273 13 257.5 6.5 Q242 0 224 0 L82 0 Q64 0 48.5 6.5 Q33 13 21.5 24.5 Q10 36 3.5 51.5 Q-3 67 -3 84 L-3 304 L97 304 Z " />
<glyph glyph-name="afii10058" unicode="&#x409;" horiz-adv-x="648" d="M300 0 L300 650 L186 650 L186 84 Q186 49 161 24.5 Q136 0 101 0 L47 0 L47 80 Q64 80 75 91.5 Q86 103 86 117 L86 749 L399 749 L399 419 L527 419 Q562 419 587 394 Q612 369 612 334 L612 84 Q612 67 605.5 51.5 Q599 36 587.5 24.5 Q576 13 560.5 6.5 Q545 0 527 0 L300 0 Z M512 281 Q512 294 504 305.5 Q496 317 481 317 L399 317 L399 100 L479 100 Q492 100 502 111 Q512 122 512 135 L512 281 Z " />
<glyph glyph-name="afii10059" unicode="&#x40a;" horiz-adv-x="597" d="M273 317 L158 317 L158 0 L59 0 L59 749 L158 749 L158 416 L273 416 L273 749 L371 749 L371 416 L499 416 Q534 416 559 391 Q584 366 584 331 L584 84 Q584 67 577.5 51.5 Q571 36 559.5 24.5 Q548 13 532.5 6.5 Q517 0 499 0 L273 0 L273 317 Z M450 80 Q464 80 474 91.5 Q484 103 484 117 L484 280 Q484 295 474 306 Q464 317 450 317 L371 317 L371 80 L450 80 Z " />
<glyph glyph-name="afii10060" unicode="&#x40b;" horiz-adv-x="440" d="M199 529 Q205 534 215 537.5 Q225 541 236 541 L330 541 Q348 541 363.5 534.5 Q379 528 390.5 516.5 Q402 505 409 489.5 Q416 474 416 456 L416 0 L313 0 L313 422 Q313 434 305.5 445.5 Q298 457 283 457 L238 457 Q223 457 211 453 Q199 449 199 426 L199 0 L98 0 L98 650 L-7 650 L-7 749 L304 749 L304 650 L199 650 L199 529 L199 529 Z " />
<glyph glyph-name="afii10061" unicode="&#x40c;" horiz-adv-x="402" d="M169 990 L263 990 L212 891 L125 891 L169 990 Z M160 550 L130 413 L145 413 Q179 496 215 581 Q251 666 285 749 L390 749 L230 374 L391 0 L286 0 L145 335 L130 335 L160 188 L160 0 L61 0 L61 749 L160 749 L160 550 Z " />
<glyph glyph-name="afii10062" unicode="&#x40e;" horiz-adv-x="421" d="M199 505 L207 391 L224 391 L231 505 L289 749 L395 749 L195 0 L97 0 L160 291 L35 749 L141 749 L199 505 Z M371 989 L371 959 Q371 941 364 925.5 Q357 910 345.5 898.5 Q334 887 318.5 880.5 Q303 874 285 874 L143 874 Q126 874 110.5 880.5 Q95 887 83.5 898.5 Q72 910 65 925.5 Q58 941 58 959 L58 989 L158 989 Q161 974 170 964 Q179 954 192 954 L229 954 Q249 954 260 964.5 Q271 975 273 989 L371 989 Z " />
<glyph glyph-name="afii10145" unicode="&#x40f;" horiz-adv-x="436" d="M177 540 L177 82 L290 82 L290 540 L389 540 L389 0 L282 0 L282 -85 L185 -85 L185 0 L76 0 L76 540 L177 540 Z " />
<glyph glyph-name="afii10017" unicode="&#x410;" horiz-adv-x="422" d="M317 0 L285 156 L131 156 L100 0 L-7 0 L161 749 L257 749 L425 0 L317 0 Z M188 422 L149 237 L268 237 L230 422 L218 620 L201 620 L188 422 Z " />
<glyph glyph-name="afii10018" unicode="&#x411;" horiz-adv-x="416" d="M160 474 L289 474 Q324 474 349 449.5 Q374 425 374 390 L374 84 Q374 67 367 51.5 Q360 36 348.5 24.5 Q337 13 321.5 6.5 Q306 0 288 0 L61 0 L61 749 L364 749 L364 668 L160 668 L160 474 Z M160 80 L239 80 Q253 80 263.5 91.5 Q274 103 274 117 L274 356 Q274 371 263 382.5 Q252 394 237 394 L160 394 L160 80 Z " />
<glyph glyph-name="afii10019" unicode="&#x412;" horiz-adv-x="416" d="M61 749 L288 749 Q306 749 321.5 742.5 Q337 736 348.5 724.5 Q360 713 367 697.5 Q374 682 374 665 L374 498 Q374 461 323 419 Q374 382 374 341 L374 84 Q374 67 367 51.5 Q360 36 348.5 24.5 Q337 13 321.5 6.5 Q306 0 288 0 L61 0 L61 749 Z M160 80 L239 80 Q253 80 263.5 91.5 Q274 103 274 117 L274 356 Q274 371 263 382.5 Q252 394 237 394 L160 394 L160 80 Z M237 474 Q252 474 263 485 Q274 496 274 510 L274 632 Q274 644 266 656 Q258 668 243 668 L160 668 L160 474 L237 474 Z " />
<glyph glyph-name="afii10020" unicode="&#x413;" horiz-adv-x="400" d="M160 0 L61 0 L61 749 L374 749 L374 650 L160 650 L160 0 Z " />
<glyph glyph-name="afii10021" unicode="&#x414;" horiz-adv-x="565" d="M445 749 L445 99 L565 99 L565 -102 L476 -102 L476 0 L89 0 L89 -102 L0 -102 L0 99 L94 99 Q124 159 149.5 228 Q175 297 194 377 Q213 457 224 549.5 Q235 642 236 749 L445 749 Z M347 649 L331 649 Q327 601 324 568.5 Q321 536 319 514 Q317 492 316 478.5 Q315 465 314 453 Q309 414 298 368.5 Q287 323 272 276 Q257 229 239 183.5 Q221 138 203 99 L347 99 L347 649 Z " />
<glyph glyph-name="afii10022" unicode="&#x415;" horiz-adv-x="412" d="M61 749 L374 749 L374 650 L160 650 L160 416 L342 416 L342 317 L160 317 L160 99 L374 99 L374 0 L61 0 L61 749 Z " />
<glyph glyph-name="afii10024" unicode="&#x416;" horiz-adv-x="583" d="M342 749 L342 550 L322 413 L337 413 Q371 496 402 581 Q433 666 467 749 L572 749 L412 374 L573 0 L468 0 L337 335 L322 335 L342 188 L342 0 L243 0 L243 188 L263 335 L248 335 L117 0 L12 0 L173 374 L13 749 L118 749 Q152 666 183 581 Q214 496 248 413 L263 413 L243 550 L243 749 L342 749 Z " />
<glyph glyph-name="afii10025" unicode="&#x417;" horiz-adv-x="389" d="M230 80 Q244 80 255 91.5 Q266 103 266 117 L266 362 Q266 377 254.5 388.5 Q243 400 228 400 L183 400 L183 480 L228 480 Q243 480 254.5 491 Q266 502 266 516 L266 632 Q266 644 257.5 656 Q249 668 234 668 L182 668 Q167 668 159.5 656 Q152 644 152 632 L152 590 L52 590 L52 665 Q52 700 77 724.5 Q102 749 137 749 L279 749 Q297 749 312.5 742.5 Q328 736 339.5 724.5 Q351 713 358 697.5 Q365 682 365 665 L365 517 Q365 480 315 438 Q339 420 352 400 Q365 380 365 360 L365 84 Q365 67 358 51.5 Q351 36 339.5 24.5 Q328 13 312.5 6.5 Q297 0 279 0 L137 0 Q102 0 77 24.5 Q52 49 52 84 L52 285 L152 285 L152 117 Q152 103 162 91.5 Q172 80 186 80 L230 80 L230 80 Z " />
<glyph glyph-name="afii10026" unicode="&#x418;" horiz-adv-x="425" d="M60 749 L159 749 L159 474 Q152 425 144.5 375 Q137 325 129 276 L144 276 L262 749 L373 749 L373 0 L274 0 L274 280 Q282 331 289 378.5 Q296 426 304 477 L291 477 L168 0 L60 0 L60 749 Z " />
<glyph glyph-name="afii10027" unicode="&#x419;" horiz-adv-x="426" d="M60 749 L159 749 L159 474 Q152 425 144.5 375 Q137 325 129 276 L144 276 L262 749 L373 749 L373 0 L274 0 L274 280 Q282 331 289 378.5 Q296 426 304 477 L291 477 L168 0 L60 0 L60 749 Z M374 984 L374 954 Q374 936 367 920.5 Q360 905 348.5 893.5 Q337 882 321.5 875.5 Q306 869 288 869 L146 869 Q129 869 113.5 875.5 Q98 882 86.5 893.5 Q75 905 68 920.5 Q61 936 61 954 L61 984 L161 984 Q164 969 173 959 Q182 949 195 949 L232 949 Q252 949 263 959.5 Q274 970 276 984 L374 984 Z " />
<glyph glyph-name="afii10028" unicode="&#x41a;" horiz-adv-x="402" d="M160 550 L130 413 L145 413 Q179 496 215 581 Q251 666 285 749 L390 749 L230 374 L391 0 L286 0 L145 335 L130 335 L160 188 L160 0 L61 0 L61 749 L160 749 L160 550 Z " />
<glyph glyph-name="afii10029" unicode="&#x41b;" horiz-adv-x="430" d="M280 650 L167 650 L167 84 Q167 49 141.5 24.5 Q116 0 81 0 L30 0 L30 79 Q45 81 56 92 Q67 103 67 117 L67 749 L379 749 L379 0 L280 0 L280 650 Z " />
<glyph glyph-name="afii10030" unicode="&#x41c;" horiz-adv-x="545" d="M295 0 L250 0 L135 472 L123 472 L153 285 L153 0 L55 0 L55 749 L164 749 L248 419 L267 271 L279 271 L297 419 L382 749 L491 749 L491 0 L392 0 L392 285 Q400 333 407.5 378.5 Q415 424 423 472 L411 472 L295 0 Z " />
<glyph glyph-name="afii10031" unicode="&#x41d;" horiz-adv-x="425" d="M274 317 L160 317 L160 0 L61 0 L61 749 L160 749 L160 416 L274 416 L274 749 L373 749 L373 0 L274 0 L274 317 Z " />
<glyph glyph-name="afii10032" unicode="&#x41e;" horiz-adv-x="406" d="M136 0 Q101 0 76 24.5 Q51 49 51 84 L51 665 Q51 700 76 724.5 Q101 749 136 749 L278 749 Q314 749 338 724.5 Q362 700 362 665 L362 84 Q362 49 338 24.5 Q314 0 278 0 L136 0 Z M185 670 Q171 670 161 658 Q151 646 151 632 L151 117 Q151 104 161.5 92 Q172 80 185 80 L229 80 Q243 80 253.5 91.5 Q264 103 264 117 L264 633 Q264 646 255 658 Q246 670 222 670 L185 670 Z " />
<glyph glyph-name="afii10033" unicode="&#x41f;" horiz-adv-x="425" d="M274 0 L274 633 Q274 646 265.5 658 Q257 670 231 670 L196 670 Q182 670 171.5 658 Q161 646 161 632 L161 0 L61 0 L61 749 L374 749 L374 0 L274 0 Z " />
<glyph glyph-name="afii10034" unicode="&#x420;" horiz-adv-x="397" d="M61 749 L286 749 Q304 749 319.5 742.5 Q335 736 346.5 724.5 Q358 713 365 697.5 Q372 682 372 665 L372 401 Q372 365 346.5 341 Q321 317 286 317 L160 317 L160 0 L61 0 L61 749 Z M160 670 L160 398 L237 398 Q251 398 262 409 Q273 420 273 434 L273 633 Q273 646 264.5 658 Q256 670 241 670 L160 670 Z " />
<glyph glyph-name="afii10035" unicode="&#x421;" horiz-adv-x="407" d="M362 295 L362 84 Q362 49 338 24.5 Q314 0 278 0 L136 0 Q101 0 76 24.5 Q51 49 51 84 L51 665 Q51 700 76 724.5 Q101 749 136 749 L278 749 Q314 749 338 724.5 Q362 700 362 665 L362 438 L264 438 L264 632 Q264 644 256 656 Q248 668 233 668 L181 668 Q166 668 158.5 656 Q151 644 151 632 L151 117 Q151 103 159.5 92.5 Q168 82 180 80 L229 80 Q243 80 253.5 91.5 Q264 103 264 117 L264 295 L362 295 Z " />
<glyph glyph-name="afii10036" unicode="&#x422;" horiz-adv-x="373" d="M32 749 L343 749 L343 650 L237 650 L237 0 L138 0 L138 650 L32 650 L32 749 Z " />
<glyph glyph-name="afii10037" unicode="&#x423;" horiz-adv-x="363" d="M174 505 L182 391 L199 391 L206 505 L264 749 L370 749 L170 0 L72 0 L135 291 L10 749 L116 749 L174 505 Z " />
<glyph glyph-name="afii10038" unicode="&#x424;" horiz-adv-x="406" d="M185 557 Q171 557 161 546 Q151 535 151 520 L151 229 Q151 216 161.5 205 Q172 194 185 194 L229 194 Q243 194 253.5 204.5 Q264 215 264 230 L264 522 Q264 535 255 546 Q246 557 222 557 L185 557 Z M136 113 Q101 113 76 137 Q51 161 51 197 L51 553 Q51 571 58 586.5 Q65 602 76.5 613.5 Q88 625 103.5 631.5 Q119 638 136 638 L157 638 L157 749 L256 749 L256 638 L278 638 Q314 638 338 613 Q362 588 362 553 L362 197 Q362 161 338 137 Q314 113 278 113 L256 113 L256 0 L157 0 L157 113 L136 113 Z " />
<glyph glyph-name="afii10039" unicode="&#x425;" horiz-adv-x="429" d="M393 0 L293 0 L236 236 L228 379 L211 379 L202 236 L145 0 L45 0 L140 414 L45 749 L145 749 L202 569 L211 461 L228 461 L236 569 L293 749 L393 749 L298 414 L393 0 Z " />
<glyph glyph-name="afii10040" unicode="&#x426;" horiz-adv-x="452" d="M159 749 L159 117 Q159 104 170 92 Q181 80 195 80 L238 80 Q252 80 262.5 91.5 Q273 103 273 117 L273 749 L373 749 L373 79 Q416 77 445 54 Q474 31 474 -4 L474 -135 L374 -135 L374 -35 Q374 -24 365 -12 Q356 0 331 0 L61 0 L61 749 L159 749 Z " />
<glyph glyph-name="afii10041" unicode="&#x427;" horiz-adv-x="402" d="M137 749 L137 508 Q137 496 147 484.5 Q157 473 171 473 L215 473 Q229 473 239.5 484 Q250 495 250 509 L250 749 L349 749 L349 0 L250 0 L250 393 L122 393 Q87 393 62 416.5 Q37 440 37 476 L37 749 L137 749 Z " />
<glyph glyph-name="afii10042" unicode="&#x428;" horiz-adv-x="630" d="M159 749 L159 117 Q159 104 169.5 92 Q180 80 193 80 L237 80 Q251 80 262 91.5 Q273 103 273 117 L273 749 L372 749 L372 112 Q374 99 383 89.5 Q392 80 406 80 L450 80 Q464 80 474 91.5 Q484 103 484 117 L484 749 L584 749 L584 0 L59 0 L59 749 L159 749 Z " />
<glyph glyph-name="afii10043" unicode="&#x429;" horiz-adv-x="655" d="M157 749 L157 117 Q157 104 167.5 92 Q178 80 191 80 L235 80 Q250 80 260 91.5 Q270 103 270 117 L270 749 L370 749 L370 112 Q372 99 381 89.5 Q390 80 404 80 L448 80 Q462 80 472.5 91.5 Q483 103 483 117 L483 749 L582 749 L582 79 Q625 77 654 54 Q683 31 683 -4 L683 -132 L584 -132 L584 -35 Q584 -23 576 -12.5 Q568 -2 545 0 L57 0 L57 749 L157 749 Z " />
<glyph glyph-name="afii10044" unicode="&#x42a;" horiz-adv-x="461" d="M108 651 L-5 651 L-5 750 L207 750 L207 432 L333 432 Q368 432 393.5 408 Q419 384 419 348 L419 84 Q419 67 412 51.5 Q405 36 393.5 24.5 Q382 13 366.5 6.5 Q351 0 333 0 L108 0 L108 651 Z M289 79 Q304 79 311.5 91 Q319 103 319 116 L319 315 Q319 329 308.5 340 Q298 351 284 351 L207 351 L207 79 L289 79 Z " />
<glyph glyph-name="afii10045" unicode="&#x42b;" horiz-adv-x="613" d="M59 749 L158 749 L158 432 L284 432 Q319 432 344.5 408 Q370 384 370 348 L370 84 Q370 67 363 51.5 Q356 36 344.5 24.5 Q333 13 317.5 6.5 Q302 0 284 0 L59 0 L59 749 Z M239 79 Q254 79 262.5 91 Q271 103 271 116 L271 315 Q271 329 260 340 Q249 351 235 351 L158 351 L158 79 L239 79 Z M562 0 L463 0 L463 749 L562 749 L562 0 Z " />
<glyph glyph-name="afii10046" unicode="&#x42c;" horiz-adv-x="412" d="M61 749 L160 749 L160 432 L286 432 Q321 432 346.5 408 Q372 384 372 348 L372 84 Q372 67 365 51.5 Q358 36 346.5 24.5 Q335 13 319.5 6.5 Q304 0 286 0 L61 0 L61 749 Z M241 79 Q256 79 264.5 91 Q273 103 273 116 L273 315 Q273 329 262 340 Q251 351 237 351 L160 351 L160 79 L241 79 Z " />
<glyph glyph-name="afii10047" unicode="&#x42d;" horiz-adv-x="407" d="M230 80 Q244 80 255 91.5 Q266 103 266 117 L266 356 Q266 371 254.5 382.5 Q243 394 228 394 L183 394 L183 474 L228 474 Q243 474 254.5 485 Q266 496 266 510 L266 632 Q266 644 257.5 656 Q249 668 234 668 L182 668 Q167 668 159.5 656 Q152 644 152 632 L152 590 L52 590 L52 665 Q52 700 77 724.5 Q102 749 137 749 L279 749 Q297 749 312.5 742.5 Q328 736 339.5 724.5 Q351 713 358 697.5 Q365 682 365 665 L365 84 Q365 67 358 51.5 Q351 36 339.5 24.5 Q328 13 312.5 6.5 Q297 0 279 0 L137 0 Q102 0 77 24.5 Q52 49 52 84 L52 285 L152 285 L152 117 Q152 103 162 91.5 Q172 80 186 80 L230 80 L230 80 Z " />
<glyph glyph-name="afii10048" unicode="&#x42e;" horiz-adv-x="607" d="M321 0 Q303 0 287.5 6.5 Q272 13 260.5 24.5 Q249 36 242.5 51.5 Q236 67 236 84 L236 305 L161 305 L161 0 L62 0 L62 749 L161 749 L161 403 L236 403 L236 665 Q236 682 242.5 697.5 Q249 713 260.5 724.5 Q272 736 287.5 742.5 Q303 749 321 749 L462 749 Q480 749 495.5 742.5 Q511 736 523 724.5 Q535 713 542 697.5 Q549 682 549 665 L549 84 Q549 67 542 51.5 Q535 36 523 24.5 Q511 13 495.5 6.5 Q480 0 462 0 L321 0 Z M370 670 Q356 670 346 658 Q336 646 336 632 L336 117 Q336 104 346.5 92 Q357 80 370 80 L413 80 Q428 80 438.5 91.5 Q449 103 449 117 L449 633 Q449 646 440 658 Q431 670 406 670 L370 670 Z " />
<glyph glyph-name="afii10049" unicode="&#x42f;" horiz-adv-x="418" d="M54 401 L54 665 Q54 682 61 697.5 Q68 713 80 724.5 Q92 736 107.5 742.5 Q123 749 141 749 L366 749 L366 0 L267 0 L267 188 L297 335 L282 335 L141 0 L36 0 L173 315 Q117 317 85.5 340 Q54 363 54 401 Z M186 670 Q171 670 162.5 658 Q154 646 154 633 L154 434 Q154 420 165 409 Q176 398 190 398 L267 398 L267 670 L186 670 Z " />
<glyph glyph-name="afii10065" unicode="&#x430;" horiz-adv-x="416" d="M152 118 Q152 106 162.5 94.5 Q173 83 188 83 L227 83 Q241 83 253.5 90.5 Q266 98 266 119 L266 425 Q266 448 253.5 452 Q241 456 227 456 L182 456 Q167 456 159.5 444.5 Q152 433 152 421 L152 118 Z M227 540 Q236 540 248 534.5 Q260 529 271 513 Q273 528 282 534 Q291 540 302 540 L368 540 L368 0 L289 0 L267 28 Q258 16 247 8 Q236 0 225 0 L137 0 Q101 0 76 24.5 Q51 49 51 85 L51 455 Q51 490 76 515 Q101 540 137 540 L227 540 Z " />
<glyph glyph-name="afii10066" unicode="&#x431;" horiz-adv-x="409" d="M153 475 Q159 480 169.5 483.5 Q180 487 191 487 L282 487 Q318 487 343.5 462 Q369 437 369 401 L369 85 Q369 49 343.5 24.5 Q318 0 282 0 L138 0 Q102 0 77 24.5 Q52 49 52 85 L52 658 Q52 693 77 718 Q102 743 138 743 L231 743 Q241 743 253.5 752 Q266 761 273 776 L346 732 Q326 690 295 676 Q264 662 228 662 L189 662 Q174 662 163.5 653.5 Q153 645 153 630 L153 475 Z M232 83 Q247 83 257 94 Q267 105 267 119 L267 368 Q267 382 256.5 393 Q246 404 232 404 L192 404 Q178 404 165.5 396.5 Q153 389 153 370 L153 118 Q153 106 164 94.5 Q175 83 189 83 L232 83 Z " />
<glyph glyph-name="afii10067" unicode="&#x432;" horiz-adv-x="416" d="M60 540 L292 540 Q310 540 325.5 533.5 Q341 527 352.5 515.5 Q364 504 371 488.5 Q378 473 378 455 L378 371 Q378 332 327 290 Q352 272 365 251 Q378 230 378 211 L378 85 Q378 49 352.5 24.5 Q327 0 292 0 L60 0 L60 540 Z M161 83 L241 83 Q257 83 266.5 94 Q276 105 276 119 L276 227 Q276 242 265.5 253 Q255 264 239 264 L161 264 L161 83 Z M239 346 Q255 346 265.5 357 Q276 368 276 383 L276 421 Q276 433 268.5 444.5 Q261 456 246 456 L161 456 L161 346 L239 346 Z " />
<glyph glyph-name="afii10068" unicode="&#x433;" horiz-adv-x="348" d="M328 541 L328 456 L162 456 L162 0 L61 0 L61 541 L328 541 Z " />
<glyph glyph-name="afii10069" unicode="&#x434;" horiz-adv-x="574" d="M452 540 L452 101 L574 101 L574 -109 L485 -109 L485 0 L90 0 L90 -109 L0 -109 L0 101 L95 101 Q125 159 151.5 214 Q178 269 198.5 322.5 Q219 376 231.5 430 Q244 484 246 540 L452 540 Z M352 456 L335 456 L319 346 Q317 335 307.5 310 Q298 285 282 251.5 Q266 218 246 179 Q226 140 204 101 L352 101 L352 456 Z " />
</font>
</svg>
