<?xml version="1.0" standalone="no"?>
<!DOCTYPE svg PUBLIC "-//W3C//DTD SVG 1.1//EN" "http://www.w3.org/Graphics/SVG/1.1/DTD/svg11.dtd" >
<svg xmlns="http://www.w3.org/2000/svg">
<metadata></metadata>
<defs>
<font id="lunchtype23medium_italic" horiz-adv-x="1355" >
<font-face units-per-em="2048" ascent="1536" descent="-512" />
<missing-glyph horiz-adv-x="573" />
<glyph horiz-adv-x="0" />
<glyph horiz-adv-x="682" />
<glyph unicode=" "  horiz-adv-x="573" />
<glyph unicode="&#x09;" horiz-adv-x="573" />
<glyph unicode="&#xa0;" horiz-adv-x="573" />
<glyph unicode="!" horiz-adv-x="618" d="M18 0l56 262h274l-55 -262h-275zM145 434l97 615l80 370h270l-80 -370l-162 -615h-205z" />
<glyph unicode="&#x22;" horiz-adv-x="1079" d="M252 909l35 293l51 240h258l-51 -240l-88 -293h-205zM645 909l37 293l51 240h258l-51 -240l-88 -293h-207z" />
<glyph unicode="#" horiz-adv-x="1464" d="M70 389l41 197h227l86 219h-215l43 205h254l172 432h223l-170 -432h264l168 432h228l-170 -432h198l-43 -205h-231l-86 -219h190l-41 -197h-225l-145 -389h-232l150 389h-269l-151 -389h-227l151 389h-190zM563 586h268l89 219h-269z" />
<glyph unicode="$" horiz-adv-x="1228" d="M8.5 245q-18.5 79 3.5 183l246 -2q-2 -86 34 -141.5t114 -67.5l90 428l-25 6q-162 41 -237.5 132t-38.5 266q37 170 164.5 268t306.5 119l24 116h217l-26 -118q180 -29 254.5 -134.5t40.5 -273.5h-232q4 78 -27.5 128t-80.5 60l-82 -376q86 -23 153.5 -54.5t110.5 -81 t56 -121t-7 -173.5q-20 -96 -67.5 -170t-112 -126.5t-145 -84t-169.5 -41.5l-26 -123h-217l26 123q-86 8 -159.5 39.5t-121.5 86t-66.5 133.5zM426 1055q-29 -127 123 -166l69 328q-82 -6 -131 -54.5t-61 -107.5zM623 217q39 2 72.5 17.5t60 40t45 57t26.5 67.5 q18 86 -18.5 127t-106.5 64z" />
<glyph unicode="%" horiz-adv-x="1744" d="M184 -8l1180 1528l180 -90l-1184 -1534zM188 1067q14 66 41 131.5t70 117.5t104.5 84t143.5 32t129 -33t66.5 -86t18.5 -119t-16 -133q-86 -403 -362 -404q-137 0 -188.5 99.5t-6.5 310.5zM358 924.5q4 -31.5 18.5 -52t47.5 -20.5q31 0 53.5 20.5t38.5 52t26.5 67.5 t16.5 67q6 27 9 58.5t-1 59t-18 45t-43 17.5q-31 0 -54.5 -17.5t-40 -45t-26.5 -59t-16 -58.5q-6 -31 -10.5 -67t-0.5 -67.5zM1006 395q14 66 40.5 131.5t69.5 117.5t103.5 84t142.5 32t129 -33t66.5 -86t18.5 -118.5t-15 -133.5q-86 -403 -363 -403q-137 0 -187 99t-5 310z M1174.5 253q3.5 -32 17.5 -52.5t47 -20.5q31 0 53.5 20.5t39 52.5t27.5 67.5t17 66.5q6 27 8 58.5t-2 59t-18 45t-43 17.5q-31 0 -54.5 -17.5t-40 -45t-25.5 -59t-15 -58.5q-6 -31 -10.5 -66.5t-1 -67.5z" />
<glyph unicode="&#x26;" horiz-adv-x="1255" d="M44.5 231.5q-21.5 77.5 0.5 186.5q14 70 45 126t74 101t95 80t108 63q-16 35 -27.5 65t-17 59.5t-4.5 63.5t12 77q35 160 152.5 242.5t287.5 82.5q68 0 122 -18.5t90 -56t49 -94t-3 -132.5q-14 -68 -39.5 -117t-67.5 -87.5t-101.5 -73.5t-141.5 -78l164 -311 q18 16 31.5 43.5t23.5 58.5t17.5 60.5t11.5 52.5h172q-23 -94 -63 -193.5t-101 -179.5q25 -31 50.5 -54.5t55.5 -23.5q29 0 58 6l32 8l-36 -176q-39 -6 -61.5 -9t-45.5 -3q-92 0 -138 33t-77 76q-82 -55 -158.5 -82t-169.5 -27q-100 0 -183 24.5t-139 77t-77.5 130zM262 414 q-10 -53 4.5 -93t47 -68t77.5 -42t94 -14q47 0 98.5 19.5t98.5 49.5l-221 377q-70 -35 -125.5 -90t-73.5 -139zM535 1057q-10 -53 4 -90t45 -88q39 18 80 39.5t76.5 45t60 48t30.5 53.5q10 53 -20.5 84t-95.5 31q-66 0 -117 -32t-63 -91z" />
<glyph unicode="'" horiz-adv-x="684" d="M262 911l41 314l45 219h238l-45 -219l-95 -314h-184z" />
<glyph unicode="(" horiz-adv-x="645" d="M84 584q29 131 85 260t133 249.5t173 231.5t205 209l117 -111q-86 -88 -163 -188t-140.5 -207.5t-109.5 -220.5t-71 -225q-47 -227 -8 -438.5t137 -391.5l-163 -106q-135 195 -192.5 433t-2.5 505z" />
<glyph unicode=")" horiz-adv-x="641" d="M-188 -248q84 88 160.5 187.5t139 204t108.5 215t71 223.5q47 229 9 446t-136 395l166 111q68 -98 116 -209t74.5 -231.5t27.5 -249.5t-28 -260q-29 -133 -84 -259t-132 -245t-172 -228.5t-204 -205.5z" />
<glyph unicode="*" horiz-adv-x="1003" d="M186 901l258 107l-211 112l152 185l184 -150l25 264h221l-90 -264l252 150l74 -185l-265 -110l218 -111l-152 -184l-188 149l-23 -264h-221l90 262l-254 -149z" />
<glyph unicode="+" horiz-adv-x="1126" d="M98 522l45 215h334l68 318h219l-68 -318h332l-45 -215h-332l-69 -323h-220l70 323h-334z" />
<glyph unicode="," horiz-adv-x="546" d="M-31 -217l90 217h-63l57 270h273l-52 -237l-129 -250h-176z" />
<glyph unicode="-" horiz-adv-x="784" d="M43 485l45 213h592l-45 -213h-592z" />
<glyph unicode="." horiz-adv-x="550" d="M0 0l57 270h271l-58 -270h-270z" />
<glyph unicode="/" horiz-adv-x="1206" d="M-55 -360l1081 1914h215l-1081 -1914h-215z" />
<glyph unicode="0" horiz-adv-x="1155" d="M63 727q27 123 76 247t128 222t190.5 159.5t261.5 61.5q156 0 243 -61.5t125.5 -159.5t35.5 -221t-29 -248q-160 -748 -682 -747q-260 0 -344.5 185t-4.5 562zM272.5 397q10.5 -78 53.5 -130t137 -52t160.5 52t111.5 129t72 167t43 164q14 74 20.5 154t-10 147.5 t-61.5 111.5t-131 44q-90 0 -152.5 -44t-105.5 -111.5t-69 -148.5t-40 -153q-16 -74 -27.5 -163t-1 -167z" />
<glyph unicode="1" horiz-adv-x="841" d="M184 1026l39 182q59 0 112.5 9.5t96.5 29t71.5 51t39.5 74.5l6 27h211l-297 -1399h-240l217 1026h-256z" />
<glyph unicode="2" horiz-adv-x="1103" d="M-55 0l39 184q27 123 95 211t158.5 155.5t190.5 120t187 103.5t149.5 108.5t79.5 135.5q18 88 -24 140t-146 52q-41 0 -82 -12t-75 -36.5t-59.5 -58.5t-33.5 -77h-231q41 195 176 295t346 100q207 0 293 -105.5t45 -297.5q-27 -125 -91.5 -210t-148.5 -147.5t-176 -110.5 t-172 -94t-138.5 -101.5t-74.5 -131.5h643l-47 -223h-903z" />
<glyph unicode="3" horiz-adv-x="1114" d="M4 377l232 -2q2 -86 61 -124t152 -38q119 0 194.5 48t97.5 145q45 211 -227 210h-76l45 205h76q63 0 109.5 10.5t78 34t51 59.5t29.5 85q18 82 -20.5 128t-142.5 46q-84 0 -145.5 -47t-96.5 -115h-238q39 182 176.5 287.5t341.5 105.5q215 0 309.5 -106.5t53.5 -298.5 q-10 -47 -30.5 -88t-48.5 -78t-58.5 -66.5t-61.5 -50.5q63 -49 97 -130t12 -191q-20 -96 -70.5 -174t-125 -133.5t-171 -86t-209.5 -30.5q-104 0 -185 25.5t-133 74.5t-72.5 123t-4.5 172z" />
<glyph unicode="4" horiz-adv-x="1171" d="M2 233l37 173l840 989h237l-196 -932h180l-49 -230h-181l-49 -233h-237l49 233h-631zM350 463h332l111 526z" />
<glyph unicode="5" horiz-adv-x="1103" d="M6 375h240q-4 -80 49 -120t137 -40q225 0 281 264q29 135 -13.5 200.5t-144.5 65.5q-70 0 -118 -18t-93 -68h-242l193 734h786l-49 -232h-567l-59 -235q47 23 103 35t109 12q211 0 298.5 -128t35.5 -368q-25 -113 -76 -204t-124.5 -155.5t-168 -100t-200.5 -35.5 q-94 0 -169 25.5t-124 75.5t-71.5 124t-12.5 168z" />
<glyph unicode="6" horiz-adv-x="1107" d="M50 349q-11 120 22 274q47 225 123.5 381.5t169 254t195 141.5t204.5 44q90 0 161.5 -24.5t118 -68.5t64.5 -106.5t2 -138.5h-227q4 63 -40 90t-122 27q-100 0 -196.5 -91.5t-155.5 -281.5q68 49 155.5 87t171.5 38q205 0 296 -133t42 -365q-25 -119 -83 -211 t-137 -155.5t-175 -96t-197 -32.5q-115 0 -199.5 43t-133 123.5t-59.5 200.5zM306 374q9 -48 35 -84t63.5 -57.5t84.5 -21.5q59 0 109.5 21.5t89.5 57.5t64.5 84t38.5 103q10 47 10 95.5t-18.5 86t-59.5 62t-113 24.5q-55 0 -104 -21.5t-89 -58t-68 -86t-40 -102.5 q-12 -55 -3 -103z" />
<glyph unicode="7" horiz-adv-x="1138" d="M180 0q25 102 70 221q39 102 101.5 233.5t158.5 278.5q49 78 112.5 154t118.5 137q66 72 133 137h-659l49 232h963l-45 -209q-82 -70 -160 -148q-68 -66 -141.5 -150.5t-126.5 -170.5q-86 -141 -146.5 -268.5t-99.5 -227.5q-45 -117 -74 -219h-254z" />
<glyph unicode="8" horiz-adv-x="1161" d="M10 229q-21 82 2 193q10 47 33 95t54.5 91t70.5 81t82 65q-53 53 -70.5 124.5t0.5 157.5q20 98 75.5 174t131.5 127.5t165 78t177 26.5q92 0 169 -29t128 -82t71.5 -128t0.5 -167q-18 -92 -67.5 -161.5t-121.5 -120.5q74 -55 97.5 -144.5t1.5 -187.5q-25 -115 -81.5 -198 t-135 -136t-175 -79.5t-196.5 -26.5q-109 0 -195 27.5t-141 82.5t-76 137zM259 327q11 -40 41 -65.5t74 -37t97 -11.5q111 0 189.5 49t103.5 164q20 96 -35 152.5t-170 56.5q-119 0 -199 -56.5t-100 -152.5q-12 -59 -1 -99zM426 1036q-20 -96 28 -138t152 -42q100 0 167 42 t87 138q18 84 -31 132.5t-145 48.5q-100 0 -170 -48.5t-88 -132.5z" />
<glyph unicode="9" horiz-adv-x="1103" d="M8 224.5q-8 62.5 4 117.5l236 -2q4 -59 41 -103t121 -44q123 0 205.5 98t140.5 272q-61 -47 -142.5 -75.5t-175.5 -28.5q-119 0 -194.5 40t-115.5 107.5t-47 156.5t13 189q23 102 76 191.5t128 156t169 105.5t197 39q141 0 226 -50.5t125 -138.5t39 -209.5t-32 -263.5 q-39 -180 -94.5 -327.5t-134 -253t-180 -162.5t-232.5 -57q-129 0 -207 35.5t-118 90t-48 117zM323 867.5q1 -50.5 20 -91.5t58 -67.5t105 -26.5q117 0 199.5 75t111.5 210q23 109 -31.5 178t-164.5 69q-53 0 -101.5 -20t-86.5 -55t-64.5 -79t-36.5 -93t-9 -99.5z" />
<glyph unicode=":" horiz-adv-x="530" d="M0 0l57 270h271l-58 -270h-270zM139 664l58 270h270l-57 -270h-271z" />
<glyph unicode=";" horiz-adv-x="528" d="M-31 -217l90 217h-63l57 270h273l-52 -237l-129 -250h-176zM135 664l58 270h272l-57 -270h-273z" />
<glyph unicode="&#x3c;" horiz-adv-x="1140" d="M94 516l43 205l910 354l-48 -225l-606 -232l508 -231l-49 -225z" />
<glyph unicode="=" horiz-adv-x="1271" d="M98 252l41 201h932l-41 -201h-932zM199 723l43 203h932l-44 -203h-931z" />
<glyph unicode="&#x3e;" horiz-adv-x="1140" d="M94 162l49 225l607 231l-508 232l47 225l758 -354l-43 -205z" />
<glyph unicode="?" horiz-adv-x="1021" d="M147 1040q25 106 73 182t115.5 125.5t148.5 73t169 23.5q92 0 163 -26.5t116 -78t60.5 -124t-5.5 -166.5q-23 -104 -90.5 -195.5t-175.5 -177.5q-37 -27 -61.5 -48.5t-41 -43t-26.5 -45t-17 -54.5l-10 -49h-229l10 51q18 84 52 143.5t75 102.5t85 77t83 67.5t68.5 73.5 t42.5 98q18 86 -20 135t-124 49q-82 0 -134 -50t-85 -143h-242zM223 0l58 270h272l-57 -270h-273z" />
<glyph unicode="@" horiz-adv-x="1759" d="M110.5 315.5q-24.5 141.5 12.5 311.5t129 315t219 250.5t279.5 166t308.5 60.5q186 0 312 -62.5t195.5 -167t86 -241.5t-16.5 -286q-45 -211 -154.5 -327t-281.5 -116q-51 0 -97 35t-56 92q-27 -35 -67 -62.5t-84 -46t-88 -27.5t-79 -9q-61 0 -113.5 14t-87 45t-49 80 t-0.5 121q12 57 50 101t89.5 74t106.5 45t104 19l218 13l6 26q12 55 -15.5 99.5t-101.5 44.5q-63 0 -101 -20.5t-61 -61.5l-188 -2q29 82 72.5 132t96 77.5t109 37t109.5 9.5q92 0 148.5 -24.5t84 -68.5t31.5 -104.5t-10 -130.5l-64 -242q-8 -35 11.5 -69.5t66.5 -34.5 q150 0 207 281q27 123 7.5 227t-76 180t-148.5 119t-213 43q-127 0 -245 -48t-213 -131t-161.5 -192.5t-93.5 -232.5q-31 -139 -7 -249t88.5 -186.5t161.5 -116.5t216 -40q72 0 143.5 24.5t157.5 67.5l55 -172q-213 -96 -397 -96q-174 0 -303 56t-207 157.5t-102.5 243z M670 459q-16 -74 104 -74q88 0 153.5 40t82.5 124l-203 -10q-66 -2 -97.5 -22.5t-39.5 -57.5z" />
<glyph unicode="A" horiz-adv-x="1320" d="M-123 0l854 1419h209l256 -1419h-256l-59 352h-547l-207 -352h-250zM461 567h383l-74 549z" />
<glyph unicode="B" horiz-adv-x="1247" d="M-10 0l301 1419h473q254 0 364 -97q78 -69 78 -197q0 -53 -14 -115q-20 -96 -76.5 -172t-130.5 -115q66 -37 106 -117q25 -51 25 -116q0 -37 -8 -78q-47 -217 -190.5 -314.5t-395.5 -97.5h-532zM274 223h320q115 0 182.5 42t89.5 147q5 25 5 47q0 59 -39 94 q-54 49 -158 49h-320zM401 825h281q117 0 182.5 41t87.5 144q6 26 6 48q0 57 -38 90q-52 46 -160 46h-281z" />
<glyph unicode="C" horiz-adv-x="1292" d="M64 435v12q0 127 30 266q31 141 84 272t140.5 232.5t213 162t297.5 60.5q123 0 211 -32t142 -92q56 -58 76 -142q13 -53 12 -114q0 -35 -4 -73h-248q0 45 -12.5 87t-39 74t-69.5 50.5t-100 18.5h-27q-98 0 -171 -42t-125 -113t-86 -161t-54 -188q-18 -91 -24 -183 q-2 -22 -2 -43q0 -67 16 -121q20 -72 74.5 -116.5t156.5 -44.5h25q63 0 115.5 21.5t94 57t70.5 80t45 91.5h248q-59 -219 -217 -346t-416 -127q-166 0 -264 60t-144 160.5t-48 232.5z" />
<glyph unicode="D" horiz-adv-x="1282" d="M2 0l301 1419h428q319 0 430 -178q66 -106 66 -273q0 -115 -31 -259q-35 -158 -92 -288t-146.5 -224.5t-216.5 -145.5t-299 -51h-440zM287 223h202q109 0 187 34t132 96.5t89 152.5t59 203q24 112 24 198q0 103 -35 169q-64 120 -261 120h-190z" />
<glyph unicode="E" horiz-adv-x="1105" d="M2 0l301 1419h883l-49 -225h-645l-78 -373h606l-47 -221h-606l-80 -375h661l-47 -225h-899z" />
<glyph unicode="F" horiz-adv-x="1067" d="M2 0l301 1419h854l-47 -223h-612l-82 -383h585l-47 -219h-585l-125 -594h-242z" />
<glyph unicode="G" horiz-adv-x="1361" d="M64 435q2 132 32 278q31 141 84 272t140.5 232.5t212 162t296.5 60.5q121 0 210 -35t144.5 -95.5t76.5 -143.5q14 -53 14 -112q0 -33 -4 -67h-244v10q0 40 -14 76q-15 41 -44.5 72t-73.5 49t-99 18h-25q-98 0 -171 -42t-125 -110.5t-86 -158.5t-54 -188q-18 -92 -26 -183 q-3 -28 -3 -54q0 -60 13 -110q20 -71 73 -116t156 -45h22q84 0 150.5 27.5t117 73.5t85 107.5t53.5 129.5h-402l45 211h621l-160 -754h-207l39 184q-70 -109 -178 -155.5t-221 -46.5q-166 0 -263 60t-141 160q-44 98 -44 224v9z" />
<glyph unicode="H" horiz-adv-x="1325" d="M-12 0l301 1419h237l-123 -579h572l123 579h235l-301 -1419h-235l131 621h-572l-131 -621h-237z" />
<glyph unicode="I" horiz-adv-x="546" d="M8 0l301 1419h238l-301 -1419h-238z" />
<glyph unicode="J" horiz-adv-x="1009" d="M10 348h244q-2 -16 -2 -31q0 -48 20 -79q27 -39 101 -39q59 0 100 20.5t69.5 62.5t49 106.5t39.5 154.5l186 876h236l-191 -897q-23 -104 -53.5 -201.5t-87.5 -173t-150.5 -120.5t-242.5 -45q-98 0 -164 27.5t-103.5 76.5t-48.5 116q-7 35 -7 75q0 34 5 71z" />
<glyph unicode="K" horiz-adv-x="1284" d="M2 0l301 1419h240l-140 -655l732 655h313l-700 -610l399 -809h-289l-303 641l-221 -207l-92 -434h-240z" />
<glyph unicode="L" horiz-adv-x="1032" d="M8 0l301 1419h238l-254 -1194h610l-47 -225h-848z" />
<glyph unicode="M" horiz-adv-x="1656" d="M8 0l301 1419h277l170 -1075l628 1075h277l-301 -1419h-236l207 977l-565 -977h-166l-151 977l-207 -977h-234z" />
<glyph unicode="N" horiz-adv-x="1361" d="M2 0l301 1419h262l375 -1048l223 1048h238l-301 -1419h-262l-379 1047l-221 -1047h-236z" />
<glyph unicode="O" horiz-adv-x="1329" d="M64 435v12q0 127 30 266q31 141 84 272t140.5 232.5t212 162t298.5 60.5t273 -60q100 -60 144 -162q42 -97 42 -222v-11q-2 -131 -33 -272q-31 -145 -86 -277.5t-144 -233t-214 -160.5t-291 -60t-264 60t-144 160.5t-48 232.5zM308 530q-2 -21 -2 -42q0 -68 16 -122 q22 -72 76.5 -116.5t156.5 -44.5h23q102 0 176.5 45t127 116.5t85 163t51.5 183.5q20 98 26 188q1 18 1 36q1 67 -17 123q-22 70 -77.5 112t-155.5 42h-25q-98 0 -171 -42t-125 -111.5t-87 -159.5t-55 -188q-18 -91 -24 -183z" />
<glyph unicode="P" horiz-adv-x="1220" d="M8 0l301 1419h467q113 0 203 -24.5t148.5 -76.5t78.5 -135q9 -37 10 -81q0 -54 -14 -117q-27 -123 -81 -205t-132 -133t-175 -72.5t-208 -21.5h-246l-116 -553h-236zM408 774h280q123 0 185.5 48t93.5 161q4 26 4 49q0 72 -39 111q-51 51 -156 51h-280z" />
<glyph unicode="Q" d="M64 435v12q0 127 30 266q31 141 84 272t140.5 232.5t212 162t298.5 60.5t273.5 -60.5t143.5 -161.5q42 -98 42 -222v-11q-2 -131 -33 -272q-33 -158 -96 -298.5t-168 -244.5l82 -145l-203 -131l-77 139q-57 -23 -126 -37t-147 -14q-166 0 -264 60t-144 160.5t-48 232.5z M308 530q-2 -22 -2 -42q0 -67 16 -122q22 -71 76.5 -116t156.5 -45h23q29 0 56.5 6t49.5 14l-76 146l201 137l76 -137q53 72 83.5 158.5t51.5 183.5q20 98 26 188q1 18 1 35q0 69 -19 124q-22 70 -77.5 112t-155.5 42h-25q-98 0 -171 -42t-125 -111.5t-87 -159.5t-55 -188 q-18 -92 -24 -183z" />
<glyph unicode="R" horiz-adv-x="1226" d="M2 0l301 1419h459q111 0 201 -25.5t148 -77.5q59 -52 81 -133q11 -39 11 -85q0 -49 -13 -107q-33 -154 -128 -252t-237 -137l252 -602h-278l-242 565h-199l-118 -565h-238zM406 786h266q117 0 185.5 47.5t90.5 157.5q7 30 7 56q1 63 -39 99q-56 50 -156 50h-266z" />
<glyph unicode="S" horiz-adv-x="1263" d="M37 424h254q-1 -10 0 -19q-1 -42 13 -77q18 -43 52.5 -73t82.5 -45t108 -15q43 0 94 13t97 38.5t81 64.5t45 88q5 23 5 44q-1 37 -17 62q-26 40 -74.5 64.5t-116 41t-137 35t-134 44t-110.5 70.5q-47 46 -66 114q-9 32 -9 71q0 46 12 102q20 96 73.5 169.5t130.5 123 t171 75t199 25.5q129 0 217 -31t140 -86t66 -131q6 -33 7 -68q0 -47 -11 -98h-235q3 17 3 33q0 25 -8 47q-12 37 -41.5 65.5t-74.5 45t-98 16.5q-121 0 -204 -51.5t-99 -128.5q-4 -16 -4 -30q-1 -33 19 -57q28 -34 78 -56.5t117.5 -40t138 -38t135 -49t109.5 -78.5 q46 -48 65 -120q9 -33 9 -74q0 -46 -12 -102q-25 -111 -83 -191t-139 -132t-180.5 -77.5t-203.5 -25.5q-119 0 -215.5 24.5t-160.5 77.5q-62 53 -88 137q-13 42 -13 94q0 50 12 109z" />
<glyph unicode="T" horiz-adv-x="1114" d="M117 1196l47 223h1102l-47 -223h-435l-254 -1196h-235l254 1196h-432z" />
<glyph unicode="U" horiz-adv-x="1396" d="M103 350v7q0 106 26 229l178 833h234l-172 -811q-15 -80 -19 -154q0 -10 -1 -19q-1 -61 19 -111q22 -58 78 -92.5t154 -34.5q94 0 162.5 33.5t118 90t79 131t48.5 156.5l172 811h233l-178 -833q-29 -139 -84 -252t-138 -192t-195.5 -120.5t-260.5 -41.5q-166 0 -263 47 t-143.5 130t-47.5 193z" />
<glyph unicode="V" horiz-adv-x="1200" d="M137 1419h256l129 -1102l600 1102h248l-792 -1419h-248z" />
<glyph unicode="W" horiz-adv-x="1904" d="M143 1419h263l43 -1087l528 1087h235l62 -1087q127 262 258 546.5t254 540.5h254l-715 -1419h-244l-69 1032l-510 -1032h-246z" />
<glyph unicode="X" horiz-adv-x="1388" d="M-109 0l670 729l-342 690h305l230 -512l444 512h299l-641 -686q43 -84 89 -178t94 -189.5t94.5 -188.5t87.5 -177h-303l-250 555l-482 -555h-295z" />
<glyph unicode="Y" horiz-adv-x="1212" d="M106 1419h273l213 -667l506 667h266l-700 -866l-117 -553h-238l117 553z" />
<glyph unicode="Z" horiz-adv-x="1193" d="M-86 0l45 219l987 975h-743l49 225h1018l-47 -223l-987 -971h788l-47 -225h-1063z" />
<glyph unicode="[" horiz-adv-x="546" d="M-68 -340l400 1878h395l-39 -182h-186l-322 -1514h187l-39 -182h-396z" />
<glyph unicode="\" horiz-adv-x="403" d="M-35 1554h217l277 -1914h-217z" />
<glyph unicode="]" horiz-adv-x="544" d="M-252 -340l39 182h184l322 1514h-187l39 182h396l-400 -1878h-393z" />
<glyph unicode="^" horiz-adv-x="1216" d="M172 942l467 596h190l215 -596h-253l-115 320l-250 -320h-254z" />
<glyph unicode="_" horiz-adv-x="1079" d="M0 -365l41 199h1038l-41 -199h-1038z" />
<glyph unicode="`" horiz-adv-x="466" d="M137 1389l217 147l170 -336l-178 -125z" />
<glyph unicode="a" horiz-adv-x="1056" d="M0 295q16 80 63.5 138.5t111 97t136 58t140.5 21.5l258 11l10 45q5 26 5 48q0 50 -26 80q-36 42 -123 42q-74 0 -131 -33t-73 -88l-228 2q18 63 59.5 119.5t102 98.5t139 66.5t172.5 24.5q115 0 185.5 -29.5t105.5 -85t38 -133.5q0 -10 1 -21q0 -70 -18 -151l-97 -456 q-10 -47 -13 -77t-5 -46q-2 -20 0 -27h-201q-2 8 -2 27q0 16 3 42.5t14 73.5q-25 -37 -61 -66.5t-76.5 -51t-85 -33.5t-82.5 -12q-72 0 -137.5 17t-112.5 54q-46 37 -68 97q-12 33 -12 74q0 34 8 73zM227 291q-2 -9 -2 -18q0 -35 33 -61q41 -32 115 -32q53 0 102 18.5 t88 51.5t65.5 74t37.5 88l6 24l-248 -10q-86 -4 -135 -40t-62 -95z" />
<glyph unicode="b" horiz-adv-x="1161" d="M-25 0l301 1419h224l-109 -508q27 27 60.5 48.5t68.5 36t69 22.5t62 8q123 0 205 -38t126 -107.5t52 -164.5q2 -24 2 -49q0 -75 -18 -163q-53 -252 -202.5 -388t-360.5 -136q-72 0 -118 19t-73.5 44t-40 46.5t-12.5 23.5l-23 -113h-213zM286 368q3 -54 23.5 -96.5 t60.5 -70t101 -27.5q66 0 119 27.5t92 72.5t65.5 104.5t40.5 123.5q12 60 12 119q0 64 -22 112q-20 47 -61 75t-107 28q-59 0 -109 -27t-89 -71t-67 -101t-42 -119l-8 -43q-10 -42 -10 -85q0 -11 1 -22z" />
<glyph unicode="c" horiz-adv-x="1095" d="M45 504q25 117 73 212t121.5 163.5t172 106.5t221.5 38q82 0 152.5 -22.5t119.5 -66.5q49 -45 76 -109q25 -60 25 -137v-11h-240q-8 72 -55 115t-119 43q-66 0 -119 -28t-93 -75t-66.5 -107.5t-39.5 -123.5q-12 -55 -13 -108q0 -8 1 -15q2 -60 21.5 -105t61.5 -72.5 t108 -27.5q94 0 158.5 52.5t101.5 140.5h233q-66 -186 -204 -286.5t-332 -100.5q-236 0 -327 136q-58 86 -58 218q0 77 20 170z" />
<glyph unicode="d" horiz-adv-x="1146" d="M41 504q25 117 73 212t121.5 164.5t172 107.5t221.5 38q29 0 59.5 -8t59 -22.5t53 -36t39.5 -48.5l108 508h223l-301 -1419h-213l23 115q-33 -39 -78 -68q-39 -27 -95 -47t-128 -20q-211 0 -301 136q-57 86 -57 217q0 78 20 171zM258 379q2 -60 21.5 -105t61.5 -72.5 t108 -27.5q61 0 112 27.5t89 70.5t63.5 96.5t38.5 106.5l8 43q10 49 10 95q0 11 -1 23q-3 58 -23.5 102t-59.5 71t-98 27q-66 0 -119 -28t-93 -75t-66.5 -107.5t-39.5 -123.5q-12 -55 -13 -108q1 -7 1 -15z" />
<glyph unicode="e" horiz-adv-x="1075" d="M22 294q-2 24 -2 49q0 74 19 159q29 133 84 231t132 163t171 96.5t203 31.5q102 0 180 -33t124 -97.5t57 -161.5q3 -29 3 -61q0 -75 -18 -165l-14 -72h-705q-3 -26 -3 -51t3 -49q6 -47 27.5 -83t62.5 -56.5t107 -20.5q174 0 249 160h236q-41 -98 -97.5 -166t-124 -110 t-145 -60t-161.5 -18q-127 0 -210 39.5t-126.5 109.5t-51.5 165zM299 621h463q2 17 2 34q0 25 -5 47q-9 38 -30.5 68.5t-56.5 48t-84 17.5q-55 0 -102.5 -18.5t-84 -48.5t-63.5 -68.5t-39 -79.5z" />
<glyph unicode="f" horiz-adv-x="690" d="M41 0l170 807h-164l43 199h164l31 149q29 129 112.5 206t218.5 77q35 0 91.5 -4t105.5 -15l-41 -192q-47 4 -95 6t-61 2q-86 0 -110 -113l-25 -116h244l-43 -199h-244l-170 -807h-227z" />
<glyph unicode="g" horiz-adv-x="1148" d="M-33 -111h242v-8q0 -46 41 -77q45 -33 127 -33q113 0 188.5 56t98.5 161l26 121q-35 -37 -78 -66q-37 -25 -88 -44t-112 -19q-121 0 -201 38.5t-122 108.5t-48 167q-1 19 -1 40q0 80 19 172q27 123 80.5 219t128 163.5t167.5 102.5t200 35q66 0 109.5 -19.5t70.5 -41.5 q31 -27 49 -60l23 101h217l-217 -1024q-20 -98 -69.5 -174t-120 -129.5t-158.5 -81t-185 -27.5q-102 0 -182 18.5t-131 56.5t-71 98q-11 32 -11 71q0 35 8 75zM278 372q3 -59 25.5 -104t64.5 -69.5t103 -24.5q63 0 114.5 28.5t89.5 76t64.5 106.5t38.5 119q11 54 11 109v9 q-1 60 -19 107t-58.5 77t-103.5 30q-61 0 -113.5 -26t-92.5 -70t-68.5 -105.5t-42.5 -130.5q-13 -61 -13 -112v-20z" />
<glyph unicode="h" horiz-adv-x="1148" d="M-25 0l301 1419h224l-109 -512q63 66 139 92.5t144 26.5q98 0 172 -21.5t120 -66.5q46 -44 60 -114q6 -29 5 -63q0 -48 -11 -106l-139 -655h-226l136 643q5 24 5 46q0 61 -40 97q-56 50 -150 50q-98 0 -173 -57.5t-97 -160.5l-131 -618h-230z" />
<glyph unicode="i" horiz-adv-x="495" d="M-25 0l213 1006h226l-213 -1006h-226zM223 1198l51 244h238l-51 -244h-238z" />
<glyph unicode="j" horiz-adv-x="528" d="M-272 -416h59q104 0 176 23.5t121 67.5t79 108.5t46 146.5l229 1076h-225l-217 -1018q-12 -61 -30.5 -99.5t-43 -58.5t-56.5 -27.5t-75 -7.5h-18zM250 1198l51 244h238l-52 -244h-237z" />
<glyph unicode="k" horiz-adv-x="1058" d="M-25 0l301 1419h226l-178 -837l497 424h299l-526 -443q35 -66 75 -137.5t81 -145t79.5 -145.5t73.5 -135h-278l-226 391l-141 -117l-57 -274h-226z" />
<glyph unicode="l" horiz-adv-x="483" d="M-25 0l301 1419h226l-301 -1419h-226z" />
<glyph unicode="m" horiz-adv-x="1691" d="M-12 0l213 1006h219l-21 -95q47 51 120.5 83t139.5 32q61 0 106.5 -8t76 -22.5t51 -36t35.5 -48.5q133 115 315 115q203 0 273 -88q45 -56 45 -154q0 -57 -15 -129l-139 -655h-225l135 643q9 39 9 70q0 49 -22 77q-36 46 -128 46q-186 0 -234 -218l-131 -618h-225 l135 643q9 38 9 69q0 50 -23 78q-37 46 -129 46q-186 0 -234 -218l-131 -618h-225z" />
<glyph unicode="n" horiz-adv-x="1144" d="M-25 0l213 1006h218l-21 -99q59 63 138 91t147 28q98 0 171.5 -21.5t120.5 -66.5q46 -44 60 -114q6 -29 5 -63q0 -48 -11 -106l-139 -655h-226l135 643q5 25 5 46q0 59 -40 97q-55 50 -149 50q-98 0 -173 -57.5t-97 -160.5l-131 -618h-226z" />
<glyph unicode="o" horiz-adv-x="1107" d="M45 504q25 117 73 212t121.5 163.5t172 106.5t221.5 38t205 -38t126 -106.5t52 -163.5q2 -23 2 -47q0 -76 -19 -165q-53 -252 -202.5 -388t-386.5 -136q-236 0 -327 136q-58 86 -58 218q0 77 20 170zM262 379q2 -60 21.5 -105t61.5 -72.5t108 -27.5t119 27.5t91.5 72.5 t65.5 104.5t41 123.5q11 58 11 114v10q-1 60 -21.5 107t-61 75t-106.5 28t-119 -28t-93 -75t-66.5 -107.5t-39.5 -123.5q-12 -55 -13 -108q1 -7 1 -15z" />
<glyph unicode="p" horiz-adv-x="1138" d="M-102 -416l303 1422h217l-21 -95q31 33 72 58q35 23 87 41t122 18q119 0 197.5 -39t121.5 -107.5t51 -164.5q1 -22 1 -45q0 -78 -19 -168q-53 -252 -196.5 -388t-370.5 -136q-63 0 -108.5 19t-73 44t-41 46.5t-13.5 23.5l-112 -529h-217zM298 368q3 -53 23.5 -96 t60.5 -70.5t101 -27.5q66 0 119 27.5t92 72.5t65.5 104.5t41.5 123.5q11 58 11 114v10q-1 60 -21.5 107t-61 75t-106.5 28q-59 0 -109.5 -27t-89.5 -71t-66.5 -101t-42.5 -119l-8 -43q-10 -42 -10 -85q0 -11 1 -22z" />
<glyph unicode="q" horiz-adv-x="1157" d="M43 504q25 117 73 213t119.5 164.5t167 107.5t213.5 39q61 0 104.5 -17.5t71 -39t41 -40t15.5 -20.5l20 95h217l-303 -1422h-217l113 531q-37 -39 -82 -68q-39 -27 -92 -47t-119 -20q-227 0 -311 136q-52 83 -52 210q0 81 21 178zM260 379q2 -60 21.5 -105t61.5 -72.5 t108 -27.5q61 0 112 27.5t89 70.5t63.5 96.5t38.5 106.5l8 43q10 49 10 95q0 12 -1 23q-3 58 -23.5 102t-59.5 71t-98 27q-66 0 -119 -28t-93 -75t-66.5 -107.5t-39.5 -123.5q-12 -55 -12 -108v-15z" />
<glyph unicode="r" horiz-adv-x="714" d="M-25 0l213 1006h220l-17 -78q53 53 121 75.5t137 22.5q25 0 64 -1t71 -9l-43 -205q-33 10 -73 14t-60 4q-115 0 -188.5 -68.5t-104.5 -217.5l-114 -543h-226z" />
<glyph unicode="s" horiz-adv-x="925" d="M-14 283h233v-8q0 -47 42 -73q46 -28 114 -28q29 0 59.5 5t57 19.5t46 38t27.5 58.5q6 29 -5 48t-35.5 31.5t-58.5 20.5t-73 15q-61 12 -122.5 26.5t-106.5 45.5q-46 30 -66 86q-10 28 -10 65t10 82q16 82 59.5 140t102.5 96t132 55.5t149 17.5q157 0 243 -75 q64 -56 65 -152q0 -31 -7 -66h-211v8q0 40 -37 67q-41 30 -96 30q-59 0 -111.5 -27t-62.5 -74q-6 -33 6 -54.5t38.5 -35.5t62.5 -22.5t77 -14.5q61 -10 120.5 -25.5t101.5 -48t60 -90.5q9 -27 9 -61q0 -40 -11 -90q-18 -88 -66 -148.5t-112.5 -97.5t-137.5 -52t-140 -15 q-84 0 -155 17t-119 54t-68 95q-11 31 -12 69q0 32 8 68z" />
<glyph unicode="t" horiz-adv-x="702" d="M39 807l43 199h145l62 294h225l-61 -294h229l-43 -199h-229l-111 -522q-4 -20 -4 -36q0 -23 8 -37q14 -24 62 -24q27 0 69.5 5.5t63.5 9.5l-43 -203q-53 -10 -102.5 -12t-71.5 -2q-135 0 -187 78q-33 50 -32 120q0 40 10 86l112 537h-145z" />
<glyph unicode="u" horiz-adv-x="1140" d="M47 350l139 656h226l-136 -639q-5 -24 -6 -46q0 -61 42 -97q56 -50 149 -50q98 0 173 57.5t97 159.5l131 615h225l-213 -1006h-212l16 98q-61 -63 -142 -90.5t-149 -27.5q-195 0 -288 88q-65 61 -65 173q0 50 13 109z" />
<glyph unicode="v" horiz-adv-x="1046" d="M70 1006h239l111 -725l420 725h241l-618 -1006h-209z" />
<glyph unicode="w" horiz-adv-x="1538" d="M59 1006h238l55 -687l365 687h198l72 -684l346 684h238l-541 -1006h-209l-71 696l-367 -696h-207z" />
<glyph unicode="x" horiz-adv-x="1062" d="M-143 0l499 520l-266 486h283l153 -322l285 322h283l-473 -486l278 -520h-281l-167 350l-312 -350h-282z" />
<glyph unicode="y" horiz-adv-x="1036" d="M-131 -360l43 198q20 -6 43 -10q41 -10 80 -10q37 0 68.5 25.5t58 60.5t47 71.5t35.5 61.5l-176 969h239l109 -730l424 730h241l-739 -1166q-31 -47 -62.5 -89t-69.5 -73.5t-82 -50t-99 -18.5q-47 0 -83 7t-77 24z" />
<glyph unicode="z" horiz-adv-x="942" d="M-100 0l34 170l664 629h-500l45 207h805l-37 -170l-661 -629h532l-43 -207h-839z" />
<glyph unicode="{" horiz-adv-x="552" d="M-76 500l45 205h97q59 0 81.5 30.5t34.5 85.5l94 443q31 147 109 210.5t219 63.5h125l-39 -182h-94q-53 0 -77.5 -25.5t-35.5 -75.5l-100 -467q-10 -55 -37 -102t-80 -86q37 -37 43 -84t-4 -100l-102 -475q-10 -49 4 -75t67 -26h95l-39 -182h-125q-141 0 -192.5 63.5 t-20.5 210.5l96 451q12 55 2 86t-70 31h-96z" />
<glyph unicode="|" horiz-adv-x="845" d="M123 -342l399 1880h201l-399 -1880h-201z" />
<glyph unicode="}" horiz-adv-x="552" d="M-270 -342l39 182h92q53 0 77.5 25.5t34.5 75.5l103 475q10 53 36.5 100t80.5 84q-37 39 -43.5 86t4.5 102l100 467q10 49 -4 75t-68 26h-94l39 182h125q141 0 192.5 -63.5t20.5 -210.5l-94 -443q-12 -55 -2 -85.5t69 -30.5h97l-46 -205h-96q-59 0 -81.5 -31t-35.5 -86 l-96 -451q-31 -147 -108.5 -210.5t-218.5 -63.5h-123z" />
<glyph unicode="~" horiz-adv-x="1366" d="M141 600q96 72 189.5 122t187.5 50q70 0 126 -19.5t108 -41.5q37 -16 71.5 -29.5t69.5 -13.5q53 0 107.5 30.5t103.5 71.5l121 -149q-51 -41 -97.5 -73t-91.5 -54.5t-92 -35t-98 -12.5q-66 0 -118 17.5t-99 40.5q-41 18 -80 33.5t-80 15.5q-49 0 -104.5 -32t-108.5 -77z " />
<glyph unicode="&#xa1;" horiz-adv-x="604" d="M-49 -414l78 371l164 614h184l-98 -614l-78 -371h-250zM195 743l55 263h254l-55 -263h-254z" />
<glyph unicode="&#xa2;" horiz-adv-x="1228" d="M143 694q45 211 166 348.5t326 165.5l51 236h186l-51 -238q131 -23 209 -108.5t74 -229.5h-240q-10 96 -86 136l-131 -623q55 23 96 68t68 108h233q-57 -164 -169.5 -261t-272.5 -120l-41 -196h-186l41 196q-186 27 -253 160t-20 358zM367.5 503q17.5 -87 93.5 -122 l133 627q-90 -35 -145.5 -124.5t-75.5 -191.5q-23 -102 -5.5 -189z" />
<glyph unicode="&#xa3;" horiz-adv-x="1241" d="M-4 0l49 231h150l84 398h-113l45 211h113l32 161q20 100 68.5 182.5t116 139.5t152.5 88t181 31q90 0 156 -29t106 -75t54 -105t2 -121h-225q0 14 -5.5 32.5t-20.5 34t-43 25.5t-73 10q-86 0 -147.5 -55t-81.5 -153l-35 -166h277l-45 -211h-277l-84 -398h273q51 0 92 36 t63 108l232 -41q-53 -154 -157 -244t-259 -90h-680z" />
<glyph unicode="&#xa4;" horiz-adv-x="1306" d="M41 281l205 165q-16 49 -21.5 101.5t11.5 118.5q12 61 38.5 115.5t61.5 101.5l-133 164l184 151l129 -158q55 29 112.5 44.5t119.5 15.5q59 0 110 -15.5t94 -42.5l195 158l119 -153l-197 -160q16 -51 19.5 -103.5t-11.5 -117.5q-16 -66 -41.5 -119t-64.5 -105l129 -163 l-182 -152l-130 162q-53 -27 -108 -42.5t-117 -15.5q-59 0 -111.5 16.5t-95.5 41.5l-196 -160zM451 666q-23 -96 20 -163t135 -67q45 0 87 18.5t76 49.5t58.5 72.5t34.5 89.5q20 96 -23.5 162.5t-136.5 66.5q-92 0 -161.5 -66.5t-89.5 -162.5z" />
<glyph unicode="&#xa5;" horiz-adv-x="1243" d="M78 244l41 194h321l25 115l-8 18h-310l41 195h197l-240 653h273l209 -653h14l496 653h266l-529 -653h209l-41 -195h-325l-15 -18l-24 -115h336l-41 -194h-336l-51 -244h-238l51 244h-321z" />
<glyph unicode="&#xa6;" horiz-adv-x="845" d="M123 -342l176 829h201l-176 -829h-201zM346 713l176 825h201l-176 -825h-201z" />
<glyph unicode="&#xa7;" horiz-adv-x="1034" d="M10 233h230q-4 -53 33.5 -91t117.5 -38q27 0 57.5 7.5t57 23t46 37t26.5 49.5q12 55 -22 96t-90 77t-125 71t-124 77t-86 97t-14 133q16 74 63 133.5t107 104.5q-25 43 -32 90t7 106q16 80 60.5 136.5t103.5 92t130 53t142 17.5q160 0 233 -76.5t42 -220.5h-203 q-6 47 -38 73t-77 26q-76 0 -117.5 -27t-52.5 -74q-6 -33 6.5 -58.5t39 -47t63.5 -41t78 -39.5q57 -29 113.5 -59.5t98.5 -73.5t60.5 -100.5t1.5 -139.5q-16 -70 -60 -128t-102 -101q20 -41 26.5 -92.5t-5.5 -108.5q-16 -78 -64.5 -136t-113 -97t-137 -58.5t-140.5 -19.5 q-82 0 -151.5 21.5t-116.5 62.5t-67.5 102.5t-4.5 140.5zM340 786q-6 -35 27.5 -68.5t85 -66.5t107.5 -63.5t93 -57.5q33 25 47.5 53.5t22.5 63.5q6 25 -7.5 48.5t-46 49t-87 58.5t-129.5 76l-31 20q-68 -41 -82 -113z" />
<glyph unicode="&#xa8;" horiz-adv-x="569" d="M117 1077l55 254h238l-56 -254h-237zM530 1077l56 254h239l-55 -254h-240z" />
<glyph unicode="&#xa9;" horiz-adv-x="1538" d="M68 709q0 162 52 296t146 230t224.5 149.5t285.5 53.5q164 0 293 -55.5t218 -154t136 -231t47 -288.5q-4 -160 -54 -294t-139 -230.5t-215 -150.5t-286 -54t-291 57t-224 156.5t-143 232.5t-50 283zM274 709q0 -115 37 -213.5t103.5 -170t159 -112.5t202.5 -41 q113 0 204 45t154.5 119t97.5 171.5t34 201.5q0 111 -35 208t-97.5 169.5t-151.5 115.5t-200 43q-117 0 -210 -43t-159.5 -116.5t-102.5 -171t-36 -205.5zM412 713q0 86 21.5 157.5t66.5 124t115.5 81t166.5 28.5q139 0 230.5 -66.5t111.5 -191.5h-213q-16 41 -45.5 54 t-83.5 13q-86 0 -119.5 -59t-33.5 -141q0 -39 8 -75t25.5 -63.5t47 -44t72.5 -16.5q72 0 106 27.5t40 68.5h205q-23 -147 -115 -222t-236 -75q-184 0 -277 104.5t-93 295.5z" />
<glyph unicode="&#xaa;" horiz-adv-x="487" d="M72 915q10 49 35.5 82t59.5 54.5t73 31t75 9.5h103q12 59 -3.5 76.5t-49.5 17.5q-27 0 -45.5 -7.5t-32.5 -29.5h-142q8 33 30 63.5t55.5 55t78.5 40t101 15.5q59 0 96 -16.5t55.5 -46t19.5 -71.5t-10 -93l-55 -265q-4 -12 -6 -26t-2 -25q-2 -12 0 -24h-148q-2 2 -2 8v12 t4 19q-27 -20 -56.5 -32.5t-80.5 -12.5q-76 0 -124 39.5t-29 125.5zM213 926q-6 -25 8.5 -41.5t52.5 -16.5q43 0 73 16.5t40 63.5l8 39h-63q-16 0 -34.5 -2t-36 -8t-31 -18.5t-17.5 -32.5z" />
<glyph unicode="&#xab;" horiz-adv-x="1372" d="M53 504l430 465h269l-430 -465l233 -463h-268zM590 504l430 465h268l-430 -465l234 -463h-269z" />
<glyph unicode="&#xac;" horiz-adv-x="1081" d="M98 539l47 215h838l-123 -580h-221l76 365h-617z" />
<glyph unicode="&#xad;" horiz-adv-x="784" d="M43 485l45 213h592l-45 -213h-592z" />
<glyph unicode="&#xae;" horiz-adv-x="1290" d="M184 1075q0 100 30 189.5t87 155t143 103.5t201 38q113 0 200 -38t144.5 -103.5t87 -154.5t29.5 -190q0 -102 -29.5 -190t-87 -153.5t-144.5 -103.5t-200 -38q-115 0 -201 38t-143 103.5t-87 153.5t-30 190zM315 1075q0 -76 20.5 -142.5t61.5 -115.5t102.5 -77.5 t145.5 -28.5q82 0 144.5 28.5t103.5 77.5t61.5 115.5t20.5 142.5t-20.5 142.5t-61.5 115.5t-103.5 78t-144.5 29q-84 0 -145.5 -29t-102.5 -78t-61.5 -115.5t-20.5 -142.5zM451 811v530h178q82 0 138 -36.5t56 -126.5q0 -59 -32.5 -100.5t-94.5 -51.5l142 -215h-123 l-121 203h-39v-203h-104zM555 1110h86q31 0 53.5 16.5t22.5 49.5t-21.5 48t-54.5 15h-86v-129z" />
<glyph unicode="&#xb0;" horiz-adv-x="839" d="M163 986q-11 58 3 126q14 70 51 129t87 100t111.5 65t127.5 24q63 0 115.5 -24t85 -67t44 -101t-3.5 -126q-14 -68 -51 -126t-87 -101t-112.5 -66.5t-125.5 -23.5q-66 0 -117 23.5t-84 66.5t-44 101zM342 1112q-12 -59 18.5 -98t85.5 -39t101.5 39t58.5 98t-17.5 98 t-84.5 39t-102.5 -39t-59.5 -98z" />
<glyph unicode="&#xb1;" horiz-adv-x="1232" d="M98 0l43 203h854l-43 -203h-854zM197 584l41 194h350l69 328h199l-70 -328h349l-41 -194h-349l-63 -303h-199l64 303h-350z" />
<glyph unicode="&#xb2;" horiz-adv-x="567" d="M10 715l29 135q14 66 51 113t85 84.5t101.5 66.5t99.5 57.5t79.5 58.5t42.5 68q8 37 -12.5 64t-61.5 27t-71.5 -26t-39.5 -54h-170q27 113 112 176t202 63q123 0 173 -65.5t27 -175.5q-14 -68 -49 -116t-81 -84t-95 -63.5t-92 -53t-73.5 -54.5t-39.5 -66h348l-32 -155 h-533z" />
<glyph unicode="&#xb3;" horiz-adv-x="583" d="M43 950h182q-8 -37 14.5 -64.5t75.5 -27.5q63 0 95 35t39 70q10 43 -12.5 75.5t-84.5 32.5h-65l26 133h56q47 0 76.5 28t37.5 66q10 41 -10 66t-59 25q-33 0 -71 -17.5t-48 -62.5h-168q29 123 119 184t209 61q133 0 187 -64.5t30 -182.5q-14 -63 -44 -99.5t-65 -60.5 q29 -25 50.5 -70t7.5 -112q-10 -49 -39 -96.5t-73 -84t-103.5 -58t-131.5 -21.5q-121 0 -186 63t-45 182z" />
<glyph unicode="&#xb4;" horiz-adv-x="561" d="M289 1659l373 287l108 -185l-393 -252z" />
<glyph unicode="&#xb5;" horiz-adv-x="1140" d="M-115 -416l303 1422h226l-135 -631q-18 -92 35 -142.5t147 -50.5q98 0 172 57.5t96 159.5l129 607h225l-213 -1006h-219l19 96q-23 -25 -47.5 -45t-56 -36.5t-73.5 -25.5t-102 -9q-119 0 -188 53l-97 -449h-221z" />
<glyph unicode="&#xb6;" horiz-adv-x="1261" d="M174 891.5q-8 66.5 8 142.5q16 78 54 148.5t93.5 123t124 83t148.5 30.5h645l-28 -129h-158l-332 -1560h-131l332 1554h-228l-331 -1554h-129l198 929q-82 2 -138 33t-88 82t-40 117.5z" />
<glyph unicode="&#xb8;" horiz-adv-x="378" d="M-133 -233l100 59q6 -18 16.5 -29.5t32.5 -11.5q59 0 72 59q6 23 -5 41.5t-40 18.5t-47.5 -10.5t-32.5 -22.5l-65 53l116 178h138l-68 -102h16q63 0 93 -45t16 -111q-18 -86 -73.5 -127t-141.5 -41q-59 0 -88 28t-39 63z" />
<glyph unicode="&#xb9;" horiz-adv-x="583" d="M172 1286l25 117q72 0 128 30.5t72 100.5h144l-174 -819h-170l120 571h-145z" />
<glyph unicode="&#xba;" horiz-adv-x="538" d="M90 1135q29 129 104.5 206.5t208.5 77.5q135 0 179.5 -77.5t15.5 -206.5q-29 -139 -107.5 -212t-207.5 -73q-127 0 -174.5 72.5t-18.5 212.5zM242 1133q-12 -59 3 -99.5t70 -40.5t88 40t46 100q12 59 -3.5 100t-70.5 41t-88 -41t-45 -100z" />
<glyph unicode="&#xbb;" horiz-adv-x="1372" d="M10 41l430 463l-233 465h268l234 -465l-430 -463h-269zM547 41l430 463l-234 465h269l233 -465l-430 -463h-268z" />
<glyph unicode="&#xbc;" horiz-adv-x="1480" d="M150 -8l1179 1528l144 -70l-1184 -1534zM295 1176l27 127q78 0 127 28.5t59 77.5h143l-176 -825h-178l127 592h-129zM784 135l25 119l463 573h184l-108 -516h77l-36 -176h-78l-29 -135h-170l29 135h-357zM1016 311h162l55 262z" />
<glyph unicode="&#xbd;" horiz-adv-x="1492" d="M150 -8l1179 1528l144 -70l-1184 -1534zM295 1176l27 127q78 0 127 28.5t59 77.5h143l-176 -825h-178l127 592h-129zM850 0l24 119q14 72 51.5 124t83.5 91t97 67.5t95 56t76 57.5t40 69q8 37 -8.5 56t-48.5 19q-47 0 -64.5 -19t-32.5 -46h-178q25 117 113 179.5 t198 62.5q117 0 169.5 -65.5t29.5 -176.5q-12 -59 -43 -104.5t-72 -80t-86 -64.5t-88 -57.5t-78.5 -57t-54.5 -66.5h344l-35 -164h-532z" />
<glyph unicode="&#xbe;" horiz-adv-x="1411" d="M12 809h176q-4 -45 25 -63.5t76 -18.5q49 0 87 24.5t48 71.5q12 55 -18.5 82t-94.5 27h-35l29 135h35q53 0 83 34t38 66q8 39 -14.5 63.5t-57.5 24.5q-43 0 -74.5 -22.5t-40.5 -58.5h-157q25 115 104.5 179t204.5 64q135 0 179 -63.5t20 -186.5q-12 -59 -47 -102t-82 -68 q47 -23 67.5 -67.5t7.5 -104.5q-10 -49 -35.5 -96t-66.5 -84t-97.5 -58.5t-127.5 -21.5q-125 0 -189.5 60.5t-42.5 183.5zM82 -8l1180 1528l143 -70l-1184 -1534zM719 135l24 119l463 573h185l-109 -516h78l-37 -176h-78l-28 -135h-170l28 135h-356zM950 311h162l55 262z " />
<glyph unicode="&#xbf;" horiz-adv-x="1021" d="M-46 -211q-15 74 5 168q23 104 90.5 195.5t177.5 177.5q35 27 59.5 48t41 42.5t27 45t16.5 54.5l12 49h229l-12 -51q-18 -84 -52 -143.5t-75 -102.5t-85 -76.5t-83 -67.5t-68.5 -75t-41.5 -96q-18 -86 19.5 -135t123.5 -49q82 0 134 50t85 142h242q-23 -106 -72 -182 t-115.5 -125t-148.5 -72.5t-170 -23.5q-92 0 -164 26.5t-116 76.5t-59 124zM395 735l58 271h272l-57 -271h-273z" />
<glyph unicode="&#xc0;" horiz-adv-x="1320" d="M-123 0l854 1419h209l256 -1419h-256l-59 352h-547l-207 -352h-250zM461 567h383l-74 549zM655 1767l195 177l227 -287l-149 -146z" />
<glyph unicode="&#xc1;" horiz-adv-x="1320" d="M-123 0l854 1419h209l256 -1419h-256l-59 352h-547l-207 -352h-250zM461 567h383l-74 549zM698 1653l353 284l118 -176l-378 -256z" />
<glyph unicode="&#xc2;" horiz-adv-x="1349" d="M-123 0l854 1419h209l256 -1419h-256l-59 352h-547l-207 -352h-250zM461 567h383l-74 549zM547 1651l311 241h158l209 -241l-158 -146l-172 191l-246 -191z" />
<glyph unicode="&#xc3;" horiz-adv-x="1415" d="M-123 0l854 1419h209l256 -1419h-256l-59 352h-547l-207 -352h-250zM461 567h383l-74 549zM514 1561q25 68 58.5 114.5t72.5 74.5t81 40t83 12q35 0 63.5 -12t54 -25.5t53.5 -26t58 -12.5q16 0 36 8.5t48 47.5h168q-23 -63 -55.5 -109.5t-72.5 -76t-83 -44t-84 -14.5 q-33 0 -62.5 12.5t-58 26.5t-55 26.5t-53.5 12.5q-16 0 -35.5 -8.5t-50.5 -46.5h-166z" />
<glyph unicode="&#xc4;" horiz-adv-x="1378" d="M-123 0l854 1419h209l256 -1419h-256l-59 352h-547l-207 -352h-250zM461 567h383l-74 549zM530 1556l54 254h237l-53 -254h-238zM961 1556l53 254h239l-53 -254h-239z" />
<glyph unicode="&#xc5;" horiz-adv-x="1320" d="M-123 0l815 1356q-39 35 -58.5 85t-6.5 107q10 51 39.5 95.5t70.5 77t89 52t96 19.5q49 0 89 -20.5t65.5 -54.5t35.5 -78t0 -91q-12 -59 -57 -111.5t-103 -84.5l244 -1352h-256l-59 352h-547l-207 -352h-250zM461 567h383l-74 549zM786 1550q-6 -35 11.5 -56t50.5 -26h18 q35 4 60.5 29t31.5 53q8 35 -10 60.5t-55 25.5q-41 0 -70 -26.5t-37 -59.5z" />
<glyph unicode="&#xc6;" horiz-adv-x="1718" d="M-164 0l957 1419h1005l-47 -223h-639l-80 -375h600l-47 -221h-600l-80 -377h658l-47 -223h-898l74 352h-373l-233 -352h-250zM455 567h282l142 660z" />
<glyph unicode="&#xc7;" horiz-adv-x="1323" d="M64.5 445q1.5 128 29.5 268q31 141 84 272t140.5 232.5t213 162t297.5 60.5q123 0 211 -32t142.5 -91.5t75 -143t8.5 -186.5h-248q0 45 -12.5 86t-39 73t-69.5 50t-100 18h-27q-98 0 -171 -42t-125 -111.5t-86 -159.5t-54 -188q-18 -92 -24.5 -183.5t14 -163t75 -116.5 t156.5 -45h25q63 0 115.5 21.5t94 57t70.5 80t45 91.5h248q-55 -199 -189.5 -322t-351.5 -145l-45 -80h21q63 0 94 -45t16 -111q-18 -86 -74.5 -127t-142.5 -41q-59 0 -87.5 28t-39.5 62l103 60q10 -41 49 -41q59 0 72 59q4 23 -7.5 41.5t-40.5 18.5t-47 -10.5t-30 -22.5 l-68 53l88 152q-150 8 -239 70.5t-130 162.5t-39.5 228z" />
<glyph unicode="&#xc8;" horiz-adv-x="1105" d="M2 0l301 1419h883l-49 -225h-645l-78 -373h606l-47 -221h-606l-80 -375h661l-47 -225h-899zM569 1767l195 177l229 -287l-151 -146z" />
<glyph unicode="&#xc9;" horiz-adv-x="1105" d="M2 0l301 1419h883l-49 -225h-645l-78 -373h606l-47 -221h-606l-80 -375h661l-47 -225h-899zM580 1659l376 285l109 -185l-395 -250z" />
<glyph unicode="&#xca;" horiz-adv-x="1105" d="M2 0l301 1419h883l-49 -225h-645l-78 -373h606l-47 -221h-606l-80 -375h661l-47 -225h-899zM461 1647l311 241h158l209 -241l-158 -146l-170 191l-248 -191z" />
<glyph unicode="&#xcb;" horiz-adv-x="1105" d="M2 0l301 1419h883l-49 -225h-645l-78 -373h606l-47 -221h-606l-80 -375h661l-47 -225h-899zM453 1556l53 254h237l-53 -254h-237zM883 1556l53 254h240l-54 -254h-239z" />
<glyph unicode="&#xcc;" horiz-adv-x="647" d="M8 0l301 1419h238l-301 -1419h-238zM246 1759l194 176l228 -282l-152 -148z" />
<glyph unicode="&#xcd;" horiz-adv-x="593" d="M8 0l301 1419h238l-301 -1419h-238zM295 1653l354 284l117 -176l-381 -256z" />
<glyph unicode="&#xce;" horiz-adv-x="632" d="M8 0l301 1419h238l-301 -1419h-238zM145 1651l312 241h157l209 -241l-157 -146l-172 191l-246 -191z" />
<glyph unicode="&#xcf;" horiz-adv-x="628" d="M8 0l301 1419h238l-301 -1419h-238zM125 1556l53 254h238l-54 -254h-237zM555 1556l53 254h240l-53 -254h-240z" />
<glyph unicode="&#xd0;" horiz-adv-x="1288" d="M2 0l129 616h-115l45 203h115l127 600h428q319 0 430 -178t35 -532q-35 -158 -92 -288t-146.5 -224.5t-216.5 -145.5t-299 -51h-440zM287 223h202q109 0 187 34t132 96.5t89 152.5t59 203q53 248 -11 367.5t-261 119.5h-190l-80 -377h266l-45 -203h-266z" />
<glyph unicode="&#xd1;" horiz-adv-x="1361" d="M2 0l301 1419h262l375 -1048l223 1048h238l-301 -1419h-262l-379 1047l-221 -1047h-236zM524 1561q25 68 58.5 114.5t72.5 74.5t81 40t83 12q35 0 63.5 -12t54.5 -25.5t53.5 -26t58.5 -12.5q16 0 35.5 8.5t48.5 47.5h167q-23 -63 -55.5 -109.5t-72 -76t-82.5 -44 t-84 -14.5q-33 0 -63 12.5t-58.5 26.5t-55 26.5t-53.5 12.5q-16 0 -35.5 -8.5t-50.5 -46.5h-166z" />
<glyph unicode="&#xd2;" d="M64.5 435.5q1.5 -132.5 47.5 -233t144 -160.5t264 -60t291 60t214 160.5t144.5 232.5t85.5 278q31 141 33 272t-42 232.5t-143.5 162t-273.5 60.5t-298.5 -60.5t-212 -162t-140.5 -232.5t-84 -272q-31 -145 -29.5 -277.5zM307 530.5q6 90.5 25 182.5q20 98 54 187 t86 156.5t125 108.5t171 41h25q100 0 155.5 -41t78 -108.5t17 -156.5t-25.5 -187q-18 -92 -51 -182.5t-84.5 -161t-126 -113.5t-176.5 -43h-23q-102 0 -157.5 43t-77 113.5t-15.5 161zM633 1767l192 177l232 -287l-154 -146z" />
<glyph unicode="&#xd3;" d="M64.5 435.5q1.5 -132.5 47.5 -233t144 -160.5t264 -60t291 60t214 160.5t144.5 232.5t85.5 278q31 141 33 272t-42 232.5t-143.5 162t-273.5 60.5t-298.5 -60.5t-212 -162t-140.5 -232.5t-84 -272q-31 -145 -29.5 -277.5zM307 529.5q6 91.5 25 183.5q20 98 55 188 t87 159.5t125 111.5t171 42h25q100 0 155.5 -42t77 -111.5t16 -159.5t-25.5 -188q-18 -92 -51 -183.5t-85.5 -163t-127 -116.5t-176.5 -45h-23q-102 0 -156.5 45t-76 116.5t-15.5 163zM668 1657l354 287l121 -177l-385 -256z" />
<glyph unicode="&#xd4;" d="M64.5 435.5q1.5 -132.5 47.5 -233t144 -160.5t264 -60t291 60t214 160.5t144.5 232.5t85.5 278q31 141 33 272t-42 232.5t-143.5 162t-273.5 60.5t-298.5 -60.5t-212 -162t-140.5 -232.5t-84 -272q-31 -145 -29.5 -277.5zM307 529.5q6 91.5 25 183.5q20 98 55 188 t87 159.5t125 111.5t171 42h25q100 0 155.5 -42t77 -111.5t16 -159.5t-25.5 -188q-18 -92 -51 -183.5t-85.5 -163t-127 -116.5t-176.5 -45h-23q-102 0 -156.5 45t-76 116.5t-15.5 163zM549 1663l295 229h160l196 -231l-162 -139l-157 178l-236 -178z" />
<glyph unicode="&#xd5;" d="M64.5 435.5q1.5 -132.5 47.5 -233t144 -160.5t264 -60t291 60t214 160.5t144.5 232.5t85.5 278q31 141 33 272t-42 232.5t-143.5 162t-273.5 60.5t-298.5 -60.5t-212 -162t-140.5 -232.5t-84 -272q-31 -145 -29.5 -277.5zM307 529.5q6 91.5 25 183.5q20 98 55 188 t87 159.5t125 111.5t171 42h25q100 0 155.5 -42t77 -111.5t16 -159.5t-25.5 -188q-18 -92 -51 -183.5t-85.5 -163t-127 -116.5t-176.5 -45h-23q-102 0 -156.5 45t-76 116.5t-15.5 163zM496 1561q25 68 58.5 114.5t72.5 74.5t81 40t83 12q35 0 63.5 -12t54 -25.5t53 -26 t58.5 -12.5q16 0 35.5 8.5t48.5 47.5h168q-23 -63 -55.5 -109.5t-72.5 -76t-83 -44t-84 -14.5q-33 0 -62.5 12.5t-58.5 26.5t-55.5 26.5t-52.5 12.5q-16 0 -36 -8.5t-50 -46.5h-166z" />
<glyph unicode="&#xd6;" d="M64.5 435.5q1.5 -132.5 47.5 -233t144 -160.5t264 -60t291 60t214 160.5t144.5 232.5t85.5 278q31 141 33 272t-42 232.5t-143.5 162t-273.5 60.5t-298.5 -60.5t-212 -162t-140.5 -232.5t-84 -272q-31 -145 -29.5 -277.5zM307 529.5q6 91.5 25 183.5q20 98 55 188 t87 159.5t125 111.5t171 42h25q100 0 155.5 -42t77 -111.5t16 -159.5t-25.5 -188q-18 -92 -51 -183.5t-84.5 -163t-126 -116.5t-176.5 -45h-23q-102 0 -157.5 45t-77 116.5t-15.5 163zM518 1556l53 254h238l-53 -254h-238zM948 1556l53 254h240l-53 -254h-240z" />
<glyph unicode="&#xd7;" horiz-adv-x="1173" d="M113 346l321 262l-209 262l189 156l209 -264l315 264l123 -156l-320 -262l209 -264l-192 -151l-205 260l-320 -260z" />
<glyph unicode="&#xd8;" horiz-adv-x="1200" d="M-45 -94l151 229q-76 104 -83 255t28 323q31 141 84 272t140 232.5t212 162t299 60.5q92 0 164 -19l66 101h215l-117 -181q57 -49 87 -117.5t39 -150.5t1 -174t-29 -186q-31 -145 -86 -277.5t-144 -233t-214 -160.5t-291 -60q-137 0 -231 41l-76 -117h-215zM265.5 544 q-7.5 -83 6.5 -153l533 811q-6 2 -14 6q-8 2 -23.5 4t-40.5 2q-98 0 -171 -42t-125 -111.5t-87 -159.5t-55 -188q-16 -86 -23.5 -169zM387 238q25 -12 55.5 -22.5t69.5 -10.5h23q102 0 176.5 45t127 116.5t85 163t51.5 183.5q27 117 26.5 220t-43.5 173z" />
<glyph unicode="&#xd9;" horiz-adv-x="1409" d="M103 349.5q-1 109.5 26 236.5l178 833h234l-172 -811q-16 -80 -19.5 -153.5t19 -131t78 -92t153.5 -34.5q94 0 162.5 33.5t118 90t79 131t48.5 156.5l172 811h233l-178 -833q-29 -139 -84 -252t-138 -192t-195.5 -120.5t-260.5 -41.5q-166 0 -263 47t-143.5 130 t-47.5 192.5zM684 1763l193 176l227 -284l-150 -148z" />
<glyph unicode="&#xda;" horiz-adv-x="1409" d="M103 349.5q-1 109.5 26 236.5l178 833h234l-172 -811q-16 -80 -19.5 -153.5t19 -131t78 -92t153.5 -34.5q94 0 162.5 33.5t118 90t79 131t48.5 156.5l172 811h233l-178 -833q-29 -139 -84 -252t-138 -192t-195.5 -120.5t-260.5 -41.5q-166 0 -263 47t-143.5 130 t-47.5 192.5zM707 1655l352 284l121 -176l-385 -256z" />
<glyph unicode="&#xdb;" horiz-adv-x="1409" d="M103 349.5q-1 109.5 26 236.5l178 833h234l-172 -811q-16 -80 -19.5 -153.5t19 -131t78 -92t153.5 -34.5q94 0 162.5 33.5t118 90t79 131t48.5 156.5l172 811h233l-178 -833q-29 -139 -84 -252t-138 -192t-195.5 -120.5t-260.5 -41.5q-166 0 -263 47t-143.5 130 t-47.5 192.5zM586 1663l295 229h159l197 -231l-162 -139l-157 178l-236 -178z" />
<glyph unicode="&#xdc;" horiz-adv-x="1409" d="M103 349.5q-1 109.5 26 236.5l178 833h234l-172 -811q-16 -80 -19.5 -153.5t19 -131t78 -92t153.5 -34.5q94 0 162.5 33.5t118 90t79 131t48.5 156.5l172 811h233l-178 -833q-29 -139 -84 -252t-138 -192t-195.5 -120.5t-260.5 -41.5q-166 0 -263 47t-143.5 130 t-47.5 192.5zM555 1556l53 254h238l-53 -254h-238zM985 1556l53 254h240l-53 -254h-240z" />
<glyph unicode="&#xdd;" horiz-adv-x="1212" d="M106 1419h273l213 -667l506 667h266l-700 -866l-117 -553h-238l117 553zM580 1655l354 282l115 -176l-379 -254z" />
<glyph unicode="&#xde;" horiz-adv-x="1173" d="M8 0l301 1419h238l-53 -252h194q111 0 198 -24.5t143 -75.5t77.5 -131t-2.5 -191q-25 -119 -83 -199.5t-138 -129.5t-176.5 -70.5t-198.5 -21.5h-195l-67 -324h-238zM360 549h240q115 0 179.5 43t86.5 153q10 49 0 86t-35.5 62t-63.5 37t-83 12h-240z" />
<glyph unicode="&#xdf;" horiz-adv-x="1155" d="M-29 0l150 711h-133l41 194h133l24 111q23 106 63 187t104.5 134.5t155.5 81t214 27.5q109 0 182.5 -27.5t115.5 -79t53 -121t-7 -155.5q-16 -74 -64.5 -136.5t-111.5 -103.5q94 -49 126 -151.5t9 -212.5q-23 -109 -71 -198t-117.5 -152.5t-160.5 -97.5t-198 -34 q-29 0 -74 3.5t-112 19.5l43 209q39 -12 71.5 -19.5t79.5 -7.5q53 0 104.5 16.5t93.5 50.5t72.5 86t47.5 124q27 123 -39 187.5t-201 64.5h-88l41 194h88q78 0 147.5 43t86.5 115q16 78 -18 131t-142 53q-63 0 -108.5 -18.5t-76 -51t-50 -75.5t-29.5 -92l-213 -1010h-232z " />
<glyph unicode="&#xe0;" horiz-adv-x="1056" d="M0 295q16 80 63.5 138.5t111 97t136 58t140.5 21.5l258 11l10 45q16 86 -20.5 128t-123.5 42q-74 0 -131 -33t-73 -88l-228 2q18 63 59.5 119.5t102 98.5t139 66.5t172.5 24.5q115 0 185.5 -29.5t105.5 -85t38 -133.5t-17 -172l-97 -456q-10 -47 -13 -77t-5 -46 q-2 -20 0 -27h-201q-2 8 -2 27q0 16 3 42.5t14 73.5q-25 -37 -61 -66.5t-76.5 -51t-85 -33.5t-82.5 -12q-72 0 -137.5 17t-112.5 54t-68.5 97.5t-3.5 146.5zM227 291q-10 -47 31 -79t115 -32q53 0 102 18.5t88 51.5t65.5 74t37.5 88l6 24l-248 -10q-86 -4 -135 -40t-62 -95z M502 1411l217 148l164 -338l-172 -121z" />
<glyph unicode="&#xe1;" horiz-adv-x="1069" d="M0 295q16 80 63.5 138.5t111 97t136 58t140.5 21.5l258 11l10 45q16 86 -20.5 128t-123.5 42q-74 0 -131 -33t-73 -88l-228 2q18 63 59.5 119.5t102 98.5t139 66.5t172.5 24.5q115 0 185.5 -29.5t105.5 -85t38 -133.5t-17 -172l-97 -456q-10 -47 -13 -77t-5 -46 q-2 -20 0 -27h-201q-2 8 -2 27q0 16 3 42.5t14 73.5q-25 -37 -61 -66.5t-76.5 -51t-85 -33.5t-82.5 -12q-72 0 -137.5 17t-112.5 54t-68.5 97.5t-3.5 146.5zM227 291q-10 -47 31 -79t115 -32q53 0 102 18.5t88 51.5t65.5 74t37.5 88l6 24l-248 -10q-86 -4 -135 -40t-62 -95z M518 1241l305 336l154 -150l-336 -309z" />
<glyph unicode="&#xe2;" horiz-adv-x="1056" d="M0 295q16 80 63.5 138.5t111 97t136 58t140.5 21.5l258 11l10 45q16 86 -20.5 128t-123.5 42q-74 0 -131 -33t-73 -88l-228 2q18 63 59.5 119.5t102 98.5t139 66.5t172.5 24.5q115 0 185.5 -29.5t105.5 -85t38 -133.5t-17 -172l-97 -456q-10 -47 -13 -77t-5 -46 q-2 -20 0 -27h-201q-2 8 -2 27q0 16 3 42.5t14 73.5q-25 -37 -61 -66.5t-76.5 -51t-85 -33.5t-82.5 -12q-72 0 -137.5 17t-112.5 54t-68.5 97.5t-3.5 146.5zM227 291q-10 -47 31 -79t115 -32q53 0 102 18.5t88 51.5t65.5 74t37.5 88l6 24l-248 -10q-86 -4 -135 -40t-62 -95z M426 1194l229 225h152l129 -227l-148 -100l-94 155l-157 -155z" />
<glyph unicode="&#xe3;" horiz-adv-x="1079" d="M0 295q16 80 63.5 138.5t111 97t136 58t140.5 21.5l258 11l10 45q16 86 -20.5 128t-123.5 42q-74 0 -131 -33t-73 -88l-228 2q18 63 59.5 119.5t102 98.5t139 66.5t172.5 24.5q115 0 185.5 -29.5t105.5 -85t38 -133.5t-17 -172l-97 -456q-10 -47 -13 -77t-5 -46 q-2 -20 0 -27h-201q-2 8 -2 27q0 16 3 42.5t14 73.5q-25 -37 -61 -66.5t-76.5 -51t-85 -33.5t-82.5 -12q-72 0 -137.5 17t-112.5 54t-68.5 97.5t-3.5 146.5zM227 291q-10 -47 31 -79t115 -32q53 0 102 18.5t88 51.5t65.5 74t37.5 88l6 24l-248 -10q-86 -4 -135 -40t-62 -95z M317 1214q25 70 58 114t70.5 68.5t78.5 34t82 9.5q35 0 63.5 -12.5t54.5 -25.5t53.5 -25.5t58.5 -12.5q16 0 35.5 8t50.5 47h168q-23 -63 -56 -107t-71.5 -71t-81.5 -38t-84 -11q-35 0 -62.5 12.5t-54.5 27.5t-53.5 27.5t-59.5 12.5q-16 0 -35.5 -8.5t-48.5 -49.5h-166z" />
<glyph unicode="&#xe4;" horiz-adv-x="1042" d="M0 295q16 80 63.5 138.5t111 97t136 58t140.5 21.5l258 11l10 45q16 86 -20.5 128t-123.5 42q-74 0 -131 -33t-73 -88l-228 2q18 63 59.5 119.5t102 98.5t139 66.5t172.5 24.5q115 0 185.5 -29.5t105.5 -85t38 -133.5t-17 -172l-97 -456q-10 -47 -13 -77t-5 -46 q-2 -20 0 -27h-201q-2 8 -2 27q0 16 3 42.5t14 73.5q-25 -37 -61 -66.5t-76.5 -51t-85 -33.5t-82.5 -12q-72 0 -137.5 17t-112.5 54t-68.5 97.5t-3.5 146.5zM227 291q-10 -47 31 -79t115 -32q53 0 102 18.5t88 51.5t65.5 74t37.5 88l6 24l-248 -10q-86 -4 -135 -40t-62 -95z M334 1155l55 254h238l-56 -254h-237zM748 1155l55 254h239l-55 -254h-239z" />
<glyph unicode="&#xe5;" horiz-adv-x="1050" d="M0 295q16 80 63.5 138.5t111 97t136 58t140.5 21.5l258 11l10 45q16 86 -20.5 128t-123.5 42q-74 0 -131 -33t-73 -88l-228 2q18 63 59.5 119.5t102 98.5t139 66.5t172.5 24.5q115 0 185.5 -29.5t105.5 -85t38 -133.5t-17 -172l-97 -456q-10 -47 -13 -77t-5 -46 q-2 -20 0 -27h-201q-2 8 -2 27q0 16 3 42.5t14 73.5q-25 -37 -61 -66.5t-76.5 -51t-85 -33.5t-82.5 -12q-72 0 -137.5 17t-112.5 54t-68.5 97.5t-3.5 146.5zM227 291q-10 -47 31 -79t115 -32q53 0 102 18.5t88 51.5t65.5 74t37.5 88l6 24l-248 -10q-86 -4 -135 -40t-62 -95z M507 1289q-9 40 1 85t35.5 86t62.5 71t80 47t90 17t84 -17t60.5 -48t32 -71t-0.5 -85q-10 -45 -35.5 -85t-62.5 -70.5t-82 -48t-90 -17.5q-47 0 -83 17.5t-59.5 48t-32.5 70.5zM643 1372q-8 -37 13.5 -59.5t50.5 -22.5q37 0 64.5 23.5t35.5 58.5q8 37 -11.5 59.5t-54.5 22.5 t-62.5 -23.5t-35.5 -58.5z" />
<glyph unicode="&#xe6;" horiz-adv-x="1767" d="M0 295q16 80 63.5 138.5t111 97t136 58t140.5 21.5l258 11l10 45q16 86 -20.5 128t-123.5 42q-74 0 -131 -33t-73 -88h-228q18 63 59.5 119.5t102 99.5t139 67.5t172.5 24.5q129 0 201 -40t101 -109q78 72 180 109.5t217 37.5q102 0 180 -33t124 -97.5t57.5 -161.5 t-15.5 -226l-14 -72h-705q-6 -53 2 -100t30.5 -83t63.5 -56.5t101 -20.5q74 0 142.5 39t107.5 121h235q-41 -98 -97.5 -166t-124 -110t-145 -60t-161.5 -18q-156 0 -243 60t-122 161q-72 -104 -183.5 -162.5t-225.5 -58.5q-72 0 -137.5 17t-112.5 54t-68.5 97.5t-3.5 146.5z M227 295q-10 -47 31 -82t115 -35q53 0 102 20.5t89 53.5t66.5 76t37.5 90l4 16l-250 -10q-170 -6 -195 -129zM987 627h463q4 43 -6 80.5t-34 66.5t-58.5 45.5t-77.5 16.5q-45 0 -91 -17.5t-85 -46.5t-69 -66.5t-42 -78.5z" />
<glyph unicode="&#xe7;" horiz-adv-x="1083" d="M41 504q25 117 73 212t121.5 163.5t172 106.5t221.5 38q82 0 152.5 -22.5t119.5 -66.5t76 -108.5t24 -148.5h-239q-8 72 -55.5 115t-118.5 43q-66 0 -119 -28t-93 -75t-66.5 -107.5t-39.5 -123.5q-14 -63 -12 -123t21.5 -105t61.5 -72.5t108 -27.5q94 0 158.5 52.5 t101.5 140.5h233q-59 -170 -179 -268.5t-288 -114.5l-43 -76h21q63 0 94 -45t16 -111q-18 -86 -74.5 -127t-142.5 -41q-59 0 -88 28t-39 62l103 60q10 -41 49 -41q59 0 71 59q4 23 -7 41.5t-40 18.5t-47 -10.5t-31 -22.5l-67 53l88 152q-199 18 -272.5 152t-24.5 368z" />
<glyph unicode="&#xe8;" horiz-adv-x="1075" d="M22.5 294q-8.5 95 16.5 208q29 133 84 231t132 163t171 96.5t203 31.5q102 0 180 -33t124 -97.5t57 -161.5t-15 -226l-14 -72h-705q-6 -53 0 -100t27.5 -83t62.5 -56.5t107 -20.5q174 0 249 160h236q-41 -98 -97.5 -166t-124 -110t-145 -60t-161.5 -18q-127 0 -210 39.5 t-126 109.5t-51.5 165zM299 621h463q6 43 -3 81.5t-30.5 68.5t-56.5 47.5t-84 17.5q-55 0 -102.5 -18.5t-84 -48.5t-63.5 -68.5t-39 -79.5zM471 1409l217 150l166 -340l-176 -121z" />
<glyph unicode="&#xe9;" horiz-adv-x="1075" d="M22.5 294q-8.5 95 16.5 208q29 133 84 231t132 163t171 96.5t203 31.5q102 0 180 -33t124 -97.5t57 -161.5t-15 -226l-14 -72h-705q-6 -53 0 -100t27.5 -83t62.5 -56.5t107 -20.5q174 0 249 160h236q-41 -98 -97.5 -166t-124 -110t-145 -60t-161.5 -18q-127 0 -210 39.5 t-126 109.5t-51.5 165zM299 621h463q6 43 -3 81.5t-30.5 68.5t-56.5 47.5t-84 17.5q-55 0 -102.5 -18.5t-84 -48.5t-63.5 -68.5t-39 -79.5zM473 1219l311 340l154 -150l-340 -311z" />
<glyph unicode="&#xea;" horiz-adv-x="1075" d="M22.5 294q-8.5 95 16.5 208q29 133 84 231t132 163t171 96.5t203 31.5q102 0 180 -33t124 -97.5t57 -161.5t-15 -226l-14 -72h-705q-6 -53 0 -100t27.5 -83t62.5 -56.5t107 -20.5q174 0 249 160h236q-41 -98 -97.5 -166t-124 -110t-145 -60t-161.5 -18q-127 0 -210 39.5 t-126 109.5t-51.5 165zM299 621h463q6 43 -3 81.5t-30.5 68.5t-56.5 47.5t-84 17.5q-55 0 -102.5 -18.5t-84 -48.5t-63.5 -68.5t-39 -79.5zM403 1194l230 225h151l129 -227l-147 -100l-94 155l-158 -155z" />
<glyph unicode="&#xeb;" horiz-adv-x="1126" d="M22.5 294q-8.5 95 16.5 208q29 133 84 231t132 163t171 96.5t203 31.5q102 0 180 -33t124 -97.5t57 -161.5t-15 -226l-14 -72h-705q-6 -53 0 -100t27.5 -83t62.5 -56.5t107 -20.5q174 0 249 160h236q-41 -98 -97.5 -166t-124 -110t-145 -60t-161.5 -18q-127 0 -210 39.5 t-126 109.5t-51.5 165zM299 621h463q6 43 -3 81.5t-30.5 68.5t-56.5 47.5t-84 17.5q-55 0 -102.5 -18.5t-84 -48.5t-63.5 -68.5t-39 -79.5zM338 1155l55 254h238l-56 -254h-237zM752 1155l55 254h240l-56 -254h-239z" />
<glyph unicode="&#xec;" horiz-adv-x="497" d="M-25 0l213 1006h226l-213 -1006h-226zM156 1409l217 150l166 -340l-177 -121z" />
<glyph unicode="&#xed;" horiz-adv-x="507" d="M-25 0l213 1006h226l-213 -1006h-226zM170 1219l311 340l154 -150l-340 -311z" />
<glyph unicode="&#xee;" horiz-adv-x="456" d="M-25 0l213 1006h226l-213 -1006h-226zM92 1194l230 225h151l129 -227l-147 -100l-95 155l-157 -155z" />
<glyph unicode="&#xef;" horiz-adv-x="573" d="M10 0l213 1006h226l-213 -1006h-226zM49 1155l55 254h238l-55 -254h-238zM463 1155l55 254h240l-56 -254h-239z" />
<glyph unicode="&#xf0;" horiz-adv-x="1067" d="M22.5 296q-4.5 95 18.5 204q25 115 72 211t116.5 166.5t163.5 110.5t211 40q23 0 43 -4q8 -2 19 -2l-31 88h-242l37 172h156l-51 158h210l50 -158h192l-37 -172h-100q45 -119 67.5 -215t30.5 -172t5 -131t-11 -92q-25 -115 -71 -210t-115.5 -166t-163.5 -110t-211 -39 q-123 0 -201 42t-115.5 113t-42 166zM258 383.5q0 -57.5 16.5 -102.5t52 -73t97.5 -28q63 0 112.5 31t85 78t58 103.5t33.5 107.5q12 57 13 115.5t-15.5 103.5t-52 73.5t-97.5 28.5q-66 0 -115 -30.5t-83.5 -77.5t-57.5 -104.5t-35 -108.5q-12 -59 -12 -116.5z" />
<glyph unicode="&#xf1;" horiz-adv-x="1216" d="M-25 0l213 1006h220l-17 -76q66 61 136.5 78.5t138.5 17.5q98 0 170.5 -21.5t117.5 -66.5t59.5 -114.5t-5.5 -168.5l-140 -655h-225l133 631q20 92 -33 142t-147 50q-98 0 -172 -57t-96 -160l-127 -606h-226zM328 1214q25 70 57.5 114t70.5 68.5t78.5 34t81.5 9.5 q35 0 64 -12.5t54.5 -25.5t53 -25.5t58.5 -12.5q16 0 35.5 8t50.5 47h168q-23 -63 -55.5 -107t-71.5 -71t-82 -38t-84 -11q-35 0 -62.5 12.5t-54 27.5t-53.5 27.5t-59 12.5q-16 0 -36 -8.5t-48 -49.5h-166z" />
<glyph unicode="&#xf2;" horiz-adv-x="1107" d="M45 504q25 117 73 212t121.5 163.5t172 106.5t221.5 38t205 -38t126 -106.5t52 -163.5t-17 -212q-53 -252 -202.5 -388t-386.5 -136q-236 0 -327 136t-38 388zM262 379q2 -60 21.5 -105t61.5 -72.5t108 -27.5t119 27.5t91.5 72.5t65.5 104.5t41 123.5q12 63 11 123.5 t-21.5 107.5t-61 75t-106.5 28t-119 -28t-93 -75t-66.5 -107.5t-39.5 -123.5q-14 -63 -12 -123zM489 1409l218 150l165 -340l-176 -121z" />
<glyph unicode="&#xf3;" horiz-adv-x="1107" d="M45 504q25 117 73 212t121.5 163.5t172 106.5t221.5 38t205 -38t126 -106.5t52 -163.5t-17 -212q-53 -252 -202.5 -388t-386.5 -136q-236 0 -327 136t-38 388zM262 379q2 -60 21.5 -105t61.5 -72.5t108 -27.5t119 27.5t91.5 72.5t65.5 104.5t41 123.5q12 63 11 123.5 t-21.5 107.5t-61 75t-106.5 28t-119 -28t-93 -75t-66.5 -107.5t-39.5 -123.5q-14 -63 -12 -123zM485 1219l308 340l153 -150l-340 -311z" />
<glyph unicode="&#xf4;" horiz-adv-x="1107" d="M45 504q25 117 73 212t121.5 163.5t172 106.5t221.5 38t205 -38t126 -106.5t52 -163.5t-17 -212q-53 -252 -202.5 -388t-386.5 -136q-236 0 -327 136t-38 388zM262 379q2 -60 21.5 -105t61.5 -72.5t108 -27.5t119 27.5t91.5 72.5t65.5 104.5t41 123.5q12 63 11 123.5 t-21.5 107.5t-61 75t-106.5 28t-119 -28t-93 -75t-66.5 -107.5t-39.5 -123.5q-14 -63 -12 -123zM414 1194l229 225h152l129 -227l-148 -100l-94 155l-158 -155z" />
<glyph unicode="&#xf5;" horiz-adv-x="1167" d="M45 504q25 117 73 212t121.5 163.5t172 106.5t221.5 38t205 -38t126 -106.5t52 -163.5t-17 -212q-53 -252 -202.5 -388t-386.5 -136q-236 0 -327 136t-38 388zM262 379q2 -60 21.5 -105t61.5 -72.5t108 -27.5t119 27.5t91.5 72.5t65.5 104.5t41 123.5q12 63 11 123.5 t-21.5 107.5t-61 75t-106.5 28t-119 -28t-93 -75t-66.5 -107.5t-39.5 -123.5q-14 -63 -12 -123zM307 1214q25 70 57.5 114t70.5 68.5t79 34t82 9.5q35 0 63.5 -12.5t54 -25.5t53.5 -25.5t58 -12.5q16 0 36 8t50 47h168q-23 -63 -55.5 -107t-71.5 -71t-82 -38t-84 -11 q-35 0 -62.5 12.5t-54 27.5t-53 27.5t-59.5 12.5q-16 0 -35.5 -8.5t-48.5 -49.5h-166z" />
<glyph unicode="&#xf6;" horiz-adv-x="1134" d="M45 504q25 117 73 212t121.5 163.5t172 106.5t221.5 38t205 -38t126 -106.5t52 -163.5t-17 -212q-53 -252 -202.5 -388t-386.5 -136q-236 0 -327 136t-38 388zM262 379q2 -60 21.5 -105t61.5 -72.5t108 -27.5t119 27.5t91.5 72.5t65.5 104.5t41 123.5q12 63 11 123.5 t-21.5 107.5t-61 75t-106.5 28t-119 -28t-93 -75t-66.5 -107.5t-39.5 -123.5q-14 -63 -12 -123zM338 1155l55 254h238l-56 -254h-237zM752 1155l55 254h240l-56 -254h-239z" />
<glyph unicode="&#xf7;" horiz-adv-x="1202" d="M98 516l45 215h961l-45 -215h-961zM367 135l55 266h264l-55 -266h-264zM518 854l57 268h265l-58 -268h-264z" />
<glyph unicode="&#xf8;" horiz-adv-x="1107" d="M25 -78l98 150q-141 131 -76 432q25 117 73 212t121.5 163.5t172 106.5t221.5 38q29 0 54.5 -2t49.5 -6l45 67h215l-92 -139q82 -66 103.5 -179.5t-9.5 -260.5q-53 -252 -202.5 -388t-386.5 -136q-72 0 -127 12l-47 -70h-213zM263 396.5q-1 -50.5 11 -91.5l347 526 q-4 2 -12.5 2.5t-14.5 0.5q-66 0 -119 -28t-93 -74t-66.5 -106.5t-39.5 -123.5q-12 -55 -13 -105.5zM406 176q10 -2 23.5 -2h25.5q66 0 119 27.5t92 72.5t65.5 104.5t40.5 123.5q12 63 11 119.5t-19 101.5z" />
<glyph unicode="&#xf9;" horiz-adv-x="1144" d="M47 350l139 656h226l-136 -639q-20 -92 35.5 -142.5t149.5 -50.5q98 0 173 57.5t97 159.5l131 615h225l-213 -1006h-217l21 98q-61 -63 -142 -90.5t-149 -27.5q-195 0 -288 88t-52 282zM498 1409l217 145l159 -333l-169 -121z" />
<glyph unicode="&#xfa;" horiz-adv-x="1144" d="M47 350l139 656h226l-136 -639q-20 -92 35.5 -142.5t149.5 -50.5q98 0 173 57.5t97 159.5l131 615h225l-213 -1006h-217l21 98q-61 -63 -142 -90.5t-149 -27.5q-195 0 -288 88t-52 282zM496 1221l299 331l155 -145l-336 -307z" />
<glyph unicode="&#xfb;" horiz-adv-x="1144" d="M47 350l139 656h226l-136 -639q-20 -92 35.5 -142.5t149.5 -50.5q98 0 173 57.5t97 159.5l131 615h225l-213 -1006h-217l21 98q-61 -63 -142 -90.5t-149 -27.5q-195 0 -288 88t-52 282zM418 1194l229 225h152l129 -227l-148 -100l-94 155l-158 -155z" />
<glyph unicode="&#xfc;" horiz-adv-x="1144" d="M47 350l139 656h226l-136 -639q-20 -92 35.5 -142.5t149.5 -50.5q98 0 173 57.5t97 159.5l131 615h225l-213 -1006h-217l21 98q-61 -63 -142 -90.5t-149 -27.5q-195 0 -288 88t-52 282zM328 1155l55 254h238l-56 -254h-237zM741 1155l56 254h239l-55 -254h-240z" />
<glyph unicode="&#xfd;" horiz-adv-x="1036" d="M-131 -360l43 198q20 -6 43 -10q41 -10 80 -10q37 0 68.5 25.5t58 60.5t47 71.5t35.5 61.5l-176 969h239l109 -730l424 730h241l-739 -1166q-31 -47 -62.5 -89t-69.5 -73.5t-82 -50t-99 -18.5q-47 0 -83 7t-77 24zM434 1219l303 335l156 -147l-336 -307z" />
<glyph unicode="&#xfe;" horiz-adv-x="1161" d="M-102 -410l393 1846h223l-108 -502q53 49 119.5 70.5t136.5 21.5q123 0 204.5 -38t125.5 -107.5t52.5 -164.5t-16.5 -212q-53 -252 -204.5 -388t-379.5 -136q-59 0 -96 10t-60.5 25.5t-36.5 36t-26 42.5l-106 -504h-221zM297 369.5q4 -52.5 24.5 -93t60.5 -66.5t101 -26 q66 0 118 26t92 70t65.5 101t40.5 121q12 63 11 122.5t-21.5 103.5t-62.5 70.5t-108 26.5q-59 0 -109 -24.5t-88 -66.5t-65.5 -98t-42.5 -118l-8 -43q-12 -53 -8 -105.5z" />
<glyph unicode="&#xff;" horiz-adv-x="1036" d="M-131 -360l43 198q20 -6 43 -10q41 -10 80 -10q37 0 68.5 25.5t58 60.5t47 71.5t35.5 61.5l-176 969h239l109 -730l424 730h241l-739 -1166q-31 -47 -62.5 -89t-69.5 -73.5t-82 -50t-99 -18.5q-47 0 -83 7t-77 24zM276 1155l56 254h237l-55 -254h-238zM690 1155l55 254 h240l-55 -254h-240z" />
<glyph unicode="&#x152;" horiz-adv-x="2009" d="M91 435q-1 132 30 278q31 141 84 272t140 232.5t212 162t297 60.5q115 0 191.5 -32t130.5 -91l22 102h877l-47 -223h-639l-80 -375h598l-47 -221h-598l-80 -375h655l-47 -225h-893l21 104q-74 -57 -167.5 -90.5t-207.5 -33.5q-166 0 -263.5 60t-142.5 161.5t-46 233.5z M334 530.5q-6 -90.5 15.5 -163t75.5 -116.5t157 -44h22q102 0 177 44t127.5 116.5t85 163t50.5 182.5q20 96 25.5 187t-17 160.5t-77.5 111.5t-154 42h-24q-98 0 -171 -42t-125 -111.5t-87 -160.5t-56 -187q-18 -92 -24 -182.5z" />
<glyph unicode="&#x153;" horiz-adv-x="1861" d="M57 500q25 117 73 212t122 163.5t172 106.5t221 38q133 0 218 -41t120 -133q78 92 188.5 135t233.5 43q102 0 180 -33t124 -97.5t57.5 -161.5t-15.5 -226l-14 -72h-705q-6 -53 2 -99t30.5 -81t63.5 -54.5t101 -19.5q74 0 142.5 36t107.5 118h235q-41 -98 -97 -166 t-124 -110t-145.5 -60t-161.5 -18q-135 0 -218 50t-124 126q-78 -82 -183.5 -131.5t-236.5 -49.5q-236 0 -328 136.5t-39 388.5zM275.5 377q0.5 -58 21 -102t62.5 -69.5t108 -25.5t119 25.5t92 69.5t65.5 101.5t38.5 121.5q14 63 12.5 122.5t-21 103.5t-61.5 70.5t-108 26.5 t-119 -26.5t-92 -70.5t-65.5 -103.5t-40.5 -122.5q-12 -63 -11.5 -121zM1077 627h463q10 86 -40 141t-138 55q-45 0 -90 -15t-84 -42t-68.5 -62.5t-42.5 -76.5z" />
<glyph unicode="&#x178;" horiz-adv-x="1220" d="M106 1419h267l225 -645l512 645h262l-710 -878l-115 -541h-232l115 541zM428 1556l53 254h238l-53 -254h-238zM858 1556l53 254h240l-53 -254h-240z" />
<glyph unicode="&#x2c6;" horiz-adv-x="540" d="M74 1090l332 329h178l184 -329h-236l-77 143l-136 -143h-245z" />
<glyph unicode="&#x2dc;" horiz-adv-x="544" d="M59 1221q25 70 59 115.5t71.5 73.5t78.5 40t82 12q33 0 61.5 -12t55.5 -25.5t54.5 -26t58.5 -12.5q18 0 38.5 8.5t49.5 47.5h168q-45 -127 -129 -185.5t-166 -58.5q-35 0 -63.5 12.5t-54.5 27.5t-53.5 27.5t-60.5 12.5q-16 0 -35.5 -8t-50.5 -49h-164z" />
<glyph unicode="&#x2000;" horiz-adv-x="973" />
<glyph unicode="&#x2001;" horiz-adv-x="1946" />
<glyph unicode="&#x2002;" horiz-adv-x="973" />
<glyph unicode="&#x2003;" horiz-adv-x="1946" />
<glyph unicode="&#x2004;" horiz-adv-x="648" />
<glyph unicode="&#x2005;" horiz-adv-x="486" />
<glyph unicode="&#x2006;" horiz-adv-x="324" />
<glyph unicode="&#x2007;" horiz-adv-x="324" />
<glyph unicode="&#x2008;" horiz-adv-x="243" />
<glyph unicode="&#x2009;" horiz-adv-x="389" />
<glyph unicode="&#x200a;" horiz-adv-x="108" />
<glyph unicode="&#x2010;" horiz-adv-x="784" d="M43 485l45 213h592l-45 -213h-592z" />
<glyph unicode="&#x2011;" horiz-adv-x="784" d="M43 485l45 213h592l-45 -213h-592z" />
<glyph unicode="&#x2012;" horiz-adv-x="784" d="M43 485l45 213h592l-45 -213h-592z" />
<glyph unicode="&#x2013;" horiz-adv-x="1054" d="M-53 487l43 205h1057l-43 -205h-1057z" />
<glyph unicode="&#x2014;" horiz-adv-x="2449" d="M217 487l43 205h1915l-43 -205h-1915z" />
<glyph unicode="&#x2018;" horiz-adv-x="638" d="M205 1006l252 413h196l-182 -413h-266z" />
<glyph unicode="&#x2019;" horiz-adv-x="645" d="M180 1006l180 413h275l-254 -413h-201z" />
<glyph unicode="&#x201a;" horiz-adv-x="663" d="M-35 -193l199 467h274l-274 -467h-199z" />
<glyph unicode="&#x201c;" horiz-adv-x="978" d="M154 1006l252 413h196l-182 -413h-266zM557 1006l252 413h197l-183 -413h-266z" />
<glyph unicode="&#x201d;" horiz-adv-x="993" d="M154 1006l180 413h274l-254 -413h-200zM565 1006l180 413h275l-254 -413h-201z" />
<glyph unicode="&#x201e;" horiz-adv-x="993" d="M-82 -193l199 467h274l-274 -467h-199zM311 -193l199 467h274l-274 -467h-199z" />
<glyph unicode="&#x2022;" horiz-adv-x="1763" d="M147 709q0 152 57.5 285.5t158 233t234.5 158t286 58.5t286 -58.5t233 -158t157.5 -233.5t58.5 -285q0 -152 -58.5 -286t-157.5 -234.5t-233.5 -158t-285.5 -57.5q-152 0 -286 57.5t-234.5 158t-158 234.5t-57.5 286z" />
<glyph unicode="&#x2026;" horiz-adv-x="1667" d="M43 0l57 270h271l-58 -270h-270zM543 0l57 270h270l-57 -270h-270zM1044 0l58 270h270l-57 -270h-271z" />
<glyph unicode="&#x202f;" horiz-adv-x="389" />
<glyph unicode="&#x2039;" horiz-adv-x="815" d="M53 504l428 465h271l-430 -465l233 -463h-270z" />
<glyph unicode="&#x203a;" horiz-adv-x="815" d="M10 41l428 463l-231 465h268l234 -465l-430 -463h-269z" />
<glyph unicode="&#x205f;" horiz-adv-x="486" />
<glyph unicode="&#x20ac;" horiz-adv-x="1267" d="M-29 465l37 176h135l29 139h-135l39 178h155q92 236 261.5 361t412.5 125q98 0 181 -21.5t140.5 -65.5t84 -109.5t12.5 -151.5h-254q-23 53 -80 81.5t-133 28.5q-115 0 -209 -63.5t-153 -184.5h469l-39 -178h-494l-29 -139h494l-37 -176h-469q4 -129 71.5 -188.5 t184.5 -59.5q78 0 147.5 24.5t114.5 84.5h256q-35 -96 -96 -162t-137 -107t-163 -59t-173 -18q-135 0 -226.5 38.5t-145.5 104t-75.5 155t-19.5 187.5h-156z" />
<glyph unicode="&#x2122;" d="M121 1274v145h459v-145h-146v-434h-147v434h-166zM649 840v579h176l119 -334l115 334h176v-579h-150v297l-98 -297h-90l-98 297v-297h-150z" />
<glyph unicode="&#x25fc;" horiz-adv-x="1003" d="M0 0v1004h1004v-1004h-1004z" />
</font>
</defs>
</svg>
