<?xml version="1.0" standalone="no"?>
<!DOCTYPE svg PUBLIC "-//W3C//DTD SVG 1.1//EN" "http://www.w3.org/Graphics/SVG/1.1/DTD/svg11.dtd" >
<svg xmlns="http://www.w3.org/2000/svg" xmlns:xlink="http://www.w3.org/1999/xlink" version="1.1">
<metadata>
Created by FontForge 20160407 at Mon Jul 25 12:01:56 2016
 By Jimmy Wärting
Copyright (c) 2003 The Hoefler Type Foundry, Inc., dba Hoefler &#38; Frere-Jones. All Rights Reserved.
</metadata>
<defs>
<font id="GothamPro-BlackItalic" horiz-adv-x="500" >
  <font-face 
    font-family="Gotham Pro"
    font-weight="400"
    font-style="italic"
    font-stretch="normal"
    units-per-em="1000"
    panose-1="2 0 5 3 4 0 0 9 0 4"
    ascent="800"
    descent="-200"
    x-height="541"
    cap-height="700"
    bbox="-145 -180 1311 932"
    underline-thickness="20"
    underline-position="-133"
    slope="-15"
    stemh="169"
    stemv="193"
    unicode-range="U+0020-FB04"
  />
<missing-glyph 
d="M0 0v700h500v-700h-500zM81 49h340l-171 255zM50 95l170 254l-170 256v-510zM451 95v510l-172 -256zM250 395l171 255h-340z" />
    <glyph glyph-name="ff" unicode="ff" horiz-adv-x="836" 
d="M13 0l105 388h-64l41 153h63l3 11c34 132 108 185 232 185c47 0 85 -6 121 -18l-35 -133c-20 7 -45 12 -64 12c-39 0 -59 -16 -68 -51l-3 -9h122l-40 -150h-118l-105 -388h-190zM431 0l105 388h-64l41 153h63l3 11c34 132 108 185 232 185c47 0 85 -6 121 -18l-35 -133
c-20 7 -45 12 -64 12c-39 0 -59 -16 -68 -51l-3 -9h122l-40 -150h-118l-105 -388h-190z" />
    <glyph glyph-name="fi" unicode="fi" horiz-adv-x="719" 
d="M13 0l105 388h-64l41 153h63l3 11c34 132 108 185 232 185c47 0 85 -6 121 -18l-35 -133c-20 7 -45 12 -64 12c-39 0 -59 -16 -68 -51l-3 -9h122l-40 -150h-118l-105 -388h-190zM401 0l145 541h190l-145 -541h-190zM556 590l38 140h198l-38 -140h-198z" />
    <glyph glyph-name="fl" unicode="fl" horiz-adv-x="719" 
d="M13 0l105 388h-64l41 153h63l3 11c34 132 108 185 232 185c47 0 85 -6 121 -18l-35 -133c-20 7 -45 12 -64 12c-39 0 -59 -16 -68 -51l-3 -9h122l-40 -150h-118l-105 -388h-190zM401 0l196 730h190l-196 -730h-190z" />
    <glyph glyph-name="ffi" unicode="ffi" horiz-adv-x="1137" 
d="M13 0l105 388h-64l41 153h63l3 11c34 132 108 185 232 185c47 0 85 -6 121 -18l-35 -133c-20 7 -45 12 -64 12c-39 0 -59 -16 -68 -51l-3 -9h122l-40 -150h-118l-105 -388h-190zM431 0l105 388h-64l41 153h63l3 11c34 132 108 185 232 185c47 0 85 -6 121 -18l-35 -133
c-20 7 -45 12 -64 12c-39 0 -59 -16 -68 -51l-3 -9h122l-40 -150h-118l-105 -388h-190zM819 0l145 541h190l-145 -541h-190zM974 590l38 140h198l-38 -140h-198z" />
    <glyph glyph-name="ffl" unicode="ffl" horiz-adv-x="1137" 
d="M13 0l105 388h-64l41 153h63l3 11c34 132 108 185 232 185c47 0 85 -6 121 -18l-35 -133c-20 7 -45 12 -64 12c-39 0 -59 -16 -68 -51l-3 -9h122l-40 -150h-118l-105 -388h-190zM431 0l105 388h-64l41 153h63l3 11c34 132 108 185 232 185c47 0 85 -6 121 -18l-35 -133
c-20 7 -45 12 -64 12c-39 0 -59 -16 -68 -51l-3 -9h122l-40 -150h-118l-105 -388h-190zM819 0l196 730h190l-196 -730h-190z" />
    <glyph glyph-name=".notdef" 
d="M0 0v700h500v-700h-500zM81 49h340l-171 255zM50 95l170 254l-170 256v-510zM451 95v510l-172 -256zM250 395l171 255h-340z" />
    <glyph glyph-name="space" unicode=" " horiz-adv-x="277" 
 />
    <glyph glyph-name="exclam" unicode="!" horiz-adv-x="322" 
d="M-10 0l45 170h198l-46 -170h-197zM100 228l45 387l23 85h217l-24 -85l-162 -387h-99z" />
    <glyph glyph-name="quotedbl" unicode="&#x22;" horiz-adv-x="540" 
d="M67 341l95 359h204l-1 -5l-198 -354h-100zM326 341l96 359h204l-1 -5l-198 -354h-101z" />
    <glyph glyph-name="numbersign" unicode="#" horiz-adv-x="697" 
d="M38 0l47 135h-82l36 161h103l39 112h-94l36 161h115l46 131h145l-46 -131h126l46 131h145l-46 -131h82l-36 -161h-102l-40 -112h95l-36 -161h-115l-48 -135h-145l48 135h-127l-47 -135h-145zM281 292h135l42 120h-135z" />
    <glyph glyph-name="dollar" unicode="$" horiz-adv-x="656" 
d="M177 -98l31 107c-92 17 -172 57 -227 113l116 121c52 -43 103 -70 160 -82l37 122c-120 37 -192 84 -192 190c0 126 119 227 302 227h9l17 58h104l-20 -69c73 -17 132 -48 178 -88l-107 -130c-32 27 -73 50 -119 64l-35 -115c115 -38 187 -85 187 -190
c0 -136 -124 -230 -304 -230h-5l-28 -98h-104zM348 152c53 2 81 23 81 57c0 21 -10 34 -49 49zM345 446l30 103c-57 0 -83 -25 -83 -55c0 -22 13 -34 53 -48z" />
    <glyph glyph-name="percent" unicode="%" horiz-adv-x="923" 
d="M68 0l689 700h141l-690 -700h-140zM683 -10c-106 0 -167 70 -167 163c0 108 81 217 203 217c106 0 167 -69 167 -163c0 -108 -81 -217 -203 -217zM688 95c50 0 82 56 82 107c0 37 -22 63 -56 63c-50 0 -82 -55 -82 -107c0 -37 22 -63 56 -63zM247 330
c-107 0 -168 69 -168 163c0 108 81 217 203 217c106 0 167 -70 167 -163c0 -108 -81 -217 -202 -217zM252 435c49 0 81 55 81 107c0 37 -21 63 -56 63c-49 0 -81 -56 -81 -107c0 -37 21 -63 56 -63z" />
    <glyph glyph-name="ampersand" unicode="&#x26;" horiz-adv-x="700" 
d="M517 -14l-49 69c-66 -42 -139 -66 -214 -66c-149 0 -241 74 -241 193c0 107 79 182 201 222c-20 39 -32 78 -32 116c0 106 87 193 222 193c124 0 208 -75 208 -177c0 -86 -59 -151 -173 -192l61 -83c25 27 49 58 72 92l113 -79c-30 -46 -63 -87 -98 -124l57 -77zM278 133
c31 0 66 11 103 33l-95 135c-60 -25 -90 -61 -90 -104c0 -37 30 -64 82 -64zM363 442c67 25 94 49 94 87c0 29 -20 52 -52 52c-39 0 -65 -31 -65 -68c0 -21 6 -44 23 -71z" />
    <glyph glyph-name="quotesingle" unicode="'" horiz-adv-x="282" 
d="M67 341l95 359h207l-1 -5l-198 -354h-103z" />
    <glyph glyph-name="parenleft" unicode="(" horiz-adv-x="455" 
d="M242 -143c-125 95 -197 212 -197 360c0 238 171 416 412 496l56 -129c-193 -85 -284 -227 -284 -362c0 -94 43 -171 121 -255z" />
    <glyph glyph-name="parenright" unicode=")" horiz-adv-x="455" 
d="M7 -140l-57 129c194 85 284 227 284 362c0 94 -43 171 -121 255l109 110c124 -95 196 -213 196 -360c0 -238 -171 -416 -411 -496z" />
    <glyph glyph-name="asterisk" unicode="*" horiz-adv-x="436" 
d="M285 329l-102 27l58 121l-122 -58l-28 103l135 10l-112 77l77 76l76 -112l10 134l102 -27l-58 -122l122 59l28 -104l-135 -10l112 -77l-77 -75l-76 112z" />
    <glyph glyph-name="plus" unicode="+" horiz-adv-x="650" 
d="M191 96l46 172h-168l45 168h168l46 172h175l-46 -172h168l-45 -168h-168l-46 -172h-175z" />
    <glyph glyph-name="comma" unicode="," horiz-adv-x="302" 
d="M-66 -165l-8 73c79 8 119 40 131 94h-77l53 195h197l-45 -168c-34 -128 -102 -188 -251 -194z" />
    <glyph glyph-name="hyphen" unicode="-" horiz-adv-x="417" 
d="M33 229l45 167h328l-44 -167h-329z" />
    <glyph glyph-name="period" unicode="." horiz-adv-x="302" 
d="M-20 0l52 195h198l-53 -195h-197z" />
    <glyph glyph-name="slash" unicode="/" horiz-adv-x="535" 
d="M-145 -128l682 926h166l-682 -926h-166z" />
    <glyph glyph-name="zero" unicode="0" horiz-adv-x="726" 
d="M330 -14c-174 0 -280 122 -280 284c0 222 153 444 387 444c175 0 281 -123 281 -284c0 -223 -153 -444 -388 -444zM347 157c107 0 174 148 174 262c0 83 -42 123 -101 123c-107 0 -173 -148 -173 -262c0 -82 41 -123 100 -123z" />
    <glyph glyph-name="one" unicode="1" horiz-adv-x="430" 
d="M84 0l138 517l-117 -28l-4 157l222 59h141l-189 -705h-191z" />
    <glyph glyph-name="two" unicode="2" horiz-adv-x="627" 
d="M-33 0l41 150l356 232c62 40 81 71 81 104c0 35 -24 57 -68 57c-50 0 -105 -34 -159 -87l-113 119c73 80 166 136 290 136c152 0 246 -83 246 -200c0 -86 -44 -154 -184 -244l-171 -109h279l-43 -158h-555z" />
    <glyph glyph-name="three" unicode="3" horiz-adv-x="611" 
d="M256 -14c-128 0 -222 49 -280 135l132 109c38 -50 83 -78 148 -78c70 0 117 40 117 83c0 41 -35 64 -109 64h-67l-4 100l196 144h-262l42 157h506l-38 -139l-214 -149c88 -24 142 -81 142 -170c0 -153 -127 -256 -309 -256z" />
    <glyph glyph-name="four" unicode="4" horiz-adv-x="679" 
d="M313 0l36 136h-321l-21 142l476 427h205l-113 -424h89l-40 -145h-88l-37 -136h-186zM223 280h165l53 199z" />
    <glyph glyph-name="five" unicode="5" horiz-adv-x="612" 
d="M261 -13c-116 0 -229 58 -283 124l122 114c49 -48 101 -74 167 -74c74 0 122 43 122 95c0 42 -33 75 -104 75c-34 0 -71 -12 -99 -29l-99 69l111 339h462l-43 -160h-306l-32 -97c29 10 58 14 89 14c129 0 216 -75 216 -194c0 -154 -127 -276 -323 -276z" />
    <glyph glyph-name="six" unicode="6" horiz-adv-x="654" 
d="M317 -13c-81 0 -151 25 -196 70c-47 47 -72 111 -72 193c0 126 46 260 137 351c67 67 159 112 275 112c92 0 170 -28 226 -76l-97 -137c-36 32 -86 54 -137 54c-54 0 -100 -19 -136 -55c-25 -25 -46 -59 -59 -96c35 30 94 55 160 55c109 0 201 -69 201 -190
c0 -154 -135 -281 -302 -281zM317 134c66 0 111 55 111 111c0 46 -34 78 -84 78c-68 0 -114 -52 -114 -110c0 -22 8 -41 22 -54c15 -15 37 -25 65 -25z" />
    <glyph glyph-name="seven" unicode="7" horiz-adv-x="614" 
d="M-4 0l422 537h-316l44 163h540l-40 -146l-428 -554h-222z" />
    <glyph glyph-name="eight" unicode="8" horiz-adv-x="664" 
d="M305 -10c-153 0 -281 76 -281 196c0 99 67 162 171 190c-49 29 -76 77 -76 132c0 98 96 202 279 202c156 0 259 -83 259 -191c0 -86 -57 -146 -150 -173c62 -26 103 -73 103 -144c0 -118 -120 -212 -305 -212zM316 133c60 0 108 33 108 84c0 46 -46 74 -100 74
c-62 0 -108 -35 -108 -84c0 -46 46 -74 100 -74zM380 417c45 0 97 28 97 81c0 42 -39 69 -90 69c-45 0 -97 -28 -97 -81c0 -43 41 -69 90 -69z" />
    <glyph glyph-name="nine" unicode="9" horiz-adv-x="654" 
d="M238 -13c-91 0 -172 29 -233 81l97 136c41 -34 89 -58 141 -58c54 0 100 20 137 57c25 24 45 56 57 91c-35 -30 -93 -54 -159 -54c-109 0 -201 67 -201 190c0 160 135 284 302 284c78 0 151 -25 196 -70c47 -47 73 -111 73 -200c0 -123 -48 -254 -139 -345
c-68 -68 -158 -112 -271 -112zM354 374c66 0 112 53 112 113c0 21 -8 41 -21 55c-15 15 -37 24 -65 24c-67 0 -112 -53 -112 -113c0 -48 35 -79 86 -79z" />
    <glyph glyph-name="colon" unicode=":" horiz-adv-x="307" 
d="M-18 0l53 195h197l-52 -195h-198zM75 346l52 195h198l-53 -195h-197z" />
    <glyph glyph-name="semicolon" unicode=";" horiz-adv-x="307" 
d="M-64 -167l-8 73c79 8 119 40 131 94h-77l53 195h197l-45 -168c-34 -128 -102 -188 -251 -194zM75 346l52 195h198l-53 -195h-197z" />
    <glyph glyph-name="less" unicode="&#x3c;" horiz-adv-x="640" 
d="M513 65l-445 198l48 177l550 198l-50 -185l-356 -110l298 -109z" />
    <glyph glyph-name="equal" unicode="=" horiz-adv-x="640" 
d="M38 134l45 167h491l-44 -167h-492zM110 403l45 167h492l-45 -167h-492z" />
    <glyph glyph-name="greater" unicode="&#x3e;" horiz-adv-x="640" 
d="M20 65l50 185l356 110l-298 109l45 169l445 -198l-48 -177z" />
    <glyph glyph-name="question" unicode="?" horiz-adv-x="540" 
d="M67 0l46 170h197l-46 -170h-197zM168 228l18 168l9 8c119 10 182 39 182 87c0 30 -21 50 -67 50c-42 0 -87 -17 -135 -54l-78 135c66 57 154 88 247 88c140 0 226 -81 226 -182c0 -113 -78 -198 -251 -226l-30 -74h-121z" />
    <glyph glyph-name="at" unicode="@" horiz-adv-x="965" 
d="M462 -154c-246 0 -415 157 -415 388c0 259 212 481 490 481c253 0 402 -155 402 -343c0 -220 -124 -315 -243 -315c-73 0 -127 34 -152 82c-38 -42 -88 -80 -159 -80c-86 0 -155 64 -155 172c0 164 116 288 244 288c66 0 105 -32 129 -72l21 67l147 -40l-80 -254
c-5 -15 -7 -29 -7 -41c0 -38 23 -59 65 -59c64 0 149 89 149 255c0 164 -134 300 -361 300c-256 0 -449 -204 -449 -441c0 -208 152 -349 375 -349c74 0 135 14 205 45l16 -37c-73 -33 -141 -47 -222 -47zM460 191c57 0 109 57 109 127c0 41 -29 69 -70 69
c-58 0 -108 -57 -108 -126c0 -43 27 -70 69 -70z" />
    <glyph glyph-name="A" unicode="A" horiz-adv-x="775" 
d="M-74 0l487 705h190l109 -705h-204l-17 125h-270l-84 -125h-211zM319 276h156l-25 201z" />
    <glyph glyph-name="B" unicode="B" horiz-adv-x="714" 
d="M-12 0l188 700h291c191 0 253 -79 253 -168s-59 -155 -157 -179c62 -22 106 -68 106 -140c0 -121 -101 -213 -318 -213h-363zM219 156h147c67 0 108 30 108 74c0 36 -29 55 -86 55h-134zM291 421h131c69 0 106 27 106 71c0 32 -25 52 -84 52h-121z" />
    <glyph glyph-name="C" unicode="C" horiz-adv-x="727" 
d="M382 -14c-194 0 -331 119 -331 306c0 207 168 422 437 422c143 0 242 -69 284 -177l-168 -90c-28 57 -72 90 -141 90c-116 0 -209 -109 -209 -231c0 -89 59 -144 140 -144c61 0 105 26 150 71l131 -116c-68 -77 -160 -131 -293 -131z" />
    <glyph glyph-name="D" unicode="D" horiz-adv-x="761" 
d="M-12 0l188 700h226c136 0 221 -37 274 -90c52 -52 76 -120 76 -205c0 -105 -40 -201 -115 -276c-84 -84 -205 -129 -367 -129h-282zM229 172h64c81 0 154 25 200 71c37 37 60 91 60 146c0 43 -13 74 -35 96c-26 27 -69 43 -137 43h-56z" />
    <glyph glyph-name="E" unicode="E" horiz-adv-x="669" 
d="M-12 0l188 700h561l-45 -165h-368l-29 -106h334l-41 -153h-334l-30 -111h374l-44 -165h-566z" />
    <glyph glyph-name="F" unicode="F" horiz-adv-x="652" 
d="M-12 0l188 700h560l-46 -170h-365l-32 -119h330l-43 -161h-330l-67 -250h-195z" />
    <glyph glyph-name="G" unicode="G" horiz-adv-x="762" 
d="M387 -14c-167 0 -337 94 -337 309c0 223 182 419 449 419c140 0 242 -57 290 -119l-130 -126c-41 41 -98 72 -173 72c-141 0 -238 -109 -238 -238c0 -98 71 -149 157 -149c39 0 69 8 93 19l28 94h-135l37 142h321l-100 -353c-69 -40 -159 -70 -262 -70z" />
    <glyph glyph-name="H" unicode="H" horiz-adv-x="757" 
d="M-12 0l188 700h195l-71 -262h247l70 262h195l-188 -700h-195l72 266h-247l-71 -266h-195z" />
    <glyph glyph-name="I" unicode="I" horiz-adv-x="325" 
d="M-7 0l188 700h194l-188 -700h-194z" />
    <glyph glyph-name="J" unicode="J" horiz-adv-x="568" 
d="M197 -12c-98 0 -188 44 -238 123l132 115c36 -49 70 -68 112 -68c28 0 54 11 75 32c19 19 33 46 53 119l105 391h193l-114 -428c-27 -100 -56 -160 -104 -208c-50 -49 -121 -76 -214 -76z" />
    <glyph glyph-name="K" unicode="K" horiz-adv-x="722" 
d="M-12 0l188 700h195l-76 -280l289 280h247l-330 -307l156 -393h-210l-101 270l-121 -111l-42 -159h-195z" />
    <glyph glyph-name="L" unicode="L" horiz-adv-x="617" 
d="M-12 0l188 700h195l-142 -530h334l-46 -170h-529z" />
    <glyph glyph-name="M" unicode="M" horiz-adv-x="866" 
d="M-12 0l188 700h196l93 -271l238 271h218l-188 -700h-195l107 402l-251 -274h-4l-103 272l-107 -400h-192z" />
    <glyph glyph-name="N" unicode="N" horiz-adv-x="781" 
d="M-12 0l188 700h181l181 -389l105 389h193l-188 -700h-170l-189 403l-108 -403h-193z" />
    <glyph glyph-name="O" unicode="O" horiz-adv-x="813" 
d="M386 -13c-199 0 -334 136 -334 314c0 213 174 412 417 412c199 0 334 -136 334 -314c0 -213 -174 -412 -417 -412zM403 161c123 0 202 119 202 223c0 89 -54 155 -153 155c-122 0 -202 -119 -202 -223c0 -89 54 -155 153 -155z" />
    <glyph glyph-name="P" unicode="P" horiz-adv-x="672" 
d="M-12 0l188 700h229c114 0 189 -23 240 -74c37 -37 55 -85 55 -143c0 -174 -141 -282 -348 -282h-115l-54 -201h-195zM277 352h73c96 0 151 43 151 109c0 19 -7 36 -20 49c-19 19 -47 27 -83 27h-72z" />
    <glyph glyph-name="Q" unicode="Q" horiz-adv-x="813" 
d="M603 -45l-45 69c-52 -24 -110 -37 -172 -37c-199 0 -334 136 -334 314c0 213 174 412 417 412c199 0 334 -136 334 -314c0 -104 -43 -205 -115 -281l53 -72zM402 157c18 0 35 4 50 9l-77 104l139 92l60 -94c20 35 31 76 31 114c0 91 -54 157 -153 157
c-123 0 -203 -119 -203 -225c0 -91 54 -157 153 -157z" />
    <glyph glyph-name="R" unicode="R" horiz-adv-x="720" 
d="M-12 0l188 700h264c117 0 194 -26 241 -73c37 -37 54 -87 54 -143c0 -117 -67 -209 -210 -248l108 -236h-214l-93 212h-86l-57 -212h-195zM280 364h111c87 0 144 37 144 97c0 19 -6 34 -18 47c-16 16 -45 24 -86 24h-105z" />
    <glyph glyph-name="S" unicode="S" horiz-adv-x="645" 
d="M302 -12c-137 0 -250 47 -325 128l125 129c68 -63 139 -95 216 -95c46 0 79 20 79 52c0 27 -19 41 -117 79c-111 42 -182 90 -182 193c0 139 126 238 297 238c123 0 220 -40 287 -104l-120 -134c-53 46 -114 77 -185 77c-47 0 -76 -22 -76 -50s21 -38 117 -76
c108 -41 182 -90 182 -195c0 -144 -124 -242 -298 -242z" />
    <glyph glyph-name="T" unicode="T" horiz-adv-x="645" 
d="M151 0l143 530h-210l46 170h613l-45 -170h-210l-142 -530h-195z" />
    <glyph glyph-name="U" unicode="U" horiz-adv-x="760" 
d="M342 -13c-180 0 -283 91 -283 245c0 35 6 74 16 112l96 356h196l-99 -370c-6 -22 -10 -43 -10 -66c0 -63 39 -102 109 -102c37 0 70 13 94 37c26 25 44 60 59 116l104 385h196l-111 -414c-25 -92 -60 -160 -109 -209c-62 -62 -150 -90 -258 -90z" />
    <glyph glyph-name="V" unicode="V" horiz-adv-x="739" 
d="M202 -5l-93 705h212l39 -440l275 440h219l-471 -705h-181z" />
    <glyph glyph-name="W" unicode="W" horiz-adv-x="1102" 
d="M162 -5l-45 705h201l13 -405l242 407h168l27 -407l230 405h211l-423 -705h-174l-32 398l-245 -398h-173z" />
    <glyph glyph-name="X" unicode="X" horiz-adv-x="713" 
d="M-75 0l341 366l-145 334h213l77 -197l173 197h234l-324 -348l154 -352h-214l-84 216l-190 -216h-235z" />
    <glyph glyph-name="Y" unicode="Y" horiz-adv-x="677" 
d="M159 0l73 271l-141 429h209l69 -262l211 262h232l-391 -450l-67 -250h-195z" />
    <glyph glyph-name="Z" unicode="Z" horiz-adv-x="681" 
d="M-36 0l37 141l446 395h-328l45 164h595l-38 -141l-446 -395h341l-44 -164h-608z" />
    <glyph glyph-name="bracketleft" unicode="[" horiz-adv-x="468" 
d="M-26 -130l223 830h346l-35 -129h-176l-154 -572h176l-34 -129h-346z" />
    <glyph glyph-name="backslash" unicode="\" horiz-adv-x="535" 
d="M316 -128l-207 926h153l207 -926h-153z" />
    <glyph glyph-name="bracketright" unicode="]" horiz-adv-x="468" 
d="M-67 -130l35 129h176l153 572h-176l35 129h346l-223 -830h-346z" />
    <glyph glyph-name="asciicircum" unicode="^" 
d="M89 493l199 206h128l89 -206h-123l-50 97l-102 -97h-141z" />
    <glyph glyph-name="underscore" unicode="_" horiz-adv-x="600" 
d="M-117 -160l31 116h604l-31 -116h-604z" />
    <glyph glyph-name="grave" unicode="`" 
d="M333 587l-111 128l179 57l55 -185h-123z" />
    <glyph glyph-name="a" unicode="a" horiz-adv-x="597" 
d="M152 -11c-89 0 -151 57 -151 147c0 119 95 191 238 191c49 0 94 -8 137 -21l2 7c2 9 5 20 5 33c0 35 -27 58 -93 58c-51 0 -108 -12 -146 -27l-27 138c57 20 135 33 213 33c162 0 241 -64 241 -172c0 -25 -4 -51 -11 -78l-80 -298h-187l15 58c-46 -43 -93 -69 -156 -69z
M240 106c49 0 96 43 111 98l5 18c-21 7 -45 12 -71 12c-60 0 -99 -29 -99 -78c0 -31 22 -50 54 -50z" />
    <glyph glyph-name="b" unicode="b" horiz-adv-x="672" 
d="M353 -12c-81 0 -131 35 -164 86l-20 -74h-190l195 730h190l-66 -246c43 42 95 69 154 69c107 0 192 -82 192 -222c0 -194 -136 -343 -291 -343zM320 146c71 0 132 69 132 155c0 58 -37 95 -92 95c-73 0 -134 -72 -134 -154c0 -58 39 -96 94 -96z" />
    <glyph glyph-name="c" unicode="c" horiz-adv-x="563" 
d="M281 -13c-146 0 -253 91 -253 237c0 182 145 328 325 328c126 0 201 -65 230 -148l-149 -77c-18 42 -44 68 -93 68c-72 0 -130 -79 -130 -161c0 -55 36 -90 83 -90c40 0 69 17 102 50l116 -101c-55 -64 -123 -106 -231 -106z" />
    <glyph glyph-name="d" unicode="d" horiz-adv-x="672" 
d="M220 -12c-107 0 -192 82 -192 222c0 194 136 343 291 343c81 0 131 -35 164 -86l70 263h190l-195 -730h-190l16 57c-43 -41 -95 -69 -154 -69zM312 145c73 0 134 72 134 154c0 58 -39 96 -94 96c-71 0 -132 -69 -132 -155c0 -58 37 -95 92 -95z" />
    <glyph glyph-name="e" unicode="e" horiz-adv-x="601" 
d="M286 -13c-160 0 -258 94 -258 240c0 160 125 326 325 326c160 0 230 -107 230 -224c0 -37 -8 -76 -21 -111h-359c4 -54 36 -89 101 -89c39 0 74 13 115 43l88 -104c-55 -48 -127 -81 -221 -81zM216 315h193c3 9 5 19 5 29c0 37 -24 69 -74 69c-51 0 -101 -33 -124 -98z
" />
    <glyph glyph-name="f" unicode="f" horiz-adv-x="418" 
d="M13 0l105 388h-64l41 153h63l3 11c34 132 108 185 232 185c47 0 85 -6 121 -18l-35 -133c-20 7 -45 12 -64 12c-39 0 -59 -16 -68 -51l-3 -9h122l-40 -150h-118l-105 -388h-190z" />
    <glyph glyph-name="g" unicode="g" horiz-adv-x="668" 
d="M238 -162c-104 0 -215 30 -285 74l85 119c61 -37 131 -56 192 -56c50 0 85 13 112 40c20 20 34 48 45 87l3 12c-48 -43 -98 -66 -164 -66c-98 0 -193 66 -193 187c0 168 123 317 284 317c82 0 134 -40 164 -88l20 77h190l-115 -430c-26 -97 -52 -149 -96 -194
c-53 -54 -129 -79 -242 -79zM310 185c73 0 128 63 128 131c0 50 -35 86 -90 86c-73 0 -126 -65 -126 -134c0 -51 35 -83 88 -83z" />
    <glyph glyph-name="h" unicode="h" horiz-adv-x="632" 
d="M-21 0l195 730h190l-67 -251c37 39 91 74 155 74c98 0 157 -62 157 -162c0 -29 -7 -63 -16 -97l-78 -294h-190l76 283c4 14 6 32 6 44c0 36 -21 57 -60 57c-53 0 -84 -36 -101 -98l-77 -286h-190z" />
    <glyph glyph-name="i" unicode="i" horiz-adv-x="301" 
d="M-17 0l145 541h190l-145 -541h-190zM138 590l38 140h198l-38 -140h-198z" />
    <glyph glyph-name="j" unicode="j" horiz-adv-x="303" 
d="M-53 -163c-32 0 -54 2 -81 7l33 126c8 -2 15 -3 24 -3c39 0 59 21 74 78l133 496h190l-140 -520c-39 -143 -113 -184 -233 -184zM139 590l38 140h198l-38 -140h-198z" />
    <glyph glyph-name="k" unicode="k" horiz-adv-x="599" 
d="M-21 0l196 730h190l-96 -357l181 168h229l-249 -222l106 -319h-203l-58 192l-71 -63l-35 -129h-190z" />
    <glyph glyph-name="l" unicode="l" horiz-adv-x="301" 
d="M-17 0l196 730h190l-196 -730h-190z" />
    <glyph glyph-name="m" unicode="m" horiz-adv-x="968" 
d="M-21 0l145 541h190l-16 -60c37 38 87 72 151 72c74 0 121 -38 141 -94c51 58 117 94 196 94c103 0 160 -62 160 -161c0 -29 -7 -64 -16 -98l-79 -294h-189l75 283c4 14 7 32 7 44c0 36 -18 57 -58 57c-51 0 -82 -36 -99 -98l-77 -286h-190l76 283c4 14 7 32 7 44
c0 36 -19 57 -58 57c-51 0 -82 -36 -99 -98l-77 -286h-190z" />
    <glyph glyph-name="n" unicode="n" horiz-adv-x="630" 
d="M-21 0l145 541h190l-17 -62c37 39 91 74 155 74c98 0 157 -62 157 -162c0 -29 -7 -63 -16 -97l-78 -294h-190l76 283c4 14 6 32 6 44c0 36 -21 57 -60 57c-53 0 -84 -36 -101 -98l-77 -286h-190z" />
    <glyph glyph-name="o" unicode="o" horiz-adv-x="644" 
d="M295 -13c-165 0 -265 109 -265 252c0 163 137 314 318 314c166 0 266 -109 266 -251c0 -164 -137 -315 -319 -315zM306 145c75 0 126 79 126 150c0 61 -38 100 -94 100c-75 0 -126 -79 -126 -149c0 -62 38 -101 94 -101z" />
    <glyph glyph-name="p" unicode="p" horiz-adv-x="672" 
d="M-64 -160l188 701h190l-16 -57c43 42 95 69 154 69c107 0 192 -82 192 -222c0 -194 -136 -343 -291 -343c-81 0 -131 35 -164 86l-63 -234h-190zM320 146c71 0 132 69 132 155c0 58 -37 95 -92 95c-73 0 -134 -72 -134 -154c0 -58 39 -96 94 -96z" />
    <glyph glyph-name="q" unicode="q" horiz-adv-x="672" 
d="M310 -180l64 237c-43 -41 -95 -69 -154 -69c-107 0 -192 82 -192 222c0 194 136 343 291 343c81 0 131 -35 164 -86l20 74h190l-193 -721h-190zM312 145c73 0 134 72 134 154c0 58 -39 96 -94 96c-71 0 -132 -69 -132 -155c0 -58 37 -95 92 -95z" />
    <glyph glyph-name="r" unicode="r" horiz-adv-x="430" 
d="M-21 0l145 541h190l-29 -109c52 77 115 124 203 118l-54 -200h-16c-104 0 -171 -58 -205 -187l-44 -163h-190z" />
    <glyph glyph-name="s" unicode="s" horiz-adv-x="511" 
d="M230 -13c-103 0 -202 36 -267 94l94 111c52 -47 125 -73 180 -73c32 0 48 13 48 33c0 19 -21 30 -74 51c-86 34 -152 72 -152 158c0 108 87 192 236 192c98 0 185 -36 234 -76l-91 -114c-47 35 -104 58 -153 58c-31 0 -47 -12 -47 -31c0 -18 19 -29 75 -51
c78 -31 151 -68 151 -158c0 -104 -78 -194 -234 -194z" />
    <glyph glyph-name="t" unicode="t" horiz-adv-x="430" 
d="M214 -11c-110 0 -164 48 -164 128c0 22 3 45 10 71l54 200h-64l41 153h64l37 137h190l-37 -137h126l-41 -153h-126l-46 -170c-3 -13 -5 -25 -5 -33c0 -22 13 -34 43 -34c21 0 44 5 72 15l-42 -158c-34 -12 -73 -19 -112 -19z" />
    <glyph glyph-name="u" unicode="u" horiz-adv-x="632" 
d="M183 -12c-98 0 -157 63 -157 162c0 29 6 63 15 97l79 294h190l-76 -283c-4 -14 -7 -32 -7 -44c0 -36 21 -57 61 -57c53 0 84 36 100 98l77 286h190l-144 -541h-190l16 62c-37 -39 -90 -74 -154 -74z" />
    <glyph glyph-name="v" unicode="v" horiz-adv-x="621" 
d="M151 -4l-70 545h195l20 -315l187 315h202l-361 -545h-173z" />
    <glyph glyph-name="w" unicode="w" horiz-adv-x="859" 
d="M103 -4l-19 545h183l-2 -272l157 274h156l11 -276l146 274h185l-313 -545h-162l-13 281l-165 -281h-164z" />
    <glyph glyph-name="x" unicode="x" horiz-adv-x="589" 
d="M-62 0l259 281l-112 260h197l47 -131l109 131h214l-252 -274l114 -267h-197l-49 137l-116 -137h-214z" />
    <glyph glyph-name="y" unicode="y" horiz-adv-x="622" 
d="M94 -163c-63 0 -107 15 -144 39l85 139c25 -18 51 -27 75 -27c18 0 31 4 47 20l-70 533h193l22 -325l182 325h200l-335 -538c-77 -123 -149 -166 -255 -166z" />
    <glyph glyph-name="z" unicode="z" horiz-adv-x="558" 
d="M-40 0l34 125l318 265h-238l40 151h486l-33 -125l-319 -265h249l-40 -151h-497z" />
    <glyph glyph-name="braceleft" unicode="{" horiz-adv-x="497" 
d="M322 -141c-165 18 -213 72 -213 146c0 24 6 51 16 82c9 29 16 57 16 76c0 38 -14 61 -88 61h-26l33 126h27c107 0 132 38 149 153c19 136 80 211 310 212l12 -112c-131 -10 -153 -62 -164 -151c-13 -110 -46 -163 -167 -177c61 -12 86 -49 86 -95c0 -24 -7 -49 -14 -71
c-8 -23 -15 -47 -15 -68c0 -40 18 -61 91 -79z" />
    <glyph glyph-name="bar" unicode="|" horiz-adv-x="356" 
d="M122 -128v926h145v-926h-145z" />
    <glyph glyph-name="braceright" unicode="}" horiz-adv-x="497" 
d="M-40 -141l-12 112c131 10 152 62 164 151c14 110 46 163 167 177c-61 12 -86 49 -86 95c0 24 7 49 14 71c8 23 15 47 15 68c0 40 -18 61 -91 79l53 103c165 -18 213 -72 213 -146c0 -24 -6 -51 -16 -82c-9 -29 -16 -57 -16 -76c0 -38 14 -61 88 -61h26l-33 -126h-27
c-107 0 -133 -38 -149 -153c-19 -136 -80 -211 -310 -212z" />
    <glyph glyph-name="asciitilde" unicode="~" horiz-adv-x="505" 
d="M129 216l-88 41c38 93 97 144 160 144c35 0 61 -14 84 -31c23 -16 37 -24 52 -24c28 0 47 23 66 57l89 -41c-39 -93 -98 -144 -161 -144c-35 0 -61 14 -84 31c-23 16 -37 24 -52 24c-28 0 -47 -23 -66 -57z" />
    <glyph glyph-name="nbspace" horiz-adv-x="277" 
 />
    <glyph glyph-name="uni00A0" unicode="&#xa0;" horiz-adv-x="277" 
 />
    <glyph glyph-name="exclamdown" unicode="&#xa1;" horiz-adv-x="322" 
d="M-20 0l24 85l162 387h99l-45 -387l-23 -85h-217zM132 530l46 170h197l-45 -170h-198z" />
    <glyph glyph-name="cent" unicode="&#xa2;" horiz-adv-x="585" 
d="M258 -6h-110l42 107c-85 39 -136 116 -136 218c0 179 139 321 326 321h21l26 66h110l-35 -89c60 -27 98 -73 117 -127l-137 -71c-9 24 -23 43 -42 56l-98 -254c39 3 72 22 103 53l108 -96c-54 -63 -129 -103 -228 -103c-12 0 -23 0 -35 2zM253 247l97 247
c-79 -7 -130 -90 -130 -167c0 -36 13 -64 33 -80z" />
    <glyph glyph-name="sterling" unicode="&#xa3;" horiz-adv-x="631" 
d="M-22 0l31 116l82 28l33 121h-75l36 135h75l15 57c20 77 49 135 92 178c50 50 117 77 206 77c99 0 176 -45 215 -104l-131 -118c-24 32 -50 51 -92 51c-29 0 -48 -11 -64 -27c-16 -15 -28 -40 -36 -69l-13 -45h209l-36 -135h-208l-30 -111h285l-41 -154h-553z" />
    <glyph glyph-name="currency" unicode="&#xa4;" horiz-adv-x="677" 
d="M385 -14c-152 0 -261 92 -276 237h-90l28 104h67c3 17 6 34 11 50h-65l28 104h65c57 134 171 233 336 233c129 0 206 -60 246 -147l-142 -95c-27 50 -60 75 -119 75c-54 0 -94 -25 -123 -68h169l-27 -101h-180c-5 -17 -9 -34 -12 -52h178l-27 -101h-154
c11 -49 48 -72 95 -72c49 0 85 18 126 59l111 -119c-62 -66 -142 -107 -245 -107z" />
    <glyph glyph-name="yen" unicode="&#xa5;" horiz-adv-x="718" 
d="M190 0l25 93h-184l32 120h184l13 50h-184l32 120h140l-122 317h205l73 -230l188 230h229l-291 -317h138l-32 -120h-184l-13 -50h183l-32 -120h-184l-25 -93h-191z" />
    <glyph glyph-name="brokenbar" unicode="&#xa6;" horiz-adv-x="222" 
d="M33 -89v250h157v-250h-157zM33 411v250h157v-250h-157z" />
    <glyph glyph-name="section" unicode="&#xa7;" horiz-adv-x="625" 
d="M280 -12c-107 0 -203 37 -257 94l99 105c41 -38 107 -69 162 -69c34 0 53 11 53 30s-23 28 -98 51c-99 29 -177 65 -177 140c0 60 36 109 126 130c-20 21 -33 47 -33 82c0 89 88 163 233 163c107 0 204 -38 257 -94l-98 -105c-41 38 -108 68 -163 68
c-33 0 -52 -11 -52 -29c0 -19 22 -29 97 -51c99 -30 177 -65 177 -141c0 -60 -35 -108 -125 -130c19 -21 32 -47 32 -81c0 -90 -87 -163 -233 -163zM404 292c28 0 51 14 51 36c0 23 -26 36 -87 56c-50 17 -79 26 -103 26c-29 0 -52 -14 -52 -37c0 -22 26 -35 87 -56
c50 -17 79 -25 104 -25z" />
    <glyph glyph-name="dieresis" unicode="&#xa8;" 
d="M142 587l39 143h166l-39 -143h-166zM361 587l39 143h166l-39 -143h-166z" />
    <glyph glyph-name="copyright" unicode="&#xa9;" horiz-adv-x="830" 
d="M437 -14c-203 0 -361 165 -361 364c0 197 160 364 363 364s361 -165 361 -364c0 -197 -160 -364 -363 -364zM437 26c183 0 321 147 321 326c0 177 -137 322 -319 322c-183 0 -321 -147 -321 -326c0 -177 137 -322 319 -322zM443 156c-117 0 -202 86 -202 199
c0 109 84 199 204 199c80 0 128 -32 162 -79l-81 -64c-21 27 -47 45 -83 45c-53 0 -91 -45 -91 -102c0 -56 38 -100 91 -100c40 0 63 19 86 46l81 -58c-36 -50 -84 -86 -167 -86z" />
    <glyph glyph-name="ordfeminine" unicode="&#xaa;" horiz-adv-x="395" 
d="M45 270l21 77h288l-21 -77h-288zM182 398c-49 0 -83 31 -83 80c0 66 53 106 131 106c27 0 49 -4 75 -13l2 6c2 5 3 12 3 16c0 21 -16 33 -51 33c-26 0 -58 -6 -79 -14l-15 75c32 12 75 19 116 19c89 0 132 -36 132 -95c0 -14 -2 -28 -6 -43l-44 -164h-104l9 32
c-25 -24 -51 -38 -86 -38zM231 462c26 0 53 23 60 53l3 11c-13 4 -26 7 -40 7c-31 0 -53 -17 -53 -43c0 -16 12 -28 30 -28z" />
    <glyph glyph-name="guillemotleft" unicode="&#xab;" horiz-adv-x="630" 
d="M138 28l-108 224l13 49l215 212l105 -96l-166 -161l82 -165zM401 25l-113 235l2 8l241 237l105 -96l-171 -166l77 -155z" />
    <glyph glyph-name="logicalnot" unicode="&#xac;" horiz-adv-x="640" 
d="M382 231l46 172h-317l45 167h491l-91 -339h-174z" />
    <glyph glyph-name="uni00AD" unicode="&#xad;" horiz-adv-x="417" 
d="M33 229l45 167h328l-44 -167h-329z" />
    <glyph glyph-name="registered" unicode="&#xae;" horiz-adv-x="830" 
d="M437 -14c-203 0 -361 165 -361 364c0 197 160 364 363 364s361 -165 361 -364c0 -197 -160 -364 -363 -364zM437 26c183 0 321 147 321 326c0 177 -137 322 -319 322c-183 0 -321 -147 -321 -326c0 -177 137 -322 319 -322zM278 168v385h180c60 0 102 -16 129 -43
c22 -22 34 -51 34 -90c0 -59 -32 -98 -80 -118l92 -134h-123l-80 117h-44v-117h-108zM386 368h69c37 0 58 17 58 47c0 31 -23 46 -58 46h-69v-93z" />
    <glyph glyph-name="macron" unicode="&#xaf;" 
d="M149 592l30 116h376l-31 -116h-375z" />
    <glyph glyph-name="degree" unicode="&#xb0;" horiz-adv-x="452" 
d="M260 346c-105 0 -170 71 -170 162c0 110 87 201 199 201c106 0 170 -72 170 -162c0 -110 -87 -201 -199 -201zM265 440c55 0 89 54 89 102c0 43 -28 73 -69 73c-56 0 -89 -54 -89 -102c0 -43 28 -73 69 -73z" />
    <glyph glyph-name="plusminus" unicode="&#xb1;" horiz-adv-x="640" 
d="M-8 -16l42 157h491l-42 -157h-491zM209 206l35 132h-169l45 168h169l36 132h174l-36 -132h169l-45 -168h-169l-35 -132h-174z" />
    <glyph glyph-name="twosuperior" unicode="&#xb2;" 
d="M0 0v700h500v-700h-500zM81 49h340l-171 255zM50 95l170 254l-170 256v-510zM451 95v510l-172 -256zM250 395l171 255h-340z" />
    <glyph glyph-name="threesuperior" unicode="&#xb3;" 
d="M0 0v700h500v-700h-500zM81 49h340l-171 255zM50 95l170 254l-170 256v-510zM451 95v510l-172 -256zM250 395l171 255h-340z" />
    <glyph glyph-name="acute" unicode="&#xb4;" 
d="M200 587l155 185l173 -57l-181 -128h-147z" />
    <glyph glyph-name="mu" unicode="&#xb5;" horiz-adv-x="634" 
d="M-64 -160l188 701h190l-79 -293c-16 -59 7 -91 53 -91c45 0 87 32 103 91l79 293h190l-145 -541h-190l19 74c-40 -39 -92 -76 -153 -76c-7 0 -15 1 -22 2l-43 -160h-190z" />
    <glyph glyph-name="paragraph" unicode="&#xb6;" horiz-adv-x="597" 
d="M270 0l56 212c-175 9 -257 82 -257 209c0 162 120 279 353 279h230l-188 -700h-194z" />
    <glyph glyph-name="periodcentered" unicode="&#xb7;" horiz-adv-x="302" 
d="M35 215l52 195h198l-53 -195h-197z" />
    <glyph glyph-name="cedilla" unicode="&#xb8;" 
d="M160 -173l-139 64l125 124h129z" />
    <glyph glyph-name="onesuperior" unicode="&#xb9;" 
d="M0 0v700h500v-700h-500zM81 49h340l-171 255zM50 95l170 254l-170 256v-510zM451 95v510l-172 -256zM250 395l171 255h-340z" />
    <glyph glyph-name="ordmasculine" unicode="&#xba;" horiz-adv-x="402" 
d="M48 270l21 77h283l-20 -77h-284zM249 395c-91 0 -147 60 -147 140c0 88 75 171 176 171c90 0 146 -60 146 -140c0 -88 -75 -171 -175 -171zM254 482c41 0 69 41 69 81c0 33 -20 56 -51 56c-41 0 -69 -41 -69 -82c0 -32 20 -55 51 -55z" />
    <glyph glyph-name="guillemotright" unicode="&#xbb;" horiz-adv-x="630" 
d="M99 37l-105 95l171 166l-77 155l142 63l112 -234l-2 -8zM372 28l-105 96l166 161l-82 165l142 63l108 -224l-14 -49z" />
    <glyph glyph-name="onequarter" unicode="&#xbc;" 
d="M0 0v700h500v-700h-500zM81 49h340l-171 255zM50 95l170 254l-170 256v-510zM451 95v510l-172 -256zM250 395l171 255h-340z" />
    <glyph glyph-name="onehalf" unicode="&#xbd;" 
d="M0 0v700h500v-700h-500zM81 49h340l-171 255zM50 95l170 254l-170 256v-510zM451 95v510l-172 -256zM250 395l171 255h-340z" />
    <glyph glyph-name="threequarters" unicode="&#xbe;" 
d="M0 0v700h500v-700h-500zM81 49h340l-171 255zM50 95l170 254l-170 256v-510zM451 95v510l-172 -256zM250 395l171 255h-340z" />
    <glyph glyph-name="questiondown" unicode="&#xbf;" horiz-adv-x="540" 
d="M240 -10c-141 0 -227 81 -227 182c0 113 79 198 252 226l30 74h120l-17 -168l-10 -8c-119 -10 -181 -39 -181 -87c0 -30 21 -50 66 -50c42 0 88 17 135 54l78 -135c-65 -57 -154 -88 -246 -88zM273 530l46 170h198l-46 -170h-198z" />
    <glyph glyph-name="Agrave" unicode="&#xc0;" horiz-adv-x="775" 
d="M-74 0l487 705h190l109 -705h-204l-17 125h-270l-84 -125h-211zM319 276h156l-25 201zM458 747l-111 128l179 57l55 -185h-123z" />
    <glyph glyph-name="Aacute" unicode="&#xc1;" horiz-adv-x="775" 
d="M-74 0l487 705h190l109 -705h-204l-17 125h-270l-84 -125h-211zM319 276h156l-25 201zM425 747l155 185l173 -57l-181 -128h-147z" />
    <glyph glyph-name="Acircumflex" unicode="&#xc2;" horiz-adv-x="775" 
d="M-74 0l487 705h190l109 -705h-204l-17 125h-270l-84 -125h-211zM319 276h156l-25 201zM299 747l172 165h154l84 -165h-113l-68 61l-101 -61h-128z" />
    <glyph glyph-name="Atilde" unicode="&#xc3;" horiz-adv-x="775" 
d="M-74 0l487 705h190l109 -705h-204l-17 125h-270l-84 -125h-211zM319 276h156l-25 201zM390 744l-89 40c38 94 98 144 161 144c34 0 61 -14 84 -30c22 -16 37 -25 51 -25c28 0 47 23 66 57l89 -40c-39 -94 -98 -144 -161 -144c-34 0 -61 14 -84 30s-37 25 -52 25
c-27 0 -46 -23 -65 -57z" />
    <glyph glyph-name="Adieresis" unicode="&#xc4;" horiz-adv-x="775" 
d="M-74 0l487 705h190l109 -705h-204l-17 125h-270l-84 -125h-211zM319 276h156l-25 201zM319 747l39 143h166l-39 -143h-166zM538 747l39 143h166l-39 -143h-166z" />
    <glyph glyph-name="Aring" unicode="&#xc5;" horiz-adv-x="775" 
d="M-74 0c0 0 476 689 476 688c-12 18 -19 39 -19 61c0 79 65 145 147 145c74 0 121 -49 121 -112c0 -39 -17 -75 -44 -100l105 -682h-204l-17 125h-270l-84 -125h-211zM319 276h156l-25 201zM506 698c44 0 73 41 73 83c0 29 -19 53 -52 53c-43 0 -72 -42 -72 -83
c0 -30 19 -53 51 -53z" />
    <glyph glyph-name="AE" unicode="&#xc6;" horiz-adv-x="1080" 
d="M-76 0l550 700h673l-44 -165h-349l-28 -106h313l-41 -153h-313l-31 -111h354l-44 -165h-543l34 125h-223l-97 -125h-211zM348 276h148l71 268h-13z" />
    <glyph glyph-name="Ccedilla" unicode="&#xc7;" horiz-adv-x="727" 
d="M291 -173l-139 64l113 112c-130 39 -214 143 -214 289c0 206 169 421 432 421c145 0 248 -70 289 -177l-167 -90c-28 57 -72 90 -142 90c-116 0 -209 -109 -209 -230c0 -88 59 -143 140 -143c61 0 105 26 150 71l131 -116c-67 -75 -156 -129 -285 -131z" />
    <glyph glyph-name="Egrave" unicode="&#xc8;" horiz-adv-x="669" 
d="M-12 0l188 700h561l-45 -165h-368l-29 -106h334l-41 -153h-334l-30 -111h374l-44 -165h-566zM428 747l-111 128l179 57l55 -185h-123z" />
    <glyph glyph-name="Eacute" unicode="&#xc9;" horiz-adv-x="669" 
d="M-12 0l188 700h561l-45 -165h-368l-29 -106h334l-41 -153h-334l-30 -111h374l-44 -165h-566zM370 747l155 185l173 -57l-181 -128h-147z" />
    <glyph glyph-name="Ecircumflex" unicode="&#xca;" horiz-adv-x="669" 
d="M-12 0l188 700h561l-45 -165h-368l-29 -106h334l-41 -153h-334l-30 -111h374l-44 -165h-566zM260 747l172 165h154l84 -165h-113l-68 61l-101 -61h-128z" />
    <glyph glyph-name="Edieresis" unicode="&#xcb;" horiz-adv-x="669" 
d="M-12 0l188 700h561l-45 -165h-368l-29 -106h334l-41 -153h-334l-30 -111h374l-44 -165h-566zM273 747l39 143h166l-39 -143h-166zM492 747l39 143h166l-39 -143h-166z" />
    <glyph glyph-name="Igrave" unicode="&#xcc;" horiz-adv-x="325" 
d="M-7 0l188 700h194l-188 -700h-194zM240 747l-111 128l179 57l55 -185h-123z" />
    <glyph glyph-name="Iacute" unicode="&#xcd;" horiz-adv-x="325" 
d="M-7 0l188 700h194l-188 -700h-194zM199 747l155 185l173 -57l-181 -128h-147z" />
    <glyph glyph-name="Icircumflex" unicode="&#xce;" horiz-adv-x="325" 
d="M-7 0l188 700h194l-188 -700h-194zM76 747l172 165h154l84 -165h-113l-68 61l-101 -61h-128z" />
    <glyph glyph-name="Idieresis" unicode="&#xcf;" horiz-adv-x="325" 
d="M-7 0l188 700h194l-188 -700h-194zM97 747l39 143h166l-39 -143h-166zM316 747l39 143h166l-39 -143h-166z" />
    <glyph glyph-name="Eth" unicode="&#xd0;" horiz-adv-x="800" 
d="M34 0l73 276h-84l42 153h84l73 271h221c261 0 350 -133 350 -295c0 -223 -176 -405 -482 -405h-277zM267 166h66c155 0 268 92 268 224c0 90 -53 143 -177 143h-58l-28 -104h114l-41 -153h-114z" />
    <glyph glyph-name="Ntilde" unicode="&#xd1;" horiz-adv-x="781" 
d="M-12 0l188 700h181l181 -389l105 389h193l-188 -700h-170l-189 403l-108 -403h-193zM388 744l-89 40c38 94 98 144 161 144c34 0 61 -14 84 -30c22 -16 37 -25 51 -25c28 0 47 23 66 57l89 -40c-39 -94 -98 -144 -161 -144c-34 0 -61 14 -84 30s-37 25 -52 25
c-27 0 -46 -23 -65 -57z" />
    <glyph glyph-name="Ograve" unicode="&#xd2;" horiz-adv-x="813" 
d="M386 -13c-199 0 -334 136 -334 314c0 213 174 412 417 412c199 0 334 -136 334 -314c0 -213 -174 -412 -417 -412zM403 161c123 0 202 119 202 223c0 89 -54 155 -153 155c-122 0 -202 -119 -202 -223c0 -89 54 -155 153 -155zM455 747l-111 128l179 57l55 -185h-123z
" />
    <glyph glyph-name="Oacute" unicode="&#xd3;" horiz-adv-x="813" 
d="M386 -13c-199 0 -334 136 -334 314c0 213 174 412 417 412c199 0 334 -136 334 -314c0 -213 -174 -412 -417 -412zM403 161c123 0 202 119 202 223c0 89 -54 155 -153 155c-122 0 -202 -119 -202 -223c0 -89 54 -155 153 -155zM394 747l155 185l173 -57l-181 -128h-147z
" />
    <glyph glyph-name="Ocircumflex" unicode="&#xd4;" horiz-adv-x="813" 
d="M386 -13c-199 0 -334 136 -334 314c0 213 174 412 417 412c199 0 334 -136 334 -314c0 -213 -174 -412 -417 -412zM403 161c123 0 202 119 202 223c0 89 -54 155 -153 155c-122 0 -202 -119 -202 -223c0 -89 54 -155 153 -155zM296 747l172 165h154l84 -165h-113l-68 61
l-101 -61h-128z" />
    <glyph glyph-name="Otilde" unicode="&#xd5;" horiz-adv-x="813" 
d="M386 -13c-199 0 -334 136 -334 314c0 213 174 412 417 412c199 0 334 -136 334 -314c0 -213 -174 -412 -417 -412zM403 161c123 0 202 119 202 223c0 89 -54 155 -153 155c-122 0 -202 -119 -202 -223c0 -89 54 -155 153 -155zM390 744l-89 40c38 94 98 144 161 144
c34 0 61 -14 84 -30c22 -16 37 -25 51 -25c28 0 47 23 66 57l89 -40c-39 -94 -98 -144 -161 -144c-34 0 -61 14 -84 30s-37 25 -52 25c-27 0 -46 -23 -65 -57z" />
    <glyph glyph-name="Odieresis" unicode="&#xd6;" horiz-adv-x="813" 
d="M386 -13c-199 0 -334 136 -334 314c0 213 174 412 417 412c199 0 334 -136 334 -314c0 -213 -174 -412 -417 -412zM403 161c123 0 202 119 202 223c0 89 -54 155 -153 155c-122 0 -202 -119 -202 -223c0 -89 54 -155 153 -155zM318 747l39 143h166l-39 -143h-166z
M537 747l39 143h166l-39 -143h-166z" />
    <glyph glyph-name="multiply" unicode="&#xd7;" horiz-adv-x="640" 
d="M161 6l-108 109l158 158l-158 158l108 109l158 -159l159 159l108 -109l-158 -158l158 -158l-108 -109l-159 158z" />
    <glyph glyph-name="Oslash" unicode="&#xd8;" horiz-adv-x="813" 
d="M386 -13c-84 0 -157 24 -212 66l-63 -58h-147l141 128c-34 50 -53 111 -53 178c0 213 174 412 417 412c87 0 162 -26 219 -70l68 62h147l-149 -135c32 -48 49 -107 49 -171c0 -213 -174 -412 -417 -412zM403 155c125 0 208 123 208 230c0 19 -3 37 -8 53l-287 -262
c24 -13 53 -21 87 -21zM255 253l292 265c-25 18 -57 27 -95 27c-125 0 -207 -123 -207 -230c0 -22 3 -43 10 -62z" />
    <glyph glyph-name="Ugrave" unicode="&#xd9;" horiz-adv-x="760" 
d="M342 -13c-180 0 -283 91 -283 245c0 35 6 74 16 112l96 356h196l-99 -370c-6 -22 -10 -43 -10 -66c0 -63 39 -102 109 -102c37 0 70 13 94 37c26 25 44 60 59 116l104 385h196l-111 -414c-25 -92 -60 -160 -109 -209c-62 -62 -150 -90 -258 -90zM453 745l-111 128l179 57
l55 -185h-123z" />
    <glyph glyph-name="Uacute" unicode="&#xda;" horiz-adv-x="760" 
d="M342 -13c-180 0 -283 91 -283 245c0 35 6 74 16 112l96 356h196l-99 -370c-6 -22 -10 -43 -10 -66c0 -63 39 -102 109 -102c37 0 70 13 94 37c26 25 44 60 59 116l104 385h196l-111 -414c-25 -92 -60 -160 -109 -209c-62 -62 -150 -90 -258 -90zM406 745l155 185l173 -57
l-181 -128h-147z" />
    <glyph glyph-name="Ucircumflex" unicode="&#xdb;" horiz-adv-x="760" 
d="M342 -13c-180 0 -283 91 -283 245c0 35 6 74 16 112l96 356h196l-99 -370c-6 -22 -10 -43 -10 -66c0 -63 39 -102 109 -102c37 0 70 13 94 37c26 25 44 60 59 116l104 385h196l-111 -414c-25 -92 -60 -160 -109 -209c-62 -62 -150 -90 -258 -90zM294 747l172 165h154
l84 -165h-113l-68 61l-101 -61h-128z" />
    <glyph glyph-name="Udieresis" unicode="&#xdc;" horiz-adv-x="760" 
d="M342 -13c-180 0 -283 91 -283 245c0 35 6 74 16 112l96 356h196l-99 -370c-6 -22 -10 -43 -10 -66c0 -63 39 -102 109 -102c37 0 70 13 94 37c26 25 44 60 59 116l104 385h196l-111 -414c-25 -92 -60 -160 -109 -209c-62 -62 -150 -90 -258 -90zM314 747l39 143h166
l-39 -143h-166zM533 747l39 143h166l-39 -143h-166z" />
    <glyph glyph-name="Yacute" unicode="&#xdd;" horiz-adv-x="677" 
d="M159 0l73 271l-141 429h209l69 -262l211 262h232l-391 -450l-67 -250h-195zM357 747l155 185l173 -57l-181 -128h-147z" />
    <glyph glyph-name="Thorn" unicode="&#xde;" horiz-adv-x="682" 
d="M-12 0l188 700h195l-26 -100h37c113 0 187 -22 238 -73c36 -37 54 -84 54 -141c0 -173 -140 -280 -344 -280h-119l-28 -106h-195zM253 260h73c95 0 150 43 150 108c0 19 -7 37 -20 50c-18 18 -47 26 -83 26h-71z" />
    <glyph glyph-name="germandbls" unicode="&#xdf;" horiz-adv-x="639" 
d="M235 -3l36 138c101 0 138 44 138 92c0 35 -26 65 -94 71l27 101c86 18 121 62 121 115c0 43 -29 67 -64 67c-50 0 -83 -40 -102 -110l-126 -471h-190l129 479c22 83 52 141 94 184c49 49 115 75 202 75c143 0 234 -80 234 -196c0 -97 -54 -169 -157 -199
c63 -23 106 -69 106 -134c0 -123 -110 -226 -354 -212z" />
    <glyph glyph-name="agrave" unicode="&#xe0;" horiz-adv-x="597" 
d="M152 -11c-89 0 -151 57 -151 147c0 119 95 191 238 191c49 0 94 -8 137 -21l2 7c2 9 5 20 5 33c0 35 -27 58 -93 58c-51 0 -108 -12 -146 -27l-27 138c57 20 135 33 213 33c162 0 241 -64 241 -172c0 -25 -4 -51 -11 -78l-80 -298h-187l15 58c-46 -43 -93 -69 -156 -69z
M240 106c49 0 96 43 111 98l5 18c-21 7 -45 12 -71 12c-60 0 -99 -29 -99 -78c0 -31 22 -50 54 -50zM334 587l-111 128l179 57l55 -185h-123z" />
    <glyph glyph-name="aacute" unicode="&#xe1;" horiz-adv-x="597" 
d="M152 -11c-89 0 -151 57 -151 147c0 119 95 191 238 191c49 0 94 -8 137 -21l2 7c2 9 5 20 5 33c0 35 -27 58 -93 58c-51 0 -108 -12 -146 -27l-27 138c57 20 135 33 213 33c162 0 241 -64 241 -172c0 -25 -4 -51 -11 -78l-80 -298h-187l15 58c-46 -43 -93 -69 -156 -69z
M240 106c49 0 96 43 111 98l5 18c-21 7 -45 12 -71 12c-60 0 -99 -29 -99 -78c0 -31 22 -50 54 -50zM279 587l155 185l173 -57l-181 -128h-147z" />
    <glyph glyph-name="acircumflex" unicode="&#xe2;" horiz-adv-x="597" 
d="M152 -11c-89 0 -151 57 -151 147c0 119 95 191 238 191c49 0 94 -8 137 -21l2 7c2 9 5 20 5 33c0 35 -27 58 -93 58c-51 0 -108 -12 -146 -27l-27 138c57 20 135 33 213 33c162 0 241 -64 241 -172c0 -25 -4 -51 -11 -78l-80 -298h-187l15 58c-46 -43 -93 -69 -156 -69z
M240 106c49 0 96 43 111 98l5 18c-21 7 -45 12 -71 12c-60 0 -99 -29 -99 -78c0 -31 22 -50 54 -50zM176 587l172 165h154l84 -165h-113l-68 61l-101 -61h-128z" />
    <glyph glyph-name="atilde" unicode="&#xe3;" horiz-adv-x="597" 
d="M152 -11c-89 0 -151 57 -151 147c0 119 95 191 238 191c49 0 94 -8 137 -21l2 7c2 9 5 20 5 33c0 35 -27 58 -93 58c-51 0 -108 -12 -146 -27l-27 138c57 20 135 33 213 33c162 0 241 -64 241 -172c0 -25 -4 -51 -11 -78l-80 -298h-187l15 58c-46 -43 -93 -69 -156 -69z
M240 106c49 0 96 43 111 98l5 18c-21 7 -45 12 -71 12c-60 0 -99 -29 -99 -78c0 -31 22 -50 54 -50zM257 584l-89 40c38 94 98 144 161 144c34 0 61 -14 84 -30c22 -16 37 -25 51 -25c28 0 47 23 66 57l89 -40c-39 -94 -98 -144 -161 -144c-34 0 -61 14 -84 30
s-37 25 -52 25c-27 0 -46 -23 -65 -57z" />
    <glyph glyph-name="adieresis" unicode="&#xe4;" horiz-adv-x="597" 
d="M152 -11c-89 0 -151 57 -151 147c0 119 95 191 238 191c49 0 94 -8 137 -21l2 7c2 9 5 20 5 33c0 35 -27 58 -93 58c-51 0 -108 -12 -146 -27l-27 138c57 20 135 33 213 33c162 0 241 -64 241 -172c0 -25 -4 -51 -11 -78l-80 -298h-187l15 58c-46 -43 -93 -69 -156 -69z
M240 106c49 0 96 43 111 98l5 18c-21 7 -45 12 -71 12c-60 0 -99 -29 -99 -78c0 -31 22 -50 54 -50zM190 588l39 143h166l-39 -143h-166zM409 588l39 143h166l-39 -143h-166z" />
    <glyph glyph-name="aring" unicode="&#xe5;" horiz-adv-x="597" 
d="M152 -11c-89 0 -151 57 -151 147c0 119 95 191 238 191c49 0 94 -8 137 -21l2 7c2 9 5 20 5 33c0 35 -27 58 -93 58c-51 0 -108 -12 -146 -27l-27 138c57 20 135 33 213 33c162 0 241 -64 241 -172c0 -25 -4 -51 -11 -78l-80 -298h-187l15 58c-46 -43 -93 -69 -156 -69z
M240 106c49 0 96 43 111 98l5 18c-21 7 -45 12 -71 12c-60 0 -99 -29 -99 -78c0 -31 22 -50 54 -50zM402 592c-74 0 -120 49 -120 112c0 79 65 145 147 145c74 0 120 -49 120 -112c0 -78 -65 -145 -147 -145zM405 653c44 0 73 41 73 83c0 29 -20 53 -52 53
c-44 0 -73 -42 -73 -83c0 -30 20 -53 52 -53z" />
    <glyph glyph-name="ae" unicode="&#xe6;" horiz-adv-x="931" 
d="M174 -11c-107 0 -173 56 -173 147c0 119 95 191 238 191c49 0 94 -8 137 -21l2 7c2 9 5 20 5 33c0 35 -27 58 -93 58c-51 0 -108 -12 -146 -27l-27 138c57 20 135 33 213 33c85 0 143 -23 176 -64c51 42 115 69 185 69c152 0 222 -107 222 -224c0 -37 -8 -76 -21 -111
h-359c4 -54 36 -89 101 -89c39 0 74 13 115 43l88 -104c-54 -48 -131 -81 -224 -81c-91 0 -163 36 -206 98c-68 -67 -143 -96 -233 -96zM250 105c38 0 86 19 123 54c-5 18 -8 39 -9 59c-28 12 -54 16 -79 16c-60 0 -99 -29 -99 -78c0 -30 23 -51 64 -51zM546 315h193
c3 9 5 19 5 29c0 37 -24 69 -74 69c-51 0 -101 -33 -124 -98z" />
    <glyph glyph-name="ccedilla" unicode="&#xe7;" horiz-adv-x="563" 
d="M195 -173l-139 64l116 115c-88 35 -144 112 -144 218c0 182 145 328 325 328c126 0 201 -65 230 -148l-149 -77c-18 42 -44 68 -93 68c-72 0 -130 -79 -130 -161c0 -55 36 -90 81 -90c41 0 70 15 104 50l116 -101c-53 -61 -117 -102 -218 -106z" />
    <glyph glyph-name="egrave" unicode="&#xe8;" horiz-adv-x="601" 
d="M286 -13c-160 0 -258 94 -258 240c0 160 125 326 325 326c160 0 230 -107 230 -224c0 -37 -8 -76 -21 -111h-359c4 -54 36 -89 101 -89c39 0 74 13 115 43l88 -104c-55 -48 -127 -81 -221 -81zM216 315h193c3 9 5 19 5 29c0 37 -24 69 -74 69c-51 0 -101 -33 -124 -98z
M330 587l-111 128l179 57l55 -185h-123z" />
    <glyph glyph-name="eacute" unicode="&#xe9;" horiz-adv-x="601" 
d="M286 -13c-160 0 -258 94 -258 240c0 160 125 326 325 326c160 0 230 -107 230 -224c0 -37 -8 -76 -21 -111h-359c4 -54 36 -89 101 -89c39 0 74 13 115 43l88 -104c-55 -48 -127 -81 -221 -81zM216 315h193c3 9 5 19 5 29c0 37 -24 69 -74 69c-51 0 -101 -33 -124 -98z
M274 587l155 185l173 -57l-181 -128h-147z" />
    <glyph glyph-name="ecircumflex" unicode="&#xea;" horiz-adv-x="601" 
d="M286 -13c-160 0 -258 94 -258 240c0 160 125 326 325 326c160 0 230 -107 230 -224c0 -37 -8 -76 -21 -111h-359c4 -54 36 -89 101 -89c39 0 74 13 115 43l88 -104c-55 -48 -127 -81 -221 -81zM216 315h193c3 9 5 19 5 29c0 37 -24 69 -74 69c-51 0 -101 -33 -124 -98z
M168 587l172 165h154l84 -165h-113l-68 61l-101 -61h-128z" />
    <glyph glyph-name="edieresis" unicode="&#xeb;" horiz-adv-x="601" 
d="M286 -13c-160 0 -258 94 -258 240c0 160 125 326 325 326c160 0 230 -107 230 -224c0 -37 -8 -76 -21 -111h-359c4 -54 36 -89 101 -89c39 0 74 13 115 43l88 -104c-55 -48 -127 -81 -221 -81zM216 315h193c3 9 5 19 5 29c0 37 -24 69 -74 69c-51 0 -101 -33 -124 -98z
M185 587l39 143h166l-39 -143h-166zM404 587l39 143h166l-39 -143h-166z" />
    <glyph glyph-name="igrave" unicode="&#xec;" horiz-adv-x="301" 
d="M-17 0l145 541h190l-145 -541h-190zM198 587l-111 128l179 57l55 -185h-123z" />
    <glyph glyph-name="iacute" unicode="&#xed;" horiz-adv-x="301" 
d="M-17 0l145 541h190l-145 -541h-190zM138 587l155 185l173 -57l-181 -128h-147z" />
    <glyph glyph-name="icircumflex" unicode="&#xee;" horiz-adv-x="301" 
d="M-17 0l145 541h190l-145 -541h-190zM24 587l172 165h154l84 -165h-113l-68 61l-101 -61h-128z" />
    <glyph glyph-name="idieresis" unicode="&#xef;" horiz-adv-x="301" 
d="M-17 0l145 541h190l-145 -541h-190zM41 587l39 143h166l-39 -143h-166zM260 587l39 143h166l-39 -143h-166z" />
    <glyph glyph-name="eth" unicode="&#xf0;" horiz-adv-x="642" 
d="M288 -12c-157 0 -262 98 -262 233c0 140 113 259 271 259c53 0 96 -15 131 -41l-55 119l-131 -45l-41 89l133 42l-39 86h181l15 -34l121 41l41 -89l-124 -39l39 -89c30 -67 44 -133 44 -199c0 -189 -123 -333 -324 -333zM301 146c71 0 120 57 120 117c0 53 -39 89 -92 89
c-69 0 -120 -53 -120 -116c0 -55 41 -90 92 -90z" />
    <glyph glyph-name="ntilde" unicode="&#xf1;" horiz-adv-x="630" 
d="M-21 0l145 541h190l-17 -62c37 39 91 74 155 74c98 0 157 -62 157 -162c0 -29 -7 -63 -16 -97l-78 -294h-190l76 283c4 14 6 32 6 44c0 36 -21 57 -60 57c-53 0 -84 -36 -101 -98l-77 -286h-190zM268 584l-89 40c38 94 98 144 161 144c34 0 61 -14 84 -30
c22 -16 37 -25 51 -25c28 0 47 23 66 57l89 -40c-39 -94 -98 -144 -161 -144c-34 0 -61 14 -84 30s-37 25 -52 25c-27 0 -46 -23 -65 -57z" />
    <glyph glyph-name="ograve" unicode="&#xf2;" horiz-adv-x="644" 
d="M295 -13c-165 0 -265 109 -265 252c0 163 137 314 318 314c166 0 266 -109 266 -251c0 -164 -137 -315 -319 -315zM306 145c75 0 126 79 126 150c0 61 -38 100 -94 100c-75 0 -126 -79 -126 -149c0 -62 38 -101 94 -101zM339 587l-111 128l179 57l55 -185h-123z" />
    <glyph glyph-name="oacute" unicode="&#xf3;" horiz-adv-x="644" 
d="M295 -13c-165 0 -265 109 -265 252c0 163 137 314 318 314c166 0 266 -109 266 -251c0 -164 -137 -315 -319 -315zM306 145c75 0 126 79 126 150c0 61 -38 100 -94 100c-75 0 -126 -79 -126 -149c0 -62 38 -101 94 -101zM281 587l155 185l173 -57l-181 -128h-147z" />
    <glyph glyph-name="ocircumflex" unicode="&#xf4;" horiz-adv-x="644" 
d="M295 -13c-165 0 -265 109 -265 252c0 163 137 314 318 314c166 0 266 -109 266 -251c0 -164 -137 -315 -319 -315zM306 145c75 0 126 79 126 150c0 61 -38 100 -94 100c-75 0 -126 -79 -126 -149c0 -62 38 -101 94 -101zM172 587l172 165h154l84 -165h-113l-68 61
l-101 -61h-128z" />
    <glyph glyph-name="otilde" unicode="&#xf5;" horiz-adv-x="644" 
d="M295 -13c-165 0 -265 109 -265 252c0 163 137 314 318 314c166 0 266 -109 266 -251c0 -164 -137 -315 -319 -315zM306 145c75 0 126 79 126 150c0 61 -38 100 -94 100c-75 0 -126 -79 -126 -149c0 -62 38 -101 94 -101zM259 584l-89 40c38 94 98 144 161 144
c34 0 61 -14 84 -30c22 -16 37 -25 51 -25c28 0 47 23 66 57l89 -40c-39 -94 -98 -144 -161 -144c-34 0 -61 14 -84 30s-37 25 -52 25c-27 0 -46 -23 -65 -57z" />
    <glyph glyph-name="odieresis" unicode="&#xf6;" horiz-adv-x="644" 
d="M295 -13c-165 0 -265 109 -265 252c0 163 137 314 318 314c166 0 266 -109 266 -251c0 -164 -137 -315 -319 -315zM306 145c75 0 126 79 126 150c0 61 -38 100 -94 100c-75 0 -126 -79 -126 -149c0 -62 38 -101 94 -101zM187 587l39 143h166l-39 -143h-166zM406 587
l39 143h166l-39 -143h-166z" />
    <glyph glyph-name="divide" unicode="&#xf7;" horiz-adv-x="640" 
d="M166 34l47 175h178l-47 -175h-178zM75 271l45 167h491l-45 -167h-491zM291 500l47 175h178l-47 -175h-178z" />
    <glyph glyph-name="oslash" unicode="&#xf8;" horiz-adv-x="644" 
d="M295 -12c-69 0 -126 19 -169 51l-49 -44h-133l122 109c-24 39 -36 87 -36 138c0 160 137 311 318 311c70 0 128 -19 172 -52l50 45h133l-124 -111c23 -38 35 -85 35 -136c0 -160 -137 -311 -319 -311zM304 138c81 0 136 83 136 158c0 8 -1 16 -2 23l-187 -168
c15 -8 33 -13 53 -13zM206 219l189 169c-16 10 -34 14 -55 14c-81 0 -136 -82 -136 -157c0 -9 1 -17 2 -26z" />
    <glyph glyph-name="ugrave" unicode="&#xf9;" horiz-adv-x="632" 
d="M183 -12c-98 0 -157 63 -157 162c0 29 6 63 15 97l79 294h190l-76 -283c-4 -14 -7 -32 -7 -44c0 -36 21 -57 61 -57c53 0 84 36 100 98l77 286h190l-144 -541h-190l16 62c-37 -39 -90 -74 -154 -74zM366 587l-111 128l179 57l55 -185h-123z" />
    <glyph glyph-name="uacute" unicode="&#xfa;" horiz-adv-x="632" 
d="M183 -12c-98 0 -157 63 -157 162c0 29 6 63 15 97l79 294h190l-76 -283c-4 -14 -7 -32 -7 -44c0 -36 21 -57 61 -57c53 0 84 36 100 98l77 286h190l-144 -541h-190l16 62c-37 -39 -90 -74 -154 -74zM297 587l155 185l173 -57l-181 -128h-147z" />
    <glyph glyph-name="ucircumflex" unicode="&#xfb;" horiz-adv-x="632" 
d="M183 -12c-98 0 -157 63 -157 162c0 29 6 63 15 97l79 294h190l-76 -283c-4 -14 -7 -32 -7 -44c0 -36 21 -57 61 -57c53 0 84 36 100 98l77 286h190l-144 -541h-190l16 62c-37 -39 -90 -74 -154 -74zM190 587l172 165h154l84 -165h-113l-68 61l-101 -61h-128z" />
    <glyph glyph-name="udieresis" unicode="&#xfc;" horiz-adv-x="632" 
d="M183 -12c-98 0 -157 63 -157 162c0 29 6 63 15 97l79 294h190l-76 -283c-4 -14 -7 -32 -7 -44c0 -36 21 -57 61 -57c53 0 84 36 100 98l77 286h190l-144 -541h-190l16 62c-37 -39 -90 -74 -154 -74zM208 587l39 143h166l-39 -143h-166zM427 587l39 143h166l-39 -143h-166
z" />
    <glyph glyph-name="yacute" unicode="&#xfd;" horiz-adv-x="622" 
d="M94 -163c-63 0 -107 15 -144 39l85 139c25 -18 51 -27 75 -27c18 0 31 4 47 20l-70 533h193l22 -325l182 325h200l-335 -538c-77 -123 -149 -166 -255 -166zM299 587l155 185l173 -57l-181 -128h-147z" />
    <glyph glyph-name="thorn" unicode="&#xfe;" horiz-adv-x="672" 
d="M-64 -160l238 890h190l-66 -246c43 42 95 69 154 69c107 0 192 -82 192 -222c0 -194 -136 -343 -291 -343c-81 0 -131 35 -164 86l-63 -234h-190zM320 146c71 0 132 69 132 155c0 58 -37 95 -92 95c-73 0 -134 -72 -134 -154c0 -58 39 -96 94 -96z" />
    <glyph glyph-name="ydieresis" unicode="&#xff;" horiz-adv-x="622" 
d="M94 -163c-63 0 -107 15 -144 39l85 139c25 -18 51 -27 75 -27c18 0 31 4 47 20l-70 533h193l22 -325l182 325h200l-335 -538c-77 -123 -149 -166 -255 -166zM195 587l39 143h166l-39 -143h-166zM414 587l39 143h166l-39 -143h-166z" />
    <glyph glyph-name="dotlessi" unicode="&#x131;" horiz-adv-x="301" 
d="M-17 0l145 541h190l-145 -541h-190z" />
    <glyph glyph-name="Lslash" unicode="&#x141;" horiz-adv-x="662" 
d="M35 0l66 245l-82 -22l47 173l82 22l75 282h192l-60 -225l192 53l-46 -174l-192 -52l-36 -132h334l-46 -170h-526z" />
    <glyph glyph-name="lslash" unicode="&#x142;" horiz-adv-x="398" 
d="M32 0l71 263l-88 -23l46 170l88 24l79 296h190l-65 -242l88 24l-46 -171l-88 -24l-85 -317h-190z" />
    <glyph glyph-name="OE" unicode="&#x152;" horiz-adv-x="1080" 
d="M401 0c-136 0 -220 36 -276 92c-49 49 -74 118 -74 203c0 105 40 201 115 276c84 84 205 129 367 129h614l-44 -165h-349l-28 -106h313l-41 -153h-313l-31 -111h354l-44 -165h-563zM422 172h42l96 356h-49c-82 0 -154 -25 -200 -71c-37 -37 -60 -91 -60 -146
c0 -43 13 -74 35 -96c26 -27 69 -43 136 -43z" />
    <glyph glyph-name="oe" unicode="&#x153;" horiz-adv-x="1002" 
d="M296 -12c-166 0 -266 109 -266 254c0 161 136 311 318 311c89 0 156 -35 196 -90c52 54 123 90 212 90c156 0 227 -107 227 -224c0 -37 -8 -76 -21 -111h-359c4 -54 36 -89 102 -89c38 0 73 13 114 43l88 -104c-54 -48 -130 -81 -224 -81c-83 0 -147 32 -186 85
c-51 -51 -121 -84 -201 -84zM305 146c76 0 127 74 127 148c0 59 -37 101 -94 101c-75 0 -126 -75 -126 -148c0 -60 37 -101 93 -101zM616 315h194c3 9 4 19 4 29c0 37 -24 69 -73 69c-52 0 -102 -33 -125 -98z" />
    <glyph glyph-name="Scaron" unicode="&#x160;" horiz-adv-x="645" 
d="M302 -12c-137 0 -250 47 -325 128l125 129c68 -63 139 -95 216 -95c46 0 79 20 79 52c0 27 -19 41 -117 79c-111 42 -182 90 -182 193c0 139 126 238 297 238c123 0 220 -40 287 -104l-120 -134c-53 46 -114 77 -185 77c-47 0 -76 -22 -76 -50s21 -38 117 -76
c108 -41 182 -90 182 -195c0 -144 -124 -242 -298 -242zM359 747l-84 165h113l68 -61l101 61h128l-172 -165h-154z" />
    <glyph glyph-name="scaron" unicode="&#x161;" horiz-adv-x="511" 
d="M230 -13c-103 0 -202 36 -267 94l94 111c52 -47 125 -73 180 -73c32 0 48 13 48 33c0 19 -21 30 -74 51c-86 34 -152 72 -152 158c0 108 87 192 236 192c98 0 185 -36 234 -76l-91 -114c-47 35 -104 58 -153 58c-31 0 -47 -12 -47 -31c0 -18 19 -29 75 -51
c78 -31 151 -68 151 -158c0 -104 -78 -194 -234 -194zM266 587l-84 165h113l68 -61l101 61h128l-172 -165h-154z" />
    <glyph glyph-name="Ydieresis" unicode="&#x178;" horiz-adv-x="677" 
d="M159 0l73 271l-141 429h209l69 -262l211 262h232l-391 -450l-67 -250h-195zM256 747l39 143h166l-39 -143h-166zM475 747l39 143h166l-39 -143h-166z" />
    <glyph glyph-name="Zcaron" unicode="&#x17d;" horiz-adv-x="681" 
d="M-36 0l37 141l446 395h-328l45 164h595l-38 -141l-446 -395h341l-44 -164h-608zM384 747l-84 165h113l68 -61l101 61h128l-172 -165h-154z" />
    <glyph glyph-name="zcaron" unicode="&#x17e;" horiz-adv-x="558" 
d="M-40 0l34 125l318 265h-238l40 151h486l-33 -125l-319 -265h249l-40 -151h-497zM280 587l-84 165h113l68 -61l101 61h128l-172 -165h-154z" />
    <glyph glyph-name="florin" unicode="&#x192;" horiz-adv-x="559" 
d="M55 -12c-40 0 -70 4 -99 10l32 139c19 -5 32 -7 50 -7c33 0 58 16 82 70l58 129h-63l33 144h94l35 76c49 114 125 163 245 163c49 0 90 -6 120 -16l-32 -140c-22 8 -45 12 -70 12c-46 0 -74 -22 -93 -66l-13 -29h117l-32 -144h-149l-78 -174
c-55 -124 -129 -167 -237 -167z" />
    <glyph glyph-name="circumflex" unicode="&#x2c6;" 
d="M130 587l172 165h154l84 -165h-113l-68 61l-101 -61h-128z" />
    <glyph glyph-name="caron" unicode="&#x2c7;" 
d="M256 587l-84 165h113l68 -61l101 61h128l-172 -165h-154z" />
    <glyph glyph-name="breve" unicode="&#x2d8;" 
d="M359 586c-114 0 -179 66 -179 162v4h113c3 -33 28 -58 74 -58c43 0 76 24 96 58h114c-30 -104 -118 -166 -218 -166z" />
    <glyph glyph-name="dotaccent" unicode="&#x2d9;" 
d="M250 587l39 143h170l-39 -143h-170z" />
    <glyph glyph-name="ring" unicode="&#x2da;" 
d="M356 592c-74 0 -120 49 -120 112c0 79 65 145 147 145c74 0 120 -49 120 -112c0 -78 -65 -145 -147 -145zM359 653c44 0 73 41 73 83c0 29 -20 53 -52 53c-44 0 -73 -42 -73 -83c0 -30 20 -53 52 -53z" />
    <glyph glyph-name="ogonek" unicode="&#x2db;" 
d="M194 -167c-93 0 -140 30 -140 82c0 28 16 63 45 95h118c-14 -22 -19 -39 -19 -53c0 -24 23 -39 76 -40l-22 -81c-21 -2 -40 -3 -58 -3z" />
    <glyph glyph-name="tilde" unicode="&#x2dc;" 
d="M222 584l-89 40c38 94 98 144 161 144c34 0 61 -14 84 -30c22 -16 37 -25 51 -25c28 0 47 23 66 57l89 -40c-39 -94 -98 -144 -161 -144c-34 0 -61 14 -84 30s-37 25 -52 25c-27 0 -46 -23 -65 -57z" />
    <glyph glyph-name="hungarumlaut" unicode="&#x2dd;" 
d="M116 588l149 184l148 -54l43 54l156 -57l-170 -127h-131l86 109l-150 -109h-131z" />
    <glyph glyph-name="Omega" unicode="&#x3a9;" horiz-adv-x="778" 
d="M-12 0l38 145h173l6 19c-81 23 -118 108 -118 188c0 240 214 362 421 362c154 0 278 -95 278 -235c0 -124 -96 -284 -252 -315l-6 -19h172l-38 -145h-302l64 242c111 15 178 130 178 212c0 64 -41 113 -124 113c-124 0 -212 -112 -212 -216c0 -53 26 -99 88 -109
l-64 -242h-302z" />
    <glyph glyph-name="pi" unicode="&#x3c0;" 
d="M0 0v700h500v-700h-500zM81 49h340l-171 255zM50 95l170 254l-170 256v-510zM451 95v510l-172 -256zM250 395l171 255h-340z" />
    <glyph glyph-name="afii10023" unicode="&#x401;" horiz-adv-x="669" 
d="M-12 0l188 700h561l-45 -165h-368l-29 -106h334l-41 -153h-334l-30 -111h374l-44 -165h-566zM263 747l39 143h166l-39 -143h-166zM482 747l39 143h166l-39 -143h-166z" />
    <glyph glyph-name="afii10051" unicode="&#x402;" horiz-adv-x="854" 
d="M497 -67c-59 0 -108 12 -133 19l59 162c12 -2 26 -2 39 -2c69 0 121 30 121 100c0 36 -27 69 -79 69c-47 0 -96 -18 -123 -38l-65 -243h-194l142 530h-180l45 170h614l-45 -170h-240l-31 -115c53 27 120 45 181 45c113 0 188 -91 188 -205c0 -183 -133 -322 -299 -322z
" />
    <glyph glyph-name="afii10052" unicode="&#x403;" horiz-adv-x="572" 
d="M-12 0l187 700h494l-45 -170h-300l-142 -530h-194zM312 747l155 185l173 -57l-181 -128h-147z" />
    <glyph glyph-name="afii10053" unicode="&#x404;" horiz-adv-x="721" 
d="M392 -14c-204 0 -341 119 -341 315c0 207 162 413 417 413c132 0 244 -59 293 -153l-155 -109c-29 51 -76 90 -145 90c-92 0 -158 -50 -191 -120h228l-35 -137h-213c12 -74 64 -128 144 -128c61 0 113 25 158 70l108 -126c-67 -68 -161 -115 -268 -115z" />
    <glyph glyph-name="afii10054" unicode="&#x405;" horiz-adv-x="645" 
d="M302 -12c-137 0 -250 47 -325 128l125 129c68 -63 139 -95 216 -95c46 0 79 20 79 52c0 27 -19 41 -117 79c-111 42 -182 90 -182 193c0 139 126 238 297 238c123 0 220 -40 287 -104l-120 -134c-53 46 -114 77 -185 77c-47 0 -76 -22 -76 -50s21 -38 117 -76
c108 -41 182 -90 182 -195c0 -144 -124 -242 -298 -242z" />
    <glyph glyph-name="afii10055" unicode="&#x406;" horiz-adv-x="325" 
d="M-7 0l188 700h194l-188 -700h-194z" />
    <glyph glyph-name="afii10056" unicode="&#x407;" horiz-adv-x="325" 
d="M-7 0l188 700h194l-188 -700h-194zM86 747l39 143h166l-39 -143h-166zM305 747l39 143h166l-39 -143h-166z" />
    <glyph glyph-name="afii10057" unicode="&#x408;" horiz-adv-x="568" 
d="M197 -12c-98 0 -188 44 -238 123l132 115c36 -49 70 -68 112 -68c28 0 54 11 75 32c19 19 33 46 53 119l105 391h193l-114 -428c-27 -100 -56 -160 -104 -208c-50 -49 -121 -76 -214 -76z" />
    <glyph glyph-name="afii10058" unicode="&#x409;" horiz-adv-x="1118" 
d="M40 -10c-51 0 -101 11 -114 16l52 149c9 -2 35 -4 44 -4c55 0 109 4 216 406l38 143h538l-59 -220h87c161 0 256 -87 256 -200c0 -181 -144 -280 -335 -280h-330l143 535h-163l-19 -71c-116 -427 -218 -474 -354 -474zM670 163h101c67 0 128 27 128 96
c0 36 -30 69 -88 69h-96z" />
    <glyph glyph-name="afii10059" unicode="&#x40a;" horiz-adv-x="1115" 
d="M-12 0l188 700h195l-66 -246h247l65 246h195l-66 -246h107c152 0 242 -82 242 -189c0 -171 -136 -265 -317 -265h-349l80 301h-247l-79 -301h-195zM666 163h118c59 0 113 24 113 85c0 31 -27 60 -77 60h-115z" />
    <glyph glyph-name="afii10060" unicode="&#x40b;" horiz-adv-x="854" 
d="M122 0l142 530h-180l45 170h614l-45 -170h-240l-31 -115c53 27 120 45 181 45c117 0 193 -57 193 -160c0 -21 -3 -44 -10 -69l-62 -231h-194l40 150c6 24 10 45 10 63c0 44 -22 68 -71 68c-47 0 -92 -8 -133 -38l-65 -243h-194z" />
    <glyph glyph-name="afii10061" unicode="&#x40c;" horiz-adv-x="722" 
d="M-12 0l188 700h195l-76 -280l289 280h247l-330 -307l156 -393h-210l-101 270l-121 -111l-42 -159h-195zM367 747l155 185l173 -57l-181 -128h-147z" />
    <glyph glyph-name="afii10062" unicode="&#x40e;" horiz-adv-x="713" 
d="M153 -10c108 0 189 49 284 176l401 534h-219l-240 -332l-71 332h-206l135 -517c-28 -24 -51 -30 -68 -30c-21 0 -51 6 -73 24l-114 -140c40 -28 104 -47 171 -47zM468 745c-96 0 -153 56 -155 153l109 19c8 -36 24 -60 61 -60c38 0 62 24 80 60l103 -19
c-28 -97 -101 -153 -198 -153z" />
    <glyph glyph-name="afii10145" unicode="&#x40f;" horiz-adv-x="751" 
d="M168 -140l38 140h-218l187 700h194l-142 -530h239l142 530h194l-187 -700h-223l-38 -140h-186z" />
    <glyph glyph-name="afii10017" unicode="&#x410;" horiz-adv-x="775" 
d="M-74 0l487 705h190l109 -705h-204l-17 125h-270l-84 -125h-211zM319 276h156l-25 201z" />
    <glyph glyph-name="afii10018" unicode="&#x411;" horiz-adv-x="700" 
d="M-12 0l187 700h553l-44 -165h-359l-22 -81h123c152 0 242 -82 242 -189c0 -171 -136 -265 -317 -265h-363zM225 163h132c59 0 113 24 113 85c0 31 -27 60 -77 60h-129z" />
    <glyph glyph-name="afii10019" unicode="&#x412;" horiz-adv-x="714" 
d="M-12 0l188 700h291c191 0 253 -79 253 -168s-59 -155 -157 -179c62 -22 106 -68 106 -140c0 -121 -101 -213 -318 -213h-363zM219 156h147c67 0 108 30 108 74c0 36 -29 55 -86 55h-134zM291 421h131c69 0 106 27 106 71c0 32 -25 52 -84 52h-121z" />
    <glyph glyph-name="afii10020" unicode="&#x413;" horiz-adv-x="572" 
d="M-12 0l187 700h494l-45 -170h-300l-142 -530h-194z" />
    <glyph glyph-name="afii10021" unicode="&#x414;" horiz-adv-x="776" 
d="M-91 -140l82 310h57c69 92 125 180 195 443l23 87h543l-142 -530h79l-105 -310h-164l38 140h-382l-51 -140h-173zM256 170h217l99 365h-162l-21 -69c-33 -110 -82 -222 -133 -296z" />
    <glyph glyph-name="afii10022" unicode="&#x415;" horiz-adv-x="669" 
d="M-12 0l188 700h561l-45 -165h-368l-29 -106h334l-41 -153h-334l-30 -111h374l-44 -165h-566z" />
    <glyph glyph-name="afii10024" unicode="&#x416;" horiz-adv-x="1096" 
d="M-87 0l371 425l-155 275h212l143 -290l78 290h194l-75 -282l282 282h241l-325 -302l143 -398h-216l-90 263l-101 -90l-46 -173h-194l50 187l-46 81l-218 -268h-248z" />
    <glyph glyph-name="afii10025" unicode="&#x417;" horiz-adv-x="616" 
d="M257 -14c-156 0 -241 65 -287 133l129 112c45 -54 92 -81 160 -81c69 0 107 38 107 75c0 35 -24 55 -87 55h-72l39 146h68c65 0 110 25 110 70c0 32 -31 54 -71 54c-55 0 -101 -24 -154 -68l-99 122c65 62 155 110 277 110c154 0 242 -86 242 -181
c0 -96 -62 -156 -163 -184c61 -22 104 -69 104 -141c0 -130 -128 -222 -303 -222z" />
    <glyph glyph-name="afii10026" unicode="&#x418;" horiz-adv-x="764" 
d="M-12 0l188 700h191l-105 -394l376 394h181l-187 -700h-192l105 394l-376 -394h-181z" />
    <glyph glyph-name="afii10027" unicode="&#x419;" horiz-adv-x="764" 
d="M-12 0l188 700h191l-105 -394l376 394h181l-187 -700h-192l105 394l-376 -394h-181zM497 745c-96 0 -153 56 -155 153l109 19c8 -36 24 -60 61 -60c38 0 62 24 80 60l103 -19c-28 -97 -101 -153 -198 -153z" />
    <glyph glyph-name="afii10028" unicode="&#x41a;" horiz-adv-x="722" 
d="M-12 0l188 700h195l-76 -280l289 280h247l-330 -307l156 -393h-210l-101 270l-121 -111l-42 -159h-195z" />
    <glyph glyph-name="afii10029" unicode="&#x41b;" horiz-adv-x="759" 
d="M40 -10c-51 0 -101 11 -114 16l52 149c9 -2 35 -4 44 -4c55 0 109 4 216 406l38 143h538l-187 -700h-194l143 535h-163l-19 -71c-116 -427 -218 -474 -354 -474z" />
    <glyph glyph-name="afii10030" unicode="&#x41c;" horiz-adv-x="866" 
d="M-12 0l188 700h196l93 -271l238 271h218l-188 -700h-195l107 402l-251 -274h-4l-103 272l-107 -400h-192z" />
    <glyph glyph-name="afii10031" unicode="&#x41d;" horiz-adv-x="757" 
d="M-12 0l188 700h195l-71 -262h247l70 262h195l-188 -700h-195l72 266h-247l-71 -266h-195z" />
    <glyph glyph-name="afii10032" unicode="&#x41e;" horiz-adv-x="813" 
d="M386 -13c-199 0 -334 136 -334 314c0 213 174 412 417 412c199 0 334 -136 334 -314c0 -213 -174 -412 -417 -412zM403 161c123 0 202 119 202 223c0 89 -54 155 -153 155c-122 0 -202 -119 -202 -223c0 -89 54 -155 153 -155z" />
    <glyph glyph-name="afii10033" unicode="&#x41f;" horiz-adv-x="747" 
d="M-12 0l188 700h626l-188 -700h-195l143 530h-237l-142 -530h-195z" />
    <glyph glyph-name="afii10034" unicode="&#x420;" horiz-adv-x="672" 
d="M-12 0l188 700h229c114 0 189 -23 240 -74c37 -37 55 -85 55 -143c0 -174 -141 -282 -348 -282h-115l-54 -201h-195zM277 352h73c96 0 151 43 151 109c0 19 -7 36 -20 49c-19 19 -47 27 -83 27h-72z" />
    <glyph glyph-name="afii10035" unicode="&#x421;" horiz-adv-x="727" 
d="M382 -14c-194 0 -331 119 -331 306c0 207 168 422 437 422c143 0 242 -69 284 -177l-168 -90c-28 57 -72 90 -141 90c-116 0 -209 -109 -209 -231c0 -89 59 -144 140 -144c61 0 105 26 150 71l131 -116c-68 -77 -160 -131 -293 -131z" />
    <glyph glyph-name="afii10036" unicode="&#x422;" horiz-adv-x="645" 
d="M151 0l143 530h-210l46 170h613l-45 -170h-210l-142 -530h-195z" />
    <glyph glyph-name="afii10037" unicode="&#x423;" horiz-adv-x="713" 
d="M153 -10c-67 0 -131 19 -171 47l114 140c22 -18 52 -24 73 -24c17 0 40 6 68 30l-135 517h206l71 -332l240 332h219l-401 -534c-95 -127 -176 -176 -284 -176z" />
    <glyph glyph-name="afii10038" unicode="&#x424;" horiz-adv-x="957" 
d="M291 -30l21 80c-178 14 -272 119 -272 263c0 203 158 355 402 355h37l17 62h195l-17 -64c180 -12 278 -114 278 -256c0 -204 -158 -362 -402 -362h-43l-21 -78h-195zM358 220l75 276h-15c-100 0 -177 -60 -177 -162c0 -68 46 -108 117 -114zM553 220h21
c97 0 177 57 177 161c0 68 -48 109 -123 114z" />
    <glyph glyph-name="afii10039" unicode="&#x425;" horiz-adv-x="713" 
d="M-75 0l341 366l-145 334h213l77 -197l173 197h234l-324 -348l154 -352h-214l-84 216l-190 -216h-235z" />
    <glyph glyph-name="afii10040" unicode="&#x426;" horiz-adv-x="768" 
d="M470 -140l38 140h-520l188 700h194l-143 -530h239l142 530h194l-142 -530h79l-105 -310h-164z" />
    <glyph glyph-name="afii10041" unicode="&#x427;" horiz-adv-x="709" 
d="M383 0l65 245c-53 -27 -130 -40 -191 -40c-120 0 -175 80 -175 181c0 27 4 56 12 85l63 229h194l-56 -211c-5 -19 -8 -36 -8 -50c0 -41 23 -60 74 -60c47 0 96 13 133 38l76 283h194l-187 -700h-194z" />
    <glyph glyph-name="afii10042" unicode="&#x428;" horiz-adv-x="1100" 
d="M-12 0l187 700h194l-142 -530h199l142 530h194l-142 -530h199l142 530h194l-187 -700h-980z" />
    <glyph glyph-name="afii10043" unicode="&#x429;" horiz-adv-x="1121" 
d="M823 -140l38 140h-873l187 700h194l-142 -530h199l142 530h194l-142 -530h199l142 530h194l-142 -530h79l-105 -310h-164z" />
    <glyph glyph-name="afii10044" unicode="&#x42a;" horiz-adv-x="786" 
d="M101 0l142 530h-159l45 170h353l-59 -220h87c161 0 256 -87 256 -200c0 -181 -144 -280 -335 -280h-330zM338 163h101c67 0 128 27 128 96c0 36 -30 69 -88 69h-96z" />
    <glyph glyph-name="afii10045" unicode="&#x42b;" horiz-adv-x="987" 
d="M-12 0l187 700h194l-59 -220h87c161 0 256 -87 256 -200c0 -181 -144 -280 -335 -280h-330zM225 163h101c67 0 128 27 128 96c0 36 -30 69 -88 69h-96zM661 0l187 700h194l-187 -700h-194z" />
    <glyph glyph-name="afii10046" unicode="&#x42c;" horiz-adv-x="673" 
d="M-12 0l187 700h194l-59 -220h87c161 0 256 -87 256 -200c0 -181 -144 -280 -335 -280h-330zM225 163h101c67 0 128 27 128 96c0 36 -30 69 -88 69h-96z" />
    <glyph glyph-name="afii10047" unicode="&#x42d;" horiz-adv-x="721" 
d="M284 -14c-132 0 -244 59 -293 153l155 109c29 -51 76 -90 145 -90c94 0 162 52 193 127h-230l35 137h211c-13 70 -66 121 -142 121c-61 0 -113 -25 -158 -70l-108 126c67 68 161 115 268 115c194 0 341 -119 341 -315c0 -207 -162 -413 -417 -413z" />
    <glyph glyph-name="afii10048" unicode="&#x42e;" horiz-adv-x="1082" 
d="M665 -14c-181 0 -302 120 -312 282h-100l-71 -268h-194l187 700h194l-70 -264h78c58 158 209 278 387 278c189 0 308 -133 308 -308c0 -224 -178 -420 -407 -420zM686 160c103 0 187 100 187 223c0 89 -51 157 -136 157c-103 0 -186 -102 -186 -225
c0 -88 51 -155 135 -155z" />
    <glyph glyph-name="afii10049" unicode="&#x42f;" horiz-adv-x="724" 
d="M-42 0l236 248c-69 35 -104 95 -104 176c0 170 138 276 340 276h349l-187 -700h-194l56 212h-74l-183 -212h-239zM388 361h106l47 174h-108c-90 0 -141 -40 -141 -102c0 -49 43 -72 96 -72z" />
    <glyph glyph-name="afii10065" unicode="&#x430;" horiz-adv-x="597" 
d="M152 -11c-89 0 -151 57 -151 147c0 119 95 191 238 191c49 0 94 -8 137 -21l2 7c2 9 5 20 5 33c0 35 -27 58 -93 58c-51 0 -108 -12 -146 -27l-27 138c57 20 135 33 213 33c162 0 241 -64 241 -172c0 -25 -4 -51 -11 -78l-80 -298h-187l15 58c-46 -43 -93 -69 -156 -69z
M240 106c49 0 96 43 111 98l5 18c-21 7 -45 12 -71 12c-60 0 -99 -29 -99 -78c0 -31 22 -50 54 -50z" />
    <glyph glyph-name="afii10066" unicode="&#x431;" horiz-adv-x="644" 
d="M302 -13c-168 0 -264 108 -264 275c0 186 79 394 300 429l289 45v-147l-296 -52c-100 -18 -131 -82 -136 -109c16 22 87 80 197 80c125 0 226 -78 226 -219c0 -167 -137 -302 -316 -302zM311 148c68 0 120 60 120 130c0 53 -35 94 -90 94c-68 0 -120 -60 -120 -130
c0 -53 35 -94 90 -94z" />
    <glyph glyph-name="afii10067" unicode="&#x432;" horiz-adv-x="605" 
d="M-21 0l145 541h269c148 0 196 -61 196 -130s-46 -120 -122 -138c48 -17 82 -53 82 -108c0 -94 -78 -165 -245 -165h-325zM198 123h77c52 0 84 24 84 58c0 28 -23 43 -67 43h-67zM253 325h62c54 0 82 21 82 55c0 25 -19 40 -65 40h-54z" />
    <glyph glyph-name="afii10068" unicode="&#x433;" horiz-adv-x="465" 
d="M-21 0l145 541h408l-41 -153h-218l-104 -388h-190z" />
    <glyph glyph-name="afii10069" unicode="&#x434;" horiz-adv-x="659" 
d="M-89 -110l70 263h49c55 77 100 175 150 362l7 26h482l-104 -388h73l-89 -263h-162l30 110h-297l-40 -110h-169zM229 153h145l63 237h-110l-6 -24c-16 -62 -64 -178 -92 -213z" />
    <glyph glyph-name="afii10070" unicode="&#x435;" horiz-adv-x="601" 
d="M286 -13c-160 0 -258 94 -258 240c0 160 125 326 325 326c160 0 230 -107 230 -224c0 -37 -8 -76 -21 -111h-359c4 -54 36 -89 101 -89c39 0 74 13 115 43l88 -104c-55 -48 -127 -81 -221 -81zM216 315h193c3 9 5 19 5 29c0 37 -24 69 -74 69c-51 0 -101 -33 -124 -98z
" />
    <glyph glyph-name="afii10072" unicode="&#x436;" horiz-adv-x="914" 
d="M-86 0l292 339l-112 202h195l93 -201l54 201h190l-54 -201l201 201h215l-244 -227l99 -314h-194l-61 186l-76 -69l-31 -117h-190l34 127l-32 58l-150 -185h-229z" />
    <glyph glyph-name="afii10073" unicode="&#x437;" horiz-adv-x="530" 
d="M209 -14c-109 0 -179 24 -244 80l92 118c43 -31 92 -59 149 -59c58 0 83 17 83 49c0 19 -13 39 -69 39h-68l31 119h59c52 0 70 28 70 49c0 17 -18 34 -60 34c-49 0 -116 -24 -154 -54l-61 104c64 53 152 88 258 88c139 0 209 -55 209 -130c0 -74 -55 -117 -111 -140
c49 -18 85 -51 85 -107c0 -106 -75 -190 -269 -190z" />
    <glyph glyph-name="afii10074" unicode="&#x438;" horiz-adv-x="637" 
d="M-21 0l145 541h184l-73 -271l253 271h175l-145 -541h-184l72 271l-252 -271h-175z" />
    <glyph glyph-name="afii10075" unicode="&#x439;" horiz-adv-x="637" 
d="M-21 0l145 541h184l-73 -271l253 271h175l-145 -541h-184l72 271l-252 -271h-175zM405 585c-90 0 -144 54 -144 149l101 18c7 -35 23 -58 58 -58s57 23 74 58l97 -18c-28 -95 -96 -149 -186 -149z" />
    <glyph glyph-name="afii10076" unicode="&#x43a;" horiz-adv-x="599" 
d="M-21 0l145 541h190l-52 -195l188 195h229l-247 -229l104 -312h-203l-55 180l-80 -73l-29 -107h-190z" />
    <glyph glyph-name="afii10077" unicode="&#x43b;" horiz-adv-x="638" 
d="M26 -7c-20 0 -67 6 -86 14l45 141c20 -3 25 -3 30 -3c44 0 75 14 150 292l28 104h467l-145 -541h-190l104 390h-100l-19 -67c-92 -326 -169 -330 -284 -330z" />
    <glyph glyph-name="afii10078" unicode="&#x43c;" horiz-adv-x="739" 
d="M-21 0l145 541h177l81 -187l170 187h209l-145 -541h-190l71 267l-181 -184l-80 180l-70 -263h-187z" />
    <glyph glyph-name="afii10079" unicode="&#x43d;" horiz-adv-x="634" 
d="M-21 0l145 541h190l-52 -192h156l52 192h190l-145 -541h-190l52 196h-156l-52 -196h-190z" />
    <glyph glyph-name="afii10080" unicode="&#x43e;" horiz-adv-x="644" 
d="M295 -13c-165 0 -265 109 -265 252c0 163 137 314 318 314c166 0 266 -109 266 -251c0 -164 -137 -315 -319 -315zM306 145c75 0 126 79 126 150c0 61 -38 100 -94 100c-75 0 -126 -79 -126 -149c0 -62 38 -101 94 -101z" />
    <glyph glyph-name="afii10081" unicode="&#x43f;" horiz-adv-x="626" 
d="M-21 0l145 541h528l-145 -541h-190l104 388h-148l-104 -388h-190z" />
    <glyph glyph-name="afii10082" unicode="&#x440;" horiz-adv-x="672" 
d="M-64 -160l188 701h190l-16 -57c43 42 95 69 154 69c107 0 192 -82 192 -222c0 -194 -136 -343 -291 -343c-81 0 -131 35 -164 86l-63 -234h-190zM320 146c71 0 132 69 132 155c0 58 -37 95 -92 95c-73 0 -134 -72 -134 -154c0 -58 39 -96 94 -96z" />
    <glyph glyph-name="afii10083" unicode="&#x441;" horiz-adv-x="563" 
d="M281 -13c-146 0 -253 91 -253 237c0 182 145 328 325 328c126 0 201 -65 230 -148l-149 -77c-18 42 -44 68 -93 68c-72 0 -130 -79 -130 -161c0 -55 36 -90 83 -90c40 0 69 17 102 50l116 -101c-55 -64 -123 -106 -231 -106z" />
    <glyph glyph-name="afii10084" unicode="&#x442;" horiz-adv-x="522" 
d="M101 0l104 388h-163l41 153h506l-41 -153h-153l-104 -388h-190z" />
    <glyph glyph-name="afii10085" unicode="&#x443;" horiz-adv-x="622" 
d="M94 -163c-63 0 -107 15 -144 39l85 139c25 -18 51 -27 75 -27c18 0 31 4 47 20l-70 533h193l22 -325l182 325h200l-335 -538c-78 -122 -149 -166 -255 -166z" />
    <glyph glyph-name="afii10086" unicode="&#x444;" horiz-adv-x="922" 
d="M251 -160l49 185c-33 -20 -71 -34 -114 -34c-99 0 -156 72 -156 212c0 161 93 347 287 347c47 0 84 -20 112 -45l52 195h190l-51 -189c33 22 71 39 115 39c100 0 157 -73 157 -213c0 -161 -94 -346 -286 -346c-48 0 -86 17 -114 39l-51 -190h-190zM286 144
c16 0 33 3 49 10l62 232c-15 7 -36 11 -53 11c-71 0 -120 -75 -120 -172c0 -43 17 -81 62 -81zM578 144c69 0 121 71 121 170c0 44 -18 83 -63 83c-17 0 -33 -4 -49 -11l-62 -231c15 -7 36 -11 53 -11z" />
    <glyph glyph-name="afii10087" unicode="&#x445;" horiz-adv-x="589" 
d="M-62 0l259 281l-112 260h197l47 -131l109 131h214l-252 -274l114 -267h-197l-49 137l-116 -137h-214z" />
    <glyph glyph-name="afii10088" unicode="&#x446;" horiz-adv-x="642" 
d="M370 -110l30 110h-421l145 541h190l-104 -388h148l104 388h190l-104 -388h73l-89 -263h-162z" />
    <glyph glyph-name="afii10089" unicode="&#x447;" horiz-adv-x="609" 
d="M300 0l46 174c-37 -15 -102 -24 -140 -24c-93 0 -148 58 -148 140c0 17 3 36 8 56l53 195h191l-41 -153c-3 -12 -7 -26 -7 -40c0 -23 9 -43 41 -43c30 0 59 5 84 21l58 215h190l-145 -541h-190z" />
    <glyph glyph-name="afii10090" unicode="&#x448;" horiz-adv-x="934" 
d="M-21 0l145 541h190l-104 -388h133l104 388h190l-104 -388h133l104 388h190l-145 -541h-836z" />
    <glyph glyph-name="afii10091" unicode="&#x449;" horiz-adv-x="950" 
d="M678 -110l30 110h-729l145 541h190l-104 -388h133l104 388h190l-104 -388h133l104 388h190l-104 -388h73l-89 -263h-162z" />
    <glyph glyph-name="afii10092" unicode="&#x44a;" horiz-adv-x="661" 
d="M66 0l104 388h-131l41 153h321l-46 -170h77c125 0 198 -67 198 -155c0 -139 -111 -216 -259 -216h-305zM292 136h61c47 0 89 19 89 67c0 25 -21 48 -61 48h-58z" />
    <glyph glyph-name="afii10093" unicode="&#x44b;" horiz-adv-x="854" 
d="M-21 0l145 541h190l-46 -170h77c125 0 198 -67 198 -155c0 -139 -111 -216 -259 -216h-305zM205 136h61c47 0 89 19 89 67c0 25 -21 48 -61 48h-58zM545 0l145 541h190l-145 -541h-190z" />
    <glyph glyph-name="afii10094" unicode="&#x44c;" horiz-adv-x="574" 
d="M-21 0l145 541h190l-46 -170h77c125 0 198 -67 198 -155c0 -139 -111 -216 -259 -216h-305zM205 136h61c47 0 89 19 89 67c0 25 -21 48 -61 48h-58z" />
    <glyph glyph-name="afii10095" unicode="&#x44d;" horiz-adv-x="563" 
d="M221 -13c-128 0 -206 61 -243 136l144 89c18 -42 49 -71 98 -71c52 0 94 32 116 78h-156l29 105h141c-11 50 -48 76 -88 76s-76 -14 -109 -47l-106 109c54 58 129 90 231 90c146 0 253 -110 253 -256c0 -182 -139 -309 -310 -309z" />
    <glyph glyph-name="afii10096" unicode="&#x44e;" horiz-adv-x="903" 
d="M565 -13c-148 0 -244 87 -262 209h-82l-52 -196h-190l145 541h190l-52 -192h59c45 115 158 204 297 204c166 0 255 -109 255 -251c0 -164 -126 -315 -308 -315zM571 145c75 0 120 79 120 150c0 61 -32 100 -88 100c-75 0 -121 -79 -121 -149c0 -62 33 -101 89 -101z" />
    <glyph glyph-name="afii10097" unicode="&#x44f;" horiz-adv-x="619" 
d="M-44 0l170 189c-11 7 -20 14 -28 23c-29 30 -43 66 -43 111c0 134 109 218 268 218h318l-145 -541h-191l41 156h-35l-128 -156h-227zM314 283h69l31 115h-71c-60 0 -93 -26 -93 -68c0 -11 3 -22 11 -30c13 -12 30 -17 53 -17z" />
    <glyph glyph-name="afii10071" unicode="&#x451;" horiz-adv-x="601" 
d="M286 -13c-160 0 -258 94 -258 240c0 160 125 326 325 326c160 0 230 -107 230 -224c0 -37 -8 -76 -21 -111h-359c4 -54 36 -89 101 -89c39 0 74 13 115 43l88 -104c-55 -48 -127 -81 -221 -81zM216 315h193c3 9 5 19 5 29c0 37 -24 69 -74 69c-51 0 -101 -33 -124 -98z
M182 587l39 143h166l-39 -143h-166zM401 587l39 143h166l-39 -143h-166z" />
    <glyph glyph-name="afii10099" unicode="&#x452;" horiz-adv-x="632" 
d="M326 -14c-39 0 -85 8 -103 14l51 153c4 -1 9 -1 27 -1c49 0 93 51 93 119c0 48 -24 70 -59 70c-46 0 -82 -28 -101 -98l-65 -243h-190l144 541h-62l34 128h62l17 61h190l-17 -61h158l-34 -128h-158l-27 -105c48 45 95 74 154 74c111 0 156 -73 156 -163
c0 -27 -4 -55 -11 -83l-32 -119c-33 -123 -112 -159 -227 -159z" />
    <glyph glyph-name="afii10100" unicode="&#x453;" horiz-adv-x="465" 
d="M-21 0l145 541h408l-41 -153h-218l-104 -388h-190zM199 587l155 185l173 -57l-181 -128h-147z" />
    <glyph glyph-name="afii10101" unicode="&#x454;" horiz-adv-x="563" 
d="M280 -13c-146 0 -253 100 -253 246c0 182 139 319 310 319c128 0 201 -61 238 -136l-137 -84c-18 42 -51 68 -100 68c-51 0 -92 -32 -114 -76h154l-29 -105h-142c9 -53 48 -80 89 -80c40 0 78 20 111 53l106 -109c-54 -58 -131 -96 -233 -96z" />
    <glyph glyph-name="afii10102" unicode="&#x455;" horiz-adv-x="511" 
d="M230 -13c-103 0 -202 36 -267 94l94 111c52 -47 125 -73 180 -73c32 0 48 13 48 33c0 19 -21 30 -74 51c-86 34 -152 72 -152 158c0 108 87 192 236 192c98 0 185 -36 234 -76l-91 -114c-47 35 -104 58 -153 58c-31 0 -47 -12 -47 -31c0 -18 19 -29 75 -51
c78 -31 151 -68 151 -158c0 -104 -78 -194 -234 -194z" />
    <glyph glyph-name="afii10103" unicode="&#x456;" horiz-adv-x="301" 
d="M-17 0l145 541h190l-145 -541h-190zM138 590l38 140h198l-38 -140h-198z" />
    <glyph glyph-name="afii10104" unicode="&#x457;" horiz-adv-x="301" 
d="M29 587l39 143h166l-39 -143h-166zM248 587l39 143h166l-39 -143h-166zM-17 0l145 541h190l-145 -541h-190z" />
    <glyph glyph-name="afii10105" unicode="&#x458;" horiz-adv-x="303" 
d="M-53 -163c-32 0 -54 2 -81 7l33 126c8 -2 15 -3 24 -3c39 0 59 21 74 78l133 496h190l-140 -520c-39 -143 -113 -184 -233 -184zM139 590l38 140h198l-38 -140h-198z" />
    <glyph glyph-name="afii10106" unicode="&#x459;" horiz-adv-x="920" 
d="M26 -7c-20 0 -67 6 -86 14l45 141c20 -3 25 -3 30 -3c44 0 75 14 150 292l28 104h467l-46 -170h77c125 0 198 -67 198 -155c0 -139 -111 -216 -259 -216h-305l104 390h-100l-19 -67c-92 -326 -169 -330 -284 -330zM551 136h61c47 0 89 19 89 67c0 25 -21 48 -61 48h-58z
" />
    <glyph glyph-name="afii10107" unicode="&#x45a;" horiz-adv-x="920" 
d="M-21 0l145 541h190l-49 -179h156l49 179h190l-49 -179h77c125 0 201 -63 201 -151c0 -139 -111 -211 -259 -211h-305l58 221h-156l-58 -221h-190zM551 136h61c47 0 89 14 89 62c0 25 -24 44 -64 44h-58z" />
    <glyph glyph-name="afii10108" unicode="&#x45b;" horiz-adv-x="632" 
d="M-21 0l144 541h-62l34 128h62l17 61h190l-17 -61h158l-34 -128h-158l-28 -105c37 39 91 74 155 74c98 0 157 -62 157 -162c0 -29 -7 -63 -16 -97l-66 -251h-190l64 240c4 14 6 32 6 44c0 36 -21 57 -60 57c-53 0 -84 -36 -101 -98l-65 -243h-190z" />
    <glyph glyph-name="afii10109" unicode="&#x45c;" horiz-adv-x="599" 
d="M-21 0l145 541h190l-52 -195l188 195h229l-247 -229l104 -312h-203l-55 180l-80 -73l-29 -107h-190zM266 587l155 185l173 -57l-181 -128h-147z" />
    <glyph glyph-name="afii10110" unicode="&#x45e;" horiz-adv-x="622" 
d="M94 -163c-63 0 -107 15 -144 39l85 139c25 -18 51 -27 75 -27c18 0 31 4 47 20l-70 533h193l22 -325l182 325h200l-335 -538c-78 -122 -149 -166 -255 -166zM385 585c-90 0 -144 54 -144 149l101 18c7 -35 23 -58 58 -58s57 23 74 58l97 -18c-28 -95 -96 -149 -186 -149z
" />
    <glyph glyph-name="afii10193" unicode="&#x45f;" horiz-adv-x="626" 
d="M122 -110l30 110h-173l145 541h190l-104 -388h148l104 388h190l-145 -541h-175l-30 -110h-180z" />
    <glyph glyph-name="afii10050" unicode="&#x490;" horiz-adv-x="592" 
d="M-12 0l187 700h318l38 140h164l-61 -310h-310l-142 -530h-194z" />
    <glyph glyph-name="afii10098" unicode="&#x491;" horiz-adv-x="465" 
d="M-21 0l145 541h228l29 110h162l-52 -263h-218l-104 -388h-190z" />
    <glyph glyph-name="endash" unicode="&#x2013;" horiz-adv-x="526" 
d="M33 231l44 163h438l-44 -163h-438z" />
    <glyph glyph-name="emdash" unicode="&#x2014;" horiz-adv-x="896" 
d="M33 231l44 163h808l-44 -163h-808z" />
    <glyph glyph-name="quoteleft" unicode="&#x2018;" horiz-adv-x="302" 
d="M63 344l45 169c34 128 102 187 251 194l8 -74c-79 -8 -119 -40 -131 -94h77l-53 -195h-197z" />
    <glyph glyph-name="quoteright" unicode="&#x2019;" horiz-adv-x="302" 
d="M66 338l-8 73c79 8 119 40 131 94h-77l53 195h197l-45 -169c-34 -127 -102 -187 -251 -193z" />
    <glyph glyph-name="quotesinglbase" unicode="&#x201a;" horiz-adv-x="302" 
d="M-66 -167l-8 73c78 8 118 40 130 94h-76l52 195h198l-45 -168c-35 -128 -102 -188 -251 -194z" />
    <glyph glyph-name="quotedblleft" unicode="&#x201c;" horiz-adv-x="565" 
d="M64 343l45 169c34 128 99 187 248 194l8 -74c-78 -8 -116 -40 -128 -94h74l-52 -195h-195zM330 343l45 169c34 128 99 187 248 194l8 -74c-78 -8 -116 -40 -128 -94h74l-52 -195h-195z" />
    <glyph glyph-name="quotedblright" unicode="&#x201d;" horiz-adv-x="565" 
d="M67 338l-8 73c78 8 116 40 128 94h-74l52 195h195l-45 -169c-34 -127 -99 -187 -248 -193zM333 338l-8 73c78 8 116 40 128 94h-74l52 195h195l-45 -169c-34 -127 -99 -187 -248 -193z" />
    <glyph glyph-name="quotedblbase" unicode="&#x201e;" horiz-adv-x="565" 
d="M-66 -167l-8 73c78 8 116 40 128 94h-74l52 195h195l-45 -168c-34 -128 -99 -188 -248 -194zM200 -167l-8 73c78 8 116 40 128 94h-74l52 195h195l-45 -168c-34 -128 -99 -188 -248 -194z" />
    <glyph glyph-name="dagger" unicode="&#x2020;" horiz-adv-x="412" 
d="M143 223l83 270l-129 -13l28 104l121 -13l19 129h112l-50 -129l128 13l-28 -104l-122 13l-62 -270h-100z" />
    <glyph glyph-name="daggerdbl" unicode="&#x2021;" horiz-adv-x="422" 
d="M82 0l50 129l-127 -13l27 104l122 -13l26 143l51 143l-129 -13l28 104l121 -13l19 129h112l-50 -129l127 13l-28 -104l-121 13l-26 -143l-52 -143l130 13l-28 -104l-121 13l-19 -129h-112z" />
    <glyph glyph-name="bullet" unicode="&#x2022;" horiz-adv-x="501" 
d="M246 180c-85 0 -134 55 -134 134c0 102 74 211 187 211c84 0 134 -55 134 -134c0 -102 -75 -211 -187 -211z" />
    <glyph glyph-name="ellipsis" unicode="&#x2026;" horiz-adv-x="858" 
d="M-20 0l51 192h195l-52 -192h-194zM260 0l51 192h195l-52 -192h-194zM540 0l51 192h195l-52 -192h-194z" />
    <glyph glyph-name="perthousand" unicode="&#x2030;" horiz-adv-x="1349" 
d="M68 0l689 700h141l-690 -700h-140zM683 -10c-106 0 -167 70 -167 163c0 108 81 217 203 217c106 0 167 -69 167 -163c0 -108 -81 -217 -203 -217zM688 95c50 0 82 56 82 107c0 37 -22 63 -56 63c-50 0 -82 -55 -82 -107c0 -37 22 -63 56 -63zM1109 -10
c-106 0 -167 70 -167 163c0 108 81 217 202 217c106 0 167 -69 167 -163c0 -108 -81 -217 -202 -217zM1114 95c49 0 81 56 81 107c0 37 -21 63 -56 63c-49 0 -81 -55 -81 -107c0 -37 21 -63 56 -63zM247 330c-107 0 -168 69 -168 163c0 108 81 217 203 217
c106 0 167 -70 167 -163c0 -108 -81 -217 -202 -217zM252 435c49 0 81 55 81 107c0 37 -21 63 -56 63c-49 0 -81 -56 -81 -107c0 -37 21 -63 56 -63z" />
    <glyph glyph-name="guilsinglleft" unicode="&#x2039;" horiz-adv-x="357" 
d="M133 25l-105 219l13 49l218 214l104 -96l-168 -163l79 -160z" />
    <glyph glyph-name="guilsinglright" unicode="&#x203a;" horiz-adv-x="357" 
d="M96 25l-105 96l168 164l-79 160l141 62l106 -219l-14 -48z" />
    <glyph glyph-name="fraction" unicode="&#x2044;" horiz-adv-x="546" 
d="M-140 -98l694 856h159l-695 -856h-158z" />
    <glyph glyph-name="Euro" unicode="&#x20ac;" horiz-adv-x="677" 
d="M385 -14c-152 0 -261 92 -276 237h-90l28 104h67c3 17 6 34 11 50h-65l28 104h65c57 134 171 233 336 233c129 0 206 -60 246 -147l-142 -95c-27 50 -60 75 -119 75c-54 0 -94 -25 -123 -68h169l-27 -101h-180c-5 -17 -9 -34 -12 -52h178l-27 -101h-154
c11 -49 48 -72 95 -72c49 0 85 18 126 59l111 -119c-62 -66 -142 -107 -245 -107z" />
    <glyph glyph-name="afii61352" unicode="&#x2116;" horiz-adv-x="1098" 
d="M-12 0l187 700h181l124 -350l94 350h202l-187 -700h-170l-132 364l-97 -364h-202zM711 110l31 117h292l-31 -117h-292zM914 273c-87 0 -139 61 -139 140c0 106 82 197 187 197c87 0 139 -62 139 -140c0 -106 -83 -197 -187 -197zM929 371c31 0 61 36 61 84
c0 32 -17 57 -43 57c-32 0 -61 -37 -61 -84c0 -33 17 -57 43 -57z" />
    <glyph glyph-name="published" unicode="&#x2117;" horiz-adv-x="830" 
d="M437 -14c-203 0 -361 165 -361 364c0 197 160 364 363 364s361 -165 361 -364c0 -197 -160 -364 -363 -364zM437 26c183 0 321 147 321 326c0 177 -137 322 -319 322c-183 0 -321 -147 -321 -326c0 -177 137 -322 319 -322zM295 164v385h166c98 0 160 -50 160 -138
c0 -89 -70 -137 -165 -137h-53v-110h-108zM403 358h50c37 0 61 19 61 51c0 33 -24 50 -62 50h-49v-101z" />
    <glyph glyph-name="servicemark" unicode="&#x2120;" 
d="M0 0v700h500v-700h-500zM81 49h340l-171 255zM50 95l170 254l-170 256v-510zM451 95v510l-172 -256zM250 395l171 255h-340z" />
    <glyph glyph-name="trademark" unicode="&#x2122;" horiz-adv-x="695" 
d="M130 392l63 233h-92l20 75h270l-20 -75h-92l-62 -233h-87zM357 392l82 308h87l41 -119l105 119h95l-82 -308h-85l48 180l-111 -122h-3l-45 122l-48 -180h-84z" />
    <glyph glyph-name="partialdiff" unicode="&#x2202;" 
d="M0 0v700h500v-700h-500zM81 49h340l-171 255zM50 95l170 254l-170 256v-510zM451 95v510l-172 -256zM250 395l171 255h-340z" />
    <glyph glyph-name="Delta" unicode="&#x2206;" horiz-adv-x="760" 
d="M-70 0l471 700h180l97 -700h-748zM259 170h196l-19 293z" />
    <glyph glyph-name="product" unicode="&#x220f;" 
d="M0 0v700h500v-700h-500zM81 49h340l-171 255zM50 95l170 254l-170 256v-510zM451 95v510l-172 -256zM250 395l171 255h-340z" />
    <glyph glyph-name="summation" unicode="&#x2211;" 
d="M0 0v700h500v-700h-500zM81 49h340l-171 255zM50 95l170 254l-170 256v-510zM451 95v510l-172 -256zM250 395l171 255h-340z" />
    <glyph glyph-name="minus" unicode="&#x2212;" horiz-adv-x="640" 
d="M74 269l45 167h491l-45 -167h-491z" />
    <glyph glyph-name="radical" unicode="&#x221a;" horiz-adv-x="596" 
d="M282 -128l-179 351h-106v118h175l96 -185l268 642h134z" />
    <glyph glyph-name="infinity" unicode="&#x221e;" horiz-adv-x="889" 
d="M284 135c-130 0 -208 95 -208 221c0 124 74 214 203 214c94 0 144 -55 196 -126c51 73 101 126 197 126c129 0 203 -90 203 -214s-73 -221 -203 -221c-87 0 -147 52 -197 118c-49 -66 -104 -118 -191 -118zM281 273c50 0 88 40 115 78c-25 35 -70 82 -116 82
c-45 0 -72 -38 -72 -81c0 -45 27 -79 73 -79zM670 273c48 0 73 35 73 80s-30 80 -76 80c-47 0 -88 -47 -113 -82c27 -38 66 -78 116 -78z" />
    <glyph glyph-name="integral" unicode="&#x222b;" 
d="M0 0v700h500v-700h-500zM81 49h340l-171 255zM50 95l170 254l-170 256v-510zM451 95v510l-172 -256zM250 395l171 255h-340z" />
    <glyph glyph-name="approxequal" unicode="&#x2248;" horiz-adv-x="640" 
d="M96 122l-92 26c33 85 114 190 207 190c77 0 166 -59 222 -59c34 0 64 24 82 53l92 -25c-35 -85 -110 -191 -207 -191c-71 0 -181 60 -226 60c-30 0 -61 -27 -78 -54zM164 373l-92 26c32 85 114 190 207 190c77 0 166 -59 222 -59c34 0 63 24 81 53l92 -25
c-34 -85 -110 -191 -207 -191c-71 0 -181 60 -226 60c-30 0 -61 -27 -77 -54z" />
    <glyph glyph-name="notequal" unicode="&#x2260;" horiz-adv-x="640" 
d="M157 -11l-120 68l58 77h-57l45 167h139l78 102h-190l45 167h272l110 145l119 -68l-59 -77h50l-45 -167h-131l-78 -102h181l-44 -167h-263z" />
    <glyph glyph-name="lessequal" unicode="&#x2264;" horiz-adv-x="640" 
d="M8 -16l42 157h491l-42 -157h-491zM547 165l-444 168l47 177l535 168l-48 -183l-348 -79l306 -79z" />
    <glyph glyph-name="greaterequal" unicode="&#x2265;" horiz-adv-x="640" 
d="M17 -16l42 157h491l-42 -157h-491zM67 165l48 186l348 79l-306 79l48 169l443 -168l-47 -177z" />
    <glyph glyph-name="lozenge" unicode="&#x25ca;" horiz-adv-x="640" 
d="M263 -35l-194 391l196 391h140l196 -391l-196 -391h-142zM335 125l104 231l-104 231l-105 -231z" />
    <glyph glyph-name="cyrBreve" unicode="&#xf6d1;" 
d="M353 585c-96 0 -153 56 -155 153l109 19c8 -36 24 -60 61 -60c38 0 62 24 80 60l103 -19c-28 -97 -101 -153 -198 -153z" />
    <glyph glyph-name="cyrbreve" unicode="&#xf6d4;" 
d="M352 585c-90 0 -144 54 -144 149l101 18c7 -35 23 -58 58 -58s57 23 74 58l97 -18c-28 -95 -96 -149 -186 -149z" />
    <glyph glyph-name="apple" unicode="&#xf8ff;" 
d="M0 0v700h500v-700h-500zM81 49h340l-171 255zM50 95l170 254l-170 256v-510zM451 95v510l-172 -256zM250 395l171 255h-340z" />
    </font>
</defs>
</svg>
