<?xml version="1.0" standalone="no"?>
<!DOCTYPE svg PUBLIC "-//W3C//DTD SVG 1.1//EN" "http://www.w3.org/Graphics/SVG/1.1/DTD/svg11.dtd" >
<svg xmlns="http://www.w3.org/2000/svg" xmlns:xlink="http://www.w3.org/1999/xlink" version="1.1">
<metadata>
Created by FontForge 20160407 at Mon Jul 25 12:04:47 2016
 By Jimmy Warting
Copyright (c) 2002 The Hoefler Type Foundry, Inc., dba Hoefler &#38; Frere-Jones. All Rights Reserved.
</metadata>
<defs>
<font id="GothamPro-LightItalic" horiz-adv-x="500" >
  <font-face 
    font-family="Gotham Pro"
    font-weight="400"
    font-style="italic"
    font-stretch="normal"
    units-per-em="1000"
    panose-1="2 0 5 3 4 0 0 9 0 4"
    ascent="800"
    descent="-200"
    x-height="510"
    cap-height="700"
    bbox="-121 -214 1206 898"
    underline-thickness="20"
    underline-position="-133"
    slope="-15"
    stemh="47"
    stemv="53"
    unicode-range="U+0020-FB04"
  />
<missing-glyph 
d="M0 0v700h500v-700h-500zM81 49h339l-170 255zM49 96l171 254l-171 254v-508zM450 96v508l-171 -254zM250 395l170 255h-339z" />
    <glyph glyph-name="fi" unicode="fi" horiz-adv-x="612" 
d="M55 0l125 465h-74l12 45h74l20 74c26 98 82 146 163 146c38 0 74 -9 102 -24l-12 -44c-34 16 -59 24 -92 24c-53 0 -95 -34 -115 -113l-17 -63h184l-12 -45h-184l-125 -465h-49zM394 0l137 510h49l-137 -510h-49zM561 643l18 67h61l-18 -67h-61z" />
    <glyph glyph-name="fl" unicode="fl" horiz-adv-x="612" 
d="M55 0l125 465h-74l12 45h74l20 74c26 98 82 146 163 146c38 0 74 -9 102 -24l-12 -44c-34 16 -59 24 -92 24c-53 0 -95 -34 -115 -113l-17 -63h184l-12 -45h-184l-125 -465h-49zM394 0l196 730h49l-196 -730h-49z" />
    <glyph glyph-name="ffi" unicode="ffi" horiz-adv-x="974" 
d="M55 0l125 465h-74l12 45h74l20 74c26 98 82 146 163 146c38 0 74 -9 102 -24l-12 -44c-34 16 -59 24 -92 24c-53 0 -95 -34 -115 -113l-17 -63h184l-12 -45h-184l-125 -465h-49zM417 0l125 465h-74l12 45h74l20 74c26 97 82 146 163 146c38 0 74 -9 102 -24l-12 -44
c-34 16 -59 24 -92 24c-53 0 -94 -34 -115 -113l-17 -63h184l-12 -45h-184l-125 -465h-49zM756 0l137 510h49l-137 -510h-49zM923 643l18 67h61l-18 -67h-61z" />
    <glyph glyph-name="ffl" unicode="ffl" horiz-adv-x="974" 
d="M55 0l125 465h-74l12 45h74l20 74c26 98 82 146 163 146c38 0 74 -9 102 -24l-12 -44c-34 16 -59 24 -92 24c-53 0 -95 -34 -115 -113l-17 -63h184l-12 -45h-184l-125 -465h-49zM417 0l125 465h-74l12 45h74l20 74c26 97 82 146 163 146c38 0 74 -9 102 -24l-12 -44
c-34 16 -59 24 -92 24c-53 0 -94 -34 -115 -113l-17 -63h184l-12 -45h-184l-125 -465h-49zM756 0l196 730h49l-196 -730h-49z" />
    <glyph glyph-name=".notdef" 
d="M0 0v700h500v-700h-500zM81 49h339l-170 255zM49 96l171 254l-171 254v-508zM450 96v508l-171 -254zM250 395l170 255h-339z" />
    <glyph glyph-name="space" unicode=" " horiz-adv-x="300" 
 />
    <glyph glyph-name="exclam" unicode="!" horiz-adv-x="251" 
d="M24 0l23 85h66l-23 -85h-66zM92 183l105 447l19 70h58l-19 -70l-135 -447h-28z" />
    <glyph glyph-name="quotedbl" unicode="&#x22;" horiz-adv-x="410" 
d="M101 446l93 254h63v-5l-127 -249h-29zM281 446l93 254h63v-5l-127 -249h-29z" />
    <glyph glyph-name="numbersign" unicode="#" horiz-adv-x="678" 
d="M91 0l65 187h-121l12 47h125l83 236h-133l12 47h137l64 183h48l-64 -183h207l64 183h48l-64 -183h121l-12 -47h-125l-83 -236h133l-12 -47h-137l-65 -187h-48l65 187h-207l-65 -187h-48zM221 234h206l83 236h-207z" />
    <glyph glyph-name="dollar" unicode="$" horiz-adv-x="618" 
d="M190 -98l28 103c-92 14 -169 59 -219 117l38 33c47 -55 113 -92 198 -104l77 288c-128 48 -179 92 -179 174c0 107 100 187 232 187c15 0 30 -1 44 -2l16 60h49l-18 -67c73 -14 129 -47 172 -89l-36 -36c-39 39 -89 67 -153 80l-73 -272c121 -44 173 -94 173 -176
c0 -124 -112 -198 -274 -198l-26 -98h-49zM278 47h11c114 0 197 59 197 146c0 55 -33 93 -133 132zM325 389l71 262c-12 2 -24 2 -36 2c-100 0 -174 -59 -174 -135c0 -60 40 -92 139 -129z" />
    <glyph glyph-name="percent" unicode="%" horiz-adv-x="821" 
d="M65 0l682 700h60l-682 -700h-60zM588 -7c-81 0 -137 64 -137 143c0 112 84 219 191 219c81 0 137 -64 137 -143c0 -112 -84 -219 -191 -219zM592 36c77 0 138 89 138 171c0 63 -33 105 -92 105c-77 0 -138 -89 -138 -171c0 -63 33 -105 92 -105zM230 346
c-81 0 -137 64 -137 143c0 112 84 219 191 219c81 0 137 -64 137 -143c0 -112 -84 -219 -191 -219zM234 389c77 0 138 89 138 171c0 63 -33 105 -92 105c-77 0 -138 -89 -138 -171c0 -63 33 -105 92 -105z" />
    <glyph glyph-name="ampersand" unicode="&#x26;" horiz-adv-x="690" 
d="M572 -14l-85 121c-78 -77 -150 -117 -256 -117c-111 0 -200 64 -200 175c0 112 83 197 245 238c-28 45 -47 88 -47 133c0 101 85 176 184 176s164 -58 164 -145c0 -75 -52 -145 -226 -192l142 -201c40 45 79 102 116 167l39 -23c-43 -71 -84 -130 -127 -178l90 -128z
M237 36c83 0 153 36 223 105l-159 225c-151 -36 -217 -112 -217 -195s60 -135 153 -135zM326 411c155 40 200 99 200 154c0 61 -45 103 -115 103s-131 -58 -131 -131c0 -42 14 -77 46 -126z" />
    <glyph glyph-name="quotesingle" unicode="'" horiz-adv-x="230" 
d="M101 446l93 254h63v-5l-127 -249h-29z" />
    <glyph glyph-name="parenleft" unicode="(" horiz-adv-x="430" 
d="M273 -140c-92 82 -174 197 -174 358c0 195 123 390 396 501l17 -37c-262 -112 -361 -293 -361 -463c0 -150 68 -245 150 -330z" />
    <glyph glyph-name="parenright" unicode=")" horiz-adv-x="430" 
d="M-47 -139l-17 37c262 112 361 293 361 463c0 150 -68 245 -150 330l28 29c92 -82 174 -197 174 -358c0 -195 -123 -390 -396 -501z" />
    <glyph glyph-name="asterisk" unicode="*" horiz-adv-x="430" 
d="M270 406l-41 10l42 121l-121 -42l-12 41l129 24l-100 84l31 30l84 -97l24 125l41 -10l-42 -121l121 42l12 -41l-129 -24l100 -84l-31 -30l-84 97z" />
    <glyph glyph-name="plus" unicode="+" horiz-adv-x="639" 
d="M256 113l58 215h-217l13 48h217l57 215h50l-57 -215h217l-13 -48h-217l-58 -215h-50z" />
    <glyph glyph-name="comma" unicode="," horiz-adv-x="231" 
d="M-32 -106l-7 24c49 17 73 44 80 82h-27l23 85h66l-20 -74c-20 -70 -49 -98 -115 -117z" />
    <glyph glyph-name="hyphen" unicode="-" horiz-adv-x="409" 
d="M74 269l15 56h268l-15 -56h-268z" />
    <glyph glyph-name="period" unicode="." horiz-adv-x="231" 
d="M14 0l23 85h66l-23 -85h-66z" />
    <glyph glyph-name="slash" unicode="/" 
d="M-121 -128l716 926h54l-716 -926h-54z" />
    <glyph glyph-name="zero" unicode="0" horiz-adv-x="709" 
d="M317 -12c-154 0 -235 112 -235 262c0 228 153 462 360 462c154 0 235 -112 235 -262c0 -228 -153 -462 -360 -462zM320 35c164 0 303 210 303 415c0 119 -62 215 -184 215c-164 0 -303 -210 -303 -415c0 -119 62 -215 184 -215z" />
    <glyph glyph-name="one" unicode="1" horiz-adv-x="334" 
d="M93 0l173 645l-147 -46l-2 47l176 59h41l-189 -705h-52z" />
    <glyph glyph-name="two" unicode="2" horiz-adv-x="588" 
d="M-19 0l9 39l418 325c81 63 123 113 123 178c0 69 -55 121 -150 121c-84 0 -150 -47 -200 -100l-37 32c61 63 137 115 239 115c119 0 202 -68 202 -167c0 -83 -55 -143 -145 -213l-362 -280h404l-13 -50h-488z" />
    <glyph glyph-name="three" unicode="3" horiz-adv-x="606" 
d="M250 -12c-119 0 -201 54 -240 137l43 24c37 -71 100 -114 200 -114c123 0 215 73 215 176c0 90 -78 133 -196 133h-29l-11 26l312 282h-375l14 48h450l-10 -37l-307 -277c111 -5 207 -62 207 -171c0 -133 -126 -227 -273 -227z" />
    <glyph glyph-name="four" unicode="4" horiz-adv-x="645" 
d="M369 0l46 171h-379l-8 39l533 495h48l-131 -489h114l-12 -45h-114l-46 -171h-51zM99 216h328l109 406z" />
    <glyph glyph-name="five" unicode="5" horiz-adv-x="601" 
d="M252 -12c-120 0 -191 57 -236 125l43 27c44 -65 105 -107 196 -107c137 0 226 94 226 196c0 96 -73 150 -168 150c-48 0 -105 -13 -161 -44l-33 26l111 339h378l-14 -48h-332l-86 -259c30 17 96 33 137 33c135 0 222 -75 222 -195c0 -131 -113 -243 -283 -243z" />
    <glyph glyph-name="six" unicode="6" horiz-adv-x="640" 
d="M317 -12c-68 0 -127 25 -166 64c-43 43 -68 103 -68 193c0 155 60 287 140 367c66 66 140 100 224 100c93 0 158 -38 204 -93l-38 -33c-41 46 -94 79 -169 79c-66 0 -126 -27 -181 -82c-63 -63 -115 -167 -122 -266c42 63 116 118 218 118c142 0 224 -97 224 -204
c0 -130 -112 -243 -266 -243zM320 34c122 0 209 92 209 197c0 74 -54 156 -173 156c-129 0 -214 -93 -214 -186c0 -51 17 -89 46 -118c35 -35 81 -49 132 -49z" />
    <glyph glyph-name="seven" unicode="7" horiz-adv-x="578" 
d="M80 0l471 650h-403l14 50h464l-11 -38l-475 -662h-60z" />
    <glyph glyph-name="eight" unicode="8" horiz-adv-x="641" 
d="M295 -10c-154 0 -255 83 -255 183c0 113 95 180 214 198c-58 21 -107 74 -107 149c0 109 110 190 249 190c135 0 232 -74 232 -179c0 -98 -83 -164 -181 -182c61 -22 123 -78 123 -158c0 -117 -119 -201 -275 -201zM298 37c132 0 218 65 218 156c0 76 -77 144 -202 144
c-137 0 -220 -74 -220 -158c0 -83 80 -142 204 -142zM375 380c132 0 199 75 199 148c0 79 -73 135 -178 135c-118 0 -195 -64 -195 -147c0 -77 71 -136 174 -136z" />
    <glyph glyph-name="nine" unicode="9" horiz-adv-x="640" 
d="M243 -13c-89 0 -161 40 -210 99l38 33c46 -52 100 -85 175 -85c143 0 287 159 302 345c-39 -58 -109 -123 -220 -123c-141 0 -223 98 -223 206c0 133 113 249 268 249c138 0 233 -90 233 -257c0 -282 -184 -467 -363 -467zM335 304c124 0 212 97 212 196
c0 104 -84 165 -178 165c-121 0 -210 -94 -210 -201c0 -77 51 -160 176 -160z" />
    <glyph glyph-name="colon" unicode=":" horiz-adv-x="241" 
d="M19 0l23 85h66l-23 -85h-66zM133 425l23 85h66l-23 -85h-66z" />
    <glyph glyph-name="semicolon" unicode=";" horiz-adv-x="241" 
d="M-27 -106l-7 24c49 17 73 44 80 82h-27l23 85h66l-20 -74c-20 -70 -49 -98 -115 -117zM133 425l23 85h66l-23 -85h-66z" />
    <glyph glyph-name="less" unicode="&#x3c;" horiz-adv-x="640" 
d="M478 91l-400 241l11 40l529 241l-15 -59l-458 -206l347 -208z" />
    <glyph glyph-name="equal" unicode="=" horiz-adv-x="640" 
d="M81 214l14 51h454l-14 -51h-454zM142 439l13 51h454l-13 -51h-454z" />
    <glyph glyph-name="greater" unicode="&#x3e;" horiz-adv-x="640" 
d="M51 91l15 59l458 206l-347 208l14 49l400 -241l-11 -40z" />
    <glyph glyph-name="question" unicode="?" horiz-adv-x="534" 
d="M128 0l23 85h66l-23 -85h-66zM194 183l30 162l7 5c146 11 250 76 250 183c0 84 -68 129 -152 129c-81 0 -151 -43 -196 -88l-32 34c54 54 130 101 232 101c124 0 201 -74 201 -175c0 -133 -123 -206 -265 -226l-43 -125h-32z" />
    <glyph glyph-name="at" unicode="@" horiz-adv-x="980" 
d="M486 -161c-255 0 -420 156 -420 392c0 258 221 481 491 481c248 0 391 -156 391 -353c0 -190 -117 -286 -206 -286c-71 0 -112 39 -121 100c-53 -68 -115 -102 -186 -102c-87 0 -157 63 -157 166c0 146 122 265 243 265c85 0 134 -52 154 -108l30 98l47 -13l-75 -242
c-5 -17 -8 -33 -8 -48c0 -46 26 -79 78 -79c67 0 166 78 166 249c0 179 -132 321 -356 321c-250 0 -456 -209 -456 -449c0 -216 152 -360 385 -360c75 0 139 14 207 45l14 -29c-72 -33 -140 -48 -221 -48zM445 118c101 0 206 102 206 207c0 75 -49 130 -128 130
c-104 0 -189 -99 -189 -216c0 -77 47 -121 111 -121z" />
    <glyph glyph-name="A" unicode="A" horiz-adv-x="759" 
d="M-34 0l515 705h50l137 -705h-53l-36 196h-413l-142 -196h-58zM200 243h369l-75 405z" />
    <glyph glyph-name="B" unicode="B" horiz-adv-x="717" 
d="M36 0l188 700h259c127 0 210 -59 210 -159c0 -103 -83 -169 -185 -189c73 -19 134 -64 134 -146c0 -120 -111 -206 -291 -206h-315zM101 48h253c144 0 235 59 235 158c0 82 -79 123 -185 123h-228zM189 377h216c142 0 234 65 234 159c0 77 -61 116 -161 116h-215z" />
    <glyph glyph-name="C" unicode="C" horiz-adv-x="738" 
d="M378 -13c-155 0 -286 107 -286 284c0 227 187 441 418 441c128 0 214 -65 257 -151l-45 -24c-45 78 -105 128 -215 128c-202 0 -361 -194 -361 -392c0 -147 100 -238 237 -238c104 0 173 41 237 105l35 -32c-64 -67 -148 -121 -277 -121z" />
    <glyph glyph-name="D" unicode="D" horiz-adv-x="771" 
d="M36 0l188 700h157c109 0 209 -31 272 -94c49 -49 77 -114 77 -200c0 -107 -39 -201 -109 -271c-84 -84 -212 -135 -356 -135h-229zM101 48h171c126 0 233 43 310 120c60 60 94 141 94 234c0 72 -23 130 -65 171c-52 52 -134 79 -233 79h-115z" />
    <glyph glyph-name="E" unicode="E" horiz-adv-x="649" 
d="M36 0l188 700h493l-13 -48h-441l-74 -275h396l-13 -48h-396l-75 -281h446l-13 -48h-498z" />
    <glyph glyph-name="F" unicode="F" horiz-adv-x="656" 
d="M36 0l188 700h493l-13 -48h-441l-77 -287h396l-13 -48h-396l-85 -317h-52z" />
    <glyph glyph-name="G" unicode="G" horiz-adv-x="786" 
d="M396 -13c-174 0 -302 115 -302 295c0 216 183 430 427 430c143 0 214 -64 256 -130l-41 -27c-41 61 -97 110 -220 110c-211 0 -368 -192 -368 -381c0 -156 102 -250 251 -250c84 0 152 24 202 57l64 224h-233l13 48h284l-86 -301c-75 -49 -152 -75 -247 -75z" />
    <glyph glyph-name="H" unicode="H" horiz-adv-x="756" 
d="M36 0l188 700h52l-87 -324h443l87 324h52l-188 -700h-52l88 328h-443l-88 -328h-52z" />
    <glyph glyph-name="I" unicode="I" horiz-adv-x="274" 
d="M43 0l188 700h52l-188 -700h-52z" />
    <glyph glyph-name="J" unicode="J" horiz-adv-x="538" 
d="M196 -10c-117 0 -178 72 -201 161l46 16c26 -85 72 -130 153 -130c51 0 93 18 127 52c36 36 60 87 78 153l123 458h52l-125 -465c-21 -79 -49 -135 -93 -179c-43 -43 -103 -66 -160 -66z" />
    <glyph glyph-name="K" unicode="K" horiz-adv-x="714" 
d="M36 0l188 700h52l-122 -455l560 455h77l-389 -313l212 -387h-60l-195 357l-224 -182l-47 -175h-52z" />
    <glyph glyph-name="L" unicode="L" horiz-adv-x="600" 
d="M36 0l188 700h52l-175 -652h411l-13 -48h-463z" />
    <glyph glyph-name="M" unicode="M" horiz-adv-x="869" 
d="M36 0l188 700h43l170 -414l392 414h55l-188 -700h-52l163 608l-385 -403h-4l-169 403l-163 -608h-50z" />
    <glyph glyph-name="N" unicode="N" horiz-adv-x="786" 
d="M36 0l188 700h48l315 -613l165 613h50l-188 -700h-38l-322 626l-168 -626h-50z" />
    <glyph glyph-name="O" unicode="O" horiz-adv-x="846" 
d="M398 -13c-177 0 -302 132 -302 301c0 219 180 424 403 424c177 0 302 -132 302 -301c0 -219 -180 -424 -403 -424zM398 34c197 0 349 184 349 377c0 143 -99 254 -248 254c-197 0 -349 -184 -349 -377c0 -143 99 -254 248 -254z" />
    <glyph glyph-name="P" unicode="P" horiz-adv-x="663" 
d="M36 0l188 700h218c84 0 151 -21 193 -63c31 -31 48 -73 48 -125c0 -159 -134 -250 -346 -250h-178l-71 -262h-52zM171 309h168c188 0 292 73 292 201c0 38 -11 68 -36 93c-32 32 -85 49 -154 49h-178z" />
    <glyph glyph-name="Q" unicode="Q" horiz-adv-x="846" 
d="M692 -24l-72 85c-64 -46 -140 -74 -222 -74c-177 0 -302 132 -302 301c0 219 180 424 403 424c177 0 302 -132 302 -301c0 -122 -57 -241 -146 -321l75 -82zM398 34c71 0 136 24 190 63l-117 130l38 33l114 -134c77 72 124 177 124 285c0 143 -99 254 -248 254
c-197 0 -349 -184 -349 -377c0 -143 99 -254 248 -254z" />
    <glyph glyph-name="R" unicode="R" horiz-adv-x="713" 
d="M36 0l188 700h251c83 0 147 -21 188 -62c29 -29 44 -69 44 -114c0 -58 -23 -107 -62 -146c-46 -46 -121 -74 -206 -83l154 -295h-60l-150 290h-217l-78 -290h-52zM178 337h210c104 0 178 29 220 71c31 31 47 68 47 113c0 33 -11 63 -31 83c-31 31 -79 48 -151 48h-210z
" />
    <glyph glyph-name="S" unicode="S" horiz-adv-x="638" 
d="M299 -10c-127 0 -221 52 -279 134l40 29c60 -77 132 -116 244 -116c115 0 202 65 202 153c0 61 -40 97 -153 141c-143 56 -200 100 -200 186c0 106 100 193 251 193c105 0 192 -45 243 -107l-40 -32c-51 59 -121 92 -208 92c-120 0 -193 -68 -193 -142
c0 -65 52 -99 167 -143c130 -49 186 -98 186 -184c0 -114 -110 -204 -260 -204z" />
    <glyph glyph-name="T" unicode="T" horiz-adv-x="615" 
d="M209 0l175 652h-244l13 48h540l-13 -48h-244l-175 -652h-52z" />
    <glyph glyph-name="U" unicode="U" horiz-adv-x="756" 
d="M348 -11c-168 0 -252 95 -252 220c0 38 5 73 14 108l102 383h52l-108 -407c-5 -20 -9 -50 -9 -80c0 -100 65 -177 205 -177c62 0 123 24 171 72c39 39 75 101 98 186l109 406h52l-112 -417c-24 -89 -62 -157 -111 -206c-57 -57 -130 -88 -211 -88z" />
    <glyph glyph-name="V" unicode="V" horiz-adv-x="714" 
d="M259 -5l-117 705h54l99 -644l446 644h59l-495 -705h-46z" />
    <glyph glyph-name="W" unicode="W" horiz-adv-x="1074" 
d="M215 -5l-65 705h54l53 -623l372 625h40l38 -625l387 623h58l-443 -705h-42l-42 608l-368 -608h-42z" />
    <glyph glyph-name="X" unicode="X" horiz-adv-x="692" 
d="M-23 0l366 362l-186 338h56l167 -308l310 308h67l-352 -347l192 -353h-56l-173 323l-324 -323h-67z" />
    <glyph glyph-name="Y" unicode="Y" horiz-adv-x="668" 
d="M234 0l76 284l-183 416h57l161 -376l364 376h70l-421 -429l-72 -271h-52z" />
    <glyph glyph-name="Z" unicode="Z" horiz-adv-x="662" 
d="M-19 0l8 29l636 624h-452l13 47h533l-8 -29l-636 -624h472l-13 -47h-553z" />
    <glyph glyph-name="bracketleft" unicode="[" horiz-adv-x="430" 
d="M16 -130l223 830h273l-11 -38h-227l-202 -754h227l-10 -38h-273z" />
    <glyph glyph-name="backslash" unicode="\" 
d="M368 -128l-221 926h44l221 -926h-44z" />
    <glyph glyph-name="bracketright" unicode="]" horiz-adv-x="430" 
d="M-67 -130l11 38h227l202 754h-227l10 38h273l-223 -830h-273z" />
    <glyph glyph-name="asciicircum" unicode="^" 
d="M129 493l214 210h44l102 -210h-47l-83 167l-173 -167h-57z" />
    <glyph glyph-name="underscore" unicode="_" horiz-adv-x="600" 
d="M-114 -160l12 44h605l-12 -44h-605z" />
    <glyph glyph-name="grave" unicode="`" 
d="M368 595l-79 103l62 30l52 -133h-35z" />
    <glyph glyph-name="a" unicode="a" horiz-adv-x="571" 
d="M190 -12c-85 0 -167 48 -167 143c0 113 96 185 230 185c73 0 145 -15 196 -29l4 14c4 15 7 37 7 51c0 77 -54 120 -154 120c-56 0 -99 -10 -148 -27l-9 44c50 18 98 29 161 29c125 0 198 -61 198 -159c0 -19 -4 -44 -10 -67l-78 -292h-48l23 88
c-49 -58 -116 -100 -205 -100zM199 33c96 0 200 67 228 170l12 45c-52 13 -118 24 -193 24c-102 0 -171 -56 -171 -135c0 -63 48 -104 124 -104z" />
    <glyph glyph-name="b" unicode="b" horiz-adv-x="654" 
d="M312 -13c-114 0 -177 70 -203 143l-35 -130h-49l196 730h49l-87 -320c51 61 121 112 212 112c118 0 205 -89 205 -215c0 -181 -136 -320 -288 -320zM310 33c138 0 237 127 237 268c0 105 -65 175 -158 175c-127 0 -255 -129 -255 -265c0 -98 71 -178 176 -178z" />
    <glyph glyph-name="c" unicode="c" horiz-adv-x="563" 
d="M272 -12c-112 0 -222 80 -222 220c0 167 139 314 300 314c104 0 169 -59 200 -123l-41 -23c-31 54 -77 100 -162 100c-130 0 -244 -125 -244 -265c0 -115 83 -177 172 -177c66 0 118 29 165 73l33 -32c-52 -50 -117 -87 -201 -87z" />
    <glyph glyph-name="d" unicode="d" horiz-adv-x="654" 
d="M259 -13c-118 0 -205 89 -205 215c0 181 136 320 288 320c114 0 177 -70 203 -143l94 351h49l-195 -730h-49l26 99c-51 -61 -120 -112 -211 -112zM265 33c127 0 255 129 255 265c0 98 -71 178 -176 178c-138 0 -237 -127 -237 -268c0 -105 65 -175 158 -175z" />
    <glyph glyph-name="e" unicode="e" horiz-adv-x="583" 
d="M272 -12c-130 0 -222 88 -222 214c0 159 129 320 295 320c128 0 193 -90 193 -195c0 -34 -5 -63 -14 -89h-419c-1 -11 -2 -23 -2 -34c0 -103 69 -170 169 -170c77 0 125 28 174 68l29 -35c-53 -44 -111 -79 -203 -79zM114 282h370c2 9 4 23 4 42c0 82 -45 153 -144 153
c-114 0 -201 -90 -230 -195z" />
    <glyph glyph-name="f" unicode="f" horiz-adv-x="362" 
d="M55 0l125 465h-74l12 45h74l20 74c26 98 82 146 163 146c38 0 74 -9 102 -24l-12 -44c-34 16 -59 24 -92 24c-53 0 -95 -34 -115 -113l-17 -63h184l-12 -45h-184l-125 -465h-49z" />
    <glyph glyph-name="g" unicode="g" horiz-adv-x="654" 
d="M236 -162c-90 0 -180 37 -241 95l36 36c54 -51 124 -85 207 -85c71 0 124 24 157 57c34 34 54 77 70 134l18 64c-51 -54 -118 -101 -210 -101c-109 0 -213 74 -213 198c0 170 145 286 289 286c118 0 170 -69 199 -136l33 124h49l-119 -447c-19 -70 -45 -117 -80 -152
c-48 -48 -110 -73 -195 -73zM282 84c128 0 244 113 244 228c0 81 -67 163 -179 163c-119 0 -234 -96 -234 -236c0 -102 83 -155 169 -155z" />
    <glyph glyph-name="h" unicode="h" horiz-adv-x="609" 
d="M25 0l196 730h49l-85 -315c50 60 107 107 193 107c101 0 167 -64 167 -162c0 -22 -5 -48 -11 -72l-76 -288h-49l78 292c5 19 8 44 8 63c0 76 -50 123 -131 123c-87 0 -183 -79 -213 -190l-77 -288h-49z" />
    <glyph glyph-name="i" unicode="i" horiz-adv-x="250" 
d="M32 0l137 510h49l-137 -510h-49zM199 643l18 67h61l-18 -67h-61z" />
    <glyph glyph-name="j" unicode="j" horiz-adv-x="249" 
d="M-52 -163c-22 0 -39 2 -63 10l12 44c14 -4 33 -8 47 -8c34 0 62 21 75 69l150 558h49l-151 -562c-19 -70 -62 -111 -119 -111zM199 643l18 67h61l-18 -67h-61z" />
    <glyph glyph-name="k" unicode="k" horiz-adv-x="560" 
d="M25 0l196 730h49l-145 -541l396 321h71l-284 -228l152 -282h-57l-136 252l-160 -128l-33 -124h-49z" />
    <glyph glyph-name="l" unicode="l" horiz-adv-x="250" 
d="M32 0l196 730h49l-196 -730h-49z" />
    <glyph glyph-name="m" unicode="m" horiz-adv-x="951" 
d="M25 0l136 510h49l-25 -95c50 61 101 107 183 107c92 0 138 -64 149 -125c46 76 118 125 214 125c92 0 159 -67 159 -162c0 -22 -7 -48 -13 -72l-76 -288h-49l78 292c5 19 8 44 8 63c0 75 -47 123 -121 123c-82 0 -174 -81 -203 -190l-76 -288h-49l78 292c5 19 8 44 8 63
c0 75 -47 123 -121 123c-82 0 -174 -81 -203 -190l-77 -288h-49z" />
    <glyph glyph-name="n" unicode="n" horiz-adv-x="611" 
d="M25 0l136 510h49l-25 -95c50 60 107 107 193 107c101 0 167 -64 167 -162c0 -22 -5 -48 -11 -72l-76 -288h-49l78 292c5 19 8 44 8 63c0 76 -50 123 -131 123c-87 0 -183 -79 -213 -190l-77 -288h-49z" />
    <glyph glyph-name="o" unicode="o" horiz-adv-x="633" 
d="M278 -12c-135 0 -227 95 -227 226c0 161 140 308 303 308c135 0 227 -95 227 -226c0 -166 -145 -308 -303 -308zM283 34c124 0 245 119 245 260c0 115 -73 182 -179 182c-129 0 -245 -124 -245 -260c0 -115 73 -182 179 -182z" />
    <glyph glyph-name="p" unicode="p" horiz-adv-x="654" 
d="M-18 -160l180 670h48l-27 -100c51 61 121 112 212 112c118 0 205 -89 205 -215c0 -181 -136 -320 -288 -320c-114 0 -177 70 -203 143l-78 -290h-49zM310 33c138 0 237 127 237 268c0 105 -65 175 -158 175c-127 0 -255 -129 -255 -265c0 -98 71 -178 176 -178z" />
    <glyph glyph-name="q" unicode="q" horiz-adv-x="654" 
d="M391 -200l80 300c-51 -61 -121 -113 -212 -113c-118 0 -205 89 -205 215c0 181 136 320 288 320c114 0 177 -69 203 -142l35 130h49l-189 -710h-49zM265 33c127 0 255 130 255 266c0 98 -71 177 -176 177c-138 0 -237 -127 -237 -268c0 -105 65 -175 158 -175z" />
    <glyph glyph-name="r" unicode="r" horiz-adv-x="396" 
d="M25 0l136 510h49l-38 -145c67 94 154 159 262 153l-14 -54h-4c-118 0 -243 -93 -286 -255l-56 -209h-49z" />
    <glyph glyph-name="s" unicode="s" horiz-adv-x="495" 
d="M217 -11c-79 0 -158 30 -216 88l35 35c56 -54 120 -78 187 -78c65 0 132 40 132 101c0 39 -22 68 -111 101c-97 36 -143 70 -143 137c0 81 74 148 189 148c72 0 141 -32 184 -68l-32 -37c-39 32 -97 60 -157 60c-86 0 -132 -47 -132 -95c0 -39 20 -63 115 -100
c102 -40 139 -77 139 -138c0 -89 -87 -154 -190 -154z" />
    <glyph glyph-name="t" unicode="t" horiz-adv-x="396" 
d="M206 -9c-68 0 -122 31 -122 101c0 16 3 36 6 49l87 324h-74l12 45h74l44 163h49l-44 -163h176l-12 -45h-176l-87 -325c-3 -13 -5 -31 -5 -43c0 -42 32 -61 83 -61c22 0 45 5 74 16l-13 -48c-27 -10 -46 -13 -72 -13z" />
    <glyph glyph-name="u" unicode="u" horiz-adv-x="609" 
d="M231 -12c-101 0 -167 64 -167 162c0 22 5 48 11 72l76 288h49l-78 -292c-5 -19 -8 -44 -8 -63c0 -76 50 -123 131 -123c87 0 183 79 213 190l77 288h49l-136 -510h-49l25 95c-50 -60 -107 -107 -193 -107z" />
    <glyph glyph-name="v" unicode="v" horiz-adv-x="557" 
d="M179 -4l-90 514h53l71 -455l313 455h59l-364 -514h-42z" />
    <glyph glyph-name="w" unicode="w" horiz-adv-x="845" 
d="M148 -4l-49 514h50l37 -444l273 446h39l35 -446l275 444h54l-325 -514h-43l-35 437l-270 -437h-41z" />
    <glyph glyph-name="x" unicode="x" horiz-adv-x="559" 
d="M-29 0l284 264l-135 246h56l112 -215l224 215h66l-268 -250l141 -260h-56l-118 229l-240 -229h-66z" />
    <glyph glyph-name="y" unicode="y" horiz-adv-x="568" 
d="M20 -163c-39 0 -75 12 -108 35l27 40c21 -17 60 -29 87 -29c52 0 100 30 163 120l-104 507h52l89 -456l307 456h59l-363 -528c-74 -107 -136 -145 -209 -145z" />
    <glyph glyph-name="z" unicode="z" horiz-adv-x="546" 
d="M-17 0l8 28l475 438h-344l12 44h424l-8 -28l-475 -438h361l-12 -44h-441z" />
    <glyph glyph-name="braceleft" unicode="{" horiz-adv-x="480" 
d="M312 -141c-116 25 -158 95 -158 167c0 34 6 58 23 120c6 21 9 39 9 55c0 43 -26 67 -95 67h-26l10 38h26c105 0 142 51 169 184c26 132 83 214 271 225l-3 -37c-148 -8 -198 -77 -220 -193c-27 -140 -67 -185 -153 -200c47 -14 69 -41 69 -83c0 -15 -3 -37 -9 -57
c-10 -34 -22 -81 -22 -115c0 -66 32 -115 123 -140z" />
    <glyph glyph-name="bar" unicode="|" horiz-adv-x="286" 
d="M141 -128v926h44v-926h-44z" />
    <glyph glyph-name="braceright" unicode="}" horiz-adv-x="480" 
d="M-44 -141l3 37c148 8 198 77 220 193c27 140 67 185 153 200c-47 14 -69 41 -69 83c0 15 3 37 9 57c10 34 22 81 22 115c0 66 -32 115 -123 140l14 31c116 -25 158 -95 158 -167c0 -34 -6 -58 -23 -120c-6 -21 -9 -39 -9 -55c0 -43 26 -67 95 -67h26l-10 -38h-26
c-105 0 -142 -51 -169 -184c-27 -132 -83 -214 -271 -225z" />
    <glyph glyph-name="asciitilde" unicode="~" horiz-adv-x="460" 
d="M125 245l-38 15c32 65 61 96 104 96c30 0 45 -14 67 -35s31 -30 48 -30c21 0 36 20 59 60l38 -15c-32 -65 -61 -96 -104 -96c-30 0 -45 14 -67 35s-31 30 -48 30c-21 0 -36 -20 -59 -60z" />
    <glyph glyph-name="nbspace" horiz-adv-x="300" 
 />
    <glyph glyph-name="uni00A0" unicode="&#xa0;" horiz-adv-x="300" 
 />
    <glyph glyph-name="exclamdown" unicode="&#xa1;" horiz-adv-x="251" 
d="M28 0l19 70l135 447h28l-105 -447l-19 -70h-58zM189 615l23 85h66l-23 -85h-66z" />
    <glyph glyph-name="cent" unicode="&#xa2;" horiz-adv-x="558" 
d="M160 -6l44 111c-78 33 -129 108 -129 198c0 172 137 318 305 318c9 0 18 0 27 -1l34 86h50l-38 -94c70 -18 113 -64 135 -113l-41 -23c-24 43 -56 79 -114 93l-170 -433c11 -2 23 -3 36 -3c73 0 129 28 179 73l33 -32c-56 -52 -122 -87 -215 -87c-16 0 -32 2 -47 5
l-39 -98h-50zM223 148l168 427h-14c-138 0 -249 -124 -249 -271c0 -71 35 -130 95 -156z" />
    <glyph glyph-name="sterling" unicode="&#xa3;" horiz-adv-x="624" 
d="M-2 0l7 25l91 20l70 260h-86l13 48h86l35 131c17 64 45 120 80 155c44 44 95 68 163 68c92 0 151 -46 186 -110l-43 -26c-34 55 -75 89 -146 89c-49 0 -89 -18 -121 -50c-31 -31 -54 -76 -70 -135l-33 -122h298l-13 -48h-298l-69 -258h374l-13 -47h-511z" />
    <glyph glyph-name="currency" unicode="&#xa4;" horiz-adv-x="684" 
d="M372 -12c-135 0 -236 97 -243 257h-92l13 48h80c2 42 9 84 21 123h-69l13 48h73c57 142 174 248 325 248c117 0 189 -71 219 -159l-45 -18c-33 79 -84 130 -183 130c-113 0 -209 -84 -261 -201h301l-13 -48h-306c-12 -39 -20 -81 -22 -123h296l-13 -48h-283
c6 -123 74 -210 190 -210c86 0 146 37 201 98l35 -30c-60 -67 -130 -115 -237 -115z" />
    <glyph glyph-name="yen" unicode="&#xa5;" horiz-adv-x="700" 
d="M251 0l33 125h-210l12 45h210l26 98h-210l12 45h190l-170 387h59l161 -376l364 376h68l-380 -387h184l-12 -45h-214l-26 -98h214l-12 -45h-214l-33 -125h-52z" />
    <glyph glyph-name="brokenbar" unicode="&#xa6;" horiz-adv-x="222" 
d="M138 411h-54v250h54v-250zM138 -89h-54v250h54v-250z" />
    <glyph glyph-name="section" unicode="&#xa7;" horiz-adv-x="632" 
d="M288 -10c-92 0 -177 39 -221 82l33 37c40 -38 112 -74 195 -74c68 0 122 31 122 78c0 42 -43 69 -139 103c-125 44 -188 81 -188 146c0 78 86 128 198 128c-41 18 -77 51 -77 96c0 78 82 124 181 124c92 0 177 -39 221 -82l-33 -37c-40 38 -112 74 -195 74
c-68 0 -122 -31 -122 -78c0 -42 43 -69 139 -103c125 -44 188 -81 188 -146c0 -78 -86 -128 -198 -128c41 -18 77 -51 77 -96c0 -78 -82 -124 -181 -124zM392 245c84 0 146 41 146 89c0 39 -37 67 -133 100c-41 14 -71 21 -117 21c-84 0 -146 -41 -146 -89
c0 -39 37 -67 133 -100c40 -14 71 -21 117 -21z" />
    <glyph glyph-name="dieresis" unicode="&#xa8;" 
d="M213 595l22 80h69l-22 -80h-69zM376 595l22 80h69l-22 -80h-69z" />
    <glyph glyph-name="copyright" unicode="&#xa9;" horiz-adv-x="830" 
d="M439 -12c-203 0 -361 163 -361 361s160 363 363 363s361 -163 361 -361s-160 -363 -363 -363zM439 16c190 0 333 151 333 335s-142 333 -331 333c-190 0 -333 -151 -333 -335s142 -333 331 -333zM444 166c-103 0 -182 85 -182 189c0 103 78 190 183 190
c65 0 104 -26 141 -61l-30 -31c-29 28 -65 52 -112 52c-81 0 -138 -67 -138 -149s62 -150 139 -150c49 0 80 19 115 52l28 -28c-39 -38 -79 -64 -144 -64z" />
    <glyph glyph-name="ordfeminine" unicode="&#xaa;" horiz-adv-x="390" 
d="M58 293l10 40h244l-10 -40h-244zM191 410c-47 0 -85 29 -85 75c0 64 55 106 131 106c35 0 70 -8 97 -15l2 6c2 7 4 19 4 27c0 37 -26 58 -78 58c-30 0 -55 -6 -80 -15l-7 35c28 10 57 17 94 17c71 0 111 -34 111 -88c0 -12 -3 -26 -6 -39l-43 -161h-40l14 50
c-29 -32 -66 -56 -114 -56zM201 442c51 0 108 42 122 92l4 14c-25 6 -56 12 -90 12c-52 0 -89 -29 -89 -71c0 -28 21 -47 53 -47z" />
    <glyph glyph-name="guillemotleft" unicode="&#xab;" horiz-adv-x="515" 
d="M149 42l-104 209l2 8l216 209l36 -28l-192 -192l83 -184zM353 42l-104 209l2 8l216 209l36 -28l-192 -192l83 -184z" />
    <glyph glyph-name="logicalnot" unicode="&#xac;" horiz-adv-x="640" 
d="M524 259h-50l48 180h-404l14 51h454z" />
    <glyph glyph-name="uni00AD" unicode="&#xad;" horiz-adv-x="409" 
d="M74 269l15 56h268l-15 -56h-268z" />
    <glyph glyph-name="registered" unicode="&#xae;" horiz-adv-x="830" 
d="M439 -12c-203 0 -361 163 -361 361s160 363 363 363s361 -163 361 -361s-160 -363 -363 -363zM439 16c190 0 333 151 333 335s-142 333 -331 333c-190 0 -333 -151 -333 -335s142 -333 331 -333zM301 177v366h164c78 0 135 -41 135 -106c0 -60 -41 -95 -100 -106
l122 -154h-56l-116 147h-106v-147h-43zM344 364h114c55 0 97 24 97 71c0 42 -35 67 -92 67h-119v-138z" />
    <glyph glyph-name="macron" unicode="&#xaf;" 
d="M190 600l14 53h300l-14 -53h-300z" />
    <glyph glyph-name="degree" unicode="&#xb0;" horiz-adv-x="366" 
d="M214 411c-74 0 -126 54 -126 126c0 89 76 168 166 168c74 0 126 -54 126 -126c0 -89 -76 -168 -166 -168zM219 453c61 0 116 57 116 121c0 55 -36 89 -86 89c-61 0 -116 -57 -116 -121c0 -55 36 -89 86 -89z" />
    <glyph glyph-name="plusminus" unicode="&#xb1;" horiz-adv-x="640" 
d="M567 294h-222l-47 -178h-53l47 178h-222l13 48h222l48 177h53l-48 -177h222zM494 22h-497l13 48h497z" />
    <glyph glyph-name="twosuperior" unicode="&#xb2;" 
d="M0 0v700h500v-700h-500zM81 49h339l-170 255zM49 96l171 254l-171 254v-508zM450 96v508l-171 -254zM250 395l170 255h-339z" />
    <glyph glyph-name="threesuperior" unicode="&#xb3;" 
d="M0 0v700h500v-700h-500zM81 49h339l-170 255zM49 96l171 254l-171 254v-508zM450 96v508l-171 -254zM250 395l170 255h-339z" />
    <glyph glyph-name="acute" unicode="&#xb4;" 
d="M251 595l124 133l62 -30l-135 -103h-51z" />
    <glyph glyph-name="mu" unicode="&#xb5;" horiz-adv-x="623" 
d="M226 -12c-80 0 -113 44 -131 91l-63 -239h-49l179 670h49l-81 -303c-6 -22 -9 -42 -9 -61c0 -70 42 -113 124 -113c100 0 198 76 226 182l79 295h49l-136 -510h-49l24 89c-50 -60 -119 -101 -212 -101z" />
    <glyph glyph-name="paragraph" unicode="&#xb6;" horiz-adv-x="486" 
d="M260 0l70 263c-123 7 -228 57 -228 183c0 159 124 254 326 254h73l-188 -700h-53z" />
    <glyph glyph-name="periodcentered" unicode="&#xb7;" horiz-adv-x="231" 
d="M82 255l23 85h66l-23 -85h-66z" />
    <glyph glyph-name="cedilla" unicode="&#xb8;" 
d="M118 -148l-48 26l125 132h43z" />
    <glyph glyph-name="onesuperior" unicode="&#xb9;" 
d="M0 0v700h500v-700h-500zM81 49h339l-170 255zM49 96l171 254l-171 254v-508zM450 96v508l-171 -254zM250 395l170 255h-339z" />
    <glyph glyph-name="ordmasculine" unicode="&#xba;" horiz-adv-x="390" 
d="M60 293l10 40h268l-10 -40h-268zM245 407c-78 0 -130 55 -130 129c0 89 75 169 167 169c77 0 130 -55 130 -129c0 -89 -75 -169 -167 -169zM248 444c66 0 121 62 121 130c0 57 -37 94 -90 94c-67 0 -122 -62 -122 -130c0 -57 38 -94 91 -94z" />
    <glyph glyph-name="guillemotright" unicode="&#xbb;" horiz-adv-x="515" 
d="M47 41l-36 28l192 192l-83 184l41 22l104 -209l-2 -8zM251 41l-36 28l192 192l-83 184l41 22l104 -209l-2 -8z" />
    <glyph glyph-name="onequarter" unicode="&#xbc;" 
d="M0 0v700h500v-700h-500zM81 49h339l-170 255zM49 96l171 254l-171 254v-508zM450 96v508l-171 -254zM250 395l170 255h-339z" />
    <glyph glyph-name="onehalf" unicode="&#xbd;" 
d="M0 0v700h500v-700h-500zM81 49h339l-170 255zM49 96l171 254l-171 254v-508zM450 96v508l-171 -254zM250 395l170 255h-339z" />
    <glyph glyph-name="threequarters" unicode="&#xbe;" 
d="M0 0v700h500v-700h-500zM81 49h339l-170 255zM49 96l171 254l-171 254v-508zM450 96v508l-171 -254zM250 395l170 255h-339z" />
    <glyph glyph-name="questiondown" unicode="&#xbf;" horiz-adv-x="534" 
d="M252 -9c-124 0 -201 74 -201 175c0 133 123 206 265 226l43 125h32l-30 -162l-7 -5c-146 -11 -250 -76 -250 -183c0 -84 68 -129 152 -129c81 0 151 43 196 88l32 -34c-54 -54 -130 -101 -232 -101zM368 615l23 85h66l-23 -85h-66z" />
    <glyph glyph-name="Agrave" unicode="&#xc0;" horiz-adv-x="759" 
d="M-34 0l515 705h50l137 -705h-53l-36 196h-413l-142 -196h-58zM200 243h369l-75 405zM517 765l-79 103l62 30l52 -133h-35z" />
    <glyph glyph-name="Aacute" unicode="&#xc1;" horiz-adv-x="759" 
d="M-34 0l515 705h50l137 -705h-53l-36 196h-413l-142 -196h-58zM200 243h369l-75 405zM489 765l124 133l62 -30l-135 -103h-51z" />
    <glyph glyph-name="Acircumflex" unicode="&#xc2;" horiz-adv-x="759" 
d="M-34 0l515 705h50l137 -705h-53l-36 196h-413l-142 -196h-58zM200 243h369l-75 405zM401 765l133 122h40l67 -122h-44l-52 68l-96 -68h-48z" />
    <glyph glyph-name="Atilde" unicode="&#xc3;" horiz-adv-x="759" 
d="M-34 0l515 705h50l137 -705h-53l-36 196h-413l-142 -196h-58zM200 243h369l-75 405zM416 763l-38 15c32 65 61 96 104 96c30 0 45 -14 67 -35s31 -30 48 -30c21 0 36 20 59 60l38 -15c-32 -65 -61 -96 -104 -96c-30 0 -45 14 -67 35s-31 30 -48 30c-21 0 -36 -20 -59 -60
z" />
    <glyph glyph-name="Adieresis" unicode="&#xc4;" horiz-adv-x="759" 
d="M-34 0l515 705h50l137 -705h-53l-36 196h-413l-142 -196h-58zM200 243h369l-75 405zM412 765l22 80h69l-22 -80h-69zM575 765l22 80h69l-22 -80h-69z" />
    <glyph glyph-name="Aring" unicode="&#xc5;" horiz-adv-x="759" 
d="M-24 0l498 681c-29 14 -46 40 -46 71c0 57 49 102 106 102s96 -35 96 -82c0 -49 -36 -89 -83 -100l131 -672h-53l-36 196h-413l-142 -196h-58zM210 243h369l-75 405zM524 702c39 0 70 31 70 70c0 29 -21 50 -60 50s-70 -31 -70 -70c0 -29 21 -50 60 -50z" />
    <glyph glyph-name="AE" unicode="&#xc6;" horiz-adv-x="1068" 
d="M-32 0l611 700h541l-13 -48h-431l-74 -275h386l-13 -48h-386l-75 -281h436l-13 -48h-488l53 196h-301l-170 -196h-63zM242 243h272l110 410h-27z" />
    <glyph glyph-name="Ccedilla" unicode="&#xc7;" horiz-adv-x="738" 
d="M271 -148l-48 26l107 113c-133 20 -238 122 -238 280c0 227 187 441 418 441c128 0 214 -65 257 -151l-45 -24c-45 78 -105 128 -215 128c-202 0 -361 -194 -361 -392c0 -147 100 -238 237 -238c104 0 173 41 237 105l35 -32c-64 -67 -148 -121 -277 -121h-4z" />
    <glyph glyph-name="Egrave" unicode="&#xc8;" horiz-adv-x="649" 
d="M36 0l188 700h493l-13 -48h-441l-74 -275h396l-13 -48h-396l-75 -281h446l-13 -48h-498zM480 765l-79 103l62 30l52 -133h-35z" />
    <glyph glyph-name="Eacute" unicode="&#xc9;" horiz-adv-x="649" 
d="M36 0l188 700h493l-13 -48h-441l-74 -275h396l-13 -48h-396l-75 -281h446l-13 -48h-498zM413 765l124 133l62 -30l-135 -103h-51z" />
    <glyph glyph-name="Ecircumflex" unicode="&#xca;" horiz-adv-x="649" 
d="M36 0l188 700h493l-13 -48h-441l-74 -275h396l-13 -48h-396l-75 -281h446l-13 -48h-498zM355 765l133 122h40l67 -122h-44l-52 68l-96 -68h-48z" />
    <glyph glyph-name="Edieresis" unicode="&#xcb;" horiz-adv-x="649" 
d="M36 0l188 700h493l-13 -48h-441l-74 -275h396l-13 -48h-396l-75 -281h446l-13 -48h-498zM365 765l22 80h69l-22 -80h-69zM528 765l22 80h69l-22 -80h-69z" />
    <glyph glyph-name="Igrave" unicode="&#xcc;" horiz-adv-x="274" 
d="M43 0l188 700h52l-188 -700h-52zM264 765l-79 103l62 30l52 -133h-35z" />
    <glyph glyph-name="Iacute" unicode="&#xcd;" horiz-adv-x="274" 
d="M43 0l188 700h52l-188 -700h-52zM232 765l124 133l62 -30l-135 -103h-51z" />
    <glyph glyph-name="Icircumflex" unicode="&#xce;" horiz-adv-x="274" 
d="M43 0l188 700h52l-188 -700h-52zM148 765l133 122h40l67 -122h-44l-52 68l-96 -68h-48z" />
    <glyph glyph-name="Idieresis" unicode="&#xcf;" horiz-adv-x="274" 
d="M43 0l188 700h52l-188 -700h-52zM159 765l22 80h69l-22 -80h-69zM322 765l22 80h69l-22 -80h-69z" />
    <glyph glyph-name="Eth" unicode="&#xd0;" horiz-adv-x="801" 
d="M66 0l88 328h-75l13 48h75l87 324h157c109 0 209 -31 272 -94c49 -49 77 -114 77 -200c0 -107 -39 -201 -109 -271c-84 -84 -212 -135 -356 -135h-229zM131 48h171c126 0 233 43 310 120c60 60 94 141 94 234c0 72 -23 130 -65 171c-52 52 -134 79 -233 79h-115l-74 -276
h232l-13 -48h-232z" />
    <glyph glyph-name="Ntilde" unicode="&#xd1;" horiz-adv-x="786" 
d="M36 0l188 700h48l315 -613l165 613h50l-188 -700h-38l-322 626l-168 -626h-50zM407 763l-38 15c32 65 61 96 104 96c30 0 45 -14 67 -35s31 -30 48 -30c21 0 36 20 59 60l38 -15c-32 -65 -61 -96 -104 -96c-30 0 -45 14 -67 35s-31 30 -48 30c-21 0 -36 -20 -59 -60z" />
    <glyph glyph-name="Ograve" unicode="&#xd2;" horiz-adv-x="846" 
d="M398 -13c-177 0 -302 132 -302 301c0 219 180 424 403 424c177 0 302 -132 302 -301c0 -219 -180 -424 -403 -424zM398 34c197 0 349 184 349 377c0 143 -99 254 -248 254c-197 0 -349 -184 -349 -377c0 -143 99 -254 248 -254zM546 765l-79 103l62 30l52 -133h-35z" />
    <glyph glyph-name="Oacute" unicode="&#xd3;" horiz-adv-x="846" 
d="M398 -13c-177 0 -302 132 -302 301c0 219 180 424 403 424c177 0 302 -132 302 -301c0 -219 -180 -424 -403 -424zM398 34c197 0 349 184 349 377c0 143 -99 254 -248 254c-197 0 -349 -184 -349 -377c0 -143 99 -254 248 -254zM469 765l124 133l62 -30l-135 -103h-51z
" />
    <glyph glyph-name="Ocircumflex" unicode="&#xd4;" horiz-adv-x="846" 
d="M398 -13c-177 0 -302 132 -302 301c0 219 180 424 403 424c177 0 302 -132 302 -301c0 -219 -180 -424 -403 -424zM398 34c197 0 349 184 349 377c0 143 -99 254 -248 254c-197 0 -349 -184 -349 -377c0 -143 99 -254 248 -254zM420 765l133 122h40l67 -122h-44l-52 68
l-96 -68h-48z" />
    <glyph glyph-name="Otilde" unicode="&#xd5;" horiz-adv-x="846" 
d="M398 -13c-177 0 -302 132 -302 301c0 219 180 424 403 424c177 0 302 -132 302 -301c0 -219 -180 -424 -403 -424zM398 34c197 0 349 184 349 377c0 143 -99 254 -248 254c-197 0 -349 -184 -349 -377c0 -143 99 -254 248 -254zM421 763l-38 15c32 65 61 96 104 96
c30 0 45 -14 67 -35s31 -30 48 -30c21 0 36 20 59 60l38 -15c-32 -65 -61 -96 -104 -96c-30 0 -45 14 -67 35s-31 30 -48 30c-21 0 -36 -20 -59 -60z" />
    <glyph glyph-name="Odieresis" unicode="&#xd6;" horiz-adv-x="846" 
d="M398 -13c-177 0 -302 132 -302 301c0 219 180 424 403 424c177 0 302 -132 302 -301c0 -219 -180 -424 -403 -424zM398 34c197 0 349 184 349 377c0 143 -99 254 -248 254c-197 0 -349 -184 -349 -377c0 -143 99 -254 248 -254zM421 765l22 80h69l-22 -80h-69zM584 765
l22 80h69l-22 -80h-69z" />
    <glyph glyph-name="multiply" unicode="&#xd7;" horiz-adv-x="640" 
d="M589 154l-37 -37l-197 198l-196 -198l-37 37l197 197l-197 197l37 37l196 -198l197 198l37 -37l-197 -197z" />
    <glyph glyph-name="Oslash" unicode="&#xd8;" horiz-adv-x="846" 
d="M398 -13c-97 0 -178 40 -232 103l-114 -95h-69l157 131c-28 47 -44 102 -44 162c0 219 180 424 403 424c94 0 173 -37 227 -97l107 90h69l-149 -125c30 -48 48 -106 48 -169c0 -219 -180 -424 -403 -424zM398 34c197 0 349 184 349 377c0 51 -12 97 -34 136l-509 -425
c43 -55 111 -88 194 -88zM180 159l508 424c-44 51 -109 82 -189 82c-197 0 -349 -184 -349 -377c0 -48 10 -91 30 -129z" />
    <glyph glyph-name="Ugrave" unicode="&#xd9;" horiz-adv-x="756" 
d="M348 -11c-168 0 -252 95 -252 220c0 38 5 73 14 108l102 383h52l-108 -407c-5 -20 -9 -50 -9 -80c0 -100 65 -177 205 -177c62 0 123 24 171 72c39 39 75 101 98 186l109 406h52l-112 -417c-24 -89 -62 -157 -111 -206c-57 -57 -130 -88 -211 -88zM506 765l-79 103l62 30
l52 -133h-35z" />
    <glyph glyph-name="Uacute" unicode="&#xda;" horiz-adv-x="756" 
d="M348 -11c-168 0 -252 95 -252 220c0 38 5 73 14 108l102 383h52l-108 -407c-5 -20 -9 -50 -9 -80c0 -100 65 -177 205 -177c62 0 123 24 171 72c39 39 75 101 98 186l109 406h52l-112 -417c-24 -89 -62 -157 -111 -206c-57 -57 -130 -88 -211 -88zM439 765l124 133
l62 -30l-135 -103h-51z" />
    <glyph glyph-name="Ucircumflex" unicode="&#xdb;" horiz-adv-x="756" 
d="M348 -11c-168 0 -252 95 -252 220c0 38 5 73 14 108l102 383h52l-108 -407c-5 -20 -9 -50 -9 -80c0 -100 65 -177 205 -177c62 0 123 24 171 72c39 39 75 101 98 186l109 406h52l-112 -417c-24 -89 -62 -157 -111 -206c-57 -57 -130 -88 -211 -88zM387 765l133 122h40
l67 -122h-44l-52 68l-96 -68h-48z" />
    <glyph glyph-name="Udieresis" unicode="&#xdc;" horiz-adv-x="756" 
d="M348 -11c-168 0 -252 95 -252 220c0 38 5 73 14 108l102 383h52l-108 -407c-5 -20 -9 -50 -9 -80c0 -100 65 -177 205 -177c62 0 123 24 171 72c39 39 75 101 98 186l109 406h52l-112 -417c-24 -89 -62 -157 -111 -206c-57 -57 -130 -88 -211 -88zM392 765l22 80h69
l-22 -80h-69zM555 765l22 80h69l-22 -80h-69z" />
    <glyph glyph-name="Yacute" unicode="&#xdd;" horiz-adv-x="668" 
d="M234 0l76 284l-183 416h57l161 -376l364 376h70l-421 -429l-72 -271h-52zM395 765l124 133l62 -30l-135 -103h-51z" />
    <glyph glyph-name="Thorn" unicode="&#xde;" horiz-adv-x="668" 
d="M36 0l188 700h51l-33 -127h166c84 0 151 -21 193 -63c31 -31 48 -73 48 -125c0 -159 -134 -250 -346 -250h-178l-37 -135h-52zM137 182h168c188 0 292 73 292 201c0 38 -11 68 -36 93c-32 32 -85 49 -154 49h-178z" />
    <glyph glyph-name="germandbls" unicode="&#xdf;" horiz-adv-x="620" 
d="M220 -2l12 44c184 2 261 77 261 160c0 75 -66 119 -181 140l12 45c157 37 222 100 222 187c0 67 -50 117 -138 117c-98 0 -170 -78 -204 -206l-130 -485h-49l134 500c18 68 48 128 87 167c45 45 103 70 166 70c108 0 187 -68 187 -161c0 -119 -97 -179 -212 -211
c88 -23 159 -73 159 -164c0 -116 -121 -205 -326 -203z" />
    <glyph glyph-name="agrave" unicode="&#xe0;" horiz-adv-x="571" 
d="M190 -12c-85 0 -167 48 -167 143c0 113 96 185 230 185c73 0 145 -15 196 -29l4 14c4 15 7 37 7 51c0 77 -54 120 -154 120c-56 0 -99 -10 -148 -27l-9 44c50 18 98 29 161 29c125 0 198 -61 198 -159c0 -19 -4 -44 -10 -67l-78 -292h-48l23 88
c-49 -58 -116 -100 -205 -100zM199 33c96 0 200 67 228 170l12 45c-52 13 -118 24 -193 24c-102 0 -171 -56 -171 -135c0 -63 48 -104 124 -104zM363 595l-79 103l62 30l52 -133h-35z" />
    <glyph glyph-name="aacute" unicode="&#xe1;" horiz-adv-x="571" 
d="M190 -12c-85 0 -167 48 -167 143c0 113 96 185 230 185c73 0 145 -15 196 -29l4 14c4 15 7 37 7 51c0 77 -54 120 -154 120c-56 0 -99 -10 -148 -27l-9 44c50 18 98 29 161 29c125 0 198 -61 198 -159c0 -19 -4 -44 -10 -67l-78 -292h-48l23 88
c-49 -58 -116 -100 -205 -100zM199 33c96 0 200 67 228 170l12 45c-52 13 -118 24 -193 24c-102 0 -171 -56 -171 -135c0 -63 48 -104 124 -104zM301 595l124 133l62 -30l-135 -103h-51z" />
    <glyph glyph-name="acircumflex" unicode="&#xe2;" horiz-adv-x="571" 
d="M190 -12c-85 0 -167 48 -167 143c0 113 96 185 230 185c73 0 145 -15 196 -29l4 14c4 15 7 37 7 51c0 77 -54 120 -154 120c-56 0 -99 -10 -148 -27l-9 44c50 18 98 29 161 29c125 0 198 -61 198 -159c0 -19 -4 -44 -10 -67l-78 -292h-48l23 88
c-49 -58 -116 -100 -205 -100zM199 33c96 0 200 67 228 170l12 45c-52 13 -118 24 -193 24c-102 0 -171 -56 -171 -135c0 -63 48 -104 124 -104zM246 595l133 122h40l67 -122h-44l-52 68l-96 -68h-48z" />
    <glyph glyph-name="atilde" unicode="&#xe3;" horiz-adv-x="571" 
d="M190 -12c-85 0 -167 48 -167 143c0 113 96 185 230 185c73 0 145 -15 196 -29l4 14c4 15 7 37 7 51c0 77 -54 120 -154 120c-56 0 -99 -10 -148 -27l-9 44c50 18 98 29 161 29c125 0 198 -61 198 -159c0 -19 -4 -44 -10 -67l-78 -292h-48l23 88
c-49 -58 -116 -100 -205 -100zM199 33c96 0 200 67 228 170l12 45c-52 13 -118 24 -193 24c-102 0 -171 -56 -171 -135c0 -63 48 -104 124 -104zM258 593l-38 15c32 65 61 96 104 96c30 0 45 -14 67 -35s31 -30 48 -30c21 0 36 20 59 60l38 -15c-32 -65 -61 -96 -104 -96
c-30 0 -45 14 -67 35s-31 30 -48 30c-21 0 -36 -20 -59 -60z" />
    <glyph glyph-name="adieresis" unicode="&#xe4;" horiz-adv-x="571" 
d="M190 -12c-85 0 -167 48 -167 143c0 113 96 185 230 185c73 0 145 -15 196 -29l4 14c4 15 7 37 7 51c0 77 -54 120 -154 120c-56 0 -99 -10 -148 -27l-9 44c50 18 98 29 161 29c125 0 198 -61 198 -159c0 -19 -4 -44 -10 -67l-78 -292h-48l23 88
c-49 -58 -116 -100 -205 -100zM199 33c96 0 200 67 228 170l12 45c-52 13 -118 24 -193 24c-102 0 -171 -56 -171 -135c0 -63 48 -104 124 -104zM248 595l22 80h69l-22 -80h-69zM411 595l22 80h69l-22 -80h-69z" />
    <glyph glyph-name="aring" unicode="&#xe5;" horiz-adv-x="571" 
d="M190 -12c-85 0 -167 48 -167 143c0 113 96 185 230 185c73 0 145 -15 196 -29l4 14c4 15 7 37 7 51c0 77 -54 120 -154 120c-56 0 -99 -10 -148 -27l-9 44c50 18 98 29 161 29c125 0 198 -61 198 -159c0 -19 -4 -44 -10 -67l-78 -292h-48l23 88
c-49 -58 -116 -100 -205 -100zM199 33c96 0 200 67 228 170l12 45c-52 13 -118 24 -193 24c-102 0 -171 -56 -171 -135c0 -63 48 -104 124 -104zM384 595c-57 0 -96 35 -96 82c0 57 49 102 106 102s96 -35 96 -82c0 -57 -49 -102 -106 -102zM384 627c39 0 70 31 70 70
c0 29 -21 50 -60 50s-70 -31 -70 -70c0 -29 21 -50 60 -50z" />
    <glyph glyph-name="ae" unicode="&#xe6;" horiz-adv-x="965" 
d="M200 -12c-99 0 -177 51 -177 148c0 111 100 180 234 180c70 0 143 -14 192 -29l4 14c4 15 7 37 7 51c0 77 -54 120 -154 120c-56 0 -99 -10 -148 -27l-9 44c50 18 98 29 161 29c108 0 177 -45 194 -121c53 72 134 125 225 125c128 0 193 -90 193 -195
c0 -34 -5 -63 -14 -89h-419c-1 -11 -2 -23 -2 -34c0 -103 69 -170 169 -170c77 0 125 28 174 68l29 -35c-53 -44 -116 -79 -200 -79c-103 0 -173 51 -204 125c-69 -72 -159 -125 -255 -125zM204 33c86 0 166 47 238 125c-3 15 -4 32 -4 48c0 14 1 29 3 43
c-46 13 -123 23 -191 23c-102 0 -175 -55 -175 -130c0 -66 47 -109 129 -109zM498 282h370c2 9 4 23 4 42c0 82 -45 153 -144 153c-114 0 -201 -90 -230 -195z" />
    <glyph glyph-name="ccedilla" unicode="&#xe7;" horiz-adv-x="563" 
d="M166 -148l-48 26l108 114c-94 19 -176 95 -176 216c0 167 139 314 300 314c104 0 169 -59 200 -123l-41 -23c-31 54 -77 100 -162 100c-130 0 -244 -125 -244 -265c0 -115 83 -177 172 -177c66 0 118 29 165 73l33 -32c-52 -50 -117 -87 -201 -87h-3z" />
    <glyph glyph-name="egrave" unicode="&#xe8;" horiz-adv-x="583" 
d="M272 -12c-130 0 -222 88 -222 214c0 159 129 320 295 320c128 0 193 -90 193 -195c0 -34 -5 -63 -14 -89h-419c-1 -11 -2 -23 -2 -34c0 -103 69 -170 169 -170c77 0 125 28 174 68l29 -35c-53 -44 -111 -79 -203 -79zM114 282h370c2 9 4 23 4 42c0 82 -45 153 -144 153
c-114 0 -201 -90 -230 -195zM367 595l-79 103l62 30l52 -133h-35z" />
    <glyph glyph-name="eacute" unicode="&#xe9;" horiz-adv-x="583" 
d="M272 -12c-130 0 -222 88 -222 214c0 159 129 320 295 320c128 0 193 -90 193 -195c0 -34 -5 -63 -14 -89h-419c-1 -11 -2 -23 -2 -34c0 -103 69 -170 169 -170c77 0 125 28 174 68l29 -35c-53 -44 -111 -79 -203 -79zM114 282h370c2 9 4 23 4 42c0 82 -45 153 -144 153
c-114 0 -201 -90 -230 -195zM310 595l124 133l62 -30l-135 -103h-51z" />
    <glyph glyph-name="ecircumflex" unicode="&#xea;" horiz-adv-x="583" 
d="M272 -12c-130 0 -222 88 -222 214c0 159 129 320 295 320c128 0 193 -90 193 -195c0 -34 -5 -63 -14 -89h-419c-1 -11 -2 -23 -2 -34c0 -103 69 -170 169 -170c77 0 125 28 174 68l29 -35c-53 -44 -111 -79 -203 -79zM114 282h370c2 9 4 23 4 42c0 82 -45 153 -144 153
c-114 0 -201 -90 -230 -195zM244 595l133 122h40l67 -122h-44l-52 68l-96 -68h-48z" />
    <glyph glyph-name="edieresis" unicode="&#xeb;" horiz-adv-x="583" 
d="M272 -12c-130 0 -222 88 -222 214c0 159 129 320 295 320c128 0 193 -90 193 -195c0 -34 -5 -63 -14 -89h-419c-1 -11 -2 -23 -2 -34c0 -103 69 -170 169 -170c77 0 125 28 174 68l29 -35c-53 -44 -111 -79 -203 -79zM114 282h370c2 9 4 23 4 42c0 82 -45 153 -144 153
c-114 0 -201 -90 -230 -195zM252 595l22 80h69l-22 -80h-69zM415 595l22 80h69l-22 -80h-69z" />
    <glyph glyph-name="igrave" unicode="&#xec;" horiz-adv-x="250" 
d="M32 0l137 510h49l-137 -510h-49zM180 595l-79 103l62 30l52 -133h-35z" />
    <glyph glyph-name="iacute" unicode="&#xed;" horiz-adv-x="250" 
d="M32 0l137 510h49l-137 -510h-49zM181 595l124 133l62 -30l-135 -103h-51z" />
    <glyph glyph-name="icircumflex" unicode="&#xee;" horiz-adv-x="250" 
d="M32 0l137 510h49l-137 -510h-49zM87 595l133 122h40l67 -122h-44l-52 68l-96 -68h-48z" />
    <glyph glyph-name="idieresis" unicode="&#xef;" horiz-adv-x="250" 
d="M32 0l137 510h49l-137 -510h-49zM96 595l22 80h69l-22 -80h-69zM259 595l22 80h69l-22 -80h-69z" />
    <glyph glyph-name="eth" unicode="&#xf0;" horiz-adv-x="616" 
d="M271 -11c-129 0 -224 93 -224 213c0 157 135 283 280 283c73 0 121 -25 154 -53l-82 195l-154 -68l-22 40l158 70l-26 61h59l16 -40l111 49l22 -40l-116 -51l73 -184c33 -83 47 -133 47 -190c0 -143 -122 -285 -296 -285zM276 35c129 0 238 107 238 237
c0 91 -68 169 -186 169c-124 0 -228 -109 -228 -236c0 -105 74 -170 176 -170z" />
    <glyph glyph-name="ntilde" unicode="&#xf1;" horiz-adv-x="611" 
d="M25 0l136 510h49l-25 -95c50 60 107 107 193 107c101 0 167 -64 167 -162c0 -22 -5 -48 -11 -72l-76 -288h-49l78 292c5 19 8 44 8 63c0 76 -50 123 -131 123c-87 0 -183 -79 -213 -190l-77 -288h-49zM278 593l-38 15c32 65 61 96 104 96c30 0 45 -14 67 -35
s31 -30 48 -30c21 0 36 20 59 60l38 -15c-32 -65 -61 -96 -104 -96c-30 0 -45 14 -67 35s-31 30 -48 30c-21 0 -36 -20 -59 -60z" />
    <glyph glyph-name="ograve" unicode="&#xf2;" horiz-adv-x="633" 
d="M278 -12c-135 0 -227 95 -227 226c0 161 140 308 303 308c135 0 227 -95 227 -226c0 -166 -145 -308 -303 -308zM283 34c124 0 245 119 245 260c0 115 -73 182 -179 182c-129 0 -245 -124 -245 -260c0 -115 73 -182 179 -182zM378 595l-79 103l62 30l52 -133h-35z" />
    <glyph glyph-name="oacute" unicode="&#xf3;" horiz-adv-x="633" 
d="M278 -12c-135 0 -227 95 -227 226c0 161 140 308 303 308c135 0 227 -95 227 -226c0 -166 -145 -308 -303 -308zM283 34c124 0 245 119 245 260c0 115 -73 182 -179 182c-129 0 -245 -124 -245 -260c0 -115 73 -182 179 -182zM322 595l124 133l62 -30l-135 -103h-51z" />
    <glyph glyph-name="ocircumflex" unicode="&#xf4;" horiz-adv-x="633" 
d="M278 -12c-135 0 -227 95 -227 226c0 161 140 308 303 308c135 0 227 -95 227 -226c0 -166 -145 -308 -303 -308zM283 34c124 0 245 119 245 260c0 115 -73 182 -179 182c-129 0 -245 -124 -245 -260c0 -115 73 -182 179 -182zM278 595l133 122h40l67 -122h-44l-52 68
l-96 -68h-48z" />
    <glyph glyph-name="otilde" unicode="&#xf5;" horiz-adv-x="633" 
d="M278 -12c-135 0 -227 95 -227 226c0 161 140 308 303 308c135 0 227 -95 227 -226c0 -166 -145 -308 -303 -308zM283 34c124 0 245 119 245 260c0 115 -73 182 -179 182c-129 0 -245 -124 -245 -260c0 -115 73 -182 179 -182zM282 593l-38 15c32 65 61 96 104 96
c30 0 45 -14 67 -35s31 -30 48 -30c21 0 36 20 59 60l38 -15c-32 -65 -61 -96 -104 -96c-30 0 -45 14 -67 35s-31 30 -48 30c-21 0 -36 -20 -59 -60z" />
    <glyph glyph-name="odieresis" unicode="&#xf6;" horiz-adv-x="633" 
d="M278 -12c-135 0 -227 95 -227 226c0 161 140 308 303 308c135 0 227 -95 227 -226c0 -166 -145 -308 -303 -308zM283 34c124 0 245 119 245 260c0 115 -73 182 -179 182c-129 0 -245 -124 -245 -260c0 -115 73 -182 179 -182zM269 595l22 80h69l-22 -80h-69zM432 595
l22 80h69l-22 -80h-69z" />
    <glyph glyph-name="divide" unicode="&#xf7;" horiz-adv-x="640" 
d="M123 328l14 51h454l-14 -51h-454zM264 129l23 85h66l-23 -85h-66zM362 493l22 85h66l-22 -85h-66z" />
    <glyph glyph-name="oslash" unicode="&#xf8;" horiz-adv-x="633" 
d="M278 -12c-71 0 -129 27 -169 70l-77 -63h-67l118 96c-21 35 -32 76 -32 123c0 161 140 308 303 308c71 0 129 -26 169 -69l79 64h67l-120 -98c21 -35 32 -76 32 -123c0 -166 -145 -308 -303 -308zM283 34c124 0 245 119 245 260c0 36 -7 66 -19 92l-363 -298
c31 -35 79 -54 137 -54zM123 124l363 298c-32 35 -79 54 -137 54c-129 0 -245 -124 -245 -260c0 -36 7 -66 19 -92z" />
    <glyph glyph-name="ugrave" unicode="&#xf9;" horiz-adv-x="609" 
d="M231 -12c-101 0 -167 64 -167 162c0 22 5 48 11 72l76 288h49l-78 -292c-5 -19 -8 -44 -8 -63c0 -76 50 -123 131 -123c87 0 183 79 213 190l77 288h49l-136 -510h-49l25 95c-50 -60 -107 -107 -193 -107zM370 595l-79 103l62 30l52 -133h-35z" />
    <glyph glyph-name="uacute" unicode="&#xfa;" horiz-adv-x="609" 
d="M231 -12c-101 0 -167 64 -167 162c0 22 5 48 11 72l76 288h49l-78 -292c-5 -19 -8 -44 -8 -63c0 -76 50 -123 131 -123c87 0 183 79 213 190l77 288h49l-136 -510h-49l25 95c-50 -60 -107 -107 -193 -107zM330 595l124 133l62 -30l-135 -103h-51z" />
    <glyph glyph-name="ucircumflex" unicode="&#xfb;" horiz-adv-x="609" 
d="M231 -12c-101 0 -167 64 -167 162c0 22 5 48 11 72l76 288h49l-78 -292c-5 -19 -8 -44 -8 -63c0 -76 50 -123 131 -123c87 0 183 79 213 190l77 288h49l-136 -510h-49l25 95c-50 -60 -107 -107 -193 -107zM263 595l133 122h40l67 -122h-44l-52 68l-96 -68h-48z" />
    <glyph glyph-name="udieresis" unicode="&#xfc;" horiz-adv-x="609" 
d="M231 -12c-101 0 -167 64 -167 162c0 22 5 48 11 72l76 288h49l-78 -292c-5 -19 -8 -44 -8 -63c0 -76 50 -123 131 -123c87 0 183 79 213 190l77 288h49l-136 -510h-49l25 95c-50 -60 -107 -107 -193 -107zM268 595l22 80h69l-22 -80h-69zM431 595l22 80h69l-22 -80h-69z
" />
    <glyph glyph-name="yacute" unicode="&#xfd;" horiz-adv-x="568" 
d="M20 -163c-39 0 -75 12 -108 35l27 40c21 -17 60 -29 87 -29c52 0 100 30 163 120l-104 507h52l89 -456l307 456h59l-363 -528c-74 -107 -136 -145 -209 -145zM295 595l124 133l62 -30l-135 -103h-51z" />
    <glyph glyph-name="thorn" unicode="&#xfe;" horiz-adv-x="654" 
d="M-18 -160l239 890h49l-87 -320c51 61 121 112 212 112c118 0 205 -89 205 -215c0 -181 -136 -320 -288 -320c-114 0 -177 70 -203 143l-78 -290h-49zM310 33c138 0 237 127 237 268c0 105 -65 175 -158 175c-127 0 -255 -129 -255 -265c0 -98 71 -178 176 -178z" />
    <glyph glyph-name="ydieresis" unicode="&#xff;" horiz-adv-x="568" 
d="M20 -163c-39 0 -75 12 -108 35l27 40c21 -17 60 -29 87 -29c52 0 100 30 163 120l-104 507h52l89 -456l307 456h59l-363 -528c-74 -107 -136 -145 -209 -145zM242 595l22 80h69l-22 -80h-69zM405 595l22 80h69l-22 -80h-69z" />
    <glyph glyph-name="dotlessi" unicode="&#x131;" horiz-adv-x="250" 
d="M32 0l137 510h49l-137 -510h-49z" />
    <glyph glyph-name="Lslash" unicode="&#x141;" horiz-adv-x="650" 
d="M86 0l85 316l-80 -23l12 48l81 23l90 336h52l-86 -320l243 69l-13 -48l-243 -69l-76 -284h411l-13 -48h-463z" />
    <glyph glyph-name="lslash" unicode="&#x142;" horiz-adv-x="309" 
d="M62 0l90 335l-81 -23l13 50l81 23l93 345h49l-89 -330l84 24l-14 -50l-83 -24l-94 -350h-49z" />
    <glyph glyph-name="OE" unicode="&#x152;" horiz-adv-x="1154" 
d="M441 0c-109 0 -209 31 -272 94c-49 49 -77 114 -77 200c0 107 39 201 109 271c84 84 212 135 356 135h649l-13 -48h-430l-74 -275h385l-13 -48h-385l-75 -281h435l-13 -48h-582zM444 48h105l162 604h-161c-126 0 -233 -43 -310 -120c-60 -60 -94 -141 -94 -234
c0 -72 24 -130 65 -171c52 -52 134 -79 233 -79z" />
    <glyph glyph-name="oe" unicode="&#x153;" horiz-adv-x="1046" 
d="M275 -12c-130 0 -224 95 -224 226c0 161 140 308 303 308c117 0 190 -74 210 -163c46 85 125 163 246 163c128 0 193 -90 193 -195c0 -34 -5 -63 -14 -89h-419c-1 -11 -2 -23 -2 -34c0 -103 69 -170 169 -170c77 0 125 28 174 68l29 -35c-53 -44 -116 -79 -200 -79
c-109 0 -190 62 -211 155c-50 -83 -136 -155 -254 -155zM283 34c124 0 245 119 245 255c0 120 -73 187 -179 187c-129 0 -245 -124 -245 -260c0 -115 73 -182 179 -182zM579 282h370c2 9 4 23 4 42c0 82 -45 153 -144 153c-114 0 -201 -90 -230 -195z" />
    <glyph glyph-name="Scaron" unicode="&#x160;" horiz-adv-x="638" 
d="M299 -10c-127 0 -221 52 -279 134l40 29c60 -77 132 -116 244 -116c115 0 202 65 202 153c0 61 -40 97 -153 141c-143 56 -200 100 -200 186c0 106 100 193 251 193c105 0 192 -45 243 -107l-40 -32c-51 59 -121 92 -208 92c-120 0 -193 -68 -193 -142
c0 -65 52 -99 167 -143c130 -49 186 -98 186 -184c0 -114 -110 -204 -260 -204zM420 765l-67 122h44l52 -68l96 68h48l-133 -122h-40z" />
    <glyph glyph-name="scaron" unicode="&#x161;" horiz-adv-x="495" 
d="M217 -11c-79 0 -158 30 -216 88l35 35c56 -54 120 -78 187 -78c65 0 132 40 132 101c0 39 -22 68 -111 101c-97 36 -143 70 -143 137c0 81 74 148 189 148c72 0 141 -32 184 -68l-32 -37c-39 32 -97 60 -157 60c-86 0 -132 -47 -132 -95c0 -39 20 -63 115 -100
c102 -40 139 -77 139 -138c0 -89 -87 -154 -190 -154zM308 595l-67 122h44l52 -68l96 68h48l-133 -122h-40z" />
    <glyph glyph-name="Ydieresis" unicode="&#x178;" horiz-adv-x="668" 
d="M234 0l76 284l-183 416h57l161 -376l364 376h70l-421 -429l-72 -271h-52zM343 765l22 80h69l-22 -80h-69zM506 765l22 80h69l-22 -80h-69z" />
    <glyph glyph-name="Zcaron" unicode="&#x17d;" horiz-adv-x="662" 
d="M-19 0l8 29l636 624h-452l13 47h533l-8 -29l-636 -624h472l-13 -47h-553zM426 765l-67 122h44l52 -68l96 68h48l-133 -122h-40z" />
    <glyph glyph-name="zcaron" unicode="&#x17e;" horiz-adv-x="546" 
d="M-17 0l8 28l475 438h-344l12 44h424l-8 -28l-475 -438h361l-12 -44h-441zM330 595l-67 122h44l52 -68l96 68h48l-133 -122h-40z" />
    <glyph glyph-name="florin" unicode="&#x192;" horiz-adv-x="526" 
d="M33 -10c-26 0 -43 4 -56 8l13 43c9 -3 24 -7 47 -7c47 0 80 33 113 107l107 243h-107l12 45h114l59 134c43 99 99 147 178 147c32 0 59 -6 83 -15l-15 -42c-20 7 -43 13 -70 13c-55 0 -96 -36 -131 -115l-54 -122h162l-12 -45h-169l-112 -255
c-46 -105 -96 -139 -162 -139z" />
    <glyph glyph-name="circumflex" unicode="&#x2c6;" 
d="M222 595l133 122h40l67 -122h-44l-52 68l-96 -68h-48z" />
    <glyph glyph-name="caron" unicode="&#x2c7;" 
d="M321 595l-67 122h44l52 -68l96 68h48l-133 -122h-40z" />
    <glyph glyph-name="breve" unicode="&#x2d8;" 
d="M339 593c-63 0 -104 33 -104 91c0 10 1 20 4 33h40c0 -45 14 -73 71 -73c52 0 85 28 109 73h46c-26 -78 -92 -124 -166 -124z" />
    <glyph glyph-name="dotaccent" unicode="&#x2d9;" 
d="M307 593l23 85h66l-23 -85h-66z" />
    <glyph glyph-name="ring" unicode="&#x2da;" 
d="M359 595c-57 0 -96 35 -96 82c0 57 49 102 106 102s96 -35 96 -82c0 -57 -49 -102 -106 -102zM359 627c39 0 70 31 70 70c0 29 -21 50 -60 50s-70 -31 -70 -70c0 -29 21 -50 60 -50z" />
    <glyph glyph-name="ogonek" unicode="&#x2db;" 
d="M226 -164c-99 -3 -144 32 -144 82c0 26 18 66 36 92h43c-12 -23 -25 -63 -25 -82c0 -37 33 -58 98 -61z" />
    <glyph glyph-name="tilde" unicode="&#x2dc;" 
d="M233 593l-38 15c32 65 61 96 104 96c30 0 45 -14 67 -35s31 -30 48 -30c21 0 36 20 59 60l38 -15c-32 -65 -61 -96 -104 -96c-30 0 -45 14 -67 35s-31 30 -48 30c-21 0 -36 -20 -59 -60z" />
    <glyph glyph-name="hungarumlaut" unicode="&#x2dd;" 
d="M192 595l125 133l47 -29l-129 -104h-43zM344 595l125 133l47 -29l-129 -104h-43z" />
    <glyph glyph-name="Omega" unicode="&#x3a9;" horiz-adv-x="792" 
d="M636 0h-240l47 176c142 23 257 134 257 292c0 111 -90 190 -210 190c-166 0 -324 -118 -324 -305c0 -85 43 -166 135 -177l-47 -176h-240l12 47h197l24 90c-90 26 -135 122 -135 216c0 217 192 354 383 354c160 0 260 -106 260 -238c0 -159 -122 -291 -280 -332l-24 -90
h197z" />
    <glyph glyph-name="pi" unicode="&#x3c0;" 
d="M0 0v700h500v-700h-500zM81 49h339l-170 255zM49 96l171 254l-171 254v-508zM450 96v508l-171 -254zM250 395l170 255h-339z" />
    <glyph glyph-name="afii10023" unicode="&#x401;" horiz-adv-x="649" 
d="M36 0l188 700h493l-13 -48h-441l-74 -275h396l-13 -48h-396l-75 -281h446l-13 -48h-498zM365 765l22 80h69l-22 -80h-69zM528 765l22 80h69l-22 -80h-69z" />
    <glyph glyph-name="afii10051" unicode="&#x402;" horiz-adv-x="832" 
d="M492 -12c-39 0 -84 4 -111 22l25 43c21 -11 44 -18 88 -18c142 0 228 102 228 231c0 78 -64 133 -149 133c-100 0 -167 -26 -260 -93l-82 -306h-52l175 652h-214l13 48h540l-13 -48h-274l-78 -290c88 57 152 84 249 84c111 0 200 -66 200 -178
c0 -157 -112 -280 -285 -280z" />
    <glyph glyph-name="afii10052" unicode="&#x403;" horiz-adv-x="582" 
d="M36 0l187 700h437l-12 -48h-385l-175 -652h-52zM382 765l124 133l62 -30l-135 -103h-51z" />
    <glyph glyph-name="afii10053" unicode="&#x404;" horiz-adv-x="738" 
d="M378 -13c-155 0 -286 107 -286 284c0 227 187 441 418 441c118 0 200 -55 246 -131l-45 -26c-44 67 -103 110 -204 110c-166 0 -303 -132 -347 -288h371l-13 -48h-368c-3 -19 -4 -37 -4 -56c0 -147 100 -238 237 -238c104 0 173 41 237 105l35 -32
c-64 -67 -148 -121 -277 -121z" />
    <glyph glyph-name="afii10054" unicode="&#x405;" horiz-adv-x="638" 
d="M299 -10c-127 0 -221 52 -279 134l40 29c60 -77 132 -116 244 -116c115 0 202 65 202 153c0 61 -40 97 -153 141c-143 56 -200 100 -200 186c0 106 100 193 251 193c105 0 192 -45 243 -107l-40 -32c-51 59 -121 92 -208 92c-120 0 -193 -68 -193 -142
c0 -65 52 -99 167 -143c130 -49 186 -98 186 -184c0 -114 -110 -204 -260 -204z" />
    <glyph glyph-name="afii10055" unicode="&#x406;" horiz-adv-x="274" 
d="M43 0l188 700h52l-188 -700h-52z" />
    <glyph glyph-name="afii10056" unicode="&#x407;" horiz-adv-x="274" 
d="M43 0l188 700h52l-188 -700h-52zM153 765l22 80h69l-22 -80h-69zM316 765l22 80h69l-22 -80h-69z" />
    <glyph glyph-name="afii10057" unicode="&#x408;" horiz-adv-x="538" 
d="M196 -10c-117 0 -178 72 -201 161l46 16c26 -85 72 -130 153 -130c51 0 93 18 127 52c36 36 60 87 78 153l123 458h52l-125 -465c-21 -79 -49 -135 -93 -179c-43 -43 -103 -66 -160 -66z" />
    <glyph glyph-name="afii10058" unicode="&#x409;" horiz-adv-x="1162" 
d="M13 -7c-35 0 -71 9 -87 19l26 41c11 -6 37 -12 63 -12c54 0 163 34 295 525l36 134h429l-76 -282h181c81 0 146 -20 186 -60c29 -29 45 -69 45 -118c0 -153 -130 -240 -336 -240h-240l175 652h-327l-24 -88c-136 -507 -245 -571 -346 -571zM600 48h177
c182 0 282 68 282 190c0 35 -10 63 -33 86c-30 30 -81 46 -147 46h-193z" />
    <glyph glyph-name="afii10059" unicode="&#x40a;" horiz-adv-x="1158" 
d="M36 0l188 700h52l-80 -296h443l80 296h52l-81 -296h193c79 0 142 -19 181 -58c28 -28 43 -66 43 -113c0 -149 -127 -233 -329 -233h-247l95 356h-443l-95 -356h-52zM595 48h185c177 0 275 65 275 183c0 33 -9 59 -31 81c-29 29 -78 44 -142 44h-204z" />
    <glyph glyph-name="afii10060" unicode="&#x40b;" horiz-adv-x="848" 
d="M179 0l175 652h-214l13 48h540l-13 -48h-274l-75 -279c56 27 167 71 245 71c114 0 192 -47 192 -142c0 -17 -2 -36 -8 -57l-65 -245h-52l67 250c4 15 6 29 6 41c0 67 -51 108 -139 108c-78 0 -183 -37 -259 -75l-87 -324h-52z" />
    <glyph glyph-name="afii10061" unicode="&#x40c;" horiz-adv-x="714" 
d="M36 0l188 700h52l-122 -455l560 455h77l-389 -313l212 -387h-60l-195 357l-224 -182l-47 -175h-52zM414 765l124 133l62 -30l-135 -103h-51z" />
    <glyph glyph-name="afii10062" unicode="&#x40e;" horiz-adv-x="710" 
d="M119 -12c-47 0 -91 9 -114 26l30 43c25 -14 45 -20 86 -20c55 0 121 32 190 124l-170 539h56l152 -490l370 490h61l-423 -558c-85 -113 -166 -154 -238 -154zM464 765c-71 0 -115 48 -118 113l42 9c6 -45 25 -73 77 -73s93 28 111 73l40 -9c-21 -65 -81 -113 -152 -113z
" />
    <glyph glyph-name="afii10145" unicode="&#x40f;" horiz-adv-x="742" 
d="M242 -160l43 160h-249l188 700h52l-175 -652h429l175 652h52l-188 -700h-230l-43 -160h-54z" />
    <glyph glyph-name="afii10017" unicode="&#x410;" horiz-adv-x="759" 
d="M-34 0l515 705h50l137 -705h-53l-36 196h-413l-142 -196h-58zM200 243h369l-75 405z" />
    <glyph glyph-name="afii10018" unicode="&#x411;" horiz-adv-x="700" 
d="M36 0l188 700h477l-12 -48h-426l-67 -248h217c79 0 142 -19 181 -58c28 -28 43 -66 43 -113c0 -149 -127 -233 -329 -233h-272zM101 48h209c177 0 275 65 275 183c0 33 -9 59 -31 81c-29 29 -78 44 -142 44h-228z" />
    <glyph glyph-name="afii10019" unicode="&#x412;" horiz-adv-x="717" 
d="M36 0l188 700h259c127 0 210 -59 210 -159c0 -103 -83 -169 -185 -189c73 -19 134 -64 134 -146c0 -120 -111 -206 -291 -206h-315zM101 48h253c144 0 235 59 235 158c0 82 -79 123 -185 123h-228zM189 377h216c142 0 234 65 234 159c0 77 -61 116 -161 116h-215z" />
    <glyph glyph-name="afii10020" unicode="&#x413;" horiz-adv-x="582" 
d="M36 0l187 700h437l-12 -48h-385l-175 -652h-52z" />
    <glyph glyph-name="afii10021" unicode="&#x414;" horiz-adv-x="751" 
d="M-100 -160l56 208h70c99 101 185 268 245 485l46 167h429l-175 -652h95l-66 -208h-44l43 160h-603l-52 -160h-44zM90 48h429l162 604h-327l-43 -157c-50 -187 -130 -352 -221 -447z" />
    <glyph glyph-name="afii10022" unicode="&#x415;" horiz-adv-x="649" 
d="M36 0l188 700h493l-13 -48h-441l-74 -275h396l-13 -48h-396l-75 -281h446l-13 -48h-498z" />
    <glyph glyph-name="afii10024" unicode="&#x416;" horiz-adv-x="1072" 
d="M-43 0l402 404l-190 296h60l282 -446l119 446h52l-117 -440l511 440h73l-358 -303l188 -397h-59l-170 362l-205 -173l-50 -189h-52l51 195l-108 167l-359 -362h-70z" />
    <glyph glyph-name="afii10025" unicode="&#x417;" horiz-adv-x="600" 
d="M260 -12c-120 0 -208 53 -253 126l45 27c40 -61 102 -106 211 -106c120 0 202 69 202 154c0 99 -97 141 -186 141h-60l12 46h70c135 0 235 60 235 158c0 80 -70 129 -164 129c-81 0 -138 -28 -190 -69l-32 35c54 44 124 81 222 81c117 0 219 -62 219 -173
c0 -105 -83 -167 -211 -188c75 -22 140 -71 140 -158c0 -115 -115 -203 -260 -203z" />
    <glyph glyph-name="afii10026" unicode="&#x418;" horiz-adv-x="766" 
d="M36 0l188 700h52l-167 -621l621 621h51l-187 -700h-52l166 621l-620 -621h-52z" />
    <glyph glyph-name="afii10027" unicode="&#x419;" horiz-adv-x="766" 
d="M36 0l188 700h52l-167 -621l621 621h51l-187 -700h-52l166 621l-620 -621h-52zM496 765c-71 0 -115 48 -118 113l42 9c6 -45 25 -73 77 -73s93 28 111 73l40 -9c-21 -65 -81 -113 -152 -113z" />
    <glyph glyph-name="afii10028" unicode="&#x41a;" horiz-adv-x="714" 
d="M36 0l188 700h52l-122 -455l560 455h77l-389 -313l212 -387h-60l-195 357l-224 -182l-47 -175h-52z" />
    <glyph glyph-name="afii10029" unicode="&#x41b;" horiz-adv-x="760" 
d="M13 -7c-35 0 -71 9 -87 19l26 41c11 -6 37 -12 63 -12c54 0 163 34 295 525l36 134h429l-188 -700h-52l175 652h-327l-24 -88c-136 -507 -245 -571 -346 -571z" />
    <glyph glyph-name="afii10030" unicode="&#x41c;" horiz-adv-x="869" 
d="M36 0l188 700h43l170 -414l392 414h55l-188 -700h-52l163 608l-385 -403h-4l-169 403l-163 -608h-50z" />
    <glyph glyph-name="afii10031" unicode="&#x41d;" horiz-adv-x="756" 
d="M36 0l188 700h52l-87 -324h443l87 324h52l-188 -700h-52l88 328h-443l-88 -328h-52z" />
    <glyph glyph-name="afii10032" unicode="&#x41e;" horiz-adv-x="846" 
d="M398 -13c-177 0 -302 132 -302 301c0 219 180 424 403 424c177 0 302 -132 302 -301c0 -219 -180 -424 -403 -424zM398 34c197 0 349 184 349 377c0 143 -99 254 -248 254c-197 0 -349 -184 -349 -377c0 -143 99 -254 248 -254z" />
    <glyph glyph-name="afii10033" unicode="&#x41f;" horiz-adv-x="742" 
d="M36 0l188 700h533l-188 -700h-52l175 652h-429l-175 -652h-52z" />
    <glyph glyph-name="afii10034" unicode="&#x420;" horiz-adv-x="663" 
d="M36 0l188 700h218c84 0 151 -21 193 -63c31 -31 48 -73 48 -125c0 -159 -134 -250 -346 -250h-178l-71 -262h-52zM171 309h168c188 0 292 73 292 201c0 38 -11 68 -36 93c-32 32 -85 49 -154 49h-178z" />
    <glyph glyph-name="afii10035" unicode="&#x421;" horiz-adv-x="738" 
d="M378 -13c-155 0 -286 107 -286 284c0 227 187 441 418 441c128 0 214 -65 257 -151l-45 -24c-45 78 -105 128 -215 128c-202 0 -361 -194 -361 -392c0 -147 100 -238 237 -238c104 0 173 41 237 105l35 -32c-64 -67 -148 -121 -277 -121z" />
    <glyph glyph-name="afii10036" unicode="&#x422;" horiz-adv-x="615" 
d="M209 0l175 652h-244l13 48h540l-13 -48h-244l-175 -652h-52z" />
    <glyph glyph-name="afii10037" unicode="&#x423;" horiz-adv-x="710" 
d="M119 -12c-47 0 -91 9 -114 26l30 43c25 -14 45 -20 86 -20c55 0 121 32 190 124l-170 539h56l152 -490l370 490h61l-423 -558c-85 -113 -166 -154 -238 -154z" />
    <glyph glyph-name="afii10038" unicode="&#x424;" horiz-adv-x="862" 
d="M329 -26l21 78c-184 1 -279 121 -279 263c0 173 145 336 388 336h51l19 71h52l-19 -71c183 -2 278 -122 278 -263c0 -173 -145 -336 -388 -336h-50l-21 -78h-52zM362 99l135 505h-45c-206 0 -327 -127 -327 -286c0 -124 81 -219 237 -219zM414 99h45
c206 0 327 127 327 286c0 124 -81 219 -237 219z" />
    <glyph glyph-name="afii10039" unicode="&#x425;" horiz-adv-x="692" 
d="M-23 0l366 362l-186 338h56l167 -308l310 308h67l-352 -347l192 -353h-56l-173 323l-324 -323h-67z" />
    <glyph glyph-name="afii10040" unicode="&#x426;" horiz-adv-x="762" 
d="M566 -160l43 160h-573l188 700h52l-175 -652h429l175 652h52l-176 -652h95l-66 -208h-44z" />
    <glyph glyph-name="afii10041" unicode="&#x427;" horiz-adv-x="684" 
d="M460 0l83 312c-56 -27 -157 -71 -235 -71c-114 0 -192 47 -192 142c0 17 2 36 8 57l69 260h52l-71 -265c-4 -15 -6 -29 -6 -41c0 -67 51 -108 139 -108c78 0 173 37 249 75l91 339h52l-187 -700h-52z" />
    <glyph glyph-name="afii10042" unicode="&#x428;" horiz-adv-x="1101" 
d="M36 0l188 700h52l-175 -652h367l175 652h52l-175 -652h368l176 652h52l-188 -700h-892z" />
    <glyph glyph-name="afii10043" unicode="&#x429;" horiz-adv-x="1121" 
d="M926 -160l43 160h-933l188 700h52l-175 -652h367l175 652h52l-175 -652h368l176 652h52l-175 -652h95l-66 -208h-44z" />
    <glyph glyph-name="afii10044" unicode="&#x42a;" horiz-adv-x="783" 
d="M156 0l175 652h-191l13 48h243l-76 -282h181c81 0 146 -20 186 -60c29 -29 45 -69 45 -118c0 -153 -130 -240 -336 -240h-240zM221 48h177c182 0 282 68 282 190c0 35 -10 63 -33 86c-30 30 -81 46 -147 46h-193z" />
    <glyph glyph-name="afii10045" unicode="&#x42b;" horiz-adv-x="870" 
d="M36 0l188 700h52l-76 -282h181c81 0 146 -20 186 -60c29 -29 45 -69 45 -118c0 -153 -130 -240 -336 -240h-240zM101 48h177c182 0 282 68 282 190c0 35 -10 63 -33 86c-30 30 -81 46 -147 46h-193zM646 0l187 700h52l-187 -700h-52z" />
    <glyph glyph-name="afii10046" unicode="&#x42c;" horiz-adv-x="663" 
d="M36 0l188 700h52l-76 -282h181c81 0 146 -20 186 -60c29 -29 45 -69 45 -118c0 -153 -130 -240 -336 -240h-240zM101 48h177c182 0 282 68 282 190c0 35 -10 63 -33 86c-30 30 -81 46 -147 46h-193z" />
    <glyph glyph-name="afii10047" unicode="&#x42d;" horiz-adv-x="738" 
d="M285 -13c-128 0 -214 65 -257 151l45 24c45 -78 105 -128 215 -128c172 0 305 133 341 295h-363l13 48h358c1 13 2 26 2 39c0 147 -100 248 -237 248c-104 0 -173 -41 -237 -105l-35 32c64 67 148 121 277 121c155 0 286 -117 286 -294c0 -227 -177 -431 -408 -431z" />
    <glyph glyph-name="afii10048" unicode="&#x42e;" horiz-adv-x="1041" 
d="M613 -13c-169 0 -278 125 -278 292c0 16 1 32 3 49h-162l-88 -328h-52l188 700h52l-88 -324h157c40 192 196 336 373 336c170 0 278 -125 278 -292c0 -239 -177 -433 -383 -433zM613 34c179 0 328 178 328 386c0 142 -87 245 -223 245c-178 0 -328 -176 -328 -385
c0 -142 87 -246 223 -246z" />
    <glyph glyph-name="afii10049" unicode="&#x42f;" horiz-adv-x="713" 
d="M-9 0l296 286c-46 9 -84 26 -110 53c-29 29 -45 69 -45 119c0 153 131 242 337 242h259l-187 -700h-52l75 279h-218l-286 -279h-69zM365 327h211l88 325h-197c-182 0 -283 -70 -283 -192c0 -36 10 -64 33 -87c30 -30 81 -46 148 -46z" />
    <glyph glyph-name="afii10065" unicode="&#x430;" horiz-adv-x="571" 
d="M190 -12c-85 0 -167 48 -167 143c0 113 96 185 230 185c73 0 145 -15 196 -29l4 14c4 15 7 37 7 51c0 77 -54 120 -154 120c-56 0 -99 -10 -148 -27l-9 44c50 18 98 29 161 29c125 0 198 -61 198 -159c0 -19 -4 -44 -10 -67l-78 -292h-48l23 88
c-49 -58 -116 -100 -205 -100zM199 33c96 0 200 67 228 170l12 45c-52 13 -118 24 -193 24c-102 0 -171 -56 -171 -135c0 -63 48 -104 124 -104z" />
    <glyph glyph-name="afii10066" unicode="&#x431;" horiz-adv-x="642" 
d="M361 506c136 0 227 -88 227 -217c0 -159 -150 -301 -296 -301c-155 0 -229 100 -229 226c0 142 65 387 273 431l299 64l11 -44l-295 -66c-112 -25 -171 -84 -206 -194h4c51 59 125 101 212 101zM354 462c-128 0 -239 -115 -239 -251c0 -96 56 -177 177 -177
c118 0 242 121 242 257c0 104 -66 171 -180 171z" />
    <glyph glyph-name="afii10067" unicode="&#x432;" horiz-adv-x="580" 
d="M25 0l137 510h215c92 0 153 -43 153 -116c0 -75 -61 -118 -135 -133c53 -13 98 -51 98 -111c0 -87 -81 -150 -213 -150h-255zM85 44h191c101 0 165 41 165 109c0 56 -55 87 -129 87h-174zM149 282h164c99 0 164 43 164 108c0 52 -42 76 -111 76h-167z" />
    <glyph glyph-name="afii10068" unicode="&#x433;" horiz-adv-x="460" 
d="M25 0l137 510h337l-12 -44h-288l-125 -466h-49z" />
    <glyph glyph-name="afii10069" unicode="&#x434;" horiz-adv-x="608" 
d="M-87 -144l49 188h62c65 74 126 188 171 358l29 108h342l-125 -466h82l-60 -188h-40l39 144h-460l-49 -144h-40zM78 44h314l114 422h-246l-25 -92c-37 -136 -98 -262 -157 -330z" />
    <glyph glyph-name="afii10070" unicode="&#x435;" horiz-adv-x="583" 
d="M272 -12c-130 0 -222 88 -222 214c0 159 129 320 295 320c128 0 193 -90 193 -195c0 -34 -5 -63 -14 -89h-419c-1 -11 -2 -23 -2 -34c0 -103 69 -170 169 -170c77 0 125 28 174 68l29 -35c-53 -44 -111 -79 -203 -79zM114 282h370c2 9 4 23 4 42c0 82 -45 153 -144 153
c-114 0 -201 -90 -230 -195z" />
    <glyph glyph-name="afii10072" unicode="&#x436;" horiz-adv-x="832" 
d="M-43 0l297 293l-141 217h56l206 -325l87 325h49l-86 -322l374 322h66l-263 -223l138 -287h-55l-121 255l-156 -132l-33 -123h-49l35 130l-82 126l-257 -256h-65z" />
    <glyph glyph-name="afii10073" unicode="&#x437;" 
d="M204 -10c-76 0 -148 26 -200 76l37 40c46 -46 97 -70 164 -70c78 0 158 52 158 122c0 50 -45 81 -125 81h-70l12 44h66c75 0 146 43 146 114c0 47 -45 76 -108 76c-51 0 -115 -15 -168 -52l-22 39c59 39 126 59 195 59c96 0 158 -54 158 -121c0 -78 -56 -114 -105 -133
c46 -17 75 -58 75 -108c0 -91 -84 -167 -213 -167z" />
    <glyph glyph-name="afii10074" unicode="&#x438;" horiz-adv-x="623" 
d="M25 0l137 510h49l-118 -439l456 439h49l-137 -510h-49l119 441l-457 -441h-49z" />
    <glyph glyph-name="afii10075" unicode="&#x439;" horiz-adv-x="623" 
d="M25 0l137 510h49l-118 -439l456 439h49l-137 -510h-49l119 441l-457 -441h-49zM388 595c-71 0 -115 48 -118 113l42 9c6 -45 25 -73 77 -73s93 28 111 73l40 -9c-21 -65 -81 -113 -152 -113z" />
    <glyph glyph-name="afii10076" unicode="&#x43a;" horiz-adv-x="560" 
d="M25 0l137 510h49l-86 -321l396 321h71l-284 -228l152 -282h-57l-136 252l-160 -128l-33 -124h-49z" />
    <glyph glyph-name="afii10077" unicode="&#x43b;" horiz-adv-x="607" 
d="M-3 -8c-16 0 -48 3 -60 9l20 44c6 -3 26 -7 36 -7c68 0 124 30 237 445l8 27h344l-137 -510h-49l125 466h-248l-4 -14c-114 -422 -178 -460 -272 -460z" />
    <glyph glyph-name="afii10078" unicode="&#x43c;" horiz-adv-x="690" 
d="M25 0l137 510h39l128 -296l290 296h47l-137 -510h-49l114 425l-280 -282l-126 284l-114 -427h-49z" />
    <glyph glyph-name="afii10079" unicode="&#x43d;" horiz-adv-x="616" 
d="M25 0l137 510h49l-61 -227h331l61 227h49l-137 -510h-49l64 239h-331l-64 -239h-49z" />
    <glyph glyph-name="afii10080" unicode="&#x43e;" horiz-adv-x="633" 
d="M278 -12c-135 0 -227 95 -227 226c0 161 140 308 303 308c135 0 227 -95 227 -226c0 -166 -145 -308 -303 -308zM283 34c124 0 245 119 245 260c0 115 -73 182 -179 182c-129 0 -245 -124 -245 -260c0 -115 73 -182 179 -182z" />
    <glyph glyph-name="afii10081" unicode="&#x43f;" horiz-adv-x="603" 
d="M25 0l137 510h416l-137 -510h-49l125 466h-318l-125 -466h-49z" />
    <glyph glyph-name="afii10082" unicode="&#x440;" horiz-adv-x="654" 
d="M312 -13c-114 0 -177 70 -203 143l-78 -290h-49l180 670h48l-27 -100c51 61 121 112 212 112c118 0 205 -89 205 -215c0 -181 -136 -320 -288 -320zM310 33c138 0 237 127 237 268c0 105 -65 175 -158 175c-127 0 -255 -129 -255 -265c0 -98 71 -178 176 -178z" />
    <glyph glyph-name="afii10083" unicode="&#x441;" horiz-adv-x="563" 
d="M272 -12c-112 0 -222 80 -222 220c0 167 139 314 300 314c104 0 169 -59 200 -123l-41 -23c-31 54 -77 100 -162 100c-130 0 -244 -125 -244 -265c0 -115 83 -177 172 -177c66 0 118 29 165 73l33 -32c-52 -50 -117 -87 -201 -87z" />
    <glyph glyph-name="afii10084" unicode="&#x442;" horiz-adv-x="491" 
d="M146 0l125 466h-191l12 44h431l-12 -44h-191l-125 -466h-49z" />
    <glyph glyph-name="afii10085" unicode="&#x443;" horiz-adv-x="568" 
d="M20 -163c-39 0 -75 12 -108 35l27 40c21 -17 60 -29 87 -29c52 0 100 30 163 120l-104 507h52l89 -456l307 456h59l-363 -528c-74 -107 -136 -145 -209 -145z" />
    <glyph glyph-name="afii10086" unicode="&#x444;" horiz-adv-x="855" 
d="M292 -160l55 206c-37 -31 -82 -58 -143 -58c-95 0 -159 56 -159 174c0 153 93 360 277 360c62 0 108 -32 136 -65l64 243h49l-63 -238c43 33 80 60 143 60c95 0 159 -67 159 -181c0 -153 -93 -353 -277 -353c-68 0 -110 27 -137 58l-55 -206h-49zM214 35
c53 0 102 26 148 65l84 314c-26 39 -71 61 -124 61c-151 0 -225 -175 -225 -311c0 -76 36 -129 117 -129zM533 35c153 0 223 168 223 306c0 78 -37 134 -115 134c-53 0 -100 -22 -146 -61l-86 -318c26 -39 71 -61 124 -61z" />
    <glyph glyph-name="afii10087" unicode="&#x445;" horiz-adv-x="559" 
d="M-29 0l284 264l-135 246h56l112 -215l224 215h66l-268 -250l141 -260h-56l-118 229l-240 -229h-66z" />
    <glyph glyph-name="afii10088" unicode="&#x446;" horiz-adv-x="620" 
d="M434 -144l39 144h-448l137 510h49l-125 -466h318l125 466h49l-125 -466h82l-61 -188h-40z" />
    <glyph glyph-name="afii10089" unicode="&#x447;" horiz-adv-x="556" 
d="M345 0l60 223c-45 -22 -123 -52 -190 -52c-83 0 -134 41 -134 110c0 15 2 30 7 47l49 182h49l-51 -192c-3 -11 -5 -21 -5 -31c0 -44 33 -71 92 -71c61 0 139 23 196 56l64 238h49l-137 -510h-49z" />
    <glyph glyph-name="afii10090" unicode="&#x448;" horiz-adv-x="890" 
d="M25 0l137 510h49l-125 -466h278l125 466h49l-125 -466h278l125 466h49l-137 -510h-703z" />
    <glyph glyph-name="afii10091" unicode="&#x449;" horiz-adv-x="907" 
d="M721 -144l39 144h-735l137 510h49l-125 -466h278l125 466h49l-125 -466h278l125 466h49l-125 -466h82l-61 -188h-40z" />
    <glyph glyph-name="afii10092" unicode="&#x44a;" horiz-adv-x="619" 
d="M115 0l125 466h-160l12 44h209l-55 -205h146c59 0 107 -15 136 -44c21 -21 33 -50 33 -86c0 -112 -95 -175 -245 -175h-201zM176 44h136c127 0 197 47 197 129c0 65 -62 88 -122 88h-153z" />
    <glyph glyph-name="afii10093" unicode="&#x44b;" horiz-adv-x="733" 
d="M25 0l137 510h49l-55 -205h145c59 0 107 -15 136 -44c21 -21 33 -50 33 -86c0 -112 -95 -175 -245 -175h-200zM86 44h135c127 0 197 47 197 129c0 65 -62 88 -122 88h-152zM522 0l137 510h49l-137 -510h-49z" />
    <glyph glyph-name="afii10094" unicode="&#x44c;" horiz-adv-x="529" 
d="M25 0l137 510h49l-55 -205h146c59 0 107 -15 136 -44c21 -21 33 -50 33 -86c0 -112 -95 -175 -245 -175h-201zM86 44h136c127 0 197 47 197 129c0 65 -62 88 -122 88h-153z" />
    <glyph glyph-name="afii10095" unicode="&#x44d;" horiz-adv-x="562" 
d="M210 -12c-104 0 -169 59 -200 123l41 23c31 -54 77 -100 162 -100c111 0 210 91 237 205h-256l11 44h251c1 5 1 10 1 16c0 115 -83 177 -172 177c-63 0 -113 -26 -158 -67l-29 36c50 45 112 77 190 77c112 0 222 -80 222 -220c0 -167 -139 -314 -300 -314z" />
    <glyph glyph-name="afii10096" unicode="&#x44e;" horiz-adv-x="814" 
d="M471 -12c-131 0 -211 92 -211 215c0 10 0 20 1 31h-125l-62 -234h-49l136 510h49l-62 -231h120c30 133 141 243 283 243c132 0 211 -93 211 -216c0 -167 -125 -318 -291 -318zM476 34c130 0 233 126 233 270c0 104 -61 172 -163 172c-133 0 -233 -129 -233 -270
c0 -105 60 -172 163 -172z" />
    <glyph glyph-name="afii10097" unicode="&#x44f;" horiz-adv-x="570" 
d="M-10 0l212 204c-70 15 -111 60 -111 130c0 111 95 176 245 176h209l-136 -510h-49l53 199h-156l-203 -199h-64zM260 243h165l60 223h-150c-128 0 -199 -48 -199 -133c0 -57 44 -90 124 -90z" />
    <glyph glyph-name="afii10071" unicode="&#x451;" horiz-adv-x="583" 
d="M272 -12c-130 0 -222 88 -222 214c0 159 129 320 295 320c128 0 193 -90 193 -195c0 -34 -5 -63 -14 -89h-419c-1 -11 -2 -23 -2 -34c0 -103 69 -170 169 -170c77 0 125 28 174 68l29 -35c-53 -44 -111 -79 -203 -79zM114 282h370c2 9 4 23 4 42c0 82 -45 153 -144 153
c-114 0 -201 -90 -230 -195zM252 595l22 80h69l-22 -80h-69zM415 595l22 80h69l-22 -80h-69z" />
    <glyph glyph-name="afii10099" unicode="&#x452;" horiz-adv-x="609" 
d="M279 -12c-39 0 -73 6 -101 23l25 42c23 -13 44 -19 82 -19c87 0 143 46 172 151l30 107c5 19 8 44 8 63c0 76 -50 123 -131 123c-87 0 -183 -79 -213 -190l-77 -288h-49l156 581h-84l12 44h84l28 105h49l-28 -105h228l-12 -44h-228l-45 -166c50 60 107 107 193 107
c101 0 167 -64 167 -162c0 -22 -5 -48 -11 -72l-30 -112c-33 -122 -96 -188 -225 -188z" />
    <glyph glyph-name="afii10100" unicode="&#x453;" horiz-adv-x="460" 
d="M25 0l137 510h337l-12 -44h-288l-125 -466h-49zM277 595l124 133l62 -30l-135 -103h-51z" />
    <glyph glyph-name="afii10101" unicode="&#x454;" horiz-adv-x="563" 
d="M272 -12c-112 0 -222 80 -222 220c0 167 139 314 300 314c96 0 158 -50 192 -108l-42 -24c-31 48 -76 86 -153 86c-107 0 -204 -85 -234 -193h262l-11 -44h-260c-1 -10 -1 -19 -1 -28c0 -115 83 -177 172 -177c76 0 127 30 174 74l33 -32c-52 -50 -114 -88 -210 -88z" />
    <glyph glyph-name="afii10102" unicode="&#x455;" horiz-adv-x="495" 
d="M217 -11c-79 0 -158 30 -216 88l35 35c56 -54 120 -78 187 -78c65 0 132 40 132 101c0 39 -22 68 -111 101c-97 36 -143 70 -143 137c0 81 74 148 189 148c72 0 141 -32 184 -68l-32 -37c-39 32 -97 60 -157 60c-86 0 -132 -47 -132 -95c0 -39 20 -63 115 -100
c102 -40 139 -77 139 -138c0 -89 -87 -154 -190 -154z" />
    <glyph glyph-name="afii10103" unicode="&#x456;" horiz-adv-x="250" 
d="M32 0l137 510h49l-137 -510h-49zM199 643l18 67h61l-18 -67h-61z" />
    <glyph glyph-name="afii10104" unicode="&#x457;" horiz-adv-x="250" 
d="M92 595l22 80h69l-22 -80h-69zM255 595l22 80h69l-22 -80h-69zM32 0l137 510h49l-137 -510h-49z" />
    <glyph glyph-name="afii10105" unicode="&#x458;" horiz-adv-x="249" 
d="M-52 -163c-22 0 -39 2 -63 10l12 44c14 -4 33 -8 47 -8c34 0 62 21 75 69l150 558h49l-151 -562c-19 -70 -62 -111 -119 -111zM199 643l18 67h61l-18 -67h-61z" />
    <glyph glyph-name="afii10106" unicode="&#x459;" horiz-adv-x="900" 
d="M-3 -8c-16 0 -48 3 -60 9l20 44c6 -3 26 -7 36 -7c68 0 124 30 237 445l8 27h344l-55 -205h146c59 0 107 -15 136 -44c21 -21 33 -50 33 -86c0 -112 -95 -175 -245 -175h-201l125 466h-248l-4 -14c-114 -422 -178 -460 -272 -460zM457 44h136c127 0 197 47 197 129
c0 65 -62 88 -122 88h-153z" />
    <glyph glyph-name="afii10107" unicode="&#x45a;" horiz-adv-x="909" 
d="M25 0l137 510h49l-58 -218h331l58 218h49l-58 -218h149c102 0 169 -44 169 -127c0 -102 -95 -165 -245 -165h-201l67 248h-331l-67 -248h-49zM466 44h136c127 0 197 47 197 119c0 62 -62 85 -122 85h-156z" />
    <glyph glyph-name="afii10108" unicode="&#x45b;" horiz-adv-x="609" 
d="M25 0l156 581h-84l12 44h84l28 105h49l-28 -105h228l-12 -44h-228l-45 -166c50 60 107 107 193 107c101 0 167 -64 167 -162c0 -22 -5 -48 -11 -72l-76 -288h-49l78 292c5 19 8 44 8 63c0 76 -50 123 -131 123c-87 0 -183 -79 -213 -190l-77 -288h-49z" />
    <glyph glyph-name="afii10109" unicode="&#x45c;" horiz-adv-x="560" 
d="M25 0l137 510h49l-86 -321l396 321h71l-284 -228l152 -282h-57l-136 252l-160 -128l-33 -124h-49zM297 595l124 133l62 -30l-135 -103h-51z" />
    <glyph glyph-name="afii10110" unicode="&#x45e;" horiz-adv-x="568" 
d="M20 -163c-39 0 -75 12 -108 35l27 40c21 -17 60 -29 87 -29c52 0 100 30 163 120l-104 507h52l89 -456l307 456h59l-363 -528c-74 -107 -136 -145 -209 -145zM348 595c-71 0 -115 48 -118 113l42 9c6 -45 25 -73 77 -73s93 28 111 73l40 -9c-21 -65 -81 -113 -152 -113z
" />
    <glyph glyph-name="afii10193" unicode="&#x45f;" horiz-adv-x="603" 
d="M174 -144l39 144h-187l136 510h49l-124 -466h318l124 466h49l-136 -510h-179l-39 -144h-50z" />
    <glyph glyph-name="afii10050" unicode="&#x490;" horiz-adv-x="582" 
d="M36 0l188 700h383l43 160h44l-46 -208h-385l-175 -652h-52z" />
    <glyph glyph-name="afii10098" unicode="&#x491;" horiz-adv-x="460" 
d="M25 0l137 510h286l39 144h40l-40 -188h-288l-125 -466h-49z" />
    <glyph glyph-name="endash" unicode="&#x2013;" horiz-adv-x="528" 
d="M74 271l14 52h388l-14 -52h-388z" />
    <glyph glyph-name="emdash" unicode="&#x2014;" horiz-adv-x="898" 
d="M74 271l14 52h758l-14 -52h-758z" />
    <glyph glyph-name="quoteleft" unicode="&#x2018;" horiz-adv-x="231" 
d="M147 513l20 74c19 70 49 98 115 117l7 -24c-49 -17 -73 -44 -80 -82h27l-23 -85h-66z" />
    <glyph glyph-name="quoteright" unicode="&#x2019;" horiz-adv-x="231" 
d="M138 509l-7 24c49 17 73 44 80 82h-27l23 85h66l-20 -74c-20 -70 -49 -98 -115 -117z" />
    <glyph glyph-name="quotesinglbase" unicode="&#x201a;" horiz-adv-x="231" 
d="M-32 -106l-7 24c49 17 73 44 80 82h-27l23 85h66l-20 -74c-20 -70 -49 -98 -115 -117z" />
    <glyph glyph-name="quotedblleft" unicode="&#x201c;" horiz-adv-x="411" 
d="M146 513l20 74c19 70 49 98 115 117l7 -24c-49 -17 -73 -44 -80 -82h27l-23 -85h-66zM326 513l20 74c19 70 49 98 115 117l7 -24c-49 -17 -73 -44 -80 -82h27l-23 -85h-66z" />
    <glyph glyph-name="quotedblright" unicode="&#x201d;" horiz-adv-x="411" 
d="M127 509l-7 24c49 17 73 44 80 82h-27l23 85h66l-20 -74c-20 -70 -49 -98 -115 -117zM307 509l-7 24c49 17 73 44 80 82h-27l23 85h66l-20 -74c-20 -70 -49 -98 -115 -117z" />
    <glyph glyph-name="quotedblbase" unicode="&#x201e;" horiz-adv-x="412" 
d="M-32 -106l-7 24c49 17 73 44 80 82h-27l23 85h66l-20 -74c-20 -70 -49 -98 -115 -117zM149 -106l-7 24c49 17 73 44 80 82h-27l23 85h66l-20 -74c-20 -70 -49 -98 -115 -117z" />
    <glyph glyph-name="dagger" unicode="&#x2020;" horiz-adv-x="410" 
d="M160 238l81 286l-126 -7l12 45l122 -7l32 145h50l-46 -145l126 7l-12 -45l-124 7l-71 -286h-44z" />
    <glyph glyph-name="daggerdbl" unicode="&#x2021;" horiz-adv-x="430" 
d="M103 0l46 145l-126 -7l12 45l123 -7l42 174l51 174l-126 -7l12 45l122 -7l32 145h50l-46 -145l126 7l-12 -45l-124 7l-41 -174l-52 -174l127 7l-12 -45l-122 7l-32 -145h-50z" />
    <glyph glyph-name="bullet" unicode="&#x2022;" horiz-adv-x="470" 
d="M232 222c-61 0 -105 42 -105 109c0 81 66 151 143 151c61 0 105 -42 105 -109c0 -81 -66 -151 -143 -151z" />
    <glyph glyph-name="ellipsis" unicode="&#x2026;" horiz-adv-x="683" 
d="M14 0l23 85h66l-23 -85h-66zM240 0l23 85h66l-23 -85h-66zM466 0l23 85h66l-23 -85h-66z" />
    <glyph glyph-name="perthousand" unicode="&#x2030;" horiz-adv-x="1203" 
d="M65 0l682 700h60l-682 -700h-60zM588 -7c-81 0 -137 64 -137 143c0 112 84 219 191 219c81 0 137 -64 137 -143c0 -112 -84 -219 -191 -219zM592 36c77 0 138 89 138 171c0 63 -33 105 -92 105c-77 0 -138 -89 -138 -171c0 -63 33 -105 92 -105zM970 -7
c-81 0 -137 64 -137 143c0 112 84 219 191 219c81 0 137 -64 137 -143c0 -112 -84 -219 -191 -219zM974 36c77 0 138 89 138 171c0 63 -33 105 -92 105c-77 0 -138 -89 -138 -171c0 -63 33 -105 92 -105zM230 346c-81 0 -137 64 -137 143c0 112 84 219 191 219
c81 0 137 -64 137 -143c0 -112 -84 -219 -191 -219zM234 389c77 0 138 89 138 171c0 63 -33 105 -92 105c-77 0 -138 -89 -138 -171c0 -63 33 -105 92 -105z" />
    <glyph glyph-name="guilsinglleft" unicode="&#x2039;" horiz-adv-x="311" 
d="M149 42l-104 209l2 8l216 209l36 -28l-192 -192l83 -184z" />
    <glyph glyph-name="guilsinglright" unicode="&#x203a;" horiz-adv-x="311" 
d="M47 41l-36 28l192 192l-83 184l41 22l104 -209l-2 -8z" />
    <glyph glyph-name="fraction" unicode="&#x2044;" horiz-adv-x="550" 
d="M-83 -98l697 856h59l-697 -856h-59z" />
    <glyph glyph-name="Euro" unicode="&#x20ac;" horiz-adv-x="684" 
d="M372 -12c-135 0 -236 97 -243 257h-92l13 48h80c2 42 9 84 21 123h-69l13 48h73c57 142 174 248 325 248c117 0 189 -71 219 -159l-45 -18c-33 79 -84 130 -183 130c-113 0 -209 -84 -261 -201h301l-13 -48h-306c-12 -39 -20 -81 -22 -123h296l-13 -48h-283
c6 -123 74 -210 190 -210c86 0 146 37 201 98l35 -30c-60 -67 -130 -115 -237 -115z" />
    <glyph glyph-name="afii61352" unicode="&#x2116;" horiz-adv-x="953" 
d="M36 0l188 700h53l242 -611l164 611h52l-187 -700h-44l-248 626l-168 -626h-52zM681 174l11 40h238l-11 -40h-238zM854 292c-72 0 -117 54 -117 117c0 79 68 147 145 147c73 0 116 -54 116 -116c0 -80 -65 -148 -144 -148zM855 331c57 0 100 50 100 109
c0 44 -29 77 -74 77c-55 0 -101 -49 -101 -108c0 -45 30 -78 75 -78z" />
    <glyph glyph-name="published" unicode="&#x2117;" horiz-adv-x="830" 
d="M439 -12c-203 0 -361 163 -361 361s160 363 363 363s361 -163 361 -361s-160 -363 -363 -363zM439 16c190 0 333 151 333 335s-142 333 -331 333c-190 0 -333 -151 -333 -335s142 -333 331 -333zM321 175v366h141c86 0 143 -41 143 -116c0 -83 -71 -122 -150 -122h-90
v-128h-44zM365 344h91c63 0 104 28 104 79c0 53 -39 77 -101 77h-94v-156z" />
    <glyph glyph-name="trademark" unicode="&#x2122;" horiz-adv-x="690" 
d="M154 392l78 274h-101l10 34h237l-10 -34h-101l-78 -274h-35zM360 392l88 308h32l72 -183l168 183h41l-88 -308h-35l71 246l-167 -178h-5l-71 178l-71 -246h-35z" />
    <glyph glyph-name="partialdiff" unicode="&#x2202;" 
d="M0 0v700h500v-700h-500zM81 49h339l-170 255zM49 96l171 254l-171 254v-508zM450 96v508l-171 -254zM250 395l170 255h-339z" />
    <glyph glyph-name="Delta" unicode="&#x2206;" horiz-adv-x="790" 
d="M-10 0l504 705h50l128 -705h-682zM81 48h529l-103 600z" />
    <glyph glyph-name="product" unicode="&#x220f;" 
d="M0 0v700h500v-700h-500zM81 49h339l-170 255zM49 96l171 254l-171 254v-508zM450 96v508l-171 -254zM250 395l170 255h-339z" />
    <glyph glyph-name="summation" unicode="&#x2211;" 
d="M0 0v700h500v-700h-500zM81 49h339l-170 255zM49 96l171 254l-171 254v-508zM450 96v508l-171 -254zM250 395l170 255h-339z" />
    <glyph glyph-name="minus" unicode="&#x2212;" horiz-adv-x="640" 
d="M123 328l14 51h454l-14 -51h-454z" />
    <glyph glyph-name="radical" unicode="&#x221a;" horiz-adv-x="481" 
d="M624 786l-478 -1000h-55l-75 346l-51 -22l-8 40l99 43l74 -346l445 939h49z" />
    <glyph glyph-name="infinity" unicode="&#x221e;" horiz-adv-x="722" 
d="M200 217c-80 0 -132 59 -132 137c0 76 51 141 130 141c77 0 139 -65 192 -112c56 47 104 112 185 112c80 0 135 -62 135 -141c0 -80 -50 -137 -132 -137c-75 0 -137 56 -188 105c-57 -47 -111 -105 -190 -105zM201 265c54 0 117 53 155 89c-42 32 -100 93 -158 93
c-51 0 -82 -45 -82 -93c0 -52 32 -89 85 -89zM580 265c52 0 82 40 82 89c0 53 -29 93 -85 93s-116 -57 -154 -93c44 -38 95 -89 157 -89z" />
    <glyph glyph-name="integral" unicode="&#x222b;" 
d="M0 0v700h500v-700h-500zM81 49h339l-170 255zM49 96l171 254l-171 254v-508zM450 96v508l-171 -254zM250 395l170 255h-339z" />
    <glyph glyph-name="approxequal" unicode="&#x2248;" horiz-adv-x="640" 
d="M642 500c-24 -66 -77 -129 -152 -129c-89 0 -187 74 -263 74c-48 0 -88 -39 -106 -83h-38c29 67 75 131 154 131c87 0 186 -74 264 -74c49 0 85 37 104 81h37zM599 339c-24 -66 -78 -129 -152 -129c-90 0 -186 74 -263 74c-48 0 -88 -39 -106 -83h-38
c29 67 74 131 153 131c89 0 187 -74 265 -74c49 0 85 37 104 81h37z" />
    <glyph glyph-name="notequal" unicode="&#x2260;" horiz-adv-x="640" 
d="M141 439l14 51h269l100 124l36 -22l-82 -102h131l-14 -51h-158l-139 -174h251l-14 -51h-279l-94 -117l-35 23l75 94h-121l14 51h149l139 174h-242z" />
    <glyph glyph-name="lessequal" unicode="&#x2264;" horiz-adv-x="640" 
d="M502 97l-445 193l15 54l548 193l-14 -57l-476 -166l387 -166zM478 5h-497l13 48h497z" />
    <glyph glyph-name="greaterequal" unicode="&#x2265;" horiz-adv-x="640" 
d="M567 290l-549 -193l15 58l474 166l-385 166l14 50l446 -193zM491 5h-497l13 48h497z" />
    <glyph glyph-name="lozenge" unicode="&#x25ca;" horiz-adv-x="640" 
d="M554 356l-169 -391h-53l-167 391l167 391h53zM501 356l-142 335l-140 -335l140 -335z" />
    <glyph glyph-name="cyrBreve" unicode="&#xf6d1;" 
d="M348 595c-71 0 -115 48 -118 113l42 9c6 -45 25 -73 77 -73s93 28 111 73l40 -9c-21 -65 -81 -113 -152 -113z" />
    <glyph glyph-name="cyrbreve" unicode="&#xf6d4;" 
d="M348 595c-71 0 -115 48 -118 113l42 9c6 -45 25 -73 77 -73s93 28 111 73l40 -9c-21 -65 -81 -113 -152 -113z" />
    <glyph glyph-name="apple" unicode="&#xf8ff;" 
d="M0 0v700h500v-700h-500zM81 49h339l-170 255zM49 96l171 254l-171 254v-508zM450 96v508l-171 -254zM250 395l170 255h-339z" />
    <glyph glyph-name="ff" unicode="&#xfb00;" horiz-adv-x="724" 
d="M55 0l125 465h-74l12 45h74l20 74c26 98 82 146 163 146c38 0 74 -9 102 -24l-12 -44c-34 16 -59 24 -92 24c-53 0 -95 -34 -115 -113l-17 -63h184l-12 -45h-184l-125 -465h-49zM417 0l125 465h-74l12 45h74l20 74c26 97 82 146 163 146c38 0 74 -9 102 -24l-12 -44
c-34 16 -59 24 -92 24c-53 0 -94 -34 -115 -113l-17 -63h184l-12 -45h-184l-125 -465h-49z" />
    </font>
</defs>
</svg>
