<svg xmlns="http://www.w3.org/2000/svg">
<defs>
<font horiz-adv-x="0" id="font"><font-face ascent="750" bbox="0 -250 3250 1143" cap-height="750" descent="-50" font-family="Solide Mirage" font-stretch="semi-expanded" font-weight="400" units-per-em="1000" x-height="500" /><missing-glyph d="M40 600H50V700H40ZM80 600H90V700H80ZM130 645V655H85V645ZM150 690V700H85V690ZM215 600H225V650H215ZM260 645V655H180V645ZM180 650H190V700H180ZM250 650H260V700H250ZM290 600V700H300V600ZM360 690H295V700H360ZM360 600H295V610H360ZM355 600V700H365V600ZM395 600V700H405V600ZM470 600H400V610H470ZM465 600V700H475V600ZM40 450H50V550H40ZM85 450V460H45V450ZM80 450H90V515H80ZM125 450V460H85V450ZM120 450H130V550H120ZM275 450H285V550H275ZM345 450H355V550H345ZM295 550V510H305V550ZM300 550H280V540H300ZM310 520V480H320V520ZM315 520H295V510H315ZM325 490V450H335V490ZM330 490H310V480H330ZM350 460H330V450H350ZM410 450H420V550H410ZM455 540V550H375V540ZM495 450H505V550H495ZM515 550V510H525V550ZM520 550H500V540H520ZM530 520V480H540V520ZM535 520H515V510H535ZM550 490H530V480H550ZM605 450V550H595V450ZM585 550H575V510H585ZM580 550V540H600V550ZM570 520H560V480H570ZM565 520V510H585V520ZM550 490V480H570V490ZM545 490V450H555V490ZM635 450H645V550H635ZM705 540V550H640V540ZM705 450V460H640V450ZM700 450H710V550H700ZM735 500V450H745V500ZM785 550H740V540H785ZM810 500V450H820V500ZM815 500H740V490H815ZM735 550V500H745V550ZM780 550V500H790V550ZM840 450H850V550H840ZM890 495V505H845V495ZM910 540V550H845V540ZM910 450V460H845V450ZM40 150H50V250H40ZM105 240V250H45V240ZM105 150V160H45V150ZM130 150H140V250H130ZM200 240V250H135V240ZM200 150V160H135V150ZM195 150H205V250H195ZM235 150H245V250H235ZM305 150H315V250H305ZM255 250V210H265V250ZM260 250H240V240H260ZM270 220V180H280V220ZM275 220H255V210H275ZM285 190V150H295V190ZM290 190H270V180H290ZM310 160H290V150H310ZM365 150H375V250H365ZM410 240V250H330V240ZM525 150H535V250H525ZM590 240V250H530V240ZM590 150V160H530V150ZM645 150H655V250H645ZM690 240V250H610V240ZM50 100V60H60V100ZM55 100H35V90H55ZM65 70V30H75V70ZM70 70H50V60H70ZM85 40H65V30H
<glyph d="M805 0H678L405 750H532ZM870 25V0H528V25ZM306 0V25H60V0ZM392 750H423L161 25H130ZM497 750V725H210V750ZM626 262V235H234V262ZM414 750Z" glyph-name="A" horiz-adv-x="930" unicode="A" /><glyph d="M132 11 435 719C450 754 475 752 490 744C505 736 514 716 507 691L325 48C322 36 324 30 332 28C340 26 349 31 354 42L551 512C565 545 586 545 602 537C616 529 629 509 623 479L539 44C538 38 538 30 543 29C551 27 555 31 559 40L650 242C662 269 687 269 701 261C719 251 722 229 717 206L679 38C678 32 678 28 682 27C687 26 690 28 694 35L741 111L765 96L721 25C706 0 688 -4 674 0C655 5 645 20 651 45L689 212C691 222 694 231 688 235C683 238 679 235 677 230L585 28C575 6 554 -2 538 1C521 4 504 18 510 49L595 485C597 497 597 506 591 510C585 514 580 509 577 501L380 31C369 4 345 -4 326 0C305 5 289 23 297 52L479 699C482 708 483 715 477 718C471 721 465 718 461 708L157 0ZM414 750Z" glyph-name="A.2" horiz-adv-x="930" /><glyph d="M526 0H380V25H526ZM670 414V387H439V414ZM781 461H756V566C756 694 729 723 599 723H323V750H781ZM800 289V0H498V27H598C742 27 775 60 775 194V289ZM656 222V565H681V222ZM595 0H468L320 750H447ZM276 0V25H60V0ZM307 750H338L161 25H130ZM397 750V725H180V750ZM496 222V195H194V222ZM482 750Z" glyph-name="AE" horiz-adv-x="930" unicode="&#198;" /><glyph d="M805 0H678L405 750H532ZM870 25V0H528V25ZM306 0V25H60V0ZM392 750H423L161 25H130ZM497 750V725H210V750ZM626 262V235H234V262ZM414 750ZM647 917C519 855 413 828 182 815V800C413 800 525 801 647 854ZM426 750Z" glyph-name="Aacute" horiz-adv-x="930" unicode="&#193;" /><glyph d="M805 0H678L405 750H532ZM870 25V0H528V25ZM306 0V25H60V0ZM392 750H423L161 25H130ZM497 750V725H210V750ZM626 262V235H234V262ZM414 750ZM611 903C611 831.0943 574 800 412 800C250 800 213 831.0943 213 903H240C240 862.3846 263 837 411 837C561 837 584 862.3846 584 903ZM414 750Z" glyph-name="Abreve" horiz-adv-x="930" unicode="&#258;" /><glyph d="M805 0H678L405 750H532ZM870 25V0H528V25ZM306 0V25H60V0ZM392 750H423L161 25H130ZM497 750V725H210V750ZM626 262V235H234V262ZM414 750ZM414 937C337 864 286 832 179 815V800C286 810 342 824 414 879ZM414 937V879C486 824 542 810 649 800V815C542 832 491 864 414 937ZM414 750Z" glyph-name="Acircumflex" horiz-adv-x="930" unicode="&#194;" /><glyph d="M805 0H678L405 750H532ZM870 25V0H528V25ZM306 0V25H60V0ZM392 750H423L161 25H130ZM497 750V725H210V750ZM626 262V235H234V262ZM414 750ZM275 800C329 800 354 811 354 833C354 856 329 870 275 870C221 870 196 856 196 833C196 811 221 800 275 800ZM547 800C601 800 626 811 626 833C626 856 601 870 547 870C493 870 468 856 468 833C468 811 493 800 547 800ZM414 750Z" glyph-name="Adieresis" horiz-adv-x="930" unicode="&#196;" /><glyph d="M805 0H678L405 750H532ZM870 25V0H528V25ZM306 0V25H60V0ZM392 750H423L161 25H130ZM497 750V725H210V750ZM626 262V235H234V262ZM414 750ZM193 917V854C315 801 427 800 658 800V815C426.9853 828.0008 321.2283 855.41 193 917ZM414 750Z" glyph-name="Agrave" horiz-adv-x="930" unicode="&#192;" /><glyph d="M805 0H678L405 750H532ZM870 25V0H528V25ZM306 0V25H60V0ZM392 750H423L161 25H130ZM497 750V725H210V750ZM626 262V235H234V262ZM414 750ZM627 825H201V857H627ZM414 750Z" glyph-name="Amacron" horiz-adv-x="930" unicode="&#256;" /><glyph d="M805 0H678L405 750H532ZM870 25V0H528V25ZM306 0V25H60V0ZM392 750H423L161 25H130ZM497 750V725H210V750ZM626 262V235H234V262ZM414 750ZM237 853C237 869 260 879 408 879C558 879 581 869 581 853C581 837 558 827 408 827C260 827 237 837 237 853ZM608 853C608 890 571 906 409 906C247 906 210 890 210 853C210 816 247 800 409 800C571 800 608 816 608 853ZM411 750Z" glyph-name="Aring" horiz-adv-x="930" unicode="&#197;" /><glyph d="M805 0H678L405 750H532ZM870 25V0H528V25ZM306 0V25H60V0ZM392 750H423L161 25H130ZM497 750V725H210V750ZM626 262V235H234V262ZM414 750ZM311 896C245 896 218 861 218 800H241C241 838 278 852 302 852C369 852 446 800 511 800C577 800 604 835 604 896H581C581 858 544 844 520 844C467 844 380 896 311 896ZM414 750Z" glyph-name="Atilde" horiz-adv-x="930" unicode="&#195;" /><glyph d="M322 0H194V750H322ZM266 0H90V25H266ZM90 725V750H266V725ZM341 399H564C700 399 840 336 840 198C840 63 715 0 573 0H312V27H512C652 27 700 70 700 197C700 326 651 372 512 372H341ZM281 372V399H452C596 399 640 437 640 563C640 683 593 723 452 723H282V750H513C655 750 780 691 780 562C780 433 615 372 454 372Z" glyph-name="B" horiz-adv-x="930" unicode="B" /><glyph d="M820 421V750H795V421ZM840 1V311H815V1ZM815 311C815 105 694 9 496 9C293 9 230 110 230 367C230 640 289 743 491 743C696 743 795 629 795 421H820C820 643 706 770 490 770C214 770 90 627 90 368C90 116 219 -20 496 -20C714 -20 840 96 840 311ZM495 0ZM491 750Z" glyph-name="C" horiz-adv-x="930" unicode="C" /><glyph d="M820 421V750H795V421ZM840 1V311H815V1ZM815 311C815 105 694 9 496 9C293 9 230 110 230 367C230 640 289 743 491 743C696 743 795 629 795 421H820C820 643 706 770 490 770C214 770 90 627 90 368C90 116 219 -20 496 -20C714 -20 840 96 840 311ZM495 0ZM491 750ZM714 917C586 855 480 828 249 815V800C480 800 592 801 714 854ZM493 750Z" glyph-name="Cacute" horiz-adv-x="930" unicode="&#262;" /><glyph d="M820 421V750H795V421ZM840 1V311H815V1ZM815 311C815 105 694 9 496 9C293 9 230 110 230 367C230 640 289 743 491 743C696 743 795 629 795 421H820C820 643 706 770 490 770C214 770 90 627 90 368C90 116 219 -20 496 -20C714 -20 840 96 840 311ZM495 0ZM491 750ZM491 780V838C419 893 363 907 256 917V902C363 885 414 853 491 780ZM491 780C568 853 619 885 726 902V917C619 907 563 893 491 838ZM491 750Z" glyph-name="Ccaron" horiz-adv-x="930" unicode="&#268;" /><glyph d="M820 421V750H795V421ZM840 1V311H815V1ZM815 311C815 105 694 9 496 9C293 9 230 110 230 367C230 640 289 743 491 743C696 743 795 629 795 421H820C820 643 706 770 490 770C214 770 90 627 90 368C90 116 219 -20 496 -20C714 -20 840 96 840 311ZM495 0ZM491 750ZM404 -58 497 -16 489 2 332 -68 342 -87 376 -69ZM334 -70 342 -87C383 -70 422 -72 496 -72C640 -72 666 -83 666 -97C666 -113 643 -123 493 -123C397 -123 339 -118 281 -92L268 -118C330 -145 391 -150 494 -150C656 -150 693 -134 693 -97C693 -61 651 -47 496 -47C451 -47 373 -53 334 -70ZM495 0Z" glyph-name="Ccedilla" horiz-adv-x="930" unicode="&#199;" /><glyph d="M820 421V750H795V421ZM840 1V311H815V1ZM815 311C815 105 694 9 496 9C293 9 230 110 230 367C230 640 289 743 491 743C696 743 795 629 795 421H820C820 643 706 770 490 770C214 770 90 627 90 368C90 116 219 -20 496 -20C714 -20 840 96 840 311ZM495 0ZM491 750ZM491 937C414 864 363 832 256 815V800C363 810 419 824 491 879ZM491 937V879C563 824 619 810 726 800V815C619 832 568 864 491 937ZM491 750Z" glyph-name="Ccircumflex" horiz-adv-x="930" unicode="&#264;" /><glyph d="M820 421V750H795V421ZM840 1V311H815V1ZM815 311C815 105 694 9 496 9C293 9 230 110 230 367C230 640 289 743 491 743C696 743 795 629 795 421H820C820 643 706 770 490 770C214 770 90 627 90 368C90 116 219 -20 496 -20C714 -20 840 96 840 311ZM495 0ZM491 750ZM490 800C544 800 569 811 569 833C569 856 544 870 490 870C436 870 411 856 411 833C411 811 436 800 490 800ZM491 750Z" glyph-name="Cdotaccent" horiz-adv-x="930" unicode="&#266;" /><glyph d="M322 0H194V750H322ZM266 0H90V25H266ZM90 724V750H266V724ZM312 750H471C715 750 840 642 840 375C840 108 715 0 474 0H313V28H454C634 28 700 127 700 374C700 622 633 722 452 722H312Z" glyph-name="D" horiz-adv-x="930" unicode="D" /><glyph d="M322 0H194V750H322ZM266 0H90V25H266ZM90 725V750H266V725ZM590 394V367H289V394ZM781 461H756V566C756 694 729 723 599 723H298V750H781ZM800 289V0H298V27H598C742 27 775 60 775 194V289ZM576 202V545H601V202ZM482 750Z" glyph-name="E" horiz-adv-x="930" unicode="E" /><glyph d="M322 0H194V750H322ZM266 0H90V25H266ZM90 725V750H266V725ZM590 394V367H289V394ZM781 461H756V566C756 694 729 723 599 723H298V750H781ZM800 289V0H298V27H598C742 27 775 60 775 194V289ZM576 202V545H601V202ZM482 750ZM715 917C587 855 481 828 250 815V800C481 800 593 801 715 854ZM494 750Z" glyph-name="Eacute" horiz-adv-x="930" unicode="&#201;" /><glyph d="M322 0H194V750H322ZM266 0H90V25H266ZM90 725V750H266V725ZM590 394V367H289V394ZM781 461H756V566C756 694 729 723 599 723H298V750H781ZM800 289V0H298V27H598C742 27 775 60 775 194V289ZM576 202V545H601V202ZM482 750ZM679 903C679 831.0943 642 800 480 800C318 800 281 831.0943 281 903H308C308 862.3846 331 837 479 837C629 837 652 862.3846 652 903ZM482 750Z" glyph-name="Ebreve" horiz-adv-x="930" unicode="&#276;" /><glyph d="M322 0H194V750H322ZM266 0H90V25H266ZM90 725V750H266V725ZM590 394V367H289V394ZM781 461H756V566C756 694 729 723 599 723H298V750H781ZM800 289V0H298V27H598C742 27 775 60 775 194V289ZM576 202V545H601V202ZM482 750ZM482 780V838C410 893 354 907 247 917V902C354 885 405 853 482 780ZM482 780C559 853 610 885 717 902V917C610 907 554 893 482 838ZM482 750Z" glyph-name="Ecaron" horiz-adv-x="930" unicode="&#282;" /><glyph d="M322 0H194V750H322ZM266 0H90V25H266ZM90 725V750H266V725ZM590 394V367H289V394ZM781 461H756V566C756 694 729 723 599 723H298V750H781ZM800 289V0H298V27H598C742 27 775 60 775 194V289ZM576 202V545H601V202ZM482 750ZM482 937C405 864 354 832 247 815V800C354 810 410 824 482 879ZM482 937V879C554 824 610 810 717 800V815C610 832 559 864 482 937ZM482 750Z" glyph-name="Ecircumflex" horiz-adv-x="930" unicode="&#202;" /><glyph d="M322 0H194V750H322ZM266 0H90V25H266ZM90 725V750H266V725ZM590 394V367H289V394ZM781 461H756V566C756 694 729 723 599 723H298V750H781ZM800 289V0H298V27H598C742 27 775 60 775 194V289ZM576 202V545H601V202ZM482 750ZM343 800C397 800 422 811 422 833C422 856 397 870 343 870C289 870 264 856 264 833C264 811 289 800 343 800ZM615 800C669 800 694 811 694 833C694 856 669 870 615 870C561 870 536 856 536 833C536 811 561 800 615 800ZM482 750Z" glyph-name="Edieresis" horiz-adv-x="930" unicode="&#203;" /><glyph d="M322 0H194V750H322ZM266 0H90V25H266ZM90 725V750H266V725ZM590 394V367H289V394ZM781 461H756V566C756 694 729 723 599 723H298V750H781ZM800 289V0H298V27H598C742 27 775 60 775 194V289ZM576 202V545H601V202ZM482 750ZM481 800C535 800 560 811 560 833C560 856 535 870 481 870C427 870 402 856 402 833C402 811 427 800 481 800ZM482 750Z" glyph-name="Edotaccent" horiz-adv-x="930" unicode="&#278;" /><glyph d="M322 0H194V750H322ZM266 0H90V25H266ZM90 725V750H266V725ZM590 394V367H289V394ZM781 461H756V566C756 694 729 723 599 723H298V750H781ZM800 289V0H298V27H598C742 27 775 60 775 194V289ZM576 202V545H601V202ZM482 750ZM261 917V854C383 801 495 800 726 800V815C494.9853 828.0008 389.2283 855.41 261 917ZM482 750Z" glyph-name="Egrave" horiz-adv-x="930" unicode="&#200;" /><glyph d="M322 0H194V750H322ZM266 0H90V25H266ZM90 725V750H266V725ZM590 394V367H289V394ZM781 461H756V566C756 694 729 723 599 723H298V750H781ZM800 289V0H298V27H598C742 27 775 60 775 194V289ZM576 202V545H601V202ZM482 750ZM695 825H269V857H695ZM482 750Z" glyph-name="Emacron" horiz-adv-x="930" unicode="&#274;" /><glyph d="M518 398H70V425H518ZM322 0H194V750H322ZM266 0H90V25H266ZM90 724V750H266V724ZM312 750H471C715 750 840 642 840 375C840 108 715 0 474 0H313V28H454C634 28 700 127 700 374C700 622 633 722 452 722H312Z" glyph-name="Eth" horiz-adv-x="930" unicode="&#208;" /><glyph d="M630 458V485L49 367V340ZM820 421V750H795V421ZM840 1V311H815V1ZM815 311C815 105 701.5862 9 516 9C335.7222 9 280 110 280 367C280 640 332.5498 743 511 743C702.5132 743 795 629 795 421H820C820 643 712.9091 770 510 770C255.2286 770 140 627 140 368C140 116 259.3483 -20 516 -20C721.3256 -20 840 96 840 311ZM629 346V373L49 255V227Z" glyph-name="Euro" horiz-adv-x="930" unicode="&#8364;" /><glyph d="M322 750V0H194V750ZM266 750V725H90V750ZM90 25H510V0H90ZM615 296H309V323H615ZM601 481H626V138H601ZM810 411H785V556C785 690 752 723 608 723H308V750H810Z" glyph-name="F" horiz-adv-x="930" unicode="F" /><glyph d="M212 405H149V780H212ZM304 418V405H201V418ZM160 405H72V418H160ZM72 767V780H160V767ZM349 567V554H196V567ZM341 475V646H353V475ZM446 611H433V683C433 750 417 767 345 767H205V780H446ZM694 246V-21H630V-13V246C630 322 624 347 606 347C586 347 569 305 569 206L555 242C563 334 581 365 619 365C667 365 694 320 694 246ZM569 -21H506V355H563V273L569 277ZM790 -21H464V-8H790ZM464 342V355H517V342ZM818 246V-21H755V-13V246C755 322 747 347 728 347C709 347 694 304 694 206L679 242C687 335 702 365 741 365C791 365 818 320 818 246ZM859 -8V-21H807V-8ZM223 186C153 157 71 125 71 61C71 11 104 -28 185 -28C260 -28 333 46 333 107L324 161V116C324 63 263 -8 200 -8C150 -8 141 29 141 84C141 133 167 148 228 174C290 200 323 212 333 241V255H324C324 223 275 208 223 186ZM707 510C757 454 776 436 792 436C807 436 813 449 813 469V531H826V469C826 417 808 395 768 395C739 395 711 412 650 479L534 609C505 641 495 676 495 704C495 754 535 790 605 790C670 790 713 762 713 708C713 663 681 626 636 624L634 636C676 639 700 671 700 708C700 756 661 777 607 777C573 777 543 766 543 731C543 711 553 683 589 643ZM634 636H796V624H634ZM695 504 692 498 682 508 683 511C699 546 701 589 701 628V631L714 633V628C714 590 712 543 695 504ZM549 598 553 600 559 588 555 587C514 571 502 553 502 493C502 435 522 413 557 413C602 413 633 432 666 476L669 480L678 472L676 469C650 423 599 395 537 395C473 395 432 442 432 483C432 541 492 577 549 598ZM226 368C145 368 73 317 73 252C73 221 86 196 111 181L119 192C100 205 86 222 86 252C86 315 158 355 225 355C299 355 324 327 324 256V43C324 -3 344 -28 390 -28C434 -28 445 -12 445 42V80H432V43C432 5 428 -9 408 -9C395 -9 388 9 388 42V246C388 320 334 368 226 368Z" glyph-name="FAM" horiz-adv-x="930" /><glyph d="M370 0H243V750H370ZM553 25V0H347V25ZM266 0H90V25H266ZM90 724V750H266V724ZM644 324V297H338V324ZM627 139V482H652V139ZM837 411H812V556C812 690 779 723 635 723H355V750H837ZM2919 532V0H2792V15V532C2792 684 2779 734 2744 734C2703 734 2670 650 2670 452L2642 524C2657 709 2693 770 2770 770C2866 770 2919 680 2919 532ZM2670 0H2544V750H2658V587L2670 595ZM3111 0H2460V25H3111ZM2460 725V750H2566V725ZM3168 532V0H3041V15V532C3041 685 3026 734 2988 734C2949 734 2919 649 2919 452L2890 524C2906 710 2936 770 3013 770C3113 770 3168 680 3168 532ZM3250 25V0H3146V25ZM1978 407C1837 348 1674 285 1674 156C1674 58 1740 -20 1902 -20C2052 -20 2197 127 2197 249L2179 356V266C2179 160 2057 19 1932 19C1831 19 1814 92 1814 202C1814 301 1866 331 1988 382C2111 435 2178 459 2197 516V545H2179C2179 481 2082 451 1978 407ZM1360 210C1460 97 1498 62 1529 62C1560 62 1571 88 1571 127V251H1598V127C1598 23 1561 -20 1482 -20C1424 -20 1367 13 1246 148L1014 407C956 471 935 541 935 597C936 697 1016 770 1155 770C1285 770 1372 713 1372 605C1372 515 1308 441 1218 437L1213 462C1298 468 1345 531 1345 605C1345 702 1267 743 1160 743C1091 743 1031 721 1031 651C1031 611 1052 555 1123 476ZM1213 462H1538V437H1213ZM1335 198 1330 186 1309 206 1312 212C1343 281 1348 368 1348 445V452L1374 455V445C1374 369 1370 276 1335 198ZM1044 386 1052 389 1063 366 1055 363C973 332 950 296 950 176C950 59 990 16 1059 16C1149 16 1212 53 1278 141L1284 149L1301 134L1297 127C1245 36 1143 -20 1019 -20C891 -20 810 74 810 155C810 272 930 343 1044 386ZM1983 771C1821 771 1677 669 1677 539C1677 477 1704 426 1754 396L1769 418C1732 444 1704 478 1704 539C1704 664 1848 744 1981 744C2129 744 2179 688 2179 547V121C2179 29 2220 -20 2312 -20C2400 -20 2421 12 2421 119V195H2396V121C2396 45 2387 18 2347 18C2321 18 2307 53 2307 119V527C2307 674 2199 771 1983 771Z" glyph-name="Fam_ligne" horiz-adv-x="3320" /><glyph d="M840 293V318H568V293ZM780 421V750H755V421ZM840 1V311H815V1ZM815 311C815 105 694 9 496 9C293 9 230 110 230 367C230 640 286 743 481 743C666 743 755 629 755 421H780C780 643 677 770 480 770C211 770 90 627 90 368C90 116 219 -20 496 -20C714 -20 840 96 840 311Z" glyph-name="G" horiz-adv-x="930" unicode="G" /><glyph d="M322 3H194V750H322ZM717 404V377H301V404ZM494 725V750H840V725ZM436 750V725H90V750ZM736 3H608V750H736ZM494 0V25H840V0ZM436 25V0H90V25Z" glyph-name="H" horiz-adv-x="930" unicode="H" /><glyph d="M529 0H401V750H529ZM839 25V0H507V25ZM423 0H90V25H423ZM90 725V750H428V725ZM840 750V726H507V750ZM465 750Z" glyph-name="I" horiz-adv-x="930" unicode="I" /><glyph d="M529 0H401V750H529ZM839 25V0H507V25ZM423 0H90V25H423ZM90 725V750H428V725ZM840 750V725H507V750ZM463 750Z" glyph-name="I.acc" horiz-adv-x="930" /><glyph d="M529 0H401V750H529ZM839 25V0H507V25ZM423 0H90V25H423ZM90 725V750H428V725ZM840 750V725H507V750ZM463 750ZM683 917C555 855 449 828 218 815V800C449 800 561 801 683 854ZM462 750Z" glyph-name="Iacute" horiz-adv-x="930" unicode="&#205;" /><glyph d="M529 0H401V750H529ZM839 25V0H507V25ZM423 0H90V25H423ZM90 725V750H428V725ZM840 750V726H507V750ZM465 750ZM662 903C662 831.0943 625 800 463 800C301 800 264 831.0943 264 903H291C291 862.3846 314 837 462 837C612 837 635 862.3846 635 903ZM465 750Z" glyph-name="Ibreve" horiz-adv-x="930" unicode="&#300;" /><glyph d="M529 0H401V750H529ZM839 25V0H507V25ZM423 0H90V25H423ZM90 725V750H428V725ZM840 750V726H507V750ZM465 750ZM465 937C388 864 337 832 230 815V800C337 810 393 824 465 879ZM465 937V879C537 824 593 810 700 800V815C593 832 542 864 465 937ZM465 750Z" glyph-name="Icircumflex" horiz-adv-x="930" unicode="&#206;" /><glyph d="M529 0H401V750H529ZM839 25V0H507V25ZM423 0H90V25H423ZM90 725V750H428V725ZM840 750V725H507V750ZM463 750ZM329 800C383 800 408 811 408 833C408 856 383 870 329 870C275 870 250 856 250 833C250 811 275 800 329 800ZM601 800C655 800 680 811 680 833C680 856 655 870 601 870C547 870 522 856 522 833C522 811 547 800 601 800ZM468 750Z" glyph-name="Idieresis" horiz-adv-x="930" unicode="&#207;" /><glyph d="M529 0H401V750H529ZM839 25V0H507V25ZM423 0H90V25H423ZM90 725V750H428V725ZM840 750V726H507V750ZM465 750ZM464 800C518 800 543 811 543 833C543 856 518 870 464 870C410 870 385 856 385 833C385 811 410 800 464 800ZM465 750Z" glyph-name="Idotaccent" horiz-adv-x="930" unicode="&#304;" /><glyph d="M529 0H401V750H529ZM839 25V0H507V25ZM423 0H90V25H423ZM90 725V750H428V725ZM840 750V725H507V750ZM463 750ZM223 917V854C345 801 457 800 688 800V815C456.9853 828.0008 351.2283 855.41 223 917ZM444 750Z" glyph-name="Igrave" horiz-adv-x="930" unicode="&#204;" /><glyph d="M529 0H401V750H529ZM839 25V0H507V25ZM423 0H90V25H423ZM90 725V750H428V725ZM840 750V726H507V750ZM465 750ZM678 825H252V857H678ZM465 750Z" glyph-name="Imacron" horiz-adv-x="930" unicode="&#298;" /><glyph d="M529 0H401V750H529ZM839 25V0H507V25ZM423 0H90V25H423ZM90 725V750H428V725ZM840 750V725H507V750ZM463 750ZM363 896C297 896 270 861 270 800H293C293 838 330 852 354 852C421 852 498 800 563 800C629 800 656 835 656 896H633C633 858 596 844 572 844C519 844 432 896 363 896ZM466 750Z" glyph-name="Itilde" horiz-adv-x="930" unicode="&#296;" /><glyph d="M646 750V725H870V750ZM180 725H564V750H180ZM372 7C232.8158 7 114 144 114 361V413H89V359C89 303.3636 97 252 110 206C150.3854 64.651 263.5726 -20 388 -20C547 -20 669 54 669 279V750H541V278C541 70 502 7 372 7ZM89 413V0H114V413Z" glyph-name="J" horiz-adv-x="930" unicode="J" /><glyph d="M448 0H90V25H448ZM90 724V750H448V724ZM759 750 468 366H434L725 750ZM845 725H596V750H845ZM428 386C743 386 641 27 769 27C811 27 831 48 831 103V210H856V103C856 19 809 -20 725 -20C451 -20 628 359 415 359ZM322 0H194V750H322ZM437 359H221V386H437Z" glyph-name="K" horiz-adv-x="930" unicode="K" /><glyph d="M309 25V0H90V25ZM322 750V11H194V750ZM217 750V725H91V750ZM820 339V0H298V27H618C762 27 795 60 795 194V339ZM445 725H298V750H445Z" glyph-name="L" horiz-adv-x="930" unicode="L" /><glyph d="M583 513 70 266V296L583 543ZM309 25V0H90V25ZM322 750V11H194V750ZM217 750V725H91V750ZM820 339V0H298V27H618C762 27 795 60 795 194V339ZM445 725H298V750H445Z" glyph-name="Lslash" horiz-adv-x="930" unicode="&#321;" /><glyph d="M597 750 419 -20H450L628 750ZM622 750 692 0H819L749 750ZM222 750 150 20H181L253 750ZM247 750 420 -20H441L488 216L376 750ZM355 750H115V725H355ZM844 750H605V725H844ZM900 25H583V0H900ZM291 25H70V0H291Z" glyph-name="M" horiz-adv-x="930" unicode="M" /><glyph d="M339 0V25H90V0ZM729 -20H756V730H729ZM184 7H212V724L728 -20L746 175L349 750H184ZM326 725V750H90V725ZM850 725V750H600V725ZM468 750Z" glyph-name="N" horiz-adv-x="930" unicode="N" /><glyph d="M339 0V25H90V0ZM729 -20H756V730H729ZM184 7H212V724L728 -20L746 175L349 750H184ZM326 725V750H90V725ZM850 725V750H600V725ZM468 750ZM689 917C561 855 455 828 224 815V800C455 800 567 801 689 854ZM468 750Z" glyph-name="Nacute" horiz-adv-x="930" unicode="&#323;" /><glyph d="M339 0V25H90V0ZM729 -20H756V730H729ZM184 7H212V724L728 -20L746 175L349 750H184ZM326 725V750H90V725ZM850 725V750H600V725ZM468 750ZM468 780V838C396 893 340 907 233 917V902C340 885 391 853 468 780ZM468 780C545 853 596 885 703 902V917C596 907 540 893 468 838ZM468 750Z" glyph-name="Ncaron" horiz-adv-x="930" unicode="&#327;" /><glyph d="M339 0V25H90V0ZM729 -20H756V730H729ZM184 7H212V724L728 -20L746 175L349 750H184ZM326 725V750H90V725ZM850 725V750H600V725ZM468 750ZM365 896C299 896 272 861 272 800H295C295 838 332 852 356 852C423 852 500 800 565 800C631 800 658 835 658 896H635C635 858 598 844 574 844C521 844 434 896 365 896ZM468 750Z" glyph-name="Ntilde" horiz-adv-x="930" unicode="&#209;" /><glyph d="M464 770C216 770 90 627 90 368C90 117 219 -20 464 -20C709 -20 840 117 840 368C840 627 714 770 464 770ZM464 745C639 745 700 641.4521 700 367C700 108.5722 635 5 464 5C293 5 230 108.5722 230 367C230 641.4521 289 745 464 745ZM464 750Z" glyph-name="O" horiz-adv-x="930" unicode="O" /><glyph d="M559 0H431V750H559ZM690 394V367H479V394ZM781 461H756V566C756 694 729 723 599 723H498V750H781ZM800 289V0H498V27H598C742 27 775 60 775 194V289ZM676 202V545H701V202ZM448 750V724H408C278 724 230 633 230 374C230 116 277 26 406 26H450V0H386C191 0 90 118 90 375C90 632 191 750 389 750ZM482 750Z" glyph-name="OE" horiz-adv-x="930" unicode="&#338;" /><glyph d="M464 770C216 770 90 627 90 368C90 117 219 -20 464 -20C709 -20 840 117 840 368C840 627 714 770 464 770ZM464 745C639 745 700 641.4521 700 367C700 108.5722 635 5 464 5C293 5 230 108.5722 230 367C230 641.4521 289 745 464 745ZM464 750ZM697 917C569 855 463 828 232 815V800C463 800 575 801 697 854ZM476 750Z" glyph-name="Oacute" horiz-adv-x="930" unicode="&#211;" /><glyph d="M464 770C216 770 90 627 90 368C90 117 219 -20 464 -20C709 -20 840 117 840 368C840 627 714 770 464 770ZM464 745C639 745 700 641.4521 700 367C700 108.5722 635 5 464 5C293 5 230 108.5722 230 367C230 641.4521 289 745 464 745ZM464 750ZM661 903C661 831.0943 624 800 462 800C300 800 263 831.0943 263 903H290C290 862.3846 313 837 461 837C611 837 634 862.3846 634 903ZM464 750Z" glyph-name="Obreve" horiz-adv-x="930" unicode="&#334;" /><glyph d="M464 770C216 770 90 627 90 368C90 117 219 -20 464 -20C709 -20 840 117 840 368C840 627 714 770 464 770ZM464 745C639 745 700 641.4521 700 367C700 108.5722 635 5 464 5C293 5 230 108.5722 230 367C230 641.4521 289 745 464 745ZM464 750ZM464 937C387 864 336 832 229 815V800C336 810 392 824 464 879ZM464 937V879C536 824 592 810 699 800V815C592 832 541 864 464 937ZM464 750Z" glyph-name="Ocircumflex" horiz-adv-x="930" unicode="&#212;" /><glyph d="M464 770C216 770 90 627 90 368C90 117 219 -20 464 -20C709 -20 840 117 840 368C840 627 714 770 464 770ZM464 745C639 745 700 641.4521 700 367C700 108.5722 635 5 464 5C293 5 230 108.5722 230 367C230 641.4521 289 745 464 745ZM464 750ZM325 800C379 800 404 811 404 833C404 856 379 870 325 870C271 870 246 856 246 833C246 811 271 800 325 800ZM597 800C651 800 676 811 676 833C676 856 651 870 597 870C543 870 518 856 518 833C518 811 543 800 597 800ZM464 750Z" glyph-name="Odieresis" horiz-adv-x="930" unicode="&#214;" /><glyph d="M464 770C216 770 90 627 90 368C90 117 219 -20 464 -20C709 -20 840 117 840 368C840 627 714 770 464 770ZM464 745C639 745 700 641.4521 700 367C700 108.5722 635 5 464 5C293 5 230 108.5722 230 367C230 641.4521 289 745 464 745ZM464 750ZM243 917V854C365 801 477 800 708 800V815C476.9853 828.0008 371.2283 855.41 243 917ZM464 750Z" glyph-name="Ograve" horiz-adv-x="930" unicode="&#210;" /><glyph d="M464 770C216 770 90 627 90 368C90 117 219 -20 464 -20C709 -20 840 117 840 368C840 627 714 770 464 770ZM464 745C639 745 700 641.4521 700 367C700 108.5722 635 5 464 5C293 5 230 108.5722 230 367C230 641.4521 289 745 464 745ZM464 750ZM455 917C387 857 322 822 220 815V800C328 800 389 809 455 854ZM685 917C617 857 552 822 450 815V800C558 800 619 809 685 854ZM464 750Z" glyph-name="Ohungarumlaut" horiz-adv-x="930" unicode="&#336;" /><glyph d="M464 770C216 770 90 627 90 368C90 117 219 -20 464 -20C709 -20 840 117 840 368C840 627 714 770 464 770ZM464 745C639 745 700 641.4521 700 367C700 108.5722 635 5 464 5C293 5 230 108.5722 230 367C230 641.4521 289 745 464 745ZM464 750ZM677 825H251V857H677ZM464 750Z" glyph-name="Omacron" horiz-adv-x="930" unicode="&#332;" /><glyph d="M167 0 798 750H763L132 0ZM464 770C216 770 90 627 90 368C90 117 219 -20 464 -20C709 -20 840 117 840 368C840 627 714 770 464 770ZM464 745C639 745 700 641.4521 700 367C700 108.5722 635 5 464 5C293 5 230 108.5722 230 367C230 641.4521 289 745 464 745ZM464 750Z" glyph-name="Oslash" horiz-adv-x="930" unicode="&#216;" /><glyph d="M464 770C216 770 90 627 90 368C90 117 219 -20 464 -20C709 -20 840 117 840 368C840 627 714 770 464 770ZM464 745C639 745 700 641.4521 700 367C700 108.5722 635 5 464 5C293 5 230 108.5722 230 367C230 641.4521 289 745 464 745ZM464 750ZM361 896C295 896 268 861 268 800H291C291 838 328 852 352 852C419 852 496 800 561 800C627 800 654 835 654 896H631C631 858 594 844 570 844C517 844 430 896 361 896ZM464 750Z" glyph-name="Otilde" horiz-adv-x="930" unicode="&#213;" /><glyph d="M322 750V0H194V750ZM266 750V725H90V750ZM90 25H266V0H90ZM291 321C291 321 291 332 291 348H512C650 348 700 398 700 538C700 676 652 723 512 723H292V750H573C715 750 840 683 840 537C840 389 700 321 564 321ZM288 25H494V0H288Z" glyph-name="P" horiz-adv-x="930" unicode="P" /><glyph d="M433 255C352 255 290 198 290 129C290 98 300 65 328 27L385 14C341.8459 28.0502 317 78.3178 317 125C317 179 350 229 420 229C633 229 486 -250 730 -250C814 -250 861 -211 861 -127V-20H836V-127C836 -182 816 -203 774 -203C646 -203 738 255 433 255ZM464 770C216 770 90 627 90 368C90 117 219 -20 464 -20C709 -20 840 117 840 368C840 627 714 770 464 770ZM464 745C639 745 700 641.4521 700 367C700 108.5722 635 5 464 5C293 5 230 108.5722 230 367C230 641.4521 289 745 464 745ZM464 750Z" glyph-name="Q" horiz-adv-x="930" unicode="Q" /><glyph d="M322 750V0H194V750ZM266 750V725H90V750ZM90 25H266V0H90ZM311 361C311 361 311 372 311 388H472C585 388 660 410 660 558C660 705 585 723 472 723H312V750H533C675 750 800 689 800 557C800 423 660 361 524 361ZM308 25H491V0H308ZM428 376C743 376 641 27 769 27C811 27 831 48 831 103V210H856V103C856 19 809 -20 725 -20C451 -20 628 361 415 361Z" glyph-name="R" horiz-adv-x="930" unicode="R" /><glyph d="M709 750H684V457H709ZM118 299C118 108 286 -20 491 -20C672 -20 824 46 824 180C824 285 768 358 518 429C321 483 284 512 284 610C284 707 339 743 450 743C570 743 684 648 684 469V457H709C709 676 579 770 435 770C306 770 163 701 163 569C163 443 241 375 450 315C654 256 694 228 694 132C694 54 640 7 488 7C305 7 143 121 143 301V333H118ZM118 333V0H143V333ZM444 750Z" glyph-name="S" horiz-adv-x="930" unicode="S" /><glyph d="M709 750H684V457H709ZM118 299C118 108 286 -20 491 -20C672 -20 824 46 824 180C824 285 768 358 518 429C321 483 284 512 284 610C284 707 339 743 450 743C570 743 684 648 684 469V457H709C709 676 579 770 435 770C306 770 163 701 163 569C163 443 241 375 450 315C654 256 694 228 694 132C694 54 640 7 488 7C305 7 143 121 143 301V333H118ZM118 333V0H143V333ZM444 750ZM665 917C537 855 431 828 200 815V800C431 800 543 801 665 854ZM444 750Z" glyph-name="Sacute" horiz-adv-x="930" unicode="&#346;" /><glyph d="M709 750H684V457H709ZM118 299C118 108 286 -20 491 -20C672 -20 824 46 824 180C824 285 768 358 518 429C321 483 284 512 284 610C284 707 339 743 450 743C570 743 684 648 684 469V457H709C709 676 579 770 435 770C306 770 163 701 163 569C163 443 241 375 450 315C654 256 694 228 694 132C694 54 640 7 488 7C305 7 143 121 143 301V333H118ZM118 333V0H143V333ZM444 750ZM444 780V838C372 893 316 907 209 917V902C316 885 367 853 444 780ZM444 780C521 853 572 885 679 902V917C572 907 516 893 444 838ZM444 750Z" glyph-name="Scaron" horiz-adv-x="930" unicode="&#352;" /><glyph d="M709 750H684V457H709ZM118 299C118 108 286 -20 491 -20C672 -20 824 46 824 180C824 285 768 358 518 429C321 483 284 512 284 610C284 707 339 743 450 743C570 743 684 648 684 469V457H709C709 676 579 770 435 770C306 770 163 701 163 569C163 443 241 375 450 315C654 256 694 228 694 132C694 54 640 7 488 7C305 7 143 121 143 301V333H118ZM118 333V0H143V333ZM444 750ZM444 937C367 864 316 832 209 815V800C316 810 372 824 444 879ZM444 937V879C516 824 572 810 679 800V815C572 832 521 864 444 937ZM444 750Z" glyph-name="Scircumflex" horiz-adv-x="930" unicode="&#348;" /><glyph d="M529 0H401V750H529ZM249 0V25H681V0ZM840 431H815V556C815 690 782 723 638 723H338V750H840ZM90 431V750H592V723H292C148 723 115 690 115 556V431Z" glyph-name="T" horiz-adv-x="930" unicode="T" /><glyph d="M767 311C767 105 667 -20 473 -20C287 -20 164 75 164 280V372H290V279C290 87 349 14 489 16C639 18 736 110 736 311V750H767ZM290 750V302H164V750ZM186 750V725H70V750ZM408 725H267V750H408ZM736 750V725H640V750ZM860 725H767V750H860ZM520 750Z" glyph-name="U" horiz-adv-x="930" unicode="U" /><glyph d="M767 311C767 105 667 -20 473 -20C287 -20 164 75 164 280V372H290V279C290 87 349 14 489 16C639 18 736 110 736 311V750H767ZM290 750V302H164V750ZM186 750V725H70V750ZM408 725H267V750H408ZM736 750V725H640V750ZM860 725H767V750H860ZM520 750ZM753 917C625 855 519 828 288 815V800C519 800 631 801 753 854ZM532 750Z" glyph-name="Uacute" horiz-adv-x="930" unicode="&#218;" /><glyph d="M767 311C767 105 667 -20 473 -20C287 -20 164 75 164 280V372H290V279C290 87 349 14 489 16C639 18 736 110 736 311V750H767ZM290 750V302H164V750ZM186 750V725H70V750ZM408 725H267V750H408ZM736 750V725H640V750ZM860 725H767V750H860ZM520 750ZM717 903C717 831.0943 680 800 518 800C356 800 319 831.0943 319 903H346C346 862.3846 369 837 517 837C667 837 690 862.3846 690 903ZM520 750Z" glyph-name="Ubreve" horiz-adv-x="930" unicode="&#364;" /><glyph d="M767 311C767 105 667 -20 473 -20C287 -20 164 75 164 280V372H290V279C290 87 349 14 489 16C639 18 736 110 736 311V750H767ZM290 750V302H164V750ZM186 750V725H70V750ZM408 725H267V750H408ZM736 750V725H640V750ZM860 725H767V750H860ZM520 750ZM520 937C443 864 392 832 285 815V800C392 810 448 824 520 879ZM520 937V879C592 824 648 810 755 800V815C648 832 597 864 520 937ZM520 750Z" glyph-name="Ucircumflex" horiz-adv-x="930" unicode="&#219;" /><glyph d="M767 311C767 105 667 -20 473 -20C287 -20 164 75 164 280V372H290V279C290 87 349 14 489 16C639 18 736 110 736 311V750H767ZM290 750V302H164V750ZM186 750V725H70V750ZM408 725H267V750H408ZM736 750V725H640V750ZM860 725H767V750H860ZM520 750ZM381 800C435 800 460 811 460 833C460 856 435 870 381 870C327 870 302 856 302 833C302 811 327 800 381 800ZM653 800C707 800 732 811 732 833C732 856 707 870 653 870C599 870 574 856 574 833C574 811 599 800 653 800ZM520 750Z" glyph-name="Udieresis" horiz-adv-x="930" unicode="&#220;" /><glyph d="M767 311C767 105 667 -20 473 -20C287 -20 164 75 164 280V372H290V279C290 87 349 14 489 16C639 18 736 110 736 311V750H767ZM290 750V302H164V750ZM186 750V725H70V750ZM408 725H267V750H408ZM736 750V725H640V750ZM860 725H767V750H860ZM520 750ZM299 917V854C421 801 533 800 764 800V815C532.9853 828.0008 427.2283 855.41 299 917ZM520 750Z" glyph-name="Ugrave" horiz-adv-x="930" unicode="&#217;" /><glyph d="M767 311C767 105 667 -20 473 -20C287 -20 164 75 164 280V372H290V279C290 87 349 14 489 16C639 18 736 110 736 311V750H767ZM290 750V302H164V750ZM186 750V725H70V750ZM408 725H267V750H408ZM736 750V725H640V750ZM860 725H767V750H860ZM520 750ZM511 917C443 857 378 822 276 815V800C384 800 445 809 511 854ZM741 917C673 857 608 822 506 815V800C614 800 675 809 741 854ZM520 750Z" glyph-name="Uhungarumlaut" horiz-adv-x="930" unicode="&#368;" /><glyph d="M767 311C767 105 667 -20 473 -20C287 -20 164 75 164 280V372H290V279C290 87 349 14 489 16C639 18 736 110 736 311V750H767ZM290 750V302H164V750ZM186 750V725H70V750ZM408 725H267V750H408ZM736 750V725H640V750ZM860 725H767V750H860ZM520 750ZM733 825H307V857H733ZM520 750Z" glyph-name="Umacron" horiz-adv-x="930" unicode="&#362;" /><glyph d="M767 311C767 105 667 -20 473 -20C287 -20 164 75 164 280V372H290V279C290 87 349 14 489 16C639 18 736 110 736 311V750H767ZM290 750V302H164V750ZM186 750V725H70V750ZM408 725H267V750H408ZM736 750V725H640V750ZM860 725H767V750H860ZM520 750ZM343 853C343 869 366 879 514 879C664 879 687 869 687 853C687 837 664 827 514 827C366 827 343 837 343 853ZM714 853C714 890 677 906 515 906C353 906 316 890 316 853C316 816 353 800 515 800C677 800 714 816 714 853ZM517 750Z" glyph-name="Uring" horiz-adv-x="930" unicode="&#366;" /><glyph d="M767 311C767 105 667 -20 473 -20C287 -20 164 75 164 280V372H290V279C290 87 349 14 489 16C639 18 736 110 736 311V750H767ZM290 750V302H164V750ZM186 750V725H70V750ZM408 725H267V750H408ZM736 750V725H640V750ZM860 725H767V750H860ZM520 750ZM417 896C351 896 324 861 324 800H347C347 838 384 852 408 852C475 852 552 800 617 800C683 800 710 835 710 896H687C687 858 650 844 626 844C573 844 486 896 417 896ZM520 750Z" glyph-name="Utilde" horiz-adv-x="930" unicode="&#360;" /><glyph d="M125 750H252L525 0H398ZM60 725V750H402V725ZM624 750H870V725H624ZM538 0H507L769 725H800Z" glyph-name="V" horiz-adv-x="930" unicode="V" /><glyph d="M798 739 495 31C480 -4 455 -2 440 6C425 14 416 34 423 59L605 702C608 714 606 720 598 722C590 724 581 719 576 708L379 238C365 205 344 205 328 213C314 221 301 241 307 271L391 706C392 712 392 720 387 721C379 723 375 719 371 710L280 508C268 481 243 481 229 489C211 499 208 521 213 544L251 712C252 718 252 722 248 723C243 724 240 722 236 715L189 639L165 654L209 725C224 750 242 754 256 750C275 745 285 730 279 705L241 538C239 528 236 519 242 515C247 512 251 515 253 520L345 722C355 744 376 752 392 749C409 746 426 732 420 701L335 265C333 253 333 244 339 240C345 236 350 241 353 249L550 719C561 746 585 754 604 750C625 745 641 727 633 698L451 51C448 42 447 35 453 32C459 29 465 32 469 42L773 750Z" glyph-name="V.2" horiz-adv-x="930" /><glyph d="M125 750H252L525 0H398ZM60 725V750H402V725ZM492 384H738V359H492ZM538 0H507L637 359H668ZM503 769V963H285V990H374L605 1143H630V769C630 557 668 480 794 480C867 480 954 551 954 732H980C980 527 880 453 768 453C588 453 503 561 503 769ZM580 990H980V963H580ZM1411 214V189H761V214ZM662 0V25H1311V0ZM1543 644C1543 711 1488 743 1408 743C1280 743 1194 661 1103 412L952 0H824L975 413C1063 654 1220 770 1416 770C1518 770 1573 728 1573 650C1573 545 1484 461 1335 411C1232 377 1077.8493 334.1232 1027 207L1018 225L1042 271C1111.8244 366.2151 1246 406 1328 435C1464 483 1543 547.0315 1543 644Z" glyph-name="VTF" horiz-adv-x="1678" /><glyph d="M50 725H880V750H50ZM376 0 531 725H500L345 0ZM348 0 258 750H131L221 0ZM708 0 800 730H769L677 0ZM680 0 527 745 467 457 552 0Z" glyph-name="W" horiz-adv-x="930" unicode="W" /><glyph d="M60 725H1800V750H60ZM371 0 490 750H459L340 0ZM343 0 268 750H141L216 0ZM595 0 490 750 426 396 478 0ZM1372 0 1491 750H1460L1341 0ZM1624 0 1711 730H1680L1593 0ZM1596 0 1491 750 1427 396 1479 0ZM622 0 741 750H710L591 0ZM846 0 741 750 677 396 729 0ZM873 0 992 750H961L842 0ZM1097 0 992 750 928 396 980 0ZM1123 0 1242 750H1211L1092 0ZM1347 0 1242 750 1178 396 1230 0Z" glyph-name="WWW" horiz-adv-x="1860" /><glyph d="M420 0V25H70V0ZM139 750 647 0H799L293 750ZM424 725V750H70V725ZM860 25H538V0H860ZM860 725V750H542V725ZM460 349H494L769 730H736ZM152 15H186L461 396H428Z" glyph-name="X" horiz-adv-x="930" unicode="X" /><glyph d="M710 0V25H220V0ZM146 750 408 194 524 217 291 750ZM616 725V750H60V725ZM870 725V750H522V725ZM488 126 777 730H746L459 126ZM529 22V233H401V22ZM493 750Z" glyph-name="Y" horiz-adv-x="930" unicode="Y" /><glyph d="M710 0V25H220V0ZM146 750 408 194 524 217 291 750ZM616 725V750H60V725ZM870 725V750H522V725ZM488 126 777 730H746L459 126ZM529 22V233H401V22ZM493 750ZM726 917C598 855 492 828 261 815V800C492 800 604 801 726 854ZM505 750Z" glyph-name="Yacute" horiz-adv-x="930" unicode="&#221;" /><glyph d="M710 0V25H220V0ZM146 750 408 194 524 217 291 750ZM616 725V750H60V725ZM870 725V750H522V725ZM488 126 777 730H746L459 126ZM529 22V233H401V22ZM493 750ZM493 937C416 864 365 832 258 815V800C365 810 421 824 493 879ZM493 937V879C565 824 621 810 728 800V815C621 832 570 864 493 937ZM493 750Z" glyph-name="Ycircumflex" horiz-adv-x="930" unicode="&#374;" /><glyph d="M710 0V25H220V0ZM146 750 408 194 524 217 291 750ZM616 725V750H60V725ZM870 725V750H522V725ZM488 126 777 730H746L459 126ZM529 22V233H401V22ZM493 750ZM354 800C408 800 433 811 433 833C433 856 408 870 354 870C300 870 275 856 275 833C275 811 300 800 354 800ZM626 800C680 800 705 811 705 833C705 856 680 870 626 870C572 870 547 856 547 833C547 811 572 800 626 800ZM493 750Z" glyph-name="Ydieresis" horiz-adv-x="930" unicode="&#376;" /><glyph d="M710 0V25H220V0ZM146 750 408 194 524 217 291 750ZM616 725V750H60V725ZM870 725V750H522V725ZM488 126 777 730H746L459 126ZM529 22V233H401V22ZM493 750ZM272 917V854C394 801 506 800 737 800V815C505.9853 828.0008 400.2283 855.41 272 917ZM493 750Z" glyph-name="Ygrave" horiz-adv-x="930" unicode="&#7922;" /><glyph d="M817 723H653L117 27H277ZM811 449V0H117V27H609C753 27 786 60 786 194V449ZM135 341V750H817V723H337C193 723 160 690 160 556V341ZM481 750Z" glyph-name="Z" horiz-adv-x="930" unicode="Z" /><glyph d="M817 723H653L117 27H277ZM811 449V0H117V27H609C753 27 786 60 786 194V449ZM135 341V750H817V723H337C193 723 160 690 160 556V341ZM481 750ZM702 917C574 855 468 828 237 815V800C468 800 580 801 702 854ZM481 750Z" glyph-name="Zacute" horiz-adv-x="930" unicode="&#377;" /><glyph d="M817 723H653L117 27H277ZM811 449V0H117V27H609C753 27 786 60 786 194V449ZM135 341V750H817V723H337C193 723 160 690 160 556V341ZM481 750ZM481 780V838C409 893 353 907 246 917V902C353 885 404 853 481 780ZM481 780C558 853 609 885 716 902V917C609 907 553 893 481 838ZM481 750Z" glyph-name="Zcaron" horiz-adv-x="930" unicode="&#381;" /><glyph d="M817 723H653L117 27H277ZM811 449V0H117V27H609C753 27 786 60 786 194V449ZM135 341V750H817V723H337C193 723 160 690 160 556V341ZM481 750ZM480 800C534 800 559 811 559 833C559 856 534 870 480 870C426 870 401 856 401 833C401 811 426 800 480 800ZM481 750Z" glyph-name="Zdotaccent" horiz-adv-x="930" unicode="&#379;" /><glyph d="M741 119V527C741 674 652 770 450 770C268 770 133 635 133 419H158C158 632 297 743 448 743C580 743 613 688 613 547V121C613 29 654 -20 746 -20C834 -20 855 12 855 119V195H830V121C830 45 821 18 781 18C755 18 741 53 741 119ZM613 545C613 481 516 451 412 407C271 348 108 285 108 156C108 58 174 -20 336 -20C486 -20 631 127 631 249L613 356V266C613 160 491 19 366 19C265 19 248 92 248 202C248 301 300 331 422 382C545 435 612 459 631 516V545ZM158 750H133V397H158ZM449 750Z" glyph-name="a" horiz-adv-x="930" unicode="a" /><glyph d="M741 119V527C741 674 652 770 450 770C268 770 133 635 133 419H158C158 632 297 743 448 743C580 743 613 688 613 547V121C613 29 654 -20 746 -20C834 -20 855 12 855 119V195H830V121C830 45 821 18 781 18C755 18 741 53 741 119ZM613 545C613 481 516 451 412 407C271 348 108 285 108 156C108 58 174 -20 336 -20C486 -20 631 127 631 249L613 356V266C613 160 491 19 366 19C265 19 248 92 248 202C248 301 300 331 422 382C545 435 612 459 631 516V545ZM158 750H133V397H158ZM449 750ZM682 917C554 855 448 828 217 815V800C448 800 560 801 682 854ZM461 750Z" glyph-name="aacute" horiz-adv-x="930" unicode="&#225;" /><glyph d="M741 119V527C741 674 652 770 450 770C268 770 133 635 133 419H158C158 632 297 743 448 743C580 743 613 688 613 547V121C613 29 654 -20 746 -20C834 -20 855 12 855 119V195H830V121C830 45 821 18 781 18C755 18 741 53 741 119ZM613 545C613 481 516 451 412 407C271 348 108 285 108 156C108 58 174 -20 336 -20C486 -20 631 127 631 249L613 356V266C613 160 491 19 366 19C265 19 248 92 248 202C248 301 300 331 422 382C545 435 612 459 631 516V545ZM158 750H133V397H158ZM449 750ZM646 903C646 831.0943 609 800 447 800C285 800 248 831.0943 248 903H275C275 862.3846 298 837 446 837C596 837 619 862.3846 619 903ZM449 750Z" glyph-name="abreve" horiz-adv-x="930" unicode="&#259;" /><glyph d="M741 119V527C741 674 652 770 450 770C268 770 133 635 133 419H158C158 632 297 743 448 743C580 743 613 688 613 547V121C613 29 654 -20 746 -20C834 -20 855 12 855 119V195H830V121C830 45 821 18 781 18C755 18 741 53 741 119ZM613 545C613 481 516 451 412 407C271 348 108 285 108 156C108 58 174 -20 336 -20C486 -20 631 127 631 249L613 356V266C613 160 491 19 366 19C265 19 248 92 248 202C248 301 300 331 422 382C545 435 612 459 631 516V545ZM158 750H133V397H158ZM449 750ZM449 937C372 864 321 832 214 815V800C321 810 377 824 449 879ZM449 937V879C521 824 577 810 684 800V815C577 832 526 864 449 937ZM449 750Z" glyph-name="acircumflex" horiz-adv-x="930" unicode="&#226;" /><glyph d="M529 917C401 855 295 828 64 815V800C295 800 407 801 529 854ZM308 750Z" glyph-name="acute" horiz-adv-x="600" unicode="&#180;" /><glyph d="M741 119V527C741 674 652 770 450 770C268 770 133 635 133 419H158C158 632 297 743 448 743C580 743 613 688 613 547V121C613 29 654 -20 746 -20C834 -20 855 12 855 119V195H830V121C830 45 821 18 781 18C755 18 741 53 741 119ZM613 545C613 481 516 451 412 407C271 348 108 285 108 156C108 58 174 -20 336 -20C486 -20 631 127 631 249L613 356V266C613 160 491 19 366 19C265 19 248 92 248 202C248 301 300 331 422 382C545 435 612 459 631 516V545ZM158 750H133V397H158ZM449 750ZM310 800C364 800 389 811 389 833C389 856 364 870 310 870C256 870 231 856 231 833C231 811 256 800 310 800ZM582 800C636 800 661 811 661 833C661 856 636 870 582 870C528 870 503 856 503 833C503 811 528 800 582 800ZM449 750Z" glyph-name="adieresis" horiz-adv-x="930" unicode="&#228;" /><glyph d="M531 527C531 674 472 770 340 770C216 770 123 635 123 419H148C148 632 239 743 338 743C390 743 403 688 403 547V401ZM403 503C403 458 358 431 313 412C200 364 98 285 98 156C98 58 150 -20 276 -20C391 -20 425 75 425 250L403 356V266C403 100 374 19 306 19C248 19 238 92 238 202C238 324 251 357 322 387C382 412 407 434 421 473V503ZM148 750H123V397H148ZM825 282C825 96 762 9 658 9C574 9 542 120 542 367C542 630 566 743 624 743C688 743 714 625 712 351H852C854 621 779 770 623 770C476 770 402 627 402 368C402 116 484 -20 658 -20C781 -20 852 86 852 282ZM738 378H518L520 351H738C738 351 738 378 738 378Z" glyph-name="ae" horiz-adv-x="930" unicode="&#230;" /><glyph d="M741 119V527C741 674 652 770 450 770C268 770 133 635 133 419H158C158 632 297 743 448 743C580 743 613 688 613 547V121C613 29 654 -20 746 -20C834 -20 855 12 855 119V195H830V121C830 45 821 18 781 18C755 18 741 53 741 119ZM613 545C613 481 516 451 412 407C271 348 108 285 108 156C108 58 174 -20 336 -20C486 -20 631 127 631 249L613 356V266C613 160 491 19 366 19C265 19 248 92 248 202C248 301 300 331 422 382C545 435 612 459 631 516V545ZM158 750H133V397H158ZM449 750ZM228 917V854C350 801 462 800 693 800V815C461.9853 828.0008 356.2283 855.41 228 917ZM449 750Z" glyph-name="agrave" horiz-adv-x="930" unicode="&#224;" /><glyph d="M741 119V527C741 674 652 770 450 770C268 770 133 635 133 419H158C158 632 297 743 448 743C580 743 613 688 613 547V121C613 29 654 -20 746 -20C834 -20 855 12 855 119V195H830V121C830 45 821 18 781 18C755 18 741 53 741 119ZM613 545C613 481 516 451 412 407C271 348 108 285 108 156C108 58 174 -20 336 -20C486 -20 631 127 631 249L613 356V266C613 160 491 19 366 19C265 19 248 92 248 202C248 301 300 331 422 382C545 435 612 459 631 516V545ZM158 750H133V397H158ZM449 750ZM662 825H236V857H662ZM449 750Z" glyph-name="amacron" horiz-adv-x="930" unicode="&#257;" /><glyph d="M627 210C727 97 765 62 796 62C827 62 838 88 838 127V263H865V127C865 23 828 -20 749 -20C691 -20 634 13 513 148L281 407C223 471 202 541 202 597C203 697 283 770 422 770C552 770 639 713 639 605C639 515 575 441 485 437L480 462C565 468 612 531 612 605C612 702 534 743 427 743C358 743 298 721 298 651C298 611 319 555 390 476ZM480 462H805V435H480ZM602 198 597 186 576 206 579 212C610 281 615 368 615 445V452L641 455V445C641 369 637 276 602 198ZM311 386 319 389 330 366 322 363C240 332 217 296 217 176C217 59 257 16 326 16C416 16 479 53 545 141L551 149L568 134L564 127C512 36 410 -20 286 -20C158 -20 77 74 77 155C77 272 197 343 311 386Z" glyph-name="ampersand" horiz-adv-x="930" unicode="&amp;" /><glyph d="M741 119V527C741 674 652 770 450 770C268 770 133 635 133 419H158C158 632 297 743 448 743C580 743 613 688 613 547V121C613 29 654 -20 746 -20C834 -20 855 12 855 119V195H830V121C830 45 821 18 781 18C755 18 741 53 741 119ZM613 545C613 481 516 451 412 407C271 348 108 285 108 156C108 58 174 -20 336 -20C486 -20 631 127 631 249L613 356V266C613 160 491 19 366 19C265 19 248 92 248 202C248 301 300 331 422 382C545 435 612 459 631 516V545ZM158 750H133V397H158ZM449 750ZM272 853C272 869 295 879 443 879C593 879 616 869 616 853C616 837 593 827 443 827C295 827 272 837 272 853ZM643 853C643 890 606 906 444 906C282 906 245 890 245 853C245 816 282 800 444 800C606 800 643 816 643 853ZM446 750Z" glyph-name="aring" horiz-adv-x="930" unicode="&#229;" /><glyph d="M222 579C222 655 202 688 177 721C177 745 197 770 232 770C268 770 288 745 288 721C263 688 242 655 242 579H232ZM229 570C156 593 118 584 79 570C56 578 39 604 49 638C61 672 90 683 113 676C137 642 163 612 235 588L232 579ZM235 570 232 579 229 588C301 612 327 642 351 676C374 683 403 672 415 638C425 604 408 578 385 570C346 584 308 593 235 570ZM240 573C195 511 192 471 193 430C179 411 148 402 119 423C90 444 89 476 103 495C143 507 179 523 224 585L232 579ZM224 573 232 579 240 585C285 523 321 507 361 495C375 476 374 444 345 423C316 402 285 411 271 430C272 471 269 511 224 573Z" glyph-name="asterisk" horiz-adv-x="465" unicode="*" /><glyph d="M451 147C368 147 345 196.3333 345 369C345 545.3878 364.32 584 450 584C528.9677 584 594 549 594 417V352C594 235 568 147 451 147ZM810 367C810 211 800 158 760 158C733.4884 158 722 173 722 238V605H699L596 526C586.7957 553.6128 539.0968 611 452 611C286.4082 611 205 523.6909 205 366C205 208.2391 286.4082 120 452 120C523.7638 120 574.534 158.7573 599 224L596 223C596 136.4071 647.1338 120 733 120C819.0594 120 839 175 839 368C839 627 713 770 464 770C216 770 90 627 90 368C90 117 219 -20 464 -20C543 -20 610 -6 664 22L652 48C601 22 538.1838 9 464 9C242 9 119 124 119 367C119 620 235 741 464 741C694 741 810 620 810 367ZM464 750Z" glyph-name="at" horiz-adv-x="930" unicode="@" /><glyph d="M741 119V527C741 674 652 770 450 770C268 770 133 635 133 419H158C158 632 297 743 448 743C580 743 613 688 613 547V121C613 29 654 -20 746 -20C834 -20 855 12 855 119V195H830V121C830 45 821 18 781 18C755 18 741 53 741 119ZM613 545C613 481 516 451 412 407C271 348 108 285 108 156C108 58 174 -20 336 -20C486 -20 631 127 631 249L613 356V266C613 160 491 19 366 19C265 19 248 92 248 202C248 301 300 331 422 382C545 435 612 459 631 516V545ZM158 750H133V397H158ZM449 750ZM346 896C280 896 253 861 253 800H276C276 838 313 852 337 852C404 852 481 800 546 800C612 800 639 835 639 896H616C616 858 579 844 555 844C502 844 415 896 346 896ZM449 750Z" glyph-name="atilde" horiz-adv-x="930" unicode="&#227;" /><glyph d="M787 750H281V725H787ZM489 7C329 7 294 108 294 242V457C294 605 381 644 490 644C641 644 675 587 675 329C675 78 634 7 489 7ZM289 94C324 20 390 -20 488 -20C707 -20 815 104 815 326C815 548 707 671 488 671C354 671 304 603 294 572V750H75V725H166V-20H190L304 103Z" glyph-name="b" horiz-adv-x="930" unicode="b" /><glyph d="M335 0H366L131 750H100Z" glyph-name="backslash" horiz-adv-x="465" unicode="\" /><glyph d="M200 701C200 765 282.6612 803 444 803V830C250 830 170 779 170 701C170 615 280 554 280 479C280 417 228 388 125 388H72V361H116L125 368C247 368 309 406 309 478C309 567 200 631 200 701ZM200 48C200 118 309 182 309 271C309 343 247 381 125 381L116 388H72V361H125C228 361 280 332 280 270C280 195 170 134 170 48C170 -30 250 -81 444 -81V-54C282.6612 -54 200 -16 200 48ZM444 750Z" glyph-name="braceleft" horiz-adv-x="465" unicode="{" /><glyph d="M265 48C265 -16 182.3388 -54 21 -54V-81C215 -81 295 -30 295 48C295 134 185 195 185 270C185 332 237 361 340 361H393V388H349L340 381C218 381 156 343 156 271C156 182 265 118 265 48ZM265 701C265 631 156 567 156 478C156 406 218 368 340 368L349 361H393V388H340C237 388 185 417 185 479C185 554 295 615 295 701C295 779 215 830 21 830V803C182.3388 803 265 765 265 701ZM21 -1Z" glyph-name="braceright" horiz-adv-x="465" unicode="}" /><glyph d="M434 -80H149V-53H434ZM434 803H149V830H434ZM156 830V-80H129V830ZM444 750Z" glyph-name="bracketleft" horiz-adv-x="465" unicode="[" /><glyph d="M31 830H316V803H31ZM31 -53H316V-80H31ZM309 -80 309 830H336L336 -80ZM21 0Z" glyph-name="bracketright" horiz-adv-x="465" unicode="]" /><glyph d="M479 903C479 831.0943 442 800 280 800C118 800 81 831.0943 81 903H108C108 862.3846 131 837 279 837C429 837 452 862.3846 452 903ZM282 750Z" glyph-name="breve" horiz-adv-x="560" unicode="&#728;" /><glyph d="M231 503C300 503 330 471 330 397C330 335 298 307 231 307C165 307 134 335 134 397C134 471 163 503 231 503Z" glyph-name="bullet" horiz-adv-x="465" unicode="&#8226;" /><glyph d="M556 703C625 703 683 688 713 667L710 654C635 627 552 522 552 396C552 270 635 165 710 139L713 125C683 105 620 89 552 89C380 89 210 202 210 396C210 590 380 703 556 703ZM370 396C370 532 454 629 565 674C562 674 559 674 556 674C397 674 239 574 239 396C239 218 396 118 552 118C556 118 560 118 563 118C454 163 370 260 370 396Z" glyph-name="bullet.006" horiz-adv-x="930" unicode="&#57530;" /><glyph d="M820 421V750H795V421ZM815 311C815 105 694 9 496 9C293 9 230 110 230 367C230 640 289 743 491 743C696 743 795 629 795 421H820C820 643 706 770 490 770C214 770 90 627 90 368C90 116 219 -20 496 -20C714 -20 840 96 840 311ZM495 0ZM491 750Z" glyph-name="c" horiz-adv-x="930" unicode="c" /><glyph d="M820 421V750H795V421ZM815 311C815 105 694 9 496 9C293 9 230 110 230 367C230 640 289 743 491 743C696 743 795 629 795 421H820C820 643 706 770 490 770C214 770 90 627 90 368C90 116 219 -20 496 -20C714 -20 840 96 840 311ZM495 0ZM491 750ZM712 917C584 855 478 828 247 815V800C478 800 590 801 712 854ZM491 750Z" glyph-name="cacute" horiz-adv-x="930" unicode="&#263;" /><glyph d="M300 780V838C228 893 172 907 65 917V902C172 885 223 853 300 780ZM300 780C377 853 428 885 535 902V917C428 907 372 893 300 838ZM300 750Z" glyph-name="caron" horiz-adv-x="600" unicode="&#711;" /><glyph d="M820 421V750H795V421ZM815 311C815 105 694 9 496 9C293 9 230 110 230 367C230 640 289 743 491 743C696 743 795 629 795 421H820C820 643 706 770 490 770C214 770 90 627 90 368C90 116 219 -20 496 -20C714 -20 840 96 840 311ZM495 0ZM491 750ZM491 780V838C419 893 363 907 256 917V902C363 885 414 853 491 780ZM491 780C568 853 619 885 726 902V917C619 907 563 893 491 838ZM491 750Z" glyph-name="ccaron" horiz-adv-x="930" unicode="&#269;" /><glyph d="M820 421V750H795V421ZM815 311C815 105 694 9 496 9C293 9 230 110 230 367C230 640 289 743 491 743C696 743 795 629 795 421H820C820 643 706 770 490 770C214 770 90 627 90 368C90 116 219 -20 496 -20C714 -20 840 96 840 311ZM495 0ZM491 750ZM404 -58 497 -16 489 2 332 -68 342 -87 376 -69ZM334 -70 342 -87C383 -70 422 -72 496 -72C640 -72 666 -83 666 -97C666 -113 643 -123 493 -123C397 -123 339 -118 281 -92L268 -118C330 -145 391 -150 494 -150C656 -150 693 -134 693 -97C693 -61 651 -47 496 -47C451 -47 373 -53 334 -70ZM495 0Z" glyph-name="ccedilla" horiz-adv-x="930" unicode="&#231;" /><glyph d="M820 421V750H795V421ZM815 311C815 105 694 9 496 9C293 9 230 110 230 367C230 640 289 743 491 743C696 743 795 629 795 421H820C820 643 706 770 490 770C214 770 90 627 90 368C90 116 219 -20 496 -20C714 -20 840 96 840 311ZM495 0ZM491 750ZM491 937C414 864 363 832 256 815V800C363 810 419 824 491 879ZM491 937V879C563 824 619 810 726 800V815C619 832 568 864 491 937ZM491 750Z" glyph-name="ccircumflex" horiz-adv-x="930" unicode="&#265;" /><glyph d="M820 421V750H795V421ZM815 311C815 105 694 9 496 9C293 9 230 110 230 367C230 640 289 743 491 743C696 743 795 629 795 421H820C820 643 706 770 490 770C214 770 90 627 90 368C90 116 219 -20 496 -20C714 -20 840 96 840 311ZM495 0ZM491 750ZM490 800C544 800 569 811 569 833C569 856 544 870 490 870C436 870 411 856 411 833C411 811 436 800 490 800ZM491 750Z" glyph-name="cdotaccent" horiz-adv-x="930" unicode="&#267;" /><glyph d="M404 -58 497 -16 489 2 332 -68 342 -87 376 -69ZM334 -70 342 -87C383 -70 422 -72 496 -72C640 -72 666 -83 666 -97C666 -113 643 -123 493 -123C397 -123 339 -118 281 -92L268 -118C330 -145 391 -150 494 -150C656 -150 693 -134 693 -97C693 -61 651 -47 496 -47C451 -47 373 -53 334 -70ZM495 0Z" glyph-name="cedilla" horiz-adv-x="930" unicode="&#184;" /><glyph d="M465 478C522 478 548 452 548 391C548 340 522 314 465 314C410 314 384 339 384 391C384 452 410 478 465 478ZM767 398 465 699 163 398 465 95ZM204 398 465 658 726 398 465 136Z" glyph-name="centreddotwhitediamond" horiz-adv-x="930" unicode="&#10192;" /><glyph d="M236 719 130 616V68H689L799 176V719ZM159 596H671V97H159Z" glyph-name="checkbox" horiz-adv-x="930" unicode="&#9744;" /><glyph d="M464 770C216 770 90 627 90 368C90 117 219 -20 464 -20C710 -20 839 117 839 368C839 627 713 770 464 770ZM464 9V741C694 741 810 619.6489 810 367C810 124.3556 688 9 464 9ZM464 750Z" glyph-name="circlehalfleftblack" horiz-adv-x="930" unicode="&#9680;" /><glyph d="M464 770C216 770 90 627 90 368C90 117 219 -20 464 -20C710 -20 839 117 839 368C839 627 713 770 464 770ZM464 9C242 9 119 124.3556 119 367C119 620 235.3256 741 464 741C693.6724 741 810 620 810 367C810 124.3556 688 9 464 9ZM464 750Z" glyph-name="circlewhite" horiz-adv-x="930" unicode="&#9675;" /><glyph d="M300 937C223 864 172 832 65 815V800C172 810 228 824 300 879ZM300 937V879C372 824 428 810 535 800V815C428 832 377 864 300 937ZM300 750Z" glyph-name="circumflex" horiz-adv-x="600" unicode="&#710;" /><glyph d="M231 310C148 310 107 263 107 178C107 101 150 60 231 60C313 60 357 101 357 178C357 263 315 310 231 310ZM231 283C300 283 330 251 330 177C330 115 298 87 231 87C165 87 134 115 134 177C134 251 163 283 231 283ZM231 694C148 694 107 647 107 562C107 485 150 444 231 444C313 444 357 485 357 562C357 647 315 694 231 694ZM231 667C300 667 330 635 330 561C330 499 298 471 231 471C165 471 134 499 134 561C134 635 163 667 231 667Z" glyph-name="colon" horiz-adv-x="465" unicode=":" /><glyph d="M173 243 91 -50 65 -43 152 270ZM173 243H66V270H173Z" glyph-name="comma" horiz-adv-x="465" unicode="," /><glyph d="M143 725H637V750H143ZM441 7C296 7 255 78 255 329C255 587 289 644 440 644C542 644 624 605 624 457V242C624 108 591 7 441 7ZM626 93C626 -2 675 -20 758 -20C830 -20 847 12 847 118V194H822V120C822 45 815 18 785 18C762 18 752 33 752 98V725H855V750H624V577C614 607 568 671 442 671C223 671 115 548 115 326C115 104 223 -20 442 -20C534 -20 595 20 629 94Z" glyph-name="d" horiz-adv-x="930" unicode="d" /><glyph d="M231 770C148 770 107 723 107 638C107 561 150 520 231 520C313 520 357 561 357 638C357 723 315 770 231 770ZM231 743C300 743 330 711 330 637C330 575 298 547 231 547C165 547 134 575 134 637C134 711 163 743 231 743Z" glyph-name="degree" horiz-adv-x="465" unicode="&#176;" /><glyph d="M146 800C200 800 225 811 225 833C225 856 200 870 146 870C92 870 67 856 67 833C67 811 92 800 146 800ZM418 800C472 800 497 811 497 833C497 856 472 870 418 870C364 870 339 856 339 833C339 811 364 800 418 800ZM285 750Z" glyph-name="dieresis" horiz-adv-x="560" unicode="&#168;" /><glyph d="M196 109 286 397 196 688 693 397ZM316 397H636L246 626Z" glyph-name="dngb:arrowheadrightthreeDtoplight" horiz-adv-x="930" unicode="&#10146;" /><glyph d="M453 376C453 545 364 567 364 662C364 710 400 759 465 759C530 759 566 710 566 662C566 567 477 545 477 376C477 207 566 185 566 90C566 42 530 -7 465 -7C400 -7 364 42 364 90C364 185 453 207 453 376ZM465 364C296 364 274 275 179 275C131 275 82 311 82 376C82 441 131 477 179 477C274 477 296 388 465 388C634 388 656 477 751 477C799 477 848 441 848 376C848 311 799 275 751 275C656 275 634 364 465 364Z" glyph-name="dngb:asteriskballoonfour" horiz-adv-x="930" unicode="&#10019;" /><glyph d="M477 375C477 206 524 157 576 89C576 41 536 -8 465 -8C394 -8 354 41 354 89C406 157 453 206 453 375C453 544 406 593 354 661C354 709 394 758 465 758C536 758 576 709 576 661C524 593 477 544 477 375ZM465 387C634 387 683 434 751 486C799 486 848 446 848 375C848 304 799 264 751 264C683 316 634 363 465 363C296 363 247 316 179 264C131 264 82 304 82 375C82 446 131 486 179 486C247 434 296 387 465 387Z" glyph-name="dngb:asteriskclubfour" horiz-adv-x="930" unicode="&#10021;" /><glyph d="M465 266C402 266 350 318 350 381C350 444 402 496 465 496C528 496 580 444 580 381C580 318 528 266 465 266ZM465 238 244 81 330 337 108 501 381 495 465 760 549 495 822 501 600 337 686 81ZM566 348 732 470 528 466 465 663 402 466 198 470 364 348 299 156 465 274 631 156Z" glyph-name="dngb:starcentreblackwhite" horiz-adv-x="930" unicode="&#10028;" /><glyph d="M465 1 355 195H124L241 395L124 595H355L465 789L575 595H806L693 395L806 195H575ZM558 224H757L660 395L757 566H558L465 731L372 566H175L275 395L175 224H372L465 59Z" glyph-name="dngb:starofdavid" horiz-adv-x="930" unicode="&#10017;" /><glyph d="M465 238 244 81 330 337 108 501 381 495 465 760 549 495 822 501 600 337 686 81ZM465 381V691L396 475ZM465 381 759 479 534 475ZM465 381 171 479 354 345ZM465 381 282 134 465 263ZM465 381 648 134 576 345Z" glyph-name="dngb:starpinwheel" horiz-adv-x="930" unicode="&#10031;" /><glyph d="M767 403C622 463 530 554 470 699H460C400 554 308 463 163 403V393C308 333 400 242 460 97H470C530 242 622 333 767 393Z" glyph-name="dngb:starpointedblackfour" horiz-adv-x="930" unicode="&#10022;" /><glyph d="M767 403V393C622 333 530 242 470 97H460C400 242 308 333 163 393V403C308 463 400 554 460 699H470C530 554 622 463 767 403ZM222 398C332 343 410 266 465 156C520 266 598 343 708 398C598 453 520 530 465 640C410 530 332 453 222 398Z" glyph-name="dngb:starpointedwhitefour" horiz-adv-x="930" unicode="&#10023;" /><glyph d="M405 -87H432V840H405ZM498 -87H525V840H498ZM709 750H684V457H709ZM118 299C118 108 286 -20 491 -20C672 -20 824 46 824 180C824 285 768 358 518 429C321 483 284 512 284 610C284 707 339 743 450 743C570 743 684 648 684 469V457H709C709 676 579 770 435 770C306 770 163 701 163 569C163 443 241 375 450 315C654 256 694 228 694 132C694 54 640 7 488 7C305 7 143 121 143 301V333H118ZM118 333V0H143V333ZM444 750Z" glyph-name="dollar" horiz-adv-x="930" unicode="$" /><glyph d="M280 800C334 800 359 811 359 833C359 856 334 870 280 870C226 870 201 856 201 833C201 811 226 800 280 800ZM281 750Z" glyph-name="dotaccent" horiz-adv-x="560" unicode="&#729;" /><glyph d="M529 0H401V590H529ZM839 25V0H507V25ZM423 0H90V25H423ZM90 565V590H428V565ZM840 590V565H507V590ZM466 550Z" glyph-name="dotlessi" horiz-adv-x="930" unicode="&#305;" /><glyph d="M777 590V563H330V590ZM777 590V563H629V590ZM777 582V297C777 84 672 -20 427 -20C219 -20 91 57 91 192C91 457 627 374 649 562L665 544L655 513C597 359 118 416 118 192C118 60 257 7 425 7C611 7 649 79 649 297V582Z" glyph-name="dotlessj" horiz-adv-x="930" unicode="&#567;" /><glyph d="M813 282C813 96 693 9 496 9C293 9 230 110 230 367C230 640 289 743 462 743C643 743 702 635 700 351H840C842 621 719 770 461 770C214 770 90 627 90 368C90 116 219 -20 496 -20C714 -20 840 86 840 282ZM726 378H206L208 351H726C726 351 726 378 726 378ZM462 750Z" glyph-name="e" horiz-adv-x="930" unicode="e" /><glyph d="M813 282C813 96 693 9 496 9C293 9 230 110 230 367C230 640 289 743 462 743C643 743 702 635 700 351H840C842 621 719 770 461 770C214 770 90 627 90 368C90 116 219 -20 496 -20C714 -20 840 86 840 282ZM726 378H206L208 351H726C726 351 726 378 726 378ZM462 750ZM695 917C567 855 461 828 230 815V800C461 800 573 801 695 854ZM474 750Z" glyph-name="eacute" horiz-adv-x="930" unicode="&#233;" /><glyph d="M813 282C813 96 693 9 496 9C293 9 230 110 230 367C230 640 289 743 462 743C643 743 702 635 700 351H840C842 621 719 770 461 770C214 770 90 627 90 368C90 116 219 -20 496 -20C714 -20 840 86 840 282ZM726 378H206L208 351H726C726 351 726 378 726 378ZM462 750ZM659 903C659 831.0943 622 800 460 800C298 800 261 831.0943 261 903H288C288 862.3846 311 837 459 837C609 837 632 862.3846 632 903ZM462 750Z" glyph-name="ebreve" horiz-adv-x="930" unicode="&#277;" /><glyph d="M813 282C813 96 693 9 496 9C293 9 230 110 230 367C230 640 289 743 462 743C643 743 702 635 700 351H840C842 621 719 770 461 770C214 770 90 627 90 368C90 116 219 -20 496 -20C714 -20 840 86 840 282ZM726 378H206L208 351H726C726 351 726 378 726 378ZM462 750ZM462 780V838C390 893 334 907 227 917V902C334 885 385 853 462 780ZM462 780C539 853 590 885 697 902V917C590 907 534 893 462 838ZM462 750Z" glyph-name="ecaron" horiz-adv-x="930" unicode="&#283;" /><glyph d="M813 282C813 96 693 9 496 9C293 9 230 110 230 367C230 640 289 743 462 743C643 743 702 635 700 351H840C842 621 719 770 461 770C214 770 90 627 90 368C90 116 219 -20 496 -20C714 -20 840 86 840 282ZM726 378H206L208 351H726C726 351 726 378 726 378ZM462 750ZM462 937C385 864 334 832 227 815V800C334 810 390 824 462 879ZM462 937V879C534 824 590 810 697 800V815C590 832 539 864 462 937ZM462 750Z" glyph-name="ecircumflex" horiz-adv-x="930" unicode="&#234;" /><glyph d="M813 282C813 96 693 9 496 9C293 9 230 110 230 367C230 640 289 743 462 743C643 743 702 635 700 351H840C842 621 719 770 461 770C214 770 90 627 90 368C90 116 219 -20 496 -20C714 -20 840 86 840 282ZM726 378H206L208 351H726C726 351 726 378 726 378ZM462 750ZM323 800C377 800 402 811 402 833C402 856 377 870 323 870C269 870 244 856 244 833C244 811 269 800 323 800ZM595 800C649 800 674 811 674 833C674 856 649 870 595 870C541 870 516 856 516 833C516 811 541 800 595 800ZM462 750Z" glyph-name="edieresis" horiz-adv-x="930" unicode="&#235;" /><glyph d="M813 282C813 96 693 9 496 9C293 9 230 110 230 367C230 640 289 743 462 743C643 743 702 635 700 351H840C842 621 719 770 461 770C214 770 90 627 90 368C90 116 219 -20 496 -20C714 -20 840 86 840 282ZM726 378H206L208 351H726C726 351 726 378 726 378ZM462 750ZM461 800C515 800 540 811 540 833C540 856 515 870 461 870C407 870 382 856 382 833C382 811 407 800 461 800ZM462 750Z" glyph-name="edotaccent" horiz-adv-x="930" unicode="&#279;" /><glyph d="M813 282C813 96 693 9 496 9C293 9 230 110 230 367C230 640 289 743 462 743C643 743 702 635 700 351H840C842 621 719 770 461 770C214 770 90 627 90 368C90 116 219 -20 496 -20C714 -20 840 86 840 282ZM726 378H206L208 351H726C726 351 726 378 726 378ZM462 750ZM241 917V854C363 801 475 800 706 800V815C474.9853 828.0008 369.2283 855.41 241 917ZM462 750Z" glyph-name="egrave" horiz-adv-x="930" unicode="&#232;" /><glyph d="M777 569C777 709 627 770 460 770C302 770 128 701 128 569C128 446 211 383 426 321C649 256 694 231 694 132C694 54 635 7 468 7C287 7 147 62 147 199C147 302 228 336 337 351L314 370C204 356 119 307 119 195C119 52 266 -20 472 -20C663 -20 824 46 824 180C824 288 763 359 494 435C294 491 254 515 254 610C254 707 327 743 475 743C617 743 750 678 750 569C750 459 693 425 550 409L570 391C689 403 777 437 777 569Z" glyph-name="eight" horiz-adv-x="930" unicode="8" /><glyph d="M231 230C148 230 107 183 107 98C107 21 150 -20 231 -20C313 -20 357 21 357 98C357 183 315 230 231 230ZM231 203C300 203 330 171 330 97C330 35 298 7 231 7C165 7 134 35 134 97C134 171 163 203 231 203ZM454 230C371 230 330 183 330 98C330 21 373 -20 454 -20C536 -20 580 21 580 98C580 183 538 230 454 230ZM454 203C523 203 553 171 553 97C553 35 521 7 454 7C388 7 357 35 357 97C357 171 386 203 454 203ZM677 230C594 230 553 183 553 98C553 21 596 -20 677 -20C759 -20 803 21 803 98C803 183 761 230 677 230ZM677 203C746 203 776 171 776 97C776 35 744 7 677 7C611 7 580 35 580 97C580 171 609 203 677 203Z" glyph-name="ellipsis" horiz-adv-x="930" unicode="&#8230;" /><glyph d="M813 282C813 96 693 9 496 9C293 9 230 110 230 367C230 640 289 743 462 743C643 743 702 635 700 351H840C842 621 719 770 461 770C214 770 90 627 90 368C90 116 219 -20 496 -20C714 -20 840 86 840 282ZM726 378H206L208 351H726C726 351 726 378 726 378ZM462 750ZM675 825H249V857H675ZM462 750Z" glyph-name="emacron" horiz-adv-x="930" unicode="&#275;" /><glyph d="M845 398H85V425H845Z" glyph-name="emdash" horiz-adv-x="930" unicode="&#8212;" /><glyph d="M395 398H70V425H395Z" glyph-name="endash" horiz-adv-x="465" unicode="&#8211;" /><glyph d="M100 0H1278V750H100ZM689 694 702 650 747 652 710 626 725 584 689 611 653 584 668 626 631 652 676 650ZM530 652 563 620 601 644 582 603 616 574 572 579 554 538 546 582 500 586 541 607ZM413 535 458 524 479 564 483 519 527 511 486 493 491 449 462 483 420 464 445 502ZM370 376 414 388 412 434 439 396 481 411 454 376 481 340 439 355 412 318 414 363ZM413 216 445 249 420 288 462 269 491 303 486 258 527 240 483 233 479 187 458 227ZM530 100 541 144 500 165 546 169 554 213 572 172 616 177 582 149 601 107 563 131ZM689 57 676 101 631 99 668 126 653 167 689 141 725 167 710 126 747 99 702 101ZM848 100 815 131 777 107 796 149 762 177 806 172 824 213 832 169 878 165 837 144ZM965 216 920 227 899 187 895 233 851 240 892 258 887 303 916 269 958 288 933 249ZM1008 376 964 363 966 318 939 355 897 340 924 376 897 411 939 396 966 434 964 388ZM965 535 933 502 958 464 916 483 887 449 892 493 851 511 895 519 899 564 920 524ZM848 652 837 607 878 586 832 582 824 538 806 579 762 574 796 603 777 644 815 620Z" glyph-name="europe" horiz-adv-x="1378" /><glyph d="M100 0H1278V750H100ZM689 694 702 650 747 652 710 626 725 584 689 611 653 584 668 626 631 652 676 650ZM541 658 573 625 612 647 591 607 624 577 580 584 560 543 554 587 509 593 550 613ZM427 557 470 542 494 580 495 535 538 523 496 509 497 464 471 500 428 485 456 521ZM373 414 418 421 421 466 443 426 487 436 456 404 478 365 438 385 408 351 415 396ZM391 262 428 290 410 332 448 306 482 335 469 292 507 268 463 267 451 223 437 266ZM478 137 497 179 462 207 508 202 524 243 533 200 578 196 539 175 549 130 517 161ZM613 66 611 112 567 121 609 138 604 182 633 147 674 165 650 128 679 93 636 106ZM766 66 742 106 699 93 729 128 704 165 745 148 774 182 769 138 812 121 767 112ZM901 137 862 162 829 130 839 175 800 196 845 200 854 244 871 202 916 207 881 179ZM987 263 941 267 927 224 916 268H871L909 293L897 336L930 307L968 332L950 291ZM1005 414 963 396 971 352 940 385 900 365 922 404 891 437 935 427 956 467 960 422ZM951 557 922 521 949 485 906 501 881 465 882 509 840 524 883 535V581L907 542ZM837 658 828 613 869 594 823 588 817 544 798 584 754 577 786 607 766 648 805 625Z" glyph-name="europe13" horiz-adv-x="1378" /><glyph d="M111 215 101 750H148L138 215ZM111 -50V169H138V-50Z" glyph-name="exclam" horiz-adv-x="465" unicode="!" /><glyph d="M354 485 364 -50H317L327 485ZM354 750 354 531H327V750Z" glyph-name="exclamdown" horiz-adv-x="465" unicode="&#161;" /><glyph d="M840 214V189H90V214ZM91 0V25H840V0ZM783 586C783 693.6571 704 743 603 743C476 743 418 661 418 413V0H290V413C290 653 403 770 601 770C733 770 811 701.6832 811 586C811 357.1 424.2393 402.6571 417 208L401 226L411 266C466 417 783 396.3311 783 586Z" glyph-name="f" horiz-adv-x="930" unicode="f" /><glyph d="M464 770C216 770 90 627 90 368C90 117 219 -20 464 -20C710 -20 839 117 839 368C839 627 713 770 464 770ZM464 9C242 9 119 124.3556 119 367C119 620 235.3256 741 464 741C693.6724 741 810 620 810 367C810 124.3556 688 9 464 9ZM464 750ZM450 483C519 483 549 451 549 377C549 315 517 287 450 287C384 287 353 315 353 377C353 451 382 483 450 483Z" glyph-name="fisheye" horiz-adv-x="930" unicode="&#9673;" /><glyph d="M140 311H167L197 750H170ZM147 261H120C120 78 239 -20 444 -20C693 -20 810 77 810 258C810 440 698 540 450 540C247 540 151 456 140 311H167C178 441 258 513 449 513C611 513 670 436 670 257C670 85 608 7 444 7C259 7 147 87 147 261ZM744 515V750H170V727L189 633H655C699 633 719 612 719 557V515Z" glyph-name="five" horiz-adv-x="930" unicode="5" /><glyph d="M689 723 252 237H87L544 750H689ZM811 210H87V237H811ZM576 3H448V270L557 388H576ZM214 0V25H810V0Z" glyph-name="four" horiz-adv-x="930" unicode="4" /><glyph d="M451 743C619 743 656 643 656 508V463C656 315 564 276 450 276C290.6571 276 255 317 255 501C255 691 298.4318 743 451 743ZM407 -20C664 -20 784 47.4309 784 266V770H760L659 661C626 732 555 770 452 770C226 770 115 675.8233 115 504C115 339.8049 226 249 452 249C593 249 646 313 656 343V251C656 42.8824 593 7 407 7C170.7559 7 133 44 133 122C133 220 302.6355 249 452 249L435 272C233.3017 264.5297 106 235 106 122C106 36 145.6335 -20 407 -20Z" glyph-name="g" horiz-adv-x="930" unicode="g" /><glyph d="M465 95 767 398 465 699 163 398Z" glyph-name="gmtr:diamondblack" horiz-adv-x="930" unicode="&#9670;" /><glyph d="M64 917V854C186 801 298 800 529 800V815C297.9853 828.0008 192.2283 855.41 64 917ZM285 750Z" glyph-name="grave" horiz-adv-x="600" unicode="`" /><glyph d="M70 397C149 314 185 269 212 162H227C207 269 189 318 128 397ZM70 397H128C189 476 207 525 227 632H212C185 525 149 480 70 397ZM200 397C279 314 315 269 342 162H357C337 269 319 318 258 397ZM200 397H258C319 476 337 525 357 632H342C315 525 279 480 200 397Z" glyph-name="guillemotleft" horiz-adv-x="465" unicode="&#171;" /><glyph d="M395 397C316 480 280 525 253 632H238C258 525 276 476 337 397ZM395 397H337C276 318 258 269 238 162H253C280 269 316 314 395 397ZM265 397C186 480 150 525 123 632H108C128 525 146 476 207 397ZM265 397H207C146 318 128 269 108 162H123C150 269 186 314 265 397Z" glyph-name="guillemotright" horiz-adv-x="465" unicode="&#187;" /><glyph d="M135 397C214 314 250 269 277 162H292C272 269 254 318 193 397ZM135 397H193C254 476 272 525 292 632H277C250 525 214 480 135 397Z" glyph-name="guilsinglleft" horiz-adv-x="465" unicode="&#8249;" /><glyph d="M330 397C251 480 215 525 188 632H173C193 525 211 476 272 397ZM330 397H272C211 318 193 269 173 162H188C215 269 251 314 330 397Z" glyph-name="guilsinglright" horiz-adv-x="465" unicode="&#8250;" /><glyph d="M312 413C312 661 347 743 506 743C639 743 743 703 743 598C743 473 568 447 439 395C373 368 330 346 312 313ZM184 25H80V0H860V25H755V110C755 297 650 378 484 378C475 378 466 377 455 376C594 429 770 456 770 598C770 708 671 770 504 770C282 770 184 653 184 413ZM312 25V180C312 311 359 353 467 353C596 353 627 308 627 125V25Z" glyph-name="h" horiz-adv-x="930" unicode="h" /><glyph d="M299 917C231 857 166 822 64 815V800C172 800 233 809 299 854ZM529 917C461 857 396 822 294 815V800C402 800 463 809 529 854ZM308 750Z" glyph-name="hungarumlaut" horiz-adv-x="600" unicode="&#733;" /><glyph d="M395 398H70V425H395Z" glyph-name="hyphen" horiz-adv-x="465" unicode="-" /><glyph d="M465 623C514 623 554 663 554 711C554 760 514 800 465 800C416 800 376 760 376 711C376 663 416 623 465 623ZM529 0H401V590H529ZM839 25V0H507V25ZM423 0H90V25H423ZM90 565V590H428V565ZM840 590V565H507V590ZM466 550ZM529 0H401V590H529ZM839 25V0H507V25ZM423 0H90V25H423ZM90 565V590H428V565ZM840 590V565H507V590ZM466 550Z" glyph-name="i" horiz-adv-x="930" unicode="i" /><glyph d="M529 0H401V590H529ZM839 25V0H507V25ZM423 0H90V25H423ZM90 565V590H428V565ZM840 590V565H507V590ZM466 550ZM687 717C559 655 453 628 222 615V600C453 600 565 601 687 654ZM466 550Z" glyph-name="iacute" horiz-adv-x="930" unicode="&#237;" /><glyph d="M529 0H401V590H529ZM839 25V0H507V25ZM423 0H90V25H423ZM90 565V590H428V565ZM840 590V565H507V590ZM466 550ZM663 703C663 631.0943 626 600 464 600C302 600 265 631.0943 265 703H292C292 662.3846 315 637 463 637C613 637 636 662.3846 636 703ZM466 550Z" glyph-name="ibreve" horiz-adv-x="930" unicode="&#301;" /><glyph d="M529 0H401V590H529ZM839 25V0H507V25ZM423 0H90V25H423ZM90 565V590H428V565ZM840 590V565H507V590ZM466 550ZM466 737C389 664 338 632 231 615V600C338 610 394 624 466 679ZM466 737V679C538 624 594 610 701 600V615C594 632 543 664 466 737ZM466 550Z" glyph-name="icircumflex" horiz-adv-x="930" unicode="&#238;" /><glyph d="M529 0H401V590H529ZM839 25V0H507V25ZM423 0H90V25H423ZM90 565V590H428V565ZM840 590V565H507V590ZM466 550ZM327 600C381 600 406 611 406 633C406 656 381 670 327 670C273 670 248 656 248 633C248 611 273 600 327 600ZM599 600C653 600 678 611 678 633C678 656 653 670 599 670C545 670 520 656 520 633C520 611 545 600 599 600ZM466 550Z" glyph-name="idieresis" horiz-adv-x="930" unicode="&#239;" /><glyph d="M529 0H401V590H529ZM839 25V0H507V25ZM423 0H90V25H423ZM90 565V590H428V565ZM840 590V565H507V590ZM466 550ZM245 717V654C367 601 479 600 710 600V615C478.9853 628.0008 373.2283 655.41 245 717ZM466 550Z" glyph-name="igrave" horiz-adv-x="930" unicode="&#236;" /><glyph d="M529 0H401V590H529ZM839 25V0H507V25ZM423 0H90V25H423ZM90 565V590H428V565ZM840 590V565H507V590ZM466 550ZM678 718H252V750H678ZM465 643Z" glyph-name="imacron" horiz-adv-x="930" unicode="&#299;" /><glyph d="M529 0H401V590H529ZM839 25V0H507V25ZM423 0H90V25H423ZM90 565V590H428V565ZM840 590V565H507V590ZM466 550ZM363 696C297 696 270 661 270 600H293C293 638 330 652 354 652C421 652 498 600 563 600C629 600 656 635 656 696H633C633 658 596 644 572 644C519 644 432 696 363 696ZM466 550Z" glyph-name="itilde" horiz-adv-x="930" unicode="&#297;" /><glyph d="M709 623C758 623 798 663 798 711C798 760 758 800 709 800C660 800 620 760 620 711C620 663 660 623 709 623ZM777 590V563H330V590ZM777 590V563H629V590ZM777 582V297C777 84 672 -20 427 -20C219 -20 91 57 91 192C91 457 627 374 649 562L665 544L655 513C597 359 118 416 118 192C118 60 257 7 425 7C611 7 649 79 649 297V582Z" glyph-name="j" horiz-adv-x="930" unicode="j" /><glyph d="M312 413V313C330 346 373 368 439 395C571.6584 448.4747 753 473 753 598C753 703 644.6118 743 506 743C347 743 312 661 312 413ZM469 353C360 353 312 311 312 180V25H637V90C637 245 620.6071 252 502 252C422 252 383 230 383 173C383 123 418 99 475 99C529 99 553 125 553 206C553 294 554.0633 353 469 353ZM413 373C434 375 452 378 469 378C583.0935 378 581 288 581 203C581 110 539 72 475 72C408 72 355 111 355 172C355 244 412 276 502 276C668.8284 276 765 219 765 51V25H870V0H80V25H184V413C184 653 282 770 504 770C677.2782 770 780 708 780 598C780 452 586.8293 427.4688 437 370Z" glyph-name="k" horiz-adv-x="930" unicode="k" /><glyph d="M289 25 287 0H80V25ZM810 0H198V27H557C738 27 785 106 785 274V300H810ZM184 18V413C184 652 274.0002 768.9655 484 770C667 771 780 674.365 780 508C780 224 320.0002 280.0058 312 38L296 56L306 116C371.1936 285.5033 753 271 753 508C753 676.2839 632 743 486 743C341.7073 743 312 661 312 413V18Z" glyph-name="l" horiz-adv-x="930" unicode="l" /><glyph d="M583 513 70 266V296L583 543ZM289 25 287 0H80V25ZM810 0H198V27H557C738 27 785 106 785 274V300H810ZM184 18V413C184 652 274.0002 768.9655 484 770C667 771 780 674.365 780 508C780 224 320.0002 280.0058 312 38L296 56L306 116C371.1936 285.5033 753 271 753 508C753 676.2839 632 743 486 743C341.7073 743 312 661 312 413V18Z" glyph-name="lslash" horiz-adv-x="930" unicode="&#322;" /><glyph d="M534 532V0H414V532C414 684 398.9231 734 358 734C311.5789 734 274 650 274 452L246 524C261.0015 709.0179 301.2 770 384 770C481.0588 770 534 680 534 532ZM274 0H154V750H262V587L274 595ZM739 0H70V25H739ZM70 725V750H176V725ZM794 532V0H674V532C674 685 656.0351 734 610 734C567.3151 734 534 649 534 452L505 524C521.0009 710.0106 554.1339 770 635 770C738 770 794 680 794 532ZM874 25V0H772V25Z" glyph-name="m" horiz-adv-x="930" unicode="m" /><glyph d="M513 825H87V857H513ZM300 750Z" glyph-name="macron" horiz-adv-x="600" unicode="&#175;" /><glyph d="M365 -18H382C385.001 24.0136 422.3125 37 468 37C505.5319 37 548.999 24.0139 552 -18H571C566.3716 46.7976 531 92 467 92C400 92 368.4724 49.1337 365 -18ZM43 324H60C63.001 366.0136 100.3125 379 146 379C183.5319 379 226.999 366.0139 230 324H249C244.3716 388.7976 209 434 145 434C78 434 46.4724 391.1337 43 324ZM681 322H698C701.001 364.0136 738.3125 377 784 377C821.5319 377 864.999 364.0139 868 322H887C882.3716 386.7976 847 432 783 432C716 432 684.4724 389.1337 681 322ZM365 658H382C385.001 700.0136 422.3125 713 468 713C505.5319 713 548.999 700.0139 552 658H571C566.3716 722.7976 531 768 467 768C400 768 368.4724 725.1337 365 658ZM310 220 140 50 120 71 290 240ZM141 241 311 71 290 51 121 221ZM800 220 630 50 610 71 780 240ZM631 241 801 71 780 51 611 221ZM310 701 140 531 120 552 290 721ZM141 722 311 552 290 532 121 702ZM790 701 620 531 600 552 770 721ZM621 722 791 552 770 532 601 702Z" glyph-name="melange" horiz-adv-x="930" /><glyph d="M751 467V0H623V426C623 677 595 737 490 737C364 737 322 645 322 431L298 503C310 707 386 770 506 770C674 770 751 702 751 467ZM322 0H194V750H312V585L322 565ZM246 0H90V25H246ZM90 725V750H246V725ZM485 25V0H299V25ZM683 0H385V25H683ZM855 25V0H720V25ZM492 750Z" glyph-name="n" horiz-adv-x="930" unicode="n" /><glyph d="M751 467V0H623V426C623 677 595 737 490 737C364 737 322 645 322 431L298 503C310 707 386 770 506 770C674 770 751 702 751 467ZM322 0H194V750H312V585L322 565ZM246 0H90V25H246ZM90 725V750H246V725ZM485 25V0H299V25ZM683 0H385V25H683ZM855 25V0H720V25ZM492 750ZM725 917C597 855 491 828 260 815V800C491 800 603 801 725 854ZM504 750Z" glyph-name="nacute" horiz-adv-x="930" unicode="&#324;" /><glyph d="M751 467V0H623V426C623 677 595 737 490 737C364 737 322 645 322 431L298 503C310 707 386 770 506 770C674 770 751 702 751 467ZM322 0H194V750H312V585L322 565ZM246 0H90V25H246ZM90 725V750H246V725ZM485 25V0H299V25ZM683 0H385V25H683ZM855 25V0H720V25ZM492 750ZM492 780V838C420 893 364 907 257 917V902C364 885 415 853 492 780ZM492 780C569 853 620 885 727 902V917C620 907 564 893 492 838ZM492 750Z" glyph-name="ncaron" horiz-adv-x="930" unicode="&#328;" /><glyph d="M447 743C619 743 657 642 657 508V493C657 345 563 306 446 306C299 306 266 345 266 521C266 694 306 743 447 743ZM815 368C815 692 628 770 448 770C232 770 126 682 126 524C126 366 232 279 448 279C592 279 647 346 657 377V343C657 108 597 7 430 7C247 7 158 94 158 249H131C131 79 235 -20 431 -20C696 -20 815 86 815 368Z" glyph-name="nine" horiz-adv-x="930" unicode="9" /><glyph d="M751 467V0H623V426C623 677 595 737 490 737C364 737 322 645 322 431L298 503C310 707 386 770 506 770C674 770 751 702 751 467ZM322 0H194V750H312V585L322 565ZM246 0H90V25H246ZM90 725V750H246V725ZM485 25V0H299V25ZM683 0H385V25H683ZM855 25V0H720V25ZM492 750ZM389 896C323 896 296 861 296 800H319C319 838 356 852 380 852C447 852 524 800 589 800C655 800 682 835 682 896H659C659 858 622 844 598 844C545 844 458 896 389 896ZM492 750Z" glyph-name="ntilde" horiz-adv-x="930" unicode="&#241;" /><glyph d="M845 486H85V513H845ZM845 246H85V273H845ZM429 750 257 0H229L400 750ZM695 750 523 0H495L666 750Z" glyph-name="numbersign" horiz-adv-x="930" unicode="#" /><glyph d="M464 770C216 770 90 627 90 368C90 117 219 -20 464 -20C709 -20 840 117 840 368C840 627 714 770 464 770ZM464 745C639 745 700 641.4521 700 367C700 108.5722 635 5 464 5C293 5 230 108.5722 230 367C230 641.4521 289 745 464 745ZM464 750ZM477 750Z" glyph-name="o" horiz-adv-x="930" unicode="o" /><glyph d="M563 723C553 729 541 733 525 736C507 739 484 741 452 741C406 741 355 736 315 724C284 715 255 703 255 681C255 665 274 658 301 653C340 645 403 642 496 642C614 642 690 639 735 629C792 616 807 594 807 562C807 528 796 506 737 495C690 486 608 484 467 484C325 484 236 482 184 473C144 466 125 456 125 433C125 413 146 405 185 398C237 388 325 384 465 384C616 384 705 381 757 373C822 361 834 339 834 308C834 273 821 251 758 239C707 230 619 229 473 229C351 229 268 231 216 225C179 221 156 214 156 187C156 164 178 154 211 148C256 139 325 137 421 137C524 137 593 136 636 130C693 121 707 102 707 75C707 46 677 19 624 2C579 -12 521 -20 463 -20C431 -20 402 -18 378 -14C353 -11 334 -6 322 -2L332 25C342 22 360 18 382 15C405 11 433 9 463 9C517 9 573 16 615 30C649 40 678 54 678 75C678 92 658 97 631 101C589 107 522 108 421 108C323 108 252 110 206 119C148 131 127 153 127 187C127 225 147 246 213 254C266 260 349 257 473 257C617 257 703 259 753 268C790 274 805 284 805 308C805 329 789 338 752 344C701 353 613 355 465 355C323 355 233 359 179 369C111 382 96 405 96 433C96 466 111 489 179 501C232 510 322 513 467 513C605 513 686 515 732 523C766 530 778 540 778 562C778 583 762 593 729 600C685 610 611 613 496 613C401 613 336 616 295 624C241 635 226 655 226 681C226 711 255 736 307 751C349 764 403 770 452 770C486 770 511 768 530 764C550 761 565 755 577 749Z" glyph-name="o.2" horiz-adv-x="930" /><glyph d="M464 770C216 770 90 627 90 368C90 117 219 -20 464 -20C709 -20 840 117 840 368C840 627 714 770 464 770ZM464 745C639 745 700 641.4521 700 367C700 108.5722 635 5 464 5C293 5 230 108.5722 230 367C230 641.4521 289 745 464 745ZM464 750ZM477 750ZM697 917C569 855 463 828 232 815V800C463 800 575 801 697 854ZM476 750Z" glyph-name="oacute" horiz-adv-x="930" unicode="&#243;" /><glyph d="M464 770C216 770 90 627 90 368C90 117 219 -20 464 -20C709 -20 840 117 840 368C840 627 714 770 464 770ZM464 745C639 745 700 641.4521 700 367C700 108.5722 635 5 464 5C293 5 230 108.5722 230 367C230 641.4521 289 745 464 745ZM464 750ZM477 750ZM674 903C674 831.0943 637 800 475 800C313 800 276 831.0943 276 903H303C303 862.3846 326 837 474 837C624 837 647 862.3846 647 903ZM477 750Z" glyph-name="obreve" horiz-adv-x="930" unicode="&#335;" /><glyph d="M464 770C216 770 90 627 90 368C90 117 219 -20 464 -20C709 -20 840 117 840 368C840 627 714 770 464 770ZM464 745C639 745 700 641.4521 700 367C700 108.5722 635 5 464 5C293 5 230 108.5722 230 367C230 641.4521 289 745 464 745ZM464 750ZM477 750ZM477 937C400 864 349 832 242 815V800C349 810 405 824 477 879ZM477 937V879C549 824 605 810 712 800V815C605 832 554 864 477 937ZM477 750Z" glyph-name="ocircumflex" horiz-adv-x="930" unicode="&#244;" /><glyph d="M464 770C216 770 90 627 90 368C90 117 219 -20 464 -20C709 -20 840 117 840 368C840 627 714 770 464 770ZM464 745C639 745 700 641.4521 700 367C700 108.5722 635 5 464 5C293 5 230 108.5722 230 367C230 641.4521 289 745 464 745ZM464 750ZM477 750ZM325 800C379 800 404 811 404 833C404 856 379 870 325 870C271 870 246 856 246 833C246 811 271 800 325 800ZM597 800C651 800 676 811 676 833C676 856 651 870 597 870C543 870 518 856 518 833C518 811 543 800 597 800ZM464 750Z" glyph-name="odieresis" horiz-adv-x="930" unicode="&#246;" /><glyph d="M825 282C825 96 762 9 658 9C574 9 542 120 542 367C542 630 566 743 624 743C688 743 714 625 712 351H852C854 621 779 770 623 770C476 770 402 627 402 368C402 116 484 -20 658 -20C781 -20 852 86 852 282ZM738 378H518L520 351H738C738 351 738 378 738 378ZM311 770C159 770 82 627 82 368C82 117 161 -20 311 -20C461 -20 542 117 542 368C542 627 465 770 311 770ZM311 743C374 743 402 630 402 367C402 120 373 7 311 7C250 7 222 120 222 367C222 630 249 743 311 743Z" glyph-name="oe" horiz-adv-x="930" unicode="&#339;" /><glyph d="M464 770C216 770 90 627 90 368C90 117 219 -20 464 -20C709 -20 840 117 840 368C840 627 714 770 464 770ZM464 745C639 745 700 641.4521 700 367C700 108.5722 635 5 464 5C293 5 230 108.5722 230 367C230 641.4521 289 745 464 745ZM464 750ZM477 750ZM243 917V854C365 801 477 800 708 800V815C476.9853 828.0008 371.2283 855.41 243 917ZM464 750Z" glyph-name="ograve" horiz-adv-x="930" unicode="&#242;" /><glyph d="M464 770C216 770 90 627 90 368C90 117 219 -20 464 -20C709 -20 840 117 840 368C840 627 714 770 464 770ZM464 745C639 745 700 641.4521 700 367C700 108.5722 635 5 464 5C293 5 230 108.5722 230 367C230 641.4521 289 745 464 745ZM464 750ZM477 750ZM468 917C400 857 335 822 233 815V800C341 800 402 809 468 854ZM698 917C630 857 565 822 463 815V800C571 800 632 809 698 854ZM477 750Z" glyph-name="ohungarumlaut" horiz-adv-x="930" unicode="&#337;" /><glyph d="M464 770C216 770 90 627 90 368C90 117 219 -20 464 -20C709 -20 840 117 840 368C840 627 714 770 464 770ZM464 745C639 745 700 641.4521 700 367C700 108.5722 635 5 464 5C293 5 230 108.5722 230 367C230 641.4521 289 745 464 745ZM464 750ZM477 750ZM690 825H264V857H690ZM477 750Z" glyph-name="omacron" horiz-adv-x="930" unicode="&#333;" /><glyph d="M529 0H401V534L454 616L473 710L481 770H529ZM840 25V0H509V25ZM425 0H90V25H425ZM494 770C454 485 316 388 106 388V415C294 415 431 500 476 770Z" glyph-name="one" horiz-adv-x="930" unicode="1" /><glyph d="M464 770C216 770 90 627 90 368C90 117 219 -20 464 -20C709 -20 840 117 840 368C840 627 714 770 464 770ZM464 745C639 745 700 641.4521 700 367C700 108.5722 635 5 464 5C293 5 230 108.5722 230 367C230 641.4521 289 745 464 745ZM464 750ZM477 750ZM361 896C295 896 268 861 268 800H291C291 838 328 852 352 852C419 852 496 800 561 800C627 800 654 835 654 896H631C631 858 594 844 570 844C517 844 430 896 361 896ZM464 750Z" glyph-name="otilde" horiz-adv-x="930" unicode="&#245;" /><glyph d="M499 743C635.5128 743 675 672 675 421C675 163 643.3871 106 500 106C401 106 322 145 322 293V508C322 642 354 743 499 743ZM301 569 312 564V750H194V25H95V0H322V173C332 143 376 79 498 79C710 79 815 202 815 424C815 646 710 770 498 770C392 770 313 710 301 569ZM273 0H579V25H273ZM90 725H246V750H90Z" glyph-name="p" horiz-adv-x="930" unicode="p" /><glyph d="M444 -53C222 -53 99 82 99 367C99 662 215 803 444 803V830C196 830 70 666 70 368C70 78 199 -80 444 -80ZM444 750Z" glyph-name="parenleft" horiz-adv-x="465" unicode="(" /><glyph d="M21 803C243 803 366 668 366 383C366 88 250 -53 21 -53V-80C269 -80 395 84 395 382C395 672 266 830 21 830ZM21 -0Z" glyph-name="parenright" horiz-adv-x="465" unicode=")" /><glyph d="M263 0 698 750H667L232 0ZM689 356C564 356 502 285 502 158C502 42 567 -20 689 -20C812 -20 878 42 878 158C878 285 815 356 689 356ZM689 329C802 329 851 276 851 157C851 52 799 7 689 7C579 7 529 52 529 157C529 276 576 329 689 329ZM239 771C114 771 52 700 52 573C52 457 117 395 239 395C362 395 428 457 428 573C428 700 365 771 239 771ZM239 744C352 744 401 691 401 572C401 467 349 422 239 422C129 422 79 467 79 572C79 691 126 744 239 744Z" glyph-name="percent" horiz-adv-x="930" unicode="%" /><glyph d="M231 230C148 230 107 183 107 98C107 21 150 -20 231 -20C313 -20 357 21 357 98C357 183 315 230 231 230ZM231 203C300 203 330 171 330 97C330 35 298 7 231 7C165 7 134 35 134 97C134 171 163 203 231 203Z" glyph-name="period" horiz-adv-x="465" unicode="." /><glyph d="M231 505C148 505 107 458 107 373C107 296 150 255 231 255C313 255 357 296 357 373C357 458 315 505 231 505ZM231 478C300 478 330 446 330 372C330 310 298 282 231 282C165 282 134 310 134 372C134 446 163 478 231 478Z" glyph-name="periodcentered" horiz-adv-x="465" unicode="&#183;" /><glyph d="M0 0H17C20.001 42.0136 57.3125 55 103 55C140.5319 55 183.999 42.0139 187 0H206C201.3716 64.7976 166 110 102 110C35 110 3.4724 67.1337 0 0Z" glyph-name="petitarc" horiz-adv-x="500" /><glyph d="M190 170 20 0 0 21 170 190ZM21 191 191 21 170 1 1 171Z" glyph-name="petitecroix" horiz-adv-x="500" /><glyph d="M441 744C601 744 636 643 636 508V293C636 145 549 106 440 106C288.6364 106 255 163 255 421C255 673 296.4578 744 441 744ZM641 656C606 731 540 771 442 771C223 771 115 647 115 424C115 202 223 79 442 79C576 79 626 143 636 173V0H855V25H764V770H740L626 647ZM143 0H649V25H143Z" glyph-name="q" horiz-adv-x="930" unicode="q" /><glyph d="M165 750V397H140V750ZM451 212C452 342 481 366 570 414C643 453 646 505 646 590C646 698 574 746 423 743C270 743 170 644 170 429V397H142V434C142 647 240 770 439 770C648 770 786 709 786 585C786 448 692 442 583 390C495 348 480 325 480 212ZM451 -50V170H479V-50Z" glyph-name="question" horiz-adv-x="930" unicode="?" /><glyph d="M765 -30V323H790V-30ZM479 508C478 378 449 354 360 306C287 267 284 215 284 130C284 22 356 -26 507 -23C660 -23 760 76 760 291V323H788V286C788 73 690 -50 491 -50C282 -50 144 11 144 135C144 272 238 278 347 330C435 372 450 395 450 508ZM479 770V550H451V770Z" glyph-name="questiondown" horiz-adv-x="930" unicode="&#191;" /><glyph d="M173 243 91 -50 65 -43 152 270ZM173 243H66V270H173ZM335 243 253 -50 227 -43 314 270ZM335 243H228V270H335Z" glyph-name="quotedblbase" horiz-adv-x="465" unicode="&#8222;" /><glyph d="M292 507 374 800 400 793 313 480ZM292 507H399V480H292ZM130 507 212 800 238 793 151 480ZM130 507H237V480H130Z" glyph-name="quotedblleft" horiz-adv-x="465" unicode="&#8220;" /><glyph d="M173 773 91 480 65 487 152 800ZM173 773H66V800H173ZM335 773 253 480 227 487 314 800ZM335 773H228V800H335Z" glyph-name="quotedblright" horiz-adv-x="465" unicode="&#8221;" /><glyph d="M292 507 374 800 400 793 313 480ZM292 507H399V480H292Z" glyph-name="quoteleft" horiz-adv-x="465" unicode="&#8216;" /><glyph d="M173 773 91 480 65 487 152 800ZM173 773H66V800H173Z" glyph-name="quoteright" horiz-adv-x="465" unicode="&#8217;" /><glyph d="M173 243 91 -50 65 -43 152 270ZM173 243H66V270H173Z" glyph-name="quotesinglbase" horiz-adv-x="465" unicode="&#8218;" /><glyph d="M173 773 91 480 65 487 152 800ZM173 773H66V800H173Z" glyph-name="quotesingle" horiz-adv-x="465" unicode="'" /><glyph d="M830 367 805 366C805 669 753 741 640 741C506 741 466 648 466 431L440 502C452 706 527 770 640 770C771 770 830 680 830 367ZM466 0H338V750H456V585L466 565ZM390 0H90V25H390ZM90 725V750H390V725ZM749 25V0H443V25ZM830 750V337H805V750Z" glyph-name="r" horiz-adv-x="930" unicode="r" /><glyph d="M108 853C108 869 131 879 279 879C429 879 452 869 452 853C452 837 429 827 279 827C131 827 108 837 108 853ZM479 853C479 890 442 906 280 906C118 906 81 890 81 853C81 816 118 800 280 800C442 800 479 816 479 853ZM282 750Z" glyph-name="ring" horiz-adv-x="560" unicode="&#730;" /><glyph d="M714 750H689V457H714ZM693 132C693 54 634 7 468 7C249 7 145 76 145 271V303H118V269C118 63 231 -20 471 -20C663 -20 824 47 824 183C824 287 768 358 518 429C325 482 289 512 289 610C289 707 344 743 455 743C575 743 689 648 689 469V457H714C714 676 584 770 440 770C311 770 168 701 168 569C168 443 244 374 450 315C653 256 693 228 693 132ZM442 750Z" glyph-name="s" horiz-adv-x="930" unicode="s" /><glyph d="M714 750H689V457H714ZM693 132C693 54 634 7 468 7C249 7 145 76 145 271V303H118V269C118 63 231 -20 471 -20C663 -20 824 47 824 183C824 287 768 358 518 429C325 482 289 512 289 610C289 707 344 743 455 743C575 743 689 648 689 469V457H714C714 676 584 770 440 770C311 770 168 701 168 569C168 443 244 374 450 315C653 256 693 228 693 132ZM442 750ZM663 917C535 855 429 828 198 815V800C429 800 541 801 663 854ZM442 750Z" glyph-name="sacute" horiz-adv-x="930" unicode="&#347;" /><glyph d="M714 750H689V457H714ZM693 132C693 54 634 7 468 7C249 7 145 76 145 271V303H118V269C118 63 231 -20 471 -20C663 -20 824 47 824 183C824 287 768 358 518 429C325 482 289 512 289 610C289 707 344 743 455 743C575 743 689 648 689 469V457H714C714 676 584 770 440 770C311 770 168 701 168 569C168 443 244 374 450 315C653 256 693 228 693 132ZM442 750ZM442 780V838C370 893 314 907 207 917V902C314 885 365 853 442 780ZM442 780C519 853 570 885 677 902V917C570 907 514 893 442 838ZM442 750Z" glyph-name="scaron" horiz-adv-x="930" unicode="&#353;" /><glyph d="M714 750H689V457H714ZM693 132C693 54 634 7 468 7C249 7 145 76 145 271V303H118V269C118 63 231 -20 471 -20C663 -20 824 47 824 183C824 287 768 358 518 429C325 482 289 512 289 610C289 707 344 743 455 743C575 743 689 648 689 469V457H714C714 676 584 770 440 770C311 770 168 701 168 569C168 443 244 374 450 315C653 256 693 228 693 132ZM442 750ZM442 937C365 864 314 832 207 815V800C314 810 370 824 442 879ZM442 937V879C514 824 570 810 677 800V815C570 832 519 864 442 937ZM442 750Z" glyph-name="scircumflex" horiz-adv-x="930" unicode="&#349;" /><glyph d="M714 757H689V571H714ZM713 364C713 315 657 285 498 285C326 285 229 323 229 386L202 387C202 298 297 261 501 261C688 261 844 305 844 397C844 471 785 525 518 573C326 607 289 616 289 668C289 723 344 743 455 743C575 743 689 686 689 579V571H711C711 710 582 770 440 770C311 770 168 726 168 642C168 562 244 518 450 481C669 440 713 425 713 364ZM188 -7H213V179H188ZM229 386C229 435 285 465 444 465C616 465 713 428 713 364L740 366C740 454 645 489 441 489C254 489 98 445 98 353C98 279 157 225 424 177C616 143 653 134 653 82C653 27 591 7 467 7C337 7 213 64 213 171V179H191C191 40 330 -20 482 -20C620 -20 774 24 774 108C774 188 698 232 492 269C273 310 229 325 229 386ZM442 750Z" glyph-name="section" horiz-adv-x="930" unicode="&#167;" /><glyph d="M343 243 197 -48 172 -36 325 267ZM343 243H136V270H343ZM231 694C148 694 107 647 107 562C107 485 150 444 231 444C313 444 357 485 357 562C357 647 315 694 231 694ZM231 667C300 667 330 635 330 561C330 499 298 471 231 471C165 471 134 499 134 561C134 635 163 667 231 667Z" glyph-name="semicolon" horiz-adv-x="465" unicode=";" /><glyph d="M837 728 759 629C548.2209 361.4726 493 255.9451 493 77V7L365 5V77C365 258.9636 493 375 734 633ZM635 0H233V25H635ZM135 352V750H837V728L760 633H288C194 633 160 597 160 511V352Z" glyph-name="seven" horiz-adv-x="930" unicode="7" /><glyph d="M464 770C216 770 90 627 90 368C90 117 219 -20 464 -20C709 -20 840 117 840 368C840 627 714 770 464 770ZM464 741C622.5185 741 678 639 678 367C678 121.3722 620 9 464 9C241.2911 9 119 124 119 367C119 620 235.3256 741 464 741ZM464 750Z" glyph-name="shadowblackcircle" horiz-adv-x="930" /><glyph d="M489 7C313 7 274 108 274 242V257C274 405 370 444 490 444C641 444 675 405 675 229C675 56 634 7 489 7ZM116 382C116 58 305 -20 488 -20C707 -20 815 68 815 226C815 384 707 471 488 471C340 471 284 404 274 373V407C274 642 331 743 491 743C661 743 743 656 743 501H770C770 671 673 770 490 770C232 770 116 664 116 382Z" glyph-name="six" horiz-adv-x="930" unicode="6" /><glyph d="M131 0 366 750H335L100 0Z" glyph-name="slash" horiz-adv-x="465" unicode="/" /><glyph glyph-name="space" horiz-adv-x="465" unicode=" " /><glyph d="M323 538V247H607V538Z" glyph-name="squareblack" horiz-adv-x="930" unicode="&#9632;" /><glyph d="M465 238 244 81 330 337 108 501 381 495 465 760 549 495 822 501 600 337 686 81Z" glyph-name="starblack" horiz-adv-x="930" unicode="&#9733;" /><glyph d="M465 238 244 81 330 337 108 501 381 495 465 760 549 495 822 501 600 337 686 81ZM566 348 732 470 528 466 465 663 402 466 198 470 364 348 299 156 465 274 631 156Z" glyph-name="starwhite" horiz-adv-x="930" unicode="&#9734;" /><glyph d="M464 620C315 620 240 531 240 368C240 214 318 130 464 130C611 130 689 214 689 368C689 531 614 620 464 620ZM464 159C338 159 269 226 269 367C269 518 334 591 464 591C595 591 660 518 660 367C660 226 591 159 464 159ZM269 354V381H58V354ZM871 354V381H660V354ZM478 159H451V-39H478ZM478 774H451V593H478ZM316 200 297 219 168 89 187 70ZM762 645 743 664 614 535 633 516ZM632 219 613 200 743 70 762 89ZM187 664 168 645 296 517 315 536ZM464 750Z" glyph-name="sunrayswhite" horiz-adv-x="930" unicode="&#9788;" /><glyph d="M303 296V590H65V617H174L405 770H430V296C430 84 473 7 614 7C706 7 814 78 814 259H840C840 54 721 -20 588 -20C394 -20 303 88 303 296ZM380 617H840V590H380Z" glyph-name="t" horiz-adv-x="930" unicode="t" /><glyph glyph-name="thinspace" horiz-adv-x="233" unicode="&#8201;" /><glyph d="M794 727 225 349 213 370 745 728ZM660 239C660 422 631 475 530 475C436 475 385 461 280 386L270 403C349 468 444 500 533 501C682 503 800 410 800 255C800 77 676 -20 473 -20C213 -20 132 86 132 264H159C159 113 216 8 454 8C593 8 660 86 660 239ZM144 412V750H794V727L636 633H233C189 633 169 612 169 557V412Z" glyph-name="three" horiz-adv-x="930" unicode="3" /><glyph d="M365 896C299 896 272 861 272 800H295C295 838 332 852 356 852C423 852 500 800 565 800C631 800 658 835 658 896H635C635 858 598 844 574 844C521 844 434 896 365 896ZM468 750Z" glyph-name="tilde" horiz-adv-x="930" unicode="&#732;" /><glyph d="M45 0H885L465 800Z" glyph-name="triangleupblack" horiz-adv-x="930" unicode="&#9650;" /><glyph d="M45 0 465 800 885 0ZM465 737 93 29H837Z" glyph-name="triangleupwhite" horiz-adv-x="930" unicode="&#9651;" /><glyph d="M165 750V397H140V750ZM110 0C126 189 197 225 310 293C537 429 646 452 646 576C646 698 574 746 423 743C270 743 170 644 170 429V397H142V434C142 647 240 770 439 770C648 770 786 709 786 572C786 365 536 388 323 269C205 203 154 172 139 0ZM156 102 168 168C168 168 198 188 207 193C235 216 279 230 332 230C445 230 617 80 711 80C769 80 797 122 797 228V347H823V232C823 81 776 -20 658 -20C511 -20 286 166 218 166C190 166 173 149 156 102Z" glyph-name="two" horiz-adv-x="930" unicode="2" /><glyph d="M179 283V750H307V324C307 73 335 13 440 13C566 13 608 105 608 319L632 247C620 43 544 -20 424 -20C256 -20 179 48 179 283ZM445 725V750H631V725ZM247 750H545V725H247ZM75 725V750H210V725ZM618 136V165L608 185V750H736V119C736 49 750 18 780 18C812 18 820 45 820 121V195H845V119C845 12 825 -20 742 -20C660 -20 618 9 618 136ZM447 750Z" glyph-name="u" horiz-adv-x="930" unicode="u" /><glyph d="M179 283V750H307V324C307 73 335 13 440 13C566 13 608 105 608 319L632 247C620 43 544 -20 424 -20C256 -20 179 48 179 283ZM445 725V750H631V725ZM247 750H545V725H247ZM75 725V750H210V725ZM618 136V165L608 185V750H736V119C736 49 750 18 780 18C812 18 820 45 820 121V195H845V119C845 12 825 -20 742 -20C660 -20 618 9 618 136ZM447 750ZM680 917C552 855 446 828 215 815V800C446 800 558 801 680 854ZM459 750Z" glyph-name="uacute" horiz-adv-x="930" unicode="&#250;" /><glyph d="M179 283V750H307V324C307 73 335 13 440 13C566 13 608 105 608 319L632 247C620 43 544 -20 424 -20C256 -20 179 48 179 283ZM445 725V750H631V725ZM247 750H545V725H247ZM75 725V750H210V725ZM618 136V165L608 185V750H736V119C736 49 750 18 780 18C812 18 820 45 820 121V195H845V119C845 12 825 -20 742 -20C660 -20 618 9 618 136ZM447 750ZM644 903C644 831.0943 607 800 445 800C283 800 246 831.0943 246 903H273C273 862.3846 296 837 444 837C594 837 617 862.3846 617 903ZM447 750Z" glyph-name="ubreve" horiz-adv-x="930" unicode="&#365;" /><glyph d="M179 283V750H307V324C307 73 335 13 440 13C566 13 608 105 608 319L632 247C620 43 544 -20 424 -20C256 -20 179 48 179 283ZM445 725V750H631V725ZM247 750H545V725H247ZM75 725V750H210V725ZM618 136V165L608 185V750H736V119C736 49 750 18 780 18C812 18 820 45 820 121V195H845V119C845 12 825 -20 742 -20C660 -20 618 9 618 136ZM447 750ZM447 937C370 864 319 832 212 815V800C319 810 375 824 447 879ZM447 937V879C519 824 575 810 682 800V815C575 832 524 864 447 937ZM447 750Z" glyph-name="ucircumflex" horiz-adv-x="930" unicode="&#251;" /><glyph d="M179 283V750H307V324C307 73 335 13 440 13C566 13 608 105 608 319L632 247C620 43 544 -20 424 -20C256 -20 179 48 179 283ZM445 725V750H631V725ZM247 750H545V725H247ZM75 725V750H210V725ZM618 136V165L608 185V750H736V119C736 49 750 18 780 18C812 18 820 45 820 121V195H845V119C845 12 825 -20 742 -20C660 -20 618 9 618 136ZM447 750ZM308 800C362 800 387 811 387 833C387 856 362 870 308 870C254 870 229 856 229 833C229 811 254 800 308 800ZM580 800C634 800 659 811 659 833C659 856 634 870 580 870C526 870 501 856 501 833C501 811 526 800 580 800ZM447 750Z" glyph-name="udieresis" horiz-adv-x="930" unicode="&#252;" /><glyph d="M179 283V750H307V324C307 73 335 13 440 13C566 13 608 105 608 319L632 247C620 43 544 -20 424 -20C256 -20 179 48 179 283ZM445 725V750H631V725ZM247 750H545V725H247ZM75 725V750H210V725ZM618 136V165L608 185V750H736V119C736 49 750 18 780 18C812 18 820 45 820 121V195H845V119C845 12 825 -20 742 -20C660 -20 618 9 618 136ZM447 750ZM226 917V854C348 801 460 800 691 800V815C459.9853 828.0008 354.2283 855.41 226 917ZM447 750Z" glyph-name="ugrave" horiz-adv-x="930" unicode="&#249;" /><glyph d="M179 283V750H307V324C307 73 335 13 440 13C566 13 608 105 608 319L632 247C620 43 544 -20 424 -20C256 -20 179 48 179 283ZM445 725V750H631V725ZM247 750H545V725H247ZM75 725V750H210V725ZM618 136V165L608 185V750H736V119C736 49 750 18 780 18C812 18 820 45 820 121V195H845V119C845 12 825 -20 742 -20C660 -20 618 9 618 136ZM447 750ZM438 917C370 857 305 822 203 815V800C311 800 372 809 438 854ZM668 917C600 857 535 822 433 815V800C541 800 602 809 668 854ZM447 750Z" glyph-name="uhungarumlaut" horiz-adv-x="930" unicode="&#369;" /><glyph d="M179 283V750H307V324C307 73 335 13 440 13C566 13 608 105 608 319L632 247C620 43 544 -20 424 -20C256 -20 179 48 179 283ZM445 725V750H631V725ZM247 750H545V725H247ZM75 725V750H210V725ZM618 136V165L608 185V750H736V119C736 49 750 18 780 18C812 18 820 45 820 121V195H845V119C845 12 825 -20 742 -20C660 -20 618 9 618 136ZM447 750ZM660 825H234V857H660ZM447 750Z" glyph-name="umacron" horiz-adv-x="930" unicode="&#363;" /><glyph d="M845 -47H85V-20H845Z" glyph-name="underscore" horiz-adv-x="930" unicode="_" /><glyph d="M343 253 173 83 153 104 323 273ZM174 274 344 104 323 84 154 254ZM559 166 389 -4 369 17 539 186ZM390 187 560 17 539 -3 370 167ZM557 774 387 604 367 625 537 794ZM388 795 558 625 537 605 368 775ZM865 467 695 297 675 318 845 487ZM696 488 866 318 845 298 676 468ZM253 467 83 297 63 318 233 487ZM84 488 254 318 233 298 64 468ZM772 253 602 83 582 104 752 273ZM603 274 773 104 752 84 583 254ZM343 683 173 513 153 534 323 703ZM174 704 344 534 323 514 154 684ZM772 683 602 513 582 534 752 703ZM603 704 773 534 752 514 583 684Z" glyph-name="uni0488" horiz-adv-x="930" /><glyph d="M722 119C722 164 713 199 695 224C699 224 704 224 709 224C798 224 844 272 844 363C844 462 799 516 709 516C706 516 702 516 699 516C714 538 722 568 722 606C722 705 677 759 588 759C525 759 485 733 466 684C447 733 406 759 344 759C254 759 209 705 209 606C209 568 217 538 232 516C229 516 225 516 221 516C132 516 87 462 87 363C87 272 133 224 221 224C226 224 231 224 236 225C218 199 209 164 209 119C209 28 255 -20 344 -20C405 -20 446 3 466 48C485 3 526 -20 588 -20C676 -20 722 28 722 119ZM478 605C478 692 515 734 588 734C660 734 697 692 697 605C697 555 679 521 648 505C645 504 642 502 640 501C625 495 608 492 588 492C518 492 478 529 478 605ZM234 605C234 692 271 734 344 734C416 734 453 692 453 605C453 555 435 521 404 505C401 504 398 502 396 501C381 495 364 492 344 492C274 492 234 529 234 605ZM610 611C610 631 602 642 587 642C572 642 565 631 565 611C565 594 573 584 587 584C602 584 610 594 610 611ZM366 611C366 631 358 642 343 642C328 642 321 631 321 611C321 594 329 584 343 584C358 584 366 594 366 611ZM465 516C462 516 458 516 455 516C459 522 462 528 466 535C469 528 472 522 476 516C473 516 469 516 465 516ZM600 362C600 420 617 458 649 477C654 479 659 481 664 484C677 489 692 491 709 491C782 491 819 449 819 362C819 286 779 249 709 249C640 249 600 286 600 362ZM356 362C356 420 373 458 405 477C410 479 415 481 420 484C433 489 448 491 465 491C483 491 499 488 513 483C517 481 520 479 524 478C558 459 575 421 575 362C575 286 535 249 465 249C396 249 356 286 356 362ZM112 362C112 449 149 491 221 491C239 491 255 488 269 483C273 481 276 479 280 478C314 459 331 421 331 362C331 286 291 249 221 249C152 249 112 286 112 362ZM344 467C349 467 353 467 358 467C352 459 347 451 343 441C340 451 335 460 329 467C334 467 339 467 344 467ZM588 467C593 467 597 467 602 467C596 459 591 451 587 441C584 451 579 460 573 467C578 467 583 467 588 467ZM732 368C732 388 725 399 710 399C695 399 687 388 687 368C687 351 695 341 710 341C724 341 732 351 732 368ZM244 368C244 388 237 399 222 399C207 399 199 388 199 368C199 351 207 341 222 341C236 341 244 351 244 368ZM488 368C488 388 481 399 466 399C451 399 443 388 443 368C443 351 451 341 466 341C480 341 488 351 488 368ZM344 272C340 272 336 272 332 272C336 278 340 285 343 292C347 285 350 278 355 272C351 272 348 272 344 272ZM588 272C584 272 580 272 576 272C580 278 584 285 587 292C591 285 594 278 599 272C595 272 592 272 588 272ZM588 5C518 5 478 42 478 118C478 205 515 247 588 247C660 247 697 205 697 118C697 42 657 5 588 5ZM344 5C274 5 234 42 234 118C234 205 271 247 344 247C416 247 453 205 453 118C453 42 413 5 344 5ZM465 224C470 224 475 224 480 225C474 216 470 207 466 197C462 207 457 216 451 224C455 224 460 224 465 224ZM610 124C610 144 602 155 587 155C572 155 565 144 565 124C565 107 573 97 587 97C602 97 610 107 610 124ZM366 124C366 144 358 155 343 155C328 155 321 144 321 124C321 107 329 97 343 97C358 97 366 107 366 124ZM464 750Z" glyph-name="uni0489" horiz-adv-x="930" /><glyph d="M296 397C345 471 384 627 396 678L394 679C303 589 162 476 36 398V396C162 317 303 204 394 115H396C387 169 347 314 296 397Z" glyph-name="uni2190.alt3" horiz-adv-x="465" unicode="&#57548;" /><glyph d="M693 109 196 397 693 688 603 397ZM573 397 643 626 253 397Z" glyph-name="uni2190.alt4" horiz-adv-x="930" unicode="&#57550;" /><glyph d="M119 119H136C139.001 161.0136 176.3125 174 222 174C259.5319 174 302.999 161.0139 306 119H325C320.3716 183.7976 285 229 221 229C154 229 122.4724 186.1337 119 119ZM618 119H635C638.001 161.0136 675.3125 174 721 174C758.5319 174 801.999 161.0139 805 119H824C819.3716 183.7976 784 229 720 229C653 229 621.4724 186.1337 618 119ZM371 -18H388C391.001 24.0136 428.3125 37 474 37C511.5319 37 554.999 24.0139 558 -18H577C572.3716 46.7976 537 92 473 92C406 92 374.4724 49.1337 371 -18ZM49 324H66C69.001 366.0136 106.3125 379 152 379C189.5319 379 232.999 366.0139 236 324H255C250.3716 388.7976 215 434 151 434C84 434 52.4724 391.1337 49 324ZM687 322H704C707.001 364.0136 744.3125 377 790 377C827.5319 377 870.999 364.0139 874 322H893C888.3716 386.7976 853 432 789 432C722 432 690.4724 389.1337 687 322ZM121 517H138C141.001 559.0136 178.3125 572 224 572C261.5319 572 304.999 559.0139 308 517H327C322.3716 581.7976 287 627 223 627C156 627 124.4724 584.1337 121 517ZM618 519H635C638.001 561.0136 675.3125 574 721 574C758.5319 574 801.999 561.0139 805 519H824C819.3716 583.7976 784 629 720 629C653 629 621.4724 586.1337 618 519ZM371 658H388C391.001 700.0136 428.3125 713 474 713C511.5319 713 554.999 700.0139 558 658H577C572.3716 722.7976 537 768 473 768C406 768 374.4724 725.1337 371 658Z" glyph-name="uniA66E" horiz-adv-x="930" unicode="&#42606;" /><glyph d="M103 355H837V380H103ZM477 -19V765H451V-19ZM464 770C216 770 90 627 90 368C90 117 219 -20 464 -20C710 -20 839 117 839 368C839 627 713 770 464 770ZM464 9C242 9 119 124.3556 119 367C119 620 235.3256 741 464 741C693.6724 741 810 620 810 367C810 124.3556 688 9 464 9ZM464 750ZM464 750Z" glyph-name="uniA672" horiz-adv-x="930" unicode="&#42610;" /><glyph d="M449 584H482V676H584V703H482V793H449V703H347V676H449ZM83 549H302V576H83ZM628 549H848V576H628ZM83 368H302V395H83ZM628 368H848V395H628ZM83 188H302V215H83ZM628 188H848V215H628ZM312 -41H345V169H312ZM449 -41H482V169H449ZM586 -41H619V169H586Z" glyph-name="uniA69A" horiz-adv-x="930" unicode="&#42650;" /><glyph d="M179 283V750H307V324C307 73 335 13 440 13C566 13 608 105 608 319L632 247C620 43 544 -20 424 -20C256 -20 179 48 179 283ZM445 725V750H631V725ZM247 750H545V725H247ZM75 725V750H210V725ZM618 136V165L608 185V750H736V119C736 49 750 18 780 18C812 18 820 45 820 121V195H845V119C845 12 825 -20 742 -20C660 -20 618 9 618 136ZM447 750ZM270 853C270 869 293 879 441 879C591 879 614 869 614 853C614 837 591 827 441 827C293 827 270 837 270 853ZM641 853C641 890 604 906 442 906C280 906 243 890 243 853C243 816 280 800 442 800C604 800 641 816 641 853ZM444 750Z" glyph-name="uring" horiz-adv-x="930" unicode="&#367;" /><glyph d="M179 283V750H307V324C307 73 335 13 440 13C566 13 608 105 608 319L632 247C620 43 544 -20 424 -20C256 -20 179 48 179 283ZM445 725V750H631V725ZM247 750H545V725H247ZM75 725V750H210V725ZM618 136V165L608 185V750H736V119C736 49 750 18 780 18C812 18 820 45 820 121V195H845V119C845 12 825 -20 742 -20C660 -20 618 9 618 136ZM447 750ZM344 896C278 896 251 861 251 800H274C274 838 311 852 335 852C402 852 479 800 544 800C610 800 637 835 637 896H614C614 858 577 844 553 844C500 844 413 896 344 896ZM447 750Z" glyph-name="utilde" horiz-adv-x="930" unicode="&#361;" /><glyph d="M297 750H406V725H297ZM70 725V750H169V725ZM784 538C784 684 713 770 614 770C511 770 444 701 444 601C444 501 504 435 635 435C775 435 890 529 890 750H861C867 549 759 463 647 463C517 463 472 513 472 601C472 691 528 742 615 742C700 742 755 666 755 534C755 272 596 24 388 24C312 24 297 44 297 280V750H169V280C169 59 232 -20 353 -20C614 -20 784 261 784 538Z" glyph-name="v" horiz-adv-x="930" unicode="v" /><glyph d="M297 750H406V725H297ZM70 725V750H169V725ZM352 376H581V404H352ZM755 488C755 288 755 11 624 11C580 11 581 49 581 201V376H454V201C454 62 433 11 370 11C296 11 297 66 297 280V750H169V280C169 69 207 -20 354 -20C413 -20 449 1 466 61C482 4 529 -20 608 -20C791 -20 784 280 784 492C784 684 713 770 614 770C511 770 444 701 444 601C444 501 504 435 635 435C775 435 890 529 890 750H861C867 549 759 463 647 463C517 463 472 513 472 601C472 691 527 742 615 742C700 742 755 666 755 488Z" glyph-name="w" horiz-adv-x="930" unicode="w" /><glyph d="M289 770C174 770 97 710 97 513H124C124 676 181 737 249 737C329 737 404 623 404 412C404 151 338 8 236 8C135 8 106 119 104 251H77C77 124 108 -20 239 -20C341 -20 402 76 432 263C443 333 524 357 524 408C524 679 453 770 289 770ZM405 408C405 124 483 -20 654 -20C813 -20 844 124 844 251H817C815 127 786 22 683 22C577 22 525 160 525 412C525 627 588 743 672 743C740 743 797 681 797 513H824C824 710 747 770 667 770C590 770 527 692 505 573C491 495 405 476 405 408Z" glyph-name="x" horiz-adv-x="930" unicode="x" /><glyph d="M736 739V246C736 67 641 -20 436 -20C252 -20 150 37 150 169C150 323 292 343 413 409L430 389C307 327 177 306 177 169C177 55 268 7 434 7C625 7 709 75 709 246V739ZM850 750V725H536V750ZM134 750H301L717 210L677 81ZM626 725H70V750H626ZM505 750Z" glyph-name="y" horiz-adv-x="930" unicode="y" /><glyph d="M736 739V246C736 67 641 -20 436 -20C252 -20 150 37 150 169C150 323 292 343 413 409L430 389C307 327 177 306 177 169C177 55 268 7 434 7C625 7 709 75 709 246V739ZM850 750V725H536V750ZM134 750H301L717 210L677 81ZM626 725H70V750H626ZM505 750ZM738 917C610 855 504 828 273 815V800C504 800 616 801 738 854ZM517 750Z" glyph-name="yacute" horiz-adv-x="930" unicode="&#253;" /><glyph d="M736 739V246C736 67 641 -20 436 -20C252 -20 150 37 150 169C150 323 292 343 413 409L430 389C307 327 177 306 177 169C177 55 268 7 434 7C625 7 709 75 709 246V739ZM850 750V725H536V750ZM134 750H301L717 210L677 81ZM626 725H70V750H626ZM505 750ZM505 937C428 864 377 832 270 815V800C377 810 433 824 505 879ZM505 937V879C577 824 633 810 740 800V815C633 832 582 864 505 937ZM505 750Z" glyph-name="ycircumflex" horiz-adv-x="930" unicode="&#375;" /><glyph d="M736 739V246C736 67 641 -20 436 -20C252 -20 150 37 150 169C150 323 292 343 413 409L430 389C307 327 177 306 177 169C177 55 268 7 434 7C625 7 709 75 709 246V739ZM850 750V725H536V750ZM134 750H301L717 210L677 81ZM626 725H70V750H626ZM505 750ZM366 800C420 800 445 811 445 833C445 856 420 870 366 870C312 870 287 856 287 833C287 811 312 800 366 800ZM638 800C692 800 717 811 717 833C717 856 692 870 638 870C584 870 559 856 559 833C559 811 584 800 638 800ZM505 750Z" glyph-name="ydieresis" horiz-adv-x="930" unicode="&#255;" /><glyph d="M736 739V246C736 67 641 -20 436 -20C252 -20 150 37 150 169C150 323 292 343 413 409L430 389C307 327 177 306 177 169C177 55 268 7 434 7C625 7 709 75 709 246V739ZM850 750V725H536V750ZM134 750H301L717 210L677 81ZM626 725H70V750H626ZM505 750ZM284 917V854C406 801 518 800 749 800V815C517.9853 828.0008 412.2283 855.41 284 917ZM505 750Z" glyph-name="ygrave" horiz-adv-x="930" unicode="&#7923;" /><glyph d="M283 161 817 723H630L95 0H131L217 91C260 136 283 159 323 159C384 159 537 -20 648 -20C766 -20 813 81 813 232V347H787V228C787 131 759 92 702 92C637 92 518 227 434 227C379 227 331 206 296 178ZM135 341V750H817V723H337C194 723 161 690 161 556V341ZM464 750Z" glyph-name="z" horiz-adv-x="930" unicode="z" /><glyph d="M283 161 817 723H630L95 0H131L217 91C260 136 283 159 323 159C384 159 537 -20 648 -20C766 -20 813 81 813 232V347H787V228C787 131 759 92 702 92C637 92 518 227 434 227C379 227 331 206 296 178ZM135 341V750H817V723H337C194 723 161 690 161 556V341ZM464 750ZM685 917C557 855 451 828 220 815V800C451 800 563 801 685 854ZM464 750Z" glyph-name="zacute" horiz-adv-x="930" unicode="&#378;" /><glyph d="M283 161 817 723H630L95 0H131L217 91C260 136 283 159 323 159C384 159 537 -20 648 -20C766 -20 813 81 813 232V347H787V228C787 131 759 92 702 92C637 92 518 227 434 227C379 227 331 206 296 178ZM135 341V750H817V723H337C194 723 161 690 161 556V341ZM464 750ZM464 780V838C392 893 336 907 229 917V902C336 885 387 853 464 780ZM464 780C541 853 592 885 699 902V917C592 907 536 893 464 838ZM464 750Z" glyph-name="zcaron" horiz-adv-x="930" unicode="&#382;" /><glyph d="M283 161 817 723H630L95 0H131L217 91C260 136 283 159 323 159C384 159 537 -20 648 -20C766 -20 813 81 813 232V347H787V228C787 131 759 92 702 92C637 92 518 227 434 227C379 227 331 206 296 178ZM135 341V750H817V723H337C194 723 161 690 161 556V341ZM464 750ZM463 800C517 800 542 811 542 833C542 856 517 870 463 870C409 870 384 856 384 833C384 811 409 800 463 800ZM464 750Z" glyph-name="zdotaccent" horiz-adv-x="930" unicode="&#380;" /><glyph d="M464 770C216 770 90 627 90 368C90 117 219 -20 464 -20C709 -20 840 117 840 368C840 627 714 770 464 770ZM464 745C639 745 700 641.4521 700 367C700 108.5722 635 5 464 5C293 5 230 108.5722 230 367C230 641.4521 289 745 464 745ZM464 750Z" glyph-name="zero" horiz-adv-x="930" unicode="0" /></font>
</defs>
</svg>
