<?xml version="1.0" standalone="no"?>
<!DOCTYPE svg PUBLIC "-//W3C//DTD SVG 1.1//EN" "http://www.w3.org/Graphics/SVG/1.1/DTD/svg11.dtd" >
<svg xmlns="http://www.w3.org/2000/svg">
<metadata></metadata>
<defs>
<font id="lunchtype22light" horiz-adv-x="1093" >
<font-face units-per-em="2048" ascent="1536" descent="-512" />
<missing-glyph horiz-adv-x="569" />
<glyph horiz-adv-x="0" />
<glyph horiz-adv-x="682" />
<glyph unicode=" "  horiz-adv-x="569" />
<glyph unicode="&#x09;" horiz-adv-x="569" />
<glyph unicode="&#xa0;" horiz-adv-x="569" />
<glyph unicode="!" horiz-adv-x="468" d="M166 0v147h139v-147h-139zM168 1063v356h135v-356l-35 -629h-65z" />
<glyph unicode="&#x22;" horiz-adv-x="813" d="M182 1214v228h121v-228l-27 -290h-69zM510 1214v228h121v-228l-27 -290h-69z" />
<glyph unicode="#" horiz-adv-x="1320" d="M76 432v100h250l61 365h-260v109h283l79 436h101l-78 -436h410l77 436h105l-80 -436h229v-109h-247l-64 -365h234v-100h-250l-74 -434h-104l77 434h-417l-80 -434h-101l78 434h-229zM428 532h412l65 365h-411z" />
<glyph unicode="$" horiz-adv-x="1165" d="M63 424h123q2 -84 32 -146.5t78 -104.5t113.5 -65.5t139.5 -29.5v616l-88 23q-164 39 -254 124t-90 242q0 84 32.5 148.5t90 111t136.5 71t173 28.5v110h98v-110q223 -14 329.5 -121t106.5 -295h-116q-2 166 -89 240.5t-231 85.5v-564l78 -18q82 -18 151.5 -51t120 -81 t78 -112.5t27.5 -150.5q0 -96 -36 -168t-98.5 -121t-145.5 -74.5t-175 -29.5v-121h-98v121q-104 4 -191.5 30.5t-152 79.5t-101 135t-41.5 197zM238 1090q0 -117 75.5 -180.5t223.5 -96.5l12 -4v543q-145 -10 -228 -80.5t-83 -181.5zM647 78q57 6 116.5 26.5t108 56.5t79 87 t30.5 119q0 78 -25.5 129t-70.5 84.5t-105.5 54t-130.5 37.5h-2v-594z" />
<glyph unicode="%" horiz-adv-x="1755" d="M145 1073q0 66 13.5 130.5t45.5 114.5t84 82t130 32q76 0 127 -33t81.5 -85t44 -119t13.5 -134q0 -201 -68.5 -301.5t-197.5 -100.5q-133 0 -203 101.5t-70 312.5zM231 1059q0 -43 6.5 -94.5t25 -97.5t55 -76.5t100.5 -30.5q61 0 96 30.5t53.5 76.5t23.5 98.5t5 93.5 q0 43 -7 90t-26.5 87t-54.5 66.5t-90 26.5q-61 0 -97 -26.5t-56.5 -66.5t-27 -88t-6.5 -89zM403 -35q219 389 430 765t431 763l82 -41l-861 -1532zM1083 401q0 66 13.5 130.5t45.5 114.5t84 82t130 32q76 0 127 -33t81.5 -85t44 -118.5t13.5 -134.5q0 -201 -68.5 -301 t-197.5 -100q-133 0 -203 101t-70 312zM1169 387q0 -43 6.5 -94t25 -97t55 -77t100.5 -31q61 0 96 31t53.5 77t23.5 98t5 93q0 43 -7 90t-26.5 87t-54.5 66.5t-90 26.5q-61 0 -97 -26.5t-56.5 -66.5t-27 -88t-6.5 -89z" />
<glyph unicode="&#x26;" horiz-adv-x="1179" d="M84 408q0 72 21.5 126t61.5 97t94 77.5t120 67.5q-33 47 -57.5 85t-41 74t-24.5 72.5t-8 82.5q0 141 92 215.5t246 74.5q59 0 111.5 -16t90 -49t60 -82t22.5 -115t-20.5 -113t-63.5 -87.5t-108.5 -81.5t-155.5 -93l367 -469q57 94 72.5 177.5t15.5 173.5h80 q0 -115 -22.5 -221.5t-88.5 -192.5q29 -31 54.5 -58.5t53 -48t60.5 -28.5t78 2v-70q-10 -4 -29.5 -6t-27.5 -2q-35 0 -65 10t-57.5 29.5t-56 48.5t-61.5 64q-86 -78 -167 -115t-181 -37q-96 0 -180 24.5t-147.5 76t-100.5 128t-37 179.5zM188 389q0 -78 31 -135t81 -96 t114.5 -57.5t134.5 -18.5q78 0 149.5 34t141.5 99l-402 500q-55 -31 -101 -60.5t-79 -66.5t-51.5 -85t-18.5 -114zM338 1094q0 -47 7 -81t22.5 -66t41 -64.5t62.5 -77.5l18 8q45 23 98.5 52.5t99.5 66.5t77 80t31 92q0 98 -58.5 146t-163.5 48q-43 0 -85 -12t-75.5 -36.5 t-54 -63.5t-20.5 -92z" />
<glyph unicode="'" horiz-adv-x="569" d="M225 1214v228h121v-228l-27 -290h-69z" />
<glyph unicode="(" horiz-adv-x="550" d="M109 594q0 137 28.5 264t80.5 245t122 225.5t154 205.5l55 -43q-72 -96 -131.5 -199.5t-104.5 -214t-69.5 -231.5t-24.5 -254q0 -131 25.5 -253t69.5 -235.5t104.5 -218t130.5 -200.5l-55 -39q-174 199 -279.5 432t-105.5 516z" />
<glyph unicode=")" horiz-adv-x="550" d="M2 -315q70 96 130.5 200.5t104.5 218t69.5 235.5t25.5 253q0 133 -24.5 254t-69.5 231.5t-105.5 214t-130.5 199.5l55 43q82 -98 153 -205.5t123 -225.5t80.5 -245t28.5 -264q0 -283 -105.5 -516.5t-279.5 -431.5z" />
<glyph unicode="*" horiz-adv-x="854" d="M59 864l301 154l-294 158l47 77l284 -178l-16 338h96l-16 -338l282 180l50 -84l-299 -151l301 -158l-47 -78l-287 181l16 -338h-98l18 338l-291 -183z" />
<glyph unicode="+" horiz-adv-x="1085" d="M104 582v96h390v377h98v-377h391v-96h-391v-383h-98v383h-390z" />
<glyph unicode="," horiz-adv-x="557" d="M195 0v160h159v-160l-61 -217h-72l47 217h-73z" />
<glyph unicode="-" horiz-adv-x="845" d="M127 557v94h592v-94h-592z" />
<glyph unicode="." horiz-adv-x="565" d="M203 0v160h159v-160h-159z" />
<glyph unicode="/" horiz-adv-x="733" d="M-23 -360l680 1914h99l-678 -1914h-101z" />
<glyph unicode="0" horiz-adv-x="1196" d="M84 737q0 123 23.5 249t82 227.5t157.5 165t251 63.5t251 -63.5t157.5 -165t82 -227.5t23.5 -249q0 -397 -131 -577t-383 -180t-383 180t-131 577zM205 737q0 -61 5 -133t19.5 -143.5t41 -138t70.5 -118.5t106.5 -83t150.5 -31t150.5 31t106.5 83t70.5 118.5t41 138 t19.5 143.5t5 133q0 92 -16.5 196.5t-60.5 194t-120.5 147.5t-195.5 58q-121 0 -196.5 -58t-119.5 -147.5t-60.5 -194t-16.5 -196.5z" />
<glyph unicode="1" horiz-adv-x="882" d="M203 1055v86q57 0 115.5 14t104.5 45t74.5 80t28.5 119h107v-1399h-113v1055h-317z" />
<glyph unicode="2" horiz-adv-x="1105" d="M78 0v147q0 127 57.5 215.5t142 154t185 118.5t185.5 110.5t142.5 128t57.5 173.5q0 135 -80 199.5t-233 64.5q-152 0 -225.5 -72t-82.5 -213h-118q2 193 115.5 294t310.5 101q205 0 319.5 -97t114.5 -277q0 -127 -57.5 -210t-142.5 -143.5t-185.5 -112t-185.5 -113.5 t-142 -147t-57 -215h782v-106h-903z" />
<glyph unicode="3" horiz-adv-x="1126" d="M70 377h120q16 -143 119 -216t244 -73q172 0 266 74t94 221q0 154 -94 222.5t-287 68.5h-40v94h40q188 0 264 63.5t76 202.5q0 129 -74.5 201t-234.5 72q-147 0 -238.5 -71t-91.5 -214h-120q0 96 32.5 170t91 123t139.5 74.5t177 25.5q209 0 324.5 -99t115.5 -282 q0 -127 -46 -195.5t-122 -115.5q111 -53 160 -137t49 -203q0 -90 -33.5 -164t-96 -127t-151.5 -82.5t-200 -29.5q-104 0 -191.5 25.5t-152 75.5t-101 125t-38.5 171z" />
<glyph unicode="4" horiz-adv-x="1122" d="M66 264v92l655 1037h125v-1024h190v-105h-190v-264h-113v264h-667zM184 369h549v878z" />
<glyph unicode="5" horiz-adv-x="1097" d="M78 373h121q0 -68 27.5 -121t72.5 -90t105.5 -56.5t127.5 -19.5q166 0 255.5 95t89.5 282q0 193 -91.5 287t-244.5 94q-115 0 -182.5 -40t-114.5 -122h-123l35 711h770v-111h-666l-16 -487q41 59 114.5 106t202.5 47q205 0 320.5 -120.5t115.5 -366.5q0 -109 -32.5 -198 t-93 -152.5t-146.5 -97t-193 -33.5q-92 0 -175 24.5t-144 73.5t-98 122.5t-37 172.5z" />
<glyph unicode="6" horiz-adv-x="1136" d="M86 625q0 227 43 382.5t115.5 253t167 139.5t196.5 42q80 0 153 -21.5t130 -63.5t91 -104.5t36 -146.5h-117q0 117 -82 172t-207 55q-80 0 -153.5 -41t-129 -121.5t-89 -203.5t-33.5 -287q31 61 76 110.5t99 84t114.5 53t121.5 18.5q98 0 179.5 -33.5t140.5 -97t92 -153 t33 -201.5q0 -115 -38 -204t-102.5 -150.5t-152.5 -94t-188 -32.5q-113 0 -204 41.5t-155.5 123.5t-100.5 203t-36 277zM207 459q0 -76 32.5 -143.5t87 -119t121 -81t134.5 -29.5q86 0 153.5 29.5t113.5 81t69.5 119t23.5 143.5q0 68 -15.5 136.5t-55.5 122.5t-107.5 89 t-171.5 35q-80 0 -149.5 -31t-122 -84t-83 -122.5t-30.5 -145.5z" />
<glyph unicode="7" horiz-adv-x="1161" d="M109 1294v99h935v-115q-76 -82 -145 -170q-59 -76 -121.5 -167t-99.5 -183q-66 -160 -104.5 -296t-59.5 -241q-23 -121 -31 -221h-143q12 106 37 225q23 102 57.5 230.5t93.5 261.5q57 133 130 238.5t137 181.5q74 88 149 157h-835z" />
<glyph unicode="8" horiz-adv-x="1132" d="M80 391q0 123 64.5 214t189.5 143q-115 66 -163 138t-48 179q0 88 38 157.5t100.5 119t142 75t163.5 25.5q88 0 169 -25.5t141.5 -75t96.5 -119t36 -157.5q0 -106 -52.5 -180t-156.5 -137q131 -59 191.5 -146.5t60.5 -210.5q0 -104 -39 -182t-105.5 -128t-154.5 -75.5 t-187 -25.5q-104 0 -193 25.5t-154.5 75.5t-102.5 128t-37 182zM205 395q0 -86 28.5 -145.5t77.5 -95t116 -52t140 -16.5q80 0 146.5 17.5t115 54.5t75 95t26.5 142q0 145 -98.5 225t-264.5 80t-264 -80t-98 -225zM246 1065q0 -145 86 -207.5t235 -62.5q147 0 232.5 62.5 t85.5 207.5q0 131 -87 199.5t-231 68.5q-145 0 -233 -68.5t-88 -199.5z" />
<glyph unicode="9" horiz-adv-x="1097" d="M74 961q0 115 35.5 203.5t99 150t150.5 94.5t188 33q225 0 345 -166t120 -479q0 -227 -30 -384t-90.5 -253.5t-149.5 -138t-205 -41.5q-178 0 -295 89t-129 273h116q0 -59 23.5 -106.5t63.5 -80t94.5 -51t115.5 -18.5q90 0 159 35t115 110.5t68.5 197.5t22.5 296 q-51 -121 -153.5 -181.5t-231.5 -60.5q-203 0 -317.5 126t-114.5 352zM197 963q0 -68 15 -136.5t55 -123t107.5 -89t172.5 -34.5q80 0 143.5 30.5t107.5 84t68.5 122t24.5 146.5q0 74 -26.5 140t-73 117.5t-106.5 82t-128 30.5q-86 0 -153.5 -29.5t-113.5 -79.5t-69.5 -118 t-23.5 -143z" />
<glyph unicode=":" horiz-adv-x="565" d="M203 0v160h159v-160h-159zM203 745v158h159v-158h-159z" />
<glyph unicode=";" horiz-adv-x="557" d="M195 0v160h159v-160l-61 -217h-72l47 217h-73zM195 745v158h159v-158h-159z" />
<glyph unicode="&#x3c;" horiz-adv-x="1030" d="M98 578v102l834 360v-102l-723 -309l723 -312v-100z" />
<glyph unicode="=" horiz-adv-x="1138" d="M104 313v103h932v-103h-932zM104 768v102h932v-102h-932z" />
<glyph unicode="&#x3e;" horiz-adv-x="1030" d="M98 217v100l723 312l-723 309v102l834 -360v-102z" />
<glyph unicode="?" horiz-adv-x="1042" d="M115 1038v37q0 98 34.5 167t91 114t130 65.5t153.5 20.5q88 0 163 -24.5t129 -72t84 -114t30 -152.5q0 -80 -24.5 -137t-61.5 -102t-79 -83t-79 -77t-61.5 -85t-24.5 -108v-53h-121v90q0 63 24.5 109.5t61.5 84.5t80 71.5t80 73.5t61.5 91.5t24.5 124.5q0 133 -76 193.5 t-211 60.5q-141 0 -214.5 -69.5t-73.5 -225.5h-121zM463 0v160h160v-160h-160z" />
<glyph unicode="@" horiz-adv-x="1708" d="M100 625q0 170 61.5 315t168 251.5t247 167t300.5 60.5q182 0 319 -62.5t228.5 -167t137.5 -241.5t46 -286q0 -106 -23.5 -188.5t-63.5 -137.5t-94.5 -84t-117.5 -29q-31 0 -61.5 6.5t-58.5 22.5t-50.5 48t-32.5 85q-35 -76 -119 -130t-196 -54q-55 0 -108.5 13t-95.5 42 t-67.5 73t-25.5 105q0 59 24.5 103.5t65.5 73t94 44t108 17.5l308 12v86q0 49 -18.5 87t-49.5 65.5t-72 42t-86 14.5q-113 0 -173 -52.5t-77 -127.5h-88q16 143 106.5 198.5t235.5 55.5q88 0 148.5 -28t97.5 -74t52.5 -107.5t13.5 -128.5l-15 -240q0 -80 43 -128t105 -48 q92 0 150.5 88t58.5 275q0 147 -46 270t-131 212t-205 139t-267 50q-145 0 -270.5 -55t-216.5 -150.5t-142 -224.5t-51 -278q0 -172 52 -299t143 -212t215 -127t270 -42q41 0 86 6t88 18.5t80.5 28.5t66.5 37l43 -78q-86 -47 -173 -73.5t-196 -26.5q-172 0 -314 56 t-243.5 158.5t-158 243t-56.5 310.5zM588 434q0 -76 53 -119t152 -43q63 0 117.5 26t95.5 67t64.5 92t23.5 104v55l-303 -18q-55 -4 -94.5 -12t-63 -25.5t-34.5 -48.5t-11 -78z" />
<glyph unicode="A" horiz-adv-x="1218" d="M-10 0l557 1419h119l563 -1419h-123l-145 379h-715l-144 -379h-112zM283 477h643l-320 832z" />
<glyph unicode="B" horiz-adv-x="1243" d="M152 0v1419h469q248 0 371.5 -89t123.5 -290q0 -106 -57.5 -190t-147.5 -133q109 -53 178.5 -129t73.5 -201q-2 -201 -119.5 -294t-357.5 -93h-534zM264 96h447q164 0 247.5 70t83.5 223q0 139 -91 208t-240 69h-447v-570zM264 762h402q166 0 247.5 63.5t81.5 214.5 q0 141 -88 211t-241 70h-402v-559z" />
<glyph unicode="C" horiz-adv-x="1243" d="M82 713q0 141 24.5 273t89 233.5t173 163t278.5 61.5q246 0 376 -121t148 -336h-122q-16 158 -117 252t-270 94h-27q-131 0 -215 -51t-132 -137t-66.5 -197.5t-18.5 -234.5q0 -115 16.5 -227.5t63.5 -201.5t132 -143.5t220 -54.5h24q94 0 166 26.5t120 76t75 117 t33 149.5h121q-16 -231 -144.5 -353t-382.5 -122q-162 0 -270.5 60t-174 161.5t-93 233.5t-27.5 278z" />
<glyph unicode="D" horiz-adv-x="1261" d="M152 0v1419h421q313 0 460 -179t147 -531q0 -158 -29 -288t-98.5 -224.5t-183 -145.5t-283.5 -51h-434zM264 98h316q141 0 234 42t147.5 121t76 192.5t21.5 255.5q0 311 -118 461.5t-374 150.5h-303v-1223z" />
<glyph unicode="E" horiz-adv-x="1083" d="M152 0v1419h862v-98h-750v-563h707v-94h-707v-566h768v-98h-880z" />
<glyph unicode="F" horiz-adv-x="1011" d="M152 0v1419h831v-96h-717v-573h686v-93h-686v-657h-114z" />
<glyph unicode="G" horiz-adv-x="1308" d="M82 713q0 141 24.5 273t89 233.5t173 163t278.5 61.5q244 0 374 -120t150 -337h-122q-20 160 -116.5 253t-270.5 93h-27q-131 0 -215 -51t-132 -137t-66.5 -197.5t-18.5 -234.5q0 -115 14 -227.5t59.5 -201.5t128 -143.5t218.5 -54.5h26q121 0 202 41t130 111.5t69.5 164 t20.5 197.5h-422v107h535v-707h-117v231q-45 -119 -158.5 -185t-271.5 -66q-162 0 -269.5 60t-171 161.5t-89 233.5t-25.5 278z" />
<glyph unicode="H" horiz-adv-x="1308" d="M152 0v1419h112v-639h783v639h110v-1419h-110v682h-783v-682h-112z" />
<glyph unicode="I" horiz-adv-x="436" d="M162 0v1419h112v-1419h-112z" />
<glyph unicode="J" horiz-adv-x="962" d="M45 295h119q18 -102 73.5 -158.5t182.5 -56.5q90 0 145.5 24.5t85 79t38.5 138.5t9 202v895h113v-915q0 -102 -9 -196.5t-48 -167t-118 -116.5t-216 -44q-92 0 -158.5 25.5t-112 68.5t-71 100t-33.5 121z" />
<glyph unicode="K" horiz-adv-x="1204" d="M152 0v1419h112v-831l791 831h135l-547 -579l586 -840h-131l-529 762l-305 -318v-444h-112z" />
<glyph unicode="L" horiz-adv-x="980" d="M152 0v1419h112v-1321h676v-98h-788z" />
<glyph unicode="M" horiz-adv-x="1585" d="M147 0v1419h179l469 -1245l462 1245h181v-1419h-113v1280l-496 -1280h-71l-498 1280v-1280h-113z" />
<glyph unicode="N" horiz-adv-x="1359" d="M150 0v1419h167l781 -1290v1290h112v-1419h-157l-791 1294v-1294h-112z" />
<glyph unicode="O" horiz-adv-x="1282" d="M74 713q0 141 24.5 272t89 232.5t173 163t278.5 61.5t280.5 -61.5t175 -163t89 -232.5t24.5 -272q0 -145 -27.5 -277.5t-93 -234t-175 -161.5t-273.5 -60t-272.5 60t-173 161.5t-92 233.5t-27.5 278zM195 713q0 -115 16 -227.5t63.5 -201.5t131 -143.5t219.5 -54.5h26 q137 0 222 54.5t133.5 143.5t64.5 201.5t16 227.5q0 123 -18 234.5t-66.5 197.5t-132.5 137t-217 51h-28q-131 0 -214 -51t-131.5 -137t-66.5 -197.5t-18 -234.5z" />
<glyph unicode="P" horiz-adv-x="1179" d="M152 0v1419h464q109 0 201 -22.5t158.5 -71.5t103.5 -126t37 -183q0 -115 -36 -193t-100.5 -126t-153.5 -68.5t-193 -20.5h-369v-608h-112zM264 707h400q176 0 253.5 70.5t77.5 238.5q0 160 -89 232.5t-242 72.5h-400v-614z" />
<glyph unicode="Q" horiz-adv-x="1282" d="M74 713q0 141 25.5 273t89 233.5t173 163t279.5 61.5t280.5 -61.5t174 -163t88 -233.5t24.5 -273q0 -86 -10 -171t-32.5 -163t-58.5 -144.5t-87 -115.5l121 -162l-72 -55l-121 159q-66 -43 -142.5 -62t-164.5 -19q-164 0 -272.5 60t-174 161.5t-93 233.5t-27.5 278z M195 713q0 -115 16 -227.5t64.5 -201.5t132.5 -143.5t219 -54.5h26q59 0 116.5 12.5t115.5 48.5l-211 279l74 53l204 -274q43 49 69 109.5t41 127t20 136t5 135.5q0 123 -18 234.5t-65.5 197.5t-132.5 137t-216 51h-28q-131 0 -215 -51t-132.5 -137t-66.5 -197.5t-18 -234.5 z" />
<glyph unicode="R" horiz-adv-x="1218" d="M152 0v1419h460q111 0 202 -23.5t157.5 -72.5t102.5 -124t36 -177q0 -154 -83 -260.5t-269 -134.5l395 -627h-127l-397 621h-365v-621h-112zM264 719h398q331 0 331 301q-1 78 -25 134t-69 93t-105.5 55.5t-131.5 18.5h-398v-602z" />
<glyph unicode="S" horiz-adv-x="1191" d="M76 424h123q4 -92 37.5 -157.5t91 -108.5t131 -62.5t157.5 -19.5q61 0 128 17.5t122.5 54t91 91t35.5 128.5q0 78 -25.5 129t-70.5 84.5t-105.5 54t-129.5 37.5l-189 45q-164 39 -254 124t-90 242q0 88 36 155t98.5 113t147.5 69.5t185 23.5q256 0 378 -107.5t122 -310.5 h-117q0 90 -27.5 152.5t-77 101.5t-118 56.5t-150.5 17.5q-166 0 -261 -72t-95 -192q0 -117 75.5 -180.5t223.5 -96.5q47 -10 94 -21.5t94 -21.5q82 -18 151.5 -51t120 -81t78 -112.5t27.5 -150.5q0 -102 -40 -177t-108.5 -123t-158.5 -71.5t-191 -23.5q-115 0 -212 23.5 t-168.5 75.5t-113.5 137t-46 208z" />
<glyph unicode="T" horiz-adv-x="1056" d="M-6 1321v98h1069v-98h-477v-1321h-113v1321h-479z" />
<glyph unicode="U" horiz-adv-x="1347" d="M137 575v844h113v-817q0 -102 17.5 -196.5t63.5 -166t129 -114.5t216 -43q127 0 209 42t130 112.5t67.5 165t19.5 200.5v817h108v-844q0 -137 -29.5 -247.5t-93 -187.5t-165 -118.5t-242.5 -41.5q-162 0 -267.5 47t-167 128t-85 189.5t-23.5 230.5z" />
<glyph unicode="V" horiz-adv-x="1128" d="M-10 1419h121l458 -1280l455 1280h119l-520 -1419h-111z" />
<glyph unicode="W" horiz-adv-x="1916" d="M4 1419h135l359 -1298l387 1298h147l381 -1298l365 1298h129l-416 -1419h-160l-375 1284l-376 -1284h-160z" />
<glyph unicode="X" horiz-adv-x="1142" d="M-20 0l516 733l-488 686h156l409 -602l412 602h145l-491 -682l520 -737h-153l-443 643l-438 -643h-145z" />
<glyph unicode="Y" d="M-16 1419h127l434 -770l446 770h119l-514 -860v-559h-111v559z" />
<glyph unicode="Z" horiz-adv-x="1071" d="M14 0v100l891 1221h-850v98h977v-104l-895 -1217h903v-98h-1026z" />
<glyph unicode="[" horiz-adv-x="475" d="M160 -340v1878h303v-80h-197v-1720h197v-78h-303z" />
<glyph unicode="\" horiz-adv-x="733" d="M-23 1554h99l680 -1914h-101z" />
<glyph unicode="]" horiz-adv-x="475" d="M12 -262h197v1720h-197v80h303v-1878h-303v78z" />
<glyph unicode="^" horiz-adv-x="925" d="M94 973l320 563h96l321 -563h-118l-250 430l-250 -430h-119z" />
<glyph unicode="_" horiz-adv-x="1046" d="M4 -201h1038v-75h-1038v75z" />
<glyph unicode="`" horiz-adv-x="344" d="M-59 1434l90 71l241 -336l-61 -49z" />
<glyph unicode="a" horiz-adv-x="1048" d="M82 264q0 145 95 213t267 74l371 12v123q0 141 -73.5 199.5t-206.5 58.5q-129 0 -195 -46t-94 -138h-113q6 53 35 101t78 85t120.5 58.5t168.5 21.5q111 0 184.5 -28.5t117.5 -82t63.5 -128t19.5 -166.5v-510q0 -23 2 -45q4 -41 10 -66h-101q-4 14 -6 33q-6 31 -6 78v67 q-63 -109 -159.5 -153.5t-206.5 -44.5q-68 0 -134.5 15t-119 49t-85 88t-32.5 132zM195 264q0 -92 75.5 -147.5t194.5 -55.5q80 0 144.5 28t110.5 75t71.5 109.5t25.5 129.5v76l-354 -14q-131 -4 -199.5 -48t-68.5 -153z" />
<glyph unicode="b" horiz-adv-x="1134" d="M127 0v1419h104v-569q37 49 80 83t89 54.5t91.5 29.5t86.5 9q123 0 212 -39t147 -107.5t87 -165t29 -212.5q0 -250 -122 -386t-345 -136q-41 0 -89 8t-97.5 29.5t-94.5 57.5t-80 91v-166h-98zM231 446q0 -74 20.5 -143.5t62.5 -123.5t107.5 -86t156.5 -32q96 0 164.5 36 t112.5 95.5t64.5 139.5t20.5 168q0 90 -20.5 171t-64.5 141t-112.5 96t-164.5 36q-86 0 -152 -30.5t-109 -84t-64.5 -128t-21.5 -160.5v-95z" />
<glyph unicode="c" horiz-adv-x="1079" d="M74 502q0 117 27.5 213t86 164.5t149.5 107.5t216 39q180 0 299 -92t145 -256h-120q-35 145 -124 205.5t-208 60.5q-96 0 -164 -36t-111 -96t-63.5 -141t-20.5 -171q0 -88 20.5 -168t63.5 -139.5t111 -95.5t164 -36q80 0 139 24t101 66t67 97t33 119h121 q-33 -195 -147 -291t-306 -96q-242 0 -360.5 136t-118.5 386z" />
<glyph unicode="d" horiz-adv-x="1134" d="M82 502q0 117 27.5 213t86 164.5t148.5 107.5t213 39q39 0 85 -9t92 -29.5t89 -54.5t80 -83v569h105v-1419h-99v166q-35 -55 -80 -91t-94 -57.5t-98 -29.5t-88 -8q-223 0 -345 136t-122 386zM195 500q0 -88 20.5 -168t64.5 -139.5t112.5 -95.5t164.5 -36q90 0 155.5 32 t107.5 86t62.5 124t20.5 143v95q0 86 -21.5 160.5t-64.5 128t-108.5 84t-151.5 30.5q-96 0 -164.5 -36t-112.5 -96t-64.5 -141t-20.5 -171z" />
<glyph unicode="e" horiz-adv-x="1087" d="M74 500q0 135 33.5 233t96 164t149.5 97.5t194 31.5q233 0 350 -135t117 -385v-17h-832q4 -92 25.5 -170.5t65.5 -135t113 -89.5t165 -33q61 0 118.5 18.5t102.5 56.5t76 95.5t39 135.5h121q-14 -86 -47 -158t-88.5 -123t-135.5 -78.5t-186 -27.5q-129 0 -220 38.5 t-147.5 108.5t-83 165t-26.5 208zM182 567h715q-6 80 -27.5 148.5t-64.5 119t-106.5 80t-151.5 29.5q-82 0 -147.5 -29.5t-111.5 -80t-74 -119t-32 -148.5z" />
<glyph unicode="f" horiz-adv-x="643" d="M31 924v82h176v194q0 115 61.5 184.5t177.5 69.5q33 0 73 -4t73 -8v-92q-29 4 -58.5 6t-52.5 4h-15q-47 0 -76 -10q-34 -13 -51 -38.5t-22.5 -61.5t-5.5 -79v-165h281v-82h-281v-924h-104v924h-176z" />
<glyph unicode="g" horiz-adv-x="1126" d="M74 504q0 250 121.5 386t345.5 136q39 0 88 -8t98 -29.5t94 -57.5t80 -91v166h98v-1026q0 -100 -32.5 -177t-90 -128.5t-137.5 -78t-172 -26.5q-215 0 -326.5 71.5t-134.5 247.5h117q8 -111 91 -173t229 -62q74 0 137 20.5t111.5 60.5t76 100.5t27.5 139.5v181 q-37 -49 -80 -83t-89 -54.5t-92 -29.5t-85 -9q-123 0 -213 38.5t-148.5 107.5t-86 165t-27.5 213zM186 506q0 -90 20.5 -171t64.5 -141.5t113 -96.5t165 -36q86 0 151.5 31t108.5 84t64.5 128t21.5 161v94q0 74 -20.5 143.5t-62.5 124t-107.5 86t-155.5 31.5q-96 0 -165 -36 t-113 -95t-64.5 -139t-20.5 -168z" />
<glyph unicode="h" horiz-adv-x="1124" d="M125 0v1419h104v-569q72 94 164 136t203 42q195 0 299 -101.5t104 -269.5v-657h-106v649q0 141 -76 218t-235 77q-63 0 -126 -26.5t-113 -71.5t-82 -102.5t-32 -120.5v-623h-104z" />
<glyph unicode="i" horiz-adv-x="376" d="M129 1290v129h119v-129h-119zM137 0v1006h105v-1006h-105z" />
<glyph unicode="j" horiz-adv-x="309" d="M-57 -268v-109h34q92 0 148.5 50.5t56.5 154.5v1178h-104v-1160q0 -55 -23.5 -84.5t-89.5 -29.5h-22zM70 1290v129h118v-129h-118z" />
<glyph unicode="k" horiz-adv-x="972" d="M127 0v1419h104v-1009l572 596h143l-420 -431l437 -575h-129l-381 489l-222 -225v-264h-104z" />
<glyph unicode="l" horiz-adv-x="362" d="M129 0v1419h104v-1419h-104z" />
<glyph unicode="m" horiz-adv-x="1734" d="M127 0v1006h104v-156q72 94 153 136t191 42q139 0 212 -48t106 -138q66 113 155 149.5t212 36.5q96 0 162.5 -26.5t107.5 -74.5t59.5 -117t18.5 -153v-657h-107v649q0 70 -13 125t-46 93t-85 57.5t-132 19.5q-59 0 -113.5 -22.5t-96.5 -61.5t-66.5 -91t-24.5 -112v-657 h-107v649q0 70 -13 125t-46 93t-85 57.5t-132 19.5q-63 0 -119.5 -26.5t-98.5 -71.5t-67 -102.5t-25 -120.5v-623h-104z" />
<glyph unicode="n" horiz-adv-x="1124" d="M125 0v1006h104v-156q72 94 164 136t203 42q195 0 299 -101.5t104 -269.5v-657h-106v649q0 141 -76 218t-235 77q-63 0 -126 -26.5t-113 -71.5t-82 -102.5t-32 -120.5v-623h-104z" />
<glyph unicode="o" d="M74 502q0 117 27.5 213t86 164.5t147.5 107.5t212 39t212 -39t147.5 -107.5t86 -165t27.5 -212.5q0 -246 -118.5 -384t-354.5 -138t-354.5 138t-118.5 384zM186 500q0 -88 20.5 -168t63.5 -139.5t112 -95.5t165 -36t164.5 36t111.5 95.5t63.5 139.5t20.5 168 q0 90 -20.5 171t-63.5 141t-111.5 96t-164.5 36t-165 -36t-112 -96t-63.5 -141t-20.5 -171z" />
<glyph unicode="p" horiz-adv-x="1134" d="M127 -416v1422h98v-166q35 55 80 91t94.5 57.5t97.5 29.5t89 8q223 0 345 -136t122 -386q0 -117 -29 -213t-87 -165t-147.5 -107.5t-211.5 -38.5q-41 0 -86.5 9t-91.5 29.5t-89 54t-80 83.5v-572h-104zM231 465q0 -86 21.5 -161t64.5 -128t109 -84t152 -31q96 0 164.5 36 t112.5 96.5t64.5 141.5t20.5 171q0 88 -20.5 168t-64.5 139t-112.5 95t-164.5 36q-90 0 -156 -31.5t-108 -86t-62.5 -124t-20.5 -143.5v-94z" />
<glyph unicode="q" horiz-adv-x="1134" d="M82 504q0 250 122 386t345 136q39 0 88 -8t98 -29.5t94 -57.5t80 -91v166h99v-1422h-105v572q-37 -49 -80 -83t-89 -54.5t-92 -29.5t-85 -9q-123 0 -213 38.5t-148.5 107.5t-86 165t-27.5 213zM195 506q0 -90 20.5 -171t64.5 -141.5t112.5 -96.5t164.5 -36q86 0 151.5 31 t108.5 84t64.5 128t21.5 161v94q0 74 -20.5 143.5t-62.5 124t-107.5 86t-155.5 31.5q-96 0 -164.5 -36t-112.5 -95t-64.5 -139t-20.5 -168z" />
<glyph unicode="r" horiz-adv-x="733" d="M135 0v1006h105v-156q57 78 148 128t200 50q37 0 61.5 -4t42.5 -8v-94q-20 4 -50.5 9t-57.5 5q-68 0 -130.5 -24.5t-109.5 -67.5t-75.5 -100.5t-28.5 -125.5v-618h-105z" />
<glyph unicode="s" horiz-adv-x="935" d="M72 283h110q6 -98 75 -160t212 -62q45 0 96 8.5t94 32t72 63.5t29 103q0 49 -26.5 83t-71 55.5t-100.5 35t-116 23.5q-61 10 -123.5 26.5t-113.5 47t-83 78t-32 120.5q0 74 30 128.5t79 90t113.5 53t134.5 17.5q76 0 143.5 -16.5t119.5 -52t83.5 -91t36.5 -135.5h-113 q-6 98 -74.5 155.5t-197.5 57.5q-49 0 -92.5 -11t-77 -33.5t-53 -57.5t-19.5 -82q0 -57 23.5 -93t63.5 -58.5t94 -35t114 -22.5q61 -10 125.5 -24.5t117 -45t86 -82t33.5 -135.5q0 -80 -35.5 -135t-93 -89t-127 -48.5t-137.5 -14.5q-82 0 -154.5 20.5t-127 58.5t-86 95.5 t-31.5 131.5z" />
<glyph unicode="t" horiz-adv-x="600" d="M31 924v82h157v294h107v-294h248v-82h-248v-666q0 -47 4 -81t19.5 -55.5t44 -31.5t77.5 -10q23 0 52.5 4t48.5 8v-92q-39 -8 -73 -10t-75 -2t-79 10t-65.5 35.5t-44 66.5t-16.5 103v721h-157z" />
<glyph unicode="u" horiz-adv-x="1124" d="M125 348v658h106v-650q0 -141 86 -218t246 -77q63 0 122.5 27t106 71t75 102t28.5 122v623h104v-1006h-104v156q-72 -94 -164 -136.5t-203 -42.5q-195 0 -299 101.5t-104 269.5z" />
<glyph unicode="v" horiz-adv-x="974" d="M20 1006h111l354 -904l359 904h110l-409 -1006h-123z" />
<glyph unicode="w" horiz-adv-x="1511" d="M25 1006h110l275 -883l295 883h102l295 -883l274 883h111l-340 -1006h-86l-305 897l-305 -897h-86z" />
<glyph unicode="x" horiz-adv-x="946" d="M14 0l394 522l-367 484h123l309 -416l309 416h123l-366 -484l393 -522h-123l-336 453l-336 -453h-123z" />
<glyph unicode="y" horiz-adv-x="974" d="M20 1008h111l354 -904l359 904h110l-485 -1194q-37 -90 -90 -146.5t-148 -56.5q-49 0 -79 10q-16 4 -29 10v78q12 -2 22 -4t21.5 -4t21.5 -2q9 -1 18 -1q40 0 70 14q37 18 61.5 49.5t41 71.5t31.5 81l20 59z" />
<glyph unicode="z" horiz-adv-x="933" d="M53 0v88l703 827h-668v91h789v-91l-705 -825h709v-90h-828z" />
<glyph unicode="{" horiz-adv-x="808" d="M174 557v86h55q59 0 95 13.5t54.5 40t25 65.5t6.5 90v446q0 127 56 183.5t179 56.5h78v-80h-43q-106 0 -144 -48t-38 -142v-475q0 -29 -3 -61t-17.5 -60.5t-43 -49t-78.5 -28.5q51 -16 79 -37.5t42.5 -48.5t17.5 -54.5t3 -56.5v-467q0 -96 37.5 -144t144.5 -48h43v-78 h-78q-123 0 -179 56.5t-56 183.5v448q0 51 -6.5 90t-25 65.5t-54 40t-95.5 13.5h-55z" />
<glyph unicode="|" horiz-adv-x="438" d="M178 -340v1878h84v-1878h-84z" />
<glyph unicode="}" horiz-adv-x="808" d="M86 -262h43q106 0 144 48t38 144v467q0 29 3 56.5t16.5 54.5t42 48.5t80.5 37.5q-49 8 -78 28.5t-43.5 49t-17.5 60.5t-3 61v475q0 94 -37.5 142t-144.5 48h-43v80h78q123 0 179 -56.5t56 -183.5v-446q0 -51 6.5 -90t25 -65.5t54 -40t95.5 -13.5h55v-86h-55 q-59 0 -95 -13.5t-54.5 -40t-25 -65.5t-6.5 -90v-448q0 -127 -56 -183.5t-179 -56.5h-78v78z" />
<glyph unicode="~" horiz-adv-x="1341" d="M145 606q66 53 138.5 89t154.5 36q63 0 121.5 -19.5t115 -42t113 -42t117.5 -19.5q72 0 126 28t95 62l70 -67q-63 -57 -131 -92t-160 -35q-63 0 -121.5 19.5t-115 43t-113.5 43t-119 19.5q-72 0 -124 -27t-99 -65z" />
<glyph unicode="&#xa1;" horiz-adv-x="468" d="M166 858v148h139v-148h-139zM168 -57l35 628h65l35 -628v-357h-135v357z" />
<glyph unicode="&#xa2;" horiz-adv-x="1142" d="M115 694q0 111 25.5 204t78.5 161.5t136 109.5t198 48v227h76v-227q166 -10 275.5 -100.5t133.5 -246.5h-120q-33 133 -109 193.5t-180 71.5v-879q137 12 208.5 98t88.5 205h121q-31 -186 -136.5 -281.5t-281.5 -105.5v-192h-76v192q-223 12 -330.5 147.5t-107.5 374.5z M227 692q0 -84 18.5 -160.5t57.5 -136t101.5 -97.5t148.5 -44v881q-86 -6 -148.5 -44t-101.5 -97.5t-57.5 -137.5t-18.5 -164z" />
<glyph unicode="&#xa3;" horiz-adv-x="1105" d="M92 0v98h162v598h-125v80h125v254q0 90 28.5 166t81 130t125 85t160.5 31q82 0 155 -25.5t125 -71t82.5 -105.5t30.5 -128h-112q0 45 -19.5 85t-56.5 70.5t-89 48t-116 17.5q-131 0 -206.5 -74.5t-75.5 -222.5v-260h335v-80h-335v-598h356q66 0 108.5 14.5t69.5 40 t41 61.5t21 77l110 -21q-18 -133 -99 -201.5t-208 -68.5h-674z" />
<glyph unicode="&#xa4;" horiz-adv-x="1103" d="M63 1090l70 69l154 -155q119 94 268 94q70 0 140.5 -22.5t121.5 -69.5l154 155l69 -69l-155 -154q47 -61 68.5 -133t21.5 -141q0 -68 -21.5 -138.5t-68.5 -134.5l155 -153l-69 -70l-154 156q-123 -90 -262 -91q-76 0 -141.5 21.5t-126.5 71.5l-152 -156l-69 70l157 155 q-47 61 -67.5 130t-20.5 139t19.5 137t66.5 133zM238 664q0 -70 23.5 -132.5t65.5 -108.5t100 -72.5t128 -26.5t127 26.5t99 72.5t65.5 108.5t23.5 132.5q0 72 -23.5 134t-65.5 109t-99 74t-127 27t-128 -27t-100 -74t-65.5 -109t-23.5 -134z" />
<glyph unicode="&#xa5;" horiz-adv-x="1165" d="M16 1419h127l416 -737h37l428 737h119l-434 -727h307v-94h-365l-22 -39v-184h387v-94h-387v-281h-111v281h-379v94h379v184l-22 39h-357v94h301z" />
<glyph unicode="&#xa6;" horiz-adv-x="438" d="M178 -340v825h84v-825h-84zM178 713v825h84v-825h-84z" />
<glyph unicode="&#xa7;" horiz-adv-x="985" d="M102 780q0 72 52.5 137.5t117.5 112.5q-55 55 -83.5 108.5t-28.5 116.5q0 68 28.5 116t74.5 78t106.5 43t126.5 13q164 0 247.5 -79.5t83.5 -217.5h-84q0 51 -22.5 91t-58 69t-79.5 44t-87 15q-113 0 -175.5 -43t-62.5 -129q0 -70 47 -117.5t117 -86.5t151.5 -74 t151.5 -80t117 -106.5t47 -149.5q0 -78 -45 -137.5t-117 -108.5q59 -53 85 -107.5t26 -115.5q0 -68 -31 -117t-80 -82.5t-109.5 -50t-121.5 -16.5q-74 0 -144.5 17.5t-126 57t-88.5 101t-33 151.5h97q0 -106 77.5 -176.5t217.5 -70.5q43 0 86 10t77.5 32.5t56 58.5t21.5 85 q0 72 -47 122t-117.5 90t-152.5 75t-152.5 79t-118 101t-47.5 141zM207 797q0 -68 54 -122t128 -98.5t148.5 -79t117.5 -63.5q61 47 103.5 95.5t42.5 111.5q0 51 -30 90t-87 78t-140.5 81t-187.5 97q-72 -41 -110.5 -84t-38.5 -106z" />
<glyph unicode="&#xa8;" horiz-adv-x="339" d="M-57 1108v123h100v-123h-100zM295 1108v123h102v-123h-102z" />
<glyph unicode="&#xa9;" horiz-adv-x="1523" d="M61 709q0 162 52.5 296t145.5 231t223 150.5t284 53.5q166 0 295 -55.5t218 -153.5t136 -232t47 -290q-4 -160 -53 -295t-138 -232.5t-217 -152t-288 -54.5t-290 58.5t-222 158t-142.5 232.5t-50.5 285zM160 709q0 -137 45 -256t125 -206t191.5 -136.5t244.5 -49.5 q139 0 249.5 54.5t188.5 143.5t120 206t42 244q0 135 -43 252.5t-122 204.5t-189.5 138.5t-245.5 51.5q-141 -6 -253 -58.5t-190.5 -139.5t-120.5 -202.5t-42 -246.5zM408 711q0 86 21.5 157.5t66.5 123.5t112.5 82t159.5 30q150 0 241 -67.5t109 -190.5h-94 q-10 78 -72.5 131t-183.5 53q-72 0 -122 -25.5t-80.5 -70.5t-45 -103.5t-14.5 -121.5t14.5 -120t46 -98.5t81.5 -66.5t122 -25q127 0 189.5 57.5t70.5 153.5h96q-10 -61 -32.5 -115.5t-64.5 -94.5t-105.5 -63.5t-153.5 -23.5q-176 0 -269 104.5t-93 293.5z" />
<glyph unicode="&#xaa;" horiz-adv-x="464" d="M-6 915q0 49 18.5 80t48 50.5t66.5 27.5t74 10h157q0 84 -24.5 120t-95.5 36q-61 0 -82 -22.5t-31 -67.5h-107q2 33 16.5 63.5t43 55t70.5 40t98 15.5q61 0 102 -16.5t65.5 -46t34 -71.5t9.5 -93v-265q0 -20 1 -33.5t3 -23.5t4 -18h-90q-2 2 -4 10t-2 41v20 q-29 -37 -67 -57t-99 -20q-92 0 -150.5 39.5t-58.5 125.5zM94 926q0 -35 22.5 -59.5t86.5 -24.5q92 0 127 30.5t35 108.5v37h-123q-27 0 -53.5 -4t-47 -14.5t-34 -28t-13.5 -45.5z" />
<glyph unicode="&#xab;" horiz-adv-x="1216" d="M127 502l328 463h123l-328 -463l325 -457h-122zM614 502l328 463h123l-328 -463l326 -457h-123z" />
<glyph unicode="&#xac;" horiz-adv-x="1034" d="M104 618v95h828v-512h-103v417h-725z" />
<glyph unicode="&#xad;" horiz-adv-x="845" d="M127 557v94h592v-94h-592z" />
<glyph unicode="&#xae;" horiz-adv-x="1159" d="M143 1075q0 96 28 181t83 147.5t136 99.5t188 37q109 0 190.5 -37t137 -99.5t83 -147.5t27.5 -181q0 -98 -27.5 -182t-83 -146.5t-137.5 -98.5t-190 -36q-106 0 -187.5 36t-136.5 98.5t-83 146.5t-28 182zM205 1075q0 -84 23.5 -157.5t69.5 -129t116.5 -87t163.5 -31.5 q94 0 164.5 31.5t117.5 87t70.5 129t23.5 157.5q0 82 -23.5 156t-70.5 129t-117.5 87t-164.5 32q-92 0 -163 -32t-117 -87t-69.5 -129t-23.5 -156zM387 811v530h178q82 0 138.5 -36.5t56.5 -126.5q0 -59 -32 -99.5t-93 -50.5l139 -217h-80l-131 207h-108v-207h-68zM455 1079 h129q59 0 84.5 28t25.5 81q0 41 -25.5 65.5t-84.5 24.5h-129v-199z" />
<glyph unicode="&#xb0;" horiz-adv-x="823" d="M119 1096q0 68 22.5 123t62.5 96t93 63.5t115 22.5q61 0 115.5 -23.5t93 -64.5t61.5 -96.5t23 -120.5q0 -66 -23 -121t-61.5 -95t-93 -63.5t-115.5 -23.5t-114.5 23.5t-93.5 63.5t-62.5 95t-22.5 121zM213 1096q0 -88 58.5 -145.5t140.5 -57.5t139 57.5t57 145.5 q0 90 -57 147t-139 57t-140.5 -56t-58.5 -148z" />
<glyph unicode="&#xb1;" horiz-adv-x="1095" d="M104 637v94h398v361h96v-361h395v-94h-395v-356h-96v356h-398zM131 0v94h842v-94h-842z" />
<glyph unicode="&#xb2;" horiz-adv-x="598" d="M35 715v63q0 82 32.5 137.5t83 96.5t107.5 72.5t107.5 65.5t83 75t32.5 98q0 80 -50 123t-128 43q-47 0 -81 -16.5t-55.5 -42t-30.5 -57.5t-9 -64h-82q-2 104 66.5 171.5t191.5 67.5q117 0 184.5 -59t67.5 -156q0 -76 -33 -127t-81 -91t-105 -71.5t-105.5 -67.5t-81 -81 t-32.5 -109h450v-71h-532z" />
<glyph unicode="&#xb3;" horiz-adv-x="595" d="M18 950h74q0 -41 17.5 -73.5t47 -55t68.5 -34t80 -11.5q86 0 140.5 43t54.5 115q0 98 -61.5 135t-180.5 37v70q121 0 170 37.5t49 115.5q0 66 -39 111t-127 45q-90 0 -134 -45t-48 -125h-86q0 61 20.5 106t56.5 75t84 44t101 14q117 0 184.5 -57t67.5 -168 q0 -82 -35 -122t-100 -62q90 -29 124 -76t34 -125q0 -47 -18.5 -90t-53.5 -77t-86 -53t-117 -19q-61 0 -113.5 16t-90.5 48t-60.5 77t-22.5 104z" />
<glyph unicode="&#xb4;" horiz-adv-x="399" d="M72 1587l317 283l70 -88l-338 -254z" />
<glyph unicode="&#xb5;" horiz-adv-x="1124" d="M125 -416v1422h106v-650q0 -141 86 -218t246 -77q63 0 122.5 27t106 71t75 102t28.5 122v623h104v-1006h-104v156q-72 -94 -164 -136.5t-203 -42.5q-98 0 -172.5 27t-126.5 76v-496h-104z" />
<glyph unicode="&#xb6;" horiz-adv-x="1292" d="M139 1034q0 78 23.5 148.5t66.5 123t105.5 83t142.5 30.5h645v-129h-157v-1560h-131v1554h-228v-1554h-129v929q-82 2 -145.5 33t-106.5 82t-64.5 117.5t-21.5 142.5z" />
<glyph unicode="&#xb8;" horiz-adv-x="296" d="M-8 -233l57 36q16 -27 41 -42t49 -15q49 0 71.5 28.5t22.5 69.5q0 43 -26.5 68t-67.5 25q-29 0 -46 -8.5t-30 -18.5l-59 43l66 149h96l-51 -112q8 4 21.5 7t39.5 3q63 0 103 -45t40 -111q0 -86 -47 -127t-133 -41q-59 0 -95 28t-52 63z" />
<glyph unicode="&#xb9;" horiz-adv-x="577" d="M76 1352v45q70 0 118 33.5t48 103.5h65v-819h-74v637h-157z" />
<glyph unicode="&#xba;" horiz-adv-x="530" d="M10 1137q0 127 61.5 204.5t192.5 77.5q129 0 192.5 -77.5t63.5 -204.5q0 -141 -65.5 -214t-188.5 -73q-125 0 -190.5 72.5t-65.5 214.5zM86 1137q0 -43 10 -83t32 -69t56.5 -46t81.5 -17q90 0 133 63.5t43 151.5q0 41 -11 79.5t-32.5 68.5t-55.5 47.5t-79 17.5 q-47 0 -80.5 -17.5t-55.5 -47.5t-32 -68.5t-10 -79.5z" />
<glyph unicode="&#xbb;" horiz-adv-x="1216" d="M152 965h122l330 -461l-325 -459h-123l325 459zM637 965h123l330 -461l-326 -459h-123l326 459z" />
<glyph unicode="&#xbc;" horiz-adv-x="1513" d="M102 1223v49q70 0 118 32.5t48 104.5h72v-825h-80v639h-158zM190 -35l859 1528l81 -43l-862 -1530zM791 147v72l370 606h107v-608h84v-70h-84v-147h-80v147h-397zM872 217h316v522z" />
<glyph unicode="&#xbd;" horiz-adv-x="1474" d="M102 1223v49q70 0 118 32.5t48 104.5h72v-825h-80v639h-158zM190 -37l861 1528l82 -41l-865 -1530zM838 0v63q0 86 32.5 143.5t80.5 97.5t104.5 68.5t104.5 60.5t81 74t33 105q0 78 -47 116t-125 38q-90 0 -130 -51t-40 -121h-84q0 104 67.5 172t190.5 68 q111 0 181.5 -58.5t70.5 -150.5q0 -84 -32 -136.5t-78 -89.5t-101 -65.5t-103.5 -62t-80 -80t-33.5 -117.5h440v-74h-532z" />
<glyph unicode="&#xbe;" horiz-adv-x="1669" d="M18 811h84q0 -47 17.5 -80t46.5 -52.5t64.5 -28.5t72.5 -9q98 0 146.5 47t48.5 113q0 168 -240 168v63q115 0 165 48t50 120q0 25 -9 49.5t-28.5 44t-51.5 32.5t-75 13q-92 0 -137 -46t-45 -117h-84q0 115 72.5 177t187.5 62q68 0 116 -18.5t78.5 -48t45 -68.5t14.5 -80 q0 -59 -25.5 -106t-101.5 -86q86 -39 118 -89.5t32 -117.5q0 -41 -17.5 -83t-51.5 -76t-86 -55.5t-122 -21.5q-55 0 -107.5 16.5t-91 47t-62.5 77t-24 105.5zM352 -35l860 1528l84 -43l-864 -1530zM946 147v72l371 606h106v-608h84v-70h-84v-147h-80v147h-397zM1028 217h315 v522z" />
<glyph unicode="&#xbf;" horiz-adv-x="1042" d="M115 -74q0 80 24.5 137.5t61.5 102.5t79 83t78.5 77t61 85t24.5 107v53h121v-90q0 -66 -24.5 -110.5t-61.5 -82.5t-80 -72t-79.5 -74t-61.5 -92t-25 -124q0 -133 76 -193.5t211 -60.5q141 0 215 70t74 225h121v-37q0 -98 -35 -166.5t-91 -113.5t-130 -65.5t-154 -20.5 q-90 0 -163.5 24.5t-128 71.5t-84 113.5t-29.5 152.5zM424 846v160h160v-160h-160z" />
<glyph unicode="&#xc0;" horiz-adv-x="1218" d="M-10 0l557 1419h119l563 -1419h-123l-145 379h-715l-144 -379h-112zM283 477h643l-320 832zM403 1798l74 84l271 -260l-50 -55z" />
<glyph unicode="&#xc1;" horiz-adv-x="1218" d="M-10 0l557 1419h119l563 -1419h-123l-145 379h-715l-144 -379h-112zM283 477h643l-320 832zM473 1620l270 256l76 -84l-297 -231z" />
<glyph unicode="&#xc2;" horiz-adv-x="1218" d="M-10 0l557 1419h119l563 -1419h-123l-145 379h-715l-144 -379h-112zM283 477h643l-320 832zM334 1595l231 211h80l232 -211l-56 -61l-215 201l-219 -199z" />
<glyph unicode="&#xc3;" horiz-adv-x="1218" d="M-10 0l557 1419h119l563 -1419h-123l-145 379h-715l-144 -379h-112zM281 1581q10 37 32.5 62.5t49 42t55 23.5t51.5 7q49 0 84 -14t64.5 -31.5t59.5 -32t68 -14.5q33 0 67 12.5t56 55.5h70q-20 -66 -75.5 -101t-114.5 -35q-47 0 -81 14.5t-64 32t-61.5 32t-70.5 14.5 q-35 0 -64.5 -12.5t-56.5 -55.5h-69zM283 477h643l-320 832z" />
<glyph unicode="&#xc4;" horiz-adv-x="1218" d="M-10 0l557 1419h119l563 -1419h-123l-145 379h-715l-144 -379h-112zM283 477h643l-320 832zM319 1556v140h123v-140h-123zM772 1556v140h123v-140h-123z" />
<glyph unicode="&#xc5;" horiz-adv-x="1218" d="M-10 0l530 1354q-55 25 -91 78t-36 118q0 43 16.5 82t46 69t68.5 46t82 16t82 -16t68.5 -46t46 -69t16.5 -82q0 -66 -35.5 -119t-93.5 -77l539 -1354h-123l-145 379h-715l-144 -379h-112zM283 477h643l-320 832zM475 1550q0 -53 39 -92t92 -39t92 39t39 92t-39 92t-92 39 t-92 -39t-39 -92z" />
<glyph unicode="&#xc6;" horiz-adv-x="1589" d="M-10 0l665 1419h863v-98h-687v-563h644v-96h-644v-564h707v-98h-821v412h-420l-184 -412h-123zM328 502h389v817z" />
<glyph unicode="&#xc7;" horiz-adv-x="1243" d="M82 713q0 141 24.5 273t89 233.5t173 163t278.5 61.5q246 0 376 -121t148 -336h-122q-16 158 -117 252t-270 94h-27q-131 0 -215 -51t-132 -137t-66.5 -197.5t-18.5 -234.5q0 -115 16.5 -227.5t63.5 -201.5t132 -143.5t220 -54.5h24q94 0 166 26.5t120 76t75 117 t33 149.5h121q-16 -217 -131 -338t-338 -135l-27 -84q8 4 21.5 7t39.5 3q63 0 103.5 -45t40.5 -111q0 -86 -47.5 -127t-133.5 -41q-59 0 -95 28t-52 62l57 37q16 -27 41 -42t49 -15q49 0 72 28.5t23 69.5q0 43 -27 67.5t-68 24.5q-29 0 -46 -8t-29 -18l-60 43l43 121 q-152 6 -253 68.5t-162.5 162.5t-87 229t-25.5 271z" />
<glyph unicode="&#xc8;" horiz-adv-x="1083" d="M152 0v1419h862v-98h-750v-563h707v-94h-707v-566h768v-98h-880zM358 1798l74 84l270 -260l-49 -55z" />
<glyph unicode="&#xc9;" horiz-adv-x="1083" d="M152 0v1419h862v-98h-750v-563h707v-94h-707v-566h768v-98h-880zM442 1620l271 256l75 -84l-296 -231z" />
<glyph unicode="&#xca;" horiz-adv-x="1083" d="M152 0v1419h862v-98h-750v-563h707v-94h-707v-566h768v-98h-880zM319 1595l232 211h80l231 -211l-55 -61l-215 201l-219 -199z" />
<glyph unicode="&#xcb;" horiz-adv-x="1083" d="M152 0v1419h862v-98h-750v-563h707v-94h-707v-566h768v-98h-880zM295 1556v140h123v-140h-123zM748 1556v140h122v-140h-122z" />
<glyph unicode="&#xcc;" horiz-adv-x="432" d="M-20 1798l73 84l271 -260l-50 -55zM145 0v1419h113v-1419h-113z" />
<glyph unicode="&#xcd;" horiz-adv-x="432" d="M111 1671q74 72 138 130.5t136 125.5q23 -25 38 -44t32 -40l-291 -231q-18 23 -27.5 32t-25.5 27zM172 0v1419h113v-1419h-113z" />
<glyph unicode="&#xce;" horiz-adv-x="397" d="M-72 1595l232 211h80l231 -211l-55 -61l-215 201l-219 -199zM145 0v1419h113v-1419h-113z" />
<glyph unicode="&#xcf;" horiz-adv-x="536" d="M-18 1556v140h122v-140h-122zM215 0v1419h113v-1419h-113zM434 1556v140h123v-140h-123z" />
<glyph unicode="&#xd0;" horiz-adv-x="1306" d="M82 707v84h115v628h421q313 0 460 -179t147 -531q0 -158 -29 -288t-98.5 -224.5t-183 -145.5t-283.5 -51h-434v707h-115zM309 98h316q141 0 234 42t147.5 121t76 192.5t21.5 255.5q0 311 -118 461.5t-374 150.5h-303v-530h377v-84h-377v-609z" />
<glyph unicode="&#xd1;" horiz-adv-x="1359" d="M150 0v1419h167l781 -1290v1290h112v-1419h-157l-791 1294v-1294h-112zM360 1581q10 37 33 62.5t49.5 42t55 23.5t51.5 7q49 0 84 -14t64.5 -31.5t59 -32t68.5 -14.5q33 0 67 12.5t56 55.5h70q-20 -66 -75.5 -101t-115.5 -35q-47 0 -80.5 14.5t-63.5 32t-61.5 32 t-70.5 14.5q-35 0 -64.5 -12.5t-56.5 -55.5h-70z" />
<glyph unicode="&#xd2;" horiz-adv-x="1282" d="M74 713q0 -145 27.5 -277.5t92 -234t173 -161.5t272.5 -60t273.5 60t175 161.5t93 233.5t27.5 278q0 141 -24.5 272t-89 232.5t-175 163t-280.5 61.5t-278.5 -61.5t-173 -163t-89 -232.5t-24.5 -272zM195 713q0 123 18 234.5t66.5 197.5t131.5 137t214 51h28 q133 0 217 -51t132.5 -137t66.5 -197.5t18 -234.5q0 -115 -16 -227.5t-64.5 -201.5t-133.5 -143.5t-222 -54.5h-26q-135 0 -219 54.5t-131.5 143.5t-63.5 201.5t-16 227.5zM422 1798l74 84l270 -260l-49 -55z" />
<glyph unicode="&#xd3;" horiz-adv-x="1282" d="M74 713q0 -145 27.5 -277.5t92 -234t173 -161.5t272.5 -60t273.5 60t175 161.5t93 233.5t27.5 278q0 141 -24.5 272t-89 232.5t-175 163t-280.5 61.5t-278.5 -61.5t-173 -163t-89 -232.5t-24.5 -272zM195 713q0 123 18 234.5t66.5 197.5t131.5 137t214 51h28 q133 0 217 -51t132.5 -137t66.5 -197.5t18 -234.5q0 -115 -16 -227.5t-64.5 -201.5t-133.5 -143.5t-222 -54.5h-26q-135 0 -219 54.5t-131.5 143.5t-63.5 201.5t-16 227.5zM485 1620l271 256l75 -84l-296 -231z" />
<glyph unicode="&#xd4;" horiz-adv-x="1282" d="M74 713q0 -145 27.5 -277.5t92 -234t173 -161.5t272.5 -60t273.5 60t175 161.5t93 233.5t27.5 278q0 141 -24.5 272t-89 232.5t-175 163t-280.5 61.5t-278.5 -61.5t-173 -163t-89 -232.5t-24.5 -272zM195 713q0 123 18 234.5t66.5 197.5t131.5 137t214 51h28 q133 0 217 -51t132.5 -137t66.5 -197.5t18 -234.5q0 -115 -16 -227.5t-64.5 -201.5t-133.5 -143.5t-222 -54.5h-26q-135 0 -219 54.5t-131.5 143.5t-63.5 201.5t-16 227.5zM369 1595l231 211h80l231 -211l-55 -61l-215 201l-219 -199z" />
<glyph unicode="&#xd5;" horiz-adv-x="1282" d="M74 713q0 -145 27.5 -277.5t92 -234t173 -161.5t272.5 -60t273.5 60t175 161.5t93 233.5t27.5 278q0 141 -24.5 272t-89 232.5t-175 163t-280.5 61.5t-278.5 -61.5t-173 -163t-89 -232.5t-24.5 -272zM195 713q0 123 18 234.5t66.5 197.5t131.5 137t214 51h28 q133 0 217 -51t132.5 -137t66.5 -197.5t18 -234.5q0 -115 -16 -227.5t-64.5 -201.5t-133.5 -143.5t-222 -54.5h-26q-135 0 -219 54.5t-131.5 143.5t-63.5 201.5t-16 227.5zM305 1581q10 37 32.5 62.5t49.5 42t55.5 23.5t51.5 7q49 0 83.5 -14t64.5 -31.5t59.5 -32 t68.5 -14.5q33 0 66.5 12.5t56.5 55.5h70q-20 -66 -76 -101t-115 -35q-47 0 -81 14.5t-63.5 32t-61 32t-70.5 14.5q-35 0 -65 -12.5t-56 -55.5h-70z" />
<glyph unicode="&#xd6;" horiz-adv-x="1282" d="M74 713q0 -145 27.5 -277.5t92 -234t173 -161.5t272.5 -60t273.5 60t175 161.5t93 233.5t27.5 278q0 141 -24.5 272t-89 232.5t-175 163t-280.5 61.5t-278.5 -61.5t-173 -163t-89 -232.5t-24.5 -272zM195 713q0 123 18 234.5t66.5 197.5t131.5 137t214 51h28 q133 0 217 -51t132.5 -137t66.5 -197.5t18 -234.5q0 -115 -16 -227.5t-64.5 -201.5t-133.5 -143.5t-222 -54.5h-26q-135 0 -219 54.5t-131.5 143.5t-63.5 201.5t-16 227.5zM354 1556v140h123v-140h-123zM807 1556v140h123v-140h-123z" />
<glyph unicode="&#xd7;" horiz-adv-x="1054" d="M156 309l303 303l-303 299l69 70l303 -301l301 301l70 -70l-303 -299l303 -303l-70 -69l-303 303l-303 -301z" />
<glyph unicode="&#xd8;" horiz-adv-x="1282" d="M74 713q0 141 24.5 272t89 232.5t173 163t278.5 61.5q70 0 129 -11.5t109 -31.5l55 123h100l-74 -164q72 -47 120 -117t77 -155t41 -180t12 -193q0 -145 -27.5 -277.5t-93 -234t-175 -161.5t-273.5 -60q-160 0 -268 59l-60 -133h-102l82 184q-61 49 -102.5 117.5 t-67 148.5t-36.5 170t-11 187zM195 713q0 -74 6 -147.5t22.5 -141.5t44 -126t70.5 -103l496 1105q-39 16 -83 24.5t-98 8.5h-28q-131 0 -214 -51t-131.5 -137t-66.5 -197.5t-18 -234.5zM414 135q41 -23 93 -36t118 -13h26q137 0 222 54.5t133.5 143.5t64.5 201.5t16 227.5 q0 84 -8 162.5t-28.5 149.5t-54 129t-85.5 99z" />
<glyph unicode="&#xd9;" horiz-adv-x="1347" d="M137 575v844h113v-817q0 -102 17.5 -196.5t63.5 -166t129 -114.5t216 -43q127 0 209 42t130 112.5t67.5 165t19.5 200.5v817h108v-844q0 -137 -29.5 -247.5t-93 -187.5t-165 -118.5t-242.5 -41.5q-162 0 -267.5 47t-167 128t-85 189.5t-23.5 230.5zM475 1798l74 84 l270 -260l-49 -55z" />
<glyph unicode="&#xda;" horiz-adv-x="1347" d="M137 575v844h113v-817q0 -102 17.5 -196.5t63.5 -166t129 -114.5t216 -43q127 0 209 42t130 112.5t67.5 165t19.5 200.5v817h108v-844q0 -137 -29.5 -247.5t-93 -187.5t-165 -118.5t-242.5 -41.5q-162 0 -267.5 47t-167 128t-85 189.5t-23.5 230.5zM514 1620l270 256 l76 -84l-297 -231z" />
<glyph unicode="&#xdb;" horiz-adv-x="1347" d="M137 575v844h113v-817q0 -102 17.5 -196.5t63.5 -166t129 -114.5t216 -43q127 0 209 42t130 112.5t67.5 165t19.5 200.5v817h108v-844q0 -137 -29.5 -247.5t-93 -187.5t-165 -118.5t-242.5 -41.5q-162 0 -267.5 47t-167 128t-85 189.5t-23.5 230.5zM410 1595l231 211h80 l231 -211l-55 -61l-215 201l-219 -199z" />
<glyph unicode="&#xdc;" horiz-adv-x="1347" d="M137 575v844h113v-817q0 -102 17.5 -196.5t63.5 -166t129 -114.5t216 -43q127 0 209 42t130 112.5t67.5 165t19.5 200.5v817h108v-844q0 -137 -29.5 -247.5t-93 -187.5t-165 -118.5t-242.5 -41.5q-162 0 -267.5 47t-167 128t-85 189.5t-23.5 230.5zM383 1556v140h123 v-140h-123zM836 1556v140h122v-140h-122z" />
<glyph unicode="&#xdd;" d="M-16 1419h127l434 -770l446 770h119l-514 -860v-559h-111v559zM397 1620l271 256l75 -84l-297 -231z" />
<glyph unicode="&#xde;" horiz-adv-x="1140" d="M152 0v1419h120v-258h297q111 0 204 -23.5t160.5 -73.5t105.5 -128t38 -184q0 -117 -41 -196t-109.5 -127t-160.5 -67.5t-197 -19.5h-297v-342h-120zM272 449h351q166 8 248.5 73.5t82.5 229.5q0 76 -26.5 132t-72.5 94t-105.5 57.5t-126.5 19.5h-351v-606z" />
<glyph unicode="&#xdf;" horiz-adv-x="1290" d="M129 786v84h141v164q0 205 99.5 306.5t322.5 101.5q203 0 305.5 -98.5t102.5 -256.5q0 -98 -45 -172.5t-137 -97.5q70 -12 122 -48t85.5 -87t51 -113.5t17.5 -128.5q0 -102 -27.5 -187t-82 -146.5t-133.5 -95.5t-183 -34q-66 0 -123 11q-31 6 -57 12v90q16 -6 39 -10 q18 -4 43.5 -6t60.5 -2q76 0 139.5 19.5t110.5 63.5t73.5 113.5t26.5 171.5q0 174 -102 260t-287 86h-43v84h43q59 0 112.5 12.5t93.5 39t63.5 67.5t23.5 98q0 123 -65.5 191t-227.5 68q-94 0 -155.5 -23t-96 -64.5t-49 -100t-14.5 -130.5v-1028h-107v786h-141z" />
<glyph unicode="&#xe0;" horiz-adv-x="1036" d="M70 264q0 145 95 213t267 74l371 12v123q0 141 -74 199.5t-207 58.5q-129 0 -194.5 -46t-94.5 -138h-112q6 53 34.5 101t78 85t121 58.5t167.5 21.5q111 0 184.5 -28.5t117.5 -82t63.5 -128t19.5 -166.5v-510q0 -23 2 -45q4 -41 11 -66h-101q-4 14 -6 33q-6 31 -6 78v67 q-63 -109 -159.5 -153.5t-207.5 -44.5q-68 0 -134 15t-118.5 49t-85 88t-32.5 132zM182 264q0 -92 76 -147.5t195 -55.5q80 0 144.5 28t110.5 75t71.5 109.5t25.5 129.5v76l-354 -14q-131 -4 -200 -48t-69 -153zM406 1417l92 68l213 -301l-54 -47z" />
<glyph unicode="&#xe1;" horiz-adv-x="1036" d="M70 264q0 145 95 213t267 74l371 12v123q0 141 -74 199.5t-207 58.5q-129 0 -194.5 -46t-94.5 -138h-112q6 53 34.5 101t78 85t121 58.5t167.5 21.5q111 0 184.5 -28.5t117.5 -82t63.5 -128t19.5 -166.5v-510q0 -23 2 -45q4 -41 11 -66h-101q-4 14 -6 33q-6 31 -6 78v67 q-63 -109 -159.5 -153.5t-207.5 -44.5q-68 0 -134 15t-118.5 49t-85 88t-32.5 132zM182 264q0 -92 76 -147.5t195 -55.5q80 0 144.5 28t110.5 75t71.5 109.5t25.5 129.5v76l-354 -14q-131 -4 -200 -48t-69 -153zM477 1200l215 299l90 -69l-243 -279z" />
<glyph unicode="&#xe2;" horiz-adv-x="1036" d="M70 264q0 145 95 213t267 74l371 12v123q0 141 -74 199.5t-207 58.5q-129 0 -194.5 -46t-94.5 -138h-112q6 53 34.5 101t78 85t121 58.5t167.5 21.5q111 0 184.5 -28.5t117.5 -82t63.5 -128t19.5 -166.5v-510q0 -23 2 -45q4 -41 11 -66h-101q-4 14 -6 33q-6 31 -6 78v67 q-63 -109 -159.5 -153.5t-207.5 -44.5q-68 0 -134 15t-118.5 49t-85 88t-32.5 132zM182 264q0 -92 76 -147.5t195 -55.5q80 0 144.5 28t110.5 75t71.5 109.5t25.5 129.5v76l-354 -14q-131 -4 -200 -48t-69 -153zM369 1190l182 229h90l178 -229l-53 -43l-172 213l-172 -213z " />
<glyph unicode="&#xe3;" horiz-adv-x="1044" d="M70 264q0 145 95 213t267 74l371 12v123q0 141 -74 199.5t-207 58.5q-129 0 -194.5 -46t-94.5 -138h-112q6 53 34.5 101t78 85t121 58.5t167.5 21.5q111 0 184.5 -28.5t117.5 -82t63.5 -128t19.5 -166.5v-510q0 -23 2 -45q4 -41 11 -66h-101q-4 14 -6 33q-6 31 -6 78v67 q-63 -109 -159.5 -153.5t-207.5 -44.5q-68 0 -134 15t-118.5 49t-85 88t-32.5 132zM182 264q0 -92 76 -147.5t195 -55.5q80 0 144.5 28t110.5 75t71.5 109.5t25.5 129.5v76l-354 -14q-131 -4 -200 -48t-69 -153zM270 1282q10 37 33 62.5t49.5 42t55 23.5t51.5 7q49 0 84 -14 t64.5 -31.5t59 -32t68.5 -14.5q33 0 67 12.5t56 55.5h70q-20 -66 -75.5 -101t-115.5 -35q-47 0 -80.5 14.5t-63.5 32t-61.5 32t-70.5 14.5q-35 0 -64.5 -12.5t-56.5 -55.5h-70z" />
<glyph unicode="&#xe4;" horiz-adv-x="1036" d="M70 264q0 145 95 213t267 74l371 12v123q0 141 -74 199.5t-207 58.5q-129 0 -194.5 -46t-94.5 -138h-112q6 53 34.5 101t78 85t121 58.5t167.5 21.5q111 0 184.5 -28.5t117.5 -82t63.5 -128t19.5 -166.5v-510q0 -23 2 -45q4 -41 11 -66h-101q-4 14 -6 33q-6 31 -6 78v67 q-63 -109 -159.5 -153.5t-207.5 -44.5q-68 0 -134 15t-118.5 49t-85 88t-32.5 132zM182 264q0 -92 76 -147.5t195 -55.5q80 0 144.5 28t110.5 75t71.5 109.5t25.5 129.5v76l-354 -14q-131 -4 -200 -48t-69 -153zM336 1214v129h117v-129h-117zM705 1214v129h112v-129h-112z " />
<glyph unicode="&#xe5;" horiz-adv-x="1036" d="M70 264q0 145 95 213t267 74l371 12v123q0 141 -74 199.5t-207 58.5q-129 0 -194.5 -46t-94.5 -138h-112q6 53 34.5 101t78 85t121 58.5t167.5 21.5q111 0 184.5 -28.5t117.5 -82t63.5 -128t19.5 -166.5v-510q0 -23 2 -45q4 -41 11 -66h-101q-4 14 -6 33q-6 31 -6 78v67 q-63 -109 -159.5 -153.5t-207.5 -44.5q-68 0 -134 15t-118.5 49t-85 88t-32.5 132zM182 264q0 -92 76 -147.5t195 -55.5q80 0 144.5 28t110.5 75t71.5 109.5t25.5 129.5v76l-354 -14q-131 -4 -200 -48t-69 -153zM403 1374q0 43 16.5 80t45.5 65.5t65.5 45t79.5 16.5 t80 -16.5t65.5 -45t45 -65.5t16.5 -80t-16.5 -80t-45 -65.5t-65.5 -45t-80 -16.5t-79.5 16.5t-65.5 45t-45.5 65.5t-16.5 80zM483 1374q0 -53 37 -90t90 -37t90 37t37 90t-36.5 90t-90.5 37q-53 0 -90 -37t-37 -90z" />
<glyph unicode="&#xe6;" horiz-adv-x="1816" d="M74 264q0 145 95 213t267 74l371 12v123q0 141 -74 199.5t-207 58.5q-129 0 -194.5 -46t-93.5 -138h-113q6 53 34.5 101t78 85t121 58.5t167.5 21.5q147 0 230.5 -50t120.5 -140q0 -2 1 -4.5t1 -4.5q59 102 161.5 150.5t235.5 48.5q233 0 350 -135t117 -385v-17h-832 q4 -92 25.5 -170.5t66 -135t113 -89.5t164.5 -33q61 0 118.5 18.5t102.5 56.5t76 95.5t39 135.5h121q-14 -86 -47 -158t-88.5 -123t-135.5 -78.5t-186 -27.5q-141 0 -250.5 59t-159.5 174q-66 -117 -167 -175t-259 -58q-68 0 -134 15t-118.5 49t-85 88t-32.5 132zM186 264 q0 -92 76 -147.5t195 -55.5q80 0 144.5 28t110.5 75t71.5 109.5t25.5 129.5v76l-354 -14q-131 -4 -200 -48t-69 -153zM911 567h715q-6 80 -27.5 148.5t-64.5 119t-106.5 80t-151.5 29.5q-82 0 -147.5 -29.5t-111.5 -80t-74 -119t-32 -148.5z" />
<glyph unicode="&#xe7;" horiz-adv-x="1079" d="M74 502q0 117 27.5 213t86 164.5t149.5 107.5t216 39q180 0 299 -92t145 -256h-120q-35 145 -124 205.5t-208 60.5q-96 0 -164 -36t-111 -96t-63.5 -141t-20.5 -171q0 -88 20.5 -168t63.5 -139.5t111 -95.5t164 -36q80 0 139 24t101 66t67 97t33 119h121 q-31 -186 -137.5 -281.5t-284.5 -103.5l-35 -84q8 4 21.5 7t39.5 3q63 0 103.5 -45t40.5 -111q0 -86 -47.5 -127t-133.5 -41q-59 0 -95 28t-52 62l57 33q16 -27 41 -40t49 -13q49 0 72 28.5t23 69.5q0 43 -27 67.5t-68 24.5q-29 0 -46 -8t-29 -18l-60 43l51 121 q-211 16 -313 151t-102 369z" />
<glyph unicode="&#xe8;" horiz-adv-x="1087" d="M74 500q0 135 33.5 233t96 164t149.5 97.5t194 31.5q233 0 350 -135t117 -385v-17h-832q4 -92 25.5 -170.5t65.5 -135t113 -89.5t165 -33q61 0 118.5 18.5t102.5 56.5t76 95.5t39 135.5h121q-14 -86 -47 -158t-88.5 -123t-135.5 -78.5t-186 -27.5q-129 0 -220 38.5 t-147.5 108.5t-83 165t-26.5 208zM182 567h715q-6 80 -27.5 148.5t-64.5 119t-106.5 80t-151.5 29.5q-82 0 -147.5 -29.5t-111.5 -80t-74 -119t-32 -148.5zM346 1417l92 68l213 -301l-53 -47z" />
<glyph unicode="&#xe9;" horiz-adv-x="1087" d="M74 500q0 135 33.5 233t96 164t149.5 97.5t194 31.5q233 0 350 -135t117 -385v-17h-832q4 -92 25.5 -170.5t65.5 -135t113 -89.5t165 -33q61 0 118.5 18.5t102.5 56.5t76 95.5t39 135.5h121q-14 -86 -47 -158t-88.5 -123t-135.5 -78.5t-186 -27.5q-129 0 -220 38.5 t-147.5 108.5t-83 165t-26.5 208zM182 567h715q-6 80 -27.5 148.5t-64.5 119t-106.5 80t-151.5 29.5q-82 0 -147.5 -29.5t-111.5 -80t-74 -119t-32 -148.5zM442 1200l215 299l91 -69l-244 -279z" />
<glyph unicode="&#xea;" horiz-adv-x="1087" d="M74 500q0 135 33.5 233t96 164t149.5 97.5t194 31.5q233 0 350 -135t117 -385v-17h-832q4 -92 25.5 -170.5t65.5 -135t113 -89.5t165 -33q61 0 118.5 18.5t102.5 56.5t76 95.5t39 135.5h121q-14 -86 -47 -158t-88.5 -123t-135.5 -78.5t-186 -27.5q-129 0 -220 38.5 t-147.5 108.5t-83 165t-26.5 208zM182 567h715q-6 80 -27.5 148.5t-64.5 119t-106.5 80t-151.5 29.5q-82 0 -147.5 -29.5t-111.5 -80t-74 -119t-32 -148.5zM322 1190l182 229h90l178 -229l-53 -43l-172 213l-172 -213z" />
<glyph unicode="&#xeb;" horiz-adv-x="1087" d="M74 500q0 135 33.5 233t96 164t149.5 97.5t194 31.5q233 0 350 -135t117 -385v-17h-832q4 -92 25.5 -170.5t65.5 -135t113 -89.5t165 -33q61 0 118.5 18.5t102.5 56.5t76 95.5t39 135.5h121q-14 -86 -47 -158t-88.5 -123t-135.5 -78.5t-186 -27.5q-129 0 -220 38.5 t-147.5 108.5t-83 165t-26.5 208zM182 567h715q-6 80 -27.5 148.5t-64.5 119t-106.5 80t-151.5 29.5q-82 0 -147.5 -29.5t-111.5 -80t-74 -119t-32 -148.5zM299 1214v129h117v-129h-117zM668 1214v129h112v-129h-112z" />
<glyph unicode="&#xec;" horiz-adv-x="380" d="M4 1417l92 68l213 -301l-53 -47zM156 0v1006h104v-1006h-104z" />
<glyph unicode="&#xed;" horiz-adv-x="317" d="M72 1200l215 299l90 -69l-244 -279zM113 0v1006h104v-1006h-104z" />
<glyph unicode="&#xee;" horiz-adv-x="458" d="M4 1190l182 229h90l179 -229l-54 -43l-172 213l-172 -213zM176 0v1006h105v-1006h-105z" />
<glyph unicode="&#xef;" horiz-adv-x="489" d="M4 1214v129h117v-129h-117zM193 0v1006h104v-1006h-104zM373 1214v129h112v-129h-112z" />
<glyph unicode="&#xf0;" horiz-adv-x="1034" d="M74 498q0 115 25.5 211t79.5 166.5t137 110.5t200 40q51 0 91 -8t77 -21l-96 203h-303v70h264l-94 170h110l90 -170h187v-70h-152q100 -176 155.5 -290.5t81 -192.5t30 -127t4.5 -92q0 -113 -27 -209t-81 -167t-138 -111t-199 -40q-121 0 -205 42t-137 114t-76.5 167 t-23.5 204zM186 498q0 -82 17.5 -161t56.5 -141.5t101.5 -100.5t154.5 -38q94 0 157.5 42t101.5 107.5t54.5 142.5t16.5 149q0 80 -17.5 159.5t-56.5 143t-102.5 103.5t-153.5 40q-96 0 -159.5 -43t-101.5 -108.5t-53.5 -144t-15.5 -150.5z" />
<glyph unicode="&#xf1;" horiz-adv-x="1124" d="M125 0v1006h104v-156q72 94 164 136t203 42q195 0 299 -101.5t104 -269.5v-657h-106v649q0 141 -76 218t-235 77q-63 0 -126 -26.5t-113 -71.5t-82 -102.5t-32 -120.5v-623h-104zM225 1282q10 37 33 62.5t49.5 42t55 23.5t51.5 7q49 0 83.5 -14t64.5 -31.5t59.5 -32 t68.5 -14.5q33 0 67 12.5t56 55.5h70q-20 -66 -75.5 -101t-115.5 -35q-47 0 -80.5 14.5t-63.5 32t-61.5 32t-70.5 14.5q-35 0 -64.5 -12.5t-56.5 -55.5h-70z" />
<glyph unicode="&#xf2;" d="M74 502q0 117 27.5 213t86 164.5t147.5 107.5t212 39t212 -39t147.5 -107.5t86 -165t27.5 -212.5q0 -246 -118.5 -384t-354.5 -138t-354.5 138t-118.5 384zM186 500q0 -88 20.5 -168t63.5 -139.5t112 -95.5t165 -36t164.5 36t111.5 95.5t63.5 139.5t20.5 168 q0 90 -20.5 171t-63.5 141t-111.5 96t-164.5 36t-165 -36t-112 -96t-63.5 -141t-20.5 -171zM358 1417l93 68l213 -301l-54 -47z" />
<glyph unicode="&#xf3;" d="M74 502q0 117 27.5 213t86 164.5t147.5 107.5t212 39t212 -39t147.5 -107.5t86 -165t27.5 -212.5q0 -246 -118.5 -384t-354.5 -138t-354.5 138t-118.5 384zM186 500q0 -88 20.5 -168t63.5 -139.5t112 -95.5t165 -36t164.5 36t111.5 95.5t63.5 139.5t20.5 168 q0 90 -20.5 171t-63.5 141t-111.5 96t-164.5 36t-165 -36t-112 -96t-63.5 -141t-20.5 -171zM453 1198l215 299l90 -70l-244 -278z" />
<glyph unicode="&#xf4;" d="M74 502q0 117 27.5 213t86 164.5t147.5 107.5t212 39t212 -39t147.5 -107.5t86 -165t27.5 -212.5q0 -246 -118.5 -384t-354.5 -138t-354.5 138t-118.5 384zM186 500q0 -88 20.5 -168t63.5 -139.5t112 -95.5t165 -36t164.5 36t111.5 95.5t63.5 139.5t20.5 168 q0 90 -20.5 171t-63.5 141t-111.5 96t-164.5 36t-165 -36t-112 -96t-63.5 -141t-20.5 -171zM324 1190l182 229h90l178 -229l-53 -43l-172 213l-172 -213z" />
<glyph unicode="&#xf5;" d="M74 502q0 117 27.5 213t86 164.5t147.5 107.5t212 39t212 -39t147.5 -107.5t86 -165t27.5 -212.5q0 -246 -118.5 -384t-354.5 -138t-354.5 138t-118.5 384zM186 500q0 -88 20.5 -168t63.5 -139.5t112 -95.5t165 -36t164.5 36t111.5 95.5t63.5 139.5t20.5 168 q0 90 -20.5 171t-63.5 141t-111.5 96t-164.5 36t-165 -36t-112 -96t-63.5 -141t-20.5 -171zM217 1282q10 37 32.5 62.5t49.5 42t55.5 23.5t51.5 7q49 0 83.5 -14t64.5 -31.5t59.5 -32t68.5 -14.5q33 0 66.5 12.5t56.5 55.5h69q-20 -66 -75.5 -101t-114.5 -35q-47 0 -81 14.5 t-63.5 32t-61.5 32t-70 14.5q-35 0 -65 -12.5t-56 -55.5h-70z" />
<glyph unicode="&#xf6;" d="M74 502q0 117 27.5 213t86 164.5t147.5 107.5t212 39t212 -39t147.5 -107.5t86 -165t27.5 -212.5q0 -246 -118.5 -384t-354.5 -138t-354.5 138t-118.5 384zM186 500q0 -88 20.5 -168t63.5 -139.5t112 -95.5t165 -36t164.5 36t111.5 95.5t63.5 139.5t20.5 168 q0 90 -20.5 171t-63.5 141t-111.5 96t-164.5 36t-165 -36t-112 -96t-63.5 -141t-20.5 -171zM303 1214v129h117v-129h-117zM672 1214v129h112v-129h-112z" />
<glyph unicode="&#xf7;" horiz-adv-x="1167" d="M104 586v96h961v-96h-961zM510 178v156h152v-156h-152zM510 932v155h152v-155h-152z" />
<glyph unicode="&#xf8;" d="M74 502q0 117 27.5 213t86 164.5t147.5 107.5t212 39q49 0 93 -7t83 -20l37 84h94l-53 -116q113 -66 166 -185.5t53 -279.5q0 -246 -118.5 -384t-354.5 -138q-92 0 -172 22l-35 -80h-94l51 115q-111 59 -167 178t-56 287zM186 500q0 -117 36 -216.5t114 -158.5l350 795 q-61 24 -139 24q-96 0 -165 -36t-112 -96t-63.5 -141t-20.5 -171zM412 84q61 -23 135 -23q96 0 164.5 36t111.5 95.5t63.5 139.5t20.5 168q0 117 -34.5 217t-110.5 160z" />
<glyph unicode="&#xf9;" horiz-adv-x="1124" d="M125 348v658h106v-650q0 -141 86 -218t246 -77q63 0 122.5 27t106 71t75 102t28.5 122v623h104v-1006h-104v156q-72 -94 -164 -136.5t-203 -42.5q-195 0 -299 101.5t-104 269.5zM342 1417l92 68l213 -301l-53 -47z" />
<glyph unicode="&#xfa;" horiz-adv-x="1124" d="M125 348v658h106v-650q0 -141 86 -218t246 -77q63 0 122.5 27t106 71t75 102t28.5 122v623h104v-1006h-104v156q-72 -94 -164 -136.5t-203 -42.5q-195 0 -299 101.5t-104 269.5zM430 1200l215 299l90 -69l-243 -279z" />
<glyph unicode="&#xfb;" horiz-adv-x="1124" d="M125 348v658h106v-650q0 -141 86 -218t246 -77q63 0 122.5 27t106 71t75 102t28.5 122v623h104v-1006h-104v156q-72 -94 -164 -136.5t-203 -42.5q-195 0 -299 101.5t-104 269.5zM348 1190l182 229h91l178 -229l-54 -43l-172 213l-172 -213z" />
<glyph unicode="&#xfc;" horiz-adv-x="1124" d="M125 348v658h106v-650q0 -141 86 -218t246 -77q63 0 122.5 27t106 71t75 102t28.5 122v623h104v-1006h-104v156q-72 -94 -164 -136.5t-203 -42.5q-195 0 -299 101.5t-104 269.5zM328 1217v129h116v-129h-116zM696 1217v129h113v-129h-113z" />
<glyph unicode="&#xfd;" horiz-adv-x="974" d="M20 1006h111l354 -904l359 904h110l-485 -1194q-37 -90 -90 -146.5t-148 -56.5q-49 0 -79 10q-16 4 -29 10v78q12 -2 22 -4t21.5 -4t21.5 -2q51 -4 88 13.5t61.5 49t41 71.5t31.5 81l20 59zM406 1200l215 299l90 -69l-244 -279z" />
<glyph unicode="&#xfe;" horiz-adv-x="1134" d="M127 -416v1852h104v-588q35 51 80 86t93.5 55.5t95.5 28.5t86 8q223 0 345 -136t122 -386q0 -117 -29 -213t-87 -165t-147.5 -107.5t-211.5 -38.5q-41 0 -86.5 9t-91.5 29.5t-89 54t-80 83.5v-572h-104zM231 465q0 -86 21.5 -161t64.5 -128t109 -84t152 -31 q96 0 164.5 36t112.5 96.5t64.5 141.5t20.5 171q0 88 -20.5 168t-64.5 139t-112.5 95t-164.5 36q-88 0 -153 -30.5t-108 -82t-64.5 -119t-21.5 -139.5v-108z" />
<glyph unicode="&#xff;" horiz-adv-x="978" d="M20 1004h111l354 -924l361 924h112l-497 -1201q-18 -45 -40 -85t-49.5 -69.5t-63.5 -47t-81 -17.5q-70 0 -114 13v77q12 -2 24 -2h45q53 0 90 20.5t62.5 54.5t42 75t31.5 82l20 59zM254 1262v129h106v-129h-106zM614 1262v129h111v-129h-111z" />
<glyph unicode="&#x152;" horiz-adv-x="1982" d="M80 713q0 141 24.5 272t89 232.5t173 163t278.5 61.5q172 0 281.5 -61.5t175.5 -163.5v202h801v-98h-689v-563h646v-94h-646v-566h707v-98h-819v215q-66 -109 -176.5 -172t-280.5 -63q-164 0 -272.5 60t-173 161.5t-92 233.5t-27.5 278zM201 713q0 -115 16 -227.5 t63.5 -201.5t131.5 -143.5t219 -54.5h26q137 0 222.5 54.5t133.5 143.5t64.5 201.5t16.5 227.5q0 123 -18.5 234.5t-66.5 197.5t-132 137t-218 51h-28q-131 0 -214 -51t-131 -137t-66.5 -197.5t-18.5 -234.5z" />
<glyph unicode="&#x153;" horiz-adv-x="1921" d="M74 502q0 117 27.5 213t86 164.5t147.5 107.5t212 39q162 0 264 -69.5t152 -186.5q55 127 162.5 191.5t254.5 64.5q233 0 350 -135t117 -385v-17h-831q4 -92 25.5 -170.5t65.5 -135t112.5 -89.5t164.5 -33q61 0 119 18.5t103 56.5t75.5 95.5t38.5 135.5h121 q-14 -86 -47 -158t-88 -123t-135 -78.5t-187 -27.5q-170 0 -272 69.5t-149 181.5q-53 -117 -157 -184t-259 -67q-236 0 -354.5 138t-118.5 384zM186 500q0 -88 20.5 -168t63.5 -139.5t112 -95.5t165 -36t164.5 36t111.5 95.5t63.5 139.5t20.5 168q0 90 -20.5 171t-63.5 141 t-111.5 96t-164.5 36t-165 -36t-112 -96t-63.5 -141t-20.5 -171zM1016 567h715q-6 80 -28 148.5t-65 119t-106.5 80t-151.5 29.5q-82 0 -147.5 -29.5t-111.5 -80t-73.5 -119t-31.5 -148.5z" />
<glyph unicode="&#x178;" d="M-16 1419h127l434 -770l446 770h119l-514 -860v-559h-111v559zM252 1556v140h123v-140h-123zM705 1556v140h122v-140h-122z" />
<glyph unicode="&#x2c6;" horiz-adv-x="348" d="M-111 1090l258 329h64l248 -329h-80l-199 247l-196 -247h-95z" />
<glyph unicode="&#x2dc;" horiz-adv-x="401" d="M-129 1300q10 37 32.5 63t49.5 42t55.5 23.5t50.5 7.5q49 0 84 -14.5t65 -32t59.5 -32t68.5 -14.5q33 0 66.5 12.5t56.5 55.5h69q-20 -66 -75.5 -100.5t-114.5 -34.5q-47 0 -81 14.5t-63.5 31.5t-61.5 31.5t-71 14.5q-35 0 -64.5 -12.5t-55.5 -55.5h-70z" />
<glyph unicode="&#x2000;" horiz-adv-x="963" />
<glyph unicode="&#x2001;" horiz-adv-x="1927" />
<glyph unicode="&#x2002;" horiz-adv-x="963" />
<glyph unicode="&#x2003;" horiz-adv-x="1927" />
<glyph unicode="&#x2004;" horiz-adv-x="642" />
<glyph unicode="&#x2005;" horiz-adv-x="481" />
<glyph unicode="&#x2006;" horiz-adv-x="321" />
<glyph unicode="&#x2007;" horiz-adv-x="321" />
<glyph unicode="&#x2008;" horiz-adv-x="240" />
<glyph unicode="&#x2009;" horiz-adv-x="385" />
<glyph unicode="&#x200a;" horiz-adv-x="107" />
<glyph unicode="&#x2010;" horiz-adv-x="845" d="M127 557v94h592v-94h-592z" />
<glyph unicode="&#x2011;" horiz-adv-x="845" d="M127 557v94h592v-94h-592z" />
<glyph unicode="&#x2012;" horiz-adv-x="845" d="M127 557v94h592v-94h-592z" />
<glyph unicode="&#x2013;" horiz-adv-x="1064" d="M4 559v84h1057v-84h-1057z" />
<glyph unicode="&#x2014;" horiz-adv-x="2453" d="M270 559v84h1913v-84h-1913z" />
<glyph unicode="&#x2018;" horiz-adv-x="622" d="M199 1047l147 372h80l-88 -372h-139z" />
<glyph unicode="&#x2019;" horiz-adv-x="620" d="M197 1047q12 51 22 97t21.5 90t21.5 89t23 96h137l-154 -372h-71z" />
<glyph unicode="&#x201a;" horiz-adv-x="612" d="M197 -195q10 51 20 97.5t19.5 89.5t18.5 88t19 96h140l-138 -371h-79z" />
<glyph unicode="&#x201c;" horiz-adv-x="854" d="M135 1047l148 372h79l-88 -372h-139zM494 1047l147 372h80l-88 -372h-139z" />
<glyph unicode="&#x201d;" horiz-adv-x="851" d="M133 1047l88 372h137l-153 -372h-72zM492 1047l88 372h137l-154 -372h-71z" />
<glyph unicode="&#x201e;" horiz-adv-x="833" d="M133 -195q10 51 20.5 97.5t19.5 89.5t18.5 88t19.5 96h139l-137 -371h-80zM481 -195q10 51 20.5 97.5t19.5 89.5t18.5 88t19.5 96h139l-137 -371h-80z" />
<glyph unicode="&#x2022;" horiz-adv-x="1771" d="M152 709q0 152 57 285.5t157.5 233t234.5 158t286 58.5t286 -58.5t233 -158t157.5 -233.5t58.5 -285q0 -152 -58.5 -286t-157.5 -234.5t-233.5 -158t-285.5 -57.5q-152 0 -286 57.5t-234.5 158t-157.5 234.5t-57 286z" />
<glyph unicode="&#x2026;" horiz-adv-x="1681" d="M260 0v160h160v-160h-160zM762 0v160h158v-160h-158zM1264 0v160h157v-160h-157z" />
<glyph unicode="&#x202f;" horiz-adv-x="385" />
<glyph unicode="&#x2039;" horiz-adv-x="718" d="M113 502l329 463h123l-329 -463l325 -457h-123z" />
<glyph unicode="&#x203a;" horiz-adv-x="718" d="M154 965h122l330 -463l-325 -457h-123l325 457z" />
<glyph unicode="&#x205f;" horiz-adv-x="481" />
<glyph unicode="&#x20ac;" horiz-adv-x="1239" d="M35 522v90h153q-2 18 -3 47t-2 60t-1 60.5v51.5h-147v91h158q39 266 179 394t396 128q100 0 186 -26.5t147.5 -74t96.5 -111t35 -136.5h-123q-27 111 -121 174t-221 63q-174 0 -293 -97t-158 -314h557v-91h-571v-52t1 -60t2 -59.5t3 -47.5h565v-90h-557 q37 -217 159 -326.5t294 -109.5q61 0 117.5 16.5t102.5 48t78 75.5t46 100h123q-10 -86 -55 -151.5t-109.5 -108.5t-144.5 -66t-160 -23q-139 0 -240.5 42t-170 116t-108.5 173.5t-56 213.5h-158z" />
<glyph unicode="&#x2122;" horiz-adv-x="1392" d="M172 1374v45h442v-45h-186v-534h-47v534h-209zM678 840v579h74l196 -489l197 489h76v-579h-52v514l-206 -514h-27l-211 514v-514h-47z" />
<glyph unicode="&#x25fc;" horiz-adv-x="1003" d="M0 0v1004h1004v-1004h-1004z" />
</font>
</defs>
</svg>
