<?xml version="1.0" standalone="no"?>
<!DOCTYPE svg PUBLIC "-//W3C//DTD SVG 1.1//EN" "http://www.w3.org/Graphics/SVG/1.1/DTD/svg11.dtd" >
<svg xmlns="http://www.w3.org/2000/svg">
<metadata></metadata>
<defs>
<font id="lunchtype22regular" horiz-adv-x="1146" >
<font-face units-per-em="2048" ascent="1536" descent="-512" />
<missing-glyph horiz-adv-x="614" />
<glyph horiz-adv-x="0" />
<glyph horiz-adv-x="682" />
<glyph unicode=" "  horiz-adv-x="614" />
<glyph unicode="&#x09;" horiz-adv-x="614" />
<glyph unicode="&#xa0;" horiz-adv-x="614" />
<glyph unicode="!" horiz-adv-x="495" d="M152 0v201h192v-201h-192zM154 1059v360h188v-360l-33 -625h-123z" />
<glyph unicode="&#x22;" horiz-adv-x="935" d="M223 1212v230h176v-230l-26 -303h-123zM539 1212v230h174v-230l-27 -303h-123z" />
<glyph unicode="#" horiz-adv-x="1316" d="M70 410v155h243l47 281h-239v164h270l80 432h158l-78 -432h323l76 432h162l-78 -432h213v-164h-241l-50 -281h213v-155h-237l-70 -410h-162l72 410h-330l-73 -410h-160l74 410h-213zM473 565h324l51 281h-324z" />
<glyph unicode="$" horiz-adv-x="1169" d="M51 424h182q10 -125 86 -196.5t197 -90.5v535l-59 14q-170 39 -262.5 128t-92.5 253q0 84 31 149.5t86 112.5t131 75t166 36v112h154v-114q111 -10 189.5 -46t129.5 -90.5t74.5 -125t23.5 -150.5h-172q-8 111 -70.5 178.5t-174.5 83.5v-479l51 -10q88 -18 159.5 -51 t122 -82.5t77 -117t26.5 -159.5q0 -96 -34 -169t-93 -123t-139 -78.5t-170 -34.5v-121h-154v121q-207 16 -327.5 119.5t-137.5 320.5zM268 1073q0 -94 64.5 -146.5t183.5 -80.5v442q-115 -14 -181.5 -71.5t-66.5 -143.5zM670 139q47 8 94 26.5t84 49.5t60.5 72t23.5 94 q0 61 -20.5 103t-55.5 71t-83 47.5t-103 32.5v-496z" />
<glyph unicode="%" horiz-adv-x="1865" d="M188 1071q0 66 13.5 130.5t45.5 115.5t85 83t133 32q82 0 135 -33t84 -85t43 -119t12 -134q0 -401 -274 -402q-137 0 -207 100.5t-70 311.5zM303 1059q0 -41 5 -89t20.5 -91t48.5 -72t88 -29q53 0 85 29t48 72t20.5 92t4.5 88q0 41 -6.5 86t-22.5 82t-48 61.5t-81 24.5 q-53 0 -85 -24.5t-49.5 -62.5t-22.5 -83t-5 -84zM428 -23l860 1528l125 -63l-862 -1532zM1126 399q0 66 13.5 130.5t45.5 115.5t85 83t133 32q82 0 135 -33t84 -85t43 -118.5t12 -134.5q0 -401 -274 -401q-137 0 -207 100t-70 311zM1241 387q0 -41 5 -89t20.5 -91t48.5 -72 t88 -29q53 0 85 29t48 72t20.5 92t4.5 88q0 41 -6.5 86t-22.5 82t-48 61.5t-81 24.5q-53 0 -85 -24.5t-49.5 -62.5t-22.5 -83t-5 -84z" />
<glyph unicode="&#x26;" horiz-adv-x="1148" d="M68 414q0 74 19 130t53 99t82 76t108 61q-55 78 -81 141.5t-26 153.5q0 147 95.5 226t254.5 79q61 0 115.5 -17t94.5 -52t63.5 -87.5t23.5 -121.5q0 -68 -17 -117t-54 -89t-95.5 -77t-140.5 -84l291 -389q37 68 44 142.5t7 136.5h139q0 -94 -18 -196.5t-76 -195.5 q27 -27 47.5 -45t40 -29.5t40 -16.5t46.5 -5q8 0 56 6v-135q-39 -8 -72 -8q-47 0 -82 11.5t-62.5 28.5t-50 38.5t-43.5 44.5l-8 8q-74 -66 -149.5 -98.5t-175.5 -32.5q-96 0 -181.5 25.5t-150 77t-101 129t-36.5 182.5zM227 397q0 -66 27 -113.5t70 -80.5t98 -48.5 t115 -15.5q66 0 118 24.5t111 74.5l-350 434q-43 -23 -78 -47.5t-59.5 -56t-38 -74t-13.5 -97.5zM369 1079q0 -39 6 -68.5t19.5 -56t35 -53.5t49.5 -61q37 18 81 43.5t84 57.5t66.5 69t26.5 80q0 78 -47 114.5t-131 36.5q-35 0 -68.5 -9t-61.5 -29.5t-44 -50.5t-16 -73z" />
<glyph unicode="'" horiz-adv-x="606" d="M215 1212v230h176v-230l-26 -303h-123z" />
<glyph unicode="(" horiz-adv-x="555" d="M96 590q0 279 107.5 515t281.5 429l90 -72q-137 -184 -225 -402t-88 -472q0 -252 88 -470t225 -403l-90 -69q-174 193 -281.5 429t-107.5 515z" />
<glyph unicode=")" horiz-adv-x="555" d="M-20 -285q137 184 225 402.5t88 470.5q0 254 -88 472t-225 402l90 72q174 -193 281.5 -429.5t107.5 -514.5q0 -279 -107.5 -515.5t-281.5 -428.5z" />
<glyph unicode="*" horiz-adv-x="866" d="M49 883l266 133l-266 137l76 127l246 -160l-15 299h154l-14 -299l245 160l76 -127l-268 -135l268 -135l-76 -127l-245 157l14 -297h-154l15 297l-248 -159z" />
<glyph unicode="+" horiz-adv-x="1075" d="M98 553v152h363v350h155v-350h361v-152h-361v-354h-155v354h-363z" />
<glyph unicode="," horiz-adv-x="552" d="M170 0v211h211v-211l-66 -217h-125l43 217h-63z" />
<glyph unicode="-" horiz-adv-x="796" d="M102 524v150h592v-150h-592z" />
<glyph unicode="." horiz-adv-x="552" d="M170 0v211h211v-211h-211z" />
<glyph unicode="/" horiz-adv-x="753" d="M-37 -360l682 1914h146l-682 -1914h-146z" />
<glyph unicode="0" horiz-adv-x="1200" d="M86 745q0 123 23.5 243t83 215t158 154.5t249.5 59.5q154 0 253 -61.5t157.5 -159.5t81 -222t22.5 -249q0 -377 -129 -562.5t-385 -185.5q-254 0 -384 188.5t-130 579.5zM268 725q2 -84 10.5 -184.5t42 -188.5t99 -147.5t180.5 -59.5q113 0 179.5 60.5t100 148.5 t43 188.5t9.5 182.5q0 84 -13.5 177t-49 170t-100 127t-169.5 50q-109 0 -174.5 -51t-100 -129t-46 -170t-11.5 -174z" />
<glyph unicode="1" horiz-adv-x="917" d="M178 1026v115q63 0 121.5 16.5t104 47t71 75.5t25.5 100v19h172v-1399h-176v1026h-318z" />
<glyph unicode="2" horiz-adv-x="1079" d="M49 0v154q0 127 54.5 218t135 160.5t175 124t175.5 109.5t135 118.5t54 151.5q0 113 -69.5 168.5t-198.5 55.5q-135 0 -195.5 -61.5t-64.5 -172.5h-172q2 186 113.5 290.5t318.5 104.5q205 0 318.5 -100t113.5 -285q0 -125 -52 -209t-131 -145t-170 -111.5t-170 -105.5 t-131 -127t-52 -176h716v-162h-903z" />
<glyph unicode="3" horiz-adv-x="1118" d="M59 377h172q2 -61 27 -105.5t67 -73t97 -42t119 -13.5q147 0 229 61.5t82 184.5q0 254 -330 254h-41v152h41q80 0 135.5 12t89 39.5t48 72t14.5 107.5q0 106 -61.5 165.5t-196.5 59.5q-131 0 -201.5 -59t-75.5 -170h-172q4 190 119 291.5t320 101.5q211 0 326.5 -101.5 t115.5 -287.5q0 -111 -48 -188.5t-122 -114.5q94 -39 152.5 -125t58.5 -209q0 -92 -34 -168t-96.5 -130t-152.5 -82.5t-200 -28.5q-221 0 -349.5 105t-132.5 292z" />
<glyph unicode="4" horiz-adv-x="1169" d="M57 248v129l650 1016h188v-985h190v-160h-190v-248h-170v248h-668zM260 408h465v745z" />
<glyph unicode="5" horiz-adv-x="1087" d="M72 373h174q2 -123 81 -175.5t201 -52.5q285 0 285 322q0 166 -71.5 243.5t-200.5 77.5q-104 0 -160.5 -26.5t-97.5 -102.5h-170l37 734h770v-164h-613l-14 -365q102 84 266 84q209 0 320.5 -125t111.5 -358q0 -111 -31.5 -200t-92 -152.5t-146.5 -98t-193 -34.5 q-98 0 -181 25.5t-144.5 75.5t-96 124t-34.5 168z" />
<glyph unicode="6" horiz-adv-x="1130" d="M78 616q0 227 42 384t112.5 255.5t163.5 142.5t194 44q96 0 174 -25.5t132 -69.5t84 -105.5t30 -135.5h-172q-6 90 -69.5 138t-174.5 48q-70 0 -131.5 -32.5t-107.5 -101t-73.5 -173t-27.5 -248.5q14 33 51 70t87 67.5t109.5 51t121.5 20.5q98 0 178 -33.5t136 -96 t87 -152t31 -201.5q0 -115 -37 -205t-101.5 -151.5t-152.5 -94t-189 -32.5q-113 0 -204.5 41.5t-156 123.5t-100.5 200t-36 271zM283 461q0 -66 24.5 -124t64.5 -102.5t93 -70t110 -25.5q74 0 130.5 25.5t95.5 70t58.5 102.5t19.5 124q0 57 -12.5 115.5t-46.5 105.5 t-91 75.5t-145 28.5q-68 0 -123 -26.5t-95 -70.5t-61.5 -103t-21.5 -125z" />
<glyph unicode="7" horiz-adv-x="1134" d="M102 1229v164h936v-164q-70 -74 -135 -156q-55 -70 -114.5 -159t-96.5 -181q-61 -152 -96 -284t-53 -232q-23 -117 -29 -217h-188q4 94 24 207q16 98 52 228t102 282q55 127 116.5 222t114.5 161q61 76 121 129h-754z" />
<glyph unicode="8" horiz-adv-x="1136" d="M82 403q0 55 15.5 108.5t44 99.5t68.5 82t89 57q-88 51 -131 129.5t-43 173.5q0 94 38 166.5t100.5 122t142 75t165.5 25.5q90 0 170 -28t140.5 -78t95.5 -122.5t35 -160.5q0 -100 -45 -177t-127 -126q51 -25 92 -62t67.5 -82t41 -97t14.5 -106q0 -109 -39 -188.5 t-104.5 -131.5t-153.5 -77.5t-187 -25.5q-104 0 -194 26.5t-155.5 79.5t-102.5 132t-37 185zM260 408q0 -74 24.5 -124.5t66.5 -82t98.5 -46t121.5 -14.5q137 0 221.5 63.5t84.5 203.5q0 123 -82 193.5t-224 70.5q-143 0 -227 -70.5t-84 -193.5zM299 1053 q0 -123 71.5 -177.5t200.5 -54.5q125 0 197 54.5t72 177.5q0 111 -74 171t-195 60q-123 0 -197.5 -60.5t-74.5 -170.5z" />
<glyph unicode="9" horiz-adv-x="1101" d="M70 965q0 100 32.5 187t93 151.5t143.5 101.5t183 37q137 0 230.5 -50.5t151 -137.5t81 -207.5t23.5 -262.5q0 -180 -21.5 -328.5t-75 -254t-142.5 -163.5t-224 -58q-131 0 -213 34.5t-130 89t-67.5 118t-25.5 120.5h167q4 -39 18.5 -78t44.5 -70.5t77 -51t114 -19.5 q156 0 243 135t87 418q-16 -35 -48 -69t-78 -61.5t-104.5 -45t-125.5 -17.5q-115 0 -197 39t-135 104.5t-77.5 153.5t-24.5 185zM236 981q0 -59 15 -119.5t49 -111t89 -82t137 -31.5q141 0 223 90t82 254q0 66 -23.5 121t-64.5 95t-96 62.5t-121 22.5t-120 -25.5t-92 -67.5 t-58 -96.5t-20 -111.5z" />
<glyph unicode=":" horiz-adv-x="552" d="M170 0v211h211v-211h-211zM170 717v211h211v-211h-211z" />
<glyph unicode=";" horiz-adv-x="550" d="M170 0v211h211v-211l-66 -217h-125l43 217h-63zM170 717v211h211v-211h-211z" />
<glyph unicode="&#x3c;" horiz-adv-x="1021" d="M94 545v168l834 348v-154l-686 -278l686 -281v-153z" />
<glyph unicode="=" horiz-adv-x="1128" d="M98 295v158h932v-158h-932zM98 723v158h932v-158h-932z" />
<glyph unicode="&#x3e;" horiz-adv-x="1021" d="M94 195v153l686 281l-686 278v154l834 -348v-168z" />
<glyph unicode="?" horiz-adv-x="1069" d="M111 1038v23q0 100 31.5 173t87 119t130 67.5t162.5 21.5q90 0 166 -25.5t130 -74t85 -117t31 -156.5q0 -100 -48 -187t-141 -169q-37 -33 -61.5 -58.5t-38.5 -52.5t-20.5 -55.5t-6.5 -65.5v-47h-167v49q0 127 26 183q23 55 70 96t95 83t84 94t36 130q0 111 -63.5 172.5 t-176.5 61.5q-125 0 -179 -69t-58 -196h-174zM432 0v211h211v-211h-211z" />
<glyph unicode="@" horiz-adv-x="1689" d="M86 627q0 170 61.5 315t167 250.5t246.5 166t299 60.5q184 0 321.5 -62.5t228.5 -167t137 -241.5t46 -286q0 -205 -83 -323t-242 -122q-53 0 -110.5 31t-88.5 100q-12 -29 -43 -54.5t-69.5 -47t-83 -33.5t-85.5 -12q-57 0 -112 12t-99.5 41t-71 75t-26.5 113 q0 61 28 108.5t72 79.5t98 49t107 19l252 9v61q0 78 -54 122t-130 44q-80 0 -127 -32t-63 -103h-146q10 76 40 125t74 77.5t100 40t122 11.5q84 0 144.5 -23.5t98.5 -66.5t56 -101.5t18 -128.5q0 -6 -1 -14t-2 -32.5t-4 -73t-7 -134.5q0 -53 37 -97t84 -44q98 0 147.5 77 t49.5 247q0 139 -45.5 255.5t-126 201.5t-193.5 133t-248 48q-141 0 -261 -54t-206 -146t-134 -214t-48 -259q0 -158 52 -279t140.5 -203t206 -125t250.5 -43q162 0 307 86l60 -106q-182 -100 -371 -100q-172 0 -314.5 57t-243.5 158.5t-156.5 243t-55.5 311.5zM627 442 q0 -59 41 -93t127 -34q111 0 176 62t65 162v49l-243 -15q-90 -4 -128 -31.5t-38 -99.5z" />
<glyph unicode="A" horiz-adv-x="1241" d="M-14 0l553 1419h161l557 -1419h-180l-141 373h-637l-139 -373h-174zM356 518h525l-263 699z" />
<glyph unicode="B" horiz-adv-x="1282" d="M160 0v1419h479q252 0 379 -92t127 -301q0 -111 -46 -189.5t-116 -117.5q88 -43 145.5 -120t61.5 -204q0 -207 -121 -301t-367 -94h-542zM330 154h399q141 0 214 55t73 186q0 117 -79 179.5t-208 62.5h-399v-483zM330 791h358q143 0 214 53t71 182q0 119 -75 178.5 t-210 59.5h-358v-473z" />
<glyph unicode="C" horiz-adv-x="1275" d="M88 713q0 141 25.5 272t90 232.5t175 163t280.5 61.5q131 0 227.5 -34t161 -95.5t99.5 -144.5t43 -181h-176q-6 57 -29.5 109.5t-67 92.5t-103.5 63.5t-140 23.5h-27q-117 0 -191.5 -46t-118.5 -125t-61.5 -180.5t-17.5 -211.5q0 -104 15.5 -207t58.5 -183.5t118.5 -130 t196.5 -49.5h25q88 0 152.5 28t107.5 73t63.5 100t20.5 111h178q-8 -106 -43 -193.5t-99.5 -150t-161.5 -97t-231 -34.5q-164 0 -273.5 60t-176 161.5t-94 233.5t-27.5 278z" />
<glyph unicode="D" horiz-adv-x="1296" d="M160 0v1419h434q315 0 462.5 -179t147.5 -531q0 -158 -29.5 -288t-99 -224.5t-184.5 -145.5t-285 -51h-446zM330 154h276q127 0 210 37.5t131 110.5t67.5 175.5t19.5 231.5q0 283 -105.5 420t-334.5 137h-264v-1112z" />
<glyph unicode="E" horiz-adv-x="1140" d="M160 0v1419h887v-155h-717v-478h676v-151h-676v-479h735v-156h-905z" />
<glyph unicode="F" horiz-adv-x="1071" d="M160 0v1419h856v-153h-684v-488h655v-149h-655v-629h-172z" />
<glyph unicode="G" horiz-adv-x="1331" d="M88 713q0 141 25.5 272t90 232.5t175 163t280.5 61.5q129 0 225.5 -34t163 -95.5t101.5 -144.5t41 -181h-172q-6 61 -31.5 113.5t-69 91.5t-104.5 61.5t-139 22.5h-27q-117 0 -191.5 -46t-118.5 -125t-61.5 -180.5t-17.5 -211.5q0 -104 14.5 -207t55.5 -183.5t114.5 -130 t194.5 -49.5h25q106 0 181 35t122 93.5t68.5 137t21.5 164.5h-424v164h573v-737h-135v233q-51 -125 -154.5 -189t-265.5 -64q-164 0 -271.5 60t-172 161.5t-91 233.5t-26.5 278z" />
<glyph unicode="H" horiz-adv-x="1343" d="M160 0v1419h170v-612h686v612h168v-1419h-168v657h-686v-657h-170z" />
<glyph unicode="I" horiz-adv-x="505" d="M168 0v1419h170v-1419h-170z" />
<glyph unicode="J" horiz-adv-x="999" d="M45 344h172q6 -49 20.5 -88t39 -64.5t63.5 -40t96 -14.5q76 0 122 22.5t71.5 69.5t34 123t8.5 180v887h168v-907q0 -102 -9.5 -198.5t-49.5 -170t-120.5 -118.5t-224.5 -45q-102 0 -174 30.5t-118 80.5t-69.5 115.5t-29.5 137.5z" />
<glyph unicode="K" horiz-adv-x="1273" d="M160 0v1419h170v-751l712 751h220l-557 -598l575 -821h-207l-479 700l-264 -266v-434h-170z" />
<glyph unicode="L" horiz-adv-x="1015" d="M160 0v1419h168v-1263h647v-156h-815z" />
<glyph unicode="M" horiz-adv-x="1667" d="M164 0v1419h223l447 -1171l446 1171h223v-1419h-166v1176l-444 -1176h-119l-444 1176v-1176h-166z" />
<glyph unicode="N" horiz-adv-x="1398" d="M158 0v1419h213l708 -1169v1169h168v-1419h-213l-708 1169v-1169h-168z" />
<glyph unicode="O" horiz-adv-x="1302" d="M78 713q0 141 25.5 272t90 232.5t175 163t280.5 61.5q172 0 283.5 -61.5t176.5 -163t90.5 -232.5t25.5 -272q0 -145 -28 -277.5t-94.5 -234t-177 -161.5t-276.5 -60q-164 0 -273.5 60t-176 161.5t-94 233.5t-27.5 278zM248 713q0 -104 15.5 -207t58.5 -183.5t118.5 -130 t196.5 -49.5h25q123 0 199.5 49.5t119.5 130t58.5 183t15.5 207.5q0 111 -17.5 212t-61.5 180t-120 125t-192 46h-27q-117 0 -191.5 -46t-118.5 -125t-61.5 -180.5t-17.5 -211.5z" />
<glyph unicode="P" horiz-adv-x="1216" d="M160 0v1419h475q111 0 204 -23.5t160.5 -74.5t105.5 -130t38 -190q0 -117 -37 -196.5t-101.5 -128.5t-155.5 -69.5t-198 -20.5h-325v-586h-166zM326 737h362q152 0 217.5 61.5t69.5 202.5q-4 135 -80 199t-207 64h-362v-527z" />
<glyph unicode="Q" horiz-adv-x="1302" d="M78 713q0 141 25.5 272t90 232.5t175 163t280.5 61.5q172 0 283.5 -61.5t176.5 -163t90.5 -232.5t25.5 -272q0 -168 -38 -318.5t-132 -255.5l106 -139l-119 -90l-104 137q-59 -33 -130 -50t-159 -17q-164 0 -273.5 60t-176 161.5t-94 233.5t-27.5 278zM248 713 q0 -104 15.5 -207t58.5 -183.5t118.5 -130t196.5 -49.5h25q102 0 174 37l-156 207l119 92l151 -203q61 84 84 199t23 238q0 111 -17.5 212t-61.5 180t-121 125t-193 46h-27q-117 0 -191.5 -46t-118.5 -125t-61.5 -180.5t-17.5 -211.5z" />
<glyph unicode="R" horiz-adv-x="1255" d="M160 0v1419h471q109 0 202 -24.5t160.5 -75.5t106.5 -128t39 -183q0 -166 -81 -263.5t-245 -119.5l393 -625h-196l-381 598h-299v-598h-170zM330 750h348q143 0 215 60t72 198q0 129 -82 193.5t-205 64.5h-348v-516z" />
<glyph unicode="S" horiz-adv-x="1206" d="M76 424h182q10 -145 111.5 -218t255.5 -73q53 0 111.5 15.5t107.5 46t80.5 76.5t31.5 110q0 66 -23.5 110t-63.5 72.5t-93 47t-114 32.5l-181 43q-170 39 -262 128t-92 253q0 92 37 161.5t100.5 117t150.5 72t189 24.5q135 0 231.5 -32t158 -88t90 -132t28.5 -164h-172 q-8 129 -92 198.5t-234 69.5q-145 0 -233 -60t-88 -161q0 -98 71.5 -151.5t200.5 -81.5l180 -41q88 -18 160 -51t122 -82.5t76.5 -117t26.5 -159.5q0 -104 -40.5 -182t-109.5 -128t-161 -74.5t-194 -24.5q-121 0 -219.5 25.5t-169 78.5t-111.5 138t-49 202z" />
<glyph unicode="T" horiz-adv-x="1089" d="M4 1266v153h1083v-153h-458v-1266h-166v1266h-459z" />
<glyph unicode="U" horiz-adv-x="1374" d="M143 578v841h166v-817q0 -92 15.5 -177t57.5 -149.5t115.5 -102.5t190.5 -38q113 0 185.5 37t115.5 101.5t59.5 148.5t16.5 180v817h166v-841q0 -139 -30 -250t-95.5 -189t-167.5 -120t-246 -42q-164 0 -269.5 47.5t-166.5 128t-86 190.5t-27 235z" />
<glyph unicode="V" horiz-adv-x="1183" d="M-2 1419h182l416 -1208l416 1208h176l-492 -1419h-204z" />
<glyph unicode="W" horiz-adv-x="1945" d="M25 1419h192l320 -1218l346 1218h186l342 -1218l326 1218h184l-414 -1419h-196l-336 1153l-338 -1153h-199z" />
<glyph unicode="X" horiz-adv-x="1243" d="M-2 0l516 731l-487 688h221l379 -553l379 553h213l-494 -684l520 -735h-221l-408 594l-405 -594h-213z" />
<glyph unicode="Y" horiz-adv-x="1196" d="M4 1419h195l397 -706l408 706h188l-516 -864v-555h-168v555z" />
<glyph unicode="Z" horiz-adv-x="1130" d="M45 0v176l848 1088h-809v155h995v-180l-846 -1083h854v-156h-1042z" />
<glyph unicode="[" horiz-adv-x="493" d="M147 -340v1878h347v-117h-203v-1644h203v-117h-347z" />
<glyph unicode="\" horiz-adv-x="753" d="M-37 1554h146l682 -1914h-146z" />
<glyph unicode="]" horiz-adv-x="493" d="M0 -223h203v1644h-203v117h346v-1878h-346v117z" />
<glyph unicode="^" horiz-adv-x="1007" d="M102 973l320 563h162l321 -563h-182l-219 385l-219 -385h-183z" />
<glyph unicode="_" horiz-adv-x="1040" d="M0 -201h1040v-133h-1040v133z" />
<glyph unicode="`" horiz-adv-x="430" d="M-47 1411l133 107l242 -336l-101 -82z" />
<glyph unicode="a" horiz-adv-x="1044" d="M82 279q0 76 34 132t88 93t120.5 56.5t132.5 21.5l315 10v86q0 117 -61.5 165t-171.5 48q-115 0 -168.5 -44t-75.5 -132h-168q2 57 28.5 113.5t78 101.5t127 71.5t178.5 26.5q113 0 187.5 -29.5t120.5 -84t65.5 -131t19.5 -169.5v-473q0 -39 1 -65.5t3 -42.5q2 -20 6 -33 h-149q-4 12 -7 33q-2 16 -3 42.5t-1 67.5q-41 -68 -124 -115.5t-197 -47.5q-70 0 -137.5 16t-122 52t-87 92.5t-32.5 138.5zM246 279q0 -72 62.5 -117t160.5 -45q68 0 124 22.5t96 61.5t62.5 90t22.5 110v60l-307 -10q-111 -4 -166 -45t-55 -127z" />
<glyph unicode="b" horiz-adv-x="1140" d="M137 0v1442h160v-561q47 66 121 105.5t174 39.5q123 0 212 -38t147.5 -107.5t87 -164.5t28.5 -212q0 -252 -122 -388t-347 -136q-49 0 -95 13t-86 36.5t-73 53.5t-53 62v-145h-154zM293 473q0 -66 17.5 -129t54 -114.5t93 -82t134.5 -30.5q82 0 140.5 30.5t96 84t55 123 t17.5 147.5t-17.5 148.5t-55 124.5t-96 86t-140.5 32q-74 0 -130 -29.5t-93 -81t-55.5 -119t-20.5 -143.5v-47z" />
<glyph unicode="c" horiz-adv-x="1077" d="M74 504q0 117 27.5 212t86 164.5t148.5 107.5t213 38q88 0 163.5 -24.5t134 -69.5t97.5 -109.5t53 -144.5h-176q-29 106 -98.5 160.5t-173.5 54.5q-82 0 -140.5 -32t-96.5 -86t-55 -124.5t-17 -148.5t17 -147.5t55 -123t96.5 -84t140.5 -30.5q131 0 196.5 67.5 t83.5 182.5h175q-27 -193 -146 -291.5t-309 -98.5q-236 0 -355.5 137.5t-119.5 389.5z" />
<glyph unicode="d" horiz-adv-x="1140" d="M74 504q0 117 27.5 212t86 164.5t148.5 107.5t213 38q100 0 174 -36t121 -101v553h160v-1442h-154v139q-20 -33 -53 -62.5t-73 -51t-86 -33.5t-95 -12q-225 0 -347 136t-122 388zM240 502q0 -78 17 -147.5t55 -123t96.5 -84t140.5 -30.5q76 0 132 30.5t93 82t55.5 115 t18.5 128.5v47q-2 76 -20.5 143.5t-55.5 119t-93 81t-130 29.5q-82 0 -140.5 -32t-96.5 -86t-55 -124.5t-17 -148.5z" />
<glyph unicode="e" horiz-adv-x="1081" d="M74 502q0 133 33.5 232.5t97 164t150.5 96t196 31.5q102 0 185 -32.5t142.5 -97.5t92.5 -162t33 -228v-37h-764q2 -72 21.5 -136.5t58 -113.5t97 -77.5t138.5 -28.5q111 0 180.5 51t104.5 170h168q-41 -195 -158 -276t-295 -81q-127 0 -217 40t-149.5 110t-87 166 t-27.5 209zM240 596h594q-4 59 -25 113.5t-56.5 94.5t-87 63.5t-114.5 23.5t-118.5 -23.5t-97.5 -63.5t-66.5 -93.5t-28.5 -114.5z" />
<glyph unicode="f" horiz-adv-x="675" d="M31 872v134h176v184q0 121 63.5 192.5t188.5 71.5q37 0 88 -3t88 -9v-129q-31 4 -74 5t-55 1q-135 0 -135 -164v-149h264v-134h-264v-872h-164v872h-176z" />
<glyph unicode="g" horiz-adv-x="1136" d="M74 506q0 248 122.5 384t350.5 136q98 0 175 -34t124 -103v117h160v-1031q0 -96 -33 -170.5t-91.5 -127t-139 -80t-175.5 -27.5q-211 0 -322.5 71.5t-133.5 247.5h170q16 -86 78.5 -134t185.5 -48q61 0 116.5 17.5t95.5 52.5t63.5 86t23.5 119v135q-37 -45 -80 -73 t-83 -42t-75 -18t-59 -4q-121 0 -210 38.5t-147.5 108.5t-87 167t-28.5 212zM242 504q0 -86 19.5 -157t58 -122t97 -79.5t136.5 -28.5q80 0 136 33.5t92 88t52.5 124t16.5 141.5t-16.5 141.5t-52.5 124.5t-93 89t-137 34q-78 0 -136.5 -28.5t-96 -81t-57 -123t-19.5 -156.5z " />
<glyph unicode="h" d="M131 0v1419h162v-545q49 68 132 111t177 43q193 0 303.5 -85t110.5 -277v-666h-162v641q0 59 -21.5 105.5t-59.5 79t-89 49t-111 16.5q-125 0 -202.5 -74t-77.5 -203v-614h-162z" />
<glyph unicode="i" horiz-adv-x="454" d="M141 1260v182h174v-182h-174zM147 0v1006h162v-1006h-162z" />
<glyph unicode="j" horiz-adv-x="425" d="M0 -268v-148h45q127 0 189.5 70t62.5 192v1160h-162v-1131q0 -78 -31.5 -110.5t-85.5 -32.5h-18zM129 1260v182h174v-182h-174z" />
<glyph unicode="k" horiz-adv-x="1032" d="M141 0v1419h162v-932l498 519h211l-424 -435l434 -571h-199l-348 444l-172 -172v-272h-162z" />
<glyph unicode="l" horiz-adv-x="442" d="M141 0v1419h162v-1419h-162z" />
<glyph unicode="m" horiz-adv-x="1716" d="M131 0v1006h156v-115q49 66 118.5 101.5t161.5 35.5q143 0 218 -41t112 -115q96 156 315 156q201 0 287 -88t86 -274v-666h-162v641q0 129 -60 189.5t-179 60.5t-181.5 -69.5t-62.5 -207.5v-614h-162v641q0 129 -60.5 189.5t-178.5 60.5q-246 0 -246 -277v-614h-162z" />
<glyph unicode="n" d="M131 0v1006h156v-132q49 68 135 111t180 43q193 0 303.5 -85t110.5 -277v-666h-162v641q0 59 -21.5 105.5t-59.5 79t-89 49t-111 16.5q-125 0 -202.5 -74t-77.5 -203v-614h-162z" />
<glyph unicode="o" horiz-adv-x="1097" d="M74 504q0 117 27.5 212t86 164.5t148.5 107.5t213 38t212 -38t147.5 -107.5t87 -164.5t28.5 -212q0 -252 -120 -389.5t-355 -137.5q-236 0 -355.5 137.5t-119.5 389.5zM240 502q0 -78 17 -147.5t55 -123t96.5 -84t140.5 -30.5t140.5 30.5t96 84t55 123t17.5 147.5 t-17.5 148.5t-55 124.5t-96 86t-140.5 32t-140.5 -32t-96.5 -86t-55 -124.5t-17 -148.5z" />
<glyph unicode="p" horiz-adv-x="1134" d="M131 -416v1422h160v-125q47 66 120.5 105.5t174.5 39.5q123 0 212 -38t147.5 -107.5t87 -164.5t28.5 -212q0 -252 -122 -388t-347 -136q-49 0 -95 12t-86 33.5t-73 51t-53 62.5v-555h-154zM287 473q0 -66 17.5 -129t54 -114.5t93 -82t134.5 -30.5q82 0 140 30.5t96 84 t55.5 123t17.5 147.5t-17.5 148.5t-55.5 124.5t-96 86t-140 32q-74 0 -130.5 -29.5t-93 -81t-55 -119t-20.5 -143.5v-47z" />
<glyph unicode="q" horiz-adv-x="1140" d="M74 504q0 117 27.5 212t86 164.5t148.5 107.5t213 38q100 0 174 -36t121 -101v117h160v-1422h-154v553q-20 -33 -53 -61.5t-73 -50t-86 -33.5t-95 -12q-225 0 -347 136t-122 388zM240 502q0 -78 17 -147.5t55 -123t96.5 -84t140.5 -30.5q76 0 132 30.5t93 82t55.5 115 t18.5 128.5v47q-2 76 -20.5 143.5t-55.5 119t-93 81t-130 29.5q-82 0 -140.5 -32t-96.5 -86t-55 -124.5t-17 -148.5z" />
<glyph unicode="r" horiz-adv-x="727" d="M125 0v1006h156v-142q37 66 116.5 115t180.5 49q29 0 58.5 -4t49.5 -8v-146q-23 8 -53 11.5t-55 3.5q-143 0 -217 -78t-74 -260v-547h-162z" />
<glyph unicode="s" horiz-adv-x="927" d="M66 283h163q20 -172 242 -172q39 0 80 7t74.5 25.5t55 51t21.5 84.5q0 68 -45 98.5t-113.5 45.5t-148.5 26.5t-148.5 40t-113.5 83t-45 158.5q0 78 29.5 133.5t80 91t117 53t140.5 17.5q82 0 150.5 -20.5t117.5 -58.5t76.5 -92t27.5 -124h-153q-6 82 -65.5 122t-155.5 40 q-41 0 -78 -8t-65.5 -25.5t-46 -44.5t-17.5 -63q0 -72 46 -106t113.5 -50t148.5 -27.5t148.5 -40t113.5 -86t46 -166.5q0 -84 -35.5 -141t-93 -92t-126 -50.5t-136.5 -15.5q-90 0 -164 20.5t-128 59.5t-83.5 96.5t-29.5 129.5z" />
<glyph unicode="t" horiz-adv-x="638" d="M31 872v134h157v294h162v-294h248v-134h-248v-606q0 -74 31 -108.5t104 -34.5q16 0 36 1t36 3q20 2 39 6v-133q-16 -4 -38.5 -6t-44 -4t-41 -2h-32.5q-127 0 -189.5 71.5t-62.5 192.5v620h-157z" />
<glyph unicode="u" d="M131 340v666h162v-641q0 -59 21.5 -105.5t59.5 -79.5t89 -49t110 -16q125 0 203 73.5t78 202.5v615h162v-1006h-156v137q-49 -68 -135 -114t-180 -46q-193 0 -303.5 85t-110.5 278z" />
<glyph unicode="v" horiz-adv-x="1028" d="M29 1006h170l313 -813l317 813h170l-405 -1006h-168z" />
<glyph unicode="w" horiz-adv-x="1587" d="M39 1006h170l240 -791l266 791h157l267 -791l239 791h170l-323 -1006h-166l-266 797l-265 -797h-166z" />
<glyph unicode="x" horiz-adv-x="1007" d="M23 0l389 522l-367 484h203l262 -355l252 355h203l-367 -484l387 -522h-201l-282 385l-277 -385h-202z" />
<glyph unicode="y" horiz-adv-x="1015" d="M20 1006h170l314 -816l319 816h172l-485 -1172q-18 -47 -41 -88t-52.5 -71.5t-67.5 -48t-89 -17.5q-45 0 -76.5 5t-60.5 15v133q12 -4 27 -6q12 -2 29.5 -3t39.5 -1q51 0 83 24.5t53.5 61.5t34.5 80t28 80z" />
<glyph unicode="z" horiz-adv-x="933" d="M53 0v129l621 735h-586v142h789v-129l-621 -736h625v-141h-828z" />
<glyph unicode="{" horiz-adv-x="696" d="M98 528v142h64q92 0 115.5 43t23.5 123v446q0 135 60.5 195.5t191.5 60.5h94v-117h-61q-82 0 -112 -37.5t-30 -111.5v-471q0 -66 -23.5 -117t-96.5 -86q74 -35 97 -86t23 -115v-471q0 -74 30 -111.5t112 -37.5h61v-117h-94q-131 0 -191.5 60.5t-60.5 195.5v446 q0 80 -23.5 123t-115.5 43h-64z" />
<glyph unicode="|" horiz-adv-x="448" d="M158 -340v1878h133v-1878h-133z" />
<glyph unicode="}" horiz-adv-x="696" d="M49 -223h62q82 0 111.5 38t29.5 111v471q0 63 23.5 114.5t97.5 86.5q-74 35 -97.5 86t-23.5 117v471q0 74 -29.5 111.5t-111.5 37.5h-62v117h94q131 0 191.5 -60.5t60.5 -195.5v-446q0 -80 23.5 -123t116.5 -43h63v-142h-63q-92 0 -116 -43t-24 -123v-446 q0 -135 -60.5 -195.5t-191.5 -60.5h-94v117z" />
<glyph unicode="~" horiz-adv-x="1333" d="M141 606q70 61 143.5 104.5t166.5 43.5q63 0 121.5 -17.5t111.5 -39t101.5 -39t95.5 -17.5q70 0 117.5 28.5t86.5 65.5l107 -104q-72 -70 -140.5 -109t-170.5 -39q-61 0 -116.5 17.5t-108 39t-103.5 40t-104 18.5q-66 0 -115 -28.5t-90 -69.5z" />
<glyph unicode="&#xa1;" horiz-adv-x="495" d="M152 805v201h192v-201h-192zM154 -53l32 624h123l33 -624v-361h-188v361z" />
<glyph unicode="&#xa2;" horiz-adv-x="1103" d="M94 698q0 106 24.5 197.5t75 159t127 109.5t183.5 53v227h133v-227q150 -18 252 -108.5t129 -236.5h-176q-47 174 -205 207v-764q98 16 147.5 82t65.5 164h174q-25 -174 -126 -272.5t-261 -114.5v-194h-133v194q-205 20 -307.5 155.5t-102.5 368.5zM260 696 q0 -70 14.5 -133t43 -113.5t74.5 -85t112 -47.5v764q-66 -12 -112 -48t-74.5 -87t-43 -115.5t-14.5 -134.5z" />
<glyph unicode="&#xa3;" horiz-adv-x="1101" d="M96 0v160h154v495h-117v138h117v231q0 92 29.5 169t83 132t127 86t163.5 31t163 -28t124 -74t79 -105t28 -123h-166q-10 78 -74 126t-154 48q-111 0 -173 -66.5t-62 -189.5v-237h287v-138h-287v-495h323q70 0 114 34.5t54 106.5l168 -29q-16 -125 -93 -198.5t-220 -73.5 h-668z" />
<glyph unicode="&#xa4;" horiz-adv-x="1118" d="M51 258l162 162q-72 106 -72 246q0 135 70 243l-160 162l109 109l157 -158q51 35 111.5 55.5t132.5 20.5q70 0 130.5 -19.5t111.5 -54.5l155 156l109 -109l-158 -158q35 -53 53.5 -115.5t18.5 -131.5q0 -70 -19.5 -133.5t-54.5 -116.5l160 -158l-109 -108l-157 157 q-51 -35 -110.5 -54.5t-129.5 -19.5q-72 0 -132 19.5t-112 54.5l-157 -157zM295 666q0 -59 19.5 -112.5t55.5 -93.5t84 -62.5t107 -22.5q57 0 106.5 22.5t85 62.5t55 93t19.5 113q0 59 -19.5 112t-55 93t-85 62.5t-106.5 22.5q-59 0 -107 -22.5t-84 -62.5t-55.5 -93 t-19.5 -112z" />
<glyph unicode="&#xa5;" horiz-adv-x="1187" d="M0 1419h195l397 -706l407 706h189l-422 -706h270v-150h-360l-4 -8v-141h364v-150h-364v-264h-168v264h-354v150h354v141l-6 8h-348v150h262z" />
<glyph unicode="&#xa6;" horiz-adv-x="448" d="M158 -340v825h133v-825h-133zM158 713v825h133v-825h-133z" />
<glyph unicode="&#xa7;" horiz-adv-x="972" d="M72 776q0 78 45 140.5t104 103.5q-47 45 -70.5 96t-23.5 117q0 72 29.5 124t79 85t114 48t131.5 15q166 0 249 -79.5t83 -217.5h-141q0 78 -56.5 119t-134.5 41q-199 0 -198 -135q0 -63 45 -106.5t112.5 -78t146.5 -67.5t146.5 -77t112.5 -105.5t45 -155.5 q0 -74 -39 -135.5t-100 -101.5q47 -41 67.5 -94.5t20.5 -118.5q0 -72 -33 -126.5t-84 -90t-114.5 -53t-127.5 -17.5q-84 0 -155.5 20.5t-123.5 60.5t-82 101.5t-30 144.5h156q0 -35 13 -70.5t41 -63t73 -45t108 -17.5q37 0 73 9t64.5 27.5t46 48.5t17.5 71q0 63 -45 108 t-112.5 82t-147.5 73t-147.5 79t-112.5 101t-45 140zM223 793q0 -53 48 -97.5t116 -83.5t141.5 -72.5t124.5 -66.5q86 63 86 170q0 37 -20.5 67.5t-63.5 61.5t-111.5 68t-164.5 86l-55 28q-53 -29 -77 -66.5t-24 -94.5z" />
<glyph unicode="&#xa8;" horiz-adv-x="374" d="M-57 1077v178h155v-178h-155zM274 1077v178h158v-178h-158z" />
<glyph unicode="&#xa9;" horiz-adv-x="1497" d="M49 709q0 162 52.5 296t145.5 230t223 149.5t284 53.5q164 0 293 -55.5t218 -152.5t136 -231t47 -290q-4 -160 -53 -294t-138.5 -230.5t-216.5 -150.5t-286 -54q-160 0 -290 57t-222 156.5t-142.5 232.5t-50.5 283zM199 709q0 -127 41 -234.5t114.5 -187.5t175 -125 t224.5 -45q127 0 228 49t172 131t108.5 189.5t37.5 222.5q0 123 -39.5 231.5t-111.5 188t-172 125.5t-223 46q-129 -4 -231.5 -51t-175.5 -127t-110.5 -186.5t-37.5 -226.5zM393 711q0 88 21.5 159.5t65.5 124t113 81t163 28.5q152 0 238.5 -67.5t109.5 -190.5h-156 q-16 55 -65 91t-127 36q-57 0 -97.5 -21.5t-65 -57.5t-35.5 -84t-11 -101t11 -99.5t35.5 -81t64.5 -55t98 -20.5q90 0 143 43t64 114h149q-23 -143 -111 -220t-245 -77q-180 0 -271.5 103.5t-91.5 294.5z" />
<glyph unicode="&#xaa;" horiz-adv-x="573" d="M51 915q0 49 18.5 80t48 50.5t66.5 27.5t74 10h133q0 57 -15.5 96.5t-72.5 39.5q-29 0 -55.5 -10.5t-36.5 -59.5h-135q2 33 16 63.5t43 55t71 40t97 15.5q61 0 102 -16.5t66 -46t34 -71.5t9 -93v-265q0 -20 1 -33.5t3 -23.5t4 -18h-86q-4 6 -6 14t-3 22.5t-1 36.5 q-23 -37 -65 -58t-101 -21q-92 0 -150.5 39.5t-58.5 125.5zM176 926q0 -29 18.5 -48.5t69.5 -19.5q76 0 103.5 21.5t27.5 91.5v24h-98q-45 0 -83 -12t-38 -57z" />
<glyph unicode="&#xab;" horiz-adv-x="1212" d="M102 504l328 461h191l-328 -461l328 -459h-191zM561 504l328 461h190l-327 -461l327 -459h-190z" />
<glyph unicode="&#xac;" horiz-adv-x="1021" d="M98 582v151h826v-545h-158v394h-668z" />
<glyph unicode="&#xad;" horiz-adv-x="796" d="M102 524v150h592v-150h-592z" />
<glyph unicode="&#xae;" horiz-adv-x="1136" d="M131 1075q0 96 27.5 181t83 147.5t136.5 99.5t189 37q109 0 191 -37t137 -99.5t83 -147.5t28 -181t-28 -181t-83 -147.5t-137 -98.5t-191 -36t-189.5 36t-136 98.5t-83 147.5t-27.5 181zM223 1075q0 -78 21.5 -146.5t64.5 -118.5t107.5 -80t150.5 -30t151.5 30t108.5 80 t64.5 118.5t21.5 146.5t-21.5 146.5t-64.5 119t-108.5 80t-151.5 29.5t-150.5 -29.5t-107.5 -80t-64.5 -119t-21.5 -146.5zM375 811v530h178q82 0 138.5 -36.5t56.5 -126.5q0 -59 -32 -99.5t-93 -50.5l139 -217h-103l-131 207h-61v-207h-92zM467 1100h102q47 0 67.5 21.5 t20.5 64.5q0 33 -20.5 52t-67.5 19h-102v-157z" />
<glyph unicode="&#xb0;" horiz-adv-x="815" d="M115 1098q0 68 22.5 123t62.5 95t93 62.5t115 22.5q61 0 114 -22.5t93 -63.5t62.5 -96.5t22.5 -120.5q0 -66 -22.5 -121t-62.5 -96t-93 -63.5t-114 -22.5t-114.5 22.5t-93.5 63.5t-62.5 96t-22.5 121zM246 1098q0 -72 47 -120t115 -48t114.5 48t46.5 120t-47 120t-114 48 q-68 0 -115 -47t-47 -121z" />
<glyph unicode="&#xb1;" horiz-adv-x="1085" d="M98 608v152h369v332h151v-332h369v-152h-369v-327h-151v327h-369zM125 0v160h842v-160h-842z" />
<glyph unicode="&#xb2;" horiz-adv-x="581" d="M29 715v90q0 82 28.5 136t71.5 93t94 67.5t94 58.5t72 66t29 89q0 115 -119 115q-74 0 -101.5 -32t-29.5 -89h-129q2 111 69.5 175t190.5 64q117 0 183.5 -60.5t66.5 -162.5q0 -78 -28.5 -130t-70.5 -89t-91.5 -64.5t-91.5 -56.5t-70.5 -63.5t-28.5 -85.5h393v-121h-532z " />
<glyph unicode="&#xb3;" horiz-adv-x="583" d="M8 950h123q4 -72 51 -102.5t111 -30.5q76 0 111.5 36t35.5 93q0 66 -32.5 103.5t-124.5 37.5h-35v103h35q41 0 66.5 10t39.5 28.5t19.5 43t5.5 51.5q0 18 -6.5 37.5t-19.5 36t-34.5 28t-54.5 11.5q-66 0 -98.5 -28t-36.5 -93h-131q4 113 70.5 176t189.5 63 q125 0 189.5 -60t64.5 -171q0 -133 -92 -178q115 -47 114 -197q0 -47 -17 -91t-52 -78t-87.5 -54t-119.5 -20q-129 0 -205 67.5t-80 177.5z" />
<glyph unicode="&#xb4;" horiz-adv-x="501" d="M102 1610l318 282l106 -133l-342 -250z" />
<glyph unicode="&#xb5;" d="M131 -416v1422h162v-641q0 -59 21.5 -105.5t59.5 -79.5t89 -49t110 -16q125 0 203 73.5t78 202.5v615h162v-1006h-156v137q-49 -68 -135 -114t-180 -46q-82 0 -147.5 25t-110.5 76v-494h-156z" />
<glyph unicode="&#xb6;" horiz-adv-x="1255" d="M98 1034q0 78 23.5 148.5t66.5 123t105.5 83t142.5 30.5h645v-129h-157v-1560h-131v1554h-228v-1554h-129v929q-82 2 -145.5 33t-106.5 82t-64.5 117.5t-21.5 142.5z" />
<glyph unicode="&#xb8;" horiz-adv-x="339" d="M10 -233l66 43q31 -51 82 -52q35 0 57.5 22.5t22.5 63.5q0 37 -22.5 58.5t-57.5 21.5q-45 0 -70 -18l-65 47l65 149h105l-50 -108q14 6 52 6q63 0 103 -45t40 -111q0 -86 -47 -127t-133 -41q-59 0 -95 28t-53 63z" />
<glyph unicode="&#xb9;" horiz-adv-x="600" d="M135 1311v86q68 0 117 34.5t49 88.5v14h127v-819h-135v596h-158z" />
<glyph unicode="&#xba;" horiz-adv-x="612" d="M51 1135q0 129 61.5 206.5t192.5 77.5q133 0 194.5 -77.5t61.5 -206.5q0 -137 -64.5 -211t-191.5 -74q-125 0 -189.5 73.5t-64.5 211.5zM164 1135q0 -72 32.5 -125.5t108.5 -53.5t110 53.5t34 125.5t-34 126t-110 54t-108.5 -54.5t-32.5 -125.5z" />
<glyph unicode="&#xbb;" horiz-adv-x="1212" d="M133 45l328 459l-328 461h191l327 -461l-327 -459h-191zM592 45l328 459l-328 461h190l328 -461l-328 -459h-190z" />
<glyph unicode="&#xbc;" horiz-adv-x="1499" d="M74 1186v86q68 0 117 34.5t49 88.5v14h127v-825h-136v602h-157zM190 -23l861 1528l125 -63l-863 -1532zM791 147v80l358 598h162v-563h84v-115h-84v-147h-129v147h-391zM938 262h244v412z" />
<glyph unicode="&#xbd;" horiz-adv-x="1460" d="M74 1186v86q68 0 117 34.5t49 88.5v14h127v-825h-136v602h-157zM190 -23l861 1528l125 -63l-863 -1532zM864 0v90q0 82 29 136.5t72 93t94 67.5t94 58.5t71.5 65.5t28.5 89q0 115 -118 115q-74 0 -101.5 -32t-29.5 -89h-130q2 111 70 175.5t191 64.5q117 0 183 -60.5 t66 -163.5q0 -78 -28.5 -130t-70.5 -89t-91 -64.5t-91 -56t-70.5 -63.5t-28.5 -86h393v-121h-533z" />
<glyph unicode="&#xbe;" horiz-adv-x="1679" d="M100 811h123q4 -72 51.5 -102.5t110.5 -30.5q76 0 111.5 36t35.5 93q0 66 -32.5 103.5t-124.5 37.5h-35v103h35q41 0 66.5 10t40 28.5t19.5 43t5 51.5q0 18 -6 37.5t-19.5 36t-35 27.5t-54.5 11q-66 0 -98.5 -27.5t-36.5 -92.5h-131q4 113 70.5 176t189.5 63 q125 0 189.5 -60.5t64.5 -170.5q0 -133 -92 -178q115 -47 115 -197q0 -47 -17.5 -91t-52.5 -78t-87 -54.5t-120 -20.5q-129 0 -205 67.5t-80 178.5zM410 -23l860 1528l125 -63l-863 -1532zM1006 147v80l358 598h162v-563h84v-115h-84v-147h-129v147h-391zM1153 262h244v412z " />
<glyph unicode="&#xbf;" horiz-adv-x="1069" d="M139 -63q0 100 48.5 187t140.5 169q37 33 61.5 58.5t38.5 52t20.5 55t6.5 65.5v47h168v-49q0 -127 -27 -182q-23 -55 -70 -96t-95 -83t-84 -94.5t-36 -129.5q0 -111 63.5 -172.5t176.5 -61.5q125 0 179 68.5t58 195.5h175v-22q0 -100 -32 -173t-87.5 -119t-130 -67.5 t-162.5 -21.5q-90 0 -166 25.5t-130 73.5t-85 117t-31 157zM430 795v211h211v-211h-211z" />
<glyph unicode="&#xc0;" horiz-adv-x="1241" d="M-14 0l553 1419h161l557 -1419h-180l-141 373h-637l-139 -373h-174zM356 518h525l-263 699zM362 1767l113 127l297 -284l-82 -99z" />
<glyph unicode="&#xc1;" horiz-adv-x="1241" d="M-14 0l553 1419h161l557 -1419h-180l-141 373h-637l-139 -373h-174zM356 518h525l-263 699zM469 1606l297 282l113 -127l-326 -256z" />
<glyph unicode="&#xc2;" horiz-adv-x="1241" d="M-14 0l553 1419h161l557 -1419h-180l-141 373h-637l-139 -373h-174zM326 1599l227 211h133l227 -211l-84 -94l-211 191l-206 -191zM356 518h525l-263 699z" />
<glyph unicode="&#xc3;" horiz-adv-x="1241" d="M-14 0l553 1419h161l557 -1419h-180l-141 373h-637l-139 -373h-174zM274 1561q8 51 29 85.5t49.5 55t63.5 30t71 9.5q33 0 69 -13.5t71 -29t67.5 -27.5t59.5 -12q29 0 54.5 9t47.5 50h113q-6 -47 -26.5 -81.5t-50.5 -57.5t-67 -33t-73 -10q-35 0 -69 13.5t-66.5 29.5 t-65.5 29.5t-66 13.5q-29 0 -55 -9t-49 -52h-107zM356 518h525l-263 699z" />
<glyph unicode="&#xc4;" horiz-adv-x="1241" d="M-14 0l553 1419h161l557 -1419h-180l-141 373h-637l-139 -373h-174zM299 1556v193h176v-193h-176zM356 518h525l-263 699zM725 1556v193h176v-193h-176z" />
<glyph unicode="&#xc5;" horiz-adv-x="1241" d="M-14 0l522 1343q-53 33 -90 87.5t-37 117.5q0 51 20.5 95.5t54 77t78 52t91.5 19.5q49 0 93 -20.5t76.5 -54.5t52 -78t19.5 -91q0 -63 -39 -118.5t-96 -86.5h-2l528 -1343h-180l-141 373h-637l-139 -373h-174zM356 518h525l-263 699zM489 1548q0 -53 37 -89t88 -40h21 q53 4 88 43t35 86q0 53 -38 94t-95 41q-61 0 -98.5 -42t-37.5 -93z" />
<glyph unicode="&#xc6;" horiz-adv-x="1720" d="M-14 0l655 1419h997v-155h-675v-478h634v-151h-634v-479h694v-156h-864v373h-463l-170 -373h-174zM387 518h406v746h-62z" />
<glyph unicode="&#xc7;" horiz-adv-x="1275" d="M88 713q0 141 25.5 272t90 232.5t175 163t280.5 61.5q131 0 227.5 -34t161 -95.5t99.5 -144.5t43 -181h-176q-6 57 -29.5 109.5t-67 92.5t-103.5 63.5t-140 23.5h-27q-117 0 -191.5 -46t-118.5 -125t-61.5 -180.5t-17.5 -211.5q0 -104 15.5 -207t58.5 -183.5t118.5 -130 t196.5 -49.5h25q88 0 152.5 28t107.5 73t63.5 100t20.5 111h178q-8 -98 -38 -181.5t-87 -144.5t-141 -99t-199 -46l-29 -82q14 6 52 6q63 0 103 -45t40 -111q0 -86 -47 -127t-133 -41q-59 0 -95 28t-53 62l66 43q31 -51 82 -51q35 0 57.5 22.5t22.5 63.5q0 37 -22.5 58.5 t-57.5 21.5q-45 0 -70 -18l-65 47l43 121q-154 6 -256.5 68.5t-164 162.5t-88 229t-26.5 271z" />
<glyph unicode="&#xc8;" horiz-adv-x="1140" d="M160 0v1419h887v-155h-717v-478h676v-151h-676v-479h735v-156h-905zM354 1767l113 127l299 -284l-84 -99z" />
<glyph unicode="&#xc9;" horiz-adv-x="1140" d="M160 0v1419h887v-155h-717v-478h676v-151h-676v-479h735v-156h-905zM428 1610l317 282l107 -133l-342 -250z" />
<glyph unicode="&#xca;" horiz-adv-x="1140" d="M160 0v1419h887v-155h-717v-478h676v-151h-676v-479h735v-156h-905zM319 1599l228 211h131l229 -211l-86 -94l-209 191l-209 -191z" />
<glyph unicode="&#xcb;" horiz-adv-x="1140" d="M160 0v1419h887v-155h-717v-478h676v-151h-676v-479h735v-156h-905zM317 1559v190h172v-190h-172zM739 1559v190h172v-190h-172z" />
<glyph unicode="&#xcc;" horiz-adv-x="540" d="M-8 1761l112 127l297 -282l-84 -101zM170 0v1419h170v-1419h-170z" />
<glyph unicode="&#xcd;" horiz-adv-x="540" d="M141 1606l299 282l111 -127l-326 -256zM209 0v1419h170v-1419h-170z" />
<glyph unicode="&#xce;" horiz-adv-x="503" d="M-41 1604l229 211h134l225 -211l-86 -93l-209 189l-209 -189zM166 0v1419h170v-1419h-170z" />
<glyph unicode="&#xcf;" horiz-adv-x="555" d="M-18 1563v192h172v-192h-172zM193 0v1419h169v-1419h-169zM406 1563v192h169v-192h-169z" />
<glyph unicode="&#xd0;" horiz-adv-x="1333" d="M82 666v139h115v614h434q315 0 462.5 -179t147.5 -531q0 -158 -29.5 -288t-99.5 -224.5t-184.5 -145.5t-284.5 -51h-446v666h-115zM367 154h276q127 0 210 37.5t131 110.5t67.5 175.5t19.5 231.5q0 283 -105.5 420t-334.5 137h-264v-461h333v-139h-333v-512z" />
<glyph unicode="&#xd1;" horiz-adv-x="1406" d="M158 0v1419h213l708 -1169v1169h168v-1419h-213l-708 1169v-1169h-168zM367 1563q10 51 32.5 84.5t52 55t63.5 31t67 9.5q37 0 69.5 -13.5t64.5 -28.5t65.5 -27.5t74.5 -12.5q23 0 44.5 10t41.5 49h119q-6 -45 -27.5 -77.5t-51.5 -54t-66.5 -32t-73.5 -10.5 q-41 0 -75 12.5t-65.5 26.5t-61.5 26.5t-60 12.5q-29 0 -52.5 -10t-46.5 -51h-114z" />
<glyph unicode="&#xd2;" horiz-adv-x="1302" d="M78 713q0 -145 27.5 -277.5t94 -234t176 -161.5t273.5 -60q166 0 276.5 60t177 161.5t94.5 233.5t28 278q0 141 -25.5 272t-90.5 232.5t-176.5 163t-283.5 61.5q-170 0 -280.5 -61.5t-175 -163t-90 -232.5t-25.5 -272zM248 713q0 111 17.5 212t61.5 180t118.5 125 t191.5 46h27q117 0 192.5 -46t119.5 -125t61.5 -180.5t17.5 -211.5q0 -104 -15.5 -207t-58.5 -183.5t-119.5 -130t-199.5 -49.5h-25q-121 0 -196.5 49.5t-118.5 130t-58.5 183t-15.5 207.5zM383 1767l111 127l299 -284l-84 -99z" />
<glyph unicode="&#xd3;" horiz-adv-x="1302" d="M78 713q0 -145 27.5 -277.5t94 -234t176 -161.5t273.5 -60q166 0 276.5 60t177 161.5t94.5 233.5t28 278q0 141 -25.5 272t-90.5 232.5t-176.5 163t-283.5 61.5q-170 0 -280.5 -61.5t-175 -163t-90 -232.5t-25.5 -272zM248 713q0 111 17.5 212t61.5 180t118.5 125 t191.5 46h27q117 0 192.5 -46t119.5 -125t61.5 -180.5t17.5 -211.5q0 -104 -15.5 -207t-58.5 -183.5t-119.5 -130t-199.5 -49.5h-25q-121 0 -196.5 49.5t-118.5 130t-58.5 183t-15.5 207.5zM479 1610l299 284l113 -127l-328 -256z" />
<glyph unicode="&#xd4;" horiz-adv-x="1302" d="M78 713q0 -145 27.5 -277.5t94 -234t176 -161.5t273.5 -60q166 0 276.5 60t177 161.5t94.5 233.5t28 278q0 141 -25.5 272t-90.5 232.5t-176.5 163t-283.5 61.5q-170 0 -280.5 -61.5t-175 -163t-90 -232.5t-25.5 -272zM248 713q0 111 17.5 212t61.5 180t118.5 125 t191.5 46h27q117 0 192.5 -46t119.5 -125t61.5 -180.5t17.5 -211.5q0 -104 -15.5 -207t-58.5 -183.5t-119.5 -130t-199.5 -49.5h-25q-121 0 -196.5 49.5t-118.5 130t-58.5 183t-15.5 207.5zM352 1604l228 211h135l225 -211l-86 -93l-209 189l-209 -189z" />
<glyph unicode="&#xd5;" horiz-adv-x="1302" d="M78 713q0 -145 27.5 -277.5t94 -234t176 -161.5t273.5 -60q166 0 276.5 60t177 161.5t94.5 233.5t28 278q0 141 -25.5 272t-90.5 232.5t-176.5 163t-283.5 61.5q-170 0 -280.5 -61.5t-175 -163t-90 -232.5t-25.5 -272zM248 713q0 111 17.5 212t61.5 180t118.5 125 t191.5 46h27q117 0 192.5 -46t119.5 -125t61.5 -180.5t17.5 -211.5q0 -104 -15.5 -207t-58.5 -183.5t-119.5 -130t-199.5 -49.5h-25q-121 0 -196.5 49.5t-118.5 130t-58.5 183t-15.5 207.5zM303 1573q8 51 28.5 86t49.5 55.5t63.5 29.5t71.5 9q33 0 69 -13.5t70.5 -28.5 t67.5 -27.5t59 -12.5q29 0 54.5 9.5t48.5 50.5h112q-6 -47 -26.5 -82t-50 -57.5t-66.5 -33t-74 -10.5q-35 0 -68.5 13.5t-66.5 30t-65.5 29.5t-65.5 13q-29 0 -55 -9t-49 -52h-107z" />
<glyph unicode="&#xd6;" horiz-adv-x="1302" d="M78 713q0 -145 27.5 -277.5t94 -234t176 -161.5t273.5 -60q166 0 276.5 60t177 161.5t94.5 233.5t28 278q0 141 -25.5 272t-90.5 232.5t-176.5 163t-283.5 61.5q-170 0 -280.5 -61.5t-175 -163t-90 -232.5t-25.5 -272zM248 713q0 111 17.5 212t61.5 180t118.5 125 t191.5 46h27q117 0 192.5 -46t119.5 -125t61.5 -180.5t17.5 -211.5q0 -104 -15.5 -207t-58.5 -183.5t-119.5 -130t-199.5 -49.5h-25q-121 0 -196.5 49.5t-118.5 130t-58.5 183t-15.5 207.5zM360 1550v193h170v-193h-170zM782 1550v193h168v-193h-168z" />
<glyph unicode="&#xd7;" horiz-adv-x="1077" d="M145 324l285 284l-285 283l111 110l285 -284l282 284l111 -110l-285 -283l285 -284l-113 -109l-282 283l-285 -283z" />
<glyph unicode="&#xd8;" horiz-adv-x="1298" d="M76 713q0 141 25.5 272t90 232.5t175 163t280.5 61.5q63 0 116.5 -8.5t100.5 -24.5l51 113h146l-78 -172q70 -49 116 -118t73.5 -152t39 -177t11.5 -190q0 -145 -28 -277.5t-94.5 -234t-177 -161.5t-276.5 -60q-74 0 -136 13t-116 36l-55 -123h-145l88 196 q-57 51 -97.5 118t-65 145.5t-34.5 167t-10 180.5zM246 713q0 -125 22.5 -244t87.5 -203l441 989q-29 10 -63 15.5t-72 5.5h-27q-117 0 -191.5 -46t-118.5 -125t-61.5 -180t-17.5 -212zM463 180q70 -37 172 -37h24q123 0 200 49.5t120 130t58.5 183t15.5 207.5 q0 143 -30 269t-112 204z" />
<glyph unicode="&#xd9;" horiz-adv-x="1390" d="M152 578v841h165v-817q0 -92 15.5 -177t57.5 -149.5t116 -102.5t190 -38q113 0 185.5 37t115.5 101.5t59.5 148.5t16.5 180v817h166v-841q0 -139 -29.5 -250t-95 -189t-168 -120t-246.5 -42q-164 0 -269 47.5t-166.5 128t-86 190.5t-26.5 235zM446 1763l111 127l297 -282 l-82 -101z" />
<glyph unicode="&#xda;" horiz-adv-x="1390" d="M152 578v841h165v-817q0 -92 15.5 -177t57.5 -149.5t116 -102.5t190 -38q113 0 185.5 37t115.5 101.5t59.5 148.5t16.5 180v817h166v-841q0 -139 -29.5 -250t-95 -189t-168 -120t-246.5 -42q-164 0 -269 47.5t-166.5 128t-86 190.5t-26.5 235zM530 1608l297 282l113 -127 l-328 -256z" />
<glyph unicode="&#xdb;" horiz-adv-x="1390" d="M152 578v841h165v-817q0 -92 15.5 -177t57.5 -149.5t116 -102.5t190 -38q113 0 185.5 37t115.5 101.5t59.5 148.5t16.5 180v817h166v-841q0 -139 -29.5 -250t-95 -189t-168 -120t-246.5 -42q-164 0 -269 47.5t-166.5 128t-86 190.5t-26.5 235zM397 1602l228 208h135 l225 -208l-86 -95l-209 189l-209 -189z" />
<glyph unicode="&#xdc;" horiz-adv-x="1390" d="M152 578v841h165v-817q0 -92 15.5 -177t57.5 -149.5t116 -102.5t190 -38q113 0 185.5 37t115.5 101.5t59.5 148.5t16.5 180v817h166v-841q0 -139 -29.5 -250t-95 -189t-168 -120t-246.5 -42q-164 0 -269 47.5t-166.5 128t-86 190.5t-26.5 235zM391 1556v193h176v-193 h-176zM817 1556v193h176v-193h-176z" />
<glyph unicode="&#xdd;" horiz-adv-x="1091" d="M4 1419h195l346 -688l356 688h186l-460 -846v-573h-170v573zM381 1608l299 282l111 -127l-326 -256z" />
<glyph unicode="&#xde;" horiz-adv-x="1171" d="M160 0v1419h176v-252h250q111 0 204 -23.5t160.5 -74.5t105.5 -129t38 -188q0 -119 -41 -199t-110 -128t-161 -68.5t-196 -20.5h-250v-336h-176zM336 498h299q70 4 123 18t89 43t53.5 76t17.5 117q0 63 -23 110t-61.5 79t-90 48.5t-108.5 16.5h-299v-508z" />
<glyph unicode="&#xdf;" horiz-adv-x="1304" d="M131 739v142h133v151q0 209 100.5 311.5t327.5 102.5q102 0 179 -26.5t127.5 -75t75 -115t24.5 -148.5q0 -92 -44 -165.5t-136 -98.5q70 -12 121 -48t84.5 -87t51 -112.5t17.5 -125.5q0 -215 -110.5 -341t-317.5 -126q-31 0 -75 4.5t-103 18.5v137q41 -12 75.5 -15 t67.5 -3q63 0 119.5 18.5t98.5 57t65.5 101t23.5 148.5q0 150 -92 222.5t-252 72.5h-71v142h71q49 0 93 13t78 38.5t53.5 63.5t19.5 85q0 102 -54.5 163t-189.5 61q-80 0 -131 -21.5t-81.5 -58.5t-42 -88.5t-11.5 -110.5v-1026h-162v739h-133z" />
<glyph unicode="&#xe0;" horiz-adv-x="1056" d="M74 279q0 76 33.5 132t88 93t121 56.5t132.5 21.5l315 10v86q0 117 -61.5 165t-172.5 48q-115 0 -168 -44t-75 -132h-168q2 57 28.5 113.5t77.5 101.5t127 71.5t178 26.5q113 0 188 -29.5t121 -84t65.5 -131t19.5 -169.5v-473q0 -39 1 -65.5t3 -42.5q2 -20 6 -33h-150 q-4 12 -6 33q-2 16 -3 42.5t-1 67.5q-41 -68 -124 -115.5t-197 -47.5q-70 0 -137.5 16t-122 52t-87 92.5t-32.5 138.5zM238 279q0 -72 62 -117t161 -45q68 0 124 22.5t96 61.5t62.5 90t22.5 110v60l-307 -10q-111 -4 -166 -45t-55 -127zM319 1411l134 105l239 -334l-98 -82z " />
<glyph unicode="&#xe1;" horiz-adv-x="1056" d="M74 279q0 76 33.5 132t88 93t121 56.5t132.5 21.5l315 10v86q0 117 -61.5 165t-172.5 48q-115 0 -168 -44t-75 -132h-168q2 57 28.5 113.5t77.5 101.5t127 71.5t178 26.5q113 0 188 -29.5t121 -84t65.5 -131t19.5 -169.5v-473q0 -39 1 -65.5t3 -42.5q2 -20 6 -33h-150 q-4 12 -6 33q-2 16 -3 42.5t-1 67.5q-41 -68 -124 -115.5t-197 -47.5q-70 0 -137.5 16t-122 52t-87 92.5t-32.5 138.5zM238 279q0 -72 62 -117t161 -45q68 0 124 22.5t96 61.5t62.5 90t22.5 110v60l-307 -10q-111 -4 -166 -45t-55 -127zM420 1200l237 334l134 -107 l-271 -309z" />
<glyph unicode="&#xe2;" horiz-adv-x="1056" d="M74 279q0 76 33.5 132t88 93t121 56.5t132.5 21.5l315 10v86q0 117 -61.5 165t-172.5 48q-115 0 -168 -44t-75 -132h-168q2 57 28.5 113.5t77.5 101.5t127 71.5t178 26.5q113 0 188 -29.5t121 -84t65.5 -131t19.5 -169.5v-473q0 -39 1 -65.5t3 -42.5q2 -20 6 -33h-150 q-4 12 -6 33q-2 16 -3 42.5t-1 67.5q-41 -68 -124 -115.5t-197 -47.5q-70 0 -137.5 16t-122 52t-87 92.5t-32.5 138.5zM238 279q0 -72 62 -117t161 -45q68 0 124 22.5t96 61.5t62.5 90t22.5 110v60l-307 -10q-111 -4 -166 -45t-55 -127zM268 1169l197 250h151l193 -250 l-98 -79l-172 213l-172 -213z" />
<glyph unicode="&#xe3;" horiz-adv-x="1056" d="M74 279q0 76 33.5 132t88 93t121 56.5t132.5 21.5l315 10v86q0 117 -61.5 165t-172.5 48q-115 0 -168 -44t-75 -132h-168q2 57 28.5 113.5t77.5 101.5t127 71.5t178 26.5q113 0 188 -29.5t121 -84t65.5 -131t19.5 -169.5v-473q0 -39 1 -65.5t3 -42.5q2 -20 6 -33h-150 q-4 12 -6 33q-2 16 -3 42.5t-1 67.5q-41 -68 -124 -115.5t-197 -47.5q-70 0 -137.5 16t-122 52t-87 92.5t-32.5 138.5zM195 1253q8 51 28.5 86t49 55.5t63.5 30t72 9.5q33 0 68.5 -13.5t70.5 -29t67.5 -27.5t59.5 -12q29 0 54.5 9t47.5 50h113q-6 -47 -26.5 -82t-50.5 -57.5 t-66.5 -32.5t-73.5 -10q-35 0 -69 13t-66.5 29.5t-65.5 30t-65 13.5q-29 0 -55.5 -9.5t-49.5 -52.5h-106zM238 279q0 -72 62 -117t161 -45q68 0 124 22.5t96 61.5t62.5 90t22.5 110v60l-307 -10q-111 -4 -166 -45t-55 -127z" />
<glyph unicode="&#xe4;" horiz-adv-x="1056" d="M74 279q0 76 33.5 132t88 93t121 56.5t132.5 21.5l315 10v86q0 117 -61.5 165t-172.5 48q-115 0 -168 -44t-75 -132h-168q2 57 28.5 113.5t77.5 101.5t127 71.5t178 26.5q113 0 188 -29.5t121 -84t65.5 -131t19.5 -169.5v-473q0 -39 1 -65.5t3 -42.5q2 -20 6 -33h-150 q-4 12 -6 33q-2 16 -3 42.5t-1 67.5q-41 -68 -124 -115.5t-197 -47.5q-70 0 -137.5 16t-122 52t-87 92.5t-32.5 138.5zM238 279q0 -72 62 -117t161 -45q68 0 124 22.5t96 61.5t62.5 90t22.5 110v60l-307 -10q-111 -4 -166 -45t-55 -127zM258 1229v182h170v-182h-170z M604 1229v182h168v-182h-168z" />
<glyph unicode="&#xe5;" horiz-adv-x="1056" d="M74 279q0 76 33.5 132t88 93t121 56.5t132.5 21.5l315 10v86q0 117 -61.5 165t-172.5 48q-115 0 -168 -44t-75 -132h-168q2 57 28.5 113.5t77.5 101.5t127 71.5t178 26.5q113 0 188 -29.5t121 -84t65.5 -131t19.5 -169.5v-473q0 -39 1 -65.5t3 -42.5q2 -20 6 -33h-150 q-4 12 -6 33q-2 16 -3 42.5t-1 67.5q-41 -68 -124 -115.5t-197 -47.5q-70 0 -137.5 16t-122 52t-87 92.5t-32.5 138.5zM238 279q0 -72 62 -117t161 -45q68 0 124 22.5t96 61.5t62.5 90t22.5 110v60l-307 -10q-111 -4 -166 -45t-55 -127zM324 1374q0 45 17 86t47 71t71 47 t88 17t87 -18t69.5 -49t47 -71t17.5 -83q0 -45 -17.5 -86t-48 -71.5t-70.5 -48t-85 -17.5q-47 0 -88 18.5t-71 49t-47 70.5t-17 85zM442 1374q0 -45 32 -72.5t71 -27.5q45 0 72.5 29.5t27.5 70.5q0 43 -29.5 72t-70.5 29q-43 0 -73 -30t-30 -71z" />
<glyph unicode="&#xe6;" horiz-adv-x="1742" d="M74 279q0 76 34.5 132t89 93t122 56.5t133.5 21.5l311 12v84q0 117 -59.5 165t-169.5 48q-117 0 -173.5 -44t-70.5 -132h-174q10 84 47 143.5t93 97t127 55t151 17.5q129 0 208.5 -41t122.5 -119q63 80 156.5 119t214.5 39q102 0 185 -32.5t142.5 -97.5t92.5 -162 t33 -228v-37h-762v-29q6 -68 26.5 -127t58.5 -103t94 -70.5t134 -26.5q111 0 180.5 51t104.5 170h168q-41 -195 -158 -276t-295 -81q-160 0 -262 60.5t-156 165.5q-29 -59 -69.5 -102.5t-90 -70t-102.5 -38.5t-104 -12q-70 0 -138.5 16t-123 52t-88 92.5t-33.5 138.5z M238 279q0 -72 62 -117t161 -45q68 0 124 22.5t96 61.5t62.5 90t22.5 110v60l-307 -10q-111 -4 -166 -45t-55 -127zM928 596h592q-4 59 -24.5 113.5t-56.5 94.5t-87.5 63.5t-114.5 23.5q-61 0 -114.5 -21.5t-94.5 -58.5t-67.5 -87t-32.5 -108v-20z" />
<glyph unicode="&#xe7;" horiz-adv-x="1067" d="M74 504q0 117 27.5 212t86 164.5t148.5 107.5t213 38q88 0 163.5 -24.5t134 -69.5t97.5 -109.5t53 -144.5h-176q-29 106 -98.5 160.5t-173.5 54.5q-82 0 -140.5 -32t-96.5 -86t-55 -124.5t-17 -148.5t17 -147.5t55 -123t96.5 -84t140.5 -30.5q131 0 196.5 67.5 t83.5 182.5h175q-25 -180 -132.5 -278.5t-277.5 -108.5l-33 -78q12 6 51 6q55 0 101 -41q43 -41 43 -119q0 -86 -47 -126t-134 -40q-59 0 -96 29t-53 63l68 39q35 -47 81 -47q33 0 55.5 21.5t22.5 60.5t-22.5 61.5t-55.5 22.5q-45 0 -69 -20l-68 49l51 119q-207 16 -311 152 t-104 372z" />
<glyph unicode="&#xe8;" horiz-adv-x="1054" d="M74 502q0 133 33.5 232.5t97 164t150.5 96t196 31.5q102 0 185 -32.5t142.5 -97.5t92.5 -162t33 -228v-37h-764q2 -72 21.5 -136.5t58 -113.5t97 -77.5t138.5 -28.5q111 0 180.5 51t104.5 170h168q-41 -195 -158 -276t-295 -81q-127 0 -217 40t-149.5 110t-87 166 t-27.5 209zM240 596h594q-4 59 -25 113.5t-56.5 94.5t-87 63.5t-114.5 23.5t-118.5 -23.5t-97.5 -63.5t-66.5 -93.5t-28.5 -114.5zM303 1409l133 107l242 -336l-100 -82z" />
<glyph unicode="&#xe9;" horiz-adv-x="1054" d="M74 502q0 133 33.5 232.5t97 164t150.5 96t196 31.5q102 0 185 -32.5t142.5 -97.5t92.5 -162t33 -228v-37h-764q2 -72 21.5 -136.5t58 -113.5t97 -77.5t138.5 -28.5q111 0 180.5 51t104.5 170h168q-41 -195 -158 -276t-295 -81q-127 0 -217 40t-149.5 110t-87 166 t-27.5 209zM240 596h594q-4 59 -25 113.5t-56.5 94.5t-87 63.5t-114.5 23.5t-118.5 -23.5t-97.5 -63.5t-66.5 -93.5t-28.5 -114.5zM395 1180l242 336l133 -107l-272 -311z" />
<glyph unicode="&#xea;" horiz-adv-x="1054" d="M74 502q0 133 33.5 232.5t97 164t150.5 96t196 31.5q102 0 185 -32.5t142.5 -97.5t92.5 -162t33 -228v-37h-764q2 -72 21.5 -136.5t58 -113.5t97 -77.5t138.5 -28.5q111 0 180.5 51t104.5 170h168q-41 -195 -158 -276t-295 -81q-127 0 -217 40t-149.5 110t-87 166 t-27.5 209zM240 596h594q-4 59 -25 113.5t-56.5 94.5t-87 63.5t-114.5 23.5t-118.5 -23.5t-97.5 -63.5t-66.5 -93.5t-28.5 -114.5zM264 1167l199 250h151l195 -250l-100 -77l-170 213l-172 -213z" />
<glyph unicode="&#xeb;" horiz-adv-x="1054" d="M74 502q0 133 33.5 232.5t97 164t150.5 96t196 31.5q102 0 185 -32.5t142.5 -97.5t92.5 -162t33 -228v-37h-764q2 -72 21.5 -136.5t58 -113.5t97 -77.5t138.5 -28.5q111 0 180.5 51t104.5 170h168q-41 -195 -158 -276t-295 -81q-127 0 -217 40t-149.5 110t-87 166 t-27.5 209zM240 596h594q-4 59 -25 113.5t-56.5 94.5t-87 63.5t-114.5 23.5t-118.5 -23.5t-97.5 -63.5t-66.5 -93.5t-28.5 -114.5zM281 1190v182h168v-182h-168zM623 1190v182h165v-182h-165z" />
<glyph unicode="&#xec;" horiz-adv-x="413" d="M0 1409l133 107l240 -336l-99 -82zM160 0v1006h162v-1006h-162z" />
<glyph unicode="&#xed;" horiz-adv-x="352" d="M61 1180l240 336l133 -107l-272 -311zM115 0v1006h161v-1006h-161z" />
<glyph unicode="&#xee;" horiz-adv-x="501" d="M-20 1167l196 250h152l194 -250l-100 -77l-170 213l-172 -213zM172 0v1006h162v-1006h-162z" />
<glyph unicode="&#xef;" horiz-adv-x="487" d="M-10 1190v182h166v-182h-166zM164 0v1006h162v-1006h-162zM332 1190v182h166v-182h-166z" />
<glyph unicode="&#xf0;" horiz-adv-x="1040" d="M74 500q0 115 25.5 211t81 166.5t139 110.5t200.5 40q25 0 49.5 -4t51.5 -10l-68 129h-262v127h194l-90 170h178l89 -170h186v-127h-119q86 -152 134 -255.5t71.5 -176t28 -121.5t4.5 -90q0 -115 -27 -211t-81 -166t-138 -110t-201 -40q-123 0 -208 42t-138 114 t-76.5 167t-23.5 204zM240 500q0 -72 14 -141.5t48 -124t87 -88t131 -33.5q80 0 134.5 36.5t87 94t46 126t13.5 130.5q0 70 -15.5 139.5t-48 124.5t-87 90t-130.5 35q-82 0 -136 -37t-86 -94.5t-45 -126t-13 -131.5z" />
<glyph unicode="&#xf1;" d="M131 0v1006h156v-132q49 68 135 111t180 43q193 0 303.5 -85t110.5 -277v-666h-162v641q0 59 -21.5 105.5t-59.5 79t-89 49t-111 16.5q-125 0 -202.5 -74t-77.5 -203v-614h-162zM219 1253q8 51 28.5 86t49.5 55.5t63.5 30t71.5 9.5q33 0 69 -13.5t70.5 -29t67.5 -27.5 t59 -12q29 0 54.5 9t48.5 50h112q-6 -47 -26.5 -82t-50 -57.5t-66.5 -32.5t-74 -10q-35 0 -68.5 13t-66.5 29.5t-65.5 30t-65.5 13.5q-29 0 -55 -9.5t-49 -52.5h-107z" />
<glyph unicode="&#xf2;" horiz-adv-x="1097" d="M74 504q0 117 27.5 212t86 164.5t148.5 107.5t213 38t212 -38t147.5 -107.5t87 -164.5t28.5 -212q0 -252 -120 -389.5t-355 -137.5q-236 0 -355.5 137.5t-119.5 389.5zM240 502q0 -78 17 -147.5t55 -123t96.5 -84t140.5 -30.5t140.5 30.5t96 84t55 123t17.5 147.5 t-17.5 148.5t-55 124.5t-96 86t-140.5 32t-140.5 -32t-96.5 -86t-55 -124.5t-17 -148.5zM322 1409l135 107l239 -336l-100 -82z" />
<glyph unicode="&#xf3;" horiz-adv-x="1097" d="M74 504q0 117 27.5 212t86 164.5t148.5 107.5t213 38t212 -38t147.5 -107.5t87 -164.5t28.5 -212q0 -252 -120 -389.5t-355 -137.5q-236 0 -355.5 137.5t-119.5 389.5zM240 502q0 -78 17 -147.5t55 -123t96.5 -84t140.5 -30.5t140.5 30.5t96 84t55 123t17.5 147.5 t-17.5 148.5t-55 124.5t-96 86t-140.5 32t-140.5 -32t-96.5 -86t-55 -124.5t-17 -148.5zM408 1180l239 336l133 -107l-274 -311z" />
<glyph unicode="&#xf4;" horiz-adv-x="1097" d="M74 504q0 117 27.5 212t86 164.5t148.5 107.5t213 38t212 -38t147.5 -107.5t87 -164.5t28.5 -212q0 -252 -120 -389.5t-355 -137.5q-236 0 -355.5 137.5t-119.5 389.5zM240 502q0 -78 17 -147.5t55 -123t96.5 -84t140.5 -30.5t140.5 30.5t96 84t55 123t17.5 147.5 t-17.5 148.5t-55 124.5t-96 86t-140.5 32t-140.5 -32t-96.5 -86t-55 -124.5t-17 -148.5zM279 1194l196 250h150l194 -250l-98 -80l-170 213l-174 -213z" />
<glyph unicode="&#xf5;" horiz-adv-x="1097" d="M74 504q0 117 27.5 212t86 164.5t148.5 107.5t213 38t212 -38t147.5 -107.5t87 -164.5t28.5 -212q0 -252 -120 -389.5t-355 -137.5q-236 0 -355.5 137.5t-119.5 389.5zM201 1253q8 51 28.5 86t49 55.5t63.5 30t72 9.5q33 0 68.5 -13.5t70.5 -29t67.5 -27.5t59.5 -12 q29 0 54.5 9t47.5 50h113q-6 -47 -26.5 -82t-50.5 -57.5t-66.5 -32.5t-73.5 -10q-35 0 -69 13t-66.5 29.5t-65.5 30t-65 13.5q-29 0 -55.5 -9.5t-49.5 -52.5h-106zM240 502q0 -78 17 -147.5t55 -123t96.5 -84t140.5 -30.5t140.5 30.5t96 84t55 123t17.5 147.5t-17.5 148.5 t-55 124.5t-96 86t-140.5 32t-140.5 -32t-96.5 -86t-55 -124.5t-17 -148.5z" />
<glyph unicode="&#xf6;" horiz-adv-x="1097" d="M74 504q0 117 27.5 212t86 164.5t148.5 107.5t213 38t212 -38t147.5 -107.5t87 -164.5t28.5 -212q0 -252 -120 -389.5t-355 -137.5q-236 0 -355.5 137.5t-119.5 389.5zM240 502q0 -78 17 -147.5t55 -123t96.5 -84t140.5 -30.5t140.5 30.5t96 84t55 123t17.5 147.5 t-17.5 148.5t-55 124.5t-96 86t-140.5 32t-140.5 -32t-96.5 -86t-55 -124.5t-17 -148.5zM293 1186v182h170v-182h-170zM637 1186v182h168v-182h-168z" />
<glyph unicode="&#xf7;" horiz-adv-x="1157" d="M98 551v151h961v-151h-961zM477 168v207h203v-207h-203zM477 879v208h203v-208h-203z" />
<glyph unicode="&#xf8;" horiz-adv-x="1089" d="M70 504q0 117 27.5 212t86 164.5t148.5 107.5t213 38q90 0 157 -20l35 77h142l-58 -129q102 -66 150.5 -181.5t48.5 -268.5q0 -252 -120 -389.5t-355 -137.5q-82 0 -150 19l-30 -74h-142l53 121q-104 61 -155 178t-51 283zM236 502q0 -94 25.5 -176t80.5 -136l303 687 q-45 16 -100 16q-82 0 -140.5 -32t-96.5 -86t-55 -124.5t-17 -148.5zM455 127q45 -10 90 -10q82 0 140 30.5t96 84t55.5 123t17.5 147.5q0 92 -23.5 171t-74.5 134z" />
<glyph unicode="&#xf9;" d="M131 340v666h162v-641q0 -59 21.5 -105.5t59.5 -79.5t89 -49t110 -16q125 0 203 73.5t78 202.5v615h162v-1006h-156v137q-49 -68 -135 -114t-180 -46q-193 0 -303.5 85t-110.5 278zM348 1407l133 104l238 -331l-96 -80z" />
<glyph unicode="&#xfa;" d="M131 340v666h162v-641q0 -59 21.5 -105.5t59.5 -79.5t89 -49t110 -16q125 0 203 73.5t78 202.5v615h162v-1006h-156v137q-49 -68 -135 -114t-180 -46q-193 0 -303.5 85t-110.5 278zM432 1180l234 331l135 -104l-273 -307z" />
<glyph unicode="&#xfb;" d="M131 340v666h162v-641q0 -59 21.5 -105.5t59.5 -79.5t89 -49t110 -16q125 0 203 73.5t78 202.5v615h162v-1006h-156v137q-49 -68 -135 -114t-180 -46q-193 0 -303.5 85t-110.5 278zM303 1169l197 246h149l197 -246l-101 -79l-172 208l-172 -208z" />
<glyph unicode="&#xfc;" d="M131 340v666h162v-641q0 -59 21.5 -105.5t59.5 -79.5t89 -49t110 -16q125 0 203 73.5t78 202.5v615h162v-1006h-156v137q-49 -68 -135 -114t-180 -46q-193 0 -303.5 85t-110.5 278zM313 1229v182h170v-182h-170zM659 1229v182h168v-182h-168z" />
<glyph unicode="&#xfd;" horiz-adv-x="1007" d="M16 1006h170l314 -816l319 816h172l-485 -1172q-18 -47 -41 -88t-52.5 -71.5t-67.5 -48t-89 -17.5q-45 0 -77 5t-60 15v133q12 -4 26 -6q12 -2 30 -3t40 -1q51 0 83 24.5t53.5 61.5t34.5 80t28 80zM369 1180l237 331l133 -104l-270 -307z" />
<glyph unicode="&#xfe;" horiz-adv-x="1126" d="M137 -410v1846h168v-521q37 49 116 81t167 32q123 0 211 -41t144 -111.5t83 -166t27 -205.5q0 -113 -27 -209t-83 -167t-144 -111t-211 -40q-82 0 -160 25t-127 86v-498h-164zM289 504q0 -72 16.5 -141.5t52 -124t93 -88t137.5 -33.5q76 0 132 30.5t93 84t54.5 123 t17.5 149.5q0 70 -17.5 138.5t-53.5 123.5t-92 90t-134 35q-88 0 -145.5 -35t-91.5 -90t-48 -125t-14 -137z" />
<glyph unicode="&#xff;" horiz-adv-x="1007" d="M16 1006h170l314 -816l319 816h172l-485 -1172q-18 -47 -41 -88t-52.5 -71.5t-67.5 -48t-89 -17.5q-45 0 -77 5t-60 15v133q12 -4 26 -6q12 -2 30 -3t40 -1q51 0 83 24.5t53.5 61.5t34.5 80t28 80zM252 1188v182h162v-182h-162zM590 1188v182h166v-182h-166z" />
<glyph unicode="&#x152;" horiz-adv-x="2002" d="M78 713q0 141 25.5 272t90 232.5t175 163t280.5 61.5q141 0 241.5 -53.5t166.5 -143.5v174h846v-155h-676v-478h635v-151h-635v-479h694v-156h-864v182q-55 -92 -156.5 -147t-251.5 -55q-164 0 -273.5 60t-176 161.5t-94 233.5t-27.5 278zM248 713q0 -104 15.5 -207 t58.5 -183.5t118.5 -130t196.5 -49.5h25q123 0 199.5 49.5t119.5 130t58.5 183t15.5 207.5q0 111 -17.5 212t-61.5 180t-120 125t-192 46h-27q-117 0 -191.5 -46t-118.5 -125t-61.5 -180.5t-17.5 -211.5z" />
<glyph unicode="&#x153;" horiz-adv-x="1845" d="M74 504q0 117 27.5 212t86 164.5t148.5 107.5t213 38q141 0 237.5 -54t153.5 -143q61 96 162.5 146.5t232.5 50.5q102 0 185.5 -32.5t142.5 -97.5t92 -162t33 -228v-37h-764q2 -72 21.5 -136.5t58.5 -113.5t97.5 -77.5t137.5 -28.5q111 0 180.5 51t104.5 170h168 q-41 -195 -157.5 -276t-295.5 -81q-145 0 -242.5 54.5t-154.5 142.5q-59 -92 -156.5 -144.5t-236.5 -52.5q-236 0 -355.5 137.5t-119.5 389.5zM240 502q0 -78 17 -147.5t55 -123t96.5 -84t140.5 -30.5q80 0 137 29.5t95 79.5t56.5 118t20.5 141v17q0 78 -17.5 148.5 t-55 124.5t-96 86t-140.5 32t-140.5 -32t-96.5 -86t-55 -124.5t-17 -148.5zM1024 596h594q-4 59 -24.5 113.5t-56.5 94.5t-87 63.5t-115 23.5q-63 0 -118.5 -23.5t-97.5 -63.5t-66.5 -93.5t-28.5 -114.5z" />
<glyph unicode="&#x178;" horiz-adv-x="1196" d="M4 1419h195l397 -706l408 706h188l-516 -864v-555h-168v555zM295 1556v193h176v-193h-176zM721 1556v193h176v-193h-176z" />
<glyph unicode="&#x2c6;" horiz-adv-x="503" d="M-80 1090l260 329h152l252 -329h-156l-170 215l-172 -215h-166z" />
<glyph unicode="&#x2dc;" horiz-adv-x="446" d="M-119 1253q8 51 28.5 86t49.5 55.5t63.5 30t71.5 9.5q33 0 69 -13.5t70.5 -29t67.5 -27.5t59 -12q29 0 54.5 9t48.5 50h112q-6 -47 -26.5 -82t-50 -57.5t-66.5 -32.5t-74 -10q-35 0 -68.5 13t-66.5 29.5t-65.5 30t-65.5 13.5q-29 0 -55 -9.5t-49 -52.5h-107z" />
<glyph unicode="&#x2000;" horiz-adv-x="947" />
<glyph unicode="&#x2001;" horiz-adv-x="1894" />
<glyph unicode="&#x2002;" horiz-adv-x="947" />
<glyph unicode="&#x2003;" horiz-adv-x="1894" />
<glyph unicode="&#x2004;" horiz-adv-x="631" />
<glyph unicode="&#x2005;" horiz-adv-x="473" />
<glyph unicode="&#x2006;" horiz-adv-x="315" />
<glyph unicode="&#x2007;" horiz-adv-x="315" />
<glyph unicode="&#x2008;" horiz-adv-x="236" />
<glyph unicode="&#x2009;" horiz-adv-x="378" />
<glyph unicode="&#x200a;" horiz-adv-x="105" />
<glyph unicode="&#x2010;" horiz-adv-x="796" d="M102 524v150h592v-150h-592z" />
<glyph unicode="&#x2011;" horiz-adv-x="796" d="M102 524v150h592v-150h-592z" />
<glyph unicode="&#x2012;" horiz-adv-x="796" d="M102 524v150h592v-150h-592z" />
<glyph unicode="&#x2013;" horiz-adv-x="1056" d="M0 526v142h1057v-142h-1057z" />
<glyph unicode="&#x2014;" horiz-adv-x="2447" d="M266 526v142h1915v-142h-1915z" />
<glyph unicode="&#x2018;" horiz-adv-x="638" d="M172 1006l164 413h133l-94 -413h-203z" />
<glyph unicode="&#x2019;" horiz-adv-x="636" d="M170 1006l94 413h201l-166 -413h-129z" />
<glyph unicode="&#x201a;" horiz-adv-x="628" d="M170 -195l84 410h203l-154 -410h-133z" />
<glyph unicode="&#x201c;" horiz-adv-x="907" d="M135 1006l166 413h131l-94 -413h-203zM475 1006l164 413h133l-94 -413h-203z" />
<glyph unicode="&#x201d;" horiz-adv-x="905" d="M135 1006l94 413h201l-164 -413h-131zM475 1006l94 413h201l-166 -413h-129z" />
<glyph unicode="&#x201e;" horiz-adv-x="884" d="M135 -195l84 410h203l-154 -410h-133zM463 -195l84 410h203l-154 -410h-133z" />
<glyph unicode="&#x2022;" horiz-adv-x="1763" d="M147 709q0 152 57.5 285.5t158 233t234.5 158t286 58.5t286 -58.5t233 -158t157.5 -233.5t58.5 -285q0 -152 -58.5 -286t-157.5 -234.5t-233.5 -158t-285.5 -57.5q-152 0 -286 57.5t-234.5 158t-158 234.5t-57.5 286z" />
<glyph unicode="&#x2026;" horiz-adv-x="1671" d="M227 0v211h211v-211h-211zM729 0v211h211v-211h-211zM1231 0v211h211v-211h-211z" />
<glyph unicode="&#x202f;" horiz-adv-x="378" />
<glyph unicode="&#x2039;" horiz-adv-x="737" d="M102 504l328 461h191l-328 -461l328 -459h-191z" />
<glyph unicode="&#x203a;" horiz-adv-x="737" d="M117 45l327 459l-327 461h190l328 -461l-328 -459h-190z" />
<glyph unicode="&#x205f;" horiz-adv-x="473" />
<glyph unicode="&#x20ac;" horiz-adv-x="1224" d="M27 492v145h141q-2 12 -2 30.5v41.5v73h-139v148h153q37 250 175.5 382t385.5 132q102 0 189.5 -23.5t152 -68.5t101.5 -109.5t41 -146.5h-172q-35 92 -117 136t-195 44q-150 0 -248 -86t-126 -260h499v-148h-514v-73v-41.5t2 -30.5h512v-145h-499q29 -174 128 -260.5 t246 -86.5q111 0 195 41t115 140h178q-12 -90 -56.5 -156t-110 -109t-149.5 -63.5t-172 -20.5q-139 0 -238.5 40t-166 110t-104 164t-52.5 201h-153z" />
<glyph unicode="&#x2122;" horiz-adv-x="1353" d="M131 1335v84h442v-84h-165v-495h-91v495h-186zM637 840v579h131l162 -409l162 409h133v-579h-88v479l-183 -479h-47l-182 479v-479h-88z" />
<glyph unicode="&#x25fc;" horiz-adv-x="1003" d="M0 0v1004h1004v-1004h-1004z" />
</font>
</defs>
</svg>
