<?xml version="1.0" standalone="no"?><!DOCTYPE svg PUBLIC "-//W3C//DTD SVG 1.1//EN" "http://www.w3.org/Graphics/SVG/1.1/DTD/svg11.dtd" ><svg version="1.1" xmlns="http://www.w3.org/2000/svg"><defs><font horiz-adv-x="0" id="font"><font-face ascent="710" bbox="-195 -250 1151 1040" cap-height="690" descent="-250" font-family="Faune" font-stretch="normal" font-style="normal" font-weight="800" units-per-em="1000" x-height="460" /><missing-glyph d="M440 0H376V690H440ZM107 630V690H427V630ZM107 0V60H427V0ZM124 0H60L376 690H440ZM124 0H60V690H124ZM124 690 440 0H376L60 690Z" horiz-adv-x="500" /><glyph d="M90 0C111 204 175 350 334 479L504 618L360 178C338 111 325 42 327 0H359C443 196 621 282 621 484C621 568 584 646 540 695H509L260 497C95 366 -20 248 -20 144C-20 83 9 33 56 0ZM446 259V309H119V259Z" glyph-name="A" horiz-adv-x="646" unicode="A" /><glyph d="M265 0H309C375 142 507 224 507 371C507 432 475 494 441 530H402L195 380C33 262 -40 187 -40 101C-40 53 -19 24 17 0H62C69 69 83 132 113 190H308L289 134C272 85 264 31 265 0ZM321 240H138C166 282 201 319 255 359L397 463Z" glyph-name="A.small" horiz-adv-x="557" /><glyph d="M794 166H765C749 124 729 101 632 101H460L559 335H766L788 390H581C621 486 642 559 656 623C724 605 802 566 871 566C919 566 968 590 968 700H949C931 681 905 673 833 676C589 687 547 688 516 690L260 497C92 370 -20 248 -20 144C-20 83 9 33 56 0H90C99 95 116 179 154 259H387C356 155 356 58 359 35C487 35 540 -10 643 -10C744 -10 789 62 794 166ZM403 309H181C216 367 265 423 334 479L504 618Z" glyph-name="AE" horiz-adv-x="928" unicode="&#198;" /><glyph d="M664 133H634C623 101 606 83 530 83H382L456 254H634L653 305H474C504 375 520 423 531 468C589 453 666 426 724 426C761 426 800 450 800 535H778C764 521 744 513 688 516C559 522 487 530 402 530L195 380C33 262 -40 187 -40 101C-40 53 -19 24 17 0H58C65 69 79 132 109 190H311C283 106 276 55 277 24H301C387 21 462 -10 545 -10C624 -10 660 54 664 133ZM324 240H134C162 282 201 319 255 359L400 466Z" glyph-name="AE.small" horiz-adv-x="765" /><glyph d="M648 773 660 742C751 770 813 769 853 779C884 788 902 803 902 837C902 864 881 886 849 886C789 886 781 842 648 773ZM794 166H765C749 124 729 101 632 101H460L559 335H766L788 390H581C621 486 642 559 656 623C724 605 802 566 871 566C919 566 968 590 968 700H949C931 681 905 673 833 676C589 687 547 688 516 690L260 497C92 370 -20 248 -20 144C-20 83 9 33 56 0H90C99 95 116 179 154 259H387C356 155 356 58 359 35C487 35 540 -10 643 -10C744 -10 789 62 794 166ZM403 309H181C216 367 265 423 334 479L504 618Z" glyph-name="AEacute" horiz-adv-x="928" unicode="&#508;" /><glyph d="M664 133H634C623 101 606 83 530 83H382L456 254H634L653 305H474C504 375 520 423 531 468C589 453 666 426 724 426C761 426 800 450 800 535H778C764 521 744 513 688 516C559 522 487 530 402 530L195 380C33 262 -40 187 -40 101C-40 53 -19 24 17 0H58C65 69 79 132 109 190H311C283 106 276 55 277 24H301C387 21 462 -10 545 -10C624 -10 660 54 664 133ZM324 240H134C162 282 201 319 255 359L400 466ZM532 624 550 601C699 694 770 685 770 750C770 777 749 798 720 798C662 798 672 748 532 624Z" glyph-name="AEacute.small" horiz-adv-x="765" /><glyph d="M90 0C111 204 175 350 334 479L504 618L360 178C338 111 325 42 327 0H359C443 196 621 282 621 484C621 568 584 646 540 695H509L260 497C95 366 -20 248 -20 144C-20 83 9 33 56 0ZM446 259V309H119V259ZM464 773 476 742C567 770 629 769 669 779C700 788 718 803 718 837C718 864 697 886 665 886C605 886 597 842 464 773Z" glyph-name="Aacute" horiz-adv-x="646" unicode="&#193;" /><glyph d="M265 0H309C375 142 507 224 507 371C507 432 475 494 441 530H402L195 380C33 262 -40 187 -40 101C-40 53 -19 24 17 0H62C69 69 83 132 113 190H308L289 134C272 85 264 31 265 0ZM321 240H138C166 282 201 319 255 359L397 463ZM409 624 427 601C576 694 647 685 647 750C647 777 626 798 597 798C539 798 549 748 409 624Z" glyph-name="Aacute.small" horiz-adv-x="557" /><glyph d="M90 0C111 204 175 350 334 479L504 618L360 178C338 111 325 42 327 0H359C443 196 621 282 621 484C621 568 584 646 540 695H509L260 497C95 366 -20 248 -20 144C-20 83 9 33 56 0ZM446 259V309H119V259ZM460 897C430 865 415 837 415 804C415 771 440 738 509 738C614 738 703 804 744 897H704C665 845 607 814 549 814C487 814 484 850 493 897Z" glyph-name="Abreve" horiz-adv-x="646" unicode="&#258;" /><glyph d="M265 0H309C375 142 507 224 507 371C507 432 475 494 441 530H402L195 380C33 262 -40 187 -40 101C-40 53 -19 24 17 0H62C69 69 83 132 113 190H308L289 134C272 85 264 31 265 0ZM321 240H138C166 282 201 319 255 359L397 463ZM454 617C577 617 680 708 714 803H675C635 752 573 706 507 706C431 706 434 756 440 803H411C379 761 364 733 364 695C364 655 387 617 454 617Z" glyph-name="Abreve.small" horiz-adv-x="557" /><glyph d="M90 0C111 204 175 350 334 479L504 618L360 178C338 111 325 42 327 0H359C443 196 621 282 621 484C621 568 584 646 540 695H509L260 497C95 366 -20 248 -20 144C-20 83 9 33 56 0ZM446 259V309H119V259ZM377 765 396 732 562 800C592 773 631 744 674 730L701 754C684 789 659 847 642 896H610Z" glyph-name="Acircumflex" horiz-adv-x="646" unicode="&#194;" /><glyph d="M265 0H309C375 142 507 224 507 371C507 432 475 494 441 530H402L195 380C33 262 -40 187 -40 101C-40 53 -19 24 17 0H62C69 69 83 132 113 190H308L289 134C272 85 264 31 265 0ZM321 240H138C166 282 201 319 255 359L397 463ZM266 635 282 602 477 703C503 663 539 624 576 604L607 625C594 670 574 751 564 814H532Z" glyph-name="Acircumflex.small" horiz-adv-x="557" /><glyph d="M90 0C111 204 175 350 334 479L504 618L360 178C338 111 325 42 327 0H359C443 196 621 282 621 484C621 568 584 646 540 695H509L260 497C95 366 -20 248 -20 144C-20 83 9 33 56 0ZM446 259V309H119V259ZM384 791C384 765 400 745 431 745C471 745 508 773 508 817C508 845 491 865 459 865C422 865 384 838 384 791ZM568 791C568 765 584 745 615 745C655 745 692 773 692 817C692 845 675 865 643 865C606 865 568 838 568 791Z" glyph-name="Adieresis" horiz-adv-x="646" unicode="&#196;" /><glyph d="M265 0H309C375 142 507 224 507 371C507 432 475 494 441 530H402L195 380C33 262 -40 187 -40 101C-40 53 -19 24 17 0H62C69 69 83 132 113 190H308L289 134C272 85 264 31 265 0ZM321 240H138C166 282 201 319 255 359L397 463ZM315 703C315 677 331 657 362 657C402 657 439 685 439 729C439 757 422 777 390 777C353 777 315 750 315 703ZM499 703C499 677 515 657 546 657C586 657 623 685 623 729C623 757 606 777 574 777C537 777 499 750 499 703Z" glyph-name="Adieresis.small" horiz-adv-x="557" /><glyph d="M90 0C111 204 175 350 334 479L504 618L360 178C338 111 325 42 327 0H359C443 196 621 282 621 484C621 568 584 646 540 695H509L260 497C95 366 -20 248 -20 144C-20 83 9 33 56 0ZM446 259V309H119V259ZM369 827C369 763 438 785 565 734L580 759C486 833 480 885 427 885C386 885 369 851 369 827Z" glyph-name="Agrave" horiz-adv-x="646" unicode="&#192;" /><glyph d="M265 0H309C375 142 507 224 507 371C507 432 475 494 441 530H402L195 380C33 262 -40 187 -40 101C-40 53 -19 24 17 0H62C69 69 83 132 113 190H308L289 134C272 85 264 31 265 0ZM321 240H138C166 282 201 319 255 359L397 463ZM264 752C264 695 321 696 412 601L436 624C361 736 381 805 322 805C290 805 264 779 264 752Z" glyph-name="Agrave.small" horiz-adv-x="557" /><glyph d="M90 0C111 204 175 350 334 479L504 618L360 178C338 111 325 42 327 0H359C443 196 621 282 621 484C621 568 584 646 540 695H509L260 497C95 366 -20 248 -20 144C-20 83 9 33 56 0ZM446 259V309H119V259ZM417 848 381 775H687L723 848Z" glyph-name="Amacron" horiz-adv-x="646" unicode="&#256;" /><glyph d="M265 0H309C375 142 507 224 507 371C507 432 475 494 441 530H402L195 380C33 262 -40 187 -40 101C-40 53 -19 24 17 0H62C69 69 83 132 113 190H308L289 134C272 85 264 31 265 0ZM321 240H138C166 282 201 319 255 359L397 463ZM338 760 302 687H608L644 760Z" glyph-name="Amacron.small" horiz-adv-x="557" /><glyph d="M203 -143C203 -186 228 -218 279 -218C347 -218 379 -175 392 -116H367C359 -136 343 -151 321 -151C304 -151 297 -140 297 -119C297 -89 313 -47 359 0L340 27C263 -35 203 -75 203 -143ZM90 0C111 204 175 350 334 479L504 618L360 178C338 111 325 42 327 0H359C443 196 621 282 621 484C621 568 584 646 540 695H509L260 497C95 366 -20 248 -20 144C-20 83 9 33 56 0ZM446 259V309H119V259Z" glyph-name="Aogonek" horiz-adv-x="646" unicode="&#260;" /><glyph d="M153 -143C153 -186 178 -218 229 -218C297 -218 329 -175 342 -116H317C309 -136 293 -151 271 -151C254 -151 247 -140 247 -119C247 -89 263 -47 309 0L290 27C213 -35 153 -75 153 -143ZM265 0H309C375 142 507 224 507 371C507 432 475 494 441 530H402L195 380C33 262 -40 187 -40 101C-40 53 -19 24 17 0H62C69 69 83 132 113 190H308L289 134C272 85 264 31 265 0ZM321 240H138C166 282 201 319 255 359L397 463Z" glyph-name="Aogonek.small" horiz-adv-x="557" /><glyph d="M90 0C111 204 175 350 334 479L504 618L360 178C338 111 325 42 327 0H359C443 196 621 282 621 484C621 568 584 646 540 695H509L260 497C95 366 -20 248 -20 144C-20 83 9 33 56 0ZM446 259V309H119V259ZM433 810C433 758 473 717 539 717C619 717 682 771 682 844C682 897 641 937 575 937C493 937 433 879 433 810ZM607 837C607 797 583 764 548 764C521 764 508 786 508 814C508 860 533 890 567 890C593 890 607 867 607 837Z" glyph-name="Aring" horiz-adv-x="646" unicode="&#197;" /><glyph d="M265 0H309C375 142 507 224 507 371C507 432 475 494 441 530H402L195 380C33 262 -40 187 -40 101C-40 53 -19 24 17 0H62C69 69 83 132 113 190H308L289 134C272 85 264 31 265 0ZM321 240H138C166 282 201 319 255 359L397 463ZM348 708C348 656 388 615 454 615C534 615 597 669 597 742C597 795 556 835 490 835C408 835 348 777 348 708ZM522 741C522 708 500 662 463 662C437 662 422 682 422 709C422 756.0435 451 788 482 788C506 788 522 768 522 741Z" glyph-name="Aring.small" horiz-adv-x="557" /><glyph d="M90 0C111 204 175 350 334 479L504 618L360 178C338 111 325 42 327 0H359C443 196 621 282 621 484C621 568 584 646 540 695H509L260 497C95 366 -20 248 -20 144C-20 83 9 33 56 0ZM446 259V309H119V259ZM499 927 511 896C602 924 664 923 704 933C735 942 753 957 753 991C753 1018 732 1040 700 1040C640 1040 632 996 499 927ZM432 743C432 691 472 650 538 650C618 650 681 704 681 777C681 830 640 870 574 870C492 870 432 812 432 743ZM606 770C606 730 582 697 547 697C520 697 507 719 507 747C507 793 532 823 566 823C592 823 606 800 606 770Z" glyph-name="Aringacute" horiz-adv-x="646" unicode="&#506;" /><glyph d="M265 0H309C375 142 507 224 507 371C507 432 475 494 441 530H402L195 380C33 262 -40 187 -40 101C-40 53 -19 24 17 0H62C69 69 83 132 113 190H308L289 134C272 85 264 31 265 0ZM321 240H138C166 282 201 319 255 359L397 463ZM342 678C342 626 382 585 448 585C528 585 591 639 591 712C591 765 550 805 484 805C402 805 342 747 342 678ZM516 711C516 678 494 632 457 632C431 632 416 652 416 679C416 726.0435 445 758 476 758C500 758 516 738 516 711ZM442 883 454 852C545 880 607 879 647 889C678 898 696 913 696 947C696 974 675 996 643 996C583 996 575 952 442 883Z" glyph-name="Aringacute.small" horiz-adv-x="557" /><glyph d="M90 0C111 204 175 350 334 479L504 618L360 178C338 111 325 42 327 0H359C443 196 621 282 621 484C621 568 584 646 540 695H509L260 497C95 366 -20 248 -20 144C-20 83 9 33 56 0ZM446 259V309H119V259ZM670 823C617 823 599 889 516 889C443 889 396 852 380 748H412C423 789 433 809 468 809C522 809 539 744 619 744C690 744 744 784 757 885H724C714 843 704 823 670 823Z" glyph-name="Atilde" horiz-adv-x="646" unicode="&#195;" /><glyph d="M265 0H309C375 142 507 224 507 371C507 432 475 494 441 530H402L195 380C33 262 -40 187 -40 101C-40 53 -19 24 17 0H62C69 69 83 132 113 190H308L289 134C272 85 264 31 265 0ZM321 240H138C166 282 201 319 255 359L397 463ZM278 646H310C321 687 331 707 366 707C420 707 437 642 517 642C588 642 642 682 655 783H622C612 741 602 721 568 721C515 721 497 787 414 787C341 787 294 750 278 646Z" glyph-name="Atilde.small" horiz-adv-x="557" /><glyph d="M45 0C140 0 188 -6 258 -6C438 -6 573 78 573 217C573 295 510 350 415 355C539 362 681 416 681 555C681 642 606 697 487 697C422 697 315 690 281 690C199 513 25 418 25 160C25 108 33 51 45 0ZM460 648C517 648 542 624 542 590C542 553 529 551 499 477C463 388 408 386 317 386H260C299 477 321 554 338 642C377 647 425 648 460 648ZM302 336C399 336 432 316 432 273C432 236 415 218 392 176C356 110 364 43 233 43C205 43 160 47 123 50L239 336Z" glyph-name="B" horiz-adv-x="676" unicode="B" /><glyph d="M9 0C83 0 159 -4 214 -4C359 -4 468 59 468 165C468 226 415 267 338 272C435 283 551 318 551 423C551 491 489 533 390 533C340 533 224 528 197 528C133 399 0 310 0 122C0 84 5 43 9 0ZM359 489C405 489 427 471 427 445C427 421 420 421 396 366C368 298 323 299 249 299H197C227 365 243 420 256 484C286 488 331 489 359 489ZM238 254C320 254 343 234 343 206C343 178 332 168 314 135C286 84 295 45 189 45C167 45 123 48 94 50L180 254Z" glyph-name="B.small" horiz-adv-x="576" /><glyph d="M40 207C40 90 96 -10 273 -10C415 -10 533 67 533 228H485C463 109 397 43 274 43C198 43 151 78 151 133C151 219 215 207 292 368C339 465 349 522 377 582C394 618 420 653 492 653C539 653 582 632 582 581C582 541 553 517 511 495V465C524 456 542 452 561 452C613 452 663 491 663 559C663 641 607 700 488 700C242 700 40 460 40 207Z" glyph-name="C" horiz-adv-x="653" unicode="C" /><glyph d="M199 -10C325 -10 419 56 419 176H373C356 88 307 39 206 39C144 39 104 63 104 105C104 170 150 160 212 280C259 371 257 397 280 443C295 471 316 498 375 498C414 498 447 481 447 444C447 414 431 396 398 379L400 358C410 351 422 347 437 347C482 347 514 376 514 428C514 489 469 535 366 535C180 535 0 360 0 167C0 73 54 -10 199 -10Z" glyph-name="C.small" horiz-adv-x="529" /><glyph d="M40 207C40 90 96 -10 273 -10C415 -10 533 67 533 228H485C463 109 397 43 274 43C198 43 151 78 151 133C151 219 215 207 292 368C339 465 349 522 377 582C394 618 420 653 492 653C539 653 582 632 582 581C582 541 553 517 511 495V465C524 456 542 452 561 452C613 452 663 491 663 559C663 641 607 700 488 700C242 700 40 460 40 207ZM481 773 493 742C584 770 646 769 686 779C717 788 735 803 735 837C735 864 714 886 682 886C622 886 614 842 481 773Z" glyph-name="Cacute" horiz-adv-x="653" unicode="&#262;" /><glyph d="M199 -10C325 -10 419 56 419 176H373C356 88 307 39 206 39C144 39 104 63 104 105C104 170 150 160 212 280C259 371 257 397 280 443C295 471 316 498 375 498C414 498 447 481 447 444C447 414 431 396 398 379L400 358C410 351 422 347 437 347C482 347 514 376 514 428C514 489 469 535 366 535C180 535 0 360 0 167C0 73 54 -10 199 -10ZM359 624 377 601C526 694 597 685 597 750C597 777 576 798 547 798C489 798 499 748 359 624Z" glyph-name="Cacute.small" horiz-adv-x="529" /><glyph d="M40 207C40 90 96 -10 273 -10C415 -10 533 67 533 228H485C463 109 397 43 274 43C198 43 151 78 151 133C151 219 215 207 292 368C339 465 349 522 377 582C394 618 420 653 492 653C539 653 582 632 582 581C582 541 553 517 511 495V465C524 456 542 452 561 452C613 452 663 491 663 559C663 641 607 700 488 700C242 700 40 460 40 207ZM432 870C455 839 486 783 499 732H531L764 863L745 896L583 821C565 849 520 887 477 899Z" glyph-name="Ccaron" horiz-adv-x="653" unicode="&#268;" /><glyph d="M199 -10C325 -10 419 56 419 176H373C356 88 307 39 206 39C144 39 104 63 104 105C104 170 150 160 212 280C259 371 257 397 280 443C295 471 316 498 375 498C414 498 447 481 447 444C447 414 431 396 398 379L400 358C410 351 422 347 437 347C482 347 514 376 514 428C514 489 469 535 366 535C180 535 0 360 0 167C0 73 54 -10 199 -10ZM332 788C355 745 377 662 385 599H417L683 778L667 811L472 705C460 744 414 795 376 814Z" glyph-name="Ccaron.small" horiz-adv-x="529" /><glyph d="M40 207C40 90 96 -10 273 -10C415 -10 533 67 533 228H485C463 109 397 43 274 43C198 43 151 78 151 133C151 219 215 207 292 368C339 465 349 522 377 582C394 618 420 653 492 653C539 653 582 632 582 581C582 541 553 517 511 495V465C524 456 542 452 561 452C613 452 663 491 663 559C663 641 607 700 488 700C242 700 40 460 40 207ZM96 -113C86 -146 94 -205 161 -205C218 -205 270 -167 270 -105C270 -62 238 -30 172 -47H191L210 0L188 3L136 -75L149 -88C154 -86 159 -85 165 -85C185 -85 195 -99 195 -115C195 -142 175 -161 149 -161C120 -161 113 -139 113 -113Z" glyph-name="Ccedilla" horiz-adv-x="653" unicode="&#199;" /><glyph d="M199 -10C325 -10 419 56 419 176H373C356 88 307 39 206 39C144 39 104 63 104 105C104 170 150 160 212 280C259 371 257 397 280 443C295 471 316 498 375 498C414 498 447 481 447 444C447 414 431 396 398 379L400 358C410 351 422 347 437 347C482 347 514 376 514 428C514 489 469 535 366 535C180 535 0 360 0 167C0 73 54 -10 199 -10ZM83 -113C73 -146 81 -205 148 -205C205 -205 257 -167 257 -105C257 -62 225 -30 159 -47H178L197 0L175 3L123 -75L136 -88C141 -86 146 -85 152 -85C172 -85 182 -99 182 -115C182 -142 162 -161 136 -161C107 -161 100 -139 100 -113Z" glyph-name="Ccedilla.small" horiz-adv-x="529" /><glyph d="M40 207C40 90 96 -10 273 -10C415 -10 533 67 533 228H485C463 109 397 43 274 43C198 43 151 78 151 133C151 219 215 207 292 368C339 465 349 522 377 582C394 618 420 653 492 653C539 653 582 632 582 581C582 541 553 517 511 495V465C524 456 542 452 561 452C613 452 663 491 663 559C663 641 607 700 488 700C242 700 40 460 40 207ZM378 765 397 732 563 800C593 773 632 744 675 730L702 754C685 789 660 847 643 896H611Z" glyph-name="Ccircumflex" horiz-adv-x="653" unicode="&#264;" /><glyph d="M199 -10C325 -10 419 56 419 176H373C356 88 307 39 206 39C144 39 104 63 104 105C104 170 150 160 212 280C259 371 257 397 280 443C295 471 316 498 375 498C414 498 447 481 447 444C447 414 431 396 398 379L400 358C410 351 422 347 437 347C482 347 514 376 514 428C514 489 469 535 366 535C180 535 0 360 0 167C0 73 54 -10 199 -10ZM259 635 275 602 470 703C496 663 532 624 569 604L600 625C587 670 567 751 557 814H525Z" glyph-name="Ccircumflex.small" horiz-adv-x="529" /><glyph d="M485 805C485 767 516 736 553 736C590 736 623 767 623 805C623 844 590 874 553 874C516 874 485 844 485 805ZM40 207C40 90 96 -10 273 -10C415 -10 533 67 533 228H485C463 109 397 43 274 43C198 43 151 78 151 133C151 219 215 207 292 368C339 465 349 522 377 582C394 618 420 653 492 653C539 653 582 632 582 581C582 541 553 517 511 495V465C524 456 542 452 561 452C613 452 663 491 663 559C663 641 607 700 488 700C242 700 40 460 40 207Z" glyph-name="Cdotaccent" horiz-adv-x="653" unicode="&#266;" /><glyph d="M199 -10C325 -10 419 56 419 176H373C356 88 307 39 206 39C144 39 104 63 104 105C104 170 150 160 212 280C259 371 257 397 280 443C295 471 316 498 375 498C414 498 447 481 447 444C447 414 431 396 398 379L400 358C410 351 422 347 437 347C482 347 514 376 514 428C514 489 469 535 366 535C180 535 0 360 0 167C0 73 54 -10 199 -10ZM431 624C476 624 510 655 510 702C510 737 484 761 447 761C405 761 369 730 369 681C369 646 396 624 431 624Z" glyph-name="Cdotaccent.small" horiz-adv-x="529" /><glyph d="M282 690C183 511 25 415 25 149C25 96 30 38 36 0H238C484 0 704 224 704 440C704 551 646 690 450 690ZM125 50 251 362C303 492 327 561 342 640H391C508 640 559 601 559 525C559 448 508 445 451 274C383.6701 72.0104 300.1772 52.0678 161.2906 50.1884C149.5944 50.0302 137.5054 50 125 50Z" glyph-name="D" horiz-adv-x="742" unicode="D" /><glyph d="M0 115C0 76 4 28 8 0H189C388 0 567 166 567 333C567 421 518 530 356 530H204C127 400 0 308 0 115ZM91 42 190 276C230 371 249 430 261 488H303C397 488 440 459 440 402C440 343 403 340 358 212C306.3669 58.9446 229.2301 43.6089 119.5352 42.1479C110.2578 42.0243 100.7475 42 91 42Z" glyph-name="D.small" horiz-adv-x="622" /><glyph d="M381 870C404 839 435 783 448 732H480L713 863L694 896L532 821C514 849 469 887 426 899ZM282 690C183 511 25 415 25 149C25 96 30 38 36 0H238C484 0 704 224 704 440C704 551 646 690 450 690ZM125 50 251 362C303 492 327 561 342 640H391C508 640 559 601 559 525C559 448 508 445 451 274C383.6701 72.0104 300.1772 52.0678 161.2906 50.1884C149.5944 50.0302 137.5054 50 125 50Z" glyph-name="Dcaron" horiz-adv-x="742" unicode="&#270;" /><glyph d="M0 115C0 76 4 28 8 0H189C388 0 567 166 567 333C567 421 518 530 356 530H204C127 400 0 308 0 115ZM91 42 190 276C230 371 249 430 261 488H303C397 488 440 459 440 402C440 343 403 340 358 212C306.3669 58.9446 229.2301 43.6089 119.5352 42.1479C110.2578 42.0243 100.7475 42 91 42ZM304 788C327 745 349 662 357 599H389L655 778L639 811L444 705C432 744 386 795 348 814Z" glyph-name="Dcaron.small" horiz-adv-x="622" /><glyph d="M1 371 -15 326H352L368 371ZM282 690C183 511 25 415 25 149C25 96 30 38 36 0H238C484 0 704 224 704 440C704 551 646 690 450 690ZM125 50 251 362C303 492 327 561 342 640H391C508 640 559 601 559 525C559 448 508 445 451 274C383.6701 72.0104 300.1772 52.0678 161.2906 50.1884C149.5944 50.0302 137.5054 50 125 50Z" glyph-name="Dcroat" horiz-adv-x="742" unicode="&#272;" /><glyph d="M-19 288 -35 243H272L288 288ZM0 115C0 76 4 28 8 0H189C388 0 567 166 567 333C567 421 518 530 356 530H204C127 400 0 308 0 115ZM91 42 190 276C230 371 249 430 261 488H303C397 488 440 459 440 402C440 343 403 340 358 212C306.3669 58.9446 229.2301 43.6089 119.5352 42.1479C110.2578 42.0243 100.7475 42 91 42Z" glyph-name="Dcroat.small" horiz-adv-x="622" /><glyph d="M435 76H124L285 544ZM26 0H616V47L401 691H259L26 47Z" glyph-name="Delta" horiz-adv-x="638" unicode="&#8710;" /><glyph d="M494 166H465C449 124 429 101 332 101H140L239 335H466L488 390H261C301 486 322 559 336 623C404 605 495 566 571 566C619 566 668 590 668 700H649C631 681 605 672 533 676L306 689C211 482 25 420 25 189C25 136 38 79 53 35C164 30 238 -10 343 -10C444 -10 489 62 494 166Z" glyph-name="E" horiz-adv-x="608" unicode="E" /><glyph d="M385 133H355C344 101 327 81 251 81H102L177 254H355L374 305H195C225 375 241 423 252 468C310 453 387 426 445 426C482 426 521 450 521 535H499C485 521 465 513 409 516L221 527C138 363 0 320 0 143C0 103 10 58 22 24C120 24 183 -10 266 -10C345 -10 381 54 385 133Z" glyph-name="E.small" horiz-adv-x="486" /><glyph d="M428 773 440 742C531 770 593 769 633 779C664 788 682 803 682 837C682 864 661 886 629 886C569 886 561 842 428 773ZM494 166H465C449 124 429 101 332 101H140L239 335H466L488 390H261C301 486 322 559 336 623C404 605 495 566 571 566C619 566 668 590 668 700H649C631 681 605 672 533 676L306 689C211 482 25 420 25 189C25 136 38 79 53 35C164 30 238 -10 343 -10C444 -10 489 62 494 166Z" glyph-name="Eacute" horiz-adv-x="608" unicode="&#201;" /><glyph d="M385 133H355C344 101 327 81 251 81H102L177 254H355L374 305H195C225 375 241 423 252 468C310 453 387 426 445 426C482 426 521 450 521 535H499C485 521 465 513 409 516L221 527C138 363 0 320 0 143C0 103 10 58 22 24C120 24 183 -10 266 -10C345 -10 381 54 385 133ZM337 624 355 601C504 694 575 685 575 750C575 777 554 798 525 798C467 798 477 748 337 624Z" glyph-name="Eacute.small" horiz-adv-x="486" /><glyph d="M427 897C397 865 382 837 382 804C382 771 407 738 476 738C581 738 670 804 711 897H671C632 845 574 814 516 814C454 814 451 850 460 897ZM494 166H465C449 124 429 101 332 101H140L239 335H466L488 390H261C301 486 322 559 336 623C404 605 495 566 571 566C619 566 668 590 668 700H649C631 681 605 672 533 676L306 689C211 482 25 420 25 189C25 136 38 79 53 35C164 30 238 -10 343 -10C444 -10 489 62 494 166Z" glyph-name="Ebreve" horiz-adv-x="608" unicode="&#276;" /><glyph d="M385 133H355C344 101 327 81 251 81H102L177 254H355L374 305H195C225 375 241 423 252 468C310 453 387 426 445 426C482 426 521 450 521 535H499C485 521 465 513 409 516L221 527C138 363 0 320 0 143C0 103 10 58 22 24C120 24 183 -10 266 -10C345 -10 381 54 385 133ZM379 617C502 617 605 708 639 803H600C560 752 498 706 432 706C356 706 359 756 365 803H336C304 761 289 733 289 695C289 655 312 617 379 617Z" glyph-name="Ebreve.small" horiz-adv-x="486" /><glyph d="M398 870C421 839 452 783 465 732H497L730 863L711 896L549 821C531 849 486 887 443 899ZM494 166H465C449 124 429 101 332 101H140L239 335H466L488 390H261C301 486 322 559 336 623C404 605 495 566 571 566C619 566 668 590 668 700H649C631 681 605 672 533 676L306 689C211 482 25 420 25 189C25 136 38 79 53 35C164 30 238 -10 343 -10C444 -10 489 62 494 166Z" glyph-name="Ecaron" horiz-adv-x="608" unicode="&#282;" /><glyph d="M385 133H355C344 101 327 81 251 81H102L177 254H355L374 305H195C225 375 241 423 252 468C310 453 387 426 445 426C482 426 521 450 521 535H499C485 521 465 513 409 516L221 527C138 363 0 320 0 143C0 103 10 58 22 24C120 24 183 -10 266 -10C345 -10 381 54 385 133ZM303 788C326 745 348 662 356 599H388L654 778L638 811L443 705C431 744 385 795 347 814Z" glyph-name="Ecaron.small" horiz-adv-x="486" /><glyph d="M494 166H465C449 124 429 101 332 101H140L239 335H466L488 390H261C301 486 322 559 336 623C404 605 495 566 571 566C619 566 668 590 668 700H649C631 681 605 672 533 676L306 689C211 482 25 420 25 189C25 136 38 79 53 35C164 30 238 -10 343 -10C444 -10 489 62 494 166ZM343 765 362 732 528 800C558 773 597 744 640 730L667 754C650 789 625 847 608 896H576Z" glyph-name="Ecircumflex" horiz-adv-x="608" unicode="&#202;" /><glyph d="M385 133H355C344 101 327 81 251 81H102L177 254H355L374 305H195C225 375 241 423 252 468C310 453 387 426 445 426C482 426 521 450 521 535H499C485 521 465 513 409 516L221 527C138 363 0 320 0 143C0 103 10 58 22 24C120 24 183 -10 266 -10C345 -10 381 54 385 133ZM217 635 233 602 428 703C454 663 490 624 527 604L558 625C545 670 525 751 515 814H483Z" glyph-name="Ecircumflex.small" horiz-adv-x="486" /><glyph d="M353 791C353 765 369 745 400 745C440 745 477 773 477 817C477 845 460 865 428 865C391 865 353 838 353 791ZM537 791C537 765 553 745 584 745C624 745 661 773 661 817C661 845 644 865 612 865C575 865 537 838 537 791ZM494 166H465C449 124 429 101 332 101H140L239 335H466L488 390H261C301 486 322 559 336 623C404 605 495 566 571 566C619 566 668 590 668 700H649C631 681 605 672 533 676L306 689C211 482 25 420 25 189C25 136 38 79 53 35C164 30 238 -10 343 -10C444 -10 489 62 494 166Z" glyph-name="Edieresis" horiz-adv-x="608" unicode="&#203;" /><glyph d="M385 133H355C344 101 327 81 251 81H102L177 254H355L374 305H195C225 375 241 423 252 468C310 453 387 426 445 426C482 426 521 450 521 535H499C485 521 465 513 409 516L221 527C138 363 0 320 0 143C0 103 10 58 22 24C120 24 183 -10 266 -10C345 -10 381 54 385 133ZM259 703C259 677 275 657 306 657C346 657 383 685 383 729C383 757 366 777 334 777C297 777 259 750 259 703ZM443 703C443 677 459 657 490 657C530 657 567 685 567 729C567 757 550 777 518 777C481 777 443 750 443 703Z" glyph-name="Edieresis.small" horiz-adv-x="486" /><glyph d="M425 805C425 767 456 736 493 736C530 736 563 767 563 805C563 844 530 874 493 874C456 874 425 844 425 805ZM494 166H465C449 124 429 101 332 101H140L239 335H466L488 390H261C301 486 322 559 336 623C404 605 495 566 571 566C619 566 668 590 668 700H649C631 681 605 672 533 676L306 689C211 482 25 420 25 189C25 136 38 79 53 35C164 30 238 -10 343 -10C444 -10 489 62 494 166Z" glyph-name="Edotaccent" horiz-adv-x="608" unicode="&#278;" /><glyph d="M385 133H355C344 101 327 81 251 81H102L177 254H355L374 305H195C225 375 241 423 252 468C310 453 387 426 445 426C482 426 521 450 521 535H499C485 521 465 513 409 516L221 527C138 363 0 320 0 143C0 103 10 58 22 24C120 24 183 -10 266 -10C345 -10 381 54 385 133ZM383 624C428 624 462 655 462 702C462 737 436 761 399 761C357 761 321 730 321 681C321 646 348 624 383 624Z" glyph-name="Edotaccent.small" horiz-adv-x="486" /><glyph d="M345 827C345 763 414 785 541 734L556 759C462 833 456 885 403 885C362 885 345 851 345 827ZM494 166H465C449 124 429 101 332 101H140L239 335H466L488 390H261C301 486 322 559 336 623C404 605 495 566 571 566C619 566 668 590 668 700H649C631 681 605 672 533 676L306 689C211 482 25 420 25 189C25 136 38 79 53 35C164 30 238 -10 343 -10C444 -10 489 62 494 166Z" glyph-name="Egrave" horiz-adv-x="608" unicode="&#200;" /><glyph d="M385 133H355C344 101 327 81 251 81H102L177 254H355L374 305H195C225 375 241 423 252 468C310 453 387 426 445 426C482 426 521 450 521 535H499C485 521 465 513 409 516L221 527C138 363 0 320 0 143C0 103 10 58 22 24C120 24 183 -10 266 -10C345 -10 381 54 385 133ZM269 752C269 695 326 696 417 601L441 624C366 736 386 805 327 805C295 805 269 779 269 752Z" glyph-name="Egrave.small" horiz-adv-x="486" /><glyph d="M377 848 341 775H647L683 848ZM494 166H465C449 124 429 101 332 101H140L239 335H466L488 390H261C301 486 322 559 336 623C404 605 495 566 571 566C619 566 668 590 668 700H649C631 681 605 672 533 676L306 689C211 482 25 420 25 189C25 136 38 79 53 35C164 30 238 -10 343 -10C444 -10 489 62 494 166Z" glyph-name="Emacron" horiz-adv-x="608" unicode="&#274;" /><glyph d="M385 133H355C344 101 327 81 251 81H102L177 254H355L374 305H195C225 375 241 423 252 468C310 453 387 426 445 426C482 426 521 450 521 535H499C485 521 465 513 409 516L221 527C138 363 0 320 0 143C0 103 10 58 22 24C120 24 183 -10 266 -10C345 -10 381 54 385 133ZM309 760 273 687H579L615 760Z" glyph-name="Emacron.small" horiz-adv-x="486" /><glyph d="M254 -250C406 -250 418 -95 476 50C569 284 740 391.155 740 551C740 603 729 644 705 690H687L464 138C461 227 446 487 383 690H317C241 469 10 361 10 128C10 76 21 37 39 0H57L276 529C304 189 363 1 363 -85C363 -150 326 -198 262 -198C193 -198 193 -142 202 -92H160C148 -108 139 -129 139 -153C139 -204 165 -250 254 -250Z" glyph-name="Eng" horiz-adv-x="750" unicode="&#330;" /><glyph d="M203 -250C336 -250 323 -115 391 8C470 152 609 297 609 418C609 456 601 493 583 527H556L380 108C377 173 355 379 306 527H224C153 365 -10 265 -10 95C-10 58 -1 24 13 -3H39L210 402C226.1311 152.7011 285 -4 285 -112C285 -161 261 -202 209 -202C152 -202 151 -159 158 -121H120C111 -135 105 -152 106 -171C107 -209 131 -250 203 -250Z" glyph-name="Eng.small" horiz-adv-x="654" /><glyph d="M259 -143C259 -186 284 -218 335 -218C403 -218 435 -175 448 -116H423C415 -136 399 -151 377 -151C360 -151 353 -140 353 -119C353 -84 377 -30 445 29L434 44C343 -14 259 -63 259 -143ZM494 166H465C449 124 429 101 332 101H140L239 335H466L488 390H261C301 486 322 559 336 623C404 605 495 566 571 566C619 566 668 590 668 700H649C631 681 605 672 533 676L306 689C211 482 25 420 25 189C25 136 38 79 53 35C164 30 238 -10 343 -10C444 -10 489 62 494 166Z" glyph-name="Eogonek" horiz-adv-x="608" unicode="&#280;" /><glyph d="M168 -143C168 -186 195 -218 246 -218C314 -218 344 -175 357 -116H332C324 -136 308 -151 286 -151C269 -151 262 -140 262 -119C262 -84 275 -39 343 20V44C252 -14 168 -63 168 -143ZM385 133H355C344 101 327 81 251 81H102L177 254H355L374 305H195C225 375 241 423 252 468C310 453 387 426 445 426C482 426 521 450 521 535H499C485 521 465 513 409 516L221 527C138 363 0 320 0 143C0 103 10 58 22 24C120 24 183 -10 266 -10C345 -10 381 54 385 133Z" glyph-name="Eogonek.small" horiz-adv-x="486" /><glyph d="M1 371 -15 326H352L368 371ZM282 690C183 511 25 415 25 149C25 96 30 38 36 0H238C484 0 704 224 704 440C704 551 646 690 450 690ZM125 50 251 362C303 492 327 561 342 640H391C508 640 559 601 559 525C559 448 508 445 451 274C383.6701 72.0104 300.1772 52.0678 161.2906 50.1884C149.5944 50.0302 137.5054 50 125 50Z" glyph-name="Eth" horiz-adv-x="742" unicode="&#208;" /><glyph d="M-19 288 -35 243H272L288 288ZM0 115C0 76 4 28 8 0H189C388 0 567 166 567 333C567 421 518 530 356 530H204C127 400 0 308 0 115ZM91 42 190 276C230 371 249 430 261 488H303C397 488 440 459 440 402C440 343 403 340 358 212C306.3669 58.9446 229.2301 43.6089 119.5352 42.1479C110.2578 42.0243 100.7475 42 91 42Z" glyph-name="Eth.small" horiz-adv-x="622" /><glyph d="M88 202C88 88 142 -10 315 -10C453 -10 565 60 565 211H518C497 100 435 42 316 42C242 42 196 76 196 130C196 214 258 202 333 360C379 455 384 509 411 567C427 603 453 631 523 631C610 631 629 567 619 501H668C677 518 681 537 681 556C681 626 624 683 519 683C279 683 88 450 88 202ZM526 449H67L47 389H505ZM471 314H26L5 254H451Z" glyph-name="Euro" horiz-adv-x="650" unicode="&#8364;" /><glyph d="M105 0 232 318H445L467 373H254C290 459 319 544 336 623C402 605 488 566 564 566C612 566 661 590 661 700H642C624 681 598 672 526 676L306 689C201 476 25 415 25 184C25 131 39 64 64 0Z" glyph-name="F" horiz-adv-x="551" unicode="F" /><glyph d="M172 240H354L373 291H191C220 354 239 411 252 468C310 453 387 426 445 426C482 426 521 450 521 535H499C485 521 465 513 409 516L221 527C151 374 0 322 0 137C0 99 7 46 26 0H74Z" glyph-name="F.small" horiz-adv-x="471" /><glyph d="M657 530C605.8374 403.7439 442.3163 325.836 442.3448 136.6879C442.3508 96.622 449.6951 51.565 467 0H510L625 251C683 371 702 490 702 530ZM172 240H354L373 291H191C220 354 239 411 252 468C310 453 387 426 445 426C482 426 521 450 521 535H499C485 521 465 513 409 516L221 527C151 374 0 322 0 137C0 99 7 46 26 0H74Z" glyph-name="FI.small" horiz-adv-x="717" /><glyph d="M698 -10C777 -10 813 54 817 133H787C776 101 759 83 683 83H543L619 247C677 373 697 490 697 530H655C604 403 442 327 442 143C442 105 451 61 464 24C550 21 615 -10 698 -10ZM172 240H354L373 291H191C220 354 239 411 252 468C310 453 387 426 445 426C482 426 521 450 521 535H499C485 521 465 513 409 516L221 527C151 374 0 322 0 137C0 99 7 46 26 0H74Z" glyph-name="FL.small" horiz-adv-x="897" /><glyph d="M484 32C532 102 595 261 607 314H386V276C413 273 427 266 437 254C447 243 450 227 450 210C450 130 399 41 274 41C194 41 151 79 151 134C151 210 204 201 293 368C349 474 370 548 405 595C427 624 457 653 517 653C579 653 613 628 613 579C613 532 569 510 542 499V471C555 462 573 458 589 458C647 458 694 497 694 563C694 637 636 700 517 700C270 700 40 458 40 199C40 96 91 -10 268 -10C370 -10 417 49 454 49C467 49 475 40 484 32Z" glyph-name="G" horiz-adv-x="691" unicode="G" /><glyph d="M381 30C418 81 470 213 479 251H296V211C317 209 327 205 334 195C341 186 344 171 344 159C344 112 312 37 207 37C139 37 106 61 104 103C103 160 143 156 212 280C256 361 272 417 301 453C320 476 346 498 395 498C445 498 468 477 468 441C468 408 440 389 419 379L421 358C429 352 442 347 456 347C501 347 535 374 535 428C535 483 496 535 384 535C185 535 0 369 0 158C0 74 50 -10 190 -10C287 -10 326 37 356 40C367 41 374 35 381 30Z" glyph-name="G.small" horiz-adv-x="565" /><glyph d="M495 897C465 865 450 837 450 804C450 771 475 738 544 738C649 738 738 804 779 897H739C700 845 642 814 584 814C522 814 519 850 528 897ZM484 32C532 102 595 261 607 314H386V276C413 273 427 266 437 254C447 243 450 227 450 210C450 130 399 41 274 41C194 41 151 79 151 134C151 210 204 201 293 368C349 474 370 548 405 595C427 624 457 653 517 653C579 653 613 628 613 579C613 532 569 510 542 499V471C555 462 573 458 589 458C647 458 694 497 694 563C694 637 636 700 517 700C270 700 40 458 40 199C40 96 91 -10 268 -10C370 -10 417 49 454 49C467 49 475 40 484 32Z" glyph-name="Gbreve" horiz-adv-x="691" unicode="&#286;" /><glyph d="M381 30C418 81 470 213 479 251H296V211C317 209 327 205 334 195C341 186 344 171 344 159C344 112 312 37 207 37C139 37 106 61 104 103C103 160 143 156 212 280C256 361 272 417 301 453C320 476 346 498 395 498C445 498 468 477 468 441C468 408 440 389 419 379L421 358C429 352 442 347 456 347C501 347 535 374 535 428C535 483 496 535 384 535C185 535 0 369 0 158C0 74 50 -10 190 -10C287 -10 326 37 356 40C367 41 374 35 381 30ZM420 617C543 617 646 708 680 803H641C601 752 539 706 473 706C397 706 400 756 406 803H377C345 761 330 733 330 695C330 655 353 617 420 617Z" glyph-name="Gbreve.small" horiz-adv-x="565" /><glyph d="M484 32C532 102 595 261 607 314H386V276C413 273 427 266 437 254C447 243 450 227 450 210C450 130 399 41 274 41C194 41 151 79 151 134C151 210 204 201 293 368C349 474 370 548 405 595C427 624 457 653 517 653C579 653 613 628 613 579C613 532 569 510 542 499V471C555 462 573 458 589 458C647 458 694 497 694 563C694 637 636 700 517 700C270 700 40 458 40 199C40 96 91 -10 268 -10C370 -10 417 49 454 49C467 49 475 40 484 32ZM402 765 421 732 587 800C617 773 656 744 699 730L726 754C709 789 684 847 667 896H635Z" glyph-name="Gcircumflex" horiz-adv-x="691" unicode="&#284;" /><glyph d="M381 30C418 81 470 213 479 251H296V211C317 209 327 205 334 195C341 186 344 171 344 159C344 112 312 37 207 37C139 37 106 61 104 103C103 160 143 156 212 280C256 361 272 417 301 453C320 476 346 498 395 498C445 498 468 477 468 441C468 408 440 389 419 379L421 358C429 352 442 347 456 347C501 347 535 374 535 428C535 483 496 535 384 535C185 535 0 369 0 158C0 74 50 -10 190 -10C287 -10 326 37 356 40C367 41 374 35 381 30ZM261 635 277 602 472 703C498 663 534 624 571 604L602 625C589 670 569 751 559 814H527Z" glyph-name="Gcircumflex.small" horiz-adv-x="565" /><glyph d="M129 -227 160 -240C221 -197 275 -131 287 -55H196C187 -120 157 -176 129 -227ZM484 32C532 102 595 261 607 314H386V276C413 273 427 266 437 254C447 243 450 227 450 210C450 130 399 41 274 41C194 41 151 79 151 134C151 210 204 201 293 368C349 474 370 548 405 595C427 624 457 653 517 653C579 653 613 628 613 579C613 532 569 510 542 499V471C555 462 573 458 589 458C647 458 694 497 694 563C694 637 636 700 517 700C270 700 40 458 40 199C40 96 91 -10 268 -10C370 -10 417 49 454 49C467 49 475 40 484 32Z" glyph-name="Gcommaaccent" horiz-adv-x="691" unicode="&#290;" /><glyph d="M381 30C418 81 470 213 479 251H296V211C317 209 327 205 334 195C341 186 344 171 344 159C344 112 312 37 207 37C139 37 106 61 104 103C103 160 143 156 212 280C256 361 272 417 301 453C320 476 346 498 395 498C445 498 468 477 468 441C468 408 440 389 419 379L421 358C429 352 442 347 456 347C501 347 535 374 535 428C535 483 496 535 384 535C185 535 0 369 0 158C0 74 50 -10 190 -10C287 -10 326 37 356 40C367 41 374 35 381 30ZM62 -227 93 -240C154 -197 208 -131 220 -55H129C120 -120 90 -176 62 -227Z" glyph-name="Gcommaaccent.small" horiz-adv-x="565" /><glyph d="M487 805C487 767 518 736 555 736C592 736 625 767 625 805C625 844 592 874 555 874C518 874 487 844 487 805ZM484 32C532 102 595 261 607 314H386V276C413 273 427 266 437 254C447 243 450 227 450 210C450 130 399 41 274 41C194 41 151 79 151 134C151 210 204 201 293 368C349 474 370 548 405 595C427 624 457 653 517 653C579 653 613 628 613 579C613 532 569 510 542 499V471C555 462 573 458 589 458C647 458 694 497 694 563C694 637 636 700 517 700C270 700 40 458 40 199C40 96 91 -10 268 -10C370 -10 417 49 454 49C467 49 475 40 484 32Z" glyph-name="Gdotaccent" horiz-adv-x="691" unicode="&#288;" /><glyph d="M381 30C418 81 470 213 479 251H296V211C317 209 327 205 334 195C341 186 344 171 344 159C344 112 312 37 207 37C139 37 106 61 104 103C103 160 143 156 212 280C256 361 272 417 301 453C320 476 346 498 395 498C445 498 468 477 468 441C468 408 440 389 419 379L421 358C429 352 442 347 456 347C501 347 535 374 535 428C535 483 496 535 384 535C185 535 0 369 0 158C0 74 50 -10 190 -10C287 -10 326 37 356 40C367 41 374 35 381 30ZM433 624C478 624 512 655 512 702C512 737 486 761 449 761C407 761 371 730 371 681C371 646 398 624 433 624Z" glyph-name="Gdotaccent.small" horiz-adv-x="565" /><glyph d="M210 335H528V390H210ZM255 371C316 507 336 642 336 690H300C234 515 25 434 25 180C25 128 41 50 56 0H90ZM473 336C405 184 385 52 385 0H421C487 175 696 257 696 510C696 562 680 640 665 690H631Z" glyph-name="H" horiz-adv-x="721" unicode="H" /><glyph d="M314 0H359C410 127 572 208 572 392C572 429 560 494 549 530H507L404 305H198C240 405 254 495 254 530H209C158 403 -5 321 -5 136C-5 99 7 36 19 0H62L177 253H381C331 142 314 38 314 0Z" glyph-name="H.small" horiz-adv-x="617" /><glyph d="M132 581 116 536H762L778 581ZM210 335H528V390H210ZM255 371C316 507 336 642 336 690H300C234 515 25 434 25 180C25 128 41 50 56 0H90ZM473 336C405 184 385 52 385 0H421C487 175 696 257 696 510C696 562 680 640 665 690H631Z" glyph-name="Hbar" horiz-adv-x="721" unicode="&#294;" /><glyph d="M90 448 74 403H618L634 448ZM314 0H359C410 127 572 208 572 392C572 429 560 494 549 530H507L404 305H198C240 405 254 495 254 530H209C158 403 -5 321 -5 136C-5 99 7 36 19 0H62L177 253H381C331 142 314 38 314 0Z" glyph-name="Hbar.small" horiz-adv-x="617" /><glyph d="M210 335H528V390H210ZM255 371C316 507 336 642 336 690H300C234 515 25 434 25 180C25 128 41 50 56 0H90ZM473 336C405 184 385 52 385 0H421C487 175 696 257 696 510C696 562 680 640 665 690H631ZM339 765 358 732 524 800C554 773 593 744 636 730L663 754C646 789 621 847 604 896H572Z" glyph-name="Hcircumflex" horiz-adv-x="721" unicode="&#292;" /><glyph d="M314 0H359C410 127 572 208 572 392C572 429 560 494 549 530H507L404 305H198C240 405 254 495 254 530H209C158 403 -5 321 -5 136C-5 99 7 36 19 0H62L177 253H381C331 142 314 38 314 0ZM236 635 252 602 447 703C473 663 509 624 546 604L577 625C564 670 544 751 534 814H502Z" glyph-name="Hcircumflex.small" horiz-adv-x="617" /><glyph d="M238 328C312 493 336 635 336 690H300C234 516 25 435 25 183C25 130 35 70 56 0H90Z" glyph-name="I" horiz-adv-x="326" unicode="I" /><glyph d="M215 530C163.8374 403.7439 0.3163 325.836 0.3448 136.6879C0.3508 96.622 7.6951 51.565 25 0H68L183 251C241 371 260 490 260 530Z" glyph-name="I.small" horiz-adv-x="275" /><glyph d="M238 328C312 493 336 635 336 690H300C234 516 25 435 25 183C25 130 35 70 56 0H90ZM204 -22C192 -38 183 -59 183 -83C183 -134 209 -180 298 -180C450 -180 472 -27 527 120C591 292 712 544 712 690H675C623 534 387 407 387 154C387 81 407 51 407 -15C407 -80 370 -128 306 -128C237 -128 237 -72 246 -22Z" glyph-name="IJ" horiz-adv-x="702" unicode="&#306;" /><glyph d="M154 -14C145 -28 139 -45 140 -64C141 -102 165 -143 237 -143C361 -143 391 -29 434 83C483 208 583 424 583 530H539C498 416 310 300 310 117C310 62 325 39 325 -11C325 -60 295 -95 243 -95C186 -95 185 -52 192 -14ZM215 530C163.8374 403.7439 0.3163 325.836 0.3448 136.6879C0.3508 96.622 7.6951 51.565 25 0H68L183 251C241 371 260 490 260 530Z" glyph-name="IJ.small" horiz-adv-x="603" /><glyph d="M238 328C312 493 336 635 336 690H300C234 516 25 435 25 183C25 130 35 70 56 0H90ZM302 773 314 742C405 770 467 769 507 779C538 788 556 803 556 837C556 864 535 886 503 886C443 886 435 842 302 773Z" glyph-name="Iacute" horiz-adv-x="326" unicode="&#205;" /><glyph d="M215 530C163.8374 403.7439 0.3163 325.836 0.3448 136.6879C0.3508 96.622 7.6951 51.565 25 0H68L183 251C241 371 260 490 260 530ZM194 624 212 601C361 694 432 685 432 750C432 777 411 798 382 798C324 798 334 748 194 624Z" glyph-name="Iacute.small" horiz-adv-x="275" /><glyph d="M238 328C312 493 336 635 336 690H300C234 516 25 435 25 183C25 130 35 70 56 0H90ZM278 897C248 865 233 837 233 804C233 771 258 738 327 738C432 738 521 804 562 897H522C483 845 425 814 367 814C305 814 302 850 311 897Z" glyph-name="Ibreve" horiz-adv-x="326" unicode="&#300;" /><glyph d="M215 530C163.8374 403.7439 0.3163 325.836 0.3448 136.6879C0.3508 96.622 7.6951 51.565 25 0H68L183 251C241 371 260 490 260 530ZM260 617C383 617 486 708 520 803H481C441 752 379 706 313 706C237 706 240 756 246 803H217C185 761 170 733 170 695C170 655 193 617 260 617Z" glyph-name="Ibreve.small" horiz-adv-x="275" /><glyph d="M238 328C312 493 336 635 336 690H300C234 516 25 435 25 183C25 130 35 70 56 0H90ZM162 765 181 732 347 800C377 773 416 744 459 730L486 754C469 789 444 847 427 896H395Z" glyph-name="Icircumflex" horiz-adv-x="326" unicode="&#206;" /><glyph d="M215 530C163.8374 403.7439 0.3163 325.836 0.3448 136.6879C0.3508 96.622 7.6951 51.565 25 0H68L183 251C241 371 260 490 260 530ZM90 635 106 602 301 703C327 663 363 624 400 604L431 625C418 670 398 751 388 814H356Z" glyph-name="Icircumflex.small" horiz-adv-x="275" /><glyph d="M238 328C312 493 336 635 336 690H300C234 516 25 435 25 183C25 130 35 70 56 0H90ZM201 791C201 765 217 745 248 745C288 745 325 773 325 817C325 845 308 865 276 865C239 865 201 838 201 791ZM385 791C385 765 401 745 432 745C472 745 509 773 509 817C509 845 492 865 460 865C423 865 385 838 385 791Z" glyph-name="Idieresis" horiz-adv-x="326" unicode="&#207;" /><glyph d="M215 530C163.8374 403.7439 0.3163 325.836 0.3448 136.6879C0.3508 96.622 7.6951 51.565 25 0H68L183 251C241 371 260 490 260 530ZM126 703C126 677 142 657 173 657C213 657 250 685 250 729C250 757 233 777 201 777C164 777 126 750 126 703ZM310 703C310 677 326 657 357 657C397 657 434 685 434 729C434 757 417 777 385 777C348 777 310 750 310 703Z" glyph-name="Idieresis.small" horiz-adv-x="275" /><glyph d="M238 328C312 493 336 635 336 690H300C234 516 25 435 25 183C25 130 35 70 56 0H90ZM270 805C270 767 301 736 338 736C375 736 408 767 408 805C408 844 375 874 338 874C301 874 270 844 270 805Z" glyph-name="Idotaccent" horiz-adv-x="326" unicode="&#304;" /><glyph d="M215 530C163.8374 403.7439 0.3163 325.836 0.3448 136.6879C0.3508 96.622 7.6951 51.565 25 0H68L183 251C241 371 260 490 260 530ZM265 624C310 624 344 655 344 702C344 737 318 761 281 761C239 761 203 730 203 681C203 646 230 624 265 624Z" glyph-name="Idotaccent.small" horiz-adv-x="275" /><glyph d="M238 328C312 493 336 635 336 690H300C234 516 25 435 25 183C25 130 35 70 56 0H90ZM192 827C192 763 261 785 388 734L403 759C309 833 303 885 250 885C209 885 192 851 192 827Z" glyph-name="Igrave" horiz-adv-x="326" unicode="&#204;" /><glyph d="M215 530C163.8374 403.7439 0.3163 325.836 0.3448 136.6879C0.3508 96.622 7.6951 51.565 25 0H68L183 251C241 371 260 490 260 530ZM102 752C102 695 159 696 250 601L274 624C199 736 219 805 160 805C128 805 102 779 102 752Z" glyph-name="Igrave.small" horiz-adv-x="275" /><glyph d="M238 328C312 493 336 635 336 690H300C234 516 25 435 25 183C25 130 35 70 56 0H90ZM214 848 178 775H484L520 848Z" glyph-name="Imacron" horiz-adv-x="326" unicode="&#298;" /><glyph d="M215 530C163.8374 403.7439 0.3163 325.836 0.3448 136.6879C0.3508 96.622 7.6951 51.565 25 0H68L183 251C241 371 260 490 260 530ZM142 760 106 687H412L448 760Z" glyph-name="Imacron.small" horiz-adv-x="275" /><glyph d="M-66 -143C-66 -186 -41 -218 10 -218C78 -218 110 -175 123 -116H98C90 -136 74 -151 52 -151C35 -151 28 -140 28 -119C28 -89 44 -47 90 0L71 27C-6 -35 -66 -75 -66 -143ZM238 328C312 493 336 635 336 690H300C234 516 25 435 25 183C25 130 35 70 56 0H90Z" glyph-name="Iogonek" horiz-adv-x="326" unicode="&#302;" /><glyph d="M-88 -143C-88 -186 -63 -218 -12 -218C56 -218 88 -175 101 -116H76C68 -136 52 -151 30 -151C13 -151 6 -140 6 -119C6 -89 22 -47 68 0L49 27C-28 -35 -88 -75 -88 -143ZM215 530C163.8374 403.7439 0.3163 325.836 0.3448 136.6879C0.3508 96.622 7.6951 51.565 25 0H68L183 251C241 371 260 490 260 530Z" glyph-name="Iogonek.small" horiz-adv-x="275" /><glyph d="M238 328C312 493 336 635 336 690H300C234 516 25 435 25 183C25 130 35 70 56 0H90ZM466 823C413 823 395 889 312 889C239 889 192 852 176 748H208C219 789 229 809 264 809C318 809 335 744 415 744C486 744 540 784 553 885H520C510 843 500 823 466 823Z" glyph-name="Itilde" horiz-adv-x="326" unicode="&#296;" /><glyph d="M215 530C163.8374 403.7439 0.3163 325.836 0.3448 136.6879C0.3508 96.622 7.6951 51.565 25 0H68L183 251C241 371 260 490 260 530ZM101 646H133C144 687 154 707 189 707C243 707 260 642 340 642C411 642 465 682 478 783H445C435 741 425 721 391 721C338 721 320 787 237 787C164 787 117 750 101 646Z" glyph-name="Itilde.small" horiz-adv-x="275" /><glyph d="M-108 -22C-120 -38 -129 -59 -129 -83C-129 -134 -103 -180 -14 -180C138 -180 160 -27 215 120C279 292 400 544 400 690H363C311 534 75 407 75 154C75 81 95 51 95 -15C95 -80 58 -128 -6 -128C-75 -128 -75 -72 -66 -22Z" glyph-name="J" horiz-adv-x="390" unicode="J" /><glyph d="M-116 -14C-125 -28 -131 -45 -130 -64C-129 -102 -105 -143 -33 -143C91 -143 121 -29 164 83C213 208 313 424 313 530H269C228 416 40 300 40 117C40 62 55 39 55 -11C55 -60 25 -95 -27 -95C-84 -95 -85 -52 -78 -14Z" glyph-name="J.small" horiz-adv-x="333" /><glyph d="M-108 -22C-120 -38 -129 -59 -129 -83C-129 -134 -103 -180 -14 -180C138 -180 160 -27 215 120C279 292 400 544 400 690H363C311 534 75 407 75 154C75 81 95 51 95 -15C95 -80 58 -128 -6 -128C-75 -128 -75 -72 -66 -22ZM228 765 247 732 413 800C443 773 482 744 525 730L552 754C535 789 510 847 493 896H461Z" glyph-name="Jcircumflex" horiz-adv-x="390" unicode="&#308;" /><glyph d="M-116 -14C-125 -28 -131 -45 -130 -64C-129 -102 -105 -143 -33 -143C91 -143 121 -29 164 83C213 208 313 424 313 530H269C228 416 40 300 40 117C40 62 55 39 55 -11C55 -60 25 -95 -27 -95C-84 -95 -85 -52 -78 -14ZM142 635 158 602 353 703C379 663 415 624 452 604L483 625C470 670 450 751 440 814H408Z" glyph-name="Jcircumflex.small" horiz-adv-x="333" /><glyph d="M100 0 194 233C230 322 302 383 365 383C417 383 431 351 431 324C431 261 330 202 330 103C330 41 362 -3 454 -10L464 23C446 25 422 32 422 53C422 98 572 131 572 277C572 336 534 422 405 422C393 422 381 421 369 420C564 520 681 554 681 639C681 659 671 675 658 690H634L250 379C299 520 331 640 331 690H295C229 515 25 430 25 175C25 125 43 48 63 0Z" glyph-name="K" horiz-adv-x="666" unicode="K" /><glyph d="M355 -8 364 19C341 19 328 29 328 41C328 78 453 99 453 207C453 274.471 402.2892 320.3276 312.2371 323.3463C303.523 323.6384 294.4406 323.5294 285 323C442 403 548 430 548 491C548 502 544 518 533 530H506L194 305C234 411 249 494 249 530H206C155 403 -5 317 -5 132C-5 95 9 35 24 0H68L146 189C172 253 220 292 281 292C317 292 327 271 327 247C327 195 243 157 243 76C243 30 276 -8 355 -8Z" glyph-name="K.small" horiz-adv-x="533" /><glyph d="M90 -227 121 -240C182 -197 236 -131 248 -55H157C148 -120 118 -176 90 -227ZM100 0 194 233C230 322 302 383 365 383C417 383 431 351 431 324C431 261 330 202 330 103C330 41 362 -3 454 -10L464 23C446 25 422 32 422 53C422 98 572 131 572 277C572 336 534 422 405 422C393 422 381 421 369 420C564 520 681 554 681 639C681 659 671 675 658 690H634L250 379C299 520 331 640 331 690H295C229 515 25 430 25 175C25 125 43 48 63 0Z" glyph-name="Kcommaaccent" horiz-adv-x="666" unicode="&#310;" /><glyph d="M355 -8 364 19C341 19 328 29 328 41C328 78 453 99 453 207C453 274.471 402.2892 320.3276 312.2371 323.3463C303.523 323.6384 294.4406 323.5294 285 323C442 403 548 430 548 491C548 502 544 518 533 530H506L194 305C234 411 249 494 249 530H206C155 403 -5 317 -5 132C-5 95 9 35 24 0H68L146 189C172 253 220 292 281 292C317 292 327 271 327 247C327 195 243 157 243 76C243 30 276 -8 355 -8ZM56 -227 87 -240C148 -197 202 -131 214 -55H123C114 -120 84 -176 56 -227Z" glyph-name="Kcommaaccent.small" horiz-adv-x="533" /><glyph d="M53 35C149 24 219 -10 313 -10C422 -10 450 63 460 160H431C415 118 395 100 298 95H127L237 328C314 491 336 635 336 690H300C234 515 25 439 25 185C25 133 38 82 53 35Z" glyph-name="L" horiz-adv-x="540" unicode="L" /><glyph d="M256 -10C335 -10 371 54 375 133H345C334 101 317 83 241 83H101L177 247C235 373 255 490 255 530H213C162 403 0 327 0 143C0 105 9 61 22 24C108 21 173 -10 256 -10Z" glyph-name="L.small" horiz-adv-x="455" /><glyph d="M321 773 333 742C424 770 486 769 526 779C557 788 575 803 575 837C575 864 554 886 522 886C462 886 454 842 321 773ZM53 35C149 24 219 -10 313 -10C422 -10 450 63 460 160H431C415 118 395 100 298 95H127L237 328C314 491 336 635 336 690H300C234 515 25 439 25 185C25 133 38 82 53 35Z" glyph-name="Lacute" horiz-adv-x="540" unicode="&#313;" /><glyph d="M256 -10C335 -10 371 54 375 133H345C334 101 317 83 241 83H101L177 247C235 373 255 490 255 530H213C162 403 0 327 0 143C0 105 9 61 22 24C108 21 173 -10 256 -10ZM227 624 245 601C394 694 465 685 465 750C465 777 444 798 415 798C357 798 367 748 227 624Z" glyph-name="Lacute.small" horiz-adv-x="455" /><glyph d="M393 508 421 495C482 538 516 614 528 690H447C438 625 421 559 393 508ZM53 35C149 24 219 -10 313 -10C422 -10 450 63 460 160H431C415 118 395 100 298 95H127L237 328C314 491 336 635 336 690H300C234 515 25 439 25 185C25 133 38 82 53 35Z" glyph-name="Lcaron" horiz-adv-x="540" unicode="&#317;" /><glyph d="M256 -10C335 -10 371 54 375 133H345C334 101 317 83 241 83H101L177 247C235 373 255 490 255 530H213C162 403 0 327 0 143C0 105 9 61 22 24C108 21 173 -10 256 -10ZM304 348 332 335C393 378 427 454 439 530H358C349 465 332 399 304 348Z" glyph-name="Lcaron.small" horiz-adv-x="455" /><glyph d="M80 -227 111 -240C172 -197 226 -131 238 -55H147C138 -120 108 -176 80 -227ZM53 35C149 24 219 -10 313 -10C422 -10 450 63 460 160H431C415 118 395 100 298 95H127L237 328C314 491 336 635 336 690H300C234 515 25 439 25 185C25 133 38 82 53 35Z" glyph-name="Lcommaaccent" horiz-adv-x="540" unicode="&#315;" /><glyph d="M256 -10C335 -10 371 54 375 133H345C334 101 317 83 241 83H101L177 247C235 373 255 490 255 530H213C162 403 0 327 0 143C0 105 9 61 22 24C108 21 173 -10 256 -10ZM43 -227 74 -240C135 -197 189 -131 201 -55H110C101 -120 71 -176 43 -227Z" glyph-name="Lcommaaccent.small" horiz-adv-x="455" /><glyph d="M53 35C149 24 219 -10 313 -10C422 -10 450 63 460 160H431C415 118 395 100 298 95H127L237 328C314 491 336 635 336 690H300C234 515 25 439 25 185C25 133 38 82 53 35ZM397 285C442 285 476 316 476 363C476 398 450 422 413 422C371 422 335 391 335 342C335 307 362 285 397 285Z" glyph-name="Ldot" horiz-adv-x="545" unicode="&#319;" /><glyph d="M256 -10C335 -10 371 54 375 133H345C334 101 317 83 241 83H101L177 247C235 373 255 490 255 530H213C162 403 0 327 0 143C0 105 9 61 22 24C108 21 173 -10 256 -10ZM312.1891 214.3606C350.7888 214.3606 379.953 240.9515 379.953 281.2668C379.953 311.2888 357.651 331.8753 325.9135 331.8753C289.8871 331.8753 259.0073 305.2844 259.0073 263.2536C259.0073 233.2316 282.1671 214.3606 312.1891 214.3606Z" glyph-name="Ldot.small" horiz-adv-x="455" /><glyph d="M-56 112 428 410V478L-56 180ZM59 35C155 24 225 -10 319 -10C428 -10 456 63 466 160H437C421 118 401 100 304 95H133L243 328C320 491 342 635 342 690H306C240 515 31 439 31 185C31 133 44 82 59 35Z" glyph-name="Lslash" horiz-adv-x="546" unicode="&#321;" /><glyph d="M-56 88 327 312V374L-56 150ZM256 -10C335 -10 371 54 375 133H345C334 101 317 83 241 83H101L177 247C235 373 255 490 255 530H213C162 403 0 327 0 143C0 105 9 61 22 24C108 21 173 -10 256 -10Z" glyph-name="Lslash.small" horiz-adv-x="455" /><glyph d="M302 0H367C487 217 622 411 743 540L619 219C593 152 566 65 566 0H600C689 196 875 272 875 516C875 583 867 632 854 692H816C725 627 558 451 424 224C427 336 427 532 409 690H312C215 442 10 357 10 128C10 76 21 37 39 0H62L286 539C279 306 292 108 302 0Z" glyph-name="M" horiz-adv-x="900" unicode="M" /><glyph d="M218 399C213 229 230 79 238 0H313C406 158 514 312 608 405L517 165C498 116 476 47 476 0H522C591 142 735 218 735 395C735 444 729 487 719 530H668C598 483 452 322 348 157C350 239 345 409 322 530H232C150 369 -10 265 -10 99C-10 61 -2 27 12 0H41Z" glyph-name="M.small" horiz-adv-x="780" /><glyph d="M424 0C554 253 740 368 740 551C740 603 729 644 705 690H687L464 138C461 227 446 487 383 690H317C241 469 10 361 10 128C10 76 21 37 39 0H57L276 529C291 295 335 116 351 0Z" glyph-name="N" horiz-adv-x="750" unicode="N" /><glyph d="M371 0C472 184 609 298 609 421C609 459 601 496 583 530H556L380 111C377 176 355 382 306 530H224C153 368 -10 268 -10 98C-10 61 -1 27 13 0H39L210 405C221 235 271 73 286 0Z" glyph-name="N.small" horiz-adv-x="654" /><glyph d="M456 773 468 742C559 770 621 769 661 779C692 788 710 803 710 837C710 864 689 886 657 886C597 886 589 842 456 773ZM424 0C554 253 740 368 740 551C740 603 729 644 705 690H687L464 138C461 227 446 487 383 690H317C241 469 10 361 10 128C10 76 21 37 39 0H57L276 529C291 295 335 116 351 0Z" glyph-name="Nacute" horiz-adv-x="750" unicode="&#323;" /><glyph d="M371 0C472 184 609 298 609 421C609 459 601 496 583 530H556L380 111C377 176 355 382 306 530H224C153 368 -10 268 -10 98C-10 61 -1 27 13 0H39L210 405C221 235 271 73 286 0ZM367 624 385 601C534 694 605 685 605 750C605 777 584 798 555 798C497 798 507 748 367 624Z" glyph-name="Nacute.small" horiz-adv-x="654" /><glyph d="M444 870C467 839 498 783 511 732H543L776 863L757 896L595 821C577 849 532 887 489 899ZM424 0C554 253 740 368 740 551C740 603 729 644 705 690H687L464 138C461 227 446 487 383 690H317C241 469 10 361 10 128C10 76 21 37 39 0H57L276 529C291 295 335 116 351 0Z" glyph-name="Ncaron" horiz-adv-x="750" unicode="&#327;" /><glyph d="M371 0C472 184 609 298 609 421C609 459 601 496 583 530H556L380 111C377 176 355 382 306 530H224C153 368 -10 268 -10 98C-10 61 -1 27 13 0H39L210 405C221 235 271 73 286 0ZM362 788C385 745 407 662 415 599H447L713 778L697 811L502 705C490 744 444 795 406 814Z" glyph-name="Ncaron.small" horiz-adv-x="654" /><glyph d="M90 -227 121 -240C182 -197 236 -131 248 -55H157C148 -120 118 -176 90 -227ZM424 0C554 253 740 368 740 551C740 603 729 644 705 690H687L464 138C461 227 446 487 383 690H317C241 469 10 361 10 128C10 76 21 37 39 0H57L276 529C291 295 335 116 351 0Z" glyph-name="Ncommaaccent" horiz-adv-x="750" unicode="&#325;" /><glyph d="M371 0C472 184 609 298 609 421C609 459 601 496 583 530H556L380 111C377 176 355 382 306 530H224C153 368 -10 268 -10 98C-10 61 -1 27 13 0H39L210 405C221 235 271 73 286 0ZM42 -227 73 -240C134 -197 188 -131 200 -55H109C100 -120 70 -176 42 -227Z" glyph-name="Ncommaaccent.small" horiz-adv-x="654" /><glyph d="M668 823C615 823 597 889 514 889C441 889 394 852 378 748H410C421 789 431 809 466 809C520 809 537 744 617 744C688 744 742 784 755 885H722C712 843 702 823 668 823ZM424 0C554 253 740 368 740 551C740 603 729 644 705 690H687L464 138C461 227 446 487 383 690H317C241 469 10 361 10 128C10 76 21 37 39 0H57L276 529C291 295 335 116 351 0Z" glyph-name="Ntilde" horiz-adv-x="750" unicode="&#209;" /><glyph d="M371 0C472 184 609 298 609 421C609 459 601 496 583 530H556L380 111C377 176 355 382 306 530H224C153 368 -10 268 -10 98C-10 61 -1 27 13 0H39L210 405C221 235 271 73 286 0ZM289 646H321C332 687 342 707 377 707C431 707 448 642 528 642C599 642 653 682 666 783H633C623 741 613 721 579 721C526 721 508 787 425 787C352 787 305 750 289 646Z" glyph-name="Ntilde.small" horiz-adv-x="654" /><glyph d="M494 700C219 700 40 399 40 213C40 93 100 -10 276 -10C548 -10 723 282 723 482C723 604 661 700 494 700ZM484 328C412 178 415 39 259 39C189 39 150 69 150 125C150 204 202 197 276 357C347 507 350 652 501 652C572 652 609 614 609 563C609 478 557 488 484 328Z" glyph-name="O" horiz-adv-x="763" unicode="O" /><glyph d="M0 175C0 70 60 -10 204 -10C424 -10 573 187 573 356C573 454 511 535 374 535C152 535 0 334 0 175ZM371 252C315 136 318 31 191 31C135 31 105 54 105 96C105 154 142 153 200 273C255 388 257 496 380 496C437 496 466 468 466 429C466 366 428 371 371 252Z" glyph-name="O.small" horiz-adv-x="628" /><glyph d="M40 213C40 93 100 -10 276 -10C548 -10 694 388 694 484C694 606 663 700 494 700C219 700 40 399 40 213ZM484 328C412 178 415 39 259 39C189 39 150 69 150 125C150 204 202 197 276 357C347 507 350 652 501 652C572 652 609 614 609 563C609 478 557 488 484 328ZM956 166H927C911 124 891 101 794 101H602L701 335H928L950 390H723C763 486 784 559 798 623C866 605 957 566 1033 566C1081 566 1130 590 1130 700H1111C1093 681 1067 672 995 676L768 689C673 482 487 420 487 189C487 136 500 79 515 35C626 30 700 -10 805 -10C906 -10 951 62 956 166Z" glyph-name="OE" horiz-adv-x="1070" unicode="&#338;" /><glyph d="M371 252C315 136 318 31 191 31C135 31 105 54 105 96C105 154 142 153 200 273C255 388 257 496 380 496C437 496 466 468 466 429C466 366 428 371 371 252ZM755 133H725C714 101 697 83 621 83H473L547 254H725L744 305H565C595 375 611 423 622 468C680 453 757 426 815 426C852 426 891 450 891 535H869C855 521 836 514 780 516L590 524C575 494 558 468 541 445C518 499 467 535 374 535C152 535 0 334 0 175C0 70 60 -10 204 -10C273 -10 338 21 394 67C397 51 401 37 406 24C492 21 553 -10 636 -10C715 -10 751 54 755 133Z" glyph-name="OE.small" horiz-adv-x="856" /><glyph d="M506 773 518 742C609 770 671 769 711 779C742 788 760 803 760 837C760 864 739 886 707 886C647 886 639 842 506 773ZM494 700C219 700 40 399 40 213C40 93 100 -10 276 -10C548 -10 723 282 723 482C723 604 661 700 494 700ZM484 328C412 178 415 39 259 39C189 39 150 69 150 125C150 204 202 197 276 357C347 507 350 652 501 652C572 652 609 614 609 563C609 478 557 488 484 328Z" glyph-name="Oacute" horiz-adv-x="763" unicode="&#211;" /><glyph d="M0 175C0 70 60 -10 204 -10C424 -10 573 187 573 356C573 454 511 535 374 535C152 535 0 334 0 175ZM371 252C315 136 318 31 191 31C135 31 105 54 105 96C105 154 142 153 200 273C255 388 257 496 380 496C437 496 466 468 466 429C466 366 428 371 371 252ZM377 624 395 601C544 694 615 685 615 750C615 777 594 798 565 798C507 798 517 748 377 624Z" glyph-name="Oacute.small" horiz-adv-x="628" /><glyph d="M482 897C452 865 437 837 437 804C437 771 462 738 531 738C636 738 725 804 766 897H726C687 845 629 814 571 814C509 814 506 850 515 897ZM494 700C219 700 40 399 40 213C40 93 100 -10 276 -10C548 -10 723 282 723 482C723 604 661 700 494 700ZM484 328C412 178 415 39 259 39C189 39 150 69 150 125C150 204 202 197 276 357C347 507 350 652 501 652C572 652 609 614 609 563C609 478 557 488 484 328Z" glyph-name="Obreve" horiz-adv-x="763" unicode="&#334;" /><glyph d="M0 175C0 70 60 -10 204 -10C424 -10 573 187 573 356C573 454 511 535 374 535C152 535 0 334 0 175ZM371 252C315 136 318 31 191 31C135 31 105 54 105 96C105 154 142 153 200 273C255 388 257 496 380 496C437 496 466 468 466 429C466 366 428 371 371 252ZM411 617C534 617 637 708 671 803H632C592 752 530 706 464 706C388 706 391 756 397 803H368C336 761 321 733 321 695C321 655 344 617 411 617Z" glyph-name="Obreve.small" horiz-adv-x="628" /><glyph d="M494 700C219 700 40 399 40 213C40 93 100 -10 276 -10C548 -10 723 282 723 482C723 604 661 700 494 700ZM484 328C412 178 415 39 259 39C189 39 150 69 150 125C150 204 202 197 276 357C347 507 350 652 501 652C572 652 609 614 609 563C609 478 557 488 484 328ZM380 765 399 732 565 800C595 773 634 744 677 730L704 754C687 789 662 847 645 896H613Z" glyph-name="Ocircumflex" horiz-adv-x="763" unicode="&#212;" /><glyph d="M0 175C0 70 60 -10 204 -10C424 -10 573 187 573 356C573 454 511 535 374 535C152 535 0 334 0 175ZM371 252C315 136 318 31 191 31C135 31 105 54 105 96C105 154 142 153 200 273C255 388 257 496 380 496C437 496 466 468 466 429C466 366 428 371 371 252ZM249 635 265 602 460 703C486 663 522 624 559 604L590 625C577 670 557 751 547 814H515Z" glyph-name="Ocircumflex.small" horiz-adv-x="628" /><glyph d="M390 791C390 765 406 745 437 745C477 745 514 773 514 817C514 845 497 865 465 865C428 865 390 838 390 791ZM574 791C574 765 590 745 621 745C661 745 698 773 698 817C698 845 681 865 649 865C612 865 574 838 574 791ZM494 700C219 700 40 399 40 213C40 93 100 -10 276 -10C548 -10 723 282 723 482C723 604 661 700 494 700ZM484 328C412 178 415 39 259 39C189 39 150 69 150 125C150 204 202 197 276 357C347 507 350 652 501 652C572 652 609 614 609 563C609 478 557 488 484 328Z" glyph-name="Odieresis" horiz-adv-x="763" unicode="&#214;" /><glyph d="M0 175C0 70 60 -10 204 -10C424 -10 573 187 573 356C573 454 511 535 374 535C152 535 0 334 0 175ZM371 252C315 136 318 31 191 31C135 31 105 54 105 96C105 154 142 153 200 273C255 388 257 496 380 496C437 496 466 468 466 429C466 366 428 371 371 252ZM294 703C294 677 310 657 341 657C381 657 418 685 418 729C418 757 401 777 369 777C332 777 294 750 294 703ZM478 703C478 677 494 657 525 657C565 657 602 685 602 729C602 757 585 777 553 777C516 777 478 750 478 703Z" glyph-name="Odieresis.small" horiz-adv-x="628" /><glyph d="M390 827C390 763 459 785 586 734L601 759C507 833 501 885 448 885C407 885 390 851 390 827ZM494 700C219 700 40 399 40 213C40 93 100 -10 276 -10C548 -10 723 282 723 482C723 604 661 700 494 700ZM484 328C412 178 415 39 259 39C189 39 150 69 150 125C150 204 202 197 276 357C347 507 350 652 501 652C572 652 609 614 609 563C609 478 557 488 484 328Z" glyph-name="Ograve" horiz-adv-x="763" unicode="&#210;" /><glyph d="M0 175C0 70 60 -10 204 -10C424 -10 573 187 573 356C573 454 511 535 374 535C152 535 0 334 0 175ZM371 252C315 136 318 31 191 31C135 31 105 54 105 96C105 154 142 153 200 273C255 388 257 496 380 496C437 496 466 468 466 429C466 366 428 371 371 252ZM301 752C301 695 358 696 449 601L473 624C398 736 418 805 359 805C327 805 301 779 301 752Z" glyph-name="Ograve.small" horiz-adv-x="628" /><glyph d="M494 700C219 700 40 399 40 213C40 93 100 -10 276 -10C548 -10 723 282 723 482C723 604 661 700 494 700ZM484 328C412 178 415 39 259 39C189 39 150 69 150 125C150 204 202 197 276 357C347 507 350 652 501 652C572 652 609 614 609 563C609 478 557 488 484 328ZM401 745 436 717 648 868 550 912ZM601 745 636 717 848 868 750 912Z" glyph-name="Ohungarumlaut" horiz-adv-x="763" unicode="&#336;" /><glyph d="M0 175C0 70 60 -10 204 -10C424 -10 573 187 573 356C573 454 511 535 374 535C152 535 0 334 0 175ZM371 252C315 136 318 31 191 31C135 31 105 54 105 96C105 154 142 153 200 273C255 388 257 496 380 496C437 496 466 468 466 429C466 366 428 371 371 252ZM290 626 321 597 529 767 441 825ZM475 626 506 597 717 757 634 820Z" glyph-name="Ohungarumlaut.small" horiz-adv-x="628" /><glyph d="M454 848 418 775H724L760 848ZM494 700C219 700 40 399 40 213C40 93 100 -10 276 -10C548 -10 723 282 723 482C723 604 661 700 494 700ZM484 328C412 178 415 39 259 39C189 39 150 69 150 125C150 204 202 197 276 357C347 507 350 652 501 652C572 652 609 614 609 563C609 478 557 488 484 328Z" glyph-name="Omacron" horiz-adv-x="763" unicode="&#332;" /><glyph d="M0 175C0 70 60 -10 204 -10C424 -10 573 187 573 356C573 454 511 535 374 535C152 535 0 334 0 175ZM371 252C315 136 318 31 191 31C135 31 105 54 105 96C105 154 142 153 200 273C255 388 257 496 380 496C437 496 466 468 466 429C466 366 428 371 371 252ZM318 760 282 687H588L624 760Z" glyph-name="Omacron.small" horiz-adv-x="628" /><glyph d="M380 698C175 698 50 557 50 376C50 168 217 92 249 83V80H65V0H313V107C310 108 207 207 207 369C207 510 245 637 380 637C515 637 553 510 553 369C553 207 450 108 447 107V0H695V80H511V83C543 92 710 168 710 376C710 557 585 698 380 698Z" glyph-name="Omega" horiz-adv-x="748" unicode="&#8486;" /><glyph d="M646 702 58 -10H111L697 702ZM494 700C219 700 40 399 40 213C40 93 100 -10 276 -10C548 -10 723 282 723 482C723 604 661 700 494 700ZM484 328C412 178 415 39 259 39C189 39 150 69 150 125C150 204 202 197 276 357C347 507 350 652 501 652C572 652 609 614 609 563C609 478 557 488 484 328Z" glyph-name="Oslash" horiz-adv-x="763" unicode="&#216;" /><glyph d="M483 535 25 -10H81L537 535ZM0 175C0 70 60 -10 204 -10C424 -10 573 187 573 356C573 454 511 535 374 535C152 535 0 334 0 175ZM371 252C315 136 318 31 191 31C135 31 105 54 105 96C105 154 142 153 200 273C255 388 257 496 380 496C437 496 466 468 466 429C466 366 428 371 371 252Z" glyph-name="Oslash.small" horiz-adv-x="628" /><glyph d="M646 702 58 -10H111L697 702ZM494 700C219 700 40 399 40 213C40 93 100 -10 276 -10C548 -10 723 282 723 482C723 604 661 700 494 700ZM484 328C412 178 415 39 259 39C189 39 150 69 150 125C150 204 202 197 276 357C347 507 350 652 501 652C572 652 609 614 609 563C609 478 557 488 484 328ZM510 773 522 742C613 770 675 769 715 779C746 788 764 803 764 837C764 864 743 886 711 886C651 886 643 842 510 773Z" glyph-name="Oslashacute" horiz-adv-x="763" unicode="&#510;" /><glyph d="M483 535 25 -10H81L537 535ZM0 175C0 70 60 -10 204 -10C424 -10 573 187 573 356C573 454 511 535 374 535C152 535 0 334 0 175ZM371 252C315 136 318 31 191 31C135 31 105 54 105 96C105 154 142 153 200 273C255 388 257 496 380 496C437 496 466 468 466 429C466 366 428 371 371 252ZM377 624 395 601C544 694 615 685 615 750C615 777 594 798 565 798C507 798 517 748 377 624Z" glyph-name="Oslashacute.small" horiz-adv-x="628" /><glyph d="M680 823C627 823 609 889 526 889C453 889 406 852 390 748H422C433 789 443 809 478 809C532 809 549 744 629 744C700 744 754 784 767 885H734C724 843 714 823 680 823ZM494 700C219 700 40 399 40 213C40 93 100 -10 276 -10C548 -10 723 282 723 482C723 604 661 700 494 700ZM484 328C412 178 415 39 259 39C189 39 150 69 150 125C150 204 202 197 276 357C347 507 350 652 501 652C572 652 609 614 609 563C609 478 557 488 484 328Z" glyph-name="Otilde" horiz-adv-x="763" unicode="&#213;" /><glyph d="M0 175C0 70 60 -10 204 -10C424 -10 573 187 573 356C573 454 511 535 374 535C152 535 0 334 0 175ZM371 252C315 136 318 31 191 31C135 31 105 54 105 96C105 154 142 153 200 273C255 388 257 496 380 496C437 496 466 468 466 429C466 366 428 371 371 252ZM268 646H300C311 687 321 707 356 707C410 707 427 642 507 642C578 642 632 682 645 783H612C602 741 592 721 558 721C505 721 487 787 404 787C331 787 284 750 268 646Z" glyph-name="Otilde.small" horiz-adv-x="628" /><glyph d="M348 304C294 304 257 311 232 320L261 391C293 469 323 554 338 642C352 644 407 648 446 648C500 648 535 626 535 584C535 542 513 534 487 471C461 407 457 393 441 359C426 328 402 304 348 304ZM357 254C535 254 671 392 671 534C671 640 597 697 475 697C411 697 312 690 281 690C211 523 25 422 25 169C25 103 35 49 53 0H101L213 274C253 262 310 254 357 254Z" glyph-name="P" horiz-adv-x="656" unicode="P" /><glyph d="M281 190C425 190 536 278 536 397C536 479 471 533 371 533C321 533 220 528 196 528C142 406 -5 311 -5 127C-5 79 7 36 21 0H69L152 205C184 196 244 190 281 190ZM338 490C382 490 409 473 410 442C411 410 395 396 375 349C353 298 352 273 329 254C315 242 299 237 265 237C223 237 190 242 170 249L191 300C214 357 238 421 250 485C261 487 308 490 338 490Z" glyph-name="P.small" horiz-adv-x="556" /><glyph d="M150 19C142 0 137 -21 137 -39C137 -113 198 -180 327 -180C431 -180 495 -127 487 -24H445C440 -82 413 -134 345 -134C280 -134 258 -102 258 -63C258 -38 267 -10 279 15ZM494 700C219 700 40 399 40 213C40 93 100 -10 276 -10C548 -10 723 282 723 482C723 604 661 700 494 700ZM484 328C412 178 415 39 259 39C189 39 150 69 150 125C150 204 202 197 276 357C347 507 350 652 501 652C572 652 609 614 609 563C609 478 557 488 484 328Z" glyph-name="Q" horiz-adv-x="763" unicode="Q" /><glyph d="M114 9C106.7634 -9.9085 103.2324 -29.0896 103.814 -47.3854C105.7238 -107.465 151.9811 -158 257 -158C344 -158 404 -117 398 -36H363C359 -81 327 -116 273 -116C222.3259 -116 204.9538 -89.5189 204.6181 -57.1428C204.4239 -38.4062 209.9354 -17.6953 218 1ZM0 175C0 70 60 -10 204 -10C424 -10 573 187 573 356C573 454 511 535 374 535C152 535 0 334 0 175ZM371 252C315 136 318 31 191 31C135 31 105 54 105 96C105 154 142 153 200 273C255 388 257 496 380 496C437 496 466 468 466 429C466 366 428 371 371 252Z" glyph-name="Q.small" horiz-adv-x="628" /><glyph d="M483 -10 497 23C478 24 455 32 455 53C455 98 552 124 552 230C552 294 515 346 412 363C544 372 682 431 682 553C682 641 616 697 489 697C409 697 315 690 280 690C223 538 25 434 25 160C25 108 36 55 53 0H101L242 343H301C367 343 385 314 385 276C385 216 348 178 348 117C348 58 381 1 483 -10ZM338 642C384 647 412 648 450 648C518 648 540 621 540 590C540 551 523 538 500 493C465 424 441 393 312 393H263C294 473 323 556 338 642Z" glyph-name="R" horiz-adv-x="672" unicode="R" /><glyph d="M380 -8 390 20C375 21 358 26 358 43C358 81 432 88 432 174C432 216 408 259 316 275C423 280 541 331 541 424C541 493 486 533 386 533C324 533 229 528 201 528C157 417 0 319 0 120C0 82 11 40 25 0H74L182 262H219C278 262 297 237 297 206C297 161 262 143 262 85C262 32 300 -8 380 -8ZM346 489C401 489 414 468 414 445C414 424 410 414 393 377C368 323 343 303 239 303H199C223 361 243 423 255 485C291 489 317 489 346 489Z" glyph-name="R.small" horiz-adv-x="556" /><glyph d="M483 -10 497 23C478 24 455 32 455 53C455 98 552 124 552 230C552 294 515 346 412 363C544 372 682 431 682 553C682 641 616 697 489 697C409 697 315 690 280 690C223 538 25 434 25 160C25 108 36 55 53 0H101L242 343H301C367 343 385 314 385 276C385 216 348 178 348 117C348 58 381 1 483 -10ZM338 642C384 647 412 648 450 648C518 648 540 621 540 590C540 551 523 538 500 493C465 424 441 393 312 393H263C294 473 323 556 338 642ZM436 773 448 742C539 770 601 769 641 779C672 788 690 803 690 837C690 864 669 886 637 886C577 886 569 842 436 773Z" glyph-name="Racute" horiz-adv-x="672" unicode="&#340;" /><glyph d="M380 -8 390 20C375 21 358 26 358 43C358 81 432 88 432 174C432 216 408 259 316 275C423 280 541 331 541 424C541 493 486 533 386 533C324 533 229 528 201 528C157 417 0 319 0 120C0 82 11 40 25 0H74L182 262H219C278 262 297 237 297 206C297 161 262 143 262 85C262 32 300 -8 380 -8ZM346 489C401 489 414 468 414 445C414 424 410 414 393 377C368 323 343 303 239 303H199C223 361 243 423 255 485C291 489 317 489 346 489ZM337 624 355 601C504 694 575 685 575 750C575 777 554 798 525 798C467 798 477 748 337 624Z" glyph-name="Racute.small" horiz-adv-x="556" /><glyph d="M392 870C415 839 446 783 459 732H491L724 863L705 896L543 821C525 849 480 887 437 899ZM483 -10 497 23C478 24 455 32 455 53C455 98 552 124 552 230C552 294 515 346 412 363C544 372 682 431 682 553C682 641 616 697 489 697C409 697 315 690 280 690C223 538 25 434 25 160C25 108 36 55 53 0H101L242 343H301C367 343 385 314 385 276C385 216 348 178 348 117C348 58 381 1 483 -10ZM338 642C384 647 412 648 450 648C518 648 540 621 540 590C540 551 523 538 500 493C465 424 441 393 312 393H263C294 473 323 556 338 642Z" glyph-name="Rcaron" horiz-adv-x="672" unicode="&#344;" /><glyph d="M380 -8 390 20C375 21 358 26 358 43C358 81 432 88 432 174C432 216 408 259 316 275C423 280 541 331 541 424C541 493 486 533 386 533C324 533 229 528 201 528C157 417 0 319 0 120C0 82 11 40 25 0H74L182 262H219C278 262 297 237 297 206C297 161 262 143 262 85C262 32 300 -8 380 -8ZM346 489C401 489 414 468 414 445C414 424 410 414 393 377C368 323 343 303 239 303H199C223 361 243 423 255 485C291 489 317 489 346 489ZM291 788C314 745 336 662 344 599H376L642 778L626 811L431 705C419 744 373 795 335 814Z" glyph-name="Rcaron.small" horiz-adv-x="556" /><glyph d="M94 -227 125 -240C186 -197 240 -131 252 -55H161C152 -120 122 -176 94 -227ZM483 -10 497 23C478 24 455 32 455 53C455 98 552 124 552 230C552 294 515 346 412 363C544 372 682 431 682 553C682 641 616 697 489 697C409 697 315 690 280 690C223 538 25 434 25 160C25 108 36 55 53 0H101L242 343H301C367 343 385 314 385 276C385 216 348 178 348 117C348 58 381 1 483 -10ZM338 642C384 647 412 648 450 648C518 648 540 621 540 590C540 551 523 538 500 493C465 424 441 393 312 393H263C294 473 323 556 338 642Z" glyph-name="Rcommaaccent" horiz-adv-x="672" unicode="&#342;" /><glyph d="M65 -227 96 -240C157 -197 211 -131 223 -55H132C123 -120 93 -176 65 -227ZM380 -8 390 20C375 21 358 26 358 43C358 81 432 88 432 174C432 216 408 259 316 275C423 280 541 331 541 424C541 493 486 533 386 533C324 533 229 528 201 528C157 417 0 319 0 120C0 82 11 40 25 0H74L182 262H219C278 262 297 237 297 206C297 161 262 143 262 85C262 32 300 -8 380 -8ZM346 489C401 489 414 468 414 445C414 424 410 414 393 377C368 323 343 303 239 303H199C223 361 243 423 255 485C291 489 317 489 346 489Z" glyph-name="Rcommaaccent.small" horiz-adv-x="556" /><glyph d="M34 243C12 218 0 180 0 148C0 75 47 -10 191 -10C409 -10 491 144 491 249C491 367 419 399 350 425C288 448 229 466 229 536C229 589 275 648 386 648C510 648 508 541 490 482H543C560 501 571 532 571 559C571 634 523 700 399 700C212 700 109 559 109 447C109 342 157 301 223 265C285 231 336 209 336 151C336 87 288 42 203 42C78 42 60 138 74 243Z" glyph-name="S" horiz-adv-x="586" unicode="S" /><glyph d="M7 188C-10 169 -20 137 -20 113C-20 53 16 -10 138 -10C313 -10 392 107 392 188C392 274 338 302 283 321C228 340 177 354 177 404C177 446 208 488 298 488C398 488 400 409 386 363H432C445 378 453 402 453 422C453 479 415 535 311 535C160 535 65 435 65 339C65 259 106 227 161 200C214 174 270 162 270 111C270 64 224 39 150 39C49 39 34 108 44 188Z" glyph-name="S.small" horiz-adv-x="503" /><glyph d="M34 243C12 218 0 180 0 148C0 75 47 -10 191 -10C409 -10 491 144 491 249C491 367 419 399 350 425C288 448 229 466 229 536C229 589 275 648 386 648C510 648 508 541 490 482H543C560 501 571 532 571 559C571 634 523 700 399 700C212 700 109 559 109 447C109 342 157 301 223 265C285 231 336 209 336 151C336 87 288 42 203 42C78 42 60 138 74 243ZM378 773 390 742C481 770 543 769 583 779C614 788 632 803 632 837C632 864 611 886 579 886C519 886 511 842 378 773Z" glyph-name="Sacute" horiz-adv-x="586" unicode="&#346;" /><glyph d="M7 188C-10 169 -20 137 -20 113C-20 53 16 -10 138 -10C313 -10 392 107 392 188C392 274 338 302 283 321C228 340 177 354 177 404C177 446 208 488 298 488C398 488 400 409 386 363H432C445 378 453 402 453 422C453 479 415 535 311 535C160 535 65 435 65 339C65 259 106 227 161 200C214 174 270 162 270 111C270 64 224 39 150 39C49 39 34 108 44 188ZM286 624 304 601C453 694 524 685 524 750C524 777 503 798 474 798C416 798 426 748 286 624Z" glyph-name="Sacute.small" horiz-adv-x="503" /><glyph d="M34 243C12 218 0 180 0 148C0 75 47 -10 191 -10C409 -10 491 144 491 249C491 367 419 399 350 425C288 448 229 466 229 536C229 589 275 648 386 648C510 648 508 541 490 482H543C560 501 571 532 571 559C571 634 523 700 399 700C212 700 109 559 109 447C109 342 157 301 223 265C285 231 336 209 336 151C336 87 288 42 203 42C78 42 60 138 74 243ZM334 870C357 839 388 783 401 732H433L666 863L647 896L485 821C467 849 422 887 379 899Z" glyph-name="Scaron" horiz-adv-x="586" unicode="&#352;" /><glyph d="M7 188C-10 169 -20 137 -20 113C-20 53 16 -10 138 -10C313 -10 392 107 392 188C392 274 338 302 283 321C228 340 177 354 177 404C177 446 208 488 298 488C398 488 400 409 386 363H432C445 378 453 402 453 422C453 479 415 535 311 535C160 535 65 435 65 339C65 259 106 227 161 200C214 174 270 162 270 111C270 64 224 39 150 39C49 39 34 108 44 188ZM264 788C287 745 309 662 317 599H349L615 778L599 811L404 705C392 744 346 795 308 814Z" glyph-name="Scaron.small" horiz-adv-x="503" /><glyph d="M34 243C12 218 0 180 0 148C0 75 47 -10 191 -10C409 -10 491 144 491 249C491 367 419 399 350 425C288 448 229 466 229 536C229 589 275 648 386 648C510 648 508 541 490 482H543C560 501 571 532 571 559C571 634 523 700 399 700C212 700 109 559 109 447C109 342 157 301 223 265C285 231 336 209 336 151C336 87 288 42 203 42C78 42 60 138 74 243ZM56 -113C46 -146 54 -205 121 -205C178 -205 230 -167 230 -105C230 -62 198 -30 132 -47H151L170 0L148 3L96 -75L109 -88C114 -86 119 -85 125 -85C145 -85 155 -99 155 -115C155 -142 135 -161 109 -161C80 -161 73 -139 73 -113Z" glyph-name="Scedilla" horiz-adv-x="586" unicode="&#350;" /><glyph d="M7 188C-10 169 -20 137 -20 113C-20 53 16 -10 138 -10C313 -10 392 107 392 188C392 274 338 302 283 321C228 340 177 354 177 404C177 446 208 488 298 488C398 488 400 409 386 363H432C445 378 453 402 453 422C453 479 415 535 311 535C160 535 65 435 65 339C65 259 106 227 161 200C214 174 270 162 270 111C270 64 224 39 150 39C49 39 34 108 44 188ZM35 -113C25 -146 33 -205 100 -205C157 -205 209 -167 209 -105C209 -62 177 -30 111 -47H130L149 0L127 3L75 -75L88 -88C93 -86 98 -85 104 -85C124 -85 134 -99 134 -115C134 -142 114 -161 88 -161C59 -161 52 -139 52 -113Z" glyph-name="Scedilla.small" horiz-adv-x="503" /><glyph d="M191 -10C437 -10 633 249 633 483C633 600 563 700 400 700C258 700 140 623 140 462H188C210 581 276 647 399 647C475 647 522 612 522 557C522 481 472 482 408 372C175 372 10 310 10 141C10 59 63 -10 191 -10ZM217 32C192 32 169 46 169 91C169 189 212 330 385 331C371 306 321 169 296 108C281 72 274 32 217 32Z" glyph-name="Schwa" horiz-adv-x="673" unicode="&#399;" /><glyph d="M103 350H143C149 439 197 486 294 486C353 486 387 460 387 422C387 369 357 382 300 283C226 282 144 277 83 250C18 222 -30 173 -30 108C-30 31 24 -10 121 -10C267 -10 489 144 489 351C489 469 423 535 293 535C179 535 94 472 103 350ZM152 23C107 23 103 75 128 143C136 165 155 201 180 223C203 242 238 250 281 251C206 98 225 23 152 23Z" glyph-name="Schwa.small" horiz-adv-x="544" /><glyph d="M34 243C12 218 0 180 0 148C0 75 47 -10 191 -10C409 -10 491 144 491 249C491 367 419 399 350 425C288 448 229 466 229 536C229 589 275 648 386 648C510 648 508 541 490 482H543C560 501 571 532 571 559C571 634 523 700 399 700C212 700 109 559 109 447C109 342 157 301 223 265C285 231 336 209 336 151C336 87 288 42 203 42C78 42 60 138 74 243ZM271 765 290 732 456 800C486 773 525 744 568 730L595 754C578 789 553 847 536 896H504Z" glyph-name="Scircumflex" horiz-adv-x="586" unicode="&#348;" /><glyph d="M7 188C-10 169 -20 137 -20 113C-20 53 16 -10 138 -10C313 -10 392 107 392 188C392 274 338 302 283 321C228 340 177 354 177 404C177 446 208 488 298 488C398 488 400 409 386 363H432C445 378 453 402 453 422C453 479 415 535 311 535C160 535 65 435 65 339C65 259 106 227 161 200C214 174 270 162 270 111C270 64 224 39 150 39C49 39 34 108 44 188ZM176 635 192 602 387 703C413 663 449 624 486 604L517 625C504 670 484 751 474 814H442Z" glyph-name="Scircumflex.small" horiz-adv-x="503" /><glyph d="M61 -227 92 -240C153 -197 207 -131 219 -55H128C119 -120 89 -176 61 -227ZM34 243C12 218 0 180 0 148C0 75 47 -10 191 -10C409 -10 491 144 491 249C491 367 419 399 350 425C288 448 229 466 229 536C229 589 275 648 386 648C510 648 508 541 490 482H543C560 501 571 532 571 559C571 634 523 700 399 700C212 700 109 559 109 447C109 342 157 301 223 265C285 231 336 209 336 151C336 87 288 42 203 42C78 42 60 138 74 243Z" glyph-name="Scommaaccent" horiz-adv-x="586" unicode="&#536;" /><glyph d="M13 -227 44 -240C105 -197 159 -131 171 -55H80C71 -120 41 -176 13 -227ZM7 188C-10 169 -20 137 -20 113C-20 53 16 -10 138 -10C313 -10 392 107 392 188C392 274 338 302 283 321C228 340 177 354 177 404C177 446 208 488 298 488C398 488 400 409 386 363H432C445 378 453 402 453 422C453 479 415 535 311 535C160 535 65 435 65 339C65 259 106 227 161 200C214 174 270 162 270 111C270 64 224 39 150 39C49 39 34 108 44 188Z" glyph-name="Scommaaccent.small" horiz-adv-x="503" /><glyph d="M554 584C706 584 754 638 754 714H725C704 668 647 660 609 660C495 660 400 700 258 700C116 700 77 573 77 520H106C127 566 169 584 243 584ZM425 640C345 487 124 364 124 150C124 98 141 50 157 0H209L483 640Z" glyph-name="T" horiz-adv-x="576" unicode="T" /><glyph d="M281 455C219 343 80 258 80 114C80 76 93 36 106 0H159L344 455ZM39 384C57 422 93 438 154 438H413C540 438 579 483 579 547H555C537 508 490 502 458 502C364 502 284 535 166 535C47 535 15 428 15 384Z" glyph-name="T.small" horiz-adv-x="499" /><glyph d="M91 351 75 306H439L455 351ZM554 584C706 584 754 638 754 714H725C704 668 647 660 609 660C495 660 400 700 258 700C116 700 77 573 77 520H106C127 566 169 584 243 584ZM425 640C345 487 124 364 124 150C124 98 141 50 157 0H209L483 640Z" glyph-name="Tbar" horiz-adv-x="576" unicode="&#358;" /><glyph d="M61 264 45 219H331L347 264ZM281 455C219 343 80 258 80 114C80 76 93 36 106 0H159L344 455ZM39 384C57 422 93 438 154 438H413C540 438 579 483 579 547H555C537 508 490 502 458 502C364 502 284 535 166 535C47 535 15 428 15 384Z" glyph-name="Tbar.small" horiz-adv-x="499" /><glyph d="M369 870C392 839 423 783 436 732H468L701 863L682 896L520 821C502 849 457 887 414 899ZM554 584C706 584 754 638 754 714H725C704 668 647 660 609 660C495 660 400 700 258 700C116 700 77 573 77 520H106C127 566 169 584 243 584ZM425 640C345 487 124 364 124 150C124 98 141 50 157 0H209L483 640Z" glyph-name="Tcaron" horiz-adv-x="576" unicode="&#356;" /><glyph d="M281 455C219 343 80 258 80 114C80 76 93 36 106 0H159L344 455ZM39 384C57 422 93 438 154 438H413C540 438 579 483 579 547H555C537 508 490 502 458 502C364 502 284 535 166 535C47 535 15 428 15 384ZM272 788C295 745 317 662 325 599H357L623 778L607 811L412 705C400 744 354 795 316 814Z" glyph-name="Tcaron.small" horiz-adv-x="499" /><glyph d="M554 584C706 584 754 638 754 714H725C704 668 647 660 609 660C495 660 400 700 258 700C116 700 77 573 77 520H106C127 566 169 584 243 584ZM425 640C345 487 124 364 124 150C124 98 141 50 157 0H209L483 640ZM83 -113C73 -146 81 -205 148 -205C205 -205 257 -167 257 -105C257 -62 225 -30 159 -47H178L197 0L175 3L123 -75L136 -88C141 -86 146 -85 152 -85C172 -85 182 -99 182 -115C182 -142 162 -161 136 -161C107 -161 100 -139 100 -113Z" glyph-name="Tcedilla" horiz-adv-x="576" unicode="&#354;" /><glyph d="M281 455C219 343 80 258 80 114C80 76 93 36 106 0H159L344 455ZM39 384C57 422 93 438 154 438H413C540 438 579 483 579 547H555C537 508 490 502 458 502C364 502 284 535 166 535C47 535 15 428 15 384ZM29 -113C19 -146 27 -205 94 -205C151 -205 203 -167 203 -105C203 -62 171 -30 105 -47H124L143 0L121 3L69 -75L82 -88C87 -86 92 -85 98 -85C118 -85 128 -99 128 -115C128 -142 108 -161 82 -161C53 -161 46 -139 46 -113Z" glyph-name="Tcedilla.small" horiz-adv-x="499" /><glyph d="M57 -227 88 -240C149 -197 203 -131 215 -55H124C115 -120 85 -176 57 -227ZM554 584C706 584 754 638 754 714H725C704 668 647 660 609 660C495 660 400 700 258 700C116 700 77 573 77 520H106C127 566 169 584 243 584ZM425 640C345 487 124 364 124 150C124 98 141 50 157 0H209L483 640Z" glyph-name="Tcommaaccent" horiz-adv-x="576" unicode="&#538;" /><glyph d="M281 455C219 343 80 258 80 114C80 76 93 36 106 0H159L344 455ZM39 384C57 422 93 438 154 438H413C540 438 579 483 579 547H555C537 508 490 502 458 502C364 502 284 535 166 535C47 535 15 428 15 384ZM13 -227 44 -240C105 -197 159 -131 171 -55H80C71 -120 41 -176 13 -227Z" glyph-name="Tcommaaccent.small" horiz-adv-x="499" /><glyph d="M294 174C240 174 203 181 178 190L207 261C239 340 268 430 290 513C309 515 356 518 392 518C446 518 481 496 481 454C481 412 459 404 433 341C407 277 403 263 387 229C372 198 348 174 294 174ZM56 0H101L159 144C199 132 256 124 303 124C481 124 617 262 617 404C617 510 543 567 421 567C386 567 342 565 303 563C316 618 326 669 326 690H290C223.413 514.3767 19.6542 434.3579 24.7032 178.3498C25.7203 126.7808 35.2099 68.0708 56 0Z" glyph-name="Thorn" horiz-adv-x="656" unicode="&#222;" /><glyph d="M20 0H64L111 105C143 96 203 90 240 90C384 90 495 178 495 297C495 379 430 433 330 433C307 433 273 432 241 431C251 476 255 511 255 530H210C157.187 401.2683 -5.2607 324.2896 -4.8065 136.1039C-4.7103 96.2419 2.6951 51.3902 20 0ZM224 137C183 137 151 142 131 148L178 251C201 298 218 345 229 387C249 389 277 390 297 390C341 390 368 373 369 342C370 310 354 296 334 249C314 202.5 305.25 174.5 292.125 158.125C279 141.75 261.5 137 224 137Z" glyph-name="Thorn.small" horiz-adv-x="550" /><glyph d="M25 186C25 77 103 -10 250 -10C475 -10 681 305 681 530C681 580 673 635 652 690H615L516 377C455 185 381 42 267 42C205 42 188 77 188 118C188 156 210 207 241 282L337 513C364 579 371 640 371 690H331C247 494 25 431 25 186Z" glyph-name="U" horiz-adv-x="711" unicode="U" /><glyph d="M-10 145C-10 59 46 -10 181 -10C385 -10 549 227 549 397C549 434 544 486 525 530H483L406 290C359 144 300 42 206 42C155 42 140 69 139 100C138 130 153 169 179 227L252 392C278 450 279 494 279 530H232C166 387 -10 312 -10 145Z" glyph-name="U.small" horiz-adv-x="594" /><glyph d="M450 773 462 742C553 770 615 769 655 779C686 788 704 803 704 837C704 864 683 886 651 886C591 886 583 842 450 773ZM25 186C25 77 103 -10 250 -10C475 -10 681 305 681 530C681 580 673 635 652 690H615L516 377C455 185 381 42 267 42C205 42 188 77 188 118C188 156 210 207 241 282L337 513C364 579 371 640 371 690H331C247 494 25 431 25 186Z" glyph-name="Uacute" horiz-adv-x="711" unicode="&#218;" /><glyph d="M-10 145C-10 59 46 -10 181 -10C385 -10 549 227 549 397C549 434 544 486 525 530H483L406 290C359 144 300 42 206 42C155 42 140 69 139 100C138 130 153 169 179 227L252 392C278 450 279 494 279 530H232C166 387 -10 312 -10 145ZM352 624 370 601C519 694 590 685 590 750C590 777 569 798 540 798C482 798 492 748 352 624Z" glyph-name="Uacute.small" horiz-adv-x="594" /><glyph d="M449 897C419 865 404 837 404 804C404 771 429 738 498 738C603 738 692 804 733 897H693C654 845 596 814 538 814C476 814 473 850 482 897ZM25 186C25 77 103 -10 250 -10C475 -10 681 305 681 530C681 580 673 635 652 690H615L516 377C455 185 381 42 267 42C205 42 188 77 188 118C188 156 210 207 241 282L337 513C364 579 371 640 371 690H331C247 494 25 431 25 186Z" glyph-name="Ubreve" horiz-adv-x="711" unicode="&#364;" /><glyph d="M-10 145C-10 59 46 -10 181 -10C385 -10 549 227 549 397C549 434 544 486 525 530H483L406 290C359 144 300 42 206 42C155 42 140 69 139 100C138 130 153 169 179 227L252 392C278 450 279 494 279 530H232C166 387 -10 312 -10 145ZM395 617C518 617 621 708 655 803H616C576 752 514 706 448 706C372 706 375 756 381 803H352C320 761 305 733 305 695C305 655 328 617 395 617Z" glyph-name="Ubreve.small" horiz-adv-x="594" /><glyph d="M25 186C25 77 103 -10 250 -10C475 -10 681 305 681 530C681 580 673 635 652 690H615L516 377C455 185 381 42 267 42C205 42 188 77 188 118C188 156 210 207 241 282L337 513C364 579 371 640 371 690H331C247 494 25 431 25 186ZM356 765 375 732 541 800C571 773 610 744 653 730L680 754C663 789 638 847 621 896H589Z" glyph-name="Ucircumflex" horiz-adv-x="711" unicode="&#219;" /><glyph d="M-10 145C-10 59 46 -10 181 -10C385 -10 549 227 549 397C549 434 544 486 525 530H483L406 290C359 144 300 42 206 42C155 42 140 69 139 100C138 130 153 169 179 227L252 392C278 450 279 494 279 530H232C166 387 -10 312 -10 145ZM224 635 240 602 435 703C461 663 497 624 534 604L565 625C552 670 532 751 522 814H490Z" glyph-name="Ucircumflex.small" horiz-adv-x="594" /><glyph d="M376 791C376 765 392 745 423 745C463 745 500 773 500 817C500 845 483 865 451 865C414 865 376 838 376 791ZM560 791C560 765 576 745 607 745C647 745 684 773 684 817C684 845 667 865 635 865C598 865 560 838 560 791ZM25 186C25 77 103 -10 250 -10C475 -10 681 305 681 530C681 580 673 635 652 690H615L516 377C455 185 381 42 267 42C205 42 188 77 188 118C188 156 210 207 241 282L337 513C364 579 371 640 371 690H331C247 494 25 431 25 186Z" glyph-name="Udieresis" horiz-adv-x="711" unicode="&#220;" /><glyph d="M-10 145C-10 59 46 -10 181 -10C385 -10 549 227 549 397C549 434 544 486 525 530H483L406 290C359 144 300 42 206 42C155 42 140 69 139 100C138 130 153 169 179 227L252 392C278 450 279 494 279 530H232C166 387 -10 312 -10 145ZM262 703C262 677 278 657 309 657C349 657 386 685 386 729C386 757 369 777 337 777C300 777 262 750 262 703ZM446 703C446 677 462 657 493 657C533 657 570 685 570 729C570 757 553 777 521 777C484 777 446 750 446 703Z" glyph-name="Udieresis.small" horiz-adv-x="594" /><glyph d="M394 827C394 763 463 785 590 734L605 759C511 833 505 885 452 885C411 885 394 851 394 827ZM25 186C25 77 103 -10 250 -10C475 -10 681 305 681 530C681 580 673 635 652 690H615L516 377C455 185 381 42 267 42C205 42 188 77 188 118C188 156 210 207 241 282L337 513C364 579 371 640 371 690H331C247 494 25 431 25 186Z" glyph-name="Ugrave" horiz-adv-x="711" unicode="&#217;" /><glyph d="M-10 145C-10 59 46 -10 181 -10C385 -10 549 227 549 397C549 434 544 486 525 530H483L406 290C359 144 300 42 206 42C155 42 140 69 139 100C138 130 153 169 179 227L252 392C278 450 279 494 279 530H232C166 387 -10 312 -10 145ZM277 752C277 695 334 696 425 601L449 624C374 736 394 805 335 805C303 805 277 779 277 752Z" glyph-name="Ugrave.small" horiz-adv-x="594" /><glyph d="M25 186C25 77 103 -10 250 -10C475 -10 681 305 681 530C681 580 673 635 652 690H615L516 377C455 185 381 42 267 42C205 42 188 77 188 118C188 156 210 207 241 282L337 513C364 579 371 640 371 690H331C247 494 25 431 25 186ZM367 745 402 717 614 868 516 912ZM567 745 602 717 814 868 716 912Z" glyph-name="Uhungarumlaut" horiz-adv-x="711" unicode="&#368;" /><glyph d="M-10 145C-10 59 46 -10 181 -10C385 -10 549 227 549 397C549 434 544 486 525 530H483L406 290C359 144 300 42 206 42C155 42 140 69 139 100C138 130 153 169 179 227L252 392C278 450 279 494 279 530H232C166 387 -10 312 -10 145ZM282 626 313 597 521 767 433 825ZM467 626 498 597 709 757 626 820Z" glyph-name="Uhungarumlaut.small" horiz-adv-x="594" /><glyph d="M381 848 345 775H651L687 848ZM25 186C25 77 103 -10 250 -10C475 -10 681 305 681 530C681 580 673 635 652 690H615L516 377C455 185 381 42 267 42C205 42 188 77 188 118C188 156 210 207 241 282L337 513C364 579 371 640 371 690H331C247 494 25 431 25 186Z" glyph-name="Umacron" horiz-adv-x="711" unicode="&#362;" /><glyph d="M-10 145C-10 59 46 -10 181 -10C385 -10 549 227 549 397C549 434 544 486 525 530H483L406 290C359 144 300 42 206 42C155 42 140 69 139 100C138 130 153 169 179 227L252 392C278 450 279 494 279 530H232C166 387 -10 312 -10 145ZM292 760 256 687H562L598 760Z" glyph-name="Umacron.small" horiz-adv-x="594" /><glyph d="M210 -143C210 -186 235 -218 286 -218C354 -218 386 -175 399 -116H374C366 -136 350 -151 328 -151C311 -151 304 -140 304 -119C304 -77 338 -10 440 63L419 66C316 -2 210 -53 210 -143ZM25 186C25 77 103 -10 250 -10C475 -10 681 305 681 530C681 580 673 635 652 690H615L516 377C455 185 381 42 267 42C205 42 188 77 188 118C188 156 210 207 241 282L337 513C364 579 371 640 371 690H331C247 494 25 431 25 186Z" glyph-name="Uogonek" horiz-adv-x="711" unicode="&#370;" /><glyph d="M-10 145C-10 59 46 -10 181 -10C385 -10 549 227 549 397C549 434 544 486 525 530H483L406 290C359 144 300 42 206 42C155 42 140 69 139 100C138 130 153 169 179 227L252 392C278 450 279 494 279 530H232C166 387 -10 312 -10 145ZM144 -143C144 -186 169 -218 220 -218C288 -218 320 -175 333 -116H308C300 -136 284 -151 262 -151C245 -151 238 -140 238 -119C238 -77 272 -10 374 63L353 66C250 -2 144 -53 144 -143Z" glyph-name="Uogonek.small" horiz-adv-x="594" /><glyph d="M25 186C25 77 103 -10 250 -10C475 -10 681 305 681 530C681 580 673 635 652 690H615L516 377C455 185 381 42 267 42C205 42 188 77 188 118C188 156 210 207 241 282L337 513C364 579 371 640 371 690H331C247 494 25 431 25 186ZM387 810C387 758 427 717 493 717C573 717 636 771 636 844C636 897 595 937 529 937C447 937 387 879 387 810ZM561 837C561 797 537 764 502 764C475 764 462 786 462 814C462 860 487 890 521 890C547 890 561 867 561 837Z" glyph-name="Uring" horiz-adv-x="711" unicode="&#366;" /><glyph d="M-10 145C-10 59 46 -10 181 -10C385 -10 549 227 549 397C549 434 544 486 525 530H483L406 290C359 144 300 42 206 42C155 42 140 69 139 100C138 130 153 169 179 227L252 392C278 450 279 494 279 530H232C166 387 -10 312 -10 145ZM297 708C297 656 337 615 403 615C483 615 546 669 546 742C546 795 505 835 439 835C357 835 297 777 297 708ZM471 741C471 708 449 662 412 662C386 662 371 682 371 709C371 756.0435 400 788 431 788C455 788 471 768 471 741Z" glyph-name="Uring.small" horiz-adv-x="594" /><glyph d="M637 823C584 823 566 889 483 889C410 889 363 852 347 748H379C390 789 400 809 435 809C489 809 506 744 586 744C657 744 711 784 724 885H691C681 843 671 823 637 823ZM25 186C25 77 103 -10 250 -10C475 -10 681 305 681 530C681 580 673 635 652 690H615L516 377C455 185 381 42 267 42C205 42 188 77 188 118C188 156 210 207 241 282L337 513C364 579 371 640 371 690H331C247 494 25 431 25 186Z" glyph-name="Utilde" horiz-adv-x="711" unicode="&#360;" /><glyph d="M-10 145C-10 59 46 -10 181 -10C385 -10 549 227 549 397C549 434 544 486 525 530H483L406 290C359 144 300 42 206 42C155 42 140 69 139 100C138 130 153 169 179 227L252 392C278 450 279 494 279 530H232C166 387 -10 312 -10 145ZM250 646H282C293 687 303 707 338 707C392 707 409 642 489 642C560 642 614 682 627 783H594C584 741 574 721 540 721C487 721 469 787 386 787C313 787 266 750 250 646Z" glyph-name="Utilde.small" horiz-adv-x="594" /><glyph d="M558 690C532 459 468 346 299 206L145 79L291 512C314 579 326 648 324 690H288C204 494 25 408 25 206C25 122 65 39 104 -5H139L377 190C540 323 678 441 678 546C678 620 646 663 592 690Z" glyph-name="V" horiz-adv-x="648" unicode="V" /><glyph d="M108 -4 307 148C441 251 552 330 552 428C552 482 517 519 488 530H452C432 362 378 278 246 173L114 68L220 390C234 432 243 483 243 530H198C133 387 0 304 0 158C0 96 34 28 64 -4Z" glyph-name="V.small" horiz-adv-x="552" /><glyph d="M145 77 290 513C312 580 325 648 323 690H287C199 484 25 407 25 206C25 122 63 41 99 -5H140L395 259C388 170 399 60 426 -5H475L709 194C851 314 964 405 964 542C964 605 937 654 878 690H844C821 446 760 327 629 206L485 73L608 439C641 537 626 622 588 690H554C521 436 301 246 145 77Z" glyph-name="W" horiz-adv-x="934" unicode="W" /><glyph d="M357 -4H411L602 151C728 254 810 317 810 416C810 462 792 504 746 530H704C686 353 634 255 531 168L411 65L502 339C526 411 530 479 486 530H444C418 351 238 196 116 73L220 393C236 442 247 499 245 530H199C131 380 0 301 0 155C0 94 31 30 60 -4H109L328 208C328 123 336 43 357 -4Z" glyph-name="W.small" horiz-adv-x="820" /><glyph d="M547 773 559 742C650 770 712 769 752 779C783 788 801 803 801 837C801 864 780 886 748 886C688 886 680 842 547 773ZM145 77 290 513C312 580 325 648 323 690H287C199 484 25 407 25 206C25 122 63 41 99 -5H140L395 259C388 170 399 60 426 -5H475L709 194C851 314 964 405 964 542C964 605 937 654 878 690H844C821 446 760 327 629 206L485 73L608 439C641 537 626 622 588 690H554C521 436 301 246 145 77Z" glyph-name="Wacute" horiz-adv-x="934" unicode="&#7810;" /><glyph d="M357 -4H411L602 151C728 254 810 317 810 416C810 462 792 504 746 530H704C686 353 634 255 531 168L411 65L502 339C526 411 530 479 486 530H444C418 351 238 196 116 73L220 393C236 442 247 499 245 530H199C131 380 0 301 0 155C0 94 31 30 60 -4H109L328 208C328 123 336 43 357 -4ZM459 624 477 601C626 694 697 685 697 750C697 777 676 798 647 798C589 798 599 748 459 624Z" glyph-name="Wacute.small" horiz-adv-x="820" /><glyph d="M145 77 290 513C312 580 325 648 323 690H287C199 484 25 407 25 206C25 122 63 41 99 -5H140L395 259C388 170 399 60 426 -5H475L709 194C851 314 964 405 964 542C964 605 937 654 878 690H844C821 446 760 327 629 206L485 73L608 439C641 537 626 622 588 690H554C521 436 301 246 145 77ZM423 765 442 732 608 800C638 773 677 744 720 730L747 754C730 789 705 847 688 896H656Z" glyph-name="Wcircumflex" horiz-adv-x="934" unicode="&#372;" /><glyph d="M357 -4H411L602 151C728 254 810 317 810 416C810 462 792 504 746 530H704C686 353 634 255 531 168L411 65L502 339C526 411 530 479 486 530H444C418 351 238 196 116 73L220 393C236 442 247 499 245 530H199C131 380 0 301 0 155C0 94 31 30 60 -4H109L328 208C328 123 336 43 357 -4ZM340 635 356 602 551 703C577 663 613 624 650 604L681 625C668 670 648 751 638 814H606Z" glyph-name="Wcircumflex.small" horiz-adv-x="820" /><glyph d="M441 791C441 765 457 745 488 745C528 745 565 773 565 817C565 845 548 865 516 865C479 865 441 838 441 791ZM625 791C625 765 641 745 672 745C712 745 749 773 749 817C749 845 732 865 700 865C663 865 625 838 625 791ZM145 77 290 513C312 580 325 648 323 690H287C199 484 25 407 25 206C25 122 63 41 99 -5H140L395 259C388 170 399 60 426 -5H475L709 194C851 314 964 405 964 542C964 605 937 654 878 690H844C821 446 760 327 629 206L485 73L608 439C641 537 626 622 588 690H554C521 436 301 246 145 77Z" glyph-name="Wdieresis" horiz-adv-x="934" unicode="&#7812;" /><glyph d="M357 -4H411L602 151C728 254 810 317 810 416C810 462 792 504 746 530H704C686 353 634 255 531 168L411 65L502 339C526 411 530 479 486 530H444C418 351 238 196 116 73L220 393C236 442 247 499 245 530H199C131 380 0 301 0 155C0 94 31 30 60 -4H109L328 208C328 123 336 43 357 -4ZM360 703C360 677 376 657 407 657C447 657 484 685 484 729C484 757 467 777 435 777C398 777 360 750 360 703ZM544 703C544 677 560 657 591 657C631 657 668 685 668 729C668 757 651 777 619 777C582 777 544 750 544 703Z" glyph-name="Wdieresis.small" horiz-adv-x="820" /><glyph d="M451 827C451 763 520 785 647 734L662 759C568 833 562 885 509 885C468 885 451 851 451 827ZM145 77 290 513C312 580 325 648 323 690H287C199 484 25 407 25 206C25 122 63 41 99 -5H140L395 259C388 170 399 60 426 -5H475L709 194C851 314 964 405 964 542C964 605 937 654 878 690H844C821 446 760 327 629 206L485 73L608 439C641 537 626 622 588 690H554C521 436 301 246 145 77Z" glyph-name="Wgrave" horiz-adv-x="934" unicode="&#7808;" /><glyph d="M357 -4H411L602 151C728 254 810 317 810 416C810 462 792 504 746 530H704C686 353 634 255 531 168L411 65L502 339C526 411 530 479 486 530H444C418 351 238 196 116 73L220 393C236 442 247 499 245 530H199C131 380 0 301 0 155C0 94 31 30 60 -4H109L328 208C328 123 336 43 357 -4ZM351 752C351 695 408 696 499 601L523 624C448 736 468 805 409 805C377 805 351 779 351 752Z" glyph-name="Wgrave.small" horiz-adv-x="820" /><glyph d="M328 449C262 566 247 605 262 690H230C176 644 133 597 133 527C133 472 156 432 202 352L269 234C327 131 347 96 331 0H363C406 35 460 89 460 159C460 217 433 263 399 323ZM351 370C453 476 612 537 612 627C612 648 603 671 580 690H557L331 407ZM231 334C136 236 -30 162 -30 73C-30 51 -21 25 -1 0H22L251 295Z" glyph-name="X" horiz-adv-x="572.1858" unicode="X" /><glyph d="M201 180C250 101 267 74 253 0H285C321 27 367 68 367 122C367 167 344 202 315 248L256 345C200 435 188 465 200 530H168C123 495 87 459 87 405C87 363 106 332 145 270ZM282 284C368 366 494 412 494 482C494 498 487 515 468 530H442L258 313ZM163 257C83 181 -50 124 -50 56C-50 39 -43 19 -26 0H-2L186 227Z" glyph-name="X.small" horiz-adv-x="489.3706" /><glyph d="M148 0 219 182C239 233 268 284 324 333C469 459 612 528 612 632C612 653 603 674 587 690H565L301 385L283 458C254 575 249 607 269 690H237C135 607 73 557 143 390L186 287C115 212 59 168 59 102C59 63 77 33 105 0Z" glyph-name="Y" horiz-adv-x="545" unicode="Y" /><glyph d="M91 0 152 140C169 179 190 218 236 256C359 352 476 406 476 485C476 502 469 518 456 530H429L219 298L204 354C180 444 176 466 192 530H161C74 466 22 428 81 299L117 220C58 163 10 129 10 78C10 48 25 25 49 0Z" glyph-name="Y.small" horiz-adv-x="441" /><glyph d="M148 0 219 182C239 233 268 284 324 333C469 459 612 528 612 632C612 653 603 674 587 690H565L301 385L283 458C254 575 249 607 269 690H237C135 607 73 557 143 390L186 287C115 212 59 168 59 102C59 63 77 33 105 0ZM374 773 386 742C477 770 539 769 579 779C610 788 628 803 628 837C628 864 607 886 575 886C515 886 507 842 374 773Z" glyph-name="Yacute" horiz-adv-x="545" unicode="&#221;" /><glyph d="M91 0 152 140C169 179 190 218 236 256C359 352 476 406 476 485C476 502 469 518 456 530H429L219 298L204 354C180 444 176 466 192 530H161C74 466 22 428 81 299L117 220C58 163 10 129 10 78C10 48 25 25 49 0ZM284 624 302 601C451 694 522 685 522 750C522 777 501 798 472 798C414 798 424 748 284 624Z" glyph-name="Yacute.small" horiz-adv-x="441" /><glyph d="M148 0 219 182C239 233 268 284 324 333C469 459 612 528 612 632C612 653 603 674 587 690H565L301 385L283 458C254 575 249 607 269 690H237C135 607 73 557 143 390L186 287C115 212 59 168 59 102C59 63 77 33 105 0ZM255 765 274 732 440 800C470 773 509 744 552 730L579 754C562 789 537 847 520 896H488Z" glyph-name="Ycircumflex" horiz-adv-x="545" unicode="&#374;" /><glyph d="M91 0 152 140C169 179 190 218 236 256C359 352 476 406 476 485C476 502 469 518 456 530H429L219 298L204 354C180 444 176 466 192 530H161C74 466 22 428 81 299L117 220C58 163 10 129 10 78C10 48 25 25 49 0ZM159 635 175 602 370 703C396 663 432 624 469 604L500 625C487 670 467 751 457 814H425Z" glyph-name="Ycircumflex.small" horiz-adv-x="441" /><glyph d="M148 0 219 182C239 233 268 284 324 333C469 459 612 528 612 632C612 653 603 674 587 690H565L301 385L283 458C254 575 249 607 269 690H237C135 607 73 557 143 390L186 287C115 212 59 168 59 102C59 63 77 33 105 0ZM284 791C284 765 300 745 331 745C371 745 408 773 408 817C408 845 391 865 359 865C322 865 284 838 284 791ZM468 791C468 765 484 745 515 745C555 745 592 773 592 817C592 845 575 865 543 865C506 865 468 838 468 791Z" glyph-name="Ydieresis" horiz-adv-x="545" unicode="&#376;" /><glyph d="M91 0 152 140C169 179 190 218 236 256C359 352 476 406 476 485C476 502 469 518 456 530H429L219 298L204 354C180 444 176 466 192 530H161C74 466 22 428 81 299L117 220C58 163 10 129 10 78C10 48 25 25 49 0ZM206 703C206 677 222 657 253 657C293 657 330 685 330 729C330 757 313 777 281 777C244 777 206 750 206 703ZM390 703C390 677 406 657 437 657C477 657 514 685 514 729C514 757 497 777 465 777C428 777 390 750 390 703Z" glyph-name="Ydieresis.small" horiz-adv-x="441" /><glyph d="M148 0 219 182C239 233 268 284 324 333C469 459 612 528 612 632C612 653 603 674 587 690H565L301 385L283 458C254 575 249 607 269 690H237C135 607 73 557 143 390L186 287C115 212 59 168 59 102C59 63 77 33 105 0ZM295 827C295 763 364 785 491 734L506 759C412 833 406 885 353 885C312 885 295 851 295 827Z" glyph-name="Ygrave" horiz-adv-x="545" unicode="&#7922;" /><glyph d="M91 0 152 140C169 179 190 218 236 256C359 352 476 406 476 485C476 502 469 518 456 530H429L219 298L204 354C180 444 176 466 192 530H161C74 466 22 428 81 299L117 220C58 163 10 129 10 78C10 48 25 25 49 0ZM204 752C204 695 261 696 352 601L376 624C301 736 321 805 262 805C230 805 204 779 204 752Z" glyph-name="Ygrave.small" horiz-adv-x="441" /><glyph d="M-25 -4C244 197 460 385 664 664L640 690C408 536 170 342 -52 21ZM12 55C134 55 268 -10 362 -10C463 -10 513 63 513 179H484C468 137 448 115 351 115H53ZM583 637C521 637 401 700 293 700C151 700 132 575 132 522H161C182 568 204 586 307 586H541Z" glyph-name="Z" horiz-adv-x="628" unicode="Z" /><glyph d="M521 500 496 528C339 427 104 240 -65 22L-40 -6C157 121 369 308 521 500ZM452 487C400 487 296 535 206 535C89 535 74 433 74 393H103C122 428 140 441 223 441H417ZM-20 39C82 39 197 -10 275 -10C357 -10 399 53 399 141H370C357 109 340 92 261 92H16Z" glyph-name="Z.small" horiz-adv-x="516" /><glyph d="M-25 -4C244 197 460 385 664 664L640 690C408 536 170 342 -52 21ZM12 55C134 55 268 -10 362 -10C463 -10 513 63 513 179H484C468 137 448 115 351 115H53ZM583 637C521 637 401 700 293 700C151 700 132 575 132 522H161C182 568 204 586 307 586H541ZM339 772 351 741C442 769 504 768 544 778C575 787 593 802 593 836C593 863 572 885 540 885C480 885 472 841 339 772Z" glyph-name="Zacute" horiz-adv-x="628" unicode="&#377;" /><glyph d="M521 500 496 528C339 427 104 240 -65 22L-40 -6C157 121 369 308 521 500ZM452 487C400 487 296 535 206 535C89 535 74 433 74 393H103C122 428 140 441 223 441H417ZM-20 39C82 39 197 -10 275 -10C357 -10 399 53 399 141H370C357 109 340 92 261 92H16ZM248 624 266 601C415 694 486 685 486 750C486 777 465 798 436 798C378 798 388 748 248 624Z" glyph-name="Zacute.small" horiz-adv-x="516" /><glyph d="M319 870C342 839 373 783 386 732H418L651 863L632 896L470 821C452 849 407 887 364 899ZM-25 -4C244 197 460 385 664 664L640 690C408 536 170 342 -52 21ZM12 55C134 55 268 -10 362 -10C463 -10 513 63 513 179H484C468 137 448 115 351 115H53ZM583 637C521 637 401 700 293 700C151 700 132 575 132 522H161C182 568 204 586 307 586H541Z" glyph-name="Zcaron" horiz-adv-x="628" unicode="&#381;" /><glyph d="M521 500 496 528C339 427 104 240 -65 22L-40 -6C157 121 369 308 521 500ZM452 487C400 487 296 535 206 535C89 535 74 433 74 393H103C122 428 140 441 223 441H417ZM-20 39C82 39 197 -10 275 -10C357 -10 399 53 399 141H370C357 109 340 92 261 92H16ZM236 788C259 745 281 662 289 599H321L587 778L571 811L376 705C364 744 318 795 280 814Z" glyph-name="Zcaron.small" horiz-adv-x="516" /><glyph d="M365 805C365 767 396 736 433 736C470 736 503 767 503 805C503 844 470 874 433 874C396 874 365 844 365 805ZM-25 -4C244 197 460 385 664 664L640 690C408 536 170 342 -52 21ZM12 55C134 55 268 -10 362 -10C463 -10 513 63 513 179H484C468 137 448 115 351 115H53ZM583 637C521 637 401 700 293 700C151 700 132 575 132 522H161C182 568 204 586 307 586H541Z" glyph-name="Zdotaccent" horiz-adv-x="628" unicode="&#379;" /><glyph d="M521 500 496 528C339 427 104 240 -65 22L-40 -6C157 121 369 308 521 500ZM452 487C400 487 296 535 206 535C89 535 74 433 74 393H103C122 428 140 441 223 441H417ZM-20 39C82 39 197 -10 275 -10C357 -10 399 53 399 141H370C357 109 340 92 261 92H16ZM332 624C377 624 411 655 411 702C411 737 385 761 348 761C306 761 270 730 270 681C270 646 297 624 332 624Z" glyph-name="Zdotaccent.small" horiz-adv-x="516" /><glyph d="M307 -10C380 -10 413 26 409 86H377C373 46 355 30 332 30C305 30 295 47 295 71C295 150 452 210 452 339C452 416 400 470 293 470C187 470 104 419 109 324H150C160 389 206 425 265 425C318 425 336 393 336 364C336 330 318 303 278 284C250 271 217 262 187 257C78 240 -50 208 -50 88C-50 29 -17 -10 62 -10C126 -10 169 22 189 65C198 18 242.0469 -10 307 -10ZM119 45C83 45 84 86 101 136C118 185 143.75 205.25 172.625 216.75C201.5 228.25 233.5 231 263 245C230 214 218 187 202 154C178 104 158 45 119 45Z" glyph-name="a" horiz-adv-x="512" unicode="a" /><glyph d="M298 396C347 396 367 419 364 461H343C342 433 330 421 314 421C297 421 291 432 291 447C291 498 391 537 391 620C391 668 349 704 279 704C206 704 151 673 156 610H183C190 654 217 676 256 676C290 676 301 654 301 635C301 613 290 596 264 584C246 576 225 570 206 567C135 556 54 536 54 459C54 422 75 396 132 396C174 396 202 416 215 444C221 414 253 396 298 396ZM164 432C142 432 143 456 154 489C165 521 181 534 199 541C217 548 238 550 260 561C235 539 227 525 216 502C200 469 189 432 164 432Z" glyph-name="a.superior" horiz-adv-x="354" /><glyph d="M307 -10C380 -10 413 26 409 86H377C373 46 355 30 332 30C305 30 295 47 295 71C295 150 452 210 452 339C452 416 400 470 293 470C187 470 104 419 109 324H150C160 389 206 425 265 425C318 425 336 393 336 364C336 330 318 303 278 284C250 271 217 262 187 257C78 240 -50 208 -50 88C-50 29 -17 -10 62 -10C126 -10 169 22 189 65C198 18 242.0469 -10 307 -10ZM119 45C83 45 84 86 101 136C118 185 143.75 205.25 172.625 216.75C201.5 228.25 233.5 231 263 245C230 214 218 187 202 154C178 104 158 45 119 45ZM297 574 315 551C464 644 535 635 535 700C535 727 514 748 485 748C427 748 437 698 297 574Z" glyph-name="aacute" horiz-adv-x="512" unicode="&#225;" /><glyph d="M307 -10C380 -10 413 26 409 86H377C373 46 355 30 332 30C305 30 295 47 295 71C295 150 452 210 452 339C452 416 400 470 293 470C187 470 104 419 109 324H150C160 389 206 425 265 425C318 425 336 393 336 364C336 330 318 303 278 284C250 271 217 262 187 257C78 240 -50 208 -50 88C-50 29 -17 -10 62 -10C126 -10 169 22 189 65C198 18 242.0469 -10 307 -10ZM119 45C83 45 84 86 101 136C118 185 143.75 205.25 172.625 216.75C201.5 228.25 233.5 231 263 245C230 214 218 187 202 154C178 104 158 45 119 45ZM343 567C466 567 569 658 603 753H564C524 702 462 656 396 656C320 656 323 706 329 753H300C268 711 253 683 253 645C253 605 276 567 343 567Z" glyph-name="abreve" horiz-adv-x="512" unicode="&#259;" /><glyph d="M307 -10C380 -10 413 26 409 86H377C373 46 355 30 332 30C305 30 295 47 295 71C295 150 452 210 452 339C452 416 400 470 293 470C187 470 104 419 109 324H150C160 389 206 425 265 425C318 425 336 393 336 364C336 330 318 303 278 284C250 271 217 262 187 257C78 240 -50 208 -50 88C-50 29 -17 -10 62 -10C126 -10 169 22 189 65C198 18 242.0469 -10 307 -10ZM119 45C83 45 84 86 101 136C118 185 143.75 205.25 172.625 216.75C201.5 228.25 233.5 231 263 245C230 214 218 187 202 154C178 104 158 45 119 45ZM173 585 189 552 384 653C410 613 446 574 483 554L514 575C501 620 481 701 471 764H439Z" glyph-name="acircumflex" horiz-adv-x="512" unicode="&#226;" /><glyph d="M259 574 277 551C426 644 497 635 497 700C497 727 476 748 447 748C389 748 399 698 259 574Z" glyph-name="acute" horiz-adv-x="500" unicode="&#180;" /><glyph d="M378 773 390 742C481 770 543 769 583 779C614 788 632 803 632 837C632 864 611 886 579 886C519 886 511 842 378 773Z" glyph-name="acute.cap" horiz-adv-x="500" /><glyph d="M307 -10C380 -10 413 26 409 86H377C373 46 355 30 332 30C305 30 295 47 295 71C295 150 452 210 452 339C452 416 400 470 293 470C187 470 104 419 109 324H150C160 389 206 425 265 425C318 425 336 393 336 364C336 330 318 303 278 284C250 271 217 262 187 257C78 240 -50 208 -50 88C-50 29 -17 -10 62 -10C126 -10 169 22 189 65C198 18 242.0469 -10 307 -10ZM119 45C83 45 84 86 101 136C118 185 143.75 205.25 172.625 216.75C201.5 228.25 233.5 231 263 245C230 214 218 187 202 154C178 104 158 45 119 45ZM212 653C212 627 228 607 259 607C299 607 336 635 336 679C336 707 319 727 287 727C250 727 212 700 212 653ZM396 653C396 627 412 607 443 607C483 607 520 635 520 679C520 707 503 727 471 727C434 727 396 700 396 653Z" glyph-name="adieresis" horiz-adv-x="512" unicode="&#228;" /><glyph d="M425 -10C541 -10 612 44 604 150H568C563 72 519 32 431 32C383 32 351 52 351 85C351 132 378 125 430 212C498 213 567 217 623 241C682 266 725 309 725 366C725 434 677 470 589 470C538 470 481 450 428 416C404 450 359 470 293 470C187 470 104 419 109 324H150C160 389 206 425 265 425C318 425 336 393 336 364C336 330 318 303 278 284C250 271 217 262 187 257C78 240 -50 208 -50 88C-50 29 -17 -10 62 -10C126 -10 205 11 254 88C278 5 360 -10 425 -10ZM565 441C605 441 604 395 582 335C575 316 557 284 534 265C513 248 487 241 447 240C515 375 499 441 565 441ZM119 45C83 45 84 86 101 136C118 185 143.75 205.25 172.625 216.75C201.5 228.25 233.5 231 263 245C230 214 218 187 202 154C178 104 158 45 119 45Z" glyph-name="ae" horiz-adv-x="755" unicode="&#230;" /><glyph d="M466 574 484 551C633 644 704 635 704 700C704 727 683 748 654 748C596 748 606 698 466 574ZM425 -10C541 -10 612 44 604 150H568C563 72 519 32 431 32C383 32 351 52 351 85C351 132 378 125 430 212C498 213 567 217 623 241C682 266 725 309 725 366C725 434 677 470 589 470C538 470 481 450 428 416C404 450 359 470 293 470C187 470 104 419 109 324H150C160 389 206 425 265 425C318 425 336 393 336 364C336 330 318 303 278 284C250 271 217 262 187 257C78 240 -50 208 -50 88C-50 29 -17 -10 62 -10C126 -10 205 11 254 88C278 5 360 -10 425 -10ZM565 441C605 441 604 395 582 335C575 316 557 284 534 265C513 248 487 241 447 240C515 375 499 441 565 441ZM119 45C83 45 84 86 101 136C118 185 143.75 205.25 172.625 216.75C201.5 228.25 233.5 231 263 245C230 214 218 187 202 154C178 104 158 45 119 45Z" glyph-name="aeacute" horiz-adv-x="755" unicode="&#509;" /><glyph d="M307 -10C380 -10 413 26 409 86H377C373 46 355 30 332 30C305 30 295 47 295 71C295 150 452 210 452 339C452 416 400 470 293 470C187 470 104 419 109 324H150C160 389 206 425 265 425C318 425 336 393 336 364C336 330 318 303 278 284C250 271 217 262 187 257C78 240 -50 208 -50 88C-50 29 -17 -10 62 -10C126 -10 169 22 189 65C198 18 242.0469 -10 307 -10ZM119 45C83 45 84 86 101 136C118 185 143.75 205.25 172.625 216.75C201.5 228.25 233.5 231 263 245C230 214 218 187 202 154C178 104 158 45 119 45ZM197 702C197 645 254 646 345 551L369 574C294 686 314 755 255 755C223 755 197 729 197 702Z" glyph-name="agrave" horiz-adv-x="512" unicode="&#224;" /><glyph d="M307 -10C380 -10 413 26 409 86H377C373 46 355 30 332 30C305 30 295 47 295 71C295 150 452 210 452 339C452 416 400 470 293 470C187 470 104 419 109 324H150C160 389 206 425 265 425C318 425 336 393 336 364C336 330 318 303 278 284C250 271 217 262 187 257C78 240 -50 208 -50 88C-50 29 -17 -10 62 -10C126 -10 169 22 189 65C198 18 242.0469 -10 307 -10ZM119 45C83 45 84 86 101 136C118 185 143.75 205.25 172.625 216.75C201.5 228.25 233.5 231 263 245C230 214 218 187 202 154C178 104 158 45 119 45ZM238 710 202 637H508L544 710Z" glyph-name="amacron" horiz-adv-x="512" unicode="&#257;" /><glyph d="M285 238C271 283 264 328 264 371C264 599 365 699 509 699C621 699 662 632 663 570C663 416 472 406 338 391C199 363 166 287 173 197C179 115 219 49 310 49C404 49 572 101 572 329H620C638 60 412 -10 253 -10C111 -10 7 43 7 161C7 303 134 400 318 411C495 439 538 492 538 570C538 613 517 652 471 652C411 652 376 600 376 545C376 480 424 448 461 273C491 131 449 -3 577 -3C608 -3 631 5 654 18L669 -18C644 -37 604 -49 559 -49C443 -49 338 72 285 238Z" glyph-name="ampersand" horiz-adv-x="719" unicode="&amp;" /><glyph d="M231 178C219 213 216 252 216 286C216 463 299 540 418 540C507 540 543 490 543 439C543 320 388 313 276 303C161 281 136 220 143 150C148 92 177 39 253 39C331 39 468 74 468 253H515C530 43 338 -10 206 -10C88 -10 0 30 0 128C0 243 106 316 260 324C406 347 441 379 441 436C441 470 423 497 386 497C336 497 309 457 309 415C309 352 358 346 387 209C413 99 366 1 479 1C505 1 524 7 543 17L556 -17C534 -31 502 -40 465 -40C367 -40 275 50 231 178Z" glyph-name="ampersand.small" horiz-adv-x="622" /><glyph d="M215 -143C215 -186 240 -218 291 -218C359 -218 391 -175 404 -116H379C371 -136 355 -151 333 -151C316 -151 309 -140 309 -119C309 -87 329 -41 383 12L365 28C284 -23 215 -70 215 -143ZM307 -10C380 -10 413 26 409 86H377C373 46 355 30 332 30C305 30 295 47 295 71C295 150 452 210 452 339C452 416 400 470 293 470C187 470 104 419 109 324H150C160 389 206 425 265 425C318 425 336 393 336 364C336 330 318 303 278 284C250 271 217 262 187 257C78 240 -50 208 -50 88C-50 29 -17 -10 62 -10C126 -10 169 22 189 65C198 18 242.0469 -10 307 -10ZM119 45C83 45 84 86 101 136C118 185 143.75 205.25 172.625 216.75C201.5 228.25 233.5 231 263 245C230 214 218 187 202 154C178 104 158 45 119 45Z" glyph-name="aogonek" horiz-adv-x="512" unicode="&#261;" /><glyph d="M237 499C286 499 320.5 480.5 350.375 462C380.25 443.5 405.5 425 436 425C475 425 489 461 491 499H536C535 402 485 347 387 347C334.4617 347 298.7847 362.9966 270.4208 380.1148C237.7793 399.8146 214.8231 421 187 421C148 421 133 379 132 347H88C90 443 139 499 237 499ZM237 269C283.5 269 318 250.5 348.5 232C379 213.5 405.5 195 436 195C475 195 489 231 491 269H536C535 172 485 117 387 117C338.4948 117 303.706 131.9266 275.386 148.372C240.6497 168.5435 215.6457 191 187 191C148 191 133 149 132 117H88C90 213 139 269 237 269Z" glyph-name="approxequal" horiz-adv-x="650" unicode="&#8776;" /><glyph d="M307 -10C380 -10 413 26 409 86H377C373 46 355 30 332 30C305 30 295 47 295 71C295 150 452 210 452 339C452 416 400 470 293 470C187 470 104 419 109 324H150C160 389 206 425 265 425C318 425 336 393 336 364C336 330 318 303 278 284C250 271 217 262 187 257C78 240 -50 208 -50 88C-50 29 -17 -10 62 -10C126 -10 169 22 189 65C198 18 242.0469 -10 307 -10ZM119 45C83 45 84 86 101 136C118 185 143.75 205.25 172.625 216.75C201.5 228.25 233.5 231 263 245C230 214 218 187 202 154C178 104 158 45 119 45ZM240 658C240 606 280 565 346 565C426 565 489 619 489 692C489 745 448 785 382 785C300 785 240 727 240 658ZM414 691C414 658 392 612 355 612C329 612 314 632 314 659C314 706.0435 343 738 374 738C398 738 414 718 414 691Z" glyph-name="aring" horiz-adv-x="512" unicode="&#229;" /><glyph d="M307 -10C380 -10 413 26 409 86H377C373 46 355 30 332 30C305 30 295 47 295 71C295 150 452 210 452 339C452 416 400 470 293 470C187 470 104 419 109 324H150C160 389 206 425 265 425C318 425 336 393 336 364C336 330 318 303 278 284C250 271 217 262 187 257C78 240 -50 208 -50 88C-50 29 -17 -10 62 -10C126 -10 169 22 189 65C198 18 242.0469 -10 307 -10ZM119 45C83 45 84 86 101 136C118 185 143.75 205.25 172.625 216.75C201.5 228.25 233.5 231 263 245C230 214 218 187 202 154C178 104 158 45 119 45ZM336 852 348 821C439 849 501 848 541 858C572 867 590 882 590 916C590 943 569 965 537 965C477 965 469 921 336 852ZM240 645C240 593 280 552 346 552C426 552 489 606 489 679C489 732 448 772 382 772C300 772 240 714 240 645ZM414 678C414 645 392 599 355 599C329 599 314 619 314 646C314 693.0435 343 725 374 725C398 725 414 705 414 678Z" glyph-name="aringacute" horiz-adv-x="512" unicode="&#507;" /><glyph d="M255 690H320V58H255ZM239 108 500 275 528 232 288 -9 47 232 76 275 337 108Z" glyph-name="arrowdown" horiz-adv-x="576" unicode="&#8595;" /><glyph d="M569 439 525 483 105 64 150 19ZM85 0H426V48L133 115L203 45L133 341H85Z" glyph-name="arrowdownleft" horiz-adv-x="621" unicode="&#8601;" /><glyph d="M52 439 96 483 516 64 471 19ZM536 0H195V48L488 115L418 45L488 341H536Z" glyph-name="arrowdownright" horiz-adv-x="621" unicode="&#8600;" /><glyph d="M633 295V230H74V295ZM249 503 291 474 124 213V312L291 50L249 22L8 262Z" glyph-name="arrowleft" horiz-adv-x="703" unicode="&#8592;" /><glyph d="M40 295V230H599V295ZM424 503 382 474 549 213V312L382 50L424 22L665 262Z" glyph-name="arrowright" horiz-adv-x="703" unicode="&#8594;" /><glyph d="M321 0H256V632H321ZM337 582 76 415 48 458 288 699 529 458 500 415 239 582Z" glyph-name="arrowup" horiz-adv-x="576" unicode="&#8593;" /><glyph d="M569 39 525 -5 105 414 150 459ZM85 478H426V430L133 363L203 433L133 137H85Z" glyph-name="arrowupleft" horiz-adv-x="621" unicode="&#8598;" /><glyph d="M52 39 96 -5 516 414 471 459ZM536 478H195V430L488 363L418 433L488 137H536Z" glyph-name="arrowupright" horiz-adv-x="621" unicode="&#8599;" /><glyph d="M298 686 130 412 173 376 342 556H328L497 376L540 412L372 686Z" glyph-name="asciicircum" horiz-adv-x="650" unicode="^" /><glyph d="M237 399C293.5 399 328 378 356 357C384 336 405.5 315 436 315C475 315 489 361 491 399H536C535 302 486 227 388 227C339.553 227 306.0946 239.2238 280.4639 254.3453C238.9057 278.8636 217.9264 311 187 311C148 311 133 259 132 227H88C90 323 139 399 237 399Z" glyph-name="asciitilde" horiz-adv-x="650" unicode="~" /><glyph d="M405 346 296 497 460 440 466 573 299 528 394 674 269 711V536L153 666L87 550L254 509L83 439L165 337L270 485L280 304Z" glyph-name="asterisk" horiz-adv-x="475" unicode="*" /><glyph d="M558 391C558 307 478 65 328 65C264 65 215 97 215 185C215 337 354 474 467 474C531 474 558 432 558 391ZM525 389C525 415 513 436 483 436C423 436 425 366 391 290C354 207 306 180 306 143C306 117 319 101 347 101C418 101 525 303 525 389ZM600 -27 625 -58C625 -58 526 -148 338 -148C100 -148 10 -3 10 156C10 393 197 683 539 683C751 683 849 554 849 414C849 191 679 65 544 65C481 65 461 98 461 137C461 163 455 144 473 196L550 414C582 432 622 446 646 453H673L573 203C561 169 553 148 553 134C553 118 565 109 581 109C662 109 769 226 769 413C769 536 691 638 527 638C241 638 95 398 95 163C95 -6 188 -104 358 -104C507 -104 600 -27 600 -27Z" glyph-name="at" horiz-adv-x="894" unicode="@" /><glyph d="M578 454C578 370 498 128 348 128C284 128 235 160 235 248C235 400 374 537 487 537C551 537 578 495 578 454ZM545 452C545 478 533 499 503 499C443 499 445 429 411 353C374 270 326 243 326 206C326 180 339 164 367 164C438 164 545 366 545 452ZM620 36 645 5C645 5 546 -85 358 -85C120 -85 30 60 30 219C30 456 217 746 559 746C771 746 869 617 869 477C869 254 699 128 564 128C501 128 481 161 481 200C481 226 475 207 493 259L570 477C602 495 642 509 666 516H693L593 266C581 232 573 211 573 197C573 181 585 172 601 172C682 172 789 289 789 476C789 599 711 701 547 701C261 701 115 461 115 226C115 57 208 -41 378 -41C527 -41 620 36 620 36Z" glyph-name="at.cap" horiz-adv-x="894" /><glyph d="M485 363C485 293 420 91 277 91C221 91 180 121 180 194C180 326 303 432 402 432C460 432 485 397 485 363ZM454 356C454 378 443 398 416 398C363 398 371 342 341 278C308 209 263 195 263 161C263 142 273 127 298 127C366 127 454 284 454 356ZM507 216C495 187 487 166 487 154C487 140 499 133 512 133C571 133 666 225 666 381C666 484 595 563 458 563C221 563 81 368 81 173C81 31 176 -45 317 -45C445 -45 523 20 523 20L544 -12C544 -12 466 -87 300 -87C89 -87 0 34 0 167C0 365 165 606 468 606C655 606 743 499 743 382C743 196 592 91 473 91C417 91 399 118 399 151C399 173 394 157 410 200L478 382C506 397 532 409 553 414H588Z" glyph-name="at.small" horiz-adv-x="778" /><glyph d="M307 -10C380 -10 413 26 409 86H377C373 46 355 30 332 30C305 30 295 47 295 71C295 150 452 210 452 339C452 416 400 470 293 470C187 470 104 419 109 324H150C160 389 206 425 265 425C318 425 336 393 336 364C336 330 318 303 278 284C250 271 217 262 187 257C78 240 -50 208 -50 88C-50 29 -17 -10 62 -10C126 -10 169 22 189 65C198 18 242.0469 -10 307 -10ZM119 45C83 45 84 86 101 136C118 185 143.75 205.25 172.625 216.75C201.5 228.25 233.5 231 263 245C230 214 218 187 202 154C178 104 158 45 119 45ZM194 596H226C237 637 247 657 282 657C336 657 353 592 433 592C504 592 558 632 571 733H538C528 691 518 671 484 671C431 671 413 737 330 737C257 737 210 700 194 596Z" glyph-name="atilde" horiz-adv-x="512" unicode="&#227;" /><glyph d="M191 -10C353 -10 495 170 495 325C495 405 456 470 362 470C313 470 264 445 233 412C270 482 286 547 286 599C286 652 269 689 243 710L224 701C232 684 232 673 232 660C232 495 -5 419 -5 170C-6 118 4 61 27 0H46L87 104C84 54 101 -10 191 -10ZM300 224C255 127 259 33 178 33C129 33 113 91 142 171C204 343 275 429 358 429C386 429 404 412 404 386C404 327 344 318 300 224Z" glyph-name="b" horiz-adv-x="560" unicode="b" /><glyph d="M215 396C319 396 410 511 410 612C410 658 390 704 326 704C293 704 264 688 242 666C270 714 281 744 281 788C281 819 272 847 251 865L240 859C243 851 245 839 245 829C245 735 84 671 84 511C84 474 91 449 109 403H122L149 469C147 437 157 396 215 396ZM286 547C255 483 259 422 207 422C175 422 165 458 184 512C223 622 268 679 321 679C340 679 350 668 350 652C350 614 313 603 286 547Z" glyph-name="b.superior" horiz-adv-x="384" /><glyph d="M135 710H80C136 422 199 189 309 -88H364C308 188 235 456 135 710Z" glyph-name="backslash" horiz-adv-x="448" unicode="\" /><glyph d="M175 -153H105V740H175Z" glyph-name="bar" horiz-adv-x="280" unicode="|" /><glyph d="M211 129C211 191 185 250 92 265V254C144.5708 245.6191 277.2488 252.9114 337.4505 403.6929C356.2645 450.8143 368 511.9496 368 591C368 657 404 678 456 687L486 692V742H458C333 742 222 702 222 495C222 471.1083 222.094 449.5343 221.3507 430.2059C217.894 340.3195 196.3299 299 63 299L47 255C47 255 118 214 118 155C118 44 -30 18 -30 -109C-30 -170 13 -231 143 -231H176V-181L156 -177C122 -170 109 -155 109 -129C109 -64 211 28 211 129Z" glyph-name="braceleft" horiz-adv-x="396" unicode="{" /><glyph d="M211 194C211 256 185 315 92 330V319C144.5708 310.6191 277.2488 317.9114 337.4505 468.6929C356.2645 515.8143 368 576.9496 368 656C368 722 404 743 456 752L486 757V807H458C333 807 222 767 222 560C222 536.1083 222.094 514.5343 221.3507 495.2059C217.894 405.3195 196.3299 364 63 364L47 320C47 320 118 279 118 220C118 109 -30 83 -30 -44C-30 -105 13 -166 143 -166H176V-116L156 -112C122 -105 109 -90 109 -64C109 1 211 93 211 194Z" glyph-name="braceleft.cap" horiz-adv-x="396" /><glyph d="M186 161C186 210 163 257 80 269V260C129.4693 253.6169 257.2443 256.7832 306.8723 392.4261C319.4432 426.7848 327 469.6435 327 523C327 575 359 592 405 599L432 603V647H407C295 647 185 616 185 452C185 431.4798 185.1083 413.1256 184.2892 396.8552C180.7971 327.4926 160.4497 296 43 296L29 261C29 261 92 229 92 182C92 94 -40 73 -40 -27C-40 -76 10 -124 126 -124H155V-79L137 -75C107 -70 95 -58 95 -37C95 14 186 81 186 161Z" glyph-name="braceleft.small" horiz-adv-x="372" /><glyph d="M130 382C130 320 156 261 249 246V257C196.4292 265.3809 63.7512 258.0886 3.5495 107.3071C-15.2645 60.1857 -27 -0.9496 -27 -80C-27 -146 -63 -167 -115 -176L-145 -181V-231H-117C8 -231 119 -191 119 16C119 39.8917 118.906 61.4657 119.6493 80.7941C123.106 170.6805 144.6701 212 278 212L294 256C294 256 223 297 223 356C223 467 371 493 371 620C371 681 328 742 198 742H165V692L185 688C219 681 232 666 232 640C232 575 130 483 130 382Z" glyph-name="braceright" horiz-adv-x="396" unicode="}" /><glyph d="M130 447C130 385 156 326 249 311V322C196.4292 330.3809 63.7512 323.0886 3.5495 172.3071C-15.2645 125.1857 -27 64.0504 -27 -15C-27 -81 -63 -102 -115 -111L-145 -116V-166H-117C8 -166 119 -126 119 81C119 104.8917 118.906 126.4657 119.6493 145.7941C123.106 235.6805 144.6701 277 278 277L294 321C294 321 223 362 223 421C223 532 371 558 371 685C371 746 328 807 198 807H165V757L185 753C219 746 232 731 232 705C232 640 130 548 130 447Z" glyph-name="braceright.cap" horiz-adv-x="396" /><glyph d="M136 362C136 313 159 266 242 254V263C192.5307 269.3831 64.7557 266.2168 15.1277 130.5739C2.5568 96.2152 -5 53.3565 -5 0C-5 -52 -37 -69 -83 -76L-110 -80V-124H-85C27 -124 137 -93 137 71C137 91.5202 136.8917 109.8744 137.7108 126.1448C141.2029 195.5074 161.5503 227 279 227L293 262C293 262 230 294 230 341C230 429 362 450 362 550C362 599 312 647 196 647H167V602L185 598C215 593 227 581 227 560C227 509 136 442 136 362Z" glyph-name="braceright.small" horiz-adv-x="372" /><glyph d="M351 680H476L500 745H261L-95 -231H144L168 -166H45L48 -172L360 686Z" glyph-name="bracketleft" horiz-adv-x="350" unicode="[" /><glyph d="M351 753H476L500 818H261L-95 -158H144L168 -93H45L48 -99L360 759Z" glyph-name="bracketleft.cap" horiz-adv-x="350" /><glyph d="M317 586H442L466 651H227L-60 -133H179L203 -68H80L83 -74L326 592Z" glyph-name="bracketleft.small" horiz-adv-x="346" /><glyph d="M-46 -166H-171L-195 -231H44L400 745H161L137 680H260L257 686L-55 -172Z" glyph-name="bracketright" horiz-adv-x="350" unicode="]" /><glyph d="M-46 -93H-171L-195 -158H44L400 818H161L137 753H260L257 759L-55 -99Z" glyph-name="bracketright.cap" horiz-adv-x="350" /><glyph d="M-11 -68H-136L-160 -133H79L366 651H127L103 586H226L223 592L-20 -74Z" glyph-name="bracketright.small" horiz-adv-x="346" /><glyph d="M316 567C439 567 542 658 576 753H537C497 702 435 656 369 656C293 656 296 706 302 753H273C241 711 226 683 226 645C226 605 249 567 316 567Z" glyph-name="breve" horiz-adv-x="500" unicode="&#728;" /><glyph d="M382 897C352 865 337 837 337 804C337 771 362 738 431 738C536 738 625 804 666 897H626C587 845 529 814 471 814C409 814 406 850 415 897Z" glyph-name="breve.cap" horiz-adv-x="500" /><glyph d="M175 417H105V740H175ZM175 -153H105V170H175Z" glyph-name="brokenbar" horiz-adv-x="280" unicode="&#166;" /><glyph d="M174 168C260 168 329 230 329 323C329 415 260 478 174 478C89 478 20 415 20 323C20 230 89 168 174 168Z" glyph-name="bullet" horiz-adv-x="395" unicode="&#8226;" /><glyph d="M298 470C138 470 -15 328 -15 146C-15 48 45 -10 162 -10C263 -10 334 50 325 150H289C285 75 240 32 162 32C110 32 83 53 83 87C83 140 128 139 184 244C235 339 218 436 305 436C346 436 363 410 362 384C362 361 349 347 326 332V311C334 306 346 304 356 304C396 304 424 334 424 374C424 426 383 470 298 470Z" glyph-name="c" horiz-adv-x="446" unicode="c" /><glyph d="M288 704C182 704 80 615 80 496C80 431 127 396 201 396C270 396 315 434 310 498H287C284 450 255 421 205 421C168 421 148 434 148 458C148 494 184 491 219 558C251 619 238 681 294 681C320 681 334 665 334 648C334 634 328 626 309 616V601C315 597 324 596 330 596C356 596 374 615 374 642C374 674 345 704 288 704Z" glyph-name="c.superior" horiz-adv-x="303" /><glyph d="M288 574 306 551C455 644 526 635 526 700C526 727 505 748 476 748C418 748 428 698 288 574ZM298 470C138 470 -15 328 -15 146C-15 48 45 -10 162 -10C263 -10 334 50 325 150H289C285 75 240 32 162 32C110 32 83 53 83 87C83 140 128 139 184 244C235 339 218 436 305 436C346 436 363 410 362 384C362 361 349 347 326 332V311C334 306 346 304 356 304C396 304 424 334 424 374C424 426 383 470 298 470Z" glyph-name="cacute" horiz-adv-x="446" unicode="&#263;" /><glyph d="M266 738C289 695 311 612 319 549H351L617 728L601 761L406 655C394 694 348 745 310 764Z" glyph-name="caron" horiz-adv-x="500" unicode="&#711;" /><glyph d="M338 870C361 839 392 783 405 732H437L670 863L651 896L489 821C471 849 426 887 383 899Z" glyph-name="caron.cap" horiz-adv-x="500" /><glyph d="M262 528 290 515C351 558 385 634 397 710H316C307 645 290 579 262 528Z" glyph-name="caronSlovak" horiz-adv-x="500" /><glyph d="M275 738C298 695 320 612 328 549H360L626 728L610 761L415 655C403 694 357 745 319 764ZM298 470C138 470 -15 328 -15 146C-15 48 45 -10 162 -10C263 -10 334 50 325 150H289C285 75 240 32 162 32C110 32 83 53 83 87C83 140 128 139 184 244C235 339 218 436 305 436C346 436 363 410 362 384C362 361 349 347 326 332V311C334 306 346 304 356 304C396 304 424 334 424 374C424 426 383 470 298 470Z" glyph-name="ccaron" horiz-adv-x="446" unicode="&#269;" /><glyph d="M298 470C138 470 -15 328 -15 146C-15 48 45 -10 162 -10C263 -10 334 50 325 150H289C285 75 240 32 162 32C110 32 83 53 83 87C83 140 128 139 184 244C235 339 218 436 305 436C346 436 363 410 362 384C362 361 349 347 326 332V311C334 306 346 304 356 304C396 304 424 334 424 374C424 426 383 470 298 470ZM13 -113C3 -146 11 -205 78 -205C135 -205 187 -167 187 -105C187 -62 155 -30 89 -47H108L127 0L105 3L53 -75L66 -88C71 -86 76 -85 82 -85C102 -85 112 -99 112 -115C112 -142 92 -161 66 -161C37 -161 30 -139 30 -113Z" glyph-name="ccedilla" horiz-adv-x="446" unicode="&#231;" /><glyph d="M170 585 186 552 381 653C407 613 443 574 480 554L511 575C498 620 478 701 468 764H436ZM298 470C138 470 -15 328 -15 146C-15 48 45 -10 162 -10C263 -10 334 50 325 150H289C285 75 240 32 162 32C110 32 83 53 83 87C83 140 128 139 184 244C235 339 218 436 305 436C346 436 363 410 362 384C362 361 349 347 326 332V311C334 306 346 304 356 304C396 304 424 334 424 374C424 426 383 470 298 470Z" glyph-name="ccircumflex" horiz-adv-x="446" unicode="&#265;" /><glyph d="M298 470C138 470 -15 328 -15 146C-15 48 45 -10 162 -10C263 -10 334 50 325 150H289C285 75 240 32 162 32C110 32 83 53 83 87C83 140 128 139 184 244C235 339 218 436 305 436C346 436 363 410 362 384C362 361 349 347 326 332V311C334 306 346 304 356 304C396 304 424 334 424 374C424 426 383 470 298 470ZM350 574C395 574 429 605 429 652C429 687 403 711 366 711C324 711 288 680 288 631C288 596 315 574 350 574Z" glyph-name="cdotaccent" horiz-adv-x="446" unicode="&#267;" /><glyph d="M11 -113C1 -146 9 -205 76 -205C133 -205 185 -167 185 -105C185 -62 153 -30 87 -47H106L125 0L103 3L51 -75L64 -88C69 -86 74 -85 80 -85C100 -85 110 -99 110 -115C110 -142 90 -161 64 -161C35 -161 28 -139 28 -113Z" glyph-name="cedilla" horiz-adv-x="500" unicode="&#184;" /><glyph d="M265 0 305 117H237L197 0ZM470 571 511 690H443L402 571ZM442 600C276 600 118 450 118 257C118 154 180 92 301 92C406 92 479 156 470 262H433C428 182 382 137 301 137C247 137 219 159 219 195C219 251 266 250 324 361C377 461 359 564 449 564C492 564 509 536 508 509C508 485 495 470 471 454V432C479 427 492 424 502 424C543 424 572 456 572 498C572 553 530 600 442 600Z" glyph-name="cent" horiz-adv-x="650" unicode="&#162;" /><glyph d="M75 588V441L412 94L745 438V584L412 241Z" glyph-name="chevrondown" horiz-adv-x="770" /><glyph d="M511 0 201 345 511 690H375L65 345L375 0Z" glyph-name="chevronleft" horiz-adv-x="576" /><glyph d="M65 0 375 345 65 690H201L511 345L201 0Z" glyph-name="chevronright" horiz-adv-x="576" /><glyph d="M695 139V286L358 633L25 289V143L358 486Z" glyph-name="chevronup" horiz-adv-x="770" /><glyph d="M186 585 202 552 397 653C423 613 459 574 496 554L527 575C514 620 494 701 484 764H452Z" glyph-name="circumflex" horiz-adv-x="500" unicode="&#710;" /><glyph d="M308 765 327 732 493 800C523 773 562 744 605 730L632 754C615 789 590 847 573 896H541Z" glyph-name="circumflex.cap" horiz-adv-x="500" /><glyph d="M60 396C60 352 90 318 138 318C184 318 213 351 213 395C213 434 183 471 138 471C89 471 60 435 60 396ZM-50 65C-50 21 -20 -13 28 -13C74 -13 103 20 103 64C103 103 73 140 28 140C-21 140 -50 104 -50 65Z" glyph-name="colon" horiz-adv-x="213" unicode=":" /><glyph d="M-84 -95 -70 -130C61 -98 112 -4 112 58C112 95 88 130 43 130C0 130 -27 102 -27 61C-27 30 -7 5 34 0C25 -34 -7 -66 -84 -95Z" glyph-name="comma" horiz-adv-x="283" unicode="," /><glyph d="M-8 -227 23 -240C84 -197 138 -131 150 -55H59C50 -120 20 -176 -8 -227Z" glyph-name="commaaccent" horiz-adv-x="500" /><glyph d="M317 735 286 748C225 705 171 639 159 563H250C259 628 289 684 317 735Z" glyph-name="commaaccent.alt" horiz-adv-x="500" /><glyph d="M385 -13C579 -13 730 125 730 343C730 562 579 697 385 697C192 697 41 562 41 343C41 125 179 -13 385 -13ZM386 38C204 38 104 167 104 343C104 520 215 645 386 645C556 645 670 517 670 343C670 161 556 38 386 38ZM483 396H532C534 406 535 415 535 424C534 476 498 533 397 533C289 533 220 458 220 332C220 186 314 152 399 152C497 152 545 212 545 290H514C506 245 474 225 431 225C372 225 340 265 340 338C340 402 368 449 419 449C462 449 479 428 483 396Z" glyph-name="copyright" horiz-adv-x="771" unicode="&#169;" /><glyph d="M324 101C216 101 137 186 137 289C137 393 216 476 324 476C434 476 510 392 510 288C510 185 434 101 324 101ZM321 175C388 175 432 227 432 289C432 352 388 401 321 401C256 401 214 352 214 289C214 227 256 175 321 175ZM244 426 187 368 94 464 152 521ZM95 126 187 221 245 164 153 69ZM405 426 497 521 555 464 462 368ZM554 126 496 69 404 164 462 221Z" glyph-name="currency" horiz-adv-x="650" unicode="&#164;" /><glyph d="M337 0H363L510 328C540 397 586 508 586 598C586 643 575 683 544 710L525 701C530 690 533 678 533 665C533 561 451 508 390 392C382 441 346 470 288 470C130 470 -15 286 -15 143C-15 63 18 -10 112 -10C198 -10 264 50 313 134C308 88 317 39 337 0ZM339 285C273 114 208 35 127 35C99 35 78 52 79 78C81 137 133 142 180 236C214 306 217 368 249 402C263 417 282 425 305 425C361 425 370 365 339 285Z" glyph-name="d" horiz-adv-x="571" unicode="d" /><glyph d="M327 403H340L440 622C467 681 488 738 488 796C488 825 480 853 457 869L447 864C452 855 452 847 452 839C452 764 397 728 359 653C354 687 330 704 289 704C182 704 87 589 87 494C87 441 108 396 175 396C231 396 272 436 309 492C305 458 312 433 327 403ZM324 585C282 476 240 424 187 424C167 424 151 435 152 453C154 490 188 495 218 556C243 607 240 639 262 661C272 671 283 676 298 676C337 676 343 633 324 585Z" glyph-name="d.superior" horiz-adv-x="393" /><glyph d="M67 -72C70 68 80 172 110 285L253 475V690H436L289 475V285C237 175 157 19 89 -72ZM497 554 437 390 267 465 42 390 102 554 274 486Z" glyph-name="dagger" horiz-adv-x="465" unicode="&#8224;" /><glyph d="M2 -72 148 143V308L269 476V690H452L306 476V308L185 143V-72ZM505 555 444 391 283 466 69 391 129 555 291 487ZM385 228 325 64 162 132 -50 64 10 228 169 153Z" glyph-name="daggerdbl" horiz-adv-x="465" unicode="&#8225;" /><glyph d="M615 528 643 515C704 558 738 634 750 710H669C660 645 643 579 615 528ZM337 0H363L510 328C540 397 586 508 586 598C586 643 575 683 544 710L525 701C530 690 533 678 533 665C533 561 451 508 390 392C382 441 346 470 288 470C130 470 -15 286 -15 143C-15 63 18 -10 112 -10C198 -10 264 50 313 134C308 88 317 39 337 0ZM339 285C273 114 208 35 127 35C99 35 78 52 79 78C81 137 133 142 180 236C214 306 217 368 249 402C263 417 282 425 305 425C361 425 370 365 339 285Z" glyph-name="dcaron" horiz-adv-x="571" unicode="&#271;" /><glyph d="M332 621 316 576H662L678 621ZM337 0H363L510 328C540 397 586 508 586 598C586 643 575 683 544 710L525 701C530 690 533 678 533 665C533 561 451 508 390 392C382 441 346 470 288 470C130 470 -15 286 -15 143C-15 63 18 -10 112 -10C198 -10 264 50 313 134C308 88 317 39 337 0ZM339 285C273 114 208 35 127 35C99 35 78 52 79 78C81 137 133 142 180 236C214 306 217 368 249 402C263 417 282 425 305 425C361 425 370 365 339 285Z" glyph-name="dcroat" horiz-adv-x="571" unicode="&#273;" /><glyph d="M175 387C98 387 50 430 50 491C50 597 133 690 251 690C328 690 376 647 376 586C376 488 299 387 175 387ZM260 525C284 568 297 581 297 609C297 629 283 648 249 648C194 648 198 607 166 552C142 509 129 496 129 468C129 448 143 429 177 429C225 429 228 468 260 525Z" glyph-name="degree" horiz-adv-x="396" unicode="&#176;" /><glyph d="M205 653C205 627 221 607 252 607C292 607 329 635 329 679C329 707 312 727 280 727C243 727 205 700 205 653ZM389 653C389 627 405 607 436 607C476 607 513 635 513 679C513 707 496 727 464 727C427 727 389 700 389 653Z" glyph-name="dieresis" horiz-adv-x="500" unicode="&#168;" /><glyph d="M306 791C306 765 322 745 353 745C393 745 430 773 430 817C430 845 413 865 381 865C344 865 306 838 306 791ZM490 791C490 765 506 745 537 745C577 745 614 773 614 817C614 845 597 865 565 865C528 865 490 838 490 791Z" glyph-name="dieresis.cap" horiz-adv-x="500" /><glyph d="M520 349H80V269H520ZM230.773 89.8501C230.773 49.3362 258.3961 18.03 302.5931 18.03C344.9486 18.03 371.6509 48.4154 371.6509 88.9293C371.6509 124.8394 344.0278 158.9079 302.5931 158.9079C257.4754 158.9079 230.773 125.7601 230.773 89.8501ZM229.773 530.8501C229.773 490.3362 257.3961 459.03 301.5931 459.03C343.9486 459.03 370.6509 489.4154 370.6509 529.9293C370.6509 565.8394 343.0278 599.9079 301.5931 599.9079C256.4754 599.9079 229.773 566.7601 229.773 530.8501Z" glyph-name="divide" horiz-adv-x="650" unicode="&#247;" /><glyph d="M373 383 500 755H432L305 383ZM211 -90 359 342H291L143 -90ZM66 236C44 212 32 175 32 144C32 73 79 -10 222 -10C439 -10 518 133 518 235C518 344.5 452.75 379 387.5 404.125C322.25 429.25 257 445 257 517C257 573 308 635 418 635C541 635 539 529 522 471H572C589 490 600 520 600 546C600 619 552 683 429 683C243 683 145 549 145 440C145 338 193 296 259 261C321 227 374 205 374 149C374 82 325 38 232 38C108 38 92 134 106 236Z" glyph-name="dollar" horiz-adv-x="650" unicode="$" /><glyph d="M301 574C346 574 380 605 380 652C380 687 354 711 317 711C275 711 239 680 239 631C239 596 266 574 301 574Z" glyph-name="dotaccent" horiz-adv-x="500" unicode="&#729;" /><glyph d="M392 805C392 767 423 736 460 736C497 736 530 767 530 805C530 844 497 874 460 874C423 874 392 844 392 805Z" glyph-name="dotaccent.cap" horiz-adv-x="500" /><glyph d="M155 460C161 453 167 444 167 429C167 366 -10 343 -10 176C-10 130 4 72 38 0H63L114 108C158 201 222 297 222 376C222 425 207 451 172 469Z" glyph-name="dotlessi" horiz-adv-x="270" unicode="&#305;" /><glyph d="M-161 -109C-172 -124 -180 -144 -180 -167C-180 -211 -155 -250 -91 -250C32 -250 39 -119 83 -21L191 218C220 283 237 334 237 376C237 425 222 451 187 469L170 460C178 451 182 442 182 429C182 364 5 355 5 119V-22C5 -144 -23 -210 -81 -210C-132 -210 -135 -152 -124 -109Z" glyph-name="dotlessj" horiz-adv-x="295" unicode="&#567;" /><glyph d="M336 150H300C295 72 251 32 163 32C115 32 83 52 83 85C83 132 110 125 162 212C230 213 299 217 355 241C414 266 457 309 457 366C457 434 409 470 321 470C187 470 -15 334 -15 152C-15 45 49 -10 167 -10C271 -10 344 44 336 150ZM297 441C337 441 336 395 314 335C307.3302 316.8962 297.0802 293.1462 276.7476 273.9222C256.4151 254.6981 226 240 179 240C247 375 231 441 297 441Z" glyph-name="e" horiz-adv-x="487" unicode="e" /><glyph d="M310 499H287C284 448 258 421 198 421C165 421 146 435 146 458C146 488 164 487 195 538C240 538 277 539 320 557C361 574 387 601 387 637C387 682 354 704 299 704C201 704 80 617 80 500C80 431 127 396 201 396C260.7697 396 307.8563 424.7485 310.382 483.023C310.603 488.1224 310.4828 493.4479 310 499ZM282 685C307 685 306 658 292 619C287 606 281 591 267 578C254 566 243 557 206 557C256 644 244 685 282 685Z" glyph-name="e.superior" horiz-adv-x="334" /><glyph d="M306 574 324 551C473 644 544 635 544 700C544 727 523 748 494 748C436 748 446 698 306 574ZM336 150H300C295 72 251 32 163 32C115 32 83 52 83 85C83 132 110 125 162 212C230 213 299 217 355 241C414 266 457 309 457 366C457 434 409 470 321 470C187 470 -15 334 -15 152C-15 45 49 -10 167 -10C271 -10 344 44 336 150ZM297 441C337 441 336 395 314 335C307.3302 316.8962 297.0802 293.1462 276.7476 273.9222C256.4151 254.6981 226 240 179 240C247 375 231 441 297 441Z" glyph-name="eacute" horiz-adv-x="487" unicode="&#233;" /><glyph d="M336 150H300C295 72 251 32 163 32C115 32 83 52 83 85C83 132 110 125 162 212C230 213 299 217 355 241C414 266 457 309 457 366C457 434 409 470 321 470C187 470 -15 334 -15 152C-15 45 49 -10 167 -10C271 -10 344 44 336 150ZM297 441C337 441 336 395 314 335C307.3302 316.8962 297.0802 293.1462 276.7476 273.9222C256.4151 254.6981 226 240 179 240C247 375 231 441 297 441ZM343 567C466 567 569 658 603 753H564C524 702 462 656 396 656C320 656 323 706 329 753H300C268 711 253 683 253 645C253 605 276 567 343 567Z" glyph-name="ebreve" horiz-adv-x="487" unicode="&#277;" /><glyph d="M269 738C292 695 314 612 322 549H354L620 728L604 761L409 655C397 694 351 745 313 764ZM336 150H300C295 72 251 32 163 32C115 32 83 52 83 85C83 132 110 125 162 212C230 213 299 217 355 241C414 266 457 309 457 366C457 434 409 470 321 470C187 470 -15 334 -15 152C-15 45 49 -10 167 -10C271 -10 344 44 336 150ZM297 441C337 441 336 395 314 335C307.3302 316.8962 297.0802 293.1462 276.7476 273.9222C256.4151 254.6981 226 240 179 240C247 375 231 441 297 441Z" glyph-name="ecaron" horiz-adv-x="487" unicode="&#283;" /><glyph d="M201 585 217 552 412 653C438 613 474 574 511 554L542 575C529 620 509 701 499 764H467ZM336 150H300C295 72 251 32 163 32C115 32 83 52 83 85C83 132 110 125 162 212C230 213 299 217 355 241C414 266 457 309 457 366C457 434 409 470 321 470C187 470 -15 334 -15 152C-15 45 49 -10 167 -10C271 -10 344 44 336 150ZM297 441C337 441 336 395 314 335C307.3302 316.8962 297.0802 293.1462 276.7476 273.9222C256.4151 254.6981 226 240 179 240C247 375 231 441 297 441Z" glyph-name="ecircumflex" horiz-adv-x="487" unicode="&#234;" /><glyph d="M220 653C220 627 236 607 267 607C307 607 344 635 344 679C344 707 327 727 295 727C258 727 220 700 220 653ZM404 653C404 627 420 607 451 607C491 607 528 635 528 679C528 707 511 727 479 727C442 727 404 700 404 653ZM336 150H300C295 72 251 32 163 32C115 32 83 52 83 85C83 132 110 125 162 212C230 213 299 217 355 241C414 266 457 309 457 366C457 434 409 470 321 470C187 470 -15 334 -15 152C-15 45 49 -10 167 -10C271 -10 344 44 336 150ZM297 441C337 441 336 395 314 335C307.3302 316.8962 297.0802 293.1462 276.7476 273.9222C256.4151 254.6981 226 240 179 240C247 375 231 441 297 441Z" glyph-name="edieresis" horiz-adv-x="487" unicode="&#235;" /><glyph d="M336 150H300C295 72 251 32 163 32C115 32 83 52 83 85C83 132 110 125 162 212C230 213 299 217 355 241C414 266 457 309 457 366C457 434 409 470 321 470C187 470 -15 334 -15 152C-15 45 49 -10 167 -10C271 -10 344 44 336 150ZM297 441C337 441 336 395 314 335C307.3302 316.8962 297.0802 293.1462 276.7476 273.9222C256.4151 254.6981 226 240 179 240C247 375 231 441 297 441ZM351 574C396 574 430 605 430 652C430 687 404 711 367 711C325 711 289 680 289 631C289 596 316 574 351 574Z" glyph-name="edotaccent" horiz-adv-x="487" unicode="&#279;" /><glyph d="M336 150H300C295 72 251 32 163 32C115 32 83 52 83 85C83 132 110 125 162 212C230 213 299 217 355 241C414 266 457 309 457 366C457 434 409 470 321 470C187 470 -15 334 -15 152C-15 45 49 -10 167 -10C271 -10 344 44 336 150ZM297 441C337 441 336 395 314 335C307.3302 316.8962 297.0802 293.1462 276.7476 273.9222C256.4151 254.6981 226 240 179 240C247 375 231 441 297 441ZM207 702C207 645 264 646 355 551L379 574C304 686 324 755 265 755C233 755 207 729 207 702Z" glyph-name="egrave" horiz-adv-x="487" unicode="&#232;" /><glyph d="M189 316C42 277 0 196 0 128C0 57 50 -10 195 -10C410 -10 516 130 516 232C516 450 230 387 230 531C230 582 282 630 373 630C441 630 472 581 472 530C472 492 455 435 378 402L401 385C492 397 584 451 584 542C584 615 533 680 403 680C234 680 119 564 119 444C119 342 170 286 235 251C296 218 371 191 371 126C371 68 313 41 236 41C150 41 113 100 113 158C113 192 119 263 207 290Z" glyph-name="eight" horiz-adv-x="609" unicode="8" /><glyph d="M143 252C18 222 -20 158 -20 105C-20 44 28 -10 151 -10C334 -10 429 91 429 181C429 351 184 302 184 414C184 454 215 491 292 491C350 491 377 453 377 413C377 384 369 336 304 311L325 296C403 306 482 345 482 420C482 477 436 535 326 535C187 535 76 454 76 352C76 273 125 227 180 200C232 174 298 154 298 103C298 58 252 35 191 35C118 35 86 81 86 126C86 153 88 208 163 229Z" glyph-name="eight.small" horiz-adv-x="527" /><glyph d="M153 252C28 222 -10 158 -10 105C-10 44 38 -10 161 -10C344 -10 439 91 439 181C439 351 194 302 194 414C194 454 225 491 302 491C360 491 387 453 387 413C387 384 379 336 314 311L335 296C413 306 492 345 492 420C492 477 446 535 336 535C197 535 86 454 86 352C86 273 135 227 190 200C242 174 308 154 308 103C308 58 262 35 201 35C128 35 96 81 96 126C96 153 98 208 173 229Z" glyph-name="eight.small_tab" horiz-adv-x="560" /><glyph d="M189 316C42 277 0 196 0 128C0 57 50 -10 195 -10C410 -10 516 130 516 232C516 450 230 387 230 531C230 582 282 630 373 630C441 630 472 581 472 530C472 492 455 435 378 402L401 385C492 397 584 451 584 542C584 615 533 680 403 680C234 680 119 564 119 444C119 342 170 286 235 251C296 218 371 191 371 126C371 68 313 41 236 41C150 41 113 100 113 158C113 192 119 263 207 290Z" glyph-name="eight.tab" horiz-adv-x="650" /><glyph d="M69 90C-25 64 -54 16 -54 -24C-54 -70 -17 -111 73 -111C208 -111 280 -26 280 40C280 172 101 134 101 221C101 249 130 278 183 278C223 278 242 250 242 221C242 197 232 163 185 142L199 132C255 138 317 169 317 228C317 269 281 309 201 309C93 309 21 244 21 168C21 106 50 68 93 46C131 26 170 12 170 -26C170 -61 141 -80 93 -80C42 -80 21 -45 21 -7C21 17 29 58 80 74Z" glyph-name="eightinferior" horiz-adv-x="401" unicode="&#8328;" /><glyph d="M208 598C114 572 85 524 85 484C85 438 122 397 212 397C347 397 419 482 419 548C419 680 240 642 240 729C240 757 269 786 322 786C362 786 381 758 381 729C381 705 371 671 324 650L338 640C394 646 456 677 456 736C456 777 420 817 340 817C232 817 160 752 160 676C160 614 189 576 232 554C270 534 309 520 309 482C309 447 280 428 232 428C181 428 160 463 160 501C160 525 168 566 219 582Z" glyph-name="eightsuperior" horiz-adv-x="401" unicode="&#8312;" /><glyph d="M-35 65C-35 21 -5 -13 43 -13C89 -13 118 20 118 64C118 103 88 140 43 140C-6 140 -35 104 -35 65ZM205 65C205 21 235 -13 283 -13C329 -13 358 20 358 64C358 103 328 140 283 140C234 140 205 104 205 65ZM445 65C445 21 475 -13 523 -13C569 -13 598 20 598 64C598 103 568 140 523 140C474 140 445 104 445 65Z" glyph-name="ellipsis" horiz-adv-x="763" unicode="&#8230;" /><glyph d="M336 150H300C295 72 251 32 163 32C115 32 83 52 83 85C83 132 110 125 162 212C230 213 299 217 355 241C414 266 457 309 457 366C457 434 409 470 321 470C187 470 -15 334 -15 152C-15 45 49 -10 167 -10C271 -10 344 44 336 150ZM297 441C337 441 336 395 314 335C307.3302 316.8962 297.0802 293.1462 276.7476 273.9222C256.4151 254.6981 226 240 179 240C247 375 231 441 297 441ZM233 710 197 637H503L539 710Z" glyph-name="emacron" horiz-adv-x="487" unicode="&#275;" /><glyph d="M5 321V252H945V321Z" glyph-name="emdash" horiz-adv-x="1000" unicode="&#8212;" /><glyph d="M30 413V344H970V413Z" glyph-name="emdash.cap" horiz-adv-x="1000" /><glyph d="M5 321V251H543V321Z" glyph-name="endash" horiz-adv-x="598" unicode="&#8211;" /><glyph d="M0 414V344H538V414Z" glyph-name="endash.cap" horiz-adv-x="500" /><glyph d="M165 -250C288 -250 298 -116 346 -21L467 218C490 264 506 300.7189 506 356C506 414 472 470 382 470C308 470 246 423 200 354C209 420 186 452 152 469L135 460C142 452 147 442 147 430C147 369 -10 343 -10 173C-10 127 9 61 38 0H63L126 147C190 296 279 426 374 426C403 426 415 409 415 390C415 305 261 276 261 99V-22C261 -144 233 -210 175 -210C124 -210 121 -152 132 -109H95C84 -124 76 -144 76 -167C76 -211 101 -250 165 -250Z" glyph-name="eng" horiz-adv-x="561" unicode="&#331;" /><glyph d="M105 -143C105 -186 130 -218 181 -218C249 -218 281 -175 294 -116H269C261 -136 245 -151 223 -151C206 -151 199 -140 199 -119C199 -84 223 -32 289 27L267 36C181 -19 105 -67 105 -143ZM336 150H300C295 72 251 32 163 32C115 32 83 52 83 85C83 132 110 125 162 212C230 213 299 217 355 241C414 266 457 309 457 366C457 434 409 470 321 470C187 470 -15 334 -15 152C-15 45 49 -10 167 -10C271 -10 344 44 336 150ZM297 441C337 441 336 395 314 335C307.3302 316.8962 297.0802 293.1462 276.7476 273.9222C256.4151 254.6981 226 240 179 240C247 375 231 441 297 441Z" glyph-name="eogonek" horiz-adv-x="487" unicode="&#281;" /><glyph d="M520 233H80V153H520ZM520 465H80V385H520Z" glyph-name="equal" horiz-adv-x="650" unicode="=" /><glyph d="M709 281V301C709 469 578 607 380 607C180 607 50 469 50 301C50 135 172 -5 380 -5C533 -5 621 52 673 125L648 146C587 64 509 26 380 26C288 26 226 52 181 94V281ZM380 576C465 576 532 550 579 506V309H181V506C228 551 293 576 380 576Z" glyph-name="estimated" horiz-adv-x="760" unicode="&#8494;" /><glyph d="M151 -10C400 -10 547 293 547 476C547 595 481 710 353 710C298 710 262 694 234 673L250 639C273 654 300 665 328 665C410 665 435 590 435 513C435 476 427 438 415 407C400 450 354 470 306 470C133 470 -15 316 -15 147C-15 61 40 -10 151 -10ZM285 224C236 127 237 26 147 26C103 26 79 50 79 78C79 132 126 142 173 236C222 333 218 434 310 434C352 434 377 411 377 378C377 319 332 318 285 224ZM302 527 580 668 563 705 285 565Z" glyph-name="eth" horiz-adv-x="565" unicode="&#240;" /><glyph d="M103 200C150 345 330 433 330 576C330 616 321 647 276 690H244L199 589C129 431 77 288 57 200ZM-20 63C-20 21 8 -11 54 -11C97 -11 125 20 125 62C125 99 97 134 54 134C7 134 -20 100 -20 63Z" glyph-name="exclam" horiz-adv-x="330" unicode="!" /><glyph d="M97 200C141 304 249 364 249 445C249 481 234 505 203 529H171L151 479C127 419 74 288 54 200ZM-20 58C-20 19 6 -11 49 -11C89 -11 115 18 115 57C115 91 89 124 49 124C5 124 -20 92 -20 58Z" glyph-name="exclam.small" horiz-adv-x="299" /><glyph d="M147 275C100 130 -80 42 -80 -101C-80 -141 -71 -172 -26 -215H6L51 -114C121 44 173 187 193 275ZM270 412C270 454 242 486 196 486C153 486 125 455 125 413C125 376 153 341 196 341C243 341 270 375 270 412Z" glyph-name="exclamdown" horiz-adv-x="330" unicode="&#161;" /><glyph d="M227 490C180 345 0 257 0 114C0 74 9 43 54 0H86L131 101C201 259 253 402 273 490ZM350 627C350 669 322 701 276 701C233 701 205 670 205 628C205 591 233 556 276 556C323 556 350 590 350 627Z" glyph-name="exclamdown.cap" horiz-adv-x="330" /><glyph d="M142 318C98 214 -10 154 -10 73C-10 37 5 13 36 -11H68L88 39C112 99 165 230 185 318ZM259 460C259 499 233 529 190 529C150 529 124 500 124 461C124 427 150 394 190 394C234 394 259 426 259 460Z" glyph-name="exclamdown.small" horiz-adv-x="299" /><glyph d="M76 0 192 259C228 339 264 385 276 427H368V465H281C281 525 250 540 250 592C250 639 266 672 318 672C378 672 399 622 386 562H421C431 575 438 596 438 615C438 663 404 710 328 710C214 710 168 640 168 576C168 524 190 505 190 465H92V427H181C143 347 0 329 0 159C0 107 22 62 49 0Z" glyph-name="f" horiz-adv-x="333" unicode="f" /><glyph d="M140 403 209 553C238 617 259 650 269 680H327V703H273C274 749 248 756 248 794C248 820 261 842 293 842C332 842 341 809 333 767H358C367 778 371 792 371 805C371 835 349 866 298 866C227 866 193 820 194 779C195 744 206 732 206 703H139V680H204C175 620 83 602 83 504C83 470 99 440 123 403Z" glyph-name="f.superior" horiz-adv-x="231" /><glyph d="M76 0 192 259C228 339 264 385 276 427H368V465H281C281 525 250 540 250 592C250 639 266 672 318 672C378 672 399 622 386 562H421C431 575 438 596 438 615C438 663 404 710 328 710C214 710 168 640 168 576C168 524 190 505 190 465H92V427H181C143 347 0 329 0 159C0 107 22 62 49 0ZM486 460C492 453 498 444 498 429C498 366 321 343 321 176C321 130 335 72 369 0H394L445 108C489 201 553 297 553 376C553 425 538 451 503 469ZM540 574C585 574 619 605 619 652C619 687 593 711 556 711C514 711 478 680 478 631C478 596 505 574 540 574Z" glyph-name="fi" horiz-adv-x="601" unicode="&#64257;" /><glyph d="M794 324C868 489 892 631 892 686H856C790 512 581 431 581 179C581 126 591 66 612 -4H646ZM105 0 232 318H445L467 373H254C290 459 319 544 336 623C402 605 488 566 564 566C612 566 661 590 661 700H642C624 681 598 672 526 676L306 689C201 476 25 415 25 184C25 131 39 64 64 0Z" glyph-name="fi.cap" horiz-adv-x="884" /><glyph d="M220 663 79 335 126 320C169 361 218 392 297 392C357 392 385 368 385 323C385 281 357 250 331 196C295 121 290 42 188 42C82 42 54 122 85 230H43C24 202 10 164 10 133C10 57 61 -10 186 -10C372 -10 533 97 533 277C533 381 461 445 333 445C193 445 133 366 133 366L153 363L272 648L218 558H572L636 699H603C572 670 535 663 459 663Z" glyph-name="five" horiz-adv-x="632" unicode="5" /><glyph d="M162 517 47 251 87 240C124 272 164 295 225 295C276 295 295 274 295 241C295 208 276 189 254 147C223 88 217 36 142 36C55 36 41 100 62 180H23C3 155 -5 125 -5 101C-5 41 44 -10 152 -10C311 -10 439 70 439 210C439 291 374 341 259 341C134 341 94 285 94 285L113 283L211 505L165 420H467L523 545H495C469 523 437 517 372 517Z" glyph-name="five.small" horiz-adv-x="538" /><glyph d="M172 517 57 251 97 240C134 272 174 295 235 295C286 295 305 274 305 241C305 208 286 189 264 147C233 88 227 36 152 36C65 36 51 100 72 180H33C13 155 5 125 5 101C5 41 54 -10 162 -10C321 -10 449 70 449 210C449 291 384 341 269 341C144 341 104 285 104 285L123 283L221 505L175 420H477L533 545H505C479 523 447 517 382 517Z" glyph-name="five.small_tab" horiz-adv-x="560" /><glyph d="M220 663 79 335 126 320C169 361 218 392 297 392C357 392 385 368 385 323C385 281 357 250 331 196C295 121 290 42 188 42C82 42 54 122 85 230H43C24 202 10 164 10 133C10 57 61 -10 186 -10C372 -10 533 97 533 277C533 381 461 445 333 445C193 445 133 366 133 366L153 363L272 648L218 558H572L636 699H603C572 670 535 663 459 663Z" glyph-name="five.tab" horiz-adv-x="650" /><glyph d="M83 298 -3 100 30 90C58 117 84 134 132 134C169 134 187 119 187 92C187 66 173 44 157 11C135 -34 130 -81 66 -81C-1 -81 -17 -30 4 38H-24C-38 20 -47 4 -47 -22C-47 -71 -14 -111 65 -111C188 -111 291 -52 291 64C291 128 239 166 153 166C66 166 28 113 28 113L47 115L109 263L72 226H309L354 324H333C309 303 287 298 242 298Z" glyph-name="fiveinferior" horiz-adv-x="420" unicode="&#8325;" /><glyph d="M208 806 122 608 155 598C183 625 209 642 257 642C294 642 312 627 312 600C312 574 298 552 282 519C260 474 255 427 191 427C124 427 108 478 129 546H101C87 528 78 512 78 486C78 437 111 397 190 397C313 397 416 456 416 572C416 636 364 674 278 674C191 674 153 621 153 621L172 623L234 771L197 734H434L479 832H458C434 811 412 806 367 806Z" glyph-name="fivesuperior" horiz-adv-x="420" unicode="&#8309;" /><glyph d="M76 0 192 259C228 339 264 385 276 427H368V465H281C281 525 250 540 250 592C250 639 266 672 318 672C378 672 399 622 386 562H421C431 575 438 596 438 615C438 663 404 710 328 710C214 710 168 640 168 576C168 524 190 505 190 465H92V427H181C143 347 0 329 0 159C0 107 22 62 49 0ZM566 701C572 688 574 676 574 663C574 509 337 419 337 170C336 118 351 60 378 0H404L551 328C581 397 627 508 627 598C627 643 616 683 585 710Z" glyph-name="fl" horiz-adv-x="617" unicode="&#64258;" /><glyph d="M608 35C704 24 774 -10 868 -10C977 -10 1005 63 1015 160H986C970 118 950 100 853 95H682L792 328C869 491 891 635 891 690H855C789 515 580 439 580 185C580 133 593 82 608 35ZM105 0 232 318H445L467 373H254C290 459 319 544 336 623C402 605 488 566 564 566C612 566 661 590 661 700H642C624 681 598 672 526 676L306 689C201 476 25 415 25 184C25 131 39 64 64 0Z" glyph-name="fl.cap" horiz-adv-x="1094" /><glyph d="M145 220C111 123 187 -82 68 -82C9 -82 17 -28 26 7H-9C-31 -25 -46 -120 63 -120C185 -120 203 -25 242 61L332 259C368 339 414 403 414 511C414 563 405 645 485 645C545 645 554 600 541 540H576C586 553 593 574 593 593C593 641 564 683 493 683C347 683 335 575 335 500C335 337 199 375 145 220ZM527 477H244L230 427H513Z" glyph-name="florin" horiz-adv-x="650" unicode="&#402;" /><glyph d="M-18 146H551L581 237H81L66 214L594 621H578C453 407 289 308 289 142C289 100 300 54 324 0H370L578 458C607 523 640 624 640 680H577L-18 228Z" glyph-name="four" horiz-adv-x="650" unicode="4" /><glyph d="M490 484H479C375 320 244 243 244 117C244 83 253 45 275 0H325L486 357C510 409 539 487 539 530H468L-20 178V104H463L489 185H64L59 167Z" glyph-name="four.small" horiz-adv-x="569" /><glyph d="M485 484H474C370 320 239 243 239 117C239 83 248 45 270 0H320L481 357C505 409 534 487 534 530H463L-25 178V104H458L484 185H59L54 167Z" glyph-name="four.small_tab" horiz-adv-x="560" /><glyph d="M-18 146H551L581 237H81L66 214L594 621H578C453 407 289 308 289 142C289 100 300 54 324 0H370L578 458C607 523 640 624 640 680H577L-18 228Z" glyph-name="four.tab" horiz-adv-x="650" /><glyph d="M-67 -22H296L317 44H-42L-24 17L308 272L300 275C200 110 125 91 125 -16C125 -42 131 -69 150 -105H181L308 176C326 216 343 269 343 309H296L-67 33Z" glyph-name="fourinferior" horiz-adv-x="431" unicode="&#8324;" /><glyph d="M63 486H426L447 552H88L106 525L438 780L430 783C330 618 255 599 255 492C255 466 261 439 280 403H311L438 684C456 724 473 777 473 817H426L63 541Z" glyph-name="foursuperior" horiz-adv-x="431" unicode="&#8308;" /><glyph d="M400 682 437 660C319 420 181 218 -3 -10L-38 14C100 306 241 490 400 682Z" glyph-name="fraction" horiz-adv-x="400" unicode="&#8260;" /><glyph d="M29 -250C230 -250 322 -151 322 -54C322 21 272 68 177 68C155.8903 68 134.4504 65.9644 113.9967 63.4676C47.2473 55.3194 -9 42.2585 -9 79C-9 113 44 145 139 146C159 146 179 140 211 140C363 140 436 219 459 312C463.2497 329.4239 466.9125 344.2291 470.2954 356.7418C482.8327 403.1158 491.5247 418 512 418C533 418 538 396 527 367H559C567 376 573 391 573 406C573 431 556 456 518 456C485 456 456 442 441 396C418 435 374 470 285 470C130 470 36 378 36 274C36 228 53 196 90 176C-43 161 -73 91 -73 38C-73 -45.5 -0.75 -61 71.5 -69.375C91.3748 -71.6788 111.2496 -73.4435 129.6205 -75.9362C178.0324 -82.505 216 -94.1296 216 -134C216 -184 150 -211 49 -211C-34.59 -211 -67.9877 -178.243 -76.5395 -133.8508C-79.7529 -117.1699 -79.4582 -98.846 -77 -80H-106C-129 -98 -140 -122 -140 -146C-140 -198 -103 -250 29 -250ZM303 288C268 233 278 172 204 172C166 172 149 195 149 219C149 258 170 272 202 320C240 379 233 438 295 438C338 438 351 408 351 386C351 348 331 330 303 288Z" glyph-name="g" horiz-adv-x="541" unicode="g" /><glyph d="M116 240C253 240 311 304 311 367C311 414 283 448 218 448C195 448 177 444 157 441C114 435 81 428 81 452C81 477 117 494 173 494C191 494 201 489 230 489C332 489 383 540 399 601L407 631C414 657 421 669 435 669C449 669 452 654 445 635H466C472 642 477 651 477 661C477 678 465 693 439 693C418 693 401 684 388 645C374 678 339 704 275 704C170 704 107 647 107 582C107 554 116 528 139 515C54 505 36 459 36 424C36 369 86 354 141 348C157 346 172 345 186 343C217 339 238 334 238 314C238 285 189 264 124 264C67 264 45 284 39 311C36 322 36 335 38 349H17C1 337 -6 323 -6 307C-6 277 12 240 116 240ZM289 587C263 549 277 508 225 508C198 508 186 524 186 541C186 568 204 573 226 606C250 643 243 684 283 684C315 684 322 665 322 648C322 623 306 612 289 587Z" glyph-name="g.superior" horiz-adv-x="374" /><glyph d="M29 -250C230 -250 322 -151 322 -54C322 21 272 68 177 68C155.8903 68 134.4504 65.9644 113.9967 63.4676C47.2473 55.3194 -9 42.2585 -9 79C-9 113 44 145 139 146C159 146 179 140 211 140C363 140 436 219 459 312C463.2497 329.4239 466.9125 344.2291 470.2954 356.7418C482.8327 403.1158 491.5247 418 512 418C533 418 538 396 527 367H559C567 376 573 391 573 406C573 431 556 456 518 456C485 456 456 442 441 396C418 435 374 470 285 470C130 470 36 378 36 274C36 228 53 196 90 176C-43 161 -73 91 -73 38C-73 -45.5 -0.75 -61 71.5 -69.375C91.3748 -71.6788 111.2496 -73.4435 129.6205 -75.9362C178.0324 -82.505 216 -94.1296 216 -134C216 -184 150 -211 49 -211C-34.59 -211 -67.9877 -178.243 -76.5395 -133.8508C-79.7529 -117.1699 -79.4582 -98.846 -77 -80H-106C-129 -98 -140 -122 -140 -146C-140 -198 -103 -250 29 -250ZM303 288C268 233 278 172 204 172C166 172 149 195 149 219C149 258 170 272 202 320C240 379 233 438 295 438C338 438 351 408 351 386C351 348 331 330 303 288ZM353 567C476 567 579 658 613 753H574C534 702 472 656 406 656C330 656 333 706 339 753H310C278 711 263 683 263 645C263 605 286 567 353 567Z" glyph-name="gbreve" horiz-adv-x="541" unicode="&#287;" /><glyph d="M185 585 201 552 396 653C422 613 458 574 495 554L526 575C513 620 493 701 483 764H451ZM29 -250C230 -250 322 -151 322 -54C322 21 272 68 177 68C155.8903 68 134.4504 65.9644 113.9967 63.4676C47.2473 55.3194 -9 42.2585 -9 79C-9 113 44 145 139 146C159 146 179 140 211 140C363 140 436 219 459 312C463.2497 329.4239 466.9125 344.2291 470.2954 356.7418C482.8327 403.1158 491.5247 418 512 418C533 418 538 396 527 367H559C567 376 573 391 573 406C573 431 556 456 518 456C485 456 456 442 441 396C418 435 374 470 285 470C130 470 36 378 36 274C36 228 53 196 90 176C-43 161 -73 91 -73 38C-73 -45.5 -0.75 -61 71.5 -69.375C91.3748 -71.6788 111.2496 -73.4435 129.6205 -75.9362C178.0324 -82.505 216 -94.1296 216 -134C216 -184 150 -211 49 -211C-34.59 -211 -67.9877 -178.243 -76.5395 -133.8508C-79.7529 -117.1699 -79.4582 -98.846 -77 -80H-106C-129 -98 -140 -122 -140 -146C-140 -198 -103 -250 29 -250ZM303 288C268 233 278 172 204 172C166 172 149 195 149 219C149 258 170 272 202 320C240 379 233 438 295 438C338 438 351 408 351 386C351 348 331 330 303 288Z" glyph-name="gcircumflex" horiz-adv-x="541" unicode="&#285;" /><glyph d="M450 735 419 748C358 705 304 639 292 563H383C392 628 422 684 450 735ZM29 -250C230 -250 322 -151 322 -54C322 21 272 68 177 68C155.8903 68 134.4504 65.9644 113.9967 63.4676C47.2473 55.3194 -9 42.2585 -9 79C-9 113 44 145 139 146C159 146 179 140 211 140C363 140 436 219 459 312C463.2497 329.4239 466.9125 344.2291 470.2954 356.7418C482.8327 403.1158 491.5247 418 512 418C533 418 538 396 527 367H559C567 376 573 391 573 406C573 431 556 456 518 456C485 456 456 442 441 396C418 435 374 470 285 470C130 470 36 378 36 274C36 228 53 196 90 176C-43 161 -73 91 -73 38C-73 -45.5 -0.75 -61 71.5 -69.375C91.3748 -71.6788 111.2496 -73.4435 129.6205 -75.9362C178.0324 -82.505 216 -94.1296 216 -134C216 -184 150 -211 49 -211C-34.59 -211 -67.9877 -178.243 -76.5395 -133.8508C-79.7529 -117.1699 -79.4582 -98.846 -77 -80H-106C-129 -98 -140 -122 -140 -146C-140 -198 -103 -250 29 -250ZM303 288C268 233 278 172 204 172C166 172 149 195 149 219C149 258 170 272 202 320C240 379 233 438 295 438C338 438 351 408 351 386C351 348 331 330 303 288Z" glyph-name="gcommaaccent" horiz-adv-x="541" unicode="&#291;" /><glyph d="M29 -250C230 -250 322 -151 322 -54C322 21 272 68 177 68C155.8903 68 134.4504 65.9644 113.9967 63.4676C47.2473 55.3194 -9 42.2585 -9 79C-9 113 44 145 139 146C159 146 179 140 211 140C363 140 436 219 459 312C463.2497 329.4239 466.9125 344.2291 470.2954 356.7418C482.8327 403.1158 491.5247 418 512 418C533 418 538 396 527 367H559C567 376 573 391 573 406C573 431 556 456 518 456C485 456 456 442 441 396C418 435 374 470 285 470C130 470 36 378 36 274C36 228 53 196 90 176C-43 161 -73 91 -73 38C-73 -45.5 -0.75 -61 71.5 -69.375C91.3748 -71.6788 111.2496 -73.4435 129.6205 -75.9362C178.0324 -82.505 216 -94.1296 216 -134C216 -184 150 -211 49 -211C-34.59 -211 -67.9877 -178.243 -76.5395 -133.8508C-79.7529 -117.1699 -79.4582 -98.846 -77 -80H-106C-129 -98 -140 -122 -140 -146C-140 -198 -103 -250 29 -250ZM303 288C268 233 278 172 204 172C166 172 149 195 149 219C149 258 170 272 202 320C240 379 233 438 295 438C338 438 351 408 351 386C351 348 331 330 303 288ZM350 574C395 574 429 605 429 652C429 687 403 711 366 711C324 711 288 680 288 631C288 596 315 574 350 574Z" glyph-name="gdotaccent" horiz-adv-x="541" unicode="&#289;" /><glyph d="M183 259C273 459 272 504 282 589C288 639 318 669 370 669C421 669 436 635 436 593C436 448 274 418 274 294C274 160 394 162 394 93C394 49 350 28 300 28C236.0345 28 214.5716 59.877 218.9176 111.7068C219.7352 121.4581 221.4664 131.9156 224 143H189C181 129 172 112 172 92C172 36 203 -10 293 -10C429 -10 508 94 508 189C508 262 470.5 289.5 433 307.125C395.5 324.75 358 332.5 358 366C358 396 386 406 429 426C495 457 568 488 568 576C568 650 513 710 401 710C276 710 224 637 198 576C133 424 0 381 0 154C0 102 22 43 41 0H67Z" glyph-name="germandbls" horiz-adv-x="605" unicode="&#223;" /><glyph d="M34 243C12 218 0 180 0 148C0 75 47 -10 191 -10C409 -10 491 144 491 249C491 367 419 399 350 425C288 448 229 466 229 536C229 589 275 648 386 648C510 648 508 541 490 482H543C560 501 571 532 571 559C571 634 523 700 399 700C212 700 109 559 109 447C109 342 157 301 223 265C285 231 336 209 336 151C336 87 288 42 203 42C78 42 60 138 74 243ZM599 243C577 218 565 180 565 148C565 75 612 -10 756 -10C974 -10 1056 144 1056 249C1056 367 984 399 915 425C853 448 794 466 794 536C794 589 840 648 951 648C1075 648 1073 541 1055 482H1108C1125 501 1136 532 1136 559C1136 634 1088 700 964 700C777 700 674 559 674 447C674 342 722 301 788 265C850 231 901 209 901 151C901 87 853 42 768 42C643 42 625 138 639 243Z" glyph-name="germandbls.cap" horiz-adv-x="1151" /><glyph d="M7 188C-10 169 -20 137 -20 113C-20 53 16 -10 138 -10C313 -10 392 107 392 188C392 274 338 302 283 321C228 340 177 354 177 404C177 446 208 488 298 488C398 488 400 409 386 363H432C445 378 453 402 453 422C453 479 415 535 311 535C160 535 65 435 65 339C65 259 106 227 161 200C214 174 270 162 270 111C270 64 224 39 150 39C49 39 34 108 44 188ZM503 188C486 169 476 137 476 113C476 53 512 -10 634 -10C809 -10 888 107 888 188C888 274 834 302 779 321C724 340 673 354 673 404C673 446 704 488 794 488C894 488 896 409 882 363H928C941 378 949 402 949 422C949 479 911 535 807 535C656 535 561 435 561 339C561 259 602 227 657 200C710 174 766 162 766 111C766 64 720 39 646 39C545 39 530 108 540 188Z" glyph-name="germandbls.small" horiz-adv-x="999" /><glyph d="M212 702C212 645 269 646 360 551L384 574C309 686 329 755 270 755C238 755 212 729 212 702Z" glyph-name="grave" horiz-adv-x="500" unicode="`" /><glyph d="M316 827C316 763 385 785 512 734L527 759C433 833 427 885 374 885C333 885 316 851 316 827Z" glyph-name="grave.cap" horiz-adv-x="500" /><glyph d="M404 303 120 457 156 527 530 327V292L156 92L120 162L404 316Z" glyph-name="greater" horiz-adv-x="650" unicode="&gt;" /><glyph d="M418 371 124 515 160 585 544 395V360L160 170L124 240L418 384ZM110 80H550V0H110Z" glyph-name="greaterequal" horiz-adv-x="650" unicode="&#8805;" /><glyph d="M129 242 305 439H234L33 273L25 245L96 59H158L131 248ZM329 242 505 439H434L233 273L225 245L296 59H358L331 248Z" glyph-name="guillemotleft" horiz-adv-x="515" unicode="&#171;" /><glyph d="M169 342 345 539H274L73 373L65 345L136 159H198L171 348ZM369 342 545 539H474L273 373L265 345L336 159H398L371 348Z" glyph-name="guillemotleft.cap" horiz-adv-x="515" /><glyph d="M316 256 140 59H211L412 225L420 253L349 439H287L314 250ZM116 256 -60 59H11L212 225L220 253L149 439H87L114 250Z" glyph-name="guillemotright" horiz-adv-x="515" unicode="&#187;" /><glyph d="M346 356 170 159H241L442 325L450 353L379 539H317L344 350ZM146 356 -30 159H41L242 325L250 353L179 539H117L144 350Z" glyph-name="guillemotright.cap" horiz-adv-x="515" /><glyph d="M129 242 305 439H234L33 273L25 245L96 59H158L131 248Z" glyph-name="guilsinglleft" horiz-adv-x="315" unicode="&#8249;" /><glyph d="M169 342 345 539H274L73 373L65 345L136 159H198L171 348Z" glyph-name="guilsinglleft.cap" horiz-adv-x="315" /><glyph d="M116 256 -60 59H11L212 225L220 253L149 439H87L114 250Z" glyph-name="guilsinglright" horiz-adv-x="315" unicode="&#8250;" /><glyph d="M146 356 -30 159H41L242 325L250 353L179 539H117L144 350Z" glyph-name="guilsinglright.cap" horiz-adv-x="315" /><glyph d="M68 0 140 169C202 314 294 426 379 426C411 426 420 408 420 393C420 319 234 272 234 93C234 40 263 -10 318 -10L332 18C317 20 301 27 301 46C301 108 511 162 511 354C511 412 478 470 385 470C306 470 249 417 204 350L201 353C247 437 290 504 290 598C290 643 279 683 248 710L229 701C234 690 237 678 237 665C237 520 0 406 0 175C0 123 14 65 43 0Z" glyph-name="h" horiz-adv-x="556" unicode="h" /><glyph d="M137 403 175 494C218 597 280 679 336 679C356 679 365 670 365 657C365 612 248 587 248 464C248 427 268 397 305 397L315 416C304 418 294 422 294 433C294 471 428 506 428 626C428 672 401 704 346 704C295 704 252 669 224 627L222 629C251 682 279 733 279 788C279 819 270 847 249 865L238 859C241 851 243 839 243 829C243 736 93 665 93 516C93 481 101 452 123 403Z" glyph-name="h.superior" horiz-adv-x="377" /><glyph d="M112 621 96 576H442L458 621ZM68 0 140 169C202 314 294 426 379 426C411 426 420 408 420 393C420 319 234 272 234 93C234 40 263 -10 318 -10L332 18C317 20 301 27 301 46C301 108 511 162 511 354C511 412 478 470 385 470C306 470 249 417 204 350L201 353C247 437 290 504 290 598C290 643 279 683 248 710L229 701C234 690 237 678 237 665C237 520 0 406 0 175C0 123 14 65 43 0Z" glyph-name="hbar" horiz-adv-x="556" unicode="&#295;" /><glyph d="M110 765 129 732 285 800C312 772 344 746 387 730L414 754C399 790 380 846 365 896H333ZM68 0 140 169C202 314 294 426 379 426C411 426 420 408 420 393C420 319 234 272 234 93C234 40 263 -10 318 -10L332 18C317 20 301 27 301 46C301 108 511 162 511 354C511 412 478 470 385 470C306 470 249 417 204 350L201 353C247 437 290 504 290 598C290 643 279 683 248 710L229 701C234 690 237 678 237 665C237 520 0 406 0 175C0 123 14 65 43 0Z" glyph-name="hcircumflex" horiz-adv-x="556" unicode="&#293;" /><glyph d="M205 576 236 547 444 717 356 775ZM390 576 421 547 632 707 549 770Z" glyph-name="hungarumlaut" horiz-adv-x="500" unicode="&#733;" /><glyph d="M256 745 291 717 503 868 405 912ZM456 745 491 717 703 868 605 912Z" glyph-name="hungarumlaut.cap" horiz-adv-x="500" /><glyph d="M30 321V251H292V321Z" glyph-name="hyphen" horiz-adv-x="382" unicode="-" /><glyph d="M60 403V333H322V403Z" glyph-name="hyphen.cap" horiz-adv-x="382" /><glyph d="M155 460C161 453 167 444 167 429C167 366 -10 343 -10 176C-10 130 4 72 38 0H63L114 108C158 201 222 297 222 376C222 425 207 451 172 469ZM209 574C254 574 288 605 288 652C288 687 262 711 225 711C183 711 147 680 147 631C147 596 174 574 209 574Z" glyph-name="i" horiz-adv-x="270" unicode="i" /><glyph d="M155 460C161 453 167 444 167 429C167 366 -10 343 -10 176C-10 130 4 72 38 0H63L114 108C158 201 222 297 222 376C222 425 207 451 172 469ZM209 574C254 574 288 605 288 652C288 687 262 711 225 711C183 711 147 680 147 631C147 596 174 574 209 574Z" glyph-name="i.TRK" horiz-adv-x="270" /><glyph d="M198 698C202 695 207 688 207 677C207 640 88 634 88 520C88 489 98 455 124 403H137L172 473C202 533 244 598 244 645C244 677 234 693 210 705ZM245 772C277 772 302 794 302 826C302 851 283 867 257 867C226 867 200 845 200 811C200 788 219 772 245 772Z" glyph-name="i.superior" horiz-adv-x="186" unicode="&#8305;" /><glyph d="M166 574 184 551C333 644 404 635 404 700C404 727 383 748 354 748C296 748 306 698 166 574ZM155 460C161 453 167 444 167 429C167 366 -10 343 -10 176C-10 130 4 72 38 0H63L114 108C158 201 222 297 222 376C222 425 207 451 172 469Z" glyph-name="iacute" horiz-adv-x="270" unicode="&#237;" /><glyph d="M213 567C336 567 415 658 449 753H410C370 702 325 656 259 656C183 656 193 706 199 753H170C138 711 123 683 123 645C123 605 148 567 213 567ZM155 460C161 453 167 444 167 429C167 366 -10 343 -10 176C-10 130 4 72 38 0H63L114 108C158 201 222 297 222 376C222 425 207 451 172 469Z" glyph-name="ibreve" horiz-adv-x="270" unicode="&#301;" /><glyph d="M60 585 76 552 251 653C277 613 303 574 340 554L371 575C358 620 348 701 338 764H306ZM155 460C161 453 167 444 167 429C167 366 -10 343 -10 176C-10 130 4 72 38 0H63L114 108C158 201 222 297 222 376C222 425 207 451 172 469Z" glyph-name="icircumflex" horiz-adv-x="270" unicode="&#238;" /><glyph d="M91 653C91 627 107 607 138 607C178 607 215 635 215 679C215 707 198 727 166 727C129 727 91 700 91 653ZM275 653C275 627 291 607 322 607C362 607 399 635 399 679C399 707 382 727 350 727C313 727 275 700 275 653ZM155 460C161 453 167 444 167 429C167 366 -10 343 -10 176C-10 130 4 72 38 0H63L114 108C158 201 222 297 222 376C222 425 207 451 172 469Z" glyph-name="idieresis" horiz-adv-x="270" unicode="&#239;" /><glyph d="M155 460C161 453 167 444 167 429C167 366 -10 343 -10 176C-10 130 4 72 38 0H63L114 108C158 201 222 297 222 376C222 425 207 451 172 469ZM82 702C82 645 139 646 230 551L254 574C179 686 199 755 140 755C108 755 82 729 82 702Z" glyph-name="igrave" horiz-adv-x="270" unicode="&#236;" /><glyph d="M155 460C161 453 167 444 167 429C167 366 -10 343 -10 176C-10 130 4 72 38 0H63L114 108C158 201 222 297 222 376C222 425 207 451 172 469ZM209 574C254 574 288 605 288 652C288 687 262 711 225 711C183 711 147 680 147 631C147 596 174 574 209 574ZM108 -109C97 -124 89 -144 89 -167C89 -211 114 -250 178 -250C301 -250 308 -119 352 -21L460 218C489 283 506 334 506 376C506 425 491 451 456 469L439 460C447 451 451 442 451 429C451 364 274 355 274 119V-22C274 -144 246 -210 188 -210C137 -210 134 -152 145 -109ZM504 574C549 574 583 605 583 652C583 687 557 711 520 711C478 711 442 680 442 631C442 596 469 574 504 574Z" glyph-name="ij" horiz-adv-x="564" unicode="&#307;" /><glyph d="M120 710 84 637H360L396 710ZM155 460C161 453 167 444 167 429C167 366 -10 343 -10 176C-10 130 4 72 38 0H63L114 108C158 201 222 297 222 376C222 425 207 451 172 469Z" glyph-name="imacron" horiz-adv-x="270" unicode="&#299;" /><glyph d="M427 167C533 167 583 240 583 320C583 389 540 451 452 451C392 451 353 412 317 367C281 410 241 451 174 451C68 451 20 369 20 295C20 225 60 167 148 167C202 167 244 199 281 239C317 201 362 167 427 167ZM453 271C411 271 381 295 353 326C385 363 416 392 455 392C497 392 515 366 515 330C515 300 487 271 453 271ZM149 226C107 226 88 257 88 293C88 328 115 348 149 348C186 348 215 315 247 277C220 247 189 226 149 226Z" glyph-name="infinity" horiz-adv-x="603" unicode="&#8734;" /><glyph d="M265 51 258 542C257 638 267 673 308 673C329 673 340 664 354 643L396 677C381 706 344 750 272 750C159 750 110 673 112 540L120 49C122 -47 105 -82 64 -82C43 -82 32 -73 18 -52L-24 -86C-9 -115 28 -159 100 -159C213 -159 267 -82 265 51Z" glyph-name="integral" horiz-adv-x="391" unicode="&#8747;" /><glyph d="M-93 -143C-93 -186 -68 -218 -17 -218C51 -218 83 -175 96 -116H71C63 -136 47 -151 25 -151C8 -151 1 -140 1 -119C1 -90 19 -47 63 0L45 21C-30 -28 -93 -74 -93 -143ZM155 460C161 453 167 444 167 429C167 366 -10 343 -10 176C-10 130 4 72 38 0H63L114 108C158 201 222 297 222 376C222 425 207 451 172 469ZM209 574C254 574 288 605 288 652C288 687 262 711 225 711C183 711 147 680 147 631C147 596 174 574 209 574Z" glyph-name="iogonek" horiz-adv-x="270" unicode="&#303;" /><glyph d="M97 596H129C138 637 145 657 180 657C228 657 242 592 316 592C383 592 438 632 446 733H413C405 691 401 671 367 671C320 671 307 737 228 737C157 737 111 700 97 596ZM155 460C161 453 167 444 167 429C167 366 -10 343 -10 176C-10 130 4 72 38 0H63L114 108C158 201 222 297 222 376C222 425 207 451 172 469Z" glyph-name="itilde" horiz-adv-x="270" unicode="&#297;" /><glyph d="M-161 -109C-172 -124 -180 -144 -180 -167C-180 -211 -155 -250 -91 -250C32 -250 39 -119 83 -21L191 218C220 283 237 334 237 376C237 425 222 451 187 469L170 460C178 451 182 442 182 429C182 364 5 355 5 119V-22C5 -144 -23 -210 -81 -210C-132 -210 -135 -152 -124 -109ZM235 574C280 574 314 605 314 652C314 687 288 711 251 711C209 711 173 680 173 631C173 596 200 574 235 574Z" glyph-name="j" horiz-adv-x="295" unicode="j" /><glyph d="M-23 333C-31 323 -38 308 -38 293C-38 264 -21 240 21 240C103 240 105 323 134 387L203 539C222 581 232 614 232 641C232 672 219 692 193 703L182 698C186 692 189 686 189 678C189 631 79 627 79 476V385C79 300 66 266 29 266C-6 266 -7 305 1 333ZM235 772C267 772 292 794 292 826C292 851 273 867 247 867C216 867 190 845 190 811C190 788 209 772 235 772Z" glyph-name="j.superior" horiz-adv-x="205" /><glyph d="M-161 -109C-172 -124 -180 -144 -180 -167C-180 -211 -155 -250 -91 -250C32 -250 39 -119 83 -21L191 218C220 283 237 334 237 376C237 425 222 451 187 469L170 460C178 451 182 442 182 429C182 364 5 355 5 119V-22C5 -144 -23 -210 -81 -210C-132 -210 -135 -152 -124 -109ZM61 585 77 552 272 653C298 613 334 574 371 554L402 575C389 620 369 701 359 764H327Z" glyph-name="jcircumflex" horiz-adv-x="295" unicode="&#309;" /><glyph d="M304 -10 317 15C306 16 286 21 286 37C286 99 450 89 450 224C450 287 404 325 334 325C285 325 245 304 244 304C312 395 373 429 425 429C453 429 465 417 465 398C465 379 455 370 442 358V337C450 333 459 331 469 331C496 331 527 350 527 395C527 428 507 470 436 470C342 470 242 396 166 262H159L200 349C246 446 290 504 290 598C290 643 279 683 248 710L229 701C234 689 237 677 237 664C237 524 0 398 0 178C0 125 13 66 43 0H68L91 54C166 232 239 290 333 290C368 290 382 279 382 263C382 203 196 246 196 98C196 41 243 -6 304 -10Z" glyph-name="k" horiz-adv-x="537" unicode="k" /><glyph d="M294 396 302 412C295 413 281 416 281 427C281 466 387 460 387 546C387 586 358 611 313 611C287 611 269 604 255 597C300 655 338 677 371 677C389 677 397 669 397 657C397 645 390 642 380 633V617C386 615 392 614 399 614C416 614 437 627 437 655C437 677 424 704 378 704C318 704 259 658 205 570H201L228 626C258 688 288 735 288 796C288 825 280 853 257 869L247 864C252 855 252 847 252 839C252 740 97 683 97 518C97 479 109 446 127 403H140L155 436C207 551 251 589 312 589C338 589 344 580 344 571C344 532 223 561 223 465C223 429 255 399 294 396Z" glyph-name="k.superior" horiz-adv-x="372" /><glyph d="M31 -227 62 -240C123 -197 177 -131 189 -55H98C89 -120 59 -176 31 -227ZM304 -10 317 15C306 16 286 21 286 37C286 99 450 89 450 224C450 287 404 325 334 325C285 325 245 304 244 304C312 395 373 429 425 429C453 429 465 417 465 398C465 379 455 370 442 358V337C450 333 459 331 469 331C496 331 527 350 527 395C527 428 507 470 436 470C342 470 242 396 166 262H159L200 349C246 446 290 504 290 598C290 643 279 683 248 710L229 701C234 689 237 677 237 664C237 524 0 398 0 178C0 125 13 66 43 0H68L91 54C166 232 239 290 333 290C368 290 382 279 382 263C382 203 196 246 196 98C196 41 243 -6 304 -10Z" glyph-name="kcommaaccent" horiz-adv-x="537" unicode="&#311;" /><glyph d="M229 701C235 688 237 676 237 663C237 509 0 419 0 170C-1 118 14 60 41 0H67L214 328C244 397 290 508 290 598C290 643 279 683 248 710Z" glyph-name="l" horiz-adv-x="280" unicode="l" /><glyph d="M240 864C245 855 245 847 245 839C245 740 90 683 90 518C90 479 102 446 120 403H133L233 622C262 685 281 738 281 796C281 825 273 853 250 869Z" glyph-name="l.superior" horiz-adv-x="195" /><glyph d="M177 773 189 742C280 770 342 769 382 779C413 788 431 803 431 837C431 864 410 886 378 886C318 886 310 842 177 773ZM229 701C235 688 237 676 237 663C237 509 0 419 0 170C-1 118 14 60 41 0H67L214 328C244 397 290 508 290 598C290 643 279 683 248 710Z" glyph-name="lacute" horiz-adv-x="280" unicode="&#314;" /><glyph d="M328 528 356 515C417 558 451 634 463 710H382C373 645 356 579 328 528ZM229 701C235 688 237 676 237 663C237 509 0 419 0 170C-1 118 14 60 41 0H67L214 328C244 397 290 508 290 598C290 643 279 683 248 710Z" glyph-name="lcaron" horiz-adv-x="280" unicode="&#318;" /><glyph d="M-70 -227 -39 -240C22 -197 76 -131 88 -55H-3C-12 -120 -42 -176 -70 -227ZM229 701C235 688 237 676 237 663C237 509 0 419 0 170C-1 118 14 60 41 0H67L214 328C244 397 290 508 290 598C290 643 279 683 248 710Z" glyph-name="lcommaaccent" horiz-adv-x="280" unicode="&#316;" /><glyph d="M229 701C235 688 237 676 237 663C237 509 0 419 0 170C-1 118 14 60 41 0H67L214 328C244 397 290 508 290 598C290 643 279 683 248 710ZM321 247C366 247 400 278 400 325C400 360 374 384 337 384C295 384 259 353 259 304C259 269 286 247 321 247Z" glyph-name="ldot" horiz-adv-x="412" unicode="&#320;" /><glyph d="M226 303 510 457 474 527 100 327V292L474 92L510 162L226 316Z" glyph-name="less" horiz-adv-x="650" unicode="&lt;" /><glyph d="M222 371 516 515 480 585 96 395V360L480 170L516 240L222 384ZM530 80H90V0H530Z" glyph-name="lessequal" horiz-adv-x="650" unicode="&#8804;" /><glyph d="M313 527 182 175C159 113 153 58 208 58C240 58 265 101 277 120L314 100C284 34 242 -10 162 -10C51 -10 11 83 68 234L162 484C218 633 287 706 398 706C469 706 509 664 509 600C509 449 365 288 -40 155V211C331 322 443 502 443 600C443 622 434 645 402 645C352 645 341 603 313 527Z" glyph-name="litre" horiz-adv-x="449" unicode="&#8467;" /><glyph d="M540 170V455H460V170ZM518 455H100V375H518Z" glyph-name="logicalnot" horiz-adv-x="650" unicode="&#172;" /><glyph d="M522 372 327 694H244L50 372V310L244 -8H327L522 310ZM285 87 138 345 285 600 432 345Z" glyph-name="lozenge" horiz-adv-x="572" unicode="&#9674;" /><glyph d="M-82 72 332 410V478L-82 140ZM229 701C235 688 237 676 237 663C237 509 0 419 0 170C-1 118 14 60 41 0H67L214 328C244 397 290 508 290 598C290 643 279 683 248 710Z" glyph-name="lslash" horiz-adv-x="280" unicode="&#322;" /><glyph d="M126 147C202 325 289 425 364 425C387 425 402 412 402 393C402 334 257 325 257 180C257 135 270 77 305 0H330L393 147C471 329 562 425 647 425C675 425 688 411 688 392C688 319 499 274 499 93C499 37 531 -10 583 -10L597 18C585 19 566 27 566 46C566 109 776 160 776 356C776 414 738 470 655 470C581 470 521 430 476 363C476 421 457 470 374 470C299 470 243 422 199 358C206 424 185.549 451.6471 152 469L135 460C141 453 147 445 147 430C147 370 -10 342 -10 176C-10 130 5 72 38 0H63Z" glyph-name="m" horiz-adv-x="821" unicode="m" /><glyph d="M165 496C215 611 273 678 322 678C338 678 347 670 347 656C347 617 255 615 255 518C255 488 266 455 291 403H304L344 495C395 613 448 678 505 678C524 678 532 667 532 654C532 607 411 580 411 463C411 427 431 397 468 397L478 416C467 416 455 420 455 433C455 473 588 506 588 631C588 668 564 704 511 704C463 704 425 680 395 636C396 673 382 704 329 704C280 704 245 675 214 632C218 675 205 692 184 703L173 698C177 693 180 688 180 678C180 640 80 622 80 516C80 486 90 448 112 403H125Z" glyph-name="m.superior" horiz-adv-x="537" /><glyph d="M218 710 182 637H488L524 710Z" glyph-name="macron" horiz-adv-x="500" unicode="&#175;" /><glyph d="M346 848 310 775H616L652 848Z" glyph-name="macron.cap" horiz-adv-x="500" /><glyph d="M520 349H80V269H520Z" glyph-name="minus" horiz-adv-x="650" unicode="&#8722;" /><glyph d="M379 261 360 316C360 173 334 84 273 84C222 84 200 117 200 224V417H166V178C166 63 195 -10 272 -10C366 -10 379 139 379 261ZM200 -250V485L60 478V-250ZM483 -10C567 -10 594 34 594 108H563C563 90 552 64 533 64C503 64 499 89 499 131V485L360 477V216L367 135C367 45 407 -10 483 -10Z" glyph-name="mu" horiz-adv-x="606" unicode="&#181;" /><glyph d="M497.4838 169.3488 186.3568 480.4758 129.7883 423.9073 440.9153 112.7803ZM440.9153 480.4758 129.7883 169.3488 186.3568 112.7803 497.4838 423.9073Z" glyph-name="multiply" horiz-adv-x="650" unicode="&#215;" /><glyph d="M126 147C190 296 279 426 374 426C403 426 415 412 415 393C415 323 229 270 229 93C229 40 258 -10 313 -10L327 18C313 20 296 27 296 46C296 109 506 160 506 356C506 414 472 470 382 470C308 470 246 423 200 354C209 420 185.549 451.6471 152 469L135 460C142 452 147 442 147 430C147 369 -10 343 -10 173C-10 127 9 61 38 0H63Z" glyph-name="n" horiz-adv-x="551" unicode="n" /><glyph d="M167 494C210 597 270 679 337 679C357 679 366 670 366 657C366 612 249 592 249 464C249 427 269 397 306 397L316 416C305 418 295 422 295 433C295 471 429 501 429 628C429 672 402 704 344 704C295 704 248 676 218 632C225 674 211 693 187 703L176 698C180 692 183 686 183 678C183 639 80 627 80 514C80 484 91 445 112 403H129Z" glyph-name="n.superior" horiz-adv-x="378" unicode="&#8319;" /><glyph d="M347 574 365 551C514 644 585 635 585 700C585 727 564 748 535 748C477 748 487 698 347 574ZM126 147C190 296 279 426 374 426C403 426 415 412 415 393C415 323 229 270 229 93C229 40 258 -10 313 -10L327 18C313 20 296 27 296 46C296 109 506 160 506 356C506 414 472 470 382 470C308 470 246 423 200 354C209 420 185.549 451.6471 152 469L135 460C142 452 147 442 147 430C147 369 -10 343 -10 173C-10 127 9 61 38 0H63Z" glyph-name="nacute" horiz-adv-x="551" unicode="&#324;" /><glyph d="M329 738C352 695 374 612 382 549H414L680 728L664 761L469 655C457 694 411 745 373 764ZM126 147C190 296 279 426 374 426C403 426 415 412 415 393C415 323 229 270 229 93C229 40 258 -10 313 -10L327 18C313 20 296 27 296 46C296 109 506 160 506 356C506 414 472 470 382 470C308 470 246 423 200 354C209 420 185.549 451.6471 152 469L135 460C142 452 147 442 147 430C147 369 -10 343 -10 173C-10 127 9 61 38 0H63Z" glyph-name="ncaron" horiz-adv-x="551" unicode="&#328;" /><glyph d="M46 -227 77 -240C138 -197 192 -131 204 -55H113C104 -120 74 -176 46 -227ZM126 147C190 296 279 426 374 426C403 426 415 412 415 393C415 323 229 270 229 93C229 40 258 -10 313 -10L327 18C313 20 296 27 296 46C296 109 506 160 506 356C506 414 472 470 382 470C308 470 246 423 200 354C209 420 185.549 451.6471 152 469L135 460C142 452 147 442 147 430C147 369 -10 343 -10 173C-10 127 9 61 38 0H63Z" glyph-name="ncommaaccent" horiz-adv-x="551" unicode="&#326;" /><glyph d="M368 679C155 679 77 527 77 427C77 339 130 257 278 257C352 257 412 299 433 330L378 312C307 105 261 42 172 42C94 42 38 97 74 219H29C6 193 0 159 0 130C0 55 59 -10 176 -10C423 -10 588 220 588 460C588 583 519 679 368 679ZM474 560C474 516 445 488 420 424C395 361 390 304 305 304C254 304 224 326 224 366C224 393 235 420 254 464C281 527 284 630 381 630C442 630 474 604 474 560Z" glyph-name="nine" horiz-adv-x="630" unicode="9" /><glyph d="M283 535C102 535 34 422 34 338C34 267 75 199 206 199C278 199 326 234 344 258L294 249C240 83 203 35 131 35C65 35 16 76 48 175H8C-8 156 -15 130 -15 106C-15 47 29 -10 136 -10C337 -10 476 171 476 358C476 454 416 535 283 535ZM364 434C364 400 348 386 327 336C305 287 304 240 235 240C192 240 169 260 169 291C169 312 178 332 192 367C219 433 218 495 293 495C344 495 364 469 364 434Z" glyph-name="nine.small" horiz-adv-x="531" /><glyph d="M298 535C117 535 49 422 49 338C49 267 90 199 221 199C293 199 341 234 359 258L309 249C255 83 218 35 146 35C80 35 31 76 63 175H23C7 156 0 130 0 106C0 47 44 -10 151 -10C352 -10 491 171 491 358C491 454 431 535 298 535ZM379 434C379 400 363 386 342 336C320 287 319 240 250 240C207 240 184 260 184 291C184 312 193 332 207 367C234 433 233 495 308 495C359 495 379 469 379 434Z" glyph-name="nine.small_tab" horiz-adv-x="560" /><glyph d="M368 679C155 679 77 527 77 427C77 339 130 257 278 257C352 257 412 299 433 330L378 312C307 105 261 42 172 42C94 42 38 97 74 219H29C6 193 0 159 0 130C0 55 59 -10 176 -10C423 -10 588 220 588 460C588 583 519 679 368 679ZM474 560C474 516 445 488 420 424C395 361 390 304 305 304C254 304 224 326 224 366C224 393 235 420 254 464C281 527 284 630 381 630C442 630 474 604 474 560Z" glyph-name="nine.tab" horiz-adv-x="650" /><glyph d="M178 310C45 310 -7 222 -7 155C-7 100 26 51 116 51C161 51 198 76 209 94L178 80C136 -42 107 -75 55 -75C15.9234 -75 -15.5495 -54.9536 -11.8318 -2.7916C-11.078 7.785 -8.8774 19.682 -5 33H-34C-47 17 -53 -6 -53 -25C-53 -71 -18 -110 54 -110C203 -110 316 30 316 174C316 250 274 310 178 310ZM234 236C234 209 217 192 202 154C187 115 185 82 132 82C101 82 85 94 85 118C85 135 92 151 103 176C119 213 118 277 180 277C218 277 234 261 234 236Z" glyph-name="nineinferior" horiz-adv-x="418" unicode="&#8329;" /><glyph d="M328 818C195 818 143 730 143 663C143 608 176 559 266 559C311 559 348 584 359 602L328 588C286 466 257 433 205 433C165.9234 433 134.4505 453.0464 138.1682 505.2084C138.922 515.785 141.1226 527.682 145 541H116C103 525 97 502 97 483C97 437 132 398 204 398C353 398 466 538 466 682C466 758 424 818 328 818ZM384 744C384 717 367 700 352 662C337 623 335 590 282 590C251 590 235 602 235 626C235 643 242 659 253 684C269 721 268 785 330 785C368 785 384 769 384 744Z" glyph-name="ninesuperior" horiz-adv-x="418" unicode="&#8313;" /><glyph d="M405 576 110 49H197L491 576ZM520 228H80V153H520ZM520 465H80V390H520Z" glyph-name="notequal" horiz-adv-x="650" unicode="&#8800;" /><glyph d="M126 147C190 296 279 426 374 426C403 426 415 412 415 393C415 323 229 270 229 93C229 40 258 -10 313 -10L327 18C313 20 296 27 296 46C296 109 506 160 506 356C506 414 472 470 382 470C308 470 246 423 200 354C209 420 185.549 451.6471 152 469L135 460C142 452 147 442 147 430C147 369 -10 343 -10 173C-10 127 9 61 38 0H63ZM241 596H273C284 637 294 657 329 657C383 657 400 592 480 592C551 592 605 632 618 733H585C575 691 565 671 531 671C478 671 460 737 377 737C304 737 257 700 241 596Z" glyph-name="ntilde" horiz-adv-x="551" unicode="&#241;" /><glyph d="M129 0H61L289 665H357ZM643 498V438H83V498ZM379 0H311L540 665H608ZM595 260V200H35V260Z" glyph-name="numbersign" horiz-adv-x="663" unicode="#" /><glyph d="M740.937 282V212H1054.7868V282ZM950 387C873 387 825 430 825 491C825 597 908 690 1026 690C1103 690 1151 647 1151 586C1151 488 1074 387 950 387ZM1035 525C1059 568 1072 581 1072 609C1072 629 1058 648 1024 648C969 648 973 607 941 552C917 509 904 496 904 468C904 448 918 429 952 429C1000 429 1003 468 1035 525ZM424 0C554 253 740 368 740 551C740 603 729 644 705 690H687L464 138C461 227 446 487 383 690H317C241 469 10 361 10 128C10 76 21 37 39 0H57L276 529C291 295 335 116 351 0Z" glyph-name="numero" horiz-adv-x="1131" unicode="&#8470;" /><glyph d="M-15 147C-15 61 41 -10 152 -10C333 -10 473 152 473 308C473 405 413 470 304 470C131 470 -15 316 -15 147ZM285 224C236 127 237 26 147 26C103 26 79 50 79 78C79 132 126 142 173 236C222 333 219 434 311 434C353 434 379 412 379 379C379 320 332 318 285 224Z" glyph-name="o" horiz-adv-x="538" unicode="o" /><glyph d="M78 497C78 439 119 396 190 396C314 396 401 497 401 600C401 664 360 704 288 704C171 704 78 608 78 497ZM274 549C243 487 246 419 187 419C159 419 143 433 143 452C143 489 175 494 205 553C238 617 232 682 292 682C320 682 336 667 336 646C336 608 303 608 274 549Z" glyph-name="o.superior" horiz-adv-x="370" /><glyph d="M294 574 312 551C461 644 532 635 532 700C532 727 511 748 482 748C424 748 434 698 294 574ZM-15 147C-15 61 41 -10 152 -10C333 -10 473 152 473 308C473 405 413 470 304 470C131 470 -15 316 -15 147ZM285 224C236 127 237 26 147 26C103 26 79 50 79 78C79 132 126 142 173 236C222 333 219 434 311 434C353 434 379 412 379 379C379 320 332 318 285 224Z" glyph-name="oacute" horiz-adv-x="538" unicode="&#243;" /><glyph d="M-15 147C-15 61 41 -10 152 -10C333 -10 473 152 473 308C473 405 413 470 304 470C131 470 -15 316 -15 147ZM285 224C236 127 237 26 147 26C103 26 79 50 79 78C79 132 126 142 173 236C222 333 219 434 311 434C353 434 379 412 379 379C379 320 332 318 285 224ZM361 567C484 567 587 658 621 753H582C542 702 480 656 414 656C338 656 341 706 347 753H318C286 711 271 683 271 645C271 605 294 567 361 567Z" glyph-name="obreve" horiz-adv-x="538" unicode="&#335;" /><glyph d="M205 585 221 552 416 653C442 613 478 574 515 554L546 575C533 620 513 701 503 764H471ZM-15 147C-15 61 41 -10 152 -10C333 -10 473 152 473 308C473 405 413 470 304 470C131 470 -15 316 -15 147ZM285 224C236 127 237 26 147 26C103 26 79 50 79 78C79 132 126 142 173 236C222 333 219 434 311 434C353 434 379 412 379 379C379 320 332 318 285 224Z" glyph-name="ocircumflex" horiz-adv-x="538" unicode="&#244;" /><glyph d="M224 653C224 627 240 607 271 607C311 607 348 635 348 679C348 707 331 727 299 727C262 727 224 700 224 653ZM408 653C408 627 424 607 455 607C495 607 532 635 532 679C532 707 515 727 483 727C446 727 408 700 408 653ZM-15 147C-15 61 41 -10 152 -10C333 -10 473 152 473 308C473 405 413 470 304 470C131 470 -15 316 -15 147ZM285 224C236 127 237 26 147 26C103 26 79 50 79 78C79 132 126 142 173 236C222 333 219 434 311 434C353 434 379 412 379 379C379 320 332 318 285 224Z" glyph-name="odieresis" horiz-adv-x="538" unicode="&#246;" /><glyph d="M-15 147C-15 61 41 -10 152 -10C333 -10 453 152 453 308C453 405 413 470 304 470C131 470 -15 316 -15 147ZM285 224C236 127 237 26 147 26C103 26 79 50 79 78C79 132 126 142 173 236C222 333 219 434 311 434C353 434 379 412 379 379C379 320 332 318 285 224ZM646 150H610C605 72 561 32 473 32C425 32 393 52 393 85C393 132 420 125 472 212C540 213 609 217 665 241C724 266 767 309 767 366C767 434 719 470 631 470C497 470 315 334 315 152C315 45 359 -10 477 -10C581 -10 654 44 646 150ZM607 441C647 441 646 395 624 335C617 316 599 284 576 265C555 248 529 241 489 240C557 375 541 441 607 441Z" glyph-name="oe" horiz-adv-x="797" unicode="&#339;" /><glyph d="M121 -143C121 -186 146 -218 197 -218C265 -218 297 -175 310 -116H285C277 -136 261 -151 239 -151C222 -151 215 -140 215 -119C215 -77 249 -10 351 63L330 66C227 -2 121 -53 121 -143Z" glyph-name="ogonek" horiz-adv-x="500" unicode="&#731;" /><glyph d="M-15 147C-15 61 41 -10 152 -10C333 -10 473 152 473 308C473 405 413 470 304 470C131 470 -15 316 -15 147ZM285 224C236 127 237 26 147 26C103 26 79 50 79 78C79 132 126 142 173 236C222 333 219 434 311 434C353 434 379 412 379 379C379 320 332 318 285 224ZM247 702C247 645 304 646 395 551L419 574C344 686 364 755 305 755C273 755 247 729 247 702Z" glyph-name="ograve" horiz-adv-x="538" unicode="&#242;" /><glyph d="M245 576 276 547 484 717 396 775ZM430 576 461 547 672 707 589 770ZM-15 147C-15 61 41 -10 152 -10C333 -10 473 152 473 308C473 405 413 470 304 470C131 470 -15 316 -15 147ZM285 224C236 127 237 26 147 26C103 26 79 50 79 78C79 132 126 142 173 236C222 333 219 434 311 434C353 434 379 412 379 379C379 320 332 318 285 224Z" glyph-name="ohungarumlaut" horiz-adv-x="538" unicode="&#337;" /><glyph d="M237 710 201 637H507L543 710ZM-15 147C-15 61 41 -10 152 -10C333 -10 473 152 473 308C473 405 413 470 304 470C131 470 -15 316 -15 147ZM285 224C236 127 237 26 147 26C103 26 79 50 79 78C79 132 126 142 173 236C222 333 219 434 311 434C353 434 379 412 379 379C379 320 332 318 285 224Z" glyph-name="omacron" horiz-adv-x="538" unicode="&#333;" /><glyph d="M152 0 303 331C360 456 399 586 410 680H373L70 540L84 498C204 517 269 570 348 612C281 475 76 363 76 164C76 115 88 61 118 0Z" glyph-name="one" horiz-adv-x="400" unicode="1" /><glyph d="M136 0 252 258C296 356 333 457 343 530H297L40 421L56 380C155 395 212 437 277 470C218 367 62 282 62 132C62 93 73 49 99 0Z" glyph-name="one.small" horiz-adv-x="353" /><glyph d="M25 0H363L381 55H43ZM360 470C302 368 146 281 146 137C146 96 159 51 190 0H218L334 258C378 356 415 457 425 530H379L110 421L126 380C226 395 292 437 360 470Z" glyph-name="one.small_tab" horiz-adv-x="560" /><glyph d="M60 0H466L486 54H80ZM288 0 439 331C496 456 535 586 546 680H509L206 540L220 498C340 517 405 570 484 612C417 475 217 363 217 164C217 115 229 61 259 0Z" glyph-name="one.tab" horiz-adv-x="650" /><glyph d="M124 355 195 511C222 570 240 631 245 675H215L71 608L78 584C134 591 161 607 192 627C161 572 73 526 73 432C73 409 82 384 101 355ZM592 -4C658 -4 672 68 672 93H652C645 73 636 62 590 66L472 77C538 137 724 102 724 234C724 282 679 320 612 320C524 320 484 270 496 211H533C533 267 560 286 593 286C617 286 630 271 630 250C630 146 415 159 415 35V0H445L449 30C483 21 536 -4 592 -4ZM537 682 574 660C456 420 318 218 134 -10L99 14C237 306 378 490 537 682Z" glyph-name="onehalf" horiz-adv-x="771" unicode="&#189;" /><glyph d="M35 -105 127 97C162 173 185 246 192 309H166L-37 222L-28 195C65 216 99 240 151 267C99 168 -15 124 -15 -5C-15 -34 -6 -62 17 -105Z" glyph-name="oneinferior" horiz-adv-x="262" unicode="&#8321;" /><glyph d="M124 355 195 511C222 570 240 631 245 675H215L71 608L78 584C134 591 161 607 192 627C161 572 73 526 73 432C73 409 82 384 101 355ZM530 118H448L638 261C597 199 551 163 530 118ZM656 64 675 118H628L672 216C686 246 701 294 701 320H660L374 108V64H518C518 47 530 24 541 0H574L603 64ZM537 682 574 660C456 420 318 218 134 -10L99 14C237 306 378 490 537 682Z" glyph-name="onequarter" horiz-adv-x="746" unicode="&#188;" /><glyph d="M165 403 257 605C292 681 315 754 322 817H296L93 730L102 703C195 724 229 748 281 775C229 676 115 632 115 503C115 474 124 446 147 403Z" glyph-name="onesuperior" horiz-adv-x="262" unicode="&#185;" /><glyph d="M308 398C357 398 380 420 377 458H349C345 439 338 429 323 429C310 429 303 436 303 451C303 496 409 534 409 615C409 663 369 697 296 697C221 697 166 665 170 606H205C211 646 243 666 278 666C309 666 322 650 322 632C322 610 309 595 282 584C263 575 241 570 221 567C147 556 60 539 60 463C60 421 86 398 140 398C183 398 213 416 227 443C233 413 261 398 308 398ZM179 438C162 438 158 460 171 491C183 519.5 197.75 530.75 214.5 537C231.25 543.25 250 544.5 270 553C248 534 243 521 232 500C216 469 205 438 179 438Z" glyph-name="ordfeminine" horiz-adv-x="359" unicode="&#170;" /><glyph d="M75 500C75 436 116 397 192 397C317 397 416 495 416 593C416 661 372 698 297 698C178 698 75 613 75 500ZM278 544C244 483 247 425 191 425C161 425 149 441 149 458C149 492 180 492 212 552C246 613 242 672 300 672C329 672 340 658 340 637C340 600 310 603 278 544Z" glyph-name="ordmasculine" horiz-adv-x="366" unicode="&#186;" /><glyph d="M400 470 8 -10H54L444 470ZM-15 147C-15 61 41 -10 152 -10C333 -10 473 152 473 308C473 405 413 470 304 470C131 470 -15 316 -15 147ZM285 224C236 127 237 26 147 26C103 26 79 50 79 78C79 132 126 142 173 236C222 333 219 434 311 434C353 434 379 412 379 379C379 320 332 318 285 224Z" glyph-name="oslash" horiz-adv-x="538" unicode="&#248;" /><glyph d="M400 470 8 -10H54L444 470ZM-15 147C-15 61 41 -10 152 -10C333 -10 473 152 473 308C473 405 413 470 304 470C131 470 -15 316 -15 147ZM285 224C236 127 237 26 147 26C103 26 79 50 79 78C79 132 126 142 173 236C222 333 219 434 311 434C353 434 379 412 379 379C379 320 332 318 285 224ZM298 574 316 551C465 644 536 635 536 700C536 727 515 748 486 748C428 748 438 698 298 574Z" glyph-name="oslashacute" horiz-adv-x="538" unicode="&#511;" /><glyph d="M-15 147C-15 61 41 -10 152 -10C333 -10 473 152 473 308C473 405 413 470 304 470C131 470 -15 316 -15 147ZM285 224C236 127 237 26 147 26C103 26 79 50 79 78C79 132 126 142 173 236C222 333 219 434 311 434C353 434 379 412 379 379C379 320 332 318 285 224ZM214 596H246C257 637 267 657 302 657C356 657 373 592 453 592C524 592 578 632 591 733H558C548 691 538 671 504 671C451 671 433 737 350 737C277 737 230 700 214 596Z" glyph-name="otilde" horiz-adv-x="538" unicode="&#245;" /><glyph d="M234 -10C395 -10 535 170 535 325C535 405 496 470 402 470C338 470 277 430 229 371C225 412 200 455 156 469L139 460C150 447 159 432 159 411C159 272 -75 207 -75 -74C-75 -117 -59 -181 -32 -241H-7L128 70C136 27 166 -10 234 -10ZM340 224C295 126 305 35 223 35C167 35 153 91 182 171C244 343 313 429 398 429C426 429 443 412 443 386C443 327 384 318 340 224Z" glyph-name="p" horiz-adv-x="600" unicode="p" /><glyph d="M232 396C341 396 427 508 427 611C427 662 403 704 343 704C299 704 261 678 231 641C229 669 215 695 185 704L173 698C181 689 185 680 185 666C185 574 34 534 34 354C34 327 44 287 64 246H78L164 446C169 416 187 396 232 396ZM300 544C271 481 278 424 225 424C188 424 182 459 200 509C240 620 283 679 338 679C357 679 366 668 366 650C366 614 328 604 300 544Z" glyph-name="p.superior" horiz-adv-x="396" /><glyph d="M140 -113 432 690H371C219 690 70 596 70 425C70 346 127 297 223 297L80 -113ZM352 635H684L700 690H374ZM288 -113C369 139 628 209 628 570C628 607 626 647 620 690H512L350 242C308 126 248 -21 234 -113Z" glyph-name="paragraph" horiz-adv-x="660" unicode="&#182;" /><glyph d="M181 53C181 427 327 566 499 697L471 736C312 638 40 428 40 148C40 -22 148 -135 195 -192L232 -167C204 -119 181 -72 181 53Z" glyph-name="parenleft" horiz-adv-x="375" unicode="(" /><glyph d="M181 103C181 477 327 616 499 747L471 786C312 688 40 478 40 198C40 28 148 -85 195 -142L232 -117C204 -69 181 -22 181 103Z" glyph-name="parenleft.cap" horiz-adv-x="375" /><glyph d="M141 78C141 370 210 469 374 615L347 650C218 558 20 391 20 156C20 14 108 -83 143 -131L184 -107C159 -57 141 -10 141 78Z" glyph-name="parenleft.small" horiz-adv-x="318" /><glyph d="M154 487C154 113 8 -26 -164 -157L-136 -196C23 -98 295 112 295 392C295 562 187 675 140 732L103 707C131 659 154 612 154 487Z" glyph-name="parenright" horiz-adv-x="375" unicode=")" /><glyph d="M154 537C154 163 8 24 -164 -107L-136 -146C23 -48 295 162 295 442C295 612 187 725 140 782L103 757C131 709 154 662 154 537Z" glyph-name="parenright.cap" horiz-adv-x="375" /><glyph d="M117 434C117 142 48 43 -116 -103L-89 -138C40 -46 238 121 238 356C238 498 150 595 115 643L74 619C99 569 117 522 117 434Z" glyph-name="parenright.small" horiz-adv-x="318" /><glyph d="M260 699C186 699 140 679 111 659L135 606C159 618 190 627 225 628C299 628 371 558 371 370C371 143 335 55 262 55C200 55 182 122 182 222C182 328 202 404 275 404C358 404 363 284 365 232L399 295C394 355 380 476 244 476C101 476 32 360 32 222C32 85 105 -10 263 -10C442 -10 524 143 524 350C524 580 407 699 260 699Z" glyph-name="partialdiff" horiz-adv-x="556" unicode="&#8706;" /><glyph d="M212 694C106 694 50 609 50 531C50 486 77 435 155 435C261 435 318 528 318 596C318 643 289 694 212 694ZM216 651C233 651 244 641 244 623C244 598 230 585 213 554C188 508 183 480 153 480C137 480 125 491 125 509C125 534 140 553 155 577C183 625 185 651 216 651ZM527 249C421 249 365 164 365 86C365 41 392 -10 470 -10C576 -10 633 83 633 151C633 198 604 249 527 249ZM531 206C548 206 559 196 559 178C559 153 545 140 528 109C503 63 498 35 468 35C452 35 440 46 440 64C440 89 455 108 470 132C498 180 500 206 531 206ZM532 682 569 660C451 420 313 218 129 -10L94 14C232 306 373 490 532 682Z" glyph-name="percent" horiz-adv-x="683" unicode="%" /><glyph d="M-35 65C-35 21 -5 -13 43 -13C89 -13 118 20 118 64C118 103 88 140 43 140C-6 140 -35 104 -35 65Z" glyph-name="period" horiz-adv-x="283" unicode="." /><glyph d="M35 345C35 301 65 267 113 267C159 267 188 300 188 344C188 383 158 420 113 420C64 420 35 384 35 345Z" glyph-name="periodcentered" horiz-adv-x="253" unicode="&#183;" /><glyph d="M50 370C50 326 80 292 128 292C174 292 203 325 203 369C203 408 173 445 128 445C79 445 50 409 50 370Z" glyph-name="periodcentered.cap" horiz-adv-x="253" /><glyph d="M155 435C77 435 50 486 50 531C50 609 106 694 212 694C289 694 318 643 318 596C318 528 261 435 155 435ZM153 480C183 480 188 508 213 554C230 585 244 598 244 623C244 641 233 651 216 651C185 651 183 625 155 577C140 553 125 534 125 509C125 491 137 480 153 480ZM470 -10C392 -10 365 41 365 86C365 164 421 249 527 249C604 249 633 198 633 151C633 83 576 -10 470 -10ZM468 35C498 35 503 63 528 109C545 140 559 153 559 178C559 196 548 206 531 206C500 206 498 180 470 132C455 108 440 89 440 64C440 46 452 35 468 35ZM800 -10C722 -10 695 41 695 86C695 164 751 249 857 249C934 249 963 198 963 151C963 83 906 -10 800 -10ZM798 35C828 35 833 63 858 109C875 140 889 153 889 178C889 196 878 206 861 206C830 206 828 180 800 132C785 108 770 89 770 64C770 46 782 35 798 35ZM532 682 569 660C451 420 313 218 129 -10L94 14C232 306 373 490 532 682Z" glyph-name="perthousand" horiz-adv-x="1013" unicode="&#8240;" /><glyph d="M367 153C367 31 421 -10 501 -10C585 -10 614 40 614 122H583C582 92 571 64 544 64C510 64 506 90 506 131V468H367ZM109 469V217C109 144 105 56 94 0H158C220 49 248 109 248 219V469ZM10 478V418H612V478Z" glyph-name="pi" horiz-adv-x="640" unicode="&#960;" /><glyph d="M340 89V529H260V89ZM520 349H80V269H520Z" glyph-name="plus" horiz-adv-x="650" unicode="+" /><glyph d="M520 357H80V277H520ZM340 66V544H260V66ZM520 80H80V0H520Z" glyph-name="plusminus" horiz-adv-x="650" unicode="&#177;" /><glyph d="M90 690V-130H230V632L220 620H467L462 632V-130H602V690Z" glyph-name="product" horiz-adv-x="692" unicode="&#8719;" /></font>
</defs>
</svg>
