<?xml version="1.0" standalone="no"?>
<!DOCTYPE svg PUBLIC "-//W3C//DTD SVG 1.1//EN" "http://www.w3.org/Graphics/SVG/1.1/DTD/svg11.dtd" >
<svg xmlns="http://www.w3.org/2000/svg">
<metadata></metadata>
<defs>
<font id="lunchtype24expanded_regular" horiz-adv-x="1310" >
<font-face units-per-em="2048" ascent="1536" descent="-512" />
<missing-glyph horiz-adv-x="737" />
<glyph horiz-adv-x="0" />
<glyph horiz-adv-x="682" />
<glyph unicode=" "  horiz-adv-x="737" />
<glyph unicode="&#x09;" horiz-adv-x="737" />
<glyph unicode="&#xa0;" horiz-adv-x="737" />
<glyph unicode="!" horiz-adv-x="661" d="M215 0v201h231v-201h-231zM217 1059v360h225v-360l-39 -625h-147z" />
<glyph unicode="&#x22;" horiz-adv-x="1009" d="M211 1212v230h211v-230l-33 -303h-147zM590 1212v230h209v-230l-33 -303h-148z" />
<glyph unicode="#" horiz-adv-x="1785" d="M186 410v155h291l58 281h-287v164h323l97 432h188l-92 -432h387l92 432h193l-93 -432h256v-164h-290l-60 -281h256v-155h-284l-84 -410h-195l86 410h-395l-88 -410h-193l88 410h-254zM670 565h389l61 281h-389z" />
<glyph unicode="$" horiz-adv-x="1417" d="M76 424h219q10 -125 102 -196.5t236 -90.5v535l-70 14q-203 39 -314.5 128t-111.5 253q0 84 37 149.5t103.5 112.5t156.5 75t199 36v112h184v-114q133 -10 228.5 -46t156 -90.5t89 -125t28.5 -150.5h-207q-10 111 -85 178.5t-210 83.5v-479l62 -10q106 -18 192 -51 t146.5 -82.5t92 -117t31.5 -159.5q0 -96 -40.5 -169t-111.5 -123t-167 -78.5t-205 -34.5v-121h-184v121q-246 14 -392.5 119.5t-164.5 320.5zM336 1073q0 -94 78 -146.5t219 -80.5v442q-135 -14 -216 -71.5t-81 -143.5zM817 139q57 8 113.5 26.5t101.5 49.5t73 72t28 94 q0 61 -25 103t-67 71t-99 47.5t-125 32.5v-496z" />
<glyph unicode="%" horiz-adv-x="2033" d="M123 1071q0 66 15.5 130.5t53 115.5t102 83t161.5 32q98 0 161.5 -33t101.5 -85t52 -119t14 -134q0 -401 -329 -402q-164 0 -248 100.5t-84 311.5zM262 1059q0 -41 5 -89t24.5 -91t57.5 -72t106 -29q63 0 101 29t58.5 72t25.5 92t5 88q0 41 -7 86t-27.5 82t-58.5 61.5 t-97 24.5q-63 0 -101.5 -24.5t-59 -62.5t-26.5 -83t-6 -84zM412 -23l1032 1528l149 -63l-1034 -1532zM1249 399q0 66 15.5 130.5t53.5 115.5t102.5 83t160.5 32q98 0 161.5 -33t100.5 -85t52.5 -118.5t15.5 -134.5q0 -401 -330 -401q-166 0 -249 100t-83 311zM1386 387 q0 -41 5.5 -89t25 -91t58 -72t106.5 -29q63 0 101 29t57.5 72t24.5 92t5 88q0 41 -7 86t-27.5 82t-57.5 61.5t-96 24.5q-63 0 -102 -24.5t-59.5 -62.5t-27 -83t-6.5 -84z" />
<glyph unicode="&#x26;" horiz-adv-x="1443" d="M156 414q0 74 22.5 130t64.5 99t99 76t127 61q-66 78 -96.5 141.5t-30.5 153.5q0 147 113.5 226t306.5 79q74 0 138.5 -17t113.5 -52t76.5 -87.5t27.5 -121.5q0 -68 -21.5 -117t-65.5 -89t-113.5 -77t-167.5 -84l348 -389q45 68 53 142.5t8 136.5h168q0 -94 -22.5 -196.5 t-90.5 -195.5q33 -27 57.5 -45t48 -29.5t48.5 -16.5t55 -5q10 0 66 6v-135q-47 -8 -86 -8q-55 0 -97 11.5t-76 28.5t-60.5 38.5t-51.5 44.5l-10 8q-88 -66 -179 -98.5t-212 -32.5q-115 0 -217.5 25.5t-179 77t-120.5 129t-44 182.5zM346 397q0 -66 32 -113.5t83 -80.5 t117.5 -48.5t138.5 -15.5q80 0 142.5 24.5t133.5 74.5l-420 434q-53 -23 -95 -47.5t-70.5 -56t-45 -74t-16.5 -97.5zM516 1079q0 -39 7 -68.5t23.5 -56t42 -53.5t60.5 -61q43 18 96.5 43.5t101.5 57.5t79.5 69t31.5 80q0 78 -57 114.5t-156 36.5q-41 0 -81.5 -9t-73.5 -29.5 t-53.5 -50.5t-20.5 -73z" />
<glyph unicode="'" horiz-adv-x="722" d="M256 1212v230h211v-230l-31 -303h-147z" />
<glyph unicode="(" horiz-adv-x="845" d="M209 590q0 139 33.5 268t95 247t148 225.5t190.5 203.5l108 -72q-82 -92 -150.5 -192.5t-118.5 -210t-77.5 -228t-27.5 -243.5t27.5 -243t77.5 -227.5t118.5 -210t150.5 -192.5l-108 -69q-104 96 -190.5 203.5t-148 225.5t-95 247t-33.5 268z" />
<glyph unicode=")" horiz-adv-x="845" d="M61 -285q82 92 152 192.5t120 210t77.5 227.5t27.5 243t-27.5 243.5t-77.5 228t-120 210t-152 192.5l109 72q104 -96 190 -203.5t147.5 -225.5t95.5 -247t34 -268t-34 -268t-95.5 -247t-147.5 -225.5t-190 -203.5z" />
<glyph unicode="*" horiz-adv-x="1110" d="M94 883l320 133l-320 137l90 127l295 -160l-16 299h184l-18 -299l295 160l92 -127l-322 -135l322 -135l-92 -127l-295 157l18 -297h-184l16 297l-297 -159z" />
<glyph unicode="+" horiz-adv-x="1245" d="M96 553v152h434v350h187v-350h432v-152h-432v-354h-187v354h-434z" />
<glyph unicode="," horiz-adv-x="681" d="M215 0v211h252v-211l-78 -217h-149l51 217h-76z" />
<glyph unicode="-" horiz-adv-x="976" d="M133 524v150h711v-150h-711z" />
<glyph unicode="." horiz-adv-x="681" d="M215 0v211h252v-211h-252z" />
<glyph unicode="/" horiz-adv-x="993" d="M0 -360l819 1914h174l-817 -1914h-176z" />
<glyph unicode="0" horiz-adv-x="1419" d="M92 745q0 123 29 243t99.5 215t189 154.5t301.5 59.5q182 0 302 -61.5t189.5 -159.5t97 -222t27.5 -249q0 -377 -155.5 -562.5t-460.5 -185.5t-462 188.5t-157 579.5zM311 725q2 -84 13.5 -184.5t51.5 -188.5t117.5 -147.5t217.5 -59.5q135 0 214 60.5t119.5 148.5 t52 188.5t11.5 182.5q0 84 -15.5 177t-58.5 170t-120.5 127t-202.5 50q-131 0 -210 -51t-121 -129t-55.5 -170t-13.5 -174z" />
<glyph unicode="1" horiz-adv-x="858" d="M-20 1026v115q78 0 147.5 16.5t122.5 47t85 75.5t32 100v19h206v-1399h-213v1026h-380z" />
<glyph unicode="2" horiz-adv-x="1325" d="M68 0v154q0 127 64.5 218t161.5 160.5t210.5 124t211 109.5t162 118.5t64.5 151.5q0 113 -83 168.5t-238 55.5q-162 0 -235 -61.5t-79 -172.5h-205q2 186 136.5 290.5t382.5 104.5q246 0 382 -100t136 -285q0 -125 -62.5 -209t-157 -145t-205 -111.5t-204.5 -105.5 t-156.5 -127t-62.5 -176h860v-162h-1083z" />
<glyph unicode="3" horiz-adv-x="1363" d="M59 377h207q2 -61 32 -105.5t79 -73t115.5 -42t144.5 -13.5q178 0 275.5 61.5t97.5 184.5q0 254 -396 254h-49v152h49q96 0 163 12t107 39.5t57 72t17 107.5q0 106 -74.5 165.5t-234.5 59.5q-158 0 -242.5 -59t-89.5 -170h-206q6 190 142 291.5t384 101.5 q254 0 392 -101.5t138 -287.5q0 -111 -57 -188.5t-147 -114.5q115 -39 184.5 -125t69.5 -209q0 -92 -41 -168t-116 -130t-182.5 -82.5t-240.5 -28.5t-238.5 27.5t-180.5 78.5t-116 125t-43 166z" />
<glyph unicode="4" horiz-adv-x="1398" d="M74 248v129l778 1016h225v-985h230v-160h-230v-248h-203v248h-800zM315 408h559v745z" />
<glyph unicode="5" horiz-adv-x="1314" d="M90 373h209q0 -61 25.5 -104.5t70.5 -71t107.5 -40t136.5 -12.5q340 0 340 322q0 166 -85 243.5t-241 77.5q-61 0 -108 -6t-84 -20t-64.5 -40t-52.5 -63h-205l45 734h924v-164h-735l-17 -365q121 84 320 84q250 0 384 -125t134 -358q0 -111 -38 -200t-110.5 -152.5 t-175 -98t-231.5 -34.5q-119 0 -219.5 25.5t-173 75.5t-114.5 124t-42 168z" />
<glyph unicode="6" horiz-adv-x="1363" d="M111 616q0 227 50 384t135 255.5t196.5 142.5t232.5 44q115 0 208 -25.5t158.5 -69.5t101.5 -105.5t36 -135.5h-207q-8 90 -85 138t-208 48q-84 0 -157.5 -32.5t-129 -101t-88 -173t-32.5 -248.5q18 33 62 70t104.5 67.5t131 51t144.5 20.5q119 0 215 -33.5t163.5 -96 t103.5 -152t36 -201.5q0 -115 -45 -205t-123 -151.5t-182.5 -94t-224.5 -32.5q-135 0 -245 41.5t-188.5 123.5t-120.5 200t-42 271zM356 461q0 -66 29 -124t77 -102.5t111.5 -70t133.5 -25.5q88 0 156.5 25.5t114.5 70t69.5 102.5t23.5 124q0 57 -15.5 115.5t-55 105.5 t-108.5 75.5t-175 28.5q-82 0 -148.5 -26.5t-113.5 -70.5t-73 -103t-26 -125z" />
<glyph unicode="7" horiz-adv-x="1232" d="M35 1229v164h1122v-164q-84 -74 -162 -156q-66 -70 -136.5 -159t-115.5 -181q-74 -152 -115.5 -284t-64.5 -232q-25 -117 -35 -217h-225q6 94 29 207q20 98 63 228t121 282q66 127 140.5 222t138.5 161q74 76 145 129h-905z" />
<glyph unicode="8" horiz-adv-x="1359" d="M96 403q0 55 18.5 108.5t52.5 99.5t82 82t107 57q-104 51 -156.5 129.5t-52.5 173.5q0 94 45.5 166.5t121 122t172 75t198.5 25.5q109 0 205 -28t167.5 -78t113.5 -122.5t42 -160.5q0 -100 -54 -177t-152 -126q125 -47 191.5 -143.5t66.5 -203.5q0 -109 -46.5 -188.5 t-126 -131.5t-185 -77.5t-222.5 -25.5q-127 0 -234.5 26.5t-186.5 79.5t-123 132t-44 185zM309 408q0 -74 30 -124.5t80 -82t118.5 -46t146.5 -14.5q82 0 149.5 15.5t115.5 48.5t75 83t27 120q0 123 -99.5 193.5t-267.5 70.5q-174 0 -274.5 -70.5t-100.5 -193.5zM356 1053 q0 -123 87 -177.5t241 -54.5q150 0 236 54.5t86 177.5q0 111 -89.5 171t-232.5 60q-147 0 -237.5 -60.5t-90.5 -170.5z" />
<glyph unicode="9" horiz-adv-x="1316" d="M82 965q0 100 40 187t111.5 151.5t171 101.5t220.5 37q166 0 277.5 -50.5t179 -137.5t96 -207.5t28.5 -262.5q0 -180 -26.5 -328.5t-90 -254t-170 -163.5t-268.5 -58q-158 0 -256 34.5t-155.5 89t-81 118t-29.5 120.5h201q4 -39 22.5 -78t53 -70.5t91 -51t138.5 -19.5 q186 0 290.5 135t104.5 418q-18 -35 -56 -69t-93.5 -61.5t-126 -45t-152.5 -17.5q-137 0 -235.5 39t-162 104.5t-93 153.5t-29.5 185zM281 981q0 -59 17 -119.5t58 -111t107.5 -82t165.5 -31.5q172 0 269 90t97 254q0 66 -27.5 121t-76.5 95t-116.5 62.5t-145.5 22.5 q-80 0 -143.5 -25.5t-109.5 -67.5t-70.5 -96.5t-24.5 -111.5z" />
<glyph unicode=":" horiz-adv-x="681" d="M215 0v211h252v-211h-252zM215 717v211h252v-211h-252z" />
<glyph unicode=";" horiz-adv-x="681" d="M215 0v211h252v-211l-78 -217h-149l51 217h-76zM215 717v211h252v-211h-252z" />
<glyph unicode="&#x3c;" horiz-adv-x="1193" d="M96 545v168l1002 348v-154l-824 -278l824 -281v-153z" />
<glyph unicode="=" d="M96 295v158h1118v-158h-1118zM96 723v158h1118v-158h-1118z" />
<glyph unicode="&#x3e;" horiz-adv-x="1193" d="M96 195v153l824 281l-824 278v154l1002 -348v-168z" />
<glyph unicode="?" horiz-adv-x="1280" d="M119 1038v23q0 100 38 173t103.5 119t156.5 67.5t195 21.5q109 0 200 -25.5t156.5 -74t101.5 -117t36 -156.5q0 -100 -57.5 -187t-167.5 -169q-45 -33 -75 -58.5t-47.5 -52.5t-24.5 -55.5t-7 -65.5v-47h-201v49q0 125 33 183q27 55 83 96t113.5 83t100.5 94t43 130 q0 111 -75.5 172.5t-211.5 61.5q-150 0 -215 -69t-69 -196h-209zM504 0v211h254v-211h-254z" />
<glyph unicode="@" horiz-adv-x="1953" d="M72 627q0 170 73.5 315t200.5 250.5t296 166t359 60.5q221 0 386 -62.5t275 -167t165 -241.5t55 -286q0 -205 -99.5 -323t-291.5 -122q-63 0 -133 31t-107 100q-16 -29 -51 -54.5t-82 -47t-100 -33.5t-103 -12q-68 0 -134 12t-118.5 41t-85 75t-32.5 113q0 61 33.5 108.5 t86 79.5t118 49t128.5 19l301 9v61q0 39 -17 69.5t-48 52t-71 33t-85 11.5q-96 0 -151.5 -32t-75.5 -103h-176q12 76 48 125t89 77.5t120.5 40t145.5 11.5q100 0 173 -23.5t119 -66.5t67.5 -101.5t21.5 -128.5q0 -6 -1 -14t-2 -32.5t-4 -73t-9 -134.5q0 -27 12 -52.5 t32.5 -45t46.5 -31.5t54 -12q117 0 176.5 77t59.5 247q0 139 -54.5 255.5t-151.5 201.5t-232.5 133t-297.5 48q-170 0 -313 -54t-246.5 -146t-161 -214t-57.5 -259q0 -158 62.5 -279t169 -203t248 -125t298.5 -43q197 0 369 86l72 -106q-219 -100 -445 -100 q-207 0 -376.5 57t-291.5 158.5t-189.5 243t-67.5 311.5zM721 442q0 -59 50 -93t153 -34q133 0 210.5 62t77.5 162v49l-292 -15q-106 -4 -152.5 -31.5t-46.5 -99.5z" />
<glyph unicode="A" horiz-adv-x="1525" d="M0 0l664 1419h192l670 -1419h-217l-170 373h-764l-166 -373h-209zM444 518h629l-315 699z" />
<glyph unicode="B" horiz-adv-x="1501" d="M158 0v1419h573q303 0 455.5 -92t152.5 -301q0 -111 -55 -189.5t-139 -117.5q104 -43 174 -120t74 -204q0 -207 -145.5 -301t-438.5 -94h-651zM360 154h480q168 0 256 55t88 186q0 117 -94 179.5t-250 62.5h-480v-483zM360 791h431q174 0 258 53t84 182q0 119 -90 178.5 t-252 59.5h-431v-473z" />
<glyph unicode="C" horiz-adv-x="1503" d="M88 713q0 141 31 272t107.5 232.5t208.5 163t337 61.5q156 0 271.5 -34t194.5 -95.5t120 -144.5t51 -181h-211q-8 57 -36.5 109.5t-79 92.5t-123 63.5t-168.5 23.5h-33q-139 0 -229.5 -46t-143.5 -125t-73.5 -180.5t-20.5 -211.5q0 -104 18.5 -207t70.5 -183.5t142 -130 t236 -49.5h30q104 0 182.5 28t128.5 73t75.5 100t25.5 111h215q-10 -106 -52 -193.5t-120 -150t-194.5 -97t-276.5 -34.5q-197 0 -328 60t-209.5 161.5t-112.5 233.5t-34 278z" />
<glyph unicode="D" horiz-adv-x="1513" d="M158 0v1419h520q377 0 555 -179t178 -531q0 -158 -36 -288t-118.5 -224.5t-221 -145.5t-343.5 -51h-534zM360 154h332q152 0 251 37.5t157.5 110.5t82 175.5t23.5 231.5q0 283 -127 420t-401 137h-318v-1112z" />
<glyph unicode="E" horiz-adv-x="1335" d="M158 0v1419h1063v-155h-861v-478h811v-151h-811v-479h883v-156h-1085z" />
<glyph unicode="F" horiz-adv-x="1245" d="M158 0v1419h1026v-153h-822v-488h787v-149h-787v-629h-204z" />
<glyph unicode="G" horiz-adv-x="1566" d="M104 713q0 141 31 272t107.5 232.5t209 163t336.5 61.5q156 0 272 -34t194.5 -95.5t121.5 -144.5t49 -181h-206q-8 61 -38 113.5t-82 91.5t-125 61.5t-167 22.5h-33q-139 0 -229 -46t-143.5 -125t-74 -180.5t-20.5 -211.5q0 -104 16.5 -207t65.5 -183.5t138 -130 t235 -49.5h31q127 0 217 35t146 93.5t82 137t26 164.5h-508v164h688v-737h-164v233q-59 -125 -184 -189t-320 -64q-197 0 -325.5 60t-205.5 161.5t-109 233.5t-32 278z" />
<glyph unicode="H" horiz-adv-x="1544" d="M158 0v1419h202v-612h824v612h202v-1419h-202v657h-824v-657h-202z" />
<glyph unicode="I" horiz-adv-x="557" d="M176 0v1419h205v-1419h-205z" />
<glyph unicode="J" horiz-adv-x="1148" d="M47 344h207q8 -49 24.5 -88t47 -64.5t78 -40t114.5 -14.5q90 0 145.5 22.5t86 69.5t41 123t10.5 180v887h200v-907q0 -102 -11 -198.5t-59 -170t-144.5 -118.5t-268.5 -45q-123 0 -209 30.5t-141 80.5t-84 115.5t-37 137.5z" />
<glyph unicode="K" horiz-adv-x="1517" d="M166 0v1419h203v-751l856 751h262l-668 -598l690 -821h-247l-576 700l-317 -266v-434h-203z" />
<glyph unicode="L" horiz-adv-x="1183" d="M166 0v1419h201v-1263h776v-156h-977z" />
<glyph unicode="M" horiz-adv-x="1923" d="M158 0v1419h268l535 -1171l536 1171h268v-1419h-198v1176l-535 -1176h-141l-535 1176v-1176h-198z" />
<glyph unicode="N" horiz-adv-x="1640" d="M166 0v1419h256l850 -1169v1169h203v-1419h-256l-850 1169v-1169h-203z" />
<glyph unicode="O" horiz-adv-x="1552" d="M88 713q0 141 31 272t107.5 232.5t208.5 163t337 61.5q207 0 341 -61.5t212 -163t108.5 -232.5t30.5 -272q0 -145 -33.5 -277.5t-113.5 -234t-213 -161.5t-332 -60q-197 0 -328 60t-209.5 161.5t-112.5 233.5t-34 278zM291 713q0 -104 18.5 -207t70.5 -183.5t142 -130 t236 -49.5h30q145 0 237.5 49.5t145 130t71 183t18.5 207.5q0 111 -20.5 212t-74 180t-143.5 125t-231 46h-33q-139 0 -229.5 -46t-143.5 -125t-73.5 -180.5t-20.5 -211.5z" />
<glyph unicode="P" horiz-adv-x="1415" d="M166 0v1419h569q133 0 246 -23.5t193.5 -74.5t126 -130t45.5 -190q0 -117 -44.5 -196.5t-122 -128.5t-186 -69.5t-237.5 -20.5h-391v-586h-199zM365 737h434q182 0 261 61.5t83 202.5q-4 135 -95.5 199t-248.5 64h-434v-527z" />
<glyph unicode="Q" horiz-adv-x="1552" d="M88 713q0 141 31 272t107.5 232.5t208.5 163t337 61.5q207 0 341 -61.5t212 -163t108.5 -232.5t30.5 -272q0 -168 -46 -318.5t-158 -255.5l126 -139l-141 -90l-125 137q-72 -33 -156.5 -50t-191.5 -17q-197 0 -328 60t-209.5 161.5t-112.5 233.5t-34 278zM291 713 q0 -104 18.5 -207t70.5 -183.5t142 -130t236 -49.5h30q123 0 209 37l-188 207l143 92l183 -203q74 84 100.5 199t26.5 238q0 111 -20.5 212t-74 180t-144.5 125t-232 46h-33q-139 0 -229.5 -46t-143.5 -125t-73.5 -180.5t-20.5 -211.5z" />
<glyph unicode="R" horiz-adv-x="1468" d="M166 0v1419h565q129 0 240.5 -24.5t193.5 -75.5t128 -128t46 -183q0 -166 -96 -263.5t-295 -119.5l473 -625h-235l-459 598h-358v-598h-203zM369 750h417q174 0 259 60t85 198q0 63 -26.5 112t-72.5 81t-108.5 48.5t-136.5 16.5h-417v-516z" />
<glyph unicode="S" horiz-adv-x="1396" d="M66 424h219q6 -72 41.5 -126t93 -91t135.5 -55.5t170 -18.5q63 0 134 15.5t129.5 46t96 76.5t37.5 110q0 66 -27.5 110t-74.5 72.5t-111.5 47t-138.5 32.5l-217 43q-203 39 -314.5 128t-111.5 253q0 92 44 161.5t121 117t182.5 72t225.5 24.5q162 0 278 -32t189.5 -88 t108.5 -132t35 -164h-207q-10 129 -110.5 198.5t-280.5 69.5q-174 0 -279.5 -60t-105.5 -161q0 -98 85 -151.5t240 -81.5l217 -41q106 -18 191.5 -51t146 -82.5t92 -117t31.5 -159.5q0 -104 -49 -182t-132 -128t-192.5 -74.5t-232.5 -24.5q-293 0 -465 104t-194 340z" />
<glyph unicode="T" horiz-adv-x="1304" d="M2 1266v153h1301v-153h-551v-1266h-199v1266h-551z" />
<glyph unicode="U" horiz-adv-x="1611" d="M154 578v841h198v-817q0 -92 18.5 -177t68.5 -149.5t139.5 -102.5t228.5 -38q135 0 222 37t138.5 101.5t72 148.5t20.5 180v817h198v-841q0 -139 -36 -250t-113.5 -189t-200.5 -120t-297 -42q-197 0 -323 47.5t-199.5 128t-103 190.5t-31.5 235z" />
<glyph unicode="V" horiz-adv-x="1427" d="M0 1419h219l498 -1208l500 1208h210l-589 -1419h-246z" />
<glyph unicode="W" horiz-adv-x="2248" d="M-14 1419h231l383 -1218l416 1218h223l412 -1218l391 1218h221l-498 -1419h-235l-404 1153l-405 -1153h-238z" />
<glyph unicode="X" horiz-adv-x="1501" d="M2 0l619 731l-584 688h264l455 -553l454 553h256l-592 -684l625 -735h-266l-490 594l-485 -594h-256z" />
<glyph unicode="Y" horiz-adv-x="1400" d="M-12 1419h233l477 -706l490 706h225l-618 -864v-555h-201v555z" />
<glyph unicode="Z" horiz-adv-x="1374" d="M61 0v176l1018 1088h-970v155h1194v-180l-1014 -1083h1024v-156h-1252z" />
<glyph unicode="[" horiz-adv-x="780" d="M240 -340v1878h415v-117h-243v-1644h243v-117h-415z" />
<glyph unicode="\" horiz-adv-x="993" d="M0 1554h176l817 -1914h-174z" />
<glyph unicode="]" horiz-adv-x="780" d="M125 -223h244v1644h-244v117h416v-1878h-416v117z" />
<glyph unicode="^" horiz-adv-x="1196" d="M117 973l383 563h194l385 -563h-217l-264 385l-262 -385h-219z" />
<glyph unicode="_" horiz-adv-x="1249" d="M0 -201h1249v-133h-1249v133z" />
<glyph unicode="`" horiz-adv-x="327" d="M-82 1411l160 107l291 -336l-121 -82z" />
<glyph unicode="a" horiz-adv-x="1226" d="M92 279q0 76 41 132t105.5 93t145.5 56.5t159 21.5l379 10v86q0 117 -74 165t-207 48q-137 0 -201.5 -44t-91.5 -132h-201q2 57 34 113.5t93.5 101.5t152.5 71.5t214 26.5q135 0 225 -29.5t144.5 -84t78 -131t23.5 -169.5v-473q0 -76 6 -108q2 -20 6 -33h-178 q-4 12 -6 33q-6 33 -6 110q-49 -68 -149.5 -115.5t-237.5 -47.5q-84 0 -165 16t-145.5 52t-104.5 92.5t-40 138.5zM289 279q0 -72 75.5 -117t192.5 -45q82 0 149.5 22.5t115.5 61.5t75 90t27 110v60l-369 -10q-131 -4 -198.5 -45t-67.5 -127z" />
<glyph unicode="b" horiz-adv-x="1280" d="M86 0v1442h193v-561q55 66 144 105.5t210 39.5q147 0 254.5 -38t177.5 -107.5t103.5 -164.5t33.5 -212q0 -252 -145.5 -388t-417.5 -136q-59 0 -114.5 13t-103.5 36.5t-87 53.5t-64 62v-145h-184zM274 473q0 -66 21.5 -129t66 -114.5t112 -82t159.5 -30.5 q98 0 168.5 30.5t115 84t66 123t21.5 147.5t-21.5 148.5t-66 124.5t-115 86t-168.5 32q-90 0 -156.5 -29.5t-110.5 -81t-67 -119t-25 -143.5v-47z" />
<glyph unicode="c" horiz-adv-x="1273" d="M80 504q0 117 33.5 212t104.5 164.5t178.5 107.5t254.5 38q104 0 194.5 -24.5t161 -69.5t117.5 -109.5t64 -144.5h-211q-33 106 -118 160.5t-208 54.5q-98 0 -168.5 -32t-115.5 -86t-66.5 -124.5t-21.5 -148.5t21.5 -147.5t66.5 -123t115.5 -84t168.5 -30.5 q158 0 236 67.5t100 182.5h209q-31 -193 -174 -291.5t-371 -98.5q-285 0 -428 137.5t-143 389.5z" />
<glyph unicode="d" horiz-adv-x="1327" d="M86 504q0 117 34 212t104.5 164.5t178 107.5t254.5 38q121 0 209 -36t144 -101v553h192v-1442h-184v139q-25 -33 -64 -62.5t-87 -51t-103 -33.5t-115 -12q-270 0 -416.5 136t-146.5 388zM285 502q0 -78 21.5 -147.5t66.5 -123t115.5 -84t168.5 -30.5q92 0 160 30.5 t112 82t65.5 115t21.5 128.5v47q-2 76 -24.5 143.5t-67.5 119t-112 81t-155 29.5q-98 0 -168.5 -32t-115.5 -86t-66.5 -124.5t-21.5 -148.5z" />
<glyph unicode="e" horiz-adv-x="1280" d="M80 502q0 133 41 232.5t116.5 164t181 96t234.5 31.5q123 0 222.5 -32.5t171 -97.5t110.5 -162t39 -228v-37h-917q4 -72 27.5 -136.5t69.5 -113.5t115.5 -77.5t165.5 -28.5q131 0 216 51t126 170h201q-49 -195 -189.5 -276t-353.5 -81q-152 0 -260 40t-179 110 t-104.5 166t-33.5 209zM279 596h712q-4 59 -29.5 113.5t-68.5 94.5t-103.5 63.5t-136.5 23.5q-78 0 -143.5 -23.5t-115.5 -63.5t-80.5 -93.5t-34.5 -114.5z" />
<glyph unicode="f" horiz-adv-x="796" d="M31 872v134h213v184q0 121 75.5 192.5t225.5 71.5q45 0 106.5 -3t104.5 -9v-129q-18 2 -42 3t-46.5 2t-41 1h-24.5q-162 0 -162 -164v-149h316v-134h-316v-872h-196v872h-213z" />
<glyph unicode="g" horiz-adv-x="1290" d="M86 506q0 248 147.5 384t419.5 136q119 0 210 -34t151 -103v117h190v-1031q0 -96 -39 -170.5t-109.5 -127t-166.5 -80t-211 -27.5q-254 0 -386 71.5t-161 247.5h203q23 -86 96.5 -134t220.5 -48q74 0 139.5 17.5t114.5 52.5t77 86t28 119v135q-45 -45 -95.5 -73 t-98.5 -42t-91 -18t-72 -4q-145 0 -251.5 38.5t-176 108.5t-104.5 167t-35 212zM289 504q0 -86 23.5 -157t69.5 -122t116.5 -79.5t163.5 -28.5q96 0 163.5 33.5t110.5 88t62.5 124t19.5 141.5t-19.5 141.5t-62.5 124.5t-112 89t-165 34q-92 0 -161.5 -28.5t-115.5 -81 t-69.5 -123t-23.5 -156.5z" />
<glyph unicode="h" d="M125 0v1419h194v-545q59 68 159 111t212 43q115 0 207 -20.5t156.5 -64.5t98.5 -112.5t34 -164.5v-666h-195v641q0 59 -25.5 105.5t-71.5 79t-107.5 49t-131.5 16.5q-150 0 -243 -74t-93 -203v-614h-194z" />
<glyph unicode="i" horiz-adv-x="458" d="M125 1260v182h209v-182h-209zM131 0v1006h195v-1006h-195z" />
<glyph unicode="j" horiz-adv-x="448" d="M-41 -268v-148h53q154 0 228.5 70t74.5 192v1160h-194v-1131q0 -78 -37 -110.5t-102 -32.5h-23zM115 1260v182h209v-182h-209z" />
<glyph unicode="k" horiz-adv-x="1198" d="M125 0v1419h194v-932l596 519h254l-510 -435l523 -571h-240l-418 444l-205 -172v-272h-194z" />
<glyph unicode="l" horiz-adv-x="444" d="M125 0v1419h194v-1419h-194z" />
<glyph unicode="m" horiz-adv-x="1994" d="M125 0v1006h186v-115q59 66 143.5 101.5t192.5 35.5q172 0 262 -41t135 -115q115 156 377 156q240 0 344.5 -88t104.5 -274v-666h-195v641q0 129 -72.5 189.5t-213.5 60.5q-143 0 -218 -69.5t-75 -207.5v-614h-195v641q0 129 -72.5 189.5t-214.5 60.5q-295 0 -295 -277 v-614h-194z" />
<glyph unicode="n" d="M125 0v1006h186v-132q59 68 163 111t216 43q115 0 207 -20.5t156.5 -64.5t98.5 -112.5t34 -164.5v-666h-195v641q0 59 -25.5 105.5t-71.5 79t-107.5 49t-131.5 16.5q-150 0 -243 -74t-93 -203v-614h-194z" />
<glyph unicode="o" horiz-adv-x="1312" d="M86 504q0 117 34 212t104.5 164.5t178 107.5t254.5 38t255 -38t177.5 -107.5t103.5 -164.5t34 -212q0 -252 -143.5 -389.5t-426.5 -137.5q-285 0 -428 137.5t-143 389.5zM285 502q0 -78 21.5 -147.5t66.5 -123t115.5 -84t168.5 -30.5t169 30.5t115 84t65.5 123 t21.5 147.5t-21.5 148.5t-65.5 124.5t-115 86t-169 32t-168.5 -32t-115.5 -86t-66.5 -124.5t-21.5 -148.5z" />
<glyph unicode="p" horiz-adv-x="1280" d="M86 -416v1422h190v-125q55 66 144.5 105.5t210.5 39.5q147 0 254.5 -38t178.5 -107.5t104.5 -164.5t33.5 -212q0 -252 -146.5 -388t-416.5 -136q-59 0 -114.5 12t-103.5 33.5t-87 51t-64 62.5v-555h-184zM272 473q0 -66 21.5 -129t65.5 -114.5t112 -82t160 -30.5 q98 0 168.5 30.5t116 84t65.5 123t20 147.5t-20 148.5t-65.5 124.5t-116 86t-168.5 32q-90 0 -156.5 -29.5t-111 -81t-67 -119t-24.5 -143.5v-47z" />
<glyph unicode="q" horiz-adv-x="1327" d="M86 504q0 117 34 212t104.5 164.5t178 107.5t254.5 38q121 0 209 -36t144 -101v117h192v-1422h-184v553q-25 -33 -64 -61.5t-87 -50t-103 -33.5t-115 -12q-270 0 -416.5 136t-146.5 388zM285 502q0 -78 21.5 -147.5t66.5 -123t115.5 -84t168.5 -30.5q92 0 160 30.5 t112 82t65.5 115t21.5 128.5v47q-2 76 -24.5 143.5t-67.5 119t-112 81t-155 29.5q-98 0 -168.5 -32t-115.5 -86t-66.5 -124.5t-21.5 -148.5z" />
<glyph unicode="r" horiz-adv-x="829" d="M125 0v1006h186v-142q45 66 140.5 115t216.5 49q35 0 70.5 -4t60.5 -8v-146q-29 8 -64.5 11.5t-66.5 3.5q-172 0 -260.5 -78t-88.5 -260v-547h-194z" />
<glyph unicode="s" horiz-adv-x="1091" d="M68 283h196q27 -172 291 -172q45 0 94 7t90 25.5t66.5 51t25.5 84.5q0 51 -31.5 79.5t-83.5 46t-118 26.5t-135.5 19.5t-135 27t-117.5 47t-84 79.5t-32 127t36 133.5t96.5 91t140 53t168.5 17.5q100 0 182 -20.5t141.5 -58.5t92 -92t32.5 -124h-184q-8 82 -80 122 t-187 40q-47 0 -92 -8t-79.5 -25.5t-55 -44.5t-20.5 -63q0 -72 54 -106t137 -50t178.5 -27.5t178 -40t137 -86t54.5 -166.5q0 -84 -43 -141t-111.5 -92t-151.5 -50.5t-163 -15.5q-106 0 -196.5 20.5t-155 59.5t-100 96.5t-35.5 129.5z" />
<glyph unicode="t" horiz-adv-x="772" d="M41 872v134h188v294h195v-294h297v-134h-297v-606q0 -74 36 -108.5t126 -34.5q18 0 41.5 1t44.5 3q23 2 47 6v-133q-20 -4 -47 -6t-53.5 -4t-49 -2h-37.5q-154 0 -228.5 71.5t-74.5 192.5v620h-188z" />
<glyph unicode="u" d="M125 340v666h194v-641q0 -59 26 -105.5t72 -79.5t106.5 -49t131.5 -16q150 0 243 73.5t93 202.5v615h195v-1006h-187v137q-59 -68 -162.5 -114t-215.5 -46q-115 0 -207 20.5t-156.5 64.5t-98.5 113t-34 165z" />
<glyph unicode="v" horiz-adv-x="1198" d="M16 1006h203l377 -813l381 813h205l-488 -1006h-200z" />
<glyph unicode="w" horiz-adv-x="1859" d="M25 1006h202l289 -791l320 791h188l319 -791l289 791h203l-387 -1006h-201l-319 797l-316 -797h-200z" />
<glyph unicode="x" horiz-adv-x="1171" d="M8 0l467 522l-440 484h244l315 -355l301 355h244l-441 -484l465 -522h-239l-340 385l-332 -385h-244z" />
<glyph unicode="y" horiz-adv-x="1202" d="M16 1006h205l375 -816l383 816h207l-582 -1172q-23 -47 -50.5 -88t-62 -71.5t-80.5 -48t-108 -17.5q-53 0 -91 5t-73 15v133q14 -4 33 -6q16 -2 35.5 -3t46.5 -1q61 0 100 24.5t64.5 61.5t42 80t33.5 80z" />
<glyph unicode="z" horiz-adv-x="1124" d="M66 0v129l745 735h-702v142h946v-129l-746 -736h750v-141h-993z" />
<glyph unicode="{" horiz-adv-x="800" d="M96 528v142h76q55 0 88 11t50.5 31.5t22.5 51.5t5 72v446q0 135 72.5 195.5t230.5 60.5h113v-117h-74q-98 0 -134 -37.5t-36 -111.5v-471q0 -66 -27.5 -117t-115.5 -86q88 -35 115.5 -86t27.5 -115v-471q0 -74 36 -111.5t134 -37.5h74v-117h-113q-158 0 -230.5 60.5 t-72.5 195.5v446q0 39 -5 71t-22.5 52.5t-50.5 31.5t-88 11h-76z" />
<glyph unicode="|" horiz-adv-x="442" d="M141 -340v1878h160v-1878h-160z" />
<glyph unicode="}" horiz-adv-x="800" d="M47 -223h74q98 0 134 38t36 111v471q0 63 27.5 114.5t115.5 86.5q-88 35 -115.5 86t-27.5 117v471q0 74 -36 111.5t-134 37.5h-74v117h113q158 0 230.5 -60.5t72.5 -195.5v-446q0 -41 5 -72t22.5 -51.5t50 -31.5t88.5 -11h76v-142h-76q-55 0 -88 -11t-50.5 -31.5 t-22.5 -52.5t-5 -71v-446q0 -135 -73 -195.5t-230 -60.5h-113v117z" />
<glyph unicode="~" horiz-adv-x="1542" d="M141 606q84 61 172 104.5t199 43.5q78 0 147.5 -17.5t133 -39t122 -39t113.5 -17.5q84 0 141.5 28.5t104.5 65.5l127 -104q-84 -70 -168 -109t-205 -39q-74 0 -139.5 17.5t-129 39t-125 40t-124.5 18.5q-78 0 -137.5 -28.5t-108.5 -69.5z" />
<glyph unicode="&#xa1;" horiz-adv-x="661" d="M215 805v201h231v-201h-231zM217 -53l39 624h147l39 -624v-361h-225v361z" />
<glyph unicode="&#xa2;" horiz-adv-x="1341" d="M113 698q0 106 29.5 197.5t90 159t152.5 109.5t219 53v227h160v-227q180 -18 303 -108.5t154 -236.5h-211q-29 88 -91.5 139.5t-154.5 67.5v-764q117 16 176 82t80 164h209q-29 -174 -151 -272.5t-314 -114.5v-194h-160v194q-244 20 -367.5 155.5t-123.5 368.5zM311 696 q0 -70 16.5 -133t52.5 -113.5t91 -85t133 -47.5v764q-78 -12 -133 -48t-91 -87t-52.5 -115.5t-16.5 -134.5z" />
<glyph unicode="&#xa3;" horiz-adv-x="1349" d="M86 0v160h184v495h-139v138h139v231q0 92 36 169t100.5 132t153.5 86t196 31q109 0 195.5 -28t148 -74t94.5 -105t33 -123h-199q-6 39 -28.5 70.5t-59.5 54.5t-84 36t-100 13q-131 0 -207 -66.5t-76 -189.5v-237h344v-138h-344v-495h387q84 0 138.5 34.5t64.5 106.5 l201 -29q-18 -125 -110.5 -198.5t-264.5 -73.5h-803z" />
<glyph unicode="&#xa4;" horiz-adv-x="1554" d="M168 258l194 162q-86 104 -86 246q0 137 84 243l-192 162l131 109l188 -158q61 35 134 55.5t159 20.5q84 0 157 -19.5t132 -54.5l188 156l129 -109l-188 -158q41 -53 63.5 -115.5t22.5 -131.5q0 -70 -23.5 -133.5t-64.5 -116.5l190 -158l-129 -108l-190 157 q-59 -35 -131 -54.5t-156 -19.5q-86 0 -158.5 19.5t-134.5 54.5l-188 -157zM461 666q0 -59 23.5 -112.5t66.5 -93.5t101.5 -62.5t127.5 -22.5q70 0 128.5 22.5t101.5 62.5t66.5 93t23.5 113q0 59 -23.5 112t-66.5 93t-101.5 62.5t-128.5 22.5t-128 -22.5t-101 -62.5 t-66.5 -93t-23.5 -112z" />
<glyph unicode="&#xa5;" horiz-adv-x="1466" d="M23 1419h233l477 -706l490 706h225l-506 -706h324v-150h-432l-5 -8v-141h437v-150h-437v-264h-202v264h-424v150h424v141l-6 8h-418v150h313z" />
<glyph unicode="&#xa6;" horiz-adv-x="442" d="M141 -340v825h160v-825h-160zM141 713v825h160v-825h-160z" />
<glyph unicode="&#xa7;" horiz-adv-x="1159" d="M88 776q0 78 54.5 140.5t125.5 103.5q-55 45 -84.5 96t-29.5 117q0 72 35.5 124t95 85t136.5 48t159 15q199 0 298 -79.5t99 -217.5h-168q0 78 -68.5 119t-160.5 41q-238 0 -238 -135q0 -63 54.5 -106.5t135 -78t175 -67.5t175.5 -77t135 -105.5t54 -155.5 q0 -74 -47 -135.5t-121 -101.5q59 -41 83 -94.5t24 -118.5q0 -72 -39 -126.5t-100.5 -90t-138.5 -53t-152 -17.5q-100 0 -186.5 20.5t-149 60.5t-98 101.5t-35.5 144.5h186q0 -35 15.5 -70.5t49 -63t87 -45t131.5 -17.5q43 0 86 9t77.5 27.5t56 48.5t21.5 71q0 63 -54 108 t-136 82t-176.5 73t-176 79t-136 101t-54.5 140zM270 793q0 -53 58.5 -97.5t139.5 -83.5t169 -72.5t149 -66.5q102 66 103 170q0 37 -24.5 67.5t-77 61.5t-134.5 68t-196 86l-66 28q-63 -29 -92 -66.5t-29 -94.5z" />
<glyph unicode="&#xa8;" horiz-adv-x="423" d="M-82 1077v178h188v-178h-188zM317 1077v178h189v-178h-189z" />
<glyph unicode="&#xa9;" horiz-adv-x="1501" d="M49 709q0 162 52.5 296t145.5 230t223 149.5t284 53.5q164 0 293 -55.5t218 -152.5t136 -231t47 -290q-4 -160 -53 -294t-138.5 -230.5t-216.5 -150.5t-286 -54q-160 0 -290 57t-222 156.5t-142.5 232.5t-50.5 283zM199 709q0 -127 41 -234.5t114.5 -187.5t175 -125 t224.5 -45q127 0 228 49t172 131t108.5 189.5t37.5 222.5q0 123 -39.5 231.5t-111.5 188t-172 125.5t-223 46q-129 -4 -231.5 -51t-175.5 -127t-110.5 -186.5t-37.5 -226.5zM393 711q0 88 21.5 159.5t65.5 124t113 81t163 28.5q152 0 238.5 -67.5t109.5 -190.5h-156 q-16 55 -65 91t-127 36q-57 0 -97.5 -21.5t-65 -57.5t-35.5 -84t-11 -101t11 -99.5t35.5 -81t64.5 -55t98 -20.5q90 0 143 43t64 114h149q-23 -143 -111 -220t-245 -77q-180 0 -271.5 103.5t-91.5 294.5z" />
<glyph unicode="&#xaa;" horiz-adv-x="622" d="M37 915q0 49 22.5 80t58.5 50.5t80 27.5t87 10h159q0 59 -17 97.5t-87 38.5q-35 0 -66.5 -10.5t-44.5 -59.5h-163q2 33 20 63.5t52 55t84 40t118 15.5q74 0 123 -16.5t77.5 -46t40 -71.5t11.5 -93v-265q0 -20 1 -33.5t3 -23.5t6 -18h-102q-4 6 -6 14q-6 14 -7 59 q-27 -37 -78 -58t-122 -21q-111 0 -180.5 39.5t-69.5 125.5zM186 926q0 -29 22.5 -48.5t84.5 -19.5q90 0 124 21.5t34 91.5v24h-119q-27 0 -53.5 -2t-47 -9t-33 -21.5t-12.5 -36.5z" />
<glyph unicode="&#xab;" horiz-adv-x="1486" d="M158 504l393 461h229l-393 -461l393 -459h-229zM709 504l393 461h227l-393 -461l393 -459h-227z" />
<glyph unicode="&#xac;" horiz-adv-x="1181" d="M96 582v151h989v-545h-188v394h-801z" />
<glyph unicode="&#xad;" horiz-adv-x="976" d="M133 524v150h711v-150h-711z" />
<glyph unicode="&#xae;" horiz-adv-x="983" d="M51 1075q0 96 27.5 181t83 147.5t136.5 99.5t189 37q109 0 191 -37t137 -99.5t83 -147.5t28 -181t-28 -181t-83 -147.5t-137 -98.5t-191 -36t-189.5 36t-136 98.5t-83 147.5t-27.5 181zM143 1075q0 -78 21.5 -146.5t64.5 -118.5t107.5 -80t150.5 -30t152 30t109 80 t64.5 118.5t21.5 146.5t-21.5 146.5t-64.5 119t-109 80t-152 29.5t-150.5 -29.5t-107.5 -80t-64.5 -119t-21.5 -146.5zM295 811v530h178q82 0 138.5 -36.5t56.5 -126.5q0 -59 -32 -99.5t-93 -50.5l139 -217h-102l-131 207h-62v-207h-92zM387 1100h102q47 0 68 21.5t21 64.5 q0 33 -20.5 52t-68.5 19h-102v-157z" />
<glyph unicode="&#xb0;" horiz-adv-x="935" d="M117 1098q0 68 27.5 123t74.5 95t111.5 62.5t138.5 22.5t137.5 -22.5t111.5 -63.5t74.5 -96.5t26.5 -120.5q0 -66 -26.5 -121t-74.5 -96t-111.5 -63.5t-137.5 -22.5t-138.5 22.5t-111.5 63.5t-74.5 96t-27.5 121zM274 1098q0 -72 56.5 -120t138.5 -48t138.5 48t56.5 120 t-56.5 120t-138.5 48t-138.5 -47t-56.5 -121z" />
<glyph unicode="&#xb1;" horiz-adv-x="1257" d="M96 608v152h443v332h180v-332h442v-152h-442v-327h-180v327h-443zM127 0v160h1010v-160h-1010z" />
<glyph unicode="&#xb2;" horiz-adv-x="784" d="M49 715v90q0 82 35 136t86 93t112.5 67.5t112.5 58.5t86 66t35 89q0 115 -143 115q-88 0 -121 -32t-37 -89h-154q2 111 83 175t229 64q141 0 221 -60.5t80 -162.5q0 -78 -34 -130t-85 -89t-110.5 -64.5t-110.5 -56.5t-85 -63.5t-34 -85.5h473v-121h-639z" />
<glyph unicode="&#xb3;" horiz-adv-x="806" d="M49 950h148q4 -72 60 -102.5t134 -30.5q90 0 133 36t43 93q0 66 -40 103.5t-148 37.5h-43v103h43q49 0 79.5 10t47 28.5t23 43t6.5 51.5q0 18 -7.5 37.5t-23 36t-42 28t-65.5 11.5q-78 0 -117.5 -28t-43.5 -93h-158q4 113 85 176t228 63q150 0 226.5 -60t76.5 -171 q0 -133 -110 -178q139 -47 139 -197q0 -47 -21.5 -91t-63.5 -78t-103.5 -54t-143.5 -20q-156 0 -247 67.5t-95 177.5z" />
<glyph unicode="&#xb4;" horiz-adv-x="530" d="M104 1610l381 282l127 -133l-409 -250z" />
<glyph unicode="&#xb5;" d="M125 -416v1422h194v-641q0 -59 26 -105.5t72 -79.5t106.5 -49t131.5 -16q150 0 243 73.5t93 202.5v615h195v-1006h-187v137q-59 -68 -162.5 -114t-215.5 -46q-98 0 -177 25t-133 76v-494h-186z" />
<glyph unicode="&#xb6;" horiz-adv-x="1398" d="M59 1034q0 78 28 148.5t80 123t127 83t171 30.5h774v-129h-190v-1560h-158v1554h-273v-1554h-153v929q-98 2 -174 33t-127 82t-78 117.5t-27 142.5z" />
<glyph unicode="&#xb8;" horiz-adv-x="385" d="M45 -233l78 43q37 -51 98 -52q41 0 68.5 22.5t27.5 63.5q0 37 -27.5 58.5t-68.5 21.5q-55 0 -82 -18l-80 47l80 149h125l-59 -108q18 6 61 6q76 0 124 -45t48 -111q0 -86 -56 -127t-161 -41q-70 0 -112.5 28t-63.5 63z" />
<glyph unicode="&#xb9;" horiz-adv-x="524" d="M-16 1311v86q82 0 140 34.5t58 88.5v14h154v-819h-162v596h-190z" />
<glyph unicode="&#xba;" horiz-adv-x="714" d="M51 1135q0 129 73.5 206.5t231.5 77.5q160 0 234 -77.5t74 -206.5q0 -137 -78 -211t-230 -74q-150 0 -227.5 73.5t-77.5 211.5zM186 1135q0 -72 39 -125.5t131 -53.5t132 53.5t40 125.5q0 35 -10 67.5t-30.5 57t-53.5 40t-78 15.5t-77.5 -15.5t-53 -40t-30 -57.5 t-9.5 -67z" />
<glyph unicode="&#xbb;" horiz-adv-x="1486" d="M158 45l393 459l-393 461h229l393 -461l-393 -459h-229zM709 45l393 459l-393 461h227l393 -461l-393 -459h-227z" />
<glyph unicode="&#xbc;" horiz-adv-x="1730" d="M49 1186v86q82 0 140.5 34.5t58.5 88.5v14h153v-825h-161v602h-191zM190 -23l1033 1528l149 -63l-1034 -1532zM909 147v80l430 598h195v-563h100v-115h-100v-147h-156v147h-469zM1087 262h291v412z" />
<glyph unicode="&#xbd;" horiz-adv-x="1732" d="M49 1186v86q82 0 140.5 34.5t58.5 88.5v14h153v-825h-161v602h-191zM190 -23l1033 1528l149 -63l-1034 -1532zM997 0v90q0 82 35 136.5t86 93t112.5 67.5t113 58.5t86 65.5t34.5 89q0 59 -36.5 87t-104.5 28q-90 0 -123 -32t-35 -89h-155q4 111 85 175.5t228 64.5 q141 0 220 -60.5t79 -163.5q0 -78 -34 -130t-85 -89t-109.5 -64.5t-109.5 -56t-85 -63.5t-34 -86h471v-121h-639z" />
<glyph unicode="&#xbe;" horiz-adv-x="1955" d="M49 811h148q4 -72 60 -102.5t134 -30.5q90 0 133 36t43 93q0 66 -40 103.5t-148 37.5h-43v103h43q49 0 79.5 10t47 28.5t23 43t6.5 51.5q0 18 -7.5 37.5t-23 36t-42 27.5t-65.5 11q-78 0 -117.5 -27.5t-43.5 -92.5h-158q4 113 85 176t228 63q150 0 226.5 -60.5 t76.5 -170.5q0 -133 -110 -178q139 -47 139 -197q0 -47 -21.5 -91t-63.5 -78t-103.5 -54.5t-143.5 -20.5q-156 0 -247 67.5t-95 178.5zM420 -23l1032 1528l150 -63l-1035 -1532zM1135 147v80l430 598h194v-563h101v-115h-101v-147h-155v147h-469zM1313 262h291v412z" />
<glyph unicode="&#xbf;" horiz-adv-x="1280" d="M174 -63q0 100 57.5 187t167.5 169q45 33 74 58.5t46.5 52t24.5 55t7 65.5v47h203v-49q0 -125 -33 -182q-27 -55 -84 -96t-114.5 -83t-100.5 -94.5t-43 -129.5q0 -111 76.5 -172.5t212.5 -61.5q150 0 215 68.5t69 195.5h209v-22q0 -100 -38 -173t-103.5 -119 t-156.5 -67.5t-195 -21.5q-109 0 -200 25.5t-156.5 73.5t-101.5 117t-36 157zM522 795v211h254v-211h-254z" />
<glyph unicode="&#xc0;" horiz-adv-x="1509" d="M-8 0l663 1419h193l670 -1419h-218l-170 373h-763l-166 -373h-209zM436 518h629l-315 699zM442 1767l136 127l356 -284l-98 -99z" />
<glyph unicode="&#xc1;" horiz-adv-x="1509" d="M-8 0l663 1419h193l670 -1419h-218l-170 373h-763l-166 -373h-209zM436 518h629l-315 699zM571 1606l357 282l135 -127l-391 -256z" />
<glyph unicode="&#xc2;" horiz-adv-x="1509" d="M-8 0l663 1419h193l670 -1419h-218l-170 373h-763l-166 -373h-209zM399 1599l273 211h159l273 -211l-100 -94l-254 191l-248 -191zM436 518h629l-315 699z" />
<glyph unicode="&#xc3;" horiz-adv-x="1509" d="M-8 0l663 1419h193l670 -1419h-218l-170 373h-763l-166 -373h-209zM338 1561q8 51 32.5 85.5t59.5 55t77 30t87 9.5q39 0 82 -13.5t85 -29t81 -27.5t71 -12q33 0 64 9t59 50h135q-8 -47 -32.5 -81.5t-60.5 -57.5t-80 -33t-89 -10q-41 0 -82 13.5t-80.5 29.5t-78.5 29.5 t-78 13.5q-33 0 -64.5 -9t-60.5 -52h-127zM436 518h629l-315 699z" />
<glyph unicode="&#xc4;" horiz-adv-x="1509" d="M-8 0l663 1419h193l670 -1419h-218l-170 373h-763l-166 -373h-209zM367 1556v193h211v-193h-211zM436 518h629l-315 699zM879 1556v193h211v-193h-211z" />
<glyph unicode="&#xc5;" horiz-adv-x="1509" d="M-8 0l626 1343q-66 33 -109.5 87.5t-43.5 117.5q0 51 24.5 95.5t65.5 77t93 52t110 19.5q59 0 112.5 -20.5t93.5 -54.5t62.5 -78t22.5 -91q0 -63 -47.5 -118.5t-116.5 -86.5h-2l635 -1343h-218l-170 373h-763l-166 -373h-209zM436 518h629l-315 699zM596 1548 q0 -53 44 -89t105 -40h25q66 4 107 43t41 86q0 53 -46.5 94t-113.5 41q-74 0 -118 -42t-44 -93z" />
<glyph unicode="&#xc6;" horiz-adv-x="2025" d="M-68 0l787 1419h1196v-155h-811v-478h762v-151h-762v-479h833v-156h-1038v373h-555l-203 -373h-209zM414 518h485v746h-74z" />
<glyph unicode="&#xc7;" horiz-adv-x="1497" d="M78 713q0 141 30.5 272t107.5 232.5t209 163t337 61.5q156 0 271.5 -34t194.5 -95.5t120 -144.5t51 -181h-211q-8 57 -37 109.5t-79 92.5t-122.5 63.5t-169.5 23.5h-32q-139 0 -229.5 -46t-143.5 -125t-73.5 -180.5t-20.5 -211.5q0 -104 18 -207t70.5 -183.5t142.5 -130 t236 -49.5h30q104 0 182 28t128.5 73t76 100t25.5 111h215q-10 -98 -46 -181.5t-104.5 -144.5t-170 -99t-238.5 -46l-35 -82q18 6 61 6q78 0 125 -45t47 -111q0 -86 -55 -127t-160 -41q-72 0 -113.5 28t-64.5 62l80 43q37 -51 98 -51q41 0 69 22.5t28 63.5q0 37 -28 58.5 t-69 21.5q-53 0 -84 -18l-77 47l51 121q-184 6 -307 68.5t-197 162.5t-105.5 229t-31.5 271z" />
<glyph unicode="&#xc8;" horiz-adv-x="1331" d="M158 0v1419h1063v-155h-861v-478h811v-151h-811v-479h883v-156h-1085zM391 1767l135 127l359 -284l-101 -99z" />
<glyph unicode="&#xc9;" horiz-adv-x="1331" d="M158 0v1419h1063v-155h-861v-478h811v-151h-811v-479h883v-156h-1085zM479 1610l381 282l127 -133l-409 -250z" />
<glyph unicode="&#xca;" horiz-adv-x="1331" d="M158 0v1419h1063v-155h-861v-478h811v-151h-811v-479h883v-156h-1085zM348 1599l273 211h157l277 -211l-105 -94l-250 191l-251 -191z" />
<glyph unicode="&#xcb;" horiz-adv-x="1331" d="M158 0v1419h1063v-155h-861v-478h811v-151h-811v-479h883v-156h-1085zM346 1559v190h207v-190h-207zM852 1559v190h207v-190h-207z" />
<glyph unicode="&#xcc;" horiz-adv-x="628" d="M-25 1761l136 127l356 -282l-100 -101zM190 0v1419h203v-1419h-203z" />
<glyph unicode="&#xcd;" horiz-adv-x="628" d="M162 1606l358 282l133 -127l-391 -256zM242 0v1419h204v-1419h-204z" />
<glyph unicode="&#xce;" horiz-adv-x="524" d="M-90 1604l274 211h160l270 -211l-102 -93l-250 189l-252 -189zM158 0v1419h204v-1419h-204z" />
<glyph unicode="&#xcf;" horiz-adv-x="585" d="M-63 1563v192h206v-192h-206zM190 0v1419h203v-1419h-203zM446 1563v192h203v-192h-203z" />
<glyph unicode="&#xd0;" horiz-adv-x="1574" d="M82 666v139h137v614h520q377 0 555.5 -179t178.5 -531q0 -158 -36 -288t-119 -224.5t-221.5 -145.5t-342.5 -51h-535v666h-137zM422 154h332q152 0 251 37.5t157.5 110.5t82 175.5t23.5 231.5q0 283 -127.5 420t-401.5 137h-317v-461h401v-139h-401v-512z" />
<glyph unicode="&#xd1;" horiz-adv-x="1640" d="M166 0v1419h256l850 -1169v1169h203v-1419h-256l-850 1169v-1169h-203zM418 1563q12 51 39.5 84.5t62.5 55t75 31t81 9.5q43 0 82 -13.5t77.5 -28.5t79.5 -27.5t91 -12.5q29 0 53 10t49 49h143q-8 -45 -33.5 -77.5t-61.5 -54t-80 -32t-89 -10.5q-47 0 -89 12.5t-80 26.5 t-73.5 26.5t-70.5 12.5t-62.5 -10t-56.5 -51h-137z" />
<glyph unicode="&#xd2;" horiz-adv-x="1552" d="M88 713q0 -145 34 -277.5t112.5 -234t209.5 -161.5t328 -60q199 0 332 60t213 161.5t113.5 233.5t33.5 278q0 141 -30.5 272t-108.5 232.5t-212 163t-341 61.5q-205 0 -337 -61.5t-208.5 -163t-107.5 -232.5t-31 -272zM291 713q0 111 20.5 212t73.5 180t143 125t230 46 h33q141 0 231 -46t143.5 -125t74 -180.5t20.5 -211.5q0 -104 -18.5 -207t-71 -183.5t-145 -130t-237.5 -49.5h-30q-145 0 -235.5 49.5t-142.5 130t-70.5 183t-18.5 207.5zM453 1767l133 127l358 -284l-100 -99z" />
<glyph unicode="&#xd3;" horiz-adv-x="1552" d="M88 713q0 -145 34 -277.5t112.5 -234t209.5 -161.5t328 -60q199 0 332 60t213 161.5t113.5 233.5t33.5 278q0 141 -30.5 272t-108.5 232.5t-212 163t-341 61.5q-205 0 -337 -61.5t-208.5 -163t-107.5 -232.5t-31 -272zM291 713q0 111 20.5 212t73.5 180t143 125t230 46 h33q141 0 231 -46t143.5 -125t74 -180.5t20.5 -211.5q0 -104 -18.5 -207t-71 -183.5t-145 -130t-237.5 -49.5h-30q-145 0 -235.5 49.5t-142.5 130t-70.5 183t-18.5 207.5zM569 1610l359 284l135 -127l-393 -256z" />
<glyph unicode="&#xd4;" horiz-adv-x="1552" d="M88 713q0 -145 34 -277.5t112.5 -234t209.5 -161.5t328 -60q199 0 332 60t213 161.5t113.5 233.5t33.5 278q0 141 -30.5 272t-108.5 232.5t-212 163t-341 61.5q-205 0 -337 -61.5t-208.5 -163t-107.5 -232.5t-31 -272zM291 713q0 111 20.5 212t73.5 180t143 125t230 46 h33q141 0 231 -46t143.5 -125t74 -180.5t20.5 -211.5q0 -104 -18.5 -207t-71 -183.5t-145 -130t-237.5 -49.5h-30q-145 0 -235.5 49.5t-142.5 130t-70.5 183t-18.5 207.5zM416 1604l274 211h162l270 -211l-104 -93l-250 189l-250 -189z" />
<glyph unicode="&#xd5;" horiz-adv-x="1552" d="M88 713q0 -145 34 -277.5t112.5 -234t209.5 -161.5t328 -60q199 0 332 60t213 161.5t113.5 233.5t33.5 278q0 141 -30.5 272t-108.5 232.5t-212 163t-341 61.5q-205 0 -337 -61.5t-208.5 -163t-107.5 -232.5t-31 -272zM291 713q0 111 20.5 212t73.5 180t143 125t230 46 h33q141 0 231 -46t143.5 -125t74 -180.5t20.5 -211.5q0 -104 -18.5 -207t-71 -183.5t-145 -130t-237.5 -49.5h-30q-145 0 -235.5 49.5t-142.5 130t-70.5 183t-18.5 207.5zM358 1573q8 51 33 86t59.5 55.5t76.5 29.5t85 9q41 0 84 -13.5t84 -28.5t80 -27.5t72 -12.5 q35 0 64.5 9.5t58.5 50.5h135q-6 -47 -30.5 -82t-60.5 -57.5t-80 -33t-89 -10.5q-41 0 -82 13.5t-81 30t-79 29.5t-78 13q-33 0 -64.5 -9t-60.5 -52h-127z" />
<glyph unicode="&#xd6;" horiz-adv-x="1552" d="M88 713q0 -145 34 -277.5t112.5 -234t209.5 -161.5t328 -60q199 0 332 60t213 161.5t113.5 233.5t33.5 278q0 141 -30.5 272t-108.5 232.5t-212 163t-341 61.5q-205 0 -337 -61.5t-208.5 -163t-107.5 -232.5t-31 -272zM291 713q0 111 20.5 212t73.5 180t143 125t230 46 h33q141 0 231 -46t143.5 -125t74 -180.5t20.5 -211.5q0 -104 -18.5 -207t-71 -183.5t-145 -130t-237.5 -49.5h-30q-145 0 -235.5 49.5t-142.5 130t-70.5 183t-18.5 207.5zM426 1550v193h205v-193h-205zM932 1550v193h203v-193h-203z" />
<glyph unicode="&#xd7;" horiz-adv-x="1232" d="M143 324l342 284l-342 283l133 110l342 -284l338 284l134 -110l-342 -283l342 -284l-136 -109l-338 283l-342 -283z" />
<glyph unicode="&#xd8;" horiz-adv-x="1552" d="M88 713q0 141 31 272t108.5 232.5t209.5 163t337 61.5q76 0 140.5 -8.5t119.5 -24.5l62 113h176l-94 -172q82 -49 137 -118t89 -152t47 -177t13 -190q0 -145 -33.5 -277.5t-113.5 -234t-212 -161.5t-331 -60q-88 0 -163.5 13t-137.5 36l-67 -123h-175l107 196 q-70 51 -117 118t-76.5 145.5t-43 167t-13.5 180.5zM293 713q0 -125 27.5 -244t105.5 -203l528 989q-35 10 -74.5 15.5t-86.5 5.5h-33q-139 0 -229.5 -46t-143.5 -125t-73.5 -180t-20.5 -212zM553 180q86 -37 207 -37h28q147 0 239.5 49.5t145 130t71 183t18.5 207.5 q0 143 -36 269t-134 204z" />
<glyph unicode="&#xd9;" horiz-adv-x="1611" d="M154 578v841h198v-817q0 -92 18.5 -177t68.5 -149.5t139.5 -102.5t228.5 -38q135 0 222 37t138.5 101.5t72 148.5t20.5 180v817h198v-841q0 -139 -36 -250t-113.5 -189t-200.5 -120t-297 -42q-197 0 -323 47.5t-199.5 128t-103 190.5t-31.5 235zM508 1763l131 127 l356 -282l-98 -101z" />
<glyph unicode="&#xda;" horiz-adv-x="1611" d="M154 578v841h198v-817q0 -92 18.5 -177t68.5 -149.5t139.5 -102.5t228.5 -38q135 0 222 37t138.5 101.5t72 148.5t20.5 180v817h198v-841q0 -139 -36 -250t-113.5 -189t-200.5 -120t-297 -42q-197 0 -323 47.5t-199.5 128t-103 190.5t-31.5 235zM608 1608l357 282 l135 -127l-393 -256z" />
<glyph unicode="&#xdb;" horiz-adv-x="1611" d="M154 578v841h198v-817q0 -92 18.5 -177t68.5 -149.5t139.5 -102.5t228.5 -38q135 0 222 37t138.5 101.5t72 148.5t20.5 180v817h198v-841q0 -139 -36 -250t-113.5 -189t-200.5 -120t-297 -42q-197 0 -323 47.5t-199.5 128t-103 190.5t-31.5 235zM449 1602l272 208h162 l270 -208l-102 -95l-252 189l-250 -189z" />
<glyph unicode="&#xdc;" horiz-adv-x="1611" d="M154 578v841h198v-817q0 -92 18.5 -177t68.5 -149.5t139.5 -102.5t228.5 -38q135 0 222 37t138.5 101.5t72 148.5t20.5 180v817h198v-841q0 -139 -36 -250t-113.5 -189t-200.5 -120t-297 -42q-197 0 -323 47.5t-199.5 128t-103 190.5t-31.5 235zM440 1556v193h211v-193 h-211zM952 1556v193h211v-193h-211z" />
<glyph unicode="&#xdd;" horiz-adv-x="1275" d="M-12 1419h233l416 -688l428 688h223l-553 -846v-573h-203v573zM440 1608l359 282l133 -127l-391 -256z" />
<glyph unicode="&#xde;" horiz-adv-x="1355" d="M166 0v1419h211v-252h299q131 0 243.5 -23.5t193.5 -74.5t127 -129t46 -188q0 -119 -49 -199t-132 -128t-193.5 -68.5t-235.5 -20.5h-299v-336h-211zM377 498h358q84 4 147.5 18t106.5 43t64.5 76t21.5 117q0 63 -27.5 110t-73.5 79t-108.5 48.5t-130.5 16.5h-358v-508z " />
<glyph unicode="&#xdf;" horiz-adv-x="1495" d="M145 739v142h160v151q0 207 121 310.5t393 103.5q123 0 214 -26.5t151.5 -75t90.5 -115t30 -148.5q0 -92 -53.5 -165.5t-161.5 -98.5q82 -12 144 -48t102 -87t60.5 -112.5t20.5 -125.5q0 -215 -132 -341t-380 -126q-37 0 -90 4.5t-125 18.5v137q47 -12 90 -15t82 -3 q78 0 145.5 18.5t117 57t78 101t28.5 148.5q0 150 -110.5 222.5t-301.5 72.5h-86v142h86q57 0 110.5 13t93.5 38.5t63.5 63.5t23.5 85q0 102 -64.5 163t-226.5 61q-96 0 -157.5 -21.5t-97.5 -58.5t-50 -88.5t-14 -110.5v-1026h-195v739h-160z" />
<glyph unicode="&#xe0;" horiz-adv-x="1226" d="M92 279q0 76 41 132t105.5 93t145.5 56.5t159 21.5l379 10v86q0 117 -74 165t-207 48q-137 0 -201.5 -44t-91.5 -132h-201q2 57 34 113.5t93.5 101.5t152.5 71.5t214 26.5q135 0 225 -29.5t144.5 -84t78 -131t23.5 -169.5v-473q0 -76 6 -108q2 -20 6 -33h-178 q-4 12 -6 33q-6 33 -6 110q-49 -68 -149.5 -115.5t-237.5 -47.5q-84 0 -165 16t-145.5 52t-104.5 92.5t-40 138.5zM289 279q0 -72 75.5 -117t192.5 -45q82 0 149.5 22.5t115.5 61.5t75 90t27 110v60l-369 -10q-131 -4 -198.5 -45t-67.5 -127zM387 1411l160 105l289 -334 l-119 -82z" />
<glyph unicode="&#xe1;" horiz-adv-x="1226" d="M92 279q0 76 41 132t105.5 93t145.5 56.5t159 21.5l379 10v86q0 117 -74 165t-207 48q-137 0 -201.5 -44t-91.5 -132h-201q2 57 34 113.5t93.5 101.5t152.5 71.5t214 26.5q135 0 225 -29.5t144.5 -84t78 -131t23.5 -169.5v-473q0 -76 6 -108q2 -20 6 -33h-178 q-4 12 -6 33q-6 33 -6 110q-49 -68 -149.5 -115.5t-237.5 -47.5q-84 0 -165 16t-145.5 52t-104.5 92.5t-40 138.5zM289 279q0 -72 75.5 -117t192.5 -45q82 0 149.5 22.5t115.5 61.5t75 90t27 110v60l-369 -10q-131 -4 -198.5 -45t-67.5 -127zM508 1200l285 334l159 -107 l-323 -309z" />
<glyph unicode="&#xe2;" horiz-adv-x="1226" d="M92 279q0 76 41 132t105.5 93t145.5 56.5t159 21.5l379 10v86q0 117 -74 165t-207 48q-137 0 -201.5 -44t-91.5 -132h-201q2 57 34 113.5t93.5 101.5t152.5 71.5t214 26.5q135 0 225 -29.5t144.5 -84t78 -131t23.5 -169.5v-473q0 -76 6 -108q2 -20 6 -33h-178 q-4 12 -6 33q-6 33 -6 110q-49 -68 -149.5 -115.5t-237.5 -47.5q-84 0 -165 16t-145.5 52t-104.5 92.5t-40 138.5zM289 279q0 -72 75.5 -117t192.5 -45q82 0 149.5 22.5t115.5 61.5t75 90t27 110v60l-369 -10q-131 -4 -198.5 -45t-67.5 -127zM326 1169l235 250h182l232 -250 l-119 -79l-205 213l-207 -213z" />
<glyph unicode="&#xe3;" horiz-adv-x="1226" d="M92 279q0 76 41 132t105.5 93t145.5 56.5t159 21.5l379 10v86q0 117 -74 165t-207 48q-137 0 -201.5 -44t-91.5 -132h-201q2 57 34 113.5t93.5 101.5t152.5 71.5t214 26.5q135 0 225 -29.5t144.5 -84t78 -131t23.5 -169.5v-473q0 -76 6 -108q2 -20 6 -33h-178 q-4 12 -6 33q-6 33 -6 110q-49 -68 -149.5 -115.5t-237.5 -47.5q-84 0 -165 16t-145.5 52t-104.5 92.5t-40 138.5zM238 1253q8 51 32.5 86t59.5 55.5t77 30t87 9.5q41 0 84 -13.5t83.5 -29t79.5 -27.5t72 -12t63.5 9t59.5 50h135q-8 -47 -32.5 -82t-60.5 -57.5t-79 -32.5 t-88 -10q-41 0 -82 13t-81 29.5t-79 30t-77 13.5q-35 0 -66.5 -9.5t-60.5 -52.5h-127zM289 279q0 -72 75.5 -117t192.5 -45q82 0 149.5 22.5t115.5 61.5t75 90t27 110v60l-369 -10q-131 -4 -198.5 -45t-67.5 -127z" />
<glyph unicode="&#xe4;" horiz-adv-x="1226" d="M92 279q0 76 41 132t105.5 93t145.5 56.5t159 21.5l379 10v86q0 117 -74 165t-207 48q-137 0 -201.5 -44t-91.5 -132h-201q2 57 34 113.5t93.5 101.5t152.5 71.5t214 26.5q135 0 225 -29.5t144.5 -84t78 -131t23.5 -169.5v-473q0 -76 6 -108q2 -20 6 -33h-178 q-4 12 -6 33q-6 33 -6 110q-49 -68 -149.5 -115.5t-237.5 -47.5q-84 0 -165 16t-145.5 52t-104.5 92.5t-40 138.5zM289 279q0 -72 75.5 -117t192.5 -45q82 0 149.5 22.5t115.5 61.5t75 90t27 110v60l-369 -10q-131 -4 -198.5 -45t-67.5 -127zM313 1229v182h205v-182h-205z M729 1229v182h201v-182h-201z" />
<glyph unicode="&#xe5;" horiz-adv-x="1226" d="M92 279q0 76 41 132t105.5 93t145.5 56.5t159 21.5l379 10v86q0 117 -74 165t-207 48q-137 0 -201.5 -44t-91.5 -132h-201q2 57 34 113.5t93.5 101.5t152.5 71.5t214 26.5q135 0 225 -29.5t144.5 -84t78 -131t23.5 -169.5v-473q0 -76 6 -108q2 -20 6 -33h-178 q-4 12 -6 33q-6 33 -6 110q-49 -68 -149.5 -115.5t-237.5 -47.5q-84 0 -165 16t-145.5 52t-104.5 92.5t-40 138.5zM289 279q0 -72 75.5 -117t192.5 -45q82 0 149.5 22.5t115.5 61.5t75 90t27 110v60l-369 -10q-131 -4 -198.5 -45t-67.5 -127zM393 1374q0 45 20.5 86t56.5 71 t85 47t104 17q57 0 105.5 -18t84.5 -49t56.5 -71t20.5 -83q0 -45 -21.5 -86t-58.5 -71.5t-85 -48t-102 -17.5q-55 0 -104 18.5t-85 49t-56.5 70.5t-20.5 85zM535 1374q0 -45 37.5 -72.5t84.5 -27.5q53 0 87 29.5t34 70.5q0 43 -36.5 72t-84.5 29q-51 0 -86.5 -30t-35.5 -71z " />
<glyph unicode="&#xe6;" horiz-adv-x="2121" d="M92 279q0 76 42 132t107.5 93t146.5 56.5t159 21.5l375 12v84q0 117 -71 165t-206 48q-141 0 -208.5 -44t-84.5 -132h-209q12 84 56.5 143.5t112 97t153.5 55t180 17.5q154 0 250 -41t149 -119q76 80 187.5 119t257.5 39q123 0 222 -32.5t171 -97.5t111 -162t39 -228v-37 h-914v-29q6 -68 31 -127t71 -103t113.5 -70.5t159.5 -26.5q131 0 216 51t126 170h201q-49 -195 -189.5 -276t-353.5 -81q-190 0 -313 60.5t-189 165.5q-33 -59 -83 -102.5t-108.5 -70t-122 -38.5t-124.5 -12q-84 0 -166 16t-147.5 52t-106.5 92.5t-41 138.5zM289 279 q0 -72 75.5 -117t192.5 -45q82 0 149.5 22.5t115.5 61.5t75 90t27 110v60l-369 -10q-131 -4 -198.5 -45t-67.5 -127zM1118 596h709q-4 59 -29.5 113.5t-68.5 94.5t-103.5 63.5t-136.5 23.5q-74 0 -138.5 -21.5t-113.5 -58.5t-80 -87t-39 -108v-20z" />
<glyph unicode="&#xe7;" horiz-adv-x="1288" d="M86 504q0 117 34 212t104.5 164.5t178 107.5t254.5 38q104 0 194.5 -24.5t161 -69.5t118 -109.5t63.5 -144.5h-211q-33 106 -118 160.5t-208 54.5q-98 0 -168.5 -32t-115.5 -86t-66.5 -124.5t-21.5 -148.5t21.5 -147.5t66.5 -123t115.5 -84t168.5 -30.5q158 0 236 67.5 t100 182.5h209q-29 -180 -158 -278.5t-333 -108.5l-39 -78q14 6 61 6q68 0 121 -41q51 -41 51 -119q0 -86 -57 -126t-160 -40q-72 0 -115 29t-63 63l80 39q41 -47 98 -47q39 0 66.5 21.5t27.5 60.5t-27.5 61.5t-66.5 22.5q-53 0 -84 -20l-80 49l62 119q-248 16 -374 152 t-126 372z" />
<glyph unicode="&#xe8;" horiz-adv-x="1292" d="M86 502q0 133 41 232.5t116.5 164t181 96t234.5 31.5q123 0 222.5 -32.5t171 -97.5t110.5 -162t39 -228v-37h-917q4 -72 27.5 -136.5t69.5 -113.5t115.5 -77.5t166.5 -28.5q131 0 216 51t126 170h200q-49 -195 -189 -276t-353 -81q-152 0 -260.5 40t-179 110t-104.5 166 t-34 209zM285 596h712q-4 59 -29.5 113.5t-68.5 94.5t-103.5 63.5t-136.5 23.5q-78 0 -143 -23.5t-115.5 -63.5t-81 -93.5t-34.5 -114.5zM362 1409l160 107l289 -336l-121 -82z" />
<glyph unicode="&#xe9;" horiz-adv-x="1292" d="M86 502q0 133 41 232.5t116.5 164t181 96t234.5 31.5q123 0 222.5 -32.5t171 -97.5t110.5 -162t39 -228v-37h-917q4 -72 27.5 -136.5t69.5 -113.5t115.5 -77.5t166.5 -28.5q131 0 216 51t126 170h200q-49 -195 -189 -276t-353 -81q-152 0 -260.5 40t-179 110t-104.5 166 t-34 209zM285 596h712q-4 59 -29.5 113.5t-68.5 94.5t-103.5 63.5t-136.5 23.5q-78 0 -143 -23.5t-115.5 -63.5t-81 -93.5t-34.5 -114.5zM473 1180l289 336l160 -107l-326 -311z" />
<glyph unicode="&#xea;" horiz-adv-x="1292" d="M86 502q0 133 41 232.5t116.5 164t181 96t234.5 31.5q123 0 222.5 -32.5t171 -97.5t110.5 -162t39 -228v-37h-917q4 -72 27.5 -136.5t69.5 -113.5t115.5 -77.5t166.5 -28.5q131 0 216 51t126 170h200q-49 -195 -189 -276t-353 -81q-152 0 -260.5 40t-179 110t-104.5 166 t-34 209zM285 596h712q-4 59 -29.5 113.5t-68.5 94.5t-103.5 63.5t-136.5 23.5q-78 0 -143 -23.5t-115.5 -63.5t-81 -93.5t-34.5 -114.5zM315 1167l238 250h182l234 -250l-121 -77l-203 213l-207 -213z" />
<glyph unicode="&#xeb;" horiz-adv-x="1292" d="M86 502q0 133 41 232.5t116.5 164t181 96t234.5 31.5q123 0 222.5 -32.5t171 -97.5t110.5 -162t39 -228v-37h-917q4 -72 27.5 -136.5t69.5 -113.5t115.5 -77.5t166.5 -28.5q131 0 216 51t126 170h200q-49 -195 -189 -276t-353 -81q-152 0 -260.5 40t-179 110t-104.5 166 t-34 209zM285 596h712q-4 59 -29.5 113.5t-68.5 94.5t-103.5 63.5t-136.5 23.5q-78 0 -143 -23.5t-115.5 -63.5t-81 -93.5t-34.5 -114.5zM334 1190v182h203v-182h-203zM745 1190v182h199v-182h-199z" />
<glyph unicode="&#xec;" horiz-adv-x="446" d="M-41 1409l160 107l287 -336l-117 -82zM152 0v1006h192v-1006h-192z" />
<glyph unicode="&#xed;" horiz-adv-x="415" d="M41 1180l287 336l159 -107l-325 -311zM104 0v1006h195v-1006h-195z" />
<glyph unicode="&#xee;" horiz-adv-x="528" d="M-61 1167l235 250h182l234 -250l-121 -77l-203 213l-207 -213zM170 0v1006h195v-1006h-195z" />
<glyph unicode="&#xef;" horiz-adv-x="569" d="M-20 1190v182h198v-182h-198zM188 0v1006h195v-1006h-195zM389 1190v182h201v-182h-201z" />
<glyph unicode="&#xf0;" horiz-adv-x="1243" d="M86 500q0 115 30.5 211t96.5 166.5t167 110.5t243 40q29 0 58.5 -4t61.5 -10l-81 129h-316v127h234l-107 170h213l107 -170h223v-127h-144q104 -152 162 -255.5t85.5 -176t32.5 -121.5t5 -90q0 -115 -31.5 -211t-97 -166t-166 -110t-239.5 -40q-147 0 -249 42t-166.5 114 t-93 167t-28.5 204zM285 500q0 -72 18.5 -141.5t58 -124t104 -88t157.5 -33.5q96 0 160.5 36.5t103.5 94t55 126t16 130.5q0 70 -18 139.5t-58 124.5t-103.5 90t-155.5 35q-98 0 -163 -37t-104 -94.5t-55 -126t-16 -131.5z" />
<glyph unicode="&#xf1;" d="M125 0v1006h186v-132q59 68 163 111t216 43q115 0 207 -20.5t156.5 -64.5t98.5 -112.5t34 -164.5v-666h-195v641q0 59 -25.5 105.5t-71.5 79t-107.5 49t-131.5 16.5q-150 0 -243 -74t-93 -203v-614h-194zM229 1253q8 51 34 86t60.5 55.5t76.5 30t85 9.5q41 0 84 -13.5 t84 -29t80 -27.5t72 -12q35 0 64.5 9t58.5 50h135q-6 -47 -30.5 -82t-60.5 -57.5t-80 -32.5t-89 -10q-41 0 -82 13t-81 29.5t-79 30t-78 13.5q-35 0 -65.5 -9.5t-59.5 -52.5h-129z" />
<glyph unicode="&#xf2;" horiz-adv-x="1312" d="M86 504q0 117 34 212t104.5 164.5t178 107.5t254.5 38t255 -38t177.5 -107.5t103.5 -164.5t34 -212q0 -252 -143.5 -389.5t-426.5 -137.5q-285 0 -428 137.5t-143 389.5zM285 502q0 -78 21.5 -147.5t66.5 -123t115.5 -84t168.5 -30.5t169 30.5t115 84t65.5 123 t21.5 147.5t-21.5 148.5t-65.5 124.5t-115 86t-169 32t-168.5 -32t-115.5 -86t-66.5 -124.5t-21.5 -148.5zM383 1409l164 107l287 -336l-121 -82z" />
<glyph unicode="&#xf3;" horiz-adv-x="1312" d="M86 504q0 117 34 212t104.5 164.5t178 107.5t254.5 38t255 -38t177.5 -107.5t103.5 -164.5t34 -212q0 -252 -143.5 -389.5t-426.5 -137.5q-285 0 -428 137.5t-143 389.5zM285 502q0 -78 21.5 -147.5t66.5 -123t115.5 -84t168.5 -30.5t169 30.5t115 84t65.5 123 t21.5 147.5t-21.5 148.5t-65.5 124.5t-115 86t-169 32t-168.5 -32t-115.5 -86t-66.5 -124.5t-21.5 -148.5zM487 1180l287 336l160 -107l-330 -311z" />
<glyph unicode="&#xf4;" horiz-adv-x="1312" d="M86 504q0 117 34 212t104.5 164.5t178 107.5t254.5 38t255 -38t177.5 -107.5t103.5 -164.5t34 -212q0 -252 -143.5 -389.5t-426.5 -137.5q-285 0 -428 137.5t-143 389.5zM285 502q0 -78 21.5 -147.5t66.5 -123t115.5 -84t168.5 -30.5t169 30.5t115 84t65.5 123 t21.5 147.5t-21.5 148.5t-65.5 124.5t-115 86t-169 32t-168.5 -32t-115.5 -86t-66.5 -124.5t-21.5 -148.5zM332 1194l235 250h181l233 -250l-119 -80l-203 213l-208 -213z" />
<glyph unicode="&#xf5;" horiz-adv-x="1312" d="M86 504q0 117 34 212t104.5 164.5t178 107.5t254.5 38t255 -38t177.5 -107.5t103.5 -164.5t34 -212q0 -252 -143.5 -389.5t-426.5 -137.5q-285 0 -428 137.5t-143 389.5zM240 1253q8 51 32.5 86t59.5 55.5t77 30t85 9.5q41 0 84 -13.5t83.5 -29t79.5 -27.5t72 -12 q35 0 64.5 9t58.5 50h135q-6 -47 -30.5 -82t-60.5 -57.5t-80 -32.5t-89 -10q-41 0 -82 13t-81 29.5t-79 30t-77 13.5q-33 0 -64.5 -9.5t-60.5 -52.5h-127zM285 502q0 -78 21.5 -147.5t66.5 -123t115.5 -84t168.5 -30.5t169 30.5t115 84t65.5 123t21.5 147.5t-21.5 148.5 t-65.5 124.5t-115 86t-169 32t-168.5 -32t-115.5 -86t-66.5 -124.5t-21.5 -148.5z" />
<glyph unicode="&#xf6;" horiz-adv-x="1312" d="M86 504q0 117 34 212t104.5 164.5t178 107.5t254.5 38t255 -38t177.5 -107.5t103.5 -164.5t34 -212q0 -252 -143.5 -389.5t-426.5 -137.5q-285 0 -428 137.5t-143 389.5zM285 502q0 -78 21.5 -147.5t66.5 -123t115.5 -84t168.5 -30.5t169 30.5t115 84t65.5 123 t21.5 147.5t-21.5 148.5t-65.5 124.5t-115 86t-169 32t-168.5 -32t-115.5 -86t-66.5 -124.5t-21.5 -148.5zM350 1186v182h203v-182h-203zM762 1186v182h203v-182h-203z" />
<glyph unicode="&#xf7;" horiz-adv-x="1343" d="M96 551v151h1151v-151h-1151zM551 168v207h242v-207h-242zM551 879v208h242v-208h-242z" />
<glyph unicode="&#xf8;" horiz-adv-x="1312" d="M86 504q0 117 34 212t103.5 164.5t177 107.5t254.5 38q109 0 191 -20l41 77h170l-70 -129q123 -66 181.5 -181.5t58.5 -268.5q0 -252 -143.5 -389.5t-428.5 -137.5q-98 0 -178 19l-37 -74h-170l64 121q-123 61 -185.5 178t-62.5 283zM285 502q0 -94 30.5 -176t96.5 -136 l364 687q-55 16 -121 16q-98 0 -168.5 -32t-114.5 -86t-65.5 -124.5t-21.5 -148.5zM547 127q25 -4 52 -7t56 -3q98 0 169 30.5t116 84t65.5 123t20.5 147.5q0 92 -28.5 171t-88.5 134z" />
<glyph unicode="&#xf9;" d="M125 340v666h194v-641q0 -59 26 -105.5t72 -79.5t106.5 -49t131.5 -16q150 0 243 73.5t93 202.5v615h195v-1006h-187v137q-59 -68 -162.5 -114t-215.5 -46q-115 0 -207 20.5t-156.5 64.5t-98.5 113t-34 165zM385 1407l160 104l284 -331l-114 -80z" />
<glyph unicode="&#xfa;" d="M125 340v666h194v-641q0 -59 26 -105.5t72 -79.5t106.5 -49t131.5 -16q150 0 243 73.5t93 202.5v615h195v-1006h-187v137q-59 -68 -162.5 -114t-215.5 -46q-115 0 -207 20.5t-156.5 64.5t-98.5 113t-34 165zM485 1180l281 331l162 -104l-326 -307z" />
<glyph unicode="&#xfb;" d="M125 340v666h194v-641q0 -59 26 -105.5t72 -79.5t106.5 -49t131.5 -16q150 0 243 73.5t93 202.5v615h195v-1006h-187v137q-59 -68 -162.5 -114t-215.5 -46q-115 0 -207 20.5t-156.5 64.5t-98.5 113t-34 165zM332 1169l235 246h178l238 -246l-121 -79l-207 208l-206 -208z " />
<glyph unicode="&#xfc;" d="M125 340v666h194v-641q0 -59 26 -105.5t72 -79.5t106.5 -49t131.5 -16q150 0 243 73.5t93 202.5v615h195v-1006h-187v137q-59 -68 -162.5 -114t-215.5 -46q-115 0 -207 20.5t-156.5 64.5t-98.5 113t-34 165zM344 1229v182h203v-182h-203zM758 1229v182h203v-182h-203z " />
<glyph unicode="&#xfd;" horiz-adv-x="1202" d="M16 1006h203l377 -816l383 816h207l-584 -1172q-23 -47 -49.5 -88t-62 -71.5t-80.5 -48t-107 -17.5q-53 0 -91 5t-73 15v133q12 -4 31 -6q16 -2 36.5 -3t47.5 -1q61 0 99 24.5t63.5 61.5t42 80t33.5 80zM438 1180l285 331l160 -104l-324 -307z" />
<glyph unicode="&#xfe;" horiz-adv-x="1302" d="M125 -410v1846h203v-521q45 49 139.5 81t198.5 32q150 0 255 -41t172.5 -111.5t99.5 -166t32 -205.5q0 -113 -32 -209t-99.5 -167t-173 -111t-254.5 -40q-98 0 -191.5 25t-152.5 86v-498h-197zM307 504q0 -72 19.5 -141.5t62.5 -124t111.5 -88t165.5 -33.5 q92 0 159.5 30.5t110.5 84t64.5 123t21.5 149.5q0 70 -20.5 138.5t-63.5 123.5t-110.5 90t-161.5 35q-104 0 -173 -35t-111 -90t-58.5 -125t-16.5 -137z" />
<glyph unicode="&#xff;" horiz-adv-x="1202" d="M16 1006h203l377 -816l383 816h207l-584 -1172q-23 -47 -49.5 -88t-62 -71.5t-80.5 -48t-107 -17.5q-53 0 -91 5t-73 15v133q12 -4 31 -6q16 -2 36.5 -3t47.5 -1q61 0 99 24.5t63.5 61.5t42 80t33.5 80zM299 1188v182h193v-182h-193zM705 1188v182h198v-182h-198z" />
<glyph unicode="&#x152;" horiz-adv-x="2392" d="M88 713q0 141 31 272t107.5 232.5t208.5 163t337 61.5q172 0 292 -53.5t198 -143.5v174h1015v-155h-811v-478h762v-151h-762v-479h834v-156h-1038v182q-66 -92 -188 -147t-302 -55q-197 0 -328 60t-209.5 161.5t-112.5 233.5t-34 278zM291 713q0 -104 18.5 -207 t70.5 -183.5t142 -130t236 -49.5h30q145 0 237.5 49.5t145 130t71 183t18.5 207.5q0 111 -20.5 212t-74 180t-143.5 125t-231 46h-33q-139 0 -229.5 -46t-143.5 -125t-73.5 -180.5t-20.5 -211.5z" />
<glyph unicode="&#x153;" horiz-adv-x="2201" d="M78 504q0 117 33.5 212t104.5 164.5t178.5 107.5t254.5 38q168 0 284 -54t185 -143q74 96 195 146.5t278 50.5q123 0 223.5 -32.5t172 -97.5t110.5 -162t39 -228v-37h-917q4 -72 27.5 -136.5t69.5 -113.5t115.5 -77.5t165.5 -28.5q131 0 216 51t126 170h201 q-49 -195 -189.5 -276t-353.5 -81q-174 0 -291.5 54.5t-185.5 142.5q-72 -92 -188.5 -144.5t-282.5 -52.5q-285 0 -428 137.5t-143 389.5zM276 502q0 -78 21.5 -147.5t67 -123t116 -84t168.5 -30.5q94 0 164 29.5t115 79.5t67.5 118t24.5 141v17q0 78 -21.5 148.5 t-65.5 124.5t-115 86t-169 32t-168.5 -32t-116 -86t-67 -124.5t-21.5 -148.5zM1219 596h712q-4 59 -29.5 113.5t-68.5 94.5t-104.5 63.5t-137.5 23.5t-142.5 -23.5t-115.5 -63.5t-79.5 -93.5t-34.5 -114.5z" />
<glyph unicode="&#x178;" horiz-adv-x="1400" d="M-12 1419h233l477 -706l490 706h225l-618 -864v-555h-201v555zM338 1556v193h211v-193h-211zM848 1556v193h213v-193h-213z" />
<glyph unicode="&#x2c6;" horiz-adv-x="632" d="M-82 1090l313 329h181l303 -329h-187l-204 215l-207 -215h-199z" />
<glyph unicode="&#x2dc;" horiz-adv-x="710" d="M-61 1253q8 51 33.5 86t60.5 55.5t77 30t85 9.5q41 0 84 -13.5t83.5 -29t79.5 -27.5t72 -12q35 0 64.5 9t58.5 50h135q-6 -47 -30.5 -82t-60.5 -57.5t-80 -32.5t-89 -10q-41 0 -82 13t-81 29.5t-79 30t-77 13.5q-35 0 -65.5 -9.5t-59.5 -52.5h-129z" />
<glyph unicode="&#x2000;" horiz-adv-x="947" />
<glyph unicode="&#x2001;" horiz-adv-x="1894" />
<glyph unicode="&#x2002;" horiz-adv-x="947" />
<glyph unicode="&#x2003;" horiz-adv-x="1894" />
<glyph unicode="&#x2004;" horiz-adv-x="631" />
<glyph unicode="&#x2005;" horiz-adv-x="473" />
<glyph unicode="&#x2006;" horiz-adv-x="315" />
<glyph unicode="&#x2007;" horiz-adv-x="315" />
<glyph unicode="&#x2008;" horiz-adv-x="236" />
<glyph unicode="&#x2009;" horiz-adv-x="378" />
<glyph unicode="&#x200a;" horiz-adv-x="105" />
<glyph unicode="&#x2010;" horiz-adv-x="976" d="M133 524v150h711v-150h-711z" />
<glyph unicode="&#x2011;" horiz-adv-x="976" d="M133 524v150h711v-150h-711z" />
<glyph unicode="&#x2012;" horiz-adv-x="976" d="M133 524v150h711v-150h-711z" />
<glyph unicode="&#x2013;" horiz-adv-x="1267" d="M0 526v142h1268v-142h-1268z" />
<glyph unicode="&#x2014;" horiz-adv-x="2297" d="M0 526v142h2298v-142h-2298z" />
<glyph unicode="&#x2018;" horiz-adv-x="786" d="M215 1006l197 413h159l-112 -413h-244z" />
<glyph unicode="&#x2019;" horiz-adv-x="782" d="M215 1006l113 413h239l-198 -413h-154z" />
<glyph unicode="&#x201a;" horiz-adv-x="774" d="M215 -195l100 410h244l-184 -410h-160z" />
<glyph unicode="&#x201c;" horiz-adv-x="1062" d="M150 1006l198 413h158l-113 -413h-243zM557 1006l197 413h159l-112 -413h-244z" />
<glyph unicode="&#x201d;" horiz-adv-x="1060" d="M150 1006l112 413h242l-197 -413h-157zM557 1006l115 413h239l-198 -413h-156z" />
<glyph unicode="&#x201e;" horiz-adv-x="1036" d="M150 -195l100 410h244l-185 -410h-159zM543 -195l100 410h244l-185 -410h-159z" />
<glyph unicode="&#x2022;" horiz-adv-x="1767" d="M147 709q0 152 57.5 285.5t158 233t234.5 158t286 58.5t286 -58.5t233 -158t157.5 -233.5t58.5 -285q0 -152 -58.5 -286t-157.5 -234.5t-233.5 -158t-285.5 -57.5q-152 0 -286 57.5t-234.5 158t-158 234.5t-57.5 286z" />
<glyph unicode="&#x2026;" horiz-adv-x="1888" d="M215 0v211h254v-211h-254zM817 0v211h254v-211h-254zM1419 0v211h254v-211h-254z" />
<glyph unicode="&#x202f;" horiz-adv-x="378" />
<glyph unicode="&#x2039;" horiz-adv-x="937" d="M158 504l393 461h229l-393 -461l393 -459h-229z" />
<glyph unicode="&#x203a;" horiz-adv-x="937" d="M158 45l393 459l-393 461h229l393 -461l-393 -459h-229z" />
<glyph unicode="&#x205f;" horiz-adv-x="473" />
<glyph unicode="&#x20ac;" horiz-adv-x="1511" d="M20 492v145h168q-2 12 -2 30.5v41.5v73h-166v148h185q43 250 209 382t463 132q123 0 227 -23.5t182 -68.5t123 -109.5t49 -146.5h-207q-41 92 -140 136t-234 44q-180 0 -297 -86t-152 -260h600v-148h-618v-73v-41.5t4 -30.5h614v-145h-600q35 -174 152.5 -260.5 t296.5 -86.5q133 0 234 42t138 139h213q-14 -90 -66.5 -156t-132 -109t-180 -63.5t-206.5 -20.5q-166 0 -285 40t-199 110t-125 164t-63 201h-185z" />
<glyph unicode="&#x2122;" horiz-adv-x="1327" d="M39 1335v84h442v-84h-166v-495h-90v495h-186zM545 840v579h131l162 -409l161 409h134v-579h-89v479l-182 -479h-47l-182 479v-479h-88z" />
<glyph unicode="&#x25fc;" horiz-adv-x="1003" d="M0 0v1004h1004v-1004h-1004z" />
</font>
</defs>
</svg>
