<?xml version="1.0" standalone="no"?>
<!DOCTYPE svg PUBLIC "-//W3C//DTD SVG 1.1//EN" "http://www.w3.org/Graphics/SVG/1.1/DTD/svg11.dtd" >
<svg>
<metadata>
Created by FontForge 20110222 at Mon Feb 27 15:26:28 2017
 By Rezo Zero Webserver user,,,
Copyright (c) 2014 by Matthieu Cortat. All rights reserved.
</metadata>
<defs>
<font id="RoadizSans-Medium" horiz-adv-x="572" >
  <font-face 
    font-family="Roadiz Sans"
    font-weight="400"
    font-stretch="normal"
    units-per-em="1000"
    panose-1="2 11 6 0 3 0 4 2 0 4"
    ascent="800"
    descent="-200"
    x-height="552"
    cap-height="714"
    bbox="-151 -240 1356 938"
    underline-thickness="50"
    underline-position="-50"
    stemh="76"
    stemv="83"
    unicode-range="U+0020-FB04"
  />
<missing-glyph horiz-adv-x="260" 
 />
    <glyph glyph-name=".notdef" horiz-adv-x="260" 
 />
    <glyph glyph-name="exclam" unicode="!" horiz-adv-x="250" 
d="M176 714l-25 -517h-51l-25 517h101zM67 49c0 37 29 59 59 59c29 0 57 -22 57 -59c0 -36 -28 -59 -57 -59c-30 0 -59 23 -59 59z" />
    <glyph glyph-name="quotedbl" unicode="&#x22;" horiz-adv-x="420" 
d="M78 714h95l-22 -228h-50zM247 714h95l-22 -228h-50z" />
    <glyph glyph-name="numbersign" unicode="#" horiz-adv-x="636" 
d="M618 434h-140l-33 -156h137v-70h-150l-40 -208h-74l41 208h-138l-40 -208h-76l40 208h-127v70h139l33 156h-134v68h146l38 212h76l-40 -212h140l41 212h72l-39 -212h128v-68zM263 434l-32 -156h138l33 156h-139z" />
    <glyph glyph-name="dollar" unicode="$" horiz-adv-x="549" 
d="M321 -140h-68v130c-83 1 -145 21 -201 50l10 89c62 -37 116 -62 191 -63v265l-44 19c-96 41 -148 95 -148 187c0 95 76 170 192 184v132h68v-130c60 -3 111 -18 163 -42l-18 -87c-41 25 -94 46 -145 52v-250l42 -17c90 -37 143 -101 143 -197c0 -99 -66 -170 -185 -187
v-135zM145 537c0 -60 40 -85 94 -107l14 -6v221c-70 -12 -108 -56 -108 -108zM331 299l-10 4v-231c65 15 99 56 99 109c0 52 -25 91 -89 118z" />
    <glyph glyph-name="percent" unicode="%" horiz-adv-x="882" 
d="M552 714h82l-306 -714h-82zM94 521c0 -91 33 -139 87 -139c53 0 90 48 90 139c0 90 -37 138 -90 138c-54 0 -87 -47 -87 -138zM341 521c0 -138 -69 -205 -160 -205c-86 0 -157 70 -157 205c0 138 67 203 157 203c89 0 160 -70 160 -203zM611 196c0 -91 33 -139 87 -139
c53 0 90 48 90 139c0 90 -37 138 -90 138c-54 0 -87 -47 -87 -138zM858 196c0 -138 -69 -205 -160 -205c-86 0 -157 70 -157 205c0 138 67 203 157 203c89 0 160 -70 160 -203z" />
    <glyph glyph-name="ampersand" unicode="&#x26;" horiz-adv-x="730" 
d="M194 561c0 -43 29 -75 60 -106l20 -21l23 14c52 31 85 57 85 114c0 50 -37 86 -89 86c-55 0 -99 -32 -99 -87zM278 66c69 0 128 28 178 79l-208 203c-70 -36 -115 -83 -115 -155c0 -77 61 -127 145 -127zM47 191c0 97 58 164 147 209l-15 16c-43 45 -69 84 -69 145
c0 94 79 163 182 163s175 -67 175 -162c0 -75 -39 -121 -122 -167l-20 -11l182 -174c28 45 49 97 59 159h86c-13 -81 -49 -155 -90 -213l160 -156h-115l-97 92c-66 -65 -129 -102 -233 -102c-139 0 -230 80 -230 201z" />
    <glyph glyph-name="quotesingle" unicode="'" horiz-adv-x="250" 
d="M78 714h95l-22 -228h-50z" />
    <glyph glyph-name="parenleft" unicode="(" horiz-adv-x="296" 
d="M137 272c0 -181 55 -346 149 -472h-74c-95 113 -162 279 -162 471s67 358 162 471h74c-94 -126 -149 -291 -149 -470z" />
    <glyph glyph-name="parenright" unicode=")" horiz-adv-x="296" 
d="M159 272c0 179 -55 344 -149 470h74c95 -113 162 -279 162 -471s-67 -358 -162 -471h-74c94 126 149 291 149 472z" />
    <glyph glyph-name="asterisk" unicode="*" 
d="M238 714h95l-22 -204l205 56l14 -89l-199 -15l129 -169l-84 -46l-92 188l-84 -188l-86 46l126 169l-197 15l15 89l202 -56z" />
    <glyph glyph-name="plus" unicode="+" 
d="M319 600v-209h201v-67h-201v-208h-68v208h-200v67h200v209h68z" />
    <glyph glyph-name="comma" unicode="," horiz-adv-x="250" 
d="M94 108h99l-90 -236h-60z" />
    <glyph glyph-name="hyphen" unicode="-" horiz-adv-x="340" 
d="M300 231h-260v74h260v-74z" />
    <glyph glyph-name="period" unicode="." horiz-adv-x="250" 
d="M67 49c0 37 29 59 59 59c29 0 57 -22 57 -59c0 -36 -28 -59 -57 -59c-30 0 -59 23 -59 59z" />
    <glyph glyph-name="slash" unicode="/" horiz-adv-x="408" 
d="M316 714h82l-306 -714h-82z" />
    <glyph glyph-name="zero" unicode="0" 
d="M525 358c0 -247 -92 -368 -239 -368s-239 121 -239 368s92 366 239 366s239 -119 239 -366zM440 358c0 208 -61 290 -153 290s-154 -82 -154 -290s61 -292 153 -292s154 84 154 292z" />
    <glyph glyph-name="one" unicode="1" 
d="M392 714v-714h-82v616l-97 -79l-71 -55l-45 62l219 170h76z" />
    <glyph glyph-name="two" unicode="2" 
d="M87 582l-12 83c51 35 118 59 198 59c128 0 220 -83 220 -207c0 -96 -38 -156 -184 -295l-156 -148h367v-74h-469v70l188 189c141 141 168 191 168 260c0 80 -54 127 -134 127c-65 0 -127 -24 -186 -64z" />
    <glyph glyph-name="three" unicode="3" 
d="M54 57l22 83c60 -51 129 -74 192 -74c107 0 161 54 161 131c0 76 -62 140 -204 140h-70v74h60c133 0 192 58 192 124c0 64 -51 111 -136 111c-65 0 -127 -24 -185 -64l-12 81c51 34 120 61 198 61c123 0 221 -76 221 -186c0 -80 -45 -134 -157 -162
c106 -14 179 -81 179 -182c0 -128 -99 -204 -247 -204c-96 0 -166 33 -214 67z" />
    <glyph glyph-name="four" unicode="4" 
d="M552 238v-78h-102v-160h-82v160h-347v75l336 479h93v-476h102zM117 238h251v375l-111 -170z" />
    <glyph glyph-name="five" unicode="5" 
d="M52 46l16 84c53 -41 117 -64 194 -64c110 0 169 69 169 161c0 90 -68 152 -180 152c-70 0 -123 -13 -171 -30l29 365h355l-15 -74h-273l-16 -204c36 7 68 13 109 13c148 0 248 -88 248 -224c0 -128 -94 -235 -255 -235c-90 0 -155 23 -210 56z" />
    <glyph glyph-name="six" unicode="6" 
d="M496 694l-10 -82c-45 24 -92 36 -141 36c-61 0 -106 -26 -136 -65c-37 -48 -63 -120 -67 -218c42 56 97 83 170 83c117 0 217 -94 217 -226c0 -129 -95 -232 -229 -232c-79 0 -147 34 -187 87c-45 59 -57 129 -57 225c0 155 34 255 86 325c47 63 117 97 203 97
c56 0 107 -11 151 -30zM144 226c0 -87 58 -160 155 -160c92 0 146 72 146 157s-60 151 -149 151s-152 -61 -152 -148z" />
    <glyph glyph-name="seven" unicode="7" 
d="M233 0h-100l213 439l101 201h-397v74h475v-65z" />
    <glyph glyph-name="eight" unicode="8" 
d="M53 187c0 90 56 152 142 188c-73 36 -119 90 -119 165c0 105 91 184 208 184c123 0 211 -71 211 -184c0 -82 -55 -131 -131 -162l4 -1c92 -42 152 -93 152 -192c0 -108 -90 -195 -232 -195c-146 0 -235 84 -235 197zM331 311l-67 31c-92 -38 -129 -91 -129 -152
c0 -72 62 -124 153 -124c89 0 149 52 149 120c0 58 -36 92 -106 125zM157 540c0 -48 30 -81 91 -109l43 -20c86 32 123 74 123 129c0 63 -55 108 -130 108s-127 -48 -127 -108z" />
    <glyph glyph-name="nine" unicode="9" 
d="M76 20l10 82c45 -24 92 -36 141 -36c61 0 106 26 136 65c37 48 63 120 67 218c-42 -56 -97 -83 -170 -83c-117 0 -217 94 -217 226c0 129 95 232 229 232c79 0 147 -34 187 -87c45 -59 57 -129 57 -225c0 -155 -33 -257 -85 -327c-47 -63 -118 -95 -204 -95
c-56 0 -107 11 -151 30zM428 488c0 87 -58 160 -155 160c-92 0 -146 -72 -146 -157s60 -151 149 -151s152 61 152 148z" />
    <glyph glyph-name="colon" unicode=":" horiz-adv-x="250" 
d="M67 49c0 37 29 59 59 59c29 0 57 -22 57 -59c0 -36 -28 -59 -57 -59c-30 0 -59 23 -59 59zM67 507c0 37 29 59 59 59c29 0 57 -22 57 -59c0 -36 -28 -59 -57 -59c-30 0 -59 23 -59 59z" />
    <glyph glyph-name="semicolon" unicode=";" horiz-adv-x="250" 
d="M94 108h99l-90 -236h-60zM67 507c0 37 29 59 59 59c29 0 57 -22 57 -59c0 -36 -28 -59 -57 -59c-30 0 -59 23 -59 59z" />
    <glyph glyph-name="less" unicode="&#x3c;" 
d="M51 333v50l469 208v-78l-376 -155l376 -155v-78z" />
    <glyph glyph-name="equal" unicode="=" 
d="M51 491h469v-67h-469v67zM51 291h469v-67h-469v67z" />
    <glyph glyph-name="greater" unicode="&#x3e;" 
d="M520 383v-50l-469 -208v78l376 155l-376 155v78z" />
    <glyph glyph-name="question" unicode="?" horiz-adv-x="429" 
d="M123 49c0 37 29 59 59 59c29 0 57 -22 57 -59c0 -36 -28 -59 -57 -59c-30 0 -59 23 -59 59zM408 538c0 -52 -21 -96 -67 -139l-91 -85c-30 -28 -41 -51 -41 -82c0 -17 3 -27 4 -35h-53c-7 17 -10 39 -10 53c0 51 18 82 51 113l55 53c48 46 71 82 71 121
c0 62 -39 112 -135 112c-60 0 -115 -21 -163 -55l-16 78c51 31 111 52 180 52c138 0 215 -86 215 -186z" />
    <glyph glyph-name="at" unicode="@" horiz-adv-x="951" 
d="M901 341c0 -177 -82 -268 -183 -268c-74 0 -125 43 -134 103c-29 -63 -74 -103 -147 -103c-90 0 -162 70 -162 202c0 140 92 242 234 242c57 0 102 -9 157 -24c-9 -119 -14 -162 -14 -240s22 -104 66 -104c63 0 101 80 101 193c0 182 -120 308 -301 308
c-221 0 -377 -148 -377 -382c0 -200 120 -330 330 -330c72 0 150 12 231 48l9 -78c-68 -29 -144 -46 -240 -46c-255 0 -411 155 -411 406c0 276 192 457 457 457c227 0 384 -164 384 -384zM362 273c0 -85 33 -124 86 -124c67 0 117 56 124 154l9 130c-24 6 -53 8 -75 8
c-85 0 -144 -67 -144 -168z" />
    <glyph glyph-name="A" unicode="A" horiz-adv-x="644" 
d="M639 0h-87l-73 187h-317l-73 -187h-84l277 714h81zM190 261h263l-61 161l-71 204l-64 -189z" />
    <glyph glyph-name="B" unicode="B" horiz-adv-x="610" 
d="M98 0v714h205c160 0 224 -88 224 -185c0 -82 -39 -140 -136 -153c104 -13 162 -77 162 -173c0 -127 -93 -203 -246 -203h-209zM181 74h103c122 0 183 45 183 130c0 84 -57 133 -173 133h-26v74h19c106 0 156 39 156 113c0 75 -47 116 -147 116h-115v-566z" />
    <glyph glyph-name="C" unicode="C" horiz-adv-x="631" 
d="M407 -10c-189 0 -348 135 -348 366c0 228 145 368 350 368c65 0 123 -7 182 -30l-10 -87c-57 29 -112 41 -171 41c-151 0 -263 -94 -263 -294c0 -187 121 -288 265 -288c65 0 118 12 178 43l10 -84c-60 -27 -123 -35 -193 -35z" />
    <glyph glyph-name="D" unicode="D" horiz-adv-x="700" 
d="M98 714h189c216 0 351 -136 351 -358c0 -225 -148 -356 -356 -356h-184v714zM297 642h-116v-570h101c159 0 268 101 268 282c0 194 -100 288 -253 288z" />
    <glyph glyph-name="E" unicode="E" horiz-adv-x="556" 
d="M496 74v-74h-398v714h388v-74h-305v-229h286v-74h-286v-263h315z" />
    <glyph glyph-name="F" unicode="F" horiz-adv-x="516" 
d="M181 337v-337h-83v714h398v-74h-315v-229h276v-74h-276z" />
    <glyph glyph-name="G" unicode="G" horiz-adv-x="718" 
d="M635 24c-68 -22 -132 -34 -196 -34c-220 0 -378 135 -378 366c0 228 150 368 350 368c65 0 123 -7 182 -30l-10 -86c-60 27 -112 40 -171 40c-149 0 -263 -94 -263 -294c0 -187 121 -288 289 -288c36 0 74 5 116 13v211h-152v74h233v-340z" />
    <glyph glyph-name="H" unicode="H" horiz-adv-x="718" 
d="M620 714v-714h-83v336h-356v-336h-83v714h83v-304h356v304h83z" />
    <glyph glyph-name="J" unicode="J" horiz-adv-x="433" 
d="M45 640v74h304v-474c0 -155 -99 -250 -246 -250c-23 0 -44 3 -63 9l7 76c20 -7 41 -9 64 -9c91 0 155 67 155 169v405h-221z" />
    <glyph glyph-name="K" unicode="K" horiz-adv-x="624" 
d="M181 714v-714h-83v714h83zM521 0l-311 394l302 320h101l-301 -320l312 -394h-103z" />
    <glyph glyph-name="L" unicode="L" horiz-adv-x="519" 
d="M496 0h-398v714h83v-639h315v-75z" />
    <glyph glyph-name="M" unicode="M" horiz-adv-x="761" 
d="M410 200h-67l-175 387l7 -433v-154h-77v714h95l185 -403l191 403h94v-714h-83v160l7 426z" />
    <glyph glyph-name="N" unicode="N" horiz-adv-x="754" 
d="M656 0h-61l-422 597l4 -230v-367h-79v714h85l397 -542l-4 234v308h80v-714z" />
    <glyph glyph-name="O" unicode="O" horiz-adv-x="779" 
d="M150 354c0 -181 101 -288 244 -288c142 0 236 118 236 295c0 182 -108 287 -246 287c-144 0 -234 -100 -234 -294zM717 357c0 -216 -124 -367 -330 -367c-177 0 -325 139 -325 367c0 219 126 367 329 367c206 0 326 -163 326 -367z" />
    <glyph glyph-name="P" unicode="P" horiz-adv-x="596" 
d="M267 283h-86v-283h-83v714h191c173 0 262 -86 262 -215c0 -145 -103 -216 -284 -216zM278 640h-97v-283h86c132 0 198 48 198 143c0 88 -62 140 -187 140z" />
    <glyph glyph-name="Q" unicode="Q" horiz-adv-x="779" 
d="M716 0h-97l-39 47c-52 -37 -117 -57 -193 -57c-177 0 -325 139 -325 367c0 219 126 367 329 367c206 0 326 -163 326 -367c0 -105 -29 -195 -83 -259zM379 283h97l101 -119c34 50 53 117 53 197c0 182 -108 287 -246 287c-144 0 -234 -100 -234 -294
c0 -181 101 -288 244 -288c51 0 96 15 133 43z" />
    <glyph glyph-name="R" unicode="R" horiz-adv-x="626" 
d="M267 283h-86v-283h-83v714h191c173 0 262 -86 262 -215c0 -97 -49 -166 -145 -197l195 -302h-98l-179 285c-18 -2 -37 -2 -57 -2zM278 640h-97v-283h86c132 0 198 48 198 143c0 87 -62 140 -187 140z" />
    <glyph glyph-name="S" unicode="S" horiz-adv-x="549" 
d="M506 182c0 -115 -90 -192 -249 -192c-85 0 -148 21 -205 50l10 89c64 -38 120 -63 198 -63c104 0 160 47 160 115c0 52 -25 91 -89 118l-122 51c-96 41 -148 95 -148 187c0 106 93 187 231 187c74 0 132 -15 192 -43l-18 -87c-48 30 -113 54 -173 54
c-96 0 -148 -49 -148 -111c0 -60 40 -85 94 -107l124 -51c90 -37 143 -101 143 -197z" />
    <glyph glyph-name="T" unicode="T" horiz-adv-x="499" 
d="M291 640v-640h-83v640h-196v74h475v-74h-196z" />
    <glyph glyph-name="U" unicode="U" horiz-adv-x="690" 
d="M525 249v465h81v-459c0 -171 -106 -265 -261 -265s-261 94 -261 265v459h83v-466c0 -117 73 -180 178 -180c107 0 180 65 180 181z" />
    <glyph glyph-name="V" unicode="V" horiz-adv-x="621" 
d="M388 342l131 372h90l-257 -714h-84l-256 714h89l131 -372l78 -245z" />
    <glyph glyph-name="W" unicode="W" horiz-adv-x="888" 
d="M789 714h89l-239 -714h-82l-114 325l-113 -325h-82l-238 714h88l123 -382l70 -235l77 235l31 92l-106 290h81l70 -203l69 203h82l-108 -290l34 -91l79 -236l68 236z" />
    <glyph glyph-name="X" unicode="X" horiz-adv-x="577" 
d="M335 376l238 -376h-95l-191 311l-187 -311h-96l236 374l-220 340h94l175 -280l174 280h93z" />
    <glyph glyph-name="Y" unicode="Y" horiz-adv-x="584" 
d="M103 714l189 -325l190 325h90l-238 -407v-307h-84v303l-238 411h91z" />
    <glyph glyph-name="Z" unicode="Z" horiz-adv-x="571" 
d="M531 74v-74h-491v65l379 575h-367v74h468v-65l-379 -575h390z" />
    <glyph glyph-name="bracketleft" unicode="[" horiz-adv-x="296" 
d="M278 -134v-66h-213v941h213v-68h-145v-807h145z" />
    <glyph glyph-name="backslash" unicode="\" horiz-adv-x="408" 
d="M10 714h82l306 -714h-82z" />
    <glyph glyph-name="bracketright" unicode="]" horiz-adv-x="296" 
d="M18 -200v66h145v808h-145v68h213v-942h-213z" />
    <glyph glyph-name="asciicircum" unicode="^" 
d="M261 714h50l208 -469h-78l-155 376l-155 -376h-78z" />
    <glyph glyph-name="underscore" unicode="_" horiz-adv-x="500" 
d="M0 -147v68h500v-68h-500z" />
    <glyph glyph-name="grave" unicode="`" horiz-adv-x="500" 
d="M263 782l62 -180h-54l-117 180h109z" />
    <glyph glyph-name="a" unicode="a" horiz-adv-x="559" 
d="M386 83c-44 -63 -97 -93 -173 -93c-104 0 -169 59 -169 155c0 100 68 148 199 169l143 23v19c0 89 -42 126 -125 126c-52 0 -108 -16 -171 -52l-10 83c56 28 112 49 189 49c116 0 200 -60 200 -201v-214c0 -57 11 -103 26 -147h-91c-11 31 -14 56 -18 83zM386 268
l-132 -22c-80 -13 -123 -39 -123 -96c0 -56 40 -86 101 -86c104 0 154 81 154 196v8z" />
    <glyph glyph-name="b" unicode="b" horiz-adv-x="649" 
d="M172 742v-275c38 62 105 95 177 95c152 0 244 -108 244 -285c0 -165 -89 -287 -241 -287c-78 0 -141 36 -180 97v-87h-84v742h84zM170 279c0 -142 59 -213 166 -213c99 0 167 74 167 207c0 130 -59 213 -164 213c-104 0 -169 -75 -169 -207z" />
    <glyph glyph-name="c" unicode="c" horiz-adv-x="507" 
d="M333 -10c-155 0 -283 105 -283 285c0 177 117 287 285 287c52 0 98 -6 145 -24l-10 -81c-49 19 -87 29 -134 29c-125 0 -197 -70 -197 -213c0 -132 79 -207 199 -207c51 0 89 8 139 30l10 -79c-47 -21 -98 -27 -154 -27z" />
    <glyph glyph-name="d" unicode="d" horiz-adv-x="649" 
d="M561 742v-595c0 -57 7 -103 16 -147h-91c-5 31 -5 60 -9 87c-39 -61 -102 -97 -180 -97c-152 0 -241 122 -241 287c0 177 92 285 244 285c72 0 139 -33 177 -95v275h84zM479 279c0 132 -65 207 -169 207c-105 0 -164 -83 -164 -213c0 -133 68 -207 167 -207
c107 0 166 71 166 213z" />
    <glyph glyph-name="e" unicode="e" horiz-adv-x="579" 
d="M336 -10c-170 0 -283 105 -283 287c0 180 122 285 253 285c59 0 91 -10 125 -30c65 -38 100 -110 100 -203c0 -23 -2 -41 -6 -58h-384c0 -129 83 -205 195 -205c59 0 101 12 160 38l9 -84c-47 -19 -105 -30 -169 -30zM307 486c-84 0 -151 -61 -161 -145h299
c0 95 -57 145 -138 145z" />
    <glyph glyph-name="f" unicode="f" horiz-adv-x="391" 
d="M124 552v28c0 113 66 182 179 182c37 0 61 -4 88 -11l-5 -79c-27 11 -48 14 -81 14c-65 0 -98 -35 -98 -106v-28h180l-10 -70h-170v-482h-83v482h-109v70h109z" />
    <glyph glyph-name="g" unicode="g" horiz-adv-x="600" 
d="M543 -55c0 -98 -93 -185 -261 -185c-146 0 -215 67 -215 143c0 49 26 85 63 107c-31 19 -57 53 -57 102c0 54 33 89 70 112c-35 34 -57 81 -57 138c0 121 86 200 213 200c64 0 97 -10 170 -10h119l-10 -70l-134 8c41 -30 59 -82 59 -137c0 -108 -89 -188 -205 -188
c-36 0 -76 8 -107 24c-25 -17 -45 -41 -45 -70c0 -28 21 -50 55 -50c61 0 135 10 196 10c96 0 146 -60 146 -134zM171 363c0 -74 56 -120 125 -120c74 0 122 50 122 121c0 73 -53 123 -121 123c-75 0 -126 -46 -126 -124zM203 -10c-8 0 -15 0 -22 1c-26 -17 -34 -37 -34 -68
c0 -48 42 -91 149 -91c114 0 167 48 167 105c0 40 -24 63 -70 63c-59 0 -131 -10 -190 -10z" />
    <glyph glyph-name="h" unicode="h" horiz-adv-x="632" 
d="M549 0h-83v331c0 106 -40 155 -127 155c-65 0 -110 -26 -139 -79c-22 -40 -28 -94 -28 -159v-248h-84v741h84v-276c38 62 101 97 179 97c41 0 78 -6 108 -23c56 -32 90 -98 90 -202v-337z" />
    <glyph glyph-name="i" unicode="i" horiz-adv-x="258" 
d="M170 0h-82v552h82v-552zM79 691c0 35 24 51 51 51s49 -16 49 -51c0 -33 -22 -51 -49 -51s-51 18 -51 51z" />
    <glyph glyph-name="j" unicode="j" horiz-adv-x="265" 
d="M100 -67v619h82v-621c0 -101 -54 -152 -149 -152c-18 0 -42 4 -59 10v73c18 -4 37 -7 56 -7c44 0 70 24 70 78zM91 691c0 35 24 51 51 51s49 -16 49 -51c0 -33 -22 -51 -49 -51s-51 18 -51 51z" />
    <glyph glyph-name="k" unicode="k" horiz-adv-x="557" 
d="M451 0l-258 315l236 237h105l-239 -236l262 -316h-106zM170 741v-741h-82v741h82z" />
    <glyph glyph-name="l" unicode="l" horiz-adv-x="258" 
d="M170 0h-82v742h82v-742z" />
    <glyph glyph-name="m" unicode="m" horiz-adv-x="889" 
d="M489 0h-83v362c0 85 -31 124 -101 124c-47 0 -86 -24 -110 -66c-17 -32 -23 -79 -23 -131v-289h-84v552h83v-74c34 49 86 84 152 84c35 0 66 -6 92 -22s46 -43 59 -76c31 58 90 98 166 98c42 0 78 -9 106 -31c38 -31 60 -85 60 -161v-370h-83v362c0 85 -31 124 -101 124
c-47 0 -86 -24 -110 -66c-17 -32 -23 -79 -23 -131v-289z" />
    <glyph glyph-name="n" unicode="n" horiz-adv-x="632" 
d="M549 0h-83v331c0 106 -40 155 -127 155c-65 0 -110 -26 -139 -79c-22 -40 -28 -94 -28 -159v-248h-84v552h83v-87c38 62 102 97 180 97c42 0 79 -7 109 -25c56 -32 89 -97 89 -200v-337z" />
    <glyph glyph-name="o" unicode="o" horiz-adv-x="622" 
d="M145 273c0 -132 65 -207 169 -207c105 0 164 83 164 213c0 133 -68 207 -171 207c-106 0 -162 -71 -162 -213zM566 276c0 -174 -97 -286 -257 -286c-138 0 -253 105 -253 286c0 176 98 286 256 286c160 0 254 -124 254 -286z" />
    <glyph glyph-name="p" unicode="p" horiz-adv-x="649" 
d="M172 85v-305h-84v772h84v-87c39 61 102 97 180 97c152 0 241 -122 241 -287c0 -177 -92 -285 -244 -285c-72 0 -139 33 -177 95zM170 273c0 -132 65 -207 169 -207c105 0 164 83 164 213c0 133 -68 207 -167 207c-107 0 -166 -71 -166 -213z" />
    <glyph glyph-name="q" unicode="q" horiz-adv-x="651" 
d="M477 -220v305c-38 -62 -105 -95 -177 -95c-152 0 -244 108 -244 285c0 165 89 287 241 287c78 0 141 -36 180 -97v87h84v-772h-84zM479 273c0 142 -59 213 -166 213c-99 0 -167 -74 -167 -207c0 -130 59 -213 164 -213c104 0 169 75 169 207z" />
    <glyph glyph-name="r" unicode="r" horiz-adv-x="453" 
d="M433 554l-8 -90c-20 8 -40 15 -74 15c-77 0 -128 -33 -154 -88c-19 -40 -25 -88 -25 -153v-238h-84v552h83v-100c39 68 102 110 185 110c29 0 52 -3 77 -8z" />
    <glyph glyph-name="s" unicode="s" horiz-adv-x="494" 
d="M446 142c0 -97 -71 -152 -195 -152c-92 0 -144 17 -196 46l11 90c58 -34 105 -60 183 -60c75 0 112 25 112 76c0 31 -11 53 -66 76l-129 52c-81 32 -113 86 -113 147c0 91 81 145 198 145c68 0 118 -10 165 -37l-10 -88c-51 31 -98 49 -154 49c-80 0 -115 -27 -115 -66
c0 -29 13 -50 64 -71l128 -52c91 -37 117 -90 117 -155z" />
    <glyph glyph-name="t" unicode="t" horiz-adv-x="421" 
d="M192 482v-303c0 -75 35 -113 104 -113c39 0 70 10 97 19l4 -81c-28 -9 -62 -14 -103 -14c-120 0 -185 59 -185 176v316h-109v70h109v109l83 28v-137h199l-10 -70h-189z" />
    <glyph glyph-name="u" unicode="u" horiz-adv-x="628" 
d="M83 552h83v-331c0 -107 43 -155 132 -155c56 0 101 26 130 79c23 40 28 94 28 159v248h84v-552h-83v87c-39 -63 -101 -97 -172 -97c-120 0 -202 66 -202 225v337z" />
    <glyph glyph-name="v" unicode="v" horiz-adv-x="528" 
d="M303 0h-78l-219 552h94l98 -260l68 -183l68 183l98 260h90z" />
    <glyph glyph-name="w" unicode="w" horiz-adv-x="783" 
d="M562 0h-75l-98 244l-90 -244h-78l-215 552h94l96 -260l66 -183l67 183l17 50l-85 210h83l50 -134l49 134h81l-86 -218l87 -225l66 183l96 260h90z" />
    <glyph glyph-name="x" unicode="x" horiz-adv-x="545" 
d="M18 0l203 283l-191 269h104l144 -214l143 214h95l-191 -272l202 -280h-106l-152 224l-151 -224h-100z" />
    <glyph glyph-name="y" unicode="y" horiz-adv-x="543" 
d="M215 -220h-92l109 245l-226 527h92l106 -261l68 -177l175 438h90z" />
    <glyph glyph-name="z" unicode="z" horiz-adv-x="502" 
d="M469 70v-70h-430v62l321 420h-302v70h404v-70l-317 -412h324z" />
    <glyph glyph-name="braceleft" unicode="{" horiz-adv-x="296" 
d="M7 238v66c74 1 105 28 105 91v191c0 103 64 156 163 156h11v-68h-10c-68 0 -96 -37 -96 -97v-194c0 -64 -28 -98 -90 -112c62 -14 90 -48 90 -112v-194c0 -60 28 -97 96 -97h10v-68h-11c-99 0 -163 53 -163 156v191c0 63 -31 90 -105 91z" />
    <glyph glyph-name="bar" unicode="|" horiz-adv-x="244" 
d="M156 -200h-68v942h68v-942z" />
    <glyph glyph-name="braceright" unicode="}" horiz-adv-x="296" 
d="M289 304v-66c-74 -1 -105 -28 -105 -91v-191c0 -103 -64 -156 -163 -156h-11v68h10c68 0 96 37 96 97v194c0 64 28 98 90 112c-62 14 -90 48 -90 112v194c0 60 -28 97 -96 97h-10v68h11c99 0 163 -53 163 -156v-191c0 -63 31 -90 105 -91z" />
    <glyph glyph-name="asciitilde" unicode="~" 
d="M166 420c51 0 89 -13 136 -32c43 -18 72 -27 103 -27c35 0 80 16 115 50v-80c-32 -23 -69 -37 -115 -37c-51 0 -89 12 -136 32c-32 14 -65 27 -103 27c-35 0 -80 -16 -115 -50v80c32 23 69 37 115 37z" />
    <glyph glyph-name="exclamdown" unicode="&#xa1;" horiz-adv-x="250" 
d="M151 517l25 -517h-101l25 517h51zM67 665c0 36 29 59 59 59c29 0 57 -23 57 -59c0 -37 -28 -59 -57 -59c-30 0 -59 22 -59 59z" />
    <glyph glyph-name="cent" unicode="&#xa2;" horiz-adv-x="507" 
d="M366 -200h-68v192c-139 14 -248 116 -248 283c0 163 100 270 248 285v182h68v-181c40 -2 76 -9 114 -23l-10 -81c-38 15 -70 24 -104 27v-417c38 2 70 11 111 29l10 -79c-38 -17 -78 -24 -121 -26v-191zM139 273c0 -117 62 -189 159 -204v414
c-102 -13 -159 -82 -159 -210z" />
    <glyph glyph-name="sterling" unicode="&#xa3;" horiz-adv-x="524" 
d="M125 331h-79v68h79v75c0 155 99 250 246 250c40 0 74 -6 107 -17l-8 -79c-39 15 -71 20 -107 20c-91 0 -155 -67 -155 -169v-80h209l-10 -68h-199v-102c0 -94 -34 -131 -80 -155h351v-74h-434v69c49 24 80 68 80 148v114z" />
    <glyph glyph-name="yen" unicode="&#xa5;" horiz-adv-x="584" 
d="M50 296v68h164l-202 350h91l189 -325l190 325h90l-205 -350h167v-68h-200v-93h200v-68h-200v-135h-84v135h-200v68h200v93h-200z" />
    <glyph glyph-name="brokenbar" unicode="&#xa6;" horiz-adv-x="244" 
d="M156 -200h-68v362h68v-362zM156 380h-68v362h68v-362z" />
    <glyph glyph-name="section" unicode="&#xa7;" horiz-adv-x="516" 
d="M64 274c0 69 38 118 89 150c-56 35 -83 81 -83 138c0 96 77 162 194 162c67 0 121 -16 167 -42l-12 -83c-51 31 -98 49 -154 49c-79 0 -111 -39 -111 -79c0 -33 19 -61 71 -87l109 -54c95 -47 122 -104 122 -174c0 -66 -38 -113 -96 -145c64 -40 91 -87 91 -148
c0 -97 -71 -162 -200 -162c-87 0 -149 20 -198 47l12 87c58 -34 106 -58 184 -58c79 0 117 37 117 86c0 37 -25 66 -77 92l-104 53c-84 43 -121 99 -121 168zM146 285c0 -46 24 -75 73 -101l78 -41c44 23 76 64 76 111c0 37 -18 69 -70 95l-86 42c-48 -24 -71 -62 -71 -106z
" />
    <glyph glyph-name="dieresis" unicode="&#xa8;" horiz-adv-x="500" 
d="M106 691c0 34 25 51 51 51c25 0 48 -17 48 -51c0 -33 -23 -51 -48 -51c-26 0 -51 18 -51 51zM295 691c0 34 25 51 51 51c25 0 48 -17 48 -51c0 -33 -23 -51 -48 -51c-26 0 -51 18 -51 51z" />
    <glyph glyph-name="copyright" unicode="&#xa9;" horiz-adv-x="832" 
d="M426 143c-111 0 -211 78 -211 213c0 133 92 215 212 215c38 0 72 -5 112 -23l-6 -71c-42 21 -75 28 -105 28c-76 0 -141 -48 -141 -150c0 -95 69 -146 142 -146c35 0 67 9 109 31l5 -71c-37 -18 -75 -26 -117 -26zM49 357c0 218 162 367 367 367c218 0 367 -162 367 -367
c0 -211 -154 -367 -367 -367c-222 0 -367 164 -367 367zM119 357c0 -165 117 -297 297 -297c173 0 297 126 297 297c0 166 -121 297 -297 297c-167 0 -297 -121 -297 -297z" />
    <glyph glyph-name="ordfeminine" unicode="&#xaa;" horiz-adv-x="359" 
d="M251 294c-5 13 -10 40 -12 51c-23 -35 -59 -57 -99 -57c-68 0 -111 40 -111 103c0 67 44 96 127 107l78 10v10c0 46 -23 65 -65 65c-29 0 -66 -7 -112 -34l-8 69c36 20 76 33 124 33c77 0 130 -39 130 -130v-129c0 -35 8 -67 19 -98h-71zM152 347c51 0 82 39 82 92v19
l-68 -11c-41 -7 -65 -25 -65 -56c0 -29 21 -44 51 -44z" />
    <glyph glyph-name="guillemotleft" unicode="&#xab;" horiz-adv-x="516" 
d="M30 268l183 218h89l-185 -218l185 -218h-89zM224 268l183 218h89l-185 -218l185 -218h-89z" />
    <glyph glyph-name="logicalnot" unicode="&#xac;" 
d="M51 491h469v-267h-67v200h-402v67z" />
    <glyph glyph-name="uni00AD" unicode="&#xad;" horiz-adv-x="340" 
d="M300 231h-260v74h260v-74z" />
    <glyph glyph-name="registered" unicode="&#xae;" horiz-adv-x="832" 
d="M353 304v-155h-70v416h117c103 0 156 -52 156 -130c0 -54 -28 -93 -76 -113l113 -173h-81l-99 155h-60zM394 501h-41v-132h35c65 0 97 22 97 67c0 40 -30 65 -91 65zM49 357c0 218 162 367 367 367c218 0 367 -162 367 -367c0 -211 -154 -367 -367 -367
c-222 0 -367 164 -367 367zM119 357c0 -165 117 -297 297 -297c173 0 297 126 297 297c0 166 -121 297 -297 297c-167 0 -297 -121 -297 -297z" />
    <glyph glyph-name="degree" unicode="&#xb0;" horiz-adv-x="428" 
d="M62 572c0 86 65 152 152 152c86 0 152 -65 152 -152c0 -92 -70 -152 -152 -152c-86 0 -152 62 -152 152zM125 572c0 -56 38 -92 90 -92c53 0 88 39 88 92s-35 92 -88 92s-90 -37 -90 -92z" />
    <glyph glyph-name="plusminus" unicode="&#xb1;" 
d="M319 632v-179h201v-67h-201v-178h-68v178h-200v67h200v179h68zM51 137h469v-67h-469v67z" />
    <glyph glyph-name="twosuperior" unicode="&#xb2;" horiz-adv-x="367" 
d="M55 641l-10 70c37 24 78 37 126 37c88 0 147 -53 147 -134c0 -60 -25 -97 -115 -183l-76 -73h207v-64h-301v56l115 116c82 82 98 110 98 149c0 42 -31 67 -76 67c-39 0 -74 -13 -115 -41z" />
    <glyph glyph-name="threesuperior" unicode="&#xb3;" horiz-adv-x="367" 
d="M32 333l20 71c44 -37 86 -50 121 -50c57 0 86 30 86 70c0 41 -31 76 -107 76h-57v57h54c69 0 97 31 97 66c0 32 -26 59 -71 59c-36 0 -76 -14 -117 -43l-11 70c36 23 80 39 128 39c80 0 143 -51 143 -123c0 -43 -23 -73 -82 -94c58 -9 95 -55 95 -109
c0 -82 -63 -134 -158 -134c-60 0 -108 22 -141 45z" />
    <glyph glyph-name="acute" unicode="&#xb4;" horiz-adv-x="500" 
d="M174 602l62 180h109l-117 -180h-54z" />
    <glyph glyph-name="mu" unicode="&#xb5;" horiz-adv-x="633" 
d="M88 552h83v-331c0 -106 43 -155 132 -155c56 0 101 26 130 79c22 40 28 94 28 159v248h84v-552h-83v87c-38 -62 -102 -97 -172 -97c-50 0 -95 13 -128 47l9 -171v-86h-83v772z" />
    <glyph glyph-name="paragraph" unicode="&#xb6;" horiz-adv-x="617" 
d="M45 493c0 129 89 221 243 221h231v-934h-68v866h-72v-866h-68v492h-34c-133 0 -232 89 -232 221z" />
    <glyph glyph-name="periodcentered" unicode="&#xb7;" horiz-adv-x="250" 
d="M67 358c0 37 29 59 59 59c29 0 57 -22 57 -59c0 -36 -28 -59 -57 -59c-30 0 -59 23 -59 59z" />
    <glyph glyph-name="cedilla" unicode="&#xb8;" horiz-adv-x="500" 
d="M325 -50l-62 -180h-109l117 180h54z" />
    <glyph glyph-name="onesuperior" unicode="&#xb9;" horiz-adv-x="317" 
d="M237 742v-448h-69v363l-58 -52l-35 -26l-39 53l143 110h58z" />
    <glyph glyph-name="ordmasculine" unicode="&#xba;" horiz-adv-x="397" 
d="M109 468c0 -73 35 -114 91 -114c57 0 89 45 89 117c0 74 -37 115 -93 115c-57 0 -87 -40 -87 -118zM362 470c0 -111 -63 -182 -165 -182c-87 0 -161 67 -161 182c0 111 62 181 163 181c102 0 163 -78 163 -181z" />
    <glyph glyph-name="guillemotright" unicode="&#xbb;" horiz-adv-x="516" 
d="M109 486l183 -218l-183 -218h-89l185 218l-185 218h89zM303 486l183 -218l-183 -218h-89l185 218l-185 218h89z" />
    <glyph glyph-name="onequarter" unicode="&#xbc;" horiz-adv-x="856" 
d="M237 742v-448h-69v363l-58 -52l-35 -26l-39 53l143 110h58zM624 742h76l-458 -742h-76zM842 163v-67h-61v-96h-69v96h-208v58l206 294h71v-285h61zM583 163h129v194l-64 -100z" />
    <glyph glyph-name="onehalf" unicode="&#xbd;" horiz-adv-x="916" 
d="M237 742v-448h-69v363l-58 -52l-35 -26l-39 53l143 110h58zM624 742h76l-458 -742h-76zM604 347l-10 70c37 24 78 37 126 37c88 0 147 -53 147 -134c0 -60 -25 -97 -115 -183l-76 -73h207v-64h-301v56l115 116c82 82 98 110 98 149c0 42 -31 67 -76 67
c-39 0 -74 -13 -115 -41z" />
    <glyph glyph-name="threequarters" unicode="&#xbe;" horiz-adv-x="906" 
d="M32 333l20 71c44 -37 86 -50 121 -50c57 0 86 30 86 70c0 41 -31 76 -107 76h-57v57h54c69 0 97 31 97 66c0 32 -26 59 -71 59c-36 0 -76 -14 -117 -43l-11 70c36 23 80 39 128 39c80 0 143 -51 143 -123c0 -43 -23 -73 -82 -94c58 -9 95 -55 95 -109
c0 -82 -63 -134 -158 -134c-60 0 -108 22 -141 45zM674 742h76l-458 -742h-76zM892 163v-67h-61v-96h-69v96h-208v58l206 294h71v-285h61zM633 163h129v194l-64 -100z" />
    <glyph glyph-name="questiondown" unicode="&#xbf;" horiz-adv-x="429" 
d="M306 665c0 -37 -29 -59 -59 -59c-29 0 -57 22 -57 59c0 36 28 59 57 59c30 0 59 -23 59 -59zM21 176c0 52 21 96 67 139l91 85c30 28 41 51 41 82c0 17 -3 27 -4 35h53c7 -17 10 -39 10 -53c0 -51 -18 -82 -51 -113l-55 -53c-48 -46 -71 -82 -71 -121
c0 -62 39 -112 135 -112c60 0 115 21 163 55l16 -78c-51 -31 -111 -52 -180 -52c-138 0 -215 86 -215 186z" />
    <glyph glyph-name="Agrave" unicode="&#xc0;" horiz-adv-x="644" 
d="M639 0h-87l-73 187h-317l-73 -187h-84l277 714h81zM190 261h263l-61 161l-71 204l-64 -189zM289 934l62 -180h-54l-117 180h109z" />
    <glyph glyph-name="AE" unicode="&#xc6;" horiz-adv-x="836" 
d="M776 0h-224l-73 187h-317l-73 -187h-84l277 714h484v-74h-375l89 -229h267v-74h-239l102 -263h166v-74zM190 261h263l-61 161l-71 204l-64 -189z" />
    <glyph glyph-name="Eth" unicode="&#xd0;" horiz-adv-x="708" 
d="M9 322v68h97v324h189c216 0 351 -136 351 -358c0 -225 -148 -356 -356 -356h-184v322h-97zM305 642h-116v-252h212v-68h-212v-250h101c159 0 268 101 268 282c0 195 -100 288 -253 288z" />
    <glyph glyph-name="multiply" unicode="&#xd7;" 
d="M138 553l148 -148l142 143l47 -48l-142 -142l147 -147l-48 -48l-147 147l-141 -142l-48 48l142 141l-148 148z" />
    <glyph glyph-name="Oslash" unicode="&#xd8;" horiz-adv-x="779" 
d="M174 -88l-59 34l68 118c-74 63 -121 163 -121 293c0 219 126 367 329 367c57 0 108 -13 151 -36l66 114l59 -34l-68 -119c76 -67 118 -172 118 -292c0 -216 -124 -367 -330 -367c-53 0 -103 12 -148 35zM150 354c0 -95 27 -169 74 -219l278 483c-35 19 -75 30 -118 30
c-144 0 -234 -100 -234 -294zM630 361c0 92 -28 165 -74 214l-278 -482c34 -18 73 -27 116 -27c142 0 236 118 236 295z" />
    <glyph glyph-name="Thorn" unicode="&#xde;" horiz-adv-x="596" 
d="M267 141h-86v-141h-83v714h83v-142h108c173 0 262 -86 262 -215c0 -144 -95 -216 -284 -216zM278 498h-97v-283h86c132 0 198 48 198 143c0 87 -62 140 -187 140z" />
    <glyph glyph-name="germandbls" unicode="&#xdf;" horiz-adv-x="632" 
d="M584 141c0 -92 -72 -151 -178 -151c-71 0 -119 13 -160 35l11 88c42 -29 86 -47 150 -47c60 0 92 33 92 75c0 37 -19 59 -53 82l-78 54c-52 36 -76 74 -76 120c0 43 15 71 45 101l34 34c16 16 31 38 31 71c0 42 -32 83 -103 83c-94 0 -128 -67 -128 -136v-550h-83v550
c0 113 66 212 211 212c124 0 187 -72 187 -158c0 -43 -13 -76 -48 -109l-32 -30c-26 -24 -34 -38 -34 -59c0 -28 20 -44 55 -68l70 -49c59 -40 87 -87 87 -148z" />
    <glyph glyph-name="ae" unicode="&#xe6;" horiz-adv-x="909" 
d="M269 562c80 0 144 -29 177 -92c48 59 117 92 190 92c59 0 91 -10 125 -30c65 -38 100 -110 100 -203c0 -23 -2 -41 -6 -58h-384c0 -129 83 -205 195 -205c59 0 101 12 160 38l9 -84c-47 -19 -105 -30 -169 -30c-109 0 -194 43 -241 121c-34 -67 -104 -121 -202 -121
c-113 0 -179 60 -179 155c0 100 69 148 199 169l143 23v19c0 89 -43 126 -125 126c-52 0 -109 -16 -171 -52l-10 83c55 28 112 49 189 49zM386 268l-132 -22c-80 -13 -123 -39 -123 -96c0 -56 40 -86 101 -86c58 0 98 28 127 68c22 30 27 85 27 128v8zM637 486
c-84 0 -151 -61 -161 -145h299c0 95 -57 145 -138 145z" />
    <glyph glyph-name="eth" unicode="&#xf0;" horiz-adv-x="606" 
d="M443 752l38 -51l-86 -50c106 -96 159 -217 159 -376c0 -85 -16 -154 -60 -206c-41 -49 -107 -79 -192 -79c-143 0 -250 95 -250 242c0 135 93 244 238 244c74 0 125 -27 162 -65c-18 70 -58 137 -129 199l-127 -73l-36 53l109 62c-24 15 -49 28 -74 41l44 63
c41 -21 76 -41 104 -62zM139 231c0 -102 72 -165 167 -165c96 0 162 69 162 169c0 106 -75 164 -169 164c-97 0 -160 -63 -160 -168z" />
    <glyph glyph-name="divide" unicode="&#xf7;" 
d="M235 549c0 34 25 51 51 51c25 0 48 -17 48 -51c0 -33 -23 -51 -48 -51c-26 0 -51 18 -51 51zM235 167c0 34 25 51 51 51c25 0 48 -17 48 -51c0 -33 -23 -51 -48 -51c-26 0 -51 18 -51 51zM51 391h469v-67h-469v67z" />
    <glyph glyph-name="oslash" unicode="&#xf8;" horiz-adv-x="622" 
d="M141 -88l-59 34l61 106c-53 49 -87 125 -87 224c0 176 98 286 256 286c41 0 79 -9 111 -24l60 104l59 -34l-63 -108c56 -52 87 -132 87 -224c0 -174 -97 -286 -257 -286c-39 0 -76 8 -109 24zM145 273c0 -63 14 -112 40 -147l198 343c-22 11 -48 17 -76 17
c-106 0 -162 -71 -162 -213zM478 279c0 62 -15 111 -42 146l-197 -343c22 -11 47 -16 75 -16c105 0 164 83 164 213z" />
    <glyph glyph-name="thorn" unicode="&#xfe;" horiz-adv-x="649" 
d="M172 742v-275c38 62 105 95 177 95c152 0 244 -108 244 -285c0 -165 -89 -287 -241 -287c-78 0 -141 36 -180 97v-307h-84v962h84zM170 279c0 -142 59 -213 166 -213c99 0 167 74 167 207c0 130 -59 213 -164 213c-104 0 -169 -75 -169 -207z" />
    <glyph glyph-name="dotlessi" unicode="&#x131;" horiz-adv-x="258" 
d="M170 0h-82v552h82v-552z" />
    <glyph glyph-name="Lslash" unicode="&#x141;" horiz-adv-x="542" 
d="M33 198l-33 56l121 71v389h83v-344l177 104l33 -56l-210 -124v-219h315v-75h-398v249z" />
    <glyph glyph-name="lslash" unicode="&#x142;" horiz-adv-x="343" 
d="M203 0h-82v249l-88 -51l-33 56l121 71v417h82v-372l107 62l33 -56l-140 -82v-294z" />
    <glyph glyph-name="OE" unicode="&#x152;" horiz-adv-x="950" 
d="M890 74v-74h-398c-32 -5 -68 -10 -97 -10c-185 0 -333 139 -333 367c0 219 126 367 336 367c32 0 61 -4 94 -10h388v-74h-305v-229h286v-74h-286v-263h315zM398 66c32 0 65 6 94 18v549c-33 10 -69 15 -100 15c-152 0 -242 -100 -242 -294c0 -181 101 -288 248 -288z" />
    <glyph glyph-name="oe" unicode="&#x153;" horiz-adv-x="1004" 
d="M312 562c95 0 167 -44 210 -114c44 74 118 114 197 114c53 0 92 -10 126 -31c64 -39 101 -109 101 -187c0 -38 -2 -56 -4 -73h-376c0 -129 83 -205 195 -205c59 0 110 10 169 36v-81c-47 -19 -105 -31 -169 -31c-106 0 -188 40 -237 114c-43 -72 -117 -114 -215 -114
c-138 0 -253 105 -253 286c0 176 98 286 256 286zM145 273c0 -132 65 -207 169 -207c105 0 164 83 164 213c0 133 -68 207 -171 207c-106 0 -162 -71 -162 -213zM724 486c-78 0 -143 -61 -153 -145h289c0 95 -55 145 -136 145z" />
    <glyph glyph-name="florin" unicode="&#x192;" horiz-adv-x="550" 
d="M243 464l16 94c17 97 84 166 198 166c37 0 63 -5 88 -14l-9 -76c-25 9 -48 14 -81 14c-64 0 -104 -37 -116 -106l-13 -78h160l-23 -70h-150l-85 -473c-17 -97 -71 -141 -165 -141c-18 0 -44 4 -60 10l7 74c17 -5 37 -9 56 -9c43 0 73 24 82 78l82 461h-109l13 70h109z
" />
    <glyph glyph-name="circumflex" unicode="&#x2c6;" horiz-adv-x="500" 
d="M85 602l123 180h81l125 -180h-58l-108 101l-107 -101h-56z" />
    <glyph glyph-name="caron" unicode="&#x2c7;" horiz-adv-x="500" 
d="M208 602l-123 180h56l107 -101l108 101h58l-125 -180h-81z" />
    <glyph glyph-name="macron" unicode="&#xaf;" horiz-adv-x="500" 
d="M106 675v67h288v-67h-288z" />
    <glyph glyph-name="breve" unicode="&#x2d8;" horiz-adv-x="500" 
d="M249 673c58 0 101 32 116 109h49c-12 -116 -67 -180 -165 -180s-153 64 -165 180h49c15 -77 58 -109 116 -109z" />
    <glyph glyph-name="dotaccent" unicode="&#x2d9;" horiz-adv-x="500" 
d="M200 691c0 35 24 51 51 51s49 -16 49 -51c0 -33 -22 -51 -49 -51s-51 18 -51 51z" />
    <glyph glyph-name="ring" unicode="&#x2da;" horiz-adv-x="500" 
d="M359 706c0 -63 -44 -106 -110 -106c-65 0 -108 41 -108 105c0 60 44 104 108 104c65 0 110 -46 110 -103zM306 705c0 34 -24 57 -57 57s-57 -24 -57 -57c0 -34 20 -57 57 -57c34 0 57 23 57 57z" />
    <glyph glyph-name="ogonek" unicode="&#x2db;" horiz-adv-x="500" 
d="M224 -125c0 -35 21 -59 56 -59c13 0 31 3 46 8l2 -53c-15 -6 -33 -11 -52 -11c-77 0 -114 45 -114 100c0 56 39 107 90 140h49c-56 -41 -77 -83 -77 -125z" />
    <glyph glyph-name="tilde" unicode="&#x2dc;" horiz-adv-x="500" 
d="M322 636c-48 0 -102 46 -139 46c-28 0 -40 -17 -47 -52l-51 16c7 67 47 105 100 105c49 0 102 -46 136 -46c23 0 35 17 42 52l51 -18c-7 -62 -39 -103 -92 -103z" />
    <glyph glyph-name="hungarumlaut" unicode="&#x2dd;" horiz-adv-x="500" 
d="M89 602l60 180h109l-115 -180h-54zM259 602l60 180h109l-115 -180h-54z" />
    <glyph glyph-name="pi" unicode="&#x3c0;" horiz-adv-x="686" 
d="M652 482h-129v-338c0 -54 26 -78 70 -78c19 0 35 3 53 12l3 -78c-17 -6 -41 -10 -59 -10c-95 0 -149 51 -149 152v340h-234v-482h-82v482h-110v70h647z" />
    <glyph glyph-name="endash" unicode="&#x2013;" horiz-adv-x="500" 
d="M0 323v68h500v-68h-500z" />
    <glyph glyph-name="emdash" unicode="&#x2014;" horiz-adv-x="1000" 
d="M0 323v68h1000v-68h-1000z" />
    <glyph glyph-name="quoteleft" unicode="&#x2018;" horiz-adv-x="250" 
d="M156 486h-99l90 228h60z" />
    <glyph glyph-name="quoteright" unicode="&#x2019;" horiz-adv-x="250" 
d="M94 714h99l-90 -228h-60z" />
    <glyph glyph-name="quotesinglbase" unicode="&#x201a;" horiz-adv-x="250" 
d="M94 108h99l-90 -236h-60z" />
    <glyph glyph-name="quotedblleft" unicode="&#x201c;" horiz-adv-x="420" 
d="M326 486h-99l90 228h60zM156 486h-99l90 228h60z" />
    <glyph glyph-name="quotedblright" unicode="&#x201d;" horiz-adv-x="420" 
d="M94 714h99l-90 -228h-60zM264 714h99l-90 -228h-60z" />
    <glyph glyph-name="quotedblbase" unicode="&#x201e;" horiz-adv-x="420" 
d="M94 108h99l-90 -236h-60zM264 108h99l-90 -236h-60z" />
    <glyph glyph-name="dagger" unicode="&#x2020;" horiz-adv-x="522" 
d="M40 484v68h187v190h68v-190h187v-68h-187v-704h-68v704h-187z" />
    <glyph glyph-name="daggerdbl" unicode="&#x2021;" horiz-adv-x="522" 
d="M40 484v68h187v190h68v-190h187v-68h-187v-416h187v-68h-187v-220h-68v220h-187v68h187v416h-187z" />
    <glyph glyph-name="bullet" unicode="&#x2022;" horiz-adv-x="500" 
d="M78 357c0 95 77 172 172 172s172 -77 172 -172s-77 -172 -172 -172s-172 77 -172 172z" />
    <glyph glyph-name="perthousand" unicode="&#x2030;" horiz-adv-x="1247" 
d="M552 714h82l-306 -714h-82zM94 521c0 -91 33 -139 87 -139c53 0 90 48 90 139c0 90 -37 138 -90 138c-54 0 -87 -47 -87 -138zM341 521c0 -138 -69 -205 -160 -205c-86 0 -157 70 -157 205c0 138 67 203 157 203c89 0 160 -70 160 -203zM611 196c0 -91 33 -139 87 -139
c53 0 90 48 90 139c0 90 -37 138 -90 138c-54 0 -87 -47 -87 -138zM858 196c0 -138 -69 -205 -160 -205c-86 0 -157 70 -157 205c0 138 67 203 157 203c89 0 160 -70 160 -203zM976 196c0 -91 33 -139 87 -139c53 0 90 48 90 139c0 90 -37 138 -90 138
c-54 0 -87 -47 -87 -138zM1223 196c0 -138 -69 -205 -160 -205c-86 0 -157 70 -157 205c0 138 67 203 157 203c89 0 160 -70 160 -203z" />
    <glyph glyph-name="guilsinglleft" unicode="&#x2039;" horiz-adv-x="322" 
d="M30 268l183 218h89l-185 -218l185 -218h-89z" />
    <glyph glyph-name="guilsinglright" unicode="&#x203a;" horiz-adv-x="322" 
d="M109 486l183 -218l-183 -218h-89l185 218l-185 218h89z" />
    <glyph glyph-name="fraction" unicode="&#x2044;" horiz-adv-x="232" 
d="M307 742h76l-458 -742h-76z" />
    <glyph glyph-name="Euro" unicode="&#x20ac;" horiz-adv-x="691" 
d="M20 401v68h112c40 160 168 255 337 255c62 0 125 -8 182 -30l-34 -78c-47 24 -96 32 -147 32c-119 0 -213 -58 -248 -179h331l-30 -68h-314c-1 -15 -2 -31 -2 -47s1 -32 2 -46h274l-30 -68h-229c39 -114 136 -174 248 -174c65 0 118 12 178 43l10 -84
c-60 -27 -123 -35 -193 -35c-155 0 -289 90 -333 250h-114v68h101c-1 15 -2 31 -2 48c0 15 0 30 2 45h-101z" />
    <glyph glyph-name="trademark" unicode="&#x2122;" horiz-adv-x="734" 
d="M529 433h-50l-86 169l2 -180v-89h-62v381h67l105 -194l107 194h67v-381h-65v92l2 175zM184 653v-320h-66v320h-98v61h262v-61h-98z" />
    <glyph glyph-name="Omega" unicode="&#x2126;" horiz-adv-x="780" 
d="M390 724c191 0 322 -148 322 -350c0 -148 -75 -245 -161 -306l121 6h63v-74h-276v72c105 83 165 161 165 301c0 175 -97 275 -234 275s-234 -100 -234 -275c0 -140 60 -219 165 -302v-71h-276v74h63l121 -6c-86 61 -161 158 -161 306c0 202 131 350 322 350z" />
    <glyph glyph-name="partialdiff" unicode="&#x2202;" horiz-adv-x="581" 
d="M528 457c0 -157 -40 -280 -100 -359c-54 -72 -124 -108 -202 -108c-105 0 -179 76 -179 206c0 100 44 193 108 250c40 36 88 57 147 57c71 0 113 -33 141 -86c0 13 2 26 2 39c0 124 -47 193 -138 193c-43 0 -92 -18 -122 -37l-7 79c29 19 75 33 131 33
c47 0 86 -11 118 -31c66 -42 101 -125 101 -236zM231 66c75 0 132 70 165 147c17 40 21 79 21 102c0 60 -31 114 -104 114c-104 0 -178 -123 -178 -240c0 -77 33 -123 96 -123z" />
    <glyph glyph-name="Delta" unicode="&#x2206;" horiz-adv-x="644" 
d="M639 0h-634l277 714h81zM118 74h405l-131 348l-71 204l-64 -189z" />
    <glyph glyph-name="product" unicode="&#x220f;" horiz-adv-x="718" 
d="M620 714v-934h-83v860h-356v-860h-83v934h522z" />
    <glyph glyph-name="summation" unicode="&#x2211;" horiz-adv-x="571" 
d="M405 274l-274 -420h430v-74h-531v65l277 426l-264 378v65h488v-74h-385z" />
    <glyph glyph-name="minus" unicode="&#x2212;" 
d="M51 391h469v-67h-469v67z" />
    <glyph glyph-name="radical" unicode="&#x221a;" horiz-adv-x="549" 
d="M549 828l-287 -828h-65l-159 449h81l112 -323l246 702h72z" />
    <glyph glyph-name="infinity" unicode="&#x221e;" horiz-adv-x="705" 
d="M646 350c0 -79 -60 -154 -145 -154c-61 0 -113 32 -155 106c-39 -67 -86 -104 -142 -104c-84 0 -147 66 -147 154c0 81 60 154 147 154c58 0 110 -31 152 -105c40 70 85 103 145 103c83 0 145 -69 145 -154zM208 262c39 0 76 34 109 90c-32 60 -66 91 -110 91
c-50 0 -84 -42 -84 -92c0 -48 33 -89 85 -89zM495 441c-40 0 -78 -34 -110 -91c32 -59 67 -90 111 -90c49 0 83 40 83 90c0 47 -32 91 -84 91z" />
    <glyph glyph-name="integral" unicode="&#x222b;" horiz-adv-x="292" 
d="M182 588v-657c0 -101 -54 -152 -149 -152c-18 0 -42 4 -59 10v73c18 -4 37 -7 56 -7c44 0 70 24 70 78v657c0 101 54 152 149 152c18 0 42 -4 59 -10v-73c-18 4 -37 7 -56 7c-44 0 -70 -24 -70 -78z" />
    <glyph glyph-name="approxequal" unicode="&#x2248;" 
d="M166 515c51 0 89 -13 136 -32c43 -18 72 -27 103 -27c35 0 80 16 115 50v-80c-32 -23 -69 -37 -115 -37c-51 0 -89 12 -136 32c-32 14 -65 27 -103 27c-35 0 -80 -16 -115 -50v80c32 23 69 37 115 37zM166 317c51 0 89 -13 136 -32c43 -18 72 -27 103 -27
c35 0 80 16 115 50v-80c-32 -23 -69 -37 -115 -37c-51 0 -89 12 -136 32c-32 14 -65 27 -103 27c-35 0 -80 -16 -115 -50v80c32 23 69 37 115 37z" />
    <glyph glyph-name="notequal" unicode="&#x2260;" 
d="M51 291h173l53 133h-226v67h253l63 156l58 -24l-53 -132h148v-67h-175l-53 -133h228v-67h-255l-63 -157l-58 24l53 133h-146v67z" />
    <glyph glyph-name="lessequal" unicode="&#x2264;" 
d="M51 373v50l469 208v-78l-376 -155l376 -155v-78zM51 137h469v-67h-469v67z" />
    <glyph glyph-name="greaterequal" unicode="&#x2265;" 
d="M52 137h469v-67h-469v67zM521 423v-50l-469 -208v78l376 155l-376 155v78z" />
    <glyph glyph-name="lozenge" unicode="&#x25ca;" horiz-adv-x="550" 
d="M252 0l-220 356l220 358h45l221 -358l-221 -356h-45zM275 100l155 257l-155 256l-155 -256z" />
    <glyph glyph-name="fi" unicode="&#xfb01;" horiz-adv-x="649" 
d="M124 552v28c0 113 66 182 179 182c37 0 61 -4 88 -11l-5 -79c-27 11 -48 14 -81 14c-65 0 -98 -35 -98 -106v-28h180l-10 -70h-170v-482h-83v482h-109v70h109zM561 0h-82v552h82v-552zM470 691c0 35 24 51 51 51s49 -16 49 -51c0 -33 -22 -51 -49 -51s-51 18 -51 51z" />
    <glyph glyph-name="fl" unicode="&#xfb02;" horiz-adv-x="648" 
d="M124 552v28c0 113 66 182 179 182c37 0 61 -4 88 -11l-5 -79c-27 11 -48 14 -81 14c-65 0 -98 -35 -98 -106v-28h180l-10 -70h-170v-482h-83v482h-109v70h109zM560 0h-82v742h82v-742z" />
    <glyph glyph-name="dotlessj" unicode="&#x237;" horiz-adv-x="265" 
d="M100 -67v619h82v-621c0 -101 -54 -152 -149 -152c-18 0 -42 4 -59 10v73c18 -4 37 -7 56 -7c44 0 70 24 70 78z" />
    <glyph glyph-name="commaaccent" unicode="&#xf6c3;" horiz-adv-x="500" 
d="M154 -230l62 180h109l-117 -180h-54z" />
    <glyph glyph-name="zerosuperior" unicode="&#x2070;" horiz-adv-x="367" 
d="M337 519c0 -155 -59 -231 -153 -231c-95 0 -154 76 -154 231s59 229 154 229c94 0 153 -74 153 -229zM266 519c0 118 -33 164 -82 164s-82 -46 -82 -164s32 -165 82 -165c49 0 82 47 82 165z" />
    <glyph glyph-name="foursuperior" unicode="&#x2074;" horiz-adv-x="367" 
d="M353 457v-67h-61v-96h-69v96h-208v58l206 294h71v-285h61zM94 457h129v194l-64 -100z" />
    <glyph glyph-name="fivesuperior" unicode="&#x2075;" horiz-adv-x="367" 
d="M33 325l13 71c39 -30 79 -42 123 -42c60 0 92 35 92 88c0 50 -37 84 -98 84c-40 0 -76 -9 -114 -23l19 239h235l-14 -64h-161l-9 -99c17 3 34 4 54 4c95 0 159 -58 159 -142c0 -85 -60 -153 -163 -153c-56 0 -98 14 -136 37z" />
    <glyph glyph-name="sixsuperior" unicode="&#x2076;" horiz-adv-x="367" 
d="M321 726l-9 -71c-34 19 -65 28 -93 28c-34 0 -59 -14 -75 -35c-21 -28 -35 -66 -37 -117c20 26 51 47 96 47c71 0 136 -56 136 -141c0 -83 -63 -149 -147 -149c-50 0 -94 22 -120 56c-29 38 -36 82 -36 141c0 93 21 157 53 201c29 40 76 62 130 62c36 0 70 -7 102 -22z
M108 440c0 -47 31 -86 83 -86c50 0 78 38 78 84c0 45 -32 80 -79 80c-48 0 -82 -32 -82 -78z" />
    <glyph glyph-name="sevensuperior" unicode="&#x2077;" horiz-adv-x="367" 
d="M158 294h-82l119 234l72 150h-235v64h305v-51z" />
    <glyph glyph-name="eightsuperior" unicode="&#x2078;" horiz-adv-x="367" 
d="M34 411c0 55 31 91 81 114c-45 27 -67 61 -67 103c0 69 60 120 134 120c77 0 137 -46 137 -117c0 -50 -27 -78 -74 -96c55 -28 89 -63 89 -120c0 -71 -58 -127 -149 -127c-94 0 -151 54 -151 123zM207 482l-41 17c-47 -21 -63 -49 -63 -81c0 -37 33 -64 82 -64
c47 0 79 27 79 62c0 29 -20 48 -57 66zM116 628c0 -25 17 -42 49 -56l29 -13c40 17 56 43 56 69c0 32 -29 55 -68 55s-66 -25 -66 -55z" />
    <glyph glyph-name="ninesuperior" unicode="&#x2079;" horiz-adv-x="367" 
d="M46 310l9 71c34 -19 65 -28 93 -28c34 0 60 13 76 34c21 28 34 67 36 118c-20 -26 -51 -47 -96 -47c-71 0 -136 56 -136 141c0 83 63 149 147 149c50 0 94 -22 120 -56c29 -38 36 -82 36 -141c0 -93 -20 -158 -52 -202c-29 -40 -77 -61 -131 -61c-36 0 -70 7 -102 22z
M259 596c0 47 -31 86 -83 86c-50 0 -78 -38 -78 -84c0 -45 32 -80 79 -80c48 0 82 32 82 78z" />
    <glyph glyph-name="dotbelow" unicode="&#x323;" horiz-adv-x="500" 
d="M200 -139c0 33 24 51 51 51c26 0 49 -18 49 -51c0 -34 -23 -51 -49 -51c-27 0 -51 17 -51 51z" />
    <glyph glyph-name="ff" unicode="&#xfb00;" horiz-adv-x="722" 
d="M114 552v28c0 113 66 182 179 182c37 0 62 -4 88 -11v-76c-27 6 -53 11 -86 11c-64 0 -98 -37 -98 -106v-28h258v28c0 113 66 182 179 182c37 0 62 -4 88 -11v-76c-27 6 -53 11 -86 11c-64 0 -98 -37 -98 -106v-28h180l-10 -70h-170v-482h-83v482h-258v-482h-83v482h-109
v70h109z" />
    <glyph glyph-name="I" unicode="I" horiz-adv-x="279" 
d="M181 0h-83v714h83v-714z" />
    <glyph glyph-name="space" unicode=" " horiz-adv-x="260" 
 />
    <glyph glyph-name="aacute" unicode="&#xe1;" horiz-adv-x="559" 
d="M386 83c-44 -63 -97 -93 -173 -93c-104 0 -169 59 -169 155c0 100 68 148 199 169l143 23v19c0 89 -42 126 -125 126c-52 0 -108 -16 -171 -52l-10 83c56 28 112 49 189 49c116 0 200 -60 200 -201v-214c0 -57 11 -103 26 -147h-91c-11 31 -14 56 -18 83zM386 268
l-132 -22c-80 -13 -123 -39 -123 -96c0 -56 40 -86 101 -86c104 0 154 81 154 196v8zM244 602l62 180h109l-117 -180h-54z" />
    <glyph glyph-name="agrave" unicode="&#xe0;" horiz-adv-x="559" 
d="M386 83c-44 -63 -97 -93 -173 -93c-104 0 -169 59 -169 155c0 100 68 148 199 169l143 23v19c0 89 -42 126 -125 126c-52 0 -108 -16 -171 -52l-10 83c56 28 112 49 189 49c116 0 200 -60 200 -201v-214c0 -57 11 -103 26 -147h-91c-11 31 -14 56 -18 83zM386 268
l-132 -22c-80 -13 -123 -39 -123 -96c0 -56 40 -86 101 -86c104 0 154 81 154 196v8zM243 782l62 -180h-54l-117 180h109z" />
    <glyph glyph-name="acircumflex" unicode="&#xe2;" horiz-adv-x="559" 
d="M386 83c-44 -63 -97 -93 -173 -93c-104 0 -169 59 -169 155c0 100 68 148 199 169l143 23v19c0 89 -42 126 -125 126c-52 0 -108 -16 -171 -52l-10 83c56 28 112 49 189 49c116 0 200 -60 200 -201v-214c0 -57 11 -103 26 -147h-91c-11 31 -14 56 -18 83zM386 268
l-132 -22c-80 -13 -123 -39 -123 -96c0 -56 40 -86 101 -86c104 0 154 81 154 196v8zM105 602l123 180h81l125 -180h-58l-108 101l-107 -101h-56z" />
    <glyph glyph-name="adieresis" unicode="&#xe4;" horiz-adv-x="559" 
d="M386 83c-44 -63 -97 -93 -173 -93c-104 0 -169 59 -169 155c0 100 68 148 199 169l143 23v19c0 89 -42 126 -125 126c-52 0 -108 -16 -171 -52l-10 83c56 28 112 49 189 49c116 0 200 -60 200 -201v-214c0 -57 11 -103 26 -147h-91c-11 31 -14 56 -18 83zM386 268
l-132 -22c-80 -13 -123 -39 -123 -96c0 -56 40 -86 101 -86c104 0 154 81 154 196v8zM125 691c0 34 25 51 51 51c25 0 48 -17 48 -51c0 -33 -23 -51 -48 -51c-26 0 -51 18 -51 51zM314 691c0 34 25 51 51 51c25 0 48 -17 48 -51c0 -33 -23 -51 -48 -51c-26 0 -51 18 -51 51z
" />
    <glyph glyph-name="atilde" unicode="&#xe3;" horiz-adv-x="559" 
d="M386 83c-44 -63 -97 -93 -173 -93c-104 0 -169 59 -169 155c0 100 68 148 199 169l143 23v19c0 89 -42 126 -125 126c-52 0 -108 -16 -171 -52l-10 83c56 28 112 49 189 49c116 0 200 -60 200 -201v-214c0 -57 11 -103 26 -147h-91c-11 31 -14 56 -18 83zM386 268
l-132 -22c-80 -13 -123 -39 -123 -96c0 -56 40 -86 101 -86c104 0 154 81 154 196v8zM342 636c-48 0 -102 46 -139 46c-28 0 -40 -17 -47 -52l-51 16c7 67 47 105 100 105c49 0 102 -46 136 -46c23 0 35 17 42 52l51 -18c-7 -62 -39 -103 -92 -103z" />
    <glyph glyph-name="Atilde" unicode="&#xc3;" horiz-adv-x="644" 
d="M639 0h-87l-73 187h-317l-73 -187h-84l277 714h81zM190 261h263l-61 161l-71 204l-64 -189zM394 788c-48 0 -102 46 -139 46c-28 0 -40 -17 -47 -52l-51 16c7 67 47 105 100 105c49 0 102 -46 136 -46c23 0 35 17 42 52l51 -18c-7 -62 -39 -103 -92 -103z" />
    <glyph glyph-name="Otilde" unicode="&#xd5;" horiz-adv-x="779" 
d="M150 354c0 -181 101 -288 244 -288c142 0 236 118 236 295c0 182 -108 287 -246 287c-144 0 -234 -100 -234 -294zM717 357c0 -216 -124 -367 -330 -367c-177 0 -325 139 -325 367c0 219 126 367 329 367c206 0 326 -163 326 -367zM462 788c-48 0 -102 46 -139 46
c-28 0 -40 -17 -47 -52l-51 16c7 67 47 105 100 105c49 0 102 -46 136 -46c23 0 35 17 42 52l51 -18c-7 -62 -39 -103 -92 -103z" />
    <glyph glyph-name="Adieresis" unicode="&#xc4;" horiz-adv-x="644" 
d="M639 0h-87l-73 187h-317l-73 -187h-84l277 714h81zM190 261h263l-61 161l-71 204l-64 -189zM178 833c0 34 25 51 51 51c25 0 48 -17 48 -51c0 -33 -23 -51 -48 -51c-26 0 -51 18 -51 51zM367 833c0 34 25 51 51 51c25 0 48 -17 48 -51c0 -33 -23 -51 -48 -51
c-26 0 -51 18 -51 51z" />
    <glyph glyph-name="Eacute" unicode="&#xc9;" horiz-adv-x="556" 
d="M496 74v-74h-398v714h388v-74h-305v-229h286v-74h-286v-263h315zM252 754l62 180h109l-117 -180h-54z" />
    <glyph glyph-name="Edieresis" unicode="&#xcb;" horiz-adv-x="556" 
d="M496 74v-74h-398v714h388v-74h-305v-229h286v-74h-286v-263h315zM154 833c0 34 25 51 51 51c25 0 48 -17 48 -51c0 -33 -23 -51 -48 -51c-26 0 -51 18 -51 51zM343 833c0 34 25 51 51 51c25 0 48 -17 48 -51c0 -33 -23 -51 -48 -51c-26 0 -51 18 -51 51z" />
    <glyph glyph-name="Egrave" unicode="&#xc8;" horiz-adv-x="556" 
d="M496 74v-74h-398v714h388v-74h-305v-229h286v-74h-286v-263h315zM281 934l62 -180h-54l-117 180h109z" />
    <glyph glyph-name="Ydieresis" unicode="&#x178;" horiz-adv-x="584" 
d="M103 714l189 -325l190 325h90l-238 -407v-307h-84v303l-238 411h91zM148 833c0 34 25 51 51 51c25 0 48 -17 48 -51c0 -33 -23 -51 -48 -51c-26 0 -51 18 -51 51zM337 833c0 34 25 51 51 51c25 0 48 -17 48 -51c0 -33 -23 -51 -48 -51c-26 0 -51 18 -51 51z" />
    <glyph glyph-name="ydieresis" unicode="&#xff;" horiz-adv-x="543" 
d="M215 -220h-92l109 245l-226 527h92l106 -261l68 -177l175 438h90zM127 691c0 34 25 51 51 51c25 0 48 -17 48 -51c0 -33 -23 -51 -48 -51c-26 0 -51 18 -51 51zM316 691c0 34 25 51 51 51c25 0 48 -17 48 -51c0 -33 -23 -51 -48 -51c-26 0 -51 18 -51 51z" />
    <glyph glyph-name="edieresis" unicode="&#xeb;" horiz-adv-x="579" 
d="M336 -10c-170 0 -283 105 -283 287c0 180 122 285 253 285c59 0 91 -10 125 -30c65 -38 100 -110 100 -203c0 -23 -2 -41 -6 -58h-384c0 -129 83 -205 195 -205c59 0 101 12 160 38l9 -84c-47 -19 -105 -30 -169 -30zM307 486c-84 0 -151 -61 -161 -145h299
c0 95 -57 145 -138 145zM155 691c0 34 25 51 51 51c25 0 48 -17 48 -51c0 -33 -23 -51 -48 -51c-26 0 -51 18 -51 51zM344 691c0 34 25 51 51 51c25 0 48 -17 48 -51c0 -33 -23 -51 -48 -51c-26 0 -51 18 -51 51z" />
    <glyph glyph-name="eacute" unicode="&#xe9;" horiz-adv-x="579" 
d="M336 -10c-170 0 -283 105 -283 287c0 180 122 285 253 285c59 0 91 -10 125 -30c65 -38 100 -110 100 -203c0 -23 -2 -41 -6 -58h-384c0 -129 83 -205 195 -205c59 0 101 12 160 38l9 -84c-47 -19 -105 -30 -169 -30zM307 486c-84 0 -151 -61 -161 -145h299
c0 95 -57 145 -138 145zM264 602l62 180h109l-117 -180h-54z" />
    <glyph glyph-name="egrave" unicode="&#xe8;" horiz-adv-x="579" 
d="M336 -10c-170 0 -283 105 -283 287c0 180 122 285 253 285c59 0 91 -10 125 -30c65 -38 100 -110 100 -203c0 -23 -2 -41 -6 -58h-384c0 -129 83 -205 195 -205c59 0 101 12 160 38l9 -84c-47 -19 -105 -30 -169 -30zM307 486c-84 0 -151 -61 -161 -145h299
c0 95 -57 145 -138 145zM273 782l62 -180h-54l-117 180h109z" />
    <glyph glyph-name="ecircumflex" unicode="&#xea;" horiz-adv-x="579" 
d="M336 -10c-170 0 -283 105 -283 287c0 180 122 285 253 285c59 0 91 -10 125 -30c65 -38 100 -110 100 -203c0 -23 -2 -41 -6 -58h-384c0 -129 83 -205 195 -205c59 0 101 12 160 38l9 -84c-47 -19 -105 -30 -169 -30zM307 486c-84 0 -151 -61 -161 -145h299
c0 95 -57 145 -138 145zM135 602l123 180h81l125 -180h-58l-108 101l-107 -101h-56z" />
    <glyph glyph-name="iacute" unicode="&#xed;" horiz-adv-x="258" 
d="M170 0h-82v552h82v-552zM94 602l62 180h109l-117 -180h-54z" />
    <glyph glyph-name="igrave" unicode="&#xec;" horiz-adv-x="258" 
d="M170 0h-82v552h82v-552zM103 782l62 -180h-54l-117 180h109z" />
    <glyph glyph-name="icircumflex" unicode="&#xee;" horiz-adv-x="258" 
d="M170 0h-82v552h82v-552zM-35 602l123 180h81l125 -180h-58l-108 101l-107 -101h-56z" />
    <glyph glyph-name="idieresis" unicode="&#xef;" horiz-adv-x="258" 
d="M170 0h-82v552h82v-552zM-15 691c0 34 25 51 51 51c25 0 48 -17 48 -51c0 -33 -23 -51 -48 -51c-26 0 -51 18 -51 51zM174 691c0 34 25 51 51 51c25 0 48 -17 48 -51c0 -33 -23 -51 -48 -51c-26 0 -51 18 -51 51z" />
    <glyph glyph-name="ntilde" unicode="&#xf1;" horiz-adv-x="632" 
d="M549 0h-83v331c0 106 -40 155 -127 155c-65 0 -110 -26 -139 -79c-22 -40 -28 -94 -28 -159v-248h-84v552h83v-87c38 62 102 97 180 97c42 0 79 -7 109 -25c56 -32 89 -97 89 -200v-337zM408 636c-48 0 -102 46 -139 46c-28 0 -40 -17 -47 -52l-51 16
c7 67 47 105 100 105c49 0 102 -46 136 -46c23 0 35 17 42 52l51 -18c-7 -62 -39 -103 -92 -103z" />
    <glyph glyph-name="oacute" unicode="&#xf3;" horiz-adv-x="622" 
d="M145 273c0 -132 65 -207 169 -207c105 0 164 83 164 213c0 133 -68 207 -171 207c-106 0 -162 -71 -162 -213zM566 276c0 -174 -97 -286 -257 -286c-138 0 -253 105 -253 286c0 176 98 286 256 286c160 0 254 -124 254 -286zM275 602l62 180h109l-117 -180h-54z" />
    <glyph glyph-name="ograve" unicode="&#xf2;" horiz-adv-x="622" 
d="M145 273c0 -132 65 -207 169 -207c105 0 164 83 164 213c0 133 -68 207 -171 207c-106 0 -162 -71 -162 -213zM566 276c0 -174 -97 -286 -257 -286c-138 0 -253 105 -253 286c0 176 98 286 256 286c160 0 254 -124 254 -286zM284 782l62 -180h-54l-117 180h109z" />
    <glyph glyph-name="ocircumflex" unicode="&#xf4;" horiz-adv-x="622" 
d="M145 273c0 -132 65 -207 169 -207c105 0 164 83 164 213c0 133 -68 207 -171 207c-106 0 -162 -71 -162 -213zM566 276c0 -174 -97 -286 -257 -286c-138 0 -253 105 -253 286c0 176 98 286 256 286c160 0 254 -124 254 -286zM146 602l123 180h81l125 -180h-58l-108 101
l-107 -101h-56z" />
    <glyph glyph-name="odieresis" unicode="&#xf6;" horiz-adv-x="622" 
d="M145 273c0 -132 65 -207 169 -207c105 0 164 83 164 213c0 133 -68 207 -171 207c-106 0 -162 -71 -162 -213zM566 276c0 -174 -97 -286 -257 -286c-138 0 -253 105 -253 286c0 176 98 286 256 286c160 0 254 -124 254 -286zM167 691c0 34 25 51 51 51
c25 0 48 -17 48 -51c0 -33 -23 -51 -48 -51c-26 0 -51 18 -51 51zM356 691c0 34 25 51 51 51c25 0 48 -17 48 -51c0 -33 -23 -51 -48 -51c-26 0 -51 18 -51 51z" />
    <glyph glyph-name="otilde" unicode="&#xf5;" horiz-adv-x="622" 
d="M145 273c0 -132 65 -207 169 -207c105 0 164 83 164 213c0 133 -68 207 -171 207c-106 0 -162 -71 -162 -213zM566 276c0 -174 -97 -286 -257 -286c-138 0 -253 105 -253 286c0 176 98 286 256 286c160 0 254 -124 254 -286zM383 636c-48 0 -102 46 -139 46
c-28 0 -40 -17 -47 -52l-51 16c7 67 47 105 100 105c49 0 102 -46 136 -46c23 0 35 17 42 52l51 -18c-7 -62 -39 -103 -92 -103z" />
    <glyph glyph-name="udieresis" unicode="&#xfc;" horiz-adv-x="628" 
d="M83 552h83v-331c0 -107 43 -155 132 -155c56 0 101 26 130 79c23 40 28 94 28 159v248h84v-552h-83v87c-39 -63 -101 -97 -172 -97c-120 0 -202 66 -202 225v337zM170 691c0 34 25 51 51 51c25 0 48 -17 48 -51c0 -33 -23 -51 -48 -51c-26 0 -51 18 -51 51zM359 691
c0 34 25 51 51 51c25 0 48 -17 48 -51c0 -33 -23 -51 -48 -51c-26 0 -51 18 -51 51z" />
    <glyph glyph-name="ucircumflex" unicode="&#xfb;" horiz-adv-x="628" 
d="M83 552h83v-331c0 -107 43 -155 132 -155c56 0 101 26 130 79c23 40 28 94 28 159v248h84v-552h-83v87c-39 -63 -101 -97 -172 -97c-120 0 -202 66 -202 225v337zM149 602l123 180h81l125 -180h-58l-108 101l-107 -101h-56z" />
    <glyph glyph-name="ugrave" unicode="&#xf9;" horiz-adv-x="628" 
d="M83 552h83v-331c0 -107 43 -155 132 -155c56 0 101 26 130 79c23 40 28 94 28 159v248h84v-552h-83v87c-39 -63 -101 -97 -172 -97c-120 0 -202 66 -202 225v337zM287 782l62 -180h-54l-117 180h109z" />
    <glyph glyph-name="uacute" unicode="&#xfa;" horiz-adv-x="628" 
d="M83 552h83v-331c0 -107 43 -155 132 -155c56 0 101 26 130 79c23 40 28 94 28 159v248h84v-552h-83v87c-39 -63 -101 -97 -172 -97c-120 0 -202 66 -202 225v337zM278 602l62 180h109l-117 -180h-54z" />
    <glyph glyph-name="Ntilde" unicode="&#xd1;" horiz-adv-x="754" 
d="M656 0h-61l-422 597l4 -230v-367h-79v714h85l397 -542l-4 234v308h80v-714zM449 788c-48 0 -102 46 -139 46c-28 0 -40 -17 -47 -52l-51 16c7 67 47 105 100 105c49 0 102 -46 136 -46c23 0 35 17 42 52l51 -18c-7 -62 -39 -103 -92 -103z" />
    <glyph glyph-name="Odieresis" unicode="&#xd6;" horiz-adv-x="779" 
d="M150 354c0 -181 101 -288 244 -288c142 0 236 118 236 295c0 182 -108 287 -246 287c-144 0 -234 -100 -234 -294zM717 357c0 -216 -124 -367 -330 -367c-177 0 -325 139 -325 367c0 219 126 367 329 367c206 0 326 -163 326 -367zM245 833c0 34 25 51 51 51
c25 0 48 -17 48 -51c0 -33 -23 -51 -48 -51c-26 0 -51 18 -51 51zM434 833c0 34 25 51 51 51c25 0 48 -17 48 -51c0 -33 -23 -51 -48 -51c-26 0 -51 18 -51 51z" />
    <glyph glyph-name="Udieresis" unicode="&#xdc;" horiz-adv-x="690" 
d="M525 249v465h81v-459c0 -171 -106 -265 -261 -265s-261 94 -261 265v459h83v-466c0 -117 73 -180 178 -180c107 0 180 65 180 181zM201 833c0 34 25 51 51 51c25 0 48 -17 48 -51c0 -33 -23 -51 -48 -51c-26 0 -51 18 -51 51zM390 833c0 34 25 51 51 51
c25 0 48 -17 48 -51c0 -33 -23 -51 -48 -51c-26 0 -51 18 -51 51z" />
    <glyph glyph-name="Acircumflex" unicode="&#xc2;" horiz-adv-x="644" 
d="M639 0h-87l-73 187h-317l-73 -187h-84l277 714h81zM190 261h263l-61 161l-71 204l-64 -189zM157 754l123 180h81l125 -180h-58l-108 101l-107 -101h-56z" />
    <glyph glyph-name="Ecircumflex" unicode="&#xca;" horiz-adv-x="556" 
d="M496 74v-74h-398v714h388v-74h-305v-229h286v-74h-286v-263h315zM133 754l123 180h81l125 -180h-58l-108 101l-107 -101h-56z" />
    <glyph glyph-name="Aacute" unicode="&#xc1;" horiz-adv-x="644" 
d="M639 0h-87l-73 187h-317l-73 -187h-84l277 714h81zM190 261h263l-61 161l-71 204l-64 -189zM296 754l62 180h109l-117 -180h-54z" />
    <glyph glyph-name="Iacute" unicode="&#xcd;" horiz-adv-x="279" 
d="M181 0h-83v714h83v-714zM104 754l62 180h109l-117 -180h-54z" />
    <glyph glyph-name="Icircumflex" unicode="&#xce;" horiz-adv-x="279" 
d="M181 0h-83v714h83v-714zM-25 754l123 180h81l125 -180h-58l-108 101l-107 -101h-56z" />
    <glyph glyph-name="Idieresis" unicode="&#xcf;" horiz-adv-x="279" 
d="M181 0h-83v714h83v-714zM-4 833c0 34 25 51 51 51c25 0 48 -17 48 -51c0 -33 -23 -51 -48 -51c-26 0 -51 18 -51 51zM185 833c0 34 25 51 51 51c25 0 48 -17 48 -51c0 -33 -23 -51 -48 -51c-26 0 -51 18 -51 51z" />
    <glyph glyph-name="Igrave" unicode="&#xcc;" horiz-adv-x="279" 
d="M181 0h-83v714h83v-714zM113 934l62 -180h-54l-117 180h109z" />
    <glyph glyph-name="Oacute" unicode="&#xd3;" horiz-adv-x="779" 
d="M150 354c0 -181 101 -288 244 -288c142 0 236 118 236 295c0 182 -108 287 -246 287c-144 0 -234 -100 -234 -294zM717 357c0 -216 -124 -367 -330 -367c-177 0 -325 139 -325 367c0 219 126 367 329 367c206 0 326 -163 326 -367zM354 754l62 180h109l-117 -180h-54z
" />
    <glyph glyph-name="Ocircumflex" unicode="&#xd4;" horiz-adv-x="779" 
d="M150 354c0 -181 101 -288 244 -288c142 0 236 118 236 295c0 182 -108 287 -246 287c-144 0 -234 -100 -234 -294zM717 357c0 -216 -124 -367 -330 -367c-177 0 -325 139 -325 367c0 219 126 367 329 367c206 0 326 -163 326 -367zM225 754l123 180h81l125 -180h-58
l-108 101l-107 -101h-56z" />
    <glyph glyph-name="Ograve" unicode="&#xd2;" horiz-adv-x="779" 
d="M150 354c0 -181 101 -288 244 -288c142 0 236 118 236 295c0 182 -108 287 -246 287c-144 0 -234 -100 -234 -294zM717 357c0 -216 -124 -367 -330 -367c-177 0 -325 139 -325 367c0 219 126 367 329 367c206 0 326 -163 326 -367zM363 934l62 -180h-54l-117 180h109z
" />
    <glyph glyph-name="Uacute" unicode="&#xda;" horiz-adv-x="690" 
d="M525 249v465h81v-459c0 -171 -106 -265 -261 -265s-261 94 -261 265v459h83v-466c0 -117 73 -180 178 -180c107 0 180 65 180 181zM309 754l62 180h109l-117 -180h-54z" />
    <glyph glyph-name="Ucircumflex" unicode="&#xdb;" horiz-adv-x="690" 
d="M525 249v465h81v-459c0 -171 -106 -265 -261 -265s-261 94 -261 265v459h83v-466c0 -117 73 -180 178 -180c107 0 180 65 180 181zM180 754l123 180h81l125 -180h-58l-108 101l-107 -101h-56z" />
    <glyph glyph-name="Ugrave" unicode="&#xd9;" horiz-adv-x="690" 
d="M525 249v465h81v-459c0 -171 -106 -265 -261 -265s-261 94 -261 265v459h83v-466c0 -117 73 -180 178 -180c107 0 180 65 180 181zM318 934l62 -180h-54l-117 180h109z" />
    <glyph glyph-name="aring" unicode="&#xe5;" horiz-adv-x="559" 
d="M386 83c-44 -63 -97 -93 -173 -93c-104 0 -169 59 -169 155c0 100 68 148 199 169l143 23v19c0 89 -42 126 -125 126c-52 0 -108 -16 -171 -52l-10 83c56 28 112 49 189 49c116 0 200 -60 200 -201v-214c0 -57 11 -103 26 -147h-91c-11 31 -14 56 -18 83zM386 268
l-132 -22c-80 -13 -123 -39 -123 -96c0 -56 40 -86 101 -86c104 0 154 81 154 196v8zM378 706c0 -63 -44 -106 -110 -106c-65 0 -108 41 -108 105c0 60 44 104 108 104c65 0 110 -46 110 -103zM325 705c0 34 -24 57 -57 57s-57 -24 -57 -57c0 -34 20 -57 57 -57
c34 0 57 23 57 57z" />
    <glyph glyph-name="Aring" unicode="&#xc5;" horiz-adv-x="644" 
d="M431 788c0 -45 -23 -80 -60 -96l268 -692h-87l-73 187h-317l-73 -187h-84l268 691c-39 15 -60 49 -60 96c0 60 44 104 108 104c65 0 110 -46 110 -103zM190 261h263l-61 161l-71 204l-64 -189zM378 787c0 35 -24 57 -57 57s-57 -24 -57 -57c0 -35 20 -57 57 -57
c35 0 57 22 57 57z" />
    <glyph glyph-name="Zcaron" unicode="&#x17d;" horiz-adv-x="571" 
d="M531 74v-74h-491v65l379 575h-367v74h468v-65l-379 -575h390zM244 754l-123 180h56l107 -101l108 101h58l-125 -180h-81z" />
    <glyph glyph-name="zcaron" unicode="&#x17e;" horiz-adv-x="502" 
d="M469 70v-70h-430v62l321 420h-302v70h404v-70l-317 -412h324zM209 602l-123 180h56l107 -101l108 101h58l-125 -180h-81z" />
    <glyph glyph-name="Scaron" unicode="&#x160;" horiz-adv-x="549" 
d="M506 182c0 -115 -90 -192 -249 -192c-85 0 -148 21 -205 50l10 89c64 -38 120 -63 198 -63c104 0 160 47 160 115c0 52 -25 91 -89 118l-122 51c-96 41 -148 95 -148 187c0 106 93 187 231 187c74 0 132 -15 192 -43l-18 -87c-48 30 -113 54 -173 54
c-96 0 -148 -49 -148 -111c0 -60 40 -85 94 -107l124 -51c90 -37 143 -101 143 -197zM243 754l-123 180h56l107 -101l108 101h58l-125 -180h-81z" />
    <glyph glyph-name="scaron" unicode="&#x161;" horiz-adv-x="494" 
d="M446 142c0 -97 -71 -152 -195 -152c-92 0 -144 17 -196 46l11 90c58 -34 105 -60 183 -60c75 0 112 25 112 76c0 31 -11 53 -66 76l-129 52c-81 32 -113 86 -113 147c0 91 81 145 198 145c68 0 118 -10 165 -37l-10 -88c-51 31 -98 49 -154 49c-80 0 -115 -27 -115 -66
c0 -29 13 -50 64 -71l128 -52c91 -37 117 -90 117 -155zM206 602l-123 180h56l107 -101l108 101h58l-125 -180h-81z" />
    <glyph glyph-name="Yacute" unicode="&#xdd;" horiz-adv-x="584" 
d="M103 714l189 -325l190 325h90l-238 -407v-307h-84v303l-238 411h91zM256 754l62 180h109l-117 -180h-54z" />
    <glyph glyph-name="yacute" unicode="&#xfd;" horiz-adv-x="543" 
d="M215 -220h-92l109 245l-226 527h92l106 -261l68 -177l175 438h90zM236 602l62 180h109l-117 -180h-54z" />
    <glyph glyph-name="ccedilla" unicode="&#xe7;" horiz-adv-x="507" 
d="M333 -10c-155 0 -283 105 -283 285c0 177 117 287 285 287c52 0 98 -6 145 -24l-10 -81c-49 19 -87 29 -134 29c-125 0 -197 -70 -197 -213c0 -132 79 -207 199 -207c51 0 89 8 139 30l10 -79c-47 -21 -98 -27 -154 -27zM379 -50l-62 -180h-109l117 180h54z" />
    <glyph glyph-name="Ccedilla" unicode="&#xc7;" horiz-adv-x="631" 
d="M407 -10c-189 0 -348 135 -348 366c0 228 145 368 350 368c65 0 123 -7 182 -30l-10 -87c-57 29 -112 41 -171 41c-151 0 -263 -94 -263 -294c0 -187 121 -288 265 -288c65 0 118 12 178 43l10 -84c-60 -27 -123 -35 -193 -35zM451 -50l-62 -180h-109l117 180h54z" />
    <glyph glyph-name="ellipsis" unicode="&#x2026;" horiz-adv-x="750" 
d="M67 49c0 37 29 59 59 59c29 0 57 -22 57 -59c0 -36 -28 -59 -57 -59c-30 0 -59 23 -59 59zM317 49c0 37 29 59 59 59c29 0 57 -22 57 -59c0 -36 -28 -59 -57 -59c-30 0 -59 23 -59 59zM567 49c0 37 29 59 59 59c29 0 57 -22 57 -59c0 -36 -28 -59 -57 -59
c-30 0 -59 23 -59 59z" />
    <glyph glyph-name="uni0394" unicode="&#x394;" horiz-adv-x="644" 
d="M639 0h-634l277 714h81zM118 74h405l-131 348l-71 204l-64 -189z" />
    <glyph glyph-name="uni03BC" unicode="&#x3bc;" horiz-adv-x="633" 
d="M88 552h83v-331c0 -106 43 -155 132 -155c56 0 101 26 130 79c22 40 28 94 28 159v248h84v-552h-83v87c-38 -62 -102 -97 -172 -97c-50 0 -95 13 -128 47l9 -171v-86h-83v772z" />
    <glyph glyph-name="uni03A9" unicode="&#x3a9;" horiz-adv-x="780" 
d="M390 724c191 0 322 -148 322 -350c0 -148 -75 -245 -161 -306l121 6h63v-74h-276v72c105 83 165 161 165 301c0 175 -97 275 -234 275s-234 -100 -234 -275c0 -140 60 -219 165 -302v-71h-276v74h63l121 -6c-86 61 -161 158 -161 306c0 202 131 350 322 350z" />
    <glyph glyph-name="phonomark" horiz-adv-x="832" 
d="M406 304h-35v-155h-70v416h117c103 0 156 -52 156 -130c0 -87 -61 -131 -168 -131zM412 501h-41v-132h35c64 0 97 22 97 67c0 40 -30 65 -91 65zM49 357c0 218 162 367 367 367c218 0 367 -162 367 -367c0 -211 -154 -367 -367 -367c-222 0 -367 164 -367 367zM119 357
c0 -165 117 -297 297 -297c173 0 297 126 297 297c0 166 -121 297 -297 297c-167 0 -297 -121 -297 -297z" />
    <glyph glyph-name="ffl" unicode="&#xfb04;" horiz-adv-x="980" 
d="M114 552v28c0 113 66 182 179 182c37 0 62 -4 88 -11v-76c-27 6 -53 11 -86 11c-64 0 -98 -37 -98 -106v-28h258v28c0 113 66 182 179 182c37 0 62 -4 88 -11v-76c-27 6 -53 11 -86 11c-64 0 -98 -37 -98 -106v-28h180l-10 -70h-170v-482h-83v482h-258v-482h-83v482h-109
v70h109zM892 0h-82v742h82v-742z" />
    <glyph glyph-name="ffi" unicode="&#xfb03;" horiz-adv-x="980" 
d="M114 552v28c0 113 66 182 179 182c37 0 62 -4 88 -11v-76c-27 6 -53 11 -86 11c-64 0 -98 -37 -98 -106v-28h258v28c0 113 66 182 179 182c37 0 62 -4 88 -11v-76c-27 6 -53 11 -86 11c-64 0 -98 -37 -98 -106v-28h180l-10 -70h-170v-482h-83v482h-258v-482h-83v482h-109
v70h109zM892 0h-82v552h82v-552zM801 691c0 35 24 51 51 51s49 -16 49 -51c0 -33 -22 -51 -49 -51s-51 18 -51 51z" />
    <glyph glyph-name="zero.denom" horiz-adv-x="367" 
d="M337 225c0 -155 -59 -231 -153 -231c-95 0 -154 76 -154 231s59 229 154 229c94 0 153 -74 153 -229zM266 225c0 118 -33 164 -82 164s-82 -46 -82 -164s32 -165 82 -165c49 0 82 47 82 165z" />
    <glyph glyph-name="one.denom" horiz-adv-x="317" 
d="M237 448v-448h-69v363l-58 -52l-35 -26l-39 53l143 110h58z" />
    <glyph glyph-name="two.denom" horiz-adv-x="367" 
d="M55 347l-10 70c37 24 78 37 126 37c88 0 147 -53 147 -134c0 -60 -25 -97 -115 -183l-76 -73h207v-64h-301v56l115 116c82 82 98 110 98 149c0 42 -31 67 -76 67c-39 0 -74 -13 -115 -41z" />
    <glyph glyph-name="three.denom" horiz-adv-x="367" 
d="M32 39l20 71c44 -37 86 -50 121 -50c57 0 86 30 86 70c0 41 -31 76 -107 76h-57v57h54c69 0 97 31 97 66c0 32 -26 59 -71 59c-36 0 -76 -14 -117 -43l-11 70c36 23 80 39 128 39c80 0 143 -51 143 -123c0 -43 -23 -73 -82 -94c58 -9 95 -55 95 -109
c0 -82 -63 -134 -158 -134c-60 0 -108 22 -141 45z" />
    <glyph glyph-name="four.denom" horiz-adv-x="367" 
d="M353 163v-67h-61v-96h-69v96h-208v58l206 294h71v-285h61zM94 163h129v194l-64 -100z" />
    <glyph glyph-name="five.denom" horiz-adv-x="367" 
d="M33 31l13 71c39 -30 79 -42 123 -42c60 0 92 35 92 88c0 50 -37 84 -98 84c-40 0 -76 -9 -114 -23l19 239h235l-14 -64h-161l-9 -99c17 3 34 4 54 4c95 0 159 -58 159 -142c0 -85 -60 -153 -163 -153c-56 0 -98 14 -136 37z" />
    <glyph glyph-name="six.denom" horiz-adv-x="367" 
d="M321 432l-9 -71c-34 19 -65 28 -93 28c-34 0 -59 -14 -75 -35c-21 -28 -35 -66 -37 -117c20 26 51 47 96 47c71 0 136 -56 136 -141c0 -83 -63 -149 -147 -149c-50 0 -94 22 -120 56c-29 38 -36 82 -36 141c0 93 21 157 53 201c29 40 76 62 130 62c36 0 70 -7 102 -22z
M108 146c0 -47 31 -86 83 -86c50 0 78 38 78 84c0 45 -32 80 -79 80c-48 0 -82 -32 -82 -78z" />
    <glyph glyph-name="seven.denom" horiz-adv-x="367" 
d="M158 0h-82l119 234l72 150h-235v64h305v-51z" />
    <glyph glyph-name="eight.denom" horiz-adv-x="367" 
d="M34 117c0 55 31 91 81 114c-45 27 -67 61 -67 103c0 69 60 120 134 120c77 0 137 -46 137 -117c0 -50 -27 -78 -74 -96c55 -28 89 -63 89 -120c0 -71 -58 -127 -149 -127c-94 0 -151 54 -151 123zM207 188l-41 17c-47 -21 -63 -49 -63 -81c0 -37 33 -64 82 -64
c47 0 79 27 79 62c0 29 -20 48 -57 66zM116 334c0 -25 17 -42 49 -56l29 -13c40 17 56 43 56 69c0 32 -29 55 -68 55s-66 -25 -66 -55z" />
    <glyph glyph-name="nine.denom" horiz-adv-x="367" 
d="M46 16l9 71c34 -19 65 -28 93 -28c34 0 60 13 76 34c21 28 34 67 36 118c-20 -26 -51 -47 -96 -47c-71 0 -136 56 -136 141c0 83 63 149 147 149c50 0 94 -22 120 -56c29 -38 36 -82 36 -141c0 -93 -20 -158 -52 -202c-29 -40 -77 -61 -131 -61c-36 0 -70 7 -102 22z
M259 302c0 47 -31 86 -83 86c-50 0 -78 -38 -78 -84c0 -45 32 -80 79 -80c48 0 82 32 82 78z" />
    <glyph glyph-name="parenleft.cap" horiz-adv-x="296" 
d="M50 357c0 172 72 282 162 385h74c-94 -116 -149 -226 -149 -385s55 -269 149 -385h-74c-90 103 -162 213 -162 385z" />
    <glyph glyph-name="parenright.cap" horiz-adv-x="296" 
d="M246 357c0 -172 -72 -282 -162 -385h-74c94 116 149 226 149 385s-55 269 -149 385h74c90 -103 162 -213 162 -385z" />
    <glyph glyph-name="bracketleft.cap" horiz-adv-x="296" 
d="M278 38v-66h-213v770h213v-68h-145v-636h145z" />
    <glyph glyph-name="bracketright.cap" horiz-adv-x="296" 
d="M18 -28v66h145v636h-145v68h213v-770h-213z" />
    <glyph glyph-name="braceleft.cap" horiz-adv-x="296" 
d="M7 324v66c74 1 105 28 105 91v105c0 103 64 156 163 156h11v-68h-10c-68 0 -96 -37 -96 -97v-108c0 -64 -28 -98 -90 -112c62 -14 90 -48 90 -112v-108c0 -60 28 -97 96 -97h10v-68h-11c-99 0 -163 53 -163 156v105c0 63 -31 90 -105 91z" />
    <glyph glyph-name="braceright.cap" horiz-adv-x="296" 
d="M289 390v-66c-74 -1 -105 -28 -105 -91v-105c0 -103 -64 -156 -163 -156h-11v68h10c68 0 96 37 96 97v108c0 64 28 98 90 112c-62 14 -90 48 -90 112v108c0 60 -28 97 -96 97h-10v68h11c99 0 163 -53 163 -156v-105c0 -63 31 -90 105 -91z" />
    <glyph glyph-name="hyphen.cap" horiz-adv-x="340" 
d="M300 322h-260v74h260v-74z" />
    <glyph glyph-name="guillemotleft.cap" horiz-adv-x="516" 
d="M30 359l183 218h89l-185 -218l185 -218h-89zM224 359l183 218h89l-185 -218l185 -218h-89z" />
    <glyph glyph-name="guillemotright.cap" horiz-adv-x="516" 
d="M109 577l183 -218l-183 -218h-89l185 218l-185 218h89zM303 577l183 -218l-183 -218h-89l185 218l-185 218h89z" />
    <glyph glyph-name="guilsinglleft.cap" horiz-adv-x="322" 
d="M30 358l183 218h89l-185 -218l185 -218h-89z" />
    <glyph glyph-name="guilsinglright.cap" horiz-adv-x="322" 
d="M109 576l183 -218l-183 -218h-89l185 218l-185 218h89z" />
    <glyph glyph-name="parenleftsuperior" unicode="&#x207d;" horiz-adv-x="202" 
d="M32 518c0 106 45 176 102 241h71c-64 -77 -101 -147 -101 -241c0 -93 37 -163 101 -241h-71c-57 65 -102 135 -102 241z" />
    <glyph glyph-name="parenrightsuperior" unicode="&#x207e;" horiz-adv-x="202" 
d="M170 518c0 -107 -46 -176 -103 -241h-70c63 79 100 149 100 241c0 94 -37 164 -100 241h70c57 -65 103 -134 103 -241z" />
    <glyph glyph-name="arrowleft" unicode="&#x2190;" horiz-adv-x="1000" 
d="M0 379l298 250v-85l-190 -158l248 5h644v-68h-644l-248 5l190 -158v-85l-298 251v43z" />
    <glyph glyph-name="arrowright" unicode="&#x2192;" horiz-adv-x="1000" 
d="M702 629l298 -250v-43l-298 -251v85l190 158l-248 -5h-644v68h644l248 -5l-190 158v85z" />
    <glyph glyph-name="arrowboth" unicode="&#x2194;" horiz-adv-x="1356" 
d="M1058 629l298 -250v-43l-298 -251v85l190 158l-248 -5h-644l-248 5l190 -158v-85l-298 251v43l298 250v-85l-190 -158l248 5h644l248 -5l-190 158v85z" />
    <glyph glyph-name="gbreve.001" horiz-adv-x="500" 
d="M249 673c58 0 101 32 116 109h49c-12 -116 -67 -180 -165 -180s-153 64 -165 180h49c15 -77 58 -109 116 -109z" />
    <glyph glyph-name="Gbreve.001" horiz-adv-x="500" 
d="M249 673c58 0 101 32 116 109h49c-12 -116 -67 -180 -165 -180s-153 64 -165 180h49c15 -77 58 -109 116 -109z" />
    <glyph glyph-name="Scedilla.001" horiz-adv-x="0" 
 />
    <glyph glyph-name="scedilla.001" horiz-adv-x="0" 
 />
    <glyph glyph-name="dotlessI.001" horiz-adv-x="0" 
 />
    <glyph glyph-name="Gbreve" unicode="&#x11e;" horiz-adv-x="718" 
d="M635 364v-340c-68 -23 -132 -34 -196 -34c-220 0 -378 134 -378 366c0 228 150 368 350 368c65 0 122 -7 182 -30l-10 -86c-60 27 -111 40 -171 40c-149 0 -263 -94 -263 -294c0 -188 121 -288 289 -288c36 0 73 5 116 13v211h-152v74h233zM399 835c59 0 101 26 116 103
h49c-12 -116 -67 -174 -165 -174s-153 58 -165 174h49c15 -77 57 -103 116 -103z" />
    <glyph glyph-name="gbreve" unicode="&#x11f;" horiz-adv-x="600" 
d="M543 -55c0 -99 -93 -185 -261 -185c-147 0 -215 67 -215 143c0 49 26 84 63 107c-31 19 -57 53 -57 102c0 56 33 89 70 112c-35 35 -57 81 -57 138c0 121 86 200 213 200c64 0 98 -10 170 -10h119l-10 -70l-134 8c41 -31 59 -81 59 -137c0 -108 -89 -188 -205 -188
c-36 0 -76 8 -107 24c-25 -17 -45 -41 -45 -70c0 -28 20 -50 55 -50c61 0 135 10 196 10c96 0 146 -59 146 -134zM171 363c0 -74 57 -120 125 -120c76 0 122 49 122 121c0 73 -53 123 -121 123c-76 0 -126 -44 -126 -124zM203 -10c-8 0 -15 0 -22 1c-27 -17 -34 -37 -34 -68
c0 -48 41 -91 149 -91c113 0 167 48 167 105c0 40 -23 63 -70 63c-60 0 -130 -10 -190 -10zM306 685c59 0 101 20 116 97h49c-12 -117 -65 -165 -165 -165s-153 48 -165 165h49c15 -77 57 -97 116 -97z" />
    <glyph glyph-name="dotlessI" unicode="&#x130;" horiz-adv-x="279" 
d="M181 0h-83v695h83v-695zM90 811c0 35 24 51 51 51s49 -16 49 -51c0 -33 -22 -51 -49 -51s-51 18 -51 51z" />
    <glyph glyph-name="Scedilla" unicode="&#x15e;" horiz-adv-x="549" 
d="M506 182c0 -115 -90 -192 -249 -192c-85 0 -148 21 -205 50l10 89c64 -38 120 -63 198 -63c104 0 160 47 160 115c0 52 -25 91 -89 118l-122 51c-96 41 -148 95 -148 187c0 106 93 187 231 187c74 0 132 -15 192 -43l-18 -87c-48 30 -113 54 -173 54
c-96 0 -148 -49 -148 -111c0 -60 40 -85 94 -107l124 -51c90 -37 143 -101 143 -197zM325 -50l-62 -180h-109l117 180h54z" />
    <glyph glyph-name="scedilla" unicode="&#x15f;" horiz-adv-x="494" 
d="M446 142c0 -97 -71 -152 -195 -152c-92 0 -144 17 -196 46l11 90c58 -34 105 -60 183 -60c75 0 112 25 112 76c0 31 -11 53 -66 76l-129 52c-81 32 -113 86 -113 147c0 91 81 145 198 145c68 0 118 -10 165 -37l-10 -88c-51 31 -98 49 -154 49c-80 0 -115 -27 -115 -66
c0 -29 13 -50 64 -71l128 -52c91 -37 117 -90 117 -155zM306 -50l-62 -180h-109l117 180h54z" />
    </font>
</defs>
</svg>
