<?xml version="1.0" standalone="no"?>
<!DOCTYPE svg PUBLIC "-//W3C//DTD SVG 1.1//EN" "http://www.w3.org/Graphics/SVG/1.1/DTD/svg11.dtd" >
<svg>
<metadata>
Created by FontForge 20110222 at Mon Feb 27 15:27:09 2017
 By Rezo Zero Webserver user,,,
Copyright (c) 2014 by Matthieu Cortat. All rights reserved.
</metadata>
<defs>
<font id="RoadizSans-Mono" horiz-adv-x="680" >
  <font-face 
    font-family="Roadiz Sans"
    font-weight="400"
    font-stretch="normal"
    units-per-em="1000"
    panose-1="2 11 6 9 3 0 4 2 0 4"
    ascent="800"
    descent="-200"
    x-height="552"
    cap-height="714"
    bbox="11 -240 1270 948"
    underline-thickness="50"
    underline-position="-50"
    stemh="76"
    stemv="83"
    unicode-range="U+0020-FB02"
  />
<missing-glyph horiz-adv-x="620" 
 />
    <glyph glyph-name=".notdef" horiz-adv-x="620" 
 />
    <glyph glyph-name="exclam" unicode="!" 
d="M391 714l-25 -517h-51l-25 517h101zM282 49c0 37 29 59 59 59c29 0 57 -22 57 -59c0 -36 -28 -59 -57 -59c-30 0 -59 23 -59 59z" />
    <glyph glyph-name="quotedbl" unicode="&#x22;" 
d="M208 714h95l-22 -248h-50zM377 714h95l-22 -248h-50z" />
    <glyph glyph-name="numbersign" unicode="#" 
d="M640 434h-140l-33 -156h137v-70h-150l-40 -208h-74l41 208h-138l-40 -208h-76l40 208h-127v70h139l33 156h-134v68h146l38 212h76l-40 -212h140l41 212h72l-39 -212h128v-68zM285 434l-32 -156h138l33 156h-139z" />
    <glyph glyph-name="dollar" unicode="$" 
d="M313 -140v130c-98 1 -164 21 -220 50l10 89c62 -37 121 -62 210 -63v262l-51 18c-111 38 -160 98 -160 185c0 98 75 178 211 191v131h68v-130c75 -3 130 -17 184 -42l-18 -87c-44 25 -101 48 -166 53v-252l38 -12c127 -42 168 -105 168 -198c0 -101 -72 -175 -206 -191
v-134h-68zM186 532c0 -55 38 -85 108 -108l19 -6v228c-87 -11 -127 -56 -127 -114zM403 298l-22 7v-234c77 14 120 56 120 117c0 47 -22 84 -98 110z" />
    <glyph glyph-name="percent" unicode="%" 
d="M113 109l-41 52l493 448l44 -50zM120 561c0 -55 25 -99 79 -99c53 0 82 44 82 99c0 54 -29 98 -82 98c-54 0 -79 -43 -79 -98zM351 561c0 -102 -61 -165 -152 -165c-86 0 -149 66 -149 165c0 102 59 163 149 163c89 0 152 -66 152 -163zM399 156c0 -55 25 -99 79 -99
c53 0 82 44 82 99c0 54 -29 98 -82 98c-54 0 -79 -43 -79 -98zM630 156c0 -102 -61 -165 -152 -165c-86 0 -149 66 -149 165c0 102 59 163 149 163c89 0 152 -66 152 -163z" />
    <glyph glyph-name="ampersand" unicode="&#x26;" 
d="M529 0l-68 79c-58 -60 -119 -89 -195 -89c-141 0 -223 91 -223 201c0 95 50 161 144 206l-9 11c-40 47 -70 92 -70 153c0 94 72 163 175 163s168 -74 168 -164c0 -70 -34 -118 -113 -162l-32 -18l155 -177c25 45 51 110 61 166h86c-12 -74 -58 -169 -95 -225l125 -144
h-109zM266 66c54 0 102 24 145 71l-177 205c-69 -35 -105 -82 -105 -149c0 -64 51 -127 137 -127zM190 561c0 -43 28 -78 56 -111l14 -16l35 20c47 27 72 54 72 106c0 48 -31 88 -83 88c-55 0 -94 -32 -94 -87z" />
    <glyph glyph-name="quotesingle" unicode="'" 
d="M292 714h95l-22 -248h-50z" />
    <glyph glyph-name="parenleft" unicode="(" 
d="M289 272c0 -189 76 -350 229 -472h-88c-123 97 -228 246 -228 471s105 373 228 470h88c-154 -122 -229 -280 -229 -469z" />
    <glyph glyph-name="parenright" unicode=")" 
d="M391 272c0 189 -75 347 -229 469h88c123 -97 228 -245 228 -470s-105 -374 -228 -471h-88c153 122 229 283 229 472z" />
    <glyph glyph-name="asterisk" unicode="*" 
d="M291 594h95l-22 -204l205 56l14 -89l-199 -15l129 -169l-84 -46l-92 188l-84 -188l-86 46l126 169l-197 15l15 89l202 -56z" />
    <glyph glyph-name="plus" unicode="+" 
d="M373 600v-209h201v-67h-201v-208h-68v208h-200v67h200v209h68z" />
    <glyph glyph-name="comma" unicode="," 
d="M306 118h99l-90 -256h-60z" />
    <glyph glyph-name="hyphen" unicode="-" 
d="M490 231h-300v74h300v-74z" />
    <glyph glyph-name="period" unicode="." 
d="M276 55c0 41 32 65 65 65c32 0 63 -24 63 -65c0 -40 -31 -65 -63 -65c-33 0 -65 25 -65 65z" />
    <glyph glyph-name="slash" unicode="/" 
d="M515 714h89l-439 -714h-89z" />
    <glyph glyph-name="zero" unicode="0" 
d="M579 358c0 -247 -92 -368 -239 -368s-239 121 -239 368s92 366 239 366s239 -119 239 -366zM494 358c0 69 -7 124 -19 167l-235 -408c26 -35 60 -51 100 -51c92 0 154 84 154 292zM187 358c0 -68 6 -122 18 -165l234 406c-25 34 -59 49 -98 49c-92 0 -154 -82 -154 -290z
" />
    <glyph glyph-name="one" unicode="1" 
d="M446 714v-714h-82v616l-97 -79l-71 -55l-45 62l219 170h76z" />
    <glyph glyph-name="two" unicode="2" 
d="M141 582l-12 83c51 35 118 59 198 59c128 0 220 -83 220 -207c0 -96 -38 -156 -184 -295l-156 -148h367v-74h-469v70l188 189c141 141 168 191 168 260c0 80 -54 127 -134 127c-65 0 -127 -24 -186 -64z" />
    <glyph glyph-name="three" unicode="3" 
d="M108 57l22 83c60 -51 129 -74 192 -74c107 0 161 54 161 131c0 76 -62 140 -204 140h-70v74h60c133 0 192 58 192 124c0 64 -51 111 -136 111c-65 0 -127 -24 -185 -64l-12 81c51 34 120 61 198 61c123 0 221 -76 221 -186c0 -80 -45 -134 -157 -162
c106 -14 179 -81 179 -182c0 -128 -99 -204 -247 -204c-96 0 -166 33 -214 67z" />
    <glyph glyph-name="four" unicode="4" 
d="M606 238v-78h-102v-160h-82v160h-347v75l336 479h93v-476h102zM171 238h251v375l-111 -170z" />
    <glyph glyph-name="five" unicode="5" 
d="M106 46l16 84c53 -41 117 -64 194 -64c110 0 169 69 169 161c0 90 -68 152 -180 152c-70 0 -123 -13 -171 -30l29 365h355l-15 -74h-273l-16 -204c36 7 68 13 109 13c148 0 248 -88 248 -224c0 -128 -94 -235 -255 -235c-90 0 -155 23 -210 56z" />
    <glyph glyph-name="six" unicode="6" 
d="M550 694l-10 -82c-45 24 -92 36 -141 36c-61 0 -106 -26 -136 -65c-37 -48 -63 -120 -67 -218c42 56 97 83 170 83c117 0 217 -94 217 -226c0 -129 -95 -232 -229 -232c-79 0 -147 34 -187 87c-45 59 -57 129 -57 225c0 155 34 255 86 325c47 63 117 97 203 97
c56 0 107 -11 151 -30zM198 226c0 -87 58 -160 155 -160c92 0 146 72 146 157s-60 151 -149 151s-152 -61 -152 -148z" />
    <glyph glyph-name="seven" unicode="7" 
d="M287 0h-100l213 439l101 201h-397v74h475v-65z" />
    <glyph glyph-name="eight" unicode="8" 
d="M107 187c0 90 56 152 142 188c-73 36 -119 90 -119 165c0 105 91 184 208 184c123 0 211 -71 211 -184c0 -82 -55 -131 -131 -162l4 -1c92 -42 152 -93 152 -192c0 -108 -90 -195 -232 -195c-146 0 -235 84 -235 197zM385 311l-67 31c-92 -38 -129 -91 -129 -152
c0 -72 62 -124 153 -124c89 0 149 52 149 120c0 58 -36 92 -106 125zM211 540c0 -48 30 -81 91 -109l43 -20c86 32 123 74 123 129c0 63 -55 108 -130 108s-127 -48 -127 -108z" />
    <glyph glyph-name="nine" unicode="9" 
d="M130 20l10 82c45 -24 92 -36 141 -36c61 0 106 26 136 65c37 48 63 120 67 218c-42 -56 -97 -83 -170 -83c-117 0 -217 94 -217 226c0 129 95 232 229 232c79 0 147 -34 187 -87c45 -59 57 -129 57 -225c0 -155 -33 -257 -85 -327c-47 -63 -118 -95 -204 -95
c-56 0 -107 11 -151 30zM482 488c0 87 -58 160 -155 160c-92 0 -146 -72 -146 -157s60 -151 149 -151s152 61 152 148z" />
    <glyph glyph-name="colon" unicode=":" 
d="M276 55c0 41 32 65 65 65c32 0 63 -24 63 -65c0 -40 -31 -65 -63 -65c-33 0 -65 25 -65 65zM276 497c0 41 32 65 65 65c32 0 63 -24 63 -65c0 -40 -31 -65 -63 -65c-33 0 -65 25 -65 65z" />
    <glyph glyph-name="semicolon" unicode=";" 
d="M306 118h99l-90 -256h-60zM273 497c0 41 32 65 65 65c32 0 63 -24 63 -65c0 -40 -31 -65 -63 -65c-33 0 -65 25 -65 65z" />
    <glyph glyph-name="less" unicode="&#x3c;" 
d="M105 333v50l469 208v-78l-376 -155l376 -155v-78z" />
    <glyph glyph-name="equal" unicode="=" 
d="M105 491h469v-67h-469v67zM105 291h469v-67h-469v67z" />
    <glyph glyph-name="greater" unicode="&#x3e;" 
d="M574 383v-50l-469 -208v78l376 155l-376 155v78z" />
    <glyph glyph-name="question" unicode="?" 
d="M252 49c0 37 29 59 59 59c29 0 57 -22 57 -59c0 -36 -28 -59 -57 -59c-30 0 -59 23 -59 59zM537 538c0 -52 -21 -96 -67 -139l-91 -85c-30 -28 -41 -51 -41 -82c0 -17 3 -27 4 -35h-53c-7 17 -10 39 -10 53c0 51 18 82 51 113l55 53c48 46 71 82 71 121
c0 62 -39 112 -135 112c-60 0 -115 -21 -163 -55l-16 78c51 31 111 52 180 52c138 0 215 -86 215 -186z" />
    <glyph glyph-name="at" unicode="@" 
d="M224 306l-1 77c18 4 44 6 64 6c57 0 104 -9 159 -24c-15 -49 -24 -88 -24 -130c0 -58 18 -86 54 -86c40 0 73 44 73 158c0 140 -67 223 -195 223c-143 0 -223 -106 -223 -259c0 -175 107 -275 281 -275c67 0 123 11 187 36l9 -76c-67 -24 -129 -36 -197 -36
c-208 0 -361 118 -361 350c0 196 117 335 304 335c174 0 277 -119 277 -298c0 -166 -70 -234 -154 -234c-81 0 -137 64 -131 171c2 31 4 46 6 62c-24 6 -54 7 -76 7c-19 0 -36 -4 -52 -7z" />
    <glyph glyph-name="A" unicode="A" 
d="M637 0h-87l-63 187h-297l-63 -187h-84l257 714h81zM217 261h245l-56 161l-67 201l-61 -186z" />
    <glyph glyph-name="B" unicode="B" horiz-adv-x="660" 
d="M102 0v714h225c160 0 224 -88 224 -185c0 -82 -39 -140 -136 -153c104 -13 162 -77 162 -173c0 -127 -93 -203 -246 -203h-229zM185 74h123c122 0 183 45 183 130c0 84 -57 133 -173 133h-46v74h39c106 0 156 39 156 113c0 75 -47 116 -147 116h-135v-566z" />
    <glyph glyph-name="C" unicode="C" horiz-adv-x="660" 
d="M424 -10c-204 0 -355 135 -355 366c0 228 139 368 349 368c56 0 114 -7 173 -30l-10 -87c-57 29 -112 41 -163 41c-149 0 -261 -94 -261 -294c0 -187 120 -288 267 -288c53 0 106 12 166 43l10 -84c-60 -27 -123 -35 -176 -35z" />
    <glyph glyph-name="D" unicode="D" horiz-adv-x="660" 
d="M90 714h159c209 0 341 -136 341 -358c0 -225 -145 -356 -346 -356h-154v714zM259 642h-86v-570h71c149 0 258 101 258 282c0 194 -100 288 -243 288z" />
    <glyph glyph-name="E" unicode="E" 
d="M572 74v-74h-448v714h438v-74h-355v-229h336v-74h-336v-263h365z" />
    <glyph glyph-name="F" unicode="F" horiz-adv-x="660" 
d="M212 337v-337h-83v714h438v-74h-355v-229h316v-74h-316z" />
    <glyph glyph-name="G" unicode="G" 
d="M604 21c-60 -21 -112 -31 -176 -31c-210 0 -358 135 -358 366s151 368 344 368c51 0 110 -6 161 -27l-10 -82c-52 22 -99 33 -151 33c-149 0 -256 -99 -256 -294c0 -187 118 -288 269 -288c36 0 66 5 96 11v213h-132v74h213v-343z" />
    <glyph glyph-name="H" unicode="H" 
d="M571 714v-714h-83v336h-296v-336h-83v714h83v-304h296v304h83z" />
    <glyph glyph-name="J" unicode="J" 
d="M140 640v74h384v-452c0 -177 -100 -272 -276 -272c-46 0 -78 6 -114 16l7 78c33 -9 66 -18 115 -18c111 0 185 67 185 192v382h-301z" />
    <glyph glyph-name="K" unicode="K" 
d="M190 714v-714h-83v714h83zM508 0l-289 394l280 320h103l-285 -320l296 -394h-105z" />
    <glyph glyph-name="L" unicode="L" 
d="M551 0h-398v714h83v-639h315v-75z" />
    <glyph glyph-name="M" unicode="M" 
d="M369 300h-67l-139 297l11 -443v-154h-77v714h91l149 -308l155 308h90v-714h-83v160l12 436z" />
    <glyph glyph-name="N" unicode="N" 
d="M585 0h-66l-349 588l4 -230v-358h-79v714h90l324 -534l-4 234v300h80v-714z" />
    <glyph glyph-name="O" unicode="O" 
d="M154 354c0 -181 68 -288 191 -288c122 0 182 118 182 295c0 182 -74 287 -192 287c-124 0 -181 -100 -181 -294zM614 357c0 -222 -90 -367 -276 -367c-157 0 -272 133 -272 367c0 225 93 367 276 367c186 0 272 -157 272 -367z" />
    <glyph glyph-name="P" unicode="P" 
d="M315 283h-109v-283h-83v714h214c173 0 259 -86 259 -215c0 -145 -100 -216 -281 -216zM326 640h-120v-283h109c132 0 195 48 195 143c0 88 -59 140 -184 140z" />
    <glyph glyph-name="Q" unicode="Q" 
d="M535 0l-32 44c-43 -35 -98 -54 -165 -54c-157 0 -272 133 -272 367c0 225 93 367 276 367c186 0 272 -157 272 -367c0 -105 -20 -192 -61 -255l72 -102h-90zM154 354c0 -181 68 -288 191 -288c45 0 81 16 110 45l-122 172h94l73 -106c19 48 27 113 27 184
c0 182 -74 287 -192 287c-124 0 -181 -100 -181 -294z" />
    <glyph glyph-name="R" unicode="R" 
d="M284 283h-86v-283h-83v714h191c173 0 262 -86 262 -215c0 -97 -49 -166 -145 -197l195 -302h-98l-179 285c-18 -2 -37 -2 -57 -2zM295 640h-97v-283h86c132 0 198 48 198 143c0 87 -62 140 -187 140z" />
    <glyph glyph-name="S" unicode="S" 
d="M587 185c0 -116 -94 -195 -269 -195c-101 0 -168 21 -225 50l10 89c64 -38 125 -63 218 -63c115 0 180 47 180 122c0 47 -22 84 -98 110l-141 48c-111 38 -160 98 -160 185c0 108 90 193 251 193c90 0 152 -15 212 -43l-18 -87c-50 29 -117 54 -193 54
c-115 0 -168 -49 -168 -116c0 -55 38 -85 108 -108l125 -41c127 -42 168 -105 168 -198z" />
    <glyph glyph-name="T" unicode="T" 
d="M381 640v-640h-83v640h-216v74h515v-74h-216z" />
    <glyph glyph-name="U" unicode="U" 
d="M508 239v475h81v-469c0 -161 -96 -255 -249 -255s-249 94 -249 255v469h83v-476c0 -107 63 -170 166 -170c105 0 168 65 168 171z" />
    <glyph glyph-name="V" unicode="V" 
d="M417 342l131 372h90l-257 -714h-84l-256 714h89l131 -372l78 -245z" />
    <glyph glyph-name="W" unicode="W" 
d="M469 97l32 246l60 371h87l-125 -714h-96l-88 286l-88 -286h-96l-124 714h87l60 -372l32 -245l90 308l-91 309h75l57 -220l57 220h78l-97 -310z" />
    <glyph glyph-name="X" unicode="X" 
d="M386 376l238 -376h-95l-191 311l-187 -311h-96l236 374l-220 340h94l175 -280l174 280h93z" />
    <glyph glyph-name="Y" unicode="Y" 
d="M132 714l208 -346l209 346h91l-258 -427v-287h-84v283l-258 431h92z" />
    <glyph glyph-name="Z" unicode="Z" 
d="M595 74v-74h-511v65l397 575h-385v74h488v-65l-397 -575h408z" />
    <glyph glyph-name="bracketleft" unicode="[" 
d="M516 -134v-66h-293v941h293v-68h-225v-807h225z" />
    <glyph glyph-name="backslash" unicode="\" 
d="M76 714h89l439 -714h-89z" />
    <glyph glyph-name="bracketright" unicode="]" 
d="M164 -200v66h225v807h-225v68h293v-941h-293z" />
    <glyph glyph-name="asciicircum" unicode="^" 
d="M315 714h50l208 -469h-78l-155 376l-155 -376h-78z" />
    <glyph glyph-name="underscore" unicode="_" 
d="M110 0v68h460v-68h-460z" />
    <glyph glyph-name="grave" unicode="`" 
d="M363 782l62 -180h-54l-117 180h109z" />
    <glyph glyph-name="a" unicode="a" 
d="M477 92c-46 -68 -118 -102 -185 -102c-117 0 -188 59 -188 155c0 100 71 149 191 166l181 26v13c0 95 -51 132 -145 132c-62 0 -118 -16 -181 -52l-10 83c56 28 107 49 199 49c130 0 220 -60 220 -214v-201c0 -57 12 -104 32 -147h-91c-14 31 -19 65 -23 92zM476 268
l-171 -25c-71 -10 -114 -40 -114 -96c0 -53 44 -83 111 -83c113 0 174 81 174 196v8z" />
    <glyph glyph-name="b" unicode="b" 
d="M186 742v-275c38 62 103 95 172 95c149 0 239 -108 239 -285c0 -165 -86 -287 -236 -287c-77 0 -136 36 -175 97v-87h-84v742h84zM184 279c0 -142 57 -213 161 -213c96 0 162 74 162 207c0 130 -57 213 -159 213c-101 0 -164 -75 -164 -207z" />
    <glyph glyph-name="c" unicode="c" 
d="M414 -10c-162 0 -303 105 -303 285c0 177 130 287 305 287c64 0 118 -8 165 -24l-10 -81c-49 19 -88 29 -154 29c-136 0 -217 -77 -217 -213c0 -125 87 -207 219 -207c69 0 109 8 159 30l10 -79c-47 -19 -98 -27 -174 -27z" />
    <glyph glyph-name="d" unicode="d" 
d="M494 467v275h84v-742h-84v87c-39 -61 -98 -97 -175 -97c-150 0 -236 122 -236 287c0 177 90 285 239 285c69 0 134 -33 172 -95zM496 279c0 132 -63 207 -164 207c-102 0 -159 -83 -159 -213c0 -133 66 -207 162 -207c104 0 161 71 161 213z" />
    <glyph glyph-name="e" unicode="e" 
d="M390 -10c-177 0 -293 105 -293 287c0 180 126 285 263 285c59 0 92 -9 127 -28c67 -37 108 -112 108 -205c0 -23 -2 -41 -6 -58h-404c0 -129 85 -205 205 -205c63 0 112 15 171 41l9 -84c-47 -19 -105 -33 -180 -33zM361 486c-90 0 -158 -63 -171 -145h319
c0 95 -61 145 -148 145z" />
    <glyph glyph-name="f" unicode="f" 
d="M271 552v28c0 113 66 182 179 182c37 0 61 -4 88 -11l-5 -79c-27 11 -48 14 -81 14c-65 0 -98 -35 -98 -106v-28h230l-10 -70h-220v-482h-83v482h-159v70h159z" />
    <glyph glyph-name="g" unicode="g" 
d="M583 -55c0 -98 -93 -185 -261 -185c-146 0 -215 67 -215 143c0 49 26 85 63 107c-31 19 -57 53 -57 102c0 54 33 89 70 112c-35 34 -57 81 -57 138c0 121 86 200 213 200c64 0 97 -10 170 -10h119l-10 -70l-134 8c41 -30 59 -82 59 -137c0 -108 -89 -188 -205 -188
c-36 0 -76 8 -107 24c-25 -17 -45 -41 -45 -70c0 -28 21 -50 55 -50c61 0 135 10 196 10c96 0 146 -60 146 -134zM211 363c0 -74 56 -120 125 -120c74 0 122 50 122 121c0 73 -53 123 -121 123c-75 0 -126 -46 -126 -124zM243 -10c-8 0 -15 0 -22 1c-26 -17 -34 -37 -34 -68
c0 -48 42 -91 149 -91c114 0 167 48 167 105c0 40 -24 63 -70 63c-59 0 -131 -10 -190 -10z" />
    <glyph glyph-name="h" unicode="h" 
d="M573 0h-83v331c0 106 -40 155 -127 155c-65 0 -110 -26 -139 -79c-22 -40 -28 -94 -28 -159v-248h-84v741h84v-276c38 62 101 97 179 97c41 0 78 -6 108 -23c56 -32 90 -98 90 -202v-337z" />
    <glyph glyph-name="i" unicode="i" 
d="M136 552h252v-482h179v-70h-441v70h179v412h-169v70zM286 691c0 42 29 62 62 62s59 -20 59 -62c0 -40 -26 -62 -59 -62s-62 22 -62 62z" />
    <glyph glyph-name="j" unicode="j" 
d="M377 482h-230v70h312v-570c0 -136 -83 -203 -209 -203c-55 0 -94 11 -129 24v79c34 -15 73 -27 126 -27c82 0 130 42 130 138v489zM357 691c0 42 29 62 62 62s59 -20 59 -62c0 -40 -26 -62 -59 -62s-62 22 -62 62z" />
    <glyph glyph-name="k" unicode="k" 
d="M498 0l-258 315l236 237h105l-239 -236l262 -316h-106zM217 741v-741h-82v741h82z" />
    <glyph glyph-name="l" unicode="l" 
d="M136 742h252v-672h179v-70h-441v70h179v602h-169v70z" />
    <glyph glyph-name="m" unicode="m" 
d="M162 358v-358h-79v552h77v-64c20 41 54 74 104 74c58 0 87 -31 104 -78c23 49 62 78 116 78c69 0 117 -52 117 -142v-420h-78v410c0 52 -20 76 -60 76c-29 0 -53 -15 -68 -41c-10 -19 -13 -48 -13 -80v-365h-79v410c0 52 -20 76 -60 76c-31 0 -52 -16 -66 -42
c-10 -19 -15 -54 -15 -86z" />
    <glyph glyph-name="n" unicode="n" 
d="M573 0h-83v331c0 106 -40 155 -127 155c-65 0 -110 -26 -139 -79c-22 -40 -28 -94 -28 -159v-248h-84v552h83v-87c38 62 102 97 180 97c42 0 79 -7 109 -25c56 -32 89 -97 89 -200v-337z" />
    <glyph glyph-name="o" unicode="o" 
d="M174 273c0 -132 65 -207 169 -207c105 0 164 83 164 213c0 133 -68 207 -171 207c-106 0 -162 -71 -162 -213zM595 276c0 -174 -97 -286 -257 -286c-138 0 -253 105 -253 286c0 176 98 286 256 286c160 0 254 -124 254 -286z" />
    <glyph glyph-name="p" unicode="p" 
d="M186 85v-305h-84v772h84v-87c39 61 98 97 175 97c150 0 236 -122 236 -287c0 -177 -90 -285 -239 -285c-69 0 -134 33 -172 95zM184 273c0 -132 63 -207 164 -207c102 0 159 83 159 213c0 133 -66 207 -162 207c-104 0 -161 -71 -161 -213z" />
    <glyph glyph-name="q" unicode="q" 
d="M494 -220v305c-38 -62 -103 -95 -172 -95c-149 0 -239 108 -239 285c0 165 86 287 236 287c77 0 136 -36 175 -97l10 87h74v-772h-84zM496 273c0 142 -57 213 -161 213c-96 0 -162 -74 -162 -207c0 -130 57 -213 159 -213c101 0 164 75 164 207z" />
    <glyph glyph-name="r" unicode="r" 
d="M85 552h222v-107c39 68 99 117 205 117c29 0 67 -5 97 -13l-8 -88c-26 11 -60 18 -94 18c-96 0 -148 -38 -174 -93c-19 -40 -25 -83 -25 -148v-168h248v-70h-471v70h139v412h-139v70z" />
    <glyph glyph-name="s" unicode="s" 
d="M573 141c0 -92 -71 -151 -225 -151c-112 0 -172 20 -226 47l11 89c58 -34 124 -60 213 -60c94 0 142 27 142 76c0 40 -24 70 -91 86l-125 30c-108 26 -152 84 -152 152c0 89 77 152 228 152c83 0 139 -13 195 -36l-10 -89c-59 28 -118 49 -190 49
c-103 0 -139 -35 -139 -72c0 -38 25 -60 85 -74l123 -28c106 -25 161 -82 161 -171z" />
    <glyph glyph-name="t" unicode="t" 
d="M316 482v-283c0 -84 53 -133 134 -133c50 0 80 9 117 19l4 -81c-34 -8 -68 -14 -123 -14c-133 0 -215 72 -215 202v290h-159v70h159v109l83 28v-137h249l-10 -70h-239z" />
    <glyph glyph-name="u" unicode="u" 
d="M109 552h83v-331c0 -107 43 -155 132 -155c56 0 101 26 130 79c23 40 28 94 28 159v248h84v-552h-83v87c-39 -63 -101 -97 -172 -97c-120 0 -202 66 -202 225v337z" />
    <glyph glyph-name="v" unicode="v" 
d="M379 0h-78l-239 552h94l113 -263l73 -180l74 182l112 261h90z" />
    <glyph glyph-name="w" unicode="w" 
d="M244 0h-82l-127 552h93l55 -260l32 -183l85 225l-90 218h82l50 -140l51 140h78l-88 -214l87 -229l29 170l58 273h89l-127 -552h-80l-100 242z" />
    <glyph glyph-name="x" unicode="x" 
d="M65 0l221 281l-209 271h106l160 -216l164 216h96l-210 -270l221 -282h-108l-169 226l-171 -226h-101z" />
    <glyph glyph-name="y" unicode="y" 
d="M283 -220h-92l112 241l-249 531h94l119 -264l77 -182l190 446h91z" />
    <glyph glyph-name="z" unicode="z" 
d="M555 70v-70h-430v62l321 420h-302v70h404v-70l-317 -412h324z" />
    <glyph glyph-name="braceleft" unicode="{" 
d="M252 271c68 -14 96 -60 96 -131v-102c0 -115 55 -170 156 -170h40v-68h-46c-137 0 -218 85 -218 223v102c0 72 -30 113 -114 113h-11v66h11c84 0 114 41 114 113v102c0 138 81 223 218 223h46v-68h-40c-101 0 -156 -55 -156 -170v-102c0 -71 -28 -117 -96 -131z" />
    <glyph glyph-name="bar" unicode="|" 
d="M374 -200h-68v942h68v-942z" />
    <glyph glyph-name="braceright" unicode="}" 
d="M428 271c-68 14 -96 60 -96 131v102c0 115 -55 170 -156 170h-40v68h46c137 0 218 -85 218 -223v-102c0 -72 30 -113 114 -113h11v-66h-11c-84 0 -114 -41 -114 -113v-102c0 -138 -81 -223 -218 -223h-46v68h40c101 0 156 55 156 170v102c0 71 28 117 96 131z" />
    <glyph glyph-name="asciitilde" unicode="~" 
d="M220 420c51 0 89 -13 136 -32c43 -18 72 -27 103 -27c35 0 80 16 115 50v-80c-32 -23 -69 -37 -115 -37c-51 0 -89 12 -136 32c-32 14 -65 27 -103 27c-35 0 -80 -16 -115 -50v80c32 23 69 37 115 37z" />
    <glyph glyph-name="exclamdown" unicode="&#xa1;" 
d="M366 517l25 -517h-101l25 517h51zM282 665c0 36 29 59 59 59c29 0 57 -23 57 -59c0 -37 -28 -59 -57 -59c-30 0 -59 22 -59 59z" />
    <glyph glyph-name="cent" unicode="&#xa2;" 
d="M381 -200v192c-148 13 -270 115 -270 283c0 165 113 271 270 285v182h68v-181c50 -2 93 -10 132 -23l-10 -81c-41 15 -75 25 -122 28v-419c51 2 87 11 129 30l10 -79c-40 -16 -82 -24 -139 -26v-191h-68zM200 273c0 -113 70 -190 181 -205v416
c-114 -13 -181 -88 -181 -211z" />
    <glyph glyph-name="sterling" unicode="&#xa3;" 
d="M190 331h-79v68h79v58c0 172 102 267 266 267c42 0 91 -9 127 -17l-8 -79c-39 12 -74 20 -127 20c-109 0 -175 -67 -175 -192v-57h249l-10 -68h-239v-102c0 -94 -34 -131 -80 -155h391v-74h-474v69c49 24 80 68 80 148v114z" />
    <glyph glyph-name="yen" unicode="&#xa5;" 
d="M98 276v68h163l-221 370h92l208 -346l209 346h91l-224 -370h166v-68h-200v-93h200v-68h-200v-115h-84v115h-200v68h200v93h-200z" />
    <glyph glyph-name="brokenbar" unicode="&#xa6;" 
d="M374 -200h-68v362h68v-362zM374 380h-68v362h68v-362z" />
    <glyph glyph-name="section" unicode="&#xa7;" 
d="M149 274c0 69 38 118 89 150c-56 35 -83 81 -83 138c0 96 77 162 194 162c67 0 121 -16 167 -42l-12 -83c-51 31 -98 49 -154 49c-79 0 -111 -39 -111 -79c0 -33 19 -61 71 -87l109 -54c95 -47 122 -104 122 -174c0 -66 -38 -113 -96 -145c64 -40 91 -87 91 -148
c0 -97 -71 -162 -200 -162c-87 0 -149 20 -198 47l12 87c58 -34 106 -58 184 -58c79 0 117 37 117 86c0 37 -25 66 -77 92l-104 53c-84 43 -121 99 -121 168zM231 285c0 -46 24 -75 73 -101l78 -41c44 23 76 64 76 111c0 37 -18 69 -70 95l-86 42c-48 -24 -71 -62 -71 -106z
" />
    <glyph glyph-name="dieresis" unicode="&#xa8;" 
d="M196 691c0 34 25 51 51 51c25 0 48 -17 48 -51c0 -33 -23 -51 -48 -51c-26 0 -51 18 -51 51zM385 691c0 34 25 51 51 51c25 0 48 -17 48 -51c0 -33 -23 -51 -48 -51c-26 0 -51 18 -51 51z" />
    <glyph glyph-name="copyright" unicode="&#xa9;" 
d="M347 208c-80 0 -151 55 -151 151c0 95 66 154 152 154c26 0 50 -4 82 -18l-5 -61c-33 16 -58 22 -77 22c-49 0 -91 -31 -91 -97c0 -61 45 -95 92 -95c24 0 47 8 79 25l5 -62c-29 -13 -57 -19 -86 -19zM56 360c0 169 126 284 284 284c168 0 283 -127 283 -284
c0 -163 -120 -283 -283 -283c-172 0 -284 127 -284 283zM122 360c0 -121 86 -217 218 -217c127 0 217 92 217 217c0 122 -89 218 -217 218c-123 0 -218 -89 -218 -218z" />
    <glyph glyph-name="ordfeminine" unicode="&#xaa;" 
d="M415 294c-5 13 -10 40 -12 51c-23 -35 -59 -57 -99 -57c-68 0 -111 40 -111 103c0 67 44 96 127 107l78 10v10c0 46 -23 65 -65 65c-29 0 -66 -7 -112 -34l-8 69c36 20 76 33 124 33c77 0 130 -39 130 -130v-129c0 -35 8 -67 19 -98h-71zM316 347c51 0 82 39 82 92v19
l-68 -11c-41 -7 -65 -25 -65 -56c0 -29 21 -44 51 -44z" />
    <glyph glyph-name="guillemotleft" unicode="&#xab;" 
d="M112 268l183 218h89l-185 -218l185 -218h-89zM306 268l183 218h89l-185 -218l185 -218h-89z" />
    <glyph glyph-name="logicalnot" unicode="&#xac;" 
d="M105 491h469v-267h-67v200h-402v67z" />
    <glyph glyph-name="uni00AD" unicode="&#xad;" 
d="M490 231h-300v74h300v-74z" />
    <glyph glyph-name="registered" unicode="&#xae;" 
d="M300 317v-106h-60v297h86c74 0 112 -38 112 -95c0 -37 -18 -65 -48 -81l79 -121h-70l-67 106h-32zM322 452h-22v-79h17c41 0 61 14 61 40c0 24 -19 39 -56 39zM53 359c0 169 126 284 284 284c168 0 283 -127 283 -284c0 -163 -120 -283 -283 -283
c-172 0 -284 127 -284 283zM119 359c0 -121 86 -217 218 -217c127 0 217 92 217 217c0 122 -89 218 -217 218c-123 0 -218 -89 -218 -218z" />
    <glyph glyph-name="degree" unicode="&#xb0;" 
d="M188 572c0 86 65 152 152 152c86 0 152 -65 152 -152c0 -92 -70 -152 -152 -152c-86 0 -152 62 -152 152zM251 572c0 -56 38 -92 90 -92c53 0 88 39 88 92s-35 92 -88 92s-90 -37 -90 -92z" />
    <glyph glyph-name="plusminus" unicode="&#xb1;" 
d="M373 632v-179h201v-67h-201v-178h-68v178h-200v67h200v179h68zM105 137h469v-67h-469v67z" />
    <glyph glyph-name="twosuperior" unicode="&#xb2;" 
d="M211 641l-10 70c37 24 78 37 126 37c88 0 147 -53 147 -134c0 -60 -25 -97 -115 -183l-76 -73h207v-64h-301v56l115 116c82 82 98 110 98 149c0 42 -31 67 -76 67c-39 0 -74 -13 -115 -41z" />
    <glyph glyph-name="threesuperior" unicode="&#xb3;" 
d="M190 333l20 71c44 -37 86 -50 121 -50c57 0 86 30 86 70c0 41 -31 76 -107 76h-57v57h54c69 0 97 31 97 66c0 32 -26 59 -71 59c-36 0 -76 -14 -117 -43l-11 70c36 23 80 39 128 39c80 0 143 -51 143 -123c0 -43 -23 -73 -82 -94c58 -9 95 -55 95 -109
c0 -82 -63 -134 -158 -134c-60 0 -108 22 -141 45z" />
    <glyph glyph-name="acute" unicode="&#xb4;" 
d="M254 602l62 180h109l-117 -180h-54z" />
    <glyph glyph-name="mu" unicode="&#xb5;" 
d="M111 552h83v-331c0 -106 43 -155 132 -155c56 0 101 26 130 79c22 40 28 94 28 159v248h84v-552h-83v87c-38 -62 -102 -97 -172 -97c-50 0 -95 13 -128 47l9 -171v-86h-83v772z" />
    <glyph glyph-name="paragraph" unicode="&#xb6;" 
d="M75 493c0 129 89 221 243 221h231v-934h-68v866h-72v-866h-68v492h-34c-133 0 -232 89 -232 221z" />
    <glyph glyph-name="periodcentered" unicode="&#xb7;" 
d="M276 358c0 41 32 65 65 65c32 0 63 -24 63 -65c0 -40 -31 -65 -63 -65c-33 0 -65 25 -65 65z" />
    <glyph glyph-name="cedilla" unicode="&#xb8;" 
d="M425 -50l-62 -180h-109l117 180h54z" />
    <glyph glyph-name="onesuperior" unicode="&#xb9;" 
d="M400 742v-448h-69v363l-58 -52l-35 -26l-39 53l143 110h58z" />
    <glyph glyph-name="ordmasculine" unicode="&#xba;" 
d="M250 468c0 -73 35 -114 91 -114c57 0 89 45 89 117c0 74 -37 115 -93 115c-57 0 -87 -40 -87 -118zM503 470c0 -111 -63 -182 -165 -182c-87 0 -161 67 -161 182c0 111 62 181 163 181c102 0 163 -78 163 -181z" />
    <glyph glyph-name="guillemotright" unicode="&#xbb;" 
d="M191 486l183 -218l-183 -218h-89l185 218l-185 218h89zM385 486l183 -218l-183 -218h-89l185 218l-185 218h89z" />
    <glyph glyph-name="onequarter" unicode="&#xbc;" 
d="M400 942v-448h-69v363l-58 -52l-35 -26l-39 53l143 110h58zM90 326v62h500v-62h-500zM509 -57v-67h-61v-96h-69v96h-208v58l206 294h71v-285h61zM250 -57h129v194l-64 -100z" />
    <glyph glyph-name="onehalf" unicode="&#xbd;" 
d="M400 942v-448h-69v363l-58 -52l-35 -26l-39 53l143 110h58zM90 326v62h500v-62h-500zM211 127l-10 70c37 24 78 37 126 37c88 0 147 -53 147 -134c0 -60 -25 -97 -115 -183l-76 -73h207v-64h-301v56l115 116c82 82 98 110 98 149c0 42 -31 67 -76 67
c-39 0 -74 -13 -115 -41z" />
    <glyph glyph-name="threequarters" unicode="&#xbe;" 
d="M190 533l20 71c44 -37 86 -50 121 -50c57 0 86 30 86 70c0 41 -31 76 -107 76h-57v57h54c69 0 97 31 97 66c0 32 -26 59 -71 59c-36 0 -76 -14 -117 -43l-11 70c36 23 80 39 128 39c80 0 143 -51 143 -123c0 -43 -23 -73 -82 -94c58 -9 95 -55 95 -109
c0 -82 -63 -134 -158 -134c-60 0 -108 22 -141 45zM90 326v62h500v-62h-500zM509 -57v-67h-61v-96h-69v96h-208v58l206 294h71v-285h61zM250 -57h129v194l-64 -100z" />
    <glyph glyph-name="questiondown" unicode="&#xbf;" 
d="M367 665c0 -37 -29 -59 -59 -59c-29 0 -57 22 -57 59c0 36 28 59 57 59c30 0 59 -23 59 -59zM82 176c0 52 21 96 67 139l91 85c30 28 41 51 41 82c0 17 -3 27 -4 35h53c7 -17 10 -39 10 -53c0 -51 -18 -82 -51 -113l-55 -53c-48 -46 -71 -82 -71 -121
c0 -62 39 -112 135 -112c60 0 115 21 163 55l16 -78c-51 -31 -111 -52 -180 -52c-138 0 -215 86 -215 186z" />
    <glyph glyph-name="Agrave" unicode="&#xc0;" horiz-adv-x="660" 
d="M627 0h-87l-63 187h-297l-63 -187h-84l257 714h81zM207 261h245l-56 161l-67 201l-61 -186zM298 934l62 -180h-54l-117 180h109z" />
    <glyph glyph-name="AE" unicode="&#xc6;" 
d="M477 0l-58 187h-247l-58 -187h-84l223 714h379v-74h-267l70 -229h178v-74h-155l81 -263h103v-74h-165zM237 397l-42 -136h201l-40 130l-60 205z" />
    <glyph glyph-name="Eth" unicode="&#xd0;" horiz-adv-x="660" 
d="M90 714h159c209 0 341 -136 341 -358c0 -225 -145 -356 -346 -356h-154v714zM259 642h-86v-252h198v-68h-198v-250h71c149 0 258 101 258 282c0 194 -100 288 -243 288z" />
    <glyph glyph-name="multiply" unicode="&#xd7;" 
d="M192 553l148 -148l142 143l47 -48l-142 -142l147 -147l-48 -48l-147 147l-141 -142l-48 48l142 141l-148 148z" />
    <glyph glyph-name="Oslash" unicode="&#xd8;" 
d="M62 -53l80 139c-48 63 -76 154 -76 271c0 225 93 367 276 367c57 0 105 -15 143 -42l70 121l59 -34l-78 -135c53 -66 78 -164 78 -277c0 -222 -90 -367 -276 -367c-55 0 -104 16 -146 47l-71 -124zM527 361c0 78 -14 142 -39 190l-255 -444c29 -27 67 -41 112 -41
c122 0 182 118 182 295zM154 354c0 -76 12 -139 35 -187l254 442c-30 25 -66 39 -108 39c-124 0 -181 -100 -181 -294z" />
    <glyph glyph-name="Thorn" unicode="&#xde;" 
d="M312 141h-106v-141h-83v714h83v-142h128c173 0 262 -86 262 -215c0 -144 -95 -216 -284 -216zM323 498h-117v-283h106c132 0 198 48 198 143c0 87 -62 140 -187 140z" />
    <glyph glyph-name="germandbls" unicode="&#xdf;" 
d="M608 141c0 -92 -72 -151 -178 -151c-71 0 -119 13 -160 35l11 88c42 -29 86 -47 150 -47c60 0 92 33 92 75c0 37 -19 59 -53 82l-78 54c-52 36 -76 74 -76 120c0 43 15 71 45 101l34 34c16 16 31 38 31 71c0 42 -32 83 -103 83c-94 0 -128 -67 -128 -136v-550h-83v550
c0 113 66 212 211 212c124 0 187 -72 187 -158c0 -43 -13 -76 -48 -109l-32 -30c-26 -24 -34 -38 -34 -59c0 -28 20 -44 55 -68l70 -49c59 -40 87 -87 87 -148z" />
    <glyph glyph-name="ae" unicode="&#xe6;" 
d="M191 562c67 0 117 -28 147 -73c30 40 67 73 126 73c34 0 62 -5 88 -21c56 -35 87 -102 87 -206c0 -23 -2 -47 -4 -64h-264c0 -129 52 -205 148 -205c27 0 60 6 96 23l9 -81c-27 -10 -54 -18 -103 -18c-102 0 -162 42 -197 125c-19 -77 -71 -125 -141 -125
c-83 0 -141 54 -141 146c0 94 63 166 184 191l60 10v49c0 66 -41 96 -95 96c-39 0 -82 -14 -123 -42l-9 82c35 24 81 40 132 40zM286 268l-27 -6c-87 -20 -133 -59 -133 -126c0 -42 23 -72 64 -72c50 0 96 34 96 153v51zM465 486c-59 0 -89 -63 -92 -145h180
c0 95 -33 145 -88 145z" />
    <glyph glyph-name="eth" unicode="&#xf0;" horiz-adv-x="666" 
d="M473 752l38 -51l-86 -50c106 -96 159 -217 159 -376c0 -85 -16 -154 -60 -206c-41 -49 -107 -79 -192 -79c-143 0 -250 95 -250 242c0 135 93 244 238 244c74 0 125 -27 162 -65c-18 70 -58 137 -129 199l-127 -73l-36 53l109 62c-24 15 -49 28 -74 41l44 63
c41 -21 76 -41 104 -62zM169 231c0 -102 72 -165 167 -165c96 0 162 69 162 169c0 106 -75 164 -169 164c-97 0 -160 -63 -160 -168z" />
    <glyph glyph-name="divide" unicode="&#xf7;" 
d="M289 549c0 34 25 51 51 51c25 0 48 -17 48 -51c0 -33 -23 -51 -48 -51c-26 0 -51 18 -51 51zM289 167c0 34 25 51 51 51c25 0 48 -17 48 -51c0 -33 -23 -51 -48 -51c-26 0 -51 18 -51 51zM105 391h469v-67h-469v67z" />
    <glyph glyph-name="oslash" unicode="&#xf8;" 
d="M170 -88l-59 34l61 106c-53 49 -87 125 -87 224c0 176 98 286 256 286c41 0 79 -9 111 -24l60 104l59 -34l-63 -108c56 -52 87 -132 87 -224c0 -174 -97 -286 -257 -286c-39 0 -76 8 -109 24zM174 273c0 -63 14 -112 40 -147l198 343c-22 11 -48 17 -76 17
c-106 0 -162 -71 -162 -213zM507 279c0 62 -15 111 -42 146l-197 -343c22 -11 47 -16 75 -16c105 0 164 83 164 213z" />
    <glyph glyph-name="thorn" unicode="&#xfe;" 
d="M186 85v-305h-84v962h84v-277c39 61 98 97 175 97c150 0 236 -122 236 -287c0 -177 -90 -285 -239 -285c-69 0 -134 33 -172 95zM184 273c0 -132 63 -207 164 -207c102 0 159 83 159 213c0 133 -66 207 -162 207c-104 0 -161 -71 -161 -213z" />
    <glyph glyph-name="Lslash" unicode="&#x141;" 
d="M113 198l-33 56l121 71v389h83v-344l177 104l33 -56l-210 -124v-219h315v-75h-398v249z" />
    <glyph glyph-name="lslash" unicode="&#x142;" 
d="M136 742h252v-322l136 79l33 -56l-169 -99v-274h179v-70h-441v70h179v229l-118 -68l-33 56l151 88v297h-169v70z" />
    <glyph glyph-name="OE" unicode="&#x152;" 
d="M142 357c0 -194 57 -291 153 -291c17 0 30 3 45 9v564c-15 6 -28 9 -45 9c-96 0 -153 -97 -153 -291zM56 357c0 219 85 367 232 367c31 0 53 -5 72 -10h264v-74h-201v-229h182v-74h-182v-263h211v-74h-275c-19 -5 -40 -10 -73 -10c-145 0 -230 148 -230 367z" />
    <glyph glyph-name="oe" unicode="&#x153;" 
d="M217 562c74 0 114 -33 144 -96c25 58 67 96 131 96c78 0 147 -62 147 -218c0 -38 -2 -56 -3 -73h-231c0 -129 43 -205 128 -205c27 0 57 11 90 26v-81c-27 -13 -57 -21 -89 -21c-83 0 -139 35 -171 101c-33 -69 -69 -101 -138 -101c-121 0 -184 105 -184 286
c0 176 63 286 176 286zM130 273c0 -132 29 -207 93 -207s94 83 94 213c0 133 -32 207 -94 207c-65 0 -93 -71 -93 -213zM492 486c-51 0 -81 -59 -82 -145h143c0 95 -19 145 -61 145z" />
    <glyph glyph-name="florin" unicode="&#x192;" 
d="M309 464l16 94c17 97 84 166 198 166c37 0 63 -5 88 -14l-9 -76c-25 9 -48 14 -81 14c-64 0 -104 -37 -116 -106l-13 -78h160l-23 -70h-150l-85 -473c-17 -97 -71 -141 -165 -141c-18 0 -44 4 -60 10l7 74c17 -5 37 -9 56 -9c43 0 73 24 82 78l82 461h-109l13 70h109z
" />
    <glyph glyph-name="circumflex" unicode="&#x2c6;" 
d="M175 602l123 180h81l125 -180h-58l-108 101l-107 -101h-56z" />
    <glyph glyph-name="caron" unicode="&#x2c7;" 
d="M298 602l-123 180h56l107 -101l108 101h58l-125 -180h-81z" />
    <glyph glyph-name="macron" unicode="&#xaf;" 
d="M196 675v67h288v-67h-288z" />
    <glyph glyph-name="breve" unicode="&#x2d8;" 
d="M340 673c58 0 101 32 116 109h49c-12 -116 -67 -180 -165 -180s-153 64 -165 180h49c15 -77 58 -109 116 -109z" />
    <glyph glyph-name="dotaccent" unicode="&#x2d9;" 
d="M279 691c0 42 29 62 62 62s59 -20 59 -62c0 -40 -26 -62 -59 -62s-62 22 -62 62z" />
    <glyph glyph-name="ring" unicode="&#x2da;" 
d="M449 706c0 -63 -44 -106 -110 -106c-65 0 -108 41 -108 105c0 60 44 104 108 104c65 0 110 -46 110 -103zM396 705c0 34 -24 57 -57 57s-57 -24 -57 -57c0 -34 20 -57 57 -57c34 0 57 23 57 57z" />
    <glyph glyph-name="ogonek" unicode="&#x2db;" 
d="M319 -125c0 -35 21 -59 56 -59c13 0 31 3 46 8l2 -53c-15 -6 -33 -11 -52 -11c-77 0 -114 45 -114 100c0 56 39 107 90 140h49c-56 -41 -77 -83 -77 -125z" />
    <glyph glyph-name="tilde" unicode="&#x2dc;" 
d="M412 636c-48 0 -102 46 -139 46c-28 0 -40 -17 -47 -52l-51 16c7 67 47 105 100 105c49 0 102 -46 136 -46c23 0 35 17 42 52l51 -18c-7 -62 -39 -103 -92 -103z" />
    <glyph glyph-name="hungarumlaut" unicode="&#x2dd;" 
d="M170 602l60 180h109l-115 -180h-54zM340 602l60 180h109l-115 -180h-54z" />
    <glyph glyph-name="pi" unicode="&#x3c0;" 
d="M614 482h-129v-338c0 -54 26 -78 70 -78c19 0 35 3 53 12l3 -78c-17 -6 -41 -10 -59 -10c-95 0 -149 51 -149 152v340h-164v-482h-82v482h-110v70h577z" />
    <glyph glyph-name="endash" unicode="&#x2013;" 
d="M110 323v68h460v-68h-460z" />
    <glyph glyph-name="emdash" unicode="&#x2014;" 
d="M30 323v68h620v-68h-620z" />
    <glyph glyph-name="quoteleft" unicode="&#x2018;" 
d="M314 486h-99l90 248h60z" />
    <glyph glyph-name="quoteright" unicode="&#x2019;" 
d="M306 714h99l-90 -248h-60z" />
    <glyph glyph-name="quotesinglbase" unicode="&#x201a;" 
d="M306 118h99l-90 -256h-60z" />
    <glyph glyph-name="quotedblleft" unicode="&#x201c;" 
d="M444 466h-99l90 248h60zM274 466h-99l90 248h60z" />
    <glyph glyph-name="quotedblright" unicode="&#x201d;" 
d="M236 714h99l-90 -248h-60zM406 714h99l-90 -248h-60z" />
    <glyph glyph-name="quotedblbase" unicode="&#x201e;" 
d="M228 118h99l-90 -256h-60zM398 118h99l-90 -256h-60z" />
    <glyph glyph-name="dagger" unicode="&#x2020;" 
d="M89 484v68h217v190h68v-190h217v-68h-217v-704h-68v704h-217z" />
    <glyph glyph-name="daggerdbl" unicode="&#x2021;" 
d="M89 484v68h217v190h68v-190h217v-68h-217v-416h217v-68h-217v-220h-68v220h-217v68h217v416h-217z" />
    <glyph glyph-name="bullet" unicode="&#x2022;" 
d="M168 357c0 95 77 172 172 172s172 -77 172 -172s-77 -172 -172 -172s-172 77 -172 172z" />
    <glyph glyph-name="perthousand" unicode="&#x2030;" 
d="M60 295l-11 65l540 125l14 -65zM117 579c0 -51 27 -83 72 -83s75 32 75 83c0 50 -29 82 -75 82s-72 -31 -72 -82zM331 579c0 -92 -57 -147 -142 -147c-80 0 -139 58 -139 147c0 92 53 145 139 145c85 0 142 -58 142 -145zM117 137c0 -51 27 -83 72 -83s75 32 75 83
c0 50 -29 82 -75 82s-72 -31 -72 -82zM331 137c0 -92 -57 -147 -142 -147c-80 0 -139 58 -139 147c0 92 53 145 139 145c85 0 142 -58 142 -145zM426 137c0 -51 27 -83 72 -83s75 32 75 83c0 50 -29 82 -75 82s-72 -31 -72 -82zM640 137c0 -92 -57 -147 -142 -147
c-80 0 -139 58 -139 147c0 92 53 145 139 145c85 0 142 -58 142 -145z" />
    <glyph glyph-name="guilsinglleft" unicode="&#x2039;" 
d="M199 268l183 218h89l-185 -218l185 -218h-89z" />
    <glyph glyph-name="guilsinglright" unicode="&#x203a;" 
d="M298 486l183 -218l-183 -218h-89l185 218l-185 218h89z" />
    <glyph glyph-name="fraction" unicode="&#x2044;" 
d="M90 326v62h500v-62h-500z" />
    <glyph glyph-name="Euro" unicode="&#x20ac;" horiz-adv-x="751" 
d="M61 401v68h131c36 160 154 255 317 255c56 0 114 -6 172 -32l-30 -75c-49 22 -97 31 -142 31c-109 0 -196 -58 -228 -179h313l-30 -68h-294c-2 -15 -2 -31 -2 -47s1 -32 2 -46h254l-30 -68h-210c36 -114 125 -174 231 -174c53 0 106 12 166 43l10 -84
c-60 -27 -123 -35 -176 -35c-157 0 -282 90 -322 250h-132v68h121c-1 15 -2 31 -2 48c0 15 0 30 1 45h-120z" />
    <glyph glyph-name="trademark" unicode="&#x2122;" 
d="M520 433h-50l-86 169l2 -180v-89h-62v381h67l105 -194l107 194h67v-381h-65v92l2 175zM175 653v-320h-66v320h-98v61h262v-61h-98z" />
    <glyph glyph-name="Omega" unicode="&#x2126;" 
d="M340 724c167 0 282 -138 282 -340c0 -148 -73 -255 -154 -316l104 6h63v-74h-246v71c95 83 145 172 145 312c0 175 -81 265 -194 265s-194 -90 -194 -265c0 -140 50 -229 145 -312v-71h-246v74h63l103 -6c-81 61 -153 168 -153 316c0 202 115 340 282 340z" />
    <glyph glyph-name="partialdiff" unicode="&#x2202;" 
d="M580 457c0 -157 -40 -280 -100 -359c-54 -72 -124 -108 -202 -108c-105 0 -179 76 -179 206c0 100 44 193 108 250c40 36 88 57 147 57c71 0 113 -33 141 -86c0 13 2 26 2 39c0 124 -47 193 -138 193c-43 0 -92 -18 -122 -37l-7 79c29 19 75 33 131 33
c47 0 86 -11 118 -31c66 -42 101 -125 101 -236zM283 66c75 0 132 70 165 147c17 40 21 79 21 102c0 60 -31 114 -104 114c-104 0 -178 -123 -178 -240c0 -77 33 -123 96 -123z" />
    <glyph glyph-name="Delta" unicode="&#x2206;" 
d="M637 0h-594l257 714h81zM152 73h373l-119 349l-67 201l-61 -186z" />
    <glyph glyph-name="product" unicode="&#x220f;" 
d="M571 714v-934h-83v860h-296v-860h-83v934h462z" />
    <glyph glyph-name="summation" unicode="&#x2211;" 
d="M459 274l-274 -420h430v-74h-531v65l277 426l-264 378v65h488v-74h-385z" />
    <glyph glyph-name="minus" unicode="&#x2212;" 
d="M105 391h469v-67h-469v67z" />
    <glyph glyph-name="radical" unicode="&#x221a;" 
d="M595 828l-287 -828h-65l-159 449h81l112 -323l246 702h72z" />
    <glyph glyph-name="infinity" unicode="&#x221e;" 
d="M634 350c0 -79 -60 -154 -145 -154c-61 0 -113 32 -155 106c-39 -67 -86 -104 -142 -104c-84 0 -147 66 -147 154c0 81 60 154 147 154c58 0 110 -31 152 -105c40 70 85 103 145 103c83 0 145 -69 145 -154zM196 262c39 0 76 34 109 90c-32 60 -66 91 -110 91
c-50 0 -84 -42 -84 -92c0 -48 33 -89 85 -89zM483 441c-40 0 -78 -34 -110 -91c32 -59 67 -90 111 -90c49 0 83 40 83 90c0 47 -32 91 -84 91z" />
    <glyph glyph-name="integral" unicode="&#x222b;" 
d="M381 588v-657c0 -101 -54 -152 -149 -152c-18 0 -42 4 -59 10v73c18 -4 37 -7 56 -7c44 0 70 24 70 78v657c0 101 54 152 149 152c18 0 42 -4 59 -10v-73c-18 4 -37 7 -56 7c-44 0 -70 -24 -70 -78z" />
    <glyph glyph-name="approxequal" unicode="&#x2248;" 
d="M220 515c51 0 89 -13 136 -32c43 -18 72 -27 103 -27c35 0 80 16 115 50v-80c-32 -23 -69 -37 -115 -37c-51 0 -89 12 -136 32c-32 14 -65 27 -103 27c-35 0 -80 -16 -115 -50v80c32 23 69 37 115 37zM220 317c51 0 89 -13 136 -32c43 -18 72 -27 103 -27
c35 0 80 16 115 50v-80c-32 -23 -69 -37 -115 -37c-51 0 -89 12 -136 32c-32 14 -65 27 -103 27c-35 0 -80 -16 -115 -50v80c32 23 69 37 115 37z" />
    <glyph glyph-name="notequal" unicode="&#x2260;" 
d="M105 291h173l53 133h-226v67h253l63 156l58 -24l-53 -132h148v-67h-175l-53 -133h228v-67h-255l-63 -157l-58 24l53 133h-146v67z" />
    <glyph glyph-name="lessequal" unicode="&#x2264;" 
d="M105 373v50l469 208v-78l-376 -155l376 -155v-78zM105 137h469v-67h-469v67z" />
    <glyph glyph-name="greaterequal" unicode="&#x2265;" 
d="M106 137h469v-67h-469v67zM575 423v-50l-469 -208v78l376 155l-376 155v78z" />
    <glyph glyph-name="lozenge" unicode="&#x25ca;" 
d="M317 0l-220 356l220 358h45l221 -358l-221 -356h-45zM340 100l155 257l-155 256l-155 -256z" />
    <glyph glyph-name="fi" unicode="&#xfb01;" horiz-adv-x="1300" 
d="M271 552v28c0 113 66 182 179 182c37 0 61 -4 88 -11l-5 -79c-27 11 -48 14 -81 14c-65 0 -98 -35 -98 -106v-28h230l-10 -70h-220v-482h-83v482h-159v70h159zM756 552h252v-482h179v-70h-441v70h179v412h-169v70zM906 691c0 42 29 62 62 62s59 -20 59 -62
c0 -40 -26 -62 -59 -62s-62 22 -62 62z" />
    <glyph glyph-name="dotlessj" unicode="&#x237;" 
d="M377 482h-230v70h312v-570c0 -136 -83 -203 -209 -203c-55 0 -94 11 -129 24v79c34 -15 73 -27 126 -27c82 0 130 42 130 138v489z" />
    <glyph glyph-name="commaaccent" unicode="&#xf6c3;" 
d="M254 -230l62 180h109l-117 -180h-54z" />
    <glyph glyph-name="zerosuperior" unicode="&#x2070;" 
d="M493 519c0 -155 -59 -231 -153 -231c-95 0 -154 76 -154 231s59 229 154 229c94 0 153 -74 153 -229zM422 519c0 118 -33 164 -82 164s-82 -46 -82 -164s32 -165 82 -165c49 0 82 47 82 165z" />
    <glyph glyph-name="foursuperior" unicode="&#x2074;" 
d="M509 457v-67h-61v-96h-69v96h-208v58l206 294h71v-285h61zM250 457h129v194l-64 -100z" />
    <glyph glyph-name="fivesuperior" unicode="&#x2075;" 
d="M190 325l13 71c39 -30 79 -42 123 -42c60 0 92 35 92 88c0 50 -37 84 -98 84c-40 0 -76 -9 -114 -23l19 239h235l-14 -64h-161l-9 -99c17 3 34 4 54 4c95 0 159 -58 159 -142c0 -85 -60 -153 -163 -153c-56 0 -98 14 -136 37z" />
    <glyph glyph-name="sixsuperior" unicode="&#x2076;" 
d="M473 726l-9 -71c-34 19 -65 28 -93 28c-34 0 -59 -14 -75 -35c-21 -28 -35 -66 -37 -117c20 26 51 47 96 47c71 0 136 -56 136 -141c0 -83 -63 -149 -147 -149c-50 0 -94 22 -120 56c-29 38 -36 82 -36 141c0 93 21 157 53 201c29 40 76 62 130 62c36 0 70 -7 102 -22z
M260 440c0 -47 31 -86 83 -86c50 0 78 38 78 84c0 45 -32 80 -79 80c-48 0 -82 -32 -82 -78z" />
    <glyph glyph-name="sevensuperior" unicode="&#x2077;" 
d="M313 294h-82l119 234l72 150h-235v64h305v-51z" />
    <glyph glyph-name="eightsuperior" unicode="&#x2078;" 
d="M190 411c0 55 31 91 81 114c-45 27 -67 61 -67 103c0 69 60 120 134 120c77 0 137 -46 137 -117c0 -50 -27 -78 -74 -96c55 -28 89 -63 89 -120c0 -71 -58 -127 -149 -127c-94 0 -151 54 -151 123zM363 482l-41 17c-47 -21 -63 -49 -63 -81c0 -37 33 -64 82 -64
c47 0 79 27 79 62c0 29 -20 48 -57 66zM272 628c0 -25 17 -42 49 -56l29 -13c40 17 56 43 56 69c0 32 -29 55 -68 55s-66 -25 -66 -55z" />
    <glyph glyph-name="ninesuperior" unicode="&#x2079;" 
d="M206 310l9 71c34 -19 65 -28 93 -28c34 0 60 13 76 34c21 28 34 67 36 118c-20 -26 -51 -47 -96 -47c-71 0 -136 56 -136 141c0 83 63 149 147 149c50 0 94 -22 120 -56c29 -38 36 -82 36 -141c0 -93 -20 -158 -52 -202c-29 -40 -77 -61 -131 -61c-36 0 -70 7 -102 22z
M419 596c0 47 -31 86 -83 86c-50 0 -78 -38 -78 -84c0 -45 32 -80 79 -80c48 0 82 32 82 78z" />
    <glyph glyph-name="dotbelow" unicode="&#x323;" 
d="M290 -139c0 33 24 51 51 51c26 0 49 -18 49 -51c0 -34 -23 -51 -49 -51c-27 0 -51 17 -51 51z" />
    <glyph glyph-name="I" unicode="I" 
d="M298 74v566h-176v74h435v-74h-176v-566h176v-74h-435v74h176z" />
    <glyph glyph-name="space" unicode=" " horiz-adv-x="620" 
 />
    <glyph glyph-name="aacute" unicode="&#xe1;" 
d="M477 92c-46 -68 -118 -102 -185 -102c-117 0 -188 59 -188 155c0 100 71 149 191 166l181 26v13c0 95 -51 132 -145 132c-62 0 -118 -16 -181 -52l-10 83c56 28 107 49 199 49c130 0 220 -60 220 -214v-201c0 -57 12 -104 32 -147h-91c-14 31 -19 65 -23 92zM476 268
l-171 -25c-71 -10 -114 -40 -114 -96c0 -53 44 -83 111 -83c113 0 174 81 174 196v8zM284 602l62 180h109l-117 -180h-54z" />
    <glyph glyph-name="agrave" unicode="&#xe0;" 
d="M477 92c-46 -68 -118 -102 -185 -102c-117 0 -188 59 -188 155c0 100 71 149 191 166l181 26v13c0 95 -51 132 -145 132c-62 0 -118 -16 -181 -52l-10 83c56 28 107 49 199 49c130 0 220 -60 220 -214v-201c0 -57 12 -104 32 -147h-91c-14 31 -19 65 -23 92zM476 268
l-171 -25c-71 -10 -114 -40 -114 -96c0 -53 44 -83 111 -83c113 0 174 81 174 196v8zM333 782l62 -180h-54l-117 180h109z" />
    <glyph glyph-name="acircumflex" unicode="&#xe2;" 
d="M477 92c-46 -68 -118 -102 -185 -102c-117 0 -188 59 -188 155c0 100 71 149 191 166l181 26v13c0 95 -51 132 -145 132c-62 0 -118 -16 -181 -52l-10 83c56 28 107 49 199 49c130 0 220 -60 220 -214v-201c0 -57 12 -104 32 -147h-91c-14 31 -19 65 -23 92zM476 268
l-171 -25c-71 -10 -114 -40 -114 -96c0 -53 44 -83 111 -83c113 0 174 81 174 196v8zM175 602l123 180h81l125 -180h-58l-108 101l-107 -101h-56z" />
    <glyph glyph-name="adieresis" unicode="&#xe4;" 
d="M477 92c-46 -68 -118 -102 -185 -102c-117 0 -188 59 -188 155c0 100 71 149 191 166l181 26v13c0 95 -51 132 -145 132c-62 0 -118 -16 -181 -52l-10 83c56 28 107 49 199 49c130 0 220 -60 220 -214v-201c0 -57 12 -104 32 -147h-91c-14 31 -19 65 -23 92zM476 268
l-171 -25c-71 -10 -114 -40 -114 -96c0 -53 44 -83 111 -83c113 0 174 81 174 196v8zM196 691c0 34 25 51 51 51c25 0 48 -17 48 -51c0 -33 -23 -51 -48 -51c-26 0 -51 18 -51 51zM385 691c0 34 25 51 51 51c25 0 48 -17 48 -51c0 -33 -23 -51 -48 -51c-26 0 -51 18 -51 51z
" />
    <glyph glyph-name="atilde" unicode="&#xe3;" 
d="M477 92c-46 -68 -118 -102 -185 -102c-117 0 -188 59 -188 155c0 100 71 149 191 166l181 26v13c0 95 -51 132 -145 132c-62 0 -118 -16 -181 -52l-10 83c56 28 107 49 199 49c130 0 220 -60 220 -214v-201c0 -57 12 -104 32 -147h-91c-14 31 -19 65 -23 92zM476 268
l-171 -25c-71 -10 -114 -40 -114 -96c0 -53 44 -83 111 -83c113 0 174 81 174 196v8zM412 636c-48 0 -102 46 -139 46c-28 0 -40 -17 -47 -52l-51 16c7 67 47 105 100 105c49 0 102 -46 136 -46c23 0 35 17 42 52l51 -18c-7 -62 -39 -103 -92 -103z" />
    <glyph glyph-name="Atilde" unicode="&#xc3;" horiz-adv-x="660" 
d="M627 0h-87l-63 187h-297l-63 -187h-84l257 714h81zM207 261h245l-56 161l-67 201l-61 -186zM402 788c-48 0 -102 46 -139 46c-28 0 -40 -17 -47 -52l-51 16c7 67 47 105 100 105c49 0 102 -46 136 -46c23 0 35 17 42 52l51 -18c-7 -62 -39 -103 -92 -103z" />
    <glyph glyph-name="Otilde" unicode="&#xd5;" 
d="M154 354c0 -181 68 -288 191 -288c122 0 182 118 182 295c0 182 -74 287 -192 287c-124 0 -181 -100 -181 -294zM614 357c0 -222 -90 -367 -276 -367c-157 0 -272 133 -272 367c0 225 93 367 276 367c186 0 272 -157 272 -367zM412 788c-48 0 -102 46 -139 46
c-28 0 -40 -17 -47 -52l-51 16c7 67 47 105 100 105c49 0 102 -46 136 -46c23 0 35 17 42 52l51 -18c-7 -62 -39 -103 -92 -103z" />
    <glyph glyph-name="Adieresis" unicode="&#xc4;" horiz-adv-x="660" 
d="M627 0h-87l-63 187h-297l-63 -187h-84l257 714h81zM207 261h245l-56 161l-67 201l-61 -186zM186 833c0 34 25 51 51 51c25 0 48 -17 48 -51c0 -33 -23 -51 -48 -51c-26 0 -51 18 -51 51zM375 833c0 34 25 51 51 51c25 0 48 -17 48 -51c0 -33 -23 -51 -48 -51
c-26 0 -51 18 -51 51z" />
    <glyph glyph-name="Eacute" unicode="&#xc9;" 
d="M572 74v-74h-448v714h438v-74h-355v-229h336v-74h-336v-263h365zM298 754l62 180h109l-117 -180h-54z" />
    <glyph glyph-name="Edieresis" unicode="&#xcb;" 
d="M572 74v-74h-448v714h438v-74h-355v-229h336v-74h-336v-263h365zM200 833c0 34 25 51 51 51c25 0 48 -17 48 -51c0 -33 -23 -51 -48 -51c-26 0 -51 18 -51 51zM389 833c0 34 25 51 51 51c25 0 48 -17 48 -51c0 -33 -23 -51 -48 -51c-26 0 -51 18 -51 51z" />
    <glyph glyph-name="Egrave" unicode="&#xc8;" 
d="M572 74v-74h-448v714h438v-74h-355v-229h336v-74h-336v-263h365zM327 934l62 -180h-54l-117 180h109z" />
    <glyph glyph-name="Ydieresis" unicode="&#x178;" 
d="M132 714l208 -346l209 346h91l-258 -427v-287h-84v283l-258 431h92zM196 833c0 34 25 51 51 51c25 0 48 -17 48 -51c0 -33 -23 -51 -48 -51c-26 0 -51 18 -51 51zM385 833c0 34 25 51 51 51c25 0 48 -17 48 -51c0 -33 -23 -51 -48 -51c-26 0 -51 18 -51 51z" />
    <glyph glyph-name="ydieresis" unicode="&#xff;" 
d="M283 -220h-92l112 241l-249 531h94l119 -264l77 -182l190 446h91zM199 691c0 34 25 51 51 51c25 0 48 -17 48 -51c0 -33 -23 -51 -48 -51c-26 0 -51 18 -51 51zM388 691c0 34 25 51 51 51c25 0 48 -17 48 -51c0 -33 -23 -51 -48 -51c-26 0 -51 18 -51 51z" />
    <glyph glyph-name="edieresis" unicode="&#xeb;" 
d="M390 -10c-177 0 -293 105 -293 287c0 180 126 285 263 285c59 0 92 -9 127 -28c67 -37 108 -112 108 -205c0 -23 -2 -41 -6 -58h-404c0 -129 85 -205 205 -205c63 0 112 15 171 41l9 -84c-47 -19 -105 -33 -180 -33zM361 486c-90 0 -158 -63 -171 -145h319
c0 95 -61 145 -148 145zM216 691c0 34 25 51 51 51c25 0 48 -17 48 -51c0 -33 -23 -51 -48 -51c-26 0 -51 18 -51 51zM405 691c0 34 25 51 51 51c25 0 48 -17 48 -51c0 -33 -23 -51 -48 -51c-26 0 -51 18 -51 51z" />
    <glyph glyph-name="eacute" unicode="&#xe9;" 
d="M390 -10c-177 0 -293 105 -293 287c0 180 126 285 263 285c59 0 92 -9 127 -28c67 -37 108 -112 108 -205c0 -23 -2 -41 -6 -58h-404c0 -129 85 -205 205 -205c63 0 112 15 171 41l9 -84c-47 -19 -105 -33 -180 -33zM361 486c-90 0 -158 -63 -171 -145h319
c0 95 -61 145 -148 145zM304 602l62 180h109l-117 -180h-54z" />
    <glyph glyph-name="egrave" unicode="&#xe8;" 
d="M390 -10c-177 0 -293 105 -293 287c0 180 126 285 263 285c59 0 92 -9 127 -28c67 -37 108 -112 108 -205c0 -23 -2 -41 -6 -58h-404c0 -129 85 -205 205 -205c63 0 112 15 171 41l9 -84c-47 -19 -105 -33 -180 -33zM361 486c-90 0 -158 -63 -171 -145h319
c0 95 -61 145 -148 145zM353 782l62 -180h-54l-117 180h109z" />
    <glyph glyph-name="ecircumflex" unicode="&#xea;" 
d="M390 -10c-177 0 -293 105 -293 287c0 180 126 285 263 285c59 0 92 -9 127 -28c67 -37 108 -112 108 -205c0 -23 -2 -41 -6 -58h-404c0 -129 85 -205 205 -205c63 0 112 15 171 41l9 -84c-47 -19 -105 -33 -180 -33zM361 486c-90 0 -158 -63 -171 -145h319
c0 95 -61 145 -148 145zM195 602l123 180h81l125 -180h-58l-108 101l-107 -101h-56z" />
    <glyph glyph-name="iacute" unicode="&#xed;" 
d="M136 552h252v-482h179v-70h-441v70h179v412h-169v70zM284 602l62 180h109l-117 -180h-54z" />
    <glyph glyph-name="igrave" unicode="&#xec;" 
d="M136 552h252v-482h179v-70h-441v70h179v412h-169v70zM333 782l62 -180h-54l-117 180h109z" />
    <glyph glyph-name="icircumflex" unicode="&#xee;" 
d="M136 552h252v-482h179v-70h-441v70h179v412h-169v70zM175 602l123 180h81l125 -180h-58l-108 101l-107 -101h-56z" />
    <glyph glyph-name="idieresis" unicode="&#xef;" 
d="M136 552h252v-482h179v-70h-441v70h179v412h-169v70zM196 691c0 34 25 51 51 51c25 0 48 -17 48 -51c0 -33 -23 -51 -48 -51c-26 0 -51 18 -51 51zM385 691c0 34 25 51 51 51c25 0 48 -17 48 -51c0 -33 -23 -51 -48 -51c-26 0 -51 18 -51 51z" />
    <glyph glyph-name="ntilde" unicode="&#xf1;" 
d="M573 0h-83v331c0 106 -40 155 -127 155c-65 0 -110 -26 -139 -79c-22 -40 -28 -94 -28 -159v-248h-84v552h83v-87c38 62 102 97 180 97c42 0 79 -7 109 -25c56 -32 89 -97 89 -200v-337zM426 636c-48 0 -102 46 -139 46c-28 0 -40 -17 -47 -52l-51 16
c7 67 47 105 100 105c49 0 102 -46 136 -46c23 0 35 17 42 52l51 -18c-7 -62 -39 -103 -92 -103z" />
    <glyph glyph-name="oacute" unicode="&#xf3;" 
d="M174 273c0 -132 65 -207 169 -207c105 0 164 83 164 213c0 133 -68 207 -171 207c-106 0 -162 -71 -162 -213zM595 276c0 -174 -97 -286 -257 -286c-138 0 -253 105 -253 286c0 176 98 286 256 286c160 0 254 -124 254 -286zM284 602l62 180h109l-117 -180h-54z" />
    <glyph glyph-name="ograve" unicode="&#xf2;" 
d="M174 273c0 -132 65 -207 169 -207c105 0 164 83 164 213c0 133 -68 207 -171 207c-106 0 -162 -71 -162 -213zM595 276c0 -174 -97 -286 -257 -286c-138 0 -253 105 -253 286c0 176 98 286 256 286c160 0 254 -124 254 -286zM333 782l62 -180h-54l-117 180h109z" />
    <glyph glyph-name="ocircumflex" unicode="&#xf4;" 
d="M174 273c0 -132 65 -207 169 -207c105 0 164 83 164 213c0 133 -68 207 -171 207c-106 0 -162 -71 -162 -213zM595 276c0 -174 -97 -286 -257 -286c-138 0 -253 105 -253 286c0 176 98 286 256 286c160 0 254 -124 254 -286zM175 602l123 180h81l125 -180h-58l-108 101
l-107 -101h-56z" />
    <glyph glyph-name="odieresis" unicode="&#xf6;" 
d="M174 273c0 -132 65 -207 169 -207c105 0 164 83 164 213c0 133 -68 207 -171 207c-106 0 -162 -71 -162 -213zM595 276c0 -174 -97 -286 -257 -286c-138 0 -253 105 -253 286c0 176 98 286 256 286c160 0 254 -124 254 -286zM196 691c0 34 25 51 51 51
c25 0 48 -17 48 -51c0 -33 -23 -51 -48 -51c-26 0 -51 18 -51 51zM385 691c0 34 25 51 51 51c25 0 48 -17 48 -51c0 -33 -23 -51 -48 -51c-26 0 -51 18 -51 51z" />
    <glyph glyph-name="otilde" unicode="&#xf5;" 
d="M174 273c0 -132 65 -207 169 -207c105 0 164 83 164 213c0 133 -68 207 -171 207c-106 0 -162 -71 -162 -213zM595 276c0 -174 -97 -286 -257 -286c-138 0 -253 105 -253 286c0 176 98 286 256 286c160 0 254 -124 254 -286zM412 636c-48 0 -102 46 -139 46
c-28 0 -40 -17 -47 -52l-51 16c7 67 47 105 100 105c49 0 102 -46 136 -46c23 0 35 17 42 52l51 -18c-7 -62 -39 -103 -92 -103z" />
    <glyph glyph-name="udieresis" unicode="&#xfc;" 
d="M109 552h83v-331c0 -107 43 -155 132 -155c56 0 101 26 130 79c23 40 28 94 28 159v248h84v-552h-83v87c-39 -63 -101 -97 -172 -97c-120 0 -202 66 -202 225v337zM196 691c0 34 25 51 51 51c25 0 48 -17 48 -51c0 -33 -23 -51 -48 -51c-26 0 -51 18 -51 51zM385 691
c0 34 25 51 51 51c25 0 48 -17 48 -51c0 -33 -23 -51 -48 -51c-26 0 -51 18 -51 51z" />
    <glyph glyph-name="ucircumflex" unicode="&#xfb;" 
d="M109 552h83v-331c0 -107 43 -155 132 -155c56 0 101 26 130 79c23 40 28 94 28 159v248h84v-552h-83v87c-39 -63 -101 -97 -172 -97c-120 0 -202 66 -202 225v337zM175 602l123 180h81l125 -180h-58l-108 101l-107 -101h-56z" />
    <glyph glyph-name="ugrave" unicode="&#xf9;" 
d="M109 552h83v-331c0 -107 43 -155 132 -155c56 0 101 26 130 79c23 40 28 94 28 159v248h84v-552h-83v87c-39 -63 -101 -97 -172 -97c-120 0 -202 66 -202 225v337zM333 782l62 -180h-54l-117 180h109z" />
    <glyph glyph-name="uacute" unicode="&#xfa;" 
d="M109 552h83v-331c0 -107 43 -155 132 -155c56 0 101 26 130 79c23 40 28 94 28 159v248h84v-552h-83v87c-39 -63 -101 -97 -172 -97c-120 0 -202 66 -202 225v337zM284 602l62 180h109l-117 -180h-54z" />
    <glyph glyph-name="Ntilde" unicode="&#xd1;" 
d="M585 0h-66l-349 588l4 -230v-358h-79v714h90l324 -534l-4 234v300h80v-714zM422 788c-48 0 -102 46 -139 46c-28 0 -40 -17 -47 -52l-51 16c7 67 47 105 100 105c49 0 102 -46 136 -46c23 0 35 17 42 52l51 -18c-7 -62 -39 -103 -92 -103z" />
    <glyph glyph-name="Odieresis" unicode="&#xd6;" 
d="M154 354c0 -181 68 -288 191 -288c122 0 182 118 182 295c0 182 -74 287 -192 287c-124 0 -181 -100 -181 -294zM614 357c0 -222 -90 -367 -276 -367c-157 0 -272 133 -272 367c0 225 93 367 276 367c186 0 272 -157 272 -367zM196 833c0 34 25 51 51 51
c25 0 48 -17 48 -51c0 -33 -23 -51 -48 -51c-26 0 -51 18 -51 51zM385 833c0 34 25 51 51 51c25 0 48 -17 48 -51c0 -33 -23 -51 -48 -51c-26 0 -51 18 -51 51z" />
    <glyph glyph-name="Udieresis" unicode="&#xdc;" 
d="M508 239v475h81v-469c0 -161 -96 -255 -249 -255s-249 94 -249 255v469h83v-476c0 -107 63 -170 166 -170c105 0 168 65 168 171zM196 833c0 34 25 51 51 51c25 0 48 -17 48 -51c0 -33 -23 -51 -48 -51c-26 0 -51 18 -51 51zM385 833c0 34 25 51 51 51
c25 0 48 -17 48 -51c0 -33 -23 -51 -48 -51c-26 0 -51 18 -51 51z" />
    <glyph glyph-name="Acircumflex" unicode="&#xc2;" horiz-adv-x="660" 
d="M627 0h-87l-63 187h-297l-63 -187h-84l257 714h81zM207 261h245l-56 161l-67 201l-61 -186zM168 754l123 180h81l125 -180h-58l-108 101l-107 -101h-56z" />
    <glyph glyph-name="Ecircumflex" unicode="&#xca;" 
d="M572 74v-74h-448v714h438v-74h-355v-229h336v-74h-336v-263h365zM179 754l123 180h81l125 -180h-58l-108 101l-107 -101h-56z" />
    <glyph glyph-name="Aacute" unicode="&#xc1;" horiz-adv-x="660" 
d="M627 0h-87l-63 187h-297l-63 -187h-84l257 714h81zM207 261h245l-56 161l-67 201l-61 -186zM307 754l62 180h109l-117 -180h-54z" />
    <glyph glyph-name="Iacute" unicode="&#xcd;" 
d="M298 74v566h-176v74h435v-74h-176v-566h176v-74h-435v74h176zM284 754l62 180h109l-117 -180h-54z" />
    <glyph glyph-name="Icircumflex" unicode="&#xce;" 
d="M298 74v566h-176v74h435v-74h-176v-566h176v-74h-435v74h176zM175 754l123 180h81l125 -180h-58l-108 101l-107 -101h-56z" />
    <glyph glyph-name="Idieresis" unicode="&#xcf;" 
d="M298 74v566h-176v74h435v-74h-176v-566h176v-74h-435v74h176zM195 833c0 34 25 51 51 51c25 0 48 -17 48 -51c0 -33 -23 -51 -48 -51c-26 0 -51 18 -51 51zM384 833c0 34 25 51 51 51c25 0 48 -17 48 -51c0 -33 -23 -51 -48 -51c-26 0 -51 18 -51 51z" />
    <glyph glyph-name="Igrave" unicode="&#xcc;" 
d="M298 74v566h-176v74h435v-74h-176v-566h176v-74h-435v74h176zM333 934l62 -180h-54l-117 180h109z" />
    <glyph glyph-name="Oacute" unicode="&#xd3;" 
d="M154 354c0 -181 68 -288 191 -288c122 0 182 118 182 295c0 182 -74 287 -192 287c-124 0 -181 -100 -181 -294zM614 357c0 -222 -90 -367 -276 -367c-157 0 -272 133 -272 367c0 225 93 367 276 367c186 0 272 -157 272 -367zM284 754l62 180h109l-117 -180h-54z" />
    <glyph glyph-name="Ocircumflex" unicode="&#xd4;" 
d="M154 354c0 -181 68 -288 191 -288c122 0 182 118 182 295c0 182 -74 287 -192 287c-124 0 -181 -100 -181 -294zM614 357c0 -222 -90 -367 -276 -367c-157 0 -272 133 -272 367c0 225 93 367 276 367c186 0 272 -157 272 -367zM175 754l123 180h81l125 -180h-58l-108 101
l-107 -101h-56z" />
    <glyph glyph-name="Ograve" unicode="&#xd2;" 
d="M154 354c0 -181 68 -288 191 -288c122 0 182 118 182 295c0 182 -74 287 -192 287c-124 0 -181 -100 -181 -294zM614 357c0 -222 -90 -367 -276 -367c-157 0 -272 133 -272 367c0 225 93 367 276 367c186 0 272 -157 272 -367zM333 934l62 -180h-54l-117 180h109z" />
    <glyph glyph-name="Uacute" unicode="&#xda;" 
d="M508 239v475h81v-469c0 -161 -96 -255 -249 -255s-249 94 -249 255v469h83v-476c0 -107 63 -170 166 -170c105 0 168 65 168 171zM284 754l62 180h109l-117 -180h-54z" />
    <glyph glyph-name="Ucircumflex" unicode="&#xdb;" 
d="M508 239v475h81v-469c0 -161 -96 -255 -249 -255s-249 94 -249 255v469h83v-476c0 -107 63 -170 166 -170c105 0 168 65 168 171zM175 754l123 180h81l125 -180h-58l-108 101l-107 -101h-56z" />
    <glyph glyph-name="Ugrave" unicode="&#xd9;" 
d="M508 239v475h81v-469c0 -161 -96 -255 -249 -255s-249 94 -249 255v469h83v-476c0 -107 63 -170 166 -170c105 0 168 65 168 171zM333 934l62 -180h-54l-117 180h109z" />
    <glyph glyph-name="aring" unicode="&#xe5;" 
d="M477 92c-46 -68 -118 -102 -185 -102c-117 0 -188 59 -188 155c0 100 71 149 191 166l181 26v13c0 95 -51 132 -145 132c-62 0 -118 -16 -181 -52l-10 83c56 28 107 49 199 49c130 0 220 -60 220 -214v-201c0 -57 12 -104 32 -147h-91c-14 31 -19 65 -23 92zM476 268
l-171 -25c-71 -10 -114 -40 -114 -96c0 -53 44 -83 111 -83c113 0 174 81 174 196v8zM449 706c0 -63 -44 -106 -110 -106c-65 0 -108 41 -108 105c0 60 44 104 108 104c65 0 110 -46 110 -103zM396 705c0 34 -24 57 -57 57s-57 -24 -57 -57c0 -34 20 -57 57 -57
c34 0 57 23 57 57z" />
    <glyph glyph-name="Aring" unicode="&#xc5;" horiz-adv-x="660" 
d="M438 788c0 -45 -23 -80 -59 -96l248 -692h-87l-63 187h-297l-63 -187h-84l248 690c-38 15 -61 50 -61 97c0 60 44 104 108 104c65 0 110 -46 110 -103zM207 261h245l-56 161l-67 201l-61 -186zM385 787c0 34 -24 57 -57 57s-57 -24 -57 -57c0 -34 20 -57 57 -57
c34 0 57 23 57 57z" />
    <glyph glyph-name="Zcaron" unicode="&#x17d;" 
d="M595 74v-74h-511v65l397 575h-385v74h488v-65l-397 -575h408zM298 754l-123 180h56l107 -101l108 101h58l-125 -180h-81z" />
    <glyph glyph-name="zcaron" unicode="&#x17e;" 
d="M555 70v-70h-430v62l321 420h-302v70h404v-70l-317 -412h324zM298 602l-123 180h56l107 -101l108 101h58l-125 -180h-81z" />
    <glyph glyph-name="Scaron" unicode="&#x160;" 
d="M587 185c0 -116 -94 -195 -269 -195c-101 0 -168 21 -225 50l10 89c64 -38 125 -63 218 -63c115 0 180 47 180 122c0 47 -22 84 -98 110l-141 48c-111 38 -160 98 -160 185c0 108 90 193 251 193c90 0 152 -15 212 -43l-18 -87c-50 29 -117 54 -193 54
c-115 0 -168 -49 -168 -116c0 -55 38 -85 108 -108l125 -41c127 -42 168 -105 168 -198zM313 754l-123 180h56l107 -101l108 101h58l-125 -180h-81z" />
    <glyph glyph-name="scaron" unicode="&#x161;" 
d="M573 141c0 -92 -71 -151 -225 -151c-112 0 -172 20 -226 47l11 89c58 -34 124 -60 213 -60c94 0 142 27 142 76c0 40 -24 70 -91 86l-125 30c-108 26 -152 84 -152 152c0 89 77 152 228 152c83 0 139 -13 195 -36l-10 -89c-59 28 -118 49 -190 49
c-103 0 -139 -35 -139 -72c0 -38 25 -60 85 -74l123 -28c106 -25 161 -82 161 -171zM297 602l-123 180h56l107 -101l108 101h58l-125 -180h-81z" />
    <glyph glyph-name="Yacute" unicode="&#xdd;" 
d="M132 714l208 -346l209 346h91l-258 -427v-287h-84v283l-258 431h92zM284 754l62 180h109l-117 -180h-54z" />
    <glyph glyph-name="yacute" unicode="&#xfd;" 
d="M283 -220h-92l112 241l-249 531h94l119 -264l77 -182l190 446h91zM288 602l62 180h109l-117 -180h-54z" />
    <glyph glyph-name="ccedilla" unicode="&#xe7;" 
d="M414 -10c-162 0 -303 105 -303 285c0 177 130 287 305 287c64 0 118 -8 165 -24l-10 -81c-49 19 -88 29 -154 29c-136 0 -217 -77 -217 -213c0 -125 87 -207 219 -207c69 0 109 8 159 30l10 -79c-47 -19 -98 -27 -174 -27zM458 -50l-62 -180h-109l117 180h54z" />
    <glyph glyph-name="Ccedilla" unicode="&#xc7;" horiz-adv-x="660" 
d="M424 -10c-204 0 -355 135 -355 366c0 228 139 368 349 368c56 0 114 -7 173 -30l-10 -87c-57 29 -112 41 -163 41c-149 0 -261 -94 -261 -294c0 -187 120 -288 267 -288c53 0 106 12 166 43l10 -84c-60 -27 -123 -35 -176 -35zM445 -50l-62 -180h-109l117 180h54z" />
    <glyph glyph-name="ellipsis" unicode="&#x2026;" 
d="M62 49c0 37 29 59 59 59c29 0 57 -22 57 -59c0 -36 -28 -59 -57 -59c-30 0 -59 23 -59 59zM282 49c0 37 29 59 59 59c29 0 57 -22 57 -59c0 -36 -28 -59 -57 -59c-30 0 -59 23 -59 59zM502 49c0 37 29 59 59 59c29 0 57 -22 57 -59c0 -36 -28 -59 -57 -59
c-30 0 -59 23 -59 59z" />
    <glyph glyph-name="uni0394" unicode="&#x394;" 
d="M637 0h-594l257 714h81zM152 73h373l-119 349l-67 201l-61 -186z" />
    <glyph glyph-name="uni03BC" unicode="&#x3bc;" 
d="M111 552h83v-331c0 -106 43 -155 132 -155c56 0 101 26 130 79c22 40 28 94 28 159v248h84v-552h-83v87c-38 -62 -102 -97 -172 -97c-50 0 -95 13 -128 47l9 -171v-86h-83v772z" />
    <glyph glyph-name="uni03A9" unicode="&#x3a9;" 
d="M340 724c167 0 282 -138 282 -340c0 -148 -73 -255 -154 -316l104 6h63v-74h-246v71c95 83 145 172 145 312c0 175 -81 265 -194 265s-194 -90 -194 -265c0 -140 50 -229 145 -312v-71h-246v74h63l103 -6c-81 61 -153 168 -153 316c0 202 115 340 282 340z" />
    <glyph glyph-name="phonomark" 
d="M330 317h-19v-106h-59v297h86c74 0 113 -38 113 -95c0 -64 -44 -96 -121 -96zM334 452h-23v-79h19c40 0 61 14 61 40c0 24 -19 39 -57 39zM53 359c0 169 126 284 284 284c168 0 283 -127 283 -284c0 -163 -120 -283 -283 -283c-172 0 -284 127 -284 283zM119 359
c0 -121 86 -217 218 -217c127 0 217 92 217 217c0 122 -89 218 -217 218c-123 0 -218 -89 -218 -218z" />
    <glyph glyph-name="parenleft.cap" 
d="M289 357c0 -172 97 -298 229 -384h-102c-99 68 -214 180 -214 385s115 315 214 383h102c-132 -86 -229 -212 -229 -384z" />
    <glyph glyph-name="parenright.cap" 
d="M391 357c0 172 -97 298 -229 384h102c99 -68 214 -178 214 -383s-115 -317 -214 -385h-102c132 86 229 212 229 384z" />
    <glyph glyph-name="bracketleft.cap" 
d="M516 38v-66h-293v769h293v-68h-225v-635h225z" />
    <glyph glyph-name="bracketright.cap" 
d="M164 -28v66h225v635h-225v68h293v-769h-293z" />
    <glyph glyph-name="braceleft.cap" 
d="M252 359c68 -14 96 -60 96 -131v-38c0 -115 35 -150 136 -150h60v-68h-66c-137 0 -198 65 -198 203v38c0 72 -30 113 -114 113h-11v66h11c84 0 114 41 114 113v34c0 138 61 203 198 203h66v-68h-60c-101 0 -136 -35 -136 -150v-34c0 -71 -28 -117 -96 -131z" />
    <glyph glyph-name="braceright.cap" 
d="M428 359c-68 14 -96 60 -96 131v34c0 115 -35 150 -136 150h-60v68h66c137 0 198 -65 198 -203v-34c0 -72 30 -113 114 -113h11v-66h-11c-84 0 -114 -41 -114 -113v-38c0 -138 -61 -203 -198 -203h-66v68h60c101 0 136 35 136 150v38c0 71 28 117 96 131z" />
    <glyph glyph-name="hyphen.cap" 
d="M490 322h-300v74h300v-74z" />
    <glyph glyph-name="guillemotleft.cap" 
d="M112 359l183 218h89l-185 -218l185 -218h-89zM306 359l183 218h89l-185 -218l185 -218h-89z" />
    <glyph glyph-name="guillemotright.cap" 
d="M191 577l183 -218l-183 -218h-89l185 218l-185 218h89zM385 577l183 -218l-183 -218h-89l185 218l-185 218h89z" />
    <glyph glyph-name="guilsinglleft.cap" 
d="M199 359l183 218h89l-185 -218l185 -218h-89z" />
    <glyph glyph-name="guilsinglright.cap" 
d="M298 578l183 -218l-183 -218h-89l185 218l-185 218h89z" />
    <glyph glyph-name="parenleftsuperior" unicode="&#x207d;" 
d="M253 518c0 106 45 176 102 241h71c-64 -77 -101 -147 -101 -241c0 -93 37 -163 101 -241h-71c-57 65 -102 135 -102 241z" />
    <glyph glyph-name="parenrightsuperior" unicode="&#x207e;" 
d="M426 518c0 -107 -46 -176 -103 -241h-70c63 79 100 149 100 241c0 94 -37 164 -100 241h70c57 -65 103 -134 103 -241z" />
    <glyph glyph-name="arrowleft" unicode="&#x2190;" 
d="M30 379l298 250v-85l-190 -158l248 5h264v-68h-264l-248 5l190 -158v-85l-298 251v43z" />
    <glyph glyph-name="arrowright" unicode="&#x2192;" 
d="M352 629l298 -250v-43l-298 -251v85l190 158l-248 -5h-264v68h264l248 -5l-190 158v85z" />
    <glyph glyph-name="arrowboth" unicode="&#x2194;" horiz-adv-x="1300" 
d="M972 629l298 -250v-43l-298 -251v85l190 158l-248 -5h-528l-248 5l190 -158v-85l-298 251v43l298 250v-85l-190 -158l248 5h528l248 -5l-190 158v85z" />
    <glyph glyph-name="NJ" unicode="&#x1ca;" 
d="M585 0h-66l-349 588l4 -230v-358h-79v714h90l324 -534l-4 234v300h80v-714z" />
    <glyph glyph-name="fl" unicode="&#xfb02;" horiz-adv-x="1300" 
d="M271 552v28c0 113 66 182 179 182c37 0 61 -4 88 -11l-5 -79c-27 11 -48 14 -81 14c-65 0 -98 -35 -98 -106v-28h230l-10 -70h-220v-482h-83v482h-159v70h159zM756 742h252v-672h179v-70h-441v70h179v602h-169v70z" />
    <glyph glyph-name="onethird" unicode="&#x2153;" 
d="M400 942v-448h-69v363l-58 -52l-35 -26l-39 53l143 110h58zM90 326v62h500v-62h-500zM190 -181l20 71c44 -37 86 -50 121 -50c57 0 86 30 86 70c0 41 -31 76 -107 76h-57v57h54c69 0 97 31 97 66c0 32 -26 59 -71 59c-36 0 -76 -14 -117 -43l-11 70c36 23 80 39 128 39
c80 0 143 -51 143 -123c0 -43 -23 -73 -82 -94c58 -9 95 -55 95 -109c0 -82 -63 -134 -158 -134c-60 0 -108 22 -141 45z" />
    <glyph glyph-name="twothirds" unicode="&#x2154;" 
d="M211 841l-10 70c37 24 78 37 126 37c88 0 147 -53 147 -134c0 -60 -25 -97 -115 -183l-76 -73h207v-64h-301v56l115 116c82 82 98 110 98 149c0 42 -31 67 -76 67c-39 0 -74 -13 -115 -41zM90 326v62h500v-62h-500zM190 -181l20 71c44 -37 86 -50 121 -50
c57 0 86 30 86 70c0 41 -31 76 -107 76h-57v57h54c69 0 97 31 97 66c0 32 -26 59 -71 59c-36 0 -76 -14 -117 -43l-11 70c36 23 80 39 128 39c80 0 143 -51 143 -123c0 -43 -23 -73 -82 -94c58 -9 95 -55 95 -109c0 -82 -63 -134 -158 -134c-60 0 -108 22 -141 45z" />
    <glyph glyph-name="Scedilla.001" horiz-adv-x="0" 
 />
    <glyph glyph-name="scedilla.001" horiz-adv-x="0" 
 />
    <glyph glyph-name="Gbreve.001" 
d="M340 673c58 0 101 32 116 109h49c-12 -116 -67 -180 -165 -180s-153 64 -165 180h49c15 -77 58 -109 116 -109z" />
    <glyph glyph-name="gbreve.001" 
d="M583 -55c0 -98 -93 -185 -261 -185c-146 0 -215 67 -215 143c0 49 26 85 63 107c-31 19 -57 53 -57 102c0 54 33 89 70 112c-35 34 -57 81 -57 138c0 121 86 200 213 200c64 0 97 -10 170 -10h119l-10 -70l-134 8c41 -30 59 -82 59 -137c0 -108 -89 -188 -205 -188
c-36 0 -76 8 -107 24c-25 -17 -45 -41 -45 -70c0 -28 21 -50 55 -50c61 0 135 10 196 10c96 0 146 -60 146 -134zM211 363c0 -74 56 -120 125 -120c74 0 122 50 122 121c0 73 -53 123 -121 123c-75 0 -126 -46 -126 -124zM243 -10c-8 0 -15 0 -22 1c-26 -17 -34 -37 -34 -68
c0 -48 42 -91 149 -91c114 0 167 48 167 105c0 40 -24 63 -70 63c-59 0 -131 -10 -190 -10zM340 673c58 0 101 32 116 109h49c-12 -116 -67 -180 -165 -180s-153 64 -165 180h49c15 -77 58 -109 116 -109z" />
    <glyph glyph-name="dotlessi.001" horiz-adv-x="0" 
 />
    <glyph glyph-name="dotlessi" unicode="&#x131;" 
d="M136 552h252v-482h179v-70h-441v70h179v412h-169v70z" />
    <glyph glyph-name="dotlessI.001" horiz-adv-x="0" 
 />
    <glyph glyph-name="dotlessI" unicode="&#x130;" 
d="M298 74v566h-176v74h435v-74h-176v-566h176v-74h-435v74h176zM279 831c0 42 29 62 62 62s59 -20 59 -62c0 -40 -26 -62 -59 -62s-62 22 -62 62z" />
    <glyph glyph-name="Gbreve" unicode="&#x11e;" 
d="M604 21c-60 -21 -112 -31 -176 -31c-210 0 -358 135 -358 366s151 368 344 368c51 0 110 -6 161 -27l-10 -82c-52 22 -99 33 -151 33c-149 0 -256 -99 -256 -294c0 -187 118 -288 269 -288c36 0 66 5 96 11v213h-132v74h213v-343zM370 834c58 0 101 32 116 109h49
c-12 -116 -67 -180 -165 -180s-153 64 -165 180h49c15 -77 58 -109 116 -109z" />
    <glyph glyph-name="gbreve" unicode="&#x11f;" 
d="M583 -55c0 -98 -93 -185 -261 -185c-146 0 -215 67 -215 143c0 49 26 85 63 107c-31 19 -57 53 -57 102c0 54 33 89 70 112c-35 34 -57 81 -57 138c0 121 86 200 213 200c64 0 97 -10 170 -10h119l-10 -70l-134 8c41 -30 59 -82 59 -137c0 -108 -89 -188 -205 -188
c-36 0 -76 8 -107 24c-25 -17 -45 -41 -45 -70c0 -28 21 -50 55 -50c61 0 135 10 196 10c96 0 146 -60 146 -134zM211 363c0 -74 56 -120 125 -120c74 0 122 50 122 121c0 73 -53 123 -121 123c-75 0 -126 -46 -126 -124zM243 -10c-8 0 -15 0 -22 1c-26 -17 -34 -37 -34 -68
c0 -48 42 -91 149 -91c114 0 167 48 167 105c0 40 -24 63 -70 63c-59 0 -131 -10 -190 -10zM340 673c58 0 101 32 116 109h49c-12 -116 -67 -180 -165 -180s-153 64 -165 180h49c15 -77 58 -109 116 -109z" />
    <glyph glyph-name="Scedilla" unicode="&#x15e;" 
d="M587 185c0 -116 -94 -195 -269 -195c-101 0 -168 21 -225 50l10 89c64 -38 125 -63 218 -63c115 0 180 47 180 122c0 47 -22 84 -98 110l-141 48c-111 38 -160 98 -160 185c0 108 90 193 251 193c90 0 152 -15 212 -43l-18 -87c-50 29 -117 54 -193 54
c-115 0 -168 -49 -168 -116c0 -55 38 -85 108 -108l125 -41c127 -42 168 -105 168 -198zM425 -50l-62 -180h-109l117 180h54z" />
    <glyph glyph-name="scedilla" unicode="&#x15f;" 
d="M573 141c0 -92 -71 -151 -225 -151c-112 0 -172 20 -226 47l11 89c58 -34 124 -60 213 -60c94 0 142 27 142 76c0 40 -24 70 -91 86l-125 30c-108 26 -152 84 -152 152c0 89 77 152 228 152c83 0 139 -13 195 -36l-10 -89c-59 28 -118 49 -190 49
c-103 0 -139 -35 -139 -72c0 -38 25 -60 85 -74l123 -28c106 -25 161 -82 161 -171zM405 -50l-62 -180h-109l117 180h54z" />
  </font>
</defs>
</svg>
